# SSTK version 0.8.0
# 29
mtllib original-29.mtl
o GRB_11_BC1/GRB_11_BC/mesh17/mesh17-geometry#mesh17-geometry
v 0.943075 0.137261 0.273212
v 0.943053 -0.113915 0.271765
v 0.943075 -0.113915 0.273212
v 0.943053 0.137261 0.271765
v 0.943356 0.137261 0.274318
v 0.940966 -0.113915 0.271765
v 0.943356 -0.113915 0.274318
v 0.940966 0.137261 0.271765
v 0.944176 0.137261 0.275110
v 0.940545 -0.113915 0.272778
v 0.944176 -0.113915 0.275110
v 0.940545 0.137261 0.272778
v 0.945291 0.137261 0.275351
v 0.939853 -0.113915 0.273618
v 0.945291 -0.113915 0.275351
v 0.939853 0.137261 0.273618
v 0.946366 0.137261 0.274969
v 0.938475 -0.113915 0.274425
v 0.946366 -0.113915 0.274969
v 0.938475 0.137261 0.274425
v 0.947527 0.137261 0.274105
v 0.937055 -0.113915 0.274575
v 0.947527 -0.113915 0.274105
v 0.937055 0.137261 0.274575
v 0.951901 0.137261 0.271986
v 0.937033 -0.113915 0.275689
v 0.951901 -0.113915 0.271986
v 0.937033 0.137261 0.275689
v 0.956746 0.137261 0.270835
v 0.936004 -0.113915 0.276773
v 0.956746 -0.113915 0.270835
v 0.936004 0.137261 0.276773
v 0.959690 0.137261 0.270773
v 0.879086 -0.113915 0.276773
v 0.959690 -0.113915 0.270773
v 0.879086 0.137261 0.276773
v 0.961081 0.137261 0.269370
v 0.878090 -0.113915 0.275730
v 0.961081 -0.113915 0.269370
v 0.878090 0.137261 0.275730
v 0.961081 0.137261 0.253387
v 0.878018 -0.113915 0.271810
v 0.961081 -0.113915 0.253387
v 0.878018 0.137261 0.271810
v 0.958516 0.137261 0.250124
v 0.877039 -0.113915 0.270960
v 0.958516 -0.113915 0.250124
v 0.877039 0.137261 0.270960
v 0.860994 -0.113915 0.250124
v 0.873503 -0.113915 0.270960
v 0.860994 0.137261 0.250124
v 0.873503 0.137261 0.270960
v 0.860994 0.137261 0.268204
v 0.873020 -0.113915 0.273136
v 0.860994 -0.113915 0.268204
v 0.873020 0.137261 0.273136
v 0.861350 0.137261 0.269594
v 0.871485 -0.113915 0.274754
v 0.861350 -0.113915 0.269594
v 0.871485 0.137261 0.274754
v 0.862285 0.137261 0.270583
v 0.869337 -0.113915 0.275350
v 0.862285 -0.113915 0.270583
v 0.869337 0.137261 0.275350
v 0.863599 0.137261 0.270960
v 0.867188 -0.113915 0.274754
v 0.863599 -0.113915 0.270960
v 0.867188 0.137261 0.274754
v 0.865170 0.137261 0.270960
v 0.865653 -0.113915 0.273136
v 0.865170 -0.113915 0.270960
v 0.865653 0.137261 0.273136
vt 0.035095 0.699887
vt 0.035108 0.882317
vt 0.035095 0.882317
vt 0.035108 0.699887
vt 0.034931 0.699887
vt 0.036332 0.882317
vt 0.034931 0.882317
vt 0.036332 0.699887
vt 0.03445 0.699887
vt 0.036579 0.882317
vt 0.03445 0.882317
vt 0.036579 0.699887
vt 0.033796 0.699887
vt 0.036985 0.882317
vt 0.033796 0.882317
vt 0.036985 0.699887
vt 0.033166 0.699887
vt 0.037793 0.882317
vt 0.033166 0.882317
vt 0.037793 0.699887
vt 0.032485 0.699887
vt 0.038625 0.882317
vt 0.032485 0.882317
vt 0.038625 0.699887
vt 0.029921 0.699887
vt 0.038638 0.882317
vt 0.029921 0.882317
vt 0.038638 0.699887
vt 0.02708 0.699887
vt 0.039242 0.882317
vt 0.02708 0.882317
vt 0.039242 0.699887
vt 0.025354 0.699887
vt 0.072615 0.882317
vt 0.025354 0.882317
vt 0.072615 0.699887
vt 0.024538 0.699887
vt 0.073198 0.882317
vt 0.024538 0.882317
vt 0.073198 0.699887
vt 0.073241 0.882317
vt 0.073241 0.699887
vt 0.026042 0.699887
vt 0.073815 0.882317
vt 0.026042 0.882317
vt 0.073815 0.699887
vt 0.083223 0.882317
vt 0.075888 0.882317
vt 0.083223 0.699887
vt 0.075888 0.699887
vt 0.076171 0.882317
vt 0.076171 0.699887
vt 0.083014 0.699887
vt 0.077071 0.882317
vt 0.083014 0.882317
vt 0.077071 0.699887
vt 0.082466 0.699887
vt 0.078331 0.882317
vt 0.082466 0.882317
vt 0.078331 0.699887
vt 0.081695 0.699887
vt 0.079591 0.882317
vt 0.081695 0.882317
vt 0.079591 0.699887
vt 0.080774 0.699887
vt 0.080491 0.882317
vt 0.080774 0.882317
vt 0.080491 0.699887
vn -0.9913292929170314 0 0.1314010388262535
vn -0.9998810892883854 0 0.015421001377080286
vn -0.8650370308675492 0 0.5017080179026987
vn 0 0 1
vn -0.4709491822100381 0 0.8821603413074611
vn 0.9233742208355903 0 0.38390109181437176
vn 0.8569058686513363 0 0.5154729209870278
vn 0.06444700844094771 0 0.9979211307027286
vn 0.6485230293281579 0 0.7611950344235237
vn 0.4712621119971038 0 0.8819932096087979
vn 0.3121370299436191 0 0.9500370911380125
vn 0.5187288783160755 0 0.854938799447625
vn 0.10509798638728952 0 0.994461871193329
vn 0.3355149569785976 0 0.9420348792075852
vn 0.9997994393469632 0 0.020027008800570324
vn 0.925002578416296 0 0.37996082682719295
vn 0.12685097270896775 0 0.9919217865954899
vn 0.3946238895003938 0 0.9188427427125824
vn 0.39455801380854466 0 0.9188710321581895
vn -0.39341584314965866 0 0.9193606334615613
vn 0.9247352064258889 0 0.38061108496267987
vn -0.9247981708250348 0 0.3804580702766997
vn 0.945027820027029 0 -0.3269899377273885
vn -0.9059915435253358 0 0.42329578672670487
vn 0.43701910779842384 0 -0.8994522218656584
vn -0.34998597721223856 0 0.9367549390074196
vn 0 0 -1
vn -1 0 0
vn -0.9921490536147441 0 0.12506100675817217
vn 0.9762715506789323 0 0.21654990033466345
vn 0.8829048588548676 0 0.4695519249353221
vn -0.8756788571430763 0 0.48289392122141667
vn 0.5149989020261033 0 0.8571908369271732
vn -0.5196688573548156 0 0.8543677654824885
vn -0.1391790330320595 0 0.990267235025102
vn -0.5149989020261029 0 0.8571908369271735
vn -0.8829048588548674 0 0.46955192493532255
vn -0.9762715506789323 0 0.2165499003346639
vn 0.9913292929170314 0 -0.1314010388262535
vn 0.9998810892883854 0 -0.015421001377080286
vn 0.8650370308675492 0 -0.5017080179026987
vn 0.4709491822100381 0 -0.8821603413074611
vn -0.9233742208355903 0 -0.38390109181437176
vn -0.8569058686513363 0 -0.5154729209870278
vn -0.06444700844094771 0 -0.9979211307027286
vn -0.6485230293281579 0 -0.7611950344235237
vn -0.4712621119971038 0 -0.8819932096087979
vn -0.3121370299436191 0 -0.9500370911380125
vn -0.5187288783160755 0 -0.854938799447625
vn -0.10509798638728952 0 -0.994461871193329
vn -0.3355149569785976 0 -0.9420348792075852
vn -0.9997994393469632 0 -0.020027008800570324
vn -0.925002578416296 0 -0.37996082682719295
vn -0.12685097270896775 0 -0.9919217865954899
vn -0.3946238895003938 0 -0.9188427427125824
vn -0.39455801380854466 0 -0.9188710321581895
vn 0.39341584314965866 0 -0.9193606334615613
vn -0.9247352064258889 0 -0.38061108496267987
vn 0.9247981708250348 0 -0.3804580702766997
vn -0.945027820027029 0 0.3269899377273885
vn 0.9059915435253358 0 -0.42329578672670487
vn -0.43701910779842384 0 0.8994522218656584
vn 0.34998597721223856 0 -0.9367549390074196
vn 1 0 0
vn 0.9921490536147441 0 -0.12506100675817217
vn -0.9762715506789323 0 -0.21654990033466345
vn -0.8829048588548676 0 -0.4695519249353221
vn 0.8756788571430763 0 -0.48289392122141667
vn -0.5149989020261033 0 -0.8571908369271732
vn 0.5196688573548156 0 -0.8543677654824885
vn 0.1391790330320595 0 -0.990267235025102
vn 0.5149989020261029 0 -0.8571908369271735
vn 0.8829048588548674 0 -0.46955192493532255
vn 0.9762715506789323 0 -0.2165499003346639
usemtl material_0_0
f 1/1/1 2/2/2 3/3/1
f 2/2/2 1/1/1 4/4/2
f 3/3/1 5/5/3 1/1/1
f 4/4/4 6/6/4 2/2/4
f 5/5/3 3/3/1 7/7/3
f 6/6/4 4/4/4 8/8/4
f 7/7/3 9/9/5 5/5/3
f 8/8/6 10/10/7 6/6/6
f 9/9/5 7/7/3 11/11/5
f 10/10/7 8/8/6 12/12/7
f 11/11/5 13/13/8 9/9/5
f 12/12/7 14/14/9 10/10/7
f 13/13/8 11/11/5 15/15/8
f 14/14/9 12/12/7 16/16/9
f 15/15/8 17/17/10 13/13/8
f 16/16/9 18/18/11 14/14/9
f 17/17/10 15/15/8 19/19/10
f 18/18/11 16/16/9 20/20/11
f 19/19/10 21/21/12 17/17/10
f 20/20/11 22/22/13 18/18/11
f 21/21/12 19/19/10 23/23/12
f 22/22/13 20/20/11 24/24/13
f 23/23/12 25/25/14 21/21/12
f 24/24/15 26/26/16 22/22/15
f 25/25/14 23/23/12 27/27/14
f 26/26/16 24/24/15 28/28/16
f 27/27/14 29/29/17 25/25/14
f 28/28/16 30/30/18 26/26/16
f 29/29/17 27/27/14 31/31/17
f 30/30/18 28/28/16 32/32/18
f 31/31/17 33/33/19 29/29/17
f 32/32/18 34/34/20 30/30/18
f 33/33/19 31/31/17 35/35/19
f 34/34/20 32/32/18 36/36/20
f 35/35/19 37/37/21 33/33/19
f 36/36/20 38/38/22 34/34/20
f 37/37/21 35/35/19 39/39/21
f 38/38/22 36/36/20 40/40/22
f 39/39/21 41/37/23 37/37/21
f 40/40/22 42/41/24 38/38/22
f 41/37/23 39/39/21 43/39/23
f 42/41/24 40/40/22 44/42/24
f 43/39/23 45/43/25 41/37/23
f 44/42/24 46/44/26 42/41/24
f 45/43/25 43/39/23 47/45/25
f 46/44/26 44/42/24 48/46/26
f 49/47/27 45/43/25 47/45/25
f 48/46/26 50/48/4 46/44/26
f 45/43/25 49/47/27 51/49/27
f 50/48/4 48/46/26 52/50/4
f 49/47/28 53/49/29 51/49/28
f 52/50/30 54/51/31 50/48/30
f 53/49/29 49/47/28 55/47/29
f 54/51/31 52/50/30 56/52/31
f 55/47/29 57/53/32 53/49/29
f 56/52/31 58/54/33 54/51/31
f 57/53/32 55/47/29 59/55/32
f 58/54/33 56/52/31 60/56/33
f 59/55/32 61/57/34 57/53/32
f 60/56/33 62/58/4 58/54/33
f 61/57/34 59/55/32 63/59/34
f 62/58/4 60/56/33 64/60/4
f 63/59/34 65/61/35 61/57/34
f 64/60/4 66/62/36 62/58/4
f 65/61/35 63/59/34 67/63/35
f 66/62/36 64/60/4 68/64/36
f 67/63/35 69/65/4 65/61/35
f 68/64/36 70/66/37 66/62/36
f 69/65/4 67/63/35 71/67/4
f 70/66/37 68/64/36 72/68/37
f 71/67/38 72/68/37 69/65/38
f 72/68/37 71/67/38 70/66/37
usemtl material_1_0
f 3//39 2//40 1//39
f 4//40 1//39 2//40
f 1//39 5//41 3//39
f 2//27 6//27 4//27
f 7//41 3//39 5//41
f 8//27 4//27 6//27
f 5//41 9//42 7//41
f 6//43 10//44 8//43
f 11//42 7//41 9//42
f 12//44 8//43 10//44
f 9//42 13//45 11//42
f 10//44 14//46 12//44
f 15//45 11//42 13//45
f 16//46 12//44 14//46
f 13//45 17//47 15//45
f 14//46 18//48 16//46
f 19//47 15//45 17//47
f 20//48 16//46 18//48
f 17//47 21//49 19//47
f 18//48 22//50 20//48
f 23//49 19//47 21//49
f 24//50 20//48 22//50
f 21//49 25//51 23//49
f 22//52 26//53 24//52
f 27//51 23//49 25//51
f 28//53 24//52 26//53
f 25//51 29//54 27//51
f 26//53 30//55 28//53
f 31//54 27//51 29//54
f 32//55 28//53 30//55
f 29//54 33//56 31//54
f 30//55 34//57 32//55
f 35//56 31//54 33//56
f 36//57 32//55 34//57
f 33//56 37//58 35//56
f 34//57 38//59 36//57
f 39//58 35//56 37//58
f 40//59 36//57 38//59
f 37//58 41//60 39//58
f 38//59 42//61 40//59
f 43//60 39//58 41//60
f 44//61 40//59 42//61
f 41//60 45//62 43//60
f 42//61 46//63 44//61
f 47//62 43//60 45//62
f 48//63 44//61 46//63
f 47//62 45//62 49//4
f 46//63 50//27 48//63
f 51//4 49//4 45//62
f 52//27 48//63 50//27
f 51//64 53//65 49//64
f 50//66 54//67 52//66
f 55//65 49//64 53//65
f 56//67 52//66 54//67
f 53//65 57//68 55//65
f 54//67 58//69 56//67
f 59//68 55//65 57//68
f 60//69 56//67 58//69
f 57//68 61//70 59//68
f 58//69 62//27 60//69
f 63//70 59//68 61//70
f 64//27 60//69 62//27
f 61//70 65//71 63//70
f 62//27 66//72 64//27
f 67//71 63//70 65//71
f 68//72 64//27 66//72
f 65//71 69//27 67//71
f 66//72 70//73 68//72
f 71//27 67//71 69//27
f 72//73 68//72 70//73
f 69//74 72//73 71//74
f 70//73 71//74 72//73
