# SSTK version 0.8.0
# 28
mtllib original-28.mtl
o GRB_11_TC1/GRB_11_TC/mesh16/mesh16-geometry#mesh16-geometry
v -0.861306 0.137261 0.275730
v -0.862302 -0.113915 0.276773
v -0.861306 -0.113915 0.275730
v -0.862302 0.137261 0.276773
v -0.861234 0.137261 0.271810
v -0.919220 -0.113915 0.276773
v -0.861234 -0.113915 0.271810
v -0.919220 0.137261 0.276773
v -0.860255 0.137261 0.270960
v -0.920249 -0.113915 0.275689
v -0.860255 -0.113915 0.270960
v -0.920249 0.137261 0.275689
v -0.856719 0.137261 0.270960
v -0.920271 -0.113915 0.274575
v -0.856719 -0.113915 0.270960
v -0.920271 0.137261 0.274575
v -0.856236 0.137261 0.273136
v -0.921691 -0.113915 0.274425
v -0.856236 -0.113915 0.273136
v -0.921691 0.137261 0.274425
v -0.854701 0.137261 0.274754
v -0.923069 -0.113915 0.273618
v -0.854701 -0.113915 0.274754
v -0.923069 0.137261 0.273618
v -0.852553 0.137261 0.275350
v -0.923761 -0.113915 0.272778
v -0.852553 -0.113915 0.275350
v -0.923761 0.137261 0.272778
v -0.850404 0.137261 0.274754
v -0.924182 -0.113915 0.271765
v -0.850404 -0.113915 0.274754
v -0.924182 0.137261 0.271765
v -0.848869 0.137261 0.273136
v -0.926269 -0.113915 0.271765
v -0.848869 -0.113915 0.273136
v -0.926269 0.137261 0.271765
v -0.848386 0.137261 0.270960
v -0.926291 -0.113915 0.273212
v -0.848386 -0.113915 0.270960
v -0.926291 0.137261 0.273212
v -0.846815 0.137261 0.270960
v -0.926571 -0.113915 0.274318
v -0.846815 -0.113915 0.270960
v -0.926571 0.137261 0.274318
v -0.845500 0.137261 0.270583
v -0.927392 -0.113915 0.275110
v -0.845500 -0.113915 0.270583
v -0.927392 0.137261 0.275110
v -0.844566 0.137261 0.269594
v -0.928507 -0.113915 0.275351
v -0.844566 -0.113915 0.269594
v -0.928507 0.137261 0.275351
v -0.844210 0.137261 0.268204
v -0.929582 -0.113915 0.274969
v -0.844210 -0.113915 0.268204
v -0.929582 0.137261 0.274969
v -0.844210 0.137261 0.250124
v -0.930743 -0.113915 0.274105
v -0.844210 -0.113915 0.250124
v -0.930743 0.137261 0.274105
v -0.941731 -0.113915 0.250124
v -0.935117 -0.113915 0.271986
v -0.941731 0.137261 0.250124
v -0.935117 0.137261 0.271986
v -0.944297 0.137261 0.253387
v -0.939962 -0.113915 0.270835
v -0.944297 -0.113915 0.253387
v -0.939962 0.137261 0.270835
v -0.944297 0.137261 0.269370
v -0.942906 -0.113915 0.270773
v -0.944297 -0.113915 0.269370
v -0.942906 0.137261 0.270773
vt 0.457649 0.699887
vt 0.458233 0.882317
vt 0.457649 0.882317
vt 0.458233 0.699887
vt 0.457607 0.699887
vt 0.491606 0.882317
vt 0.457607 0.882317
vt 0.491606 0.699887
vt 0.457033 0.699887
vt 0.492209 0.882317
vt 0.457033 0.882317
vt 0.492209 0.699887
vt 0.454959 0.699887
vt 0.492222 0.882317
vt 0.454959 0.882317
vt 0.492222 0.699887
vt 0.454676 0.699887
vt 0.493055 0.882317
vt 0.454676 0.882317
vt 0.493055 0.699887
vt 0.453776 0.699887
vt 0.493862 0.882317
vt 0.453776 0.882317
vt 0.493862 0.699887
vt 0.452517 0.699887
vt 0.494268 0.882317
vt 0.452517 0.882317
vt 0.494268 0.699887
vt 0.451257 0.699887
vt 0.494515 0.882317
vt 0.451257 0.882317
vt 0.494515 0.699887
vt 0.450357 0.699887
vt 0.495739 0.882317
vt 0.450357 0.882317
vt 0.495739 0.699887
vt 0.450074 0.699887
vt 0.495752 0.882317
vt 0.450074 0.882317
vt 0.495752 0.699887
vt 0.449152 0.699887
vt 0.495916 0.882317
vt 0.449152 0.882317
vt 0.495916 0.699887
vt 0.448382 0.699887
vt 0.496397 0.882317
vt 0.448382 0.882317
vt 0.496397 0.699887
vt 0.447833 0.699887
vt 0.497051 0.882317
vt 0.447833 0.882317
vt 0.497051 0.699887
vt 0.447625 0.699887
vt 0.497681 0.882317
vt 0.447625 0.882317
vt 0.497681 0.699887
vt 0.498362 0.882317
vt 0.498362 0.699887
vt 0.504805 0.882317
vt 0.500927 0.882317
vt 0.504805 0.699887
vt 0.500927 0.699887
vt 0.506309 0.699887
vt 0.503768 0.882317
vt 0.506309 0.882317
vt 0.503768 0.699887
vt 0.505494 0.882317
vt 0.505494 0.699887
vn 0.9247981708250348 0 0.3804580702766992
vn 0.3934158431496591 0 0.919360633461561
vn 0.9059915435253358 0 0.4232957867267043
vn -0.39462388950039334 0 0.9188427427125826
vn 0.349985977212239 0 0.9367549390074194
vn -0.9250029298806179 0 0.3799599711973257
vn 0 0 1
vn -0.9997994393469632 0 0.02002700880057077
vn -0.9762715506789323 0 0.2165499003346639
vn -0.8829052734243276 0 0.46955114541390824
vn -0.10509798638728908 0 0.994461871193329
vn -0.3121370299436186 0 0.9500370911380125
vn -0.5149989020261029 0 0.8571908369271735
vn -0.6485230293281574 0 0.7611950344235239
vn -0.8569058686513361 0 0.5154729209870282
vn 0.5149989020261033 0 0.8571908369271732
vn -0.9233742208355901 0 0.3839010918143722
vn 0.8829052734243278 0 0.4695511454139078
vn 0.9762715506789323 0 0.21654990033466345
vn 0.9998810892883854 0 0.015421001377079841
vn 0.9913292929170314 0 0.13140103882625306
vn 0.13917903303205995 0 0.990267235025102
vn 0.8650370308675495 0 0.5017080179026983
vn 0.519668857354816 0 0.8543677654824883
vn 0.47094918221003856 0 0.8821603413074609
vn 0.8756788571430765 0 0.4828939212214162
vn -0.06444700844094726 0 0.9979211307027286
vn 0.9921490536147441 0 0.12506100675817172
vn -0.4712621119971034 0 0.8819932096087981
vn 1 0 0
vn -0.5187288783160751 0 0.8549387994476252
vn -0.4370191077984243 0 -0.8994522218656582
vn 0 0 -1
vn -0.3355149569785972 0 0.9420348792075854
vn -0.9450278200270291 0 -0.326989937727388
vn -0.12685097270896734 0 0.9919217865954901
vn -0.9247352064258889 0 0.38061108496268037
vn -0.3945580138085442 0 0.9188710321581898
vn -0.9247981708250348 0 -0.3804580702766992
vn -0.3934158431496591 0 -0.919360633461561
vn -0.9059915435253358 0 -0.4232957867267043
vn 0.39462388950039334 0 -0.9188427427125826
vn -0.349985977212239 0 -0.9367549390074194
vn 0.9250029298806179 0 -0.3799599711973257
vn 0.9997994393469632 0 -0.02002700880057077
vn 0.9762715506789323 0 -0.2165499003346639
vn 0.8829052734243276 0 -0.46955114541390824
vn 0.10509798638728908 0 -0.994461871193329
vn 0.3121370299436186 0 -0.9500370911380125
vn 0.5149989020261029 0 -0.8571908369271735
vn 0.6485230293281574 0 -0.7611950344235239
vn 0.8569058686513361 0 -0.5154729209870282
vn -0.5149989020261033 0 -0.8571908369271732
vn 0.9233742208355901 0 -0.3839010918143722
vn -0.8829052734243278 0 -0.4695511454139078
vn -0.9762715506789323 0 -0.21654990033466345
vn -0.9998810892883854 0 -0.015421001377079841
vn -0.9913292929170314 0 -0.13140103882625306
vn -0.13917903303205995 0 -0.990267235025102
vn -0.8650370308675495 0 -0.5017080179026983
vn -0.519668857354816 0 -0.8543677654824883
vn -0.47094918221003856 0 -0.8821603413074609
vn -0.8756788571430765 0 -0.4828939212214162
vn 0.06444700844094726 0 -0.9979211307027286
vn -0.9921490536147441 0 -0.12506100675817172
vn 0.4712621119971034 0 -0.8819932096087981
vn -1 0 0
vn 0.5187288783160751 0 -0.8549387994476252
vn 0.4370191077984243 0 0.8994522218656582
vn 0.3355149569785972 0 -0.9420348792075854
vn 0.9450278200270291 0 0.326989937727388
vn 0.12685097270896734 0 -0.9919217865954901
vn 0.9247352064258889 0 -0.38061108496268037
vn 0.3945580138085442 0 -0.9188710321581898
usemtl material_0_0
f 1/1/1 2/2/2 3/3/1
f 2/2/2 1/1/1 4/4/2
f 3/3/1 5/5/3 1/1/1
f 4/4/2 6/6/4 2/2/2
f 5/5/3 3/3/1 7/7/3
f 6/6/4 4/4/2 8/8/4
f 7/7/3 9/9/5 5/5/3
f 8/8/4 10/10/6 6/6/4
f 9/9/5 7/7/3 11/11/5
f 10/10/6 8/8/4 12/12/6
f 11/11/5 13/13/7 9/9/5
f 12/12/6 14/14/8 10/10/6
f 13/13/7 11/11/5 15/15/7
f 14/14/8 12/12/6 16/16/8
f 15/15/9 17/17/10 13/13/9
f 16/16/11 18/18/12 14/14/11
f 17/17/10 15/15/9 19/19/10
f 18/18/12 16/16/11 20/20/12
f 19/19/10 21/21/13 17/17/10
f 20/20/12 22/22/14 18/18/12
f 21/21/13 19/19/10 23/23/13
f 22/22/14 20/20/12 24/24/14
f 23/23/13 25/25/7 21/21/13
f 24/24/14 26/26/15 22/22/14
f 25/25/7 23/23/13 27/27/7
f 26/26/15 24/24/14 28/28/15
f 27/27/7 29/29/16 25/25/7
f 28/28/15 30/30/17 26/26/15
f 29/29/16 27/27/7 31/31/16
f 30/30/17 28/28/15 32/32/17
f 31/31/16 33/33/18 29/29/16
f 32/32/7 34/34/7 30/30/7
f 33/33/18 31/31/16 35/35/18
f 34/34/7 32/32/7 36/36/7
f 35/35/18 37/37/19 33/33/18
f 36/36/20 38/38/21 34/34/20
f 37/37/19 35/35/18 39/39/19
f 38/38/21 36/36/20 40/40/21
f 39/39/7 41/41/22 37/37/7
f 40/40/21 42/42/23 38/38/21
f 41/41/22 39/39/7 43/43/22
f 42/42/23 40/40/21 44/44/23
f 43/43/22 45/45/24 41/41/22
f 44/44/23 46/46/25 42/42/23
f 45/45/24 43/43/22 47/47/24
f 46/46/25 44/44/23 48/48/25
f 47/47/24 49/49/26 45/45/24
f 48/48/25 50/50/27 46/46/25
f 49/49/26 47/47/24 51/51/26
f 50/50/27 48/48/25 52/52/27
f 51/51/26 53/53/28 49/49/26
f 52/52/27 54/54/29 50/50/27
f 53/53/28 51/51/26 55/55/28
f 54/54/29 52/52/27 56/56/29
f 55/55/28 57/53/30 53/53/28
f 56/56/29 58/57/31 54/54/29
f 57/53/30 55/55/28 59/55/30
f 58/57/31 56/56/29 60/58/31
f 61/59/32 57/53/33 59/55/33
f 60/58/31 62/60/34 58/57/31
f 57/53/33 61/59/32 63/61/32
f 62/60/34 60/58/31 64/62/34
f 61/59/32 65/63/35 63/61/32
f 64/62/34 66/64/36 62/60/34
f 65/63/35 61/59/32 67/65/35
f 66/64/36 64/62/34 68/66/36
f 67/65/35 69/63/37 65/63/35
f 68/66/36 70/67/38 66/64/36
f 69/63/37 67/65/35 71/65/37
f 70/67/38 68/66/36 72/68/38
f 71/65/37 72/68/38 69/63/37
f 72/68/38 71/65/37 70/67/38
usemtl material_1_0
f 3//39 2//40 1//39
f 4//40 1//39 2//40
f 1//39 5//41 3//39
f 2//40 6//42 4//40
f 7//41 3//39 5//41
f 8//42 4//40 6//42
f 5//41 9//43 7//41
f 6//42 10//44 8//42
f 11//43 7//41 9//43
f 12//44 8//42 10//44
f 9//43 13//33 11//43
f 10//44 14//45 12//44
f 15//33 11//43 13//33
f 16//45 12//44 14//45
f 13//46 17//47 15//46
f 14//48 18//49 16//48
f 19//47 15//46 17//47
f 20//49 16//48 18//49
f 17//47 21//50 19//47
f 18//49 22//51 20//49
f 23//50 19//47 21//50
f 24//51 20//49 22//51
f 21//50 25//33 23//50
f 22//51 26//52 24//51
f 27//33 23//50 25//33
f 28//52 24//51 26//52
f 25//33 29//53 27//33
f 26//52 30//54 28//52
f 31//53 27//33 29//53
f 32//54 28//52 30//54
f 29//53 33//55 31//53
f 30//33 34//33 32//33
f 35//55 31//53 33//55
f 36//33 32//33 34//33
f 33//55 37//56 35//55
f 34//57 38//58 36//57
f 39//56 35//55 37//56
f 40//58 36//57 38//58
f 37//33 41//59 39//33
f 38//58 42//60 40//58
f 43//59 39//33 41//59
f 44//60 40//58 42//60
f 41//59 45//61 43//59
f 42//60 46//62 44//60
f 47//61 43//59 45//61
f 48//62 44//60 46//62
f 45//61 49//63 47//61
f 46//62 50//64 48//62
f 51//63 47//61 49//63
f 52//64 48//62 50//64
f 49//63 53//65 51//63
f 50//64 54//66 52//64
f 55//65 51//63 53//65
f 56//66 52//64 54//66
f 53//65 57//67 55//65
f 54//66 58//68 56//66
f 59//67 55//65 57//67
f 60//68 56//66 58//68
f 59//7 57//7 61//69
f 58//68 62//70 60//68
f 63//69 61//69 57//7
f 64//70 60//68 62//70
f 63//69 65//71 61//69
f 62//70 66//72 64//70
f 67//71 61//69 65//71
f 68//72 64//70 66//72
f 65//71 69//73 67//71
f 66//72 70//74 68//72
f 71//73 67//71 69//73
f 72//74 68//72 70//74
f 69//73 72//74 71//73
f 70//74 71//73 72//74
