# SSTK version 0.8.0
# 24
mtllib original-24.mtl
o GRB_11_TL1/GRB_11_TL/mesh12/mesh12-geometry#mesh12-geometry
v -0.919220 -0.223074 0.276773
v -0.788275 -0.224103 0.275689
v -0.788275 -0.223074 0.276773
v -0.920249 -0.224103 0.275689
v -0.862302 -0.166157 0.276773
v -0.920249 -0.113915 0.275689
v -0.788275 -0.224126 0.274575
v -0.788275 -0.166157 0.276773
v -0.919220 -0.113915 0.276773
v -0.920271 -0.113915 0.274575
v -0.920271 -0.224126 0.274575
v -0.788275 -0.165161 0.275730
v -0.862302 -0.113915 0.276773
v -0.788275 -0.225545 0.274425
v -0.861306 -0.165161 0.275730
v -0.921691 -0.113915 0.274425
v -0.921691 -0.225545 0.274425
v -0.788275 -0.165089 0.271810
v -0.861306 -0.113915 0.275730
v -0.788275 -0.226923 0.273618
v -0.861234 -0.165089 0.271810
v -0.923069 -0.113915 0.273618
v -0.923069 -0.226923 0.273618
v -0.860255 -0.164110 0.270960
v -0.861234 -0.113915 0.271810
v -0.788275 -0.227615 0.272778
v -0.788275 -0.164110 0.270960
v -0.923761 -0.113915 0.272778
v -0.923761 -0.227615 0.272778
v -0.856719 -0.160574 0.270960
v -0.860255 -0.113915 0.270960
v -0.788275 -0.228036 0.271765
v -0.788275 -0.160574 0.270960
v -0.924182 -0.113915 0.271765
v -0.924182 -0.228036 0.271765
v -0.856236 -0.160091 0.273136
v -0.856719 -0.113915 0.270960
v -0.788275 -0.230124 0.271765
v -0.788275 -0.160091 0.273136
v -0.926269 -0.113915 0.271765
v -0.926269 -0.230124 0.271765
v -0.854701 -0.158556 0.274754
v -0.856236 -0.113915 0.273136
v -0.926291 -0.230146 0.273212
v -0.788275 -0.158556 0.274754
v -0.926291 -0.113915 0.273212
v -0.788275 -0.230146 0.273212
v -0.852553 -0.156407 0.275350
v -0.854701 -0.113915 0.274754
v -0.926571 -0.230426 0.274318
v -0.926571 -0.113915 0.274318
v -0.788275 -0.156407 0.275350
v -0.788275 -0.230426 0.274318
v -0.850404 -0.154259 0.274754
v -0.852553 -0.113915 0.275350
v -0.788275 -0.231247 0.275110
v -0.927392 -0.113915 0.275110
v -0.788275 -0.154259 0.274754
v -0.927392 -0.231247 0.275110
v -0.788275 -0.152724 0.273136
v -0.850404 -0.113915 0.274754
v -0.788275 -0.232362 0.275351
v -0.928507 -0.113915 0.275351
v -0.848869 -0.152724 0.273136
v -0.928507 -0.232362 0.275351
v -0.788275 -0.152241 0.270960
v -0.848869 -0.113915 0.273136
v -0.788275 -0.233436 0.274969
v -0.929582 -0.113915 0.274969
v -0.848386 -0.152241 0.270960
v -0.929582 -0.233436 0.274969
v -0.846815 -0.150669 0.270960
v -0.848386 -0.113915 0.270960
v -0.788275 -0.234597 0.274105
v -0.930743 -0.113915 0.274105
v -0.788275 -0.150669 0.270960
v -0.930743 -0.234597 0.274105
v -0.845500 -0.149355 0.270583
v -0.846815 -0.113915 0.270960
v -0.788275 -0.238971 0.271986
v -0.935117 -0.113915 0.271986
v -0.788275 -0.149355 0.270583
v -0.935117 -0.238971 0.271986
v -0.788275 -0.148420 0.269594
v -0.845500 -0.113915 0.270583
v -0.788275 -0.243817 0.270835
v -0.939962 -0.113915 0.270835
v -0.844566 -0.148420 0.269594
v -0.939962 -0.243817 0.270835
v -0.788275 -0.148064 0.268204
v -0.844566 -0.113915 0.269594
v -0.788275 -0.246760 0.270773
v -0.942906 -0.113915 0.270773
v -0.844210 -0.148064 0.268204
v -0.942906 -0.246760 0.270773
v -0.788275 -0.148064 0.250124
v -0.844210 -0.113915 0.268204
v -0.788275 -0.248151 0.269370
v -0.944297 -0.113915 0.269370
v -0.844210 -0.148064 0.250124
v -0.844210 -0.113915 0.250124
v -0.944297 -0.248151 0.269370
v -0.941731 -0.245586 0.250124
v -0.788275 -0.248151 0.253387
v -0.944297 -0.248151 0.253387
v -0.788275 -0.245586 0.250124
v -0.944297 -0.113915 0.253387
v -0.941731 -0.113915 0.250124
vt 0.014703 0.727484
vt 0.0141 0.650707
vt 0.014703 0.650707
vt 0.0141 0.728087
vt 0.048076 0.694111
vt 0.491606 0.946321
vt 0.492209 0.882317
vt 0.492209 0.946924
vt 0.014087 0.650707
vt 0.048076 0.650707
vt 0.458233 0.912948
vt 0.491606 0.882317
vt 0.492222 0.882317
vt 0.014087 0.728101
vt 0.04866 0.650707
vt 0.458233 0.882317
vt 0.492222 0.946937
vt 0.013255 0.650707
vt 0.04866 0.693528
vt 0.457649 0.912364
vt 0.493055 0.882317
vt 0.013255 0.728933
vt 0.048702 0.650707
vt 0.457649 0.882317
vt 0.493055 0.94777
vt 0.012447 0.650707
vt 0.048702 0.693485
vt 0.457607 0.912322
vt 0.493862 0.882317
vt 0.012447 0.729741
vt 0.049276 0.692911
vt 0.457607 0.882317
vt 0.493862 0.948577
vt 0.012041 0.650707
vt 0.049276 0.650707
vt 0.457033 0.911748
vt 0.494268 0.882317
vt 0.012041 0.730147
vt 0.05135 0.690838
vt 0.457033 0.882317
vt 0.494268 0.948983
vt 0.011794 0.650707
vt 0.05135 0.650707
vt 0.454959 0.909674
vt 0.494515 0.882317
vt 0.011794 0.730394
vt 0.051633 0.690555
vt 0.454959 0.882317
vt 0.494515 0.94923
vt 0.01057 0.650707
vt 0.051633 0.650707
vt 0.454676 0.909391
vt 0.495739 0.882317
vt 0.01057 0.731617
vt 0.052533 0.689655
vt 0.454676 0.882317
vt 0.495739 0.950454
vt 0.010557 0.73163
vt 0.052533 0.650707
vt 0.453776 0.908491
vt 0.495752 0.882317
vt 0.010557 0.650707
vt 0.495752 0.950467
vt 0.053793 0.688395
vt 0.453776 0.882317
vt 0.010393 0.731795
vt 0.495916 0.882317
vt 0.053793 0.650707
vt 0.452517 0.907232
vt 0.010393 0.650707
vt 0.495916 0.950631
vt 0.055052 0.687135
vt 0.452517 0.882317
vt 0.009912 0.650707
vt 0.496397 0.882317
vt 0.055052 0.650707
vt 0.451257 0.905972
vt 0.009912 0.732276
vt 0.496397 0.951112
vt 0.055952 0.650707
vt 0.451257 0.882317
vt 0.009258 0.650707
vt 0.497051 0.882317
vt 0.055952 0.686235
vt 0.450357 0.905072
vt 0.009258 0.73293
vt 0.497051 0.951766
vt 0.056236 0.650707
vt 0.450357 0.882317
vt 0.008628 0.650707
vt 0.497681 0.882317
vt 0.056236 0.685952
vt 0.450074 0.904789
vt 0.008628 0.73356
vt 0.497681 0.952396
vt 0.057157 0.685031
vt 0.450074 0.882317
vt 0.007947 0.650707
vt 0.498362 0.882317
vt 0.057157 0.650707
vt 0.449152 0.903867
vt 0.007947 0.734241
vt 0.498362 0.953077
vt 0.057928 0.68426
vt 0.449152 0.882317
vt 0.005382 0.650707
vt 0.500927 0.882317
vt 0.057928 0.650707
vt 0.448382 0.903097
vt 0.005382 0.736805
vt 0.500927 0.955642
vt 0.058476 0.650707
vt 0.448382 0.882317
vt 0.002541 0.650707
vt 0.503768 0.882317
vt 0.058476 0.683712
vt 0.447833 0.902548
vt 0.002541 0.739646
vt 0.503768 0.958483
vt 0.058684 0.650707
vt 0.447833 0.882317
vt 0.000815 0.650707
vt 0.505494 0.882317
vt 0.058684 0.683503
vt 0.447625 0.90234
vt 0.000815 0.741372
vt 0.505494 0.960209
vt 0.447625 0.882317
vt 0 0.650707
vt 0.506309 0.882317
vt 0 0.742188
vt 0.506309 0.961024
vt 0.001504 0.740684
vt 0.001504 0.650707
vt 0.504805 0.95952
vt 0.504805 0.882317
vn 0 -0.39462388950039357 0.9188427427125825
vn 0 -0.9250025784162961 0.37996082682719323
vn 0 0.3934158431496589 0.9193606334615612
vn -0.39462388950039334 0 0.9188427427125826
vn -0.925002578416296 0 0.37996082682719345
vn 0 -0.9997994393469632 0.020027008800570546
vn 0.3934158431496591 0 0.919360633461561
vn -0.9997994393469632 0 0.02002700880057077
vn 0 0.9247981708250347 0.3804580702766994
vn 0 -0.1050979863872893 0.994461871193329
vn 0 -0.31213702994361886 0.9500370911380126
vn 0.9247981708250348 0 0.3804580702766992
vn -0.3121370299436186 0 0.9500370911380125
vn -0.10509798638728908 0 0.994461871193329
vn 0 0.905991543525336 0.42329578672670465
vn 0 -0.6485230293281576 0.7611950344235238
vn 0.9059915435253358 0 0.4232957867267043
vn -0.6485230293281574 0 0.7611950344235239
vn 0 0.3499859772122388 0.9367549390074195
vn 0 -0.8569058686513362 0.515472920987028
vn 0.349985977212239 0 0.9367549390074194
vn -0.8569058686513361 0 0.5154729209870282
vn 0 0 1
vn 0 -0.9233742208355902 0.383901091814372
vn -0.9233742208355901 0 0.3839010918143722
vn 0 -0.9762715506789323 0.21654990033466368
vn 0 -0.8829048588548675 0.46955192493532233
vn -0.8829048588548674 0 0.46955192493532255
vn -0.9762715506789323 0 0.2165499003346639
vn 0 -0.5149989020261031 0.8571908369271733
vn 0 0.9913292929170314 0.13140103882625329
vn 0 0.9998810892883854 0.015421001377080064
vn -0.5149989020261029 0 0.8571908369271735
vn 0.9913292929170314 0 0.13140103882625306
vn 0.9998810892883854 0 0.015421001377079841
vn 0 0.8650370308675494 0.5017080179026985
vn 0.8650370308675495 0 0.5017080179026983
vn 0 0.5149989020261031 0.8571908369271733
vn 0 0.47094918221003834 0.882160341307461
vn 0.47094918221003856 0 0.8821603413074609
vn 0.5149989020261033 0 0.8571908369271732
vn 0 0.8829048588548675 0.46955192493532233
vn 0 -0.06444700844094749 0.9979211307027286
vn -0.06444700844094726 0 0.9979211307027286
vn 0.8829048588548676 0 0.4695519249353221
vn 0 0.9762715506789323 0.21654990033466368
vn 0 -0.4712621119971036 0.881993209608798
vn -0.4712621119971034 0 0.8819932096087981
vn 0.9762715506789323 0 0.21654990033466345
vn 0 0.13917903303205972 0.990267235025102
vn 0 -0.5187288783160753 0.8549387994476251
vn -0.5187288783160751 0 0.8549387994476252
vn 0.13917903303205995 0 0.990267235025102
vn 0 0.5196688573548158 0.8543677654824884
vn 0 -0.3355149569785974 0.9420348792075853
vn -0.3355149569785972 0 0.9420348792075854
vn 0.519668857354816 0 0.8543677654824883
vn 0 0.8756788571430764 0.48289392122141644
vn 0 -0.12685097270896753 0.9919217865954899
vn -0.12685097270896734 0 0.9919217865954901
vn 0.8756788571430765 0 0.4828939212214162
vn 0 0.9921490536147441 0.12506100675817194
vn 0 -0.39455801380854444 0.9188710321581897
vn -0.3945580138085442 0 0.9188710321581898
vn 0.9921490536147441 0 0.12506100675817172
vn 0 1 0
vn 0 -0.9247352064258888 0.3806110849626801
vn -0.9247352064258889 0 0.38061108496268037
vn 1 0 0
vn 0 0 -1
vn 0 -0.43701910779842407 -0.8994522218656583
vn 0 -0.9450278200270291 -0.32698993772738827
vn -0.9450278200270291 0 -0.326989937727388
vn -0.4370191077984243 0 -0.8994522218656582
vn 0 0.39462388950039357 -0.9188427427125825
vn 0 0.9250025784162961 -0.37996082682719323
vn 0 -0.3934158431496589 -0.9193606334615612
vn 0.925002578416296 0 -0.37996082682719345
vn 0.39462388950039334 0 -0.9188427427125826
vn 0 0.9997994393469632 -0.020027008800570546
vn -0.3934158431496591 0 -0.919360633461561
vn 0.9997994393469632 0 -0.02002700880057077
vn 0 -0.9247981708250347 -0.3804580702766994
vn 0 0.1050979863872893 -0.994461871193329
vn 0 0.31213702994361886 -0.9500370911380126
vn -0.9247981708250348 0 -0.3804580702766992
vn 0.10509798638728908 0 -0.994461871193329
vn 0.3121370299436186 0 -0.9500370911380125
vn 0 -0.905991543525336 -0.42329578672670465
vn 0 0.6485230293281576 -0.7611950344235238
vn -0.9059915435253358 0 -0.4232957867267043
vn 0.6485230293281574 0 -0.7611950344235239
vn 0 -0.3499859772122388 -0.9367549390074195
vn 0 0.8569058686513362 -0.515472920987028
vn -0.349985977212239 0 -0.9367549390074194
vn 0.8569058686513361 0 -0.5154729209870282
vn 0 0.9233742208355902 -0.383901091814372
vn 0.9233742208355901 0 -0.3839010918143722
vn 0 0.9762715506789323 -0.21654990033466368
vn 0 0.8829048588548675 -0.46955192493532233
vn 0.9762715506789323 0 -0.2165499003346639
vn 0.8829048588548674 0 -0.46955192493532255
vn 0 0.5149989020261031 -0.8571908369271733
vn 0 -0.9998810892883854 -0.015421001377080064
vn 0 -0.9913292929170314 -0.13140103882625329
vn 0.5149989020261029 0 -0.8571908369271735
vn -0.9998810892883854 0 -0.015421001377079841
vn -0.9913292929170314 0 -0.13140103882625306
vn 0 -0.8650370308675494 -0.5017080179026985
vn -0.8650370308675495 0 -0.5017080179026983
vn 0 -0.5149989020261031 -0.8571908369271733
vn 0 -0.47094918221003834 -0.882160341307461
vn -0.47094918221003856 0 -0.8821603413074609
vn -0.5149989020261033 0 -0.8571908369271732
vn 0 -0.8829048588548675 -0.46955192493532233
vn 0 0.06444700844094749 -0.9979211307027286
vn 0.06444700844094726 0 -0.9979211307027286
vn -0.8829048588548676 0 -0.4695519249353221
vn 0 -0.9762715506789323 -0.21654990033466368
vn 0 0.4712621119971036 -0.881993209608798
vn 0.4712621119971034 0 -0.8819932096087981
vn -0.9762715506789323 0 -0.21654990033466345
vn 0 -0.13917903303205972 -0.990267235025102
vn 0 0.5187288783160753 -0.8549387994476251
vn 0.5187288783160751 0 -0.8549387994476252
vn -0.13917903303205995 0 -0.990267235025102
vn 0 -0.5196688573548158 -0.8543677654824884
vn 0 0.3355149569785974 -0.9420348792075853
vn 0.3355149569785972 0 -0.9420348792075854
vn -0.519668857354816 0 -0.8543677654824883
vn 0 -0.8756788571430764 -0.48289392122141644
vn 0 0.12685097270896753 -0.9919217865954899
vn 0.12685097270896734 0 -0.9919217865954901
vn -0.8756788571430765 0 -0.4828939212214162
vn 0 -0.9921490536147441 -0.12506100675817194
vn 0 0.39455801380854444 -0.9188710321581897
vn 0.3945580138085442 0 -0.9188710321581898
vn -0.9921490536147441 0 -0.12506100675817172
vn 0 -1 0
vn 0 0.9247352064258888 -0.3806110849626801
vn 0.9247352064258889 0 -0.38061108496268037
vn -1 0 0
vn 0 0.43701910779842407 0.8994522218656583
vn 0 0.9450278200270291 0.32698993772738827
vn 0.9450278200270291 0 0.326989937727388
vn 0.4370191077984243 0 0.8994522218656582
usemtl material_0_0
f 1/1/1 2/2/2 3/3/1
f 2/2/2 1/1/1 4/4/2
f 3/3/1 5/5/3 1/1/1
f 1/6/4 6/7/5 4/8/5
f 4/4/2 7/9/6 2/2/2
f 5/5/3 3/3/1 8/10/3
f 5/11/7 9/12/4 1/6/4
f 6/7/5 1/6/4 9/12/4
f 10/13/8 4/8/5 6/7/5
f 7/9/6 4/4/2 11/14/6
f 12/15/9 5/5/3 8/10/3
f 9/12/4 5/11/7 13/16/7
f 4/8/5 10/13/8 11/17/8
f 11/14/10 14/18/11 7/9/10
f 5/5/3 12/15/9 15/19/9
f 15/20/12 13/16/7 5/11/7
f 16/21/13 11/17/14 10/13/14
f 14/18/11 11/14/10 17/22/11
f 18/23/15 15/19/9 12/15/9
f 13/16/7 15/20/12 19/24/12
f 11/17/14 16/21/13 17/25/13
f 17/22/11 20/26/16 14/18/11
f 15/19/9 18/23/15 21/27/15
f 21/28/17 19/24/12 15/20/12
f 22/29/18 17/25/13 16/21/13
f 20/26/16 17/22/11 23/30/16
f 18/23/15 24/31/19 21/27/15
f 19/24/12 21/28/17 25/32/17
f 17/25/13 22/29/18 23/33/18
f 23/30/16 26/34/20 20/26/16
f 24/31/19 18/23/15 27/35/19
f 24/36/21 25/32/17 21/28/17
f 28/37/22 23/33/18 22/29/18
f 26/34/20 23/30/16 29/38/20
f 27/35/19 30/39/23 24/31/19
f 25/32/17 24/36/21 31/40/21
f 23/33/18 28/37/22 29/41/22
f 29/38/20 32/42/24 26/34/20
f 30/39/23 27/35/19 33/43/23
f 30/44/23 31/40/21 24/36/21
f 34/45/25 29/41/22 28/37/22
f 32/42/24 29/38/20 35/46/24
f 33/43/26 36/47/27 30/39/26
f 31/40/21 30/44/23 37/48/23
f 29/41/22 34/45/25 35/49/25
f 35/46/23 38/50/23 32/42/23
f 36/47/27 33/43/26 39/51/27
f 36/52/28 37/48/29 30/44/29
f 40/53/23 35/49/23 34/45/23
f 38/50/23 35/46/23 41/54/23
f 39/51/27 42/55/30 36/47/27
f 37/48/29 36/52/28 43/56/28
f 35/49/23 40/53/23 41/57/23
f 44/58/31 38/50/32 41/54/32
f 42/55/30 39/51/27 45/59/30
f 42/60/33 43/56/28 36/52/28
f 46/61/34 41/57/35 40/53/35
f 38/50/32 44/58/31 47/62/31
f 41/57/35 46/61/34 44/63/34
f 45/59/30 48/64/23 42/55/30
f 43/56/28 42/60/33 49/65/33
f 50/66/36 47/62/31 44/58/31
f 51/67/37 44/63/34 46/61/34
f 48/64/23 45/59/30 52/68/23
f 48/69/23 49/65/33 42/60/33
f 47/62/31 50/66/36 53/70/36
f 44/63/34 51/67/37 50/71/37
f 52/68/23 54/72/38 48/64/23
f 49/65/33 48/69/23 55/73/23
f 50/66/36 56/74/39 53/70/36
f 57/75/40 50/71/37 51/67/37
f 54/72/38 52/68/23 58/76/38
f 54/77/41 55/73/23 48/69/23
f 56/74/39 50/66/36 59/78/39
f 50/71/37 57/75/40 59/79/40
f 60/80/42 54/72/38 58/76/38
f 55/73/23 54/77/41 61/81/41
f 59/78/39 62/82/43 56/74/39
f 63/83/44 59/79/40 57/75/40
f 54/72/38 60/80/42 64/84/42
f 64/85/45 61/81/41 54/77/41
f 62/82/43 59/78/39 65/86/43
f 59/79/40 63/83/44 65/87/44
f 66/88/46 64/84/42 60/80/42
f 61/81/41 64/85/45 67/89/45
f 65/86/43 68/90/47 62/82/43
f 69/91/48 65/87/44 63/83/44
f 64/84/42 66/88/46 70/92/46
f 70/93/49 67/89/45 64/85/45
f 68/90/47 65/86/43 71/94/47
f 65/87/44 69/91/48 71/95/48
f 66/88/23 72/96/50 70/92/23
f 67/89/45 70/93/49 73/97/49
f 71/94/47 74/98/51 68/90/47
f 75/99/52 71/95/48 69/91/48
f 72/96/50 66/88/23 76/100/50
f 72/101/53 73/97/23 70/93/23
f 74/98/51 71/94/47 77/102/51
f 71/95/48 75/99/52 77/103/52
f 76/100/50 78/104/54 72/96/50
f 73/97/23 72/101/53 79/105/53
f 77/102/51 80/106/55 74/98/51
f 81/107/56 77/103/52 75/99/52
f 78/104/54 76/100/50 82/108/54
f 78/109/57 79/105/53 72/101/53
f 80/106/55 77/102/51 83/110/55
f 77/103/52 81/107/56 83/111/56
f 84/112/58 78/104/54 82/108/54
f 79/105/53 78/109/57 85/113/57
f 83/110/55 86/114/59 80/106/55
f 87/115/60 83/111/56 81/107/56
f 78/104/54 84/112/58 88/116/58
f 88/117/61 85/113/57 78/109/57
f 86/114/59 83/110/55 89/118/59
f 83/111/56 87/115/60 89/119/60
f 90/120/62 88/116/58 84/112/58
f 85/113/57 88/117/61 91/121/61
f 89/118/59 92/122/63 86/114/59
f 93/123/64 89/119/60 87/115/60
f 88/116/58 90/120/62 94/124/62
f 94/125/65 91/121/61 88/117/61
f 92/122/63 89/118/59 95/126/63
f 89/119/60 93/123/64 95/127/64
f 96/120/66 94/124/62 90/120/62
f 91/121/61 94/125/65 97/128/65
f 95/126/63 98/129/67 92/122/63
f 99/130/68 95/127/64 93/123/64
f 94/124/62 96/120/66 100/124/66
f 94/125/65 101/128/69 97/128/65
f 98/129/67 95/126/63 102/131/67
f 95/127/64 99/130/68 102/132/68
f 96/120/70 103/133/71 100/124/70
f 101/128/69 94/125/65 100/125/69
f 102/131/67 104/129/72 98/129/67
f 99/130/68 105/132/73 102/132/68
f 103/133/71 96/120/70 106/134/71
f 103/135/74 101/128/70 100/125/70
f 104/129/72 102/131/67 105/131/72
f 105/132/73 99/130/68 107/130/73
f 106/134/71 105/131/72 103/133/71
f 101/128/70 103/135/74 108/136/74
f 105/131/72 106/134/71 104/129/72
f 107/130/73 103/135/74 105/132/73
f 103/135/74 107/130/73 108/136/74
usemtl material_1_0
f 3//75 2//76 1//75
f 4//76 1//75 2//76
f 1//75 5//77 3//75
f 4//78 6//78 1//79
f 2//76 7//80 4//76
f 8//77 3//75 5//77
f 1//79 9//79 5//81
f 9//79 1//79 6//78
f 6//78 4//78 10//82
f 11//80 4//76 7//80
f 8//77 5//77 12//83
f 13//81 5//81 9//79
f 11//82 10//82 4//78
f 7//84 14//85 11//84
f 15//83 12//83 5//77
f 5//81 13//81 15//86
f 10//87 11//87 16//88
f 17//85 11//84 14//85
f 12//83 15//83 18//89
f 19//86 15//86 13//81
f 17//88 16//88 11//87
f 14//85 20//90 17//85
f 21//89 18//89 15//83
f 15//86 19//86 21//91
f 16//88 17//88 22//92
f 23//90 17//85 20//90
f 21//89 24//93 18//89
f 25//91 21//91 19//86
f 23//92 22//92 17//88
f 20//90 26//94 23//90
f 27//93 18//89 24//93
f 21//91 25//91 24//95
f 22//92 23//92 28//96
f 29//94 23//90 26//94
f 24//93 30//70 27//93
f 31//95 24//95 25//91
f 29//96 28//96 23//92
f 26//94 32//97 29//94
f 33//70 27//93 30//70
f 24//95 31//95 30//70
f 28//96 29//96 34//98
f 35//97 29//94 32//97
f 30//99 36//100 33//99
f 37//70 30//70 31//95
f 35//98 34//98 29//96
f 32//70 38//70 35//70
f 39//100 33//99 36//100
f 30//101 37//101 36//102
f 34//70 35//70 40//70
f 41//70 35//70 38//70
f 36//100 42//103 39//100
f 43//102 36//102 37//101
f 41//70 40//70 35//70
f 41//104 38//104 44//105
f 45//103 39//100 42//103
f 36//102 43//102 42//106
f 40//107 41//107 46//108
f 47//105 44//105 38//104
f 44//108 46//108 41//107
f 42//103 48//70 45//103
f 49//106 42//106 43//102
f 44//105 47//105 50//109
f 46//108 44//108 51//110
f 52//70 45//103 48//70
f 42//106 49//106 48//70
f 53//109 50//109 47//105
f 50//110 51//110 44//108
f 48//70 54//111 52//70
f 55//70 48//70 49//106
f 53//109 56//112 50//109
f 51//110 50//110 57//113
f 58//111 52//70 54//111
f 48//70 55//70 54//114
f 59//112 50//109 56//112
f 59//113 57//113 50//110
f 58//111 54//111 60//115
f 61//114 54//114 55//70
f 56//112 62//116 59//112
f 57//113 59//113 63//117
f 64//115 60//115 54//111
f 54//114 61//114 64//118
f 65//116 59//112 62//116
f 65//117 63//117 59//113
f 60//115 64//115 66//119
f 67//118 64//118 61//114
f 62//116 68//120 65//116
f 63//117 65//117 69//121
f 70//119 66//119 64//115
f 64//118 67//118 70//122
f 71//120 65//116 68//120
f 71//121 69//121 65//117
f 70//70 72//123 66//70
f 73//122 70//122 67//118
f 68//120 74//124 71//120
f 69//121 71//121 75//125
f 76//123 66//70 72//123
f 70//70 73//70 72//126
f 77//124 71//120 74//124
f 77//125 75//125 71//121
f 72//123 78//127 76//123
f 79//126 72//126 73//70
f 74//124 80//128 77//124
f 75//125 77//125 81//129
f 82//127 76//123 78//127
f 72//126 79//126 78//130
f 83//128 77//124 80//128
f 83//129 81//129 77//125
f 82//127 78//127 84//131
f 85//130 78//130 79//126
f 80//128 86//132 83//128
f 81//129 83//129 87//133
f 88//131 84//131 78//127
f 78//130 85//130 88//134
f 89//132 83//128 86//132
f 89//133 87//133 83//129
f 84//131 88//131 90//135
f 91//134 88//134 85//130
f 86//132 92//136 89//132
f 87//133 89//133 93//137
f 94//135 90//135 88//131
f 88//134 91//134 94//138
f 95//136 89//132 92//136
f 95//137 93//137 89//133
f 90//135 94//135 96//139
f 97//138 94//138 91//134
f 92//136 98//140 95//136
f 93//137 95//137 99//141
f 100//139 96//139 94//135
f 97//138 101//142 94//138
f 102//140 95//136 98//140
f 102//141 99//141 95//137
f 100//23 103//143 96//23
f 100//142 94//138 101//142
f 98//140 104//144 102//140
f 102//141 105//145 99//141
f 106//143 96//23 103//143
f 100//23 101//23 103//146
f 105//144 102//140 104//144
f 107//145 99//141 105//145
f 103//143 105//144 106//143
f 108//146 103//146 101//23
f 104//144 106//143 105//144
f 105//145 103//146 107//145
f 108//146 107//145 103//146
