# SSTK version 0.8.0
# 30
mtllib original-30.mtl
o GRB_11_CL1/GRB_11_CL/mesh18/mesh18-geometry#mesh18-geometry
v -0.788276 -0.223074 0.276773
v 0.805059 -0.224103 0.275689
v 0.805059 -0.223074 0.276773
v -0.788276 -0.224103 0.275689
v -0.788276 -0.166157 0.276773
v 0.805059 -0.224126 0.274575
v 0.805059 -0.166157 0.276773
v -0.788276 -0.224126 0.274575
v 0.805059 -0.165161 0.275730
v 0.805059 -0.225545 0.274425
v -0.788276 -0.165161 0.275730
v -0.788276 -0.225545 0.274425
v 0.805059 -0.165089 0.271810
v 0.805059 -0.226923 0.273618
v -0.788276 -0.165089 0.271810
v -0.788276 -0.226923 0.273618
v -0.788276 -0.164110 0.270960
v 0.805059 -0.227615 0.272778
v 0.805059 -0.164110 0.270960
v -0.788276 -0.227615 0.272778
v -0.788276 -0.160574 0.270960
v 0.805059 -0.228036 0.271765
v 0.805059 -0.160574 0.270960
v -0.788276 -0.228036 0.271765
v -0.788276 -0.160091 0.273136
v 0.805059 -0.230124 0.271765
v 0.805059 -0.160091 0.273136
v -0.788276 -0.230124 0.271765
v -0.788276 -0.158556 0.274754
v -0.788276 -0.230146 0.273212
v 0.805059 -0.158556 0.274754
v 0.805059 -0.230146 0.273212
v -0.788276 -0.156407 0.275350
v -0.788276 -0.230426 0.274318
v 0.805059 -0.156407 0.275350
v 0.805059 -0.230426 0.274318
v -0.788276 -0.154259 0.274754
v 0.805059 -0.231247 0.275110
v 0.805059 -0.154259 0.274754
v -0.788276 -0.231247 0.275110
v 0.805059 -0.152724 0.273136
v 0.805059 -0.232362 0.275351
v -0.788276 -0.152724 0.273136
v -0.788276 -0.232362 0.275351
v 0.805059 -0.152241 0.270960
v 0.805059 -0.233436 0.274969
v -0.788276 -0.152241 0.270960
v -0.788276 -0.233436 0.274969
v -0.788276 -0.150669 0.270960
v 0.805059 -0.234597 0.274105
v 0.805059 -0.150669 0.270960
v -0.788276 -0.234597 0.274105
v -0.788276 -0.149355 0.270583
v 0.805059 -0.238971 0.271986
v 0.805059 -0.149355 0.270583
v -0.788276 -0.238971 0.271986
v 0.805059 -0.148420 0.269594
v 0.805059 -0.243817 0.270835
v -0.788276 -0.148420 0.269594
v -0.788276 -0.243817 0.270835
v 0.805059 -0.148064 0.268204
v 0.805059 -0.246760 0.270773
v -0.788276 -0.148064 0.268204
v -0.788276 -0.246760 0.270773
v 0.805059 -0.148064 0.250124
v 0.805059 -0.248151 0.269370
v -0.788276 -0.148064 0.250124
v -0.788276 -0.248151 0.269370
v -0.788276 -0.245586 0.250124
v 0.805059 -0.248151 0.253387
v 0.805059 -0.245586 0.250124
v -0.788276 -0.248151 0.253387
vt 0.014703 0.650707
vt 0.0141 0.091481
vt 0.014703 0.091481
vt 0.0141 0.650707
vt 0.048076 0.650707
vt 0.014087 0.091481
vt 0.048076 0.091481
vt 0.014087 0.650707
vt 0.04866 0.091481
vt 0.013255 0.091481
vt 0.04866 0.650707
vt 0.013255 0.650707
vt 0.048702 0.091481
vt 0.012447 0.091481
vt 0.048702 0.650707
vt 0.012447 0.650707
vt 0.049276 0.650707
vt 0.012041 0.091481
vt 0.049276 0.091481
vt 0.012041 0.650707
vt 0.05135 0.650707
vt 0.011794 0.091481
vt 0.05135 0.091481
vt 0.011794 0.650707
vt 0.051633 0.650707
vt 0.01057 0.091481
vt 0.051633 0.091481
vt 0.01057 0.650707
vt 0.052533 0.650707
vt 0.010557 0.650707
vt 0.052533 0.091481
vt 0.010557 0.091481
vt 0.053793 0.650707
vt 0.010393 0.650707
vt 0.053793 0.091481
vt 0.010393 0.091481
vt 0.055052 0.650707
vt 0.009912 0.091481
vt 0.055052 0.091481
vt 0.009912 0.650707
vt 0.055952 0.091481
vt 0.009258 0.091481
vt 0.055952 0.650707
vt 0.009258 0.650707
vt 0.056236 0.091481
vt 0.008628 0.091481
vt 0.056236 0.650707
vt 0.008628 0.650707
vt 0.057157 0.650707
vt 0.007947 0.091481
vt 0.057157 0.091481
vt 0.007947 0.650707
vt 0.057928 0.650707
vt 0.005382 0.091481
vt 0.057928 0.091481
vt 0.005382 0.650707
vt 0.058476 0.091481
vt 0.002541 0.091481
vt 0.058476 0.650707
vt 0.002541 0.650707
vt 0.058684 0.091481
vt 0.000815 0.091481
vt 0.058684 0.650707
vt 0.000815 0.650707
vt 0 0.091481
vt 0 0.650707
vt 0.001504 0.650707
vt 0.001504 0.091481
vn 0 -0.39462388950039357 0.9188427427125825
vn 0 -0.9250025784162961 0.37996082682719323
vn 0 0.3934158431496589 0.9193606334615612
vn 0 -0.9997994393469632 0.020027008800570546
vn 0 0.9247981708250347 0.3804580702766994
vn 0 -0.1050979863872893 0.994461871193329
vn 0 -0.31213702994361886 0.9500370911380126
vn 0 0.905991543525336 0.42329578672670465
vn 0 -0.6485230293281576 0.7611950344235238
vn 0 0.3499859772122388 0.9367549390074195
vn 0 -0.8569058686513362 0.515472920987028
vn 0 0 1
vn 0 -0.9233742208355902 0.383901091814372
vn 0 -0.9762715506789323 0.21654990033466368
vn 0 -0.8829048588548675 0.46955192493532233
vn 0 -0.5149989020261031 0.8571908369271733
vn 0 0.9913292929170314 0.13140103882625329
vn 0 0.9998810892883854 0.015421001377080064
vn 0 0.8650370308675494 0.5017080179026985
vn 0 0.5149989020261031 0.8571908369271733
vn 0 0.47094918221003834 0.882160341307461
vn 0 0.8829048588548675 0.46955192493532233
vn 0 -0.06444700844094749 0.9979211307027286
vn 0 0.9762715506789323 0.21654990033466368
vn 0 -0.4712621119971036 0.881993209608798
vn 0 0.13917903303205972 0.990267235025102
vn 0 -0.5187288783160753 0.8549387994476251
vn 0 0.5196688573548158 0.8543677654824884
vn 0 -0.3355149569785974 0.9420348792075853
vn 0 0.8756788571430764 0.48289392122141644
vn 0 -0.12685097270896753 0.9919217865954899
vn 0 0.9921490536147441 0.12506100675817194
vn 0 -0.39455801380854444 0.9188710321581897
vn 0 1 0
vn 0 -0.9247352064258888 0.3806110849626801
vn 0 0 -1
vn 0 -0.43701910779842407 -0.8994522218656583
vn 0 -0.9450278200270291 -0.32698993772738827
vn 0 0.39462388950039357 -0.9188427427125825
vn 0 0.9250025784162961 -0.37996082682719323
vn 0 -0.3934158431496589 -0.9193606334615612
vn 0 0.9997994393469632 -0.020027008800570546
vn 0 -0.9247981708250347 -0.3804580702766994
vn 0 0.1050979863872893 -0.994461871193329
vn 0 0.31213702994361886 -0.9500370911380126
vn 0 -0.905991543525336 -0.42329578672670465
vn 0 0.6485230293281576 -0.7611950344235238
vn 0 -0.3499859772122388 -0.9367549390074195
vn 0 0.8569058686513362 -0.515472920987028
vn 0 0.9233742208355902 -0.383901091814372
vn 0 0.9762715506789323 -0.21654990033466368
vn 0 0.8829048588548675 -0.46955192493532233
vn 0 0.5149989020261031 -0.8571908369271733
vn 0 -0.9998810892883854 -0.015421001377080064
vn 0 -0.9913292929170314 -0.13140103882625329
vn 0 -0.8650370308675494 -0.5017080179026985
vn 0 -0.5149989020261031 -0.8571908369271733
vn 0 -0.47094918221003834 -0.882160341307461
vn 0 -0.8829048588548675 -0.46955192493532233
vn 0 0.06444700844094749 -0.9979211307027286
vn 0 -0.9762715506789323 -0.21654990033466368
vn 0 0.4712621119971036 -0.881993209608798
vn 0 -0.13917903303205972 -0.990267235025102
vn 0 0.5187288783160753 -0.8549387994476251
vn 0 -0.5196688573548158 -0.8543677654824884
vn 0 0.3355149569785974 -0.9420348792075853
vn 0 -0.8756788571430764 -0.48289392122141644
vn 0 0.12685097270896753 -0.9919217865954899
vn 0 -0.9921490536147441 -0.12506100675817194
vn 0 0.39455801380854444 -0.9188710321581897
vn 0 -1 0
vn 0 0.9247352064258888 -0.3806110849626801
vn 0 0.43701910779842407 0.8994522218656583
vn 0 0.9450278200270291 0.32698993772738827
usemtl material_0_0
f 1/1/1 2/2/2 3/3/1
f 2/2/2 1/1/1 4/4/2
f 3/3/1 5/5/3 1/1/1
f 4/4/2 6/6/4 2/2/2
f 5/5/3 3/3/1 7/7/3
f 6/6/4 4/4/2 8/8/4
f 9/9/5 5/5/3 7/7/3
f 8/8/6 10/10/7 6/6/6
f 5/5/3 9/9/5 11/11/5
f 10/10/7 8/8/6 12/12/7
f 13/13/8 11/11/5 9/9/5
f 12/12/7 14/14/9 10/10/7
f 11/11/5 13/13/8 15/15/8
f 14/14/9 12/12/7 16/16/9
f 13/13/8 17/17/10 15/15/8
f 16/16/9 18/18/11 14/14/9
f 17/17/10 13/13/8 19/19/10
f 18/18/11 16/16/9 20/20/11
f 19/19/10 21/21/12 17/17/10
f 20/20/11 22/22/13 18/18/11
f 21/21/12 19/19/10 23/23/12
f 22/22/13 20/20/11 24/24/13
f 23/23/14 25/25/15 21/21/14
f 24/24/12 26/26/12 22/22/12
f 25/25/15 23/23/14 27/27/15
f 26/26/12 24/24/12 28/28/12
f 27/27/15 29/29/16 25/25/15
f 30/30/17 26/26/18 28/28/18
f 29/29/16 27/27/15 31/31/16
f 26/26/18 30/30/17 32/32/17
f 31/31/16 33/33/12 29/29/16
f 34/34/19 32/32/17 30/30/17
f 33/33/12 31/31/16 35/35/12
f 32/32/17 34/34/19 36/36/19
f 35/35/12 37/37/20 33/33/12
f 34/34/19 38/38/21 36/36/19
f 37/37/20 35/35/12 39/39/20
f 38/38/21 34/34/19 40/40/21
f 41/41/22 37/37/20 39/39/20
f 40/40/21 42/42/23 38/38/21
f 37/37/20 41/41/22 43/43/22
f 42/42/23 40/40/21 44/44/23
f 45/45/24 43/43/22 41/41/22
f 44/44/23 46/46/25 42/42/23
f 43/43/22 45/45/24 47/47/24
f 46/46/25 44/44/23 48/48/25
f 45/45/12 49/49/26 47/47/12
f 48/48/25 50/50/27 46/46/25
f 49/49/26 45/45/12 51/51/26
f 50/50/27 48/48/25 52/52/27
f 51/51/26 53/53/28 49/49/26
f 52/52/27 54/54/29 50/50/27
f 53/53/28 51/51/26 55/55/28
f 54/54/29 52/52/27 56/56/29
f 57/57/30 53/53/28 55/55/28
f 56/56/29 58/58/31 54/54/29
f 53/53/28 57/57/30 59/59/30
f 58/58/31 56/56/29 60/60/31
f 61/61/32 59/59/30 57/57/30
f 60/60/31 62/62/33 58/58/31
f 59/59/30 61/61/32 63/63/32
f 62/62/33 60/60/31 64/64/33
f 65/61/34 63/63/32 61/61/32
f 64/64/33 66/65/35 62/62/33
f 63/63/32 65/61/34 67/63/34
f 66/65/35 64/64/33 68/66/35
f 65/61/36 69/67/37 67/63/36
f 68/66/35 70/65/38 66/65/35
f 69/67/37 65/61/36 71/68/37
f 70/65/38 68/66/35 72/66/38
f 71/68/37 72/66/38 69/67/37
f 72/66/38 71/68/37 70/65/38
usemtl material_1_0
f 3//39 2//40 1//39
f 4//40 1//39 2//40
f 1//39 5//41 3//39
f 2//40 6//42 4//40
f 7//41 3//39 5//41
f 8//42 4//40 6//42
f 7//41 5//41 9//43
f 6//44 10//45 8//44
f 11//43 9//43 5//41
f 12//45 8//44 10//45
f 9//43 11//43 13//46
f 10//45 14//47 12//45
f 15//46 13//46 11//43
f 16//47 12//45 14//47
f 15//46 17//48 13//46
f 14//47 18//49 16//47
f 19//48 13//46 17//48
f 20//49 16//47 18//49
f 17//48 21//36 19//48
f 18//49 22//50 20//49
f 23//36 19//48 21//36
f 24//50 20//49 22//50
f 21//51 25//52 23//51
f 22//36 26//36 24//36
f 27//52 23//51 25//52
f 28//36 24//36 26//36
f 25//52 29//53 27//52
f 28//54 26//54 30//55
f 31//53 27//52 29//53
f 32//55 30//55 26//54
f 29//53 33//36 31//53
f 30//55 32//55 34//56
f 35//36 31//53 33//36
f 36//56 34//56 32//55
f 33//36 37//57 35//36
f 36//56 38//58 34//56
f 39//57 35//36 37//57
f 40//58 34//56 38//58
f 39//57 37//57 41//59
f 38//58 42//60 40//58
f 43//59 41//59 37//57
f 44//60 40//58 42//60
f 41//59 43//59 45//61
f 42//60 46//62 44//60
f 47//61 45//61 43//59
f 48//62 44//60 46//62
f 47//36 49//63 45//36
f 46//62 50//64 48//62
f 51//63 45//36 49//63
f 52//64 48//62 50//64
f 49//63 53//65 51//63
f 50//64 54//66 52//64
f 55//65 51//63 53//65
f 56//66 52//64 54//66
f 55//65 53//65 57//67
f 54//66 58//68 56//66
f 59//67 57//67 53//65
f 60//68 56//66 58//68
f 57//67 59//67 61//69
f 58//68 62//70 60//68
f 63//69 61//69 59//67
f 64//70 60//68 62//70
f 61//69 63//69 65//71
f 62//70 66//72 64//70
f 67//71 65//71 63//69
f 68//72 64//70 66//72
f 67//12 69//73 65//12
f 66//72 70//74 68//72
f 71//73 65//12 69//73
f 72//74 68//72 70//74
f 69//73 72//74 71//73
f 70//74 71//73 72//74
