# SSTK version 0.8.0
# 27
mtllib original-27.mtl
o GRB_11_BL1/GRB_11_BL/mesh15/mesh15-geometry#mesh15-geometry
v 0.879086 -0.113915 0.276773
v 0.878090 -0.165161 0.275730
v 0.879086 -0.166157 0.276773
v 0.878090 -0.113915 0.275730
v 0.805059 -0.166157 0.276773
v 0.936004 -0.223074 0.276773
v 0.878018 -0.165089 0.271810
v 0.805059 -0.165161 0.275730
v 0.805059 -0.223074 0.276773
v 0.936004 -0.113915 0.276773
v 0.878018 -0.113915 0.271810
v 0.937033 -0.113915 0.275689
v 0.937033 -0.224103 0.275689
v 0.877039 -0.113915 0.270960
v 0.805059 -0.165089 0.271810
v 0.805059 -0.224103 0.275689
v 0.877039 -0.164110 0.270960
v 0.937055 -0.113915 0.274575
v 0.937055 -0.224126 0.274575
v 0.873503 -0.113915 0.270960
v 0.805059 -0.164110 0.270960
v 0.805059 -0.224126 0.274575
v 0.873503 -0.160574 0.270960
v 0.938475 -0.225545 0.274425
v 0.805059 -0.225545 0.274425
v 0.873020 -0.160091 0.273136
v 0.805059 -0.160574 0.270960
v 0.938475 -0.113915 0.274425
v 0.873020 -0.113915 0.273136
v 0.805059 -0.160091 0.273136
v 0.939853 -0.226923 0.273618
v 0.805059 -0.226923 0.273618
v 0.871485 -0.158556 0.274754
v 0.805059 -0.158556 0.274754
v 0.939853 -0.113915 0.273618
v 0.871485 -0.113915 0.274754
v 0.940545 -0.113915 0.272778
v 0.940545 -0.227615 0.272778
v 0.869337 -0.113915 0.275350
v 0.869337 -0.156407 0.275350
v 0.805059 -0.227615 0.272778
v 0.805059 -0.156407 0.275350
v 0.940966 -0.113915 0.271765
v 0.940966 -0.228036 0.271765
v 0.867188 -0.113915 0.274754
v 0.867188 -0.154259 0.274754
v 0.805059 -0.228036 0.271765
v 0.805059 -0.154259 0.274754
v 0.943053 -0.230124 0.271765
v 0.805059 -0.230124 0.271765
v 0.865653 -0.152724 0.273136
v 0.943053 -0.113915 0.271765
v 0.865653 -0.113915 0.273136
v 0.805059 -0.152724 0.273136
v 0.943075 -0.113915 0.273212
v 0.805059 -0.230146 0.273212
v 0.865170 -0.152241 0.270960
v 0.943075 -0.230146 0.273212
v 0.865170 -0.113915 0.270960
v 0.805059 -0.152241 0.270960
v 0.943356 -0.113915 0.274318
v 0.805059 -0.230426 0.274318
v 0.863599 -0.113915 0.270960
v 0.863599 -0.150669 0.270960
v 0.943356 -0.230426 0.274318
v 0.805059 -0.150669 0.270960
v 0.944176 -0.231247 0.275110
v 0.805059 -0.231247 0.275110
v 0.862285 -0.113915 0.270583
v 0.862285 -0.149355 0.270583
v 0.944176 -0.113915 0.275110
v 0.805059 -0.149355 0.270583
v 0.945291 -0.232362 0.275351
v 0.805059 -0.232362 0.275351
v 0.861350 -0.148420 0.269594
v 0.945291 -0.113915 0.275351
v 0.861350 -0.113915 0.269594
v 0.805059 -0.148420 0.269594
v 0.946366 -0.233436 0.274969
v 0.805059 -0.233436 0.274969
v 0.860994 -0.148064 0.268204
v 0.946366 -0.113915 0.274969
v 0.860994 -0.113915 0.268204
v 0.805059 -0.148064 0.268204
v 0.947527 -0.234597 0.274105
v 0.805059 -0.234597 0.274105
v 0.860994 -0.148064 0.250124
v 0.947527 -0.113915 0.274105
v 0.860994 -0.113915 0.250124
v 0.805059 -0.148064 0.250124
v 0.951901 -0.238971 0.271986
v 0.805059 -0.238971 0.271986
v 0.958516 -0.245586 0.250124
v 0.805059 -0.245586 0.250124
v 0.951901 -0.113915 0.271986
v 0.958516 -0.113915 0.250124
v 0.956746 -0.243817 0.270835
v 0.805059 -0.243817 0.270835
v 0.961081 -0.113915 0.253387
v 0.805059 -0.248151 0.253387
v 0.956746 -0.113915 0.270835
v 0.961081 -0.248151 0.253387
v 0.959690 -0.246760 0.270773
v 0.805059 -0.246760 0.270773
v 0.961081 -0.248151 0.269370
v 0.805059 -0.248151 0.269370
v 0.959690 -0.113915 0.270773
v 0.961081 -0.113915 0.269370
vt 0.072615 0.882317
vt 0.073198 0.912364
vt 0.072614 0.912948
vt 0.073198 0.882317
vt 0.04866 0.04866
vt 0.048076 0.091481
vt 0.048076 0.048076
vt 0.039242 0.946321
vt 0.073241 0.912322
vt 0.04866 0.091481
vt 0.014703 0.091481
vt 0.039242 0.882317
vt 0.014703 0.014703
vt 0.073241 0.882317
vt 0.048702 0.048702
vt 0.038638 0.882317
vt 0.0141 0.0141
vt 0.073815 0.882317
vt 0.048702 0.091481
vt 0.038638 0.946924
vt 0.0141 0.091481
vt 0.073815 0.911748
vt 0.049276 0.049276
vt 0.038625 0.882317
vt 0.014087 0.014087
vt 0.075888 0.882317
vt 0.049276 0.091481
vt 0.038625 0.946937
vt 0.014087 0.091481
vt 0.075888 0.909674
vt 0.05135 0.05135
vt 0.037793 0.94777
vt 0.013255 0.091481
vt 0.076171 0.909391
vt 0.05135 0.091481
vt 0.037793 0.882317
vt 0.013255 0.013255
vt 0.076171 0.882317
vt 0.051633 0.091481
vt 0.051633 0.051633
vt 0.036985 0.948577
vt 0.012447 0.091481
vt 0.077071 0.908491
vt 0.052533 0.091481
vt 0.036985 0.882317
vt 0.012447 0.012447
vt 0.077071 0.882317
vt 0.052533 0.052533
vt 0.036579 0.882317
vt 0.012041 0.012041
vt 0.078331 0.882317
vt 0.053793 0.053793
vt 0.036579 0.948983
vt 0.012041 0.091481
vt 0.078331 0.907231
vt 0.053793 0.091481
vt 0.036332 0.882317
vt 0.011794 0.011794
vt 0.079591 0.882317
vt 0.055052 0.055052
vt 0.036332 0.94923
vt 0.011794 0.091481
vt 0.079591 0.905972
vt 0.055052 0.091481
vt 0.035108 0.950454
vt 0.01057 0.091481
vt 0.080491 0.905072
vt 0.055952 0.055952
vt 0.035108 0.882317
vt 0.01057 0.01057
vt 0.080491 0.882317
vt 0.055952 0.091481
vt 0.035095 0.882317
vt 0.010557 0.091481
vt 0.080774 0.904789
vt 0.056236 0.056236
vt 0.035095 0.950467
vt 0.010557 0.010557
vt 0.080774 0.882317
vt 0.056236 0.091481
vt 0.034931 0.882317
vt 0.010393 0.091481
vt 0.081695 0.882317
vt 0.057157 0.057157
vt 0.034931 0.950631
vt 0.010393 0.010393
vt 0.081695 0.903867
vt 0.057157 0.091481
vt 0.03445 0.951112
vt 0.009912 0.091481
vt 0.082466 0.882317
vt 0.057928 0.057928
vt 0.03445 0.882317
vt 0.009912 0.009912
vt 0.082466 0.903097
vt 0.057928 0.091481
vt 0.033796 0.951766
vt 0.009258 0.091481
vt 0.083014 0.902548
vt 0.058476 0.058476
vt 0.033796 0.882317
vt 0.009258 0.009258
vt 0.083014 0.882317
vt 0.058476 0.091481
vt 0.033166 0.952396
vt 0.008628 0.091481
vt 0.083223 0.90234
vt 0.058684 0.058684
vt 0.033166 0.882317
vt 0.008628 0.008628
vt 0.083223 0.882317
vt 0.058684 0.091481
vt 0.032485 0.953077
vt 0.007947 0.091481
vt 0.032485 0.882317
vt 0.007947 0.007947
vt 0.029921 0.955642
vt 0.005382 0.091481
vt 0.026042 0.95952
vt 0.001504 0.091481
vt 0.029921 0.882317
vt 0.005382 0.005382
vt 0.026042 0.882317
vt 0.001504 0.001504
vt 0.02708 0.958483
vt 0.002541 0.091481
vt 0.024538 0.882317
vt 0 0.091481
vt 0.02708 0.882317
vt 0.002541 0.002541
vt 0.024538 0.961024
vt 0 0
vt 0.025354 0.960209
vt 0.000815 0.091481
vt 0.025354 0.882317
vt 0.000815 0.000815
vn -0.39341584314965866 0 0.9193606334615613
vn -0.9247981708250348 0 0.3804580702766997
vn 0 0.9247981708250347 0.3804580702766994
vn 0 0.3934158431496589 0.9193606334615612
vn 0.3946238895003938 0 0.9188427427125824
vn -0.9059915435253358 0 0.42329578672670487
vn 0 -0.39462388950039357 0.9188427427125825
vn 0 0.905991543525336 0.42329578672670465
vn 0.925002578416296 0 0.37996082682719295
vn 0 -0.9250025784162961 0.37996082682719323
vn -0.34998597721223856 0 0.9367549390074196
vn 0 0.3499859772122388 0.9367549390074195
vn 0.9997994393469632 0 0.020027008800570324
vn 0 -0.9997994393469632 0.020027008800570546
vn 0 0 1
vn 0.3121370299436191 0 0.9500370911380125
vn 0.10509798638728952 0 0.994461871193329
vn 0 -0.31213702994361886 0.9500370911380126
vn 0 -0.1050979863872893 0.994461871193329
vn 0.9762715506789323 0 0.21654990033466345
vn 0.8829048588548676 0 0.4695519249353221
vn 0 -0.8829048588548675 0.46955192493532233
vn 0 -0.9762715506789323 0.21654990033466368
vn 0.6485230293281579 0 0.7611950344235237
vn 0 -0.6485230293281576 0.7611950344235238
vn 0.5149989020261033 0 0.8571908369271732
vn 0 -0.5149989020261031 0.8571908369271733
vn 0.8569058686513363 0 0.5154729209870278
vn 0 -0.8569058686513362 0.515472920987028
vn 0.9233742208355903 0 0.38390109181437176
vn 0 -0.9233742208355902 0.383901091814372
vn -0.5149989020261029 0 0.8571908369271735
vn 0 0.5149989020261031 0.8571908369271733
vn -0.8829048588548674 0 0.46955192493532255
vn 0 0.8829048588548675 0.46955192493532233
vn -0.9998810892883854 0 0.015421001377080286
vn -0.9913292929170314 0 0.1314010388262535
vn 0 0.9913292929170314 0.13140103882625329
vn 0 0.9998810892883854 0.015421001377080064
vn -0.9762715506789323 0 0.2165499003346639
vn 0 0.9762715506789323 0.21654990033466368
vn -0.8650370308675492 0 0.5017080179026987
vn 0 0.8650370308675494 0.5017080179026985
vn -0.1391790330320595 0 0.990267235025102
vn 0 0.13917903303205972 0.990267235025102
vn -0.4709491822100381 0 0.8821603413074611
vn 0 0.47094918221003834 0.882160341307461
vn -0.5196688573548156 0 0.8543677654824885
vn 0 0.5196688573548158 0.8543677654824884
vn 0.06444700844094771 0 0.9979211307027286
vn 0 -0.06444700844094749 0.9979211307027286
vn -0.8756788571430763 0 0.48289392122141667
vn 0 0.8756788571430764 0.48289392122141644
vn 0.4712621119971038 0 0.8819932096087979
vn 0 -0.4712621119971036 0.881993209608798
vn -0.9921490536147441 0 0.12506100675817217
vn 0 0.9921490536147441 0.12506100675817194
vn 0.5187288783160755 0 0.854938799447625
vn 0 -0.5187288783160753 0.8549387994476251
vn -1 0 0
vn 0 1 0
vn 0.3355149569785976 0 0.9420348792075852
vn 0 -0.3355149569785974 0.9420348792075853
vn 0 0 -1
vn 0.43701910779842384 0 -0.8994522218656584
vn 0 -0.43701910779842407 -0.8994522218656583
vn 0.12685097270896775 0 0.9919217865954899
vn 0 -0.12685097270896753 0.9919217865954899
vn 0.945027820027029 0 -0.3269899377273885
vn 0 -0.9450278200270291 -0.32698993772738827
vn 0.39455801380854466 0 0.9188710321581895
vn 0 -0.39455801380854444 0.9188710321581897
vn 0.9247352064258889 0 0.38061108496267987
vn 0 -0.9247352064258888 0.3806110849626801
vn 0.39341584314965866 0 -0.9193606334615613
vn 0.9247981708250348 0 -0.3804580702766997
vn 0 -0.3934158431496589 -0.9193606334615612
vn 0 -0.9247981708250347 -0.3804580702766994
vn -0.3946238895003938 0 -0.9188427427125824
vn 0.9059915435253358 0 -0.42329578672670487
vn 0 0.39462388950039357 -0.9188427427125825
vn 0 -0.905991543525336 -0.42329578672670465
vn -0.925002578416296 0 -0.37996082682719295
vn 0 0.9250025784162961 -0.37996082682719323
vn 0.34998597721223856 0 -0.9367549390074196
vn 0 -0.3499859772122388 -0.9367549390074195
vn -0.9997994393469632 0 -0.020027008800570324
vn 0 0.9997994393469632 -0.020027008800570546
vn -0.10509798638728952 0 -0.994461871193329
vn -0.3121370299436191 0 -0.9500370911380125
vn 0 0.1050979863872893 -0.994461871193329
vn 0 0.31213702994361886 -0.9500370911380126
vn -0.9762715506789323 0 -0.21654990033466345
vn -0.8829048588548676 0 -0.4695519249353221
vn 0 0.8829048588548675 -0.46955192493532233
vn 0 0.9762715506789323 -0.21654990033466368
vn -0.6485230293281579 0 -0.7611950344235237
vn 0 0.6485230293281576 -0.7611950344235238
vn -0.5149989020261033 0 -0.8571908369271732
vn 0 0.5149989020261031 -0.8571908369271733
vn -0.8569058686513363 0 -0.5154729209870278
vn 0 0.8569058686513362 -0.515472920987028
vn -0.9233742208355903 0 -0.38390109181437176
vn 0 0.9233742208355902 -0.383901091814372
vn 0.5149989020261029 0 -0.8571908369271735
vn 0 -0.5149989020261031 -0.8571908369271733
vn 0.8829048588548674 0 -0.46955192493532255
vn 0 -0.8829048588548675 -0.46955192493532233
vn 0.9998810892883854 0 -0.015421001377080286
vn 0.9913292929170314 0 -0.1314010388262535
vn 0 -0.9998810892883854 -0.015421001377080064
vn 0 -0.9913292929170314 -0.13140103882625329
vn 0.9762715506789323 0 -0.2165499003346639
vn 0 -0.9762715506789323 -0.21654990033466368
vn 0.8650370308675492 0 -0.5017080179026987
vn 0 -0.8650370308675494 -0.5017080179026985
vn 0.1391790330320595 0 -0.990267235025102
vn 0 -0.13917903303205972 -0.990267235025102
vn 0.4709491822100381 0 -0.8821603413074611
vn 0 -0.47094918221003834 -0.882160341307461
vn 0.5196688573548156 0 -0.8543677654824885
vn 0 -0.5196688573548158 -0.8543677654824884
vn -0.06444700844094771 0 -0.9979211307027286
vn 0 0.06444700844094749 -0.9979211307027286
vn 0.8756788571430763 0 -0.48289392122141667
vn 0 -0.8756788571430764 -0.48289392122141644
vn -0.4712621119971038 0 -0.8819932096087979
vn 0 0.4712621119971036 -0.881993209608798
vn 0.9921490536147441 0 -0.12506100675817217
vn 0 -0.9921490536147441 -0.12506100675817194
vn -0.5187288783160755 0 -0.854938799447625
vn 0 0.5187288783160753 -0.8549387994476251
vn 1 0 0
vn 0 -1 0
vn -0.3355149569785976 0 -0.9420348792075852
vn 0 0.3355149569785974 -0.9420348792075853
vn -0.43701910779842384 0 0.8994522218656584
vn 0 0.43701910779842407 0.8994522218656583
vn -0.12685097270896775 0 -0.9919217865954899
vn 0 0.12685097270896753 -0.9919217865954899
vn -0.945027820027029 0 0.3269899377273885
vn 0 0.9450278200270291 0.32698993772738827
vn -0.39455801380854466 0 -0.9188710321581895
vn 0 0.39455801380854444 -0.9188710321581897
vn -0.9247352064258889 0 -0.38061108496267987
vn 0 0.9247352064258888 -0.3806110849626801
usemtl material_0_0
f 1/1/1 2/2/2 3/3/1
f 2/2/2 1/1/1 4/4/2
f 2/5/3 5/6/4 3/7/4
f 6/8/5 1/1/1 3/3/1
f 4/4/2 7/9/6 2/2/2
f 5/6/4 2/5/3 8/10/3
f 9/11/7 3/7/4 5/6/4
f 1/1/1 6/8/5 10/12/5
f 3/7/4 9/11/7 6/13/7
f 7/9/6 4/4/2 11/14/6
f 7/15/8 8/10/3 2/5/3
f 6/8/5 12/16/9 10/12/5
f 9/11/7 13/17/10 6/13/7
f 14/18/11 7/9/6 11/14/6
f 8/10/3 7/15/8 15/19/8
f 12/16/9 6/8/5 13/20/9
f 13/17/10 9/11/7 16/21/10
f 7/9/6 14/18/11 17/22/11
f 17/23/12 15/19/8 7/15/8
f 13/20/9 18/24/13 12/16/9
f 16/21/10 19/25/14 13/17/10
f 20/26/15 17/22/11 14/18/11
f 15/19/8 17/23/12 21/27/12
f 18/24/13 13/20/9 19/28/13
f 19/25/14 16/21/10 22/29/14
f 17/22/11 20/26/15 23/30/15
f 23/31/15 21/27/12 17/23/12
f 24/32/16 18/24/17 19/28/17
f 25/33/18 19/25/19 22/29/19
f 20/26/20 26/34/21 23/30/20
f 21/27/12 23/31/15 27/35/15
f 18/24/17 24/32/16 28/36/16
f 19/25/19 25/33/18 24/37/18
f 26/34/21 20/26/20 29/38/21
f 30/39/22 23/31/23 26/40/22
f 23/31/23 30/39/22 27/35/23
f 31/41/24 28/36/16 24/32/16
f 32/42/25 24/37/18 25/33/18
f 29/38/21 33/43/26 26/34/21
f 26/40/22 34/44/27 30/39/22
f 28/36/16 31/41/24 35/45/24
f 24/37/18 32/42/25 31/46/25
f 33/43/26 29/38/21 36/47/26
f 34/44/27 26/40/22 33/48/27
f 31/41/24 37/49/28 35/45/24
f 32/42/25 38/50/29 31/46/25
f 39/51/15 33/43/26 36/47/26
f 40/52/15 34/44/27 33/48/27
f 37/49/28 31/41/24 38/53/28
f 38/50/29 32/42/25 41/54/29
f 33/43/26 39/51/15 40/55/15
f 34/44/27 40/52/15 42/56/15
f 38/53/28 43/57/30 37/49/28
f 41/54/29 44/58/31 38/50/29
f 45/59/32 40/55/15 39/51/15
f 46/60/33 42/56/15 40/52/15
f 43/57/30 38/53/28 44/61/30
f 44/58/31 41/54/29 47/62/31
f 40/55/15 45/59/32 46/63/32
f 42/56/15 46/60/33 48/64/33
f 49/65/15 43/57/15 44/61/15
f 50/66/15 44/58/15 47/62/15
f 45/59/32 51/67/34 46/63/32
f 51/68/35 48/64/33 46/60/33
f 43/57/15 49/65/15 52/69/15
f 44/58/15 50/66/15 49/70/15
f 51/67/34 45/59/32 53/71/34
f 48/64/33 51/68/35 54/72/35
f 49/65/36 55/73/37 52/69/36
f 56/74/38 49/70/39 50/66/39
f 53/71/34 57/75/40 51/67/34
f 57/76/41 54/72/35 51/68/35
f 55/73/37 49/65/36 58/77/37
f 49/70/39 56/74/38 58/78/38
f 57/75/40 53/71/34 59/79/40
f 54/72/35 57/76/41 60/80/41
f 58/77/37 61/81/42 55/73/37
f 62/82/43 58/78/38 56/74/38
f 63/83/44 57/75/15 59/79/15
f 64/84/45 60/80/15 57/76/15
f 61/81/42 58/77/37 65/85/42
f 58/78/38 62/82/43 65/86/43
f 57/75/15 63/83/44 64/87/44
f 60/80/15 64/84/45 66/88/45
f 67/89/46 61/81/42 65/85/42
f 68/90/47 65/86/43 62/82/43
f 69/91/48 64/87/44 63/83/44
f 70/92/49 66/88/45 64/84/45
f 61/81/42 67/89/46 71/93/46
f 65/86/43 68/90/47 67/94/47
f 64/87/44 69/91/48 70/95/48
f 66/88/45 70/92/49 72/96/49
f 73/97/50 71/93/46 67/89/46
f 74/98/51 67/94/47 68/90/47
f 69/91/48 75/99/52 70/95/48
f 75/100/53 72/96/49 70/92/49
f 71/93/46 73/97/50 76/101/50
f 67/94/47 74/98/51 73/102/51
f 75/99/52 69/91/48 77/103/52
f 72/96/49 75/100/53 78/104/53
f 79/105/54 76/101/50 73/97/50
f 80/106/55 73/102/51 74/98/51
f 77/103/52 81/107/56 75/99/52
f 81/108/57 78/104/53 75/100/53
f 76/101/50 79/105/54 82/109/54
f 73/102/51 80/106/55 79/110/55
f 81/107/56 77/103/52 83/111/56
f 78/104/53 81/108/57 84/112/57
f 85/113/58 82/109/54 79/105/54
f 86/114/59 79/110/55 80/106/55
f 83/111/56 87/107/60 81/107/56
f 87/108/61 84/112/57 81/108/57
f 82/109/54 85/113/58 88/115/58
f 79/110/55 86/114/59 85/116/59
f 87/107/60 83/111/56 89/111/60
f 84/112/57 87/108/61 90/112/61
f 91/117/62 88/115/58 85/113/58
f 92/118/63 85/116/59 86/114/59
f 89/111/64 93/119/65 87/107/64
f 87/108/64 94/120/66 90/112/64
f 88/115/58 91/117/62 95/121/62
f 85/116/59 92/118/63 91/122/63
f 93/119/65 89/111/64 96/123/65
f 94/120/66 87/108/64 93/124/66
f 97/125/67 95/121/62 91/117/62
f 98/126/68 91/122/63 92/118/63
f 99/127/69 93/119/65 96/123/65
f 93/124/66 100/128/70 94/120/66
f 95/121/62 97/125/67 101/129/67
f 91/122/63 98/126/68 97/130/68
f 93/119/65 99/127/69 102/131/69
f 100/128/70 93/124/66 102/132/70
f 103/133/71 101/129/67 97/125/67
f 104/134/72 97/130/68 98/126/68
f 99/127/69 105/131/73 102/131/69
f 102/132/70 106/128/74 100/128/70
f 101/129/67 103/133/71 107/135/71
f 97/130/68 104/134/72 103/136/72
f 105/131/73 99/127/69 108/127/73
f 106/128/74 102/132/70 105/132/74
f 103/133/71 108/127/73 107/135/71
f 104/134/72 105/132/74 103/136/72
f 108/127/73 103/133/71 105/131/73
f 105/132/74 104/134/72 106/128/74
usemtl material_1_0
f 3//75 2//76 1//75
f 4//76 1//75 2//76
f 3//77 5//77 2//78
f 3//75 1//75 6//79
f 2//76 7//80 4//76
f 8//78 2//78 5//77
f 5//77 3//77 9//81
f 10//79 6//79 1//75
f 6//81 9//81 3//77
f 11//80 4//76 7//80
f 2//78 8//78 7//82
f 10//79 12//83 6//79
f 6//81 13//84 9//81
f 11//80 7//80 14//85
f 15//82 7//82 8//78
f 13//83 6//79 12//83
f 16//84 9//81 13//84
f 17//85 14//85 7//80
f 7//82 15//82 17//86
f 12//83 18//87 13//83
f 13//84 19//88 16//84
f 14//85 17//85 20//64
f 21//86 17//86 15//82
f 19//87 13//83 18//87
f 22//88 16//84 19//88
f 23//64 20//64 17//85
f 17//86 21//86 23//64
f 19//89 18//89 24//90
f 22//91 19//91 25//92
f 23//93 26//94 20//93
f 27//64 23//64 21//86
f 28//90 24//90 18//89
f 24//92 25//92 19//91
f 29//94 20//93 26//94
f 26//95 23//96 30//95
f 27//96 30//95 23//96
f 24//90 28//90 31//97
f 25//92 24//92 32//98
f 26//94 33//99 29//94
f 30//95 34//100 26//95
f 35//97 31//97 28//90
f 31//98 32//98 24//92
f 36//99 29//94 33//99
f 33//100 26//95 34//100
f 35//97 37//101 31//97
f 31//98 38//102 32//98
f 36//99 33//99 39//64
f 33//100 34//100 40//64
f 38//101 31//97 37//101
f 41//102 32//98 38//102
f 40//64 39//64 33//99
f 42//64 40//64 34//100
f 37//101 43//103 38//101
f 38//102 44//104 41//102
f 39//64 40//64 45//105
f 40//64 42//64 46//106
f 44//103 38//101 43//103
f 47//104 41//102 44//104
f 46//105 45//105 40//64
f 48//106 46//106 42//64
f 44//64 43//64 49//64
f 47//64 44//64 50//64
f 46//105 51//107 45//105
f 46//106 48//106 51//108
f 52//64 49//64 43//64
f 49//64 50//64 44//64
f 53//107 45//105 51//107
f 54//108 51//108 48//106
f 52//109 55//110 49//109
f 50//111 49//111 56//112
f 51//107 57//113 53//107
f 51//108 54//108 57//114
f 58//110 49//109 55//110
f 58//112 56//112 49//111
f 59//113 53//107 57//113
f 60//114 57//114 54//108
f 55//110 61//115 58//110
f 56//112 58//112 62//116
f 59//64 57//64 63//117
f 57//64 60//64 64//118
f 65//115 58//110 61//115
f 65//116 62//116 58//112
f 64//117 63//117 57//64
f 66//118 64//118 60//64
f 65//115 61//115 67//119
f 62//116 65//116 68//120
f 63//117 64//117 69//121
f 64//118 66//118 70//122
f 71//119 67//119 61//115
f 67//120 68//120 65//116
f 70//121 69//121 64//117
f 72//122 70//122 66//118
f 67//119 71//119 73//123
f 68//120 67//120 74//124
f 70//121 75//125 69//121
f 70//122 72//122 75//126
f 76//123 73//123 71//119
f 73//124 74//124 67//120
f 77//125 69//121 75//125
f 78//126 75//126 72//122
f 73//123 76//123 79//127
f 74//124 73//124 80//128
f 75//125 81//129 77//125
f 75//126 78//126 81//130
f 82//127 79//127 76//123
f 79//128 80//128 73//124
f 83//129 77//125 81//129
f 84//130 81//130 78//126
f 79//127 82//127 85//131
f 80//128 79//128 86//132
f 81//129 87//133 83//129
f 81//130 84//130 87//134
f 88//131 85//131 82//127
f 85//132 86//132 79//128
f 89//133 83//129 87//133
f 90//134 87//134 84//130
f 85//131 88//131 91//135
f 86//132 85//132 92//136
f 87//15 93//137 89//15
f 90//15 94//138 87//15
f 95//135 91//135 88//131
f 91//136 92//136 85//132
f 96//137 89//15 93//137
f 93//138 87//15 94//138
f 91//135 95//135 97//139
f 92//136 91//136 98//140
f 96//137 93//137 99//141
f 94//138 100//142 93//138
f 101//139 97//139 95//135
f 97//140 98//140 91//136
f 102//141 99//141 93//137
f 102//142 93//138 100//142
f 97//139 101//139 103//143
f 98//140 97//140 104//144
f 102//141 105//145 99//141
f 100//142 106//146 102//142
f 107//143 103//143 101//139
f 103//144 104//144 97//140
f 108//145 99//141 105//145
f 105//146 102//142 106//146
f 107//143 108//145 103//143
f 103//144 105//146 104//144
f 105//145 103//143 108//145
f 106//146 104//144 105//146
