# SSTK version 0.8.0
# 25
mtllib original-25.mtl
o GRB_11_TR1/GRB_11_TR/mesh13/mesh13-geometry#mesh13-geometry
v -0.941731 0.137261 0.250124
v -0.844210 0.171410 0.250124
v -0.844210 0.137261 0.250124
v -0.941731 0.268932 0.250124
v -0.844210 0.137261 0.268204
v -0.944297 0.271497 0.253387
v -0.788275 0.268932 0.250124
v -0.844210 0.171410 0.268204
v -0.944297 0.137261 0.253387
v -0.788275 0.171410 0.250124
v -0.844566 0.137261 0.269594
v -0.944297 0.271497 0.269370
v -0.788275 0.271497 0.253387
v -0.788275 0.171410 0.268204
v -0.844566 0.171766 0.269594
v -0.944297 0.137261 0.269370
v -0.845500 0.137261 0.270583
v -0.942906 0.270107 0.270773
v -0.788275 0.271497 0.269370
v -0.788275 0.171766 0.269594
v -0.845500 0.172701 0.270583
v -0.942906 0.137261 0.270773
v -0.846815 0.137261 0.270960
v -0.939962 0.137261 0.270835
v -0.788275 0.270107 0.270773
v -0.788275 0.172701 0.270583
v -0.846815 0.174015 0.270960
v -0.939962 0.267163 0.270835
v -0.788275 0.267163 0.270835
v -0.848386 0.137261 0.270960
v -0.935117 0.137261 0.271986
v -0.788275 0.174015 0.270960
v -0.848386 0.175587 0.270960
v -0.935117 0.262317 0.271986
v -0.788275 0.262317 0.271986
v -0.848869 0.137261 0.273136
v -0.930743 0.137261 0.274105
v -0.788275 0.175587 0.270960
v -0.848869 0.176070 0.273136
v -0.930743 0.257943 0.274105
v -0.788275 0.257943 0.274105
v -0.850404 0.137261 0.274754
v -0.929582 0.256782 0.274969
v -0.788275 0.176070 0.273136
v -0.850404 0.177605 0.274754
v -0.929582 0.137261 0.274969
v -0.788275 0.256782 0.274969
v -0.852553 0.179753 0.275350
v -0.928507 0.137261 0.275351
v -0.788275 0.255708 0.275351
v -0.788275 0.177605 0.274754
v -0.852553 0.137261 0.275350
v -0.928507 0.255708 0.275351
v -0.854701 0.181902 0.274754
v -0.788275 0.179753 0.275350
v -0.927392 0.137261 0.275110
v -0.788275 0.254593 0.275110
v -0.854701 0.137261 0.274754
v -0.927392 0.254593 0.275110
v -0.856236 0.137261 0.273136
v -0.788275 0.181902 0.274754
v -0.926571 0.137261 0.274318
v -0.788275 0.253772 0.274318
v -0.856236 0.183437 0.273136
v -0.788275 0.183437 0.273136
v -0.926571 0.253772 0.274318
v -0.856719 0.137261 0.270960
v -0.926291 0.253492 0.273212
v -0.788275 0.253492 0.273212
v -0.788275 0.183920 0.270960
v -0.856719 0.183920 0.270960
v -0.926291 0.137261 0.273212
v -0.860255 0.187456 0.270960
v -0.926269 0.253470 0.271765
v -0.788275 0.253470 0.271765
v -0.860255 0.137261 0.270960
v -0.926269 0.137261 0.271765
v -0.788275 0.187456 0.270960
v -0.861234 0.137261 0.271810
v -0.924182 0.251382 0.271765
v -0.788275 0.251382 0.271765
v -0.861234 0.188435 0.271810
v -0.924182 0.137261 0.271765
v -0.788275 0.188435 0.271810
v -0.861306 0.137261 0.275730
v -0.923761 0.250961 0.272778
v -0.861306 0.188507 0.275730
v -0.923761 0.137261 0.272778
v -0.788275 0.250961 0.272778
v -0.788275 0.188507 0.275730
v -0.862302 0.137261 0.276773
v -0.923069 0.250269 0.273618
v -0.862302 0.189503 0.276773
v -0.923069 0.137261 0.273618
v -0.788275 0.250269 0.273618
v -0.788275 0.189503 0.276773
v -0.919220 0.246420 0.276773
v -0.921691 0.137261 0.274425
v -0.788275 0.248891 0.274425
v -0.919220 0.137261 0.276773
v -0.921691 0.248891 0.274425
v -0.788275 0.246420 0.276773
v -0.920249 0.137261 0.275689
v -0.920271 0.137261 0.274575
v -0.788275 0.247472 0.274575
v -0.788275 0.247449 0.275689
v -0.920249 0.247449 0.275689
v -0.920271 0.247472 0.274575
vt 0.504805 0.699887
vt 0.447625 0.679865
vt 0.447625 0.699887
vt 0.504805 0.622684
vt 0.506309 0.62118
vt 0.33834 0.650707
vt 0.281159 0.683503
vt 0.33834 0.740684
vt 0.506309 0.699887
vt 0.339844 0.742188
vt 0.281159 0.650707
vt 0.447833 0.699887
vt 0.339844 0.650707
vt 0.447833 0.679656
vt 0.281368 0.683712
vt 0.448382 0.699887
vt 0.505494 0.621996
vt 0.281368 0.650707
vt 0.448382 0.679108
vt 0.505494 0.699887
vt 0.339028 0.741372
vt 0.281916 0.68426
vt 0.449152 0.699887
vt 0.503768 0.699887
vt 0.339028 0.650707
vt 0.281916 0.650707
vt 0.449152 0.678337
vt 0.503768 0.623722
vt 0.337302 0.650707
vt 0.282687 0.685031
vt 0.450074 0.699887
vt 0.500927 0.699887
vt 0.337302 0.739646
vt 0.282687 0.650707
vt 0.450074 0.677416
vt 0.500927 0.626563
vt 0.334461 0.650707
vt 0.283608 0.685952
vt 0.450357 0.699887
vt 0.498362 0.699887
vt 0.334461 0.736805
vt 0.283608 0.650707
vt 0.450357 0.677133
vt 0.498362 0.629127
vt 0.331897 0.650707
vt 0.283891 0.686235
vt 0.451257 0.699887
vt 0.497681 0.629808
vt 0.331897 0.734241
vt 0.283891 0.650707
vt 0.451257 0.676233
vt 0.497681 0.699887
vt 0.331216 0.650707
vt 0.331216 0.73356
vt 0.284791 0.687135
vt 0.452517 0.674973
vt 0.497051 0.699887
vt 0.330586 0.650707
vt 0.284791 0.650707
vt 0.452517 0.699887
vt 0.286051 0.688395
vt 0.497051 0.630438
vt 0.330586 0.73293
vt 0.453776 0.673713
vt 0.286051 0.650707
vt 0.496397 0.699887
vt 0.329932 0.650707
vt 0.453776 0.699887
vt 0.287311 0.689655
vt 0.496397 0.631092
vt 0.329932 0.732276
vt 0.454676 0.699887
vt 0.287311 0.650707
vt 0.495916 0.699887
vt 0.329451 0.650707
vt 0.454676 0.672813
vt 0.288211 0.650707
vt 0.495916 0.631573
vt 0.329451 0.731795
vt 0.288211 0.690555
vt 0.454959 0.699887
vt 0.495752 0.631737
vt 0.329287 0.650707
vt 0.288494 0.650707
vt 0.454959 0.67253
vt 0.495752 0.699887
vt 0.329287 0.73163
vt 0.288494 0.690838
vt 0.457033 0.670457
vt 0.495739 0.631751
vt 0.329274 0.650707
vt 0.290567 0.692911
vt 0.457033 0.699887
vt 0.495739 0.699887
vt 0.329274 0.731617
vt 0.290567 0.650707
vt 0.457607 0.699887
vt 0.494515 0.632974
vt 0.32805 0.650707
vt 0.291141 0.693485
vt 0.457607 0.669883
vt 0.494515 0.699887
vt 0.32805 0.730394
vt 0.291141 0.650707
vt 0.457649 0.699887
vt 0.494268 0.633221
vt 0.327803 0.730147
vt 0.291184 0.693528
vt 0.457649 0.66984
vt 0.494268 0.699887
vt 0.327803 0.650707
vt 0.291184 0.650707
vt 0.458233 0.699887
vt 0.493862 0.633627
vt 0.327397 0.729741
vt 0.291768 0.694111
vt 0.458233 0.669257
vt 0.493862 0.699887
vt 0.327397 0.650707
vt 0.291768 0.650707
vt 0.491606 0.635884
vt 0.493055 0.699887
vt 0.326589 0.650707
vt 0.32514 0.727484
vt 0.491606 0.699887
vt 0.493055 0.634435
vt 0.326589 0.728933
vt 0.32514 0.650707
vt 0.492209 0.699887
vt 0.492222 0.699887
vt 0.325757 0.650707
vt 0.325744 0.650707
vt 0.492209 0.63528
vt 0.492222 0.635267
vt 0.325757 0.728101
vt 0.325744 0.728087
vn -0.4370191077984243 0 -0.8994522218656582
vn 0 0 -1
vn 1 0 0
vn 0.9921490536147441 0 0.12506100675817172
vn -0.9450278200270291 0 -0.326989937727388
vn 0 0.43701910779842407 -0.8994522218656583
vn 0 0.9450278200270291 -0.32698993772738827
vn 0 -1 0
vn 0 -0.9921490536147441 0.12506100675817194
vn 0.8756788571430765 0 0.4828939212214162
vn -0.9247352064258889 0 0.38061108496268037
vn 0 0.9247352064258888 0.3806110849626801
vn 0 -0.8756788571430764 0.48289392122141644
vn 0.519668857354816 0 0.8543677654824883
vn -0.3945580138085442 0 0.9188710321581898
vn 0 0.39455801380854444 0.9188710321581897
vn 0 -0.5196688573548158 0.8543677654824884
vn 0.13917903303205995 0 0.990267235025102
vn -0.12685097270896734 0 0.9919217865954901
vn 0 0.12685097270896753 0.9919217865954899
vn 0 -0.13917903303205972 0.990267235025102
vn 0 0 1
vn -0.3355149569785972 0 0.9420348792075854
vn 0 0.3355149569785974 0.9420348792075853
vn 0.9762715506789323 0 0.21654990033466345
vn 0.8829048588548676 0 0.4695519249353221
vn -0.5187288783160751 0 0.8549387994476252
vn 0 0.5187288783160753 0.8549387994476251
vn 0 -0.9762715506789323 0.21654990033466368
vn 0 -0.8829048588548675 0.46955192493532233
vn 0.5149989020261033 0 0.8571908369271732
vn -0.4712621119971034 0 0.8819932096087981
vn 0 0.4712621119971036 0.881993209608798
vn 0 -0.5149989020261031 0.8571908369271733
vn -0.06444700844094726 0 0.9979211307027286
vn 0 0.06444700844094749 0.9979211307027286
vn -0.5149989020261029 0 0.8571908369271735
vn 0.47094918221003856 0 0.8821603413074609
vn 0 -0.47094918221003834 0.882160341307461
vn 0 0.5149989020261031 0.8571908369271733
vn -0.8829048588548674 0 0.46955192493532255
vn 0.8650370308675495 0 0.5017080179026983
vn 0 -0.8650370308675494 0.5017080179026985
vn 0 0.8829048588548675 0.46955192493532233
vn -0.9762715506789323 0 0.2165499003346639
vn 0.9913292929170314 0 0.13140103882625306
vn 0 -0.9913292929170314 0.13140103882625329
vn 0 0.9762715506789323 0.21654990033466368
vn 0.349985977212239 0 0.9367549390074194
vn 0.9998810892883854 0 0.015421001377079841
vn 0 -0.9998810892883854 0.015421001377080064
vn 0 -0.3499859772122388 0.9367549390074195
vn 0.9059915435253358 0 0.4232957867267043
vn 0 -0.905991543525336 0.42329578672670465
vn 0.9247981708250348 0 0.3804580702766992
vn -0.9233742208355901 0 0.3839010918143722
vn -0.8569058686513361 0 0.5154729209870282
vn 0 0.8569058686513362 0.515472920987028
vn 0 0.9233742208355902 0.383901091814372
vn 0 -0.9247981708250347 0.3804580702766994
vn 0.3934158431496591 0 0.919360633461561
vn -0.6485230293281574 0 0.7611950344235239
vn 0 0.6485230293281576 0.7611950344235238
vn 0 -0.3934158431496589 0.9193606334615612
vn -0.39462388950039334 0 0.9188427427125826
vn -0.3121370299436186 0 0.9500370911380125
vn 0 0.31213702994361886 0.9500370911380126
vn 0 0.39462388950039357 0.9188427427125825
vn -0.925002578416296 0 0.37996082682719345
vn -0.10509798638728908 0 0.994461871193329
vn 0 0.1050979863872893 0.994461871193329
vn 0 0.9250025784162961 0.37996082682719323
vn -0.9997994393469632 0 0.02002700880057077
vn 0 0.9997994393469632 0.020027008800570546
vn 0.4370191077984243 0 0.8994522218656582
vn -1 0 0
vn -0.9921490536147441 0 -0.12506100675817172
vn 0.9450278200270291 0 0.326989937727388
vn 0 -0.43701910779842407 0.8994522218656583
vn 0 -0.9450278200270291 0.32698993772738827
vn 0 1 0
vn 0 0.9921490536147441 -0.12506100675817194
vn -0.8756788571430765 0 -0.4828939212214162
vn 0.9247352064258889 0 -0.38061108496268037
vn 0 -0.9247352064258888 -0.3806110849626801
vn 0 0.8756788571430764 -0.48289392122141644
vn -0.519668857354816 0 -0.8543677654824883
vn 0.3945580138085442 0 -0.9188710321581898
vn 0 -0.39455801380854444 -0.9188710321581897
vn 0 0.5196688573548158 -0.8543677654824884
vn -0.13917903303205995 0 -0.990267235025102
vn 0.12685097270896734 0 -0.9919217865954901
vn 0 -0.12685097270896753 -0.9919217865954899
vn 0 0.13917903303205972 -0.990267235025102
vn 0.3355149569785972 0 -0.9420348792075854
vn 0 -0.3355149569785974 -0.9420348792075853
vn -0.9762715506789323 0 -0.21654990033466345
vn -0.8829048588548676 0 -0.4695519249353221
vn 0.5187288783160751 0 -0.8549387994476252
vn 0 -0.5187288783160753 -0.8549387994476251
vn 0 0.9762715506789323 -0.21654990033466368
vn 0 0.8829048588548675 -0.46955192493532233
vn -0.5149989020261033 0 -0.8571908369271732
vn 0.4712621119971034 0 -0.8819932096087981
vn 0 -0.4712621119971036 -0.881993209608798
vn 0 0.5149989020261031 -0.8571908369271733
vn 0.06444700844094726 0 -0.9979211307027286
vn 0 -0.06444700844094749 -0.9979211307027286
vn 0.5149989020261029 0 -0.8571908369271735
vn -0.47094918221003856 0 -0.8821603413074609
vn 0 0.47094918221003834 -0.882160341307461
vn 0 -0.5149989020261031 -0.8571908369271733
vn 0.8829048588548674 0 -0.46955192493532255
vn -0.8650370308675495 0 -0.5017080179026983
vn 0 0.8650370308675494 -0.5017080179026985
vn 0 -0.8829048588548675 -0.46955192493532233
vn 0.9762715506789323 0 -0.2165499003346639
vn -0.9913292929170314 0 -0.13140103882625306
vn 0 0.9913292929170314 -0.13140103882625329
vn 0 -0.9762715506789323 -0.21654990033466368
vn -0.349985977212239 0 -0.9367549390074194
vn -0.9998810892883854 0 -0.015421001377079841
vn 0 0.9998810892883854 -0.015421001377080064
vn 0 0.3499859772122388 -0.9367549390074195
vn -0.9059915435253358 0 -0.4232957867267043
vn 0 0.905991543525336 -0.42329578672670465
vn -0.9247981708250348 0 -0.3804580702766992
vn 0.9233742208355901 0 -0.3839010918143722
vn 0.8569058686513361 0 -0.5154729209870282
vn 0 -0.9233742208355902 -0.383901091814372
vn 0 -0.8569058686513362 -0.515472920987028
vn 0 0.9247981708250347 -0.3804580702766994
vn -0.3934158431496591 0 -0.919360633461561
vn 0.6485230293281574 0 -0.7611950344235239
vn 0 -0.6485230293281576 -0.7611950344235238
vn 0 0.3934158431496589 -0.9193606334615612
vn 0.39462388950039334 0 -0.9188427427125826
vn 0.3121370299436186 0 -0.9500370911380125
vn 0 -0.31213702994361886 -0.9500370911380126
vn 0 -0.39462388950039357 -0.9188427427125825
vn 0.925002578416296 0 -0.37996082682719345
vn 0.10509798638728908 0 -0.994461871193329
vn 0 -0.1050979863872893 -0.994461871193329
vn 0 -0.9250025784162961 -0.37996082682719323
vn 0.9997994393469632 0 -0.02002700880057077
vn 0 -0.9997994393469632 -0.020027008800570546
usemtl material_0_0
f 1/1/1 2/2/2 3/3/2
f 2/2/2 1/1/1 4/4/1
f 2/2/3 5/3/4 3/3/3
f 1/1/1 6/5/5 4/4/1
f 7/6/6 2/7/2 4/8/6
f 5/3/4 2/2/3 8/2/4
f 6/5/5 1/1/1 9/9/5
f 6/10/7 7/6/6 4/8/6
f 2/7/2 7/6/6 10/11/2
f 10/11/8 8/7/9 2/7/8
f 8/2/4 11/12/10 5/3/4
f 9/9/5 12/5/11 6/5/5
f 7/6/6 6/10/7 13/13/7
f 8/7/9 10/11/8 14/11/9
f 11/12/10 8/2/4 15/14/10
f 12/5/11 9/9/5 16/9/11
f 12/10/12 13/13/7 6/10/7
f 14/11/9 15/15/13 8/7/9
f 15/14/10 17/16/14 11/12/10
f 16/9/11 18/17/15 12/5/11
f 13/13/7 12/10/12 19/13/12
f 15/15/13 14/11/9 20/18/13
f 17/16/14 15/14/10 21/19/14
f 18/17/15 16/9/11 22/20/15
f 18/21/16 19/13/12 12/10/12
f 20/18/13 21/22/17 15/15/13
f 21/19/14 23/23/18 17/16/14
f 24/24/19 18/17/15 22/20/15
f 19/13/12 18/21/16 25/25/16
f 21/22/17 20/18/13 26/26/17
f 23/23/18 21/19/14 27/27/18
f 18/17/15 24/24/19 28/28/19
f 18/21/16 29/29/20 25/25/16
f 26/26/17 27/30/21 21/22/17
f 27/27/18 30/31/22 23/23/18
f 31/32/23 28/28/19 24/24/19
f 29/29/20 18/21/16 28/33/20
f 27/30/21 26/26/17 32/34/21
f 30/31/22 27/27/18 33/35/22
f 28/28/19 31/32/23 34/36/23
f 28/33/20 35/37/24 29/29/20
f 32/34/21 33/38/22 27/30/21
f 33/35/25 36/39/26 30/31/25
f 37/40/27 34/36/23 31/32/23
f 35/37/24 28/33/20 34/41/24
f 33/38/22 32/34/21 38/42/22
f 36/39/26 33/35/25 39/43/26
f 34/36/23 37/40/27 40/44/27
f 34/41/24 41/45/28 35/37/24
f 38/42/29 39/46/30 33/38/29
f 39/43/26 42/47/31 36/39/26
f 37/40/27 43/48/32 40/44/27
f 41/45/28 34/41/24 40/49/28
f 39/46/30 38/42/29 44/50/30
f 42/47/31 39/43/26 45/51/31
f 43/48/32 37/40/27 46/52/32
f 47/53/33 40/49/28 43/54/33
f 40/49/28 47/53/33 41/45/28
f 44/50/30 45/55/34 39/46/30
f 48/56/22 42/47/31 45/51/31
f 49/57/35 43/48/32 46/52/32
f 43/54/33 50/58/36 47/53/33
f 45/55/34 44/50/30 51/59/34
f 42/47/31 48/56/22 52/60/22
f 51/59/34 48/61/22 45/55/34
f 43/48/32 49/57/35 53/62/35
f 50/58/36 43/54/33 53/63/36
f 54/64/37 52/60/22 48/56/22
f 48/61/22 51/59/34 55/65/22
f 56/66/38 53/62/35 49/57/35
f 53/63/36 57/67/39 50/58/36
f 52/60/22 54/64/37 58/68/37
f 55/65/22 54/69/40 48/61/22
f 53/62/35 56/66/38 59/70/38
f 57/67/39 53/63/36 59/71/39
f 54/64/37 60/72/41 58/68/37
f 54/69/40 55/65/22 61/73/40
f 62/74/42 59/70/38 56/66/38
f 59/71/39 63/75/43 57/67/39
f 60/72/41 54/64/37 64/76/41
f 65/77/44 54/69/40 61/73/40
f 59/70/38 62/74/42 66/78/42
f 63/75/43 59/71/39 66/79/43
f 54/69/40 65/77/44 64/80/44
f 64/76/41 67/81/45 60/72/41
f 62/74/42 68/82/46 66/78/42
f 66/79/43 69/83/47 63/75/43
f 70/84/48 64/80/44 65/77/44
f 67/81/45 64/76/41 71/85/45
f 68/82/46 62/74/42 72/86/46
f 69/83/47 66/79/43 68/87/47
f 64/80/44 70/84/48 71/88/48
f 73/89/49 67/81/22 71/85/22
f 72/86/46 74/90/50 68/82/46
f 68/87/47 75/91/51 69/83/47
f 70/84/22 73/92/52 71/88/22
f 67/81/22 73/89/49 76/93/49
f 74/90/50 72/86/46 77/94/50
f 75/91/51 68/87/47 74/95/51
f 73/92/52 70/84/22 78/96/52
f 73/89/49 79/97/53 76/93/49
f 77/94/22 80/98/22 74/90/22
f 74/95/22 81/99/22 75/91/22
f 78/96/52 82/100/54 73/92/52
f 79/97/53 73/89/49 82/101/53
f 80/98/22 77/94/22 83/102/22
f 81/99/22 74/95/22 80/103/22
f 82/100/54 78/96/52 84/104/54
f 82/101/53 85/105/55 79/97/53
f 83/102/56 86/106/57 80/98/56
f 86/107/58 81/99/59 80/103/59
f 84/104/54 87/108/60 82/100/54
f 85/105/55 82/101/53 87/109/55
f 86/106/57 83/102/56 88/110/57
f 81/99/59 86/107/58 89/111/58
f 87/108/60 84/104/54 90/112/60
f 87/109/55 91/113/61 85/105/55
f 88/110/57 92/114/62 86/106/57
f 92/115/63 89/111/58 86/107/58
f 90/112/60 93/116/64 87/108/60
f 91/113/61 87/109/55 93/117/61
f 92/114/62 88/110/57 94/118/62
f 89/111/58 92/115/63 95/119/63
f 93/116/64 90/112/60 96/120/64
f 97/121/65 91/113/61 93/117/61
f 98/122/66 92/114/62 94/118/62
f 92/115/63 99/123/67 95/119/63
f 96/120/64 97/124/68 93/116/64
f 91/113/61 97/121/65 100/125/65
f 92/114/62 98/122/66 101/126/66
f 99/123/67 92/115/63 101/127/67
f 97/124/68 96/120/64 102/128/68
f 97/121/65 103/129/69 100/125/65
f 104/130/70 101/126/66 98/122/66
f 101/127/67 105/131/71 99/123/67
f 106/132/72 97/124/68 102/128/68
f 103/129/69 97/121/65 107/133/69
f 101/126/66 104/130/70 108/134/70
f 105/131/71 101/127/67 108/135/71
f 97/124/68 106/132/72 107/136/72
f 107/133/69 104/130/73 103/129/69
f 104/130/73 107/133/69 108/134/73
f 107/136/72 105/131/74 108/135/74
f 105/131/74 107/136/72 106/132/72
usemtl material_1_0
f 3//22 2//22 1//75
f 4//75 1//75 2//22
f 3//76 5//77 2//76
f 4//75 6//78 1//75
f 4//79 2//22 7//79
f 8//77 2//76 5//77
f 9//78 1//75 6//78
f 4//79 7//79 6//80
f 10//22 7//79 2//22
f 2//81 8//82 10//81
f 5//77 11//83 8//77
f 6//78 12//84 9//78
f 13//80 6//80 7//79
f 14//82 10//81 8//82
f 15//83 8//77 11//83
f 16//84 9//78 12//84
f 6//80 13//80 12//85
f 8//82 15//86 14//82
f 11//83 17//87 15//83
f 12//84 18//88 16//84
f 19//85 12//85 13//80
f 20//86 14//82 15//86
f 21//87 15//83 17//87
f 22//88 16//84 18//88
f 12//85 19//85 18//89
f 15//86 21//90 20//86
f 17//87 23//91 21//87
f 22//88 18//88 24//92
f 25//89 18//89 19//85
f 26//90 20//86 21//90
f 27//91 21//87 23//91
f 28//92 24//92 18//88
f 25//89 29//93 18//89
f 21//90 27//94 26//90
f 23//91 30//2 27//91
f 24//92 28//92 31//95
f 28//93 18//89 29//93
f 32//94 26//90 27//94
f 33//2 27//91 30//2
f 34//95 31//95 28//92
f 29//93 35//96 28//93
f 27//94 33//2 32//94
f 30//97 36//98 33//97
f 31//95 34//95 37//99
f 34//96 28//93 35//96
f 38//2 32//94 33//2
f 39//98 33//97 36//98
f 40//99 37//99 34//95
f 35//96 41//100 34//96
f 33//101 39//102 38//101
f 36//98 42//103 39//98
f 40//99 43//104 37//99
f 40//100 34//96 41//100
f 44//102 38//101 39//102
f 45//103 39//98 42//103
f 46//104 37//99 43//104
f 43//105 40//100 47//105
f 41//100 47//105 40//100
f 39//102 45//106 44//102
f 45//103 42//103 48//2
f 46//104 43//104 49//107
f 47//105 50//108 43//105
f 51//106 44//102 45//106
f 52//2 48//2 42//103
f 45//106 48//2 51//106
f 53//107 49//107 43//104
f 53//108 43//105 50//108
f 48//2 52//2 54//109
f 55//2 51//106 48//2
f 49//107 53//107 56//110
f 50//108 57//111 53//108
f 58//109 54//109 52//2
f 48//2 54//112 55//2
f 59//110 56//110 53//107
f 59//111 53//108 57//111
f 58//109 60//113 54//109
f 61//112 55//2 54//112
f 56//110 59//110 62//114
f 57//111 63//115 59//111
f 64//113 54//109 60//113
f 61//112 54//112 65//116
f 66//114 62//114 59//110
f 66//115 59//111 63//115
f 64//116 65//116 54//112
f 60//113 67//117 64//113
f 66//114 68//118 62//114
f 63//115 69//119 66//115
f 65//116 64//116 70//120
f 71//117 64//113 67//117
f 72//118 62//114 68//118
f 68//119 66//115 69//119
f 71//120 70//120 64//116
f 71//2 67//2 73//121
f 68//118 74//122 72//118
f 69//119 75//123 68//119
f 71//2 73//124 70//2
f 76//121 73//121 67//2
f 77//122 72//118 74//122
f 74//123 68//119 75//123
f 78//124 70//2 73//124
f 76//121 79//125 73//121
f 74//2 80//2 77//2
f 75//2 81//2 74//2
f 73//124 82//126 78//124
f 82//125 73//121 79//125
f 83//2 77//2 80//2
f 80//2 74//2 81//2
f 84//126 78//124 82//126
f 79//125 85//127 82//125
f 80//128 86//129 83//128
f 80//130 81//130 86//131
f 82//126 87//132 84//126
f 87//127 82//125 85//127
f 88//129 83//128 86//129
f 89//131 86//131 81//130
f 90//132 84//126 87//132
f 85//127 91//133 87//127
f 86//129 92//134 88//129
f 86//131 89//131 92//135
f 87//132 93//136 90//132
f 93//133 87//127 91//133
f 94//134 88//129 92//134
f 95//135 92//135 89//131
f 96//136 90//132 93//136
f 93//133 91//133 97//137
f 94//134 92//134 98//138
f 95//135 99//139 92//135
f 93//136 97//140 96//136
f 100//137 97//137 91//133
f 101//138 98//138 92//134
f 101//139 92//135 99//139
f 102//140 96//136 97//140
f 100//137 103//141 97//137
f 98//138 101//138 104//142
f 99//139 105//143 101//139
f 102//140 97//140 106//144
f 107//141 97//137 103//141
f 108//142 104//142 101//138
f 108//143 101//139 105//143
f 107//144 106//144 97//140
f 103//141 104//145 107//141
f 108//145 107//141 104//145
f 108//146 105//146 107//144
f 106//144 107//144 105//146
