# SSTK version 0.8.0
# 38
mtllib original-38.mtl
o Mullion_2_1/Mullion_2/mesh24/mesh24-geometry#mesh24-geometry
v -0.852624 0.008199 0.274926
v 0.869259 0.015148 0.274926
v -0.852624 0.015148 0.274926
v 0.869259 0.008199 0.274926
v -0.852624 0.015148 0.271582
v -0.852624 0.008199 0.271582
v 0.869259 0.015148 0.271582
v 0.869259 0.008199 0.271582
v 0.869259 0.017387 0.271047
v -0.852624 0.005960 0.271047
v -0.852624 0.017387 0.271047
v 0.869259 0.005960 0.271047
v 0.869259 0.019258 0.269599
v -0.852624 0.019258 0.269599
v -0.852624 0.004088 0.269599
v 0.869259 0.004088 0.269599
v -0.852624 0.020467 0.267467
v -0.852624 0.002880 0.267467
v 0.869259 0.020467 0.267467
v 0.869259 0.002880 0.267467
v -0.852624 0.020821 0.264989
v -0.852624 0.002525 0.264989
v 0.869259 0.002525 0.264989
v 0.869259 0.020821 0.264989
v -0.852624 0.020823 0.262667
v -0.852624 0.002524 0.262667
v 0.869259 0.002524 0.262667
v 0.869259 0.020823 0.262667
vt 0.397669 0.674965
vt 0.393595 0.90722
vt 0.393595 0.674965
vt 0.397669 0.90722
vt 0.392282 0.90722
vt 0.398982 0.674965
vt 0.392282 0.674965
vt 0.398982 0.90722
vt 0.391184 0.90722
vt 0.391184 0.674965
vt 0.400079 0.674965
vt 0.400079 0.90722
vt 0.390476 0.674965
vt 0.400788 0.674965
vt 0.390476 0.90722
vt 0.400788 0.90722
vt 0.390268 0.674965
vt 0.400996 0.674965
vt 0.400996 0.90722
vt 0.390268 0.90722
vt 0.390267 0.674965
vt 0.390267 0.90722
vn 0 0 1
vn 0 1 0
vn -1 0 0
vn 0 -1 0
vn 1 0 0
vn 0 0.4317776138138159 0.9019800952400486
vn 0 0.23239890104674485 0.9726205584873605
vn 0 -0.4317776138138159 0.9019800952400486
vn 0 -0.23239890104674485 0.9726205584873605
vn 0 0.7556954565819728 0.6549231839699704
vn 0 -0.7556954565819728 0.6549231839699704
vn 0 0.9464039763021749 0.3229853148974922
vn 0 -0.9464039763021749 0.3229853148974922
vn 0 0.9974584815645279 0.07125010564894903
vn 0 -0.9974584815645279 0.07125010564894903
vn 0 0.9999998163816833 0.0006060004947271887
vn 0 -0.9999998163816833 0.0006060004947271887
vn 0 0 -1
vn 0 -0.23239890104674485 -0.9726205584873605
vn 0 -0.4317776138138159 -0.9019800952400486
vn 0 0.23239890104674485 -0.9726205584873605
vn 0 0.4317776138138159 -0.9019800952400486
vn 0 -0.7556954565819728 -0.6549231839699704
vn 0 0.7556954565819728 -0.6549231839699704
vn 0 -0.9464039763021749 -0.3229853148974922
vn 0 0.9464039763021749 -0.3229853148974922
vn 0 -0.9974584815645279 -0.07125010564894903
vn 0 0.9974584815645279 -0.07125010564894903
vn 0 -0.9999998163816833 -0.0006060004947271887
vn 0 0.9999998163816833 -0.0006060004947271887
usemtl material_0_0
f 1/1/1 2/2/1 3/3/1
f 2/2/1 1/1/1 4/4/1
f 2/2/2 5/3/2 3/3/2
f 5/3/3 1/1/3 3/3/3
f 6/1/4 4/4/4 1/1/4
f 4/4/5 7/2/5 2/2/5
f 5/3/2 2/2/2 7/2/2
f 1/1/3 5/3/3 6/1/3
f 4/4/4 6/1/4 8/4/4
f 7/2/5 4/4/5 8/4/5
f 9/5/6 5/3/7 7/2/7
f 6/1/3 5/3/3 10/6/3
f 10/6/8 8/4/9 6/1/9
f 7/2/5 8/4/5 9/5/5
f 5/3/7 9/5/6 11/7/6
f 10/6/3 5/3/3 11/7/3
f 8/4/9 10/6/8 12/8/8
f 9/5/5 8/4/5 12/8/5
f 13/9/10 11/7/6 9/5/6
f 10/6/3 11/7/3 14/10/3
f 15/11/11 12/8/8 10/6/8
f 9/5/5 12/8/5 13/9/5
f 11/7/6 13/9/10 14/10/10
f 10/6/3 14/10/3 15/11/3
f 12/8/8 15/11/11 16/12/11
f 13/9/5 12/8/5 16/12/5
f 13/9/10 17/13/12 14/10/10
f 15/11/3 14/10/3 18/14/3
f 18/14/13 16/12/11 15/11/11
f 13/9/5 16/12/5 19/15/5
f 17/13/12 13/9/10 19/15/12
f 18/14/3 14/10/3 17/13/3
f 16/12/11 18/14/13 20/16/13
f 19/15/5 16/12/5 20/16/5
f 19/15/12 21/17/14 17/13/12
f 18/14/3 17/13/3 22/18/3
f 22/18/15 20/16/13 18/14/13
f 19/15/5 20/16/5 23/19/5
f 21/17/14 19/15/12 24/20/14
f 22/18/3 17/13/3 21/17/3
f 20/16/13 22/18/15 23/19/15
f 19/15/5 23/19/5 24/20/5
f 24/20/14 25/21/16 21/17/14
f 22/18/3 21/17/3 26/18/3
f 26/18/17 23/19/15 22/18/15
f 24/20/5 23/19/5 27/19/5
f 25/21/16 24/20/14 28/22/16
f 26/18/3 21/17/3 25/21/3
f 23/19/15 26/18/17 27/19/17
f 24/20/5 27/19/5 28/22/5
f 28/22/18 26/18/18 25/21/18
f 26/18/18 28/22/18 27/19/18
usemtl material_1_0
f 3//18 2//18 1//18
f 4//18 1//18 2//18
f 3//4 5//4 2//4
f 3//5 1//5 5//5
f 1//2 4//2 6//2
f 2//3 7//3 4//3
f 7//4 2//4 5//4
f 6//5 5//5 1//5
f 8//2 6//2 4//2
f 8//3 4//3 7//3
f 7//19 5//19 9//20
f 10//5 5//5 6//5
f 6//21 8//21 10//22
f 9//3 8//3 7//3
f 11//20 9//20 5//19
f 11//5 5//5 10//5
f 12//22 10//22 8//21
f 12//3 8//3 9//3
f 9//20 11//20 13//23
f 14//5 11//5 10//5
f 10//22 12//22 15//24
f 13//3 12//3 9//3
f 14//23 13//23 11//20
f 15//5 14//5 10//5
f 16//24 15//24 12//22
f 16//3 12//3 13//3
f 14//23 17//25 13//23
f 18//5 14//5 15//5
f 15//24 16//24 18//26
f 19//3 16//3 13//3
f 19//25 13//23 17//25
f 17//5 14//5 18//5
f 20//26 18//26 16//24
f 20//3 16//3 19//3
f 17//25 21//27 19//25
f 22//5 17//5 18//5
f 18//26 20//26 22//28
f 23//3 20//3 19//3
f 24//27 19//25 21//27
f 21//5 17//5 22//5
f 23//28 22//28 20//26
f 24//3 23//3 19//3
f 21//27 25//29 24//27
f 26//5 21//5 22//5
f 22//28 23//28 26//30
f 27//3 23//3 24//3
f 28//29 24//27 25//29
f 25//5 21//5 26//5
f 27//30 26//30 23//28
f 28//3 27//3 24//3
f 25//1 26//1 28//1
f 27//1 28//1 26//1
