# https://github.com/mikedh/trimesh
mtllib material.mtl

o geometry_0
usemtl material_0
v -0.23477249 -0.03242191 -0.05101103
v -0.23645213 -0.03568527 -0.05613117
v -0.23575436 -0.03988221 -0.06362143
v -0.23635288 -0.04306337 -0.06875060
v -0.23307943 -0.02889186 -0.04637512
v -0.23254637 -0.03023299 -0.04896946
v -0.23462935 -0.03655060 -0.05857397
v -0.23320055 -0.03298695 -0.05338372
v -0.23298831 -0.03493518 -0.05716086
v -0.23350614 -0.03769628 -0.06179334
v -0.23044293 -0.02811563 -0.04702287
v -0.23495691 -0.04365734 -0.07087286
v -0.23185092 -0.03163847 -0.05204001
v -0.23377493 -0.04017655 -0.06595717
v -0.23338118 -0.04204435 -0.06954311
v -0.23047760 -0.03236700 -0.05481854
v -0.23321226 -0.04633797 -0.07717206
v -0.23338766 -0.04427467 -0.07347106
v -0.23186266 -0.04267230 -0.07216185
v -0.23240176 -0.03875826 -0.06480769
v -0.23138668 -0.03559032 -0.05998815
v -0.23090622 -0.03941416 -0.06744155
v -0.22959697 -0.02885936 -0.04956568
v -0.23021504 -0.03629730 -0.06273708
v -0.23067188 -0.04331077 -0.07468542
v -0.22981544 -0.03292277 -0.05709948
v -0.23898523 0.09986916 -0.08013270
v -0.24163425 0.10003506 -0.07873642
v -0.23926586 0.09886609 -0.07635425
v -0.24234375 0.09971827 -0.07642373
v -0.23924449 0.09783843 -0.07247277
v -0.24377827 0.09934380 -0.07241952
v -0.23932433 0.09690956 -0.06859666
v -0.24361238 0.09826637 -0.06866133
v -0.24085560 0.09658501 -0.06621099
v -0.23794790 0.09635591 -0.06729831
v -0.23945442 0.09593405 -0.06481230
v -0.24219133 0.09627119 -0.06353749
v -0.23952356 0.09475835 -0.06070825
v -0.24308331 0.09588537 -0.06067242
v -0.23967235 0.09371362 -0.05679347
v -0.23562644 0.09354149 -0.05695903
v -0.23984501 0.09302255 -0.05385980
v -0.23569712 0.09289408 -0.05432675
v -0.23994128 0.09248213 -0.05189309
v -0.24219520 0.09277550 -0.05103534
v -0.24006745 0.09154052 -0.04896380
v -0.23569706 0.09229072 -0.05236810
v -0.23575877 0.09129870 -0.04915211
v -0.24024442 0.09044886 -0.04521061
v -0.24290210 0.09245308 -0.04892473
v -0.23587523 0.09030881 -0.04547330
v -0.23548393 0.09464544 -0.06084785
v -0.23528910 0.09597219 -0.06494489
v -0.24422482 0.09542713 -0.05697644
v -0.24367651 0.09390266 -0.05256114
v -0.24360061 0.09725262 -0.06479341
v -0.24450570 0.10070878 -0.07643719
v -0.24535456 0.10042766 -0.07362477
v -0.24516849 0.09692925 -0.06068634
v -0.24485353 0.09346747 -0.04895442
v -0.23522897 0.09701435 -0.06859082
v -0.23537363 0.09794884 -0.07241916
v -0.23638731 0.09640179 -0.06730737
v -0.23545134 0.09896781 -0.07629678
v -0.23576365 0.10001218 -0.08026486
v -0.24579655 0.09668454 -0.05842720
v -0.24569520 0.09317621 -0.04637301
v -0.24595769 0.10014737 -0.07110219
v -0.24637565 0.09983795 -0.06871281
v -0.24633797 0.09634025 -0.05587039
v -0.24670655 0.10317828 -0.08032537
v -0.24686529 0.09593182 -0.05293117
v -0.23326577 0.09247146 -0.05181237
v -0.23249638 0.09208232 -0.04931466
v -0.23396409 0.09674509 -0.06638000
v -0.23487118 0.10062471 -0.08157612
v -0.23280288 0.09623177 -0.06309423
v -0.23346174 0.10044196 -0.07892311
v -0.24701288 0.09935983 -0.06471033
v -0.23187453 0.09375154 -0.05325657
v -0.23138703 0.09540346 -0.05742329
v -0.23269239 0.10015058 -0.07632134
v -0.23144431 0.09886736 -0.06870392
v -0.23129658 0.09991653 -0.07213195
v -0.23195289 0.10171931 -0.08023939
v -0.24745674 0.09543599 -0.04904102
v -0.24724291 0.10275037 -0.07641904
v -0.23042411 0.09327037 -0.04940676
v -0.23155235 0.09771483 -0.06509276
v -0.22937849 0.09283052 -0.04567323
v -0.24753618 0.09892870 -0.06073418
v -0.23055092 0.10151388 -0.07635941
v -0.22976723 0.10120147 -0.07321139
v -0.22931516 0.10430628 -0.08330602
v -0.22976114 0.09697145 -0.05901005
v -0.23026179 0.09733447 -0.06124040
v -0.22915335 0.10075311 -0.06967077
v -0.22939089 0.09648617 -0.05637246
v -0.22889043 0.10385660 -0.08027893
v -0.22895350 0.09598697 -0.05357323
v -0.24739480 0.10200519 -0.07244575
v -0.22864346 0.09991103 -0.06511617
v -0.24776694 0.09828380 -0.05705923
v -0.24888971 0.10270052 -0.06862843
v -0.22841200 0.10332245 -0.07642744
v -0.22829834 0.09925908 -0.06141385
v 0.22965777 0.11572054 -0.08007053
v 0.22982921 0.11961710 -0.07626091
v 0.22951543 0.11567944 -0.07602750
v 0.22944443 0.11561809 -0.07209773
v 0.22995588 0.11153482 -0.07598526
v 0.22982171 0.11096328 -0.07200526
v 0.22954543 0.11134771 -0.06805907
v 0.22951654 0.11555979 -0.06816169
v 0.22947715 0.11146166 -0.06423765
v 0.22969289 0.11559471 -0.06473361
v 0.22970566 0.11362111 -0.05946900
v 0.22961017 0.11187025 -0.06023769
v 0.22966935 0.10949229 -0.06048483
v 0.22962372 0.11001247 -0.05867437
v 0.22979918 0.11221854 -0.05714045
v 0.22977720 0.10909315 -0.06418779
v 0.23003547 0.10932599 -0.06976935
v 0.22998592 0.11951806 -0.07263682
v 0.22991200 0.10804766 -0.05700583
v 0.23001339 0.10787335 -0.05296196
v 0.23016825 0.11254790 -0.05309394
v 0.23017603 0.10815312 -0.04819269
v 0.23056330 0.10365737 -0.04822439
v 0.23048057 0.10390625 -0.04506810
v 0.23069718 0.11277176 -0.04829483
v 0.23100197 0.11281208 -0.04480724
v 0.23022315 0.11178698 -0.08001788
v 0.22995222 0.11794154 -0.06657635
v 0.23013619 0.10703129 -0.06044018
v 0.23076750 0.10331005 -0.05293542
v 0.23018612 0.11599472 -0.06047831
v 0.23107281 0.10311601 -0.05664533
v 0.23036920 0.10667549 -0.06417393
v 0.23045552 0.10946899 -0.07552250
v 0.23032500 0.12222640 -0.08044201
v 0.23033793 0.12155359 -0.07649080
v 0.23159711 0.10016607 -0.04486123
v 0.23063853 0.10683666 -0.06804294
v 0.23073769 0.11639322 -0.05702811
v 0.23139800 0.11671854 -0.05331158
v 0.23082767 0.10749339 -0.07198958
v 0.23147102 0.10300065 -0.06040825
v 0.23195592 0.10290068 -0.06419828
v 0.23219024 0.09948394 -0.04832648
v 0.23039560 0.12113118 -0.07394397
v 0.23150022 0.10700901 -0.07596201
v 0.23223040 0.11683818 -0.04493335
v 0.23221470 0.11688891 -0.04856804
v 0.23216072 0.10699221 -0.07994888
v 0.23264197 0.10282583 -0.06808412
v 0.23312524 0.09869812 -0.05286144
v 0.23356707 0.10254119 -0.07176644
v 0.23384289 0.09646159 -0.04839211
v 0.23419183 0.09669814 -0.05163498
v 0.23367709 0.10343365 -0.07592929
v 0.23325725 0.09937625 -0.05663126
v 0.23359333 0.09972447 -0.06039418
v 0.23415114 0.10398199 -0.07988454
v 0.23394534 0.10008176 -0.06422103
v 0.23463537 0.09689944 -0.05398325
v 0.23442604 0.10049411 -0.06812580
v 0.23473707 0.10074478 -0.07032494
v 0.23512524 0.09717704 -0.05663073
v 0.23523773 0.10102431 -0.07291842
v 0.23615707 0.09528334 -0.05291987
v 0.23385879 0.12068428 -0.04487856
v 0.23586403 0.09754505 -0.06037747
v 0.23098893 0.11947559 -0.06495963
v 0.23212625 0.12020677 -0.06094244
v 0.23066607 0.11999615 -0.06848612
v 0.23347998 0.12097348 -0.05702025
v 0.23127407 0.12392648 -0.08054914
v 0.23414966 0.11999842 -0.04886456
v 0.23371220 0.12042730 -0.05352553
v 0.23155059 0.12272403 -0.07390141
v 0.23306312 0.12339146 -0.06878933
v 0.23426326 0.12385859 -0.06526015
v 0.23443209 0.12311860 -0.06112365
v 0.23506895 0.12278081 -0.05661091
v 0.23433876 0.12676547 -0.07681445
v 0.23477855 0.12634826 -0.07290447
v -0.22491434 0.12163670 -0.08847643
v -0.22535485 0.12328853 -0.08837176
v -0.22503573 0.12107199 -0.08457377
v -0.22577940 0.12363227 -0.08460943
v -0.22519577 0.12052640 -0.08068035
v -0.22626510 0.12369522 -0.08073552
v -0.22539651 0.12011131 -0.07675895
v -0.22486788 0.11775235 -0.07673642
v -0.22496785 0.11751841 -0.07373595
v -0.22555207 0.11942729 -0.07292590
v -0.22515740 0.11671377 -0.06897354
v -0.22615889 0.11997980 -0.06899208
v -0.22535083 0.11651129 -0.06519391
v -0.22676547 0.12017893 -0.06520104
v -0.22748321 0.12033470 -0.06141040
v -0.22689399 0.12372629 -0.07683890
v -0.22471720 0.11842860 -0.08319013
v -0.22481196 0.11429056 -0.06878262
v -0.22503017 0.11450640 -0.06143016
v -0.22557883 0.11655190 -0.06141029
v -0.22514716 0.11442789 -0.05783433
v -0.22573385 0.11623496 -0.05770979
v -0.22528706 0.11441971 -0.05291337
v -0.22620581 0.11679402 -0.05344468
v -0.22619937 0.11653090 -0.04878055
v -0.22491631 0.11232980 -0.05347574
v -0.22506846 0.11313633 -0.04853899
v -0.22806275 0.12412224 -0.07269878
v -0.22490190 0.11274143 -0.05775142
v -0.22476938 0.11205337 -0.06147416
v -0.22833422 0.12067528 -0.05786037
v -0.22832398 0.12355343 -0.06908015
v -0.22841081 0.12786090 -0.08500892
v -0.22826788 0.11993518 -0.05350656
v -0.22531554 0.11505092 -0.04675600
v -0.22876865 0.12311853 -0.06526105
v -0.22844812 0.12690927 -0.08080944
v -0.22474326 0.11147565 -0.06524000
v -0.22472329 0.11958239 -0.08833014
v -0.22479290 0.11535312 -0.07290991
v -0.22468224 0.11499260 -0.07672817
v -0.22836563 0.11956374 -0.04941820
v -0.22888544 0.12639335 -0.07692736
v -0.22926313 0.12264819 -0.06144310
v -0.22843443 0.11912809 -0.04575989
v -0.22466367 0.11489157 -0.08064285
v -0.22928247 0.12596707 -0.07388795
v -0.22953232 0.12240604 -0.05943952
v -0.22477587 0.10801700 -0.05357585
v -0.22482593 0.10827659 -0.04878857
v -0.22463703 0.10839429 -0.04482128
v -0.22481945 0.10765871 -0.05762218
v -0.22471043 0.11483819 -0.08452445
v -0.22481620 0.11056891 -0.06960194
v -0.22482866 0.11159293 -0.07671232
v -0.22482212 0.11465118 -0.08798806
v -0.22493900 0.10723538 -0.06132864
v -0.22489817 0.10838540 -0.06598438
v -0.22489700 0.11620420 -0.09583122
v -0.22489080 0.11210053 -0.08061427
v -0.22501014 0.11265437 -0.08588502
v -0.22531113 0.10295743 -0.04960923
v -0.22480826 0.10401644 -0.04501095
v -0.22523819 0.10374188 -0.05373525
v -0.22522886 0.10441309 -0.05769788
v -0.22506988 0.10881897 -0.07218076
v -0.22528617 0.10473458 -0.06040295
v -0.22527748 0.11366114 -0.09220358
v -0.22522137 0.10955918 -0.07668268
v -0.22573677 0.10048392 -0.04841605
v -0.22567603 0.10093831 -0.05187236
v -0.22574316 0.10146031 -0.05381060
v -0.22540577 0.10599354 -0.06528720
v -0.22548573 0.10682371 -0.06935413
v -0.22539353 0.11009865 -0.08056206
v -0.22590996 0.10226724 -0.05771067
v -0.22590509 0.10651015 -0.07277006
v -0.22560796 0.11052123 -0.08442987
v -0.22576667 0.11110847 -0.08789673
v -0.22604112 0.10301855 -0.06134007
v -0.22636817 0.10655776 -0.07658139
v -0.22639628 0.09901103 -0.04988842
v -0.22651693 0.09786239 -0.04635925
v -0.22644535 0.11074766 -0.09208275
v -0.22680281 0.10259280 -0.06524758
v -0.22749560 0.10260301 -0.06892361
v -0.22697105 0.10662064 -0.08042362
v -0.22806716 0.10629261 -0.08450805
v -0.22707607 0.09884208 -0.05374145
v -0.22827888 0.10246465 -0.07226060
v -0.22831048 0.09547712 -0.04945176
v -0.22823186 0.10696178 -0.08807512
v -0.22829834 0.09925908 -0.06141385
v -0.22818093 0.09844682 -0.05771480
v -0.22841200 0.10332245 -0.07642744
v -0.22864346 0.09991103 -0.06511617
v -0.22889043 0.10385660 -0.08027893
v -0.22895350 0.09598697 -0.05357323
v -0.22939089 0.09648617 -0.05637246
v -0.22915335 0.10075311 -0.06967077
v -0.22931516 0.10430628 -0.08330602
v -0.22937849 0.09283052 -0.04567323
v -0.22976114 0.09697145 -0.05901005
v -0.22969785 0.12558158 -0.07128087
v -0.22976723 0.10120147 -0.07321139
v -0.23042411 0.09327037 -0.04940676
v -0.23001039 0.12213142 -0.05681258
v -0.23025224 0.12540245 -0.06913622
v -0.22531240 -0.04481002 -0.09212371
v -0.22643390 -0.04733445 -0.08994611
v -0.22593530 -0.04500483 -0.08850450
v -0.22678976 -0.04643999 -0.08741565
v -0.22611448 -0.04371751 -0.08524709
v -0.22490385 -0.04056777 -0.08823630
v -0.22557916 -0.04120086 -0.08413418
v -0.22637515 -0.04298163 -0.08273692
v -0.22670941 -0.04239948 -0.08081793
v -0.22586298 -0.04031968 -0.08069884
v -0.22616784 -0.03957599 -0.07787038
v -0.22497381 -0.03679031 -0.08055189
v -0.22572352 -0.03734479 -0.07661960
v -0.22652565 -0.03889561 -0.07532673
v -0.22606182 -0.03636075 -0.07295901
v -0.22475092 -0.03295871 -0.07663434
v -0.22520591 -0.03323427 -0.07281811
v -0.22626829 -0.03576206 -0.07078541
v -0.22577567 -0.03345842 -0.06924190
v -0.22660896 -0.03493486 -0.06819579
v -0.22585212 -0.03222959 -0.06611525
v -0.22481984 -0.02913709 -0.06886800
v -0.22695015 -0.03822711 -0.07309354
v -0.22532851 -0.02979839 -0.06487533
v -0.22602493 -0.03151371 -0.06354515
v -0.22551693 -0.02886809 -0.06105840
v -0.22642998 -0.03089580 -0.06113520
v -0.22573261 -0.02830351 -0.05850781
v -0.22477747 -0.02543908 -0.06097898
v -0.22532369 -0.02595669 -0.05702708
v -0.22607951 -0.02762945 -0.05577993
v -0.22571313 -0.02468097 -0.05255775
v -0.22464691 -0.03650360 -0.08433453
v -0.22449185 -0.02121774 -0.05686064
v -0.22496347 -0.02152760 -0.05248874
v -0.22654407 -0.02401963 -0.04850829
v -0.22563867 -0.02144107 -0.04835176
v -0.22674347 -0.02684960 -0.05262579
v -0.22455588 -0.02499158 -0.06496695
v -0.22700277 -0.03372441 -0.06502417
v -0.22720022 -0.04506951 -0.08429191
v -0.22742152 -0.04097494 -0.07683229
v -0.22524138 -0.02082693 -0.04624120
v -0.22724175 -0.02984580 -0.05711740
v -0.22782782 -0.03720600 -0.06946364
v -0.22837169 -0.02658028 -0.04837519
v -0.22884005 -0.02593363 -0.04560032
v -0.22891727 -0.03409586 -0.06126739
v -0.22959697 -0.02885936 -0.04956568
v -0.22922485 -0.03017785 -0.05307268
v -0.22981544 -0.03292277 -0.05709948
v -0.22982478 -0.03749400 -0.06577064
v -0.23021504 -0.03629730 -0.06273708
v -0.22941254 -0.04123493 -0.07330687
v -0.23047760 -0.03236700 -0.05481854
v -0.22909573 -0.04529344 -0.08086633
v -0.22990656 -0.04407541 -0.07719375
v -0.22971058 -0.04836281 -0.08477546
v -0.23028851 -0.03998884 -0.06943691
v -0.23046662 -0.04755540 -0.08213803
v -0.23044293 -0.02811563 -0.04702287
v -0.23067188 -0.04331077 -0.07468542
v -0.23090622 -0.03941416 -0.06744155
v -0.23156495 -0.04686045 -0.07964796
v -0.23138668 -0.03559032 -0.05998815
v -0.23186266 -0.04267230 -0.07216185
v -0.23185092 -0.03163847 -0.05204001
v -0.23240176 -0.03875826 -0.06480769
v -0.23321226 -0.04633797 -0.07717206
v -0.23338118 -0.04204435 -0.06954311
v -0.22471952 -0.04038421 -0.09203407
v -0.22497459 -0.03615673 -0.09195065
v -0.22463995 -0.03627883 -0.08815402
v -0.22519851 -0.03253065 -0.08805753
v -0.22471152 -0.03261237 -0.08425056
v -0.22456190 -0.03273965 -0.08044540
v -0.22500445 -0.02874792 -0.08033913
v -0.22467412 -0.02877209 -0.07652894
v -0.22550908 -0.02465145 -0.07643743
v -0.22493379 -0.02460730 -0.07265075
v -0.22462308 -0.02888993 -0.07271398
v -0.22463381 -0.02468844 -0.06881875
v -0.22547171 -0.02000529 -0.06892281
v -0.22473998 -0.02042634 -0.06491438
v -0.22443822 -0.02075929 -0.06092557
v -0.22493364 -0.01647309 -0.06086804
v -0.22450030 -0.01677591 -0.05689150
v -0.22450647 -0.01707468 -0.05256438
v -0.22485201 -0.01252875 -0.05284296
v -0.22476178 -0.01270198 -0.04864106
v -0.22546518 -0.00784446 -0.04940553
v -0.22539560 -0.01221795 -0.05700856
v -0.22564737 -0.00897066 -0.05310547
v -0.22480449 -0.01723543 -0.04835230
v -0.22470352 -0.01710267 -0.04610967
v -0.22476737 -0.00831089 -0.04611481
v -0.22585748 -0.00987441 -0.05580489
v -0.22519851 -0.03253065 -0.08805753
v -0.22590145 -0.02838496 -0.08449639
v -0.22691266 -0.02678673 -0.08595774
v -0.22651327 -0.02608899 -0.08339625
v -0.22500445 -0.02874792 -0.08033913
v -0.22621226 -0.02470924 -0.07986347
v -0.22550908 -0.02465145 -0.07643743
v -0.22666305 -0.02262979 -0.07827814
v -0.22635713 -0.02210217 -0.07637003
v -0.22493379 -0.02460730 -0.07265075
v -0.22715379 -0.02343701 -0.08087318
v -0.22471152 -0.03261237 -0.08425056
v -0.22582850 -0.02107825 -0.07256030
v -0.22670716 -0.01906331 -0.07246628
v -0.22547171 -0.02000529 -0.06892281
v -0.22594060 -0.01779773 -0.06812874
v -0.22473998 -0.02042634 -0.06491438
v -0.22562179 -0.01635107 -0.06458748
v -0.22493364 -0.01647309 -0.06086804
v -0.22639869 -0.01515450 -0.06569559
v -0.22597833 -0.01418945 -0.06305980
v -0.22571291 -0.01349883 -0.06081580
v -0.22661017 -0.01153802 -0.06075142
v -0.22539560 -0.01221795 -0.05700856
v -0.22618940 -0.01068005 -0.05832241
v -0.22585748 -0.00987441 -0.05580489
v -0.22686186 -0.01649513 -0.06876554
v -0.22697984 -0.00858549 -0.05697891
v -0.22637585 -0.00700203 -0.05317704
v -0.22564737 -0.00897066 -0.05310547
v -0.22546518 -0.00784446 -0.04940553
v -0.22756597 -0.02018781 -0.07625601
v -0.22607334 -0.00623286 -0.05123143
v -0.22590140 -0.00526755 -0.04836822
v -0.22670732 -0.00411825 -0.04952354
v -0.22652508 -0.00263405 -0.04664833
v -0.22747722 -0.00017967 -0.04583085
v -0.22543620 -0.00416906 -0.04604571
v -0.22770390 -0.02483092 -0.08439523
v -0.22736660 -0.01289214 -0.06440452
v -0.22840546 -0.01671932 -0.07231794
v -0.22956808 -0.01278082 -0.06837643
v -0.22864504 -0.00415467 -0.05338433
v -0.22982553 -0.00185757 -0.05228078
v -0.22951674 -0.00523661 -0.05674925
v -0.22895691 -0.00036431 -0.04873313
v -0.22909842 -0.00840890 -0.06085801
v -0.22998749 -0.00967748 -0.06440432
v -0.23009327 -0.01696463 -0.07576866
v -0.22891816 -0.02092177 -0.07996636
v -0.23066711 -0.01838373 -0.07904641
v -0.22967878 0.00172825 -0.04714867
v -0.23048860 -0.01425160 -0.07215057
v -0.23035014 -0.00621058 -0.05967990
v -0.23018263 -0.02171849 -0.08391408
v -0.23074378 -0.01064025 -0.06705008
v -0.23112379 -0.01497570 -0.07421844
v -0.22902887 0.00230993 -0.04574613
v -0.23158534 -0.01919171 -0.08166153
v -0.23079799 -0.00278871 -0.05473569
v -0.23123829 -0.00709806 -0.06218791
v -0.23184282 -0.01151046 -0.06954578
v -0.23355943 -0.01701244 -0.07984230
v -0.23559535 -0.01480485 -0.07803761
v -0.23385748 -0.01428827 -0.07564793
v -0.23672780 -0.01149411 -0.07338028
v -0.23344205 -0.01229887 -0.07212768
v -0.23491466 -0.01071421 -0.07087049
v -0.23681115 -0.00710726 -0.06630141
v -0.23340596 -0.00984537 -0.06824333
v -0.23306078 -0.00770081 -0.06459612
v -0.23431204 -0.00628250 -0.06341310
v -0.23694746 -0.00373771 -0.06079454
v -0.23325421 -0.00493620 -0.06037384
v -0.23526016 -0.00284877 -0.05855327
v -0.23185557 -0.00336007 -0.05660864
v -0.23412034 -0.00216457 -0.05651900
v -0.23691972 0.00057602 -0.05337410
v -0.23274028 -0.00060085 -0.05296165
v -0.23470783 0.00145910 -0.05121522
v -0.23140380 0.00086753 -0.04981601
v -0.23267049 0.00218575 -0.04865252
v -0.23255773 -0.01571384 -0.07676589
v 0.23569794 0.12574798 -0.06689005
v 0.23554184 0.12245819 -0.05363168
v 0.23533252 0.12594326 -0.06897233
v -0.23844349 0.13076746 -0.07810993
v -0.23608328 0.13055980 -0.07814615
v -0.24103807 0.13061520 -0.07906179
v -0.23967083 0.13028061 -0.07674877
v -0.23606588 0.13009989 -0.07621039
v -0.23953798 0.12937051 -0.07279869
v -0.23602256 0.12931335 -0.07292935
v -0.23948294 0.12833777 -0.06889600
v -0.23596066 0.12828259 -0.06904492
v -0.23942149 0.12720634 -0.06496854
v -0.23579557 0.12703803 -0.06491964
v -0.23685904 0.12667251 -0.06280359
v -0.23814969 0.12677006 -0.06274629
v -0.24063542 0.12663369 -0.06360491
v -0.23949371 0.12628514 -0.06136937
v -0.23586491 0.12614253 -0.06150753
v -0.23615269 0.12528548 -0.05756939
v -0.23973820 0.12537104 -0.05749767
v -0.23992679 0.12436945 -0.05366511
v -0.23622827 0.12430778 -0.05366900
v -0.23591509 0.12316437 -0.04941670
v -0.24018566 0.12320851 -0.04956820
v -0.23705189 0.12272358 -0.04698531
v -0.23904879 0.12274195 -0.04697770
v -0.23597859 0.12231660 -0.04585245
v -0.24034408 0.12223810 -0.04577900
v -0.23439221 0.12253904 -0.04790431
v -0.24160734 0.12254601 -0.04812752
v -0.24183579 0.12699665 -0.06609438
v -0.23424414 0.13025308 -0.07856508
v -0.23456360 0.12630306 -0.06351418
v -0.24246006 0.12293016 -0.05074259
v -0.23374069 0.12283822 -0.05046279
v -0.24259183 0.12741300 -0.06876796
v -0.24347222 0.12505440 -0.06112443
v -0.24390614 0.12384413 -0.05730880
v -0.24302927 0.12337360 -0.05361375
v -0.24351482 0.12910616 -0.07663357
v -0.24373016 0.12789650 -0.07255993
v -0.24408931 0.12100062 -0.04580768
v -0.24327807 0.12607083 -0.06483110
v -0.23342840 0.12652542 -0.06609381
v -0.23163790 0.12086163 -0.04593500
v -0.23308752 0.12321112 -0.05362937
v -0.24354735 0.13010482 -0.08047862
v -0.24386573 0.12194540 -0.04952258
v -0.24462159 0.12646256 -0.06870063
v -0.23258573 0.12684764 -0.06912785
v -0.23196453 0.12439707 -0.06145216
v -0.23177688 0.12342881 -0.05792033
v -0.23247018 0.12889875 -0.07715147
v -0.23161411 0.12720881 -0.07276062
v -0.24524936 0.12673759 -0.07110979
v -0.23192945 0.12167480 -0.04932162
v -0.24502011 0.12232528 -0.05356305
v -0.23192029 0.12530515 -0.06500899
v -0.24549918 0.12263419 -0.05596588
v -0.24592070 0.12300327 -0.05842030
v -0.23063372 0.12184631 -0.05358144
v -0.22843443 0.11912809 -0.04575989
v -0.24575096 0.12708400 -0.07372680
v -0.23119718 0.12917256 -0.08080553
v -0.23026806 0.12949111 -0.08397406
v -0.23001039 0.12213142 -0.05681258
v -0.24629010 0.12340596 -0.06101239
v -0.24660181 0.11911633 -0.04404790
v -0.24623264 0.12748715 -0.07656295
v -0.24677557 0.12393983 -0.06477769
v -0.22836563 0.11956374 -0.04941820
v -0.22953232 0.12240604 -0.05943952
v -0.23025224 0.12540245 -0.06913622
v -0.22969785 0.12558158 -0.07128087
v -0.22926313 0.12264819 -0.06144310
v -0.24714024 0.11984109 -0.04960109
v -0.22928247 0.12596707 -0.07388795
v -0.22888544 0.12639335 -0.07692736
v -0.22876865 0.12311853 -0.06526105
v -0.24719478 0.12440681 -0.06863137
v -0.22826788 0.11993518 -0.05350656
v -0.24746053 0.12031826 -0.05346326
v -0.22844812 0.12690927 -0.08080944
v 0.23426326 0.12385859 -0.06526015
v 0.23414966 0.11999842 -0.04886456
v 0.23306312 0.12339146 -0.06878933
v 0.23371220 0.12042730 -0.05352553
v 0.23155059 0.12272403 -0.07390141
v -0.25017336 0.09728144 -0.04370550
v -0.25081170 0.10021158 -0.04920131
v -0.24965014 0.09813326 -0.04914941
v -0.25061801 0.10054065 -0.05187041
v -0.24934168 0.09898330 -0.05308034
v -0.25177914 0.10318448 -0.04921829
v -0.25123426 0.10258624 -0.05312953
v -0.24686529 0.09593182 -0.05293117
v -0.24633797 0.09634025 -0.05587039
v -0.24776694 0.09828380 -0.05705923
v -0.24745674 0.09543599 -0.04904102
v -0.25036603 0.10090279 -0.05475947
v -0.25211108 0.10356513 -0.04532335
v -0.25227624 0.10761791 -0.05308432
v -0.25216734 0.10732010 -0.05690261
v -0.25214744 0.11216000 -0.05690664
v -0.25230521 0.11177419 -0.06072281
v -0.25194833 0.10703595 -0.06074812
v -0.25110960 0.11592193 -0.05698039
v -0.25092348 0.10370836 -0.06075828
v -0.25190362 0.11246578 -0.05311693
v -0.25235134 0.11138862 -0.06461904
v -0.25160882 0.10677474 -0.06467012
v -0.25225672 0.11107361 -0.06856146
v -0.25104246 0.10627575 -0.06857262
v -0.25204015 0.11082298 -0.07247625
v -0.25038651 0.10428265 -0.06723209
v -0.25005817 0.10473852 -0.07086538
v -0.24888971 0.10270052 -0.06862843
v -0.24927396 0.10204192 -0.06472192
v -0.24637565 0.09983795 -0.06871281
v -0.24701288 0.09935983 -0.06471033
v -0.24980155 0.10166661 -0.06077150
v -0.24739480 0.10200519 -0.07244575
v -0.24724291 0.10275037 -0.07641904
v -0.24947160 0.10537833 -0.07640804
v -0.24670655 0.10317828 -0.08032537
v -0.25036243 0.10777296 -0.08033939
v -0.25175789 0.11060458 -0.07635811
v -0.25222477 0.11521114 -0.08034958
v -0.25220853 0.11547215 -0.07633778
v -0.25158402 0.12015842 -0.08040113
v -0.25105441 0.12065516 -0.07647376
v -0.25034302 0.12281034 -0.07787706
v -0.25001386 0.12208637 -0.07296562
v -0.25104657 0.11981612 -0.07246844
v -0.25086626 0.11942419 -0.06856003
v -0.24887887 0.12441997 -0.07654773
v -0.24729335 0.12511854 -0.07243618
v -0.24575096 0.12708400 -0.07372680
v -0.24524936 0.12673759 -0.07110979
v -0.24623264 0.12748715 -0.07656295
v -0.24963057 0.12159345 -0.06856848
v -0.25063094 0.11902551 -0.06465905
v -0.24922720 0.12112123 -0.06469095
v -0.24677557 0.12393983 -0.06477769
v -0.24629010 0.12340596 -0.06101239
v -0.24899173 0.12035669 -0.06097713
v -0.24592070 0.12300327 -0.05842030
v -0.24749669 0.12105323 -0.05715192
v -0.25016600 0.11807764 -0.05762467
v -0.24549918 0.12263419 -0.05596588
v -0.24746053 0.12031826 -0.05346326
v -0.24719478 0.12440681 -0.06863137
v -0.24917075 0.12528744 -0.08049807
v -0.25046131 0.11875612 -0.06224335
v -0.25067824 0.10741724 -0.07639579
v -0.25211400 0.11568811 -0.07244704
v -0.25091222 0.11557437 -0.05320201
v -0.25061160 0.10405710 -0.06469597
v -0.25164971 0.11612740 -0.06462108
v -0.25231764 0.10794857 -0.04921807
v -0.25228244 0.10827062 -0.04532656
v -0.25116318 0.10331184 -0.05690647
v -0.25093552 0.10703474 -0.07253680
v -0.24753618 0.09892870 -0.06073418
v -0.25159785 0.11268243 -0.04926734
v -0.24979427 0.11756506 -0.05331457
v -0.24714024 0.11984109 -0.04960109
v -0.24940871 0.11716169 -0.04945008
v -0.24660181 0.11911633 -0.04404790
v -0.25042352 0.11498896 -0.04603331
v -0.25066349 0.11524975 -0.04934024
v -0.25113860 0.11667319 -0.06086589
v -0.25194970 0.11588638 -0.06853940
v -0.25204015 0.11082298 -0.07247625
v -0.25211400 0.11568811 -0.07244704
v -0.25220853 0.11547215 -0.07633778
v -0.25175789 0.11060458 -0.07635811
v -0.25093552 0.10703474 -0.07253680
v -0.25042352 0.11498896 -0.04603331
v -0.25066349 0.11524975 -0.04934024
v -0.25159785 0.11268243 -0.04926734
v -0.25036603 0.10090279 -0.05475947
v -0.25116318 0.10331184 -0.05690647
v -0.25092348 0.10370836 -0.06075828
v -0.24980155 0.10166661 -0.06077150
v -0.24753618 0.09892870 -0.06073418
v -0.25061160 0.10405710 -0.06469597
v -0.25091222 0.11557437 -0.05320201
v -0.25016600 0.11807764 -0.05762467
v -0.25110960 0.11592193 -0.05698039
v -0.25113860 0.11667319 -0.06086589
v -0.24979427 0.11756506 -0.05331457
v -0.25066349 0.11524975 -0.04934024
vt 0.01326941 0.42708170
vt 0.01402756 0.42374849
vt 0.01329081 0.41912317
vt 0.01346579 0.41583252
vt 0.01244343 0.43027818
vt 0.01197587 0.42872691
vt 0.01279743 0.42243707
vt 0.01213972 0.42588973
vt 0.01179994 0.42360008
vt 0.01190256 0.42065585
vt 0.01073987 0.43030953
vt 0.01249293 0.41471374
vt 0.01135079 0.42694277
vt 0.01189416 0.41801327
vt 0.01149574 0.41582829
vt 0.01028604 0.42549610
vt 0.01112836 0.41106021
vt 0.01135804 0.41336536
vt 0.01038271 0.41446412
vt 0.01102997 0.41898865
vt 0.01059700 0.42215323
vt 0.00992208 0.41761923
vt 0.00998979 0.42896116
vt 0.00965441 0.42071080
vt 0.00946902 0.41313171
vt 0.00965397 0.42429650
vt 0.68973559 0.36178708
vt 0.69023043 0.36336720
vt 0.69202596 0.36231136
vt 0.69152629 0.36399394
vt 0.69440031 0.36268073
vt 0.69371551 0.36520600
vt 0.69674522 0.36310470
vt 0.69604349 0.36546791
vt 0.69799519 0.36416256
vt 0.69771624 0.36249900
vt 0.69903648 0.36354280
vt 0.69941783 0.36515093
vt 0.70153105 0.36397558
vt 0.70100141 0.36592799
vt 0.70387781 0.36442578
vt 0.70422077 0.36227763
vt 0.70561439 0.36479712
vt 0.70579219 0.36255848
vt 0.70679331 0.36502945
vt 0.70700353 0.36631155
vt 0.70856023 0.36535573
vt 0.70698315 0.36275816
vt 0.70890898 0.36309803
vt 0.71078438 0.36577410
vt 0.70815712 0.36689150
vt 0.71106941 0.36349177
vt 0.70188612 0.36182773
vt 0.69939160 0.36130917
vt 0.70303434 0.36692566
vt 0.70581454 0.36701119
vt 0.69839865 0.36583692
vt 0.69112873 0.36524093
vt 0.69268680 0.36600971
vt 0.70060337 0.36713290
vt 0.70777571 0.36800921
vt 0.69716376 0.36090267
vt 0.69482112 0.36060929
vt 0.69786680 0.36166900
vt 0.69244725 0.36026615
vt 0.68998301 0.36003172
vt 0.70184767 0.36771619
vt 0.70917356 0.36871707
vt 0.69410056 0.36661607
vt 0.69545877 0.36710989
vt 0.70328188 0.36828017
vt 0.68825787 0.36624050
vt 0.70493507 0.36888170
vt 0.70751834 0.36153007
vt 0.70903295 0.36133385
vt 0.69860399 0.36042225
vt 0.68923903 0.35938621
vt 0.70066482 0.36009002
vt 0.69094968 0.35884392
vt 0.69772410 0.36792076
vt 0.70666969 0.36053228
vt 0.70414031 0.35978532
vt 0.69257158 0.35863638
vt 0.69725597 0.35861135
vt 0.69516820 0.35816467
vt 0.69019270 0.35774446
vt 0.70711523 0.36964512
vt 0.69048887 0.36701298
vt 0.70904481 0.36007082
vt 0.69946223 0.35905981
vt 0.71129948 0.35981518
vt 0.69996548 0.36870283
vt 0.69261479 0.35725576
vt 0.69455463 0.35706592
vt 0.68839157 0.35569191
vt 0.70320642 0.35857284
vt 0.70184165 0.35865259
vt 0.69671118 0.35699588
vt 0.70479983 0.35858691
vt 0.69024950 0.35570633
vt 0.70649135 0.35856938
vt 0.69284546 0.36754775
vt 0.69947916 0.35709333
vt 0.70210052 0.36925256
vt 0.69469458 0.36906219
vt 0.69260061 0.35573053
vt 0.70171404 0.35717607
vt 0.06709640 0.29427528
vt 0.06415299 0.29279494
vt 0.06648879 0.29212749
vt 0.06591684 0.29004276
vt 0.06898177 0.29153645
vt 0.06869803 0.28935701
vt 0.06784272 0.28732866
vt 0.06534238 0.28795892
vt 0.06718238 0.28533196
vt 0.06478276 0.28615493
vt 0.06515390 0.28310728
vt 0.06632327 0.28327608
vt 0.06778665 0.28308380
vt 0.06719570 0.28219795
vt 0.06563188 0.28167963
vt 0.06860045 0.28498220
vt 0.06934598 0.28795403
vt 0.06363817 0.29086256
vt 0.06812752 0.28104055
vt 0.06761313 0.27886224
vt 0.06480417 0.27956384
vt 0.06671215 0.27634656
vt 0.06946378 0.27575272
vt 0.06883177 0.27408391
vt 0.06390391 0.27702451
vt 0.06333830 0.27516973
vt 0.06947859 0.29370546
vt 0.06365357 0.28744698
vt 0.06928261 0.28272104
vt 0.07040524 0.27822244
vt 0.06384294 0.28395635
vt 0.07112621 0.28016651
vt 0.07008680 0.28464323
vt 0.07018843 0.29101050
vt 0.06319049 0.29537874
vt 0.06298029 0.29318404
vt 0.07117744 0.27349102
vt 0.07062004 0.28670275
vt 0.06303081 0.28216922
vt 0.06219649 0.28022623
vt 0.07086861 0.28887528
vt 0.07183058 0.28214234
vt 0.07254758 0.28412873
vt 0.07220142 0.27523214
vt 0.06283066 0.29177582
vt 0.07186016 0.29090893
vt 0.06080824 0.27574086
vt 0.06125819 0.27770215
vt 0.07260077 0.29301763
vt 0.07332426 0.28616756
vt 0.07353705 0.27753061
vt 0.07426018 0.28807724
vt 0.07430936 0.27483201
vt 0.07474021 0.27659303
vt 0.07438954 0.29040408
vt 0.07375125 0.27962863
vt 0.07419390 0.28167319
vt 0.07478453 0.29257667
vt 0.07463754 0.28374791
vt 0.07511487 0.27786791
vt 0.07510955 0.28586829
vt 0.07538058 0.28706598
vt 0.07551248 0.27931380
vt 0.07576737 0.28847879
vt 0.07636064 0.27707422
vt 0.05826281 0.27617204
vt 0.07611636 0.28135002
vt 0.06233076 0.28679073
vt 0.06109430 0.28474832
vt 0.06261403 0.28873038
vt 0.05977883 0.28274977
vt 0.06202238 0.29568064
vt 0.05905673 0.27827662
vt 0.05955559 0.28081524
vt 0.06162620 0.29197407
vt 0.06011976 0.28933883
vt 0.05902860 0.28751349
vt 0.05884482 0.28521240
vt 0.05825884 0.28275901
vt 0.05900916 0.29411030
vt 0.05853082 0.29197240
vt 0.41842923 0.25418353
vt 0.41822693 0.25327253
vt 0.42071816 0.25390244
vt 0.42029577 0.25251752
vt 0.42299509 0.25360334
vt 0.42246109 0.25186759
vt 0.42526743 0.25322425
vt 0.42565686 0.25448191
vt 0.42738387 0.25415647
vt 0.42753533 0.25299811
vt 0.43019783 0.25385690
vt 0.42966354 0.25207520
vt 0.43236485 0.25338686
vt 0.43175995 0.25133216
vt 0.43386000 0.25057256
vt 0.42464095 0.25119281
vt 0.42191690 0.25508642
vt 0.43069497 0.25510687
vt 0.43481532 0.25390089
vt 0.43449622 0.25279009
vt 0.43686301 0.25340486
vt 0.43663800 0.25238848
vt 0.43965861 0.25267911
vt 0.43895862 0.25141847
vt 0.44164187 0.25085890
vt 0.43967131 0.25387681
vt 0.44235986 0.25273609
vt 0.42690828 0.25017309
vt 0.43718013 0.25428677
vt 0.43518242 0.25519693
vt 0.43578959 0.24970865
vt 0.42903358 0.24989480
vt 0.41939098 0.24994904
vt 0.43835431 0.24946523
vt 0.44309595 0.25144994
vt 0.43124357 0.24947447
vt 0.42190644 0.24983418
vt 0.43314621 0.25605309
vt 0.41883761 0.25523949
vt 0.42819655 0.25516653
vt 0.42610270 0.25592053
vt 0.44068882 0.24901605
vt 0.42417029 0.24945140
vt 0.43345222 0.24904478
vt 0.44277716 0.24863178
vt 0.42391506 0.25655174
vt 0.42594707 0.24914747
vt 0.43460435 0.24880677
vt 0.44028899 0.25615460
vt 0.44296268 0.25533241
vt 0.44518524 0.25470942
vt 0.43805674 0.25692880
vt 0.42173752 0.25715172
vt 0.43082812 0.25717044
vt 0.42665681 0.25768971
vt 0.41981539 0.25776184
vt 0.43602997 0.25769448
vt 0.43321836 0.25777936
vt 0.41514093 0.25811124
vt 0.42437753 0.25800681
vt 0.42131951 0.25849855
vt 0.44332707 0.25824869
vt 0.44575846 0.25701225
vt 0.44086879 0.25842690
vt 0.43852583 0.25864947
vt 0.42965385 0.25847048
vt 0.43694976 0.25887704
vt 0.41759586 0.25892830
vt 0.42700079 0.25876516
vt 0.44438946 0.25940073
vt 0.44235903 0.25964105
vt 0.44118512 0.25965881
vt 0.43399447 0.25895751
vt 0.43156689 0.25913256
vt 0.42472851 0.25907826
vt 0.43885815 0.25983024
vt 0.42969117 0.25983489
vt 0.42248058 0.25944960
vt 0.42043278 0.25967467
vt 0.43669403 0.25998580
vt 0.42754179 0.26043034
vt 0.44378436 0.26045191
vt 0.44596878 0.26057184
vt 0.41812989 0.26055753
vt 0.43456146 0.26087719
vt 0.43249220 0.26152718
vt 0.42537245 0.26106000
vt 0.42312205 0.26203507
vt 0.44163403 0.26119292
vt 0.43063542 0.26223361
vt 0.44457415 0.26252073
vt 0.42100176 0.26223814
vt 0.43724668 0.26229990
vt 0.43945459 0.26217043
vt 0.42815286 0.26242304
vt 0.43506265 0.26257235
vt 0.42589927 0.26281595
vt 0.44216770 0.26297337
vt 0.44051397 0.26322448
vt 0.43236822 0.26292408
vt 0.42412078 0.26312649
vt 0.44710082 0.26356494
vt 0.43895596 0.26345038
vt 0.42747077 0.24886250
vt 0.43030897 0.26336920
vt 0.44491398 0.26414222
vt 0.43610314 0.24841595
vt 0.42869934 0.24848729
vt 0.25223619 0.20067805
vt 0.25189516 0.19877338
vt 0.25046977 0.19951963
vt 0.25035086 0.19843155
vt 0.24844244 0.19920009
vt 0.24900676 0.20161450
vt 0.24713092 0.20012420
vt 0.24695989 0.19882280
vt 0.24582200 0.19851053
vt 0.24514171 0.19956088
vt 0.24350078 0.19909418
vt 0.24401902 0.20124757
vt 0.24221125 0.19983625
vt 0.24202183 0.19866544
vt 0.24008235 0.19925398
vt 0.24091873 0.20196664
vt 0.23908503 0.20075703
vt 0.23881401 0.19891495
vt 0.23735790 0.19962001
vt 0.23727196 0.19853771
vt 0.23542798 0.19933569
vt 0.23589754 0.20161301
vt 0.24070351 0.19828439
vt 0.23409468 0.20018244
vt 0.23393331 0.19895923
vt 0.23192041 0.19956696
vt 0.23255509 0.19852263
vt 0.23048858 0.19912076
vt 0.23087929 0.20118868
vt 0.22907168 0.19983852
vt 0.22894216 0.19865459
vt 0.22647870 0.19917184
vt 0.24583228 0.20244652
vt 0.22760709 0.20203698
vt 0.22552022 0.20068258
vt 0.22422358 0.19823825
vt 0.22340815 0.19955289
vt 0.22715357 0.19803858
vt 0.23273373 0.20248914
vt 0.23532946 0.19815427
vt 0.24836586 0.19811571
vt 0.24339540 0.19792628
vt 0.22214995 0.19936192
vt 0.23025861 0.19775653
vt 0.23858324 0.19756913
vt 0.22497137 0.19665056
vt 0.22343883 0.19608921
vt 0.23357567 0.19655061
vt 0.22624658 0.19569212
vt 0.22836386 0.19609356
vt 0.23116617 0.19577128
vt 0.23682708 0.19597715
vt 0.23496284 0.19562638
vt 0.24170360 0.19637996
vt 0.22988078 0.19525349
vt 0.24670547 0.19663262
vt 0.24449642 0.19600731
vt 0.24958926 0.19613600
vt 0.23939873 0.19569832
vt 0.24801703 0.19559842
vt 0.22480416 0.19509935
vt 0.24301021 0.19547635
vt 0.23823465 0.19525945
vt 0.24655510 0.19490683
vt 0.23339835 0.19485354
vt 0.24155907 0.19471890
vt 0.22830990 0.19438648
vt 0.23673867 0.19433755
vt 0.24515422 0.19391006
vt 0.24007122 0.19378155
vt 0.25086588 0.20276809
vt 0.24956140 0.20474517
vt 0.24768507 0.20361608
vt 0.24652226 0.20538062
vt 0.24463212 0.20425129
vt 0.24276359 0.20313066
vt 0.24152455 0.20498478
vt 0.23962687 0.20390093
vt 0.23836181 0.20585549
vt 0.23645888 0.20478380
vt 0.23775157 0.20279127
vt 0.23456837 0.20368457
vt 0.23325554 0.20594752
vt 0.23137590 0.20460433
vt 0.22949041 0.20335507
vt 0.22821824 0.20534778
vt 0.22633551 0.20410645
vt 0.22427268 0.20279771
vt 0.22310017 0.20499527
vt 0.22105995 0.20378542
vt 0.22004522 0.20627773
vt 0.22507186 0.20630288
vt 0.22220005 0.20676655
vt 0.22221124 0.20158845
vt 0.22105414 0.20106870
vt 0.21853626 0.20513165
vt 0.22379640 0.20709878
vt 0.37675607 0.14189309
vt 0.37994385 0.14110172
vt 0.37980020 0.13979465
vt 0.38128659 0.14035648
vt 0.38183585 0.14267802
vt 0.38348350 0.14090687
vt 0.38515848 0.14205176
vt 0.38498345 0.14043516
vt 0.38608870 0.14085501
vt 0.38699403 0.14328784
vt 0.38344932 0.13987637
vt 0.37858438 0.14317399
vt 0.38827768 0.14168745
vt 0.38904083 0.14071083
vt 0.39039454 0.14241600
vt 0.39155394 0.14166969
vt 0.39214337 0.14395225
vt 0.39374110 0.14222258
vt 0.39545414 0.14353728
vt 0.39364490 0.14124727
vt 0.39522761 0.14174652
vt 0.39652854 0.14219838
vt 0.39725661 0.14124411
vt 0.39877358 0.14289445
vt 0.39869735 0.14172488
vt 0.40016276 0.14222217
vt 0.39171886 0.14074695
vt 0.40007511 0.14110893
vt 0.40240771 0.14176571
vt 0.40174258 0.14271247
vt 0.40386033 0.14342028
vt 0.38683355 0.13981783
vt 0.40358445 0.14210701
vt 0.40525424 0.14263040
vt 0.40514019 0.14165604
vt 0.40700999 0.14200008
vt 0.40828925 0.14107853
vt 0.40670773 0.14301759
vt 0.38125911 0.13925624
vt 0.39506689 0.14049625
vt 0.38996604 0.13937390
vt 0.39325979 0.13867462
vt 0.40335184 0.14000165
vt 0.40470508 0.13913220
vt 0.40139925 0.13919401
vt 0.40688792 0.13986415
vt 0.39834440 0.13933200
vt 0.39624283 0.13852876
vt 0.38825431 0.13796955
vt 0.38480762 0.13863343
vt 0.38618296 0.13739645
vt 0.40839162 0.13935310
vt 0.39095923 0.13786143
vt 0.39969161 0.13847923
vt 0.38263276 0.13744646
vt 0.39466694 0.13790011
vt 0.38972658 0.13733923
vt 0.40924281 0.13976467
vt 0.38465390 0.13665730
vt 0.40323868 0.13844466
vt 0.39822158 0.13780802
vt 0.39320391 0.13712287
vt 0.38636923 0.13559157
vt 0.38808826 0.13448954
vt 0.38936448 0.13564330
vt 0.39153501 0.13410354
vt 0.39174074 0.13606548
vt 0.39294520 0.13526702
vt 0.39645022 0.13444400
vt 0.39445478 0.13627422
vt 0.39692447 0.13665193
vt 0.39801693 0.13598537
vt 0.40022728 0.13466519
vt 0.39988828 0.13674194
vt 0.40153351 0.13569397
vt 0.40217680 0.13773870
vt 0.40269968 0.13644195
vt 0.40523112 0.13505858
vt 0.40489236 0.13738859
vt 0.40648454 0.13634235
vt 0.40686089 0.13826823
vt 0.40790203 0.13758868
vt 0.38828209 0.13635665
vt 0.37455079 0.22160298
vt 0.38235068 0.22157025
vt 0.37337020 0.22188157
vt 0.35432354 0.48376572
vt 0.35432947 0.48246825
vt 0.35379708 0.48520339
vt 0.35520557 0.48443401
vt 0.35554090 0.48245412
vt 0.35765949 0.48434532
vt 0.35758469 0.48243368
vt 0.36009121 0.48430753
vt 0.36000627 0.48239648
vt 0.36255571 0.48426902
vt 0.36260319 0.48229235
vt 0.36389881 0.48287225
vt 0.36391932 0.48357391
vt 0.36344251 0.48493767
vt 0.36480138 0.48430240
vt 0.36473763 0.48232150
vt 0.36716518 0.48248523
vt 0.36719552 0.48442435
vt 0.36956725 0.48452532
vt 0.36957765 0.48252821
vt 0.37221861 0.48236483
vt 0.37211737 0.48467278
vt 0.37369704 0.48298377
vt 0.37369376 0.48405951
vt 0.37441954 0.48240137
vt 0.37446436 0.48476672
vt 0.37318957 0.48153698
vt 0.37304917 0.48545909
vt 0.36193785 0.48561192
vt 0.35412547 0.48143929
vt 0.36353528 0.48159331
vt 0.37147507 0.48593688
vt 0.37166202 0.48114812
vt 0.36031938 0.48605686
vt 0.36513335 0.48654747
vt 0.36753225 0.48680472
vt 0.36974537 0.48627454
vt 0.35546753 0.48662108
vt 0.35803765 0.48674184
vt 0.37461486 0.48689085
vt 0.36282054 0.48645049
vt 0.36199751 0.48093379
vt 0.37457585 0.47993183
vt 0.36976591 0.48073816
vt 0.35305825 0.48666120
vt 0.37232479 0.48677444
vt 0.36051130 0.48726058
vt 0.36018035 0.48041129
vt 0.36503083 0.48001128
vt 0.36723366 0.47990561
vt 0.35516649 0.48034197
vt 0.35800216 0.47979820
vt 0.35906881 0.48765659
vt 0.37249121 0.48006672
vt 0.36992648 0.48747498
vt 0.36281836 0.47998035
vt 0.36849073 0.48777443
vt 0.36701658 0.48804212
vt 0.36998886 0.47923470
vt 0.37491927 0.47799450
vt 0.35749200 0.48799348
vt 0.35297978 0.47955251
vt 0.35106921 0.47897363
vt 0.36806762 0.47881192
vt 0.36545539 0.48829031
vt 0.37589315 0.48844337
vt 0.35577643 0.48832536
vt 0.36318949 0.48864609
vt 0.37273011 0.47784579
vt 0.36650187 0.47848403
vt 0.36039892 0.47893333
vt 0.35911906 0.47856772
vt 0.36530268 0.47828323
vt 0.37257588 0.48885608
vt 0.35753644 0.47828877
vt 0.35569173 0.47799486
vt 0.36301014 0.47790068
vt 0.36087981 0.48901522
vt 0.37029266 0.47761762
vt 0.37027290 0.48914528
vt 0.35333732 0.47763121
vt 0.37575367 0.22262156
vt 0.38526577 0.22256625
vt 0.37388390 0.22359407
vt 0.38266182 0.22293049
vt 0.37115738 0.22492170
vt 0.55835503 0.27379817
vt 0.56028736 0.27097857
vt 0.56098050 0.27207363
vt 0.56158173 0.27015781
vt 0.56281102 0.27072001
vt 0.55938727 0.26953602
vt 0.56160164 0.26884472
vt 0.56398398 0.27251339
vt 0.56547695 0.27165830
vt 0.56529915 0.27024317
vt 0.56202847 0.27365410
vt 0.56298774 0.26927328
vt 0.55726540 0.27034426
vt 0.56011182 0.26647890
vt 0.56215841 0.26564014
vt 0.56078970 0.26339447
vt 0.56286126 0.26259708
vt 0.56422102 0.26479387
vt 0.55970776 0.26157272
vt 0.56522995 0.26639712
vt 0.55874890 0.26421690
vt 0.56497067 0.26177663
vt 0.56632715 0.26392752
vt 0.56708592 0.26091444
vt 0.56851381 0.26319653
vt 0.56917453 0.26003480
vt 0.56844580 0.26451373
vt 0.57021755 0.26340365
vt 0.56982541 0.26508474
vt 0.56794602 0.26633549
vt 0.57108092 0.26675445
vt 0.56905228 0.26790202
vt 0.56595331 0.26745725
vt 0.57221490 0.26464224
vt 0.57404953 0.26328337
vt 0.57295239 0.26175070
vt 0.57601404 0.26215798
vt 0.57417351 0.25952590
vt 0.57122254 0.25914776
vt 0.57194763 0.25597727
vt 0.56981748 0.25689101
vt 0.57054919 0.25365651
vt 0.56835818 0.25440568
vt 0.56840384 0.25299317
vt 0.56605995 0.25456321
vt 0.56655312 0.25583434
vt 0.56465560 0.25701821
vt 0.56705928 0.25240147
vt 0.56450182 0.25290364
vt 0.56434482 0.25142121
vt 0.56299698 0.25215894
vt 0.56578094 0.25059307
vt 0.56390393 0.25588357
vt 0.56275481 0.25819445
vt 0.56199521 0.25704795
vt 0.56085330 0.25535893
vt 0.55898803 0.25649321
vt 0.56026566 0.25831652
vt 0.55770004 0.25727808
vt 0.55787146 0.25875807
vt 0.55937481 0.26040184
vt 0.55645561 0.25799596
vt 0.55620557 0.26006413
vt 0.56275904 0.25421333
vt 0.56889415 0.25103581
vt 0.56157774 0.25892693
vt 0.57222617 0.26068145
vt 0.56777877 0.25779229
vt 0.55784899 0.26268810
vt 0.56718618 0.26525223
vt 0.56362206 0.25958598
vt 0.55803031 0.26731503
vt 0.55593854 0.26815748
vt 0.56334096 0.26754653
vt 0.57033932 0.26183468
vt 0.56704092 0.26903713
vt 0.55669934 0.26508307
vt 0.55727535 0.26171303
vt 0.55433106 0.26124883
vt 0.55536848 0.26285470
vt 0.55162299 0.26294649
vt 0.55438972 0.26487851
vt 0.55597931 0.26386142
vt 0.56151670 0.26026404
vt 0.56571066 0.25870740
vt 0.95725036 0.98019588
vt 0.95721620 0.97746915
vt 0.95451438 0.97762442
vt 0.95454943 0.98036385
vt 0.95721620 0.98240739
vt 0.38203070 0.33561945
vt 0.38406292 0.33549380
vt 0.38402984 0.33734572
vt 0.29651162 0.23055553
vt 0.29851755 0.23081684
vt 0.29991156 0.23250771
vt 0.29872099 0.23319381
vt 0.29691899 0.23425925
vt 0.30129960 0.23425925
vt 0.31303585 0.97540879
vt 0.31488493 0.97293264
vt 0.31292748 0.97339207
vt 0.31318375 0.97129631
vt 0.31497949 0.97524542
vt 0.31318375 0.97746915
f 171/171 159/159 162/162
f 167/167 158/158 163/163
f 170/170 163/163 164/164
f 174/174 164/164 166/166
f 160/160 161/161 172/172
f 135/135 117/117 138/138
f 175/175 135/135 138/138
f 113/113 112/112 141/141
f 141/141 112/112 134/134
f 122/122 121/121 126/126
f 121/121 120/120 136/136
f 126/126 121/121 136/136
f 136/136 120/120 123/123
f 136/136 123/123 140/140
f 140/140 123/123 124/124
f 140/140 124/124 145/145
f 145/145 124/124 148/148
f 197/197 228/228 229/229
f 197/197 229/229 196/196
f 196/196 229/229 234/234
f 196/196 234/234 205/205
f 234/234 241/241 205/205
f 241/241 244/244 227/227
f 205/205 241/241 227/227
f 244/244 249/249 256/256
f 244/244 256/256 247/247
f 209/209 217/217 218/218
f 209/209 218/218 207/207
f 207/207 218/218 226/226
f 207/207 226/226 206/206
f 226/226 242/242 206/206
f 206/206 242/242 228/228
f 228/228 242/242 243/243
f 228/228 243/243 229/229
f 254/254 257/257 243/243
f 242/242 254/254 243/243
f 243/243 248/248 234/234
f 229/229 243/243 234/234
f 257/257 263/263 248/248
f 243/243 257/257 248/248
f 234/234 248/248 249/249
f 234/234 249/249 241/241
f 263/263 266/266 249/249
f 248/248 263/263 249/249
f 241/241 249/249 244/244
f 266/266 267/267 249/249
f 239/239 238/238 215/215
f 215/215 238/238 237/237
f 215/215 237/237 214/214
f 214/214 237/237 240/240
f 214/214 240/240 217/217
f 240/240 245/245 218/218
f 217/217 240/240 218/218
f 245/245 246/246 226/226
f 218/218 245/245 226/226
f 255/255 261/261 246/246
f 245/245 255/255 246/246
f 226/226 246/246 242/242
f 261/261 262/262 246/246
f 239/239 250/250 238/238
f 238/238 250/250 252/252
f 238/238 252/252 237/237
f 250/250 259/259 260/260
f 250/250 260/260 252/252
f 252/252 253/253 240/240
f 237/237 252/252 240/240
f 260/260 264/264 253/253
f 252/252 260/260 253/253
f 253/253 255/255 245/245
f 240/240 253/253 245/245
f 264/264 268/268 255/255
f 253/253 264/264 255/255
f 251/251 258/258 250/250
f 271/271 270/270 258/258
f 431/431 424/424 427/427
f 392/392 386/386 387/387
f 387/387 386/386 385/385
f 387/387 385/385 389/389
f 385/385 388/388 393/393
f 389/389 385/385 393/393
f 391/391 390/390 386/386
f 386/386 390/390 384/384
f 386/386 384/384 385/385
f 385/385 384/384 383/383
f 385/385 383/383 388/388
f 388/388 383/383 382/382
f 417/417 412/412 415/415
f 415/415 412/412 411/411
f 415/415 411/411 414/414
f 391/391 333/333 390/390
f 333/333 331/331 384/384
f 390/390 333/333 384/384
f 384/384 331/331 330/330
f 384/384 330/330 383/383
f 383/383 330/330 381/381
f 383/383 381/381 382/382
f 382/382 381/381 380/380
f 412/412 410/410 411/411
f 410/410 408/408 409/409
f 411/411 410/410 409/409
f 339/339 332/332 333/333
f 343/343 342/342 332/332
f 332/332 328/328 331/331
f 333/333 332/332 331/331
f 332/332 342/342 334/334
f 332/332 334/334 328/328
f 328/328 326/326 330/330
f 331/331 328/328 330/330
f 328/328 334/334 327/327
f 328/328 327/327 326/326
f 330/330 326/326 325/325
f 330/330 325/325 381/381
f 381/381 325/325 335/335
f 381/381 335/335 380/380
f 380/380 335/335 378/378
f 380/380 378/378 379/379
f 379/379 378/378 376/376
f 408/408 403/403 406/406
f 403/403 400/400 402/402
f 406/406 403/403 402/402
f 400/400 399/399 401/401
f 402/402 400/400 401/401
f 324/324 322/322 325/325
f 326/326 324/324 325/325
f 327/327 340/340 324/324
f 326/326 327/327 324/324
f 324/324 340/340 323/323
f 324/324 323/323 322/322
f 322/322 320/320 335/335
f 325/325 322/322 335/335
f 322/322 323/323 321/321
f 322/322 321/321 320/320
f 335/335 320/320 318/318
f 335/335 318/318 378/378
f 378/378 318/318 377/377
f 378/378 377/377 376/376
f 376/376 377/377 374/374
f 376/376 374/374 375/375
f 375/375 374/374 373/373
f 400/400 398/398 399/399
f 398/398 395/395 397/397
f 399/399 398/398 397/397
f 317/317 315/315 318/318
f 320/320 317/317 318/318
f 321/321 336/336 317/317
f 320/320 321/321 317/317
f 317/317 336/336 316/316
f 317/317 316/316 315/315
f 318/318 315/315 313/313
f 318/318 313/313 377/377
f 377/377 313/313 312/312
f 377/377 312/312 374/374
f 374/374 312/312 372/372
f 374/374 372/372 373/373
f 373/373 372/372 371/371
f 398/398 405/405 395/395
f 395/395 405/405 394/394
f 314/314 311/311 313/313
f 315/315 314/314 313/313
f 316/316 341/341 314/314
f 315/315 316/316 314/314
f 314/314 341/341 319/319
f 314/314 319/319 311/311
f 311/311 309/309 312/312
f 313/313 311/311 312/312
f 311/311 319/319 310/310
f 311/311 310/310 309/309
f 312/312 309/309 308/308
f 312/312 308/308 372/372
f 372/372 308/308 329/329
f 372/372 329/329 371/371
f 371/371 329/329 369/369
f 371/371 369/369 370/370
f 370/370 369/369 368/368
f 307/307 306/306 308/308
f 309/309 307/307 308/308
f 310/310 338/338 307/307
f 309/309 310/310 307/307
f 307/307 338/338 305/305
f 307/307 305/305 306/306
f 308/308 306/306 303/303
f 308/308 303/303 329/329
f 305/305 304/304 303/303
f 306/306 305/305 303/303
f 329/329 303/303 302/302
f 329/329 302/302 369/369
f 369/369 302/302 367/367
f 369/369 367/367 368/368
f 301/301 299/299 302/302
f 303/303 301/301 302/302
f 304/304 337/337 301/301
f 303/303 304/304 301/301
f 301/301 337/337 300/300
f 301/301 300/300 299/299
f 302/302 299/299 297/297
f 302/302 297/297 367/367
f 299/299 300/300 298/298
f 235/235 216/216 204/204
f 235/235 204/204 231/231
f 554/554 531/531 551/551
f 235/235 292/292 216/216
f 231/231 204/204 194/194
f 231/231 194/194 225/225
f 225/225 194/194 192/192
f 225/225 192/192 221/221
f 236/236 219/219 203/203
f 236/236 203/203 232/232
f 549/549 529/529 543/543
f 236/236 295/295 219/219
f 232/232 203/203 202/202
f 232/232 202/202 224/224
f 224/224 202/202 200/200
f 224/224 200/200 220/220
f 220/220 200/200 198/198
f 220/220 198/198 216/216
f 216/216 198/198 195/195
f 216/216 195/195 204/204
f 195/195 193/193 194/194
f 204/204 195/195 194/194
f 193/193 191/191 192/192
f 194/194 193/193 192/192
f 192/192 191/191 190/190
f 233/233 213/213 230/230
f 230/230 213/213 212/212
f 230/230 212/212 222/222
f 222/222 212/212 210/210
f 222/222 210/210 219/219
f 219/219 210/210 208/208
f 219/219 208/208 203/203
f 203/203 208/208 201/201
f 203/203 201/201 202/202
f 201/201 199/199 200/200
f 202/202 201/201 200/200
f 199/199 197/197 198/198
f 200/200 199/199 198/198
f 213/213 211/211 212/212
f 211/211 209/209 210/210
f 212/212 211/211 210/210
f 267/267 272/272 256/256
f 249/249 267/267 256/256
f 262/262 265/265 254/254
f 265/265 269/269 257/257
f 254/254 265/265 257/257
f 269/269 275/275 263/263
f 257/257 269/269 263/263
f 263/263 275/275 276/276
f 263/263 276/276 266/266
f 266/266 280/280 267/267
f 268/268 273/273 261/261
f 255/255 268/268 261/261
f 261/261 273/273 274/274
f 261/261 274/274 262/262
f 262/262 274/274 278/278
f 262/262 278/278 265/265
f 265/265 278/278 283/283
f 265/265 283/283 269/269
f 94/94 93/93 106/106
f 278/278 293/293 283/283
f 269/269 283/283 285/285
f 269/269 285/285 275/275
f 93/93 86/86 100/100
f 106/106 93/93 100/100
f 275/275 285/285 289/289
f 100/100 86/86 95/95
f 270/270 277/277 260/260
f 259/259 270/270 260/260
f 277/277 282/282 264/264
f 260/260 277/277 264/264
f 264/264 282/282 281/281
f 264/264 281/281 268/268
f 96/96 97/97 107/107
f 282/282 291/291 281/281
f 268/268 281/281 284/284
f 268/268 284/284 273/273
f 97/97 90/90 103/103
f 107/107 97/97 103/103
f 273/273 284/284 288/288
f 273/273 288/288 274/274
f 90/90 84/84 98/98
f 103/103 90/90 98/98
f 274/274 288/288 278/278
f 84/84 85/85 98/98
f 271/271 279/279 270/270
f 290/290 294/294 279/279
f 279/279 286/286 277/277
f 270/270 279/279 277/277
f 89/89 81/81 101/101
f 279/279 294/294 286/286
f 277/277 286/286 287/287
f 277/277 287/287 282/282
f 81/81 82/82 99/99
f 101/101 81/81 99/99
f 430/430 439/439 445/445
f 430/430 428/428 439/439
f 428/428 436/436 437/437
f 439/439 428/428 437/437
f 428/428 426/426 422/422
f 428/428 422/422 436/436
f 422/422 421/421 438/438
f 436/436 422/422 438/438
f 421/421 440/440 447/447
f 438/438 421/421 447/447
f 421/421 418/418 416/416
f 421/421 416/416 440/440
f 416/416 433/433 441/441
f 440/440 416/416 441/441
f 433/433 435/435 449/449
f 441/441 433/433 449/449
f 413/413 420/420 435/435
f 433/433 413/413 435/435
f 420/420 434/434 446/446
f 435/435 420/420 446/446
f 434/434 442/442 450/450
f 446/446 434/434 450/450
f 420/420 409/409 407/407
f 420/420 407/407 434/434
f 407/407 425/425 442/442
f 434/434 407/407 442/442
f 425/425 443/443 444/444
f 442/442 425/425 444/444
f 343/343 357/357 342/342
f 404/404 432/432 448/448
f 443/443 404/404 448/448
f 345/345 346/346 334/334
f 342/342 345/345 334/334
f 11/11 6/6 23/23
f 342/342 357/357 345/345
f 23/23 6/6 13/13
f 345/345 363/363 346/346
f 346/346 340/340 327/327
f 334/334 346/346 327/327
f 351/351 347/347 340/340
f 346/346 351/351 340/340
f 13/13 8/8 16/16
f 346/346 363/363 351/351
f 16/16 8/8 9/9
f 16/16 9/9 26/26
f 347/347 344/344 323/323
f 340/340 347/347 323/323
f 26/26 9/9 21/21
f 347/347 361/361 344/344
f 344/344 336/336 321/321
f 323/323 344/344 321/321
f 349/349 348/348 336/336
f 344/344 349/349 336/336
f 21/21 10/10 24/24
f 344/344 361/361 349/349
f 24/24 10/10 20/20
f 349/349 364/364 348/348
f 348/348 341/341 316/316
f 336/336 348/348 316/316
f 359/359 355/355 341/341
f 348/348 359/359 341/341
f 20/20 14/14 22/22
f 348/348 364/364 359/359
f 22/22 14/14 15/15
f 359/359 366/366 355/355
f 355/355 350/350 319/319
f 341/341 355/355 319/319
f 355/355 366/366 362/362
f 355/355 362/362 350/350
f 350/350 338/338 310/310
f 319/319 350/350 310/310
f 358/358 353/353 338/338
f 350/350 358/358 338/338
f 19/19 18/18 25/25
f 350/350 362/362 358/358
f 25/25 18/18 17/17
f 358/358 365/365 353/353
f 353/353 352/352 305/305
f 338/338 353/353 305/305
f 353/353 365/365 360/360
f 353/353 360/360 352/352
f 305/305 352/352 337/337
f 305/305 337/337 304/304
f 352/352 356/356 337/337
f 352/352 360/360 356/356
f 337/337 354/354 300/300
f 509/509 530/530 541/541
f 509/509 484/484 530/530
f 521/521 535/535 550/550
f 521/521 550/550 527/527
f 521/521 490/490 510/510
f 521/521 510/510 535/535
f 527/527 550/550 551/551
f 527/527 551/551 531/531
f 512/512 533/533 538/538
f 512/512 538/538 523/523
f 512/512 500/500 506/506
f 512/512 506/506 533/533
f 523/523 538/538 543/543
f 523/523 543/543 529/529
f 76/76 62/62 84/84
f 90/90 76/76 84/84
f 62/62 63/63 85/85
f 84/84 62/62 85/85
f 94/94 85/85 83/83
f 94/94 83/83 93/93
f 63/63 65/65 83/83
f 85/85 63/63 83/83
f 93/93 83/83 79/79
f 93/93 79/79 86/86
f 65/65 66/66 79/79
f 83/83 65/65 79/79
f 44/44 42/42 82/82
f 81/81 44/44 82/82
f 96/96 82/82 78/78
f 96/96 78/78 97/97
f 42/42 53/53 78/78
f 82/82 42/42 78/78
f 97/97 78/78 90/90
f 53/53 54/54 78/78
f 91/91 75/75 89/89
f 52/52 49/49 75/75
f 89/89 75/75 74/74
f 89/89 74/74 81/81
f 75/75 49/49 48/48
f 75/75 48/48 74/74
f 474/474 472/472 473/473
f 475/475 474/474 473/473
f 453/453 469/469 470/470
f 472/472 453/453 470/470
f 469/469 467/467 468/468
f 470/470 469/469 468/468
f 454/454 464/464 465/465
f 467/467 454/454 465/465
f 455/455 460/460 461/461
f 463/463 455/455 461/461
f 476/476 456/456 457/457
f 458/458 476/476 457/457
f 5/5 6/6 11/11
f 1/1 8/8 13/13
f 6/6 1/1 13/13
f 8/8 2/2 9/9
f 7/7 10/10 21/21
f 9/9 7/7 21/21
f 3/3 14/14 20/20
f 10/10 3/3 20/20
f 14/14 4/4 15/15
f 12/12 18/18 19/19
f 15/15 12/12 19/19
f 481/481 480/480 483/483
f 481/481 483/483 484/484
f 491/491 495/495 510/510
f 491/491 510/510 490/490
f 491/491 492/492 494/494
f 491/491 494/494 495/495
f 502/502 504/504 506/506
f 502/502 506/506 500/500
f 502/502 503/503 504/504
f 62/62 33/33 31/31
f 62/62 31/31 63/63
f 63/63 31/31 29/29
f 63/63 29/29 65/65
f 65/65 29/29 27/27
f 43/43 41/41 42/42
f 44/44 43/43 42/42
f 42/42 41/41 39/39
f 42/42 39/39 53/53
f 39/39 37/37 54/54
f 53/53 39/39 54/54
f 76/76 54/54 64/64
f 76/76 64/64 62/62
f 54/54 37/37 36/36
f 54/54 36/36 64/64
f 50/50 47/47 49/49
f 49/49 47/47 45/45
f 49/49 45/45 48/48
f 508/508 520/520 493/493
f 489/489 508/508 493/493
f 511/511 525/525 507/507
f 501/501 511/511 507/507
f 35/35 57/57 34/34
f 35/35 34/34 33/33
f 33/33 34/34 32/32
f 33/33 32/32 31/31
f 31/31 32/32 30/30
f 31/31 30/30 29/29
f 29/29 30/30 28/28
f 43/43 56/56 55/55
f 43/43 55/55 41/41
f 41/41 55/55 40/40
f 41/41 40/40 39/39
f 39/39 40/40 38/38
f 39/39 38/38 37/37
f 50/50 51/51 47/47
f 47/47 51/51 46/46
f 47/47 46/46 45/45
f 615/615 614/614 616/616
f 518/518 540/540 532/532
f 624/624 625/625 627/627
f 515/515 537/537 536/536
f 59/59 102/102 88/88
f 59/59 88/88 58/58
f 58/58 88/88 72/72
f 67/67 104/104 92/92
f 67/67 92/92 60/60
f 60/60 92/92 80/80
f 60/60 80/80 57/57
f 57/57 80/80 70/70
f 57/57 70/70 34/34
f 34/34 70/70 69/69
f 34/34 69/69 32/32
f 68/68 87/87 61/61
f 61/61 87/87 73/73
f 61/61 73/73 56/56
f 56/56 73/73 71/71
f 56/56 71/71 55/55
f 609/609 608/608 610/610
f 613/613 609/609 610/610
f 631/631 649/649 626/626
f 623/623 631/631 626/626
f 593/593 590/590 640/640
f 593/593 640/640 632/632
f 593/593 632/632 601/601
f 601/601 632/632 603/603
f 577/577 572/572 639/639
f 659/659 660/660 661/661
f 659/659 661/661 662/662
f 662/662 661/661 664/664
f 598/598 635/635 595/595
f 595/595 635/635 592/592
f 595/595 592/592 594/594
f 566/566 567/567 568/568
f 568/568 567/567 569/569
f 568/568 569/569 570/570
f 562/562 478/478 564/564
f 181/181 186/186 178/178
f 158/158 167/167 161/161
f 561/561 477/477 563/563
f 563/563 479/479 565/565
f 188/188 187/187 182/182
f 152/152 182/182 143/143
f 182/182 187/187 179/179
f 143/143 182/182 179/179
f 178/178 186/186 176/176
f 185/185 184/184 175/175
f 176/176 185/185 175/175
f 184/184 183/183 177/177
f 175/175 184/184 177/177
f 135/135 175/175 177/177
f 183/183 182/182 152/152
f 177/177 183/183 152/152
f 135/135 177/177 152/152
f 135/135 152/152 125/125
f 173/173 180/180 155/155
f 180/180 181/181 147/147
f 155/155 180/180 147/147
f 181/181 178/178 146/146
f 147/147 181/181 146/146
f 178/178 176/176 138/138
f 146/146 178/178 138/138
f 138/138 176/176 175/175
f 118/118 138/138 117/117
f 154/154 155/155 132/132
f 155/155 147/147 128/128
f 132/132 155/155 128/128
f 147/147 146/146 122/122
f 128/128 147/147 122/122
f 122/122 146/146 138/138
f 122/122 138/138 118/118
f 121/121 122/122 118/118
f 121/121 118/118 119/119
f 133/133 132/132 129/129
f 129/129 132/132 128/128
f 129/129 128/128 127/127
f 127/127 128/128 122/122
f 127/127 122/122 126/126
f 148/148 141/141 153/153
f 141/141 148/148 124/124
f 113/113 141/141 124/124
f 153/153 141/141 156/156
f 131/131 129/129 130/130
f 130/130 129/129 127/127
f 130/130 127/127 137/137
f 137/137 127/127 126/126
f 137/137 126/126 139/139
f 139/139 126/126 136/136
f 139/139 136/136 149/149
f 136/136 140/140 150/150
f 149/149 136/136 150/150
f 140/140 145/145 157/157
f 150/150 140/140 157/157
f 145/145 148/148 159/159
f 157/157 145/145 159/159
f 148/148 153/153 162/162
f 159/159 148/148 162/162
f 162/162 153/153 165/165
f 144/144 130/130 151/151
f 151/151 130/130 137/137
f 151/151 137/137 158/158
f 158/158 137/137 139/139
f 158/158 139/139 163/163
f 139/139 149/149 164/164
f 163/163 139/139 164/164
f 149/149 150/150 166/166
f 164/164 149/149 166/166
f 150/150 157/157 168/168
f 166/166 150/150 168/168
f 157/157 159/159 169/169
f 144/144 151/151 160/160
f 151/151 158/158 161/161
f 160/160 151/151 161/161
f 125/125 152/152 143/143
f 125/125 143/143 109/109
f 109/109 143/143 142/142
f 117/117 135/135 115/115
f 115/115 135/135 125/125
f 115/115 125/125 111/111
f 111/111 125/125 109/109
f 111/111 109/109 110/110
f 110/110 109/109 108/108
f 118/118 117/117 116/116
f 119/119 118/118 116/116
f 116/116 117/117 115/115
f 116/116 115/115 114/114
f 114/114 115/115 111/111
f 114/114 111/111 113/113
f 111/111 110/110 112/112
f 113/113 111/111 112/112
f 112/112 110/110 134/134
f 121/121 119/119 120/120
f 120/120 119/119 116/116
f 120/120 116/116 123/123
f 123/123 116/116 114/114
f 123/123 114/114 124/124
f 114/114 113/113 124/124
f 197/197 196/196 195/195
f 198/198 197/197 195/195
f 196/196 205/205 193/193
f 195/195 196/196 193/193
f 193/193 205/205 191/191
f 191/191 205/205 189/189
f 209/209 207/207 208/208
f 210/210 209/209 208/208
f 207/207 206/206 201/201
f 208/208 207/207 201/201
f 201/201 206/206 199/199
f 206/206 228/228 197/197
f 199/199 206/206 197/197
f 223/223 215/215 211/211
f 213/213 223/223 211/211
f 215/215 214/214 211/211
f 214/214 217/217 209/209
f 211/211 214/214 209/209
f 254/254 242/242 246/246
f 254/254 246/246 262/262
f 259/259 250/250 258/258
f 259/259 258/258 270/270
f 429/429 427/427 428/428
f 427/427 424/424 426/426
f 428/428 427/427 426/426
f 424/424 423/423 422/422
f 426/426 424/424 422/422
f 422/422 423/423 419/419
f 422/422 419/419 421/421
f 419/419 417/417 418/418
f 421/421 419/419 418/418
f 418/418 417/417 415/415
f 418/418 415/415 416/416
f 416/416 415/415 414/414
f 416/416 414/414 433/433
f 414/414 411/411 413/413
f 433/433 414/414 413/413
f 413/413 411/411 409/409
f 413/413 409/409 420/420
f 408/408 406/406 407/407
f 409/409 408/408 407/407
f 407/407 406/406 402/402
f 407/407 402/402 425/425
f 425/425 402/402 401/401
f 425/425 401/401 443/443
f 401/401 399/399 404/404
f 443/443 401/401 404/404
f 404/404 399/399 397/397
f 404/404 397/397 432/432
f 397/397 395/395 396/396
f 432/432 397/397 396/396
f 554/554 555/555 530/530
f 531/531 554/554 530/530
f 555/555 560/560 541/541
f 530/530 555/555 541/541
f 541/541 560/560 542/542
f 549/549 552/552 528/528
f 529/529 549/549 528/528
f 552/552 556/556 535/535
f 528/528 552/552 535/535
f 224/224 220/220 296/296
f 535/535 556/556 550/550
f 220/220 216/216 292/292
f 296/296 220/220 292/292
f 539/539 548/548 533/533
f 548/548 558/558 538/538
f 533/533 548/548 538/538
f 222/222 219/219 295/295
f 538/538 558/558 543/543
f 293/293 278/278 288/288
f 94/94 98/98 85/85
f 291/291 282/282 287/287
f 96/96 99/99 82/82
f 451/451 445/445 475/475
f 445/445 439/439 474/474
f 475/475 445/445 474/474
f 474/474 439/439 437/437
f 474/474 437/437 472/472
f 437/437 436/436 453/453
f 472/472 437/437 453/453
f 453/453 436/436 438/438
f 453/453 438/438 469/469
f 469/469 438/438 447/447
f 469/469 447/447 467/467
f 447/447 440/440 454/454
f 467/467 447/447 454/454
f 454/454 440/440 441/441
f 454/454 441/441 464/464
f 464/464 441/441 449/449
f 464/464 449/449 463/463
f 449/449 435/435 455/455
f 463/463 449/449 455/455
f 455/455 435/435 446/446
f 455/455 446/446 460/460
f 460/460 446/446 450/450
f 460/460 450/450 458/458
f 450/450 442/442 476/476
f 458/458 450/450 476/476
f 476/476 442/442 444/444
f 476/476 444/444 456/456
f 444/444 443/443 452/452
f 456/456 444/444 452/452
f 521/521 527/527 488/488
f 490/490 521/521 488/488
f 527/527 531/531 486/486
f 488/488 527/527 486/486
f 531/531 530/530 484/484
f 486/486 531/531 484/484
f 512/512 523/523 499/499
f 500/500 512/512 499/499
f 523/523 529/529 496/496
f 499/499 523/523 496/496
f 529/529 528/528 495/495
f 496/496 529/529 495/495
f 528/528 535/535 510/510
f 495/495 528/528 510/510
f 522/522 533/533 506/506
f 77/77 86/86 79/79
f 76/76 90/90 78/78
f 76/76 78/78 54/54
f 44/44 81/81 74/74
f 44/44 74/74 48/48
f 471/471 472/472 470/470
f 466/466 467/467 465/465
f 465/465 464/464 462/462
f 462/462 464/464 463/463
f 459/459 460/460 458/458
f 491/491 490/490 489/489
f 492/492 491/491 489/489
f 489/489 490/490 488/488
f 489/489 488/488 487/487
f 487/487 488/488 486/486
f 487/487 486/486 485/485
f 486/486 484/484 483/483
f 485/485 486/486 483/483
f 502/502 500/500 501/501
f 503/503 502/502 501/501
f 500/500 499/499 498/498
f 501/501 500/500 498/498
f 498/498 499/499 496/496
f 498/498 496/496 497/497
f 496/496 495/495 494/494
f 497/497 496/496 494/494
f 62/62 64/64 36/36
f 33/33 62/62 36/36
f 44/44 48/48 45/45
f 43/43 44/44 45/45
f 508/508 489/489 487/487
f 508/508 487/487 513/513
f 513/513 487/487 485/485
f 513/513 485/485 518/518
f 518/518 485/485 483/483
f 518/518 483/483 517/517
f 483/483 480/480 482/482
f 517/517 483/483 482/482
f 511/511 501/501 498/498
f 511/511 498/498 516/516
f 516/516 498/498 497/497
f 516/516 497/497 515/515
f 515/515 497/497 494/494
f 515/515 494/494 514/514
f 492/492 489/489 493/493
f 494/494 492/492 493/493
f 514/514 494/494 493/493
f 514/514 493/493 520/520
f 503/503 501/501 507/507
f 505/505 503/503 507/507
f 519/519 507/507 525/525
f 35/35 33/33 36/36
f 37/37 35/35 36/36
f 35/35 37/37 38/38
f 57/57 35/35 38/38
f 43/43 45/45 46/46
f 56/56 43/43 46/46
f 540/540 518/518 517/517
f 540/540 517/517 546/546
f 546/546 517/517 524/524
f 537/537 515/515 514/514
f 537/537 514/514 544/544
f 544/544 514/514 520/520
f 544/544 520/520 547/547
f 508/508 513/513 526/526
f 520/520 508/508 526/526
f 547/547 520/520 526/526
f 547/547 526/526 557/557
f 513/513 518/518 532/532
f 526/526 513/513 532/532
f 557/557 526/526 532/532
f 629/629 616/616 614/614
f 545/545 525/525 553/553
f 511/511 516/516 534/534
f 525/525 511/511 534/534
f 553/553 525/525 534/534
f 553/553 534/534 559/559
f 516/516 515/515 536/536
f 534/534 516/516 536/536
f 559/559 534/534 536/536
f 628/628 627/627 625/625
f 59/59 58/58 30/30
f 32/32 59/59 30/30
f 59/59 32/32 69/69
f 102/102 59/59 69/69
f 30/30 58/58 28/28
f 67/67 60/60 40/40
f 55/55 67/67 40/40
f 67/67 55/55 71/71
f 104/104 67/67 71/71
f 60/60 57/57 38/38
f 40/40 60/60 38/38
f 68/68 61/61 51/51
f 61/61 56/56 46/46
f 51/51 61/61 46/46
f 615/615 617/617 613/613
f 614/614 615/615 613/613
f 613/613 617/617 630/630
f 609/609 613/613 630/630
f 624/624 622/622 623/623
f 625/625 624/624 623/623
f 622/622 621/621 620/620
f 623/623 622/622 620/620
f 631/631 623/623 620/620
f 631/631 620/620 619/619
f 621/621 629/629 618/618
f 620/620 621/621 618/618
f 619/619 620/620 618/618
f 619/619 618/618 612/612
f 629/629 614/614 610/610
f 618/618 629/629 610/610
f 612/612 618/618 610/610
f 612/612 610/610 611/611
f 610/610 614/614 613/613
f 611/611 610/610 608/608
f 646/646 644/644 645/645
f 647/647 645/645 648/648
f 644/644 628/628 643/643
f 645/645 644/644 643/643
f 648/648 645/645 643/643
f 670/670 669/669 665/665
f 628/628 625/625 626/626
f 643/643 628/628 626/626
f 665/665 669/669 666/666
f 665/665 666/666 667/667
f 626/626 625/625 623/623
f 667/667 666/666 668/668
f 594/594 593/593 599/599
f 593/593 594/594 592/592
f 590/590 593/593 592/592
f 593/593 601/601 600/600
f 599/599 593/593 600/600
f 600/600 601/601 602/602
f 570/570 577/577 575/575
f 577/577 570/570 569/569
f 572/572 577/577 569/569
f 659/659 662/662 663/663
f 575/575 577/577 641/641
f 598/598 595/595 597/597
f 641/641 598/598 597/597
f 595/595 594/594 596/596
f 597/597 595/595 596/596
f 105/105 102/102 69/69
f 70/70 105/105 69/69
f 566/566 568/568 576/576
f 568/568 570/570 573/573
f 576/576 568/568 573/573
f 570/570 575/575 574/574
f 573/573 570/570 574/574
f 608/608 609/609 607/607
f 631/631 619/619 636/636
f 649/649 631/631 636/636
f 619/619 612/612 650/650
f 636/636 619/619 650/650
f 650/650 612/612 611/611
f 650/650 611/611 633/633
f 633/633 611/611 608/608
f 633/633 608/608 606/606
f 606/606 608/608 607/607
f 656/656 657/657 658/658
f 648/648 634/634 586/586
f 642/642 648/648 586/586
f 634/634 584/584 581/581
f 586/586 634/634 581/581
f 584/584 649/649 582/582
f 581/581 584/584 582/582
f 582/582 649/649 636/636
f 582/582 636/636 587/587
f 587/587 636/636 650/650
f 587/587 650/650 589/589
f 589/589 650/650 633/633
f 589/589 633/633 591/591
f 651/651 652/652 653/653
f 651/651 653/653 654/654
f 604/604 606/606 605/605
f 638/638 642/642 637/637
f 637/637 642/642 586/586
f 637/637 586/586 579/579
f 579/579 586/586 581/581
f 579/579 581/581 580/580
f 580/580 581/581 582/582
f 580/580 582/582 583/583
f 583/583 582/582 587/587
f 583/583 587/587 588/588
f 588/588 587/587 589/589
f 588/588 589/589 590/590
f 590/590 589/589 591/591
f 590/590 591/591 640/640
f 655/655 651/651 654/654
f 640/640 604/604 632/632
f 632/632 604/604 603/603
f 578/578 637/637 571/571
f 571/571 637/637 579/579
f 571/571 579/579 572/572
f 572/572 579/579 580/580
f 572/572 580/580 639/639
f 580/580 583/583 585/585
f 639/639 580/580 585/585
f 583/583 588/588 635/635
f 585/585 583/583 635/635
f 588/588 590/590 592/592
f 635/635 588/588 592/592
f 578/578 571/571 567/567
f 571/571 572/572 569/569
f 567/567 571/571 569/569

