# https://github.com/mikedh/trimesh
mtllib material.mtl

o geometry_0
usemtl material_0
v -0.07231766 -0.27338138 0.14791280
v -0.07245009 -0.27341166 0.14353219
v -0.07232028 -0.26945555 0.14327604
v -0.07254611 -0.27341786 0.13911496
v -0.07220629 -0.27318895 0.15206036
v -0.07217490 -0.26944894 0.14779724
v -0.07203714 -0.26945931 0.15152539
v -0.07254463 -0.27341238 0.13509129
v -0.07235269 -0.26949912 0.13094090
v -0.07253871 -0.27334869 0.13190390
v -0.07239774 -0.26949492 0.12987795
v -0.07192866 -0.26920208 0.15351221
v -0.07200856 -0.27193677 0.15351848
v -0.07188331 -0.27213526 0.15612762
v -0.07168704 -0.27166823 0.15979414
v -0.07245325 -0.27202722 0.13027886
v -0.07282663 -0.27589828 0.13595802
v -0.07288373 -0.27606133 0.13963147
v -0.07278770 -0.27560779 0.13355441
v -0.07288026 -0.27603507 0.14362037
v -0.07283828 -0.27581570 0.14772858
v -0.07233779 -0.27360016 0.15604882
v -0.07286897 -0.27535376 0.15178759
v -0.07309622 -0.27446753 0.15594777
v -0.07338792 -0.27372366 0.15823814
v -0.07989224 -0.27493238 0.15158339
v -0.08467317 -0.27527279 0.14737514
v -0.07990120 -0.27568418 0.14753804
v -0.07530555 -0.27538168 0.15167221
v -0.07523058 -0.27609017 0.14760825
v -0.08430815 -0.27451029 0.15129219
v -0.07989533 -0.27425554 0.15437768
v -0.07538214 -0.27430496 0.15593620
v -0.08259706 -0.27415758 0.15374829
v -0.08746906 -0.27439013 0.14957814
v -0.08842069 -0.27469814 0.14697874
v -0.08544031 -0.27397045 0.15258035
v -0.07670788 -0.27371261 0.15736620
v -0.07986918 -0.27363813 0.15651824
v -0.07412594 -0.27367303 0.15824716
v -0.07309622 -0.27446753 0.15594777
v -0.07338792 -0.27372366 0.15823814
v -0.07286897 -0.27535376 0.15178759
v -0.08404550 -0.27341247 0.15534467
v -0.08951519 -0.27427277 0.14781296
v -0.08994330 -0.27463281 0.14551230
v -0.08821140 -0.27500713 0.14412460
v -0.08458642 -0.27557620 0.14384012
v -0.07517265 -0.27643332 0.14372504
v -0.07984556 -0.27598095 0.14382064
v -0.08830938 -0.27376565 0.15085165
v -0.08934600 -0.27480701 0.14319432
v -0.08701164 -0.27520639 0.14171797
v -0.07504477 -0.27643678 0.13994408
v -0.07967394 -0.27591804 0.14012028
v -0.08433809 -0.27546141 0.14035676
v -0.07283828 -0.27581570 0.14772858
v -0.08819675 -0.27482179 0.14041826
v -0.08801562 -0.27221209 0.15573117
v -0.08279041 -0.27540880 0.13803521
v -0.08553520 -0.27514088 0.13922101
v -0.07947407 -0.27557099 0.13720839
v -0.07514077 -0.27591866 0.13601601
v -0.07288026 -0.27603507 0.14362037
v -0.07282663 -0.27589828 0.13595802
v -0.07278770 -0.27560779 0.13355441
v -0.07398908 -0.27560833 0.13376980
v -0.07288373 -0.27606133 0.13963147
v -0.07646796 -0.27531067 0.13467330
v -0.07934996 -0.27509210 0.13537067
v -0.08411460 -0.27473444 0.13669588
v -0.08830152 -0.27381197 0.13657756
v -0.08689570 -0.27133563 0.15814596
v -0.08893642 -0.27117383 0.15747552
v -0.07977574 -0.27230889 0.15905224
v -0.08400643 -0.27145723 0.15887283
v -0.07550462 -0.27288899 0.15913256
v -0.08985119 -0.27180547 0.15418507
v -0.09100117 -0.27400792 0.14412764
v -0.09138589 -0.27357155 0.14036231
v -0.09165154 -0.27236801 0.13676870
v -0.09107588 -0.27221864 0.15018830
v -0.09093202 -0.27351949 0.14682451
v -0.09109054 -0.27179319 0.13455905
v -0.09314895 -0.27206880 0.14039192
v -0.09316322 -0.27223957 0.14386122
v -0.09279118 -0.27182308 0.14699472
v -0.09301075 -0.27172610 0.13813268
v -0.09250017 -0.27144429 0.14853938
v -0.07276177 -0.27274212 0.15933585
v -0.07547890 -0.27106655 0.16148724
v -0.07255661 -0.27114069 0.16175894
v -0.08854275 -0.27226526 0.13418664
v -0.08419960 -0.27276915 0.13360114
v -0.07923855 -0.27316287 0.13298477
v -0.07497007 -0.27366716 0.13223194
v -0.07168704 -0.27166823 0.15979414
v -0.07233779 -0.27360016 0.15604882
v -0.08440592 -0.25718772 0.13023727
v -0.07930660 -0.25669873 0.12949899
v -0.08107542 -0.26126999 0.12992305
v -0.07911180 -0.25141755 0.12930536
v -0.08419543 -0.25163612 0.12983873
v -0.07804835 -0.26122448 0.12959732
v -0.07584643 -0.25501540 0.12910238
v -0.07770950 -0.26554468 0.12991466
v -0.08073250 -0.26555845 0.13028558
v -0.07239774 -0.26949492 0.12987795
v -0.07458080 -0.26962540 0.13011201
v -0.07696544 -0.26840937 0.13020842
v -0.08896776 -0.25181779 0.13070731
v -0.08454465 -0.26139003 0.13060485
v -0.07348149 -0.27202988 0.13037650
v -0.07245325 -0.27202722 0.13027886
v -0.08456539 -0.26557681 0.13108136
v -0.08890259 -0.24702021 0.13071750
v -0.09249161 -0.24764146 0.13125519
v -0.08906443 -0.25750205 0.13136889
v -0.07599747 -0.27102771 0.13059208
v -0.07904948 -0.26963848 0.13083397
v -0.08909377 -0.26155964 0.13185337
v -0.08906397 -0.26560122 0.13234627
v -0.08441563 -0.26951838 0.13195954
v -0.09364623 -0.25202104 0.13213915
v -0.08406147 -0.24650650 0.13028887
v -0.08885953 -0.26952207 0.13314685
v -0.09516086 -0.24963801 0.13239354
v -0.09332776 -0.25763538 0.13299841
v -0.09342940 -0.26152876 0.13374501
v -0.09258731 -0.26561299 0.13385573
v -0.09181510 -0.26952112 0.13423444
v -0.09109054 -0.27179319 0.13455905
v -0.09545899 -0.25458831 0.13339928
v -0.07914525 -0.24624103 0.13005979
v -0.07451320 -0.24624325 0.12977982
v -0.08854275 -0.27226526 0.13418664
v -0.09530985 -0.25765491 0.13402762
v -0.09502866 -0.26013926 0.13445801
v -0.09456784 -0.26279196 0.13466585
v -0.09394763 -0.26561612 0.13488564
v -0.08419960 -0.27276915 0.13360114
v -0.07923855 -0.27316287 0.13298477
v -0.07497007 -0.27366716 0.13223194
v -0.07920155 -0.24427512 0.13114488
v -0.08405813 -0.24453495 0.13156641
v -0.08408961 -0.24349785 0.13155298
v -0.07923454 -0.24385756 0.13114488
v -0.08892705 -0.24317805 0.13227795
v -0.08894840 -0.24503194 0.13235489
v -0.09318015 -0.24286620 0.13341203
v -0.09345579 -0.24619882 0.13348603
v -0.07461765 -0.24386610 0.13128249
v -0.09608690 -0.24746551 0.13496228
v -0.07253871 -0.27334869 0.13190390
v -0.07278770 -0.27560779 0.13355441
v -0.07482576 -0.26445186 0.16581556
v -0.07472792 -0.25983453 0.16718929
v -0.07443585 -0.25468597 0.16852841
v -0.07500470 -0.26702940 0.16473232
v -0.07901198 -0.26016510 0.16641767
v -0.07890613 -0.26453915 0.16508530
v -0.08144277 -0.26329997 0.16497621
v -0.07741021 -0.26675048 0.16451195
v -0.07906610 -0.25553814 0.16743971
v -0.07555112 -0.25058797 0.16915138
v -0.08188442 -0.26046219 0.16555171
v -0.08031484 -0.26581305 0.16418068
v -0.07938449 -0.25111094 0.16792662
v -0.08231173 -0.25606698 0.16623144
v -0.08295052 -0.26486024 0.16350250
v -0.08253479 -0.25161985 0.16649206
v -0.07999442 -0.24640757 0.16761769
v -0.08279815 -0.24659428 0.16634005
v -0.08012851 -0.24265200 0.16834050
v -0.07522944 -0.24630459 0.16908549
v -0.08387006 -0.24225551 0.16709635
v -0.07549413 -0.24297370 0.16910112
v -0.08369486 -0.26071915 0.16442811
v -0.08616568 -0.26534101 0.16148883
v -0.08410517 -0.25644541 0.16492192
v -0.08597574 -0.26806709 0.16043244
v -0.08365844 -0.26887298 0.16094626
v -0.08608420 -0.26106319 0.16260023
v -0.08797617 -0.26546559 0.16008076
v -0.08748264 -0.26954663 0.15884286
v -0.08917306 -0.26869434 0.15805075
v -0.08893642 -0.27117383 0.15747552
v -0.08689570 -0.27133563 0.15814596
v -0.08515567 -0.27015635 0.15944742
v -0.07918378 -0.26823369 0.16297728
v -0.08400643 -0.27145723 0.15887283
v -0.08262467 -0.27061155 0.16003543
v -0.07521906 -0.26892304 0.16345611
v -0.07966647 -0.27085370 0.16071242
v -0.07547890 -0.27106655 0.16148724
v -0.07255661 -0.27114069 0.16175894
v -0.07977574 -0.27230889 0.15905224
v -0.07973006 -0.24111256 0.17023075
v -0.07550462 -0.27288899 0.15913256
v -0.09165154 -0.27236801 0.13676870
v -0.09292348 -0.26951918 0.13553803
v -0.09109054 -0.27179319 0.13455905
v -0.09301075 -0.27172610 0.13813268
v -0.09360010 -0.26951602 0.13736890
v -0.09394763 -0.26561612 0.13488564
v -0.09445690 -0.26561192 0.13662817
v -0.09456784 -0.26279196 0.13466585
v -0.09420495 -0.26950952 0.14034165
v -0.09514032 -0.26154143 0.13597044
v -0.09502866 -0.26013926 0.13445801
v -0.09594572 -0.25761130 0.13595043
v -0.09530985 -0.25765491 0.13402762
v -0.09511808 -0.26559442 0.14027578
v -0.09582817 -0.26162386 0.14024644
v -0.09665244 -0.25753686 0.14013432
v -0.09738261 -0.25186607 0.13974883
v -0.09615674 -0.25201800 0.13468529
v -0.09545899 -0.25458831 0.13339928
v -0.09529851 -0.26554084 0.14407223
v -0.09438667 -0.26949781 0.14393871
v -0.09598844 -0.26149908 0.14418162
v -0.09672270 -0.25738308 0.14420943
v -0.09314895 -0.27206880 0.14039192
v -0.09728678 -0.25179073 0.14419416
v -0.09608690 -0.24746551 0.13496228
v -0.09316322 -0.27223957 0.14386122
v -0.09516086 -0.24963801 0.13239354
v -0.09658737 -0.24670094 0.13908301
v -0.09473371 -0.26546571 0.14727010
v -0.09540021 -0.26130700 0.14748892
v -0.09374461 -0.26948482 0.14707959
v -0.09648528 -0.24652334 0.14401765
v -0.09279118 -0.27182308 0.14699472
v -0.09181510 -0.26952112 0.13423444
v -0.09464594 -0.24463099 0.13852982
v -0.09345579 -0.24619882 0.13348603
v -0.09142334 -0.26131266 0.15561642
v -0.09106211 -0.25682127 0.15625826
v -0.09313701 -0.26127294 0.15266536
v -0.08968170 -0.25800246 0.15848725
v -0.08952087 -0.26136142 0.15871647
v -0.09345000 -0.25708532 0.15252876
v -0.09463330 -0.25709772 0.15040497
v -0.09478726 -0.25418890 0.15007475
v -0.08981302 -0.25532737 0.15803686
v -0.09356065 -0.25181901 0.15168996
v -0.09129800 -0.25176099 0.15531823
v -0.08994824 -0.25191233 0.15739606
v -0.08827086 -0.25208414 0.16005069
v -0.08862338 -0.25682917 0.15988466
v -0.09467957 -0.24961980 0.14955662
v -0.09578969 -0.25182876 0.14807557
v -0.09133853 -0.24785328 0.15453726
v -0.08619141 -0.25213388 0.16294096
v -0.08814310 -0.26131546 0.16057824
v -0.09585159 -0.24723981 0.14700158
v -0.08661976 -0.24674183 0.16245918
v -0.08789410 -0.24658236 0.16007756
v -0.08997362 -0.24645087 0.15596557
v -0.08603080 -0.25685182 0.16304342
v -0.09587269 -0.25717360 0.14769310
v -0.09113079 -0.26550391 0.15535259
v -0.08934953 -0.26549843 0.15852819
v -0.08797617 -0.26546559 0.16008076
v -0.09419084 -0.26124251 0.15050690
v -0.08917306 -0.26869434 0.15805075
v -0.09263656 -0.26550120 0.15223676
v -0.08439347 -0.25193062 0.16487828
v -0.08480138 -0.24671055 0.16441113
v -0.09216909 -0.24632657 0.15185384
v -0.08410517 -0.25644541 0.16492192
v -0.09017956 -0.26975387 0.15556535
v -0.08893642 -0.27117383 0.15747552
v -0.09360837 -0.26546568 0.15010974
v -0.08279815 -0.24659428 0.16634005
v -0.08608420 -0.26106319 0.16260023
v -0.09207760 -0.26948389 0.15123197
v -0.08539370 -0.24309635 0.16460030
v -0.08253479 -0.25161985 0.16649206
v -0.09422033 -0.24599642 0.14820038
v -0.09304806 -0.24281934 0.15170428
v -0.09430444 -0.24328831 0.14794688
v -0.09094322 -0.24501492 0.15306905
v -0.09022800 -0.24306974 0.15601832
v -0.09098756 -0.24359313 0.15303443
v -0.09290815 -0.26948789 0.14918467
v -0.08923789 -0.24271996 0.16000485
v -0.08387006 -0.24225551 0.16709635
v -0.09516104 -0.24445255 0.14381795
v -0.09517854 -0.24377218 0.14373900
v -0.09250017 -0.27144429 0.14853938
v -0.08805641 -0.24229287 0.16336763
v -0.08985119 -0.27180547 0.15418507
v -0.09107588 -0.27221864 0.15018830
v -0.09465903 -0.24355903 0.13840014
v -0.09318015 -0.24286620 0.13341203
v -0.13882306 -0.23896198 0.10902406
v -0.11908168 -0.23842321 0.07898530
v -0.10774735 -0.23885547 0.08327229
v -0.10746535 -0.23858953 0.07899722
v -0.10171357 -0.23865499 0.07908893
v -0.10199752 -0.23891802 0.08337913
v -0.08497909 -0.23898508 0.08326396
v -0.08534372 -0.23873635 0.07903860
v -0.07985610 -0.23898454 0.08337664
v -0.07982680 -0.23872553 0.07907034
v -0.07593843 -0.23895073 0.08340119
v -0.11928659 -0.23889236 0.08744058
v -0.10919386 -0.23903130 0.08744802
v -0.10137032 -0.23910224 0.08743156
v -0.09061462 -0.23914456 0.08742970
v -0.08378655 -0.23916869 0.08743814
v -0.07988729 -0.23916408 0.08745261
v -0.07596496 -0.23913643 0.08746764
v -0.07599621 -0.23930281 0.09151863
v -0.08089286 -0.23944890 0.09553698
v -0.08127463 -0.23932335 0.09136423
v -0.09071420 -0.23942149 0.09554277
v -0.09066208 -0.23929957 0.09148669
v -0.10144725 -0.23938164 0.09551494
v -0.10140465 -0.23925912 0.09147981
v -0.10921995 -0.23919240 0.09148217
v -0.10925534 -0.23931730 0.09550196
v -0.11927772 -0.23905598 0.09147201
v -0.12349352 -0.23936757 0.10909869
v -0.12910226 -0.23926872 0.11096513
v -0.13482122 -0.23902582 0.10710438
v -0.13478914 -0.23919123 0.11282357
v -0.13938330 -0.23919977 0.11727273
v -0.13472122 -0.23941496 0.12062581
v -0.14076933 -0.23934904 0.12264399
v -0.13469882 -0.23959288 0.12669197
v -0.14102159 -0.23948438 0.12684169
v -0.14532860 -0.23955475 0.13483079
v -0.14071825 -0.23957415 0.13073073
v -0.13469972 -0.23969883 0.13533896
v -0.13468722 -0.23966713 0.13069914
v -0.13094555 -0.23972127 0.13458763
v -0.13096975 -0.23969696 0.13066302
v -0.13096038 -0.23963340 0.12668110
v -0.12256867 -0.23971882 0.13051109
v -0.12735401 -0.23965193 0.12666512
v -0.13093828 -0.23953331 0.12263734
v -0.13094978 -0.23937750 0.11668038
v -0.12728903 -0.23952869 0.12065260
v -0.12726259 -0.23940670 0.11476769
v -0.12373421 -0.23950075 0.11581429
v -0.11961439 -0.23955229 0.11483651
v -0.11955406 -0.23944798 0.10912170
v -0.11550692 -0.23948339 0.10814631
v -0.11334133 -0.23935775 0.09940918
v -0.11139309 -0.23947772 0.10524181
v -0.10729171 -0.23942991 0.09941760
v -0.10148346 -0.23946866 0.09942918
v -0.10539380 -0.23950511 0.10327503
v -0.09664440 -0.23954627 0.10331016
v -0.08732831 -0.23951572 0.09949590
v -0.08587460 -0.23957318 0.10340455
v -0.07997152 -0.23957866 0.10343946
v -0.07676380 -0.23952448 0.09952825
v -0.07791629 -0.23960102 0.11156080
v -0.07789291 -0.23958838 0.11536392
v -0.09024502 -0.23962045 0.11703852
v -0.08680452 -0.23961684 0.11146124
v -0.09760267 -0.23962119 0.11215716
v -0.09566528 -0.23963436 0.11695698
v -0.10161245 -0.23963098 0.11874702
v -0.10855314 -0.23960570 0.11487311
v -0.10962576 -0.23962308 0.11866201
v -0.11560476 -0.23958635 0.11483976
v -0.11565246 -0.23962241 0.11867040
v -0.11966031 -0.23961905 0.12065135
v -0.11570482 -0.23968184 0.12454514
v -0.11075830 -0.23966524 0.12450133
v -0.10982673 -0.23972131 0.13027844
v -0.11567704 -0.23973784 0.13037592
v -0.12164760 -0.23968163 0.12659922
v -0.12445395 -0.23973174 0.13447142
v -0.11553304 -0.23976547 0.13636714
v -0.11168080 -0.23975222 0.13424869
v -0.11154307 -0.23978943 0.14047875
v -0.10775827 -0.23976722 0.13952340
v -0.10394792 -0.23974502 0.13753441
v -0.10005724 -0.23973499 0.13348046
v -0.10009717 -0.23976138 0.13884689
v -0.09992006 -0.23976494 0.14320996
v -0.10367925 -0.23977974 0.14698608
v -0.10768086 -0.23982581 0.15140156
v -0.10364926 -0.23979303 0.15063694
v -0.09968395 -0.23974708 0.14729580
v -0.09560343 -0.23967411 0.15149897
v -0.09597387 -0.23972532 0.14749691
v -0.09203901 -0.23963240 0.15167464
v -0.09238135 -0.23968345 0.14755611
v -0.09632182 -0.23978673 0.14337365
v -0.09263586 -0.23977056 0.14343025
v -0.09267456 -0.23980923 0.13886367
v -0.09647965 -0.23979829 0.13889612
v -0.09283861 -0.23977540 0.13396467
v -0.09522980 -0.23969656 0.12995404
v -0.10188599 -0.23966232 0.12643342
v -0.10572362 -0.23963526 0.12253194
v -0.09681651 -0.23963287 0.12271081
v -0.09598362 -0.23963542 0.12635343
v -0.08942490 -0.23957333 0.12626126
v -0.08977346 -0.23959401 0.12238982
v -0.08575716 -0.23960266 0.11888643
v -0.08174036 -0.23953731 0.12234508
v -0.07783923 -0.23956469 0.11894758
v -0.07601092 -0.23942652 0.12614574
v -0.08697136 -0.23999888 0.17358045
v -0.09104152 -0.23999214 0.17350595
v -0.09867281 -0.23993070 0.17332104
v -0.13849322 -0.23964244 0.14424950
v -0.14058697 -0.23962796 0.13857082
v -0.12899798 -0.23971184 0.14610165
v -0.13088375 -0.23971403 0.14040062
v -0.12725219 -0.23971915 0.14038877
v -0.12149289 -0.23974556 0.13843551
v -0.12141945 -0.23974252 0.14234591
v -0.11538850 -0.23978919 0.14440414
v -0.11150062 -0.23982364 0.14846502
v -0.10962056 -0.23984620 0.15768743
v -0.10956986 -0.23984379 0.16142139
v -0.10952435 -0.23984800 0.16525300
v -0.09958947 -0.23984244 0.16553581
v -0.10359202 -0.23983583 0.16185163
v -0.09926886 -0.23981744 0.16223930
v -0.09932391 -0.23978080 0.15864058
v -0.10366340 -0.23982476 0.15748800
v -0.09940057 -0.23974237 0.15490985
v -0.09531426 -0.23967046 0.15533449
v -0.09164026 -0.23963010 0.15560913
v -0.09318905 -0.23969626 0.15935588
v -0.08759135 -0.23961782 0.15974952
v -0.09500866 -0.23977971 0.16263209
v -0.08866584 -0.23969971 0.16219413
v -0.08390930 -0.23954290 0.15979490
v -0.08396444 -0.23938334 0.15559177
v -0.07974607 -0.23949939 0.15977257
v -0.07967629 -0.23929937 0.15543385
v -0.07514816 -0.23948032 0.15974388
v -0.07520378 -0.23965515 0.16377613
v -0.07967316 -0.23965672 0.16373488
v -0.07527809 -0.23976582 0.16749388
v -0.07940911 -0.23975161 0.16725607
v -0.08361670 -0.23967822 0.16356353
v -0.08318370 -0.23975757 0.16679375
v -0.09046402 -0.23983371 0.16646279
v -0.09502114 -0.23984757 0.16599463
v -0.09508397 -0.23992817 0.16955930
v -0.09926683 -0.23989317 0.16943735
v -0.10350291 -0.23987848 0.16926634
v -0.08681010 -0.23991868 0.16973336
v -0.09091793 -0.23994341 0.16962650
v -0.07980859 -0.23986226 0.17024495
v -0.07516664 -0.23922969 0.15534179
v -0.08145311 -0.23948002 0.12616931
v -0.08810703 -0.23973805 0.13402180
v -0.08180763 -0.23954321 0.12974603
v -0.07563309 -0.23944406 0.12996589
v -0.07961109 -0.23957317 0.13391066
v -0.08371136 -0.23965403 0.13388672
v -0.07553387 -0.23947115 0.13392082
v -0.12358439 -0.23960763 0.12264363
v -0.11149818 -0.23955926 0.11104207
v -0.10546999 -0.23958780 0.11107649
v -0.10542792 -0.23955189 0.10719378
v -0.09761325 -0.23959112 0.10725763
v -0.08977911 -0.23960017 0.10741362
v -0.08191640 -0.23960774 0.10750948
v -0.07596257 -0.23959331 0.10753546
v -0.08790582 -0.23952231 0.15568824
v -0.08377173 -0.23958057 0.13868444
v -0.07960208 -0.23947135 0.13862497
v -0.07549854 -0.23934720 0.13855419
v -0.08825705 -0.23972441 0.13877255
v -0.07221016 -0.23900899 0.14262795
v -0.07540770 -0.23902515 0.14677757
v -0.07964896 -0.23916754 0.14692225
v -0.07962193 -0.23927647 0.14295053
v -0.08391094 -0.23930341 0.14718753
v -0.08383754 -0.23941767 0.14313948
v -0.08831339 -0.23962249 0.14334869
v -0.08826504 -0.23951405 0.14745277
v -0.08815108 -0.23948771 0.15166144
v -0.08397292 -0.23930664 0.15144737
v -0.07966330 -0.23919222 0.15117356
v -0.08826775 -0.23832302 0.07467140
v -0.08371417 -0.23832993 0.07467601
v -0.10117880 -0.23824590 0.07463997
v -0.07955838 -0.24109940 0.17306374
v -0.08332185 -0.24114670 0.17301098
v -0.08727586 -0.24118924 0.16938367
v -0.09202092 -0.24121504 0.17370604
v -0.13082005 -0.24134207 0.13225925
v -0.13455912 -0.24134608 0.13230897
v -0.13454734 -0.24135700 0.12638476
v -0.12893113 -0.24135405 0.12634313
v -0.13644840 -0.24137516 0.14195368
v -0.14050820 -0.24137959 0.13529366
v -0.14057809 -0.24138054 0.12842004
v -0.14059900 -0.24141434 0.12041877
v -0.13169262 -0.24137740 0.12236732
v -0.14658324 -0.24139944 0.12848806
v -0.14654592 -0.24144581 0.11754587
v -0.13260993 -0.24141741 0.11645373
v -0.12715645 -0.24134858 0.13218239
v -0.12896237 -0.24135858 0.13999715
v -0.12313624 -0.24136439 0.14766595
v -0.10938088 -0.24130109 0.16497897
v -0.10134990 -0.24124587 0.17097417
v -0.10935600 -0.24129324 0.17077059
v -0.09942382 -0.24128348 0.16481930
v -0.10845081 -0.24131793 0.16016881
v -0.10562018 -0.24132541 0.15938616
v -0.11327310 -0.24139151 0.15243419
v -0.10769543 -0.24142098 0.15166910
v -0.11148231 -0.24147400 0.14595358
v -0.11728840 -0.24142477 0.14581479
v -0.12332074 -0.24136621 0.13896707
v -0.11944124 -0.24139655 0.13892123
v -0.10447012 -0.24152651 0.14650850
v -0.11349684 -0.24147153 0.14192669
v -0.10801703 -0.24152970 0.14221917
v -0.10458469 -0.24158175 0.14228740
v -0.10054952 -0.24160613 0.14717986
v -0.10899073 -0.24153344 0.13804086
v -0.11178473 -0.24150026 0.13361733
v -0.10641721 -0.24161811 0.13415699
v -0.10727652 -0.24159926 0.12911926
v -0.11184321 -0.24148369 0.12689832
v -0.10791200 -0.24155155 0.12585594
v -0.10205366 -0.24167442 0.12550451
v -0.10067305 -0.24178933 0.12940270
v -0.09661726 -0.24176814 0.12551156
v -0.09705216 -0.24187015 0.12926282
v -0.09821060 -0.24159926 0.12150805
v -0.10374035 -0.24155040 0.12200616
v -0.10146882 -0.24149910 0.11866414
v -0.10768451 -0.24149856 0.12204235
v -0.11013040 -0.24145333 0.12092920
v -0.11555396 -0.24143875 0.13485810
v -0.11952795 -0.24138004 0.12808061
v -0.12338097 -0.24135765 0.12819330
v -0.11747149 -0.24138682 0.12032754
v -0.11559026 -0.24141118 0.12411244
v -0.09431215 -0.24152058 0.11819325
v -0.09021820 -0.24163255 0.12170407
v -0.09275280 -0.24177305 0.12540734
v -0.08422809 -0.24176537 0.12527697
v -0.08408620 -0.24162172 0.12162229
v -0.07985954 -0.24173220 0.12527916
v -0.07641794 -0.24157655 0.12165083
v -0.08294582 -0.24148956 0.11803369
v -0.09313460 -0.24188942 0.12913053
v -0.07789230 -0.24138539 0.11448035
v -0.07786934 -0.24134818 0.11093901
v -0.07095048 -0.24132517 0.10704597
v -0.08184723 -0.24134016 0.10706247
v -0.08185529 -0.24133097 0.10302468
v -0.08580552 -0.24137038 0.11093882
v -0.08971111 -0.24136603 0.10702481
v -0.09497704 -0.24145138 0.11481936
v -0.09360164 -0.24139982 0.11086659
v -0.10140255 -0.24140576 0.11077344
v -0.10831647 -0.24138716 0.10786705
v -0.10926426 -0.24138734 0.10298210
v -0.09750571 -0.24138387 0.10493433
v -0.10540789 -0.24142283 0.11455913
v -0.11045163 -0.24140592 0.11550349
v -0.11740024 -0.24138674 0.11555843
v -0.11532171 -0.24138656 0.10887096
v -0.12328367 -0.24137646 0.12037996
v -0.12126856 -0.24139696 0.11174662
v -0.12695530 -0.24140570 0.11648376
v -0.12691867 -0.24143152 0.10882501
v -0.13067779 -0.24144021 0.10879719
v -0.13864030 -0.24144214 0.11166231
v -0.11171103 -0.24139874 0.09912168
v -0.08972314 -0.24135318 0.10300723
v -0.07652386 -0.24143013 0.08090556
v -0.07494392 -0.24133673 0.09915012
v -0.08187950 -0.24137911 0.09014271
v -0.08579962 -0.24142282 0.08299629
v -0.08628921 -0.24148038 0.07653885
v -0.08677962 -0.24134964 0.09914103
v -0.08920414 -0.24140118 0.09013182
v -0.09359531 -0.24147987 0.08081847
v -0.09456411 -0.24141514 0.09215068
v -0.10041332 -0.24151224 0.08081159
v -0.09747537 -0.24155182 0.07436433
v -0.09751222 -0.24138677 0.09910280
v -0.10136326 -0.24143498 0.09215228
v -0.10922244 -0.24154927 0.07866978
v -0.10529009 -0.24157795 0.07436697
v -0.11267388 -0.24148963 0.08508829
v -0.10526875 -0.24150160 0.08299065
v -0.10087711 -0.24177259 0.13344191
v -0.10081345 -0.24169160 0.14320895
v -0.10010846 -0.24144341 0.15452805
v -0.10026143 -0.24151318 0.15072422
v -0.09680837 -0.24159819 0.15139672
v -0.09982584 -0.24137318 0.15829439
v -0.09551611 -0.24128057 0.16261373
v -0.09590996 -0.24131535 0.15900248
v -0.09637418 -0.24141891 0.15507720
v -0.09496552 -0.24125700 0.16887015
v -0.09142393 -0.24121232 0.16611573
v -0.09127312 -0.24124987 0.16924417
v -0.10232680 -0.24124782 0.17486151
v -0.07973006 -0.24111256 0.17023075
v -0.08348991 -0.24106736 0.16979511
v -0.08767349 -0.24109675 0.16662835
v -0.09185382 -0.24116163 0.16320428
v -0.09729992 -0.24193622 0.13330261
v -0.09242936 -0.24127401 0.15968911
v -0.08877420 -0.24202211 0.12905489
v -0.09293308 -0.24168700 0.15572220
v -0.09737527 -0.24238114 0.13843884
v -0.08420021 -0.24234676 0.12902200
v -0.09713893 -0.24205013 0.14766440
v -0.09732421 -0.24259186 0.14355241
v -0.09318015 -0.24286620 0.13341203
v -0.07954175 -0.24268977 0.12901108
v -0.07493240 -0.24270156 0.12902263
v -0.09304806 -0.24281934 0.15170428
v -0.09465903 -0.24355903 0.13840014
v -0.09430444 -0.24328831 0.14794688
v -0.08892705 -0.24317805 0.13227795
v -0.08408961 -0.24349785 0.13155298
v -0.09517854 -0.24377218 0.14373900
v -0.08923789 -0.24271996 0.16000485
v -0.08805641 -0.24229287 0.16336763
v -0.07923454 -0.24385756 0.13114488
v -0.09022800 -0.24306974 0.15601832
v -0.08387006 -0.24225551 0.16709635
v -0.08012851 -0.24265200 0.16834050
v -0.09098756 -0.24359313 0.15303443
v -0.08539370 -0.24309635 0.16460030
vt 0.77036440 0.76485831
vt 0.77185190 0.76485831
vt 0.77192771 0.76618659
vt 0.77335191 0.76486754
vt 0.76895547 0.76491231
vt 0.77039266 0.76617819
vt 0.76912659 0.76616639
vt 0.77471763 0.76488173
vt 0.77611399 0.76620787
vt 0.77579898 0.76491278
vt 0.77647489 0.76621187
vt 0.76845080 0.76624900
vt 0.76845521 0.76533163
vt 0.76756954 0.76526088
vt 0.76632434 0.76541007
vt 0.77634668 0.76536137
vt 0.77443147 0.76404011
vt 0.77318561 0.76397192
vt 0.77524602 0.76414579
vt 0.77183205 0.76396650
vt 0.77043736 0.76402462
vt 0.76760435 0.76474768
vt 0.76905793 0.76415426
vt 0.76762885 0.76436096
vt 0.76681864 0.76450104
vt 0.88069540 0.66289234
vt 0.87910634 0.66442853
vt 0.88076192 0.66432256
vt 0.88231307 0.66281199
vt 0.88240093 0.66425562
vt 0.87915313 0.66304839
vt 0.88063377 0.66188860
vt 0.88219893 0.66126680
vt 0.87969917 0.66215354
vt 0.87808496 0.66368830
vt 0.87781477 0.66460043
vt 0.87872070 0.66259772
vt 0.88169092 0.66075337
vt 0.88058972 0.66110826
vt 0.88259023 0.66039073
vt 0.88301247 0.66122919
vt 0.88285476 0.66037965
vt 0.88317221 0.66272914
vt 0.87914103 0.66158468
vt 0.87741131 0.66432583
vt 0.87732625 0.66511339
vt 0.87792844 0.66556442
vt 0.87917829 0.66563898
vt 0.88246059 0.66561681
vt 0.88082081 0.66561472
vt 0.87773722 0.66323394
vt 0.87754571 0.66588050
vt 0.87835175 0.66637206
vt 0.88252759 0.66693586
vt 0.88089687 0.66689849
vt 0.87927330 0.66683054
vt 0.88324827 0.66417295
vt 0.87793535 0.66681731
vt 0.87768370 0.66144085
vt 0.87980503 0.66763020
vt 0.87885350 0.66722500
vt 0.88096160 0.66792297
vt 0.88249588 0.66832578
vt 0.88328201 0.66562963
vt 0.88331652 0.66834730
vt 0.88332629 0.66920698
vt 0.88290644 0.66911536
vt 0.88330203 0.66704333
vt 0.88201237 0.66883546
vt 0.88098723 0.66859126
vt 0.87931490 0.66812080
vt 0.87783134 0.66817361
vt 0.87798792 0.66049886
vt 0.87727153 0.66076905
vt 0.88052219 0.66010106
vt 0.87899441 0.66017562
vt 0.88205385 0.66002661
vt 0.87700355 0.66197139
vt 0.87691671 0.66557926
vt 0.87676430 0.66687065
vt 0.87655675 0.66817528
vt 0.87661064 0.66340339
vt 0.87684667 0.66464388
vt 0.87670636 0.66899240
vt 0.87595552 0.66690981
vt 0.87594342 0.66567934
vt 0.87596619 0.66454524
vt 0.87598860 0.66772813
vt 0.87599635 0.66395849
vt 0.88303035 0.65982914
vt 0.88194114 0.65896231
vt 0.88298398 0.65877855
vt 0.87762356 0.66914684
vt 0.87915939 0.66939259
vt 0.88090974 0.66966987
vt 0.88243639 0.66992551
vt 0.88345826 0.65944672
vt 0.88349056 0.66097659
vt 0.37978828 0.97947401
vt 0.37791207 0.97962970
vt 0.37858588 0.97805405
vt 0.37782428 0.98145485
vt 0.37967774 0.98138452
vt 0.37747559 0.97805655
vt 0.37663707 0.98020595
vt 0.37738699 0.97655046
vt 0.37849966 0.97656286
vt 0.37546793 0.97512925
vt 0.37627858 0.97509825
vt 0.37714687 0.97554004
vt 0.38142395 0.98133016
vt 0.37987307 0.97802120
vt 0.37590405 0.97424269
vt 0.37552354 0.97422439
vt 0.37992615 0.97656804
vt 0.38139591 0.98295462
vt 0.38265032 0.98273385
vt 0.38152951 0.97937262
vt 0.37682664 0.97460496
vt 0.37794590 0.97510803
vt 0.38158897 0.97796404
vt 0.38162619 0.97655863
vt 0.37995541 0.97516996
vt 0.38318002 0.98128235
vt 0.37965181 0.98314989
vt 0.38163641 0.97517186
vt 0.38371626 0.98213488
vt 0.38318914 0.97932047
vt 0.38331413 0.97795063
vt 0.38302371 0.97653031
vt 0.38279048 0.97515708
vt 0.38256833 0.97434390
vt 0.38397041 0.98038155
vt 0.37786531 0.98325896
vt 0.37618637 0.98326105
vt 0.38162813 0.97414529
vt 0.38400403 0.97929740
vt 0.38396588 0.97841877
vt 0.38383025 0.97749066
vt 0.38364699 0.97649658
vt 0.38002738 0.97390276
vt 0.37819755 0.97368371
vt 0.37660140 0.97347891
vt 0.37791273 0.98403871
vt 0.37970635 0.98396403
vt 0.37971058 0.98432648
vt 0.37792751 0.98418397
vt 0.38150832 0.98448277
vt 0.38154066 0.98383361
vt 0.38312608 0.98463684
vt 0.38326624 0.98347378
vt 0.37623677 0.98425305
vt 0.38443395 0.98315758
vt 0.37567833 0.97349906
vt 0.37593511 0.97253257
vt 0.58158159 0.00739777
vt 0.57993990 0.00756365
vt 0.57810897 0.00770742
vt 0.58253837 0.00736415
vt 0.58030701 0.00903398
vt 0.58184510 0.00880647
vt 0.58156079 0.00973296
vt 0.58255726 0.00820476
vt 0.57870537 0.00928444
vt 0.57676035 0.00832540
vt 0.58061355 0.01003075
vt 0.58240718 0.00925303
vt 0.57722056 0.00965732
vt 0.57913423 0.01042521
vt 0.58229518 0.01024610
vt 0.57764333 0.01079923
vt 0.57569253 0.01022846
vt 0.57597923 0.01126409
vt 0.57440716 0.01046097
vt 0.57530528 0.00854141
vt 0.57453763 0.01182687
vt 0.57417417 0.00881243
vt 0.58089167 0.01072216
vt 0.58283454 0.01147026
vt 0.57945454 0.01114786
vt 0.58384180 0.01129240
vt 0.58394718 0.01040977
vt 0.58130985 0.01170069
vt 0.58313531 0.01222742
vt 0.58460265 0.01183856
vt 0.58450502 0.01256984
vt 0.58537734 0.01232868
vt 0.58525985 0.01156431
vt 0.58463317 0.01094818
vt 0.58330226 0.00879955
vt 0.58510911 0.01050693
vt 0.58461183 0.01000756
vt 0.58332503 0.00738448
vt 0.58450186 0.00893515
vt 0.58433777 0.00743520
vt 0.58424413 0.00639325
vt 0.58527154 0.00897568
vt 0.57358253 0.01038188
vt 0.58537734 0.00744808
vt 0.27848196 0.52188081
vt 0.27879784 0.52303761
vt 0.27927205 0.52205145
vt 0.27789158 0.52226967
vt 0.27813908 0.52309489
vt 0.27899739 0.52448416
vt 0.27838153 0.52451968
vt 0.27905193 0.52552027
vt 0.27711549 0.52314514
vt 0.27858779 0.52598703
vt 0.27910343 0.52648330
vt 0.27855271 0.52740085
vt 0.27922982 0.52737671
vt 0.27713510 0.52456397
vt 0.27713785 0.52597737
vt 0.27715161 0.52742153
vt 0.27722549 0.52936131
vt 0.27891684 0.52935529
vt 0.27941081 0.52846551
vt 0.27586773 0.52459437
vt 0.27590498 0.52316922
vt 0.27583295 0.52602243
vt 0.27582347 0.52746075
vt 0.27711022 0.52215421
vt 0.27581558 0.52935362
vt 0.27877575 0.53093708
vt 0.27591631 0.52209538
vt 0.27971697 0.53021425
vt 0.27740014 0.53112465
vt 0.27478573 0.52458793
vt 0.27472064 0.52605909
vt 0.27482504 0.52312422
vt 0.27580920 0.53113806
vt 0.27481911 0.52221262
vt 0.27936956 0.52291584
vt 0.27760127 0.53210664
vt 0.27942148 0.53187811
vt 0.27168313 0.52589095
vt 0.27135715 0.52748513
vt 0.27283591 0.52597189
vt 0.27048004 0.52701664
vt 0.27044341 0.52580208
vt 0.27285966 0.52745438
vt 0.27367002 0.52748471
vt 0.27376083 0.52850229
vt 0.27059215 0.52799094
vt 0.27307168 0.52933043
vt 0.27161229 0.52931893
vt 0.27075854 0.52924049
vt 0.26966742 0.52913612
vt 0.26985851 0.52741086
vt 0.27388489 0.53010678
vt 0.27448249 0.52932966
vt 0.27182361 0.53074932
vt 0.26842371 0.52905530
vt 0.26964855 0.52577233
vt 0.27482948 0.53089231
vt 0.26854897 0.53107625
vt 0.26951554 0.53116798
vt 0.27113935 0.53127891
vt 0.26844594 0.52732772
vt 0.27465233 0.52749926
vt 0.27179465 0.52438653
vt 0.27054766 0.52431083
vt 0.26983199 0.52426696
vt 0.27363977 0.52602655
vt 0.27072716 0.52315164
vt 0.27297315 0.52445912
vt 0.26749861 0.52907288
vt 0.26759470 0.53101158
vt 0.27277714 0.53135997
vt 0.26750648 0.52742136
vt 0.27167237 0.52281678
vt 0.27092037 0.52224386
vt 0.27376282 0.52452254
vt 0.26661852 0.53096086
vt 0.26864782 0.52579850
vt 0.27329606 0.52300823
vt 0.26753694 0.53236169
vt 0.26663792 0.52912706
vt 0.27424061 0.53145552
vt 0.27300701 0.53265661
vt 0.27435631 0.53243583
vt 0.27218261 0.53184325
vt 0.27112824 0.53251916
vt 0.27218586 0.53235292
vt 0.27405453 0.52305800
vt 0.26971400 0.53265554
vt 0.26650944 0.53260303
vt 0.27580190 0.53199613
vt 0.27581942 0.53223979
vt 0.27426210 0.52232653
vt 0.26848128 0.53284210
vt 0.27210689 0.52203357
vt 0.27355775 0.52191776
vt 0.27759442 0.53248966
vt 0.27927205 0.53305399
vt 0.57272047 0.92975479
vt 0.57939291 0.93979096
vt 0.58322179 0.93835092
vt 0.58331722 0.93978453
vt 0.58526087 0.93975204
vt 0.58516437 0.93831331
vt 0.59091598 0.93834710
vt 0.59079343 0.93976438
vt 0.59264779 0.93830872
vt 0.59265810 0.93975353
vt 0.59397274 0.93830061
vt 0.57932419 0.93695855
vt 0.58273250 0.93695253
vt 0.58537549 0.93695533
vt 0.58901024 0.93695259
vt 0.59131819 0.93694770
vt 0.59263659 0.93694204
vt 0.59396309 0.93693662
vt 0.59395134 0.93557799
vt 0.59229404 0.93423265
vt 0.59216636 0.93563110
vt 0.58897394 0.93423456
vt 0.58899301 0.93559325
vt 0.58534700 0.93424833
vt 0.58536279 0.93559945
vt 0.58272278 0.93560171
vt 0.58270955 0.93425614
vt 0.57932645 0.93560928
vt 0.57789475 0.92971635
vt 0.57599980 0.92909688
vt 0.57407212 0.93039274
vt 0.57407916 0.92848057
vt 0.57252544 0.92699766
vt 0.57409596 0.92587149
vt 0.57205325 0.92520314
vt 0.57409811 0.92384279
vt 0.57196438 0.92379981
vt 0.57050216 0.92113465
vt 0.57206267 0.92249936
vt 0.57408839 0.92095155
vt 0.57409793 0.92250288
vt 0.57535648 0.92119831
vt 0.57535267 0.92251080
vt 0.57535988 0.92384249
vt 0.57818913 0.92255294
vt 0.57657725 0.92384422
vt 0.57537103 0.92519492
vt 0.57537210 0.92718720
vt 0.57660460 0.92585528
vt 0.57661825 0.92782354
vt 0.57780874 0.92747033
vt 0.57920051 0.92779392
vt 0.57922482 0.92970562
vt 0.58059204 0.93002903
vt 0.58132803 0.93295074
vt 0.58198291 0.93099815
vt 0.58337116 0.93294472
vt 0.58533317 0.93293798
vt 0.58401036 0.93165278
vt 0.58696645 0.93163633
vt 0.59011674 0.93290913
vt 0.59060633 0.93159944
vt 0.59260213 0.93158484
vt 0.59368861 0.93289369
vt 0.59329265 0.92886311
vt 0.59329826 0.92758912
vt 0.58912110 0.92703611
vt 0.59028763 0.92890173
vt 0.58663756 0.92867512
vt 0.58728915 0.92706704
vt 0.58527815 0.92647195
vt 0.58293599 0.92777348
vt 0.58257091 0.92650634
vt 0.58055443 0.92778975
vt 0.58053535 0.92650819
vt 0.57918036 0.92584884
vt 0.58051282 0.92454261
vt 0.58218366 0.92455310
vt 0.58249325 0.92261869
vt 0.58051687 0.92259139
vt 0.57850397 0.92386073
vt 0.57754838 0.92122996
vt 0.58055955 0.92058641
vt 0.58186311 0.92129153
vt 0.58190328 0.91920596
vt 0.58318329 0.91952205
vt 0.58447307 0.92018425
vt 0.58579165 0.92153800
vt 0.58577323 0.91974115
vt 0.58582890 0.91827989
vt 0.58455426 0.91701901
vt 0.58319676 0.91554463
vt 0.58456051 0.91579628
vt 0.58590478 0.91691124
vt 0.58728051 0.91549909
vt 0.58715904 0.91684020
vt 0.58848590 0.91543669
vt 0.58837384 0.91681701
vt 0.58704519 0.91822177
vt 0.58829123 0.91819948
vt 0.58828217 0.91972882
vt 0.58699602 0.91972131
vt 0.58823103 0.92136937
vt 0.58742630 0.92271465
vt 0.58517975 0.92389899
vt 0.58388615 0.92520815
vt 0.58689594 0.92514139
vt 0.58717459 0.92392111
vt 0.58939183 0.92394692
vt 0.58927679 0.92524374
vt 0.59063703 0.92641425
vt 0.59199268 0.92525297
vt 0.59331417 0.92638856
vt 0.59392756 0.92397529
vt 0.59017473 0.90808809
vt 0.58879781 0.90811813
vt 0.58621633 0.90818995
vt 0.57279623 0.91797662
vt 0.57209724 0.91987830
vt 0.57599986 0.91734439
vt 0.57537037 0.91925400
vt 0.57659668 0.91925359
vt 0.57854408 0.91990054
vt 0.57856435 0.91859186
vt 0.58059961 0.91789609
vt 0.58190894 0.91653222
vt 0.58253354 0.91344160
vt 0.58254600 0.91219085
vt 0.58255649 0.91090733
vt 0.58591610 0.91080016
vt 0.58456695 0.91203946
vt 0.58602858 0.91190439
vt 0.58601421 0.91311032
vt 0.58454800 0.91350138
vt 0.58599257 0.91436034
vt 0.58737433 0.91421378
vt 0.58861679 0.91411793
vt 0.58808857 0.91286397
vt 0.58998191 0.91272610
vt 0.58746916 0.91176790
vt 0.58961546 0.91190767
vt 0.59122771 0.91270715
vt 0.59121430 0.91411662
vt 0.59263605 0.91271019
vt 0.59266490 0.91416538
vt 0.59419137 0.91271484
vt 0.59416795 0.91136229
vt 0.59265596 0.91138124
vt 0.59413862 0.91011566
vt 0.59274113 0.91020024
vt 0.59132200 0.91144305
vt 0.59146470 0.91035956
vt 0.58900195 0.91047853
vt 0.58746082 0.91064084
vt 0.58743525 0.90944600
vt 0.58602035 0.90949225
vt 0.58458775 0.90955502
vt 0.59023398 0.90937757
vt 0.58884442 0.90941823
vt 0.59260237 0.90919816
vt 0.59419012 0.91419208
vt 0.59208715 0.92397159
vt 0.58983046 0.92134625
vt 0.59196419 0.92277372
vt 0.59405226 0.92269510
vt 0.59270322 0.92137676
vt 0.59131676 0.92138803
vt 0.59408230 0.92137003
vt 0.57785362 0.92518586
vt 0.58194393 0.92905742
vt 0.58398008 0.92904192
vt 0.58399665 0.93034130
vt 0.58663690 0.93031543
vt 0.58928448 0.93025887
vt 0.59194243 0.93022251
vt 0.59395564 0.93021059
vt 0.58988035 0.91408777
vt 0.59129292 0.91978097
vt 0.59270310 0.91979742
vt 0.59409112 0.91981739
vt 0.58977574 0.91975540
vt 0.59520161 0.91844779
vt 0.59411728 0.91706133
vt 0.59268284 0.91701680
vt 0.59269452 0.91834736
vt 0.59124112 0.91693175
vt 0.59126842 0.91828799
vt 0.58975345 0.91822255
vt 0.58976704 0.91684741
vt 0.58980173 0.91543734
vt 0.59121615 0.91550517
vt 0.59267396 0.91559291
vt 0.58980578 0.94123340
vt 0.59134459 0.94123107
vt 0.58544171 0.94124788
vt 0.20334996 0.85068971
vt 0.20209150 0.85062128
vt 0.20080350 0.84937686
vt 0.19916400 0.85075498
vt 0.18665479 0.83666533
vt 0.18540497 0.83663887
vt 0.18547788 0.83468831
vt 0.18735424 0.83473879
vt 0.18466116 0.83979422
vt 0.18338238 0.83755338
vt 0.18343967 0.83528888
vt 0.18352656 0.83265448
vt 0.18647796 0.83339840
vt 0.18143293 0.83524162
vt 0.18157466 0.83163989
vt 0.18624030 0.83144134
vt 0.18787965 0.83668172
vt 0.18718591 0.83923531
vt 0.18904492 0.84182847
vt 0.19344743 0.84768879
vt 0.19606961 0.84975368
vt 0.19339167 0.84959930
vt 0.19678015 0.84774333
vt 0.19381109 0.84611338
vt 0.19476594 0.84588695
vt 0.19228755 0.84351128
vt 0.19416054 0.84332216
vt 0.19296072 0.84139591
vt 0.19102122 0.84128457
vt 0.18908331 0.83896005
vt 0.19038047 0.83898878
vt 0.19529863 0.84165871
vt 0.19233340 0.84004605
vt 0.19416232 0.84020412
vt 0.19530998 0.84026515
vt 0.19660331 0.84192568
vt 0.19388413 0.83881599
vt 0.19299993 0.83732730
vt 0.19478852 0.83756423
vt 0.19455688 0.83589548
vt 0.19305573 0.83511382
vt 0.19438054 0.83481407
vt 0.19634049 0.83476216
vt 0.19676025 0.83605975
vt 0.19815320 0.83482200
vt 0.19797015 0.83605033
vt 0.19766533 0.83348906
vt 0.19581552 0.83359277
vt 0.19661015 0.83251834
vt 0.19449869 0.83356136
vt 0.19369461 0.83316791
vt 0.19172604 0.83769393
vt 0.19047521 0.83541727
vt 0.18918678 0.83541089
vt 0.19125032 0.83288807
vt 0.19183557 0.83415484
vt 0.19900109 0.83244252
vt 0.20032454 0.83364141
vt 0.19944055 0.83482736
vt 0.20227115 0.83488166
vt 0.20236465 0.83368623
vt 0.20372212 0.83494174
vt 0.20492153 0.83379591
vt 0.20278992 0.83252174
vt 0.19927534 0.83604437
vt 0.20451947 0.83141387
vt 0.20456949 0.83024836
vt 0.20692584 0.82904559
vt 0.20328712 0.82892692
vt 0.20333117 0.82759833
vt 0.20192131 0.83015651
vt 0.20066383 0.82882446
vt 0.19881774 0.83132637
vt 0.19932182 0.83004308
vt 0.19672112 0.82992458
vt 0.19444758 0.82889116
vt 0.19418715 0.82727391
vt 0.19808771 0.82804859
vt 0.19534212 0.83112472
vt 0.19364837 0.83137912
vt 0.19132841 0.83131939
vt 0.19209848 0.82914257
vt 0.18930893 0.83283979
vt 0.19008075 0.83002150
vt 0.18812786 0.83151579
vt 0.18822847 0.82899600
vt 0.18697409 0.82894403
vt 0.18428302 0.82979536
vt 0.19341500 0.82597655
vt 0.20070615 0.82750309
vt 0.20536244 0.82038277
vt 0.20568241 0.82640165
vt 0.20347065 0.82336050
vt 0.20224436 0.82096618
vt 0.20215477 0.81883729
vt 0.20173268 0.82626504
vt 0.20102698 0.82327443
vt 0.19966865 0.82016194
vt 0.19921564 0.82387775
vt 0.19739424 0.82008255
vt 0.19844833 0.81799567
vt 0.19815238 0.82613081
vt 0.19694726 0.82380140
vt 0.19448006 0.81927836
vt 0.19584143 0.81790793
vt 0.19325483 0.82135022
vt 0.19574942 0.82074416
vt 0.19665016 0.83738869
vt 0.19656262 0.84061104
vt 0.19666110 0.84434897
vt 0.19665335 0.84309685
vt 0.19779257 0.84335989
vt 0.19671318 0.84558988
vt 0.19810991 0.84705520
vt 0.19800939 0.84586364
vt 0.19789881 0.84457070
vt 0.19823013 0.84912610
vt 0.19944605 0.84825206
vt 0.19946356 0.84928823
vt 0.19569956 0.85102600
vt 0.20332955 0.84976065
vt 0.20207833 0.84954852
vt 0.20069602 0.84846342
vt 0.19933514 0.84728169
vt 0.19784971 0.83737689
vt 0.19915561 0.84612238
vt 0.20072024 0.83606207
vt 0.19902961 0.84482443
vt 0.19778283 0.83907318
vt 0.20223171 0.83611649
vt 0.19774503 0.84212565
vt 0.19776626 0.84075940
vt 0.19924441 0.83747280
vt 0.20376840 0.83620358
vt 0.20529258 0.83629417
vt 0.19909844 0.84347230
vt 0.19876067 0.83910495
vt 0.19876702 0.84221786
vt 0.20065509 0.83716959
vt 0.20224783 0.83701384
vt 0.19857657 0.84083140
vt 0.20031646 0.84619564
vt 0.20065939 0.84731829
vt 0.20383485 0.83698952
vt 0.20003244 0.84488046
vt 0.20202340 0.84856790
vt 0.20327492 0.84895855
vt 0.19984367 0.84387803
vt 0.20160146 0.84766710
f 97/97 90/90 98/98
f 15/15 22/22 14/14
f 14/14 13/13 12/12
f 14/14 22/22 5/5
f 14/14 5/5 13/13
f 193/193 195/195 196/196
f 91/91 77/77 90/90
f 92/92 91/91 90/90
f 5/5 1/1 6/6
f 1/1 2/2 3/3
f 8/8 10/10 9/9
f 10/10 16/16 11/11
f 143/143 113/113 114/114
f 154/154 143/143 114/114
f 25/25 24/24 22/22
f 90/90 42/42 98/98
f 77/77 40/40 42/42
f 90/90 77/77 42/42
f 40/40 33/33 41/41
f 42/42 40/40 41/41
f 22/22 24/24 23/23
f 22/22 23/23 5/5
f 33/33 29/29 43/43
f 41/41 33/33 43/43
f 5/5 23/23 21/21
f 5/5 21/21 1/1
f 43/43 29/29 30/30
f 43/43 30/30 57/57
f 1/1 21/21 20/20
f 1/1 20/20 2/2
f 57/57 30/30 49/49
f 57/57 49/49 64/64
f 2/2 20/20 18/18
f 2/2 18/18 4/4
f 49/49 54/54 68/68
f 64/64 49/49 68/68
f 18/18 17/17 8/8
f 4/4 18/18 8/8
f 54/54 63/63 65/65
f 68/68 54/54 65/65
f 17/17 19/19 10/10
f 8/8 17/17 10/10
f 63/63 67/67 66/66
f 65/65 63/63 66/66
f 198/198 174/174 177/177
f 635/635 625/625 626/626
f 626/626 625/625 553/553
f 559/559 560/560 561/561
f 174/174 172/172 175/175
f 172/172 168/168 165/165
f 165/165 168/168 164/164
f 158/158 164/164 160/160
f 157/157 160/160 161/161
f 156/156 161/161 163/163
f 163/163 190/190 193/193
f 159/159 163/163 193/193
f 119/119 120/120 110/110
f 119/119 110/110 109/109
f 193/193 190/190 194/194
f 193/193 194/194 195/195
f 194/194 197/197 199/199
f 195/195 194/194 199/199
f 75/75 39/39 38/38
f 77/77 75/75 38/38
f 70/70 95/95 96/96
f 69/69 70/70 96/96
f 38/38 39/39 32/32
f 38/38 32/32 33/33
f 32/32 26/26 29/29
f 33/33 32/32 29/29
f 29/29 26/26 28/28
f 29/29 28/28 30/30
f 28/28 50/50 49/49
f 30/30 28/28 49/49
f 50/50 55/55 54/54
f 49/49 50/50 54/54
f 54/54 55/55 62/62
f 54/54 62/62 63/63
f 492/492 613/613 612/612
f 613/613 637/637 638/638
f 612/612 613/613 638/638
f 635/635 631/631 621/621
f 635/635 621/621 625/625
f 621/621 551/551 553/553
f 625/625 621/621 553/553
f 553/553 551/551 552/552
f 553/553 552/552 554/554
f 554/554 552/552 555/555
f 558/558 562/562 560/560
f 561/561 587/587 583/583
f 583/583 587/587 584/584
f 584/584 585/585 582/582
f 174/174 176/176 173/173
f 174/174 173/173 172/172
f 173/173 171/171 168/168
f 172/172 173/173 168/168
f 168/168 171/171 169/169
f 168/168 169/169 164/164
f 164/164 169/169 166/166
f 164/164 166/166 160/160
f 160/160 166/166 162/162
f 160/160 162/162 161/161
f 162/162 170/170 167/167
f 161/161 162/162 167/167
f 167/167 170/170 182/182
f 167/167 182/182 190/190
f 190/190 182/182 192/192
f 190/190 192/192 194/194
f 192/192 191/191 197/197
f 194/194 192/192 197/197
f 75/75 76/76 44/44
f 75/75 44/44 39/39
f 70/70 71/71 94/94
f 70/70 94/94 95/95
f 39/39 44/44 34/34
f 39/39 34/34 32/32
f 32/32 34/34 31/31
f 32/32 31/31 26/26
f 26/26 31/31 27/27
f 26/26 27/27 28/28
f 28/28 27/27 48/48
f 28/28 48/48 50/50
f 50/50 48/48 56/56
f 50/50 56/56 55/55
f 55/55 56/56 60/60
f 55/55 60/60 62/62
f 493/493 494/494 613/613
f 613/613 494/494 614/614
f 613/613 614/614 637/637
f 614/614 634/634 640/640
f 637/637 614/614 640/640
f 631/631 630/630 618/618
f 631/631 618/618 621/621
f 618/618 550/550 551/551
f 621/621 618/618 551/551
f 551/551 550/550 549/549
f 551/551 549/549 552/552
f 552/552 549/549 555/555
f 555/555 564/564 557/557
f 557/557 564/564 562/562
f 562/562 563/563 560/560
f 563/563 581/581 561/561
f 560/560 563/563 561/561
f 561/561 581/581 587/587
f 587/587 588/588 584/584
f 584/584 588/588 585/585
f 292/292 257/257 269/269
f 278/278 292/292 269/269
f 257/257 254/254 268/268
f 269/269 257/257 268/268
f 254/254 260/260 271/271
f 268/268 254/254 271/271
f 271/271 260/260 276/276
f 180/180 183/183 178/178
f 178/178 183/183 179/179
f 178/178 179/179 170/170
f 170/170 179/179 181/181
f 170/170 181/181 182/182
f 181/181 185/185 189/189
f 182/182 181/181 189/189
f 189/189 185/185 188/188
f 189/189 188/188 191/191
f 73/73 59/59 44/44
f 76/76 73/73 44/44
f 44/44 59/59 51/51
f 44/44 51/51 37/37
f 58/58 72/72 71/71
f 61/61 58/58 71/71
f 71/71 72/72 93/93
f 71/71 93/93 94/94
f 37/37 51/51 35/35
f 37/37 35/35 31/31
f 35/35 36/36 27/27
f 31/31 35/35 27/27
f 36/36 47/47 48/48
f 27/27 36/36 48/48
f 48/48 47/47 53/53
f 48/48 53/53 56/56
f 495/495 610/610 494/494
f 494/494 610/610 609/609
f 494/494 609/609 614/614
f 614/614 609/609 615/615
f 614/614 615/615 634/634
f 615/615 617/617 633/633
f 634/634 615/615 633/633
f 617/617 619/619 636/636
f 633/633 617/617 636/636
f 619/619 627/627 639/639
f 636/636 619/619 639/639
f 624/624 556/556 618/618
f 630/630 624/624 618/618
f 618/618 556/556 550/550
f 549/549 548/548 555/555
f 555/555 548/548 564/564
f 564/564 565/565 562/562
f 562/562 565/565 563/563
f 587/587 590/590 588/588
f 588/588 589/589 585/585
f 585/585 589/589 586/586
f 281/281 270/270 283/283
f 285/285 281/281 283/283
f 253/253 247/247 248/248
f 259/259 253/253 248/248
f 247/247 238/238 245/245
f 248/248 247/247 245/245
f 240/240 241/241 255/255
f 250/250 240/240 255/255
f 241/241 263/263 264/264
f 255/255 241/241 264/264
f 264/264 263/263 266/266
f 184/184 186/186 185/185
f 266/266 272/272 273/273
f 185/185 186/186 187/187
f 273/273 272/272 293/293
f 74/74 78/78 59/59
f 78/78 82/82 51/51
f 59/59 78/78 51/51
f 51/51 82/82 83/83
f 51/51 83/83 45/45
f 79/79 80/80 58/58
f 52/52 79/79 58/58
f 58/58 80/80 81/81
f 58/58 81/81 72/72
f 72/72 81/81 84/84
f 72/72 84/84 93/93
f 45/45 83/83 46/46
f 45/45 46/46 36/36
f 36/36 46/46 47/47
f 495/495 608/608 610/610
f 610/610 608/608 609/609
f 609/609 608/608 605/605
f 609/609 605/605 615/615
f 615/615 605/605 606/606
f 615/615 606/606 617/617
f 606/606 607/607 619/619
f 617/617 606/606 619/619
f 607/607 603/603 627/627
f 619/619 607/607 627/627
f 603/603 622/622 629/629
f 627/627 603/603 629/629
f 622/622 623/623 632/632
f 629/629 622/622 632/632
f 632/632 623/623 620/620
f 632/632 620/620 628/628
f 628/628 620/620 616/616
f 628/628 616/616 624/624
f 616/616 537/537 556/556
f 624/624 616/616 556/556
f 537/537 536/536 550/550
f 556/556 537/537 550/550
f 536/536 538/538 549/549
f 550/550 536/536 549/549
f 549/549 538/538 548/548
f 565/565 569/569 563/563
f 563/563 569/569 581/581
f 569/569 593/593 587/587
f 581/581 569/569 587/587
f 587/587 593/593 590/590
f 588/588 590/590 589/589
f 256/256 252/252 251/251
f 280/280 256/256 251/251
f 244/244 243/243 242/242
f 246/246 244/244 242/242
f 243/243 265/265 239/239
f 242/242 243/243 239/239
f 207/207 209/209 210/210
f 139/139 138/138 129/129
f 265/265 274/274 267/267
f 239/239 265/265 267/267
f 274/274 286/286 277/277
f 267/267 274/274 277/277
f 277/277 286/286 291/291
f 277/277 291/291 294/294
f 89/89 87/87 83/83
f 82/82 89/89 83/83
f 87/87 86/86 79/79
f 83/83 87/87 79/79
f 79/79 86/86 85/85
f 79/79 85/85 80/80
f 80/80 85/85 88/88
f 80/80 88/88 81/81
f 495/495 514/514 608/608
f 608/608 514/514 605/605
f 605/605 514/514 604/604
f 605/605 604/604 606/606
f 606/606 604/604 601/601
f 606/606 601/601 607/607
f 607/607 601/601 602/602
f 607/607 602/602 603/603
f 603/603 602/602 527/527
f 603/603 527/527 622/622
f 527/527 600/600 623/623
f 622/622 527/527 623/623
f 623/623 600/600 620/620
f 620/620 600/600 599/599
f 620/620 599/599 616/616
f 599/599 535/535 537/537
f 616/616 599/599 537/537
f 535/535 534/534 536/536
f 537/537 535/535 536/536
f 536/536 534/534 538/538
f 538/538 540/540 548/548
f 548/548 540/540 564/564
f 564/564 566/566 565/565
f 565/565 566/566 569/569
f 593/593 594/594 590/590
f 590/590 594/594 591/591
f 590/590 591/591 589/589
f 589/589 591/591 592/592
f 495/495 512/512 515/515
f 495/495 515/515 514/514
f 514/514 515/515 516/516
f 514/514 516/516 604/604
f 602/602 601/601 523/523
f 602/602 523/523 527/527
f 527/527 523/523 526/526
f 527/527 526/526 600/600
f 526/526 530/530 599/599
f 600/600 526/526 599/599
f 530/530 531/531 535/535
f 599/599 530/530 535/535
f 535/535 531/531 534/534
f 534/534 539/539 538/538
f 538/538 539/539 540/540
f 540/540 570/570 564/564
f 564/564 570/570 566/566
f 566/566 567/567 569/569
f 567/567 568/568 569/569
f 569/569 568/568 580/580
f 569/569 580/580 593/593
f 593/593 580/580 594/594
f 594/594 598/598 591/591
f 611/611 513/513 512/512
f 512/512 513/513 511/511
f 512/512 511/511 515/515
f 516/516 518/518 601/601
f 604/604 516/516 601/601
f 601/601 518/518 523/523
f 523/523 525/525 526/526
f 526/526 525/525 528/528
f 526/526 528/528 530/530
f 531/531 533/533 534/534
f 533/533 541/541 539/539
f 534/534 533/533 539/539
f 541/541 542/542 540/540
f 539/539 541/541 540/540
f 540/540 542/542 570/570
f 570/570 571/571 566/566
f 566/566 571/571 567/567
f 594/594 597/597 598/598
f 598/598 595/595 591/591
f 591/591 595/595 596/596
f 516/516 515/515 517/517
f 516/516 517/517 518/518
f 518/518 519/519 523/523
f 523/523 524/524 525/525
f 525/525 524/524 528/528
f 528/528 529/529 530/530
f 529/529 532/532 531/531
f 530/530 529/529 531/531
f 531/531 532/532 533/533
f 532/532 542/542 541/541
f 533/533 532/532 541/541
f 542/542 571/571 570/570
f 598/598 597/597 595/595
f 524/524 543/543 528/528
f 528/528 543/543 529/529
f 529/529 543/543 532/532
f 532/532 543/543 547/547
f 532/532 547/547 542/542
f 547/547 546/546 571/571
f 542/542 547/547 571/571
f 571/571 546/546 572/572
f 572/572 573/573 567/567
f 571/571 572/572 567/567
f 567/567 573/573 568/568
f 524/524 522/522 543/543
f 543/543 522/522 544/544
f 543/543 544/544 547/547
f 544/544 546/546 547/547
f 572/572 575/575 573/573
f 520/520 521/521 522/522
f 521/521 545/545 544/544
f 522/522 521/521 544/544
f 545/545 574/574 546/546
f 544/544 545/545 546/546
f 546/546 574/574 572/572
f 574/574 575/575 572/572
f 510/510 509/509 521/521
f 509/509 508/508 521/521
f 521/521 508/508 545/545
f 545/545 508/508 499/499
f 499/499 504/504 574/574
f 545/545 499/499 574/574
f 574/574 504/504 576/576
f 574/574 576/576 575/575
f 576/576 577/577 575/575
f 509/509 496/496 508/508
f 508/508 496/496 499/499
f 504/504 507/507 576/576
f 576/576 507/507 578/578
f 500/500 497/497 496/496
f 509/509 500/500 496/496
f 496/496 497/497 498/498
f 496/496 498/498 499/499
f 499/499 498/498 504/504
f 507/507 579/579 578/578
f 500/500 501/501 497/497
f 501/501 502/502 497/497
f 497/497 502/502 498/498
f 498/498 502/502 503/503
f 498/498 503/503 504/504
f 504/504 503/503 507/507
f 507/507 503/503 579/579
f 501/501 505/505 502/502
f 502/502 505/505 503/503
f 503/503 506/506 579/579
f 7/7 13/13 5/5
f 108/108 114/114 113/113
f 109/109 108/108 113/113
f 143/143 154/154 155/155
f 96/96 66/66 67/67
f 456/456 445/445 446/446
f 446/446 445/445 444/444
f 444/444 443/443 440/440
f 440/440 442/442 441/441
f 441/441 457/457 488/488
f 488/488 479/479 480/480
f 480/480 478/478 481/481
f 481/481 476/476 475/475
f 475/475 464/464 462/462
f 462/462 461/461 460/460
f 460/460 410/410 458/458
f 458/458 410/410 408/408
f 471/471 472/472 359/359
f 316/316 315/315 317/317
f 317/317 314/314 313/313
f 313/313 307/307 305/305
f 305/305 307/307 306/306
f 147/147 152/152 144/144
f 144/144 135/135 134/134
f 134/134 135/135 102/102
f 102/102 105/105 100/100
f 106/106 109/109 110/110
f 119/119 109/109 113/113
f 143/143 119/119 113/113
f 119/119 143/143 142/142
f 120/120 119/119 142/142
f 40/40 77/77 38/38
f 40/40 38/38 33/33
f 69/69 96/96 67/67
f 63/63 69/69 67/67
f 69/69 63/63 62/62
f 70/70 69/69 62/62
f 456/456 446/446 448/448
f 446/446 444/444 447/447
f 448/448 446/446 447/447
f 444/444 440/440 438/438
f 447/447 444/444 438/438
f 440/440 441/441 439/439
f 438/438 440/440 439/439
f 441/441 488/488 487/487
f 439/439 441/441 487/487
f 487/487 488/488 480/480
f 487/487 480/480 482/482
f 482/482 480/480 481/481
f 482/482 481/481 483/483
f 481/481 475/475 474/474
f 483/483 481/481 474/474
f 475/475 462/462 463/463
f 474/474 475/475 463/463
f 463/463 462/462 460/460
f 408/408 409/409 407/407
f 407/407 362/362 363/363
f 363/363 361/361 364/364
f 364/364 361/361 471/471
f 471/471 359/359 358/358
f 359/359 360/360 357/357
f 358/358 359/359 357/357
f 357/357 360/360 316/316
f 317/317 313/313 312/312
f 313/313 305/305 303/303
f 312/312 313/313 303/303
f 305/305 306/306 304/304
f 303/303 305/305 304/304
f 304/304 306/306 490/490
f 146/146 147/147 144/144
f 146/146 144/144 145/145
f 144/144 134/134 125/125
f 145/145 144/144 125/125
f 125/125 134/134 102/102
f 125/125 102/102 103/103
f 102/102 100/100 99/99
f 103/103 102/102 99/99
f 101/101 100/100 104/104
f 99/99 100/100 101/101
f 99/99 101/101 112/112
f 107/107 101/101 104/104
f 112/112 101/101 107/107
f 112/112 107/107 115/115
f 163/163 161/161 167/167
f 163/163 167/167 190/190
f 107/107 106/106 110/110
f 120/120 107/107 110/110
f 115/115 107/107 120/120
f 115/115 120/120 123/123
f 120/120 142/142 141/141
f 123/123 120/120 141/141
f 70/70 62/62 60/60
f 71/71 70/70 60/60
f 411/411 456/456 454/454
f 454/454 456/456 448/448
f 454/454 448/448 449/449
f 449/449 448/448 447/447
f 449/449 447/447 437/437
f 437/437 447/447 438/438
f 437/437 438/438 435/435
f 435/435 438/438 439/439
f 435/435 439/439 473/473
f 439/439 487/487 486/486
f 473/473 439/439 486/486
f 487/487 482/482 485/485
f 486/486 487/487 485/485
f 482/482 483/483 484/484
f 485/485 482/482 484/484
f 483/483 474/474 477/477
f 484/484 483/483 477/477
f 474/474 463/463 459/459
f 477/477 474/474 459/459
f 463/463 460/460 459/459
f 460/460 458/458 405/405
f 459/459 460/460 405/405
f 458/458 408/408 406/406
f 405/405 458/458 406/406
f 406/406 408/408 407/407
f 364/364 471/471 470/470
f 470/470 471/471 358/358
f 357/357 316/316 318/318
f 318/318 316/316 317/317
f 318/318 317/317 319/319
f 317/317 312/312 311/311
f 319/319 317/317 311/311
f 311/311 312/312 303/303
f 275/275 288/288 278/278
f 275/275 278/278 269/269
f 148/148 146/146 145/145
f 148/148 145/145 149/149
f 145/145 125/125 116/116
f 149/149 145/145 116/116
f 275/275 269/269 268/268
f 279/279 275/275 268/268
f 116/116 125/125 103/103
f 116/116 103/103 111/111
f 279/279 268/268 271/271
f 169/169 171/171 180/180
f 111/111 103/103 99/99
f 111/111 99/99 118/118
f 166/166 169/169 180/180
f 166/166 180/180 178/178
f 118/118 99/99 112/112
f 118/118 112/112 121/121
f 162/162 166/166 178/178
f 162/162 178/178 170/170
f 112/112 115/115 122/122
f 121/121 112/112 122/122
f 115/115 123/123 126/126
f 122/122 115/115 126/126
f 192/192 182/182 189/189
f 192/192 189/189 191/191
f 123/123 141/141 136/136
f 126/126 123/123 136/136
f 34/34 44/44 37/37
f 34/34 37/37 31/31
f 61/61 71/71 60/60
f 56/56 61/61 60/60
f 58/58 61/61 56/56
f 58/58 56/56 53/53
f 412/412 454/454 455/455
f 455/455 454/454 449/449
f 437/437 435/435 434/434
f 435/435 473/473 433/433
f 434/434 435/435 433/433
f 473/473 486/486 393/393
f 433/433 473/473 393/393
f 486/486 485/485 394/394
f 393/393 486/486 394/394
f 485/485 484/484 396/396
f 394/394 485/485 396/396
f 396/396 484/484 477/477
f 396/396 477/477 397/397
f 397/397 477/477 459/459
f 397/397 459/459 399/399
f 399/399 459/459 400/400
f 400/400 459/459 405/405
f 406/406 407/407 363/363
f 470/470 358/358 356/356
f 356/356 358/358 357/357
f 257/257 292/292 287/287
f 257/257 287/287 258/258
f 287/287 284/284 259/259
f 258/258 287/287 259/259
f 284/284 285/285 283/283
f 259/259 284/284 283/283
f 253/253 259/259 283/283
f 253/253 283/283 270/270
f 150/150 148/148 149/149
f 150/150 149/149 151/151
f 149/149 116/116 117/117
f 151/151 149/149 117/117
f 257/257 258/258 249/249
f 254/254 257/257 249/249
f 249/249 258/258 259/259
f 249/249 259/259 248/248
f 117/117 116/116 111/111
f 117/117 111/111 124/124
f 254/254 249/249 250/250
f 260/260 254/254 250/250
f 249/249 248/248 245/245
f 250/250 249/249 245/245
f 240/240 250/250 245/245
f 240/240 245/245 238/238
f 124/124 111/111 118/118
f 124/124 118/118 128/128
f 260/260 250/250 255/255
f 276/276 260/260 255/255
f 118/118 121/121 129/129
f 128/128 118/118 129/129
f 276/276 255/255 264/264
f 179/179 183/183 184/184
f 121/121 122/122 130/130
f 129/129 121/121 130/130
f 181/181 179/179 184/184
f 181/181 184/184 185/185
f 122/122 126/126 131/131
f 130/130 122/122 131/131
f 188/188 185/185 187/187
f 73/73 74/74 59/59
f 126/126 136/136 132/132
f 131/131 126/126 132/132
f 35/35 51/51 45/45
f 35/35 45/45 36/36
f 47/47 52/52 58/58
f 47/47 58/58 53/53
f 52/52 47/47 46/46
f 79/79 52/52 46/46
f 412/412 455/455 451/451
f 451/451 455/455 449/449
f 451/451 449/449 450/450
f 450/450 449/449 437/437
f 450/450 437/437 436/436
f 436/436 437/437 434/434
f 434/434 433/433 432/432
f 433/433 393/393 391/391
f 432/432 433/433 391/391
f 393/393 394/394 392/392
f 391/391 393/393 392/392
f 394/394 396/396 395/395
f 392/392 394/394 395/395
f 395/395 396/396 397/397
f 395/395 397/397 398/398
f 398/398 397/397 399/399
f 400/400 405/405 404/404
f 405/405 406/406 403/403
f 404/404 405/405 403/403
f 403/403 406/406 363/363
f 403/403 363/363 366/366
f 363/363 364/364 365/365
f 366/366 363/363 365/365
f 364/364 470/470 469/469
f 365/365 364/364 469/469
f 469/469 470/470 356/356
f 303/303 304/304 301/301
f 301/301 304/304 489/489
f 281/281 282/282 280/280
f 270/270 281/281 280/280
f 282/282 290/290 289/289
f 280/280 282/282 289/289
f 256/256 280/280 289/289
f 256/256 289/289 232/232
f 289/289 290/290 295/295
f 289/289 295/295 235/235
f 289/289 235/235 228/228
f 232/232 289/289 228/228
f 235/235 295/295 296/296
f 235/235 296/296 236/236
f 235/235 236/236 225/225
f 228/228 235/235 225/225
f 253/253 270/270 246/246
f 247/247 253/253 246/246
f 270/270 280/280 251/251
f 246/246 270/270 251/251
f 244/244 246/246 251/251
f 244/244 251/251 252/252
f 127/127 151/151 117/117
f 127/127 117/117 124/124
f 153/153 151/151 127/127
f 225/225 227/227 217/217
f 127/127 124/124 133/133
f 217/217 227/227 218/218
f 247/247 246/246 242/242
f 238/238 247/247 242/242
f 133/133 124/124 128/128
f 133/133 128/128 137/137
f 240/240 238/238 237/237
f 241/241 240/240 237/237
f 238/238 242/242 239/239
f 237/237 238/238 239/239
f 128/128 129/129 138/138
f 137/137 128/128 138/138
f 241/241 237/237 262/262
f 263/263 241/241 262/262
f 237/237 239/239 267/267
f 262/262 237/237 267/267
f 139/139 129/129 130/130
f 140/140 139/139 130/130
f 207/207 205/205 206/206
f 209/209 207/207 206/206
f 266/266 263/263 262/262
f 266/266 262/262 272/272
f 262/262 267/267 277/277
f 272/272 262/262 277/277
f 140/140 130/130 131/131
f 201/201 205/205 234/234
f 205/205 201/201 204/204
f 206/206 205/205 204/204
f 293/293 272/272 277/277
f 293/293 277/277 294/294
f 201/201 234/234 202/202
f 200/200 201/201 202/202
f 201/201 200/200 203/203
f 204/204 201/201 203/203
f 46/46 83/83 79/79
f 413/413 451/451 452/452
f 452/452 451/451 450/450
f 452/452 450/450 426/426
f 426/426 450/450 436/436
f 426/426 436/436 428/428
f 428/428 436/436 434/434
f 428/428 434/434 429/429
f 429/429 434/434 432/432
f 429/429 432/432 431/431
f 431/431 432/432 391/391
f 431/431 391/391 389/389
f 391/391 392/392 390/390
f 389/389 391/391 390/390
f 392/392 395/395 386/386
f 390/390 392/392 386/386
f 395/395 398/398 385/385
f 386/386 395/395 385/385
f 398/398 399/399 384/384
f 385/385 398/398 384/384
f 384/384 399/399 400/400
f 400/400 404/404 401/401
f 401/401 404/404 403/403
f 403/403 366/366 367/367
f 367/367 366/366 365/365
f 356/356 357/357 354/354
f 357/357 318/318 320/320
f 354/354 357/357 320/320
f 320/320 318/318 319/319
f 320/320 319/319 321/321
f 321/321 319/319 311/311
f 321/321 311/311 310/310
f 311/311 303/303 302/302
f 310/310 311/311 302/302
f 302/302 303/303 301/301
f 256/256 232/232 224/224
f 252/252 256/256 224/224
f 232/232 228/228 216/216
f 224/224 232/232 216/216
f 216/216 228/228 225/225
f 216/216 225/225 217/217
f 244/244 252/252 261/261
f 243/243 244/244 261/261
f 261/261 252/252 224/224
f 261/261 224/224 222/222
f 222/222 224/224 216/216
f 222/222 216/216 215/215
f 216/216 217/217 211/211
f 215/215 216/216 211/211
f 211/211 217/217 218/218
f 211/211 218/218 212/212
f 265/265 243/243 261/261
f 265/265 261/261 230/230
f 230/230 261/261 222/222
f 230/230 222/222 221/221
f 222/222 215/215 214/214
f 221/221 222/222 214/214
f 214/214 215/215 211/211
f 214/214 211/211 209/209
f 211/211 212/212 210/210
f 209/209 211/211 210/210
f 274/274 265/265 230/230
f 274/274 230/230 229/229
f 230/230 221/221 219/219
f 229/229 230/230 219/219
f 221/221 214/214 213/213
f 219/219 221/221 213/213
f 214/214 209/209 206/206
f 213/213 214/214 206/206
f 274/274 229/229 231/231
f 286/286 274/274 231/231
f 229/229 219/219 220/220
f 231/231 229/229 220/220
f 219/219 213/213 208/208
f 220/220 219/219 208/208
f 208/208 213/213 206/206
f 208/208 206/206 204/204
f 286/286 231/231 233/233
f 291/291 286/286 233/233
f 233/233 231/231 220/220
f 233/233 220/220 226/226
f 220/220 208/208 223/223
f 226/226 220/220 223/223
f 208/208 204/204 203/203
f 223/223 208/208 203/203
f 413/413 452/452 453/453
f 453/453 452/452 426/426
f 426/426 428/428 427/427
f 427/427 428/428 429/429
f 427/427 429/429 430/430
f 430/430 429/429 431/431
f 430/430 431/431 389/389
f 389/389 390/390 387/387
f 387/387 390/390 386/386
f 387/387 386/386 383/383
f 386/386 385/385 383/383
f 385/385 384/384 383/383
f 384/384 400/400 401/401
f 401/401 403/403 402/402
f 402/402 403/403 367/367
f 367/367 365/365 368/368
f 368/368 365/365 467/467
f 467/467 365/365 469/469
f 467/467 469/469 468/468
f 468/468 469/469 356/356
f 468/468 356/356 355/355
f 355/355 356/356 354/354
f 453/453 426/426 425/425
f 426/426 427/427 424/424
f 427/427 430/430 423/423
f 423/423 430/430 388/388
f 388/388 430/430 389/389
f 388/388 389/389 387/387
f 388/388 387/387 383/383
f 388/388 383/383 382/382
f 383/383 384/384 375/375
f 382/382 383/383 375/375
f 384/384 401/401 374/374
f 375/375 384/384 374/374
f 374/374 401/401 402/402
f 402/402 367/367 369/369
f 369/369 367/367 368/368
f 355/355 354/354 353/353
f 354/354 320/320 323/323
f 353/353 354/354 323/323
f 320/320 321/321 322/322
f 323/323 320/320 322/322
f 322/322 321/321 310/310
f 322/322 310/310 309/309
f 309/309 310/310 302/302
f 309/309 302/302 299/299
f 299/299 302/302 301/301
f 299/299 301/301 300/300
f 300/300 301/301 491/491
f 422/422 388/388 382/382
f 422/422 382/382 381/381
f 381/381 382/382 380/380
f 380/380 382/382 375/375
f 374/374 402/402 369/369
f 368/368 467/467 466/466
f 466/466 467/467 468/468
f 466/466 468/468 352/352
f 352/352 468/468 355/355
f 352/352 355/355 353/353
f 351/351 353/353 323/323
f 421/421 381/381 379/379
f 379/379 381/381 380/380
f 380/380 375/375 376/376
f 379/379 380/380 376/376
f 375/375 374/374 373/373
f 376/376 375/375 373/373
f 374/374 369/369 371/371
f 373/373 374/374 371/371
f 369/369 368/368 370/370
f 371/371 369/369 370/370
f 370/370 368/368 466/466
f 370/370 466/466 350/350
f 323/323 322/322 324/324
f 322/322 309/309 308/308
f 308/308 309/309 299/299
f 299/299 300/300 298/298
f 420/420 379/379 419/419
f 419/419 379/379 378/378
f 378/378 379/379 376/376
f 378/378 376/376 341/341
f 376/376 373/373 377/377
f 341/341 376/376 377/377
f 377/377 373/373 372/372
f 372/372 373/373 371/371
f 371/371 370/370 348/348
f 372/372 371/371 348/348
f 348/348 370/370 349/349
f 377/377 372/372 465/465
f 465/465 372/372 347/347
f 372/372 348/348 347/347
f 347/347 348/348 325/325
f 418/418 420/420 419/419
f 418/418 419/419 378/378
f 341/341 377/377 342/342
f 342/342 377/377 465/465
f 342/342 465/465 345/345
f 465/465 347/347 345/345
f 345/345 347/347 346/346
f 346/346 347/347 325/325
f 346/346 325/325 326/326
f 416/416 418/418 417/417
f 418/418 378/378 338/338
f 417/417 418/418 338/338
f 378/378 341/341 339/339
f 338/338 378/378 339/339
f 341/341 342/342 340/340
f 339/339 341/341 340/340
f 342/342 345/345 343/343
f 340/340 342/342 343/343
f 343/343 345/345 344/344
f 345/345 346/346 344/344
f 344/344 346/346 326/326
f 416/416 417/417 336/336
f 336/336 417/417 338/338
f 338/338 339/339 337/337
f 336/336 338/338 337/337
f 339/339 340/340 332/332
f 337/337 339/339 332/332
f 340/340 343/343 330/330
f 332/332 340/340 330/330
f 343/343 344/344 330/330
f 330/330 344/344 328/328
f 328/328 344/344 326/326
f 328/328 326/326 327/327
f 414/414 336/336 415/415
f 415/415 336/336 334/334
f 336/336 337/337 335/335
f 337/337 332/332 333/333
f 332/332 330/330 331/331
f 331/331 330/330 329/329
f 330/330 328/328 329/329
f 329/329 328/328 297/297

