# SSTK version 0.8.0
# 135
mtllib original-135.mtl
o #ID171
v -0.056350 0.493040 0.452748
v -0.056593 0.491154 0.454438
v -0.056593 0.491154 0.452748
v -0.056350 0.493040 0.454438
v -0.056350 0.493040 0.454438
v -0.056350 0.493040 0.452748
v -0.056593 0.491154 0.454438
v -0.056593 0.491154 0.452748
v -0.056593 0.491154 0.454438
v -0.056350 0.493040 0.454438
v -0.056593 0.491154 0.452748
v -0.056350 0.493040 0.452748
v -0.057073 0.489303 0.454438
v -0.057073 0.489303 0.452748
v -0.057073 0.489303 0.454438
v -0.057073 0.489303 0.452748
v -0.057073 0.489303 0.454438
v -0.057073 0.489303 0.452748
v -0.056353 0.494933 0.452748
v -0.056353 0.494933 0.454438
v -0.056353 0.494933 0.454438
v -0.056353 0.494933 0.452748
v -0.056353 0.494933 0.454438
v -0.056353 0.494933 0.452748
v -0.057779 0.487516 0.454438
v -0.057779 0.487516 0.452748
v -0.057779 0.487516 0.454438
v -0.057779 0.487516 0.452748
v -0.057779 0.487516 0.454438
v -0.057779 0.487516 0.452748
v -0.056609 0.496799 0.452748
v -0.056609 0.496799 0.454438
v -0.056609 0.496799 0.454438
v -0.056609 0.496799 0.452748
v -0.056609 0.496799 0.454438
v -0.056609 0.496799 0.452748
v -0.058695 0.485819 0.454438
v -0.058695 0.485819 0.452748
v -0.058695 0.485819 0.454438
v -0.058695 0.485819 0.452748
v -0.058695 0.485819 0.454438
v -0.058695 0.485819 0.452748
v -0.057117 0.498604 0.452748
v -0.057117 0.498604 0.454438
v -0.057117 0.498604 0.454438
v -0.057117 0.498604 0.452748
v -0.057117 0.498604 0.454438
v -0.057117 0.498604 0.452748
v -0.059806 0.484236 0.454438
v -0.059806 0.484236 0.452748
v -0.059806 0.484236 0.454438
v -0.059806 0.484236 0.452748
v -0.059806 0.484236 0.454438
v -0.059806 0.484236 0.452748
v -0.057875 0.500314 0.452748
v -0.057875 0.500314 0.454438
v -0.057875 0.500314 0.454438
v -0.057875 0.500314 0.452748
v -0.057875 0.500314 0.454438
v -0.057875 0.500314 0.452748
v -0.061030 0.482863 0.454438
v -0.061030 0.482863 0.452748
v -0.061030 0.482863 0.454438
v -0.061030 0.482863 0.452748
v -0.061030 0.482863 0.454438
v -0.061030 0.482863 0.452748
v -0.058855 0.501866 0.452748
v -0.058855 0.501866 0.454438
v -0.058855 0.501866 0.454438
v -0.058855 0.501866 0.452748
v -0.058855 0.501866 0.454438
v -0.058855 0.501866 0.452748
v -0.059793 0.502997 0.452748
v -0.058855 0.501866 0.454438
v -0.058855 0.501866 0.452748
v -0.059793 0.502997 0.454438
v -0.059793 0.502997 0.454438
v -0.059793 0.502997 0.452748
v -0.058855 0.501866 0.454438
v -0.058855 0.501866 0.452748
v -0.059793 0.502997 0.454438
v -0.059793 0.502997 0.452748
v -0.060184 0.503388 0.454438
v -0.059793 0.502997 0.452748
v -0.060184 0.503388 0.452748
v -0.059793 0.502997 0.454438
v -0.059793 0.502997 0.454438
v -0.060184 0.503388 0.454438
v -0.059793 0.502997 0.452748
v -0.060184 0.503388 0.452748
v -0.060184 0.503388 0.454438
v -0.060184 0.503388 0.452748
vn 0.9980033051475772 -0.06316172032578032 0
vn 0.9818168375914456 -0.18983070726816897 0
vn -0.9980033051475772 0.06316172032578032 0
vn -0.9818168375914456 0.18983070726816897 0
vn 0.9508262407231851 -0.3097248132652849 0
vn -0.9508262407231851 0.3097248132652849 0
vn 0.9976309015954622 0.06879378011001852 0
vn -0.9976309015954622 -0.06879378011001852 0
vn 0.9066439441994509 -0.42189662056772026 0
vn -0.9066439441994509 0.42189662056772026 0
vn 0.9790012365999962 0.20385430762110054 0
vn -0.9790012365999962 -0.20385430762110054 0
vn 0.8506301801750898 -0.5257644877464567 0
vn -0.8506301801750898 0.5257644877464567 0
vn 0.9407616887677099 0.33906849595166794 0
vn -0.9407616887677099 -0.33906849595166794 0
vn 0.7838543839868546 -0.6209446873148919 0
vn -0.7838543839868546 0.6209446873148919 0
vn 0.8822530541846619 0.4707754755526632 0
vn -0.8822530541846619 -0.4707754755526632 0
vn 0.7466505145512854 -0.6652165129642384 0
vn -0.7466505145512854 0.6652165129642384 0
vn 0.8456059005521385 0.5338077003485499 0
vn -0.8456059005521385 -0.5338077003485499 0
vn 0.7695372835415601 0.6386018863419343 0
vn -0.7695372835415601 -0.6386018863419343 0
vn 0.7071067811865476 0.7071067811865476 0
vn -0.7071067811865476 -0.7071067811865476 0
usemtl material_0_0
f 1//1 2//2 3//2
f 2//2 1//1 4//1
f 5//3 6//3 7//4
f 8//4 7//4 6//3
f 3//2 13//5 14//5
f 13//5 3//2 2//2
f 7//4 8//4 15//6
f 16//6 15//6 8//4
f 19//7 4//1 1//1
f 4//1 19//7 20//7
f 21//8 22//8 5//3
f 6//3 5//3 22//8
f 14//5 25//9 26//9
f 25//9 14//5 13//5
f 15//6 16//6 27//10
f 28//10 27//10 16//6
f 31//11 20//7 19//7
f 20//7 31//11 32//11
f 33//12 34//12 21//8
f 22//8 21//8 34//12
f 26//9 37//13 38//13
f 37//13 26//9 25//9
f 27//10 28//10 39//14
f 40//14 39//14 28//10
f 43//15 32//11 31//11
f 32//11 43//15 44//15
f 45//16 46//16 33//12
f 34//12 33//12 46//16
f 38//13 49//17 50//17
f 49//17 38//13 37//13
f 39//14 40//14 51//18
f 52//18 51//18 40//14
f 55//19 44//15 43//15
f 44//15 55//19 56//19
f 57//20 58//20 45//16
f 46//16 45//16 58//20
f 50//17 61//21 62//21
f 61//21 50//17 49//17
f 51//18 52//18 63//22
f 64//22 63//22 52//18
f 67//23 56//19 55//19
f 56//19 67//23 68//23
f 69//24 70//24 57//20
f 58//20 57//20 70//24
f 73//25 74//25 75//25
f 74//25 73//25 76//25
f 77//26 78//26 79//26
f 80//26 79//26 78//26
f 83//27 84//27 85//27
f 84//27 83//27 86//27
f 87//28 88//28 89//28
f 90//28 89//28 88//28
usemtl material_1_0
