# SSTK version 0.8.0
# 26
mtllib original-26.mtl
o #ID520
v 0.404859 0.456025 0.456128
v 0.402323 0.456265 0.469647
v 0.402323 0.456265 0.456128
v 0.404859 0.456025 0.469647
v 0.404859 0.456025 0.469647
v 0.404859 0.456025 0.456128
v 0.402323 0.456265 0.469647
v 0.402323 0.456265 0.456128
v 0.404859 0.456025 0.456128
v 0.402323 0.456265 0.456128
v 0.404859 0.456025 0.469647
v 0.402323 0.456265 0.469647
v 0.407406 0.455945 0.469647
v 0.407406 0.455945 0.456128
v 0.407406 0.455945 0.469647
v 0.407406 0.455945 0.456128
v 0.407406 0.455945 0.456128
v 0.407406 0.455945 0.469647
v 0.399806 0.456664 0.469647
v 0.398956 0.496502 0.469647
v 0.397320 0.457219 0.469647
v 0.399194 0.489554 0.469647
v 0.399907 0.482639 0.469647
v 0.402323 0.456265 0.469647
v 0.401091 0.475788 0.469647
v 0.402741 0.469035 0.469647
v 0.404859 0.456025 0.469647
v 0.404849 0.462410 0.469647
v 0.407406 0.455945 0.469647
v 0.366929 0.493956 0.469647
v 0.366929 0.499048 0.469647
v 0.366849 0.496502 0.469647
v 0.367169 0.491419 0.469647
v 0.367169 0.501585 0.469647
v 0.367568 0.488902 0.469647
v 0.367568 0.504101 0.469647
v 0.368123 0.486416 0.469647
v 0.368123 0.506588 0.469647
v 0.368834 0.483969 0.469647
v 0.368834 0.509035 0.469647
v 0.369697 0.481572 0.469647
v 0.369697 0.511432 0.469647
v 0.370709 0.479234 0.469647
v 0.370709 0.513770 0.469647
v 0.371865 0.516041 0.469647
v 0.371865 0.476963 0.469647
v 0.373163 0.474770 0.469647
v 0.373163 0.518234 0.469647
v 0.374595 0.520341 0.469647
v 0.374595 0.472663 0.469647
v 0.376156 0.522354 0.469647
v 0.376156 0.470650 0.469647
v 0.377841 0.468739 0.469647
v 0.377841 0.524265 0.469647
v 0.379643 0.526067 0.469647
v 0.379643 0.466937 0.469647
v 0.381554 0.465253 0.469647
v 0.381554 0.527751 0.469647
v 0.383567 0.463691 0.469647
v 0.383567 0.529313 0.469647
v 0.385674 0.462259 0.469647
v 0.385674 0.530745 0.469647
v 0.387867 0.460962 0.469647
v 0.387867 0.532042 0.469647
v 0.390138 0.459805 0.469647
v 0.390138 0.533199 0.469647
v 0.392476 0.534211 0.469647
v 0.392476 0.458793 0.469647
v 0.394873 0.457930 0.469647
v 0.394873 0.535074 0.469647
v 0.397320 0.535785 0.469647
v 0.399806 0.536340 0.469647
v 0.399194 0.503450 0.469647
v 0.399907 0.510365 0.469647
v 0.402323 0.536739 0.469647
v 0.401091 0.517216 0.469647
v 0.402741 0.523969 0.469647
v 0.404859 0.536979 0.469647
v 0.404849 0.530594 0.469647
v 0.407406 0.537059 0.469647
v 0.407406 0.537059 0.469647
v 0.404849 0.530594 0.469647
v 0.404859 0.536979 0.469647
v 0.402741 0.523969 0.469647
v 0.402323 0.536739 0.469647
v 0.401091 0.517216 0.469647
v 0.399907 0.510365 0.469647
v 0.399806 0.536340 0.469647
v 0.399194 0.503450 0.469647
v 0.398956 0.496502 0.469647
v 0.397320 0.457219 0.469647
v 0.397320 0.535785 0.469647
v 0.394873 0.457930 0.469647
v 0.394873 0.535074 0.469647
v 0.392476 0.534211 0.469647
v 0.392476 0.458793 0.469647
v 0.390138 0.459805 0.469647
v 0.390138 0.533199 0.469647
v 0.387867 0.532042 0.469647
v 0.387867 0.460962 0.469647
v 0.385674 0.530745 0.469647
v 0.385674 0.462259 0.469647
v 0.383567 0.529313 0.469647
v 0.383567 0.463691 0.469647
v 0.381554 0.527751 0.469647
v 0.381554 0.465253 0.469647
v 0.379643 0.526067 0.469647
v 0.379643 0.466937 0.469647
v 0.377841 0.468739 0.469647
v 0.377841 0.524265 0.469647
v 0.376156 0.522354 0.469647
v 0.376156 0.470650 0.469647
v 0.374595 0.472663 0.469647
v 0.374595 0.520341 0.469647
v 0.373163 0.474770 0.469647
v 0.373163 0.518234 0.469647
v 0.371865 0.516041 0.469647
v 0.371865 0.476963 0.469647
v 0.370709 0.479234 0.469647
v 0.370709 0.513770 0.469647
v 0.369697 0.511432 0.469647
v 0.369697 0.481572 0.469647
v 0.368834 0.509035 0.469647
v 0.368834 0.483969 0.469647
v 0.368123 0.506588 0.469647
v 0.368123 0.486416 0.469647
v 0.367568 0.504101 0.469647
v 0.367568 0.488902 0.469647
v 0.367169 0.501585 0.469647
v 0.367169 0.491419 0.469647
v 0.366929 0.499048 0.469647
v 0.366929 0.493956 0.469647
v 0.366849 0.496502 0.469647
v 0.407406 0.455945 0.469647
v 0.404859 0.456025 0.469647
v 0.404849 0.462410 0.469647
v 0.402741 0.469035 0.469647
v 0.402323 0.456265 0.469647
v 0.401091 0.475788 0.469647
v 0.399907 0.482639 0.469647
v 0.399806 0.456664 0.469647
v 0.399194 0.489554 0.469647
v 0.404859 0.536979 0.469647
v 0.407406 0.537059 0.469647
v 0.402323 0.536739 0.469647
v 0.399806 0.536340 0.469647
v 0.397320 0.535785 0.469647
v 0.394873 0.535074 0.469647
v 0.392476 0.534211 0.469647
v 0.390138 0.533199 0.469647
v 0.387867 0.532042 0.469647
v 0.385674 0.530745 0.469647
v 0.383567 0.529313 0.469647
v 0.381554 0.527751 0.469647
v 0.379643 0.526067 0.469647
v 0.377841 0.524265 0.469647
v 0.376156 0.522354 0.469647
v 0.374595 0.520341 0.469647
v 0.373163 0.518234 0.469647
v 0.371865 0.516041 0.469647
v 0.370709 0.513770 0.469647
v 0.369697 0.511432 0.469647
v 0.368834 0.509035 0.469647
v 0.368123 0.506588 0.469647
v 0.367568 0.504101 0.469647
v 0.367169 0.501585 0.469647
v 0.366929 0.499048 0.469647
v 0.366849 0.496502 0.469647
v 0.366929 0.493956 0.469647
v 0.367169 0.491419 0.469647
v 0.367568 0.488902 0.469647
v 0.368123 0.486416 0.469647
v 0.368834 0.483969 0.469647
v 0.369697 0.481572 0.469647
v 0.370709 0.479234 0.469647
v 0.371865 0.476963 0.469647
v 0.373163 0.474770 0.469647
v 0.374595 0.472663 0.469647
v 0.376156 0.470650 0.469647
v 0.377841 0.468739 0.469647
v 0.379643 0.466937 0.469647
v 0.381554 0.465253 0.469647
v 0.383567 0.463691 0.469647
v 0.385674 0.462259 0.469647
v 0.387867 0.460962 0.469647
v 0.390138 0.459805 0.469647
v 0.392476 0.458793 0.469647
v 0.394873 0.457930 0.469647
v 0.397320 0.457219 0.469647
v 0.399806 0.456664 0.469647
v 0.404849 0.462410 0.469647
v 0.402741 0.469035 0.469647
v 0.401091 0.475788 0.469647
v 0.399907 0.482639 0.469647
v 0.399194 0.489554 0.469647
v 0.398956 0.496502 0.469647
v 0.399194 0.503450 0.469647
v 0.399907 0.510365 0.469647
v 0.401091 0.517216 0.469647
v 0.402741 0.523969 0.469647
v 0.404849 0.530594 0.469647
v 0.399806 0.456664 0.469647
v 0.399806 0.456664 0.456128
v 0.399806 0.456664 0.469647
v 0.399806 0.456664 0.456128
v 0.399806 0.456664 0.456128
v 0.409952 0.456025 0.469647
v 0.409952 0.456025 0.456128
v 0.409952 0.456025 0.469647
v 0.409952 0.456025 0.456128
v 0.409952 0.456025 0.456128
v 0.409952 0.456025 0.469647
v 0.404859 0.536979 0.456128
v 0.407406 0.537059 0.469647
v 0.407406 0.537059 0.456128
v 0.404859 0.536979 0.469647
v 0.404859 0.536979 0.469647
v 0.404859 0.536979 0.456128
v 0.407406 0.537059 0.469647
v 0.407406 0.537059 0.456128
v 0.404859 0.536979 0.456128
v 0.407406 0.537059 0.456128
v 0.402323 0.536739 0.469647
v 0.402323 0.536739 0.456128
v 0.402323 0.536739 0.469647
v 0.402323 0.536739 0.456128
v 0.402323 0.536739 0.456128
v 0.399806 0.536340 0.469647
v 0.399806 0.536340 0.456128
v 0.399806 0.536340 0.469647
v 0.399806 0.536340 0.456128
v 0.399806 0.536340 0.456128
v 0.397320 0.535785 0.456128
v 0.397320 0.535785 0.469647
v 0.397320 0.535785 0.469647
v 0.397320 0.535785 0.456128
v 0.397320 0.535785 0.456128
v 0.394873 0.535074 0.469647
v 0.394873 0.535074 0.456128
v 0.394873 0.535074 0.469647
v 0.394873 0.535074 0.456128
v 0.394873 0.535074 0.456128
v 0.392476 0.534211 0.469647
v 0.392476 0.534211 0.456128
v 0.392476 0.534211 0.469647
v 0.392476 0.534211 0.456128
v 0.392476 0.534211 0.456128
v 0.390138 0.533199 0.456128
v 0.390138 0.533199 0.469647
v 0.390138 0.533199 0.469647
v 0.390138 0.533199 0.456128
v 0.390138 0.533199 0.456128
v 0.387867 0.532042 0.469647
v 0.387867 0.532042 0.456128
v 0.387867 0.532042 0.469647
v 0.387867 0.532042 0.456128
v 0.387867 0.532042 0.456128
v 0.385674 0.530745 0.469647
v 0.385674 0.530745 0.456128
v 0.385674 0.530745 0.469647
v 0.385674 0.530745 0.456128
v 0.385674 0.530745 0.456128
v 0.383567 0.529313 0.456128
v 0.383567 0.529313 0.469647
v 0.383567 0.529313 0.469647
v 0.383567 0.529313 0.456128
v 0.383567 0.529313 0.456128
v 0.381554 0.527751 0.469647
v 0.381554 0.527751 0.456128
v 0.381554 0.527751 0.469647
v 0.381554 0.527751 0.456128
v 0.381554 0.527751 0.456128
v 0.379643 0.526067 0.469647
v 0.379643 0.526067 0.456128
v 0.379643 0.526067 0.469647
v 0.379643 0.526067 0.456128
v 0.379643 0.526067 0.456128
v 0.377841 0.524265 0.469647
v 0.377841 0.524265 0.456128
v 0.377841 0.524265 0.469647
v 0.377841 0.524265 0.456128
v 0.377841 0.524265 0.456128
v 0.376156 0.522354 0.456128
v 0.376156 0.522354 0.469647
v 0.376156 0.522354 0.456128
v 0.376156 0.522354 0.469647
v 0.376156 0.522354 0.456128
v 0.374595 0.520341 0.456128
v 0.374595 0.520341 0.469647
v 0.374595 0.520341 0.456128
v 0.374595 0.520341 0.469647
v 0.374595 0.520341 0.456128
v 0.373163 0.518234 0.456128
v 0.373163 0.518234 0.469647
v 0.373163 0.518234 0.456128
v 0.373163 0.518234 0.469647
v 0.373163 0.518234 0.456128
v 0.371865 0.516041 0.456128
v 0.371865 0.516041 0.469647
v 0.371865 0.516041 0.456128
v 0.371865 0.516041 0.469647
v 0.371865 0.516041 0.456128
v 0.370709 0.513770 0.456128
v 0.370709 0.513770 0.469647
v 0.370709 0.513770 0.456128
v 0.370709 0.513770 0.469647
v 0.370709 0.513770 0.456128
v 0.369697 0.511432 0.456128
v 0.369697 0.511432 0.469647
v 0.369697 0.511432 0.456128
v 0.369697 0.511432 0.469647
v 0.369697 0.511432 0.456128
v 0.368834 0.509035 0.456128
v 0.368834 0.509035 0.469647
v 0.368834 0.509035 0.456128
v 0.368834 0.509035 0.469647
v 0.368834 0.509035 0.456128
v 0.368123 0.506588 0.456128
v 0.368123 0.506588 0.469647
v 0.368123 0.506588 0.456128
v 0.368123 0.506588 0.469647
v 0.368123 0.506588 0.456128
v 0.367568 0.504101 0.456128
v 0.367568 0.504101 0.469647
v 0.367568 0.504101 0.456128
v 0.367568 0.504101 0.469647
v 0.367568 0.504101 0.456128
v 0.367169 0.501585 0.456128
v 0.367169 0.501585 0.469647
v 0.367169 0.501585 0.456128
v 0.367169 0.501585 0.469647
v 0.367169 0.501585 0.456128
v 0.366929 0.499048 0.456128
v 0.366929 0.499048 0.469647
v 0.366929 0.499048 0.456128
v 0.366929 0.499048 0.469647
v 0.366929 0.499048 0.456128
v 0.366849 0.496502 0.456128
v 0.366849 0.496502 0.469647
v 0.366849 0.496502 0.456128
v 0.366849 0.496502 0.469647
v 0.366849 0.496502 0.456128
v 0.366929 0.493956 0.456128
v 0.366929 0.493956 0.469647
v 0.366929 0.493956 0.456128
v 0.366929 0.493956 0.469647
v 0.366929 0.493956 0.456128
v 0.367169 0.491419 0.456128
v 0.367169 0.491419 0.469647
v 0.367169 0.491419 0.456128
v 0.367169 0.491419 0.469647
v 0.367169 0.491419 0.456128
v 0.367568 0.488902 0.456128
v 0.367568 0.488902 0.469647
v 0.367568 0.488902 0.456128
v 0.367568 0.488902 0.469647
v 0.367568 0.488902 0.456128
v 0.368123 0.486416 0.456128
v 0.368123 0.486416 0.469647
v 0.368123 0.486416 0.456128
v 0.368123 0.486416 0.469647
v 0.368123 0.486416 0.456128
v 0.368834 0.483969 0.456128
v 0.368834 0.483969 0.469647
v 0.368834 0.483969 0.456128
v 0.368834 0.483969 0.469647
v 0.368834 0.483969 0.456128
v 0.369697 0.481572 0.456128
v 0.369697 0.481572 0.469647
v 0.369697 0.481572 0.456128
v 0.369697 0.481572 0.469647
v 0.369697 0.481572 0.456128
v 0.370709 0.479234 0.456128
v 0.370709 0.479234 0.469647
v 0.370709 0.479234 0.456128
v 0.370709 0.479234 0.469647
v 0.370709 0.479234 0.456128
v 0.371865 0.476963 0.456128
v 0.371865 0.476963 0.469647
v 0.371865 0.476963 0.456128
v 0.371865 0.476963 0.469647
v 0.371865 0.476963 0.456128
v 0.373163 0.474770 0.456128
v 0.373163 0.474770 0.469647
v 0.373163 0.474770 0.456128
v 0.373163 0.474770 0.469647
v 0.373163 0.474770 0.456128
v 0.374595 0.472663 0.456128
v 0.374595 0.472663 0.469647
v 0.374595 0.472663 0.456128
v 0.374595 0.472663 0.469647
v 0.374595 0.472663 0.456128
v 0.376156 0.470650 0.456128
v 0.376156 0.470650 0.469647
v 0.376156 0.470650 0.456128
v 0.376156 0.470650 0.469647
v 0.376156 0.470650 0.456128
v 0.377841 0.468739 0.456128
v 0.377841 0.468739 0.469647
v 0.377841 0.468739 0.456128
v 0.377841 0.468739 0.469647
v 0.377841 0.468739 0.456128
v 0.379643 0.466937 0.469647
v 0.379643 0.466937 0.456128
v 0.379643 0.466937 0.469647
v 0.379643 0.466937 0.456128
v 0.379643 0.466937 0.456128
v 0.381554 0.465253 0.456128
v 0.381554 0.465253 0.469647
v 0.381554 0.465253 0.469647
v 0.381554 0.465253 0.456128
v 0.381554 0.465253 0.456128
v 0.383567 0.463691 0.456128
v 0.383567 0.463691 0.469647
v 0.383567 0.463691 0.469647
v 0.383567 0.463691 0.456128
v 0.383567 0.463691 0.456128
v 0.385674 0.462259 0.469647
v 0.385674 0.462259 0.456128
v 0.385674 0.462259 0.469647
v 0.385674 0.462259 0.456128
v 0.385674 0.462259 0.456128
v 0.387867 0.460962 0.456128
v 0.387867 0.460962 0.469647
v 0.387867 0.460962 0.469647
v 0.387867 0.460962 0.456128
v 0.387867 0.460962 0.456128
v 0.390138 0.459805 0.469647
v 0.390138 0.459805 0.456128
v 0.390138 0.459805 0.469647
v 0.390138 0.459805 0.456128
v 0.390138 0.459805 0.456128
v 0.392476 0.458793 0.469647
v 0.392476 0.458793 0.456128
v 0.392476 0.458793 0.469647
v 0.392476 0.458793 0.456128
v 0.392476 0.458793 0.456128
v 0.394873 0.457930 0.469647
v 0.394873 0.457930 0.456128
v 0.394873 0.457930 0.469647
v 0.394873 0.457930 0.456128
v 0.394873 0.457930 0.456128
v 0.397320 0.457219 0.456128
v 0.397320 0.457219 0.469647
v 0.397320 0.457219 0.469647
v 0.397320 0.457219 0.456128
v 0.397320 0.457219 0.456128
v 0.404849 0.462410 0.483166
v 0.407406 0.455945 0.469647
v 0.407406 0.455945 0.483166
v 0.404849 0.462410 0.469647
v 0.404849 0.462410 0.469647
v 0.404849 0.462410 0.483166
v 0.407406 0.455945 0.469647
v 0.407406 0.455945 0.483166
v 0.404849 0.462410 0.483166
v 0.407406 0.455945 0.483166
v 0.402741 0.469035 0.483166
v 0.402741 0.469035 0.469647
v 0.402741 0.469035 0.469647
v 0.402741 0.469035 0.483166
v 0.402741 0.469035 0.483166
v 0.401091 0.475788 0.469647
v 0.401091 0.475788 0.483166
v 0.401091 0.475788 0.483166
v 0.401091 0.475788 0.469647
v 0.401091 0.475788 0.483166
v 0.399907 0.482639 0.483166
v 0.399907 0.482639 0.469647
v 0.399907 0.482639 0.469647
v 0.399907 0.482639 0.483166
v 0.399907 0.482639 0.483166
v 0.399194 0.489554 0.483166
v 0.399194 0.489554 0.469647
v 0.399194 0.489554 0.469647
v 0.399194 0.489554 0.483166
v 0.399194 0.489554 0.483166
v 0.398956 0.496502 0.469647
v 0.398956 0.496502 0.483166
v 0.398956 0.496502 0.483166
v 0.398956 0.496502 0.469647
v 0.398956 0.496502 0.483166
v 0.399194 0.503450 0.483166
v 0.399194 0.503450 0.469647
v 0.399194 0.503450 0.469647
v 0.399194 0.503450 0.483166
v 0.399194 0.503450 0.483166
v 0.399907 0.510365 0.483166
v 0.399907 0.510365 0.469647
v 0.399907 0.510365 0.469647
v 0.399907 0.510365 0.483166
v 0.399907 0.510365 0.483166
v 0.401091 0.517216 0.483166
v 0.401091 0.517216 0.469647
v 0.401091 0.517216 0.469647
v 0.401091 0.517216 0.483166
v 0.401091 0.517216 0.483166
v 0.402741 0.523969 0.469647
v 0.402741 0.523969 0.483166
v 0.402741 0.523969 0.483166
v 0.402741 0.523969 0.469647
v 0.402741 0.523969 0.483166
v 0.404849 0.530594 0.483166
v 0.404849 0.530594 0.469647
v 0.404849 0.530594 0.469647
v 0.404849 0.530594 0.483166
v 0.404849 0.530594 0.483166
v 0.407406 0.537059 0.469647
v 0.407406 0.537059 0.483166
v 0.407406 0.537059 0.483166
v 0.407406 0.537059 0.469647
v 0.407406 0.537059 0.483166
v 0.412489 0.456265 0.456128
v 0.412489 0.456265 0.469647
v 0.412489 0.456265 0.469647
v 0.412489 0.456265 0.456128
v 0.412489 0.456265 0.456128
v 0.412489 0.456265 0.469647
v 0.409952 0.456025 0.469647
v 0.409962 0.462410 0.469647
v 0.407406 0.455945 0.469647
v 0.412489 0.456265 0.469647
v 0.412071 0.469035 0.469647
v 0.413721 0.475788 0.469647
v 0.415005 0.456664 0.469647
v 0.414904 0.482639 0.469647
v 0.415617 0.489554 0.469647
v 0.417492 0.457219 0.469647
v 0.415855 0.496502 0.469647
v 0.409962 0.530594 0.469647
v 0.409952 0.536979 0.469647
v 0.407406 0.537059 0.469647
v 0.412489 0.536739 0.469647
v 0.412071 0.523969 0.469647
v 0.413721 0.517216 0.469647
v 0.415005 0.536340 0.469647
v 0.414904 0.510365 0.469647
v 0.415617 0.503450 0.469647
v 0.417492 0.535785 0.469647
v 0.419939 0.457930 0.469647
v 0.419939 0.535074 0.469647
v 0.422336 0.458793 0.469647
v 0.422336 0.534211 0.469647
v 0.424674 0.459805 0.469647
v 0.424674 0.533199 0.469647
v 0.426944 0.460962 0.469647
v 0.426944 0.532042 0.469647
v 0.429137 0.462259 0.469647
v 0.429137 0.530745 0.469647
v 0.431245 0.463691 0.469647
v 0.431245 0.529313 0.469647
v 0.433258 0.465253 0.469647
v 0.433258 0.527751 0.469647
v 0.435169 0.466937 0.469647
v 0.435169 0.526067 0.469647
v 0.436971 0.524265 0.469647
v 0.436971 0.468739 0.469647
v 0.438655 0.522354 0.469647
v 0.438655 0.470650 0.469647
v 0.440217 0.472663 0.469647
v 0.440217 0.520341 0.469647
v 0.441649 0.518234 0.469647
v 0.441649 0.474770 0.469647
v 0.442946 0.476963 0.469647
v 0.442946 0.516041 0.469647
v 0.444103 0.479234 0.469647
v 0.444103 0.513770 0.469647
v 0.445114 0.481572 0.469647
v 0.445114 0.511432 0.469647
v 0.445978 0.483969 0.469647
v 0.445978 0.509035 0.469647
v 0.446688 0.486416 0.469647
v 0.446688 0.506588 0.469647
v 0.447244 0.488902 0.469647
v 0.447244 0.504101 0.469647
v 0.447643 0.491419 0.469647
v 0.447643 0.501585 0.469647
v 0.447883 0.493956 0.469647
v 0.447883 0.499048 0.469647
v 0.447962 0.496502 0.469647
v 0.447962 0.496502 0.469647
v 0.447883 0.493956 0.469647
v 0.447883 0.499048 0.469647
v 0.447643 0.501585 0.469647
v 0.447643 0.491419 0.469647
v 0.447244 0.504101 0.469647
v 0.447244 0.488902 0.469647
v 0.446688 0.506588 0.469647
v 0.446688 0.486416 0.469647
v 0.445978 0.509035 0.469647
v 0.445978 0.483969 0.469647
v 0.445114 0.511432 0.469647
v 0.445114 0.481572 0.469647
v 0.444103 0.513770 0.469647
v 0.444103 0.479234 0.469647
v 0.442946 0.516041 0.469647
v 0.442946 0.476963 0.469647
v 0.441649 0.518234 0.469647
v 0.441649 0.474770 0.469647
v 0.440217 0.472663 0.469647
v 0.440217 0.520341 0.469647
v 0.438655 0.522354 0.469647
v 0.438655 0.470650 0.469647
v 0.436971 0.468739 0.469647
v 0.436971 0.524265 0.469647
v 0.435169 0.466937 0.469647
v 0.435169 0.526067 0.469647
v 0.433258 0.527751 0.469647
v 0.433258 0.465253 0.469647
v 0.431245 0.529313 0.469647
v 0.431245 0.463691 0.469647
v 0.429137 0.530745 0.469647
v 0.429137 0.462259 0.469647
v 0.426944 0.532042 0.469647
v 0.426944 0.460962 0.469647
v 0.424674 0.533199 0.469647
v 0.424674 0.459805 0.469647
v 0.422336 0.534211 0.469647
v 0.422336 0.458793 0.469647
v 0.419939 0.535074 0.469647
v 0.419939 0.457930 0.469647
v 0.417492 0.535785 0.469647
v 0.417492 0.457219 0.469647
v 0.415855 0.496502 0.469647
v 0.415617 0.503450 0.469647
v 0.415005 0.536340 0.469647
v 0.414904 0.510365 0.469647
v 0.413721 0.517216 0.469647
v 0.412489 0.536739 0.469647
v 0.412071 0.523969 0.469647
v 0.409962 0.530594 0.469647
v 0.409952 0.536979 0.469647
v 0.407406 0.537059 0.469647
v 0.415617 0.489554 0.469647
v 0.415005 0.456664 0.469647
v 0.414904 0.482639 0.469647
v 0.413721 0.475788 0.469647
v 0.412489 0.456265 0.469647
v 0.412071 0.469035 0.469647
v 0.409962 0.462410 0.469647
v 0.409952 0.456025 0.469647
v 0.407406 0.455945 0.469647
v 0.415005 0.456664 0.469647
v 0.417492 0.457219 0.469647
v 0.419939 0.457930 0.469647
v 0.422336 0.458793 0.469647
v 0.424674 0.459805 0.469647
v 0.426944 0.460962 0.469647
v 0.429137 0.462259 0.469647
v 0.431245 0.463691 0.469647
v 0.433258 0.465253 0.469647
v 0.435169 0.466937 0.469647
v 0.436971 0.468739 0.469647
v 0.438655 0.470650 0.469647
v 0.440217 0.472663 0.469647
v 0.441649 0.474770 0.469647
v 0.442946 0.476963 0.469647
v 0.444103 0.479234 0.469647
v 0.445114 0.481572 0.469647
v 0.445978 0.483969 0.469647
v 0.446688 0.486416 0.469647
v 0.447244 0.488902 0.469647
v 0.447643 0.491419 0.469647
v 0.447883 0.493956 0.469647
v 0.447962 0.496502 0.469647
v 0.447883 0.499048 0.469647
v 0.447643 0.501585 0.469647
v 0.447244 0.504101 0.469647
v 0.446688 0.506588 0.469647
v 0.445978 0.509035 0.469647
v 0.445114 0.511432 0.469647
v 0.444103 0.513770 0.469647
v 0.442946 0.516041 0.469647
v 0.441649 0.518234 0.469647
v 0.440217 0.520341 0.469647
v 0.438655 0.522354 0.469647
v 0.436971 0.524265 0.469647
v 0.435169 0.526067 0.469647
v 0.433258 0.527751 0.469647
v 0.431245 0.529313 0.469647
v 0.429137 0.530745 0.469647
v 0.426944 0.532042 0.469647
v 0.424674 0.533199 0.469647
v 0.422336 0.534211 0.469647
v 0.419939 0.535074 0.469647
v 0.417492 0.535785 0.469647
v 0.415005 0.536340 0.469647
v 0.412489 0.536739 0.469647
v 0.409952 0.536979 0.469647
v 0.409962 0.530594 0.469647
v 0.412071 0.523969 0.469647
v 0.413721 0.517216 0.469647
v 0.414904 0.510365 0.469647
v 0.415617 0.503450 0.469647
v 0.415855 0.496502 0.469647
v 0.415617 0.489554 0.469647
v 0.414904 0.482639 0.469647
v 0.413721 0.475788 0.469647
v 0.412071 0.469035 0.469647
v 0.409962 0.462410 0.469647
v 0.409952 0.536979 0.456128
v 0.409952 0.536979 0.469647
v 0.409952 0.536979 0.469647
v 0.409952 0.536979 0.456128
v 0.409952 0.536979 0.456128
v 0.409962 0.462410 0.469647
v 0.407406 0.455945 0.483166
v 0.407406 0.455945 0.469647
v 0.409962 0.462410 0.483166
v 0.409962 0.462410 0.483166
v 0.409962 0.462410 0.469647
v 0.407406 0.455945 0.483166
v 0.407406 0.455945 0.469647
v 0.409962 0.462410 0.483166
v 0.407406 0.537059 0.469647
v 0.407406 0.455945 0.483166
v 0.407406 0.455945 0.469647
v 0.407406 0.458637 0.485556
v 0.407406 0.463321 0.486270
v 0.407406 0.465136 0.486546
v 0.407406 0.465522 0.486546
v 0.407406 0.527482 0.486546
v 0.407406 0.527868 0.486546
v 0.407406 0.529683 0.486270
v 0.407406 0.534367 0.485556
v 0.407406 0.537059 0.483166
v 0.407406 0.537059 0.483166
v 0.407406 0.537059 0.469647
v 0.407406 0.534367 0.485556
v 0.407406 0.529683 0.486270
v 0.407406 0.527868 0.486546
v 0.407406 0.527482 0.486546
v 0.407406 0.465522 0.486546
v 0.407406 0.465136 0.486546
v 0.407406 0.463321 0.486270
v 0.407406 0.458637 0.485556
v 0.407406 0.455945 0.483166
v 0.407406 0.455945 0.469647
v 0.407406 0.527868 0.486546
v 0.407406 0.527482 0.486546
v 0.407406 0.465522 0.486546
v 0.407406 0.465136 0.486546
v 0.407406 0.463321 0.486270
v 0.407406 0.458637 0.485556
v 0.407406 0.534367 0.485556
v 0.407406 0.529683 0.486270
v 0.407406 0.458637 0.485556
v 0.404849 0.462410 0.483166
v 0.407406 0.455945 0.483166
v 0.405782 0.462742 0.485556
v 0.405782 0.462742 0.485556
v 0.407406 0.458637 0.485556
v 0.404849 0.462410 0.483166
v 0.407406 0.455945 0.483166
v 0.405782 0.462742 0.485556
v 0.402741 0.469035 0.483166
v 0.403695 0.469302 0.485556
v 0.403695 0.469302 0.485556
v 0.402741 0.469035 0.483166
v 0.403695 0.469302 0.485556
v 0.401091 0.475788 0.483166
v 0.402061 0.475990 0.485556
v 0.402061 0.475990 0.485556
v 0.401091 0.475788 0.483166
v 0.402061 0.475990 0.485556
v 0.399907 0.482639 0.483166
v 0.400888 0.482774 0.485556
v 0.400888 0.482774 0.485556
v 0.399907 0.482639 0.483166
v 0.400888 0.482774 0.485556
v 0.399194 0.489554 0.483166
v 0.400183 0.489622 0.485556
v 0.400183 0.489622 0.485556
v 0.399194 0.489554 0.483166
v 0.400183 0.489622 0.485556
v 0.398956 0.496502 0.483166
v 0.399947 0.496502 0.485556
v 0.399947 0.496502 0.485556
v 0.398956 0.496502 0.483166
v 0.399947 0.496502 0.485556
v 0.400183 0.503382 0.485556
v 0.399194 0.503450 0.483166
v 0.399194 0.503450 0.483166
v 0.400183 0.503382 0.485556
v 0.400183 0.503382 0.485556
v 0.400888 0.510230 0.485556
v 0.399907 0.510365 0.483166
v 0.399907 0.510365 0.483166
v 0.400888 0.510230 0.485556
v 0.400888 0.510230 0.485556
v 0.402061 0.517014 0.485556
v 0.401091 0.517216 0.483166
v 0.401091 0.517216 0.483166
v 0.402061 0.517014 0.485556
v 0.402061 0.517014 0.485556
v 0.403695 0.523701 0.485556
v 0.402741 0.523969 0.483166
v 0.402741 0.523969 0.483166
v 0.403695 0.523701 0.485556
v 0.403695 0.523701 0.485556
v 0.405782 0.530262 0.485556
v 0.404849 0.530594 0.483166
v 0.404849 0.530594 0.483166
v 0.405782 0.530262 0.485556
v 0.405782 0.530262 0.485556
v 0.407406 0.537059 0.469647
v 0.409962 0.530594 0.483166
v 0.409962 0.530594 0.469647
v 0.407406 0.537059 0.483166
v 0.407406 0.537059 0.483166
v 0.407406 0.537059 0.469647
v 0.409962 0.530594 0.483166
v 0.409962 0.530594 0.469647
v 0.409962 0.530594 0.483166
v 0.407406 0.534367 0.485556
v 0.407406 0.537059 0.483166
v 0.407406 0.537059 0.483166
v 0.407406 0.534367 0.485556
v 0.415005 0.456664 0.469647
v 0.415005 0.456664 0.456128
v 0.415005 0.456664 0.469647
v 0.415005 0.456664 0.456128
v 0.415005 0.456664 0.456128
v 0.417492 0.457219 0.469647
v 0.417492 0.457219 0.456128
v 0.417492 0.457219 0.469647
v 0.417492 0.457219 0.456128
v 0.417492 0.457219 0.456128
v 0.419939 0.457930 0.456128
v 0.419939 0.457930 0.469647
v 0.419939 0.457930 0.469647
v 0.419939 0.457930 0.456128
v 0.419939 0.457930 0.456128
v 0.422336 0.458793 0.469647
v 0.422336 0.458793 0.456128
v 0.422336 0.458793 0.469647
v 0.422336 0.458793 0.456128
v 0.422336 0.458793 0.456128
v 0.424674 0.459805 0.456128
v 0.424674 0.459805 0.469647
v 0.424674 0.459805 0.469647
v 0.424674 0.459805 0.456128
v 0.424674 0.459805 0.456128
v 0.426944 0.460962 0.469647
v 0.426944 0.460962 0.456128
v 0.426944 0.460962 0.469647
v 0.426944 0.460962 0.456128
v 0.426944 0.460962 0.456128
v 0.429137 0.462259 0.469647
v 0.429137 0.462259 0.456128
v 0.429137 0.462259 0.469647
v 0.429137 0.462259 0.456128
v 0.429137 0.462259 0.456128
v 0.431245 0.463691 0.469647
v 0.431245 0.463691 0.456128
v 0.431245 0.463691 0.469647
v 0.431245 0.463691 0.456128
v 0.431245 0.463691 0.456128
v 0.433258 0.465253 0.456128
v 0.433258 0.465253 0.469647
v 0.433258 0.465253 0.469647
v 0.433258 0.465253 0.456128
v 0.433258 0.465253 0.456128
v 0.435169 0.466937 0.469647
v 0.435169 0.466937 0.456128
v 0.435169 0.466937 0.469647
v 0.435169 0.466937 0.456128
v 0.435169 0.466937 0.456128
v 0.436971 0.468739 0.456128
v 0.436971 0.468739 0.469647
v 0.436971 0.468739 0.469647
v 0.436971 0.468739 0.456128
v 0.436971 0.468739 0.456128
v 0.438655 0.470650 0.456128
v 0.438655 0.470650 0.469647
v 0.438655 0.470650 0.469647
v 0.438655 0.470650 0.456128
v 0.438655 0.470650 0.456128
v 0.440217 0.472663 0.456128
v 0.440217 0.472663 0.469647
v 0.440217 0.472663 0.469647
v 0.440217 0.472663 0.456128
v 0.440217 0.472663 0.456128
v 0.441649 0.474770 0.456128
v 0.441649 0.474770 0.469647
v 0.441649 0.474770 0.469647
v 0.441649 0.474770 0.456128
v 0.441649 0.474770 0.456128
v 0.442946 0.476963 0.456128
v 0.442946 0.476963 0.469647
v 0.442946 0.476963 0.469647
v 0.442946 0.476963 0.456128
v 0.442946 0.476963 0.456128
v 0.444103 0.479234 0.456128
v 0.444103 0.479234 0.469647
v 0.444103 0.479234 0.469647
v 0.444103 0.479234 0.456128
v 0.444103 0.479234 0.456128
v 0.445114 0.481572 0.456128
v 0.445114 0.481572 0.469647
v 0.445114 0.481572 0.469647
v 0.445114 0.481572 0.456128
v 0.445114 0.481572 0.456128
v 0.445978 0.483969 0.456128
v 0.445978 0.483969 0.469647
v 0.445978 0.483969 0.469647
v 0.445978 0.483969 0.456128
v 0.445978 0.483969 0.456128
v 0.446688 0.486416 0.456128
v 0.446688 0.486416 0.469647
v 0.446688 0.486416 0.469647
v 0.446688 0.486416 0.456128
v 0.446688 0.486416 0.456128
v 0.447244 0.488902 0.456128
v 0.447244 0.488902 0.469647
v 0.447244 0.488902 0.469647
v 0.447244 0.488902 0.456128
v 0.447244 0.488902 0.456128
v 0.447643 0.491419 0.456128
v 0.447643 0.491419 0.469647
v 0.447643 0.491419 0.469647
v 0.447643 0.491419 0.456128
v 0.447643 0.491419 0.456128
v 0.447883 0.493956 0.456128
v 0.447883 0.493956 0.469647
v 0.447883 0.493956 0.469647
v 0.447883 0.493956 0.456128
v 0.447883 0.493956 0.456128
v 0.447962 0.496502 0.456128
v 0.447962 0.496502 0.469647
v 0.447962 0.496502 0.469647
v 0.447962 0.496502 0.456128
v 0.447962 0.496502 0.456128
v 0.447883 0.499048 0.456128
v 0.447883 0.499048 0.469647
v 0.447883 0.499048 0.469647
v 0.447883 0.499048 0.456128
v 0.447883 0.499048 0.456128
v 0.447643 0.501585 0.456128
v 0.447643 0.501585 0.469647
v 0.447643 0.501585 0.469647
v 0.447643 0.501585 0.456128
v 0.447643 0.501585 0.456128
v 0.447244 0.504101 0.456128
v 0.447244 0.504101 0.469647
v 0.447244 0.504101 0.469647
v 0.447244 0.504101 0.456128
v 0.447244 0.504101 0.456128
v 0.446688 0.506588 0.456128
v 0.446688 0.506588 0.469647
v 0.446688 0.506588 0.469647
v 0.446688 0.506588 0.456128
v 0.446688 0.506588 0.456128
v 0.445978 0.509035 0.456128
v 0.445978 0.509035 0.469647
v 0.445978 0.509035 0.469647
v 0.445978 0.509035 0.456128
v 0.445978 0.509035 0.456128
v 0.445114 0.511432 0.456128
v 0.445114 0.511432 0.469647
v 0.445114 0.511432 0.469647
v 0.445114 0.511432 0.456128
v 0.445114 0.511432 0.456128
v 0.444103 0.513770 0.456128
v 0.444103 0.513770 0.469647
v 0.444103 0.513770 0.469647
v 0.444103 0.513770 0.456128
v 0.444103 0.513770 0.456128
v 0.442946 0.516041 0.456128
v 0.442946 0.516041 0.469647
v 0.442946 0.516041 0.469647
v 0.442946 0.516041 0.456128
v 0.442946 0.516041 0.456128
v 0.441649 0.518234 0.456128
v 0.441649 0.518234 0.469647
v 0.441649 0.518234 0.469647
v 0.441649 0.518234 0.456128
v 0.441649 0.518234 0.456128
v 0.440217 0.520341 0.456128
v 0.440217 0.520341 0.469647
v 0.440217 0.520341 0.469647
v 0.440217 0.520341 0.456128
v 0.440217 0.520341 0.456128
v 0.438655 0.522354 0.456128
v 0.438655 0.522354 0.469647
v 0.438655 0.522354 0.469647
v 0.438655 0.522354 0.456128
v 0.438655 0.522354 0.456128
v 0.436971 0.524265 0.456128
v 0.436971 0.524265 0.469647
v 0.436971 0.524265 0.469647
v 0.436971 0.524265 0.456128
v 0.436971 0.524265 0.456128
v 0.435169 0.526067 0.456128
v 0.435169 0.526067 0.469647
v 0.435169 0.526067 0.469647
v 0.435169 0.526067 0.456128
v 0.435169 0.526067 0.456128
v 0.433258 0.527751 0.456128
v 0.433258 0.527751 0.469647
v 0.433258 0.527751 0.469647
v 0.433258 0.527751 0.456128
v 0.433258 0.527751 0.456128
v 0.431245 0.529313 0.469647
v 0.431245 0.529313 0.456128
v 0.431245 0.529313 0.469647
v 0.431245 0.529313 0.456128
v 0.431245 0.529313 0.456128
v 0.429137 0.530745 0.456128
v 0.429137 0.530745 0.469647
v 0.429137 0.530745 0.469647
v 0.429137 0.530745 0.456128
v 0.429137 0.530745 0.456128
v 0.426944 0.532042 0.456128
v 0.426944 0.532042 0.469647
v 0.426944 0.532042 0.469647
v 0.426944 0.532042 0.456128
v 0.426944 0.532042 0.456128
v 0.424674 0.533199 0.456128
v 0.424674 0.533199 0.469647
v 0.424674 0.533199 0.469647
v 0.424674 0.533199 0.456128
v 0.424674 0.533199 0.456128
v 0.422336 0.534211 0.469647
v 0.422336 0.534211 0.456128
v 0.422336 0.534211 0.469647
v 0.422336 0.534211 0.456128
v 0.422336 0.534211 0.456128
v 0.419939 0.535074 0.456128
v 0.419939 0.535074 0.469647
v 0.419939 0.535074 0.469647
v 0.419939 0.535074 0.456128
v 0.419939 0.535074 0.456128
v 0.417492 0.535785 0.469647
v 0.417492 0.535785 0.456128
v 0.417492 0.535785 0.469647
v 0.417492 0.535785 0.456128
v 0.417492 0.535785 0.456128
v 0.415005 0.536340 0.456128
v 0.415005 0.536340 0.469647
v 0.415005 0.536340 0.469647
v 0.415005 0.536340 0.456128
v 0.415005 0.536340 0.456128
v 0.412489 0.536739 0.456128
v 0.412489 0.536739 0.469647
v 0.412489 0.536739 0.469647
v 0.412489 0.536739 0.456128
v 0.412489 0.536739 0.456128
v 0.409962 0.462410 0.469647
v 0.407406 0.537059 0.469647
v 0.407406 0.455945 0.469647
v 0.409962 0.530594 0.469647
v 0.412071 0.469035 0.469647
v 0.412071 0.523969 0.469647
v 0.413721 0.475788 0.469647
v 0.413721 0.517216 0.469647
v 0.414904 0.482639 0.469647
v 0.414904 0.510365 0.469647
v 0.415617 0.489554 0.469647
v 0.415617 0.503450 0.469647
v 0.415855 0.496502 0.469647
v 0.415855 0.496502 0.469647
v 0.415617 0.489554 0.469647
v 0.415617 0.503450 0.469647
v 0.414904 0.510365 0.469647
v 0.414904 0.482639 0.469647
v 0.413721 0.517216 0.469647
v 0.413721 0.475788 0.469647
v 0.412071 0.523969 0.469647
v 0.412071 0.469035 0.469647
v 0.409962 0.530594 0.469647
v 0.409962 0.462410 0.469647
v 0.407406 0.537059 0.469647
v 0.407406 0.455945 0.469647
v 0.412071 0.523969 0.469647
v 0.412071 0.523969 0.483166
v 0.412071 0.523969 0.469647
v 0.412071 0.523969 0.483166
v 0.412071 0.523969 0.483166
v 0.413721 0.517216 0.483166
v 0.413721 0.517216 0.469647
v 0.413721 0.517216 0.483166
v 0.413721 0.517216 0.469647
v 0.413721 0.517216 0.483166
v 0.414904 0.510365 0.483166
v 0.414904 0.510365 0.469647
v 0.414904 0.510365 0.483166
v 0.414904 0.510365 0.469647
v 0.414904 0.510365 0.483166
v 0.415617 0.503450 0.469647
v 0.415617 0.503450 0.483166
v 0.415617 0.503450 0.469647
v 0.415617 0.503450 0.483166
v 0.415617 0.503450 0.483166
v 0.415855 0.496502 0.483166
v 0.415855 0.496502 0.469647
v 0.415855 0.496502 0.483166
v 0.415855 0.496502 0.469647
v 0.415855 0.496502 0.483166
v 0.415617 0.489554 0.483166
v 0.415617 0.489554 0.469647
v 0.415617 0.489554 0.483166
v 0.415617 0.489554 0.469647
v 0.415617 0.489554 0.483166
v 0.414904 0.482639 0.469647
v 0.414904 0.482639 0.483166
v 0.414904 0.482639 0.469647
v 0.414904 0.482639 0.483166
v 0.414904 0.482639 0.483166
v 0.413721 0.475788 0.469647
v 0.413721 0.475788 0.483166
v 0.413721 0.475788 0.469647
v 0.413721 0.475788 0.483166
v 0.413721 0.475788 0.483166
v 0.412071 0.469035 0.483166
v 0.412071 0.469035 0.469647
v 0.412071 0.469035 0.483166
v 0.412071 0.469035 0.469647
v 0.412071 0.469035 0.483166
v 0.409962 0.462410 0.483166
v 0.407406 0.458637 0.485556
v 0.407406 0.455945 0.483166
v 0.409029 0.462742 0.485556
v 0.409029 0.462742 0.485556
v 0.409962 0.462410 0.483166
v 0.407406 0.458637 0.485556
v 0.407406 0.455945 0.483166
v 0.409029 0.462742 0.485556
v 0.408815 0.469949 0.486546
v 0.407406 0.527482 0.486546
v 0.407406 0.465522 0.486546
v 0.408815 0.523055 0.486546
v 0.410410 0.476478 0.486546
v 0.410410 0.516526 0.486546
v 0.411555 0.483100 0.486546
v 0.411555 0.509904 0.486546
v 0.412244 0.489786 0.486546
v 0.412244 0.503218 0.486546
v 0.412474 0.496502 0.486546
v 0.412474 0.496502 0.486546
v 0.412244 0.489786 0.486546
v 0.412244 0.503218 0.486546
v 0.411555 0.509904 0.486546
v 0.411555 0.483100 0.486546
v 0.410410 0.516526 0.486546
v 0.410410 0.476478 0.486546
v 0.408815 0.523055 0.486546
v 0.408815 0.469949 0.486546
v 0.407406 0.527482 0.486546
v 0.407406 0.465522 0.486546
v 0.408815 0.469949 0.486546
v 0.410410 0.476478 0.486546
v 0.411555 0.483100 0.486546
v 0.412244 0.489786 0.486546
v 0.412474 0.496502 0.486546
v 0.412244 0.503218 0.486546
v 0.411555 0.509904 0.486546
v 0.410410 0.516526 0.486546
v 0.408815 0.523055 0.486546
v 0.402568 0.489786 0.486546
v 0.402568 0.503218 0.486546
v 0.402338 0.496502 0.486546
v 0.403257 0.483100 0.486546
v 0.403257 0.509904 0.486546
v 0.404402 0.476478 0.486546
v 0.404402 0.516526 0.486546
v 0.405997 0.469949 0.486546
v 0.405997 0.523055 0.486546
v 0.407406 0.465522 0.486546
v 0.407406 0.527482 0.486546
v 0.407406 0.527482 0.486546
v 0.407406 0.465522 0.486546
v 0.405997 0.523055 0.486546
v 0.405997 0.469949 0.486546
v 0.404402 0.516526 0.486546
v 0.404402 0.476478 0.486546
v 0.403257 0.509904 0.486546
v 0.403257 0.483100 0.486546
v 0.402568 0.503218 0.486546
v 0.402568 0.489786 0.486546
v 0.402338 0.496502 0.486546
v 0.405997 0.523055 0.486546
v 0.404402 0.516526 0.486546
v 0.403257 0.509904 0.486546
v 0.402568 0.503218 0.486546
v 0.402338 0.496502 0.486546
v 0.402568 0.489786 0.486546
v 0.403257 0.483100 0.486546
v 0.404402 0.476478 0.486546
v 0.405997 0.469949 0.486546
v 0.407406 0.463321 0.486270
v 0.407406 0.463321 0.486270
v 0.408035 0.463545 0.486546
v 0.407406 0.463321 0.486270
v 0.407406 0.463321 0.486270
v 0.406777 0.463545 0.486546
v 0.409962 0.530594 0.483166
v 0.407406 0.534367 0.485556
v 0.409029 0.530262 0.485556
v 0.407406 0.537059 0.483166
v 0.407406 0.537059 0.483166
v 0.409962 0.530594 0.483166
v 0.407406 0.534367 0.485556
v 0.409029 0.530262 0.485556
v 0.409029 0.530262 0.485556
v 0.407406 0.529683 0.486270
v 0.407406 0.529683 0.486270
v 0.408035 0.529458 0.486546
v 0.407406 0.529683 0.486270
v 0.407406 0.529683 0.486270
v 0.406777 0.529458 0.486546
v 0.405997 0.469949 0.486546
v 0.407406 0.465522 0.486546
v 0.408035 0.463545 0.486546
v 0.408035 0.463545 0.486546
v 0.407406 0.465522 0.486546
v 0.405997 0.469949 0.486546
v 0.404402 0.476478 0.486546
v 0.404402 0.476478 0.486546
v 0.403257 0.483100 0.486546
v 0.403257 0.483100 0.486546
v 0.402568 0.489786 0.486546
v 0.402568 0.489786 0.486546
v 0.402338 0.496502 0.486546
v 0.402338 0.496502 0.486546
v 0.402568 0.503218 0.486546
v 0.402568 0.503218 0.486546
v 0.403257 0.509904 0.486546
v 0.403257 0.509904 0.486546
v 0.404402 0.516526 0.486546
v 0.404402 0.516526 0.486546
v 0.405997 0.523055 0.486546
v 0.405997 0.523055 0.486546
v 0.407406 0.529683 0.486270
v 0.407406 0.527482 0.486546
v 0.408035 0.529458 0.486546
v 0.408035 0.529458 0.486546
v 0.407406 0.527482 0.486546
v 0.407406 0.529683 0.486270
v 0.412071 0.523969 0.483166
v 0.411117 0.523701 0.485556
v 0.412071 0.523969 0.483166
v 0.411117 0.523701 0.485556
v 0.411117 0.523701 0.485556
v 0.413721 0.517216 0.483166
v 0.412751 0.517014 0.485556
v 0.413721 0.517216 0.483166
v 0.412751 0.517014 0.485556
v 0.412751 0.517014 0.485556
v 0.414904 0.510365 0.483166
v 0.413923 0.510230 0.485556
v 0.414904 0.510365 0.483166
v 0.413923 0.510230 0.485556
v 0.413923 0.510230 0.485556
v 0.415617 0.503450 0.483166
v 0.414629 0.503382 0.485556
v 0.415617 0.503450 0.483166
v 0.414629 0.503382 0.485556
v 0.414629 0.503382 0.485556
v 0.414865 0.496502 0.485556
v 0.415855 0.496502 0.483166
v 0.414865 0.496502 0.485556
v 0.415855 0.496502 0.483166
v 0.414865 0.496502 0.485556
v 0.414629 0.489622 0.485556
v 0.415617 0.489554 0.483166
v 0.414629 0.489622 0.485556
v 0.415617 0.489554 0.483166
v 0.414629 0.489622 0.485556
v 0.413923 0.482774 0.485556
v 0.414904 0.482639 0.483166
v 0.413923 0.482774 0.485556
v 0.414904 0.482639 0.483166
v 0.413923 0.482774 0.485556
v 0.412751 0.475990 0.485556
v 0.413721 0.475788 0.483166
v 0.412751 0.475990 0.485556
v 0.413721 0.475788 0.483166
v 0.412751 0.475990 0.485556
v 0.411117 0.469302 0.485556
v 0.412071 0.469035 0.483166
v 0.411117 0.469302 0.485556
v 0.412071 0.469035 0.483166
v 0.411117 0.469302 0.485556
v 0.407406 0.463321 0.486270
v 0.407406 0.465522 0.486546
v 0.406777 0.463545 0.486546
v 0.408815 0.469949 0.486546
v 0.408815 0.469949 0.486546
v 0.407406 0.465522 0.486546
v 0.407406 0.463321 0.486270
v 0.406777 0.463545 0.486546
v 0.410410 0.476478 0.486546
v 0.410410 0.476478 0.486546
v 0.411555 0.483100 0.486546
v 0.411555 0.483100 0.486546
v 0.412244 0.489786 0.486546
v 0.412244 0.489786 0.486546
v 0.412474 0.496502 0.486546
v 0.412474 0.496502 0.486546
v 0.412244 0.503218 0.486546
v 0.412244 0.503218 0.486546
v 0.411555 0.509904 0.486546
v 0.411555 0.509904 0.486546
v 0.410410 0.516526 0.486546
v 0.410410 0.516526 0.486546
v 0.408815 0.523055 0.486546
v 0.408815 0.523055 0.486546
v 0.407406 0.527482 0.486546
v 0.406777 0.529458 0.486546
v 0.407406 0.527482 0.486546
v 0.406777 0.529458 0.486546
vn -0.0627905217796479 -0.9980267282866925 0
vn -0.1253332006906906 -0.9921147054673806 0
vn 0.0627905217796479 0.9980267282866925 0
vn 0.1253332006906906 0.9921147054673806 0
vn 0 -1 0
vn 0 1 0
vn 0 0 1
vn 0 0 -1
vn -0.18738129144314172 -0.9822872551433722 0
vn 0.18738129144314172 0.9822872551433722 0
vn 0.0627905217796479 -0.9980267282866925 0
vn -0.0627905217796479 0.9980267282866925 0
vn -0.1253332006906906 0.9921147054673806 0
vn 0.1253332006906906 -0.9921147054673806 0
vn -0.18738129144314172 0.9822872551433722 0
vn 0.18738129144314172 -0.9822872551433722 0
vn -0.24868988984297663 0.9685831604410063 0
vn 0.24868988984297663 -0.9685831604410063 0
vn -0.3090170042518809 0.9510565130859434 0
vn 0.3090170042518809 -0.9510565130859434 0
vn -0.368124588757952 0.9297764716058311 0
vn 0.368124588757952 -0.9297764716058311 0
vn -0.42577928015806865 0.9048270578337482 0
vn 0.42577928015806865 -0.9048270578337482 0
vn -0.4817536855645931 0.8763066737420931 0
vn 0.4817536855645931 -0.8763066737420931 0
vn -0.5358268100958747 0.8443279159085524 0
vn 0.5358268100958747 -0.8443279159085524 0
vn -0.5877852808425821 0.8090169736320784 0
vn 0.5877852808425821 -0.8090169736320784 0
vn -0.6374240168438534 0.7705132203607198 0
vn 0.6374240168438534 -0.7705132203607198 0
vn -0.6845471164618626 0.7289686175301027 0
vn 0.6845471164618626 -0.7289686175301027 0
vn -0.7289686175301027 0.6845471164618626 0
vn 0.7289686175301027 -0.6845471164618626 0
vn -0.7705132203607198 0.6374240168438534 0
vn 0.7705132203607198 -0.6374240168438534 0
vn -0.8090169736320784 0.5877852808425821 0
vn 0.8090169736320784 -0.5877852808425821 0
vn -0.8443279159085524 0.5358268100958747 0
vn 0.8443279159085524 -0.5358268100958747 0
vn -0.8763066737420931 0.4817536855645931 0
vn 0.8763066737420931 -0.4817536855645931 0
vn -0.9048270578337482 0.42577928015806865 0
vn 0.9048270578337482 -0.42577928015806865 0
vn -0.9297764716058311 0.368124588757952 0
vn 0.9297764716058311 -0.368124588757952 0
vn -0.9510565130859434 0.3090170042518809 0
vn 0.9510565130859434 -0.3090170042518809 0
vn -0.9685831604410063 0.24868988984297663 0
vn 0.9685831604410063 -0.24868988984297663 0
vn -0.9822872551433722 0.18738129144314172 0
vn 0.9822872551433722 -0.18738129144314172 0
vn -0.9921147054673806 0.1253332006906906 0
vn 0.9921147054673806 -0.1253332006906906 0
vn -0.9980267282866925 0.0627905217796479 0
vn 0.9980267282866925 -0.0627905217796479 0
vn -1 0 0
vn 1 0 0
vn -0.9980267282866925 -0.0627905217796479 0
vn 0.9980267282866925 0.0627905217796479 0
vn -0.9921147054673806 -0.1253332006906906 0
vn 0.9921147054673806 0.1253332006906906 0
vn -0.9822872551433722 -0.18738129144314172 0
vn 0.9822872551433722 0.18738129144314172 0
vn -0.9685831604410063 -0.24868988984297663 0
vn 0.9685831604410063 0.24868988984297663 0
vn -0.9510565130859434 -0.3090170042518809 0
vn 0.9510565130859434 0.3090170042518809 0
vn -0.9297764716058311 -0.368124588757952 0
vn 0.9297764716058311 0.368124588757952 0
vn -0.9048270578337482 -0.42577928015806865 0
vn 0.9048270578337482 0.42577928015806865 0
vn -0.8763066737420931 -0.4817536855645931 0
vn 0.8763066737420931 0.4817536855645931 0
vn -0.8443279159085524 -0.5358268100958747 0
vn 0.8443279159085524 0.5358268100958747 0
vn -0.8090169736320784 -0.5877852808425821 0
vn 0.8090169736320784 0.5877852808425821 0
vn -0.7705132203607198 -0.6374240168438534 0
vn 0.7705132203607198 0.6374240168438534 0
vn -0.7289686175301027 -0.6845471164618626 0
vn 0.7289686175301027 0.6845471164618626 0
vn -0.6845471164618626 -0.7289686175301027 0
vn 0.6845471164618626 0.7289686175301027 0
vn -0.6374240168438534 -0.7705132203607198 0
vn 0.6374240168438534 0.7705132203607198 0
vn -0.5877852808425821 -0.8090169736320784 0
vn 0.5877852808425821 0.8090169736320784 0
vn -0.5358268100958747 -0.8443279159085524 0
vn 0.5358268100958747 0.8443279159085524 0
vn -0.4817536855645931 -0.8763066737420931 0
vn 0.4817536855645931 0.8763066737420931 0
vn -0.42577928015806865 -0.9048270578337482 0
vn 0.42577928015806865 0.9048270578337482 0
vn -0.368124588757952 -0.9297764716058311 0
vn 0.368124588757952 0.9297764716058311 0
vn -0.3090170042518809 -0.9510565130859434 0
vn 0.3090170042518809 0.9510565130859434 0
vn -0.24868988984297663 -0.9685831604410063 0
vn 0.24868988984297663 0.9685831604410063 0
vn -0.9419742249789527 -0.33568520890158643 0
vn -0.9299329991026148 -0.36772899964514155 0
vn 0.9419742249789527 0.33568520890158643 0
vn 0.9299329991026148 0.36772899964514155 0
vn -0.9627325048399403 -0.2704554013596591 0
vn 0.9627325048399403 0.2704554013596591 0
vn -0.9789795777991663 -0.20395829537473073 0
vn 0.9789795777991663 0.20395829537473073 0
vn -0.9906393127620399 -0.1365055017585499 0
vn 0.9906393127620399 0.1365055017585499 0
vn -0.9976570847927481 -0.06841301895718276 0
vn 0.9976570847927481 0.06841301895718276 0
vn -0.9976570847927481 0.06841301895718276 0
vn 0.9976570847927481 -0.06841301895718276 0
vn -0.9906393127620399 0.1365055017585499 0
vn 0.9906393127620399 -0.1365055017585499 0
vn -0.9789795777991663 0.20395829537473073 0
vn 0.9789795777991663 -0.20395829537473073 0
vn -0.9627325048399403 0.2704554013596591 0
vn 0.9627325048399403 -0.2704554013596591 0
vn -0.9419742249789527 0.33568520890158643 0
vn 0.9419742249789527 -0.33568520890158643 0
vn -0.9299329991026148 0.36772899964514155 0
vn 0.9299329991026148 -0.36772899964514155 0
vn -0.8155661778927374 -0.3225041912579935 0.480461086976312
vn -0.8701960005647529 -0.3101060002012573 0.3828749002484839
vn -0.8591460833359769 -0.3397372934104453 0.3826833925774615
vn -0.6698224034904278 -0.23870020124386077 0.7031075036638756
vn 0.6698224034904278 0.23870020124386077 -0.7031075036638756
vn 0.8155661778927374 0.3225041912579935 -0.480461086976312
vn 0.8701960005647529 0.3101060002012573 -0.3828749002484839
vn 0.8591460833359769 0.3397372934104453 -0.3826833925774615
vn -0.8893724971952972 -0.2498466992120897 0.3828748987925753
vn -0.6845832832605355 -0.19231639529746994 0.7031074828075808
vn 0.6845832832605355 0.19231639529746994 -0.7031074828075808
vn 0.8893724971952972 0.2498466992120897 -0.3828748987925753
vn -0.9043815273886748 -0.18841670570609165 0.3828749115951467
vn -0.696136295920676 -0.14503139915012325 0.7031074958798251
vn 0.696136295920676 0.14503139915012325 -0.7031074958798251
vn 0.9043815273886748 0.18841670570609165 -0.3828749115951467
vn -0.9151527978163126 -0.12610379969909802 0.382874899086405
vn -0.7044273710870433 -0.09706679601592984 0.7031074711412181
vn 0.7044273710870433 0.09706679601592984 -0.7031074711412181
vn 0.9151527978163126 0.12610379969909802 -0.382874899086405
vn -0.9216358129786362 -0.06319996088999287 0.3828749053917112
vn -0.7094175803750717 -0.04864737865424632 0.7031074805496308
vn 0.7094175803750717 0.04864737865424632 -0.7031074805496308
vn 0.9216358129786362 0.06319996088999287 -0.3828749053917112
vn -0.9238002006604942 0 0.3828749002737461
vn -0.7110835848022916 0 0.7031074849727615
vn 0.7110835848022916 0 -0.7031074849727615
vn 0.9238002006604942 0 -0.3828749002737461
vn -0.7094175803750717 0.04864737865424632 0.7031074805496308
vn -0.9216358129786362 0.06319996088999287 0.3828749053917112
vn 0.9216358129786362 -0.06319996088999287 -0.3828749053917112
vn 0.7094175803750717 -0.04864737865424632 -0.7031074805496308
vn -0.7044273710870433 0.09706679601592984 0.7031074711412181
vn -0.9151527978163126 0.12610379969909802 0.382874899086405
vn 0.9151527978163126 -0.12610379969909802 -0.382874899086405
vn 0.7044273710870433 -0.09706679601592984 -0.7031074711412181
vn -0.696136295920676 0.14503139915012325 0.7031074958798251
vn -0.9043815273886748 0.18841670570609165 0.3828749115951467
vn 0.9043815273886748 -0.18841670570609165 -0.3828749115951467
vn 0.696136295920676 -0.14503139915012325 -0.7031074958798251
vn -0.6845832832605355 0.19231639529746994 0.7031074828075808
vn -0.8893724971952972 0.2498466992120897 0.3828748987925753
vn 0.8893724971952972 -0.2498466992120897 -0.3828748987925753
vn 0.6845832832605355 -0.19231639529746994 -0.7031074828075808
vn -0.6698224034904278 0.23870020124386077 0.7031075036638756
vn -0.8701960005647529 0.3101060002012573 0.3828749002484839
vn 0.8701960005647529 -0.3101060002012573 -0.3828749002484839
vn 0.6698224034904278 -0.23870020124386077 -0.7031075036638756
vn -0.8155661778927374 0.3225041912579935 0.480461086976312
vn -0.8591460833359769 0.3397372934104453 0.3826833925774615
vn 0.8591460833359769 -0.3397372934104453 -0.3826833925774615
vn 0.8155661778927374 -0.3225041912579935 -0.480461086976312
vn 0.8701960005647529 -0.3101060002012573 0.3828749002484839
vn 0.8155661778927374 -0.3225041912579935 0.480461086976312
vn 0.8591460833359769 -0.3397372934104453 0.3826833925774615
vn 0.6698224034904278 -0.23870020124386077 0.7031075036638756
vn -0.6698224034904278 0.23870020124386077 -0.7031075036638756
vn -0.8701960005647529 0.3101060002012573 -0.3828749002484839
vn -0.8155661778927374 0.3225041912579935 -0.480461086976312
vn -0.8591460833359769 0.3397372934104453 -0.3826833925774615
vn -0.3602976020549916 -0.12839690073232393 0.9239588052698869
vn 0.3602976020549916 0.12839690073232393 -0.9239588052698869
vn 0.35586991705814447 -0.14072380674540588 0.9238795442849198
vn -0.35586991705814447 0.14072380674540588 -0.9238795442849198
vn 0.8701960005647529 0.3101060002012573 0.3828749002484839
vn 0.8155661778927374 0.3225041912579935 0.480461086976312
vn 0.6698224034904278 0.23870020124386077 0.7031075036638756
vn 0.8591460833359769 0.3397372934104453 0.3826833925774615
vn -0.8591460833359769 -0.3397372934104453 -0.3826833925774615
vn -0.8701960005647529 -0.3101060002012573 -0.3828749002484839
vn -0.8155661778927374 -0.3225041912579935 -0.480461086976312
vn -0.6698224034904278 -0.23870020124386077 -0.7031075036638756
vn -0.35586991705814447 0.14072380674540588 0.9238795442849198
vn 0.35586991705814447 -0.14072380674540588 -0.9238795442849198
vn 0.3602976020549916 0.12839690073232393 0.9239588052698869
vn -0.3602976020549916 -0.12839690073232393 -0.9239588052698869
vn -0.3682374995741904 -0.10344699988037957 0.9239587989315848
vn -0.364663511476599 -0.1160480036522338 0.9238795290761059
vn -0.3581133933683972 -0.134502097509268 0.9239393828903382
vn 0.3581133933683972 0.134502097509268 -0.9239393828903382
vn 0.364663511476599 0.1160480036522338 -0.9238795290761059
vn 0.3682374995741904 0.10344699988037957 -0.9239587989315848
vn -0.3744518952023242 -0.07801240900046374 0.9239587881617511
vn 0.3744518952023242 0.07801240900046374 -0.9239587881617511
vn -0.3789116030763715 -0.05221225042390963 0.9239588075015926
vn 0.3789116030763715 0.05221225042390963 -0.9239588075015926
vn -0.3815958943930103 -0.026167429615508157 0.9239587864237864
vn 0.3815958943930103 0.026167429615508157 -0.9239587864237864
vn -0.3824920011166013 0 0.9239588026972946
vn 0.3824920011166013 0 -0.9239588026972946
vn -0.3815958943930103 0.026167429615508157 0.9239587864237864
vn 0.3815958943930103 -0.026167429615508157 -0.9239587864237864
vn -0.3789116030763715 0.05221225042390963 0.9239588075015926
vn 0.3789116030763715 -0.05221225042390963 -0.9239588075015926
vn -0.3744518952023242 0.07801240900046374 0.9239587881617511
vn 0.3744518952023242 -0.07801240900046374 -0.9239587881617511
vn -0.3682374995741904 0.10344699988037957 0.9239587989315848
vn 0.3682374995741904 -0.10344699988037957 -0.9239587989315848
vn -0.3602976020549916 0.12839690073232393 0.9239588052698869
vn -0.364663511476599 0.1160480036522338 0.9238795290761059
vn -0.3581133933683972 0.134502097509268 0.9239393828903382
vn 0.3581133933683972 -0.134502097509268 -0.9239393828903382
vn 0.364663511476599 -0.1160480036522338 -0.9238795290761059
vn 0.3602976020549916 -0.12839690073232393 -0.9239588052698869
vn 0.8893724971952972 0.2498466992120897 0.3828748987925753
vn 0.6845832832605355 0.19231639529746994 0.7031074828075808
vn -0.8893724971952972 -0.2498466992120897 -0.3828748987925753
vn -0.6845832832605355 -0.19231639529746994 -0.7031074828075808
vn 0.9043815273886748 0.18841670570609165 0.3828749115951467
vn 0.696136295920676 0.14503139915012325 0.7031074958798251
vn -0.9043815273886748 -0.18841670570609165 -0.3828749115951467
vn -0.696136295920676 -0.14503139915012325 -0.7031074958798251
vn 0.9151527978163126 0.12610379969909802 0.382874899086405
vn 0.7044273710870433 0.09706679601592984 0.7031074711412181
vn -0.9151527978163126 -0.12610379969909802 -0.382874899086405
vn -0.7044273710870433 -0.09706679601592984 -0.7031074711412181
vn 0.9216358129786362 0.06319996088999287 0.3828749053917112
vn 0.7094175803750717 0.04864737865424632 0.7031074805496308
vn -0.9216358129786362 -0.06319996088999287 -0.3828749053917112
vn -0.7094175803750717 -0.04864737865424632 -0.7031074805496308
vn 0.7110835848022916 0 0.7031074849727615
vn 0.9238002006604942 0 0.3828749002737461
vn -0.7110835848022916 0 -0.7031074849727615
vn -0.9238002006604942 0 -0.3828749002737461
vn 0.7094175803750717 -0.04864737865424632 0.7031074805496308
vn 0.9216358129786362 -0.06319996088999287 0.3828749053917112
vn -0.7094175803750717 0.04864737865424632 -0.7031074805496308
vn -0.9216358129786362 0.06319996088999287 -0.3828749053917112
vn 0.7044273710870433 -0.09706679601592984 0.7031074711412181
vn 0.9151527978163126 -0.12610379969909802 0.382874899086405
vn -0.7044273710870433 0.09706679601592984 -0.7031074711412181
vn -0.9151527978163126 0.12610379969909802 -0.382874899086405
vn 0.696136295920676 -0.14503139915012325 0.7031074958798251
vn 0.9043815273886748 -0.18841670570609165 0.3828749115951467
vn -0.696136295920676 0.14503139915012325 -0.7031074958798251
vn -0.9043815273886748 0.18841670570609165 -0.3828749115951467
vn 0.6845832832605355 -0.19231639529746994 0.7031074828075808
vn 0.8893724971952972 -0.2498466992120897 0.3828748987925753
vn -0.6845832832605355 0.19231639529746994 -0.7031074828075808
vn -0.8893724971952972 0.2498466992120897 -0.3828748987925753
vn 0.3602976020549916 -0.12839690073232393 0.9239588052698869
vn 0.364663511476599 -0.1160480036522338 0.9238795290761059
vn 0.3581133933683972 -0.134502097509268 0.9239393828903382
vn 0.3682374995741904 -0.10344699988037957 0.9239587989315848
vn -0.3682374995741904 0.10344699988037957 -0.9239587989315848
vn -0.364663511476599 0.1160480036522338 -0.9238795290761059
vn -0.3602976020549916 0.12839690073232393 -0.9239588052698869
vn -0.3581133933683972 0.134502097509268 -0.9239393828903382
vn 0.3744518952023242 -0.07801240900046374 0.9239587881617511
vn -0.3744518952023242 0.07801240900046374 -0.9239587881617511
vn 0.3789116030763715 -0.05221225042390963 0.9239588075015926
vn -0.3789116030763715 0.05221225042390963 -0.9239588075015926
vn 0.3815958943930103 -0.026167429615508157 0.9239587864237864
vn -0.3815958943930103 0.026167429615508157 -0.9239587864237864
vn 0.3824920011166013 0 0.9239588026972946
vn -0.3824920011166013 0 -0.9239588026972946
vn 0.3815958943930103 0.026167429615508157 0.9239587864237864
vn -0.3815958943930103 -0.026167429615508157 -0.9239587864237864
vn 0.3789116030763715 0.05221225042390963 0.9239588075015926
vn -0.3789116030763715 -0.05221225042390963 -0.9239588075015926
vn 0.3744518952023242 0.07801240900046374 0.9239587881617511
vn -0.3744518952023242 -0.07801240900046374 -0.9239587881617511
vn 0.3682374995741904 0.10344699988037957 0.9239587989315848
vn -0.3682374995741904 -0.10344699988037957 -0.9239587989315848
vn 0.364663511476599 0.1160480036522338 0.9238795290761059
vn 0.3581133933683972 0.134502097509268 0.9239393828903382
vn -0.364663511476599 -0.1160480036522338 -0.9238795290761059
vn -0.3581133933683972 -0.134502097509268 -0.9239393828903382
usemtl material_0_0
f 1//1 2//2 3//2
f 2//2 1//1 4//1
f 5//3 6//3 7//4
f 8//4 7//4 6//3
f 13//5 1//1 14//5
f 1//1 13//5 4//1
f 5//3 15//6 6//3
f 16//6 6//3 15//6
f 19//7 20//7 21//7
f 20//7 19//7 22//7
f 22//7 19//7 23//7
f 23//7 19//7 24//7
f 23//7 24//7 25//7
f 25//7 24//7 26//7
f 26//7 24//7 27//7
f 26//7 27//7 28//7
f 28//7 27//7 29//7
f 30//7 31//7 32//7
f 31//7 30//7 33//7
f 31//7 33//7 34//7
f 34//7 33//7 35//7
f 34//7 35//7 36//7
f 36//7 35//7 37//7
f 36//7 37//7 38//7
f 38//7 37//7 39//7
f 38//7 39//7 40//7
f 40//7 39//7 41//7
f 40//7 41//7 42//7
f 42//7 41//7 43//7
f 42//7 43//7 44//7
f 44//7 43//7 45//7
f 45//7 43//7 46//7
f 45//7 46//7 47//7
f 45//7 47//7 48//7
f 48//7 47//7 49//7
f 49//7 47//7 50//7
f 49//7 50//7 51//7
f 51//7 50//7 52//7
f 51//7 52//7 53//7
f 51//7 53//7 54//7
f 54//7 53//7 55//7
f 55//7 53//7 56//7
f 55//7 56//7 57//7
f 55//7 57//7 58//7
f 58//7 57//7 59//7
f 58//7 59//7 60//7
f 60//7 59//7 61//7
f 60//7 61//7 62//7
f 62//7 61//7 63//7
f 62//7 63//7 64//7
f 64//7 63//7 65//7
f 64//7 65//7 66//7
f 66//7 65//7 67//7
f 67//7 65//7 68//7
f 67//7 68//7 69//7
f 67//7 69//7 70//7
f 70//7 69//7 71//7
f 71//7 69//7 21//7
f 71//7 21//7 72//7
f 72//7 21//7 20//7
f 72//7 20//7 73//7
f 72//7 73//7 74//7
f 72//7 74//7 75//7
f 75//7 74//7 76//7
f 75//7 76//7 77//7
f 75//7 77//7 78//7
f 78//7 77//7 79//7
f 78//7 79//7 80//7
f 81//8 82//8 83//8
f 82//8 84//8 83//8
f 83//8 84//8 85//8
f 84//8 86//8 85//8
f 86//8 87//8 85//8
f 85//8 87//8 88//8
f 87//8 89//8 88//8
f 89//8 90//8 88//8
f 90//8 91//8 88//8
f 88//8 91//8 92//8
f 91//8 93//8 92//8
f 92//8 93//8 94//8
f 94//8 93//8 95//8
f 93//8 96//8 95//8
f 96//8 97//8 95//8
f 95//8 97//8 98//8
f 98//8 97//8 99//8
f 97//8 100//8 99//8
f 99//8 100//8 101//8
f 100//8 102//8 101//8
f 101//8 102//8 103//8
f 102//8 104//8 103//8
f 103//8 104//8 105//8
f 104//8 106//8 105//8
f 105//8 106//8 107//8
f 106//8 108//8 107//8
f 108//8 109//8 107//8
f 107//8 109//8 110//8
f 110//8 109//8 111//8
f 109//8 112//8 111//8
f 112//8 113//8 111//8
f 111//8 113//8 114//8
f 113//8 115//8 114//8
f 114//8 115//8 116//8
f 116//8 115//8 117//8
f 115//8 118//8 117//8
f 118//8 119//8 117//8
f 117//8 119//8 120//8
f 120//8 119//8 121//8
f 119//8 122//8 121//8
f 121//8 122//8 123//8
f 122//8 124//8 123//8
f 123//8 124//8 125//8
f 124//8 126//8 125//8
f 125//8 126//8 127//8
f 126//8 128//8 127//8
f 127//8 128//8 129//8
f 128//8 130//8 129//8
f 129//8 130//8 131//8
f 130//8 132//8 131//8
f 133//8 131//8 132//8
f 134//8 135//8 136//8
f 136//8 135//8 137//8
f 135//8 138//8 137//8
f 137//8 138//8 139//8
f 139//8 138//8 140//8
f 138//8 141//8 140//8
f 140//8 141//8 142//8
f 142//8 141//8 90//8
f 91//8 90//8 141//8
f 3//2 202//9 203//9
f 202//9 3//2 2//2
f 7//4 8//4 204//10
f 205//10 204//10 8//4
f 207//11 14//5 208//11
f 14//5 207//11 13//5
f 15//6 209//12 16//6
f 210//12 16//6 209//12
f 213//12 214//6 215//6
f 214//6 213//12 216//12
f 217//11 218//11 219//5
f 220//5 219//5 218//11
f 223//13 213//12 224//13
f 213//12 223//13 216//12
f 217//11 225//14 218//11
f 226//14 218//11 225//14
f 228//15 224//13 229//15
f 224//13 228//15 223//13
f 225//14 230//16 226//14
f 231//16 226//14 230//16
f 233//17 228//15 229//15
f 228//15 233//17 234//17
f 235//18 236//18 230//16
f 231//16 230//16 236//18
f 238//19 233//17 239//19
f 233//17 238//19 234//17
f 235//18 240//20 236//18
f 241//20 236//18 240//20
f 243//21 239//19 244//21
f 239//19 243//21 238//19
f 240//20 245//22 241//20
f 246//22 241//20 245//22
f 248//23 243//21 244//21
f 243//21 248//23 249//23
f 250//24 251//24 245//22
f 246//22 245//22 251//24
f 253//25 248//23 254//25
f 248//23 253//25 249//23
f 250//24 255//26 251//24
f 256//26 251//24 255//26
f 258//27 254//25 259//27
f 254//25 258//27 253//25
f 255//26 260//28 256//26
f 261//28 256//26 260//28
f 263//29 258//27 259//27
f 258//27 263//29 264//29
f 265//30 266//30 260//28
f 261//28 260//28 266//30
f 268//31 263//29 269//31
f 263//29 268//31 264//29
f 265//30 270//32 266//30
f 271//32 266//30 270//32
f 273//33 269//31 274//33
f 269//31 273//33 268//31
f 270//32 275//34 271//32
f 276//34 271//32 275//34
f 278//35 274//33 279//35
f 274//33 278//35 273//33
f 275//34 280//36 276//34
f 281//36 276//34 280//36
f 278//35 283//37 284//37
f 283//37 278//35 279//35
f 281//36 280//36 285//38
f 286//38 285//38 280//36
f 284//37 288//39 289//39
f 288//39 284//37 283//37
f 285//38 286//38 290//40
f 291//40 290//40 286//38
f 289//39 293//41 294//41
f 293//41 289//39 288//39
f 290//40 291//40 295//42
f 296//42 295//42 291//40
f 294//41 298//43 299//43
f 298//43 294//41 293//41
f 295//42 296//42 300//44
f 301//44 300//44 296//42
f 299//43 303//45 304//45
f 303//45 299//43 298//43
f 300//44 301//44 305//46
f 306//46 305//46 301//44
f 304//45 308//47 309//47
f 308//47 304//45 303//45
f 305//46 306//46 310//48
f 311//48 310//48 306//46
f 309//47 313//49 314//49
f 313//49 309//47 308//47
f 310//48 311//48 315//50
f 316//50 315//50 311//48
f 314//49 318//51 319//51
f 318//51 314//49 313//49
f 315//50 316//50 320//52
f 321//52 320//52 316//50
f 319//51 323//53 324//53
f 323//53 319//51 318//51
f 320//52 321//52 325//54
f 326//54 325//54 321//52
f 324//53 328//55 329//55
f 328//55 324//53 323//53
f 325//54 326//54 330//56
f 331//56 330//56 326//54
f 329//55 333//57 334//57
f 333//57 329//55 328//55
f 330//56 331//56 335//58
f 336//58 335//58 331//56
f 334//57 338//59 339//59
f 338//59 334//57 333//57
f 335//58 336//58 340//60
f 341//60 340//60 336//58
f 339//59 343//61 344//61
f 343//61 339//59 338//59
f 340//60 341//60 345//62
f 346//62 345//62 341//60
f 344//61 348//63 349//63
f 348//63 344//61 343//61
f 345//62 346//62 350//64
f 351//64 350//64 346//62
f 349//63 353//65 354//65
f 353//65 349//63 348//63
f 350//64 351//64 355//66
f 356//66 355//66 351//64
f 354//65 358//67 359//67
f 358//67 354//65 353//65
f 355//66 356//66 360//68
f 361//68 360//68 356//66
f 359//67 363//69 364//69
f 363//69 359//67 358//67
f 360//68 361//68 365//70
f 366//70 365//70 361//68
f 364//69 368//71 369//71
f 368//71 364//69 363//69
f 365//70 366//70 370//72
f 371//72 370//72 366//70
f 369//71 373//73 374//73
f 373//73 369//71 368//71
f 370//72 371//72 375//74
f 376//74 375//74 371//72
f 374//73 378//75 379//75
f 378//75 374//73 373//73
f 375//74 376//74 380//76
f 381//76 380//76 376//74
f 379//75 383//77 384//77
f 383//77 379//75 378//75
f 380//76 381//76 385//78
f 386//78 385//78 381//76
f 384//77 388//79 389//79
f 388//79 384//77 383//77
f 385//78 386//78 390//80
f 391//80 390//80 386//78
f 389//79 393//81 394//81
f 393//81 389//79 388//79
f 390//80 391//80 395//82
f 396//82 395//82 391//80
f 394//81 398//83 399//83
f 398//83 394//81 393//81
f 395//82 396//82 400//84
f 401//84 400//84 396//82
f 403//85 398//83 404//85
f 398//83 403//85 399//83
f 401//84 405//86 400//84
f 406//86 400//84 405//86
f 408//87 403//85 404//85
f 403//85 408//87 409//87
f 410//88 411//88 405//86
f 406//86 405//86 411//88
f 413//89 409//87 408//87
f 409//87 413//89 414//89
f 415//90 416//90 410//88
f 411//88 410//88 416//90
f 418//91 413//89 419//91
f 413//89 418//91 414//89
f 415//90 420//92 416//90
f 421//92 416//90 420//92
f 423//93 418//91 419//91
f 418//91 423//93 424//93
f 425//94 426//94 420//92
f 421//92 420//92 426//94
f 428//95 423//93 429//95
f 423//93 428//95 424//93
f 425//94 430//96 426//94
f 431//96 426//94 430//96
f 433//97 429//95 434//97
f 429//95 433//97 428//95
f 430//96 435//98 431//96
f 436//98 431//96 435//98
f 438//99 434//97 439//99
f 434//97 438//99 433//97
f 435//98 440//100 436//98
f 441//100 436//98 440//100
f 443//101 438//99 439//99
f 438//99 443//101 444//101
f 445//102 446//102 440//100
f 441//100 440//100 446//102
f 202//9 443//101 203//9
f 443//101 202//9 444//101
f 445//102 204//10 446//102
f 205//10 446//102 204//10
f 448//103 449//104 450//104
f 449//104 448//103 451//103
f 452//105 453//105 454//106
f 455//106 454//106 453//105
f 458//107 451//103 448//103
f 451//103 458//107 459//107
f 460//108 461//108 452//105
f 453//105 452//105 461//108
f 458//107 463//109 459//107
f 463//109 458//107 464//109
f 465//110 461//108 466//110
f 460//108 466//110 461//108
f 468//111 463//109 464//109
f 463//109 468//111 469//111
f 470//112 471//112 466//110
f 465//110 466//110 471//112
f 473//113 469//111 468//111
f 469//111 473//113 474//113
f 475//114 476//114 470//112
f 471//112 470//112 476//114
f 473//113 478//59 474//113
f 478//59 473//113 479//59
f 480//60 476//114 481//60
f 475//114 481//60 476//114
f 483//115 478//59 479//59
f 478//59 483//115 484//115
f 485//116 486//116 481//60
f 480//60 481//60 486//116
f 488//117 484//115 483//115
f 484//115 488//117 489//117
f 490//118 491//118 485//116
f 486//116 485//116 491//118
f 493//119 489//117 488//117
f 489//117 493//119 494//119
f 495//120 496//120 490//118
f 491//118 490//118 496//120
f 493//119 498//121 494//119
f 498//121 493//119 499//121
f 500//122 496//120 501//122
f 495//120 501//122 496//120
f 503//123 498//121 499//121
f 498//121 503//123 504//123
f 505//124 506//124 501//122
f 500//122 501//122 506//124
f 503//123 508//125 504//123
f 508//125 503//123 509//125
f 510//126 506//124 511//126
f 505//124 511//126 506//124
f 513//14 207//11 208//11
f 207//11 513//14 514//14
f 515//13 516//13 209//12
f 210//12 209//12 516//13
f 519//7 520//7 521//7
f 520//7 519//7 522//7
f 520//7 522//7 523//7
f 523//7 522//7 524//7
f 524//7 522//7 525//7
f 524//7 525//7 526//7
f 526//7 525//7 527//7
f 527//7 525//7 528//7
f 527//7 528//7 529//7
f 530//7 531//7 532//7
f 531//7 530//7 533//7
f 533//7 530//7 534//7
f 533//7 534//7 535//7
f 533//7 535//7 536//7
f 536//7 535//7 537//7
f 536//7 537//7 538//7
f 536//7 538//7 539//7
f 539//7 538//7 529//7
f 539//7 529//7 528//7
f 539//7 528//7 540//7
f 539//7 540//7 541//7
f 541//7 540//7 542//7
f 541//7 542//7 543//7
f 543//7 542//7 544//7
f 543//7 544//7 545//7
f 545//7 544//7 546//7
f 545//7 546//7 547//7
f 547//7 546//7 548//7
f 547//7 548//7 549//7
f 549//7 548//7 550//7
f 549//7 550//7 551//7
f 551//7 550//7 552//7
f 551//7 552//7 553//7
f 553//7 552//7 554//7
f 553//7 554//7 555//7
f 555//7 554//7 556//7
f 556//7 554//7 557//7
f 556//7 557//7 558//7
f 558//7 557//7 559//7
f 558//7 559//7 560//7
f 558//7 560//7 561//7
f 561//7 560//7 562//7
f 562//7 560//7 563//7
f 562//7 563//7 564//7
f 562//7 564//7 565//7
f 565//7 564//7 566//7
f 565//7 566//7 567//7
f 567//7 566//7 568//7
f 567//7 568//7 569//7
f 569//7 568//7 570//7
f 569//7 570//7 571//7
f 571//7 570//7 572//7
f 571//7 572//7 573//7
f 573//7 572//7 574//7
f 573//7 574//7 575//7
f 575//7 574//7 576//7
f 575//7 576//7 577//7
f 577//7 576//7 578//7
f 577//7 578//7 579//7
f 579//7 578//7 580//7
f 581//8 582//8 583//8
f 583//8 582//8 584//8
f 582//8 585//8 584//8
f 584//8 585//8 586//8
f 585//8 587//8 586//8
f 586//8 587//8 588//8
f 587//8 589//8 588//8
f 588//8 589//8 590//8
f 589//8 591//8 590//8
f 590//8 591//8 592//8
f 591//8 593//8 592//8
f 592//8 593//8 594//8
f 593//8 595//8 594//8
f 594//8 595//8 596//8
f 595//8 597//8 596//8
f 596//8 597//8 598//8
f 597//8 599//8 598//8
f 599//8 600//8 598//8
f 598//8 600//8 601//8
f 601//8 600//8 602//8
f 600//8 603//8 602//8
f 603//8 604//8 602//8
f 602//8 604//8 605//8
f 604//8 606//8 605//8
f 605//8 606//8 607//8
f 607//8 606//8 608//8
f 606//8 609//8 608//8
f 608//8 609//8 610//8
f 609//8 611//8 610//8
f 610//8 611//8 612//8
f 611//8 613//8 612//8
f 612//8 613//8 614//8
f 613//8 615//8 614//8
f 614//8 615//8 616//8
f 615//8 617//8 616//8
f 616//8 617//8 618//8
f 617//8 619//8 618//8
f 618//8 619//8 620//8
f 619//8 621//8 620//8
f 620//8 621//8 622//8
f 621//8 623//8 622//8
f 623//8 624//8 622//8
f 624//8 625//8 622//8
f 622//8 625//8 626//8
f 625//8 627//8 626//8
f 627//8 628//8 626//8
f 626//8 628//8 629//8
f 628//8 630//8 629//8
f 630//8 631//8 629//8
f 629//8 631//8 632//8
f 633//8 632//8 631//8
f 624//8 623//8 634//8
f 623//8 635//8 634//8
f 634//8 635//8 636//8
f 636//8 635//8 637//8
f 635//8 638//8 637//8
f 637//8 638//8 639//8
f 639//8 638//8 640//8
f 638//8 641//8 640//8
f 642//8 640//8 641//8
f 214//6 701//3 215//6
f 701//3 214//6 702//3
f 703//1 219//5 704//1
f 220//5 704//1 219//5
f 706//124 707//126 708//126
f 707//126 706//124 709//124
f 710//123 711//123 712//125
f 713//125 712//125 711//123
f 715//60 716//60 717//60
f 716//60 715//60 718//60
f 718//60 715//60 719//60
f 719//60 715//60 720//60
f 720//60 715//60 721//60
f 721//60 715//60 722//60
f 722//60 715//60 723//60
f 723//60 715//60 724//60
f 724//60 715//60 725//60
f 725//60 715//60 726//60
f 727//59 728//59 729//59
f 729//59 728//59 730//59
f 730//59 728//59 731//59
f 731//59 728//59 732//59
f 732//59 728//59 733//59
f 733//59 728//59 734//59
f 734//59 728//59 735//59
f 735//59 728//59 736//59
f 736//59 728//59 737//59
f 738//59 737//59 728//59
f 747//127 748//128 749//129
f 748//128 747//127 750//130
f 751//131 752//132 753//133
f 754//134 753//133 752//132
f 750//130 756//135 748//128
f 756//135 750//130 757//136
f 758//137 751//131 759//138
f 753//133 759//138 751//131
f 757//136 761//139 756//135
f 761//139 757//136 762//140
f 763//141 758//137 764//142
f 759//138 764//142 758//137
f 762//140 766//143 761//139
f 766//143 762//140 767//144
f 768//145 763//141 769//146
f 764//142 769//146 763//141
f 767//144 771//147 766//143
f 771//147 767//144 772//148
f 773//149 768//145 774//150
f 769//146 774//150 768//145
f 772//148 776//151 771//147
f 776//151 772//148 777//152
f 778//153 773//149 779//154
f 774//150 779//154 773//149
f 781//155 776//151 777//152
f 776//151 781//155 782//156
f 783//157 784//158 779//154
f 778//153 779//154 784//158
f 786//159 782//156 781//155
f 782//156 786//159 787//160
f 788//161 789//162 783//157
f 784//158 783//157 789//162
f 791//163 787//160 786//159
f 787//160 791//163 792//164
f 793//165 794//166 788//161
f 789//162 788//161 794//166
f 796//167 792//164 791//163
f 792//164 796//167 797//168
f 798//169 799//170 793//165
f 794//166 793//165 799//170
f 801//171 797//168 796//167
f 797//168 801//171 802//172
f 803//173 804//174 798//169
f 799//170 798//169 804//174
f 806//106 807//105 808//105
f 807//105 806//106 809//106
f 810//104 811//104 812//103
f 813//103 812//103 811//104
f 815//175 802//172 801//171
f 802//172 815//175 816//176
f 817//177 818//178 803//173
f 804//174 803//173 818//178
f 819//16 513//14 820//16
f 513//14 819//16 514//14
f 515//13 821//15 516//13
f 822//15 516//13 821//15
f 824//18 820//16 825//18
f 820//16 824//18 819//16
f 821//15 826//17 822//15
f 827//17 822//15 826//17
f 829//20 824//18 825//18
f 824//18 829//20 830//20
f 831//19 832//19 826//17
f 827//17 826//17 832//19
f 834//22 829//20 835//22
f 829//20 834//22 830//20
f 831//19 836//21 832//19
f 837//21 832//19 836//21
f 839//24 834//22 835//22
f 834//22 839//24 840//24
f 841//23 842//23 836//21
f 837//21 836//21 842//23
f 844//26 839//24 845//26
f 839//24 844//26 840//24
f 841//23 846//25 842//23
f 847//25 842//23 846//25
f 849//28 845//26 850//28
f 845//26 849//28 844//26
f 846//25 851//27 847//25
f 852//27 847//25 851//27
f 854//30 850//28 855//30
f 850//28 854//30 849//28
f 851//27 856//29 852//27
f 857//29 852//27 856//29
f 859//32 854//30 855//30
f 854//30 859//32 860//32
f 861//31 862//31 856//29
f 857//29 856//29 862//31
f 864//34 859//32 865//34
f 859//32 864//34 860//32
f 861//31 866//33 862//31
f 867//33 862//31 866//33
f 869//36 864//34 865//34
f 864//34 869//36 870//36
f 871//35 872//35 866//33
f 867//33 866//33 872//35
f 874//38 870//36 869//36
f 870//36 874//38 875//38
f 876//37 877//37 871//35
f 872//35 871//35 877//37
f 879//40 875//38 874//38
f 875//38 879//40 880//40
f 881//39 882//39 876//37
f 877//37 876//37 882//39
f 884//42 880//40 879//40
f 880//40 884//42 885//42
f 886//41 887//41 881//39
f 882//39 881//39 887//41
f 889//44 885//42 884//42
f 885//42 889//44 890//44
f 891//43 892//43 886//41
f 887//41 886//41 892//43
f 894//46 890//44 889//44
f 890//44 894//46 895//46
f 896//45 897//45 891//43
f 892//43 891//43 897//45
f 899//48 895//46 894//46
f 895//46 899//48 900//48
f 901//47 902//47 896//45
f 897//45 896//45 902//47
f 904//50 900//48 899//48
f 900//48 904//50 905//50
f 906//49 907//49 901//47
f 902//47 901//47 907//49
f 909//52 905//50 904//50
f 905//50 909//52 910//52
f 911//51 912//51 906//49
f 907//49 906//49 912//51
f 914//54 910//52 909//52
f 910//52 914//54 915//54
f 916//53 917//53 911//51
f 912//51 911//51 917//53
f 919//56 915//54 914//54
f 915//54 919//56 920//56
f 921//55 922//55 916//53
f 917//53 916//53 922//55
f 924//58 920//56 919//56
f 920//56 924//58 925//58
f 926//57 927//57 921//55
f 922//55 921//55 927//57
f 929//60 925//58 924//58
f 925//58 929//60 930//60
f 931//59 932//59 926//57
f 927//57 926//57 932//59
f 934//62 930//60 929//60
f 930//60 934//62 935//62
f 936//61 937//61 931//59
f 932//59 931//59 937//61
f 939//64 935//62 934//62
f 935//62 939//64 940//64
f 941//63 942//63 936//61
f 937//61 936//61 942//63
f 944//66 940//64 939//64
f 940//64 944//66 945//66
f 946//65 947//65 941//63
f 942//63 941//63 947//65
f 949//68 945//66 944//66
f 945//66 949//68 950//68
f 951//67 952//67 946//65
f 947//65 946//65 952//67
f 954//70 950//68 949//68
f 950//68 954//70 955//70
f 956//69 957//69 951//67
f 952//67 951//67 957//69
f 959//72 955//70 954//70
f 955//70 959//72 960//72
f 961//71 962//71 956//69
f 957//69 956//69 962//71
f 964//74 960//72 959//72
f 960//72 964//74 965//74
f 966//73 967//73 961//71
f 962//71 961//71 967//73
f 969//76 965//74 964//74
f 965//74 969//76 970//76
f 971//75 972//75 966//73
f 967//73 966//73 972//75
f 974//78 970//76 969//76
f 970//76 974//78 975//78
f 976//77 977//77 971//75
f 972//75 971//75 977//77
f 979//80 975//78 974//78
f 975//78 979//80 980//80
f 981//79 982//79 976//77
f 977//77 976//77 982//79
f 984//82 980//80 979//80
f 980//80 984//82 985//82
f 986//81 987//81 981//79
f 982//79 981//79 987//81
f 989//84 985//82 984//82
f 985//82 989//84 990//84
f 991//83 992//83 986//81
f 987//81 986//81 992//83
f 994//86 990//84 989//84
f 990//84 994//86 995//86
f 996//85 997//85 991//83
f 992//83 991//83 997//85
f 999//88 995//86 994//86
f 995//86 999//88 1000//88
f 1001//87 1002//87 996//85
f 997//85 996//85 1002//87
f 1004//90 999//88 1005//90
f 999//88 1004//90 1000//88
f 1001//87 1006//89 1002//87
f 1007//89 1002//87 1006//89
f 1009//92 1004//90 1005//90
f 1004//90 1009//92 1010//92
f 1011//91 1012//91 1006//89
f 1007//89 1006//89 1012//91
f 1014//94 1010//92 1009//92
f 1010//92 1014//94 1015//94
f 1016//93 1017//93 1011//91
f 1012//91 1011//91 1017//93
f 1019//96 1015//94 1014//94
f 1015//94 1019//96 1020//96
f 1021//95 1022//95 1016//93
f 1017//93 1016//93 1022//95
f 1024//98 1019//96 1025//98
f 1019//96 1024//98 1020//96
f 1021//95 1026//97 1022//95
f 1027//97 1022//95 1026//97
f 1029//100 1024//98 1025//98
f 1024//98 1029//100 1030//100
f 1031//99 1032//99 1026//97
f 1027//97 1026//97 1032//99
f 1034//102 1029//100 1035//102
f 1029//100 1034//102 1030//100
f 1031//99 1036//101 1032//99
f 1037//101 1032//99 1036//101
f 1039//10 1034//102 1035//102
f 1034//102 1039//10 1040//10
f 1041//9 1042//9 1036//101
f 1037//101 1036//101 1042//9
f 1044//4 1040//10 1039//10
f 1040//10 1044//4 1045//4
f 1046//2 1047//2 1041//9
f 1042//9 1041//9 1047//2
f 702//3 1044//4 701//3
f 1044//4 702//3 1045//4
f 1046//2 703//1 1047//2
f 704//1 1047//2 703//1
f 1049//7 1050//7 1051//7
f 1050//7 1049//7 1052//7
f 1052//7 1049//7 1053//7
f 1052//7 1053//7 1054//7
f 1054//7 1053//7 1055//7
f 1054//7 1055//7 1056//7
f 1056//7 1055//7 1057//7
f 1056//7 1057//7 1058//7
f 1058//7 1057//7 1059//7
f 1058//7 1059//7 1060//7
f 1060//7 1059//7 1061//7
f 1062//8 1063//8 1064//8
f 1064//8 1063//8 1065//8
f 1063//8 1066//8 1065//8
f 1065//8 1066//8 1067//8
f 1066//8 1068//8 1067//8
f 1067//8 1068//8 1069//8
f 1068//8 1070//8 1069//8
f 1069//8 1070//8 1071//8
f 1070//8 1072//8 1071//8
f 1071//8 1072//8 1073//8
f 1074//8 1073//8 1072//8
f 1075//108 807//105 1076//108
f 807//105 1075//108 808//105
f 813//103 1077//107 812//103
f 1078//107 812//103 1077//107
f 1075//108 1080//110 1081//110
f 1080//110 1075//108 1076//108
f 1078//107 1077//107 1082//109
f 1083//109 1082//109 1077//107
f 1081//110 1085//112 1086//112
f 1085//112 1081//110 1080//110
f 1082//109 1083//109 1087//111
f 1088//111 1087//111 1083//109
f 1090//114 1085//112 1091//114
f 1085//112 1090//114 1086//112
f 1088//111 1092//113 1087//111
f 1093//113 1087//111 1092//113
f 1090//114 1095//60 1096//60
f 1095//60 1090//114 1091//114
f 1093//113 1092//113 1097//59
f 1098//59 1097//59 1092//113
f 1096//60 1100//116 1101//116
f 1100//116 1096//60 1095//60
f 1097//59 1098//59 1102//115
f 1103//115 1102//115 1098//59
f 1105//118 1100//116 1106//118
f 1100//116 1105//118 1101//116
f 1103//115 1107//117 1102//115
f 1108//117 1102//115 1107//117
f 1110//120 1106//118 1111//120
f 1106//118 1110//120 1105//118
f 1107//117 1112//119 1108//117
f 1113//119 1108//117 1112//119
f 1110//120 1115//122 1116//122
f 1115//122 1110//120 1111//120
f 1113//119 1112//119 1117//121
f 1118//121 1117//121 1112//119
f 706//124 1115//122 709//124
f 1115//122 706//124 1116//122
f 1118//121 711//123 1117//121
f 710//123 1117//121 711//123
f 1120//179 1121//180 1122//181
f 1121//180 1120//179 1123//182
f 1124//183 1125//184 1126//185
f 1127//186 1126//185 1125//184
f 1129//7 1130//7 1131//7
f 1130//7 1129//7 1132//7
f 1132//7 1129//7 1133//7
f 1132//7 1133//7 1134//7
f 1134//7 1133//7 1135//7
f 1134//7 1135//7 1136//7
f 1136//7 1135//7 1137//7
f 1136//7 1137//7 1138//7
f 1138//7 1137//7 1139//7
f 1140//8 1141//8 1142//8
f 1142//8 1141//8 1143//8
f 1141//8 1144//8 1143//8
f 1143//8 1144//8 1145//8
f 1144//8 1146//8 1145//8
f 1145//8 1146//8 1147//8
f 1146//8 1148//8 1147//8
f 1147//8 1148//8 1149//8
f 1150//8 1149//8 1148//8
f 1160//7 1161//7 1162//7
f 1161//7 1160//7 1163//7
f 1161//7 1163//7 1164//7
f 1164//7 1163//7 1165//7
f 1164//7 1165//7 1166//7
f 1166//7 1165//7 1167//7
f 1166//7 1167//7 1168//7
f 1168//7 1167//7 1169//7
f 1168//7 1169//7 1170//7
f 1171//8 1172//8 1173//8
f 1172//8 1174//8 1173//8
f 1173//8 1174//8 1175//8
f 1174//8 1176//8 1175//8
f 1175//8 1176//8 1177//8
f 1176//8 1178//8 1177//8
f 1177//8 1178//8 1179//8
f 1178//8 1180//8 1179//8
f 1181//8 1179//8 1180//8
f 1191//187 750//130 747//127
f 752//132 751//131 1192//188
f 1123//182 1194//189 1121//180
f 1126//185 1195//190 1124//183
f 1197//191 1198//192 1199//193
f 1198//192 1197//191 1200//194
f 1201//195 1202//196 1203//197
f 1204//198 1203//197 1202//196
f 815//175 801//171 1206//199
f 1207//200 804//174 818//178
f 1199//193 1198//192 1209//201
f 1210//202 1203//197 1204//198
f 750//130 1212//203 757//136
f 1212//203 750//130 1191//187
f 1212//203 1191//187 1213//204
f 1213//204 1191//187 1214//205
f 1215//206 1192//188 1216//207
f 1216//207 1192//188 1217//208
f 1192//188 751//131 1217//208
f 758//137 1217//208 751//131
f 757//136 1218//209 762//140
f 1218//209 757//136 1212//203
f 1217//208 758//137 1219//210
f 763//141 1219//210 758//137
f 762//140 1220//211 767//144
f 1220//211 762//140 1218//209
f 1219//210 763//141 1221//212
f 768//145 1221//212 763//141
f 767//144 1222//213 772//148
f 1222//213 767//144 1220//211
f 1221//212 768//145 1223//214
f 773//149 1223//214 768//145
f 772//148 1224//215 777//152
f 1224//215 772//148 1222//213
f 1223//214 773//149 1225//216
f 778//153 1225//216 773//149
f 1224//215 781//155 777//152
f 781//155 1224//215 1226//217
f 1227//218 1225//216 784//158
f 778//153 784//158 1225//216
f 1226//217 786//159 781//155
f 786//159 1226//217 1228//219
f 1229//220 1227//218 789//162
f 784//158 789//162 1227//218
f 1228//219 791//163 786//159
f 791//163 1228//219 1230//221
f 1231//222 1229//220 794//166
f 789//162 794//166 1229//220
f 1230//221 796//167 791//163
f 796//167 1230//221 1232//223
f 1233//224 1231//222 799//170
f 794//166 799//170 1231//222
f 1232//223 801//171 796//167
f 801//171 1232//223 1234//225
f 1234//225 1232//223 1235//226
f 1234//225 1235//226 1236//227
f 1237//228 1238//229 1239//230
f 1238//229 1233//224 1239//230
f 1239//230 1233//224 804//174
f 799//170 804//174 1233//224
f 1240//231 1199//193 1241//232
f 1199//193 1240//231 1197//191
f 1202//196 1242//233 1204//198
f 1243//234 1204//198 1242//233
f 1245//235 1241//232 1246//236
f 1241//232 1245//235 1240//231
f 1242//233 1247//237 1243//234
f 1248//238 1243//234 1247//237
f 1250//239 1246//236 1251//240
f 1246//236 1250//239 1245//235
f 1247//237 1252//241 1248//238
f 1253//242 1248//238 1252//241
f 1255//243 1251//240 1256//244
f 1251//240 1255//243 1250//239
f 1252//241 1257//245 1253//242
f 1258//246 1253//242 1257//245
f 1255//243 1260//247 1261//248
f 1260//247 1255//243 1256//244
f 1258//246 1257//245 1262//249
f 1263//250 1262//249 1257//245
f 1261//248 1265//251 1266//252
f 1265//251 1261//248 1260//247
f 1262//249 1263//250 1267//253
f 1268//254 1267//253 1263//250
f 1266//252 1270//255 1271//256
f 1270//255 1266//252 1265//251
f 1267//253 1268//254 1272//257
f 1273//258 1272//257 1268//254
f 1271//256 1275//259 1276//260
f 1275//259 1271//256 1270//255
f 1272//257 1273//258 1277//261
f 1278//262 1277//261 1273//258
f 1276//260 1280//263 1281//264
f 1280//263 1276//260 1275//259
f 1277//261 1278//262 1282//265
f 1283//266 1282//265 1278//262
f 1281//264 1123//182 1120//179
f 1123//182 1281//264 1280//263
f 1282//265 1283//266 1124//183
f 1125//184 1124//183 1283//266
f 1285//267 1286//268 1287//269
f 1286//268 1285//267 1123//182
f 1286//268 1123//182 1288//270
f 1288//270 1123//182 1280//263
f 1282//265 1124//183 1289//271
f 1289//271 1124//183 1290//272
f 1124//183 1291//273 1290//272
f 1292//274 1290//272 1291//273
f 1280//263 1293//275 1288//270
f 1293//275 1280//263 1275//259
f 1277//261 1282//265 1294//276
f 1289//271 1294//276 1282//265
f 1275//259 1295//277 1293//275
f 1295//277 1275//259 1270//255
f 1272//257 1277//261 1296//278
f 1294//276 1296//278 1277//261
f 1270//255 1297//279 1295//277
f 1297//279 1270//255 1265//251
f 1267//253 1272//257 1298//280
f 1296//278 1298//280 1272//257
f 1265//251 1299//281 1297//279
f 1299//281 1265//251 1260//247
f 1262//249 1267//253 1300//282
f 1298//280 1300//282 1267//253
f 1299//281 1256//244 1301//283
f 1256//244 1299//281 1260//247
f 1262//249 1300//282 1258//246
f 1302//284 1258//246 1300//282
f 1301//283 1251//240 1303//285
f 1251//240 1301//283 1256//244
f 1258//246 1302//284 1253//242
f 1304//286 1253//242 1302//284
f 1303//285 1246//236 1305//287
f 1246//236 1303//285 1251//240
f 1253//242 1304//286 1248//238
f 1306//288 1248//238 1304//286
f 1305//287 1241//232 1307//289
f 1241//232 1305//287 1246//236
f 1248//238 1306//288 1243//234
f 1308//290 1243//234 1306//288
f 1309//291 1209//201 1310//292
f 1209//201 1309//291 1307//289
f 1209//201 1307//289 1199//193
f 1199//193 1307//289 1241//232
f 1243//234 1308//290 1204//198
f 1204//198 1308//290 1210//202
f 1308//290 1311//293 1210//202
f 1312//294 1210//202 1311//293
usemtl material_1_0
