# SSTK version 0.8.0
# 126
mtllib original-126.mtl
o #ID97
v 0.028352 0.503101 0.452748
v 0.026945 0.502546 0.454438
v 0.026945 0.502546 0.452748
v 0.028352 0.503101 0.454438
v 0.028352 0.503101 0.454438
v 0.028352 0.503101 0.452748
v 0.026945 0.502546 0.454438
v 0.026945 0.502546 0.452748
v 0.026945 0.502546 0.454438
v 0.028352 0.503101 0.454438
v 0.026945 0.502546 0.452748
v 0.028352 0.503101 0.452748
v 0.026945 0.502546 0.454438
v 0.037769 0.501866 0.454438
v 0.025686 0.501866 0.454438
v 0.028352 0.503101 0.454438
v 0.029797 0.503476 0.454438
v 0.031254 0.503664 0.454438
v 0.032699 0.503662 0.454438
v 0.034108 0.503469 0.454438
v 0.035455 0.503089 0.454438
v 0.036719 0.502529 0.454438
v 0.036719 0.502529 0.454438
v 0.035455 0.503089 0.454438
v 0.037769 0.501866 0.454438
v 0.034108 0.503469 0.454438
v 0.032699 0.503662 0.454438
v 0.031254 0.503664 0.454438
v 0.029797 0.503476 0.454438
v 0.028352 0.503101 0.454438
v 0.026945 0.502546 0.454438
v 0.025686 0.501866 0.454438
v 0.036719 0.502529 0.454438
v 0.037769 0.501866 0.454438
v 0.025686 0.501866 0.454438
v 0.029797 0.503476 0.454438
v 0.031254 0.503664 0.454438
v 0.032699 0.503662 0.454438
v 0.034108 0.503469 0.454438
v 0.035455 0.503089 0.454438
v 0.025686 0.501866 0.452748
v 0.025686 0.501866 0.454438
v 0.025686 0.501866 0.454438
v 0.025686 0.501866 0.452748
v 0.025686 0.501866 0.452748
v 0.029797 0.503476 0.454438
v 0.029797 0.503476 0.452748
v 0.029797 0.503476 0.454438
v 0.029797 0.503476 0.452748
v 0.029797 0.503476 0.452748
v 0.037769 0.501866 0.454438
v 0.036719 0.502529 0.452748
v 0.037769 0.501866 0.452748
v 0.036719 0.502529 0.454438
v 0.036719 0.502529 0.454438
v 0.037769 0.501866 0.454438
v 0.036719 0.502529 0.452748
v 0.037769 0.501866 0.452748
v 0.036719 0.502529 0.452748
v 0.037769 0.501866 0.452748
v 0.000493 0.474173 0.454438
v 0.000308 0.471270 0.454438
v 0.000306 0.472716 0.454438
v 0.000501 0.469862 0.454438
v 0.000868 0.475618 0.454438
v 0.000880 0.468514 0.454438
v 0.001424 0.477025 0.454438
v 0.001441 0.467251 0.454438
v 0.002150 0.478371 0.454438
v 0.002171 0.466093 0.454438
v 0.003036 0.479631 0.454438
v 0.003061 0.465061 0.454438
v 0.004064 0.480786 0.454438
v 0.003252 0.464870 0.454438
v 0.004093 0.464172 0.454438
v 0.023183 0.499905 0.454438
v 0.005251 0.463441 0.454438
v 0.006514 0.462881 0.454438
v 0.007862 0.462501 0.454438
v 0.009270 0.462308 0.454438
v 0.010715 0.462306 0.454438
v 0.012173 0.462494 0.454438
v 0.013618 0.462868 0.454438
v 0.015025 0.463424 0.454438
v 0.016370 0.464150 0.454438
v 0.017631 0.465036 0.454438
v 0.018786 0.466065 0.454438
v 0.037905 0.485184 0.454438
v 0.024338 0.500934 0.454438
v 0.025599 0.501819 0.454438
v 0.025686 0.501866 0.454438
v 0.037769 0.501866 0.454438
v 0.037877 0.501798 0.454438
v 0.038909 0.500909 0.454438
v 0.038934 0.486338 0.454438
v 0.039100 0.500718 0.454438
v 0.039819 0.487599 0.454438
v 0.039798 0.499877 0.454438
v 0.040529 0.498719 0.454438
v 0.040546 0.488945 0.454438
v 0.041089 0.497455 0.454438
v 0.041101 0.490352 0.454438
v 0.041469 0.496108 0.454438
v 0.041476 0.491797 0.454438
v 0.041661 0.494700 0.454438
v 0.041664 0.493254 0.454438
v 0.041664 0.493254 0.454438
v 0.041661 0.494700 0.454438
v 0.041476 0.491797 0.454438
v 0.041469 0.496108 0.454438
v 0.041101 0.490352 0.454438
v 0.041089 0.497455 0.454438
v 0.040546 0.488945 0.454438
v 0.040529 0.498719 0.454438
v 0.039819 0.487599 0.454438
v 0.039798 0.499877 0.454438
v 0.039100 0.500718 0.454438
v 0.038934 0.486338 0.454438
v 0.038909 0.500909 0.454438
v 0.037905 0.485184 0.454438
v 0.037877 0.501798 0.454438
v 0.037769 0.501866 0.454438
v 0.025686 0.501866 0.454438
v 0.025599 0.501819 0.454438
v 0.024338 0.500934 0.454438
v 0.023183 0.499905 0.454438
v 0.018786 0.466065 0.454438
v 0.017631 0.465036 0.454438
v 0.016370 0.464150 0.454438
v 0.015025 0.463424 0.454438
v 0.013618 0.462868 0.454438
v 0.012173 0.462494 0.454438
v 0.010715 0.462306 0.454438
v 0.009270 0.462308 0.454438
v 0.007862 0.462501 0.454438
v 0.006514 0.462881 0.454438
v 0.005251 0.463441 0.454438
v 0.004093 0.464172 0.454438
v 0.004064 0.480786 0.454438
v 0.003252 0.464870 0.454438
v 0.003061 0.465061 0.454438
v 0.003036 0.479631 0.454438
v 0.002171 0.466093 0.454438
v 0.002150 0.478371 0.454438
v 0.001441 0.467251 0.454438
v 0.001424 0.477025 0.454438
v 0.000880 0.468514 0.454438
v 0.000868 0.475618 0.454438
v 0.000501 0.469862 0.454438
v 0.000493 0.474173 0.454438
v 0.000308 0.471270 0.454438
v 0.000306 0.472716 0.454438
v 0.025599 0.501819 0.454438
v 0.037877 0.501798 0.454438
v 0.038909 0.500909 0.454438
v 0.039100 0.500718 0.454438
v 0.039798 0.499877 0.454438
v 0.040529 0.498719 0.454438
v 0.041089 0.497455 0.454438
v 0.041469 0.496108 0.454438
v 0.041661 0.494700 0.454438
v 0.041664 0.493254 0.454438
v 0.041476 0.491797 0.454438
v 0.041101 0.490352 0.454438
v 0.040546 0.488945 0.454438
v 0.039819 0.487599 0.454438
v 0.038934 0.486338 0.454438
v 0.037905 0.485184 0.454438
v 0.018786 0.466065 0.454438
v 0.017631 0.465036 0.454438
v 0.016370 0.464150 0.454438
v 0.015025 0.463424 0.454438
v 0.013618 0.462868 0.454438
v 0.012173 0.462494 0.454438
v 0.010715 0.462306 0.454438
v 0.009270 0.462308 0.454438
v 0.007862 0.462501 0.454438
v 0.006514 0.462881 0.454438
v 0.005251 0.463441 0.454438
v 0.004093 0.464172 0.454438
v 0.003252 0.464870 0.454438
v 0.003061 0.465061 0.454438
v 0.002171 0.466093 0.454438
v 0.001441 0.467251 0.454438
v 0.000880 0.468514 0.454438
v 0.000501 0.469862 0.454438
v 0.000308 0.471270 0.454438
v 0.000306 0.472716 0.454438
v 0.000493 0.474173 0.454438
v 0.000868 0.475618 0.454438
v 0.001424 0.477025 0.454438
v 0.002150 0.478371 0.454438
v 0.003036 0.479631 0.454438
v 0.004064 0.480786 0.454438
v 0.023183 0.499905 0.454438
v 0.024338 0.500934 0.454438
v 0.031254 0.503664 0.452748
v 0.031254 0.503664 0.454438
v 0.031254 0.503664 0.454438
v 0.031254 0.503664 0.452748
v 0.031254 0.503664 0.452748
v 0.032699 0.503662 0.454438
v 0.032699 0.503662 0.452748
v 0.032699 0.503662 0.454438
v 0.032699 0.503662 0.452748
v 0.032699 0.503662 0.452748
v 0.034108 0.503469 0.452748
v 0.034108 0.503469 0.454438
v 0.034108 0.503469 0.454438
v 0.034108 0.503469 0.452748
v 0.034108 0.503469 0.452748
v 0.035455 0.503089 0.454438
v 0.035455 0.503089 0.452748
v 0.035455 0.503089 0.454438
v 0.035455 0.503089 0.452748
v 0.035455 0.503089 0.452748
v 0.025686 0.501866 0.452748
v 0.025599 0.501819 0.454438
v 0.025599 0.501819 0.452748
v 0.025686 0.501866 0.454438
v 0.025686 0.501866 0.454438
v 0.025686 0.501866 0.452748
v 0.025599 0.501819 0.454438
v 0.025599 0.501819 0.452748
v 0.025599 0.501819 0.452748
v 0.037877 0.501798 0.454438
v 0.037769 0.501866 0.452748
v 0.037877 0.501798 0.452748
v 0.037769 0.501866 0.454438
v 0.037769 0.501866 0.454438
v 0.037877 0.501798 0.454438
v 0.037769 0.501866 0.452748
v 0.037877 0.501798 0.452748
v 0.037877 0.501798 0.452748
v 0.038909 0.500909 0.452748
v 0.038909 0.500909 0.454438
v 0.038909 0.500909 0.454438
v 0.038909 0.500909 0.452748
v 0.038909 0.500909 0.452748
v 0.039100 0.500718 0.452748
v 0.038909 0.500909 0.454438
v 0.038909 0.500909 0.452748
v 0.039100 0.500718 0.454438
v 0.039100 0.500718 0.454438
v 0.039100 0.500718 0.452748
v 0.038909 0.500909 0.454438
v 0.038909 0.500909 0.452748
v 0.039100 0.500718 0.452748
v 0.039100 0.500718 0.454438
v 0.039798 0.499877 0.452748
v 0.039798 0.499877 0.454438
v 0.039100 0.500718 0.452748
v 0.039100 0.500718 0.452748
v 0.039100 0.500718 0.454438
v 0.039798 0.499877 0.452748
v 0.039798 0.499877 0.454438
v 0.039798 0.499877 0.452748
v 0.040529 0.498719 0.452748
v 0.040529 0.498719 0.454438
v 0.040529 0.498719 0.452748
v 0.040529 0.498719 0.454438
v 0.040529 0.498719 0.452748
v 0.041089 0.497455 0.452748
v 0.041089 0.497455 0.454438
v 0.041089 0.497455 0.452748
v 0.041089 0.497455 0.454438
v 0.041089 0.497455 0.452748
v 0.041469 0.496108 0.452748
v 0.041469 0.496108 0.454438
v 0.041469 0.496108 0.452748
v 0.041469 0.496108 0.454438
v 0.041469 0.496108 0.452748
v 0.041661 0.494700 0.452748
v 0.041661 0.494700 0.454438
v 0.041661 0.494700 0.452748
v 0.041661 0.494700 0.454438
v 0.041661 0.494700 0.452748
v 0.041664 0.493254 0.452748
v 0.041664 0.493254 0.454438
v 0.041664 0.493254 0.452748
v 0.041664 0.493254 0.454438
v 0.041664 0.493254 0.452748
v 0.041476 0.491797 0.452748
v 0.041476 0.491797 0.454438
v 0.041476 0.491797 0.452748
v 0.041476 0.491797 0.454438
v 0.041476 0.491797 0.452748
v 0.041101 0.490352 0.452748
v 0.041101 0.490352 0.454438
v 0.041101 0.490352 0.452748
v 0.041101 0.490352 0.454438
v 0.041101 0.490352 0.452748
v 0.040546 0.488945 0.452748
v 0.040546 0.488945 0.454438
v 0.040546 0.488945 0.452748
v 0.040546 0.488945 0.454438
v 0.040546 0.488945 0.452748
v 0.039819 0.487599 0.452748
v 0.039819 0.487599 0.454438
v 0.039819 0.487599 0.452748
v 0.039819 0.487599 0.454438
v 0.039819 0.487599 0.452748
v 0.038934 0.486338 0.452748
v 0.038934 0.486338 0.454438
v 0.038934 0.486338 0.452748
v 0.038934 0.486338 0.454438
v 0.038934 0.486338 0.452748
v 0.037905 0.485184 0.452748
v 0.037905 0.485184 0.454438
v 0.037905 0.485184 0.452748
v 0.037905 0.485184 0.454438
v 0.037905 0.485184 0.452748
v 0.037905 0.485184 0.454438
v 0.018786 0.466065 0.452748
v 0.018786 0.466065 0.454438
v 0.037905 0.485184 0.452748
v 0.037905 0.485184 0.452748
v 0.037905 0.485184 0.454438
v 0.018786 0.466065 0.452748
v 0.018786 0.466065 0.454438
v 0.018786 0.466065 0.452748
v 0.017631 0.465036 0.454438
v 0.018786 0.466065 0.452748
v 0.017631 0.465036 0.452748
v 0.018786 0.466065 0.454438
v 0.018786 0.466065 0.454438
v 0.017631 0.465036 0.454438
v 0.018786 0.466065 0.452748
v 0.017631 0.465036 0.452748
v 0.017631 0.465036 0.452748
v 0.016370 0.464150 0.452748
v 0.016370 0.464150 0.454438
v 0.016370 0.464150 0.454438
v 0.016370 0.464150 0.452748
v 0.016370 0.464150 0.452748
v 0.015025 0.463424 0.454438
v 0.015025 0.463424 0.452748
v 0.015025 0.463424 0.454438
v 0.015025 0.463424 0.452748
v 0.015025 0.463424 0.452748
v 0.013618 0.462868 0.452748
v 0.013618 0.462868 0.454438
v 0.013618 0.462868 0.454438
v 0.013618 0.462868 0.452748
v 0.013618 0.462868 0.452748
v 0.012173 0.462494 0.454438
v 0.012173 0.462494 0.452748
v 0.012173 0.462494 0.454438
v 0.012173 0.462494 0.452748
v 0.012173 0.462494 0.452748
v 0.010715 0.462306 0.452748
v 0.010715 0.462306 0.454438
v 0.010715 0.462306 0.454438
v 0.010715 0.462306 0.452748
v 0.010715 0.462306 0.452748
v 0.009270 0.462308 0.454438
v 0.009270 0.462308 0.452748
v 0.009270 0.462308 0.454438
v 0.009270 0.462308 0.452748
v 0.009270 0.462308 0.452748
v 0.007862 0.462501 0.454438
v 0.007862 0.462501 0.452748
v 0.007862 0.462501 0.454438
v 0.007862 0.462501 0.452748
v 0.007862 0.462501 0.452748
v 0.006514 0.462881 0.452748
v 0.006514 0.462881 0.454438
v 0.006514 0.462881 0.454438
v 0.006514 0.462881 0.452748
v 0.006514 0.462881 0.452748
v 0.005251 0.463441 0.454438
v 0.005251 0.463441 0.452748
v 0.005251 0.463441 0.454438
v 0.005251 0.463441 0.452748
v 0.005251 0.463441 0.452748
v 0.004093 0.464172 0.454438
v 0.004093 0.464172 0.452748
v 0.004093 0.464172 0.454438
v 0.004093 0.464172 0.452748
v 0.004093 0.464172 0.452748
v 0.003252 0.464870 0.454438
v 0.003252 0.464870 0.452748
v 0.003252 0.464870 0.454438
v 0.003252 0.464870 0.452748
v 0.003252 0.464870 0.452748
v 0.003061 0.465061 0.452748
v 0.003252 0.464870 0.454438
v 0.003252 0.464870 0.452748
v 0.003061 0.465061 0.454438
v 0.003061 0.465061 0.454438
v 0.003061 0.465061 0.452748
v 0.003252 0.464870 0.454438
v 0.003252 0.464870 0.452748
v 0.003061 0.465061 0.452748
v 0.003252 0.464870 0.476407
v 0.003061 0.465061 0.454438
v 0.003252 0.464870 0.454438
v 0.003061 0.465061 0.476407
v 0.003061 0.465061 0.476407
v 0.003252 0.464870 0.476407
v 0.003061 0.465061 0.454438
v 0.003252 0.464870 0.454438
v 0.003252 0.464870 0.476407
v 0.003061 0.465061 0.476407
v 0.002171 0.466093 0.452748
v 0.003061 0.465061 0.454438
v 0.003061 0.465061 0.452748
v 0.002171 0.466093 0.454438
v 0.002171 0.466093 0.454438
v 0.002171 0.466093 0.452748
v 0.003061 0.465061 0.454438
v 0.003061 0.465061 0.452748
v 0.002171 0.466093 0.452748
v 0.001441 0.467251 0.452748
v 0.001441 0.467251 0.454438
v 0.001441 0.467251 0.454438
v 0.001441 0.467251 0.452748
v 0.001441 0.467251 0.452748
v 0.000880 0.468514 0.452748
v 0.000880 0.468514 0.454438
v 0.000880 0.468514 0.454438
v 0.000880 0.468514 0.452748
v 0.000880 0.468514 0.452748
v 0.000501 0.469862 0.452748
v 0.000501 0.469862 0.454438
v 0.000501 0.469862 0.454438
v 0.000501 0.469862 0.452748
v 0.000501 0.469862 0.452748
v 0.000308 0.471270 0.452748
v 0.000308 0.471270 0.454438
v 0.000308 0.471270 0.454438
v 0.000308 0.471270 0.452748
v 0.000308 0.471270 0.452748
v 0.000306 0.472716 0.452748
v 0.000306 0.472716 0.454438
v 0.000306 0.472716 0.454438
v 0.000306 0.472716 0.452748
v 0.000306 0.472716 0.452748
v 0.000493 0.474173 0.452748
v 0.000493 0.474173 0.454438
v 0.000493 0.474173 0.454438
v 0.000493 0.474173 0.452748
v 0.000493 0.474173 0.452748
v 0.000868 0.475618 0.452748
v 0.000868 0.475618 0.454438
v 0.000868 0.475618 0.454438
v 0.000868 0.475618 0.452748
v 0.000868 0.475618 0.452748
v 0.001424 0.477025 0.452748
v 0.001424 0.477025 0.454438
v 0.001424 0.477025 0.454438
v 0.001424 0.477025 0.452748
v 0.001424 0.477025 0.452748
v 0.002150 0.478371 0.452748
v 0.002150 0.478371 0.454438
v 0.002150 0.478371 0.454438
v 0.002150 0.478371 0.452748
v 0.002150 0.478371 0.452748
v 0.003036 0.479631 0.452748
v 0.003036 0.479631 0.454438
v 0.003036 0.479631 0.454438
v 0.003036 0.479631 0.452748
v 0.003036 0.479631 0.452748
v 0.004064 0.480786 0.452748
v 0.004064 0.480786 0.454438
v 0.004064 0.480786 0.454438
v 0.004064 0.480786 0.452748
v 0.004064 0.480786 0.452748
v 0.023183 0.499905 0.452748
v 0.004064 0.480786 0.454438
v 0.004064 0.480786 0.452748
v 0.023183 0.499905 0.454438
v 0.023183 0.499905 0.454438
v 0.023183 0.499905 0.452748
v 0.004064 0.480786 0.454438
v 0.004064 0.480786 0.452748
v 0.023183 0.499905 0.452748
v 0.024338 0.500934 0.454438
v 0.023183 0.499905 0.452748
v 0.024338 0.500934 0.452748
v 0.023183 0.499905 0.454438
v 0.023183 0.499905 0.454438
v 0.024338 0.500934 0.454438
v 0.023183 0.499905 0.452748
v 0.024338 0.500934 0.452748
v 0.024338 0.500934 0.452748
vn 0.3097248132652849 -0.9508262407231851 0
vn 0.42189662056772026 -0.9066439441994509 0
vn -0.3097248132652849 0.9508262407231851 0
vn -0.42189662056772026 0.9066439441994509 0
vn 0 0 -1
vn 0 0 1
vn 0.47513402151037243 -0.8799134398356357 0
vn -0.47513402151037243 0.8799134398356357 0
vn 0.18983070726816897 -0.9818168375914456 0
vn -0.18983070726816897 0.9818168375914456 0
vn -0.5338077003485499 -0.8456059005521385 0
vn -0.4707754755526632 -0.8822530541846619 0
vn 0.4707754755526632 0.8822530541846619 0
vn 0.5338077003485499 0.8456059005521385 0
vn 0.06316172032578032 -0.9980033051475772 0
vn -0.06316172032578032 0.9980033051475772 0
vn -0.06879378011001852 -0.9976309015954622 0
vn 0.06879378011001852 0.9976309015954622 0
vn -0.20385430762110054 -0.9790012365999962 0
vn 0.20385430762110054 0.9790012365999962 0
vn -0.33906849595166794 -0.9407616887677099 0
vn 0.33906849595166794 0.9407616887677099 0
vn 0.5257644877464567 -0.8506301801750898 0
vn -0.5257644877464567 0.8506301801750898 0
vn -0.5948473101317429 -0.8038387136913911 0
vn 0.5948473101317429 0.8038387136913911 0
vn -0.6526328846491284 -0.7576742821784025 0
vn 0.6526328846491284 0.7576742821784025 0
vn -0.7071067811865476 -0.7071067811865476 0
vn 0.7071067811865476 0.7071067811865476 0
vn -0.7695372835415601 -0.6386018863419343 0
vn -0.8092696063111214 -0.5874374045811541 0
vn 0.7695372835415601 0.6386018863419343 0
vn 0.8092696063111214 0.5874374045811541 0
vn -0.8822530541846619 -0.4707754755526632 0
vn 0.8822530541846619 0.4707754755526632 0
vn -0.9407616887677099 -0.33906849595166794 0
vn 0.9407616887677099 0.33906849595166794 0
vn -0.9790012365999962 -0.20385430762110054 0
vn 0.9790012365999962 0.20385430762110054 0
vn -0.9976309015954622 -0.06879378011001852 0
vn 0.9976309015954622 0.06879378011001852 0
vn -0.9980033051475772 0.06316172032578032 0
vn 0.9980033051475772 -0.06316172032578032 0
vn -0.9818168375914456 0.18983070726816897 0
vn 0.9818168375914456 -0.18983070726816897 0
vn -0.9508262407231851 0.3097248132652849 0
vn 0.9508262407231851 -0.3097248132652849 0
vn -0.9066439441994509 0.42189662056772026 0
vn 0.9066439441994509 -0.42189662056772026 0
vn -0.8506301801750898 0.5257644877464567 0
vn 0.8506301801750898 -0.5257644877464567 0
vn -0.7838543839868546 0.6209446873148919 0
vn 0.7838543839868546 -0.6209446873148919 0
vn -0.7466505145512854 0.6652165129642384 0
vn 0.7466505145512854 -0.6652165129642384 0
vn -0.7071067811865476 0.7071067811865476 0
vn 0.7071067811865476 -0.7071067811865476 0
vn -0.6209446873148919 0.7838543839868546 0
vn -0.6652165129642384 0.7466505145512854 0
vn 0.6652165129642384 -0.7466505145512854 0
vn 0.6209446873148919 -0.7838543839868546 0
vn 0.5874374045811541 0.8092696063111214 0
vn -0.5874374045811541 -0.8092696063111214 0
vn 0.6386018863419343 0.7695372835415601 0
vn -0.6386018863419343 -0.7695372835415601 0
vn 0.8038387136913911 0.5948473101317429 0
vn 0.7576742821784025 0.6526328846491284 0
vn -0.8038387136913911 -0.5948473101317429 0
vn -0.7576742821784025 -0.6526328846491284 0
usemtl material_0_0
f 1//1 2//2 3//2
f 2//2 1//1 4//1
f 5//3 6//3 7//4
f 8//4 7//4 6//3
f 13//5 14//5 15//5
f 14//5 13//5 16//5
f 14//5 16//5 17//5
f 14//5 17//5 18//5
f 14//5 18//5 19//5
f 14//5 19//5 20//5
f 14//5 20//5 21//5
f 14//5 21//5 22//5
f 23//6 24//6 25//6
f 24//6 26//6 25//6
f 26//6 27//6 25//6
f 27//6 28//6 25//6
f 28//6 29//6 25//6
f 29//6 30//6 25//6
f 30//6 31//6 25//6
f 32//6 25//6 31//6
f 2//2 41//7 3//2
f 41//7 2//2 42//7
f 43//8 7//4 44//8
f 8//4 44//8 7//4
f 46//9 1//1 47//9
f 1//1 46//9 4//1
f 5//3 48//10 6//3
f 49//10 6//3 48//10
f 51//11 52//12 53//11
f 52//12 51//11 54//12
f 55//13 56//14 57//13
f 58//14 57//13 56//14
f 61//5 62//5 63//5
f 62//5 61//5 64//5
f 64//5 61//5 65//5
f 64//5 65//5 66//5
f 66//5 65//5 67//5
f 66//5 67//5 68//5
f 68//5 67//5 69//5
f 68//5 69//5 70//5
f 70//5 69//5 71//5
f 70//5 71//5 72//5
f 72//5 71//5 73//5
f 72//5 73//5 74//5
f 74//5 73//5 75//5
f 75//5 73//5 76//5
f 75//5 76//5 77//5
f 77//5 76//5 78//5
f 78//5 76//5 79//5
f 79//5 76//5 80//5
f 80//5 76//5 81//5
f 81//5 76//5 82//5
f 82//5 76//5 83//5
f 83//5 76//5 84//5
f 84//5 76//5 85//5
f 85//5 76//5 86//5
f 86//5 76//5 87//5
f 87//5 76//5 88//5
f 88//5 76//5 89//5
f 88//5 89//5 90//5
f 88//5 90//5 91//5
f 88//5 91//5 92//5
f 88//5 92//5 93//5
f 88//5 93//5 94//5
f 88//5 94//5 95//5
f 95//5 94//5 96//5
f 95//5 96//5 97//5
f 97//5 96//5 98//5
f 97//5 98//5 99//5
f 97//5 99//5 100//5
f 100//5 99//5 101//5
f 100//5 101//5 102//5
f 102//5 101//5 103//5
f 102//5 103//5 104//5
f 104//5 103//5 105//5
f 104//5 105//5 106//5
f 107//6 108//6 109//6
f 108//6 110//6 109//6
f 109//6 110//6 111//6
f 110//6 112//6 111//6
f 111//6 112//6 113//6
f 112//6 114//6 113//6
f 113//6 114//6 115//6
f 114//6 116//6 115//6
f 116//6 117//6 115//6
f 115//6 117//6 118//6
f 117//6 119//6 118//6
f 118//6 119//6 120//6
f 119//6 121//6 120//6
f 121//6 122//6 120//6
f 122//6 123//6 120//6
f 123//6 124//6 120//6
f 124//6 125//6 120//6
f 125//6 126//6 120//6
f 120//6 126//6 127//6
f 127//6 126//6 128//6
f 128//6 126//6 129//6
f 129//6 126//6 130//6
f 130//6 126//6 131//6
f 131//6 126//6 132//6
f 132//6 126//6 133//6
f 133//6 126//6 134//6
f 134//6 126//6 135//6
f 135//6 126//6 136//6
f 136//6 126//6 137//6
f 137//6 126//6 138//6
f 126//6 139//6 138//6
f 138//6 139//6 140//6
f 140//6 139//6 141//6
f 139//6 142//6 141//6
f 141//6 142//6 143//6
f 142//6 144//6 143//6
f 143//6 144//6 145//6
f 144//6 146//6 145//6
f 145//6 146//6 147//6
f 146//6 148//6 147//6
f 147//6 148//6 149//6
f 148//6 150//6 149//6
f 149//6 150//6 151//6
f 152//6 151//6 150//6
f 197//15 46//9 47//9
f 46//9 197//15 198//15
f 199//16 200//16 48//10
f 49//10 48//10 200//16
f 202//17 197//15 203//17
f 197//15 202//17 198//15
f 199//16 204//18 200//16
f 205//18 200//16 204//18
f 207//19 202//17 203//17
f 202//17 207//19 208//19
f 209//20 210//20 204//18
f 205//18 204//18 210//20
f 212//21 207//19 213//21
f 207//19 212//21 208//19
f 209//20 214//22 210//20
f 215//22 210//20 214//22
f 54//12 213//21 52//12
f 213//21 54//12 212//21
f 214//22 55//13 215//22
f 57//13 215//22 55//13
f 217//7 218//23 219//23
f 218//23 217//7 220//7
f 221//8 222//8 223//24
f 224//24 223//24 222//8
f 226//25 227//11 228//25
f 227//11 226//25 229//11
f 230//14 231//26 232//14
f 233//26 232//14 231//26
f 235//27 226//25 228//25
f 226//25 235//27 236//27
f 237//28 238//28 231//26
f 233//26 231//26 238//28
f 240//29 241//29 242//29
f 241//29 240//29 243//29
f 244//30 245//30 246//30
f 247//30 246//30 245//30
f 249//31 250//32 251//32
f 250//32 249//31 252//31
f 253//33 254//33 255//34
f 256//34 255//34 254//33
f 251//32 258//35 259//35
f 258//35 251//32 250//32
f 255//34 256//34 260//36
f 261//36 260//36 256//34
f 259//35 263//37 264//37
f 263//37 259//35 258//35
f 260//36 261//36 265//38
f 266//38 265//38 261//36
f 264//37 268//39 269//39
f 268//39 264//37 263//37
f 265//38 266//38 270//40
f 271//40 270//40 266//38
f 269//39 273//41 274//41
f 273//41 269//39 268//39
f 270//40 271//40 275//42
f 276//42 275//42 271//40
f 274//41 278//43 279//43
f 278//43 274//41 273//41
f 275//42 276//42 280//44
f 281//44 280//44 276//42
f 279//43 283//45 284//45
f 283//45 279//43 278//43
f 280//44 281//44 285//46
f 286//46 285//46 281//44
f 284//45 288//47 289//47
f 288//47 284//45 283//45
f 285//46 286//46 290//48
f 291//48 290//48 286//46
f 289//47 293//49 294//49
f 293//49 289//47 288//47
f 290//48 291//48 295//50
f 296//50 295//50 291//48
f 294//49 298//51 299//51
f 298//51 294//49 293//49
f 295//50 296//50 300//52
f 301//52 300//52 296//50
f 299//51 303//53 304//53
f 303//53 299//51 298//51
f 300//52 301//52 305//54
f 306//54 305//54 301//52
f 304//53 308//55 309//55
f 308//55 304//53 303//53
f 305//54 306//54 310//56
f 311//56 310//56 306//54
f 313//57 314//57 315//57
f 314//57 313//57 316//57
f 317//58 318//58 319//58
f 320//58 319//58 318//58
f 322//59 323//60 324//59
f 323//60 322//59 325//60
f 326//61 327//62 328//61
f 329//62 328//61 327//62
f 331//24 322//59 324//59
f 322//59 331//24 332//24
f 333//23 334//23 327//62
f 329//62 327//62 334//23
f 336//4 331//24 337//4
f 331//24 336//4 332//24
f 333//23 338//2 334//23
f 339//2 334//23 338//2
f 341//3 336//4 337//4
f 336//4 341//3 342//3
f 343//1 344//1 338//2
f 339//2 338//2 344//1
f 346//10 341//3 347//10
f 341//3 346//10 342//3
f 343//1 348//9 344//1
f 349//9 344//1 348//9
f 351//16 346//10 347//10
f 346//10 351//16 352//16
f 353//15 354//15 348//9
f 349//9 348//9 354//15
f 356//18 351//16 357//18
f 351//16 356//18 352//16
f 353//15 358//17 354//15
f 359//17 354//15 358//17
f 361//20 357//18 362//20
f 357//18 361//20 356//18
f 358//17 363//19 359//17
f 364//19 359//17 363//19
f 366//22 361//20 362//20
f 361//20 366//22 367//22
f 368//21 369//21 363//19
f 364//19 363//19 369//21
f 371//13 366//22 372//13
f 366//22 371//13 367//22
f 368//21 373//12 369//21
f 374//12 369//21 373//12
f 376//63 372//13 377//63
f 372//13 376//63 371//13
f 373//12 378//64 374//12
f 379//64 374//12 378//64
f 381//65 377//63 382//65
f 377//63 381//65 376//63
f 378//64 383//66 379//64
f 384//66 379//64 383//66
f 386//30 387//30 388//30
f 387//30 386//30 389//30
f 390//29 391//29 392//29
f 393//29 392//29 391//29
f 395//29 396//29 397//29
f 396//29 395//29 398//29
f 399//30 400//30 401//30
f 402//30 401//30 400//30
f 405//67 406//68 407//68
f 406//68 405//67 408//67
f 409//69 410//69 411//70
f 412//70 411//70 410//69
f 414//36 408//67 405//67
f 408//67 414//36 415//36
f 416//35 417//35 409//69
f 410//69 409//69 417//35
f 419//38 415//36 414//36
f 415//36 419//38 420//38
f 421//37 422//37 416//35
f 417//35 416//35 422//37
f 424//40 420//38 419//38
f 420//38 424//40 425//40
f 426//39 427//39 421//37
f 422//37 421//37 427//39
f 429//42 425//40 424//40
f 425//40 429//42 430//42
f 431//41 432//41 426//39
f 427//39 426//39 432//41
f 434//44 430//42 429//42
f 430//42 434//44 435//44
f 436//43 437//43 431//41
f 432//41 431//41 437//43
f 439//46 435//44 434//44
f 435//44 439//46 440//46
f 441//45 442//45 436//43
f 437//43 436//43 442//45
f 444//48 440//46 439//46
f 440//46 444//48 445//48
f 446//47 447//47 441//45
f 442//45 441//45 447//47
f 449//50 445//48 444//48
f 445//48 449//50 450//50
f 451//49 452//49 446//47
f 447//47 446//47 452//49
f 454//52 450//50 449//50
f 450//50 454//52 455//52
f 456//51 457//51 451//49
f 452//49 451//49 457//51
f 459//54 455//52 454//52
f 455//52 459//54 460//54
f 461//53 462//53 456//51
f 457//51 456//51 462//53
f 464//56 460//54 459//54
f 460//54 464//56 465//56
f 466//55 467//55 461//53
f 462//53 461//53 467//55
f 469//58 470//58 471//58
f 470//58 469//58 472//58
f 473//57 474//57 475//57
f 476//57 475//57 474//57
f 478//62 479//61 480//62
f 479//61 478//62 481//61
f 482//60 483//59 484//60
f 485//59 484//60 483//59
f 219//23 478//62 480//62
f 478//62 219//23 218//23
f 223//24 224//24 483//59
f 485//59 483//59 224//24
usemtl material_1_0
