# SSTK version 0.8.0
# 136
mtllib original-136.mtl
o #ID179
v -0.053004 0.467366 0.454438
v -0.052246 0.465656 0.452748
v -0.052246 0.465656 0.454438
v -0.053004 0.467366 0.452748
v -0.053004 0.467366 0.452748
v -0.053004 0.467366 0.454438
v -0.052246 0.465656 0.452748
v -0.052246 0.465656 0.454438
v -0.053004 0.467366 0.454438
v -0.052246 0.465656 0.454438
v -0.053004 0.467366 0.452748
v -0.052246 0.465656 0.452748
v -0.053513 0.469171 0.454438
v -0.053513 0.469171 0.452748
v -0.053513 0.469171 0.452748
v -0.053513 0.469171 0.454438
v -0.053513 0.469171 0.454438
v -0.053513 0.469171 0.452748
v -0.051250 0.464077 0.452748
v -0.051250 0.464077 0.454438
v -0.051250 0.464077 0.452748
v -0.051250 0.464077 0.454438
v -0.051250 0.464077 0.454438
v -0.051250 0.464077 0.452748
v -0.053768 0.471037 0.454438
v -0.053768 0.471037 0.452748
v -0.053768 0.471037 0.452748
v -0.053768 0.471037 0.454438
v -0.053768 0.471037 0.454438
v -0.053768 0.471037 0.452748
v -0.050115 0.462760 0.452748
v -0.050115 0.462760 0.454438
v -0.050115 0.462760 0.452748
v -0.050115 0.462760 0.454438
v -0.050115 0.462760 0.454438
v -0.050115 0.462760 0.452748
v -0.053772 0.472930 0.454438
v -0.053772 0.472930 0.452748
v -0.053772 0.472930 0.452748
v -0.053772 0.472930 0.454438
v -0.053772 0.472930 0.454438
v -0.053772 0.472930 0.452748
v -0.050115 0.462760 0.454438
v -0.049724 0.462369 0.452748
v -0.049724 0.462369 0.454438
v -0.050115 0.462760 0.452748
v -0.050115 0.462760 0.452748
v -0.050115 0.462760 0.454438
v -0.049724 0.462369 0.452748
v -0.049724 0.462369 0.454438
v -0.049724 0.462369 0.454438
v -0.049724 0.462369 0.452748
v -0.053529 0.474816 0.454438
v -0.053529 0.474816 0.452748
v -0.053529 0.474816 0.452748
v -0.053529 0.474816 0.454438
v -0.053529 0.474816 0.454438
v -0.053529 0.474816 0.452748
v -0.053048 0.476667 0.454438
v -0.053048 0.476667 0.452748
v -0.053048 0.476667 0.452748
v -0.053048 0.476667 0.454438
v -0.053048 0.476667 0.454438
v -0.053048 0.476667 0.452748
v -0.052343 0.478453 0.454438
v -0.052343 0.478453 0.452748
v -0.052343 0.478453 0.452748
v -0.052343 0.478453 0.454438
v -0.052343 0.478453 0.454438
v -0.052343 0.478453 0.452748
v -0.051427 0.480151 0.454438
v -0.051427 0.480151 0.452748
v -0.051427 0.480151 0.452748
v -0.051427 0.480151 0.454438
v -0.051427 0.480151 0.454438
v -0.051427 0.480151 0.452748
v -0.050315 0.481734 0.454438
v -0.050315 0.481734 0.452748
v -0.050315 0.481734 0.452748
v -0.050315 0.481734 0.454438
v -0.050315 0.481734 0.454438
v -0.050315 0.481734 0.452748
v -0.049091 0.483107 0.454438
v -0.049091 0.483107 0.452748
v -0.049091 0.483107 0.452748
v -0.049091 0.483107 0.454438
v -0.049091 0.483107 0.454438
v -0.049091 0.483107 0.452748
vn -0.9407616887677099 -0.33906849595166794 0
vn -0.8822530541846619 -0.4707754755526632 0
vn 0.9407616887677099 0.33906849595166794 0
vn 0.8822530541846619 0.4707754755526632 0
vn -0.9790012365999962 -0.20385430762110054 0
vn 0.9790012365999962 0.20385430762110054 0
vn -0.8038387136913911 -0.5948473101317429 0
vn 0.8038387136913911 0.5948473101317429 0
vn -0.9976309015954622 -0.06879378011001852 0
vn 0.9976309015954622 0.06879378011001852 0
vn -0.7576742821784025 -0.6526328846491284 0
vn 0.7576742821784025 0.6526328846491284 0
vn -0.9980033051475772 0.06316172032578032 0
vn 0.9980033051475772 -0.06316172032578032 0
vn -0.7071067811865476 -0.7071067811865476 0
vn 0.7071067811865476 0.7071067811865476 0
vn -0.9818168375914456 0.18983070726816897 0
vn 0.9818168375914456 -0.18983070726816897 0
vn -0.9508262407231851 0.3097248132652849 0
vn 0.9508262407231851 -0.3097248132652849 0
vn -0.9066439441994509 0.42189662056772026 0
vn 0.9066439441994509 -0.42189662056772026 0
vn -0.8506301801750898 0.5257644877464567 0
vn 0.8506301801750898 -0.5257644877464567 0
vn -0.7838543839868546 0.6209446873148919 0
vn 0.7838543839868546 -0.6209446873148919 0
vn -0.7466505145512854 0.6652165129642384 0
vn 0.7466505145512854 -0.6652165129642384 0
usemtl material_0_0
f 1//1 2//2 3//2
f 2//2 1//1 4//1
f 5//3 6//3 7//4
f 8//4 7//4 6//3
f 13//5 4//1 1//1
f 4//1 13//5 14//5
f 15//6 16//6 5//3
f 6//3 5//3 16//6
f 3//2 19//7 20//7
f 19//7 3//2 2//2
f 7//4 8//4 21//8
f 22//8 21//8 8//4
f 25//9 14//5 13//5
f 14//5 25//9 26//9
f 27//10 28//10 15//6
f 16//6 15//6 28//10
f 20//7 31//11 32//11
f 31//11 20//7 19//7
f 21//8 22//8 33//12
f 34//12 33//12 22//8
f 37//13 26//9 25//9
f 26//9 37//13 38//13
f 39//14 40//14 27//10
f 28//10 27//10 40//14
f 43//15 44//15 45//15
f 44//15 43//15 46//15
f 47//16 48//16 49//16
f 50//16 49//16 48//16
f 53//17 38//13 37//13
f 38//13 53//17 54//17
f 55//18 56//18 39//14
f 40//14 39//14 56//18
f 59//19 54//17 53//17
f 54//17 59//19 60//19
f 61//20 62//20 55//18
f 56//18 55//18 62//20
f 65//21 60//19 59//19
f 60//19 65//21 66//21
f 67//22 68//22 61//20
f 62//20 61//20 68//22
f 71//23 66//21 65//21
f 66//21 71//23 72//23
f 73//24 74//24 67//22
f 68//22 67//22 74//24
f 77//25 72//23 71//23
f 72//23 77//25 78//25
f 79//26 80//26 73//24
f 74//24 73//24 80//26
f 83//27 78//25 77//25
f 78//25 83//27 84//27
f 85//28 86//28 79//26
f 80//26 79//26 86//28
usemtl material_1_0
