# SSTK version 0.8.0
# 25
mtllib original-25.mtl
o #ID512
v 0.410058 0.538666 0.469647
v 0.407406 0.538750 0.456128
v 0.410058 0.538666 0.456128
v 0.407406 0.538750 0.469647
v 0.407406 0.538750 0.469647
v 0.410058 0.538666 0.469647
v 0.407406 0.538750 0.456128
v 0.410058 0.538666 0.456128
v 0.407406 0.538750 0.456128
v 0.407406 0.538750 0.469647
v 0.410058 0.538666 0.456128
v 0.410058 0.538666 0.469647
v 0.404753 0.538666 0.456128
v 0.404753 0.538666 0.469647
v 0.404753 0.538666 0.469647
v 0.404753 0.538666 0.456128
v 0.404753 0.538666 0.469647
v 0.404753 0.538666 0.456128
v 0.412701 0.538417 0.456128
v 0.412701 0.538417 0.469647
v 0.412701 0.538417 0.469647
v 0.412701 0.538417 0.456128
v 0.412701 0.538417 0.456128
v 0.412701 0.538417 0.469647
v 0.402111 0.538417 0.469647
v 0.402111 0.538417 0.456128
v 0.402111 0.538417 0.469647
v 0.402111 0.538417 0.456128
v 0.402111 0.538417 0.469647
v 0.402111 0.538417 0.456128
v 0.415322 0.538001 0.469647
v 0.415322 0.538001 0.456128
v 0.415322 0.538001 0.469647
v 0.415322 0.538001 0.456128
v 0.415322 0.538001 0.456128
v 0.415322 0.538001 0.469647
v 0.399489 0.538001 0.469647
v 0.399489 0.538001 0.456128
v 0.399489 0.538001 0.469647
v 0.399489 0.538001 0.456128
v 0.399489 0.538001 0.469647
v 0.399489 0.538001 0.456128
v 0.417913 0.537422 0.469647
v 0.417913 0.537422 0.456128
v 0.417913 0.537422 0.469647
v 0.417913 0.537422 0.456128
v 0.417913 0.537422 0.456128
v 0.417913 0.537422 0.469647
v 0.396899 0.537422 0.456128
v 0.396899 0.537422 0.469647
v 0.396899 0.537422 0.469647
v 0.396899 0.537422 0.456128
v 0.396899 0.537422 0.469647
v 0.396899 0.537422 0.456128
v 0.420461 0.536682 0.456128
v 0.420461 0.536682 0.469647
v 0.420461 0.536682 0.469647
v 0.420461 0.536682 0.456128
v 0.420461 0.536682 0.456128
v 0.420461 0.536682 0.469647
v 0.394351 0.536682 0.469647
v 0.394351 0.536682 0.456128
v 0.394351 0.536682 0.469647
v 0.394351 0.536682 0.456128
v 0.394351 0.536682 0.469647
v 0.394351 0.536682 0.456128
v 0.422958 0.535783 0.469647
v 0.422958 0.535783 0.456128
v 0.422958 0.535783 0.469647
v 0.422958 0.535783 0.456128
v 0.422958 0.535783 0.456128
v 0.422958 0.535783 0.469647
v 0.391854 0.535783 0.456128
v 0.391854 0.535783 0.469647
v 0.391854 0.535783 0.469647
v 0.391854 0.535783 0.456128
v 0.391854 0.535783 0.469647
v 0.391854 0.535783 0.456128
v 0.425394 0.534729 0.456128
v 0.425394 0.534729 0.469647
v 0.425394 0.534729 0.469647
v 0.425394 0.534729 0.456128
v 0.425394 0.534729 0.456128
v 0.425394 0.534729 0.469647
v 0.389418 0.534729 0.456128
v 0.389418 0.534729 0.469647
v 0.389418 0.534729 0.469647
v 0.389418 0.534729 0.456128
v 0.389418 0.534729 0.469647
v 0.389418 0.534729 0.456128
v 0.427759 0.533524 0.469647
v 0.427759 0.533524 0.456128
v 0.427759 0.533524 0.469647
v 0.427759 0.533524 0.456128
v 0.427759 0.533524 0.456128
v 0.427759 0.533524 0.469647
v 0.387053 0.533524 0.469647
v 0.387053 0.533524 0.456128
v 0.387053 0.533524 0.469647
v 0.387053 0.533524 0.456128
v 0.387053 0.533524 0.469647
v 0.387053 0.533524 0.456128
v 0.430043 0.532173 0.469647
v 0.430043 0.532173 0.456128
v 0.430043 0.532173 0.469647
v 0.430043 0.532173 0.456128
v 0.430043 0.532173 0.456128
v 0.430043 0.532173 0.469647
v 0.384768 0.532173 0.469647
v 0.384768 0.532173 0.456128
v 0.384768 0.532173 0.469647
v 0.384768 0.532173 0.456128
v 0.384768 0.532173 0.469647
v 0.384768 0.532173 0.456128
v 0.432238 0.530681 0.469647
v 0.432238 0.530681 0.456128
v 0.432238 0.530681 0.469647
v 0.432238 0.530681 0.456128
v 0.432238 0.530681 0.456128
v 0.432238 0.530681 0.469647
v 0.382573 0.530681 0.456128
v 0.382573 0.530681 0.469647
v 0.382573 0.530681 0.469647
v 0.382573 0.530681 0.456128
v 0.382573 0.530681 0.469647
v 0.382573 0.530681 0.456128
v 0.434336 0.529054 0.456128
v 0.434336 0.529054 0.469647
v 0.434336 0.529054 0.469647
v 0.434336 0.529054 0.456128
v 0.434336 0.529054 0.456128
v 0.434336 0.529054 0.469647
v 0.380476 0.529054 0.456128
v 0.380476 0.529054 0.469647
v 0.380476 0.529054 0.469647
v 0.380476 0.529054 0.456128
v 0.380476 0.529054 0.469647
v 0.380476 0.529054 0.456128
v 0.436326 0.527299 0.469647
v 0.436326 0.527299 0.456128
v 0.436326 0.527299 0.469647
v 0.436326 0.527299 0.456128
v 0.436326 0.527299 0.456128
v 0.436326 0.527299 0.469647
v 0.378486 0.527299 0.469647
v 0.378486 0.527299 0.456128
v 0.378486 0.527299 0.469647
v 0.378486 0.527299 0.456128
v 0.378486 0.527299 0.469647
v 0.378486 0.527299 0.456128
v 0.438203 0.525422 0.456128
v 0.438203 0.525422 0.469647
v 0.438203 0.525422 0.456128
v 0.438203 0.525422 0.469647
v 0.438203 0.525422 0.456128
v 0.438203 0.525422 0.469647
v 0.376609 0.525422 0.469647
v 0.376609 0.525422 0.456128
v 0.376609 0.525422 0.469647
v 0.376609 0.525422 0.456128
v 0.376609 0.525422 0.469647
v 0.376609 0.525422 0.456128
v 0.439958 0.523432 0.456128
v 0.439958 0.523432 0.469647
v 0.439958 0.523432 0.456128
v 0.439958 0.523432 0.469647
v 0.439958 0.523432 0.456128
v 0.439958 0.523432 0.469647
v 0.374853 0.523432 0.469647
v 0.374853 0.523432 0.456128
v 0.374853 0.523432 0.469647
v 0.374853 0.523432 0.456128
v 0.374853 0.523432 0.469647
v 0.374853 0.523432 0.456128
v 0.441585 0.521334 0.469647
v 0.441585 0.521334 0.456128
v 0.441585 0.521334 0.469647
v 0.441585 0.521334 0.456128
v 0.441585 0.521334 0.456128
v 0.441585 0.521334 0.469647
v 0.373227 0.521334 0.469647
v 0.373227 0.521334 0.456128
v 0.373227 0.521334 0.469647
v 0.373227 0.521334 0.456128
v 0.373227 0.521334 0.469647
v 0.373227 0.521334 0.456128
v 0.443076 0.519139 0.456128
v 0.443076 0.519139 0.469647
v 0.443076 0.519139 0.456128
v 0.443076 0.519139 0.469647
v 0.443076 0.519139 0.456128
v 0.443076 0.519139 0.469647
v 0.371735 0.519139 0.456128
v 0.371735 0.519139 0.469647
v 0.371735 0.519139 0.456128
v 0.371735 0.519139 0.469647
v 0.371735 0.519139 0.469647
v 0.371735 0.519139 0.456128
v 0.444428 0.516855 0.456128
v 0.444428 0.516855 0.469647
v 0.444428 0.516855 0.456128
v 0.444428 0.516855 0.469647
v 0.444428 0.516855 0.456128
v 0.444428 0.516855 0.469647
v 0.370384 0.516855 0.456128
v 0.370384 0.516855 0.469647
v 0.370384 0.516855 0.456128
v 0.370384 0.516855 0.469647
v 0.370384 0.516855 0.469647
v 0.370384 0.516855 0.456128
v 0.445633 0.514490 0.456128
v 0.445633 0.514490 0.469647
v 0.445633 0.514490 0.456128
v 0.445633 0.514490 0.469647
v 0.445633 0.514490 0.456128
v 0.445633 0.514490 0.469647
v 0.369179 0.514490 0.456128
v 0.369179 0.514490 0.469647
v 0.369179 0.514490 0.456128
v 0.369179 0.514490 0.469647
v 0.369179 0.514490 0.469647
v 0.369179 0.514490 0.456128
v 0.446687 0.512054 0.469647
v 0.446687 0.512054 0.456128
v 0.446687 0.512054 0.469647
v 0.446687 0.512054 0.456128
v 0.446687 0.512054 0.456128
v 0.446687 0.512054 0.469647
v 0.368125 0.512054 0.469647
v 0.368125 0.512054 0.456128
v 0.368125 0.512054 0.469647
v 0.368125 0.512054 0.456128
v 0.368125 0.512054 0.469647
v 0.368125 0.512054 0.456128
v 0.447586 0.509557 0.456128
v 0.447586 0.509557 0.469647
v 0.447586 0.509557 0.456128
v 0.447586 0.509557 0.469647
v 0.447586 0.509557 0.456128
v 0.447586 0.509557 0.469647
v 0.367226 0.509557 0.469647
v 0.367226 0.509557 0.456128
v 0.367226 0.509557 0.469647
v 0.367226 0.509557 0.456128
v 0.367226 0.509557 0.469647
v 0.367226 0.509557 0.456128
v 0.448326 0.507009 0.469647
v 0.448326 0.507009 0.456128
v 0.448326 0.507009 0.469647
v 0.448326 0.507009 0.456128
v 0.448326 0.507009 0.456128
v 0.448326 0.507009 0.469647
v 0.366485 0.507009 0.469647
v 0.366485 0.507009 0.456128
v 0.366485 0.507009 0.469647
v 0.366485 0.507009 0.456128
v 0.366485 0.507009 0.469647
v 0.366485 0.507009 0.456128
v 0.448905 0.504418 0.469647
v 0.448905 0.504418 0.456128
v 0.448905 0.504418 0.469647
v 0.448905 0.504418 0.456128
v 0.448905 0.504418 0.456128
v 0.448905 0.504418 0.469647
v 0.365906 0.504418 0.456128
v 0.365906 0.504418 0.469647
v 0.365906 0.504418 0.456128
v 0.365906 0.504418 0.469647
v 0.365906 0.504418 0.469647
v 0.365906 0.504418 0.456128
v 0.449320 0.501797 0.469647
v 0.449320 0.501797 0.456128
v 0.449320 0.501797 0.469647
v 0.449320 0.501797 0.456128
v 0.449320 0.501797 0.456128
v 0.449320 0.501797 0.469647
v 0.365491 0.501797 0.456128
v 0.365491 0.501797 0.469647
v 0.365491 0.501797 0.456128
v 0.365491 0.501797 0.469647
v 0.365491 0.501797 0.469647
v 0.365491 0.501797 0.456128
v 0.449570 0.499155 0.469647
v 0.449570 0.499155 0.456128
v 0.449570 0.499155 0.469647
v 0.449570 0.499155 0.456128
v 0.449570 0.499155 0.456128
v 0.449570 0.499155 0.469647
v 0.365241 0.499155 0.469647
v 0.365241 0.499155 0.456128
v 0.365241 0.499155 0.469647
v 0.365241 0.499155 0.456128
v 0.365241 0.499155 0.469647
v 0.365241 0.499155 0.456128
v 0.449653 0.496502 0.469647
v 0.449653 0.496502 0.456128
v 0.449653 0.496502 0.469647
v 0.449653 0.496502 0.456128
v 0.449653 0.496502 0.456128
v 0.449653 0.496502 0.469647
v 0.365158 0.496502 0.469647
v 0.365158 0.496502 0.456128
v 0.365158 0.496502 0.469647
v 0.365158 0.496502 0.456128
v 0.365158 0.496502 0.469647
v 0.365158 0.496502 0.456128
v 0.449570 0.493849 0.456128
v 0.449570 0.493849 0.469647
v 0.449570 0.493849 0.456128
v 0.449570 0.493849 0.469647
v 0.449570 0.493849 0.456128
v 0.449570 0.493849 0.469647
v 0.365241 0.493849 0.469647
v 0.365241 0.493849 0.456128
v 0.365241 0.493849 0.469647
v 0.365241 0.493849 0.456128
v 0.365241 0.493849 0.469647
v 0.365241 0.493849 0.456128
v 0.449320 0.491207 0.456128
v 0.449320 0.491207 0.469647
v 0.449320 0.491207 0.456128
v 0.449320 0.491207 0.469647
v 0.449320 0.491207 0.456128
v 0.449320 0.491207 0.469647
v 0.365491 0.491207 0.469647
v 0.365491 0.491207 0.456128
v 0.365491 0.491207 0.469647
v 0.365491 0.491207 0.456128
v 0.365491 0.491207 0.469647
v 0.365491 0.491207 0.456128
v 0.448905 0.488585 0.456128
v 0.448905 0.488585 0.469647
v 0.448905 0.488585 0.456128
v 0.448905 0.488585 0.469647
v 0.448905 0.488585 0.456128
v 0.448905 0.488585 0.469647
v 0.365906 0.488585 0.469647
v 0.365906 0.488585 0.456128
v 0.365906 0.488585 0.469647
v 0.365906 0.488585 0.456128
v 0.365906 0.488585 0.469647
v 0.365906 0.488585 0.456128
v 0.448326 0.485995 0.456128
v 0.448326 0.485995 0.469647
v 0.448326 0.485995 0.456128
v 0.448326 0.485995 0.469647
v 0.448326 0.485995 0.456128
v 0.448326 0.485995 0.469647
v 0.366485 0.485995 0.456128
v 0.366485 0.485995 0.469647
v 0.366485 0.485995 0.456128
v 0.366485 0.485995 0.469647
v 0.366485 0.485995 0.469647
v 0.366485 0.485995 0.456128
v 0.447586 0.483447 0.456128
v 0.447586 0.483447 0.469647
v 0.447586 0.483447 0.456128
v 0.447586 0.483447 0.469647
v 0.447586 0.483447 0.456128
v 0.447586 0.483447 0.469647
v 0.367226 0.483447 0.456128
v 0.367226 0.483447 0.469647
v 0.367226 0.483447 0.456128
v 0.367226 0.483447 0.469647
v 0.367226 0.483447 0.469647
v 0.367226 0.483447 0.456128
v 0.446687 0.480950 0.456128
v 0.446687 0.480950 0.469647
v 0.446687 0.480950 0.456128
v 0.446687 0.480950 0.469647
v 0.446687 0.480950 0.456128
v 0.446687 0.480950 0.469647
v 0.368125 0.480950 0.456128
v 0.368125 0.480950 0.469647
v 0.368125 0.480950 0.456128
v 0.368125 0.480950 0.469647
v 0.368125 0.480950 0.469647
v 0.368125 0.480950 0.456128
v 0.445633 0.478514 0.469647
v 0.445633 0.478514 0.456128
v 0.445633 0.478514 0.469647
v 0.445633 0.478514 0.456128
v 0.445633 0.478514 0.456128
v 0.445633 0.478514 0.469647
v 0.369179 0.478514 0.469647
v 0.369179 0.478514 0.456128
v 0.369179 0.478514 0.469647
v 0.369179 0.478514 0.456128
v 0.369179 0.478514 0.469647
v 0.369179 0.478514 0.456128
v 0.444428 0.476149 0.469647
v 0.444428 0.476149 0.456128
v 0.444428 0.476149 0.469647
v 0.444428 0.476149 0.456128
v 0.444428 0.476149 0.456128
v 0.444428 0.476149 0.469647
v 0.370384 0.476149 0.469647
v 0.370384 0.476149 0.456128
v 0.370384 0.476149 0.469647
v 0.370384 0.476149 0.456128
v 0.370384 0.476149 0.469647
v 0.370384 0.476149 0.456128
v 0.443076 0.473865 0.456128
v 0.443076 0.473865 0.469647
v 0.443076 0.473865 0.456128
v 0.443076 0.473865 0.469647
v 0.443076 0.473865 0.456128
v 0.443076 0.473865 0.469647
v 0.371735 0.473865 0.469647
v 0.371735 0.473865 0.456128
v 0.371735 0.473865 0.469647
v 0.371735 0.473865 0.456128
v 0.371735 0.473865 0.469647
v 0.371735 0.473865 0.456128
v 0.441585 0.471670 0.456128
v 0.441585 0.471670 0.469647
v 0.441585 0.471670 0.456128
v 0.441585 0.471670 0.469647
v 0.441585 0.471670 0.456128
v 0.441585 0.471670 0.469647
v 0.373227 0.471670 0.456128
v 0.373227 0.471670 0.469647
v 0.373227 0.471670 0.456128
v 0.373227 0.471670 0.469647
v 0.373227 0.471670 0.469647
v 0.373227 0.471670 0.456128
v 0.439958 0.469572 0.456128
v 0.439958 0.469572 0.469647
v 0.439958 0.469572 0.456128
v 0.439958 0.469572 0.469647
v 0.439958 0.469572 0.456128
v 0.439958 0.469572 0.469647
v 0.374853 0.469572 0.456128
v 0.374853 0.469572 0.469647
v 0.374853 0.469572 0.456128
v 0.374853 0.469572 0.469647
v 0.374853 0.469572 0.469647
v 0.374853 0.469572 0.456128
v 0.438203 0.467582 0.469647
v 0.438203 0.467582 0.456128
v 0.438203 0.467582 0.469647
v 0.438203 0.467582 0.456128
v 0.438203 0.467582 0.456128
v 0.438203 0.467582 0.469647
v 0.376609 0.467582 0.469647
v 0.376609 0.467582 0.456128
v 0.376609 0.467582 0.469647
v 0.376609 0.467582 0.456128
v 0.376609 0.467582 0.469647
v 0.376609 0.467582 0.456128
v 0.436326 0.465705 0.469647
v 0.436326 0.465705 0.456128
v 0.436326 0.465705 0.469647
v 0.436326 0.465705 0.456128
v 0.436326 0.465705 0.456128
v 0.436326 0.465705 0.469647
v 0.378486 0.465705 0.469647
v 0.378486 0.465705 0.456128
v 0.378486 0.465705 0.469647
v 0.378486 0.465705 0.456128
v 0.378486 0.465705 0.469647
v 0.378486 0.465705 0.456128
v 0.434336 0.463950 0.456128
v 0.434336 0.463950 0.469647
v 0.434336 0.463950 0.469647
v 0.434336 0.463950 0.456128
v 0.434336 0.463950 0.456128
v 0.434336 0.463950 0.469647
v 0.380476 0.463950 0.456128
v 0.380476 0.463950 0.469647
v 0.380476 0.463950 0.469647
v 0.380476 0.463950 0.456128
v 0.380476 0.463950 0.469647
v 0.380476 0.463950 0.456128
v 0.432238 0.462323 0.469647
v 0.432238 0.462323 0.456128
v 0.432238 0.462323 0.469647
v 0.432238 0.462323 0.456128
v 0.432238 0.462323 0.456128
v 0.432238 0.462323 0.469647
v 0.382573 0.462323 0.456128
v 0.382573 0.462323 0.469647
v 0.382573 0.462323 0.469647
v 0.382573 0.462323 0.456128
v 0.382573 0.462323 0.469647
v 0.382573 0.462323 0.456128
v 0.430043 0.460831 0.456128
v 0.430043 0.460831 0.469647
v 0.430043 0.460831 0.469647
v 0.430043 0.460831 0.456128
v 0.430043 0.460831 0.456128
v 0.430043 0.460831 0.469647
v 0.384768 0.460831 0.469647
v 0.384768 0.460831 0.456128
v 0.384768 0.460831 0.469647
v 0.384768 0.460831 0.456128
v 0.384768 0.460831 0.469647
v 0.384768 0.460831 0.456128
v 0.427759 0.459480 0.456128
v 0.427759 0.459480 0.469647
v 0.427759 0.459480 0.469647
v 0.427759 0.459480 0.456128
v 0.427759 0.459480 0.456128
v 0.427759 0.459480 0.469647
v 0.387053 0.459480 0.456128
v 0.387053 0.459480 0.469647
v 0.387053 0.459480 0.469647
v 0.387053 0.459480 0.456128
v 0.387053 0.459480 0.469647
v 0.387053 0.459480 0.456128
v 0.425394 0.458275 0.456128
v 0.425394 0.458275 0.469647
v 0.425394 0.458275 0.469647
v 0.425394 0.458275 0.456128
v 0.425394 0.458275 0.456128
v 0.425394 0.458275 0.469647
v 0.389418 0.458275 0.469647
v 0.389418 0.458275 0.456128
v 0.389418 0.458275 0.469647
v 0.389418 0.458275 0.456128
v 0.389418 0.458275 0.469647
v 0.389418 0.458275 0.456128
v 0.422958 0.457221 0.469647
v 0.422958 0.457221 0.456128
v 0.422958 0.457221 0.469647
v 0.422958 0.457221 0.456128
v 0.422958 0.457221 0.456128
v 0.422958 0.457221 0.469647
v 0.391854 0.457221 0.469647
v 0.391854 0.457221 0.456128
v 0.391854 0.457221 0.469647
v 0.391854 0.457221 0.456128
v 0.391854 0.457221 0.469647
v 0.391854 0.457221 0.456128
v 0.420461 0.456322 0.456128
v 0.420461 0.456322 0.469647
v 0.420461 0.456322 0.469647
v 0.420461 0.456322 0.456128
v 0.420461 0.456322 0.456128
v 0.420461 0.456322 0.469647
v 0.394351 0.456322 0.456128
v 0.394351 0.456322 0.469647
v 0.394351 0.456322 0.469647
v 0.394351 0.456322 0.456128
v 0.394351 0.456322 0.469647
v 0.394351 0.456322 0.456128
v 0.417913 0.455581 0.469647
v 0.417913 0.455581 0.456128
v 0.417913 0.455581 0.469647
v 0.417913 0.455581 0.456128
v 0.417913 0.455581 0.456128
v 0.417913 0.455581 0.469647
v 0.396899 0.455581 0.456128
v 0.396899 0.455581 0.469647
v 0.396899 0.455581 0.469647
v 0.396899 0.455581 0.456128
v 0.396899 0.455581 0.469647
v 0.396899 0.455581 0.456128
v 0.415322 0.455003 0.456128
v 0.415322 0.455003 0.469647
v 0.415322 0.455003 0.469647
v 0.415322 0.455003 0.456128
v 0.415322 0.455003 0.456128
v 0.415322 0.455003 0.469647
v 0.399489 0.455003 0.469647
v 0.399489 0.455003 0.456128
v 0.399489 0.455003 0.469647
v 0.399489 0.455003 0.456128
v 0.399489 0.455003 0.469647
v 0.399489 0.455003 0.456128
v 0.412701 0.454587 0.456128
v 0.412701 0.454587 0.469647
v 0.412701 0.454587 0.469647
v 0.412701 0.454587 0.456128
v 0.412701 0.454587 0.456128
v 0.412701 0.454587 0.469647
v 0.402111 0.454587 0.456128
v 0.402111 0.454587 0.469647
v 0.402111 0.454587 0.469647
v 0.402111 0.454587 0.456128
v 0.402111 0.454587 0.469647
v 0.402111 0.454587 0.456128
v 0.410058 0.454338 0.469647
v 0.410058 0.454338 0.456128
v 0.410058 0.454338 0.469647
v 0.410058 0.454338 0.456128
v 0.410058 0.454338 0.456128
v 0.410058 0.454338 0.469647
v 0.404753 0.454338 0.456128
v 0.404753 0.454338 0.469647
v 0.404753 0.454338 0.469647
v 0.404753 0.454338 0.456128
v 0.404753 0.454338 0.469647
v 0.404753 0.454338 0.456128
v 0.407406 0.454254 0.469647
v 0.407406 0.454254 0.456128
v 0.407406 0.454254 0.469647
v 0.407406 0.454254 0.456128
v 0.407406 0.454254 0.456128
v 0.407406 0.454254 0.469647
vn -0.0627905217796479 -0.9980267282866925 0
vn 0 -1 0
vn 0 1 0
vn 0.0627905217796479 0.9980267282866925 0
vn 0.0627905217796479 -0.9980267282866925 0
vn -0.0627905217796479 0.9980267282866925 0
vn -0.1253332006906906 -0.9921147054673806 0
vn 0.1253332006906906 0.9921147054673806 0
vn 0.1253332006906906 -0.9921147054673806 0
vn -0.1253332006906906 0.9921147054673806 0
vn -0.18738129144314172 -0.9822872551433722 0
vn 0.18738129144314172 0.9822872551433722 0
vn 0.18738129144314172 -0.9822872551433722 0
vn -0.18738129144314172 0.9822872551433722 0
vn -0.24868988984297663 -0.9685831604410063 0
vn 0.24868988984297663 0.9685831604410063 0
vn 0.24868988984297663 -0.9685831604410063 0
vn -0.24868988984297663 0.9685831604410063 0
vn -0.3090170042518809 -0.9510565130859434 0
vn 0.3090170042518809 0.9510565130859434 0
vn 0.3090170042518809 -0.9510565130859434 0
vn -0.3090170042518809 0.9510565130859434 0
vn -0.368124588757952 -0.9297764716058311 0
vn 0.368124588757952 0.9297764716058311 0
vn 0.368124588757952 -0.9297764716058311 0
vn -0.368124588757952 0.9297764716058311 0
vn -0.42577928015806865 -0.9048270578337482 0
vn 0.42577928015806865 0.9048270578337482 0
vn 0.42577928015806865 -0.9048270578337482 0
vn -0.42577928015806865 0.9048270578337482 0
vn -0.4817536855645931 -0.8763066737420931 0
vn 0.4817536855645931 0.8763066737420931 0
vn 0.4817536855645931 -0.8763066737420931 0
vn -0.4817536855645931 0.8763066737420931 0
vn -0.5358268100958747 -0.8443279159085524 0
vn 0.5358268100958747 0.8443279159085524 0
vn 0.5358268100958747 -0.8443279159085524 0
vn -0.5358268100958747 0.8443279159085524 0
vn -0.5877852808425821 -0.8090169736320784 0
vn 0.5877852808425821 0.8090169736320784 0
vn 0.5877852808425821 -0.8090169736320784 0
vn -0.5877852808425821 0.8090169736320784 0
vn -0.6374240168438534 -0.7705132203607198 0
vn 0.6374240168438534 0.7705132203607198 0
vn 0.6374240168438534 -0.7705132203607198 0
vn -0.6374240168438534 0.7705132203607198 0
vn -0.6845471164618626 -0.7289686175301027 0
vn 0.6845471164618626 0.7289686175301027 0
vn 0.6845471164618626 -0.7289686175301027 0
vn -0.6845471164618626 0.7289686175301027 0
vn -0.7289686175301027 -0.6845471164618626 0
vn 0.7289686175301027 0.6845471164618626 0
vn 0.7289686175301027 -0.6845471164618626 0
vn -0.7289686175301027 0.6845471164618626 0
vn -0.7705132203607198 -0.6374240168438534 0
vn 0.7705132203607198 0.6374240168438534 0
vn 0.7705132203607198 -0.6374240168438534 0
vn -0.7705132203607198 0.6374240168438534 0
vn -0.8090169736320784 -0.5877852808425821 0
vn 0.8090169736320784 0.5877852808425821 0
vn 0.8090169736320784 -0.5877852808425821 0
vn -0.8090169736320784 0.5877852808425821 0
vn -0.8443279159085524 -0.5358268100958747 0
vn 0.8443279159085524 0.5358268100958747 0
vn 0.8443279159085524 -0.5358268100958747 0
vn -0.8443279159085524 0.5358268100958747 0
vn -0.8763066737420931 -0.4817536855645931 0
vn 0.8763066737420931 0.4817536855645931 0
vn 0.8763066737420931 -0.4817536855645931 0
vn -0.8763066737420931 0.4817536855645931 0
vn -0.9048270578337482 -0.42577928015806865 0
vn 0.9048270578337482 0.42577928015806865 0
vn 0.9048270578337482 -0.42577928015806865 0
vn -0.9048270578337482 0.42577928015806865 0
vn -0.9297764716058311 -0.368124588757952 0
vn 0.9297764716058311 0.368124588757952 0
vn 0.9297764716058311 -0.368124588757952 0
vn -0.9297764716058311 0.368124588757952 0
vn -0.9510565130859434 -0.3090170042518809 0
vn 0.9510565130859434 0.3090170042518809 0
vn 0.9510565130859434 -0.3090170042518809 0
vn -0.9510565130859434 0.3090170042518809 0
vn -0.9685831604410063 -0.24868988984297663 0
vn 0.9685831604410063 0.24868988984297663 0
vn 0.9685831604410063 -0.24868988984297663 0
vn -0.9685831604410063 0.24868988984297663 0
vn -0.9822872551433722 -0.18738129144314172 0
vn 0.9822872551433722 0.18738129144314172 0
vn 0.9822872551433722 -0.18738129144314172 0
vn -0.9822872551433722 0.18738129144314172 0
vn -0.9921147054673806 -0.1253332006906906 0
vn 0.9921147054673806 0.1253332006906906 0
vn 0.9921147054673806 -0.1253332006906906 0
vn -0.9921147054673806 0.1253332006906906 0
vn -0.9980267282866925 -0.0627905217796479 0
vn 0.9980267282866925 0.0627905217796479 0
vn 0.9980267282866925 -0.0627905217796479 0
vn -0.9980267282866925 0.0627905217796479 0
vn -1 0 0
vn 1 0 0
usemtl material_0_0
f 1//1 2//2 3//1
f 2//2 1//1 4//2
f 5//3 6//4 7//3
f 8//4 7//3 6//4
f 4//2 13//5 2//2
f 13//5 4//2 14//5
f 15//6 5//3 16//6
f 7//3 16//6 5//3
f 19//7 1//1 3//1
f 1//1 19//7 20//7
f 21//8 22//8 6//4
f 8//4 6//4 22//8
f 13//5 25//9 26//9
f 25//9 13//5 14//5
f 15//6 16//6 27//10
f 28//10 27//10 16//6
f 31//11 19//7 32//11
f 19//7 31//11 20//7
f 21//8 33//12 22//8
f 34//12 22//8 33//12
f 26//9 37//13 38//13
f 37//13 26//9 25//9
f 27//10 28//10 39//14
f 40//14 39//14 28//10
f 43//15 32//11 44//15
f 32//11 43//15 31//11
f 33//12 45//16 34//12
f 46//16 34//12 45//16
f 37//13 49//17 38//13
f 49//17 37//13 50//17
f 51//18 39//14 52//18
f 40//14 52//18 39//14
f 55//19 43//15 44//15
f 43//15 55//19 56//19
f 57//20 58//20 45//16
f 46//16 45//16 58//20
f 49//17 61//21 62//21
f 61//21 49//17 50//17
f 51//18 52//18 63//22
f 64//22 63//22 52//18
f 67//23 55//19 68//23
f 55//19 67//23 56//19
f 57//20 69//24 58//20
f 70//24 58//20 69//24
f 61//21 73//25 62//21
f 73//25 61//21 74//25
f 75//26 63//22 76//26
f 64//22 76//26 63//22
f 79//27 67//23 68//23
f 67//23 79//27 80//27
f 81//28 82//28 69//24
f 70//24 69//24 82//28
f 74//25 85//29 73//25
f 85//29 74//25 86//29
f 87//30 75//26 88//30
f 76//26 88//30 75//26
f 91//31 79//27 92//31
f 79//27 91//31 80//27
f 81//28 93//32 82//28
f 94//32 82//28 93//32
f 85//29 97//33 98//33
f 97//33 85//29 86//29
f 87//30 88//30 99//34
f 100//34 99//34 88//30
f 103//35 92//31 104//35
f 92//31 103//35 91//31
f 93//32 105//36 94//32
f 106//36 94//32 105//36
f 98//33 109//37 110//37
f 109//37 98//33 97//33
f 99//34 100//34 111//38
f 112//38 111//38 100//34
f 115//39 104//35 116//39
f 104//35 115//39 103//35
f 105//36 117//40 106//36
f 118//40 106//36 117//40
f 109//37 121//41 110//37
f 121//41 109//37 122//41
f 123//42 111//38 124//42
f 112//38 124//42 111//38
f 127//43 115//39 116//39
f 115//39 127//43 128//43
f 129//44 130//44 117//40
f 118//40 117//40 130//44
f 122//41 133//45 121//41
f 133//45 122//41 134//45
f 135//46 123//42 136//46
f 124//42 136//46 123//42
f 139//47 127//43 140//47
f 127//43 139//47 128//43
f 129//44 141//48 130//44
f 142//48 130//44 141//48
f 133//45 145//49 146//49
f 145//49 133//45 134//45
f 135//46 136//46 147//50
f 148//50 147//50 136//46
f 139//47 151//51 152//51
f 151//51 139//47 140//47
f 142//48 141//48 153//52
f 154//52 153//52 141//48
f 146//49 157//53 158//53
f 157//53 146//49 145//49
f 147//50 148//50 159//54
f 160//54 159//54 148//50
f 152//51 163//55 164//55
f 163//55 152//51 151//51
f 153//52 154//52 165//56
f 166//56 165//56 154//52
f 158//53 169//57 170//57
f 169//57 158//53 157//53
f 159//54 160//54 171//58
f 172//58 171//58 160//54
f 175//59 163//55 176//59
f 163//55 175//59 164//55
f 166//56 177//60 165//56
f 178//60 165//56 177//60
f 170//57 181//61 182//61
f 181//61 170//57 169//57
f 171//58 172//58 183//62
f 184//62 183//62 172//58
f 175//59 187//63 188//63
f 187//63 175//59 176//59
f 178//60 177//60 189//64
f 190//64 189//64 177//60
f 193//65 181//61 194//65
f 181//61 193//65 182//61
f 184//62 195//66 183//62
f 196//66 183//62 195//66
f 188//63 199//67 200//67
f 199//67 188//63 187//63
f 189//64 190//64 201//68
f 202//68 201//68 190//64
f 205//69 194//65 206//69
f 194//65 205//69 193//65
f 195//66 207//70 196//66
f 208//70 196//66 207//70
f 200//67 211//71 212//71
f 211//71 200//67 199//67
f 201//68 202//68 213//72
f 214//72 213//72 202//68
f 217//73 206//69 218//73
f 206//69 217//73 205//69
f 207//70 219//74 208//70
f 220//74 208//70 219//74
f 223//75 211//71 224//75
f 211//71 223//75 212//71
f 214//72 225//76 213//72
f 226//76 213//72 225//76
f 217//73 229//77 230//77
f 229//77 217//73 218//73
f 220//74 219//74 231//78
f 232//78 231//78 219//74
f 223//75 235//79 236//79
f 235//79 223//75 224//75
f 226//76 225//76 237//80
f 238//80 237//80 225//76
f 230//77 241//81 242//81
f 241//81 230//77 229//77
f 231//78 232//78 243//82
f 244//82 243//82 232//78
f 247//83 235//79 248//83
f 235//79 247//83 236//79
f 238//80 249//84 237//80
f 250//84 237//80 249//84
f 242//81 253//85 254//85
f 253//85 242//81 241//81
f 243//82 244//82 255//86
f 256//86 255//86 244//82
f 259//87 248//83 260//87
f 248//83 259//87 247//83
f 249//84 261//88 250//84
f 262//88 250//84 261//88
f 265//89 253//85 266//89
f 253//85 265//89 254//85
f 256//86 267//90 255//86
f 268//90 255//86 267//90
f 271//91 260//87 272//91
f 260//87 271//91 259//87
f 261//88 273//92 262//88
f 274//92 262//88 273//92
f 277//93 266//89 278//93
f 266//89 277//93 265//89
f 267//90 279//94 268//90
f 280//94 268//90 279//94
f 283//95 272//91 284//95
f 272//91 283//95 271//91
f 273//92 285//96 274//92
f 286//96 274//92 285//96
f 277//93 289//97 290//97
f 289//97 277//93 278//93
f 280//94 279//94 291//98
f 292//98 291//98 279//94
f 295//99 284//95 296//99
f 284//95 295//99 283//95
f 285//96 297//100 286//96
f 298//100 286//96 297//100
f 290//97 301//100 302//100
f 301//100 290//97 289//97
f 291//98 292//98 303//99
f 304//99 303//99 292//98
f 295//99 307//98 308//98
f 307//98 295//99 296//99
f 298//100 297//100 309//97
f 310//97 309//97 297//100
f 302//100 313//96 314//96
f 313//96 302//100 301//100
f 303//99 304//99 315//95
f 316//95 315//95 304//99
f 308//98 319//94 320//94
f 319//94 308//98 307//98
f 309//97 310//97 321//93
f 322//93 321//93 310//97
f 314//96 325//92 326//92
f 325//92 314//96 313//96
f 315//95 316//95 327//91
f 328//91 327//91 316//95
f 320//94 331//90 332//90
f 331//90 320//94 319//94
f 321//93 322//93 333//89
f 334//89 333//89 322//93
f 326//92 337//88 338//88
f 337//88 326//92 325//92
f 327//91 328//91 339//87
f 340//87 339//87 328//91
f 332//90 343//86 344//86
f 343//86 332//90 331//90
f 333//89 334//89 345//85
f 346//85 345//85 334//89
f 349//84 337//88 350//84
f 337//88 349//84 338//88
f 340//87 351//83 339//87
f 352//83 339//87 351//83
f 344//86 355//82 356//82
f 355//82 344//86 343//86
f 345//85 346//85 357//81
f 358//81 357//81 346//85
f 361//80 350//84 362//80
f 350//84 361//80 349//84
f 351//83 363//79 352//83
f 364//79 352//83 363//79
f 356//82 367//78 368//78
f 367//78 356//82 355//82
f 357//81 358//81 369//77
f 370//77 369//77 358//81
f 373//76 362//80 374//76
f 362//80 373//76 361//80
f 363//79 375//75 364//79
f 376//75 364//79 375//75
f 379//74 367//78 380//74
f 367//78 379//74 368//78
f 370//77 381//73 369//77
f 382//73 369//77 381//73
f 373//76 385//72 386//72
f 385//72 373//76 374//76
f 376//75 375//75 387//71
f 388//71 387//71 375//75
f 391//70 380//74 392//70
f 380//74 391//70 379//74
f 381//73 393//69 382//73
f 394//69 382//73 393//69
f 386//72 397//68 398//68
f 397//68 386//72 385//72
f 387//71 388//71 399//67
f 400//67 399//67 388//71
f 391//70 403//66 404//66
f 403//66 391//70 392//70
f 394//69 393//69 405//65
f 406//65 405//65 393//69
f 398//68 409//64 410//64
f 409//64 398//68 397//68
f 399//67 400//67 411//63
f 412//63 411//63 400//67
f 404//66 415//62 416//62
f 415//62 404//66 403//66
f 405//65 406//65 417//61
f 418//61 417//61 406//65
f 421//60 409//64 422//60
f 409//64 421//60 410//64
f 412//63 423//59 411//63
f 424//59 411//63 423//59
f 416//62 427//58 428//58
f 427//58 416//62 415//62
f 417//61 418//61 429//57
f 430//57 429//57 418//61
f 433//56 422//60 434//56
f 422//60 433//56 421//60
f 423//59 435//55 424//59
f 436//55 424//59 435//55
f 439//54 427//58 440//54
f 427//58 439//54 428//58
f 430//57 441//53 429//57
f 442//53 429//57 441//53
f 433//56 445//52 446//52
f 445//52 433//56 434//56
f 436//55 435//55 447//51
f 448//51 447//51 435//55
f 451//50 440//54 452//50
f 440//54 451//50 439//54
f 441//53 453//49 442//53
f 454//49 442//53 453//49
f 446//52 457//48 458//48
f 457//48 446//52 445//52
f 447//51 448//51 459//47
f 460//47 459//47 448//51
f 463//46 451//50 452//50
f 451//50 463//46 464//46
f 465//45 466//45 453//49
f 454//49 453//49 466//45
f 457//48 469//44 458//48
f 469//44 457//48 470//44
f 471//43 459//47 472//43
f 460//47 472//43 459//47
f 475//42 463//46 476//42
f 463//46 475//42 464//46
f 465//45 477//41 466//45
f 478//41 466//45 477//41
f 470//44 481//40 469//44
f 481//40 470//44 482//40
f 483//39 471//43 484//39
f 472//43 484//39 471//43
f 487//38 475//42 476//42
f 475//42 487//38 488//38
f 489//37 490//37 477//41
f 478//41 477//41 490//37
f 481//40 493//36 494//36
f 493//36 481//40 482//40
f 483//39 484//39 495//35
f 496//35 495//35 484//39
f 499//34 488//38 487//38
f 488//38 499//34 500//34
f 501//33 502//33 489//37
f 490//37 489//37 502//33
f 493//36 505//32 494//36
f 505//32 493//36 506//32
f 507//31 495//35 508//31
f 496//35 508//31 495//35
f 511//30 500//34 499//34
f 500//34 511//30 512//30
f 513//29 514//29 501//33
f 502//33 501//33 514//29
f 505//32 517//28 518//28
f 517//28 505//32 506//32
f 507//31 508//31 519//27
f 520//27 519//27 508//31
f 523//26 511//30 524//26
f 511//30 523//26 512//30
f 513//29 525//25 514//29
f 526//25 514//29 525//25
f 518//28 529//24 530//24
f 529//24 518//28 517//28
f 519//27 520//27 531//23
f 532//23 531//23 520//27
f 535//22 523//26 524//26
f 523//26 535//22 536//22
f 537//21 538//21 525//25
f 526//25 525//25 538//21
f 529//24 541//20 530//24
f 541//20 529//24 542//20
f 543//19 531//23 544//19
f 532//23 544//19 531//23
f 547//18 535//22 548//18
f 535//22 547//18 536//22
f 537//21 549//17 538//21
f 550//17 538//21 549//17
f 542//20 553//16 541//20
f 553//16 542//20 554//16
f 555//15 543//19 556//15
f 544//19 556//15 543//19
f 559//14 547//18 548//18
f 547//18 559//14 560//14
f 561//13 562//13 549//17
f 550//17 549//17 562//13
f 553//16 565//12 566//12
f 565//12 553//16 554//16
f 555//15 556//15 567//11
f 568//11 567//11 556//15
f 571//10 560//14 559//14
f 560//14 571//10 572//10
f 573//9 574//9 561//13
f 562//13 561//13 574//9
f 565//12 577//8 566//12
f 577//8 565//12 578//8
f 579//7 567//11 580//7
f 568//11 580//7 567//11
f 583//6 571//10 584//6
f 571//10 583//6 572//10
f 573//9 585//5 574//9
f 586//5 574//9 585//5
f 578//8 589//4 577//8
f 589//4 578//8 590//4
f 591//1 579//7 592//1
f 580//7 592//1 579//7
f 595//3 584//6 596//3
f 584//6 595//3 583//6
f 585//5 597//2 586//5
f 598//2 586//5 597//2
f 589//4 595//3 596//3
f 595//3 589//4 590//4
f 591//1 592//1 597//2
f 598//2 597//2 592//1
usemtl material_1_0
