# SSTK version 0.8.0
# 150
mtllib original-150.mtl
o #ID270
v -0.430902 -0.057138 -0.189415
v -0.430947 -0.058607 -0.189415
v -0.430970 -0.057844 -0.189415
v -0.429112 -0.078011 -0.189415
v -0.430745 -0.056446 -0.189415
v -0.430502 -0.055780 -0.189415
v -0.430177 -0.055149 -0.189415
v -0.429774 -0.054565 -0.189415
v -0.429301 -0.054036 -0.189415
v -0.428765 -0.053571 -0.189415
v -0.424977 -0.104120 -0.189415
v -0.428174 -0.053178 -0.189415
v -0.427538 -0.052863 -0.189415
v -0.426868 -0.052631 -0.189415
v -0.426121 -0.052474 -0.189415
v -0.374597 -0.045044 -0.189415
v -0.419211 -0.129918 -0.189415
v -0.411836 -0.155303 -0.189415
v -0.402881 -0.180174 -0.189415
v -0.392383 -0.204435 -0.189415
v -0.380382 -0.227988 -0.189415
v -0.366926 -0.250741 -0.189415
v -0.373313 -0.044780 -0.189415
v -0.372022 -0.044349 -0.189415
v -0.370791 -0.043769 -0.189415
v -0.369637 -0.043046 -0.189415
v -0.368577 -0.042192 -0.189415
v -0.367627 -0.041218 -0.189415
v -0.366798 -0.040138 -0.189415
v -0.352068 -0.272604 -0.189415
v -0.366104 -0.038967 -0.189415
v -0.365553 -0.037722 -0.189415
v -0.365155 -0.036421 -0.189415
v -0.364913 -0.035081 -0.189415
v -0.364835 -0.033773 -0.189415
v -0.430736 0.010287 -0.189415
v -0.430672 0.008225 -0.189415
v -0.430769 0.009227 -0.189415
v -0.429112 0.027465 -0.189415
v -0.430450 0.007242 -0.189415
v -0.430105 0.006296 -0.189415
v -0.429643 0.005401 -0.189415
v -0.429071 0.004572 -0.189415
v -0.424977 0.053574 -0.189415
v -0.428400 0.003821 -0.189415
v -0.427638 0.003162 -0.189415
v -0.426800 0.002604 -0.189415
v -0.425898 0.002156 -0.189415
v -0.424946 0.001827 -0.189415
v -0.419211 0.079372 -0.189415
v -0.423907 0.001609 -0.189415
v -0.374527 -0.005513 -0.189415
v -0.411836 0.104757 -0.189415
v -0.402881 0.129628 -0.189415
v -0.392383 0.153889 -0.189415
v -0.380382 0.177442 -0.189415
v -0.366926 0.200195 -0.189415
v -0.373252 -0.005775 -0.189415
v -0.371970 -0.006202 -0.189415
v -0.370748 -0.006778 -0.189415
v -0.369603 -0.007496 -0.189415
v -0.368551 -0.008344 -0.189415
v -0.367607 -0.009311 -0.189415
v -0.366784 -0.010383 -0.189415
v -0.352068 0.222058 -0.189415
v -0.366095 -0.011546 -0.189415
v -0.365548 -0.012781 -0.189415
v -0.365152 -0.014073 -0.189415
v -0.364912 -0.015404 -0.189415
v -0.364835 -0.016702 -0.189415
v -0.335866 -0.293492 -0.189415
v -0.335866 0.242945 -0.189415
v -0.318384 -0.313320 -0.189415
v -0.318384 0.262774 -0.189415
v -0.299692 -0.332012 -0.189415
v -0.299692 0.281466 -0.189415
v -0.279864 -0.349493 -0.189415
v -0.279864 0.298947 -0.189415
v -0.258977 0.315149 -0.189415
v -0.258977 -0.365695 -0.189415
v -0.237113 -0.380554 -0.189415
v -0.237113 0.330008 -0.189415
v -0.214360 -0.394010 -0.189415
v -0.214360 0.343464 -0.189415
v -0.190807 0.355465 -0.189415
v -0.190807 -0.406011 -0.189415
v -0.166547 -0.416509 -0.189415
v -0.166547 0.365963 -0.189415
v -0.141675 0.374917 -0.189415
v -0.141675 -0.425463 -0.189415
v -0.116290 0.382292 -0.189415
v -0.116290 -0.432838 -0.189415
v -0.090493 -0.438605 -0.189415
v -0.090493 0.388059 -0.189415
v -0.064384 0.392194 -0.189415
v -0.064384 -0.442740 -0.189415
v -0.044980 0.394028 -0.189415
v -0.044980 -0.444574 -0.189415
v -0.044217 -0.444598 -0.189415
v -0.044217 0.394052 -0.189415
v -0.043510 0.393984 -0.189415
v -0.043510 -0.444530 -0.189415
v -0.042818 -0.444373 -0.189415
v -0.042818 0.393827 -0.189415
v -0.042152 0.393584 -0.189415
v -0.042152 -0.444130 -0.189415
v -0.041521 0.393259 -0.189415
v -0.041521 -0.443805 -0.189415
v -0.040937 -0.443402 -0.189415
v -0.040937 0.392856 -0.189415
v -0.040408 0.392383 -0.189415
v -0.040408 -0.442929 -0.189415
v -0.039944 -0.442393 -0.189415
v -0.039944 0.391846 -0.189415
v -0.039551 0.391256 -0.189415
v -0.039551 -0.441802 -0.189415
v -0.039235 -0.441166 -0.189415
v -0.039235 0.390620 -0.189415
v -0.039003 0.389950 -0.189415
v -0.039003 -0.440496 -0.189415
v -0.038847 0.389203 -0.189415
v -0.038847 -0.439749 -0.189415
v -0.031416 -0.388225 -0.189415
v -0.031416 0.337679 -0.189415
v -0.031152 0.336395 -0.189415
v -0.031152 -0.386941 -0.189415
v -0.030722 0.335103 -0.189415
v -0.030722 -0.385649 -0.189415
v -0.030141 0.333872 -0.189415
v -0.030141 -0.384418 -0.189415
v -0.029418 -0.383265 -0.189415
v -0.029418 0.332719 -0.189415
v -0.028564 0.331659 -0.189415
v -0.028564 -0.382205 -0.189415
v -0.027590 0.330708 -0.189415
v -0.027590 -0.381254 -0.189415
v -0.026510 -0.380426 -0.189415
v -0.026510 0.329880 -0.189415
v -0.025339 0.329186 -0.189415
v -0.025339 -0.379732 -0.189415
v -0.024094 0.328635 -0.189415
v -0.024094 -0.379181 -0.189415
v -0.022793 -0.378782 -0.189415
v -0.022793 0.328236 -0.189415
v -0.021454 0.327995 -0.189415
v -0.021454 -0.378541 -0.189415
v -0.020145 -0.378463 -0.189415
v -0.020145 0.327917 -0.189415
v -0.011610 -0.378463 -0.189415
v -0.003074 0.327917 -0.189415
v -0.003074 -0.378463 -0.189415
v -0.001776 0.327994 -0.189415
v -0.001776 -0.378540 -0.189415
v -0.000446 0.328234 -0.189415
v -0.000446 -0.378780 -0.189415
v 0.000846 0.328630 -0.189415
v 0.000846 -0.379176 -0.189415
v 0.002082 0.329176 -0.189415
v 0.002082 -0.379723 -0.189415
v 0.003245 -0.380412 -0.189415
v 0.003245 0.329866 -0.189415
v 0.004317 0.330688 -0.189415
v 0.004317 -0.381234 -0.189415
v 0.005284 -0.382178 -0.189415
v 0.005284 0.331632 -0.189415
v 0.006132 0.332684 -0.189415
v 0.006132 -0.383230 -0.189415
v 0.006850 0.333830 -0.189415
v 0.006850 -0.384376 -0.189415
v 0.007426 -0.385598 -0.189415
v 0.007426 0.335052 -0.189415
v 0.007853 0.336334 -0.189415
v 0.007853 -0.386880 -0.189415
v 0.008115 -0.388154 -0.189415
v 0.008115 0.337608 -0.189415
v 0.015237 -0.437535 -0.189415
v 0.015237 0.386989 -0.189415
v 0.015455 -0.438574 -0.189415
v 0.015455 0.388027 -0.189415
v 0.015784 0.388979 -0.189415
v 0.015784 -0.439525 -0.189415
v 0.016231 -0.440428 -0.189415
v 0.016231 0.389882 -0.189415
v 0.016789 0.390720 -0.189415
v 0.016789 -0.441266 -0.189415
v 0.017449 -0.442027 -0.189415
v 0.017449 0.391482 -0.189415
v 0.018200 -0.442699 -0.189415
v 0.018200 0.392153 -0.189415
v 0.019029 0.392725 -0.189415
v 0.019029 -0.443271 -0.189415
v 0.019924 0.393186 -0.189415
v 0.019924 -0.443732 -0.189415
v 0.020870 -0.444077 -0.189415
v 0.020870 0.393532 -0.189415
v 0.021852 -0.444300 -0.189415
v 0.021852 0.393754 -0.189415
v 0.022855 0.393850 -0.189415
v 0.022855 -0.444397 -0.189415
v 0.023915 -0.444364 -0.189415
v 0.023915 0.393818 -0.189415
v 0.041093 0.392194 -0.189415
v 0.041093 -0.442740 -0.189415
v 0.067202 0.388059 -0.189415
v 0.067202 -0.438605 -0.189415
v 0.093000 -0.432838 -0.189415
v 0.093000 0.382292 -0.189415
v 0.118384 0.374917 -0.189415
v 0.118384 -0.425463 -0.189415
v 0.143256 -0.416509 -0.189415
v 0.143256 0.365963 -0.189415
v 0.167516 0.355465 -0.189415
v 0.167516 -0.406011 -0.189415
v 0.191069 0.343464 -0.189415
v 0.191069 -0.394010 -0.189415
v 0.213823 -0.380554 -0.189415
v 0.213823 0.330008 -0.189415
v 0.235686 0.315149 -0.189415
v 0.235686 -0.365695 -0.189415
v 0.256573 0.298947 -0.189415
v 0.256573 -0.349493 -0.189415
v 0.276402 0.281466 -0.189415
v 0.276402 -0.332012 -0.189415
v 0.295094 0.262774 -0.189415
v 0.295094 -0.313320 -0.189415
v 0.312575 -0.293492 -0.189415
v 0.312575 0.242945 -0.189415
v 0.328777 0.222058 -0.189415
v 0.328777 -0.272604 -0.189415
v 0.343635 0.200195 -0.189415
v 0.341545 -0.016702 -0.189415
v 0.341545 -0.033773 -0.189415
v 0.341622 -0.015404 -0.189415
v 0.341862 -0.014073 -0.189415
v 0.342258 -0.012781 -0.189415
v 0.342804 -0.011546 -0.189415
v 0.343494 -0.010383 -0.189415
v 0.344316 -0.009311 -0.189415
v 0.357092 0.177442 -0.189415
v 0.345260 -0.008344 -0.189415
v 0.346312 -0.007496 -0.189415
v 0.347457 -0.006778 -0.189415
v 0.348679 -0.006202 -0.189415
v 0.349962 -0.005775 -0.189415
v 0.351236 -0.005513 -0.189415
v 0.400617 0.001609 -0.189415
v 0.369093 0.153889 -0.189415
v 0.379591 0.129628 -0.189415
v 0.388545 0.104757 -0.189415
v 0.395920 0.079372 -0.189415
v 0.401687 0.053574 -0.189415
v 0.401655 0.001827 -0.189415
v 0.402607 0.002156 -0.189415
v 0.405822 0.027465 -0.189415
v 0.403510 0.002604 -0.189415
v 0.404348 0.003162 -0.189415
v 0.405109 0.003821 -0.189415
v 0.405781 0.004572 -0.189415
v 0.406352 0.005401 -0.189415
v 0.407446 0.010287 -0.189415
v 0.406814 0.006296 -0.189415
v 0.407159 0.007242 -0.189415
v 0.407382 0.008225 -0.189415
v 0.407478 0.009227 -0.189415
v 0.343635 -0.250741 -0.189415
v 0.341622 -0.035081 -0.189415
v 0.341864 -0.036421 -0.189415
v 0.342263 -0.037722 -0.189415
v 0.342813 -0.038967 -0.189415
v 0.343508 -0.040138 -0.189415
v 0.344336 -0.041218 -0.189415
v 0.357092 -0.227988 -0.189415
v 0.345287 -0.042192 -0.189415
v 0.346347 -0.043046 -0.189415
v 0.347500 -0.043769 -0.189415
v 0.348731 -0.044349 -0.189415
v 0.350022 -0.044780 -0.189415
v 0.351306 -0.045044 -0.189415
v 0.402830 -0.052474 -0.189415
v 0.369093 -0.204435 -0.189415
v 0.379591 -0.180174 -0.189415
v 0.388545 -0.155303 -0.189415
v 0.395920 -0.129918 -0.189415
v 0.401687 -0.104120 -0.189415
v 0.405822 -0.078011 -0.189415
v 0.403577 -0.052631 -0.189415
v 0.404248 -0.052863 -0.189415
v 0.404883 -0.053178 -0.189415
v 0.405474 -0.053571 -0.189415
v 0.406011 -0.054036 -0.189415
v 0.407656 -0.058607 -0.189415
v 0.406484 -0.054565 -0.189415
v 0.406886 -0.055149 -0.189415
v 0.407212 -0.055780 -0.189415
v 0.407455 -0.056446 -0.189415
v 0.407611 -0.057138 -0.189415
v 0.407680 -0.057844 -0.189415
v 0.407680 -0.057844 -0.189415
v 0.407611 -0.057138 -0.189415
v 0.407656 -0.058607 -0.189415
v 0.407455 -0.056446 -0.189415
v 0.407212 -0.055780 -0.189415
v 0.406886 -0.055149 -0.189415
v 0.406484 -0.054565 -0.189415
v 0.406011 -0.054036 -0.189415
v 0.405822 -0.078011 -0.189415
v 0.405474 -0.053571 -0.189415
v 0.404883 -0.053178 -0.189415
v 0.404248 -0.052863 -0.189415
v 0.403577 -0.052631 -0.189415
v 0.402830 -0.052474 -0.189415
v 0.401687 -0.104120 -0.189415
v 0.395920 -0.129918 -0.189415
v 0.388545 -0.155303 -0.189415
v 0.379591 -0.180174 -0.189415
v 0.369093 -0.204435 -0.189415
v 0.357092 -0.227988 -0.189415
v 0.351306 -0.045044 -0.189415
v 0.350022 -0.044780 -0.189415
v 0.348731 -0.044349 -0.189415
v 0.347500 -0.043769 -0.189415
v 0.346347 -0.043046 -0.189415
v 0.345287 -0.042192 -0.189415
v 0.344336 -0.041218 -0.189415
v 0.343635 -0.250741 -0.189415
v 0.343508 -0.040138 -0.189415
v 0.342813 -0.038967 -0.189415
v 0.342263 -0.037722 -0.189415
v 0.341864 -0.036421 -0.189415
v 0.341622 -0.035081 -0.189415
v 0.341545 -0.033773 -0.189415
v 0.328777 -0.272604 -0.189415
v 0.407478 0.009227 -0.189415
v 0.407446 0.010287 -0.189415
v 0.407382 0.008225 -0.189415
v 0.407159 0.007242 -0.189415
v 0.406814 0.006296 -0.189415
v 0.406352 0.005401 -0.189415
v 0.405822 0.027465 -0.189415
v 0.405781 0.004572 -0.189415
v 0.405109 0.003821 -0.189415
v 0.404348 0.003162 -0.189415
v 0.403510 0.002604 -0.189415
v 0.402607 0.002156 -0.189415
v 0.401687 0.053574 -0.189415
v 0.401655 0.001827 -0.189415
v 0.400617 0.001609 -0.189415
v 0.395920 0.079372 -0.189415
v 0.388545 0.104757 -0.189415
v 0.379591 0.129628 -0.189415
v 0.369093 0.153889 -0.189415
v 0.357092 0.177442 -0.189415
v 0.351236 -0.005513 -0.189415
v 0.349962 -0.005775 -0.189415
v 0.348679 -0.006202 -0.189415
v 0.347457 -0.006778 -0.189415
v 0.346312 -0.007496 -0.189415
v 0.345260 -0.008344 -0.189415
v 0.344316 -0.009311 -0.189415
v 0.343635 0.200195 -0.189415
v 0.343494 -0.010383 -0.189415
v 0.342804 -0.011546 -0.189415
v 0.342258 -0.012781 -0.189415
v 0.341862 -0.014073 -0.189415
v 0.341622 -0.015404 -0.189415
v 0.341545 -0.016702 -0.189415
v 0.328777 0.222058 -0.189415
v 0.312575 -0.293492 -0.189415
v 0.312575 0.242945 -0.189415
v 0.295094 0.262774 -0.189415
v 0.295094 -0.313320 -0.189415
v 0.276402 -0.332012 -0.189415
v 0.276402 0.281466 -0.189415
v 0.256573 -0.349493 -0.189415
v 0.256573 0.298947 -0.189415
v 0.235686 -0.365695 -0.189415
v 0.235686 0.315149 -0.189415
v 0.213823 -0.380554 -0.189415
v 0.213823 0.330008 -0.189415
v 0.191069 0.343464 -0.189415
v 0.191069 -0.394010 -0.189415
v 0.167516 -0.406011 -0.189415
v 0.167516 0.355465 -0.189415
v 0.143256 -0.416509 -0.189415
v 0.143256 0.365963 -0.189415
v 0.118384 0.374917 -0.189415
v 0.118384 -0.425463 -0.189415
v 0.093000 -0.432838 -0.189415
v 0.093000 0.382292 -0.189415
v 0.067202 0.388059 -0.189415
v 0.067202 -0.438605 -0.189415
v 0.041093 -0.442740 -0.189415
v 0.041093 0.392194 -0.189415
v 0.023915 -0.444364 -0.189415
v 0.023915 0.393818 -0.189415
v 0.022855 0.393850 -0.189415
v 0.022855 -0.444397 -0.189415
v 0.021852 -0.444300 -0.189415
v 0.021852 0.393754 -0.189415
v 0.020870 0.393532 -0.189415
v 0.020870 -0.444077 -0.189415
v 0.019924 0.393186 -0.189415
v 0.019924 -0.443732 -0.189415
v 0.019029 -0.443271 -0.189415
v 0.019029 0.392725 -0.189415
v 0.018200 -0.442699 -0.189415
v 0.018200 0.392153 -0.189415
v 0.017449 0.391482 -0.189415
v 0.017449 -0.442027 -0.189415
v 0.016789 0.390720 -0.189415
v 0.016789 -0.441266 -0.189415
v 0.016231 -0.440428 -0.189415
v 0.016231 0.389882 -0.189415
v 0.015784 0.388979 -0.189415
v 0.015784 -0.439525 -0.189415
v 0.015455 -0.438574 -0.189415
v 0.015455 0.388027 -0.189415
v 0.015237 0.386989 -0.189415
v 0.015237 -0.437535 -0.189415
v 0.008115 0.337608 -0.189415
v 0.008115 -0.388154 -0.189415
v 0.007853 0.336334 -0.189415
v 0.007853 -0.386880 -0.189415
v 0.007426 -0.385598 -0.189415
v 0.007426 0.335052 -0.189415
v 0.006850 0.333830 -0.189415
v 0.006850 -0.384376 -0.189415
v 0.006132 -0.383230 -0.189415
v 0.006132 0.332684 -0.189415
v 0.005284 -0.382178 -0.189415
v 0.005284 0.331632 -0.189415
v 0.004317 0.330688 -0.189415
v 0.004317 -0.381234 -0.189415
v 0.003245 -0.380412 -0.189415
v 0.003245 0.329866 -0.189415
v 0.002082 0.329176 -0.189415
v 0.002082 -0.379723 -0.189415
v 0.000846 -0.379176 -0.189415
v 0.000846 0.328630 -0.189415
v -0.000446 -0.378780 -0.189415
v -0.000446 0.328234 -0.189415
v -0.001776 -0.378540 -0.189415
v -0.001776 0.327994 -0.189415
v -0.003074 -0.378463 -0.189415
v -0.003074 0.327917 -0.189415
v -0.011610 -0.378463 -0.189415
v -0.020145 0.327917 -0.189415
v -0.020145 -0.378463 -0.189415
v -0.021454 0.327995 -0.189415
v -0.021454 -0.378541 -0.189415
v -0.022793 -0.378782 -0.189415
v -0.022793 0.328236 -0.189415
v -0.024094 0.328635 -0.189415
v -0.024094 -0.379181 -0.189415
v -0.025339 -0.379732 -0.189415
v -0.025339 0.329186 -0.189415
v -0.026510 -0.380426 -0.189415
v -0.026510 0.329880 -0.189415
v -0.027590 0.330708 -0.189415
v -0.027590 -0.381254 -0.189415
v -0.028564 -0.382205 -0.189415
v -0.028564 0.331659 -0.189415
v -0.029418 -0.383265 -0.189415
v -0.029418 0.332719 -0.189415
v -0.030141 0.333872 -0.189415
v -0.030141 -0.384418 -0.189415
v -0.030722 -0.385649 -0.189415
v -0.030722 0.335103 -0.189415
v -0.031152 -0.386941 -0.189415
v -0.031152 0.336395 -0.189415
v -0.031416 -0.388225 -0.189415
v -0.031416 0.337679 -0.189415
v -0.038847 0.389203 -0.189415
v -0.038847 -0.439749 -0.189415
v -0.039003 -0.440496 -0.189415
v -0.039003 0.389950 -0.189415
v -0.039235 -0.441166 -0.189415
v -0.039235 0.390620 -0.189415
v -0.039551 0.391256 -0.189415
v -0.039551 -0.441802 -0.189415
v -0.039944 -0.442393 -0.189415
v -0.039944 0.391846 -0.189415
v -0.040408 0.392383 -0.189415
v -0.040408 -0.442929 -0.189415
v -0.040937 -0.443402 -0.189415
v -0.040937 0.392856 -0.189415
v -0.041521 0.393259 -0.189415
v -0.041521 -0.443805 -0.189415
v -0.042152 -0.444130 -0.189415
v -0.042152 0.393584 -0.189415
v -0.042818 -0.444373 -0.189415
v -0.042818 0.393827 -0.189415
v -0.043510 0.393984 -0.189415
v -0.043510 -0.444530 -0.189415
v -0.044217 -0.444598 -0.189415
v -0.044217 0.394052 -0.189415
v -0.044980 0.394028 -0.189415
v -0.044980 -0.444574 -0.189415
v -0.064384 -0.442740 -0.189415
v -0.064384 0.392194 -0.189415
v -0.090493 -0.438605 -0.189415
v -0.090493 0.388059 -0.189415
v -0.116290 0.382292 -0.189415
v -0.116290 -0.432838 -0.189415
v -0.141675 -0.425463 -0.189415
v -0.141675 0.374917 -0.189415
v -0.166547 -0.416509 -0.189415
v -0.166547 0.365963 -0.189415
v -0.190807 0.355465 -0.189415
v -0.190807 -0.406011 -0.189415
v -0.214360 -0.394010 -0.189415
v -0.214360 0.343464 -0.189415
v -0.237113 0.330008 -0.189415
v -0.237113 -0.380554 -0.189415
v -0.258977 0.315149 -0.189415
v -0.258977 -0.365695 -0.189415
v -0.279864 -0.349493 -0.189415
v -0.279864 0.298947 -0.189415
v -0.299692 0.281466 -0.189415
v -0.299692 -0.332012 -0.189415
v -0.318384 0.262774 -0.189415
v -0.318384 -0.313320 -0.189415
v -0.335866 0.242945 -0.189415
v -0.335866 -0.293492 -0.189415
v -0.352068 0.222058 -0.189415
v -0.352068 -0.272604 -0.189415
v -0.364835 -0.033773 -0.189415
v -0.364835 -0.016702 -0.189415
v -0.364912 -0.015404 -0.189415
v -0.365152 -0.014073 -0.189415
v -0.365548 -0.012781 -0.189415
v -0.366095 -0.011546 -0.189415
v -0.366784 -0.010383 -0.189415
v -0.366926 0.200195 -0.189415
v -0.367607 -0.009311 -0.189415
v -0.368551 -0.008344 -0.189415
v -0.369603 -0.007496 -0.189415
v -0.370748 -0.006778 -0.189415
v -0.371970 -0.006202 -0.189415
v -0.373252 -0.005775 -0.189415
v -0.374527 -0.005513 -0.189415
v -0.380382 0.177442 -0.189415
v -0.392383 0.153889 -0.189415
v -0.402881 0.129628 -0.189415
v -0.411836 0.104757 -0.189415
v -0.419211 0.079372 -0.189415
v -0.423907 0.001609 -0.189415
v -0.424946 0.001827 -0.189415
v -0.424977 0.053574 -0.189415
v -0.425898 0.002156 -0.189415
v -0.426800 0.002604 -0.189415
v -0.427638 0.003162 -0.189415
v -0.428400 0.003821 -0.189415
v -0.429071 0.004572 -0.189415
v -0.429112 0.027465 -0.189415
v -0.429643 0.005401 -0.189415
v -0.430105 0.006296 -0.189415
v -0.430450 0.007242 -0.189415
v -0.430672 0.008225 -0.189415
v -0.430736 0.010287 -0.189415
v -0.430769 0.009227 -0.189415
v -0.364913 -0.035081 -0.189415
v -0.365155 -0.036421 -0.189415
v -0.365553 -0.037722 -0.189415
v -0.366104 -0.038967 -0.189415
v -0.366798 -0.040138 -0.189415
v -0.366926 -0.250741 -0.189415
v -0.367627 -0.041218 -0.189415
v -0.368577 -0.042192 -0.189415
v -0.369637 -0.043046 -0.189415
v -0.370791 -0.043769 -0.189415
v -0.372022 -0.044349 -0.189415
v -0.373313 -0.044780 -0.189415
v -0.374597 -0.045044 -0.189415
v -0.380382 -0.227988 -0.189415
v -0.392383 -0.204435 -0.189415
v -0.402881 -0.180174 -0.189415
v -0.411836 -0.155303 -0.189415
v -0.419211 -0.129918 -0.189415
v -0.424977 -0.104120 -0.189415
v -0.426121 -0.052474 -0.189415
v -0.426868 -0.052631 -0.189415
v -0.427538 -0.052863 -0.189415
v -0.428174 -0.053178 -0.189415
v -0.428765 -0.053571 -0.189415
v -0.429112 -0.078011 -0.189415
v -0.429301 -0.054036 -0.189415
v -0.429774 -0.054565 -0.189415
v -0.430177 -0.055149 -0.189415
v -0.430502 -0.055780 -0.189415
v -0.430745 -0.056446 -0.189415
v -0.430902 -0.057138 -0.189415
v -0.430947 -0.058607 -0.189415
v -0.430970 -0.057844 -0.189415
v -0.020145 0.327917 -0.189415
v -0.003074 0.327917 -0.189415
v -0.001776 0.327994 -0.189415
v -0.000446 0.328234 -0.189415
v 0.000846 0.328630 -0.189415
v 0.002082 0.329176 -0.189415
v 0.003245 0.329866 -0.189415
v 0.004317 0.330688 -0.189415
v 0.005284 0.331632 -0.189415
v 0.006132 0.332684 -0.189415
v 0.006850 0.333830 -0.189415
v 0.007426 0.335052 -0.189415
v 0.007853 0.336334 -0.189415
v 0.008115 0.337608 -0.189415
v 0.015237 0.386989 -0.189415
v 0.015455 0.388027 -0.189415
v 0.015784 0.388979 -0.189415
v 0.016231 0.389882 -0.189415
v 0.016789 0.390720 -0.189415
v 0.017449 0.391482 -0.189415
v 0.018200 0.392153 -0.189415
v 0.019029 0.392725 -0.189415
v 0.019924 0.393186 -0.189415
v 0.020870 0.393532 -0.189415
v 0.021852 0.393754 -0.189415
v 0.022855 0.393850 -0.189415
v 0.023915 0.393818 -0.189415
v 0.041093 0.392194 -0.189415
v 0.067202 0.388059 -0.189415
v 0.093000 0.382292 -0.189415
v 0.118384 0.374917 -0.189415
v 0.143256 0.365963 -0.189415
v 0.167516 0.355465 -0.189415
v 0.191069 0.343464 -0.189415
v 0.213823 0.330008 -0.189415
v 0.235686 0.315149 -0.189415
v 0.256573 0.298947 -0.189415
v 0.276402 0.281466 -0.189415
v 0.295094 0.262774 -0.189415
v 0.312575 0.242945 -0.189415
v 0.328777 0.222058 -0.189415
v 0.343635 0.200195 -0.189415
v 0.357092 0.177442 -0.189415
v 0.369093 0.153889 -0.189415
v 0.379591 0.129628 -0.189415
v 0.388545 0.104757 -0.189415
v 0.395920 0.079372 -0.189415
v 0.401687 0.053574 -0.189415
v 0.405822 0.027465 -0.189415
v 0.407446 0.010287 -0.189415
v 0.407478 0.009227 -0.189415
v 0.407382 0.008225 -0.189415
v 0.407159 0.007242 -0.189415
v 0.406814 0.006296 -0.189415
v 0.406352 0.005401 -0.189415
v 0.405781 0.004572 -0.189415
v 0.405109 0.003821 -0.189415
v 0.404348 0.003162 -0.189415
v 0.403510 0.002604 -0.189415
v 0.402607 0.002156 -0.189415
v 0.401655 0.001827 -0.189415
v 0.400617 0.001609 -0.189415
v 0.351236 -0.005513 -0.189415
v 0.349962 -0.005775 -0.189415
v 0.348679 -0.006202 -0.189415
v 0.347457 -0.006778 -0.189415
v 0.346312 -0.007496 -0.189415
v 0.345260 -0.008344 -0.189415
v 0.344316 -0.009311 -0.189415
v 0.343494 -0.010383 -0.189415
v 0.342804 -0.011546 -0.189415
v 0.342258 -0.012781 -0.189415
v 0.341862 -0.014073 -0.189415
v 0.341622 -0.015404 -0.189415
v 0.341545 -0.016702 -0.189415
v 0.341545 -0.033773 -0.189415
v 0.341622 -0.035081 -0.189415
v 0.341864 -0.036421 -0.189415
v 0.342263 -0.037722 -0.189415
v 0.342813 -0.038967 -0.189415
v 0.343508 -0.040138 -0.189415
v 0.344336 -0.041218 -0.189415
v 0.345287 -0.042192 -0.189415
v 0.346347 -0.043046 -0.189415
v 0.347500 -0.043769 -0.189415
v 0.348731 -0.044349 -0.189415
v 0.350022 -0.044780 -0.189415
v 0.351306 -0.045044 -0.189415
v 0.402830 -0.052474 -0.189415
v 0.403577 -0.052631 -0.189415
v 0.404248 -0.052863 -0.189415
v 0.404883 -0.053178 -0.189415
v 0.405474 -0.053571 -0.189415
v 0.406011 -0.054036 -0.189415
v 0.406484 -0.054565 -0.189415
v 0.406886 -0.055149 -0.189415
v 0.407212 -0.055780 -0.189415
v 0.407455 -0.056446 -0.189415
v 0.407611 -0.057138 -0.189415
v 0.407680 -0.057844 -0.189415
v 0.407656 -0.058607 -0.189415
v 0.405822 -0.078011 -0.189415
v 0.401687 -0.104120 -0.189415
v 0.395920 -0.129918 -0.189415
v 0.388545 -0.155303 -0.189415
v 0.379591 -0.180174 -0.189415
v 0.369093 -0.204435 -0.189415
v 0.357092 -0.227988 -0.189415
v 0.343635 -0.250741 -0.189415
v 0.328777 -0.272604 -0.189415
v 0.312575 -0.293492 -0.189415
v 0.295094 -0.313320 -0.189415
v 0.276402 -0.332012 -0.189415
v 0.256573 -0.349493 -0.189415
v 0.235686 -0.365695 -0.189415
v 0.213823 -0.380554 -0.189415
v 0.191069 -0.394010 -0.189415
v 0.167516 -0.406011 -0.189415
v 0.143256 -0.416509 -0.189415
v 0.118384 -0.425463 -0.189415
v 0.093000 -0.432838 -0.189415
v 0.067202 -0.438605 -0.189415
v 0.041093 -0.442740 -0.189415
v 0.023915 -0.444364 -0.189415
v 0.022855 -0.444397 -0.189415
v 0.021852 -0.444300 -0.189415
v 0.020870 -0.444077 -0.189415
v 0.019924 -0.443732 -0.189415
v 0.019029 -0.443271 -0.189415
v 0.018200 -0.442699 -0.189415
v 0.017449 -0.442027 -0.189415
v 0.016789 -0.441266 -0.189415
v 0.016231 -0.440428 -0.189415
v 0.015784 -0.439525 -0.189415
v 0.015455 -0.438574 -0.189415
v 0.015237 -0.437535 -0.189415
v 0.008115 -0.388154 -0.189415
v 0.007853 -0.386880 -0.189415
v 0.007426 -0.385598 -0.189415
v 0.006850 -0.384376 -0.189415
v 0.006132 -0.383230 -0.189415
v 0.005284 -0.382178 -0.189415
v 0.004317 -0.381234 -0.189415
v 0.003245 -0.380412 -0.189415
v 0.002082 -0.379723 -0.189415
v 0.000846 -0.379176 -0.189415
v -0.000446 -0.378780 -0.189415
v -0.001776 -0.378540 -0.189415
v -0.003074 -0.378463 -0.189415
v -0.011610 -0.378463 -0.189415
v -0.020145 -0.378463 -0.189415
v -0.021454 -0.378541 -0.189415
v -0.022793 -0.378782 -0.189415
v -0.024094 -0.379181 -0.189415
v -0.025339 -0.379732 -0.189415
v -0.026510 -0.380426 -0.189415
v -0.027590 -0.381254 -0.189415
v -0.028564 -0.382205 -0.189415
v -0.029418 -0.383265 -0.189415
v -0.030141 -0.384418 -0.189415
v -0.030722 -0.385649 -0.189415
v -0.031152 -0.386941 -0.189415
v -0.031416 -0.388225 -0.189415
v -0.038847 -0.439749 -0.189415
v -0.039003 -0.440496 -0.189415
v -0.039235 -0.441166 -0.189415
v -0.039551 -0.441802 -0.189415
v -0.039944 -0.442393 -0.189415
v -0.040408 -0.442929 -0.189415
v -0.040937 -0.443402 -0.189415
v -0.041521 -0.443805 -0.189415
v -0.042152 -0.444130 -0.189415
v -0.042818 -0.444373 -0.189415
v -0.043510 -0.444530 -0.189415
v -0.044217 -0.444598 -0.189415
v -0.044980 -0.444574 -0.189415
v -0.064384 -0.442740 -0.189415
v -0.090493 -0.438605 -0.189415
v -0.116290 -0.432838 -0.189415
v -0.141675 -0.425463 -0.189415
v -0.166547 -0.416509 -0.189415
v -0.190807 -0.406011 -0.189415
v -0.214360 -0.394010 -0.189415
v -0.237113 -0.380554 -0.189415
v -0.258977 -0.365695 -0.189415
v -0.279864 -0.349493 -0.189415
v -0.299692 -0.332012 -0.189415
v -0.318384 -0.313320 -0.189415
v -0.335866 -0.293492 -0.189415
v -0.352068 -0.272604 -0.189415
v -0.366926 -0.250741 -0.189415
v -0.380382 -0.227988 -0.189415
v -0.392383 -0.204435 -0.189415
v -0.402881 -0.180174 -0.189415
v -0.411836 -0.155303 -0.189415
v -0.419211 -0.129918 -0.189415
v -0.424977 -0.104120 -0.189415
v -0.429112 -0.078011 -0.189415
v -0.430947 -0.058607 -0.189415
v -0.430970 -0.057844 -0.189415
v -0.430902 -0.057138 -0.189415
v -0.430745 -0.056446 -0.189415
v -0.430502 -0.055780 -0.189415
v -0.430177 -0.055149 -0.189415
v -0.429774 -0.054565 -0.189415
v -0.429301 -0.054036 -0.189415
v -0.428765 -0.053571 -0.189415
v -0.428174 -0.053178 -0.189415
v -0.427538 -0.052863 -0.189415
v -0.426868 -0.052631 -0.189415
v -0.426121 -0.052474 -0.189415
v -0.374597 -0.045044 -0.189415
v -0.373313 -0.044780 -0.189415
v -0.372022 -0.044349 -0.189415
v -0.370791 -0.043769 -0.189415
v -0.369637 -0.043046 -0.189415
v -0.368577 -0.042192 -0.189415
v -0.367627 -0.041218 -0.189415
v -0.366798 -0.040138 -0.189415
v -0.366104 -0.038967 -0.189415
v -0.365553 -0.037722 -0.189415
v -0.365155 -0.036421 -0.189415
v -0.364913 -0.035081 -0.189415
v -0.364835 -0.033773 -0.189415
v -0.364835 -0.016702 -0.189415
v -0.364912 -0.015404 -0.189415
v -0.365152 -0.014073 -0.189415
v -0.365548 -0.012781 -0.189415
v -0.366095 -0.011546 -0.189415
v -0.366784 -0.010383 -0.189415
v -0.367607 -0.009311 -0.189415
v -0.368551 -0.008344 -0.189415
v -0.369603 -0.007496 -0.189415
v -0.370748 -0.006778 -0.189415
v -0.371970 -0.006202 -0.189415
v -0.373252 -0.005775 -0.189415
v -0.374527 -0.005513 -0.189415
v -0.423907 0.001609 -0.189415
v -0.424946 0.001827 -0.189415
v -0.425898 0.002156 -0.189415
v -0.426800 0.002604 -0.189415
v -0.427638 0.003162 -0.189415
v -0.428400 0.003821 -0.189415
v -0.429071 0.004572 -0.189415
v -0.429643 0.005401 -0.189415
v -0.430105 0.006296 -0.189415
v -0.430450 0.007242 -0.189415
v -0.430672 0.008225 -0.189415
v -0.430769 0.009227 -0.189415
v -0.430736 0.010287 -0.189415
v -0.429112 0.027465 -0.189415
v -0.424977 0.053574 -0.189415
v -0.419211 0.079372 -0.189415
v -0.411836 0.104757 -0.189415
v -0.402881 0.129628 -0.189415
v -0.392383 0.153889 -0.189415
v -0.380382 0.177442 -0.189415
v -0.366926 0.200195 -0.189415
v -0.352068 0.222058 -0.189415
v -0.335866 0.242945 -0.189415
v -0.318384 0.262774 -0.189415
v -0.299692 0.281466 -0.189415
v -0.279864 0.298947 -0.189415
v -0.258977 0.315149 -0.189415
v -0.237113 0.330008 -0.189415
v -0.214360 0.343464 -0.189415
v -0.190807 0.355465 -0.189415
v -0.166547 0.365963 -0.189415
v -0.141675 0.374917 -0.189415
v -0.116290 0.382292 -0.189415
v -0.090493 0.388059 -0.189415
v -0.064384 0.392194 -0.189415
v -0.044980 0.394028 -0.189415
v -0.044217 0.394052 -0.189415
v -0.043510 0.393984 -0.189415
v -0.042818 0.393827 -0.189415
v -0.042152 0.393584 -0.189415
v -0.041521 0.393259 -0.189415
v -0.040937 0.392856 -0.189415
v -0.040408 0.392383 -0.189415
v -0.039944 0.391846 -0.189415
v -0.039551 0.391256 -0.189415
v -0.039235 0.390620 -0.189415
v -0.039003 0.389950 -0.189415
v -0.038847 0.389203 -0.189415
v -0.031416 0.337679 -0.189415
v -0.031152 0.336395 -0.189415
v -0.030722 0.335103 -0.189415
v -0.030141 0.333872 -0.189415
v -0.029418 0.332719 -0.189415
v -0.028564 0.331659 -0.189415
v -0.027590 0.330708 -0.189415
v -0.026510 0.329880 -0.189415
v -0.025339 0.329186 -0.189415
v -0.024094 0.328635 -0.189415
v -0.022793 0.328236 -0.189415
v -0.021454 0.327995 -0.189415
vt -1.003501 0.4450241
vt -1.00342 0.4458599
vt -1.003473 0.4441212
vt -1.003235 0.4466789
vt -1.002947 0.4474679
vt -1.002562 0.4482141
vt -1.002086 0.4489056
vt -1.001526 0.4495314
vt -1.001302 0.4211565
vt -1.000891 0.4500812
vt -1.000192 0.4505464
vt -0.9994395 0.4509194
vt -0.998646 0.4511943
vt -0.997762 0.4513796
vt -0.9964082 0.3902566
vt -0.9895836 0.359725
vt -0.9808553 0.3296822
vt -0.9702579 0.3002467
vt -0.9578331 0.2715347
vt -0.94363 0.2436595
vt -0.9367833 0.4601739
vt -0.9352638 0.4604862
vt -0.9337355 0.4609955
vt -0.9322785 0.4616826
vt -0.9309133 0.4625377
vt -0.9296592 0.4635489
vt -0.9285341 0.4647017
vt -0.9277046 0.2167311
vt -0.9275536 0.4659799
vt -0.9267319 0.4673655
vt -0.9260803 0.4688387
vt -0.9256083 0.4703789
vt -0.9253223 0.4719643
vt -0.9252301 0.4735128
vt -0.9101198 0.1908559
vt -1.003263 0.5244034
vt -1.003224 0.5256584
vt -1.003148 0.5232169
vt -1.002885 0.5220544
vt -1.002477 0.5209345
vt -1.00193 0.5198752
vt -1.001302 0.5459882
vt -1.001254 0.5188936
vt -1.000459 0.5180054
vt -0.9995579 0.5172249
vt -0.9985655 0.5165645
vt -0.9974976 0.5160351
vt -0.9964082 0.576888
vt -0.9963712 0.5156449
vt -0.9951424 0.5153873
vt -0.9895836 0.6074197
vt -0.9808553 0.6374625
vt -0.9702579 0.666898
vt -0.9578331 0.69561
vt -0.94363 0.7234852
vt -0.9367001 0.5069588
vt -0.9351919 0.5066488
vt -0.9336745 0.5061431
vt -0.9322279 0.505461
vt -0.9308725 0.5046119
vt -0.9296275 0.5036081
vt -0.9285104 0.5024635
vt -0.9277046 0.7504135
vt -0.927537 0.5011944
vt -0.9267211 0.4998188
vt -0.9260742 0.4983561
vt -0.9256055 0.496827
vt -0.9253217 0.495253
vt -0.9252301 0.4937159
vt -0.9101198 0.7762888
vt -0.890945 0.1661358
vt -0.890945 0.8010089
vt -0.8702558 0.8244761
vt -0.8702558 0.1426686
vt -0.8481339 0.1205467
vt -0.8481339 0.846598
vt -0.8246666 0.0998575
vt -0.8246666 0.8672872
vt -0.7999466 0.08068267
vt -0.7999466 0.886462
vt -0.7740713 0.06309786
vt -0.7740713 0.9040468
vt -0.747143 0.9199722
vt -0.747143 0.04717247
vt -0.7192678 0.03296936
vt -0.7192678 0.9341753
vt -0.6905558 0.02054456
vt -0.6905558 0.9466001
vt -0.6611203 0.9571975
vt -0.6611203 0.009947129
vt -0.6310774 0.001218877
vt -0.6310774 0.9659258
vt -0.6005458 0.9727504
vt -0.6005458 -0.005605746
vt -0.5696459 -0.01049981
vt -0.5696459 0.9776445
vt -0.5493162 -0.01242153
vt -0.5493162 0.9795662
vt -0.5480612 0.9796049
vt -0.5480612 -0.01246025
vt -0.5468747 -0.01234602
vt -0.5468747 0.9794907
vt -0.5457122 0.9792273
vt -0.5457122 -0.01208263
vt -0.5445923 0.978819
vt -0.5445923 -0.01167432
vt -0.543533 -0.01112765
vt -0.543533 0.9782723
vt -0.5425514 -0.0104514
vt -0.5425514 0.9775961
vt -0.5416632 0.9768011
vt -0.5416632 -0.009656422
vt -0.5408826 0.9759002
vt -0.5408826 -0.008755491
vt -0.5402223 -0.007763076
vt -0.5402223 0.9749077
vt -0.5396928 0.9738398
vt -0.5396928 -0.006695116
vt -0.5393027 -0.005568764
vt -0.5393027 0.9727134
vt -0.5390451 0.9714846
vt -0.5390451 -0.004339905
vt -0.5306166 0.9130423
vt -0.5306166 0.05410236
vt -0.5303066 0.9115341
vt -0.5303066 0.05561059
vt -0.5298009 0.05712792
vt -0.5298009 0.9100167
vt -0.5291188 0.9085702
vt -0.5291188 0.05857451
vt -0.5282697 0.05992992
vt -0.5282697 0.9072147
vt -0.5272658 0.06117498
vt -0.5272658 0.9059697
vt -0.5261213 0.9048526
vt -0.5261213 0.0622921
vt -0.5248522 0.06326548
vt -0.5248522 0.9038792
vt -0.5234766 0.9030633
vt -0.5234766 0.06408137
vt -0.5220139 0.06472823
vt -0.5220139 0.9024164
vt -0.5204847 0.06519691
vt -0.5204847 0.9019478
vt -0.5189108 0.0654808
vt -0.5189108 0.9016639
vt -0.5173737 0.06557233
vt -0.5173737 0.9015723
vt -0.5072722 0.06557233
vt -0.4971706 0.9015723
vt -0.4971706 0.06557233
vt -0.4956221 0.9016646
vt -0.4956221 0.06548011
vt -0.4940367 0.06519418
vt -0.4940367 0.9019505
vt -0.4924965 0.9024226
vt -0.4924965 0.06472211
vt -0.4910233 0.06407058
vt -0.4910233 0.9030741
vt -0.4896377 0.06324881
vt -0.4896377 0.9038959
vt -0.4883595 0.9048763
vt -0.4883595 0.0622684
vt -0.4872067 0.06114322
vt -0.4872067 0.9060015
vt -0.4861955 0.05988917
vt -0.4861955 0.9072555
vt -0.4853404 0.9086207
vt -0.4853404 0.05852397
vt -0.4846533 0.05706694
vt -0.4846533 0.9100777
vt -0.484144 0.05553865
vt -0.484144 0.911606
vt -0.4838317 0.05401911
vt -0.4838317 0.9131256
vt -0.4750374 0.9741042
vt -0.4750374 -0.006959496
vt -0.474852 -0.007843581
vt -0.474852 0.9749882
vt -0.4745772 -0.008637068
vt -0.4745772 0.9757817
vt -0.4742042 0.9765341
vt -0.4742042 -0.00938942
vt -0.473739 -0.01008855
vt -0.473739 0.9772332
vt -0.4731891 0.9778679
vt -0.4731891 -0.01072324
vt -0.4725634 -0.01128328
vt -0.4725634 0.9784279
vt -0.4718719 0.9789044
vt -0.4718719 -0.01175968
vt -0.4711257 -0.0121448
vt -0.4711257 0.9792895
vt -0.4703367 -0.01243244
vt -0.4703367 0.9795771
vt -0.4695177 0.9797627
vt -0.4695177 -0.01261799
vt -0.4686819 -0.01269846
vt -0.4686819 0.9798431
vt -0.467779 0.9798153
vt -0.467779 -0.01267061
vt -0.4448143 -0.01049981
vt -0.4448143 0.9776445
vt -0.4139144 -0.005605746
vt -0.4139144 0.9727504
vt -0.3833828 0.9659258
vt -0.3833828 0.001218877
vt -0.35334 0.009947129
vt -0.35334 0.9571975
vt -0.3239045 0.02054456
vt -0.3239045 0.9466001
vt -0.2951925 0.9341753
vt -0.2951925 0.03296936
vt -0.2673173 0.04717247
vt -0.2673173 0.9199722
vt -0.2403889 0.9040468
vt -0.2403889 0.06309786
vt -0.2145136 0.886462
vt -0.2145136 0.08068267
vt -0.1897936 0.0998575
vt -0.1897936 0.8672872
vt -0.1663263 0.846598
vt -0.1663263 0.1205467
vt -0.1442045 0.8244761
vt -0.1442045 0.1426686
vt -0.1235153 0.8010089
vt -0.1235153 0.1661358
vt -0.1043405 0.7762888
vt -0.1043405 0.1908559
vt -0.08923012 0.4735128
vt -0.08923012 0.4937159
vt -0.08913859 0.495253
vt -0.0888547 0.496827
vt -0.08838601 0.4983561
vt -0.08773915 0.4998188
vt -0.08692327 0.5011944
vt -0.08675565 0.7504135
vt -0.08594989 0.5024635
vt -0.08483277 0.5036081
vt -0.08358771 0.5046119
vt -0.0822323 0.505461
vt -0.08078571 0.5061431
vt -0.07926838 0.5066488
vt -0.07776014 0.5069588
vt -0.07083026 0.7234852
vt -0.05662714 0.69561
vt -0.04420235 0.666898
vt -0.03360491 0.6374625
vt -0.02487666 0.6074197
vt -0.01931788 0.5153873
vt -0.01808902 0.5156449
vt -0.01805204 0.576888
vt -0.01696267 0.5160351
vt -0.01589471 0.5165645
vt -0.01490229 0.5172249
vt -0.01400136 0.5180054
vt -0.01320639 0.5188936
vt -0.01315798 0.5459882
vt -0.01253013 0.5198752
vt -0.01198346 0.5209345
vt -0.01157515 0.5220544
vt -0.01131177 0.5232169
vt -0.01123625 0.5256584
vt -0.01119754 0.5244034
vt -0.0891379 0.4719643
vt -0.08885196 0.4703789
vt -0.08837989 0.4688387
vt -0.08772837 0.4673655
vt -0.08690659 0.4659799
vt -0.08675565 0.2167311
vt -0.08592618 0.4647017
vt -0.084801 0.4635489
vt -0.08354695 0.4625377
vt -0.08218176 0.4616826
vt -0.08072472 0.4609955
vt -0.07919644 0.4604862
vt -0.0776769 0.4601739
vt -0.07083026 0.2436595
vt -0.05662714 0.2715347
vt -0.04420235 0.3002467
vt -0.03360491 0.3296822
vt -0.02487666 0.359725
vt -0.01805204 0.3902566
vt -0.01669829 0.4513796
vt -0.0158142 0.4511943
vt -0.01502072 0.4509194
vt -0.01426837 0.4505464
vt -0.01356923 0.4500812
vt -0.01315798 0.4211565
vt -0.01293455 0.4495314
vt -0.01237451 0.4489056
vt -0.0118981 0.4482141
vt -0.01151299 0.4474679
vt -0.01122535 0.4466789
vt -0.0110398 0.4458599
vt -0.01098718 0.4441212
vt -0.01095932 0.4450241
vn 0 0 -1
vn 0 0 1
usemtl material_0_0
f 1//1 2//1 3//1
f 2//1 1//1 4//1
f 4//1 1//1 5//1
f 4//1 5//1 6//1
f 4//1 6//1 7//1
f 4//1 7//1 8//1
f 4//1 8//1 9//1
f 4//1 9//1 10//1
f 4//1 10//1 11//1
f 11//1 10//1 12//1
f 11//1 12//1 13//1
f 11//1 13//1 14//1
f 11//1 14//1 15//1
f 11//1 15//1 16//1
f 11//1 16//1 17//1
f 17//1 16//1 18//1
f 18//1 16//1 19//1
f 19//1 16//1 20//1
f 20//1 16//1 21//1
f 21//1 16//1 22//1
f 22//1 16//1 23//1
f 22//1 23//1 24//1
f 22//1 24//1 25//1
f 22//1 25//1 26//1
f 22//1 26//1 27//1
f 22//1 27//1 28//1
f 22//1 28//1 29//1
f 22//1 29//1 30//1
f 30//1 29//1 31//1
f 30//1 31//1 32//1
f 30//1 32//1 33//1
f 30//1 33//1 34//1
f 30//1 34//1 35//1
f 36//1 37//1 38//1
f 37//1 36//1 39//1
f 37//1 39//1 40//1
f 40//1 39//1 41//1
f 41//1 39//1 42//1
f 42//1 39//1 43//1
f 43//1 39//1 44//1
f 43//1 44//1 45//1
f 45//1 44//1 46//1
f 46//1 44//1 47//1
f 47//1 44//1 48//1
f 48//1 44//1 49//1
f 49//1 44//1 50//1
f 49//1 50//1 51//1
f 51//1 50//1 52//1
f 52//1 50//1 53//1
f 52//1 53//1 54//1
f 52//1 54//1 55//1
f 52//1 55//1 56//1
f 52//1 56//1 57//1
f 52//1 57//1 58//1
f 58//1 57//1 59//1
f 59//1 57//1 60//1
f 60//1 57//1 61//1
f 61//1 57//1 62//1
f 62//1 57//1 63//1
f 63//1 57//1 64//1
f 64//1 57//1 65//1
f 64//1 65//1 66//1
f 66//1 65//1 67//1
f 67//1 65//1 68//1
f 68//1 65//1 69//1
f 69//1 65//1 70//1
f 70//1 65//1 35//1
f 35//1 65//1 30//1
f 30//1 65//1 71//1
f 71//1 65//1 72//1
f 71//1 72//1 73//1
f 73//1 72//1 74//1
f 73//1 74//1 75//1
f 75//1 74//1 76//1
f 75//1 76//1 77//1
f 77//1 76//1 78//1
f 77//1 78//1 79//1
f 77//1 79//1 80//1
f 80//1 79//1 81//1
f 81//1 79//1 82//1
f 81//1 82//1 83//1
f 83//1 82//1 84//1
f 83//1 84//1 85//1
f 83//1 85//1 86//1
f 86//1 85//1 87//1
f 87//1 85//1 88//1
f 87//1 88//1 89//1
f 87//1 89//1 90//1
f 90//1 89//1 91//1
f 90//1 91//1 92//1
f 92//1 91//1 93//1
f 93//1 91//1 94//1
f 93//1 94//1 95//1
f 93//1 95//1 96//1
f 96//1 95//1 97//1
f 96//1 97//1 98//1
f 98//1 97//1 99//1
f 99//1 97//1 100//1
f 99//1 100//1 101//1
f 99//1 101//1 102//1
f 102//1 101//1 103//1
f 103//1 101//1 104//1
f 103//1 104//1 105//1
f 103//1 105//1 106//1
f 106//1 105//1 107//1
f 106//1 107//1 108//1
f 108//1 107//1 109//1
f 109//1 107//1 110//1
f 109//1 110//1 111//1
f 109//1 111//1 112//1
f 112//1 111//1 113//1
f 113//1 111//1 114//1
f 113//1 114//1 115//1
f 113//1 115//1 116//1
f 116//1 115//1 117//1
f 117//1 115//1 118//1
f 117//1 118//1 119//1
f 117//1 119//1 120//1
f 120//1 119//1 121//1
f 120//1 121//1 122//1
f 122//1 121//1 123//1
f 123//1 121//1 124//1
f 123//1 124//1 125//1
f 123//1 125//1 126//1
f 126//1 125//1 127//1
f 126//1 127//1 128//1
f 128//1 127//1 129//1
f 128//1 129//1 130//1
f 130//1 129//1 131//1
f 131//1 129//1 132//1
f 131//1 132//1 133//1
f 131//1 133//1 134//1
f 134//1 133//1 135//1
f 134//1 135//1 136//1
f 136//1 135//1 137//1
f 137//1 135//1 138//1
f 137//1 138//1 139//1
f 137//1 139//1 140//1
f 140//1 139//1 141//1
f 140//1 141//1 142//1
f 142//1 141//1 143//1
f 143//1 141//1 144//1
f 143//1 144//1 145//1
f 143//1 145//1 146//1
f 146//1 145//1 147//1
f 147//1 145//1 148//1
f 147//1 148//1 149//1
f 149//1 148//1 150//1
f 149//1 150//1 151//1
f 151//1 150//1 152//1
f 151//1 152//1 153//1
f 153//1 152//1 154//1
f 153//1 154//1 155//1
f 155//1 154//1 156//1
f 155//1 156//1 157//1
f 157//1 156//1 158//1
f 157//1 158//1 159//1
f 159//1 158//1 160//1
f 160//1 158//1 161//1
f 160//1 161//1 162//1
f 160//1 162//1 163//1
f 163//1 162//1 164//1
f 164//1 162//1 165//1
f 164//1 165//1 166//1
f 164//1 166//1 167//1
f 167//1 166//1 168//1
f 167//1 168//1 169//1
f 169//1 168//1 170//1
f 170//1 168//1 171//1
f 170//1 171//1 172//1
f 170//1 172//1 173//1
f 173//1 172//1 174//1
f 174//1 172//1 175//1
f 174//1 175//1 176//1
f 176//1 175//1 177//1
f 176//1 177//1 178//1
f 178//1 177//1 179//1
f 178//1 179//1 180//1
f 178//1 180//1 181//1
f 181//1 180//1 182//1
f 182//1 180//1 183//1
f 182//1 183//1 184//1
f 182//1 184//1 185//1
f 185//1 184//1 186//1
f 186//1 184//1 187//1
f 186//1 187//1 188//1
f 188//1 187//1 189//1
f 188//1 189//1 190//1
f 188//1 190//1 191//1
f 191//1 190//1 192//1
f 191//1 192//1 193//1
f 193//1 192//1 194//1
f 194//1 192//1 195//1
f 194//1 195//1 196//1
f 196//1 195//1 197//1
f 196//1 197//1 198//1
f 196//1 198//1 199//1
f 199//1 198//1 200//1
f 200//1 198//1 201//1
f 200//1 201//1 202//1
f 200//1 202//1 203//1
f 203//1 202//1 204//1
f 203//1 204//1 205//1
f 205//1 204//1 206//1
f 206//1 204//1 207//1
f 206//1 207//1 208//1
f 206//1 208//1 209//1
f 209//1 208//1 210//1
f 210//1 208//1 211//1
f 210//1 211//1 212//1
f 210//1 212//1 213//1
f 213//1 212//1 214//1
f 213//1 214//1 215//1
f 215//1 214//1 216//1
f 216//1 214//1 217//1
f 216//1 217//1 218//1
f 216//1 218//1 219//1
f 219//1 218//1 220//1
f 219//1 220//1 221//1
f 221//1 220//1 222//1
f 221//1 222//1 223//1
f 223//1 222//1 224//1
f 223//1 224//1 225//1
f 225//1 224//1 226//1
f 226//1 224//1 227//1
f 226//1 227//1 228//1
f 226//1 228//1 229//1
f 229//1 228//1 230//1
f 229//1 230//1 231//1
f 229//1 231//1 232//1
f 231//1 230//1 233//1
f 233//1 230//1 234//1
f 234//1 230//1 235//1
f 235//1 230//1 236//1
f 236//1 230//1 237//1
f 237//1 230//1 238//1
f 238//1 230//1 239//1
f 238//1 239//1 240//1
f 240//1 239//1 241//1
f 241//1 239//1 242//1
f 242//1 239//1 243//1
f 243//1 239//1 244//1
f 244//1 239//1 245//1
f 245//1 239//1 246//1
f 246//1 239//1 247//1
f 246//1 247//1 248//1
f 246//1 248//1 249//1
f 246//1 249//1 250//1
f 246//1 250//1 251//1
f 246//1 251//1 252//1
f 252//1 251//1 253//1
f 253//1 251//1 254//1
f 253//1 254//1 255//1
f 255//1 254//1 256//1
f 256//1 254//1 257//1
f 257//1 254//1 258//1
f 258//1 254//1 259//1
f 259//1 254//1 260//1
f 259//1 260//1 261//1
f 261//1 260//1 262//1
f 262//1 260//1 263//1
f 263//1 260//1 264//1
f 232//1 265//1 229//1
f 265//1 232//1 266//1
f 265//1 266//1 267//1
f 265//1 267//1 268//1
f 265//1 268//1 269//1
f 265//1 269//1 270//1
f 265//1 270//1 271//1
f 265//1 271//1 272//1
f 272//1 271//1 273//1
f 272//1 273//1 274//1
f 272//1 274//1 275//1
f 272//1 275//1 276//1
f 272//1 276//1 277//1
f 272//1 277//1 278//1
f 272//1 278//1 279//1
f 272//1 279//1 280//1
f 280//1 279//1 281//1
f 281//1 279//1 282//1
f 282//1 279//1 283//1
f 283//1 279//1 284//1
f 284//1 279//1 285//1
f 285//1 279//1 286//1
f 285//1 286//1 287//1
f 285//1 287//1 288//1
f 285//1 288//1 289//1
f 285//1 289//1 290//1
f 285//1 290//1 291//1
f 291//1 290//1 292//1
f 291//1 292//1 293//1
f 291//1 293//1 294//1
f 291//1 294//1 295//1
f 291//1 295//1 296//1
f 291//1 296//1 297//1
usemtl material_1_0
f 298/1/2 299/2/2 300/3/2
f 299/2/2 301/4/2 300/3/2
f 301/4/2 302/5/2 300/3/2
f 302/5/2 303/6/2 300/3/2
f 303/6/2 304/7/2 300/3/2
f 304/7/2 305/8/2 300/3/2
f 300/3/2 305/8/2 306/9/2
f 305/8/2 307/10/2 306/9/2
f 307/10/2 308/11/2 306/9/2
f 308/11/2 309/12/2 306/9/2
f 309/12/2 310/13/2 306/9/2
f 310/13/2 311/14/2 306/9/2
f 306/9/2 311/14/2 312/15/2
f 312/15/2 311/14/2 313/16/2
f 313/16/2 311/14/2 314/17/2
f 314/17/2 311/14/2 315/18/2
f 315/18/2 311/14/2 316/19/2
f 316/19/2 311/14/2 317/20/2
f 311/14/2 318/21/2 317/20/2
f 318/21/2 319/22/2 317/20/2
f 319/22/2 320/23/2 317/20/2
f 320/23/2 321/24/2 317/20/2
f 321/24/2 322/25/2 317/20/2
f 322/25/2 323/26/2 317/20/2
f 323/26/2 324/27/2 317/20/2
f 317/20/2 324/27/2 325/28/2
f 324/27/2 326/29/2 325/28/2
f 326/29/2 327/30/2 325/28/2
f 327/30/2 328/31/2 325/28/2
f 328/31/2 329/32/2 325/28/2
f 329/32/2 330/33/2 325/28/2
f 330/33/2 331/34/2 325/28/2
f 332/35/2 325/28/2 331/34/2
f 333/36/2 334/37/2 335/38/2
f 335/38/2 334/37/2 336/39/2
f 336/39/2 334/37/2 337/40/2
f 337/40/2 334/37/2 338/41/2
f 334/37/2 339/42/2 338/41/2
f 338/41/2 339/42/2 340/43/2
f 340/43/2 339/42/2 341/44/2
f 341/44/2 339/42/2 342/45/2
f 342/45/2 339/42/2 343/46/2
f 343/46/2 339/42/2 344/47/2
f 339/42/2 345/48/2 344/47/2
f 344/47/2 345/48/2 346/49/2
f 346/49/2 345/48/2 347/50/2
f 345/48/2 348/51/2 347/50/2
f 348/51/2 349/52/2 347/50/2
f 349/52/2 350/53/2 347/50/2
f 350/53/2 351/54/2 347/50/2
f 351/54/2 352/55/2 347/50/2
f 347/50/2 352/55/2 353/56/2
f 353/56/2 352/55/2 354/57/2
f 354/57/2 352/55/2 355/58/2
f 355/58/2 352/55/2 356/59/2
f 356/59/2 352/55/2 357/60/2
f 357/60/2 352/55/2 358/61/2
f 358/61/2 352/55/2 359/62/2
f 352/55/2 360/63/2 359/62/2
f 359/62/2 360/63/2 361/64/2
f 361/64/2 360/63/2 362/65/2
f 362/65/2 360/63/2 363/66/2
f 363/66/2 360/63/2 364/67/2
f 364/67/2 360/63/2 365/68/2
f 365/68/2 360/63/2 366/69/2
f 331/34/2 366/69/2 332/35/2
f 366/69/2 360/63/2 332/35/2
f 360/63/2 367/70/2 332/35/2
f 332/35/2 367/70/2 368/71/2
f 367/70/2 369/72/2 368/71/2
f 369/72/2 370/73/2 368/71/2
f 368/71/2 370/73/2 371/74/2
f 371/74/2 370/73/2 372/75/2
f 370/73/2 373/76/2 372/75/2
f 372/75/2 373/76/2 374/77/2
f 373/76/2 375/78/2 374/77/2
f 374/77/2 375/78/2 376/79/2
f 375/78/2 377/80/2 376/79/2
f 376/79/2 377/80/2 378/81/2
f 377/80/2 379/82/2 378/81/2
f 379/82/2 380/83/2 378/81/2
f 378/81/2 380/83/2 381/84/2
f 381/84/2 380/83/2 382/85/2
f 380/83/2 383/86/2 382/85/2
f 382/85/2 383/86/2 384/87/2
f 383/86/2 385/88/2 384/87/2
f 385/88/2 386/89/2 384/87/2
f 384/87/2 386/89/2 387/90/2
f 387/90/2 386/89/2 388/91/2
f 386/89/2 389/92/2 388/91/2
f 389/92/2 390/93/2 388/91/2
f 388/91/2 390/93/2 391/94/2
f 391/94/2 390/93/2 392/95/2
f 390/93/2 393/96/2 392/95/2
f 392/95/2 393/96/2 394/97/2
f 393/96/2 395/98/2 394/97/2
f 395/98/2 396/99/2 394/97/2
f 394/97/2 396/99/2 397/100/2
f 397/100/2 396/99/2 398/101/2
f 396/99/2 399/102/2 398/101/2
f 399/102/2 400/103/2 398/101/2
f 398/101/2 400/103/2 401/104/2
f 400/103/2 402/105/2 401/104/2
f 401/104/2 402/105/2 403/106/2
f 403/106/2 402/105/2 404/107/2
f 402/105/2 405/108/2 404/107/2
f 404/107/2 405/108/2 406/109/2
f 405/108/2 407/110/2 406/109/2
f 407/110/2 408/111/2 406/109/2
f 406/109/2 408/111/2 409/112/2
f 408/111/2 410/113/2 409/112/2
f 409/112/2 410/113/2 411/114/2
f 411/114/2 410/113/2 412/115/2
f 410/113/2 413/116/2 412/115/2
f 413/116/2 414/117/2 412/115/2
f 412/115/2 414/117/2 415/118/2
f 415/118/2 414/117/2 416/119/2
f 414/117/2 417/120/2 416/119/2
f 417/120/2 418/121/2 416/119/2
f 416/119/2 418/121/2 419/122/2
f 418/121/2 420/123/2 419/122/2
f 419/122/2 420/123/2 421/124/2
f 420/123/2 422/125/2 421/124/2
f 421/124/2 422/125/2 423/126/2
f 423/126/2 422/125/2 424/127/2
f 422/125/2 425/128/2 424/127/2
f 425/128/2 426/129/2 424/127/2
f 424/127/2 426/129/2 427/130/2
f 427/130/2 426/129/2 428/131/2
f 426/129/2 429/132/2 428/131/2
f 428/131/2 429/132/2 430/133/2
f 429/132/2 431/134/2 430/133/2
f 431/134/2 432/135/2 430/133/2
f 430/133/2 432/135/2 433/136/2
f 433/136/2 432/135/2 434/137/2
f 432/135/2 435/138/2 434/137/2
f 435/138/2 436/139/2 434/137/2
f 434/137/2 436/139/2 437/140/2
f 437/140/2 436/139/2 438/141/2
f 436/139/2 439/142/2 438/141/2
f 438/141/2 439/142/2 440/143/2
f 439/142/2 441/144/2 440/143/2
f 440/143/2 441/144/2 442/145/2
f 441/144/2 443/146/2 442/145/2
f 442/145/2 443/146/2 444/147/2
f 443/146/2 445/148/2 444/147/2
f 444/147/2 445/148/2 446/149/2
f 445/148/2 447/150/2 446/149/2
f 446/149/2 447/150/2 448/151/2
f 447/150/2 449/152/2 448/151/2
f 448/151/2 449/152/2 450/153/2
f 450/153/2 449/152/2 451/154/2
f 449/152/2 452/155/2 451/154/2
f 452/155/2 453/156/2 451/154/2
f 451/154/2 453/156/2 454/157/2
f 454/157/2 453/156/2 455/158/2
f 453/156/2 456/159/2 455/158/2
f 455/158/2 456/159/2 457/160/2
f 456/159/2 458/161/2 457/160/2
f 458/161/2 459/162/2 457/160/2
f 457/160/2 459/162/2 460/163/2
f 460/163/2 459/162/2 461/164/2
f 459/162/2 462/165/2 461/164/2
f 461/164/2 462/165/2 463/166/2
f 462/165/2 464/167/2 463/166/2
f 464/167/2 465/168/2 463/166/2
f 463/166/2 465/168/2 466/169/2
f 466/169/2 465/168/2 467/170/2
f 465/168/2 468/171/2 467/170/2
f 467/170/2 468/171/2 469/172/2
f 468/171/2 470/173/2 469/172/2
f 469/172/2 470/173/2 471/174/2
f 470/173/2 472/175/2 471/174/2
f 472/175/2 473/176/2 471/174/2
f 471/174/2 473/176/2 474/177/2
f 474/177/2 473/176/2 475/178/2
f 473/176/2 476/179/2 475/178/2
f 475/178/2 476/179/2 477/180/2
f 476/179/2 478/181/2 477/180/2
f 478/181/2 479/182/2 477/180/2
f 477/180/2 479/182/2 480/183/2
f 480/183/2 479/182/2 481/184/2
f 479/182/2 482/185/2 481/184/2
f 482/185/2 483/186/2 481/184/2
f 481/184/2 483/186/2 484/187/2
f 484/187/2 483/186/2 485/188/2
f 483/186/2 486/189/2 485/188/2
f 486/189/2 487/190/2 485/188/2
f 485/188/2 487/190/2 488/191/2
f 488/191/2 487/190/2 489/192/2
f 487/190/2 490/193/2 489/192/2
f 489/192/2 490/193/2 491/194/2
f 490/193/2 492/195/2 491/194/2
f 492/195/2 493/196/2 491/194/2
f 491/194/2 493/196/2 494/197/2
f 494/197/2 493/196/2 495/198/2
f 493/196/2 496/199/2 495/198/2
f 496/199/2 497/200/2 495/198/2
f 495/198/2 497/200/2 498/201/2
f 498/201/2 497/200/2 499/202/2
f 497/200/2 500/203/2 499/202/2
f 499/202/2 500/203/2 501/204/2
f 500/203/2 502/205/2 501/204/2
f 502/205/2 503/206/2 501/204/2
f 501/204/2 503/206/2 504/207/2
f 504/207/2 503/206/2 505/208/2
f 503/206/2 506/209/2 505/208/2
f 505/208/2 506/209/2 507/210/2
f 506/209/2 508/211/2 507/210/2
f 508/211/2 509/212/2 507/210/2
f 507/210/2 509/212/2 510/213/2
f 510/213/2 509/212/2 511/214/2
f 509/212/2 512/215/2 511/214/2
f 512/215/2 513/216/2 511/214/2
f 511/214/2 513/216/2 514/217/2
f 513/216/2 515/218/2 514/217/2
f 514/217/2 515/218/2 516/219/2
f 516/219/2 515/218/2 517/220/2
f 515/218/2 518/221/2 517/220/2
f 518/221/2 519/222/2 517/220/2
f 517/220/2 519/222/2 520/223/2
f 519/222/2 521/224/2 520/223/2
f 520/223/2 521/224/2 522/225/2
f 521/224/2 523/226/2 522/225/2
f 522/225/2 523/226/2 524/227/2
f 523/226/2 525/228/2 524/227/2
f 524/227/2 525/228/2 526/229/2
f 526/229/2 525/228/2 527/230/2
f 527/230/2 525/228/2 528/231/2
f 528/231/2 525/228/2 529/232/2
f 529/232/2 525/228/2 530/233/2
f 530/233/2 525/228/2 531/234/2
f 531/234/2 525/228/2 532/235/2
f 532/235/2 525/228/2 533/236/2
f 525/228/2 534/237/2 533/236/2
f 533/236/2 534/237/2 535/238/2
f 535/238/2 534/237/2 536/239/2
f 536/239/2 534/237/2 537/240/2
f 537/240/2 534/237/2 538/241/2
f 538/241/2 534/237/2 539/242/2
f 539/242/2 534/237/2 540/243/2
f 540/243/2 534/237/2 541/244/2
f 534/237/2 542/245/2 541/244/2
f 542/245/2 543/246/2 541/244/2
f 543/246/2 544/247/2 541/244/2
f 544/247/2 545/248/2 541/244/2
f 545/248/2 546/249/2 541/244/2
f 541/244/2 546/249/2 547/250/2
f 547/250/2 546/249/2 548/251/2
f 546/249/2 549/252/2 548/251/2
f 548/251/2 549/252/2 550/253/2
f 550/253/2 549/252/2 551/254/2
f 551/254/2 549/252/2 552/255/2
f 552/255/2 549/252/2 553/256/2
f 553/256/2 549/252/2 554/257/2
f 549/252/2 555/258/2 554/257/2
f 554/257/2 555/258/2 556/259/2
f 556/259/2 555/258/2 557/260/2
f 557/260/2 555/258/2 558/261/2
f 558/261/2 555/258/2 559/262/2
f 555/258/2 560/263/2 559/262/2
f 561/264/2 559/262/2 560/263/2
f 527/230/2 562/265/2 526/229/2
f 562/265/2 563/266/2 526/229/2
f 563/266/2 564/267/2 526/229/2
f 564/267/2 565/268/2 526/229/2
f 565/268/2 566/269/2 526/229/2
f 526/229/2 566/269/2 567/270/2
f 566/269/2 568/271/2 567/270/2
f 568/271/2 569/272/2 567/270/2
f 569/272/2 570/273/2 567/270/2
f 570/273/2 571/274/2 567/270/2
f 571/274/2 572/275/2 567/270/2
f 572/275/2 573/276/2 567/270/2
f 573/276/2 574/277/2 567/270/2
f 567/270/2 574/277/2 575/278/2
f 575/278/2 574/277/2 576/279/2
f 576/279/2 574/277/2 577/280/2
f 577/280/2 574/277/2 578/281/2
f 578/281/2 574/277/2 579/282/2
f 579/282/2 574/277/2 580/283/2
f 574/277/2 581/284/2 580/283/2
f 581/284/2 582/285/2 580/283/2
f 582/285/2 583/286/2 580/283/2
f 583/286/2 584/287/2 580/283/2
f 584/287/2 585/288/2 580/283/2
f 580/283/2 585/288/2 586/289/2
f 585/288/2 587/290/2 586/289/2
f 587/290/2 588/291/2 586/289/2
f 588/291/2 589/292/2 586/289/2
f 589/292/2 590/293/2 586/289/2
f 590/293/2 591/294/2 586/289/2
f 591/294/2 592/295/2 586/289/2
f 586/289/2 592/295/2 593/296/2
f 594/297/2 593/296/2 592/295/2
usemtl material_2_0
