# SSTK version 0.8.0
# 128
mtllib original-128.mtl
o #ID113
v -0.101947 0.464077 0.454438
v -0.101086 0.471270 0.454438
v -0.101088 0.472716 0.454438
v -0.100812 0.462760 0.454438
v -0.100893 0.469862 0.454438
v -0.100514 0.468514 0.454438
v -0.100421 0.462369 0.454438
v -0.099954 0.467251 0.454438
v -0.099291 0.461431 0.454438
v -0.099223 0.466093 0.454438
v -0.097739 0.460451 0.454438
v -0.098334 0.465061 0.454438
v -0.098142 0.464870 0.454438
v -0.097301 0.464172 0.454438
v -0.096029 0.459693 0.454438
v -0.096143 0.463441 0.454438
v -0.094880 0.462881 0.454438
v -0.094223 0.459184 0.454438
v -0.093532 0.462501 0.454438
v -0.092357 0.458929 0.454438
v -0.092124 0.462308 0.454438
v -0.090465 0.458926 0.454438
v -0.090679 0.462306 0.454438
v -0.089221 0.462494 0.454438
v -0.088578 0.459169 0.454438
v -0.087777 0.462868 0.454438
v -0.086728 0.459649 0.454438
v -0.086369 0.463424 0.454438
v -0.084941 0.460354 0.454438
v -0.085024 0.464150 0.454438
v -0.083763 0.465036 0.454438
v -0.083244 0.461271 0.454438
v -0.082608 0.466065 0.454438
v -0.081661 0.462382 0.454438
v -0.063489 0.485184 0.454438
v -0.080287 0.463606 0.454438
v -0.061030 0.482863 0.454438
v -0.062460 0.486338 0.454438
v -0.061575 0.487599 0.454438
v -0.060848 0.488945 0.454438
v -0.059806 0.484236 0.454438
v -0.060293 0.490352 0.454438
v -0.059918 0.491797 0.454438
v -0.059730 0.493254 0.454438
v -0.058695 0.485819 0.454438
v -0.058855 0.501866 0.454438
v -0.057875 0.500314 0.454438
v -0.057779 0.487516 0.454438
v -0.057117 0.498604 0.454438
v -0.057073 0.489303 0.454438
v -0.056609 0.496799 0.454438
v -0.056593 0.491154 0.454438
v -0.056353 0.494933 0.454438
v -0.056350 0.493040 0.454438
v -0.104465 0.471037 0.454438
v -0.104226 0.474816 0.454438
v -0.104469 0.472930 0.454438
v -0.104210 0.469171 0.454438
v -0.103746 0.476667 0.454438
v -0.103701 0.467366 0.454438
v -0.103040 0.478453 0.454438
v -0.102943 0.465656 0.454438
v -0.102124 0.480151 0.454438
v -0.101012 0.481734 0.454438
v -0.100901 0.474173 0.454438
v -0.099789 0.483107 0.454438
v -0.100526 0.475618 0.454438
v -0.099970 0.477025 0.454438
v -0.099244 0.478371 0.454438
v -0.098359 0.479631 0.454438
v -0.080532 0.502364 0.454438
v -0.097330 0.480786 0.454438
v -0.078211 0.499905 0.454438
v -0.079158 0.503588 0.454438
v -0.077575 0.504699 0.454438
v -0.077056 0.500934 0.454438
v -0.075878 0.505616 0.454438
v -0.075795 0.501819 0.454438
v -0.074091 0.506321 0.454438
v -0.075708 0.501866 0.454438
v -0.074449 0.502546 0.454438
v -0.073042 0.503101 0.454438
v -0.072240 0.506801 0.454438
v -0.071598 0.503476 0.454438
v -0.070354 0.507044 0.454438
v -0.070140 0.503664 0.454438
v -0.068462 0.507041 0.454438
v -0.068695 0.503662 0.454438
v -0.067286 0.503469 0.454438
v -0.066596 0.506786 0.454438
v -0.065939 0.503089 0.454438
v -0.064790 0.506277 0.454438
v -0.064675 0.502529 0.454438
v -0.063080 0.505519 0.454438
v -0.063625 0.501866 0.454438
v -0.063518 0.501798 0.454438
v -0.062485 0.500909 0.454438
v -0.061502 0.504523 0.454438
v -0.062294 0.500718 0.454438
v -0.061596 0.499877 0.454438
v -0.060865 0.498719 0.454438
v -0.060184 0.503388 0.454438
v -0.060305 0.497455 0.454438
v -0.059926 0.496108 0.454438
v -0.059793 0.502997 0.454438
v -0.059733 0.494700 0.454438
v -0.059730 0.493254 0.454438
v -0.059733 0.494700 0.454438
v -0.058855 0.501866 0.454438
v -0.059793 0.502997 0.454438
v -0.059926 0.496108 0.454438
v -0.060184 0.503388 0.454438
v -0.060305 0.497455 0.454438
v -0.060865 0.498719 0.454438
v -0.061502 0.504523 0.454438
v -0.061596 0.499877 0.454438
v -0.062294 0.500718 0.454438
v -0.062485 0.500909 0.454438
v -0.063080 0.505519 0.454438
v -0.063518 0.501798 0.454438
v -0.063625 0.501866 0.454438
v -0.064675 0.502529 0.454438
v -0.064790 0.506277 0.454438
v -0.065939 0.503089 0.454438
v -0.066596 0.506786 0.454438
v -0.067286 0.503469 0.454438
v -0.068462 0.507041 0.454438
v -0.068695 0.503662 0.454438
v -0.070140 0.503664 0.454438
v -0.070354 0.507044 0.454438
v -0.071598 0.503476 0.454438
v -0.072240 0.506801 0.454438
v -0.073042 0.503101 0.454438
v -0.074091 0.506321 0.454438
v -0.074449 0.502546 0.454438
v -0.075708 0.501866 0.454438
v -0.075795 0.501819 0.454438
v -0.075878 0.505616 0.454438
v -0.077056 0.500934 0.454438
v -0.077575 0.504699 0.454438
v -0.078211 0.499905 0.454438
v -0.079158 0.503588 0.454438
v -0.080532 0.502364 0.454438
v -0.097330 0.480786 0.454438
v -0.098359 0.479631 0.454438
v -0.099789 0.483107 0.454438
v -0.099244 0.478371 0.454438
v -0.099970 0.477025 0.454438
v -0.100526 0.475618 0.454438
v -0.100901 0.474173 0.454438
v -0.101012 0.481734 0.454438
v -0.101088 0.472716 0.454438
v -0.101947 0.464077 0.454438
v -0.102124 0.480151 0.454438
v -0.102943 0.465656 0.454438
v -0.103040 0.478453 0.454438
v -0.103701 0.467366 0.454438
v -0.103746 0.476667 0.454438
v -0.104210 0.469171 0.454438
v -0.104226 0.474816 0.454438
v -0.104465 0.471037 0.454438
v -0.104469 0.472930 0.454438
v -0.056350 0.493040 0.454438
v -0.056593 0.491154 0.454438
v -0.056353 0.494933 0.454438
v -0.056609 0.496799 0.454438
v -0.057073 0.489303 0.454438
v -0.057117 0.498604 0.454438
v -0.057779 0.487516 0.454438
v -0.057875 0.500314 0.454438
v -0.058695 0.485819 0.454438
v -0.059806 0.484236 0.454438
v -0.059918 0.491797 0.454438
v -0.060293 0.490352 0.454438
v -0.060848 0.488945 0.454438
v -0.061030 0.482863 0.454438
v -0.061575 0.487599 0.454438
v -0.062460 0.486338 0.454438
v -0.063489 0.485184 0.454438
v -0.080287 0.463606 0.454438
v -0.081661 0.462382 0.454438
v -0.082608 0.466065 0.454438
v -0.083244 0.461271 0.454438
v -0.083763 0.465036 0.454438
v -0.084941 0.460354 0.454438
v -0.085024 0.464150 0.454438
v -0.086369 0.463424 0.454438
v -0.086728 0.459649 0.454438
v -0.087777 0.462868 0.454438
v -0.088578 0.459169 0.454438
v -0.089221 0.462494 0.454438
v -0.090465 0.458926 0.454438
v -0.090679 0.462306 0.454438
v -0.092124 0.462308 0.454438
v -0.092357 0.458929 0.454438
v -0.093532 0.462501 0.454438
v -0.094223 0.459184 0.454438
v -0.094880 0.462881 0.454438
v -0.096029 0.459693 0.454438
v -0.096143 0.463441 0.454438
v -0.097301 0.464172 0.454438
v -0.097739 0.460451 0.454438
v -0.098142 0.464870 0.454438
v -0.098334 0.465061 0.454438
v -0.099223 0.466093 0.454438
v -0.099291 0.461431 0.454438
v -0.099954 0.467251 0.454438
v -0.100421 0.462369 0.454438
v -0.100514 0.468514 0.454438
v -0.100812 0.462760 0.454438
v -0.100893 0.469862 0.454438
v -0.101086 0.471270 0.454438
v -0.099789 0.483107 0.454438
v -0.101012 0.481734 0.454438
v -0.102124 0.480151 0.454438
v -0.103040 0.478453 0.454438
v -0.103746 0.476667 0.454438
v -0.104226 0.474816 0.454438
v -0.104469 0.472930 0.454438
v -0.104465 0.471037 0.454438
v -0.104210 0.469171 0.454438
v -0.103701 0.467366 0.454438
v -0.102943 0.465656 0.454438
v -0.101947 0.464077 0.454438
v -0.100812 0.462760 0.454438
v -0.100421 0.462369 0.454438
v -0.099291 0.461431 0.454438
v -0.097739 0.460451 0.454438
v -0.096029 0.459693 0.454438
v -0.094223 0.459184 0.454438
v -0.092357 0.458929 0.454438
v -0.090465 0.458926 0.454438
v -0.088578 0.459169 0.454438
v -0.086728 0.459649 0.454438
v -0.084941 0.460354 0.454438
v -0.083244 0.461271 0.454438
v -0.081661 0.462382 0.454438
v -0.080287 0.463606 0.454438
v -0.061030 0.482863 0.454438
v -0.059806 0.484236 0.454438
v -0.058695 0.485819 0.454438
v -0.057779 0.487516 0.454438
v -0.057073 0.489303 0.454438
v -0.056593 0.491154 0.454438
v -0.056350 0.493040 0.454438
v -0.056353 0.494933 0.454438
v -0.056609 0.496799 0.454438
v -0.057117 0.498604 0.454438
v -0.057875 0.500314 0.454438
v -0.058855 0.501866 0.454438
v -0.059793 0.502997 0.454438
v -0.060184 0.503388 0.454438
v -0.061502 0.504523 0.454438
v -0.063080 0.505519 0.454438
v -0.064790 0.506277 0.454438
v -0.066596 0.506786 0.454438
v -0.068462 0.507041 0.454438
v -0.070354 0.507044 0.454438
v -0.072240 0.506801 0.454438
v -0.074091 0.506321 0.454438
v -0.075878 0.505616 0.454438
v -0.077575 0.504699 0.454438
v -0.079158 0.503588 0.454438
v -0.080532 0.502364 0.454438
v -0.075708 0.501866 0.454438
v -0.074449 0.502546 0.454438
v -0.073042 0.503101 0.454438
v -0.071598 0.503476 0.454438
v -0.070140 0.503664 0.454438
v -0.068695 0.503662 0.454438
v -0.067286 0.503469 0.454438
v -0.065939 0.503089 0.454438
v -0.064675 0.502529 0.454438
v -0.063625 0.501866 0.454438
v -0.063518 0.501798 0.454438
v -0.062485 0.500909 0.454438
v -0.062294 0.500718 0.454438
v -0.061596 0.499877 0.454438
v -0.060865 0.498719 0.454438
v -0.060305 0.497455 0.454438
v -0.059926 0.496108 0.454438
v -0.059733 0.494700 0.454438
v -0.059730 0.493254 0.454438
v -0.059918 0.491797 0.454438
v -0.060293 0.490352 0.454438
v -0.060848 0.488945 0.454438
v -0.061575 0.487599 0.454438
v -0.062460 0.486338 0.454438
v -0.063489 0.485184 0.454438
v -0.082608 0.466065 0.454438
v -0.083763 0.465036 0.454438
v -0.085024 0.464150 0.454438
v -0.086369 0.463424 0.454438
v -0.087777 0.462868 0.454438
v -0.089221 0.462494 0.454438
v -0.090679 0.462306 0.454438
v -0.092124 0.462308 0.454438
v -0.093532 0.462501 0.454438
v -0.094880 0.462881 0.454438
v -0.096143 0.463441 0.454438
v -0.097301 0.464172 0.454438
v -0.098142 0.464870 0.454438
v -0.098334 0.465061 0.454438
v -0.099223 0.466093 0.454438
v -0.099954 0.467251 0.454438
v -0.100514 0.468514 0.454438
v -0.100893 0.469862 0.454438
v -0.101086 0.471270 0.454438
v -0.101088 0.472716 0.454438
v -0.100901 0.474173 0.454438
v -0.100526 0.475618 0.454438
v -0.099970 0.477025 0.454438
v -0.099244 0.478371 0.454438
v -0.098359 0.479631 0.454438
v -0.097330 0.480786 0.454438
v -0.078211 0.499905 0.454438
v -0.077056 0.500934 0.454438
v -0.075795 0.501819 0.454438
v -0.099789 0.483107 0.454438
v -0.101012 0.481734 0.452748
v -0.101012 0.481734 0.454438
v -0.099789 0.483107 0.452748
v -0.099789 0.483107 0.452748
v -0.099789 0.483107 0.454438
v -0.101012 0.481734 0.452748
v -0.101012 0.481734 0.454438
v -0.099789 0.483107 0.452748
v -0.101012 0.481734 0.452748
v -0.102124 0.480151 0.452748
v -0.102124 0.480151 0.454438
v -0.102124 0.480151 0.452748
v -0.102124 0.480151 0.454438
v -0.102124 0.480151 0.452748
v -0.103040 0.478453 0.452748
v -0.103040 0.478453 0.454438
v -0.103040 0.478453 0.452748
v -0.103040 0.478453 0.454438
v -0.103040 0.478453 0.452748
v -0.103746 0.476667 0.452748
v -0.103746 0.476667 0.454438
v -0.103746 0.476667 0.452748
v -0.103746 0.476667 0.454438
v -0.103746 0.476667 0.452748
v -0.104226 0.474816 0.452748
v -0.104226 0.474816 0.454438
v -0.104226 0.474816 0.452748
v -0.104226 0.474816 0.454438
v -0.104226 0.474816 0.452748
v -0.104469 0.472930 0.452748
v -0.104469 0.472930 0.454438
v -0.104469 0.472930 0.452748
v -0.104469 0.472930 0.454438
v -0.104469 0.472930 0.452748
v -0.104465 0.471037 0.452748
v -0.104465 0.471037 0.454438
v -0.104465 0.471037 0.452748
v -0.104465 0.471037 0.454438
v -0.104465 0.471037 0.452748
v -0.104210 0.469171 0.452748
v -0.104210 0.469171 0.454438
v -0.104210 0.469171 0.452748
v -0.104210 0.469171 0.454438
v -0.104210 0.469171 0.452748
v -0.103701 0.467366 0.452748
v -0.103701 0.467366 0.454438
v -0.103701 0.467366 0.452748
v -0.103701 0.467366 0.454438
v -0.103701 0.467366 0.452748
v -0.102943 0.465656 0.452748
v -0.102943 0.465656 0.454438
v -0.102943 0.465656 0.452748
v -0.102943 0.465656 0.454438
v -0.102943 0.465656 0.452748
v -0.101947 0.464077 0.452748
v -0.101947 0.464077 0.454438
v -0.101947 0.464077 0.452748
v -0.101947 0.464077 0.454438
v -0.101947 0.464077 0.452748
v -0.100812 0.462760 0.452748
v -0.100812 0.462760 0.454438
v -0.100812 0.462760 0.452748
v -0.100812 0.462760 0.454438
v -0.100812 0.462760 0.452748
v -0.099291 0.461431 0.454438
v -0.100421 0.462369 0.452748
v -0.099291 0.461431 0.452748
v -0.100421 0.462369 0.454438
v -0.100421 0.462369 0.454438
v -0.099291 0.461431 0.454438
v -0.100421 0.462369 0.452748
v -0.099291 0.461431 0.452748
v -0.100421 0.462369 0.452748
v -0.099291 0.461431 0.452748
v -0.097739 0.460451 0.454438
v -0.097739 0.460451 0.452748
v -0.097739 0.460451 0.454438
v -0.097739 0.460451 0.452748
v -0.097739 0.460451 0.452748
v -0.096029 0.459693 0.452748
v -0.096029 0.459693 0.454438
v -0.096029 0.459693 0.454438
v -0.096029 0.459693 0.452748
v -0.096029 0.459693 0.452748
v -0.094223 0.459184 0.452748
v -0.094223 0.459184 0.454438
v -0.094223 0.459184 0.454438
v -0.094223 0.459184 0.452748
v -0.094223 0.459184 0.452748
v -0.092357 0.458929 0.452748
v -0.092357 0.458929 0.454438
v -0.092357 0.458929 0.454438
v -0.092357 0.458929 0.452748
v -0.092357 0.458929 0.452748
v -0.090465 0.458926 0.454438
v -0.090465 0.458926 0.452748
v -0.090465 0.458926 0.454438
v -0.090465 0.458926 0.452748
v -0.090465 0.458926 0.452748
v -0.088578 0.459169 0.454438
v -0.088578 0.459169 0.452748
v -0.088578 0.459169 0.454438
v -0.088578 0.459169 0.452748
v -0.088578 0.459169 0.452748
v -0.086728 0.459649 0.452748
v -0.086728 0.459649 0.454438
v -0.086728 0.459649 0.454438
v -0.086728 0.459649 0.452748
v -0.086728 0.459649 0.452748
v -0.084941 0.460354 0.454438
v -0.084941 0.460354 0.452748
v -0.084941 0.460354 0.454438
v -0.084941 0.460354 0.452748
v -0.084941 0.460354 0.452748
v -0.083244 0.461271 0.454438
v -0.083244 0.461271 0.452748
v -0.083244 0.461271 0.454438
v -0.083244 0.461271 0.452748
v -0.083244 0.461271 0.452748
v -0.081661 0.462382 0.452748
v -0.081661 0.462382 0.454438
v -0.081661 0.462382 0.454438
v -0.081661 0.462382 0.452748
v -0.081661 0.462382 0.452748
v -0.080287 0.463606 0.452748
v -0.080287 0.463606 0.454438
v -0.080287 0.463606 0.454438
v -0.080287 0.463606 0.452748
v -0.080287 0.463606 0.452748
v -0.061030 0.482863 0.452748
v -0.080287 0.463606 0.454438
v -0.080287 0.463606 0.452748
v -0.061030 0.482863 0.454438
v -0.061030 0.482863 0.454438
v -0.061030 0.482863 0.452748
v -0.080287 0.463606 0.454438
v -0.080287 0.463606 0.452748
v -0.061030 0.482863 0.452748
v -0.061502 0.504523 0.454438
v -0.060184 0.503388 0.452748
v -0.061502 0.504523 0.452748
v -0.060184 0.503388 0.454438
v -0.060184 0.503388 0.454438
v -0.061502 0.504523 0.454438
v -0.060184 0.503388 0.452748
v -0.061502 0.504523 0.452748
v -0.060184 0.503388 0.452748
v -0.061502 0.504523 0.452748
v -0.063080 0.505519 0.452748
v -0.063080 0.505519 0.454438
v -0.063080 0.505519 0.454438
v -0.063080 0.505519 0.452748
v -0.063080 0.505519 0.452748
v -0.064790 0.506277 0.452748
v -0.064790 0.506277 0.454438
v -0.064790 0.506277 0.454438
v -0.064790 0.506277 0.452748
v -0.064790 0.506277 0.452748
v -0.066596 0.506786 0.454438
v -0.066596 0.506786 0.452748
v -0.066596 0.506786 0.454438
v -0.066596 0.506786 0.452748
v -0.066596 0.506786 0.452748
v -0.068462 0.507041 0.452748
v -0.068462 0.507041 0.454438
v -0.068462 0.507041 0.454438
v -0.068462 0.507041 0.452748
v -0.068462 0.507041 0.452748
v -0.070354 0.507044 0.452748
v -0.070354 0.507044 0.454438
v -0.070354 0.507044 0.454438
v -0.070354 0.507044 0.452748
v -0.070354 0.507044 0.452748
v -0.072240 0.506801 0.454438
v -0.072240 0.506801 0.452748
v -0.072240 0.506801 0.454438
v -0.072240 0.506801 0.452748
v -0.072240 0.506801 0.452748
v -0.074091 0.506321 0.454438
v -0.074091 0.506321 0.452748
v -0.074091 0.506321 0.454438
v -0.074091 0.506321 0.452748
v -0.074091 0.506321 0.452748
v -0.075878 0.505616 0.452748
v -0.075878 0.505616 0.454438
v -0.075878 0.505616 0.454438
v -0.075878 0.505616 0.452748
v -0.075878 0.505616 0.452748
v -0.077575 0.504699 0.454438
v -0.077575 0.504699 0.452748
v -0.077575 0.504699 0.454438
v -0.077575 0.504699 0.452748
v -0.077575 0.504699 0.452748
v -0.079158 0.503588 0.452748
v -0.079158 0.503588 0.454438
v -0.079158 0.503588 0.454438
v -0.079158 0.503588 0.452748
v -0.079158 0.503588 0.452748
v -0.080532 0.502364 0.454438
v -0.080532 0.502364 0.452748
v -0.080532 0.502364 0.454438
v -0.080532 0.502364 0.452748
v -0.080532 0.502364 0.452748
v -0.080532 0.502364 0.454438
v -0.099789 0.483107 0.452748
v -0.099789 0.483107 0.454438
v -0.080532 0.502364 0.452748
v -0.080532 0.502364 0.452748
v -0.080532 0.502364 0.454438
v -0.099789 0.483107 0.452748
v -0.099789 0.483107 0.454438
vn 0 0 1
vn -0.7466505145512854 0.6652165129642384 0
vn -0.7838543839868546 0.6209446873148919 0
vn -0.8506301801750898 0.5257644877464567 0
vn -0.9066439441994509 0.42189662056772026 0
vn -0.9508262407231851 0.3097248132652849 0
vn -0.9818168375914456 0.18983070726816897 0
vn -0.9980033051475772 0.06316172032578032 0
vn -0.9976309015954622 -0.06879378011001852 0
vn -0.9790012365999962 -0.20385430762110054 0
vn -0.9407616887677099 -0.33906849595166794 0
vn -0.8822530541846619 -0.4707754755526632 0
vn -0.8038387136913911 -0.5948473101317429 0
vn -0.7576742821784025 -0.6526328846491284 0
vn -0.5874374045811541 -0.8092696063111214 0
vn -0.6386018863419343 -0.7695372835415601 0
vn -0.4707754755526632 -0.8822530541846619 0
vn -0.33906849595166794 -0.9407616887677099 0
vn -0.20385430762110054 -0.9790012365999962 0
vn -0.06879378011001852 -0.9976309015954622 0
vn 0.06316172032578032 -0.9980033051475772 0
vn 0.18983070726816897 -0.9818168375914456 0
vn 0.3097248132652849 -0.9508262407231851 0
vn 0.42189662056772026 -0.9066439441994509 0
vn 0.5257644877464567 -0.8506301801750898 0
vn 0.6209446873148919 -0.7838543839868546 0
vn 0.6652165129642384 -0.7466505145512854 0
vn 0.7071067811865476 -0.7071067811865476 0
vn 0.5948473101317429 0.8038387136913911 0
vn 0.6526328846491284 0.7576742821784025 0
vn 0.4707754755526632 0.8822530541846619 0
vn 0.33906849595166794 0.9407616887677099 0
vn 0.20385430762110054 0.9790012365999962 0
vn 0.06879378011001852 0.9976309015954622 0
vn -0.06316172032578032 0.9980033051475772 0
vn -0.18983070726816897 0.9818168375914456 0
vn -0.3097248132652849 0.9508262407231851 0
vn -0.42189662056772026 0.9066439441994509 0
vn -0.5257644877464567 0.8506301801750898 0
vn -0.6209446873148919 0.7838543839868546 0
vn -0.6652165129642384 0.7466505145512854 0
vn -0.7071067811865476 0.7071067811865476 0
vn 0 0 -1
vn 0.7466505145512854 -0.6652165129642384 0
vn 0.7838543839868546 -0.6209446873148919 0
vn 0.8506301801750898 -0.5257644877464567 0
vn 0.9066439441994509 -0.42189662056772026 0
vn 0.9508262407231851 -0.3097248132652849 0
vn 0.9818168375914456 -0.18983070726816897 0
vn 0.9980033051475772 -0.06316172032578032 0
vn 0.9976309015954622 0.06879378011001852 0
vn 0.9790012365999962 0.20385430762110054 0
vn 0.9407616887677099 0.33906849595166794 0
vn 0.8822530541846619 0.4707754755526632 0
vn 0.8038387136913911 0.5948473101317429 0
vn 0.7576742821784025 0.6526328846491284 0
vn 0.6386018863419343 0.7695372835415601 0
vn 0.5874374045811541 0.8092696063111214 0
vn -0.6526328846491284 -0.7576742821784025 0
vn -0.5948473101317429 -0.8038387136913911 0
usemtl material_0_0
f 107//43 108//43 109//43
f 109//43 108//43 110//43
f 108//43 111//43 110//43
f 110//43 111//43 112//43
f 111//43 113//43 112//43
f 113//43 114//43 112//43
f 112//43 114//43 115//43
f 114//43 116//43 115//43
f 116//43 117//43 115//43
f 117//43 118//43 115//43
f 115//43 118//43 119//43
f 118//43 120//43 119//43
f 120//43 121//43 119//43
f 121//43 122//43 119//43
f 119//43 122//43 123//43
f 122//43 124//43 123//43
f 123//43 124//43 125//43
f 124//43 126//43 125//43
f 125//43 126//43 127//43
f 126//43 128//43 127//43
f 128//43 129//43 127//43
f 127//43 129//43 130//43
f 129//43 131//43 130//43
f 130//43 131//43 132//43
f 131//43 133//43 132//43
f 132//43 133//43 134//43
f 133//43 135//43 134//43
f 135//43 136//43 134//43
f 136//43 137//43 134//43
f 134//43 137//43 138//43
f 137//43 139//43 138//43
f 138//43 139//43 140//43
f 139//43 141//43 140//43
f 140//43 141//43 142//43
f 142//43 141//43 143//43
f 141//43 144//43 143//43
f 144//43 145//43 143//43
f 143//43 145//43 146//43
f 145//43 147//43 146//43
f 147//43 148//43 146//43
f 148//43 149//43 146//43
f 149//43 150//43 146//43
f 146//43 150//43 151//43
f 150//43 152//43 151//43
f 152//43 153//43 151//43
f 151//43 153//43 154//43
f 153//43 155//43 154//43
f 154//43 155//43 156//43
f 155//43 157//43 156//43
f 156//43 157//43 158//43
f 157//43 159//43 158//43
f 158//43 159//43 160//43
f 159//43 161//43 160//43
f 162//43 160//43 161//43
f 163//43 164//43 165//43
f 165//43 164//43 166//43
f 164//43 167//43 166//43
f 166//43 167//43 168//43
f 167//43 169//43 168//43
f 168//43 169//43 170//43
f 169//43 171//43 170//43
f 170//43 171//43 109//43
f 109//43 171//43 107//43
f 171//43 172//43 107//43
f 107//43 172//43 173//43
f 173//43 172//43 174//43
f 174//43 172//43 175//43
f 172//43 176//43 175//43
f 175//43 176//43 177//43
f 177//43 176//43 178//43
f 178//43 176//43 179//43
f 176//43 180//43 179//43
f 180//43 181//43 179//43
f 179//43 181//43 182//43
f 181//43 183//43 182//43
f 182//43 183//43 184//43
f 183//43 185//43 184//43
f 184//43 185//43 186//43
f 186//43 185//43 187//43
f 185//43 188//43 187//43
f 187//43 188//43 189//43
f 188//43 190//43 189//43
f 189//43 190//43 191//43
f 190//43 192//43 191//43
f 191//43 192//43 193//43
f 193//43 192//43 194//43
f 192//43 195//43 194//43
f 194//43 195//43 196//43
f 195//43 197//43 196//43
f 196//43 197//43 198//43
f 197//43 199//43 198//43
f 198//43 199//43 200//43
f 200//43 199//43 201//43
f 199//43 202//43 201//43
f 201//43 202//43 203//43
f 203//43 202//43 204//43
f 204//43 202//43 205//43
f 202//43 206//43 205//43
f 205//43 206//43 207//43
f 206//43 208//43 207//43
f 207//43 208//43 209//43
f 208//43 210//43 209//43
f 209//43 210//43 211//43
f 211//43 210//43 212//43
f 210//43 153//43 212//43
f 152//43 212//43 153//43
f 323//44 324//44 325//45
f 326//45 325//45 324//44
f 325//45 326//45 331//46
f 332//46 331//46 326//45
f 331//46 332//46 336//47
f 337//47 336//47 332//46
f 336//47 337//47 341//48
f 342//48 341//48 337//47
f 341//48 342//48 346//49
f 347//49 346//49 342//48
f 346//49 347//49 351//50
f 352//50 351//50 347//49
f 351//50 352//50 356//51
f 357//51 356//51 352//50
f 356//51 357//51 361//52
f 362//52 361//52 357//51
f 361//52 362//52 366//53
f 367//53 366//53 362//52
f 366//53 367//53 371//54
f 372//54 371//54 367//53
f 371//54 372//54 376//55
f 377//55 376//55 372//54
f 376//55 377//55 381//56
f 382//56 381//56 377//55
f 388//57 389//58 390//57
f 391//58 390//57 389//58
f 389//58 396//31 391//58
f 397//31 391//58 396//31
f 401//32 402//32 396//31
f 397//31 396//31 402//32
f 406//33 407//33 401//32
f 402//32 401//32 407//33
f 411//34 412//34 406//33
f 407//33 406//33 412//34
f 411//34 416//35 412//34
f 417//35 412//34 416//35
f 416//35 421//36 417//35
f 422//36 417//35 421//36
f 426//37 427//37 421//36
f 422//36 421//36 427//37
f 426//37 431//38 427//37
f 432//38 427//37 431//38
f 431//38 436//39 432//38
f 437//39 432//38 436//39
f 441//40 442//40 436//39
f 437//39 436//39 442//40
f 446//41 447//41 441//40
f 442//40 441//40 447//41
f 453//42 454//42 455//42
f 456//42 455//42 454//42
f 462//59 463//60 464//59
f 465//60 464//59 463//60
f 470//17 471//17 463//60
f 465//60 463//60 471//17
f 475//18 476//18 470//17
f 471//17 470//17 476//18
f 475//18 480//19 476//18
f 481//19 476//18 480//19
f 485//20 486//20 480//19
f 481//19 480//19 486//20
f 490//21 491//21 485//20
f 486//20 485//20 491//21
f 490//21 495//22 491//21
f 496//22 491//21 495//22
f 495//22 500//23 496//22
f 501//23 496//22 500//23
f 505//24 506//24 500//23
f 501//23 500//23 506//24
f 505//24 510//25 506//24
f 511//25 506//24 510//25
f 515//26 516//26 510//25
f 511//25 510//25 516//26
f 515//26 520//27 516//26
f 521//27 516//26 520//27
f 527//28 528//28 529//28
f 530//28 529//28 528//28
usemtl material_1_0
f 1//1 2//1 3//1
f 2//1 1//1 4//1
f 2//1 4//1 5//1
f 5//1 4//1 6//1
f 6//1 4//1 7//1
f 6//1 7//1 8//1
f 8//1 7//1 9//1
f 8//1 9//1 10//1
f 10//1 9//1 11//1
f 10//1 11//1 12//1
f 12//1 11//1 13//1
f 13//1 11//1 14//1
f 14//1 11//1 15//1
f 14//1 15//1 16//1
f 16//1 15//1 17//1
f 17//1 15//1 18//1
f 17//1 18//1 19//1
f 19//1 18//1 20//1
f 19//1 20//1 21//1
f 21//1 20//1 22//1
f 21//1 22//1 23//1
f 23//1 22//1 24//1
f 24//1 22//1 25//1
f 24//1 25//1 26//1
f 26//1 25//1 27//1
f 26//1 27//1 28//1
f 28//1 27//1 29//1
f 28//1 29//1 30//1
f 30//1 29//1 31//1
f 31//1 29//1 32//1
f 31//1 32//1 33//1
f 33//1 32//1 34//1
f 33//1 34//1 35//1
f 35//1 34//1 36//1
f 35//1 36//1 37//1
f 35//1 37//1 38//1
f 38//1 37//1 39//1
f 39//1 37//1 40//1
f 40//1 37//1 41//1
f 40//1 41//1 42//1
f 42//1 41//1 43//1
f 43//1 41//1 44//1
f 44//1 41//1 45//1
f 44//1 45//1 46//1
f 46//1 45//1 47//1
f 47//1 45//1 48//1
f 47//1 48//1 49//1
f 49//1 48//1 50//1
f 49//1 50//1 51//1
f 51//1 50//1 52//1
f 51//1 52//1 53//1
f 53//1 52//1 54//1
f 55//1 56//1 57//1
f 56//1 55//1 58//1
f 56//1 58//1 59//1
f 59//1 58//1 60//1
f 59//1 60//1 61//1
f 61//1 60//1 62//1
f 61//1 62//1 63//1
f 63//1 62//1 1//1
f 63//1 1//1 64//1
f 64//1 1//1 3//1
f 64//1 3//1 65//1
f 64//1 65//1 66//1
f 66//1 65//1 67//1
f 66//1 67//1 68//1
f 66//1 68//1 69//1
f 66//1 69//1 70//1
f 66//1 70//1 71//1
f 71//1 70//1 72//1
f 71//1 72//1 73//1
f 71//1 73//1 74//1
f 74//1 73//1 75//1
f 75//1 73//1 76//1
f 75//1 76//1 77//1
f 77//1 76//1 78//1
f 77//1 78//1 79//1
f 79//1 78//1 80//1
f 79//1 80//1 81//1
f 79//1 81//1 82//1
f 79//1 82//1 83//1
f 83//1 82//1 84//1
f 83//1 84//1 85//1
f 85//1 84//1 86//1
f 85//1 86//1 87//1
f 87//1 86//1 88//1
f 87//1 88//1 89//1
f 87//1 89//1 90//1
f 90//1 89//1 91//1
f 90//1 91//1 92//1
f 92//1 91//1 93//1
f 92//1 93//1 94//1
f 94//1 93//1 95//1
f 94//1 95//1 96//1
f 94//1 96//1 97//1
f 94//1 97//1 98//1
f 98//1 97//1 99//1
f 98//1 99//1 100//1
f 98//1 100//1 101//1
f 98//1 101//1 102//1
f 102//1 101//1 103//1
f 102//1 103//1 104//1
f 102//1 104//1 105//1
f 105//1 104//1 106//1
f 105//1 106//1 46//1
f 46//1 106//1 44//1
f 319//2 320//3 321//3
f 320//3 319//2 322//2
f 321//3 329//4 330//4
f 329//4 321//3 320//3
f 330//4 334//5 335//5
f 334//5 330//4 329//4
f 335//5 339//6 340//6
f 339//6 335//5 334//5
f 340//6 344//7 345//7
f 344//7 340//6 339//6
f 345//7 349//8 350//8
f 349//8 345//7 344//7
f 350//8 354//9 355//9
f 354//9 350//8 349//8
f 355//9 359//10 360//10
f 359//10 355//9 354//9
f 360//10 364//11 365//11
f 364//11 360//10 359//10
f 365//11 369//12 370//12
f 369//12 365//11 364//11
f 370//12 374//13 375//13
f 374//13 370//12 369//12
f 375//13 379//14 380//14
f 379//14 375//13 374//13
f 384//15 385//16 386//15
f 385//16 384//15 387//16
f 394//17 386//15 395//17
f 386//15 394//17 384//15
f 399//18 394//17 395//17
f 394//17 399//18 400//18
f 404//19 400//18 399//18
f 400//18 404//19 405//19
f 409//20 405//19 404//19
f 405//19 409//20 410//20
f 414//21 409//20 415//21
f 409//20 414//21 410//20
f 419//22 415//21 420//22
f 415//21 419//22 414//21
f 424//23 419//22 420//22
f 419//22 424//23 425//23
f 429//24 424//23 430//24
f 424//23 429//24 425//23
f 434//25 430//24 435//25
f 430//24 434//25 429//24
f 439//26 434//25 435//25
f 434//25 439//26 440//26
f 444//27 440//26 439//26
f 440//26 444//27 445//27
f 449//28 450//28 451//28
f 450//28 449//28 452//28
f 458//29 459//30 460//29
f 459//30 458//29 461//30
f 468//31 458//29 460//29
f 458//29 468//31 469//31
f 473//32 469//31 468//31
f 469//31 473//32 474//32
f 478//33 473//32 479//33
f 473//32 478//33 474//32
f 483//34 478//33 479//33
f 478//33 483//34 484//34
f 488//35 484//34 483//34
f 484//34 488//35 489//35
f 493//36 488//35 494//36
f 488//35 493//36 489//35
f 498//37 494//36 499//37
f 494//36 498//37 493//36
f 503//38 498//37 499//37
f 498//37 503//38 504//38
f 508//39 503//38 509//39
f 503//38 508//39 504//38
f 513//40 508//39 509//39
f 508//39 513//40 514//40
f 518//41 513//40 519//41
f 513//40 518//41 514//40
f 523//42 524//42 525//42
f 524//42 523//42 526//42
usemtl material_2_0
usemtl material_3_0
