# SSTK version 0.8.0
# 158
mtllib original-158.mtl
o #ID352
v 0.023915 -0.444364 0.317556
v 0.041093 -0.442740 -0.189415
v 0.023915 -0.444364 -0.189415
v 0.041093 -0.442740 0.317556
v 0.041093 -0.442740 0.317556
v 0.023915 -0.444364 0.317556
v 0.041093 -0.442740 -0.189415
v 0.023915 -0.444364 -0.189415
v 0.041093 -0.442740 0.317556
v 0.023915 -0.444364 0.317556
v 0.041093 -0.442740 -0.189415
v 0.023915 -0.444364 -0.189415
v 0.067202 -0.438605 -0.189415
v 0.067202 -0.438605 0.317556
v 0.067202 -0.438605 0.317556
v 0.067202 -0.438605 -0.189415
v 0.067202 -0.438605 0.317556
v 0.067202 -0.438605 -0.189415
v 0.093000 -0.432838 0.317556
v 0.093000 -0.432838 -0.189415
v 0.093000 -0.432838 0.317556
v 0.093000 -0.432838 -0.189415
v 0.093000 -0.432838 0.317556
v 0.093000 -0.432838 -0.189415
v 0.118384 -0.425463 -0.189415
v 0.118384 -0.425463 0.317556
v 0.118384 -0.425463 0.317556
v 0.118384 -0.425463 -0.189415
v 0.118384 -0.425463 0.317556
v 0.118384 -0.425463 -0.189415
v 0.143256 -0.416509 0.317556
v 0.143256 -0.416509 -0.189415
v 0.143256 -0.416509 0.317556
v 0.143256 -0.416509 -0.189415
v 0.143256 -0.416509 0.317556
v 0.143256 -0.416509 -0.189415
v 0.167516 -0.406011 -0.189415
v 0.167516 -0.406011 0.317556
v 0.167516 -0.406011 0.317556
v 0.167516 -0.406011 -0.189415
v 0.167516 -0.406011 0.317556
v 0.167516 -0.406011 -0.189415
v 0.191069 -0.394010 0.317556
v 0.191069 -0.394010 -0.189415
v 0.191069 -0.394010 0.317556
v 0.191069 -0.394010 -0.189415
v 0.191069 -0.394010 0.317556
v 0.191069 -0.394010 -0.189415
v 0.213823 -0.380554 -0.189415
v 0.213823 -0.380554 0.317556
v 0.213823 -0.380554 0.317556
v 0.213823 -0.380554 -0.189415
v 0.213823 -0.380554 0.317556
v 0.213823 -0.380554 -0.189415
v 0.235686 -0.365695 -0.189415
v 0.235686 -0.365695 0.317556
v 0.235686 -0.365695 0.317556
v 0.235686 -0.365695 -0.189415
v 0.235686 -0.365695 0.317556
v 0.235686 -0.365695 -0.189415
v 0.256573 -0.349493 0.317556
v 0.256573 -0.349493 -0.189415
v 0.256573 -0.349493 0.317556
v 0.256573 -0.349493 -0.189415
v 0.256573 -0.349493 0.317556
v 0.256573 -0.349493 -0.189415
v 0.276402 -0.332012 -0.189415
v 0.276402 -0.332012 0.317556
v 0.276402 -0.332012 0.317556
v 0.276402 -0.332012 -0.189415
v 0.276402 -0.332012 0.317556
v 0.276402 -0.332012 -0.189415
v 0.295094 -0.313320 -0.189415
v 0.295094 -0.313320 0.317556
v 0.295094 -0.313320 0.317556
v 0.295094 -0.313320 -0.189415
v 0.295094 -0.313320 0.317556
v 0.295094 -0.313320 -0.189415
v 0.312575 -0.293492 0.317556
v 0.312575 -0.293492 -0.189415
v 0.312575 -0.293492 -0.189415
v 0.312575 -0.293492 0.317556
v 0.312575 -0.293492 0.317556
v 0.312575 -0.293492 -0.189415
v 0.328777 -0.272604 0.317556
v 0.328777 -0.272604 -0.189415
v 0.328777 -0.272604 -0.189415
v 0.328777 -0.272604 0.317556
v 0.328777 -0.272604 0.317556
v 0.328777 -0.272604 -0.189415
v 0.343635 -0.250741 0.317556
v 0.343635 -0.250741 -0.189415
v 0.343635 -0.250741 -0.189415
v 0.343635 -0.250741 0.317556
v 0.343635 -0.250741 0.317556
v 0.343635 -0.250741 -0.189415
v 0.357092 -0.227988 0.317556
v 0.357092 -0.227988 -0.189415
v 0.357092 -0.227988 -0.189415
v 0.357092 -0.227988 0.317556
v 0.357092 -0.227988 0.317556
v 0.357092 -0.227988 -0.189415
v 0.369093 -0.204435 0.317556
v 0.369093 -0.204435 -0.189415
v 0.369093 -0.204435 -0.189415
v 0.369093 -0.204435 0.317556
v 0.369093 -0.204435 0.317556
v 0.369093 -0.204435 -0.189415
v 0.379591 -0.180174 -0.189415
v 0.379591 -0.180174 0.317556
v 0.379591 -0.180174 0.317556
v 0.379591 -0.180174 -0.189415
v 0.379591 -0.180174 0.317556
v 0.379591 -0.180174 -0.189415
v 0.388545 -0.155303 0.317556
v 0.388545 -0.155303 -0.189415
v 0.388545 -0.155303 -0.189415
v 0.388545 -0.155303 0.317556
v 0.388545 -0.155303 0.317556
v 0.388545 -0.155303 -0.189415
v 0.395920 -0.129918 0.317556
v 0.395920 -0.129918 -0.189415
v 0.395920 -0.129918 -0.189415
v 0.395920 -0.129918 0.317556
v 0.395920 -0.129918 0.317556
v 0.395920 -0.129918 -0.189415
v 0.401687 -0.104120 -0.189415
v 0.401687 -0.104120 0.317556
v 0.401687 -0.104120 0.317556
v 0.401687 -0.104120 -0.189415
v 0.401687 -0.104120 0.317556
v 0.401687 -0.104120 -0.189415
v 0.405822 -0.078011 -0.189415
v 0.405822 -0.078011 0.317556
v 0.405822 -0.078011 0.317556
v 0.405822 -0.078011 -0.189415
v 0.405822 -0.078011 0.317556
v 0.405822 -0.078011 -0.189415
v 0.407656 -0.058607 0.317556
v 0.407656 -0.058607 -0.189415
v 0.407656 -0.058607 -0.189415
v 0.407656 -0.058607 0.317556
v 0.407656 -0.058607 0.317556
v 0.407656 -0.058607 -0.189415
vt 8.500769 5.656117
vt 7.000769 5.707168
vt 7.000769 5.656117
vt 8.500769 5.707168
vt 8.500769 5.717198
vt 7.000769 5.795411
vt 7.000769 5.717198
vt 8.500769 5.795411
vt 7.000769 5.782723
vt 8.500769 5.860936
vt 7.000769 5.860936
vt 8.500769 5.782723
vt 8.500769 5.825273
vt 7.000769 5.903485
vt 7.000769 5.825273
vt 8.500769 5.903485
vt 7.000769 5.844678
vt 8.500769 5.92289
vt 7.000769 5.92289
vt 8.500769 5.844678
vt 8.500769 5.840862
vt 7.000769 5.919075
vt 7.000769 5.840862
vt 8.500769 5.919075
vt 7.000769 5.813841
vt 8.500769 5.892053
vt 7.000769 5.892053
vt 8.500769 5.813841
vt 8.500769 5.763721
vt 7.000769 5.841933
vt 7.000769 5.763721
vt 8.500769 5.841933
vt 8.500769 5.6907
vt 7.000769 5.768912
vt 7.000769 5.6907
vt 8.500769 5.768912
vt 7.000769 5.595066
vt 8.500769 5.673278
vt 7.000769 5.673278
vt 8.500769 5.595066
vt 8.500769 5.477196
vt 7.000769 5.555409
vt 7.000769 5.477196
vt 8.500769 5.555409
vt 8.500769 5.337556
vt 7.000769 5.415769
vt 7.000769 5.337556
vt 8.500769 5.415769
vt 8.500769 5.25491
vt 7.000769 5.176697
vt 8.500769 5.176697
vt 7.000769 5.25491
vt 8.500769 5.073466
vt 7.000769 4.995253
vt 8.500769 4.995253
vt 7.000769 5.073466
vt 8.500769 4.872154
vt 7.000769 4.793942
vt 8.500769 4.793942
vt 7.000769 4.872154
vt 8.500769 4.651769
vt 7.000769 4.573556
vt 8.500769 4.573556
vt 7.000769 4.651769
vt 8.500769 4.413179
vt 7.000769 4.334966
vt 8.500769 4.334966
vt 7.000769 4.413179
vt 8.500769 4.079114
vt 7.000769 4.157327
vt 7.000769 4.079114
vt 8.500769 4.157327
vt 8.500769 3.885222
vt 7.000769 3.807009
vt 8.500769 3.807009
vt 7.000769 3.885222
vt 8.500769 3.597938
vt 7.000769 3.519725
vt 8.500769 3.519725
vt 7.000769 3.597938
vt 8.500769 3.218396
vt 7.000769 3.296609
vt 7.000769 3.218396
vt 8.500769 3.296609
vt 8.500769 2.904212
vt 7.000769 2.982424
vt 7.000769 2.904212
vt 8.500769 2.982424
vt 8.500769 2.636078
vt 7.000769 2.578411
vt 8.500769 2.578411
vt 7.000769 2.636078
vn -0.09410830671302954 0.9955619652274822 0
vn -0.1253332006906906 0.9921147054673806 0
vn -0.18738129144314172 0.9822872551433722 0
vn -0.24868988984297663 0.9685831604410063 0
vn -0.3090170042518809 0.9510565130859434 0
vn -0.368124588757952 0.9297764716058311 0
vn -0.42577928015806865 0.9048270578337482 0
vn -0.4817536855645931 0.8763066737420931 0
vn -0.5358268100958747 0.8443279159085524 0
vn -0.5877852808425821 0.8090169736320784 0
vn -0.6374240168438534 0.7705132203607198 0
vn -0.6845471164618626 0.7289686175301027 0
vn -0.7289686175301027 0.6845471164618626 0
vn -0.7705132203607198 0.6374240168438534 0
vn -0.8090169736320784 0.5877852808425821 0
vn -0.8443279159085524 0.5358268100958747 0
vn -0.8763066737420931 0.4817536855645931 0
vn -0.9048270578337482 0.42577928015806865 0
vn -0.9297764716058311 0.368124588757952 0
vn -0.9510565130859434 0.3090170042518809 0
vn -0.9685831604410063 0.24868988984297663 0
vn -0.9822872551433722 0.18738129144314172 0
vn -0.9921147054673806 0.1253332006906906 0
vn -0.9955619652274822 0.09410830671302954 0
vn 0.1253332006906906 -0.9921147054673806 0
vn 0.09410830671302954 -0.9955619652274822 0
vn 0.18738129144314172 -0.9822872551433722 0
vn 0.24868988984297663 -0.9685831604410063 0
vn 0.3090170042518809 -0.9510565130859434 0
vn 0.368124588757952 -0.9297764716058311 0
vn 0.42577928015806865 -0.9048270578337482 0
vn 0.4817536855645931 -0.8763066737420931 0
vn 0.5358268100958747 -0.8443279159085524 0
vn 0.5877852808425821 -0.8090169736320784 0
vn 0.6374240168438534 -0.7705132203607198 0
vn 0.6845471164618626 -0.7289686175301027 0
vn 0.7289686175301027 -0.6845471164618626 0
vn 0.7705132203607198 -0.6374240168438534 0
vn 0.8090169736320784 -0.5877852808425821 0
vn 0.8443279159085524 -0.5358268100958747 0
vn 0.8763066737420931 -0.4817536855645931 0
vn 0.9048270578337482 -0.42577928015806865 0
vn 0.9297764716058311 -0.368124588757952 0
vn 0.9510565130859434 -0.3090170042518809 0
vn 0.9685831604410063 -0.24868988984297663 0
vn 0.9822872551433722 -0.18738129144314172 0
vn 0.9921147054673806 -0.1253332006906906 0
vn 0.9955619652274822 -0.09410830671302954 0
usemtl material_0_0
f 5//25 6//26 7//25
f 8//26 7//25 6//26
f 15//27 5//25 16//27
f 7//25 16//27 5//25
f 15//27 16//27 21//28
f 22//28 21//28 16//27
f 27//29 21//28 28//29
f 22//28 28//29 21//28
f 27//29 28//29 33//30
f 34//30 33//30 28//29
f 39//31 33//30 40//31
f 34//30 40//31 33//30
f 39//31 40//31 45//32
f 46//32 45//32 40//31
f 51//33 45//32 52//33
f 46//32 52//33 45//32
f 57//34 51//33 58//34
f 52//33 58//34 51//33
f 57//34 58//34 63//35
f 64//35 63//35 58//34
f 69//36 63//35 70//36
f 64//35 70//36 63//35
f 75//37 69//36 76//37
f 70//36 76//37 69//36
f 81//38 82//38 76//37
f 75//37 76//37 82//38
f 87//39 88//39 81//38
f 82//38 81//38 88//39
f 93//40 94//40 87//39
f 88//39 87//39 94//40
f 99//41 100//41 93//40
f 94//40 93//40 100//41
f 105//42 106//42 99//41
f 100//41 99//41 106//42
f 111//43 106//42 112//43
f 105//42 112//43 106//42
f 117//44 118//44 112//43
f 111//43 112//43 118//44
f 123//45 124//45 117//44
f 118//44 117//44 124//45
f 129//46 124//45 130//46
f 123//45 130//46 124//45
f 135//47 129//46 136//47
f 130//46 136//47 129//46
f 141//48 142//48 136//47
f 135//47 136//47 142//48
usemtl material_1_0
f 1/1/1 2/2/2 3/3/1
f 2/2/2 1/1/1 4/4/2
f 4/5/2 13/6/3 2/7/2
f 13/6/3 4/5/2 14/8/3
f 13/9/3 19/10/4 20/11/4
f 19/10/4 13/9/3 14/12/3
f 19/13/4 25/14/5 20/15/4
f 25/14/5 19/13/4 26/16/5
f 25/17/5 31/18/6 32/19/6
f 31/18/6 25/17/5 26/20/5
f 31/21/6 37/22/7 32/23/6
f 37/22/7 31/21/6 38/24/7
f 37/25/7 43/26/8 44/27/8
f 43/26/8 37/25/7 38/28/7
f 43/29/8 49/30/9 44/31/8
f 49/30/9 43/29/8 50/32/9
f 50/33/9 55/34/10 49/35/9
f 55/34/10 50/33/9 56/36/10
f 55/37/10 61/38/11 62/39/11
f 61/38/11 55/37/10 56/40/10
f 61/41/11 67/42/12 62/43/11
f 67/42/12 61/41/11 68/44/12
f 68/45/12 73/46/13 67/47/12
f 73/46/13 68/45/12 74/48/13
f 79/49/14 73/50/13 74/51/13
f 73/50/13 79/49/14 80/52/14
f 85/53/15 80/54/14 79/55/14
f 80/54/14 85/53/15 86/56/15
f 91/57/16 86/58/15 85/59/15
f 86/58/15 91/57/16 92/60/16
f 97/61/17 92/62/16 91/63/16
f 92/62/16 97/61/17 98/64/17
f 103/65/18 98/66/17 97/67/17
f 98/66/17 103/65/18 104/68/18
f 103/69/18 109/70/19 104/71/18
f 109/70/19 103/69/18 110/72/19
f 115/73/20 109/74/19 110/75/19
f 109/74/19 115/73/20 116/76/20
f 121/77/21 116/78/20 115/79/20
f 116/78/20 121/77/21 122/80/21
f 121/81/21 127/82/22 122/83/21
f 127/82/22 121/81/21 128/84/22
f 128/85/22 133/86/23 127/87/22
f 133/86/23 128/85/22 134/88/23
f 139/89/24 133/90/23 134/91/23
f 133/90/23 139/89/24 140/92/24
usemtl material_2_0
usemtl material_3_0
