# SSTK version 0.8.0
# 23
mtllib original-23.mtl
o #ID496
v 0.356701 0.451800 0.454438
v 0.359608 0.448704 0.456128
v 0.359608 0.448704 0.454438
v 0.358155 0.450252 0.456128
v 0.356701 0.451800 0.456128
v 0.356701 0.451800 0.456128
v 0.356701 0.451800 0.454438
v 0.358155 0.450252 0.456128
v 0.359608 0.448704 0.456128
v 0.359608 0.448704 0.454438
v 0.356701 0.451800 0.456128
v 0.358155 0.450252 0.456128
v 0.359608 0.448704 0.456128
v 0.359608 0.448704 0.454438
v 0.356701 0.451800 0.454438
v 0.362704 0.445798 0.454438
v 0.361156 0.447251 0.456128
v 0.362704 0.445798 0.456128
v 0.361156 0.447251 0.456128
v 0.362704 0.445798 0.454438
v 0.362704 0.445798 0.456128
v 0.361156 0.447251 0.456128
v 0.362704 0.445798 0.456128
v 0.362704 0.445798 0.454438
v 0.353994 0.455072 0.454438
v 0.355348 0.453436 0.456128
v 0.353994 0.455072 0.456128
v 0.353994 0.455072 0.456128
v 0.353994 0.455072 0.454438
v 0.355348 0.453436 0.456128
v 0.353994 0.455072 0.456128
v 0.355348 0.453436 0.456128
v 0.353994 0.455072 0.454438
v 0.365975 0.443091 0.454438
v 0.364340 0.444444 0.456128
v 0.365975 0.443091 0.456128
v 0.364340 0.444444 0.456128
v 0.365975 0.443091 0.454438
v 0.365975 0.443091 0.456128
v 0.364340 0.444444 0.456128
v 0.365975 0.443091 0.456128
v 0.365975 0.443091 0.454438
v 0.351498 0.458507 0.454438
v 0.352746 0.456790 0.456128
v 0.351498 0.458507 0.456128
v 0.351498 0.458507 0.456128
v 0.351498 0.458507 0.454438
v 0.352746 0.456790 0.456128
v 0.351498 0.458507 0.456128
v 0.352746 0.456790 0.456128
v 0.351498 0.458507 0.454438
v 0.369411 0.440595 0.456128
v 0.369411 0.440595 0.454438
v 0.367693 0.441843 0.456128
v 0.367693 0.441843 0.456128
v 0.369411 0.440595 0.456128
v 0.369411 0.440595 0.454438
v 0.367693 0.441843 0.456128
v 0.369411 0.440595 0.456128
v 0.369411 0.440595 0.454438
v 0.349223 0.462093 0.454438
v 0.350361 0.460300 0.456128
v 0.349223 0.462093 0.456128
v 0.349223 0.462093 0.456128
v 0.349223 0.462093 0.454438
v 0.350361 0.460300 0.456128
v 0.349223 0.462093 0.456128
v 0.350361 0.460300 0.456128
v 0.349223 0.462093 0.454438
v 0.372996 0.438319 0.454438
v 0.371204 0.439457 0.456128
v 0.372996 0.438319 0.456128
v 0.372996 0.438319 0.456128
v 0.371204 0.439457 0.456128
v 0.372996 0.438319 0.454438
v 0.371204 0.439457 0.456128
v 0.372996 0.438319 0.456128
v 0.372996 0.438319 0.454438
v 0.347177 0.465814 0.454438
v 0.348200 0.463953 0.456128
v 0.347177 0.465814 0.456128
v 0.347177 0.465814 0.456128
v 0.347177 0.465814 0.454438
v 0.348200 0.463953 0.456128
v 0.347177 0.465814 0.456128
v 0.348200 0.463953 0.456128
v 0.347177 0.465814 0.454438
v 0.376718 0.436273 0.456128
v 0.376718 0.436273 0.454438
v 0.374857 0.437296 0.456128
v 0.374857 0.437296 0.456128
v 0.376718 0.436273 0.456128
v 0.376718 0.436273 0.454438
v 0.374857 0.437296 0.456128
v 0.376718 0.436273 0.456128
v 0.376718 0.436273 0.454438
v 0.345369 0.469656 0.454438
v 0.346273 0.467735 0.456128
v 0.345369 0.469656 0.456128
v 0.345369 0.469656 0.456128
v 0.345369 0.469656 0.454438
v 0.346273 0.467735 0.456128
v 0.345369 0.469656 0.456128
v 0.346273 0.467735 0.456128
v 0.345369 0.469656 0.454438
v 0.380560 0.434465 0.454438
v 0.378639 0.435369 0.456128
v 0.380560 0.434465 0.456128
v 0.378639 0.435369 0.456128
v 0.380560 0.434465 0.454438
v 0.380560 0.434465 0.456128
v 0.378639 0.435369 0.456128
v 0.380560 0.434465 0.456128
v 0.380560 0.434465 0.454438
v 0.343806 0.473605 0.454438
v 0.344588 0.471631 0.456128
v 0.343806 0.473605 0.456128
v 0.343806 0.473605 0.456128
v 0.343806 0.473605 0.454438
v 0.344588 0.471631 0.456128
v 0.343806 0.473605 0.456128
v 0.344588 0.471631 0.456128
v 0.343806 0.473605 0.454438
v 0.384509 0.432902 0.454438
v 0.382534 0.433684 0.456128
v 0.384509 0.432902 0.456128
v 0.382534 0.433684 0.456128
v 0.384509 0.432902 0.454438
v 0.384509 0.432902 0.456128
v 0.382534 0.433684 0.456128
v 0.384509 0.432902 0.456128
v 0.384509 0.432902 0.454438
v 0.342494 0.477643 0.454438
v 0.343150 0.475624 0.456128
v 0.342494 0.477643 0.456128
v 0.342494 0.477643 0.456128
v 0.342494 0.477643 0.454438
v 0.343150 0.475624 0.456128
v 0.342494 0.477643 0.456128
v 0.343150 0.475624 0.456128
v 0.342494 0.477643 0.454438
v 0.388547 0.431590 0.454438
v 0.386528 0.432246 0.456128
v 0.388547 0.431590 0.456128
v 0.386528 0.432246 0.456128
v 0.388547 0.431590 0.454438
v 0.388547 0.431590 0.456128
v 0.386528 0.432246 0.456128
v 0.388547 0.431590 0.456128
v 0.388547 0.431590 0.454438
v 0.341438 0.481756 0.454438
v 0.341966 0.479700 0.456128
v 0.341438 0.481756 0.456128
v 0.341438 0.481756 0.456128
v 0.341438 0.481756 0.454438
v 0.341966 0.479700 0.456128
v 0.341438 0.481756 0.456128
v 0.341966 0.479700 0.456128
v 0.341438 0.481756 0.454438
v 0.392660 0.430534 0.454438
v 0.392660 0.430534 0.456128
v 0.390604 0.431062 0.456128
v 0.390604 0.431062 0.456128
v 0.392660 0.430534 0.456128
v 0.392660 0.430534 0.454438
v 0.390604 0.431062 0.456128
v 0.392660 0.430534 0.456128
v 0.392660 0.430534 0.454438
v 0.340642 0.485928 0.454438
v 0.341040 0.483842 0.456128
v 0.340642 0.485928 0.456128
v 0.340642 0.485928 0.456128
v 0.340642 0.485928 0.454438
v 0.341040 0.483842 0.456128
v 0.340642 0.485928 0.456128
v 0.341040 0.483842 0.456128
v 0.340642 0.485928 0.454438
v 0.394746 0.430136 0.456128
v 0.396832 0.429738 0.456128
v 0.396832 0.429738 0.454438
v 0.394746 0.430136 0.456128
v 0.396832 0.429738 0.456128
v 0.396832 0.429738 0.454438
v 0.394746 0.430136 0.456128
v 0.396832 0.429738 0.456128
v 0.396832 0.429738 0.454438
v 0.340110 0.490141 0.454438
v 0.340376 0.488034 0.456128
v 0.340110 0.490141 0.456128
v 0.340110 0.490141 0.456128
v 0.340110 0.490141 0.454438
v 0.340376 0.488034 0.456128
v 0.340110 0.490141 0.456128
v 0.340376 0.488034 0.456128
v 0.340110 0.490141 0.454438
v 0.401044 0.429206 0.456128
v 0.401044 0.429206 0.454438
v 0.398938 0.429472 0.456128
v 0.398938 0.429472 0.456128
v 0.401044 0.429206 0.456128
v 0.401044 0.429206 0.454438
v 0.398938 0.429472 0.456128
v 0.401044 0.429206 0.456128
v 0.401044 0.429206 0.454438
v 0.339843 0.494379 0.454438
v 0.339976 0.492260 0.456128
v 0.339843 0.494379 0.456128
v 0.339843 0.494379 0.456128
v 0.339843 0.494379 0.454438
v 0.339976 0.492260 0.456128
v 0.339843 0.494379 0.456128
v 0.339976 0.492260 0.456128
v 0.339843 0.494379 0.454438
v 0.405283 0.428939 0.454438
v 0.405283 0.428939 0.456128
v 0.403164 0.429072 0.456128
v 0.403164 0.429072 0.456128
v 0.405283 0.428939 0.456128
v 0.405283 0.428939 0.454438
v 0.403164 0.429072 0.456128
v 0.405283 0.428939 0.456128
v 0.405283 0.428939 0.454438
v 0.339843 0.498625 0.454438
v 0.339843 0.496502 0.456128
v 0.339843 0.498625 0.456128
v 0.339843 0.498625 0.456128
v 0.339843 0.498625 0.454438
v 0.339843 0.496502 0.456128
v 0.339843 0.498625 0.456128
v 0.339843 0.496502 0.456128
v 0.339843 0.498625 0.454438
v 0.409529 0.428939 0.454438
v 0.409529 0.428939 0.456128
v 0.407406 0.428939 0.456128
v 0.407406 0.428939 0.456128
v 0.409529 0.428939 0.456128
v 0.409529 0.428939 0.454438
v 0.407406 0.428939 0.456128
v 0.409529 0.428939 0.456128
v 0.409529 0.428939 0.454438
v 0.340110 0.502863 0.454438
v 0.339976 0.500744 0.456128
v 0.340110 0.502863 0.456128
v 0.340110 0.502863 0.456128
v 0.340110 0.502863 0.454438
v 0.339976 0.500744 0.456128
v 0.340110 0.502863 0.456128
v 0.339976 0.500744 0.456128
v 0.340110 0.502863 0.454438
v 0.413767 0.429206 0.456128
v 0.413767 0.429206 0.454438
v 0.411648 0.429072 0.456128
v 0.411648 0.429072 0.456128
v 0.413767 0.429206 0.456128
v 0.413767 0.429206 0.454438
v 0.411648 0.429072 0.456128
v 0.413767 0.429206 0.456128
v 0.413767 0.429206 0.454438
v 0.340642 0.507076 0.454438
v 0.340376 0.504970 0.456128
v 0.340642 0.507076 0.456128
v 0.340642 0.507076 0.456128
v 0.340642 0.507076 0.454438
v 0.340376 0.504970 0.456128
v 0.340642 0.507076 0.456128
v 0.340376 0.504970 0.456128
v 0.340642 0.507076 0.454438
v 0.417980 0.429738 0.454438
v 0.417980 0.429738 0.456128
v 0.415874 0.429472 0.456128
v 0.415874 0.429472 0.456128
v 0.417980 0.429738 0.456128
v 0.417980 0.429738 0.454438
v 0.415874 0.429472 0.456128
v 0.417980 0.429738 0.456128
v 0.417980 0.429738 0.454438
v 0.341438 0.511248 0.454438
v 0.341040 0.509162 0.456128
v 0.341438 0.511248 0.456128
v 0.341438 0.511248 0.456128
v 0.341438 0.511248 0.454438
v 0.341040 0.509162 0.456128
v 0.341438 0.511248 0.456128
v 0.341040 0.509162 0.456128
v 0.341438 0.511248 0.454438
v 0.422152 0.430534 0.454438
v 0.420066 0.430136 0.456128
v 0.422152 0.430534 0.456128
v 0.420066 0.430136 0.456128
v 0.422152 0.430534 0.454438
v 0.422152 0.430534 0.456128
v 0.420066 0.430136 0.456128
v 0.422152 0.430534 0.456128
v 0.422152 0.430534 0.454438
v 0.342494 0.515361 0.454438
v 0.341966 0.513304 0.456128
v 0.342494 0.515361 0.456128
v 0.342494 0.515361 0.456128
v 0.342494 0.515361 0.454438
v 0.341966 0.513304 0.456128
v 0.342494 0.515361 0.456128
v 0.341966 0.513304 0.456128
v 0.342494 0.515361 0.454438
v 0.424208 0.431062 0.456128
v 0.426265 0.431590 0.456128
v 0.426265 0.431590 0.454438
v 0.424208 0.431062 0.456128
v 0.426265 0.431590 0.456128
v 0.426265 0.431590 0.454438
v 0.424208 0.431062 0.456128
v 0.426265 0.431590 0.456128
v 0.426265 0.431590 0.454438
v 0.343806 0.519399 0.454438
v 0.343150 0.517380 0.456128
v 0.343806 0.519399 0.456128
v 0.343806 0.519399 0.456128
v 0.343806 0.519399 0.454438
v 0.343150 0.517380 0.456128
v 0.343806 0.519399 0.456128
v 0.343150 0.517380 0.456128
v 0.343806 0.519399 0.454438
v 0.430303 0.432902 0.454438
v 0.430303 0.432902 0.456128
v 0.428284 0.432246 0.456128
v 0.428284 0.432246 0.456128
v 0.430303 0.432902 0.456128
v 0.430303 0.432902 0.454438
v 0.428284 0.432246 0.456128
v 0.430303 0.432902 0.456128
v 0.430303 0.432902 0.454438
v 0.345369 0.523347 0.454438
v 0.344588 0.521373 0.456128
v 0.345369 0.523347 0.456128
v 0.345369 0.523347 0.456128
v 0.345369 0.523347 0.454438
v 0.344588 0.521373 0.456128
v 0.345369 0.523347 0.456128
v 0.344588 0.521373 0.456128
v 0.345369 0.523347 0.454438
v 0.434251 0.434465 0.454438
v 0.432277 0.433684 0.456128
v 0.434251 0.434465 0.456128
v 0.432277 0.433684 0.456128
v 0.434251 0.434465 0.454438
v 0.434251 0.434465 0.456128
v 0.432277 0.433684 0.456128
v 0.434251 0.434465 0.456128
v 0.434251 0.434465 0.454438
v 0.347177 0.527190 0.454438
v 0.346273 0.525269 0.456128
v 0.347177 0.527190 0.456128
v 0.347177 0.527190 0.456128
v 0.347177 0.527190 0.454438
v 0.346273 0.525269 0.456128
v 0.347177 0.527190 0.456128
v 0.346273 0.525269 0.456128
v 0.347177 0.527190 0.454438
v 0.438094 0.436273 0.454438
v 0.438094 0.436273 0.456128
v 0.436173 0.435369 0.456128
v 0.436173 0.435369 0.456128
v 0.438094 0.436273 0.456128
v 0.438094 0.436273 0.454438
v 0.436173 0.435369 0.456128
v 0.438094 0.436273 0.456128
v 0.438094 0.436273 0.454438
v 0.349223 0.530911 0.454438
v 0.348200 0.529051 0.456128
v 0.349223 0.530911 0.456128
v 0.349223 0.530911 0.456128
v 0.349223 0.530911 0.454438
v 0.348200 0.529051 0.456128
v 0.349223 0.530911 0.456128
v 0.348200 0.529051 0.456128
v 0.349223 0.530911 0.454438
v 0.441815 0.438319 0.456128
v 0.441815 0.438319 0.454438
v 0.439955 0.437296 0.456128
v 0.439955 0.437296 0.456128
v 0.441815 0.438319 0.456128
v 0.441815 0.438319 0.454438
v 0.439955 0.437296 0.456128
v 0.441815 0.438319 0.456128
v 0.441815 0.438319 0.454438
v 0.351498 0.534497 0.454438
v 0.350361 0.532704 0.456128
v 0.351498 0.534497 0.456128
v 0.351498 0.534497 0.456128
v 0.351498 0.534497 0.454438
v 0.350361 0.532704 0.456128
v 0.351498 0.534497 0.456128
v 0.350361 0.532704 0.456128
v 0.351498 0.534497 0.454438
v 0.445400 0.440595 0.454438
v 0.445400 0.440595 0.456128
v 0.443608 0.439457 0.456128
v 0.443608 0.439457 0.456128
v 0.445400 0.440595 0.456128
v 0.445400 0.440595 0.454438
v 0.443608 0.439457 0.456128
v 0.445400 0.440595 0.456128
v 0.445400 0.440595 0.454438
v 0.353994 0.537932 0.454438
v 0.352746 0.536214 0.456128
v 0.353994 0.537932 0.456128
v 0.353994 0.537932 0.456128
v 0.353994 0.537932 0.454438
v 0.352746 0.536214 0.456128
v 0.353994 0.537932 0.456128
v 0.352746 0.536214 0.456128
v 0.353994 0.537932 0.454438
v 0.448836 0.443091 0.454438
v 0.447118 0.441843 0.456128
v 0.448836 0.443091 0.456128
v 0.447118 0.441843 0.456128
v 0.448836 0.443091 0.454438
v 0.448836 0.443091 0.456128
v 0.447118 0.441843 0.456128
v 0.448836 0.443091 0.456128
v 0.448836 0.443091 0.454438
v 0.356701 0.541204 0.454438
v 0.355348 0.539568 0.456128
v 0.356701 0.541204 0.456128
v 0.356701 0.541204 0.456128
v 0.356701 0.541204 0.454438
v 0.355348 0.539568 0.456128
v 0.356701 0.541204 0.456128
v 0.355348 0.539568 0.456128
v 0.356701 0.541204 0.454438
v 0.452108 0.445798 0.456128
v 0.452108 0.445798 0.454438
v 0.450472 0.444444 0.456128
v 0.450472 0.444444 0.456128
v 0.452108 0.445798 0.456128
v 0.452108 0.445798 0.454438
v 0.450472 0.444444 0.456128
v 0.452108 0.445798 0.456128
v 0.452108 0.445798 0.454438
v 0.359608 0.544300 0.454438
v 0.358155 0.542752 0.456128
v 0.359608 0.544300 0.456128
v 0.359608 0.544300 0.456128
v 0.359608 0.544300 0.454438
v 0.358155 0.542752 0.456128
v 0.359608 0.544300 0.456128
v 0.358155 0.542752 0.456128
v 0.359608 0.544300 0.454438
v 0.455204 0.448704 0.454438
v 0.455204 0.448704 0.456128
v 0.453656 0.447251 0.456128
v 0.453656 0.447251 0.456128
v 0.455204 0.448704 0.456128
v 0.455204 0.448704 0.454438
v 0.453656 0.447251 0.456128
v 0.455204 0.448704 0.456128
v 0.455204 0.448704 0.454438
v 0.362704 0.547207 0.456128
v 0.361156 0.545753 0.456128
v 0.362704 0.547207 0.454438
v 0.361156 0.545753 0.456128
v 0.362704 0.547207 0.454438
v 0.362704 0.547207 0.456128
v 0.362704 0.547207 0.456128
v 0.361156 0.545753 0.456128
v 0.362704 0.547207 0.454438
v 0.456657 0.450252 0.456128
v 0.458110 0.451800 0.454438
v 0.458110 0.451800 0.456128
v 0.458110 0.451800 0.456128
v 0.456657 0.450252 0.456128
v 0.458110 0.451800 0.454438
v 0.456657 0.450252 0.456128
v 0.458110 0.451800 0.456128
v 0.458110 0.451800 0.454438
v 0.365975 0.549913 0.456128
v 0.365975 0.549913 0.454438
v 0.364340 0.548560 0.456128
v 0.364340 0.548560 0.456128
v 0.365975 0.549913 0.456128
v 0.365975 0.549913 0.454438
v 0.365975 0.549913 0.456128
v 0.364340 0.548560 0.456128
v 0.365975 0.549913 0.454438
v 0.459464 0.453436 0.456128
v 0.460817 0.455072 0.454438
v 0.460817 0.455072 0.456128
v 0.460817 0.455072 0.456128
v 0.459464 0.453436 0.456128
v 0.460817 0.455072 0.454438
v 0.459464 0.453436 0.456128
v 0.460817 0.455072 0.456128
v 0.460817 0.455072 0.454438
v 0.369411 0.552409 0.456128
v 0.369411 0.552409 0.454438
v 0.367693 0.551161 0.456128
v 0.367693 0.551161 0.456128
v 0.369411 0.552409 0.456128
v 0.369411 0.552409 0.454438
v 0.369411 0.552409 0.456128
v 0.367693 0.551161 0.456128
v 0.369411 0.552409 0.454438
v 0.462065 0.456790 0.456128
v 0.463313 0.458507 0.454438
v 0.463313 0.458507 0.456128
v 0.463313 0.458507 0.456128
v 0.462065 0.456790 0.456128
v 0.463313 0.458507 0.454438
v 0.462065 0.456790 0.456128
v 0.463313 0.458507 0.456128
v 0.463313 0.458507 0.454438
v 0.372996 0.554685 0.456128
v 0.371204 0.553547 0.456128
v 0.372996 0.554685 0.454438
v 0.371204 0.553547 0.456128
v 0.372996 0.554685 0.454438
v 0.372996 0.554685 0.456128
v 0.372996 0.554685 0.456128
v 0.371204 0.553547 0.456128
v 0.372996 0.554685 0.454438
v 0.464451 0.460300 0.456128
v 0.465589 0.462093 0.454438
v 0.465589 0.462093 0.456128
v 0.465589 0.462093 0.456128
v 0.464451 0.460300 0.456128
v 0.465589 0.462093 0.454438
v 0.464451 0.460300 0.456128
v 0.465589 0.462093 0.456128
v 0.465589 0.462093 0.454438
v 0.376718 0.556730 0.456128
v 0.376718 0.556730 0.454438
v 0.374857 0.555708 0.456128
v 0.374857 0.555708 0.456128
v 0.376718 0.556730 0.456128
v 0.376718 0.556730 0.454438
v 0.376718 0.556730 0.456128
v 0.374857 0.555708 0.456128
v 0.376718 0.556730 0.454438
v 0.466611 0.463953 0.456128
v 0.467634 0.465814 0.454438
v 0.467634 0.465814 0.456128
v 0.467634 0.465814 0.456128
v 0.466611 0.463953 0.456128
v 0.467634 0.465814 0.454438
v 0.466611 0.463953 0.456128
v 0.467634 0.465814 0.456128
v 0.467634 0.465814 0.454438
v 0.380560 0.558539 0.454438
v 0.380560 0.558539 0.456128
v 0.378639 0.557635 0.456128
v 0.378639 0.557635 0.456128
v 0.380560 0.558539 0.456128
v 0.380560 0.558539 0.454438
v 0.380560 0.558539 0.456128
v 0.378639 0.557635 0.456128
v 0.380560 0.558539 0.454438
v 0.468538 0.467735 0.456128
v 0.469443 0.469656 0.454438
v 0.469443 0.469656 0.456128
v 0.469443 0.469656 0.456128
v 0.468538 0.467735 0.456128
v 0.469443 0.469656 0.454438
v 0.468538 0.467735 0.456128
v 0.469443 0.469656 0.456128
v 0.469443 0.469656 0.454438
v 0.384509 0.560102 0.456128
v 0.384509 0.560102 0.454438
v 0.382534 0.559320 0.456128
v 0.382534 0.559320 0.456128
v 0.384509 0.560102 0.456128
v 0.384509 0.560102 0.454438
v 0.384509 0.560102 0.456128
v 0.382534 0.559320 0.456128
v 0.384509 0.560102 0.454438
v 0.470224 0.471631 0.456128
v 0.471006 0.473605 0.454438
v 0.471006 0.473605 0.456128
v 0.471006 0.473605 0.456128
v 0.470224 0.471631 0.456128
v 0.471006 0.473605 0.454438
v 0.470224 0.471631 0.456128
v 0.471006 0.473605 0.456128
v 0.471006 0.473605 0.454438
v 0.388547 0.561414 0.456128
v 0.386528 0.560758 0.456128
v 0.388547 0.561414 0.454438
v 0.386528 0.560758 0.456128
v 0.388547 0.561414 0.454438
v 0.388547 0.561414 0.456128
v 0.388547 0.561414 0.456128
v 0.386528 0.560758 0.456128
v 0.388547 0.561414 0.454438
v 0.471662 0.475624 0.456128
v 0.472318 0.477643 0.454438
v 0.472318 0.477643 0.456128
v 0.472318 0.477643 0.456128
v 0.471662 0.475624 0.456128
v 0.472318 0.477643 0.454438
v 0.471662 0.475624 0.456128
v 0.472318 0.477643 0.456128
v 0.472318 0.477643 0.454438
v 0.392660 0.562470 0.456128
v 0.392660 0.562470 0.454438
v 0.390604 0.561942 0.456128
v 0.390604 0.561942 0.456128
v 0.392660 0.562470 0.456128
v 0.392660 0.562470 0.454438
v 0.392660 0.562470 0.456128
v 0.390604 0.561942 0.456128
v 0.392660 0.562470 0.454438
v 0.472846 0.479700 0.456128
v 0.473374 0.481756 0.454438
v 0.473374 0.481756 0.456128
v 0.473374 0.481756 0.456128
v 0.472846 0.479700 0.456128
v 0.473374 0.481756 0.454438
v 0.472846 0.479700 0.456128
v 0.473374 0.481756 0.456128
v 0.473374 0.481756 0.454438
v 0.396832 0.563266 0.456128
v 0.396832 0.563266 0.454438
v 0.394746 0.562868 0.456128
v 0.394746 0.562868 0.456128
v 0.396832 0.563266 0.456128
v 0.396832 0.563266 0.454438
v 0.396832 0.563266 0.456128
v 0.394746 0.562868 0.456128
v 0.396832 0.563266 0.454438
v 0.473772 0.483842 0.456128
v 0.474170 0.485928 0.454438
v 0.474170 0.485928 0.456128
v 0.474170 0.485928 0.456128
v 0.473772 0.483842 0.456128
v 0.474170 0.485928 0.454438
v 0.473772 0.483842 0.456128
v 0.474170 0.485928 0.456128
v 0.474170 0.485928 0.454438
v 0.401044 0.563798 0.456128
v 0.401044 0.563798 0.454438
v 0.398938 0.563532 0.456128
v 0.398938 0.563532 0.456128
v 0.401044 0.563798 0.456128
v 0.401044 0.563798 0.454438
v 0.401044 0.563798 0.456128
v 0.398938 0.563532 0.456128
v 0.401044 0.563798 0.454438
v 0.474436 0.488034 0.456128
v 0.474702 0.490141 0.454438
v 0.474702 0.490141 0.456128
v 0.474702 0.490141 0.456128
v 0.474436 0.488034 0.456128
v 0.474702 0.490141 0.454438
v 0.474436 0.488034 0.456128
v 0.474702 0.490141 0.456128
v 0.474702 0.490141 0.454438
v 0.405283 0.564065 0.456128
v 0.405283 0.564065 0.454438
v 0.403164 0.563931 0.456128
v 0.403164 0.563931 0.456128
v 0.405283 0.564065 0.456128
v 0.405283 0.564065 0.454438
v 0.405283 0.564065 0.456128
v 0.403164 0.563931 0.456128
v 0.405283 0.564065 0.454438
v 0.474835 0.492260 0.456128
v 0.474969 0.494379 0.454438
v 0.474969 0.494379 0.456128
v 0.474969 0.494379 0.456128
v 0.474835 0.492260 0.456128
v 0.474969 0.494379 0.454438
v 0.474835 0.492260 0.456128
v 0.474969 0.494379 0.456128
v 0.474969 0.494379 0.454438
v 0.409529 0.564065 0.454438
v 0.409529 0.564065 0.456128
v 0.407406 0.564065 0.456128
v 0.407406 0.564065 0.456128
v 0.409529 0.564065 0.456128
v 0.409529 0.564065 0.454438
v 0.409529 0.564065 0.456128
v 0.407406 0.564065 0.456128
v 0.409529 0.564065 0.454438
v 0.474969 0.496502 0.456128
v 0.474969 0.498625 0.454438
v 0.474969 0.498625 0.456128
v 0.474969 0.498625 0.456128
v 0.474969 0.496502 0.456128
v 0.474969 0.498625 0.454438
v 0.474969 0.496502 0.456128
v 0.474969 0.498625 0.456128
v 0.474969 0.498625 0.454438
v 0.413767 0.563798 0.456128
v 0.413767 0.563798 0.454438
v 0.411648 0.563931 0.456128
v 0.411648 0.563931 0.456128
v 0.413767 0.563798 0.456128
v 0.413767 0.563798 0.454438
v 0.413767 0.563798 0.456128
v 0.411648 0.563931 0.456128
v 0.413767 0.563798 0.454438
v 0.474835 0.500744 0.456128
v 0.474702 0.502863 0.454438
v 0.474702 0.502863 0.456128
v 0.474702 0.502863 0.456128
v 0.474835 0.500744 0.456128
v 0.474702 0.502863 0.454438
v 0.474835 0.500744 0.456128
v 0.474702 0.502863 0.456128
v 0.474702 0.502863 0.454438
v 0.417980 0.563266 0.456128
v 0.417980 0.563266 0.454438
v 0.415874 0.563532 0.456128
v 0.415874 0.563532 0.456128
v 0.417980 0.563266 0.456128
v 0.417980 0.563266 0.454438
v 0.417980 0.563266 0.456128
v 0.415874 0.563532 0.456128
v 0.417980 0.563266 0.454438
v 0.474436 0.504970 0.456128
v 0.474170 0.507076 0.454438
v 0.474170 0.507076 0.456128
v 0.474170 0.507076 0.456128
v 0.474436 0.504970 0.456128
v 0.474170 0.507076 0.454438
v 0.474436 0.504970 0.456128
v 0.474170 0.507076 0.456128
v 0.474170 0.507076 0.454438
v 0.422152 0.562470 0.456128
v 0.420066 0.562868 0.456128
v 0.422152 0.562470 0.454438
v 0.420066 0.562868 0.456128
v 0.422152 0.562470 0.454438
v 0.422152 0.562470 0.456128
v 0.422152 0.562470 0.456128
v 0.420066 0.562868 0.456128
v 0.422152 0.562470 0.454438
v 0.473772 0.509162 0.456128
v 0.473374 0.511248 0.454438
v 0.473374 0.511248 0.456128
v 0.473374 0.511248 0.456128
v 0.473772 0.509162 0.456128
v 0.473374 0.511248 0.454438
v 0.473772 0.509162 0.456128
v 0.473374 0.511248 0.456128
v 0.473374 0.511248 0.454438
v 0.426265 0.561414 0.456128
v 0.426265 0.561414 0.454438
v 0.424208 0.561942 0.456128
v 0.424208 0.561942 0.456128
v 0.426265 0.561414 0.456128
v 0.426265 0.561414 0.454438
v 0.426265 0.561414 0.456128
v 0.424208 0.561942 0.456128
v 0.426265 0.561414 0.454438
v 0.472846 0.513304 0.456128
v 0.472318 0.515361 0.454438
v 0.472318 0.515361 0.456128
v 0.472318 0.515361 0.456128
v 0.472846 0.513304 0.456128
v 0.472318 0.515361 0.454438
v 0.472846 0.513304 0.456128
v 0.472318 0.515361 0.456128
v 0.472318 0.515361 0.454438
v 0.430303 0.560102 0.454438
v 0.430303 0.560102 0.456128
v 0.428284 0.560758 0.456128
v 0.428284 0.560758 0.456128
v 0.430303 0.560102 0.456128
v 0.430303 0.560102 0.454438
v 0.430303 0.560102 0.456128
v 0.428284 0.560758 0.456128
v 0.430303 0.560102 0.454438
v 0.471662 0.517380 0.456128
v 0.471006 0.519399 0.454438
v 0.471006 0.519399 0.456128
v 0.471006 0.519399 0.456128
v 0.471662 0.517380 0.456128
v 0.471006 0.519399 0.454438
v 0.471662 0.517380 0.456128
v 0.471006 0.519399 0.456128
v 0.471006 0.519399 0.454438
v 0.434251 0.558539 0.456128
v 0.434251 0.558539 0.454438
v 0.432277 0.559320 0.456128
v 0.432277 0.559320 0.456128
v 0.434251 0.558539 0.456128
v 0.434251 0.558539 0.454438
v 0.434251 0.558539 0.456128
v 0.432277 0.559320 0.456128
v 0.434251 0.558539 0.454438
v 0.470224 0.521373 0.456128
v 0.469443 0.523347 0.454438
v 0.469443 0.523347 0.456128
v 0.469443 0.523347 0.456128
v 0.470224 0.521373 0.456128
v 0.469443 0.523347 0.454438
v 0.470224 0.521373 0.456128
v 0.469443 0.523347 0.456128
v 0.469443 0.523347 0.454438
v 0.438094 0.556730 0.456128
v 0.438094 0.556730 0.454438
v 0.436173 0.557635 0.456128
v 0.436173 0.557635 0.456128
v 0.438094 0.556730 0.456128
v 0.438094 0.556730 0.454438
v 0.438094 0.556730 0.456128
v 0.436173 0.557635 0.456128
v 0.438094 0.556730 0.454438
v 0.468538 0.525269 0.456128
v 0.467634 0.527190 0.454438
v 0.467634 0.527190 0.456128
v 0.467634 0.527190 0.456128
v 0.468538 0.525269 0.456128
v 0.467634 0.527190 0.454438
v 0.468538 0.525269 0.456128
v 0.467634 0.527190 0.456128
v 0.467634 0.527190 0.454438
v 0.441815 0.554685 0.456128
v 0.441815 0.554685 0.454438
v 0.439955 0.555708 0.456128
v 0.439955 0.555708 0.456128
v 0.441815 0.554685 0.456128
v 0.441815 0.554685 0.454438
v 0.441815 0.554685 0.456128
v 0.439955 0.555708 0.456128
v 0.441815 0.554685 0.454438
v 0.466611 0.529051 0.456128
v 0.465589 0.530911 0.454438
v 0.465589 0.530911 0.456128
v 0.465589 0.530911 0.456128
v 0.466611 0.529051 0.456128
v 0.465589 0.530911 0.454438
v 0.466611 0.529051 0.456128
v 0.465589 0.530911 0.456128
v 0.465589 0.530911 0.454438
v 0.445400 0.552409 0.454438
v 0.445400 0.552409 0.456128
v 0.443608 0.553547 0.456128
v 0.443608 0.553547 0.456128
v 0.445400 0.552409 0.456128
v 0.445400 0.552409 0.454438
v 0.445400 0.552409 0.456128
v 0.443608 0.553547 0.456128
v 0.445400 0.552409 0.454438
v 0.464451 0.532704 0.456128
v 0.463313 0.534497 0.454438
v 0.463313 0.534497 0.456128
v 0.463313 0.534497 0.456128
v 0.464451 0.532704 0.456128
v 0.463313 0.534497 0.454438
v 0.464451 0.532704 0.456128
v 0.463313 0.534497 0.456128
v 0.463313 0.534497 0.454438
v 0.448836 0.549913 0.456128
v 0.448836 0.549913 0.454438
v 0.447118 0.551161 0.456128
v 0.447118 0.551161 0.456128
v 0.448836 0.549913 0.456128
v 0.448836 0.549913 0.454438
v 0.448836 0.549913 0.456128
v 0.447118 0.551161 0.456128
v 0.448836 0.549913 0.454438
v 0.462065 0.536214 0.456128
v 0.460817 0.537932 0.454438
v 0.460817 0.537932 0.456128
v 0.460817 0.537932 0.456128
v 0.462065 0.536214 0.456128
v 0.460817 0.537932 0.454438
v 0.462065 0.536214 0.456128
v 0.460817 0.537932 0.456128
v 0.460817 0.537932 0.454438
v 0.452108 0.547207 0.456128
v 0.452108 0.547207 0.454438
v 0.450472 0.548560 0.456128
v 0.450472 0.548560 0.456128
v 0.452108 0.547207 0.456128
v 0.452108 0.547207 0.454438
v 0.452108 0.547207 0.456128
v 0.450472 0.548560 0.456128
v 0.452108 0.547207 0.454438
v 0.459464 0.539568 0.456128
v 0.458110 0.541204 0.454438
v 0.458110 0.541204 0.456128
v 0.458110 0.541204 0.456128
v 0.459464 0.539568 0.456128
v 0.458110 0.541204 0.454438
v 0.459464 0.539568 0.456128
v 0.458110 0.541204 0.456128
v 0.458110 0.541204 0.454438
v 0.455204 0.544300 0.454438
v 0.455204 0.544300 0.456128
v 0.453656 0.545753 0.456128
v 0.453656 0.545753 0.456128
v 0.455204 0.544300 0.456128
v 0.455204 0.544300 0.454438
v 0.455204 0.544300 0.456128
v 0.453656 0.545753 0.456128
v 0.455204 0.544300 0.454438
v 0.456657 0.542752 0.456128
v 0.456657 0.542752 0.456128
v 0.456657 0.542752 0.456128
vn 0.7501110657106163 0.6613118697698414 0
vn 0.7071067811865476 0.7071067811865476 0
vn 0.7289686175301027 0.6845471164618626 0
vn -0.7501110657106163 -0.6613118697698414 0
vn -0.7289686175301027 -0.6845471164618626 0
vn -0.7071067811865476 -0.7071067811865476 0
vn 0.6613118697698414 0.7501110657106163 0
vn 0.6845471164618626 0.7289686175301027 0
vn -0.6845471164618626 -0.7289686175301027 0
vn -0.6613118697698414 -0.7501110657106163 0
vn 0.7901549852812261 0.6129070885829476 0
vn 0.7705132203607198 0.6374240168438534 0
vn -0.7901549852812261 -0.6129070885829476 0
vn -0.7705132203607198 -0.6374240168438534 0
vn 0.6129070885829476 0.7901549852812261 0
vn 0.6374240168438534 0.7705132203607198 0
vn -0.6374240168438534 -0.7705132203607198 0
vn -0.6129070885829476 -0.7901549852812261 0
vn 0.8270805721059142 0.5620833810431988 0
vn 0.8090169736320784 0.5877852808425821 0
vn -0.8270805721059142 -0.5620833810431988 0
vn -0.8090169736320784 -0.5877852808425821 0
vn 0.5620833810431988 0.8270805721059142 0
vn 0.5877852808425821 0.8090169736320784 0
vn -0.5877852808425821 -0.8090169736320784 0
vn -0.5620833810431988 -0.8270805721059142 0
vn 0.860742026907674 0.509041415913154 0
vn 0.8443279159085524 0.5358268100958747 0
vn -0.860742026907674 -0.509041415913154 0
vn -0.8443279159085524 -0.5358268100958747 0
vn 0.509041415913154 0.860742026907674 0
vn 0.5358268100958747 0.8443279159085524 0
vn -0.509041415913154 -0.860742026907674 0
vn -0.5358268100958747 -0.8443279159085524 0
vn 0.8910065190976113 0.45399050973071925 0
vn 0.8763066737420931 0.4817536855645931 0
vn -0.8910065190976113 -0.45399050973071925 0
vn -0.8763066737420931 -0.4817536855645931 0
vn 0.45399050973071925 0.8910065190976113 0
vn 0.4817536855645931 0.8763066737420931 0
vn -0.4817536855645931 -0.8763066737420931 0
vn -0.45399050973071925 -0.8910065190976113 0
vn 0.9177546182194622 0.39714790788426574 0
vn 0.9048270578337482 0.42577928015806865 0
vn -0.9177546182194622 -0.39714790788426574 0
vn -0.9048270578337482 -0.42577928015806865 0
vn 0.39714790788426574 0.9177546182194622 0
vn 0.42577928015806865 0.9048270578337482 0
vn -0.42577928015806865 -0.9048270578337482 0
vn -0.39714790788426574 -0.9177546182194622 0
vn 0.9408807789689392 0.3387378924283529 0
vn 0.9297764716058311 0.368124588757952 0
vn -0.9408807789689392 -0.3387378924283529 0
vn -0.9297764716058311 -0.368124588757952 0
vn 0.3387378924283529 0.9408807789689392 0
vn 0.368124588757952 0.9297764716058311 0
vn -0.368124588757952 -0.9297764716058311 0
vn -0.3387378924283529 -0.9408807789689392 0
vn 0.9602936884097835 0.2789910966327309 0
vn 0.9510565130859434 0.3090170042518809 0
vn -0.9602936884097835 -0.2789910966327309 0
vn -0.9510565130859434 -0.3090170042518809 0
vn 0.2789910966327309 0.9602936884097835 0
vn 0.3090170042518809 0.9510565130859434 0
vn -0.3090170042518809 -0.9510565130859434 0
vn -0.2789910966327309 -0.9602936884097835 0
vn 0.975916772562842 0.21814319386706998 0
vn 0.9685831604410063 0.24868988984297663 0
vn -0.975916772562842 -0.21814319386706998 0
vn -0.9685831604410063 -0.24868988984297663 0
vn 0.21814319386706998 0.975916772562842 0
vn 0.24868988984297663 0.9685831604410063 0
vn -0.24868988984297663 -0.9685831604410063 0
vn -0.21814319386706998 -0.975916772562842 0
vn 0.9876883342001215 0.15643450541676854 0
vn 0.9822872551433722 0.18738129144314172 0
vn -0.9876883342001215 -0.15643450541676854 0
vn -0.9822872551433722 -0.18738129144314172 0
vn 0.18738129144314172 0.9822872551433722 0
vn 0.15643450541676854 0.9876883342001215 0
vn -0.18738129144314172 -0.9822872551433722 0
vn -0.15643450541676854 -0.9876883342001215 0
vn 0.9955619652274822 0.09410830671302954 0
vn 0.9921147054673806 0.1253332006906906 0
vn -0.9955619652274822 -0.09410830671302954 0
vn -0.9921147054673806 -0.1253332006906906 0
vn 0.09410830671302954 0.9955619652274822 0
vn 0.1253332006906906 0.9921147054673806 0
vn -0.1253332006906906 -0.9921147054673806 0
vn -0.09410830671302954 -0.9955619652274822 0
vn 0.9995065603758938 0.03141075875476231 0
vn 0.9980267282866925 0.0627905217796479 0
vn -0.9995065603758938 -0.03141075875476231 0
vn -0.9980267282866925 -0.0627905217796479 0
vn 0.03141075875476231 0.9995065603758938 0
vn 0.0627905217796479 0.9980267282866925 0
vn -0.0627905217796479 -0.9980267282866925 0
vn -0.03141075875476231 -0.9995065603758938 0
vn 0.9995065603758938 -0.03141075875476231 0
vn 1 0 0
vn -0.9995065603758938 0.03141075875476231 0
vn -1 0 0
vn -0.03141075875476231 0.9995065603758938 0
vn 0 1 0
vn 0 -1 0
vn 0.03141075875476231 -0.9995065603758938 0
vn 0.9955619652274822 -0.09410830671302954 0
vn 0.9980267282866925 -0.0627905217796479 0
vn -0.9955619652274822 0.09410830671302954 0
vn -0.9980267282866925 0.0627905217796479 0
vn -0.09410830671302954 0.9955619652274822 0
vn -0.0627905217796479 0.9980267282866925 0
vn 0.0627905217796479 -0.9980267282866925 0
vn 0.09410830671302954 -0.9955619652274822 0
vn 0.9876883342001215 -0.15643450541676854 0
vn 0.9921147054673806 -0.1253332006906906 0
vn -0.9876883342001215 0.15643450541676854 0
vn -0.9921147054673806 0.1253332006906906 0
vn -0.15643450541676854 0.9876883342001215 0
vn -0.1253332006906906 0.9921147054673806 0
vn 0.1253332006906906 -0.9921147054673806 0
vn 0.15643450541676854 -0.9876883342001215 0
vn 0.975916772562842 -0.21814319386706998 0
vn 0.9822872551433722 -0.18738129144314172 0
vn -0.975916772562842 0.21814319386706998 0
vn -0.9822872551433722 0.18738129144314172 0
vn -0.21814319386706998 0.975916772562842 0
vn -0.18738129144314172 0.9822872551433722 0
vn 0.18738129144314172 -0.9822872551433722 0
vn 0.21814319386706998 -0.975916772562842 0
vn 0.9602936884097835 -0.2789910966327309 0
vn 0.9685831604410063 -0.24868988984297663 0
vn -0.9602936884097835 0.2789910966327309 0
vn -0.9685831604410063 0.24868988984297663 0
vn -0.24868988984297663 0.9685831604410063 0
vn -0.2789910966327309 0.9602936884097835 0
vn 0.24868988984297663 -0.9685831604410063 0
vn 0.2789910966327309 -0.9602936884097835 0
vn 0.9408807789689392 -0.3387378924283529 0
vn 0.9510565130859434 -0.3090170042518809 0
vn -0.9408807789689392 0.3387378924283529 0
vn -0.9510565130859434 0.3090170042518809 0
vn -0.3387378924283529 0.9408807789689392 0
vn -0.3090170042518809 0.9510565130859434 0
vn 0.3090170042518809 -0.9510565130859434 0
vn 0.3387378924283529 -0.9408807789689392 0
vn 0.9177546182194622 -0.39714790788426574 0
vn 0.9297764716058311 -0.368124588757952 0
vn -0.9177546182194622 0.39714790788426574 0
vn -0.9297764716058311 0.368124588757952 0
vn -0.39714790788426574 0.9177546182194622 0
vn -0.368124588757952 0.9297764716058311 0
vn 0.368124588757952 -0.9297764716058311 0
vn 0.39714790788426574 -0.9177546182194622 0
vn 0.8910065190976113 -0.45399050973071925 0
vn 0.9048270578337482 -0.42577928015806865 0
vn -0.8910065190976113 0.45399050973071925 0
vn -0.9048270578337482 0.42577928015806865 0
vn -0.45399050973071925 0.8910065190976113 0
vn -0.42577928015806865 0.9048270578337482 0
vn 0.42577928015806865 -0.9048270578337482 0
vn 0.45399050973071925 -0.8910065190976113 0
vn 0.860742026907674 -0.509041415913154 0
vn 0.8763066737420931 -0.4817536855645931 0
vn -0.860742026907674 0.509041415913154 0
vn -0.8763066737420931 0.4817536855645931 0
vn -0.509041415913154 0.860742026907674 0
vn -0.4817536855645931 0.8763066737420931 0
vn 0.4817536855645931 -0.8763066737420931 0
vn 0.509041415913154 -0.860742026907674 0
vn 0.8270805721059142 -0.5620833810431988 0
vn 0.8443279159085524 -0.5358268100958747 0
vn -0.8270805721059142 0.5620833810431988 0
vn -0.8443279159085524 0.5358268100958747 0
vn -0.5620833810431988 0.8270805721059142 0
vn -0.5358268100958747 0.8443279159085524 0
vn 0.5358268100958747 -0.8443279159085524 0
vn 0.5620833810431988 -0.8270805721059142 0
vn 0.7901549852812261 -0.6129070885829476 0
vn 0.8090169736320784 -0.5877852808425821 0
vn -0.7901549852812261 0.6129070885829476 0
vn -0.8090169736320784 0.5877852808425821 0
vn -0.6129070885829476 0.7901549852812261 0
vn -0.5877852808425821 0.8090169736320784 0
vn 0.5877852808425821 -0.8090169736320784 0
vn 0.6129070885829476 -0.7901549852812261 0
vn 0.7501110657106163 -0.6613118697698414 0
vn 0.7705132203607198 -0.6374240168438534 0
vn -0.7501110657106163 0.6613118697698414 0
vn -0.7705132203607198 0.6374240168438534 0
vn -0.6613118697698414 0.7501110657106163 0
vn -0.6374240168438534 0.7705132203607198 0
vn 0.6374240168438534 -0.7705132203607198 0
vn 0.6613118697698414 -0.7501110657106163 0
vn 0.7071067811865476 -0.7071067811865476 0
vn 0.7289686175301027 -0.6845471164618626 0
vn -0.7071067811865476 0.7071067811865476 0
vn -0.7289686175301027 0.6845471164618626 0
vn -0.6845471164618626 0.7289686175301027 0
vn 0.6845471164618626 -0.7289686175301027 0
usemtl material_0_0
f 1//1 2//2 3//2
f 2//2 1//1 4//3
f 4//3 1//1 5//1
f 6//4 7//4 8//5
f 8//5 7//4 9//6
f 10//6 9//6 7//4
f 2//2 16//7 3//2
f 16//7 2//2 17//8
f 18//7 16//7 17//8
f 19//9 20//10 21//10
f 19//9 9//6 20//10
f 10//6 20//10 9//6
f 25//11 5//1 1//1
f 5//1 25//11 26//12
f 26//12 25//11 27//11
f 28//13 29//13 30//14
f 30//14 29//13 6//4
f 7//4 6//4 29//13
f 18//7 34//15 16//7
f 34//15 18//7 35//16
f 36//15 34//15 35//16
f 37//17 38//18 39//18
f 37//17 21//10 38//18
f 20//10 38//18 21//10
f 43//19 27//11 25//11
f 27//11 43//19 44//20
f 44//20 43//19 45//19
f 46//21 47//21 48//22
f 48//22 47//21 28//13
f 29//13 28//13 47//21
f 34//15 52//23 53//23
f 52//23 34//15 36//15
f 52//23 36//15 54//24
f 55//25 39//18 56//26
f 39//18 38//18 56//26
f 57//26 56//26 38//18
f 61//27 45//19 43//19
f 45//19 61//27 62//28
f 62//28 61//27 63//27
f 64//29 65//29 66//30
f 66//30 65//29 46//21
f 47//21 46//21 65//29
f 52//23 70//31 53//23
f 70//31 52//23 71//32
f 70//31 71//32 72//31
f 73//33 74//34 75//33
f 74//34 56//26 75//33
f 57//26 75//33 56//26
f 79//35 63//27 61//27
f 63//27 79//35 80//36
f 80//36 79//35 81//35
f 82//37 83//37 84//38
f 84//38 83//37 64//29
f 65//29 64//29 83//37
f 70//31 88//39 89//39
f 88//39 70//31 72//31
f 88//39 72//31 90//40
f 91//41 73//33 92//42
f 73//33 75//33 92//42
f 93//42 92//42 75//33
f 97//43 81//35 79//35
f 81//35 97//43 98//44
f 98//44 97//43 99//43
f 100//45 101//45 102//46
f 102//46 101//45 82//37
f 83//37 82//37 101//45
f 88//39 106//47 89//39
f 106//47 88//39 107//48
f 108//47 106//47 107//48
f 109//49 110//50 111//50
f 109//49 92//42 110//50
f 93//42 110//50 92//42
f 115//51 99//43 97//43
f 99//43 115//51 116//52
f 116//52 115//51 117//51
f 118//53 119//53 120//54
f 120//54 119//53 100//45
f 101//45 100//45 119//53
f 108//47 124//55 106//47
f 124//55 108//47 125//56
f 126//55 124//55 125//56
f 127//57 128//58 129//58
f 127//57 111//50 128//58
f 110//50 128//58 111//50
f 133//59 117//51 115//51
f 117//51 133//59 134//60
f 134//60 133//59 135//59
f 136//61 137//61 138//62
f 138//62 137//61 118//53
f 119//53 118//53 137//61
f 126//55 142//63 124//55
f 142//63 126//55 143//64
f 144//63 142//63 143//64
f 145//65 146//66 147//66
f 145//65 129//58 146//66
f 128//58 146//66 129//58
f 151//67 135//59 133//59
f 135//59 151//67 152//68
f 152//68 151//67 153//67
f 154//69 155//69 156//70
f 156//70 155//69 136//61
f 137//61 136//61 155//69
f 144//63 160//71 142//63
f 160//71 144//63 161//71
f 161//71 144//63 162//72
f 163//73 147//66 164//74
f 164//74 147//66 165//74
f 146//66 165//74 147//66
f 169//75 153//67 151//67
f 153//67 169//75 170//76
f 170//76 169//75 171//75
f 172//77 173//77 174//78
f 174//78 173//77 154//69
f 155//69 154//69 173//77
f 161//71 178//79 160//71
f 160//71 179//80 180//80
f 179//80 160//71 178//79
f 181//81 165//74 182//82
f 183//82 182//82 165//74
f 165//74 181//81 164//74
f 187//83 171//75 169//75
f 171//75 187//83 188//84
f 188//84 187//83 189//83
f 190//85 191//85 192//86
f 192//86 191//85 172//77
f 173//77 172//77 191//85
f 180//80 196//87 197//87
f 196//87 180//80 179//80
f 196//87 179//80 198//88
f 199//89 182//82 200//90
f 182//82 183//82 200//90
f 201//90 200//90 183//82
f 205//91 189//83 187//83
f 189//83 205//91 206//92
f 206//92 205//91 207//91
f 208//93 209//93 210//94
f 210//94 209//93 190//85
f 191//85 190//85 209//93
f 196//87 214//95 197//87
f 214//95 196//87 215//95
f 215//95 196//87 216//96
f 217//97 200//90 218//98
f 218//98 200//90 219//98
f 201//90 219//98 200//90
f 223//99 207//91 205//91
f 207//91 223//99 224//100
f 224//100 223//99 225//99
f 226//101 227//101 228//102
f 228//102 227//101 208//93
f 209//93 208//93 227//101
f 215//95 232//103 214//95
f 232//103 215//95 233//103
f 233//103 215//95 234//104
f 235//105 218//98 236//106
f 236//106 218//98 237//106
f 219//98 237//106 218//98
f 241//107 225//99 223//99
f 225//99 241//107 242//108
f 242//108 241//107 243//107
f 244//109 245//109 246//110
f 246//110 245//109 226//101
f 227//101 226//101 245//109
f 232//103 250//111 251//111
f 250//111 232//103 252//112
f 252//112 232//103 233//103
f 236//106 237//106 253//113
f 253//113 237//106 254//114
f 255//114 254//114 237//106
f 259//115 243//107 241//107
f 243//107 259//115 260//116
f 260//116 259//115 261//115
f 262//117 263//117 264//118
f 264//118 263//117 244//109
f 245//109 244//109 263//117
f 250//111 268//119 251//111
f 268//119 250//111 269//119
f 269//119 250//111 270//120
f 271//121 254//114 272//122
f 272//122 254//114 273//122
f 255//114 273//122 254//114
f 277//123 261//115 259//115
f 261//115 277//123 278//124
f 278//124 277//123 279//123
f 280//125 281//125 282//126
f 282//126 281//125 262//117
f 263//117 262//117 281//125
f 269//119 286//127 268//119
f 286//127 269//119 287//128
f 288//127 286//127 287//128
f 289//129 290//130 291//130
f 289//129 272//122 290//130
f 273//122 290//130 272//122
f 295//131 279//123 277//123
f 279//123 295//131 296//132
f 296//132 295//131 297//131
f 298//133 299//133 300//134
f 300//134 299//133 280//125
f 281//125 280//125 299//133
f 288//127 304//135 286//127
f 286//127 305//136 306//136
f 305//136 286//127 304//135
f 307//137 290//130 308//138
f 309//138 308//138 290//130
f 290//130 307//137 291//130
f 313//139 297//131 295//131
f 297//131 313//139 314//140
f 314//140 313//139 315//139
f 316//141 317//141 318//142
f 318//142 317//141 298//133
f 299//133 298//133 317//141
f 305//136 322//143 306//136
f 322//143 305//136 323//143
f 323//143 305//136 324//144
f 325//145 308//138 326//146
f 326//146 308//138 327//146
f 309//138 327//146 308//138
f 331//147 315//139 313//139
f 315//139 331//147 332//148
f 332//148 331//147 333//147
f 334//149 335//149 336//150
f 336//150 335//149 316//141
f 317//141 316//141 335//149
f 323//143 340//151 322//143
f 340//151 323//143 341//152
f 342//151 340//151 341//152
f 343//153 344//154 345//154
f 343//153 326//146 344//154
f 327//146 344//154 326//146
f 349//155 333//147 331//147
f 333//147 349//155 350//156
f 350//156 349//155 351//155
f 352//157 353//157 354//158
f 354//158 353//157 334//149
f 335//149 334//149 353//157
f 342//151 358//159 340//151
f 358//159 342//151 359//159
f 359//159 342//151 360//160
f 361//161 345//154 362//162
f 362//162 345//154 363//162
f 344//154 363//162 345//154
f 367//163 351//155 349//155
f 351//155 367//163 368//164
f 368//164 367//163 369//163
f 370//165 371//165 372//166
f 372//166 371//165 352//157
f 353//157 352//157 371//165
f 358//159 376//167 377//167
f 376//167 358//159 359//159
f 376//167 359//159 378//168
f 379//169 362//162 380//170
f 362//162 363//162 380//170
f 381//170 380//170 363//162
f 385//171 369//163 367//163
f 369//163 385//171 386//172
f 386//172 385//171 387//171
f 388//173 389//173 390//174
f 390//174 389//173 370//165
f 371//165 370//165 389//173
f 376//167 394//175 377//167
f 394//175 376//167 395//175
f 395//175 376//167 396//176
f 397//177 380//170 398//178
f 398//178 380//170 399//178
f 381//170 399//178 380//170
f 403//179 387//171 385//171
f 387//171 403//179 404//180
f 404//180 403//179 405//179
f 406//181 407//181 408//182
f 408//182 407//181 388//173
f 389//173 388//173 407//181
f 395//175 412//183 394//175
f 412//183 395//175 413//184
f 414//183 412//183 413//184
f 415//185 416//186 417//186
f 415//185 398//178 416//186
f 399//178 416//186 398//178
f 421//187 405//179 403//179
f 405//179 421//187 422//188
f 422//188 421//187 423//187
f 424//189 425//189 426//190
f 426//190 425//189 406//181
f 407//181 406//181 425//189
f 412//183 430//191 431//191
f 430//191 412//183 414//183
f 430//191 414//183 432//192
f 433//193 417//186 434//194
f 417//186 416//186 434//194
f 435//194 434//194 416//186
f 439//195 423//187 421//187
f 423//187 439//195 440//196
f 440//196 439//195 441//195
f 442//197 443//197 444//198
f 444//198 443//197 424//189
f 425//189 424//189 443//197
f 430//191 448//197 431//191
f 448//197 430//191 449//197
f 449//197 430//191 450//199
f 451//200 434//194 452//195
f 452//195 434//194 453//195
f 435//194 453//195 434//194
f 457//194 458//200 459//194
f 459//194 441//195 439//195
f 441//195 459//194 458//200
f 460//199 461//191 442//197
f 443//197 442//197 461//191
f 461//191 460//199 462//191
f 466//198 448//197 449//197
f 448//197 466//198 467//189
f 467//189 466//198 468//189
f 469//187 470//196 471//187
f 471//187 470//196 453//195
f 452//195 453//195 470//196
f 475//186 459//194 476//186
f 459//194 475//186 477//193
f 457//194 459//194 477//193
f 478//192 461//191 462//191
f 478//192 479//183 461//191
f 480//183 461//191 479//183
f 484//190 467//189 468//189
f 467//189 484//190 485//181
f 485//181 484//190 486//181
f 487//179 488//188 489//179
f 489//179 488//188 471//187
f 469//187 471//187 488//188
f 493//178 476//186 494//178
f 476//186 493//178 475//186
f 475//186 493//178 495//185
f 496//184 497//175 479//183
f 479//183 497//175 480//183
f 498//175 480//183 497//175
f 502//182 485//181 486//181
f 485//181 502//182 503//173
f 503//173 502//182 504//173
f 505//171 506//180 507//171
f 507//171 506//180 489//179
f 487//179 489//179 506//180
f 511//170 512//177 513//170
f 513//170 493//178 494//178
f 493//178 513//170 512//177
f 514//176 515//167 497//175
f 498//175 497//175 515//167
f 515//167 514//176 516//167
f 520//174 503//173 504//173
f 503//173 520//174 521//165
f 521//165 520//174 522//165
f 523//163 524//172 525//163
f 525//163 524//172 507//171
f 505//171 507//171 524//172
f 529//162 513//170 530//162
f 513//170 529//162 531//169
f 513//170 531//169 511//170
f 516//167 532//168 515//167
f 532//168 533//159 515//167
f 534//159 515//167 533//159
f 538//166 521//165 522//165
f 521//165 538//166 539//157
f 539//157 538//166 540//157
f 541//155 542//164 543//155
f 543//155 542//164 525//163
f 523//163 525//163 542//164
f 547//154 529//162 530//162
f 529//162 547//154 548//154
f 529//162 548//154 549//161
f 550//160 551//151 533//159
f 551//151 552//151 533//159
f 534//159 533//159 552//151
f 556//158 539//157 540//157
f 539//157 556//158 557//149
f 557//149 556//158 558//149
f 559//147 560//156 561//147
f 561//147 560//156 543//155
f 541//155 543//155 560//156
f 565//146 547//154 566//146
f 547//154 565//146 567//153
f 548//154 547//154 567//153
f 568//152 552//151 551//151
f 568//152 569//143 552//151
f 570//143 552//151 569//143
f 574//150 557//149 558//149
f 557//149 574//150 575//141
f 575//141 574//150 576//141
f 577//139 578//148 579//139
f 579//139 578//148 561//147
f 559//147 561//147 578//148
f 583//138 584//145 585//138
f 585//138 565//146 566//146
f 565//146 585//138 584//145
f 586//144 587//136 569//143
f 570//143 569//143 587//136
f 587//136 586//144 588//136
f 592//142 575//141 576//141
f 575//141 592//142 593//133
f 593//133 592//142 594//133
f 595//131 596//140 597//131
f 597//131 596//140 579//139
f 577//139 579//139 596//140
f 601//130 585//138 602//130
f 585//138 601//130 583//138
f 583//138 601//130 603//137
f 604//135 605//127 588//136
f 588//136 605//127 587//136
f 606//127 587//136 605//127
f 610//134 593//133 594//133
f 593//133 610//134 611//125
f 611//125 610//134 612//125
f 613//123 614//132 615//123
f 615//123 614//132 597//131
f 595//131 597//131 614//132
f 619//122 602//130 620//122
f 602//130 619//122 621//129
f 601//130 602//130 621//129
f 622//128 606//127 605//127
f 622//128 623//119 606//127
f 624//119 606//127 623//119
f 628//126 611//125 612//125
f 611//125 628//126 629//117
f 629//117 628//126 630//117
f 631//115 632//124 633//115
f 633//115 632//124 615//123
f 613//123 615//123 632//124
f 637//114 620//122 638//114
f 620//122 637//114 639//121
f 619//122 620//122 639//121
f 640//120 624//119 623//119
f 640//120 641//111 624//119
f 642//111 624//119 641//111
f 646//118 629//117 630//117
f 629//117 646//118 647//109
f 647//109 646//118 648//109
f 649//107 650//116 651//107
f 651//107 650//116 633//115
f 631//115 633//115 650//116
f 655//106 638//114 656//106
f 638//114 655//106 637//114
f 637//114 655//106 657//113
f 658//112 659//103 641//111
f 641//111 659//103 642//111
f 660//103 642//111 659//103
f 664//110 647//109 648//109
f 647//109 664//110 665//101
f 665//101 664//110 666//101
f 667//99 668//108 669//99
f 669//99 668//108 651//107
f 649//107 651//107 668//108
f 673//98 655//106 656//106
f 655//106 673//98 674//98
f 655//106 674//98 675//105
f 676//104 677//95 659//103
f 677//95 678//95 659//103
f 660//103 659//103 678//95
f 682//102 665//101 666//101
f 665//101 682//102 683//93
f 683//93 682//102 684//93
f 685//91 686//100 687//91
f 687//91 686//100 669//99
f 667//99 669//99 686//100
f 691//90 673//98 692//90
f 673//98 691//90 693//97
f 673//98 693//97 674//98
f 677//95 694//96 678//95
f 694//96 695//87 678//95
f 696//87 678//95 695//87
f 700//94 683//93 684//93
f 683//93 700//94 701//85
f 701//85 700//94 702//85
f 703//83 704//92 705//83
f 705//83 704//92 687//91
f 685//91 687//91 704//92
f 709//82 692//90 710//82
f 692//90 709//82 691//90
f 691//90 709//82 711//89
f 712//88 713//80 695//87
f 695//87 713//80 696//87
f 714//80 696//87 713//80
f 718//86 701//85 702//85
f 701//85 718//86 719//77
f 719//77 718//86 720//77
f 721//75 722//84 723//75
f 723//75 722//84 705//83
f 703//83 705//83 722//84
f 727//74 728//81 729//74
f 729//74 709//82 710//82
f 709//82 729//74 728//81
f 730//79 731//71 713//80
f 714//80 713//80 731//71
f 731//71 730//79 732//71
f 736//78 719//77 720//77
f 719//77 736//78 737//69
f 737//69 736//78 738//69
f 739//67 740//76 741//67
f 741//67 740//76 723//75
f 721//75 723//75 740//76
f 745//66 729//74 746//66
f 729//74 745//66 747//73
f 727//74 729//74 747//73
f 748//72 731//71 732//71
f 748//72 749//63 731//71
f 750//63 731//71 749//63
f 754//70 737//69 738//69
f 737//69 754//70 755//61
f 755//61 754//70 756//61
f 757//59 758//68 759//59
f 759//59 758//68 741//67
f 739//67 741//67 758//68
f 763//58 745//66 746//66
f 745//66 763//58 764//58
f 745//66 764//58 765//65
f 766//64 767//55 749//63
f 767//55 768//55 749//63
f 750//63 749//63 768//55
f 772//62 755//61 756//61
f 755//61 772//62 773//53
f 773//53 772//62 774//53
f 775//51 776//60 777//51
f 777//51 776//60 759//59
f 757//59 759//59 776//60
f 781//50 763//58 782//50
f 763//58 781//50 783//57
f 764//58 763//58 783//57
f 784//56 768//55 767//55
f 784//56 785//47 768//55
f 786//47 768//55 785//47
f 790//54 773//53 774//53
f 773//53 790//54 791//45
f 791//45 790//54 792//45
f 793//43 794//52 795//43
f 795//43 794//52 777//51
f 775//51 777//51 794//52
f 799//42 782//50 800//42
f 782//50 799//42 781//50
f 781//50 799//42 801//49
f 802//48 803//39 785//47
f 785//47 803//39 786//47
f 804//39 786//47 803//39
f 808//46 791//45 792//45
f 791//45 808//46 809//37
f 809//37 808//46 810//37
f 811//35 812//44 813//35
f 813//35 812//44 795//43
f 793//43 795//43 812//44
f 817//33 800//42 818//33
f 800//42 817//33 799//42
f 799//42 817//33 819//41
f 820//40 821//31 803//39
f 803//39 821//31 804//39
f 822//31 804//39 821//31
f 826//38 809//37 810//37
f 809//37 826//38 827//29
f 827//29 826//38 828//29
f 829//27 830//36 831//27
f 831//27 830//36 813//35
f 811//35 813//35 830//36
f 835//26 817//33 818//33
f 817//33 835//26 836//26
f 817//33 836//26 837//34
f 838//32 839//23 821//31
f 839//23 840//23 821//31
f 822//31 821//31 840//23
f 844//30 827//29 828//29
f 827//29 844//30 845//21
f 845//21 844//30 846//21
f 847//19 848//28 849//19
f 849//19 848//28 831//27
f 829//27 831//27 848//28
f 853//18 835//26 854//18
f 835//26 853//18 855//25
f 836//26 835//26 855//25
f 856//24 840//23 839//23
f 856//24 857//15 840//23
f 858//15 840//23 857//15
f 862//22 845//21 846//21
f 845//21 862//22 863//13
f 863//13 862//22 864//13
f 865//11 866//20 867//11
f 867//11 866//20 849//19
f 847//19 849//19 866//20
f 871//10 854//18 872//10
f 854//18 871//10 853//18
f 853//18 871//10 873//17
f 874//16 875//7 857//15
f 857//15 875//7 858//15
f 876//7 858//15 875//7
f 880//14 863//13 864//13
f 863//13 880//14 881//4
f 881//4 880//14 882//4
f 883//1 884//12 885//1
f 885//1 884//12 867//11
f 865//11 867//11 884//12
f 889//6 871//10 872//10
f 871//10 889//6 890//6
f 871//10 890//6 891//9
f 892//8 893//2 875//7
f 893//2 894//2 875//7
f 876//7 875//7 894//2
f 898//5 881//4 882//4
f 881//4 898//5 889//6
f 889//6 898//5 890//6
f 893//2 899//3 894//2
f 894//2 899//3 885//1
f 883//1 885//1 899//3
usemtl material_1_0
