# SSTK version 0.8.0
# 131
mtllib original-131.mtl
o #ID139
v 0.111440 0.502546 0.454438
v 0.122264 0.501866 0.454438
v 0.110181 0.501866 0.454438
v 0.112847 0.503101 0.454438
v 0.114292 0.503476 0.454438
v 0.115749 0.503664 0.454438
v 0.117195 0.503662 0.454438
v 0.118603 0.503469 0.454438
v 0.119950 0.503089 0.454438
v 0.121214 0.502529 0.454438
v 0.121214 0.502529 0.454438
v 0.119950 0.503089 0.454438
v 0.122264 0.501866 0.454438
v 0.118603 0.503469 0.454438
v 0.117195 0.503662 0.454438
v 0.115749 0.503664 0.454438
v 0.114292 0.503476 0.454438
v 0.112847 0.503101 0.454438
v 0.111440 0.502546 0.454438
v 0.110181 0.501866 0.454438
v 0.121214 0.502529 0.454438
v 0.122264 0.501866 0.454438
v 0.110181 0.501866 0.454438
v 0.111440 0.502546 0.454438
v 0.112847 0.503101 0.454438
v 0.114292 0.503476 0.454438
v 0.115749 0.503664 0.454438
v 0.117195 0.503662 0.454438
v 0.118603 0.503469 0.454438
v 0.119950 0.503089 0.454438
v 0.122264 0.501866 0.454438
v 0.121214 0.502529 0.452748
v 0.122264 0.501866 0.452748
v 0.121214 0.502529 0.454438
v 0.121214 0.502529 0.454438
v 0.122264 0.501866 0.454438
v 0.121214 0.502529 0.452748
v 0.122264 0.501866 0.452748
v 0.121214 0.502529 0.452748
v 0.122264 0.501866 0.452748
v 0.084989 0.474173 0.454438
v 0.084803 0.471270 0.454438
v 0.084801 0.472716 0.454438
v 0.084996 0.469862 0.454438
v 0.085363 0.475618 0.454438
v 0.085376 0.468514 0.454438
v 0.085919 0.477025 0.454438
v 0.085936 0.467251 0.454438
v 0.086645 0.478371 0.454438
v 0.086667 0.466093 0.454438
v 0.087531 0.479631 0.454438
v 0.087556 0.465061 0.454438
v 0.088560 0.480786 0.454438
v 0.087747 0.464870 0.454438
v 0.088588 0.464172 0.454438
v 0.107679 0.499905 0.454438
v 0.089746 0.463441 0.454438
v 0.091009 0.462881 0.454438
v 0.092357 0.462501 0.454438
v 0.093765 0.462308 0.454438
v 0.095211 0.462306 0.454438
v 0.096668 0.462494 0.454438
v 0.098113 0.462868 0.454438
v 0.099520 0.463424 0.454438
v 0.100866 0.464150 0.454438
v 0.102126 0.465036 0.454438
v 0.103281 0.466065 0.454438
v 0.122400 0.485184 0.454438
v 0.108833 0.500934 0.454438
v 0.110094 0.501819 0.454438
v 0.110181 0.501866 0.454438
v 0.122264 0.501866 0.454438
v 0.122372 0.501798 0.454438
v 0.123404 0.500909 0.454438
v 0.123429 0.486338 0.454438
v 0.123595 0.500718 0.454438
v 0.124314 0.487599 0.454438
v 0.124293 0.499877 0.454438
v 0.125024 0.498719 0.454438
v 0.125041 0.488945 0.454438
v 0.125584 0.497455 0.454438
v 0.125596 0.490352 0.454438
v 0.125964 0.496108 0.454438
v 0.125971 0.491797 0.454438
v 0.126157 0.494700 0.454438
v 0.126159 0.493254 0.454438
v 0.126159 0.493254 0.454438
v 0.126157 0.494700 0.454438
v 0.125971 0.491797 0.454438
v 0.125964 0.496108 0.454438
v 0.125596 0.490352 0.454438
v 0.125584 0.497455 0.454438
v 0.125041 0.488945 0.454438
v 0.125024 0.498719 0.454438
v 0.124314 0.487599 0.454438
v 0.124293 0.499877 0.454438
v 0.123595 0.500718 0.454438
v 0.123429 0.486338 0.454438
v 0.123404 0.500909 0.454438
v 0.122400 0.485184 0.454438
v 0.122372 0.501798 0.454438
v 0.122264 0.501866 0.454438
v 0.110181 0.501866 0.454438
v 0.110094 0.501819 0.454438
v 0.108833 0.500934 0.454438
v 0.107679 0.499905 0.454438
v 0.103281 0.466065 0.454438
v 0.102126 0.465036 0.454438
v 0.100866 0.464150 0.454438
v 0.099520 0.463424 0.454438
v 0.098113 0.462868 0.454438
v 0.096668 0.462494 0.454438
v 0.095211 0.462306 0.454438
v 0.093765 0.462308 0.454438
v 0.092357 0.462501 0.454438
v 0.091009 0.462881 0.454438
v 0.089746 0.463441 0.454438
v 0.088588 0.464172 0.454438
v 0.088560 0.480786 0.454438
v 0.087747 0.464870 0.454438
v 0.087556 0.465061 0.454438
v 0.087531 0.479631 0.454438
v 0.086667 0.466093 0.454438
v 0.086645 0.478371 0.454438
v 0.085936 0.467251 0.454438
v 0.085919 0.477025 0.454438
v 0.085376 0.468514 0.454438
v 0.085363 0.475618 0.454438
v 0.084996 0.469862 0.454438
v 0.084989 0.474173 0.454438
v 0.084803 0.471270 0.454438
v 0.084801 0.472716 0.454438
v 0.110094 0.501819 0.454438
v 0.122372 0.501798 0.454438
v 0.123404 0.500909 0.454438
v 0.123595 0.500718 0.454438
v 0.124293 0.499877 0.454438
v 0.125024 0.498719 0.454438
v 0.125584 0.497455 0.454438
v 0.125964 0.496108 0.454438
v 0.126157 0.494700 0.454438
v 0.126159 0.493254 0.454438
v 0.125971 0.491797 0.454438
v 0.125596 0.490352 0.454438
v 0.125041 0.488945 0.454438
v 0.124314 0.487599 0.454438
v 0.123429 0.486338 0.454438
v 0.122400 0.485184 0.454438
v 0.103281 0.466065 0.454438
v 0.102126 0.465036 0.454438
v 0.100866 0.464150 0.454438
v 0.099520 0.463424 0.454438
v 0.098113 0.462868 0.454438
v 0.096668 0.462494 0.454438
v 0.095211 0.462306 0.454438
v 0.093765 0.462308 0.454438
v 0.092357 0.462501 0.454438
v 0.091009 0.462881 0.454438
v 0.089746 0.463441 0.454438
v 0.088588 0.464172 0.454438
v 0.087747 0.464870 0.454438
v 0.087556 0.465061 0.454438
v 0.086667 0.466093 0.454438
v 0.085936 0.467251 0.454438
v 0.085376 0.468514 0.454438
v 0.084996 0.469862 0.454438
v 0.084803 0.471270 0.454438
v 0.084801 0.472716 0.454438
v 0.084989 0.474173 0.454438
v 0.085363 0.475618 0.454438
v 0.085919 0.477025 0.454438
v 0.086645 0.478371 0.454438
v 0.087531 0.479631 0.454438
v 0.088560 0.480786 0.454438
v 0.107679 0.499905 0.454438
v 0.108833 0.500934 0.454438
v 0.111440 0.502546 0.454438
v 0.110181 0.501866 0.452748
v 0.111440 0.502546 0.452748
v 0.110181 0.501866 0.454438
v 0.110181 0.501866 0.454438
v 0.111440 0.502546 0.454438
v 0.110181 0.501866 0.452748
v 0.111440 0.502546 0.452748
v 0.110181 0.501866 0.452748
v 0.111440 0.502546 0.452748
v 0.112847 0.503101 0.452748
v 0.112847 0.503101 0.454438
v 0.112847 0.503101 0.454438
v 0.112847 0.503101 0.452748
v 0.112847 0.503101 0.452748
v 0.114292 0.503476 0.454438
v 0.114292 0.503476 0.452748
v 0.114292 0.503476 0.454438
v 0.114292 0.503476 0.452748
v 0.114292 0.503476 0.452748
v 0.115749 0.503664 0.452748
v 0.115749 0.503664 0.454438
v 0.115749 0.503664 0.454438
v 0.115749 0.503664 0.452748
v 0.115749 0.503664 0.452748
v 0.117195 0.503662 0.454438
v 0.117195 0.503662 0.452748
v 0.117195 0.503662 0.454438
v 0.117195 0.503662 0.452748
v 0.117195 0.503662 0.452748
v 0.118603 0.503469 0.452748
v 0.118603 0.503469 0.454438
v 0.118603 0.503469 0.454438
v 0.118603 0.503469 0.452748
v 0.118603 0.503469 0.452748
v 0.119950 0.503089 0.454438
v 0.119950 0.503089 0.452748
v 0.119950 0.503089 0.454438
v 0.119950 0.503089 0.452748
v 0.119950 0.503089 0.452748
v 0.122372 0.501798 0.454438
v 0.122264 0.501866 0.452748
v 0.122372 0.501798 0.452748
v 0.122264 0.501866 0.454438
v 0.122264 0.501866 0.454438
v 0.122372 0.501798 0.454438
v 0.122264 0.501866 0.452748
v 0.122372 0.501798 0.452748
v 0.122372 0.501798 0.452748
v 0.110181 0.501866 0.452748
v 0.110094 0.501819 0.454438
v 0.110094 0.501819 0.452748
v 0.110181 0.501866 0.454438
v 0.110181 0.501866 0.454438
v 0.110181 0.501866 0.452748
v 0.110094 0.501819 0.454438
v 0.110094 0.501819 0.452748
v 0.110094 0.501819 0.452748
v 0.123404 0.500909 0.452748
v 0.123404 0.500909 0.454438
v 0.123404 0.500909 0.454438
v 0.123404 0.500909 0.452748
v 0.123404 0.500909 0.452748
v 0.123595 0.500718 0.452748
v 0.123404 0.500909 0.454438
v 0.123404 0.500909 0.452748
v 0.123595 0.500718 0.454438
v 0.123595 0.500718 0.454438
v 0.123595 0.500718 0.452748
v 0.123404 0.500909 0.454438
v 0.123404 0.500909 0.452748
v 0.123595 0.500718 0.452748
v 0.123595 0.500718 0.454438
v 0.124293 0.499877 0.452748
v 0.124293 0.499877 0.454438
v 0.123595 0.500718 0.452748
v 0.123595 0.500718 0.452748
v 0.123595 0.500718 0.454438
v 0.124293 0.499877 0.452748
v 0.124293 0.499877 0.454438
v 0.124293 0.499877 0.452748
v 0.125024 0.498719 0.452748
v 0.125024 0.498719 0.454438
v 0.125024 0.498719 0.452748
v 0.125024 0.498719 0.454438
v 0.125024 0.498719 0.452748
v 0.125584 0.497455 0.452748
v 0.125584 0.497455 0.454438
v 0.125584 0.497455 0.452748
v 0.125584 0.497455 0.454438
v 0.125584 0.497455 0.452748
v 0.125964 0.496108 0.452748
v 0.125964 0.496108 0.454438
v 0.125964 0.496108 0.452748
v 0.125964 0.496108 0.454438
v 0.125964 0.496108 0.452748
v 0.126157 0.494700 0.452748
v 0.126157 0.494700 0.454438
v 0.126157 0.494700 0.452748
v 0.126157 0.494700 0.454438
v 0.126157 0.494700 0.452748
v 0.126159 0.493254 0.452748
v 0.126159 0.493254 0.454438
v 0.126159 0.493254 0.452748
v 0.126159 0.493254 0.454438
v 0.126159 0.493254 0.452748
v 0.125971 0.491797 0.452748
v 0.125971 0.491797 0.454438
v 0.125971 0.491797 0.452748
v 0.125971 0.491797 0.454438
v 0.125971 0.491797 0.452748
v 0.125596 0.490352 0.452748
v 0.125596 0.490352 0.454438
v 0.125596 0.490352 0.452748
v 0.125596 0.490352 0.454438
v 0.125596 0.490352 0.452748
v 0.125041 0.488945 0.452748
v 0.125041 0.488945 0.454438
v 0.125041 0.488945 0.452748
v 0.125041 0.488945 0.454438
v 0.125041 0.488945 0.452748
v 0.124314 0.487599 0.452748
v 0.124314 0.487599 0.454438
v 0.124314 0.487599 0.452748
v 0.124314 0.487599 0.454438
v 0.124314 0.487599 0.452748
v 0.123429 0.486338 0.452748
v 0.123429 0.486338 0.454438
v 0.123429 0.486338 0.452748
v 0.123429 0.486338 0.454438
v 0.123429 0.486338 0.452748
v 0.122400 0.485184 0.452748
v 0.122400 0.485184 0.454438
v 0.122400 0.485184 0.452748
v 0.122400 0.485184 0.454438
v 0.122400 0.485184 0.452748
v 0.122400 0.485184 0.454438
v 0.103281 0.466065 0.452748
v 0.103281 0.466065 0.454438
v 0.122400 0.485184 0.452748
v 0.122400 0.485184 0.452748
v 0.122400 0.485184 0.454438
v 0.103281 0.466065 0.452748
v 0.103281 0.466065 0.454438
v 0.103281 0.466065 0.452748
v 0.102126 0.465036 0.454438
v 0.103281 0.466065 0.452748
v 0.102126 0.465036 0.452748
v 0.103281 0.466065 0.454438
v 0.103281 0.466065 0.454438
v 0.102126 0.465036 0.454438
v 0.103281 0.466065 0.452748
v 0.102126 0.465036 0.452748
v 0.102126 0.465036 0.452748
v 0.100866 0.464150 0.452748
v 0.100866 0.464150 0.454438
v 0.100866 0.464150 0.454438
v 0.100866 0.464150 0.452748
v 0.100866 0.464150 0.452748
v 0.099520 0.463424 0.454438
v 0.099520 0.463424 0.452748
v 0.099520 0.463424 0.454438
v 0.099520 0.463424 0.452748
v 0.099520 0.463424 0.452748
v 0.098113 0.462868 0.452748
v 0.098113 0.462868 0.454438
v 0.098113 0.462868 0.454438
v 0.098113 0.462868 0.452748
v 0.098113 0.462868 0.452748
v 0.096668 0.462494 0.454438
v 0.096668 0.462494 0.452748
v 0.096668 0.462494 0.454438
v 0.096668 0.462494 0.452748
v 0.096668 0.462494 0.452748
v 0.095211 0.462306 0.452748
v 0.095211 0.462306 0.454438
v 0.095211 0.462306 0.454438
v 0.095211 0.462306 0.452748
v 0.095211 0.462306 0.452748
v 0.093765 0.462308 0.454438
v 0.093765 0.462308 0.452748
v 0.093765 0.462308 0.454438
v 0.093765 0.462308 0.452748
v 0.093765 0.462308 0.452748
v 0.092357 0.462501 0.454438
v 0.092357 0.462501 0.452748
v 0.092357 0.462501 0.454438
v 0.092357 0.462501 0.452748
v 0.092357 0.462501 0.452748
v 0.091009 0.462881 0.452748
v 0.091009 0.462881 0.454438
v 0.091009 0.462881 0.454438
v 0.091009 0.462881 0.452748
v 0.091009 0.462881 0.452748
v 0.089746 0.463441 0.454438
v 0.089746 0.463441 0.452748
v 0.089746 0.463441 0.454438
v 0.089746 0.463441 0.452748
v 0.089746 0.463441 0.452748
v 0.088588 0.464172 0.454438
v 0.088588 0.464172 0.452748
v 0.088588 0.464172 0.454438
v 0.088588 0.464172 0.452748
v 0.088588 0.464172 0.452748
v 0.087747 0.464870 0.454438
v 0.087747 0.464870 0.452748
v 0.087747 0.464870 0.454438
v 0.087747 0.464870 0.452748
v 0.087747 0.464870 0.452748
v 0.087747 0.464870 0.476407
v 0.087556 0.465061 0.454438
v 0.087747 0.464870 0.454438
v 0.087556 0.465061 0.476407
v 0.087556 0.465061 0.476407
v 0.087747 0.464870 0.476407
v 0.087556 0.465061 0.454438
v 0.087747 0.464870 0.454438
v 0.087747 0.464870 0.476407
v 0.087556 0.465061 0.476407
v 0.087556 0.465061 0.452748
v 0.087747 0.464870 0.454438
v 0.087747 0.464870 0.452748
v 0.087556 0.465061 0.454438
v 0.087556 0.465061 0.454438
v 0.087556 0.465061 0.452748
v 0.087747 0.464870 0.454438
v 0.087747 0.464870 0.452748
v 0.087556 0.465061 0.452748
v 0.086667 0.466093 0.452748
v 0.087556 0.465061 0.454438
v 0.087556 0.465061 0.452748
v 0.086667 0.466093 0.454438
v 0.086667 0.466093 0.454438
v 0.086667 0.466093 0.452748
v 0.087556 0.465061 0.454438
v 0.087556 0.465061 0.452748
v 0.086667 0.466093 0.452748
v 0.085936 0.467251 0.452748
v 0.085936 0.467251 0.454438
v 0.085936 0.467251 0.454438
v 0.085936 0.467251 0.452748
v 0.085936 0.467251 0.452748
v 0.085376 0.468514 0.452748
v 0.085376 0.468514 0.454438
v 0.085376 0.468514 0.454438
v 0.085376 0.468514 0.452748
v 0.085376 0.468514 0.452748
v 0.084996 0.469862 0.452748
v 0.084996 0.469862 0.454438
v 0.084996 0.469862 0.454438
v 0.084996 0.469862 0.452748
v 0.084996 0.469862 0.452748
v 0.084803 0.471270 0.452748
v 0.084803 0.471270 0.454438
v 0.084803 0.471270 0.454438
v 0.084803 0.471270 0.452748
v 0.084803 0.471270 0.452748
v 0.084801 0.472716 0.452748
v 0.084801 0.472716 0.454438
v 0.084801 0.472716 0.454438
v 0.084801 0.472716 0.452748
v 0.084801 0.472716 0.452748
v 0.084989 0.474173 0.452748
v 0.084989 0.474173 0.454438
v 0.084989 0.474173 0.454438
v 0.084989 0.474173 0.452748
v 0.084989 0.474173 0.452748
v 0.085363 0.475618 0.452748
v 0.085363 0.475618 0.454438
v 0.085363 0.475618 0.454438
v 0.085363 0.475618 0.452748
v 0.085363 0.475618 0.452748
v 0.085919 0.477025 0.452748
v 0.085919 0.477025 0.454438
v 0.085919 0.477025 0.454438
v 0.085919 0.477025 0.452748
v 0.085919 0.477025 0.452748
v 0.086645 0.478371 0.452748
v 0.086645 0.478371 0.454438
v 0.086645 0.478371 0.454438
v 0.086645 0.478371 0.452748
v 0.086645 0.478371 0.452748
v 0.087531 0.479631 0.452748
v 0.087531 0.479631 0.454438
v 0.087531 0.479631 0.454438
v 0.087531 0.479631 0.452748
v 0.087531 0.479631 0.452748
v 0.088560 0.480786 0.452748
v 0.088560 0.480786 0.454438
v 0.088560 0.480786 0.454438
v 0.088560 0.480786 0.452748
v 0.088560 0.480786 0.452748
v 0.107679 0.499905 0.452748
v 0.088560 0.480786 0.454438
v 0.088560 0.480786 0.452748
v 0.107679 0.499905 0.454438
v 0.107679 0.499905 0.454438
v 0.107679 0.499905 0.452748
v 0.088560 0.480786 0.454438
v 0.088560 0.480786 0.452748
v 0.107679 0.499905 0.452748
v 0.108833 0.500934 0.454438
v 0.107679 0.499905 0.452748
v 0.108833 0.500934 0.452748
v 0.107679 0.499905 0.454438
v 0.107679 0.499905 0.454438
v 0.108833 0.500934 0.454438
v 0.107679 0.499905 0.452748
v 0.108833 0.500934 0.452748
v 0.108833 0.500934 0.452748
vn 0 0 -1
vn 0 0 1
vn -0.5338077003485499 -0.8456059005521385 0
vn -0.4707754755526632 -0.8822530541846619 0
vn 0.4707754755526632 0.8822530541846619 0
vn 0.5338077003485499 0.8456059005521385 0
vn 0.42189662056772026 -0.9066439441994509 0
vn 0.47513402151037243 -0.8799134398356357 0
vn -0.47513402151037243 0.8799134398356357 0
vn -0.42189662056772026 0.9066439441994509 0
vn 0.3097248132652849 -0.9508262407231851 0
vn -0.3097248132652849 0.9508262407231851 0
vn 0.18983070726816897 -0.9818168375914456 0
vn -0.18983070726816897 0.9818168375914456 0
vn 0.06316172032578032 -0.9980033051475772 0
vn -0.06316172032578032 0.9980033051475772 0
vn -0.06879378011001852 -0.9976309015954622 0
vn 0.06879378011001852 0.9976309015954622 0
vn -0.20385430762110054 -0.9790012365999962 0
vn 0.20385430762110054 0.9790012365999962 0
vn -0.33906849595166794 -0.9407616887677099 0
vn 0.33906849595166794 0.9407616887677099 0
vn -0.5948473101317429 -0.8038387136913911 0
vn 0.5948473101317429 0.8038387136913911 0
vn 0.5257644877464567 -0.8506301801750898 0
vn -0.5257644877464567 0.8506301801750898 0
vn -0.6526328846491284 -0.7576742821784025 0
vn 0.6526328846491284 0.7576742821784025 0
vn -0.7071067811865476 -0.7071067811865476 0
vn 0.7071067811865476 0.7071067811865476 0
vn -0.7695372835415601 -0.6386018863419343 0
vn -0.8092696063111214 -0.5874374045811541 0
vn 0.7695372835415601 0.6386018863419343 0
vn 0.8092696063111214 0.5874374045811541 0
vn -0.8822530541846619 -0.4707754755526632 0
vn 0.8822530541846619 0.4707754755526632 0
vn -0.9407616887677099 -0.33906849595166794 0
vn 0.9407616887677099 0.33906849595166794 0
vn -0.9790012365999962 -0.20385430762110054 0
vn 0.9790012365999962 0.20385430762110054 0
vn -0.9976309015954622 -0.06879378011001852 0
vn 0.9976309015954622 0.06879378011001852 0
vn -0.9980033051475772 0.06316172032578032 0
vn 0.9980033051475772 -0.06316172032578032 0
vn -0.9818168375914456 0.18983070726816897 0
vn 0.9818168375914456 -0.18983070726816897 0
vn -0.9508262407231851 0.3097248132652849 0
vn 0.9508262407231851 -0.3097248132652849 0
vn -0.9066439441994509 0.42189662056772026 0
vn 0.9066439441994509 -0.42189662056772026 0
vn -0.8506301801750898 0.5257644877464567 0
vn 0.8506301801750898 -0.5257644877464567 0
vn -0.7838543839868546 0.6209446873148919 0
vn 0.7838543839868546 -0.6209446873148919 0
vn -0.7466505145512854 0.6652165129642384 0
vn 0.7466505145512854 -0.6652165129642384 0
vn -0.7071067811865476 0.7071067811865476 0
vn 0.7071067811865476 -0.7071067811865476 0
vn -0.6209446873148919 0.7838543839868546 0
vn -0.6652165129642384 0.7466505145512854 0
vn 0.6652165129642384 -0.7466505145512854 0
vn 0.6209446873148919 -0.7838543839868546 0
vn 0.5874374045811541 0.8092696063111214 0
vn -0.5874374045811541 -0.8092696063111214 0
vn 0.6386018863419343 0.7695372835415601 0
vn -0.6386018863419343 -0.7695372835415601 0
vn 0.8038387136913911 0.5948473101317429 0
vn 0.7576742821784025 0.6526328846491284 0
vn -0.8038387136913911 -0.5948473101317429 0
vn -0.7576742821784025 -0.6526328846491284 0
usemtl material_0_0
f 1//1 2//1 3//1
f 2//1 1//1 4//1
f 2//1 4//1 5//1
f 2//1 5//1 6//1
f 2//1 6//1 7//1
f 2//1 7//1 8//1
f 2//1 8//1 9//1
f 2//1 9//1 10//1
f 11//2 12//2 13//2
f 12//2 14//2 13//2
f 14//2 15//2 13//2
f 15//2 16//2 13//2
f 16//2 17//2 13//2
f 17//2 18//2 13//2
f 18//2 19//2 13//2
f 20//2 13//2 19//2
f 31//3 32//4 33//3
f 32//4 31//3 34//4
f 35//5 36//6 37//5
f 38//6 37//5 36//6
f 41//1 42//1 43//1
f 42//1 41//1 44//1
f 44//1 41//1 45//1
f 44//1 45//1 46//1
f 46//1 45//1 47//1
f 46//1 47//1 48//1
f 48//1 47//1 49//1
f 48//1 49//1 50//1
f 50//1 49//1 51//1
f 50//1 51//1 52//1
f 52//1 51//1 53//1
f 52//1 53//1 54//1
f 54//1 53//1 55//1
f 55//1 53//1 56//1
f 55//1 56//1 57//1
f 57//1 56//1 58//1
f 58//1 56//1 59//1
f 59//1 56//1 60//1
f 60//1 56//1 61//1
f 61//1 56//1 62//1
f 62//1 56//1 63//1
f 63//1 56//1 64//1
f 64//1 56//1 65//1
f 65//1 56//1 66//1
f 66//1 56//1 67//1
f 67//1 56//1 68//1
f 68//1 56//1 69//1
f 68//1 69//1 70//1
f 68//1 70//1 71//1
f 68//1 71//1 72//1
f 68//1 72//1 73//1
f 68//1 73//1 74//1
f 68//1 74//1 75//1
f 75//1 74//1 76//1
f 75//1 76//1 77//1
f 77//1 76//1 78//1
f 77//1 78//1 79//1
f 77//1 79//1 80//1
f 80//1 79//1 81//1
f 80//1 81//1 82//1
f 82//1 81//1 83//1
f 82//1 83//1 84//1
f 84//1 83//1 85//1
f 84//1 85//1 86//1
f 87//2 88//2 89//2
f 88//2 90//2 89//2
f 89//2 90//2 91//2
f 90//2 92//2 91//2
f 91//2 92//2 93//2
f 92//2 94//2 93//2
f 93//2 94//2 95//2
f 94//2 96//2 95//2
f 96//2 97//2 95//2
f 95//2 97//2 98//2
f 97//2 99//2 98//2
f 98//2 99//2 100//2
f 99//2 101//2 100//2
f 101//2 102//2 100//2
f 102//2 103//2 100//2
f 103//2 104//2 100//2
f 104//2 105//2 100//2
f 105//2 106//2 100//2
f 100//2 106//2 107//2
f 107//2 106//2 108//2
f 108//2 106//2 109//2
f 109//2 106//2 110//2
f 110//2 106//2 111//2
f 111//2 106//2 112//2
f 112//2 106//2 113//2
f 113//2 106//2 114//2
f 114//2 106//2 115//2
f 115//2 106//2 116//2
f 116//2 106//2 117//2
f 117//2 106//2 118//2
f 106//2 119//2 118//2
f 118//2 119//2 120//2
f 120//2 119//2 121//2
f 119//2 122//2 121//2
f 121//2 122//2 123//2
f 122//2 124//2 123//2
f 123//2 124//2 125//2
f 124//2 126//2 125//2
f 125//2 126//2 127//2
f 126//2 128//2 127//2
f 127//2 128//2 129//2
f 128//2 130//2 129//2
f 129//2 130//2 131//2
f 132//2 131//2 130//2
f 177//7 178//8 179//7
f 178//8 177//7 180//8
f 181//9 182//10 183//9
f 184//10 183//9 182//10
f 187//11 177//7 179//7
f 177//7 187//11 188//11
f 189//12 190//12 182//10
f 184//10 182//10 190//12
f 192//13 187//11 193//13
f 187//11 192//13 188//11
f 189//12 194//14 190//12
f 195//14 190//12 194//14
f 197//15 192//13 193//13
f 192//13 197//15 198//15
f 199//16 200//16 194//14
f 195//14 194//14 200//16
f 202//17 197//15 203//17
f 197//15 202//17 198//15
f 199//16 204//18 200//16
f 205//18 200//16 204//18
f 207//19 202//17 203//17
f 202//17 207//19 208//19
f 209//20 210//20 204//18
f 205//18 204//18 210//20
f 212//21 207//19 213//21
f 207//19 212//21 208//19
f 209//20 214//22 210//20
f 215//22 210//20 214//22
f 34//4 213//21 32//4
f 213//21 34//4 212//21
f 214//22 35//5 215//22
f 37//5 215//22 35//5
f 217//23 218//3 219//23
f 218//3 217//23 220//3
f 221//6 222//24 223//6
f 224//24 223//6 222//24
f 226//8 227//25 228//25
f 227//25 226//8 229//8
f 230//9 231//9 232//26
f 233//26 232//26 231//9
f 235//27 217//23 219//23
f 217//23 235//27 236//27
f 237//28 238//28 222//24
f 224//24 222//24 238//28
f 240//29 241//29 242//29
f 241//29 240//29 243//29
f 244//30 245//30 246//30
f 247//30 246//30 245//30
f 249//31 250//32 251//32
f 250//32 249//31 252//31
f 253//33 254//33 255//34
f 256//34 255//34 254//33
f 251//32 258//35 259//35
f 258//35 251//32 250//32
f 255//34 256//34 260//36
f 261//36 260//36 256//34
f 259//35 263//37 264//37
f 263//37 259//35 258//35
f 260//36 261//36 265//38
f 266//38 265//38 261//36
f 264//37 268//39 269//39
f 268//39 264//37 263//37
f 265//38 266//38 270//40
f 271//40 270//40 266//38
f 269//39 273//41 274//41
f 273//41 269//39 268//39
f 270//40 271//40 275//42
f 276//42 275//42 271//40
f 274//41 278//43 279//43
f 278//43 274//41 273//41
f 275//42 276//42 280//44
f 281//44 280//44 276//42
f 279//43 283//45 284//45
f 283//45 279//43 278//43
f 280//44 281//44 285//46
f 286//46 285//46 281//44
f 284//45 288//47 289//47
f 288//47 284//45 283//45
f 285//46 286//46 290//48
f 291//48 290//48 286//46
f 289//47 293//49 294//49
f 293//49 289//47 288//47
f 290//48 291//48 295//50
f 296//50 295//50 291//48
f 294//49 298//51 299//51
f 298//51 294//49 293//49
f 295//50 296//50 300//52
f 301//52 300//52 296//50
f 299//51 303//53 304//53
f 303//53 299//51 298//51
f 300//52 301//52 305//54
f 306//54 305//54 301//52
f 304//53 308//55 309//55
f 308//55 304//53 303//53
f 305//54 306//54 310//56
f 311//56 310//56 306//54
f 313//57 314//57 315//57
f 314//57 313//57 316//57
f 317//58 318//58 319//58
f 320//58 319//58 318//58
f 322//59 323//60 324//59
f 323//60 322//59 325//60
f 326//61 327//62 328//61
f 329//62 328//61 327//62
f 331//26 322//59 324//59
f 322//59 331//26 332//26
f 333//25 334//25 327//62
f 329//62 327//62 334//25
f 336//10 331//26 337//10
f 331//26 336//10 332//26
f 333//25 338//7 334//25
f 339//7 334//25 338//7
f 341//12 336//10 337//10
f 336//10 341//12 342//12
f 343//11 344//11 338//7
f 339//7 338//7 344//11
f 346//14 341//12 347//14
f 341//12 346//14 342//12
f 343//11 348//13 344//11
f 349//13 344//11 348//13
f 351//16 346//14 347//14
f 346//14 351//16 352//16
f 353//15 354//15 348//13
f 349//13 348//13 354//15
f 356//18 351//16 357//18
f 351//16 356//18 352//16
f 353//15 358//17 354//15
f 359//17 354//15 358//17
f 361//20 357//18 362//20
f 357//18 361//20 356//18
f 358//17 363//19 359//17
f 364//19 359//17 363//19
f 366//22 361//20 362//20
f 361//20 366//22 367//22
f 368//21 369//21 363//19
f 364//19 363//19 369//21
f 371//5 366//22 372//5
f 366//22 371//5 367//22
f 368//21 373//4 369//21
f 374//4 369//21 373//4
f 376//63 372//5 377//63
f 372//5 376//63 371//5
f 373//4 378//64 374//4
f 379//64 374//4 378//64
f 381//65 377//63 382//65
f 377//63 381//65 376//63
f 378//64 383//66 379//64
f 384//66 379//64 383//66
f 386//29 387//29 388//29
f 387//29 386//29 389//29
f 390//30 391//30 392//30
f 393//30 392//30 391//30
f 396//30 397//30 398//30
f 397//30 396//30 399//30
f 400//29 401//29 402//29
f 403//29 402//29 401//29
f 405//67 406//68 407//68
f 406//68 405//67 408//67
f 409//69 410//69 411//70
f 412//70 411//70 410//69
f 414//36 408//67 405//67
f 408//67 414//36 415//36
f 416//35 417//35 409//69
f 410//69 409//69 417//35
f 419//38 415//36 414//36
f 415//36 419//38 420//38
f 421//37 422//37 416//35
f 417//35 416//35 422//37
f 424//40 420//38 419//38
f 420//38 424//40 425//40
f 426//39 427//39 421//37
f 422//37 421//37 427//39
f 429//42 425//40 424//40
f 425//40 429//42 430//42
f 431//41 432//41 426//39
f 427//39 426//39 432//41
f 434//44 430//42 429//42
f 430//42 434//44 435//44
f 436//43 437//43 431//41
f 432//41 431//41 437//43
f 439//46 435//44 434//44
f 435//44 439//46 440//46
f 441//45 442//45 436//43
f 437//43 436//43 442//45
f 444//48 440//46 439//46
f 440//46 444//48 445//48
f 446//47 447//47 441//45
f 442//45 441//45 447//47
f 449//50 445//48 444//48
f 445//48 449//50 450//50
f 451//49 452//49 446//47
f 447//47 446//47 452//49
f 454//52 450//50 449//50
f 450//50 454//52 455//52
f 456//51 457//51 451//49
f 452//49 451//49 457//51
f 459//54 455//52 454//52
f 455//52 459//54 460//54
f 461//53 462//53 456//51
f 457//51 456//51 462//53
f 464//56 460//54 459//54
f 460//54 464//56 465//56
f 466//55 467//55 461//53
f 462//53 461//53 467//55
f 469//58 470//58 471//58
f 470//58 469//58 472//58
f 473//57 474//57 475//57
f 476//57 475//57 474//57
f 478//62 479//61 480//62
f 479//61 478//62 481//61
f 482//60 483//59 484//60
f 485//59 484//60 483//59
f 228//25 478//62 480//62
f 478//62 228//25 227//25
f 232//26 233//26 483//59
f 485//59 483//59 233//26
usemtl material_1_0
