# SSTK version 0.8.0
# 7
mtllib original-7.mtl
o #ID366
v -0.505142 -0.633198 0.435849
v -0.302482 -0.181322 0.435849
v -0.505142 0.390883 0.435849
v -0.295451 -0.200228 0.435849
v -0.287247 -0.218655 0.435849
v -0.277902 -0.236530 0.435849
v -0.267453 -0.253784 0.435849
v -0.255941 -0.270347 0.435849
v -0.243412 -0.286154 0.435849
v -0.229915 -0.301145 0.435849
v -0.215503 -0.315257 0.435849
v -0.200234 -0.328437 0.435849
v -0.184167 -0.340633 0.435849
v -0.167367 -0.351795 0.435849
v -0.149898 -0.361880 0.435849
v -0.131831 -0.370849 0.435849
v -0.113236 -0.378665 0.435849
v 0.508800 -0.633198 0.435849
v -0.308312 -0.162012 0.435849
v -0.312918 -0.142374 0.435849
v -0.316282 -0.122486 0.435849
v -0.318390 -0.102425 0.435849
v -0.319235 -0.082272 0.435849
v -0.094187 -0.385299 0.435849
v -0.074760 -0.390723 0.435849
v -0.055030 -0.394917 0.435849
v -0.035075 -0.397864 0.435849
v -0.014975 -0.399552 0.435849
v 0.005192 -0.399974 0.435849
v 0.025345 -0.399129 0.435849
v 0.045405 -0.397021 0.435849
v 0.065293 -0.393657 0.435849
v 0.084931 -0.389051 0.435849
v 0.104241 -0.383221 0.435849
v 0.123147 -0.376190 0.435849
v 0.141574 -0.367986 0.435849
v 0.159449 -0.358641 0.435849
v 0.176703 -0.348192 0.435849
v 0.193266 -0.336680 0.435849
v 0.209074 -0.324151 0.435849
v 0.224063 -0.310654 0.435849
v 0.238176 -0.296242 0.435849
v 0.251356 -0.280973 0.435849
v 0.263552 -0.264906 0.435849
v 0.274714 -0.248106 0.435849
v 0.284799 -0.230638 0.435849
v 0.293768 -0.212570 0.435849
v 0.301585 -0.193975 0.435849
v 0.308218 -0.174927 0.435849
v 0.313642 -0.155499 0.435849
v 0.317836 -0.135769 0.435849
v 0.320783 -0.115814 0.435849
v 0.322471 -0.095714 0.435849
v 0.322893 -0.075548 0.435849
v 0.508800 0.390883 0.435849
v -0.081273 0.231231 0.435849
v -0.100583 0.225401 0.435849
v -0.119489 0.218370 0.435849
v -0.137916 0.210166 0.435849
v -0.155791 0.200821 0.435849
v -0.173044 0.190372 0.435849
v -0.189608 0.178860 0.435849
v -0.205415 0.166331 0.435849
v -0.220405 0.152834 0.435849
v -0.234518 0.138422 0.435849
v -0.247698 0.123153 0.435849
v -0.259893 0.107087 0.435849
v -0.271056 0.090286 0.435849
v -0.281141 0.072817 0.435849
v -0.290110 0.054750 0.435849
v -0.297926 0.036155 0.435849
v -0.304560 0.017106 0.435849
v -0.309984 -0.002321 0.435849
v -0.314178 -0.022051 0.435849
v -0.317125 -0.042006 0.435849
v -0.318812 -0.062106 0.435849
v -0.061635 0.235837 0.435849
v -0.041747 0.239201 0.435849
v -0.021686 0.241309 0.435849
v -0.001533 0.242154 0.435849
v 0.018633 0.241732 0.435849
v 0.038733 0.240044 0.435849
v 0.058688 0.237097 0.435849
v 0.078418 0.232903 0.435849
v 0.097845 0.227479 0.435849
v 0.116894 0.220846 0.435849
v 0.135489 0.213029 0.435849
v 0.153556 0.204060 0.435849
v 0.171025 0.193975 0.435849
v 0.187826 0.182813 0.435849
v 0.203892 0.170617 0.435849
v 0.219162 0.157437 0.435849
v 0.233573 0.143324 0.435849
v 0.247070 0.128335 0.435849
v 0.259599 0.112527 0.435849
v 0.271111 0.095963 0.435849
v 0.281560 0.078710 0.435849
v 0.290905 0.060835 0.435849
v 0.299109 0.042408 0.435849
v 0.306140 0.023502 0.435849
v 0.311970 0.004192 0.435849
v 0.316576 -0.015446 0.435849
v 0.319940 -0.035334 0.435849
v 0.322048 -0.055394 0.435849
v 0.322893 -0.075548 0.435849
v 0.322048 -0.055394 0.435849
v 0.508800 0.390883 0.435849
v 0.319940 -0.035334 0.435849
v 0.316576 -0.015446 0.435849
v 0.311970 0.004192 0.435849
v 0.306140 0.023502 0.435849
v 0.299109 0.042408 0.435849
v 0.290905 0.060835 0.435849
v 0.281560 0.078710 0.435849
v 0.271111 0.095963 0.435849
v 0.259599 0.112527 0.435849
v 0.247070 0.128335 0.435849
v 0.233573 0.143324 0.435849
v 0.219162 0.157437 0.435849
v 0.203892 0.170617 0.435849
v 0.187826 0.182813 0.435849
v 0.171025 0.193975 0.435849
v 0.153556 0.204060 0.435849
v 0.135489 0.213029 0.435849
v 0.116894 0.220846 0.435849
v 0.097845 0.227479 0.435849
v 0.078418 0.232903 0.435849
v 0.058688 0.237097 0.435849
v 0.038733 0.240044 0.435849
v 0.018633 0.241732 0.435849
v -0.001533 0.242154 0.435849
v -0.021686 0.241309 0.435849
v -0.041747 0.239201 0.435849
v -0.061635 0.235837 0.435849
v -0.081273 0.231231 0.435849
v -0.319235 -0.082272 0.435849
v -0.505142 0.390883 0.435849
v -0.318812 -0.062106 0.435849
v -0.317125 -0.042006 0.435849
v -0.314178 -0.022051 0.435849
v -0.309984 -0.002321 0.435849
v -0.304560 0.017106 0.435849
v -0.297926 0.036155 0.435849
v -0.290110 0.054750 0.435849
v -0.281141 0.072817 0.435849
v -0.271056 0.090286 0.435849
v -0.259893 0.107087 0.435849
v -0.247698 0.123153 0.435849
v -0.234518 0.138422 0.435849
v -0.220405 0.152834 0.435849
v -0.205415 0.166331 0.435849
v -0.189608 0.178860 0.435849
v -0.173044 0.190372 0.435849
v -0.155791 0.200821 0.435849
v -0.137916 0.210166 0.435849
v -0.119489 0.218370 0.435849
v -0.100583 0.225401 0.435849
v 0.508800 -0.633198 0.435849
v 0.322471 -0.095714 0.435849
v 0.320783 -0.115814 0.435849
v 0.317836 -0.135769 0.435849
v 0.313642 -0.155499 0.435849
v 0.308218 -0.174927 0.435849
v 0.301585 -0.193975 0.435849
v 0.293768 -0.212570 0.435849
v 0.284799 -0.230638 0.435849
v 0.274714 -0.248106 0.435849
v 0.263552 -0.264906 0.435849
v 0.251356 -0.280973 0.435849
v 0.238176 -0.296242 0.435849
v 0.224063 -0.310654 0.435849
v 0.209074 -0.324151 0.435849
v 0.193266 -0.336680 0.435849
v 0.176703 -0.348192 0.435849
v 0.159449 -0.358641 0.435849
v 0.141574 -0.367986 0.435849
v 0.123147 -0.376190 0.435849
v 0.104241 -0.383221 0.435849
v 0.084931 -0.389051 0.435849
v 0.065293 -0.393657 0.435849
v 0.045405 -0.397021 0.435849
v 0.025345 -0.399129 0.435849
v 0.005192 -0.399974 0.435849
v -0.014975 -0.399552 0.435849
v -0.035075 -0.397864 0.435849
v -0.055030 -0.394917 0.435849
v -0.074760 -0.390723 0.435849
v -0.094187 -0.385299 0.435849
v -0.113236 -0.378665 0.435849
v -0.318390 -0.102425 0.435849
v -0.316282 -0.122486 0.435849
v -0.312918 -0.142374 0.435849
v -0.308312 -0.162012 0.435849
v -0.302482 -0.181322 0.435849
v -0.505142 -0.633198 0.435849
v -0.131831 -0.370849 0.435849
v -0.149898 -0.361880 0.435849
v -0.167367 -0.351795 0.435849
v -0.184167 -0.340633 0.435849
v -0.200234 -0.328437 0.435849
v -0.215503 -0.315257 0.435849
v -0.229915 -0.301145 0.435849
v -0.243412 -0.286154 0.435849
v -0.255941 -0.270347 0.435849
v -0.267453 -0.253784 0.435849
v -0.277902 -0.236530 0.435849
v -0.287247 -0.218655 0.435849
v -0.295451 -0.200228 0.435849
v 0.508800 0.390883 0.435849
v 0.508800 -0.633198 0.435849
v -0.505142 0.390883 0.435849
v -0.505142 -0.633198 0.435849
v 0.005192 -0.399974 0.435849
v 0.025345 -0.399129 0.435849
v -0.014975 -0.399552 0.435849
v -0.035075 -0.397864 0.435849
v -0.055030 -0.394917 0.435849
v -0.074760 -0.390723 0.435849
v -0.094187 -0.385299 0.435849
v -0.113236 -0.378665 0.435849
v -0.131831 -0.370849 0.435849
v -0.149898 -0.361880 0.435849
v -0.167367 -0.351795 0.435849
v -0.184167 -0.340633 0.435849
v -0.200234 -0.328437 0.435849
v -0.215503 -0.315257 0.435849
v -0.229915 -0.301145 0.435849
v -0.243412 -0.286154 0.435849
v -0.255941 -0.270347 0.435849
v -0.267453 -0.253784 0.435849
v -0.277902 -0.236530 0.435849
v -0.287247 -0.218655 0.435849
v -0.295451 -0.200228 0.435849
v -0.302482 -0.181322 0.435849
v -0.308312 -0.162012 0.435849
v -0.312918 -0.142374 0.435849
v -0.316282 -0.122486 0.435849
v -0.318390 -0.102425 0.435849
v -0.319235 -0.082272 0.435849
v -0.318812 -0.062106 0.435849
v -0.317125 -0.042006 0.435849
v -0.314178 -0.022051 0.435849
v -0.309984 -0.002321 0.435849
v -0.304560 0.017106 0.435849
v -0.297926 0.036155 0.435849
v -0.290110 0.054750 0.435849
v -0.281141 0.072817 0.435849
v -0.271056 0.090286 0.435849
v -0.259893 0.107087 0.435849
v -0.247698 0.123153 0.435849
v -0.234518 0.138422 0.435849
v -0.220405 0.152834 0.435849
v -0.205415 0.166331 0.435849
v -0.189608 0.178860 0.435849
v -0.173044 0.190372 0.435849
v -0.155791 0.200821 0.435849
v -0.137916 0.210166 0.435849
v -0.119489 0.218370 0.435849
v -0.100583 0.225401 0.435849
v -0.081273 0.231231 0.435849
v -0.061635 0.235837 0.435849
v -0.041747 0.239201 0.435849
v -0.021686 0.241309 0.435849
v -0.001533 0.242154 0.435849
v 0.018633 0.241732 0.435849
v 0.038733 0.240044 0.435849
v 0.058688 0.237097 0.435849
v 0.078418 0.232903 0.435849
v 0.097845 0.227479 0.435849
v 0.116894 0.220846 0.435849
v 0.135489 0.213029 0.435849
v 0.153556 0.204060 0.435849
v 0.171025 0.193975 0.435849
v 0.187826 0.182813 0.435849
v 0.203892 0.170617 0.435849
v 0.219162 0.157437 0.435849
v 0.233573 0.143324 0.435849
v 0.247070 0.128335 0.435849
v 0.259599 0.112527 0.435849
v 0.271111 0.095963 0.435849
v 0.281560 0.078710 0.435849
v 0.290905 0.060835 0.435849
v 0.299109 0.042408 0.435849
v 0.306140 0.023502 0.435849
v 0.311970 0.004192 0.435849
v 0.316576 -0.015446 0.435849
v 0.319940 -0.035334 0.435849
v 0.322048 -0.055394 0.435849
v 0.322893 -0.075548 0.435849
v 0.322471 -0.095714 0.435849
v 0.320783 -0.115814 0.435849
v 0.317836 -0.135769 0.435849
v 0.313642 -0.155499 0.435849
v 0.308218 -0.174927 0.435849
v 0.301585 -0.193975 0.435849
v 0.293768 -0.212570 0.435849
v 0.284799 -0.230638 0.435849
v 0.274714 -0.248106 0.435849
v 0.263552 -0.264906 0.435849
v 0.251356 -0.280973 0.435849
v 0.238176 -0.296242 0.435849
v 0.224063 -0.310654 0.435849
v 0.209074 -0.324151 0.435849
v 0.193266 -0.336680 0.435849
v 0.176703 -0.348192 0.435849
v 0.159449 -0.358641 0.435849
v 0.141574 -0.367986 0.435849
v 0.123147 -0.376190 0.435849
v 0.104241 -0.383221 0.435849
v 0.084931 -0.389051 0.435849
v 0.065293 -0.393657 0.435849
v 0.045405 -0.397021 0.435849
v -0.505142 0.390883 0.435849
v -0.505142 -0.633198 0.418950
v -0.505142 -0.633198 0.435849
v -0.505142 -0.641648 0.427400
v -0.505142 -0.776840 -0.493598
v -0.505142 -0.776840 0.427400
v -0.505142 -0.641648 0.418950
v -0.505142 0.608880 -0.493598
v -0.505142 0.602121 0.435849
v -0.505142 0.608880 0.435849
v -0.505142 0.608880 0.435849
v -0.505142 0.602121 0.435849
v -0.505142 0.608880 -0.493598
v -0.505142 0.390883 0.435849
v -0.505142 -0.633198 0.418950
v -0.505142 -0.641648 0.418950
v -0.505142 -0.776840 -0.493598
v -0.505142 -0.641648 0.427400
v -0.505142 -0.776840 0.427400
v -0.505142 -0.633198 0.435849
v -0.505142 0.608880 0.435849
v -0.505142 0.608880 -0.493598
v -0.505142 -0.776840 -0.493598
v -0.505142 -0.776840 0.427400
v -0.505142 -0.641648 0.427400
v -0.505142 -0.641648 0.418950
v -0.505142 -0.633198 0.418950
v -0.505142 0.602121 0.435849
v 0.508800 -0.633198 0.435849
v -0.505142 -0.633198 0.418950
v 0.508800 -0.633198 0.418950
v -0.505142 -0.633198 0.435849
v -0.505142 -0.633198 0.435849
v 0.508800 -0.633198 0.435849
v -0.505142 -0.633198 0.418950
v 0.508800 -0.633198 0.418950
v 0.508800 -0.633198 0.418950
v -0.505142 0.608880 -0.493598
v 0.508800 0.608880 0.417260
v 0.508800 0.608880 -0.493598
v -0.505142 0.608880 0.435849
v 0.508800 0.608880 0.435849
v 0.508800 0.608880 0.435849
v -0.505142 0.608880 0.435849
v 0.508800 0.608880 0.417260
v -0.505142 0.608880 -0.493598
v 0.508800 0.608880 -0.493598
v 0.508800 0.608880 -0.493598
v 0.508800 0.608880 0.435849
v 0.508800 0.608880 0.417260
v -0.505142 0.608880 -0.493598
v -0.327706 0.431445 -0.493598
v -0.505142 -0.776840 -0.493598
v 0.508800 0.608880 -0.493598
v 0.331365 0.431445 -0.493598
v 0.331365 -0.599404 -0.493598
v -0.327706 -0.599404 -0.493598
v 0.508800 -0.776840 -0.493598
v 0.508800 0.608880 -0.493598
v 0.331365 -0.599404 -0.493598
v 0.508800 -0.776840 -0.493598
v -0.327706 -0.599404 -0.493598
v -0.327706 0.431445 -0.493598
v -0.505142 -0.776840 -0.493598
v 0.331365 0.431445 -0.493598
v -0.505142 0.608880 -0.493598
v 0.508800 -0.776840 -0.493598
v -0.327706 0.431445 -0.493598
v 0.331365 0.431445 -0.493598
v -0.327706 -0.599404 -0.493598
v 0.331365 -0.599404 -0.493598
v 0.508800 -0.776840 0.427400
v -0.505142 -0.776840 -0.493598
v 0.508800 -0.776840 -0.493598
v -0.505142 -0.776840 0.427400
v -0.505142 -0.776840 0.427400
v 0.508800 -0.776840 0.427400
v -0.505142 -0.776840 -0.493598
v 0.508800 -0.776840 -0.493598
v 0.508800 -0.776840 0.427400
v 0.508800 -0.776840 0.427400
v -0.505142 -0.641648 0.427400
v -0.505142 -0.776840 0.427400
v 0.508800 -0.641648 0.427400
v 0.508800 -0.641648 0.427400
v 0.508800 -0.776840 0.427400
v -0.505142 -0.641648 0.427400
v -0.505142 -0.776840 0.427400
v 0.508800 -0.641648 0.427400
v -0.505142 -0.641648 0.418950
v 0.508800 -0.641648 0.427400
v 0.508800 -0.641648 0.418950
v -0.505142 -0.641648 0.427400
v -0.505142 -0.641648 0.427400
v -0.505142 -0.641648 0.418950
v 0.508800 -0.641648 0.427400
v 0.508800 -0.641648 0.418950
v 0.508800 -0.641648 0.418950
v 0.508800 -0.641648 0.418950
v -0.505142 -0.633198 0.418950
v -0.505142 -0.641648 0.418950
v 0.508800 -0.633198 0.418950
v 0.508800 -0.633198 0.418950
v 0.508800 -0.641648 0.418950
v -0.505142 -0.633198 0.418950
v -0.505142 -0.641648 0.418950
v -0.505142 0.602121 0.435849
v 0.508800 0.608880 0.435849
v -0.505142 0.608880 0.435849
v 0.508800 0.602121 0.435849
v 0.508800 0.602121 0.435849
v -0.505142 0.602121 0.435849
v 0.508800 0.608880 0.435849
v -0.505142 0.608880 0.435849
v 0.508800 0.602121 0.435849
vn 0 0 1
vn 0 0 -1
vn -1 0 0
vn 1 0 0
vn 0 -1 0
vn 0 1 0
usemtl material_0_0
f 1//1 2//1 3//1
f 2//1 1//1 4//1
f 4//1 1//1 5//1
f 5//1 1//1 6//1
f 6//1 1//1 7//1
f 7//1 1//1 8//1
f 8//1 1//1 9//1
f 9//1 1//1 10//1
f 10//1 1//1 11//1
f 11//1 1//1 12//1
f 12//1 1//1 13//1
f 13//1 1//1 14//1
f 14//1 1//1 15//1
f 15//1 1//1 16//1
f 16//1 1//1 17//1
f 17//1 1//1 18//1
f 3//1 2//1 19//1
f 3//1 19//1 20//1
f 3//1 20//1 21//1
f 3//1 21//1 22//1
f 3//1 22//1 23//1
f 17//1 18//1 24//1
f 24//1 18//1 25//1
f 25//1 18//1 26//1
f 26//1 18//1 27//1
f 27//1 18//1 28//1
f 28//1 18//1 29//1
f 29//1 18//1 30//1
f 30//1 18//1 31//1
f 31//1 18//1 32//1
f 32//1 18//1 33//1
f 33//1 18//1 34//1
f 34//1 18//1 35//1
f 35//1 18//1 36//1
f 36//1 18//1 37//1
f 37//1 18//1 38//1
f 38//1 18//1 39//1
f 39//1 18//1 40//1
f 40//1 18//1 41//1
f 41//1 18//1 42//1
f 42//1 18//1 43//1
f 43//1 18//1 44//1
f 44//1 18//1 45//1
f 45//1 18//1 46//1
f 46//1 18//1 47//1
f 47//1 18//1 48//1
f 48//1 18//1 49//1
f 49//1 18//1 50//1
f 50//1 18//1 51//1
f 51//1 18//1 52//1
f 52//1 18//1 53//1
f 53//1 18//1 54//1
f 54//1 18//1 55//1
f 3//1 56//1 55//1
f 56//1 3//1 57//1
f 57//1 3//1 58//1
f 58//1 3//1 59//1
f 59//1 3//1 60//1
f 60//1 3//1 61//1
f 61//1 3//1 62//1
f 62//1 3//1 63//1
f 63//1 3//1 64//1
f 64//1 3//1 65//1
f 65//1 3//1 66//1
f 66//1 3//1 67//1
f 67//1 3//1 68//1
f 68//1 3//1 69//1
f 69//1 3//1 70//1
f 70//1 3//1 71//1
f 71//1 3//1 72//1
f 72//1 3//1 73//1
f 73//1 3//1 74//1
f 74//1 3//1 75//1
f 75//1 3//1 76//1
f 76//1 3//1 23//1
f 55//1 56//1 77//1
f 55//1 77//1 78//1
f 55//1 78//1 79//1
f 55//1 79//1 80//1
f 55//1 80//1 81//1
f 55//1 81//1 82//1
f 55//1 82//1 83//1
f 55//1 83//1 84//1
f 55//1 84//1 85//1
f 55//1 85//1 86//1
f 55//1 86//1 87//1
f 55//1 87//1 88//1
f 55//1 88//1 89//1
f 55//1 89//1 90//1
f 55//1 90//1 91//1
f 55//1 91//1 92//1
f 55//1 92//1 93//1
f 55//1 93//1 94//1
f 55//1 94//1 95//1
f 55//1 95//1 96//1
f 55//1 96//1 97//1
f 55//1 97//1 98//1
f 55//1 98//1 99//1
f 55//1 99//1 100//1
f 55//1 100//1 101//1
f 55//1 101//1 102//1
f 55//1 102//1 103//1
f 55//1 103//1 104//1
f 55//1 104//1 54//1
f 105//2 106//2 107//2
f 106//2 108//2 107//2
f 108//2 109//2 107//2
f 109//2 110//2 107//2
f 110//2 111//2 107//2
f 111//2 112//2 107//2
f 112//2 113//2 107//2
f 113//2 114//2 107//2
f 114//2 115//2 107//2
f 115//2 116//2 107//2
f 116//2 117//2 107//2
f 117//2 118//2 107//2
f 118//2 119//2 107//2
f 119//2 120//2 107//2
f 120//2 121//2 107//2
f 121//2 122//2 107//2
f 122//2 123//2 107//2
f 123//2 124//2 107//2
f 124//2 125//2 107//2
f 125//2 126//2 107//2
f 126//2 127//2 107//2
f 127//2 128//2 107//2
f 128//2 129//2 107//2
f 129//2 130//2 107//2
f 130//2 131//2 107//2
f 131//2 132//2 107//2
f 132//2 133//2 107//2
f 133//2 134//2 107//2
f 134//2 135//2 107//2
f 136//2 137//2 138//2
f 138//2 137//2 139//2
f 139//2 137//2 140//2
f 140//2 137//2 141//2
f 141//2 137//2 142//2
f 142//2 137//2 143//2
f 143//2 137//2 144//2
f 144//2 137//2 145//2
f 145//2 137//2 146//2
f 146//2 137//2 147//2
f 147//2 137//2 148//2
f 148//2 137//2 149//2
f 149//2 137//2 150//2
f 150//2 137//2 151//2
f 151//2 137//2 152//2
f 152//2 137//2 153//2
f 153//2 137//2 154//2
f 154//2 137//2 155//2
f 155//2 137//2 156//2
f 156//2 137//2 157//2
f 157//2 137//2 135//2
f 107//2 135//2 137//2
f 107//2 158//2 105//2
f 105//2 158//2 159//2
f 159//2 158//2 160//2
f 160//2 158//2 161//2
f 161//2 158//2 162//2
f 162//2 158//2 163//2
f 163//2 158//2 164//2
f 164//2 158//2 165//2
f 165//2 158//2 166//2
f 166//2 158//2 167//2
f 167//2 158//2 168//2
f 168//2 158//2 169//2
f 169//2 158//2 170//2
f 170//2 158//2 171//2
f 171//2 158//2 172//2
f 172//2 158//2 173//2
f 173//2 158//2 174//2
f 174//2 158//2 175//2
f 175//2 158//2 176//2
f 176//2 158//2 177//2
f 177//2 158//2 178//2
f 178//2 158//2 179//2
f 179//2 158//2 180//2
f 180//2 158//2 181//2
f 181//2 158//2 182//2
f 182//2 158//2 183//2
f 183//2 158//2 184//2
f 184//2 158//2 185//2
f 185//2 158//2 186//2
f 186//2 158//2 187//2
f 187//2 158//2 188//2
f 188//2 158//2 189//2
f 136//2 190//2 137//2
f 190//2 191//2 137//2
f 191//2 192//2 137//2
f 192//2 193//2 137//2
f 193//2 194//2 137//2
f 158//2 195//2 189//2
f 189//2 195//2 196//2
f 196//2 195//2 197//2
f 197//2 195//2 198//2
f 198//2 195//2 199//2
f 199//2 195//2 200//2
f 200//2 195//2 201//2
f 201//2 195//2 202//2
f 202//2 195//2 203//2
f 203//2 195//2 204//2
f 204//2 195//2 205//2
f 205//2 195//2 206//2
f 206//2 195//2 207//2
f 207//2 195//2 208//2
f 208//2 195//2 194//2
f 137//2 194//2 195//2
f 313//3 314//3 315//3
f 316//3 317//3 318//3
f 317//3 316//3 319//3
f 317//3 319//3 320//3
f 320//3 319//3 314//3
f 320//3 314//3 313//3
f 320//3 313//3 321//3
f 320//3 321//3 322//3
f 323//4 324//4 325//4
f 324//4 326//4 325//4
f 326//4 327//4 325//4
f 327//4 328//4 325//4
f 325//4 328//4 329//4
f 328//4 330//4 329//4
f 331//4 329//4 330//4
f 332//4 327//4 326//4
f 341//5 342//5 343//5
f 342//5 341//5 344//5
f 345//6 346//6 347//6
f 348//6 347//6 346//6
f 350//6 351//6 352//6
f 351//6 350//6 353//6
f 351//6 353//6 354//6
f 355//5 356//5 357//5
f 356//5 358//5 357//5
f 359//5 357//5 358//5
f 363//2 364//2 365//2
f 364//2 363//2 366//2
f 364//2 366//2 367//2
f 367//2 366//2 368//2
f 365//2 369//2 370//2
f 369//2 365//2 364//2
f 370//2 369//2 368//2
f 370//2 368//2 366//2
f 371//1 372//1 373//1
f 372//1 374//1 373//1
f 375//1 376//1 374//1
f 373//1 374//1 376//1
f 372//1 371//1 377//1
f 377//1 371//1 375//1
f 371//1 378//1 375//1
f 376//1 375//1 378//1
f 384//5 385//5 386//5
f 385//5 384//5 387//5
f 388//6 389//6 390//6
f 391//6 390//6 389//6
f 393//1 394//1 395//1
f 394//1 393//1 396//1
f 397//2 398//2 399//2
f 400//2 399//2 398//2
f 402//6 403//6 404//6
f 403//6 402//6 405//6
f 406//5 407//5 408//5
f 409//5 408//5 407//5
f 411//1 412//1 413//1
f 412//1 411//1 414//1
f 415//2 416//2 417//2
f 418//2 417//2 416//2
f 419//1 420//1 421//1
f 420//1 419//1 422//1
f 423//2 424//2 425//2
f 426//2 425//2 424//2
usemtl material_1_0
