# SSTK version 0.8.0
# 155
mtllib original-155.mtl
o #ID326
v -0.430736 0.010287 -0.189415
v -0.430769 0.009227 0.317556
v -0.430769 0.009227 -0.189415
v -0.430736 0.010287 0.317556
v -0.430736 0.010287 0.317556
v -0.430736 0.010287 -0.189415
v -0.430769 0.009227 0.317556
v -0.430769 0.009227 -0.189415
v -0.430769 0.009227 0.317556
v -0.430736 0.010287 0.317556
v -0.430769 0.009227 -0.189415
v -0.430736 0.010287 -0.189415
v -0.430769 0.009227 -0.189415
v -0.430672 0.008225 0.317556
v -0.430672 0.008225 -0.189415
v -0.430769 0.009227 0.317556
v -0.430769 0.009227 0.317556
v -0.430769 0.009227 -0.189415
v -0.430672 0.008225 0.317556
v -0.430672 0.008225 -0.189415
v -0.430672 0.008225 0.317556
v -0.430672 0.008225 -0.189415
v -0.430672 0.008225 -0.189415
v -0.430450 0.007242 0.317556
v -0.430450 0.007242 -0.189415
v -0.430672 0.008225 0.317556
v -0.430672 0.008225 0.317556
v -0.430672 0.008225 -0.189415
v -0.430450 0.007242 0.317556
v -0.430450 0.007242 -0.189415
v -0.430450 0.007242 0.317556
v -0.430450 0.007242 -0.189415
v -0.430105 0.006296 -0.189415
v -0.430450 0.007242 0.317556
v -0.430105 0.006296 0.317556
v -0.430450 0.007242 -0.189415
v -0.430450 0.007242 -0.189415
v -0.430105 0.006296 -0.189415
v -0.430450 0.007242 0.317556
v -0.430105 0.006296 0.317556
v -0.430105 0.006296 0.317556
v -0.430105 0.006296 -0.189415
v -0.429643 0.005401 -0.189415
v -0.430105 0.006296 0.317556
v -0.429643 0.005401 0.317556
v -0.430105 0.006296 -0.189415
v -0.430105 0.006296 -0.189415
v -0.429643 0.005401 -0.189415
v -0.430105 0.006296 0.317556
v -0.429643 0.005401 0.317556
v -0.429643 0.005401 0.317556
v -0.429643 0.005401 -0.189415
v -0.429643 0.005401 -0.189415
v -0.429071 0.004572 0.317556
v -0.429071 0.004572 -0.189415
v -0.429643 0.005401 0.317556
v -0.429643 0.005401 0.317556
v -0.429643 0.005401 -0.189415
v -0.429071 0.004572 0.317556
v -0.429071 0.004572 -0.189415
v -0.429071 0.004572 0.317556
v -0.429071 0.004572 -0.189415
v -0.428400 0.003821 -0.189415
v -0.429071 0.004572 0.317556
v -0.428400 0.003821 0.317556
v -0.429071 0.004572 -0.189415
v -0.429071 0.004572 -0.189415
v -0.428400 0.003821 -0.189415
v -0.429071 0.004572 0.317556
v -0.428400 0.003821 0.317556
v -0.428400 0.003821 0.317556
v -0.428400 0.003821 -0.189415
v -0.428400 0.003821 -0.189415
v -0.427638 0.003162 0.317556
v -0.427638 0.003162 -0.189415
v -0.428400 0.003821 0.317556
v -0.428400 0.003821 0.317556
v -0.428400 0.003821 -0.189415
v -0.427638 0.003162 0.317556
v -0.427638 0.003162 -0.189415
v -0.427638 0.003162 0.317556
v -0.427638 0.003162 -0.189415
v -0.427638 0.003162 0.317556
v -0.426800 0.002604 -0.189415
v -0.427638 0.003162 -0.189415
v -0.426800 0.002604 0.317556
v -0.426800 0.002604 0.317556
v -0.427638 0.003162 0.317556
v -0.426800 0.002604 -0.189415
v -0.427638 0.003162 -0.189415
v -0.426800 0.002604 0.317556
v -0.426800 0.002604 -0.189415
v -0.426800 0.002604 -0.189415
v -0.425898 0.002156 0.317556
v -0.425898 0.002156 -0.189415
v -0.426800 0.002604 0.317556
v -0.426800 0.002604 0.317556
v -0.426800 0.002604 -0.189415
v -0.425898 0.002156 0.317556
v -0.425898 0.002156 -0.189415
v -0.425898 0.002156 0.317556
v -0.425898 0.002156 -0.189415
v -0.425898 0.002156 0.317556
v -0.424946 0.001827 -0.189415
v -0.425898 0.002156 -0.189415
v -0.424946 0.001827 0.317556
v -0.424946 0.001827 0.317556
v -0.425898 0.002156 0.317556
v -0.424946 0.001827 -0.189415
v -0.425898 0.002156 -0.189415
v -0.424946 0.001827 0.317556
v -0.424946 0.001827 -0.189415
v -0.424946 0.001827 -0.189415
v -0.423907 0.001609 0.317556
v -0.423907 0.001609 -0.189415
v -0.424946 0.001827 0.317556
v -0.424946 0.001827 0.317556
v -0.424946 0.001827 -0.189415
v -0.423907 0.001609 0.317556
v -0.423907 0.001609 -0.189415
v -0.423907 0.001609 0.317556
v -0.423907 0.001609 -0.189415
v -0.423907 0.001609 0.317556
v -0.374527 -0.005513 -0.189415
v -0.423907 0.001609 -0.189415
v -0.374527 -0.005513 0.317556
v -0.374527 -0.005513 0.317556
v -0.423907 0.001609 0.317556
v -0.374527 -0.005513 -0.189415
v -0.423907 0.001609 -0.189415
v -0.374527 -0.005513 0.317556
v -0.374527 -0.005513 -0.189415
v -0.374527 -0.005513 0.317556
v -0.373252 -0.005775 -0.189415
v -0.374527 -0.005513 -0.189415
v -0.373252 -0.005775 0.317556
v -0.373252 -0.005775 0.317556
v -0.374527 -0.005513 0.317556
v -0.373252 -0.005775 -0.189415
v -0.374527 -0.005513 -0.189415
v -0.373252 -0.005775 0.317556
v -0.373252 -0.005775 -0.189415
v -0.373252 -0.005775 0.317556
v -0.371970 -0.006202 -0.189415
v -0.373252 -0.005775 -0.189415
v -0.371970 -0.006202 0.317556
v -0.371970 -0.006202 0.317556
v -0.373252 -0.005775 0.317556
v -0.371970 -0.006202 -0.189415
v -0.373252 -0.005775 -0.189415
v -0.371970 -0.006202 0.317556
v -0.371970 -0.006202 -0.189415
v -0.371970 -0.006202 -0.189415
v -0.370748 -0.006778 0.317556
v -0.370748 -0.006778 -0.189415
v -0.371970 -0.006202 0.317556
v -0.371970 -0.006202 0.317556
v -0.371970 -0.006202 -0.189415
v -0.370748 -0.006778 0.317556
v -0.370748 -0.006778 -0.189415
v -0.370748 -0.006778 0.317556
v -0.370748 -0.006778 -0.189415
v -0.370748 -0.006778 0.317556
v -0.369603 -0.007496 -0.189415
v -0.370748 -0.006778 -0.189415
v -0.369603 -0.007496 0.317556
v -0.369603 -0.007496 0.317556
v -0.370748 -0.006778 0.317556
v -0.369603 -0.007496 -0.189415
v -0.370748 -0.006778 -0.189415
v -0.369603 -0.007496 0.317556
v -0.369603 -0.007496 -0.189415
v -0.369603 -0.007496 0.317556
v -0.368551 -0.008344 -0.189415
v -0.369603 -0.007496 -0.189415
v -0.368551 -0.008344 0.317556
v -0.368551 -0.008344 0.317556
v -0.369603 -0.007496 0.317556
v -0.368551 -0.008344 -0.189415
v -0.369603 -0.007496 -0.189415
v -0.368551 -0.008344 0.317556
v -0.368551 -0.008344 -0.189415
v -0.368551 -0.008344 -0.189415
v -0.367607 -0.009311 0.317556
v -0.367607 -0.009311 -0.189415
v -0.368551 -0.008344 0.317556
v -0.368551 -0.008344 0.317556
v -0.368551 -0.008344 -0.189415
v -0.367607 -0.009311 0.317556
v -0.367607 -0.009311 -0.189415
v -0.367607 -0.009311 0.317556
v -0.367607 -0.009311 -0.189415
v -0.366784 -0.010383 -0.189415
v -0.367607 -0.009311 0.317556
v -0.366784 -0.010383 0.317556
v -0.367607 -0.009311 -0.189415
v -0.367607 -0.009311 -0.189415
v -0.366784 -0.010383 -0.189415
v -0.367607 -0.009311 0.317556
v -0.366784 -0.010383 0.317556
v -0.366784 -0.010383 0.317556
v -0.366784 -0.010383 -0.189415
v -0.366095 -0.011546 -0.189415
v -0.366784 -0.010383 0.317556
v -0.366095 -0.011546 0.317556
v -0.366784 -0.010383 -0.189415
v -0.366784 -0.010383 -0.189415
v -0.366095 -0.011546 -0.189415
v -0.366784 -0.010383 0.317556
v -0.366095 -0.011546 0.317556
v -0.366095 -0.011546 0.317556
v -0.366095 -0.011546 -0.189415
v -0.366095 -0.011546 -0.189415
v -0.365548 -0.012781 0.317556
v -0.365548 -0.012781 -0.189415
v -0.366095 -0.011546 0.317556
v -0.366095 -0.011546 0.317556
v -0.366095 -0.011546 -0.189415
v -0.365548 -0.012781 0.317556
v -0.365548 -0.012781 -0.189415
v -0.365548 -0.012781 0.317556
v -0.365548 -0.012781 -0.189415
v -0.365548 -0.012781 -0.189415
v -0.365152 -0.014073 0.317556
v -0.365152 -0.014073 -0.189415
v -0.365548 -0.012781 0.317556
v -0.365548 -0.012781 0.317556
v -0.365548 -0.012781 -0.189415
v -0.365152 -0.014073 0.317556
v -0.365152 -0.014073 -0.189415
v -0.365152 -0.014073 0.317556
v -0.365152 -0.014073 -0.189415
v -0.365152 -0.014073 -0.189415
v -0.364912 -0.015404 0.317556
v -0.364912 -0.015404 -0.189415
v -0.365152 -0.014073 0.317556
v -0.365152 -0.014073 0.317556
v -0.365152 -0.014073 -0.189415
v -0.364912 -0.015404 0.317556
v -0.364912 -0.015404 -0.189415
v -0.364912 -0.015404 0.317556
v -0.364912 -0.015404 -0.189415
v -0.364912 -0.015404 -0.189415
v -0.364835 -0.016702 0.317556
v -0.364835 -0.016702 -0.189415
v -0.364912 -0.015404 0.317556
v -0.364912 -0.015404 0.317556
v -0.364912 -0.015404 -0.189415
v -0.364835 -0.016702 0.317556
v -0.364835 -0.016702 -0.189415
v -0.364835 -0.016702 0.317556
v -0.364835 -0.016702 -0.189415
v -0.364835 -0.033773 -0.189415
v -0.364835 -0.016702 0.317556
v -0.364835 -0.033773 0.317556
v -0.364835 -0.016702 -0.189415
v -0.364835 -0.016702 -0.189415
v -0.364835 -0.033773 -0.189415
v -0.364835 -0.016702 0.317556
v -0.364835 -0.033773 0.317556
v -0.364835 -0.033773 0.317556
v -0.364835 -0.033773 -0.189415
v -0.364913 -0.035081 -0.189415
v -0.364835 -0.033773 0.317556
v -0.364913 -0.035081 0.317556
v -0.364835 -0.033773 -0.189415
v -0.364835 -0.033773 -0.189415
v -0.364913 -0.035081 -0.189415
v -0.364835 -0.033773 0.317556
v -0.364913 -0.035081 0.317556
v -0.364913 -0.035081 0.317556
v -0.364913 -0.035081 -0.189415
v -0.365155 -0.036421 -0.189415
v -0.364913 -0.035081 0.317556
v -0.365155 -0.036421 0.317556
v -0.364913 -0.035081 -0.189415
v -0.364913 -0.035081 -0.189415
v -0.365155 -0.036421 -0.189415
v -0.364913 -0.035081 0.317556
v -0.365155 -0.036421 0.317556
v -0.365155 -0.036421 0.317556
v -0.365155 -0.036421 -0.189415
v -0.365155 -0.036421 -0.189415
v -0.365553 -0.037722 0.317556
v -0.365553 -0.037722 -0.189415
v -0.365155 -0.036421 0.317556
v -0.365155 -0.036421 0.317556
v -0.365155 -0.036421 -0.189415
v -0.365553 -0.037722 0.317556
v -0.365553 -0.037722 -0.189415
v -0.365553 -0.037722 0.317556
v -0.365553 -0.037722 -0.189415
v -0.366104 -0.038967 -0.189415
v -0.365553 -0.037722 0.317556
v -0.366104 -0.038967 0.317556
v -0.365553 -0.037722 -0.189415
v -0.365553 -0.037722 -0.189415
v -0.366104 -0.038967 -0.189415
v -0.365553 -0.037722 0.317556
v -0.366104 -0.038967 0.317556
v -0.366104 -0.038967 0.317556
v -0.366104 -0.038967 -0.189415
v -0.366798 -0.040138 -0.189415
v -0.366104 -0.038967 0.317556
v -0.366798 -0.040138 0.317556
v -0.366104 -0.038967 -0.189415
v -0.366104 -0.038967 -0.189415
v -0.366798 -0.040138 -0.189415
v -0.366104 -0.038967 0.317556
v -0.366798 -0.040138 0.317556
v -0.366798 -0.040138 0.317556
v -0.366798 -0.040138 -0.189415
v -0.366798 -0.040138 -0.189415
v -0.367627 -0.041218 0.317556
v -0.367627 -0.041218 -0.189415
v -0.366798 -0.040138 0.317556
v -0.366798 -0.040138 0.317556
v -0.366798 -0.040138 -0.189415
v -0.367627 -0.041218 0.317556
v -0.367627 -0.041218 -0.189415
v -0.367627 -0.041218 0.317556
v -0.367627 -0.041218 -0.189415
v -0.367627 -0.041218 -0.189415
v -0.368577 -0.042192 0.317556
v -0.368577 -0.042192 -0.189415
v -0.367627 -0.041218 0.317556
v -0.367627 -0.041218 0.317556
v -0.367627 -0.041218 -0.189415
v -0.368577 -0.042192 0.317556
v -0.368577 -0.042192 -0.189415
v -0.368577 -0.042192 0.317556
v -0.368577 -0.042192 -0.189415
v -0.368577 -0.042192 0.317556
v -0.369637 -0.043046 -0.189415
v -0.368577 -0.042192 -0.189415
v -0.369637 -0.043046 0.317556
v -0.369637 -0.043046 0.317556
v -0.368577 -0.042192 0.317556
v -0.369637 -0.043046 -0.189415
v -0.368577 -0.042192 -0.189415
v -0.369637 -0.043046 0.317556
v -0.369637 -0.043046 -0.189415
v -0.369637 -0.043046 -0.189415
v -0.370791 -0.043769 0.317556
v -0.370791 -0.043769 -0.189415
v -0.369637 -0.043046 0.317556
v -0.369637 -0.043046 0.317556
v -0.369637 -0.043046 -0.189415
v -0.370791 -0.043769 0.317556
v -0.370791 -0.043769 -0.189415
v -0.370791 -0.043769 0.317556
v -0.370791 -0.043769 -0.189415
v -0.370791 -0.043769 0.317556
v -0.372022 -0.044349 -0.189415
v -0.370791 -0.043769 -0.189415
v -0.372022 -0.044349 0.317556
v -0.372022 -0.044349 0.317556
v -0.370791 -0.043769 0.317556
v -0.372022 -0.044349 -0.189415
v -0.370791 -0.043769 -0.189415
v -0.372022 -0.044349 0.317556
v -0.372022 -0.044349 -0.189415
v -0.372022 -0.044349 -0.189415
v -0.373313 -0.044780 0.317556
v -0.373313 -0.044780 -0.189415
v -0.372022 -0.044349 0.317556
v -0.372022 -0.044349 0.317556
v -0.372022 -0.044349 -0.189415
v -0.373313 -0.044780 0.317556
v -0.373313 -0.044780 -0.189415
v -0.373313 -0.044780 0.317556
v -0.373313 -0.044780 -0.189415
v -0.373313 -0.044780 0.317556
v -0.374597 -0.045044 -0.189415
v -0.373313 -0.044780 -0.189415
v -0.374597 -0.045044 0.317556
v -0.374597 -0.045044 0.317556
v -0.373313 -0.044780 0.317556
v -0.374597 -0.045044 -0.189415
v -0.373313 -0.044780 -0.189415
v -0.374597 -0.045044 0.317556
v -0.374597 -0.045044 -0.189415
v -0.374597 -0.045044 -0.189415
v -0.426121 -0.052474 0.317556
v -0.426121 -0.052474 -0.189415
v -0.374597 -0.045044 0.317556
v -0.374597 -0.045044 0.317556
v -0.374597 -0.045044 -0.189415
v -0.426121 -0.052474 0.317556
v -0.426121 -0.052474 -0.189415
v -0.426121 -0.052474 0.317556
v -0.426121 -0.052474 -0.189415
v -0.426121 -0.052474 0.317556
v -0.426868 -0.052631 -0.189415
v -0.426121 -0.052474 -0.189415
v -0.426868 -0.052631 0.317556
v -0.426868 -0.052631 0.317556
v -0.426121 -0.052474 0.317556
v -0.426868 -0.052631 -0.189415
v -0.426121 -0.052474 -0.189415
v -0.426868 -0.052631 0.317556
v -0.426868 -0.052631 -0.189415
v -0.426868 -0.052631 -0.189415
v -0.427538 -0.052863 0.317556
v -0.427538 -0.052863 -0.189415
v -0.426868 -0.052631 0.317556
v -0.426868 -0.052631 0.317556
v -0.426868 -0.052631 -0.189415
v -0.427538 -0.052863 0.317556
v -0.427538 -0.052863 -0.189415
v -0.427538 -0.052863 0.317556
v -0.427538 -0.052863 -0.189415
v -0.427538 -0.052863 -0.189415
v -0.428174 -0.053178 0.317556
v -0.428174 -0.053178 -0.189415
v -0.427538 -0.052863 0.317556
v -0.427538 -0.052863 0.317556
v -0.427538 -0.052863 -0.189415
v -0.428174 -0.053178 0.317556
v -0.428174 -0.053178 -0.189415
v -0.428174 -0.053178 0.317556
v -0.428174 -0.053178 -0.189415
v -0.428174 -0.053178 0.317556
v -0.428765 -0.053571 -0.189415
v -0.428174 -0.053178 -0.189415
v -0.428765 -0.053571 0.317556
v -0.428765 -0.053571 0.317556
v -0.428174 -0.053178 0.317556
v -0.428765 -0.053571 -0.189415
v -0.428174 -0.053178 -0.189415
v -0.428765 -0.053571 0.317556
v -0.428765 -0.053571 -0.189415
v -0.428765 -0.053571 -0.189415
v -0.429301 -0.054036 0.317556
v -0.429301 -0.054036 -0.189415
v -0.428765 -0.053571 0.317556
v -0.428765 -0.053571 0.317556
v -0.428765 -0.053571 -0.189415
v -0.429301 -0.054036 0.317556
v -0.429301 -0.054036 -0.189415
v -0.429301 -0.054036 0.317556
v -0.429301 -0.054036 -0.189415
v -0.429774 -0.054565 -0.189415
v -0.429301 -0.054036 0.317556
v -0.429774 -0.054565 0.317556
v -0.429301 -0.054036 -0.189415
v -0.429301 -0.054036 -0.189415
v -0.429774 -0.054565 -0.189415
v -0.429301 -0.054036 0.317556
v -0.429774 -0.054565 0.317556
v -0.429774 -0.054565 0.317556
v -0.429774 -0.054565 -0.189415
v -0.429774 -0.054565 -0.189415
v -0.430177 -0.055149 0.317556
v -0.430177 -0.055149 -0.189415
v -0.429774 -0.054565 0.317556
v -0.429774 -0.054565 0.317556
v -0.429774 -0.054565 -0.189415
v -0.430177 -0.055149 0.317556
v -0.430177 -0.055149 -0.189415
v -0.430177 -0.055149 0.317556
v -0.430177 -0.055149 -0.189415
v -0.430502 -0.055780 -0.189415
v -0.430177 -0.055149 0.317556
v -0.430502 -0.055780 0.317556
v -0.430177 -0.055149 -0.189415
v -0.430177 -0.055149 -0.189415
v -0.430502 -0.055780 -0.189415
v -0.430177 -0.055149 0.317556
v -0.430502 -0.055780 0.317556
v -0.430502 -0.055780 0.317556
v -0.430502 -0.055780 -0.189415
v -0.430745 -0.056446 -0.189415
v -0.430502 -0.055780 0.317556
v -0.430745 -0.056446 0.317556
v -0.430502 -0.055780 -0.189415
v -0.430502 -0.055780 -0.189415
v -0.430745 -0.056446 -0.189415
v -0.430502 -0.055780 0.317556
v -0.430745 -0.056446 0.317556
v -0.430745 -0.056446 0.317556
v -0.430745 -0.056446 -0.189415
v -0.430902 -0.057138 -0.189415
v -0.430745 -0.056446 0.317556
v -0.430902 -0.057138 0.317556
v -0.430745 -0.056446 -0.189415
v -0.430745 -0.056446 -0.189415
v -0.430902 -0.057138 -0.189415
v -0.430745 -0.056446 0.317556
v -0.430902 -0.057138 0.317556
v -0.430902 -0.057138 0.317556
v -0.430902 -0.057138 -0.189415
v -0.430970 -0.057844 -0.189415
v -0.430902 -0.057138 0.317556
v -0.430970 -0.057844 0.317556
v -0.430902 -0.057138 -0.189415
v -0.430902 -0.057138 -0.189415
v -0.430970 -0.057844 -0.189415
v -0.430902 -0.057138 0.317556
v -0.430970 -0.057844 0.317556
v -0.430970 -0.057844 0.317556
v -0.430970 -0.057844 -0.189415
v -0.430947 -0.058607 -0.189415
v -0.430970 -0.057844 0.317556
v -0.430947 -0.058607 0.317556
v -0.430970 -0.057844 -0.189415
v -0.430970 -0.057844 -0.189415
v -0.430947 -0.058607 -0.189415
v -0.430970 -0.057844 0.317556
v -0.430947 -0.058607 0.317556
v -0.430947 -0.058607 0.317556
v -0.430947 -0.058607 -0.189415
vn 0.9995245176217911 -0.030834050543609676 0
vn 0.9953975737572786 0.09583146747349344 0
vn 0.9752833708895474 0.22095779340480773 0
vn 0.9395049639365906 0.34253528685159657 0
vn 0.8886369812245715 0.4586112903103025 0
vn 0.8234964445878374 0.5673214307173587 0
vn 0.7451295973755603 0.6669196976510254 0
vn 0.6547950139251165 0.7558065160732651 0
vn 0.5539437132402244 0.8325541198995008 0
vn 0.4441954135268233 0.8959299272832303 0
vn 0.32731281373079896 0.9449160396393042 0
vn 0.20517319611825346 0.9787256814831319 0
vn 0.1427426063127348 0.9897598437717341 0
vn 0.20132820816570318 0.9795238397286649 0
vn 0.3161583151661384 0.9487064455095203 0
vn 0.4265194054076434 0.9044784114674658 0
vn 0.5308512923194604 0.8474649877385843 0
vn 0.6276793130455333 0.7784720161795718 0
vn 0.7156345761524908 0.6984748767243135 0
vn 0.7934738904943017 0.6086042927090118 0
vn 0.8600968963565866 0.510130697839061 0
vn 0.9145618836075713 0.40444599275078896 0
vn 0.9560988953462604 0.29304419857362934 0
vn 0.984120800495682 0.1775000000894032 0
vn 0.9982314758260512 0.05944678856039039 0
vn 1 0 0
vn 0.9982314758260512 -0.05944678856039039 0
vn 0.984120800495682 -0.1775000000894032 0
vn 0.9560988953462604 -0.29304419857362934 0
vn 0.9145618836075713 -0.40444599275078896 0
vn 0.8600968963565866 -0.510130697839061 0
vn 0.7934738904943017 -0.6086042927090118 0
vn 0.7156345761524908 -0.6984748767243135 0
vn 0.6276793130455333 -0.7784720161795718 0
vn 0.5308512923194604 -0.8474649877385843 0
vn 0.4265194054076434 -0.9044784114674658 0
vn 0.3161583151661384 -0.9487064455095203 0
vn 0.20132820816570318 -0.9795238397286649 0
vn 0.1427426063127348 -0.9897598437717341 0
vn 0.20517319611825346 -0.9787256814831319 0
vn 0.32731281373079896 -0.9449160396393042 0
vn 0.4441954135268233 -0.8959299272832303 0
vn 0.5539437132402244 -0.8325541198995008 0
vn 0.6547950139251165 -0.7558065160732651 0
vn 0.7451295973755603 -0.6669196976510254 0
vn 0.8234964445878374 -0.5673214307173587 0
vn 0.8886369812245715 -0.4586112903103025 0
vn 0.9395049639365906 -0.34253528685159657 0
vn 0.9752833708895474 -0.22095779340480773 0
vn 0.9953975737572786 -0.09583146747349344 0
vn 0.9995245176217911 0.030834050543609676 0
vn -0.9995245176217911 0.030834050543609676 0
vn -0.9953975737572786 -0.09583146747349344 0
vn -0.9752833708895474 -0.22095779340480773 0
vn -0.9395049639365906 -0.34253528685159657 0
vn -0.8886369812245715 -0.4586112903103025 0
vn -0.8234964445878374 -0.5673214307173587 0
vn -0.7451295973755603 -0.6669196976510254 0
vn -0.6547950139251165 -0.7558065160732651 0
vn -0.5539437132402244 -0.8325541198995008 0
vn -0.4441954135268233 -0.8959299272832303 0
vn -0.32731281373079896 -0.9449160396393042 0
vn -0.20517319611825346 -0.9787256814831319 0
vn -0.1427426063127348 -0.9897598437717341 0
vn -0.20132820816570318 -0.9795238397286649 0
vn -0.3161583151661384 -0.9487064455095203 0
vn -0.4265194054076434 -0.9044784114674658 0
vn -0.5308512923194604 -0.8474649877385843 0
vn -0.6276793130455333 -0.7784720161795718 0
vn -0.7156345761524908 -0.6984748767243135 0
vn -0.7934738904943017 -0.6086042927090118 0
vn -0.8600968963565866 -0.510130697839061 0
vn -0.9145618836075713 -0.40444599275078896 0
vn -0.9560988953462604 -0.29304419857362934 0
vn -0.984120800495682 -0.1775000000894032 0
vn -0.9982314758260512 -0.05944678856039039 0
vn -1 0 0
vn -0.9982314758260512 0.05944678856039039 0
vn -0.984120800495682 0.1775000000894032 0
vn -0.9560988953462604 0.29304419857362934 0
vn -0.9145618836075713 0.40444599275078896 0
vn -0.8600968963565866 0.510130697839061 0
vn -0.7934738904943017 0.6086042927090118 0
vn -0.7156345761524908 0.6984748767243135 0
vn -0.6276793130455333 0.7784720161795718 0
vn -0.5308512923194604 0.8474649877385843 0
vn -0.4265194054076434 0.9044784114674658 0
vn -0.3161583151661384 0.9487064455095203 0
vn -0.20132820816570318 0.9795238397286649 0
vn -0.1427426063127348 0.9897598437717341 0
vn -0.20517319611825346 0.9787256814831319 0
vn -0.32731281373079896 0.9449160396393042 0
vn -0.4441954135268233 0.8959299272832303 0
vn -0.5539437132402244 0.8325541198995008 0
vn -0.6547950139251165 0.7558065160732651 0
vn -0.7451295973755603 0.6669196976510254 0
vn -0.8234964445878374 0.5673214307173587 0
vn -0.8886369812245715 0.4586112903103025 0
vn -0.9395049639365906 0.34253528685159657 0
vn -0.9752833708895474 0.22095779340480773 0
vn -0.9953975737572786 0.09583146747349344 0
vn -0.9995245176217911 -0.030834050543609676 0
usemtl material_0_0
f 5//52 6//52 7//52
f 8//52 7//52 6//52
f 17//53 18//53 19//53
f 20//53 19//53 18//53
f 27//54 28//54 29//54
f 30//54 29//54 28//54
f 37//55 38//55 39//55
f 40//55 39//55 38//55
f 47//56 48//56 49//56
f 50//56 49//56 48//56
f 57//57 58//57 59//57
f 60//57 59//57 58//57
f 67//58 68//58 69//58
f 70//58 69//58 68//58
f 77//59 78//59 79//59
f 80//59 79//59 78//59
f 87//60 88//60 89//60
f 90//60 89//60 88//60
f 97//61 98//61 99//61
f 100//61 99//61 98//61
f 107//62 108//62 109//62
f 110//62 109//62 108//62
f 117//63 118//63 119//63
f 120//63 119//63 118//63
f 127//64 128//64 129//64
f 130//64 129//64 128//64
f 137//65 138//65 139//65
f 140//65 139//65 138//65
f 147//66 148//66 149//66
f 150//66 149//66 148//66
f 157//67 158//67 159//67
f 160//67 159//67 158//67
f 167//68 168//68 169//68
f 170//68 169//68 168//68
f 177//69 178//69 179//69
f 180//69 179//69 178//69
f 187//70 188//70 189//70
f 190//70 189//70 188//70
f 197//71 198//71 199//71
f 200//71 199//71 198//71
f 207//72 208//72 209//72
f 210//72 209//72 208//72
f 217//73 218//73 219//73
f 220//73 219//73 218//73
f 227//74 228//74 229//74
f 230//74 229//74 228//74
f 237//75 238//75 239//75
f 240//75 239//75 238//75
f 247//76 248//76 249//76
f 250//76 249//76 248//76
f 257//77 258//77 259//77
f 260//77 259//77 258//77
f 267//78 268//78 269//78
f 270//78 269//78 268//78
f 277//79 278//79 279//79
f 280//79 279//79 278//79
f 287//80 288//80 289//80
f 290//80 289//80 288//80
f 297//81 298//81 299//81
f 300//81 299//81 298//81
f 307//82 308//82 309//82
f 310//82 309//82 308//82
f 317//83 318//83 319//83
f 320//83 319//83 318//83
f 327//84 328//84 329//84
f 330//84 329//84 328//84
f 337//85 338//85 339//85
f 340//85 339//85 338//85
f 347//86 348//86 349//86
f 350//86 349//86 348//86
f 357//87 358//87 359//87
f 360//87 359//87 358//87
f 367//88 368//88 369//88
f 370//88 369//88 368//88
f 377//89 378//89 379//89
f 380//89 379//89 378//89
f 387//90 388//90 389//90
f 390//90 389//90 388//90
f 397//91 398//91 399//91
f 400//91 399//91 398//91
f 407//92 408//92 409//92
f 410//92 409//92 408//92
f 417//93 418//93 419//93
f 420//93 419//93 418//93
f 427//94 428//94 429//94
f 430//94 429//94 428//94
f 437//95 438//95 439//95
f 440//95 439//95 438//95
f 447//96 448//96 449//96
f 450//96 449//96 448//96
f 457//97 458//97 459//97
f 460//97 459//97 458//97
f 467//98 468//98 469//98
f 470//98 469//98 468//98
f 477//99 478//99 479//99
f 480//99 479//99 478//99
f 487//100 488//100 489//100
f 490//100 489//100 488//100
f 497//101 498//101 499//101
f 500//101 499//101 498//101
f 507//102 508//102 509//102
f 510//102 509//102 508//102
usemtl material_1_0
f 1//1 2//1 3//1
f 2//1 1//1 4//1
f 13//2 14//2 15//2
f 14//2 13//2 16//2
f 23//3 24//3 25//3
f 24//3 23//3 26//3
f 33//4 34//4 35//4
f 34//4 33//4 36//4
f 43//5 44//5 45//5
f 44//5 43//5 46//5
f 53//6 54//6 55//6
f 54//6 53//6 56//6
f 63//7 64//7 65//7
f 64//7 63//7 66//7
f 73//8 74//8 75//8
f 74//8 73//8 76//8
f 83//9 84//9 85//9
f 84//9 83//9 86//9
f 93//10 94//10 95//10
f 94//10 93//10 96//10
f 103//11 104//11 105//11
f 104//11 103//11 106//11
f 113//12 114//12 115//12
f 114//12 113//12 116//12
f 123//13 124//13 125//13
f 124//13 123//13 126//13
f 133//14 134//14 135//14
f 134//14 133//14 136//14
f 143//15 144//15 145//15
f 144//15 143//15 146//15
f 153//16 154//16 155//16
f 154//16 153//16 156//16
f 163//17 164//17 165//17
f 164//17 163//17 166//17
f 173//18 174//18 175//18
f 174//18 173//18 176//18
f 183//19 184//19 185//19
f 184//19 183//19 186//19
f 193//20 194//20 195//20
f 194//20 193//20 196//20
f 203//21 204//21 205//21
f 204//21 203//21 206//21
f 213//22 214//22 215//22
f 214//22 213//22 216//22
f 223//23 224//23 225//23
f 224//23 223//23 226//23
f 233//24 234//24 235//24
f 234//24 233//24 236//24
f 243//25 244//25 245//25
f 244//25 243//25 246//25
f 253//26 254//26 255//26
f 254//26 253//26 256//26
f 263//27 264//27 265//27
f 264//27 263//27 266//27
f 273//28 274//28 275//28
f 274//28 273//28 276//28
f 283//29 284//29 285//29
f 284//29 283//29 286//29
f 293//30 294//30 295//30
f 294//30 293//30 296//30
f 303//31 304//31 305//31
f 304//31 303//31 306//31
f 313//32 314//32 315//32
f 314//32 313//32 316//32
f 323//33 324//33 325//33
f 324//33 323//33 326//33
f 333//34 334//34 335//34
f 334//34 333//34 336//34
f 343//35 344//35 345//35
f 344//35 343//35 346//35
f 353//36 354//36 355//36
f 354//36 353//36 356//36
f 363//37 364//37 365//37
f 364//37 363//37 366//37
f 373//38 374//38 375//38
f 374//38 373//38 376//38
f 383//39 384//39 385//39
f 384//39 383//39 386//39
f 393//40 394//40 395//40
f 394//40 393//40 396//40
f 403//41 404//41 405//41
f 404//41 403//41 406//41
f 413//42 414//42 415//42
f 414//42 413//42 416//42
f 423//43 424//43 425//43
f 424//43 423//43 426//43
f 433//44 434//44 435//44
f 434//44 433//44 436//44
f 443//45 444//45 445//45
f 444//45 443//45 446//45
f 453//46 454//46 455//46
f 454//46 453//46 456//46
f 463//47 464//47 465//47
f 464//47 463//47 466//47
f 473//48 474//48 475//48
f 474//48 473//48 476//48
f 483//49 484//49 485//49
f 484//49 483//49 486//49
f 493//50 494//50 495//50
f 494//50 493//50 496//50
f 503//51 504//51 505//51
f 504//51 503//51 506//51
usemtl material_2_0
usemtl material_3_0
