# SSTK version 0.8.0
# 5
mtllib original-5.mtl
o group_2/ID33#ID33
v -0.007686 0.212720 0.472013
v 0.028640 0.212284 0.472013
v 0.010484 0.213073 0.472013
v -0.025798 0.211226 0.472013
v 0.046711 0.210358 0.472013
v -0.043781 0.208598 0.472013
v 0.064625 0.207300 0.472013
v -0.061562 0.204847 0.472013
v 0.082312 0.203123 0.472013
v -0.079074 0.199986 0.472013
v 0.099701 0.197844 0.472013
v -0.096245 0.194035 0.472013
v 0.116725 0.191484 0.472013
v -0.113009 0.187018 0.472013
v 0.133316 0.184067 0.472013
v -0.129299 0.178962 0.472013
v 0.149409 0.175623 0.472013
v -0.145051 0.169899 0.472013
v 0.164939 0.166186 0.472013
v -0.160203 0.159865 0.472013
v 0.179847 0.155792 0.472013
v -0.174695 0.148899 0.472013
v 0.194072 0.144482 0.472013
v -0.188470 0.137045 0.472013
v 0.207559 0.132301 0.472013
v -0.201474 0.124350 0.472013
v 0.220255 0.119298 0.472013
v -0.213655 0.110863 0.472013
v 0.232109 0.105523 0.472013
v -0.224964 0.096637 0.472013
v 0.243075 0.091031 0.472013
v -0.235358 0.081730 0.472013
v 0.253109 0.075878 0.472013
v -0.244796 0.066199 0.472013
v 0.262172 0.060126 0.472013
v -0.253240 0.050107 0.472013
v 0.270227 0.043836 0.472013
v -0.260657 0.033516 0.472013
v 0.277245 0.027072 0.472013
v -0.267017 0.016492 0.472013
v 0.283196 0.009901 0.472013
v -0.272296 -0.000898 0.472013
v 0.288056 -0.007610 0.472013
v -0.276473 -0.018585 0.472013
v 0.291808 -0.025392 0.472013
v -0.279530 -0.036499 0.472013
v 0.294436 -0.043375 0.472013
v -0.281457 -0.054570 0.472013
v 0.295929 -0.061486 0.472013
v -0.282246 -0.072726 0.472013
v 0.296282 -0.079656 0.472013
v -0.281892 -0.090896 0.472013
v 0.295494 -0.097812 0.472013
v -0.280399 -0.109007 0.472013
v 0.293567 -0.115883 0.472013
v -0.277771 -0.126990 0.472013
v 0.290509 -0.133798 0.472013
v -0.274020 -0.144772 0.472013
v 0.286333 -0.151484 0.472013
v -0.269159 -0.162283 0.472013
v 0.281054 -0.168874 0.472013
v -0.263208 -0.179454 0.472013
v 0.274693 -0.185898 0.472013
v -0.256191 -0.196218 0.472013
v 0.267276 -0.202489 0.472013
v -0.248135 -0.212508 0.472013
v 0.258833 -0.218582 0.472013
v -0.239072 -0.228261 0.472013
v 0.249395 -0.234112 0.472013
v -0.229038 -0.243413 0.472013
v 0.239001 -0.249019 0.472013
v -0.218072 -0.257905 0.472013
v 0.227691 -0.263245 0.472013
v -0.206218 -0.271680 0.472013
v 0.215510 -0.276732 0.472013
v -0.193523 -0.284683 0.472013
v 0.202507 -0.289427 0.472013
v -0.180035 -0.296864 0.472013
v 0.188732 -0.301282 0.472013
v -0.165810 -0.308173 0.472013
v 0.174240 -0.312247 0.472013
v -0.150903 -0.318568 0.472013
v 0.159088 -0.322281 0.472013
v -0.135372 -0.328005 0.472013
v 0.143336 -0.331344 0.472013
v -0.119280 -0.336449 0.472013
v 0.127045 -0.339400 0.472013
v -0.102689 -0.343866 0.472013
v 0.110282 -0.346417 0.472013
v -0.085665 -0.350227 0.472013
v 0.093110 -0.352368 0.472013
v -0.068275 -0.355505 0.472013
v 0.075599 -0.357229 0.472013
v -0.050588 -0.359682 0.472013
v 0.057817 -0.360980 0.472013
v -0.032674 -0.362740 0.472013
v 0.039835 -0.363608 0.472013
v -0.014603 -0.364667 0.472013
v 0.021723 -0.365101 0.472013
v 0.003553 -0.365455 0.472013
v 0.003553 -0.365455 0.472013
v -0.014603 -0.364667 0.472013
v 0.021723 -0.365101 0.472013
v 0.039835 -0.363608 0.472013
v -0.032674 -0.362740 0.472013
v 0.057817 -0.360980 0.472013
v -0.050588 -0.359682 0.472013
v 0.075599 -0.357229 0.472013
v -0.068275 -0.355505 0.472013
v 0.093110 -0.352368 0.472013
v -0.085665 -0.350227 0.472013
v 0.110282 -0.346417 0.472013
v -0.102689 -0.343866 0.472013
v 0.127045 -0.339400 0.472013
v -0.119280 -0.336449 0.472013
v 0.143336 -0.331344 0.472013
v -0.135372 -0.328005 0.472013
v 0.159088 -0.322281 0.472013
v -0.150903 -0.318568 0.472013
v 0.174240 -0.312247 0.472013
v -0.165810 -0.308173 0.472013
v 0.188732 -0.301282 0.472013
v -0.180035 -0.296864 0.472013
v 0.202507 -0.289427 0.472013
v -0.193523 -0.284683 0.472013
v 0.215510 -0.276732 0.472013
v -0.206218 -0.271680 0.472013
v 0.227691 -0.263245 0.472013
v -0.218072 -0.257905 0.472013
v 0.239001 -0.249019 0.472013
v -0.229038 -0.243413 0.472013
v 0.249395 -0.234112 0.472013
v -0.239072 -0.228261 0.472013
v 0.258833 -0.218582 0.472013
v -0.248135 -0.212508 0.472013
v 0.267276 -0.202489 0.472013
v -0.256191 -0.196218 0.472013
v 0.274693 -0.185898 0.472013
v -0.263208 -0.179454 0.472013
v 0.281054 -0.168874 0.472013
v -0.269159 -0.162283 0.472013
v 0.286333 -0.151484 0.472013
v -0.274020 -0.144772 0.472013
v 0.290509 -0.133798 0.472013
v -0.277771 -0.126990 0.472013
v 0.293567 -0.115883 0.472013
v -0.280399 -0.109007 0.472013
v 0.295494 -0.097812 0.472013
v -0.281892 -0.090896 0.472013
v 0.296282 -0.079656 0.472013
v -0.282246 -0.072726 0.472013
v 0.295929 -0.061486 0.472013
v -0.281457 -0.054570 0.472013
v 0.294436 -0.043375 0.472013
v -0.279530 -0.036499 0.472013
v 0.291808 -0.025392 0.472013
v -0.276473 -0.018585 0.472013
v 0.288056 -0.007610 0.472013
v -0.272296 -0.000898 0.472013
v 0.283196 0.009901 0.472013
v -0.267017 0.016492 0.472013
v 0.277245 0.027072 0.472013
v -0.260657 0.033516 0.472013
v 0.270227 0.043836 0.472013
v -0.253240 0.050107 0.472013
v 0.262172 0.060126 0.472013
v -0.244796 0.066199 0.472013
v 0.253109 0.075878 0.472013
v -0.235358 0.081730 0.472013
v 0.243075 0.091031 0.472013
v -0.224964 0.096637 0.472013
v 0.232109 0.105523 0.472013
v -0.213655 0.110863 0.472013
v 0.220255 0.119298 0.472013
v -0.201474 0.124350 0.472013
v 0.207559 0.132301 0.472013
v -0.188470 0.137045 0.472013
v 0.194072 0.144482 0.472013
v -0.174695 0.148899 0.472013
v 0.179847 0.155792 0.472013
v -0.160203 0.159865 0.472013
v 0.164939 0.166186 0.472013
v -0.145051 0.169899 0.472013
v 0.149409 0.175623 0.472013
v -0.129299 0.178962 0.472013
v 0.133316 0.184067 0.472013
v -0.113009 0.187018 0.472013
v 0.116725 0.191484 0.472013
v -0.096245 0.194035 0.472013
v 0.099701 0.197844 0.472013
v -0.079074 0.199986 0.472013
v 0.082312 0.203123 0.472013
v -0.061562 0.204847 0.472013
v 0.064625 0.207300 0.472013
v -0.043781 0.208598 0.472013
v 0.046711 0.210358 0.472013
v -0.025798 0.211226 0.472013
v 0.028640 0.212284 0.472013
v -0.007686 0.212720 0.472013
v 0.010484 0.213073 0.472013
v 0.283196 0.009901 0.472013
v 0.277245 0.027072 0.472013
v 0.270227 0.043836 0.472013
v 0.262172 0.060126 0.472013
v 0.253109 0.075878 0.472013
v 0.243075 0.091031 0.472013
v 0.232109 0.105523 0.472013
v 0.220255 0.119298 0.472013
v 0.207559 0.132301 0.472013
v 0.194072 0.144482 0.472013
v 0.179847 0.155792 0.472013
v 0.164939 0.166186 0.472013
v 0.149409 0.175623 0.472013
v 0.133316 0.184067 0.472013
v 0.116725 0.191484 0.472013
v 0.099701 0.197844 0.472013
v 0.082312 0.203123 0.472013
v 0.064625 0.207300 0.472013
v 0.046711 0.210358 0.472013
v 0.028640 0.212284 0.472013
v 0.010484 0.213073 0.472013
v -0.007686 0.212720 0.472013
v -0.025798 0.211226 0.472013
v -0.043781 0.208598 0.472013
v -0.061562 0.204847 0.472013
v -0.079074 0.199986 0.472013
v -0.096245 0.194035 0.472013
v -0.113009 0.187018 0.472013
v -0.129299 0.178962 0.472013
v -0.145051 0.169899 0.472013
v -0.160203 0.159865 0.472013
v -0.174695 0.148899 0.472013
v -0.188470 0.137045 0.472013
v -0.201474 0.124350 0.472013
v -0.213655 0.110863 0.472013
v -0.224964 0.096637 0.472013
v -0.235358 0.081730 0.472013
v -0.244796 0.066199 0.472013
v -0.253240 0.050107 0.472013
v -0.260657 0.033516 0.472013
v -0.267017 0.016492 0.472013
v -0.272296 -0.000898 0.472013
v -0.276473 -0.018585 0.472013
v -0.279530 -0.036499 0.472013
v -0.281457 -0.054570 0.472013
v -0.282246 -0.072726 0.472013
v -0.281892 -0.090896 0.472013
v -0.280399 -0.109007 0.472013
v -0.277771 -0.126990 0.472013
v -0.274020 -0.144772 0.472013
v -0.269159 -0.162283 0.472013
v -0.263208 -0.179454 0.472013
v -0.256191 -0.196218 0.472013
v -0.248135 -0.212508 0.472013
v -0.239072 -0.228261 0.472013
v -0.229038 -0.243413 0.472013
v -0.218072 -0.257905 0.472013
v -0.206218 -0.271680 0.472013
v -0.193523 -0.284683 0.472013
v -0.180035 -0.296864 0.472013
v -0.165810 -0.308173 0.472013
v -0.150903 -0.318568 0.472013
v -0.135372 -0.328005 0.472013
v -0.119280 -0.336449 0.472013
v -0.102689 -0.343866 0.472013
v -0.085665 -0.350227 0.472013
v -0.068275 -0.355505 0.472013
v -0.050588 -0.359682 0.472013
v -0.032674 -0.362740 0.472013
v -0.014603 -0.364667 0.472013
v 0.003553 -0.365455 0.472013
v 0.021723 -0.365101 0.472013
v 0.039835 -0.363608 0.472013
v 0.057817 -0.360980 0.472013
v 0.075599 -0.357229 0.472013
v 0.093110 -0.352368 0.472013
v 0.110282 -0.346417 0.472013
v 0.127045 -0.339400 0.472013
v 0.143336 -0.331344 0.472013
v 0.159088 -0.322281 0.472013
v 0.174240 -0.312247 0.472013
v 0.188732 -0.301282 0.472013
v 0.202507 -0.289427 0.472013
v 0.215510 -0.276732 0.472013
v 0.227691 -0.263245 0.472013
v 0.239001 -0.249019 0.472013
v 0.249395 -0.234112 0.472013
v 0.258833 -0.218582 0.472013
v 0.267276 -0.202489 0.472013
v 0.274693 -0.185898 0.472013
v 0.281054 -0.168874 0.472013
v 0.286333 -0.151484 0.472013
v 0.290509 -0.133798 0.472013
v 0.293567 -0.115883 0.472013
v 0.295494 -0.097812 0.472013
v 0.296282 -0.079656 0.472013
v 0.295929 -0.061486 0.472013
v 0.294436 -0.043375 0.472013
v 0.291808 -0.025392 0.472013
v 0.288056 -0.007610 0.472013
vn 0 0 1
vn 0 0 -1
usemtl material_0_0
f 1//1 2//1 3//1
f 2//1 1//1 4//1
f 2//1 4//1 5//1
f 5//1 4//1 6//1
f 5//1 6//1 7//1
f 7//1 6//1 8//1
f 7//1 8//1 9//1
f 9//1 8//1 10//1
f 9//1 10//1 11//1
f 11//1 10//1 12//1
f 11//1 12//1 13//1
f 13//1 12//1 14//1
f 13//1 14//1 15//1
f 15//1 14//1 16//1
f 15//1 16//1 17//1
f 17//1 16//1 18//1
f 17//1 18//1 19//1
f 19//1 18//1 20//1
f 19//1 20//1 21//1
f 21//1 20//1 22//1
f 21//1 22//1 23//1
f 23//1 22//1 24//1
f 23//1 24//1 25//1
f 25//1 24//1 26//1
f 25//1 26//1 27//1
f 27//1 26//1 28//1
f 27//1 28//1 29//1
f 29//1 28//1 30//1
f 29//1 30//1 31//1
f 31//1 30//1 32//1
f 31//1 32//1 33//1
f 33//1 32//1 34//1
f 33//1 34//1 35//1
f 35//1 34//1 36//1
f 35//1 36//1 37//1
f 37//1 36//1 38//1
f 37//1 38//1 39//1
f 39//1 38//1 40//1
f 39//1 40//1 41//1
f 41//1 40//1 42//1
f 41//1 42//1 43//1
f 43//1 42//1 44//1
f 43//1 44//1 45//1
f 45//1 44//1 46//1
f 45//1 46//1 47//1
f 47//1 46//1 48//1
f 47//1 48//1 49//1
f 49//1 48//1 50//1
f 49//1 50//1 51//1
f 51//1 50//1 52//1
f 51//1 52//1 53//1
f 53//1 52//1 54//1
f 53//1 54//1 55//1
f 55//1 54//1 56//1
f 55//1 56//1 57//1
f 57//1 56//1 58//1
f 57//1 58//1 59//1
f 59//1 58//1 60//1
f 59//1 60//1 61//1
f 61//1 60//1 62//1
f 61//1 62//1 63//1
f 63//1 62//1 64//1
f 63//1 64//1 65//1
f 65//1 64//1 66//1
f 65//1 66//1 67//1
f 67//1 66//1 68//1
f 67//1 68//1 69//1
f 69//1 68//1 70//1
f 69//1 70//1 71//1
f 71//1 70//1 72//1
f 71//1 72//1 73//1
f 73//1 72//1 74//1
f 73//1 74//1 75//1
f 75//1 74//1 76//1
f 75//1 76//1 77//1
f 77//1 76//1 78//1
f 77//1 78//1 79//1
f 79//1 78//1 80//1
f 79//1 80//1 81//1
f 81//1 80//1 82//1
f 81//1 82//1 83//1
f 83//1 82//1 84//1
f 83//1 84//1 85//1
f 85//1 84//1 86//1
f 85//1 86//1 87//1
f 87//1 86//1 88//1
f 87//1 88//1 89//1
f 89//1 88//1 90//1
f 89//1 90//1 91//1
f 91//1 90//1 92//1
f 91//1 92//1 93//1
f 93//1 92//1 94//1
f 93//1 94//1 95//1
f 95//1 94//1 96//1
f 95//1 96//1 97//1
f 97//1 96//1 98//1
f 97//1 98//1 99//1
f 99//1 98//1 100//1
f 101//2 102//2 103//2
f 103//2 102//2 104//2
f 102//2 105//2 104//2
f 104//2 105//2 106//2
f 105//2 107//2 106//2
f 106//2 107//2 108//2
f 107//2 109//2 108//2
f 108//2 109//2 110//2
f 109//2 111//2 110//2
f 110//2 111//2 112//2
f 111//2 113//2 112//2
f 112//2 113//2 114//2
f 113//2 115//2 114//2
f 114//2 115//2 116//2
f 115//2 117//2 116//2
f 116//2 117//2 118//2
f 117//2 119//2 118//2
f 118//2 119//2 120//2
f 119//2 121//2 120//2
f 120//2 121//2 122//2
f 121//2 123//2 122//2
f 122//2 123//2 124//2
f 123//2 125//2 124//2
f 124//2 125//2 126//2
f 125//2 127//2 126//2
f 126//2 127//2 128//2
f 127//2 129//2 128//2
f 128//2 129//2 130//2
f 129//2 131//2 130//2
f 130//2 131//2 132//2
f 131//2 133//2 132//2
f 132//2 133//2 134//2
f 133//2 135//2 134//2
f 134//2 135//2 136//2
f 135//2 137//2 136//2
f 136//2 137//2 138//2
f 137//2 139//2 138//2
f 138//2 139//2 140//2
f 139//2 141//2 140//2
f 140//2 141//2 142//2
f 141//2 143//2 142//2
f 142//2 143//2 144//2
f 143//2 145//2 144//2
f 144//2 145//2 146//2
f 145//2 147//2 146//2
f 146//2 147//2 148//2
f 147//2 149//2 148//2
f 148//2 149//2 150//2
f 149//2 151//2 150//2
f 150//2 151//2 152//2
f 151//2 153//2 152//2
f 152//2 153//2 154//2
f 153//2 155//2 154//2
f 154//2 155//2 156//2
f 155//2 157//2 156//2
f 156//2 157//2 158//2
f 157//2 159//2 158//2
f 158//2 159//2 160//2
f 159//2 161//2 160//2
f 160//2 161//2 162//2
f 161//2 163//2 162//2
f 162//2 163//2 164//2
f 163//2 165//2 164//2
f 164//2 165//2 166//2
f 165//2 167//2 166//2
f 166//2 167//2 168//2
f 167//2 169//2 168//2
f 168//2 169//2 170//2
f 169//2 171//2 170//2
f 170//2 171//2 172//2
f 171//2 173//2 172//2
f 172//2 173//2 174//2
f 173//2 175//2 174//2
f 174//2 175//2 176//2
f 175//2 177//2 176//2
f 176//2 177//2 178//2
f 177//2 179//2 178//2
f 178//2 179//2 180//2
f 179//2 181//2 180//2
f 180//2 181//2 182//2
f 181//2 183//2 182//2
f 182//2 183//2 184//2
f 183//2 185//2 184//2
f 184//2 185//2 186//2
f 185//2 187//2 186//2
f 186//2 187//2 188//2
f 187//2 189//2 188//2
f 188//2 189//2 190//2
f 189//2 191//2 190//2
f 190//2 191//2 192//2
f 191//2 193//2 192//2
f 192//2 193//2 194//2
f 193//2 195//2 194//2
f 194//2 195//2 196//2
f 195//2 197//2 196//2
f 196//2 197//2 198//2
f 197//2 199//2 198//2
f 200//2 198//2 199//2
usemtl material_1_0
