# SSTK version 0.8.0
# 27
mtllib original-27.mtl
o #ID528
v 0.195086 0.465814 0.454438
v 0.197132 0.462093 0.456128
v 0.197132 0.462093 0.454438
v 0.196109 0.463953 0.456128
v 0.195086 0.465814 0.456128
v 0.195086 0.465814 0.456128
v 0.195086 0.465814 0.454438
v 0.196109 0.463953 0.456128
v 0.197132 0.462093 0.456128
v 0.197132 0.462093 0.454438
v 0.197132 0.462093 0.456128
v 0.196109 0.463953 0.456128
v 0.197132 0.462093 0.454438
v 0.195086 0.465814 0.454438
v 0.195086 0.465814 0.456128
v 0.199407 0.458507 0.456128
v 0.199407 0.458507 0.454438
v 0.198269 0.460300 0.456128
v 0.198269 0.460300 0.456128
v 0.199407 0.458507 0.456128
v 0.199407 0.458507 0.454438
v 0.199407 0.458507 0.456128
v 0.198269 0.460300 0.456128
v 0.199407 0.458507 0.454438
v 0.193278 0.469656 0.454438
v 0.194182 0.467735 0.456128
v 0.193278 0.469656 0.456128
v 0.193278 0.469656 0.456128
v 0.193278 0.469656 0.454438
v 0.194182 0.467735 0.456128
v 0.194182 0.467735 0.456128
v 0.193278 0.469656 0.454438
v 0.193278 0.469656 0.456128
v 0.201903 0.455072 0.456128
v 0.201903 0.455072 0.454438
v 0.200655 0.456790 0.456128
v 0.200655 0.456790 0.456128
v 0.201903 0.455072 0.456128
v 0.201903 0.455072 0.454438
v 0.201903 0.455072 0.456128
v 0.200655 0.456790 0.456128
v 0.201903 0.455072 0.454438
v 0.191715 0.473605 0.454438
v 0.192496 0.471631 0.456128
v 0.191715 0.473605 0.456128
v 0.191715 0.473605 0.456128
v 0.191715 0.473605 0.454438
v 0.192496 0.471631 0.456128
v 0.192496 0.471631 0.456128
v 0.191715 0.473605 0.454438
v 0.191715 0.473605 0.456128
v 0.204610 0.451800 0.456128
v 0.204610 0.451800 0.454438
v 0.203257 0.453436 0.456128
v 0.203257 0.453436 0.456128
v 0.204610 0.451800 0.456128
v 0.204610 0.451800 0.454438
v 0.204610 0.451800 0.456128
v 0.203257 0.453436 0.456128
v 0.204610 0.451800 0.454438
v 0.190402 0.477643 0.454438
v 0.191059 0.475624 0.456128
v 0.190402 0.477643 0.456128
v 0.190402 0.477643 0.456128
v 0.190402 0.477643 0.454438
v 0.191059 0.475624 0.456128
v 0.191059 0.475624 0.456128
v 0.190402 0.477643 0.454438
v 0.190402 0.477643 0.456128
v 0.207517 0.448704 0.456128
v 0.207517 0.448704 0.454438
v 0.206063 0.450252 0.456128
v 0.206063 0.450252 0.456128
v 0.207517 0.448704 0.456128
v 0.207517 0.448704 0.454438
v 0.207517 0.448704 0.456128
v 0.206063 0.450252 0.456128
v 0.207517 0.448704 0.454438
v 0.189346 0.481756 0.454438
v 0.189874 0.479700 0.456128
v 0.189346 0.481756 0.456128
v 0.189346 0.481756 0.456128
v 0.189346 0.481756 0.454438
v 0.189874 0.479700 0.456128
v 0.189874 0.479700 0.456128
v 0.189346 0.481756 0.454438
v 0.189346 0.481756 0.456128
v 0.210612 0.445798 0.456128
v 0.210612 0.445798 0.454438
v 0.209065 0.447251 0.456128
v 0.209065 0.447251 0.456128
v 0.210612 0.445798 0.456128
v 0.210612 0.445798 0.454438
v 0.210612 0.445798 0.456128
v 0.209065 0.447251 0.456128
v 0.210612 0.445798 0.454438
v 0.188551 0.485928 0.454438
v 0.188949 0.483842 0.456128
v 0.188551 0.485928 0.456128
v 0.188551 0.485928 0.456128
v 0.188551 0.485928 0.454438
v 0.188949 0.483842 0.456128
v 0.188949 0.483842 0.456128
v 0.188551 0.485928 0.454438
v 0.188551 0.485928 0.456128
v 0.213885 0.443091 0.454438
v 0.213885 0.443091 0.456128
v 0.212248 0.444444 0.456128
v 0.212248 0.444444 0.456128
v 0.213885 0.443091 0.456128
v 0.213885 0.443091 0.454438
v 0.213885 0.443091 0.456128
v 0.212248 0.444444 0.456128
v 0.213885 0.443091 0.454438
v 0.188018 0.490141 0.454438
v 0.188284 0.488034 0.456128
v 0.188018 0.490141 0.456128
v 0.188018 0.490141 0.456128
v 0.188018 0.490141 0.454438
v 0.188284 0.488034 0.456128
v 0.188284 0.488034 0.456128
v 0.188018 0.490141 0.454438
v 0.188018 0.490141 0.456128
v 0.215602 0.441843 0.456128
v 0.217320 0.440595 0.456128
v 0.217320 0.440595 0.454438
v 0.215602 0.441843 0.456128
v 0.217320 0.440595 0.456128
v 0.217320 0.440595 0.454438
v 0.217320 0.440595 0.456128
v 0.215602 0.441843 0.456128
v 0.217320 0.440595 0.454438
v 0.187752 0.494379 0.454438
v 0.187885 0.492260 0.456128
v 0.187752 0.494379 0.456128
v 0.187752 0.494379 0.456128
v 0.187752 0.494379 0.454438
v 0.187885 0.492260 0.456128
v 0.187885 0.492260 0.456128
v 0.187752 0.494379 0.454438
v 0.187752 0.494379 0.456128
v 0.220906 0.438319 0.454438
v 0.220906 0.438319 0.456128
v 0.219113 0.439457 0.456128
v 0.219113 0.439457 0.456128
v 0.220906 0.438319 0.456128
v 0.220906 0.438319 0.454438
v 0.220906 0.438319 0.456128
v 0.219113 0.439457 0.456128
v 0.220906 0.438319 0.454438
v 0.187752 0.498625 0.454438
v 0.187752 0.496502 0.456128
v 0.187752 0.498625 0.456128
v 0.187752 0.498625 0.456128
v 0.187752 0.498625 0.454438
v 0.187752 0.496502 0.456128
v 0.187752 0.496502 0.456128
v 0.187752 0.498625 0.454438
v 0.187752 0.498625 0.456128
v 0.224627 0.436273 0.454438
v 0.224627 0.436273 0.456128
v 0.222766 0.437296 0.456128
v 0.222766 0.437296 0.456128
v 0.224627 0.436273 0.456128
v 0.224627 0.436273 0.454438
v 0.224627 0.436273 0.456128
v 0.222766 0.437296 0.456128
v 0.224627 0.436273 0.454438
v 0.188018 0.502863 0.454438
v 0.187885 0.500744 0.456128
v 0.188018 0.502863 0.456128
v 0.188018 0.502863 0.456128
v 0.188018 0.502863 0.454438
v 0.187885 0.500744 0.456128
v 0.187885 0.500744 0.456128
v 0.188018 0.502863 0.454438
v 0.188018 0.502863 0.456128
v 0.228469 0.434465 0.454438
v 0.228469 0.434465 0.456128
v 0.226548 0.435369 0.456128
v 0.226548 0.435369 0.456128
v 0.228469 0.434465 0.456128
v 0.228469 0.434465 0.454438
v 0.228469 0.434465 0.456128
v 0.226548 0.435369 0.456128
v 0.228469 0.434465 0.454438
v 0.188551 0.507076 0.454438
v 0.188284 0.504970 0.456128
v 0.188551 0.507076 0.456128
v 0.188551 0.507076 0.456128
v 0.188551 0.507076 0.454438
v 0.188284 0.504970 0.456128
v 0.188284 0.504970 0.456128
v 0.188551 0.507076 0.454438
v 0.188551 0.507076 0.456128
v 0.232417 0.432902 0.456128
v 0.232417 0.432902 0.454438
v 0.230443 0.433684 0.456128
v 0.230443 0.433684 0.456128
v 0.232417 0.432902 0.454438
v 0.232417 0.432902 0.456128
v 0.232417 0.432902 0.456128
v 0.230443 0.433684 0.456128
v 0.232417 0.432902 0.454438
v 0.189346 0.511248 0.454438
v 0.188949 0.509162 0.456128
v 0.189346 0.511248 0.456128
v 0.189346 0.511248 0.456128
v 0.189346 0.511248 0.454438
v 0.188949 0.509162 0.456128
v 0.188949 0.509162 0.456128
v 0.189346 0.511248 0.454438
v 0.189346 0.511248 0.456128
v 0.236456 0.431590 0.456128
v 0.236456 0.431590 0.454438
v 0.234436 0.432246 0.456128
v 0.234436 0.432246 0.456128
v 0.236456 0.431590 0.456128
v 0.236456 0.431590 0.454438
v 0.236456 0.431590 0.456128
v 0.234436 0.432246 0.456128
v 0.236456 0.431590 0.454438
v 0.190402 0.515361 0.454438
v 0.189874 0.513304 0.456128
v 0.190402 0.515361 0.456128
v 0.190402 0.515361 0.456128
v 0.190402 0.515361 0.454438
v 0.189874 0.513304 0.456128
v 0.189874 0.513304 0.456128
v 0.190402 0.515361 0.454438
v 0.190402 0.515361 0.456128
v 0.240569 0.430534 0.456128
v 0.240569 0.430534 0.454438
v 0.238512 0.431062 0.456128
v 0.238512 0.431062 0.456128
v 0.240569 0.430534 0.454438
v 0.240569 0.430534 0.456128
v 0.240569 0.430534 0.456128
v 0.238512 0.431062 0.456128
v 0.240569 0.430534 0.454438
v 0.191715 0.519399 0.454438
v 0.191059 0.517380 0.456128
v 0.191715 0.519399 0.456128
v 0.191715 0.519399 0.456128
v 0.191715 0.519399 0.454438
v 0.191059 0.517380 0.456128
v 0.191059 0.517380 0.456128
v 0.191715 0.519399 0.454438
v 0.191715 0.519399 0.456128
v 0.242654 0.430136 0.456128
v 0.244740 0.429738 0.456128
v 0.244740 0.429738 0.454438
v 0.242654 0.430136 0.456128
v 0.244740 0.429738 0.456128
v 0.244740 0.429738 0.454438
v 0.244740 0.429738 0.456128
v 0.242654 0.430136 0.456128
v 0.244740 0.429738 0.454438
v 0.193278 0.523347 0.454438
v 0.192496 0.521373 0.456128
v 0.193278 0.523347 0.456128
v 0.193278 0.523347 0.456128
v 0.193278 0.523347 0.454438
v 0.192496 0.521373 0.456128
v 0.192496 0.521373 0.456128
v 0.193278 0.523347 0.454438
v 0.193278 0.523347 0.456128
v 0.248953 0.429206 0.456128
v 0.248953 0.429206 0.454438
v 0.246847 0.429472 0.456128
v 0.246847 0.429472 0.456128
v 0.248953 0.429206 0.456128
v 0.248953 0.429206 0.454438
v 0.248953 0.429206 0.456128
v 0.246847 0.429472 0.456128
v 0.248953 0.429206 0.454438
v 0.195086 0.527190 0.454438
v 0.194182 0.525269 0.456128
v 0.195086 0.527190 0.456128
v 0.195086 0.527190 0.456128
v 0.195086 0.527190 0.454438
v 0.194182 0.525269 0.456128
v 0.194182 0.525269 0.456128
v 0.195086 0.527190 0.454438
v 0.195086 0.527190 0.456128
v 0.253191 0.428939 0.454438
v 0.251072 0.429072 0.456128
v 0.253191 0.428939 0.456128
v 0.253191 0.428939 0.456128
v 0.251072 0.429072 0.456128
v 0.253191 0.428939 0.454438
v 0.253191 0.428939 0.456128
v 0.251072 0.429072 0.456128
v 0.253191 0.428939 0.454438
v 0.197132 0.530911 0.454438
v 0.196109 0.529051 0.456128
v 0.197132 0.530911 0.456128
v 0.197132 0.530911 0.456128
v 0.197132 0.530911 0.454438
v 0.196109 0.529051 0.456128
v 0.196109 0.529051 0.456128
v 0.197132 0.530911 0.454438
v 0.197132 0.530911 0.456128
v 0.257438 0.428939 0.456128
v 0.257438 0.428939 0.454438
v 0.255315 0.428939 0.456128
v 0.255315 0.428939 0.456128
v 0.257438 0.428939 0.456128
v 0.257438 0.428939 0.454438
v 0.257438 0.428939 0.456128
v 0.255315 0.428939 0.456128
v 0.257438 0.428939 0.454438
v 0.199407 0.534497 0.454438
v 0.198269 0.532704 0.456128
v 0.199407 0.534497 0.456128
v 0.199407 0.534497 0.456128
v 0.199407 0.534497 0.454438
v 0.198269 0.532704 0.456128
v 0.198269 0.532704 0.456128
v 0.199407 0.534497 0.454438
v 0.199407 0.534497 0.456128
v 0.261676 0.429206 0.456128
v 0.261676 0.429206 0.454438
v 0.259557 0.429072 0.456128
v 0.259557 0.429072 0.456128
v 0.261676 0.429206 0.456128
v 0.261676 0.429206 0.454438
v 0.261676 0.429206 0.456128
v 0.259557 0.429072 0.456128
v 0.261676 0.429206 0.454438
v 0.201903 0.537932 0.454438
v 0.200655 0.536214 0.456128
v 0.201903 0.537932 0.456128
v 0.201903 0.537932 0.456128
v 0.201903 0.537932 0.454438
v 0.200655 0.536214 0.456128
v 0.200655 0.536214 0.456128
v 0.201903 0.537932 0.454438
v 0.201903 0.537932 0.456128
v 0.265889 0.429738 0.454438
v 0.265889 0.429738 0.456128
v 0.263782 0.429472 0.456128
v 0.263782 0.429472 0.456128
v 0.265889 0.429738 0.456128
v 0.265889 0.429738 0.454438
v 0.265889 0.429738 0.456128
v 0.263782 0.429472 0.456128
v 0.265889 0.429738 0.454438
v 0.204610 0.541204 0.454438
v 0.203257 0.539568 0.456128
v 0.204610 0.541204 0.456128
v 0.204610 0.541204 0.456128
v 0.204610 0.541204 0.454438
v 0.203257 0.539568 0.456128
v 0.203257 0.539568 0.456128
v 0.204610 0.541204 0.454438
v 0.204610 0.541204 0.456128
v 0.270060 0.430534 0.456128
v 0.270060 0.430534 0.454438
v 0.267975 0.430136 0.456128
v 0.267975 0.430136 0.456128
v 0.270060 0.430534 0.454438
v 0.270060 0.430534 0.456128
v 0.270060 0.430534 0.456128
v 0.267975 0.430136 0.456128
v 0.270060 0.430534 0.454438
v 0.207517 0.544300 0.454438
v 0.206063 0.542752 0.456128
v 0.207517 0.544300 0.456128
v 0.207517 0.544300 0.456128
v 0.207517 0.544300 0.454438
v 0.206063 0.542752 0.456128
v 0.206063 0.542752 0.456128
v 0.207517 0.544300 0.454438
v 0.207517 0.544300 0.456128
v 0.274173 0.431590 0.454438
v 0.274173 0.431590 0.456128
v 0.272117 0.431062 0.456128
v 0.272117 0.431062 0.456128
v 0.274173 0.431590 0.456128
v 0.274173 0.431590 0.454438
v 0.274173 0.431590 0.456128
v 0.272117 0.431062 0.456128
v 0.274173 0.431590 0.454438
v 0.210612 0.547207 0.456128
v 0.210612 0.547207 0.454438
v 0.209065 0.545753 0.456128
v 0.209065 0.545753 0.456128
v 0.210612 0.547207 0.456128
v 0.210612 0.547207 0.454438
v 0.209065 0.545753 0.456128
v 0.210612 0.547207 0.454438
v 0.210612 0.547207 0.456128
v 0.278212 0.432902 0.456128
v 0.278212 0.432902 0.454438
v 0.276193 0.432246 0.456128
v 0.276193 0.432246 0.456128
v 0.278212 0.432902 0.454438
v 0.278212 0.432902 0.456128
v 0.278212 0.432902 0.456128
v 0.276193 0.432246 0.456128
v 0.278212 0.432902 0.454438
v 0.213885 0.549913 0.454438
v 0.213885 0.549913 0.456128
v 0.212248 0.548560 0.456128
v 0.212248 0.548560 0.456128
v 0.213885 0.549913 0.456128
v 0.213885 0.549913 0.454438
v 0.212248 0.548560 0.456128
v 0.213885 0.549913 0.454438
v 0.213885 0.549913 0.456128
v 0.280186 0.433684 0.456128
v 0.282160 0.434465 0.456128
v 0.282160 0.434465 0.454438
v 0.280186 0.433684 0.456128
v 0.282160 0.434465 0.456128
v 0.282160 0.434465 0.454438
v 0.282160 0.434465 0.456128
v 0.280186 0.433684 0.456128
v 0.282160 0.434465 0.454438
v 0.215602 0.551161 0.456128
v 0.217320 0.552409 0.456128
v 0.217320 0.552409 0.454438
v 0.215602 0.551161 0.456128
v 0.217320 0.552409 0.456128
v 0.217320 0.552409 0.454438
v 0.215602 0.551161 0.456128
v 0.217320 0.552409 0.454438
v 0.217320 0.552409 0.456128
v 0.284081 0.435369 0.456128
v 0.286002 0.436273 0.456128
v 0.286002 0.436273 0.454438
v 0.284081 0.435369 0.456128
v 0.286002 0.436273 0.456128
v 0.286002 0.436273 0.454438
v 0.286002 0.436273 0.456128
v 0.284081 0.435369 0.456128
v 0.286002 0.436273 0.454438
v 0.220906 0.554685 0.456128
v 0.220906 0.554685 0.454438
v 0.219113 0.553547 0.456128
v 0.219113 0.553547 0.456128
v 0.220906 0.554685 0.456128
v 0.220906 0.554685 0.454438
v 0.219113 0.553547 0.456128
v 0.220906 0.554685 0.454438
v 0.220906 0.554685 0.456128
v 0.289724 0.438319 0.454438
v 0.289724 0.438319 0.456128
v 0.287863 0.437296 0.456128
v 0.287863 0.437296 0.456128
v 0.289724 0.438319 0.456128
v 0.289724 0.438319 0.454438
v 0.289724 0.438319 0.456128
v 0.287863 0.437296 0.456128
v 0.289724 0.438319 0.454438
v 0.224627 0.556730 0.454438
v 0.224627 0.556730 0.456128
v 0.222766 0.555708 0.456128
v 0.222766 0.555708 0.456128
v 0.224627 0.556730 0.456128
v 0.224627 0.556730 0.454438
v 0.222766 0.555708 0.456128
v 0.224627 0.556730 0.454438
v 0.224627 0.556730 0.456128
v 0.293309 0.440595 0.456128
v 0.293309 0.440595 0.454438
v 0.291516 0.439457 0.456128
v 0.291516 0.439457 0.456128
v 0.293309 0.440595 0.456128
v 0.293309 0.440595 0.454438
v 0.293309 0.440595 0.456128
v 0.291516 0.439457 0.456128
v 0.293309 0.440595 0.454438
v 0.228469 0.558539 0.456128
v 0.228469 0.558539 0.454438
v 0.226548 0.557635 0.456128
v 0.226548 0.557635 0.456128
v 0.228469 0.558539 0.456128
v 0.228469 0.558539 0.454438
v 0.226548 0.557635 0.456128
v 0.228469 0.558539 0.454438
v 0.228469 0.558539 0.456128
v 0.296745 0.443091 0.454438
v 0.296745 0.443091 0.456128
v 0.295027 0.441843 0.456128
v 0.295027 0.441843 0.456128
v 0.296745 0.443091 0.456128
v 0.296745 0.443091 0.454438
v 0.296745 0.443091 0.456128
v 0.295027 0.441843 0.456128
v 0.296745 0.443091 0.454438
v 0.230443 0.559320 0.456128
v 0.232417 0.560102 0.456128
v 0.232417 0.560102 0.454438
v 0.230443 0.559320 0.456128
v 0.232417 0.560102 0.456128
v 0.232417 0.560102 0.454438
v 0.230443 0.559320 0.456128
v 0.232417 0.560102 0.454438
v 0.232417 0.560102 0.456128
v 0.300017 0.445798 0.456128
v 0.300017 0.445798 0.454438
v 0.298381 0.444444 0.456128
v 0.298381 0.444444 0.456128
v 0.300017 0.445798 0.454438
v 0.300017 0.445798 0.456128
v 0.300017 0.445798 0.456128
v 0.298381 0.444444 0.456128
v 0.300017 0.445798 0.454438
v 0.236456 0.561414 0.456128
v 0.236456 0.561414 0.454438
v 0.234436 0.560758 0.456128
v 0.234436 0.560758 0.456128
v 0.236456 0.561414 0.456128
v 0.236456 0.561414 0.454438
v 0.234436 0.560758 0.456128
v 0.236456 0.561414 0.454438
v 0.236456 0.561414 0.456128
v 0.301564 0.447251 0.456128
v 0.303112 0.448704 0.456128
v 0.303112 0.448704 0.454438
v 0.301564 0.447251 0.456128
v 0.303112 0.448704 0.456128
v 0.303112 0.448704 0.454438
v 0.303112 0.448704 0.456128
v 0.301564 0.447251 0.456128
v 0.303112 0.448704 0.454438
v 0.240569 0.562470 0.456128
v 0.238512 0.561942 0.456128
v 0.240569 0.562470 0.454438
v 0.238512 0.561942 0.456128
v 0.240569 0.562470 0.454438
v 0.240569 0.562470 0.456128
v 0.238512 0.561942 0.456128
v 0.240569 0.562470 0.454438
v 0.240569 0.562470 0.456128
v 0.304566 0.450252 0.456128
v 0.306019 0.451800 0.454438
v 0.306019 0.451800 0.456128
v 0.306019 0.451800 0.456128
v 0.304566 0.450252 0.456128
v 0.306019 0.451800 0.454438
v 0.306019 0.451800 0.456128
v 0.304566 0.450252 0.456128
v 0.306019 0.451800 0.454438
v 0.242654 0.562868 0.456128
v 0.244740 0.563266 0.456128
v 0.244740 0.563266 0.454438
v 0.242654 0.562868 0.456128
v 0.244740 0.563266 0.456128
v 0.244740 0.563266 0.454438
v 0.242654 0.562868 0.456128
v 0.244740 0.563266 0.454438
v 0.244740 0.563266 0.456128
v 0.307372 0.453436 0.456128
v 0.308726 0.455072 0.454438
v 0.308726 0.455072 0.456128
v 0.308726 0.455072 0.456128
v 0.307372 0.453436 0.456128
v 0.308726 0.455072 0.454438
v 0.308726 0.455072 0.456128
v 0.307372 0.453436 0.456128
v 0.308726 0.455072 0.454438
v 0.248953 0.563798 0.456128
v 0.248953 0.563798 0.454438
v 0.246847 0.563532 0.456128
v 0.246847 0.563532 0.456128
v 0.248953 0.563798 0.456128
v 0.248953 0.563798 0.454438
v 0.246847 0.563532 0.456128
v 0.248953 0.563798 0.454438
v 0.248953 0.563798 0.456128
v 0.309974 0.456790 0.456128
v 0.311222 0.458507 0.454438
v 0.311222 0.458507 0.456128
v 0.311222 0.458507 0.456128
v 0.309974 0.456790 0.456128
v 0.311222 0.458507 0.454438
v 0.311222 0.458507 0.456128
v 0.309974 0.456790 0.456128
v 0.311222 0.458507 0.454438
v 0.253191 0.564065 0.456128
v 0.251072 0.563931 0.456128
v 0.253191 0.564065 0.454438
v 0.251072 0.563931 0.456128
v 0.253191 0.564065 0.454438
v 0.253191 0.564065 0.456128
v 0.251072 0.563931 0.456128
v 0.253191 0.564065 0.454438
v 0.253191 0.564065 0.456128
v 0.312360 0.460300 0.456128
v 0.313497 0.462093 0.454438
v 0.313497 0.462093 0.456128
v 0.313497 0.462093 0.456128
v 0.312360 0.460300 0.456128
v 0.313497 0.462093 0.454438
v 0.313497 0.462093 0.456128
v 0.312360 0.460300 0.456128
v 0.313497 0.462093 0.454438
v 0.257438 0.564065 0.456128
v 0.257438 0.564065 0.454438
v 0.255315 0.564065 0.456128
v 0.255315 0.564065 0.456128
v 0.257438 0.564065 0.456128
v 0.257438 0.564065 0.454438
v 0.255315 0.564065 0.456128
v 0.257438 0.564065 0.454438
v 0.257438 0.564065 0.456128
v 0.314520 0.463953 0.456128
v 0.315543 0.465814 0.454438
v 0.315543 0.465814 0.456128
v 0.315543 0.465814 0.456128
v 0.314520 0.463953 0.456128
v 0.315543 0.465814 0.454438
v 0.315543 0.465814 0.456128
v 0.314520 0.463953 0.456128
v 0.315543 0.465814 0.454438
v 0.261676 0.563798 0.454438
v 0.261676 0.563798 0.456128
v 0.259557 0.563931 0.456128
v 0.259557 0.563931 0.456128
v 0.261676 0.563798 0.456128
v 0.261676 0.563798 0.454438
v 0.259557 0.563931 0.456128
v 0.261676 0.563798 0.454438
v 0.261676 0.563798 0.456128
v 0.316447 0.467735 0.456128
v 0.317351 0.469656 0.454438
v 0.317351 0.469656 0.456128
v 0.317351 0.469656 0.456128
v 0.316447 0.467735 0.456128
v 0.317351 0.469656 0.454438
v 0.317351 0.469656 0.456128
v 0.316447 0.467735 0.456128
v 0.317351 0.469656 0.454438
v 0.263782 0.563532 0.456128
v 0.265889 0.563266 0.456128
v 0.265889 0.563266 0.454438
v 0.263782 0.563532 0.456128
v 0.265889 0.563266 0.456128
v 0.265889 0.563266 0.454438
v 0.263782 0.563532 0.456128
v 0.265889 0.563266 0.454438
v 0.265889 0.563266 0.456128
v 0.318133 0.471631 0.456128
v 0.318915 0.473605 0.454438
v 0.318915 0.473605 0.456128
v 0.318915 0.473605 0.456128
v 0.318133 0.471631 0.456128
v 0.318915 0.473605 0.454438
v 0.318915 0.473605 0.456128
v 0.318133 0.471631 0.456128
v 0.318915 0.473605 0.454438
v 0.270060 0.562470 0.456128
v 0.267975 0.562868 0.456128
v 0.270060 0.562470 0.454438
v 0.267975 0.562868 0.456128
v 0.270060 0.562470 0.454438
v 0.270060 0.562470 0.456128
v 0.267975 0.562868 0.456128
v 0.270060 0.562470 0.454438
v 0.270060 0.562470 0.456128
v 0.319570 0.475624 0.456128
v 0.320227 0.477643 0.454438
v 0.320227 0.477643 0.456128
v 0.320227 0.477643 0.456128
v 0.319570 0.475624 0.456128
v 0.320227 0.477643 0.454438
v 0.320227 0.477643 0.456128
v 0.319570 0.475624 0.456128
v 0.320227 0.477643 0.454438
v 0.274173 0.561414 0.456128
v 0.274173 0.561414 0.454438
v 0.272117 0.561942 0.456128
v 0.272117 0.561942 0.456128
v 0.274173 0.561414 0.456128
v 0.274173 0.561414 0.454438
v 0.272117 0.561942 0.456128
v 0.274173 0.561414 0.454438
v 0.274173 0.561414 0.456128
v 0.320755 0.479700 0.456128
v 0.321283 0.481756 0.454438
v 0.321283 0.481756 0.456128
v 0.321283 0.481756 0.456128
v 0.320755 0.479700 0.456128
v 0.321283 0.481756 0.454438
v 0.321283 0.481756 0.456128
v 0.320755 0.479700 0.456128
v 0.321283 0.481756 0.454438
v 0.276193 0.560758 0.456128
v 0.278212 0.560102 0.456128
v 0.278212 0.560102 0.454438
v 0.276193 0.560758 0.456128
v 0.278212 0.560102 0.456128
v 0.278212 0.560102 0.454438
v 0.276193 0.560758 0.456128
v 0.278212 0.560102 0.454438
v 0.278212 0.560102 0.456128
v 0.321681 0.483842 0.456128
v 0.322078 0.485928 0.454438
v 0.322078 0.485928 0.456128
v 0.322078 0.485928 0.456128
v 0.321681 0.483842 0.456128
v 0.322078 0.485928 0.454438
v 0.322078 0.485928 0.456128
v 0.321681 0.483842 0.456128
v 0.322078 0.485928 0.454438
v 0.280186 0.559320 0.456128
v 0.282160 0.558539 0.456128
v 0.282160 0.558539 0.454438
v 0.280186 0.559320 0.456128
v 0.282160 0.558539 0.456128
v 0.282160 0.558539 0.454438
v 0.280186 0.559320 0.456128
v 0.282160 0.558539 0.454438
v 0.282160 0.558539 0.456128
v 0.322345 0.488034 0.456128
v 0.322611 0.490141 0.454438
v 0.322611 0.490141 0.456128
v 0.322611 0.490141 0.456128
v 0.322345 0.488034 0.456128
v 0.322611 0.490141 0.454438
v 0.322611 0.490141 0.456128
v 0.322345 0.488034 0.456128
v 0.322611 0.490141 0.454438
v 0.286002 0.556730 0.456128
v 0.286002 0.556730 0.454438
v 0.284081 0.557635 0.456128
v 0.284081 0.557635 0.456128
v 0.286002 0.556730 0.456128
v 0.286002 0.556730 0.454438
v 0.284081 0.557635 0.456128
v 0.286002 0.556730 0.454438
v 0.286002 0.556730 0.456128
v 0.322744 0.492260 0.456128
v 0.322877 0.494379 0.454438
v 0.322877 0.494379 0.456128
v 0.322877 0.494379 0.456128
v 0.322744 0.492260 0.456128
v 0.322877 0.494379 0.454438
v 0.322877 0.494379 0.456128
v 0.322744 0.492260 0.456128
v 0.322877 0.494379 0.454438
v 0.289724 0.554685 0.454438
v 0.287863 0.555708 0.456128
v 0.289724 0.554685 0.456128
v 0.289724 0.554685 0.456128
v 0.289724 0.554685 0.454438
v 0.287863 0.555708 0.456128
v 0.287863 0.555708 0.456128
v 0.289724 0.554685 0.454438
v 0.289724 0.554685 0.456128
v 0.322877 0.496502 0.456128
v 0.322877 0.498625 0.454438
v 0.322877 0.498625 0.456128
v 0.322877 0.498625 0.456128
v 0.322877 0.496502 0.456128
v 0.322877 0.498625 0.454438
v 0.322877 0.498625 0.456128
v 0.322877 0.496502 0.456128
v 0.322877 0.498625 0.454438
v 0.293309 0.552409 0.456128
v 0.293309 0.552409 0.454438
v 0.291516 0.553547 0.456128
v 0.291516 0.553547 0.456128
v 0.293309 0.552409 0.456128
v 0.293309 0.552409 0.454438
v 0.291516 0.553547 0.456128
v 0.293309 0.552409 0.454438
v 0.293309 0.552409 0.456128
v 0.322744 0.500744 0.456128
v 0.322611 0.502863 0.454438
v 0.322611 0.502863 0.456128
v 0.322611 0.502863 0.456128
v 0.322744 0.500744 0.456128
v 0.322611 0.502863 0.454438
v 0.322611 0.502863 0.456128
v 0.322744 0.500744 0.456128
v 0.322611 0.502863 0.454438
v 0.296745 0.549913 0.454438
v 0.296745 0.549913 0.456128
v 0.295027 0.551161 0.456128
v 0.295027 0.551161 0.456128
v 0.296745 0.549913 0.456128
v 0.296745 0.549913 0.454438
v 0.295027 0.551161 0.456128
v 0.296745 0.549913 0.454438
v 0.296745 0.549913 0.456128
v 0.322345 0.504970 0.456128
v 0.322078 0.507076 0.454438
v 0.322078 0.507076 0.456128
v 0.322078 0.507076 0.456128
v 0.322345 0.504970 0.456128
v 0.322078 0.507076 0.454438
v 0.322078 0.507076 0.456128
v 0.322345 0.504970 0.456128
v 0.322078 0.507076 0.454438
v 0.298381 0.548560 0.456128
v 0.300017 0.547207 0.456128
v 0.300017 0.547207 0.454438
v 0.298381 0.548560 0.456128
v 0.300017 0.547207 0.456128
v 0.300017 0.547207 0.454438
v 0.298381 0.548560 0.456128
v 0.300017 0.547207 0.454438
v 0.300017 0.547207 0.456128
v 0.321681 0.509162 0.456128
v 0.321283 0.511248 0.454438
v 0.321283 0.511248 0.456128
v 0.321283 0.511248 0.456128
v 0.321681 0.509162 0.456128
v 0.321283 0.511248 0.454438
v 0.321283 0.511248 0.456128
v 0.321681 0.509162 0.456128
v 0.321283 0.511248 0.454438
v 0.301564 0.545753 0.456128
v 0.303112 0.544300 0.456128
v 0.303112 0.544300 0.454438
v 0.301564 0.545753 0.456128
v 0.303112 0.544300 0.456128
v 0.303112 0.544300 0.454438
v 0.301564 0.545753 0.456128
v 0.303112 0.544300 0.454438
v 0.303112 0.544300 0.456128
v 0.320755 0.513304 0.456128
v 0.320227 0.515361 0.454438
v 0.320227 0.515361 0.456128
v 0.320227 0.515361 0.456128
v 0.320755 0.513304 0.456128
v 0.320227 0.515361 0.454438
v 0.320227 0.515361 0.456128
v 0.320755 0.513304 0.456128
v 0.320227 0.515361 0.454438
v 0.304566 0.542752 0.456128
v 0.306019 0.541204 0.454438
v 0.306019 0.541204 0.456128
v 0.304566 0.542752 0.456128
v 0.306019 0.541204 0.454438
v 0.306019 0.541204 0.456128
v 0.304566 0.542752 0.456128
v 0.306019 0.541204 0.454438
v 0.306019 0.541204 0.456128
v 0.319570 0.517380 0.456128
v 0.318915 0.519399 0.454438
v 0.318915 0.519399 0.456128
v 0.318915 0.519399 0.456128
v 0.319570 0.517380 0.456128
v 0.318915 0.519399 0.454438
v 0.318915 0.519399 0.456128
v 0.319570 0.517380 0.456128
v 0.318915 0.519399 0.454438
v 0.307372 0.539568 0.456128
v 0.308726 0.537932 0.454438
v 0.308726 0.537932 0.456128
v 0.307372 0.539568 0.456128
v 0.308726 0.537932 0.454438
v 0.308726 0.537932 0.456128
v 0.307372 0.539568 0.456128
v 0.308726 0.537932 0.454438
v 0.308726 0.537932 0.456128
v 0.318133 0.521373 0.456128
v 0.317351 0.523347 0.454438
v 0.317351 0.523347 0.456128
v 0.317351 0.523347 0.456128
v 0.318133 0.521373 0.456128
v 0.317351 0.523347 0.454438
v 0.317351 0.523347 0.456128
v 0.318133 0.521373 0.456128
v 0.317351 0.523347 0.454438
v 0.309974 0.536214 0.456128
v 0.311222 0.534497 0.454438
v 0.311222 0.534497 0.456128
v 0.309974 0.536214 0.456128
v 0.311222 0.534497 0.454438
v 0.311222 0.534497 0.456128
v 0.309974 0.536214 0.456128
v 0.311222 0.534497 0.454438
v 0.311222 0.534497 0.456128
v 0.316447 0.525269 0.456128
v 0.315543 0.527190 0.454438
v 0.315543 0.527190 0.456128
v 0.315543 0.527190 0.456128
v 0.316447 0.525269 0.456128
v 0.315543 0.527190 0.454438
v 0.315543 0.527190 0.456128
v 0.316447 0.525269 0.456128
v 0.315543 0.527190 0.454438
v 0.312360 0.532704 0.456128
v 0.313497 0.530911 0.454438
v 0.313497 0.530911 0.456128
v 0.312360 0.532704 0.456128
v 0.313497 0.530911 0.454438
v 0.313497 0.530911 0.456128
v 0.312360 0.532704 0.456128
v 0.313497 0.530911 0.454438
v 0.313497 0.530911 0.456128
v 0.314520 0.529051 0.456128
v 0.314520 0.529051 0.456128
v 0.314520 0.529051 0.456128
vn 0.8910065190976113 0.45399050973071925 0
vn 0.860742026907674 0.509041415913154 0
vn 0.8763066737420931 0.4817536855645931 0
vn -0.8910065190976113 -0.45399050973071925 0
vn -0.8763066737420931 -0.4817536855645931 0
vn -0.860742026907674 -0.509041415913154 0
vn 0.8270805721059142 0.5620833810431988 0
vn 0.8443279159085524 0.5358268100958747 0
vn -0.8443279159085524 -0.5358268100958747 0
vn -0.8270805721059142 -0.5620833810431988 0
vn 0.9177546182194622 0.39714790788426574 0
vn 0.9048270578337482 0.42577928015806865 0
vn -0.9177546182194622 -0.39714790788426574 0
vn -0.9048270578337482 -0.42577928015806865 0
vn 0.7901549852812261 0.6129070885829476 0
vn 0.8090169736320784 0.5877852808425821 0
vn -0.8090169736320784 -0.5877852808425821 0
vn -0.7901549852812261 -0.6129070885829476 0
vn 0.9408807789689392 0.3387378924283529 0
vn 0.9297764716058311 0.368124588757952 0
vn -0.9408807789689392 -0.3387378924283529 0
vn -0.9297764716058311 -0.368124588757952 0
vn 0.7501110657106163 0.6613118697698414 0
vn 0.7705132203607198 0.6374240168438534 0
vn -0.7705132203607198 -0.6374240168438534 0
vn -0.7501110657106163 -0.6613118697698414 0
vn 0.9602936884097835 0.2789910966327309 0
vn 0.9510565130859434 0.3090170042518809 0
vn -0.9602936884097835 -0.2789910966327309 0
vn -0.9510565130859434 -0.3090170042518809 0
vn 0.7071067811865476 0.7071067811865476 0
vn 0.7289686175301027 0.6845471164618626 0
vn -0.7289686175301027 -0.6845471164618626 0
vn -0.7071067811865476 -0.7071067811865476 0
vn 0.975916772562842 0.21814319386706998 0
vn 0.9685831604410063 0.24868988984297663 0
vn -0.975916772562842 -0.21814319386706998 0
vn -0.9685831604410063 -0.24868988984297663 0
vn 0.6613118697698414 0.7501110657106163 0
vn 0.6845471164618626 0.7289686175301027 0
vn -0.6845471164618626 -0.7289686175301027 0
vn -0.6613118697698414 -0.7501110657106163 0
vn 0.9876883342001215 0.15643450541676854 0
vn 0.9822872551433722 0.18738129144314172 0
vn -0.9876883342001215 -0.15643450541676854 0
vn -0.9822872551433722 -0.18738129144314172 0
vn 0.6129070885829476 0.7901549852812261 0
vn 0.6374240168438534 0.7705132203607198 0
vn -0.6374240168438534 -0.7705132203607198 0
vn -0.6129070885829476 -0.7901549852812261 0
vn 0.9955619652274822 0.09410830671302954 0
vn 0.9921147054673806 0.1253332006906906 0
vn -0.9955619652274822 -0.09410830671302954 0
vn -0.9921147054673806 -0.1253332006906906 0
vn 0.5877852808425821 0.8090169736320784 0
vn 0.5620833810431988 0.8270805721059142 0
vn -0.5877852808425821 -0.8090169736320784 0
vn -0.5620833810431988 -0.8270805721059142 0
vn 0.9995065603758938 0.03141075875476231 0
vn 0.9980267282866925 0.0627905217796479 0
vn -0.9995065603758938 -0.03141075875476231 0
vn -0.9980267282866925 -0.0627905217796479 0
vn 0.509041415913154 0.860742026907674 0
vn 0.5358268100958747 0.8443279159085524 0
vn -0.5358268100958747 -0.8443279159085524 0
vn -0.509041415913154 -0.860742026907674 0
vn 0.9995065603758938 -0.03141075875476231 0
vn 1 0 0
vn -0.9995065603758938 0.03141075875476231 0
vn -1 0 0
vn 0.45399050973071925 0.8910065190976113 0
vn 0.4817536855645931 0.8763066737420931 0
vn -0.4817536855645931 -0.8763066737420931 0
vn -0.45399050973071925 -0.8910065190976113 0
vn 0.9955619652274822 -0.09410830671302954 0
vn 0.9980267282866925 -0.0627905217796479 0
vn -0.9955619652274822 0.09410830671302954 0
vn -0.9980267282866925 0.0627905217796479 0
vn 0.39714790788426574 0.9177546182194622 0
vn 0.42577928015806865 0.9048270578337482 0
vn -0.42577928015806865 -0.9048270578337482 0
vn -0.39714790788426574 -0.9177546182194622 0
vn 0.9876883342001215 -0.15643450541676854 0
vn 0.9921147054673806 -0.1253332006906906 0
vn -0.9876883342001215 0.15643450541676854 0
vn -0.9921147054673806 0.1253332006906906 0
vn 0.3387378924283529 0.9408807789689392 0
vn 0.368124588757952 0.9297764716058311 0
vn -0.368124588757952 -0.9297764716058311 0
vn -0.3387378924283529 -0.9408807789689392 0
vn 0.975916772562842 -0.21814319386706998 0
vn 0.9822872551433722 -0.18738129144314172 0
vn -0.975916772562842 0.21814319386706998 0
vn -0.9822872551433722 0.18738129144314172 0
vn 0.2789910966327309 0.9602936884097835 0
vn 0.3090170042518809 0.9510565130859434 0
vn -0.3090170042518809 -0.9510565130859434 0
vn -0.2789910966327309 -0.9602936884097835 0
vn 0.9602936884097835 -0.2789910966327309 0
vn 0.9685831604410063 -0.24868988984297663 0
vn -0.9602936884097835 0.2789910966327309 0
vn -0.9685831604410063 0.24868988984297663 0
vn 0.21814319386706998 0.975916772562842 0
vn 0.24868988984297663 0.9685831604410063 0
vn -0.24868988984297663 -0.9685831604410063 0
vn -0.21814319386706998 -0.975916772562842 0
vn 0.9408807789689392 -0.3387378924283529 0
vn 0.9510565130859434 -0.3090170042518809 0
vn -0.9408807789689392 0.3387378924283529 0
vn -0.9510565130859434 0.3090170042518809 0
vn 0.18738129144314172 0.9822872551433722 0
vn 0.15643450541676854 0.9876883342001215 0
vn -0.18738129144314172 -0.9822872551433722 0
vn -0.15643450541676854 -0.9876883342001215 0
vn 0.9177546182194622 -0.39714790788426574 0
vn 0.9297764716058311 -0.368124588757952 0
vn -0.9177546182194622 0.39714790788426574 0
vn -0.9297764716058311 0.368124588757952 0
vn 0.09410830671302954 0.9955619652274822 0
vn 0.1253332006906906 0.9921147054673806 0
vn -0.1253332006906906 -0.9921147054673806 0
vn -0.09410830671302954 -0.9955619652274822 0
vn 0.8910065190976113 -0.45399050973071925 0
vn 0.9048270578337482 -0.42577928015806865 0
vn -0.8910065190976113 0.45399050973071925 0
vn -0.9048270578337482 0.42577928015806865 0
vn 0.03141075875476231 0.9995065603758938 0
vn 0.0627905217796479 0.9980267282866925 0
vn -0.03141075875476231 -0.9995065603758938 0
vn -0.0627905217796479 -0.9980267282866925 0
vn 0.860742026907674 -0.509041415913154 0
vn 0.8763066737420931 -0.4817536855645931 0
vn -0.860742026907674 0.509041415913154 0
vn -0.8763066737420931 0.4817536855645931 0
vn -0.03141075875476231 0.9995065603758938 0
vn 0 1 0
vn 0 -1 0
vn 0.03141075875476231 -0.9995065603758938 0
vn 0.8270805721059142 -0.5620833810431988 0
vn 0.8443279159085524 -0.5358268100958747 0
vn -0.8270805721059142 0.5620833810431988 0
vn -0.8443279159085524 0.5358268100958747 0
vn -0.09410830671302954 0.9955619652274822 0
vn -0.0627905217796479 0.9980267282866925 0
vn 0.0627905217796479 -0.9980267282866925 0
vn 0.09410830671302954 -0.9955619652274822 0
vn 0.7901549852812261 -0.6129070885829476 0
vn 0.8090169736320784 -0.5877852808425821 0
vn -0.7901549852812261 0.6129070885829476 0
vn -0.8090169736320784 0.5877852808425821 0
vn -0.15643450541676854 0.9876883342001215 0
vn -0.1253332006906906 0.9921147054673806 0
vn 0.1253332006906906 -0.9921147054673806 0
vn 0.15643450541676854 -0.9876883342001215 0
vn 0.7501110657106163 -0.6613118697698414 0
vn 0.7705132203607198 -0.6374240168438534 0
vn -0.7501110657106163 0.6613118697698414 0
vn -0.7705132203607198 0.6374240168438534 0
vn -0.21814319386706998 0.975916772562842 0
vn -0.18738129144314172 0.9822872551433722 0
vn 0.18738129144314172 -0.9822872551433722 0
vn 0.21814319386706998 -0.975916772562842 0
vn 0.7071067811865476 -0.7071067811865476 0
vn 0.7289686175301027 -0.6845471164618626 0
vn -0.7071067811865476 0.7071067811865476 0
vn -0.7289686175301027 0.6845471164618626 0
vn -0.2789910966327309 0.9602936884097835 0
vn -0.24868988984297663 0.9685831604410063 0
vn 0.24868988984297663 -0.9685831604410063 0
vn 0.2789910966327309 -0.9602936884097835 0
vn 0.6613118697698414 -0.7501110657106163 0
vn 0.6845471164618626 -0.7289686175301027 0
vn -0.6845471164618626 0.7289686175301027 0
vn -0.6613118697698414 0.7501110657106163 0
vn -0.3387378924283529 0.9408807789689392 0
vn -0.3090170042518809 0.9510565130859434 0
vn 0.3090170042518809 -0.9510565130859434 0
vn 0.3387378924283529 -0.9408807789689392 0
vn 0.6129070885829476 -0.7901549852812261 0
vn 0.6374240168438534 -0.7705132203607198 0
vn -0.6374240168438534 0.7705132203607198 0
vn -0.6129070885829476 0.7901549852812261 0
vn -0.368124588757952 0.9297764716058311 0
vn -0.39714790788426574 0.9177546182194622 0
vn 0.368124588757952 -0.9297764716058311 0
vn 0.39714790788426574 -0.9177546182194622 0
vn 0.5877852808425821 -0.8090169736320784 0
vn 0.5620833810431988 -0.8270805721059142 0
vn -0.5877852808425821 0.8090169736320784 0
vn -0.5620833810431988 0.8270805721059142 0
vn -0.42577928015806865 0.9048270578337482 0
vn -0.45399050973071925 0.8910065190976113 0
vn 0.42577928015806865 -0.9048270578337482 0
vn 0.45399050973071925 -0.8910065190976113 0
vn 0.509041415913154 -0.860742026907674 0
vn 0.5358268100958747 -0.8443279159085524 0
vn -0.5358268100958747 0.8443279159085524 0
vn -0.509041415913154 0.860742026907674 0
vn -0.4817536855645931 0.8763066737420931 0
vn 0.4817536855645931 -0.8763066737420931 0
usemtl material_0_0
f 1//1 2//2 3//2
f 2//2 1//1 4//3
f 4//3 1//1 5//1
f 6//4 7//4 8//5
f 8//5 7//4 9//6
f 10//6 9//6 7//4
f 3//2 16//7 17//7
f 16//7 3//2 18//8
f 18//8 3//2 2//2
f 9//6 10//6 19//9
f 19//9 10//6 20//10
f 21//10 20//10 10//6
f 25//11 5//1 1//1
f 5//1 25//11 26//12
f 26//12 25//11 27//11
f 28//13 29//13 30//14
f 30//14 29//13 6//4
f 7//4 6//4 29//13
f 17//7 34//15 35//15
f 34//15 17//7 36//16
f 36//16 17//7 16//7
f 20//10 21//10 37//17
f 37//17 21//10 38//18
f 39//18 38//18 21//10
f 43//19 27//11 25//11
f 27//11 43//19 44//20
f 44//20 43//19 45//19
f 46//21 47//21 48//22
f 48//22 47//21 28//13
f 29//13 28//13 47//21
f 35//15 52//23 53//23
f 52//23 35//15 54//24
f 54//24 35//15 34//15
f 38//18 39//18 55//25
f 55//25 39//18 56//26
f 57//26 56//26 39//18
f 61//27 45//19 43//19
f 45//19 61//27 62//28
f 62//28 61//27 63//27
f 64//29 65//29 66//30
f 66//30 65//29 46//21
f 47//21 46//21 65//29
f 53//23 70//31 71//31
f 70//31 53//23 72//32
f 72//32 53//23 52//23
f 56//26 57//26 73//33
f 73//33 57//26 74//34
f 75//34 74//34 57//26
f 79//35 63//27 61//27
f 63//27 79//35 80//36
f 80//36 79//35 81//35
f 82//37 83//37 84//38
f 84//38 83//37 64//29
f 65//29 64//29 83//37
f 71//31 88//39 89//39
f 88//39 71//31 70//31
f 88//39 70//31 90//40
f 91//41 74//34 92//42
f 74//34 75//34 92//42
f 93//42 92//42 75//34
f 97//43 81//35 79//35
f 81//35 97//43 98//44
f 98//44 97//43 99//43
f 100//45 101//45 102//46
f 102//46 101//45 82//37
f 83//37 82//37 101//45
f 88//39 106//47 89//39
f 106//47 88//39 107//47
f 107//47 88//39 108//48
f 109//49 92//42 110//50
f 110//50 92//42 111//50
f 93//42 111//50 92//42
f 115//51 99//43 97//43
f 99//43 115//51 116//52
f 116//52 115//51 117//51
f 118//53 119//53 120//54
f 120//54 119//53 100//45
f 101//45 100//45 119//53
f 107//47 124//55 106//47
f 106//47 125//56 126//56
f 125//56 106//47 124//55
f 127//57 111//50 128//58
f 129//58 128//58 111//50
f 111//50 127//57 110//50
f 133//59 117//51 115//51
f 117//51 133//59 134//60
f 134//60 133//59 135//59
f 136//61 137//61 138//62
f 138//62 137//61 118//53
f 119//53 118//53 137//61
f 125//56 142//63 126//56
f 142//63 125//56 143//63
f 143//63 125//56 144//64
f 145//65 128//58 146//66
f 146//66 128//58 147//66
f 129//58 147//66 128//58
f 151//67 135//59 133//59
f 135//59 151//67 152//68
f 152//68 151//67 153//67
f 154//69 155//69 156//70
f 156//70 155//69 136//61
f 137//61 136//61 155//69
f 143//63 160//71 142//63
f 160//71 143//63 161//71
f 161//71 143//63 162//72
f 163//73 146//66 164//74
f 164//74 146//66 165//74
f 147//66 165//74 146//66
f 169//75 153//67 151//67
f 153//67 169//75 170//76
f 170//76 169//75 171//75
f 172//77 173//77 174//78
f 174//78 173//77 154//69
f 155//69 154//69 173//77
f 161//71 178//79 160//71
f 178//79 161//71 179//79
f 179//79 161//71 180//80
f 181//81 164//74 182//82
f 182//82 164//74 183//82
f 165//74 183//82 164//74
f 187//83 171//75 169//75
f 171//75 187//83 188//84
f 188//84 187//83 189//83
f 190//85 191//85 192//86
f 192//86 191//85 172//77
f 173//77 172//77 191//85
f 196//87 197//87 198//88
f 179//79 197//87 178//79
f 197//87 179//79 198//88
f 199//89 182//82 200//90
f 183//82 200//90 182//82
f 199//89 200//90 201//90
f 205//91 189//83 187//83
f 189//83 205//91 206//92
f 206//92 205//91 207//91
f 208//93 209//93 210//94
f 210//94 209//93 190//85
f 191//85 190//85 209//93
f 197//87 214//95 215//95
f 214//95 197//87 196//87
f 214//95 196//87 216//96
f 217//97 201//90 218//98
f 201//90 200//90 218//98
f 219//98 218//98 200//90
f 223//99 207//91 205//91
f 207//91 223//99 224//100
f 224//100 223//99 225//99
f 226//101 227//101 228//102
f 228//102 227//101 208//93
f 209//93 208//93 227//101
f 232//103 233//103 234//104
f 214//95 233//103 215//95
f 233//103 214//95 234//104
f 235//105 218//98 236//106
f 219//98 236//106 218//98
f 235//105 236//106 237//106
f 241//107 225//99 223//99
f 225//99 241//107 242//108
f 242//108 241//107 243//107
f 244//109 245//109 246//110
f 246//110 245//109 226//101
f 227//101 226//101 245//109
f 232//103 250//111 233//103
f 233//103 251//112 252//112
f 251//112 233//103 250//111
f 253//113 236//106 254//114
f 255//114 254//114 236//106
f 236//106 253//113 237//106
f 259//115 243//107 241//107
f 243//107 259//115 260//116
f 260//116 259//115 261//115
f 262//117 263//117 264//118
f 264//118 263//117 244//109
f 245//109 244//109 263//117
f 252//112 268//119 269//119
f 268//119 252//112 251//112
f 268//119 251//112 270//120
f 271//121 254//114 272//122
f 254//114 255//114 272//122
f 273//122 272//122 255//114
f 277//123 261//115 259//115
f 261//115 277//123 278//124
f 278//124 277//123 279//123
f 280//125 281//125 282//126
f 282//126 281//125 262//117
f 263//117 262//117 281//125
f 268//119 286//127 269//119
f 286//127 268//119 287//128
f 286//127 287//128 288//127
f 289//129 290//130 291//129
f 290//130 272//122 291//129
f 273//122 291//129 272//122
f 295//131 279//123 277//123
f 279//123 295//131 296//132
f 296//132 295//131 297//131
f 298//133 299//133 300//134
f 300//134 299//133 280//125
f 281//125 280//125 299//133
f 286//127 304//135 305//135
f 304//135 286//127 288//127
f 304//135 288//127 306//136
f 307//137 289//129 308//138
f 289//129 291//129 308//138
f 309//138 308//138 291//129
f 313//139 297//131 295//131
f 297//131 313//139 314//140
f 314//140 313//139 315//139
f 316//141 317//141 318//142
f 318//142 317//141 298//133
f 299//133 298//133 317//141
f 305//135 322//143 323//143
f 322//143 305//135 304//135
f 322//143 304//135 324//144
f 325//145 308//138 326//146
f 308//138 309//138 326//146
f 327//146 326//146 309//138
f 331//147 315//139 313//139
f 315//139 331//147 332//148
f 332//148 331//147 333//147
f 334//149 335//149 336//150
f 336//150 335//149 316//141
f 317//141 316//141 335//149
f 322//143 340//151 323//143
f 340//151 322//143 341//151
f 341//151 322//143 342//152
f 343//153 326//146 344//154
f 344//154 326//146 345//154
f 327//146 345//154 326//146
f 349//155 333//147 331//147
f 333//147 349//155 350//156
f 350//156 349//155 351//155
f 352//157 353//157 354//158
f 354//158 353//157 334//149
f 335//149 334//149 353//157
f 358//159 359//159 360//160
f 341//151 359//159 340//151
f 359//159 341//151 360//160
f 361//161 344//154 362//162
f 345//154 362//162 344//154
f 361//161 362//162 363//162
f 367//163 351//155 349//155
f 351//155 367//163 368//164
f 368//164 367//163 369//163
f 370//165 371//165 372//166
f 372//166 371//165 352//157
f 353//157 352//157 371//165
f 358//159 376//167 359//159
f 376//167 358//159 377//167
f 377//167 358//159 378//168
f 379//169 363//162 380//170
f 380//170 363//162 381//170
f 362//162 381//170 363//162
f 385//171 367//163 386//171
f 367//163 385//171 369//163
f 369//163 385//171 387//172
f 388//173 389//174 370//165
f 370//165 389//174 371//165
f 390//174 371//165 389//174
f 394//175 395//175 396//176
f 377//167 395//175 376//167
f 395//175 377//167 396//176
f 397//177 380//170 398//178
f 381//170 398//178 380//170
f 397//177 398//178 399//178
f 403//179 385//171 386//171
f 385//171 403//179 404//179
f 385//171 404//179 405//180
f 406//181 407//182 389//174
f 407//182 408//182 389//174
f 390//174 389//174 408//182
f 394//175 412//183 395//175
f 395//175 413//184 414//184
f 413//184 395//175 412//183
f 415//185 398//178 416//186
f 417//186 416//186 398//178
f 398//178 415//185 399//178
f 404//179 403//179 421//187
f 422//188 403//179 423//188
f 403//179 422//188 421//187
f 424//189 425//190 408//182
f 426//190 408//182 425//190
f 424//189 408//182 407//182
f 413//184 430//191 414//184
f 414//184 431//192 432//192
f 431//192 414//184 430//191
f 433//193 417//186 434//194
f 435//194 434//194 417//186
f 417//186 433//193 416//186
f 439//195 423//188 440//195
f 423//188 439//195 422//188
f 422//188 439//195 441//196
f 442//197 443//198 425//190
f 425//190 443//198 426//190
f 444//198 426//190 443//198
f 431//192 448//198 432//192
f 448//198 431//192 449//198
f 449//198 431//192 450//199
f 451//200 434//194 452//195
f 452//195 434//194 453//195
f 435//194 453//195 434//194
f 457//194 439//195 440//195
f 439//195 457//194 458//194
f 439//195 458//194 459//200
f 460//199 461//192 443//198
f 461//192 462//192 443//198
f 444//198 443//198 462//192
f 448//198 466//190 467//190
f 466//190 448//198 468//197
f 468//197 448//198 449//198
f 452//195 453//195 469//196
f 469//196 453//195 470//188
f 471//188 470//188 453//195
f 475//186 457//194 476//186
f 457//194 475//186 458//194
f 458//194 475//186 477//193
f 478//191 479//184 461//192
f 461//192 479//184 462//192
f 480//184 462//192 479//184
f 466//190 484//182 467//190
f 484//182 466//190 485//182
f 485//182 466//190 486//189
f 487//187 470//188 488//179
f 488//179 470//188 489//179
f 471//188 489//179 470//188
f 475//186 476//186 493//185
f 494//178 476//186 495//178
f 476//186 494//178 493//185
f 496//183 497//175 480//184
f 498//175 480//184 497//175
f 496//183 480//184 479//184
f 502//174 503//174 504//181
f 485//182 503//174 484//182
f 503//174 485//182 504//181
f 505//180 488//179 506//171
f 489//179 506//171 488//179
f 505//180 506//171 507//171
f 511//170 495//178 512//170
f 495//178 511//170 494//178
f 494//178 511//170 513//177
f 514//176 515//167 497//175
f 497//175 515//167 498//175
f 516//167 498//175 515//167
f 502//174 520//173 503//174
f 503//174 521//165 522//165
f 521//165 503//174 520//173
f 523//172 506//171 524//163
f 525//163 524//163 506//171
f 506//171 523//172 507//171
f 529//162 530//169 531//162
f 531//162 511//170 512//170
f 511//170 531//162 530//169
f 532//168 533//159 515//167
f 516//167 515//167 533//159
f 533//159 532//168 534//159
f 538//166 522//165 521//165
f 522//165 538//166 539//157
f 539//157 538//166 540//157
f 541//155 542//164 543//155
f 543//155 542//164 525//163
f 524//163 525//163 542//164
f 529//162 531//162 547//161
f 548//154 531//162 549//154
f 531//162 548//154 547//161
f 550//160 551//151 533//159
f 552//151 533//159 551//151
f 550//160 533//159 534//159
f 556//158 539//157 540//157
f 539//157 556//158 557//149
f 557//149 556//158 558//149
f 559//147 560//156 561//147
f 561//147 560//156 543//155
f 541//155 543//155 560//156
f 565//146 549//154 566//146
f 549//154 565//146 548//154
f 548//154 565//146 567//153
f 568//152 569//143 551//151
f 551//151 569//143 552//151
f 570//143 552//151 569//143
f 574//150 557//149 558//149
f 557//149 574//150 575//141
f 575//141 574//150 576//141
f 577//139 578//148 579//139
f 579//139 578//148 561//147
f 559//147 561//147 578//148
f 583//138 584//145 585//138
f 585//138 565//146 566//146
f 565//146 585//138 584//145
f 586//144 587//135 569//143
f 570//143 569//143 587//135
f 587//135 586//144 588//135
f 592//142 575//141 576//141
f 575//141 592//142 593//133
f 593//133 592//142 594//133
f 595//131 596//140 597//131
f 597//131 596//140 579//139
f 577//139 579//139 596//140
f 601//129 585//138 602//129
f 585//138 601//129 583//138
f 583//138 601//129 603//137
f 604//136 605//127 588//135
f 588//135 605//127 587//135
f 606//127 587//135 605//127
f 610//134 593//133 594//133
f 593//133 610//134 611//125
f 611//125 610//134 612//125
f 613//123 614//132 615//123
f 615//123 614//132 597//131
f 595//131 597//131 614//132
f 619//122 601//129 602//129
f 601//129 619//122 620//122
f 601//129 620//122 621//130
f 622//128 623//119 605//127
f 623//119 624//119 605//127
f 606//127 605//127 624//119
f 628//126 611//125 612//125
f 611//125 628//126 629//117
f 629//117 628//126 630//117
f 631//115 632//124 633//115
f 633//115 632//124 615//123
f 613//123 615//123 632//124
f 620//122 619//122 637//121
f 638//114 619//122 639//114
f 619//122 638//114 637//121
f 640//120 641//112 624//119
f 642//112 624//119 641//112
f 640//120 624//119 623//119
f 646//118 629//117 630//117
f 629//117 646//118 647//109
f 647//109 646//118 648//109
f 649//107 650//116 651//107
f 651//107 650//116 633//115
f 631//115 633//115 650//116
f 655//106 656//113 657//106
f 657//106 638//114 639//114
f 638//114 657//106 656//113
f 658//111 659//103 641//112
f 642//112 641//112 659//103
f 659//103 658//111 660//103
f 664//110 647//109 648//109
f 647//109 664//110 665//101
f 665//101 664//110 666//101
f 667//99 668//108 669//99
f 669//99 668//108 651//107
f 649//107 651//107 668//108
f 673//98 657//106 674//98
f 657//106 673//98 655//106
f 655//106 673//98 675//105
f 676//104 677//95 660//103
f 660//103 677//95 659//103
f 678//95 659//103 677//95
f 682//102 665//101 666//101
f 665//101 682//102 683//93
f 683//93 682//102 684//93
f 685//91 686//100 687//91
f 687//91 686//100 669//99
f 667//99 669//99 686//100
f 673//98 674//98 691//97
f 692//90 674//98 693//90
f 674//98 692//90 691//97
f 694//96 695//87 678//95
f 696//87 678//95 695//87
f 694//96 678//95 677//95
f 700//94 683//93 684//93
f 683//93 700//94 701//85
f 701//85 700//94 702//85
f 703//83 704//92 705//83
f 705//83 704//92 687//91
f 685//91 687//91 704//92
f 692//90 693//90 709//89
f 710//82 693//90 711//82
f 693//90 710//82 709//89
f 712//88 713//79 696//87
f 714//79 696//87 713//79
f 712//88 696//87 695//87
f 718//86 701//85 702//85
f 701//85 718//86 719//77
f 719//77 718//86 720//77
f 721//75 722//84 723//75
f 723//75 722//84 705//83
f 703//83 705//83 722//84
f 727//74 711//82 728//74
f 711//82 727//74 710//82
f 710//82 727//74 729//81
f 730//80 731//71 713//79
f 713//79 731//71 714//79
f 732//71 714//79 731//71
f 736//78 719//77 720//77
f 719//77 736//78 737//69
f 737//69 736//78 738//69
f 739//67 740//76 741//67
f 741//67 740//76 723//75
f 721//75 723//75 740//76
f 745//66 727//74 728//74
f 727//74 745//66 746//73
f 746//73 745//66 747//66
f 748//63 749//63 750//72
f 750//72 749//63 731//71
f 732//71 731//71 749//63
f 754//70 737//69 738//69
f 737//69 754//70 755//61
f 755//61 754//70 756//61
f 757//59 758//68 759//59
f 759//59 758//68 741//67
f 739//67 741//67 758//68
f 763//58 745//66 764//58
f 745//66 763//58 765//65
f 745//66 765//65 747//66
f 748//63 766//64 749//63
f 766//64 767//56 749//63
f 768//56 749//63 767//56
f 772//62 755//61 756//61
f 755//61 772//62 773//53
f 773//53 772//62 774//53
f 775//51 776//60 777//51
f 777//51 776//60 759//59
f 757//59 759//59 776//60
f 781//50 763//58 764//58
f 763//58 781//50 782//50
f 763//58 782//50 783//57
f 784//55 785//47 767//56
f 785//47 786//47 767//56
f 768//56 767//56 786//47
f 790//54 773//53 774//53
f 773//53 790//54 791//45
f 791//45 790//54 792//45
f 793//43 794//52 795//43
f 795//43 794//52 777//51
f 775//51 777//51 794//52
f 782//50 781//50 799//49
f 800//42 781//50 801//42
f 781//50 800//42 799//49
f 802//48 803//39 786//47
f 804//39 786//47 803//39
f 802//48 786//47 785//47
f 808//46 791//45 792//45
f 791//45 808//46 809//37
f 809//37 808//46 810//37
f 811//35 812//44 813//35
f 813//35 812//44 795//43
f 793//43 795//43 812//44
f 800//42 801//42 817//41
f 818//34 801//42 819//34
f 801//42 818//34 817//41
f 820//40 821//31 804//39
f 822//31 804//39 821//31
f 820//40 804//39 803//39
f 826//38 809//37 810//37
f 809//37 826//38 827//29
f 827//29 826//38 828//29
f 829//27 830//36 831//27
f 831//27 830//36 813//35
f 811//35 813//35 830//36
f 835//33 836//26 837//26
f 836//26 835//33 819//34
f 819//34 835//33 818//34
f 821//31 838//32 822//31
f 822//31 838//32 839//23
f 840//23 839//23 838//32
f 844//30 827//29 828//29
f 827//29 844//30 845//21
f 845//21 844//30 846//21
f 847//19 848//28 849//19
f 849//19 848//28 831//27
f 829//27 831//27 848//28
f 853//25 854//18 855//18
f 854//18 853//25 836//26
f 836//26 853//25 837//26
f 840//23 856//24 839//23
f 839//23 856//24 857//15
f 858//15 857//15 856//24
f 862//22 845//21 846//21
f 845//21 862//22 863//13
f 863//13 862//22 864//13
f 865//11 866//20 867//11
f 867//11 866//20 849//19
f 847//19 849//19 866//20
f 871//17 872//10 873//10
f 872//10 871//17 854//18
f 854//18 871//17 855//18
f 858//15 874//16 857//15
f 857//15 874//16 875//7
f 876//7 875//7 874//16
f 880//14 863//13 864//13
f 863//13 880//14 881//4
f 881//4 880//14 882//4
f 883//1 884//12 885//1
f 885//1 884//12 867//11
f 865//11 867//11 884//12
f 889//9 890//6 891//6
f 890//6 889//9 872//10
f 872//10 889//9 873//10
f 876//7 892//8 875//7
f 875//7 892//8 893//2
f 894//2 893//2 892//8
f 898//5 881//4 882//4
f 881//4 898//5 890//6
f 890//6 898//5 891//6
f 894//2 899//3 893//2
f 893//2 899//3 885//1
f 883//1 885//1 899//3
usemtl material_1_0
