# SSTK version 0.8.0
# 9
mtllib original-9.mtl
o #ID382
v -0.046048 -0.344997 0.418950
v -0.029245 -0.347478 0.334455
v -0.046048 -0.344997 0.334455
v -0.029245 -0.347478 0.418950
v -0.029245 -0.347478 0.418950
v -0.046048 -0.344997 0.418950
v -0.029245 -0.347478 0.334455
v -0.046048 -0.344997 0.334455
v -0.046048 -0.344997 0.418950
v -0.046048 -0.344997 0.334455
v -0.029245 -0.347478 0.418950
v -0.029245 -0.347478 0.334455
v -0.062661 -0.341465 0.418950
v -0.046048 -0.344997 0.334455
v -0.062661 -0.341465 0.334455
v -0.046048 -0.344997 0.418950
v -0.046048 -0.344997 0.418950
v -0.062661 -0.341465 0.418950
v -0.046048 -0.344997 0.334455
v -0.062661 -0.341465 0.334455
v -0.062661 -0.341465 0.418950
v -0.062661 -0.341465 0.334455
v -0.029245 -0.347478 0.418950
v -0.012320 -0.348899 0.334455
v -0.029245 -0.347478 0.334455
v -0.012320 -0.348899 0.418950
v -0.012320 -0.348899 0.418950
v -0.029245 -0.347478 0.418950
v -0.012320 -0.348899 0.334455
v -0.029245 -0.347478 0.334455
v -0.012320 -0.348899 0.418950
v -0.012320 -0.348899 0.334455
v -0.079019 -0.336898 0.418950
v -0.062661 -0.341465 0.334455
v -0.079019 -0.336898 0.334455
v -0.062661 -0.341465 0.418950
v -0.062661 -0.341465 0.418950
v -0.079019 -0.336898 0.418950
v -0.062661 -0.341465 0.334455
v -0.079019 -0.336898 0.334455
v -0.079019 -0.336898 0.418950
v -0.079019 -0.336898 0.334455
v -0.012320 -0.348899 0.418950
v 0.004660 -0.349255 0.334455
v -0.012320 -0.348899 0.334455
v 0.004660 -0.349255 0.418950
v 0.004660 -0.349255 0.418950
v -0.012320 -0.348899 0.418950
v 0.004660 -0.349255 0.334455
v -0.012320 -0.348899 0.334455
v 0.004660 -0.349255 0.418950
v 0.004660 -0.349255 0.334455
v -0.095059 -0.331312 0.418950
v -0.079019 -0.336898 0.334455
v -0.095059 -0.331312 0.334455
v -0.079019 -0.336898 0.418950
v -0.079019 -0.336898 0.418950
v -0.095059 -0.331312 0.418950
v -0.079019 -0.336898 0.334455
v -0.095059 -0.331312 0.334455
v -0.095059 -0.331312 0.418950
v -0.095059 -0.331312 0.334455
v 0.004660 -0.349255 0.418950
v 0.021630 -0.348543 0.334455
v 0.004660 -0.349255 0.334455
v 0.021630 -0.348543 0.418950
v 0.021630 -0.348543 0.418950
v 0.004660 -0.349255 0.418950
v 0.021630 -0.348543 0.334455
v 0.004660 -0.349255 0.334455
v 0.021630 -0.348543 0.418950
v 0.021630 -0.348543 0.334455
v -0.110716 -0.324731 0.418950
v -0.095059 -0.331312 0.334455
v -0.110716 -0.324731 0.334455
v -0.095059 -0.331312 0.418950
v -0.095059 -0.331312 0.418950
v -0.110716 -0.324731 0.418950
v -0.095059 -0.331312 0.334455
v -0.110716 -0.324731 0.334455
v -0.110716 -0.324731 0.418950
v -0.110716 -0.324731 0.334455
v 0.021630 -0.348543 0.418950
v 0.038521 -0.346768 0.334455
v 0.021630 -0.348543 0.334455
v 0.038521 -0.346768 0.418950
v 0.038521 -0.346768 0.418950
v 0.021630 -0.348543 0.418950
v 0.038521 -0.346768 0.334455
v 0.021630 -0.348543 0.334455
v 0.038521 -0.346768 0.418950
v 0.038521 -0.346768 0.334455
v -0.125929 -0.317179 0.418950
v -0.110716 -0.324731 0.334455
v -0.125929 -0.317179 0.334455
v -0.110716 -0.324731 0.418950
v -0.110716 -0.324731 0.418950
v -0.125929 -0.317179 0.418950
v -0.110716 -0.324731 0.334455
v -0.125929 -0.317179 0.334455
v -0.125929 -0.317179 0.418950
v -0.125929 -0.317179 0.334455
v 0.038521 -0.346768 0.418950
v 0.055267 -0.343935 0.334455
v 0.038521 -0.346768 0.334455
v 0.055267 -0.343935 0.418950
v 0.055267 -0.343935 0.418950
v 0.038521 -0.346768 0.418950
v 0.055267 -0.343935 0.334455
v 0.038521 -0.346768 0.334455
v 0.055267 -0.343935 0.418950
v 0.055267 -0.343935 0.334455
v -0.140638 -0.308687 0.418950
v -0.125929 -0.317179 0.334455
v -0.140638 -0.308687 0.334455
v -0.125929 -0.317179 0.418950
v -0.125929 -0.317179 0.418950
v -0.140638 -0.308687 0.418950
v -0.125929 -0.317179 0.334455
v -0.140638 -0.308687 0.334455
v -0.140638 -0.308687 0.418950
v -0.140638 -0.308687 0.334455
v 0.055267 -0.343935 0.418950
v 0.071803 -0.340057 0.334455
v 0.055267 -0.343935 0.334455
v 0.071803 -0.340057 0.418950
v 0.071803 -0.340057 0.418950
v 0.055267 -0.343935 0.418950
v 0.071803 -0.340057 0.334455
v 0.055267 -0.343935 0.334455
v 0.071803 -0.340057 0.418950
v 0.071803 -0.340057 0.334455
v -0.154785 -0.299288 0.418950
v -0.140638 -0.308687 0.334455
v -0.154785 -0.299288 0.334455
v -0.140638 -0.308687 0.418950
v -0.140638 -0.308687 0.418950
v -0.154785 -0.299288 0.418950
v -0.140638 -0.308687 0.334455
v -0.154785 -0.299288 0.334455
v -0.154785 -0.299288 0.418950
v -0.154785 -0.299288 0.334455
v 0.071803 -0.340057 0.334455
v 0.088063 -0.335148 0.418950
v 0.088063 -0.335148 0.334455
v 0.071803 -0.340057 0.418950
v 0.071803 -0.340057 0.418950
v 0.071803 -0.340057 0.334455
v 0.088063 -0.335148 0.418950
v 0.088063 -0.335148 0.334455
v 0.088063 -0.335148 0.418950
v 0.088063 -0.335148 0.334455
v -0.168314 -0.289019 0.418950
v -0.154785 -0.299288 0.334455
v -0.168314 -0.289019 0.334455
v -0.154785 -0.299288 0.418950
v -0.154785 -0.299288 0.418950
v -0.168314 -0.289019 0.418950
v -0.154785 -0.299288 0.334455
v -0.168314 -0.289019 0.334455
v -0.168314 -0.289019 0.418950
v -0.168314 -0.289019 0.334455
v 0.088063 -0.335148 0.418950
v 0.103982 -0.329228 0.334455
v 0.088063 -0.335148 0.334455
v 0.103982 -0.329228 0.418950
v 0.103982 -0.329228 0.418950
v 0.088063 -0.335148 0.418950
v 0.103982 -0.329228 0.334455
v 0.088063 -0.335148 0.334455
v 0.103982 -0.329228 0.418950
v 0.103982 -0.329228 0.334455
v -0.181171 -0.277921 0.418950
v -0.168314 -0.289019 0.334455
v -0.181171 -0.277921 0.334455
v -0.168314 -0.289019 0.418950
v -0.168314 -0.289019 0.418950
v -0.181171 -0.277921 0.418950
v -0.168314 -0.289019 0.334455
v -0.181171 -0.277921 0.334455
v -0.181171 -0.277921 0.418950
v -0.181171 -0.277921 0.334455
v 0.103982 -0.329228 0.418950
v 0.119498 -0.322320 0.334455
v 0.103982 -0.329228 0.334455
v 0.119498 -0.322320 0.418950
v 0.119498 -0.322320 0.418950
v 0.103982 -0.329228 0.418950
v 0.119498 -0.322320 0.334455
v 0.103982 -0.329228 0.334455
v 0.119498 -0.322320 0.418950
v 0.119498 -0.322320 0.334455
v -0.193306 -0.266037 0.418950
v -0.181171 -0.277921 0.334455
v -0.193306 -0.266037 0.334455
v -0.181171 -0.277921 0.418950
v -0.181171 -0.277921 0.418950
v -0.193306 -0.266037 0.418950
v -0.181171 -0.277921 0.334455
v -0.193306 -0.266037 0.334455
v -0.193306 -0.266037 0.418950
v -0.193306 -0.266037 0.334455
v 0.119498 -0.322320 0.418950
v 0.134549 -0.314451 0.334455
v 0.119498 -0.322320 0.334455
v 0.134549 -0.314451 0.418950
v 0.134549 -0.314451 0.418950
v 0.119498 -0.322320 0.418950
v 0.134549 -0.314451 0.334455
v 0.119498 -0.322320 0.334455
v 0.134549 -0.314451 0.418950
v 0.134549 -0.314451 0.334455
v -0.204670 -0.253416 0.334455
v -0.193306 -0.266037 0.418950
v -0.193306 -0.266037 0.334455
v -0.204670 -0.253416 0.418950
v -0.204670 -0.253416 0.418950
v -0.204670 -0.253416 0.334455
v -0.193306 -0.266037 0.418950
v -0.193306 -0.266037 0.334455
v -0.204670 -0.253416 0.418950
v -0.204670 -0.253416 0.334455
v 0.134549 -0.314451 0.418950
v 0.149077 -0.305652 0.334455
v 0.134549 -0.314451 0.334455
v 0.149077 -0.305652 0.418950
v 0.149077 -0.305652 0.418950
v 0.134549 -0.314451 0.418950
v 0.149077 -0.305652 0.334455
v 0.134549 -0.314451 0.334455
v 0.149077 -0.305652 0.418950
v 0.149077 -0.305652 0.334455
v -0.215220 -0.240105 0.334455
v -0.204670 -0.253416 0.418950
v -0.204670 -0.253416 0.334455
v -0.215220 -0.240105 0.418950
v -0.215220 -0.240105 0.418950
v -0.215220 -0.240105 0.334455
v -0.204670 -0.253416 0.418950
v -0.204670 -0.253416 0.334455
v -0.215220 -0.240105 0.418950
v -0.215220 -0.240105 0.334455
v 0.149077 -0.305652 0.418950
v 0.163024 -0.295959 0.334455
v 0.149077 -0.305652 0.334455
v 0.163024 -0.295959 0.418950
v 0.163024 -0.295959 0.418950
v 0.149077 -0.305652 0.418950
v 0.163024 -0.295959 0.334455
v 0.149077 -0.305652 0.334455
v 0.163024 -0.295959 0.418950
v 0.163024 -0.295959 0.334455
v -0.224913 -0.226158 0.334455
v -0.215220 -0.240105 0.418950
v -0.215220 -0.240105 0.334455
v -0.224913 -0.226158 0.418950
v -0.224913 -0.226158 0.418950
v -0.224913 -0.226158 0.334455
v -0.215220 -0.240105 0.418950
v -0.215220 -0.240105 0.334455
v -0.224913 -0.226158 0.418950
v -0.224913 -0.226158 0.334455
v 0.163024 -0.295959 0.418950
v 0.176335 -0.285410 0.334455
v 0.163024 -0.295959 0.334455
v 0.176335 -0.285410 0.418950
v 0.176335 -0.285410 0.418950
v 0.163024 -0.295959 0.418950
v 0.176335 -0.285410 0.334455
v 0.163024 -0.295959 0.334455
v 0.176335 -0.285410 0.418950
v 0.176335 -0.285410 0.334455
v -0.233712 -0.211631 0.334455
v -0.224913 -0.226158 0.418950
v -0.224913 -0.226158 0.334455
v -0.233712 -0.211631 0.418950
v -0.233712 -0.211631 0.418950
v -0.233712 -0.211631 0.334455
v -0.224913 -0.226158 0.418950
v -0.224913 -0.226158 0.334455
v -0.233712 -0.211631 0.418950
v -0.233712 -0.211631 0.334455
v 0.176335 -0.285410 0.418950
v 0.188957 -0.274045 0.334455
v 0.176335 -0.285410 0.334455
v 0.188957 -0.274045 0.418950
v 0.188957 -0.274045 0.418950
v 0.176335 -0.285410 0.418950
v 0.188957 -0.274045 0.334455
v 0.176335 -0.285410 0.334455
v 0.188957 -0.274045 0.418950
v 0.188957 -0.274045 0.334455
v -0.241581 -0.196579 0.334455
v -0.233712 -0.211631 0.418950
v -0.233712 -0.211631 0.334455
v -0.241581 -0.196579 0.418950
v -0.241581 -0.196579 0.418950
v -0.241581 -0.196579 0.334455
v -0.233712 -0.211631 0.418950
v -0.233712 -0.211631 0.334455
v -0.241581 -0.196579 0.418950
v -0.241581 -0.196579 0.334455
v 0.200840 -0.261910 0.418950
v 0.188957 -0.274045 0.334455
v 0.188957 -0.274045 0.418950
v 0.200840 -0.261910 0.334455
v 0.200840 -0.261910 0.334455
v 0.200840 -0.261910 0.418950
v 0.188957 -0.274045 0.334455
v 0.188957 -0.274045 0.418950
v 0.200840 -0.261910 0.418950
v 0.200840 -0.261910 0.334455
v -0.248489 -0.181063 0.334455
v -0.241581 -0.196579 0.418950
v -0.241581 -0.196579 0.334455
v -0.248489 -0.181063 0.418950
v -0.248489 -0.181063 0.418950
v -0.248489 -0.181063 0.334455
v -0.241581 -0.196579 0.418950
v -0.241581 -0.196579 0.334455
v -0.248489 -0.181063 0.418950
v -0.248489 -0.181063 0.334455
v 0.211938 -0.249053 0.418950
v 0.200840 -0.261910 0.334455
v 0.200840 -0.261910 0.418950
v 0.211938 -0.249053 0.334455
v 0.211938 -0.249053 0.334455
v 0.211938 -0.249053 0.418950
v 0.200840 -0.261910 0.334455
v 0.200840 -0.261910 0.418950
v 0.211938 -0.249053 0.418950
v 0.211938 -0.249053 0.334455
v -0.254409 -0.165144 0.334455
v -0.248489 -0.181063 0.418950
v -0.248489 -0.181063 0.334455
v -0.254409 -0.165144 0.418950
v -0.254409 -0.165144 0.418950
v -0.254409 -0.165144 0.334455
v -0.248489 -0.181063 0.418950
v -0.248489 -0.181063 0.334455
v -0.254409 -0.165144 0.418950
v -0.254409 -0.165144 0.334455
v 0.222207 -0.235524 0.418950
v 0.211938 -0.249053 0.334455
v 0.211938 -0.249053 0.418950
v 0.222207 -0.235524 0.334455
v 0.222207 -0.235524 0.334455
v 0.222207 -0.235524 0.418950
v 0.211938 -0.249053 0.334455
v 0.211938 -0.249053 0.418950
v 0.222207 -0.235524 0.418950
v 0.222207 -0.235524 0.334455
v -0.259318 -0.148884 0.334455
v -0.254409 -0.165144 0.418950
v -0.254409 -0.165144 0.334455
v -0.259318 -0.148884 0.418950
v -0.259318 -0.148884 0.418950
v -0.259318 -0.148884 0.334455
v -0.254409 -0.165144 0.418950
v -0.254409 -0.165144 0.334455
v -0.259318 -0.148884 0.418950
v -0.259318 -0.148884 0.334455
v 0.231605 -0.221378 0.418950
v 0.222207 -0.235524 0.334455
v 0.222207 -0.235524 0.418950
v 0.231605 -0.221378 0.334455
v 0.231605 -0.221378 0.334455
v 0.231605 -0.221378 0.418950
v 0.222207 -0.235524 0.334455
v 0.222207 -0.235524 0.418950
v 0.231605 -0.221378 0.418950
v 0.231605 -0.221378 0.334455
v -0.263196 -0.132349 0.334455
v -0.259318 -0.148884 0.418950
v -0.259318 -0.148884 0.334455
v -0.263196 -0.132349 0.418950
v -0.263196 -0.132349 0.418950
v -0.263196 -0.132349 0.334455
v -0.259318 -0.148884 0.418950
v -0.259318 -0.148884 0.334455
v -0.263196 -0.132349 0.418950
v -0.263196 -0.132349 0.334455
v 0.240098 -0.206669 0.418950
v 0.231605 -0.221378 0.334455
v 0.231605 -0.221378 0.418950
v 0.240098 -0.206669 0.334455
v 0.240098 -0.206669 0.334455
v 0.240098 -0.206669 0.418950
v 0.231605 -0.221378 0.334455
v 0.231605 -0.221378 0.418950
v 0.240098 -0.206669 0.418950
v 0.240098 -0.206669 0.334455
v -0.266029 -0.115602 0.334455
v -0.263196 -0.132349 0.418950
v -0.263196 -0.132349 0.334455
v -0.266029 -0.115602 0.418950
v -0.266029 -0.115602 0.418950
v -0.266029 -0.115602 0.334455
v -0.263196 -0.132349 0.418950
v -0.263196 -0.132349 0.334455
v -0.266029 -0.115602 0.418950
v -0.266029 -0.115602 0.334455
v 0.247649 -0.191456 0.418950
v 0.240098 -0.206669 0.334455
v 0.240098 -0.206669 0.418950
v 0.247649 -0.191456 0.334455
v 0.247649 -0.191456 0.334455
v 0.247649 -0.191456 0.418950
v 0.240098 -0.206669 0.334455
v 0.240098 -0.206669 0.418950
v 0.247649 -0.191456 0.418950
v 0.247649 -0.191456 0.334455
v -0.267804 -0.098711 0.334455
v -0.266029 -0.115602 0.418950
v -0.266029 -0.115602 0.334455
v -0.267804 -0.098711 0.418950
v -0.267804 -0.098711 0.418950
v -0.267804 -0.098711 0.334455
v -0.266029 -0.115602 0.418950
v -0.266029 -0.115602 0.334455
v -0.267804 -0.098711 0.418950
v -0.267804 -0.098711 0.334455
v 0.254231 -0.175798 0.418950
v 0.247649 -0.191456 0.334455
v 0.247649 -0.191456 0.418950
v 0.254231 -0.175798 0.334455
v 0.254231 -0.175798 0.334455
v 0.254231 -0.175798 0.418950
v 0.247649 -0.191456 0.334455
v 0.247649 -0.191456 0.418950
v 0.254231 -0.175798 0.418950
v 0.254231 -0.175798 0.334455
v -0.268516 -0.081741 0.334455
v -0.267804 -0.098711 0.418950
v -0.267804 -0.098711 0.334455
v -0.268516 -0.081741 0.418950
v -0.268516 -0.081741 0.418950
v -0.268516 -0.081741 0.334455
v -0.267804 -0.098711 0.418950
v -0.267804 -0.098711 0.334455
v -0.268516 -0.081741 0.418950
v -0.268516 -0.081741 0.334455
v 0.259817 -0.159758 0.418950
v 0.254231 -0.175798 0.334455
v 0.254231 -0.175798 0.418950
v 0.259817 -0.159758 0.334455
v 0.259817 -0.159758 0.334455
v 0.259817 -0.159758 0.418950
v 0.254231 -0.175798 0.334455
v 0.254231 -0.175798 0.418950
v 0.259817 -0.159758 0.418950
v 0.259817 -0.159758 0.334455
v -0.268160 -0.064760 0.334455
v -0.268516 -0.081741 0.418950
v -0.268516 -0.081741 0.334455
v -0.268160 -0.064760 0.418950
v -0.268160 -0.064760 0.418950
v -0.268160 -0.064760 0.334455
v -0.268516 -0.081741 0.418950
v -0.268516 -0.081741 0.334455
v -0.268160 -0.064760 0.418950
v -0.268160 -0.064760 0.334455
v 0.264384 -0.143400 0.418950
v 0.259817 -0.159758 0.334455
v 0.259817 -0.159758 0.418950
v 0.264384 -0.143400 0.334455
v 0.264384 -0.143400 0.334455
v 0.264384 -0.143400 0.418950
v 0.259817 -0.159758 0.334455
v 0.259817 -0.159758 0.418950
v 0.264384 -0.143400 0.418950
v 0.264384 -0.143400 0.334455
v -0.266739 -0.047836 0.334455
v -0.268160 -0.064760 0.418950
v -0.268160 -0.064760 0.334455
v -0.266739 -0.047836 0.418950
v -0.266739 -0.047836 0.418950
v -0.266739 -0.047836 0.334455
v -0.268160 -0.064760 0.418950
v -0.268160 -0.064760 0.334455
v -0.266739 -0.047836 0.418950
v -0.266739 -0.047836 0.334455
v 0.267916 -0.126787 0.418950
v 0.264384 -0.143400 0.334455
v 0.264384 -0.143400 0.418950
v 0.267916 -0.126787 0.334455
v 0.267916 -0.126787 0.334455
v 0.267916 -0.126787 0.418950
v 0.264384 -0.143400 0.334455
v 0.264384 -0.143400 0.418950
v 0.267916 -0.126787 0.418950
v 0.267916 -0.126787 0.334455
v -0.264258 -0.031034 0.334455
v -0.266739 -0.047836 0.418950
v -0.266739 -0.047836 0.334455
v -0.264258 -0.031034 0.418950
v -0.264258 -0.031034 0.418950
v -0.264258 -0.031034 0.334455
v -0.266739 -0.047836 0.418950
v -0.266739 -0.047836 0.334455
v -0.264258 -0.031034 0.418950
v -0.264258 -0.031034 0.334455
v 0.270397 -0.109984 0.418950
v 0.267916 -0.126787 0.334455
v 0.267916 -0.126787 0.418950
v 0.270397 -0.109984 0.334455
v 0.270397 -0.109984 0.334455
v 0.270397 -0.109984 0.418950
v 0.267916 -0.126787 0.334455
v 0.267916 -0.126787 0.418950
v 0.270397 -0.109984 0.418950
v 0.270397 -0.109984 0.334455
v -0.260726 -0.014420 0.334455
v -0.264258 -0.031034 0.418950
v -0.264258 -0.031034 0.334455
v -0.260726 -0.014420 0.418950
v -0.260726 -0.014420 0.418950
v -0.260726 -0.014420 0.334455
v -0.264258 -0.031034 0.418950
v -0.264258 -0.031034 0.334455
v -0.260726 -0.014420 0.418950
v -0.260726 -0.014420 0.334455
v 0.271818 -0.093059 0.418950
v 0.270397 -0.109984 0.334455
v 0.270397 -0.109984 0.418950
v 0.271818 -0.093059 0.334455
v 0.271818 -0.093059 0.334455
v 0.271818 -0.093059 0.418950
v 0.270397 -0.109984 0.334455
v 0.270397 -0.109984 0.418950
v 0.271818 -0.093059 0.418950
v 0.271818 -0.093059 0.334455
v -0.256159 0.001939 0.334455
v -0.260726 -0.014420 0.418950
v -0.260726 -0.014420 0.334455
v -0.256159 0.001939 0.418950
v -0.256159 0.001939 0.418950
v -0.256159 0.001939 0.334455
v -0.260726 -0.014420 0.418950
v -0.260726 -0.014420 0.334455
v -0.256159 0.001939 0.418950
v -0.256159 0.001939 0.334455
v 0.272174 -0.076079 0.418950
v 0.271818 -0.093059 0.334455
v 0.271818 -0.093059 0.418950
v 0.272174 -0.076079 0.334455
v 0.272174 -0.076079 0.334455
v 0.272174 -0.076079 0.418950
v 0.271818 -0.093059 0.334455
v 0.271818 -0.093059 0.418950
v 0.272174 -0.076079 0.418950
v 0.272174 -0.076079 0.334455
v -0.250573 0.017978 0.334455
v -0.256159 0.001939 0.418950
v -0.256159 0.001939 0.334455
v -0.250573 0.017978 0.418950
v -0.250573 0.017978 0.418950
v -0.250573 0.017978 0.334455
v -0.256159 0.001939 0.418950
v -0.256159 0.001939 0.334455
v -0.250573 0.017978 0.418950
v -0.250573 0.017978 0.334455
v 0.271463 -0.059109 0.418950
v 0.272174 -0.076079 0.334455
v 0.272174 -0.076079 0.418950
v 0.271463 -0.059109 0.334455
v 0.271463 -0.059109 0.334455
v 0.271463 -0.059109 0.418950
v 0.272174 -0.076079 0.334455
v 0.272174 -0.076079 0.418950
v 0.271463 -0.059109 0.418950
v 0.271463 -0.059109 0.334455
v -0.243992 0.033635 0.334455
v -0.250573 0.017978 0.418950
v -0.250573 0.017978 0.334455
v -0.243992 0.033635 0.418950
v -0.243992 0.033635 0.418950
v -0.243992 0.033635 0.334455
v -0.250573 0.017978 0.418950
v -0.250573 0.017978 0.334455
v -0.243992 0.033635 0.418950
v -0.243992 0.033635 0.334455
v 0.269687 -0.042218 0.418950
v 0.271463 -0.059109 0.334455
v 0.271463 -0.059109 0.418950
v 0.269687 -0.042218 0.334455
v 0.269687 -0.042218 0.334455
v 0.269687 -0.042218 0.418950
v 0.271463 -0.059109 0.334455
v 0.271463 -0.059109 0.418950
v 0.269687 -0.042218 0.418950
v 0.269687 -0.042218 0.334455
v -0.236440 0.048848 0.334455
v -0.243992 0.033635 0.418950
v -0.243992 0.033635 0.334455
v -0.236440 0.048848 0.418950
v -0.236440 0.048848 0.418950
v -0.236440 0.048848 0.334455
v -0.243992 0.033635 0.418950
v -0.243992 0.033635 0.334455
v -0.236440 0.048848 0.418950
v -0.236440 0.048848 0.334455
v 0.266855 -0.025472 0.418950
v 0.269687 -0.042218 0.334455
v 0.269687 -0.042218 0.418950
v 0.266855 -0.025472 0.334455
v 0.266855 -0.025472 0.334455
v 0.266855 -0.025472 0.418950
v 0.269687 -0.042218 0.334455
v 0.269687 -0.042218 0.418950
v 0.266855 -0.025472 0.418950
v 0.266855 -0.025472 0.334455
v -0.227947 0.063557 0.334455
v -0.236440 0.048848 0.418950
v -0.236440 0.048848 0.334455
v -0.227947 0.063557 0.418950
v -0.227947 0.063557 0.418950
v -0.227947 0.063557 0.334455
v -0.236440 0.048848 0.418950
v -0.236440 0.048848 0.334455
v -0.227947 0.063557 0.418950
v -0.227947 0.063557 0.334455
v 0.262976 -0.008936 0.418950
v 0.266855 -0.025472 0.334455
v 0.266855 -0.025472 0.418950
v 0.262976 -0.008936 0.334455
v 0.262976 -0.008936 0.334455
v 0.262976 -0.008936 0.418950
v 0.266855 -0.025472 0.334455
v 0.266855 -0.025472 0.418950
v 0.262976 -0.008936 0.418950
v 0.262976 -0.008936 0.334455
v -0.218548 0.077704 0.334455
v -0.227947 0.063557 0.418950
v -0.227947 0.063557 0.334455
v -0.218548 0.077704 0.418950
v -0.218548 0.077704 0.418950
v -0.218548 0.077704 0.334455
v -0.227947 0.063557 0.418950
v -0.227947 0.063557 0.334455
v -0.218548 0.077704 0.418950
v -0.218548 0.077704 0.334455
v 0.258067 0.007324 0.418950
v 0.262976 -0.008936 0.334455
v 0.262976 -0.008936 0.418950
v 0.258067 0.007324 0.334455
v 0.258067 0.007324 0.334455
v 0.258067 0.007324 0.418950
v 0.262976 -0.008936 0.334455
v 0.262976 -0.008936 0.418950
v 0.258067 0.007324 0.418950
v 0.258067 0.007324 0.334455
v -0.208280 0.091233 0.334455
v -0.218548 0.077704 0.418950
v -0.218548 0.077704 0.334455
v -0.208280 0.091233 0.418950
v -0.208280 0.091233 0.418950
v -0.208280 0.091233 0.334455
v -0.218548 0.077704 0.418950
v -0.218548 0.077704 0.334455
v -0.208280 0.091233 0.418950
v -0.208280 0.091233 0.334455
v 0.252147 0.023243 0.418950
v 0.258067 0.007324 0.334455
v 0.258067 0.007324 0.418950
v 0.252147 0.023243 0.334455
v 0.252147 0.023243 0.334455
v 0.252147 0.023243 0.418950
v 0.258067 0.007324 0.334455
v 0.258067 0.007324 0.418950
v 0.252147 0.023243 0.418950
v 0.252147 0.023243 0.334455
v -0.197182 0.104090 0.334455
v -0.208280 0.091233 0.418950
v -0.208280 0.091233 0.334455
v -0.197182 0.104090 0.418950
v -0.197182 0.104090 0.418950
v -0.197182 0.104090 0.334455
v -0.208280 0.091233 0.418950
v -0.208280 0.091233 0.334455
v -0.197182 0.104090 0.418950
v -0.197182 0.104090 0.334455
v 0.245239 0.038759 0.418950
v 0.252147 0.023243 0.334455
v 0.252147 0.023243 0.418950
v 0.245239 0.038759 0.334455
v 0.245239 0.038759 0.334455
v 0.245239 0.038759 0.418950
v 0.252147 0.023243 0.334455
v 0.252147 0.023243 0.418950
v 0.245239 0.038759 0.418950
v 0.245239 0.038759 0.334455
v -0.185298 0.116225 0.334455
v -0.197182 0.104090 0.418950
v -0.197182 0.104090 0.334455
v -0.185298 0.116225 0.418950
v -0.185298 0.116225 0.418950
v -0.185298 0.116225 0.334455
v -0.197182 0.104090 0.418950
v -0.197182 0.104090 0.334455
v -0.185298 0.116225 0.418950
v -0.185298 0.116225 0.334455
v 0.237370 0.053810 0.418950
v 0.245239 0.038759 0.334455
v 0.245239 0.038759 0.418950
v 0.237370 0.053810 0.334455
v 0.237370 0.053810 0.334455
v 0.237370 0.053810 0.418950
v 0.245239 0.038759 0.334455
v 0.245239 0.038759 0.418950
v 0.237370 0.053810 0.418950
v 0.237370 0.053810 0.334455
v -0.172676 0.127589 0.418950
v -0.185298 0.116225 0.334455
v -0.172676 0.127589 0.334455
v -0.185298 0.116225 0.418950
v -0.185298 0.116225 0.418950
v -0.172676 0.127589 0.418950
v -0.185298 0.116225 0.334455
v -0.172676 0.127589 0.334455
v -0.172676 0.127589 0.418950
v -0.172676 0.127589 0.334455
v 0.228572 0.068338 0.418950
v 0.237370 0.053810 0.334455
v 0.237370 0.053810 0.418950
v 0.228572 0.068338 0.334455
v 0.228572 0.068338 0.334455
v 0.228572 0.068338 0.418950
v 0.237370 0.053810 0.334455
v 0.237370 0.053810 0.418950
v 0.228572 0.068338 0.418950
v 0.228572 0.068338 0.334455
v -0.159366 0.138139 0.418950
v -0.172676 0.127589 0.334455
v -0.159366 0.138139 0.334455
v -0.172676 0.127589 0.418950
v -0.172676 0.127589 0.418950
v -0.159366 0.138139 0.418950
v -0.172676 0.127589 0.334455
v -0.159366 0.138139 0.334455
v -0.159366 0.138139 0.418950
v -0.159366 0.138139 0.334455
v 0.218878 0.082285 0.418950
v 0.228572 0.068338 0.334455
v 0.228572 0.068338 0.418950
v 0.218878 0.082285 0.334455
v 0.218878 0.082285 0.334455
v 0.218878 0.082285 0.418950
v 0.228572 0.068338 0.334455
v 0.228572 0.068338 0.418950
v 0.218878 0.082285 0.418950
v 0.218878 0.082285 0.334455
v -0.145419 0.147833 0.418950
v -0.159366 0.138139 0.334455
v -0.145419 0.147833 0.334455
v -0.159366 0.138139 0.418950
v -0.159366 0.138139 0.418950
v -0.145419 0.147833 0.418950
v -0.159366 0.138139 0.334455
v -0.145419 0.147833 0.334455
v -0.145419 0.147833 0.418950
v -0.145419 0.147833 0.334455
v 0.208328 0.095596 0.418950
v 0.218878 0.082285 0.334455
v 0.218878 0.082285 0.418950
v 0.208328 0.095596 0.334455
v 0.208328 0.095596 0.334455
v 0.208328 0.095596 0.418950
v 0.218878 0.082285 0.334455
v 0.218878 0.082285 0.418950
v 0.208328 0.095596 0.418950
v 0.208328 0.095596 0.334455
v -0.130891 0.156631 0.418950
v -0.145419 0.147833 0.334455
v -0.130891 0.156631 0.334455
v -0.145419 0.147833 0.418950
v -0.145419 0.147833 0.418950
v -0.130891 0.156631 0.418950
v -0.145419 0.147833 0.334455
v -0.130891 0.156631 0.334455
v -0.130891 0.156631 0.418950
v -0.130891 0.156631 0.334455
v 0.196964 0.108218 0.418950
v 0.208328 0.095596 0.334455
v 0.208328 0.095596 0.418950
v 0.196964 0.108218 0.334455
v 0.196964 0.108218 0.334455
v 0.196964 0.108218 0.418950
v 0.208328 0.095596 0.334455
v 0.208328 0.095596 0.418950
v 0.196964 0.108218 0.418950
v 0.196964 0.108218 0.334455
v -0.115840 0.164500 0.418950
v -0.130891 0.156631 0.334455
v -0.115840 0.164500 0.334455
v -0.130891 0.156631 0.418950
v -0.130891 0.156631 0.418950
v -0.115840 0.164500 0.418950
v -0.130891 0.156631 0.334455
v -0.115840 0.164500 0.334455
v -0.115840 0.164500 0.418950
v -0.115840 0.164500 0.334455
v 0.196964 0.108218 0.418950
v 0.184829 0.120101 0.334455
v 0.196964 0.108218 0.334455
v 0.184829 0.120101 0.418950
v 0.184829 0.120101 0.418950
v 0.196964 0.108218 0.418950
v 0.184829 0.120101 0.334455
v 0.196964 0.108218 0.334455
v 0.184829 0.120101 0.418950
v 0.184829 0.120101 0.334455
v -0.100324 0.171408 0.418950
v -0.115840 0.164500 0.334455
v -0.100324 0.171408 0.334455
v -0.115840 0.164500 0.418950
v -0.115840 0.164500 0.418950
v -0.100324 0.171408 0.418950
v -0.115840 0.164500 0.334455
v -0.100324 0.171408 0.334455
v -0.100324 0.171408 0.418950
v -0.100324 0.171408 0.334455
v 0.184829 0.120101 0.418950
v 0.171972 0.131199 0.334455
v 0.184829 0.120101 0.334455
v 0.171972 0.131199 0.418950
v 0.171972 0.131199 0.418950
v 0.184829 0.120101 0.418950
v 0.171972 0.131199 0.334455
v 0.184829 0.120101 0.334455
v 0.171972 0.131199 0.418950
v 0.171972 0.131199 0.334455
v -0.084405 0.177328 0.418950
v -0.100324 0.171408 0.334455
v -0.084405 0.177328 0.334455
v -0.100324 0.171408 0.418950
v -0.100324 0.171408 0.418950
v -0.084405 0.177328 0.418950
v -0.100324 0.171408 0.334455
v -0.084405 0.177328 0.334455
v -0.084405 0.177328 0.418950
v -0.084405 0.177328 0.334455
v 0.171972 0.131199 0.418950
v 0.158443 0.141467 0.334455
v 0.171972 0.131199 0.334455
v 0.158443 0.141467 0.418950
v 0.158443 0.141467 0.418950
v 0.171972 0.131199 0.418950
v 0.158443 0.141467 0.334455
v 0.171972 0.131199 0.334455
v 0.158443 0.141467 0.418950
v 0.158443 0.141467 0.334455
v -0.068145 0.182237 0.418950
v -0.084405 0.177328 0.334455
v -0.068145 0.182237 0.334455
v -0.084405 0.177328 0.418950
v -0.084405 0.177328 0.418950
v -0.068145 0.182237 0.418950
v -0.084405 0.177328 0.334455
v -0.068145 0.182237 0.334455
v -0.068145 0.182237 0.418950
v -0.068145 0.182237 0.334455
v 0.158443 0.141467 0.418950
v 0.144296 0.150866 0.334455
v 0.158443 0.141467 0.334455
v 0.144296 0.150866 0.418950
v 0.144296 0.150866 0.418950
v 0.158443 0.141467 0.418950
v 0.144296 0.150866 0.334455
v 0.158443 0.141467 0.334455
v 0.144296 0.150866 0.418950
v 0.144296 0.150866 0.334455
v -0.051610 0.186116 0.418950
v -0.068145 0.182237 0.334455
v -0.051610 0.186116 0.334455
v -0.068145 0.182237 0.418950
v -0.068145 0.182237 0.418950
v -0.051610 0.186116 0.418950
v -0.068145 0.182237 0.334455
v -0.051610 0.186116 0.334455
v -0.051610 0.186116 0.418950
v -0.051610 0.186116 0.334455
v 0.144296 0.150866 0.418950
v 0.129588 0.159359 0.334455
v 0.144296 0.150866 0.334455
v 0.129588 0.159359 0.418950
v 0.129588 0.159359 0.418950
v 0.144296 0.150866 0.418950
v 0.129588 0.159359 0.334455
v 0.144296 0.150866 0.334455
v 0.129588 0.159359 0.418950
v 0.129588 0.159359 0.334455
v -0.034863 0.188948 0.418950
v -0.051610 0.186116 0.334455
v -0.034863 0.188948 0.334455
v -0.051610 0.186116 0.418950
v -0.051610 0.186116 0.418950
v -0.034863 0.188948 0.418950
v -0.051610 0.186116 0.334455
v -0.034863 0.188948 0.334455
v -0.034863 0.188948 0.418950
v -0.034863 0.188948 0.334455
v 0.129588 0.159359 0.418950
v 0.114374 0.166910 0.334455
v 0.129588 0.159359 0.334455
v 0.114374 0.166910 0.418950
v 0.114374 0.166910 0.418950
v 0.129588 0.159359 0.418950
v 0.114374 0.166910 0.334455
v 0.129588 0.159359 0.334455
v 0.114374 0.166910 0.418950
v 0.114374 0.166910 0.334455
v -0.017972 0.190724 0.418950
v -0.034863 0.188948 0.334455
v -0.017972 0.190724 0.334455
v -0.034863 0.188948 0.418950
v -0.034863 0.188948 0.418950
v -0.017972 0.190724 0.418950
v -0.034863 0.188948 0.334455
v -0.017972 0.190724 0.334455
v -0.017972 0.190724 0.418950
v -0.017972 0.190724 0.334455
v 0.114374 0.166910 0.418950
v 0.098717 0.173492 0.334455
v 0.114374 0.166910 0.334455
v 0.098717 0.173492 0.418950
v 0.098717 0.173492 0.418950
v 0.114374 0.166910 0.418950
v 0.098717 0.173492 0.334455
v 0.114374 0.166910 0.334455
v 0.098717 0.173492 0.418950
v 0.098717 0.173492 0.334455
v -0.001002 0.191435 0.418950
v -0.017972 0.190724 0.334455
v -0.001002 0.191435 0.334455
v -0.017972 0.190724 0.418950
v -0.017972 0.190724 0.418950
v -0.001002 0.191435 0.418950
v -0.017972 0.190724 0.334455
v -0.001002 0.191435 0.334455
v -0.001002 0.191435 0.418950
v -0.001002 0.191435 0.334455
v 0.098717 0.173492 0.418950
v 0.082678 0.179078 0.334455
v 0.098717 0.173492 0.334455
v 0.082678 0.179078 0.418950
v 0.082678 0.179078 0.418950
v 0.098717 0.173492 0.418950
v 0.082678 0.179078 0.334455
v 0.098717 0.173492 0.334455
v 0.082678 0.179078 0.418950
v 0.082678 0.179078 0.334455
v 0.015979 0.191079 0.418950
v -0.001002 0.191435 0.334455
v 0.015979 0.191079 0.334455
v -0.001002 0.191435 0.418950
v -0.001002 0.191435 0.418950
v 0.015979 0.191079 0.418950
v -0.001002 0.191435 0.334455
v 0.015979 0.191079 0.334455
v 0.015979 0.191079 0.418950
v 0.015979 0.191079 0.334455
v 0.082678 0.179078 0.418950
v 0.066319 0.183645 0.334455
v 0.082678 0.179078 0.334455
v 0.066319 0.183645 0.418950
v 0.066319 0.183645 0.418950
v 0.082678 0.179078 0.418950
v 0.066319 0.183645 0.334455
v 0.082678 0.179078 0.334455
v 0.066319 0.183645 0.418950
v 0.066319 0.183645 0.334455
v 0.032903 0.189658 0.418950
v 0.015979 0.191079 0.334455
v 0.032903 0.189658 0.334455
v 0.015979 0.191079 0.418950
v 0.015979 0.191079 0.418950
v 0.032903 0.189658 0.418950
v 0.015979 0.191079 0.334455
v 0.032903 0.189658 0.334455
v 0.032903 0.189658 0.418950
v 0.032903 0.189658 0.334455
v 0.066319 0.183645 0.418950
v 0.049705 0.187177 0.334455
v 0.066319 0.183645 0.334455
v 0.049705 0.187177 0.418950
v 0.049705 0.187177 0.418950
v 0.066319 0.183645 0.418950
v 0.049705 0.187177 0.334455
v 0.066319 0.183645 0.334455
v 0.049705 0.187177 0.418950
v 0.049705 0.187177 0.334455
v 0.049705 0.187177 0.418950
v 0.032903 0.189658 0.334455
v 0.049705 0.187177 0.334455
v 0.032903 0.189658 0.418950
v 0.032903 0.189658 0.418950
v 0.049705 0.187177 0.418950
v 0.032903 0.189658 0.334455
v 0.049705 0.187177 0.334455
vn 0.146083005373204 0.9892723363872724 0
vn -0.146083005373204 -0.9892723363872724 0
vn 0.20791169975230958 0.9781475988347083 0
vn -0.20791169975230958 -0.9781475988347083 0
vn 0.08367783662537855 0.9964928598127015 0
vn -0.08367783662537855 -0.9964928598127015 0
vn 0.26891979289099777 0.9631625745384124 0
vn -0.26891979289099777 -0.9631625745384124 0
vn 0.02094241965394802 0.9997806834796508 0
vn -0.02094241965394802 -0.9997806834796508 0
vn 0.3288665958114695 0.9443763879721767 0
vn -0.3288665958114695 -0.9443763879721767 0
vn -0.041875651265843125 0.9991228302021037 0
vn 0.041875651265843125 -0.9991228302021037 0
vn 0.38751558067118835 0.9218631540185733 0
vn -0.38751558067118835 -0.9218631540185733 0
vn -0.10452849911715961 0.9945218916003378 0
vn 0.10452849911715961 -0.9945218916003378 0
vn 0.4446351800496024 0.8957117598101846 0
vn -0.4446351800496024 -0.8957117598101846 0
vn -0.16676870739488403 0.9859960437211903 0
vn 0.16676870739488403 -0.9859960437211903 0
vn 0.5000000016387101 0.866025402838329 0
vn -0.5000000016387101 -0.866025402838329 0
vn -0.22835089908020031 0.9735788960784145 0
vn 0.22835089908020031 -0.9735788960784145 0
vn 0.5533915338449596 0.8329212509407615 0
vn -0.5533915338449596 -0.8329212509407615 0
vn -0.2890317990618765 0.957319496892785 0
vn 0.2890317990618765 -0.957319496892785 0
vn 0.6045991141129093 0.7965299185930715 0
vn -0.6045991141129093 -0.7965299185930715 0
vn -0.34857200231660956 0.9372820062291763 0
vn 0.34857200231660956 -0.9372820062291763 0
vn 0.6534205797673647 0.7569950765602648 0
vn -0.6534205797673647 -0.7569950765602648 0
vn -0.40673659138739143 0.9135454806557615 0
vn 0.40673659138739143 -0.9135454806557615 0
vn 0.6996633096510927 0.7144727098553723 0
vn -0.6996633096510927 -0.7144727098553723 0
vn -0.46329599901110396 0.8862035981084162 0
vn 0.46329599901110396 -0.8862035981084162 0
vn 0.7431448172322651 0.6691306155160015 0
vn -0.7431448172322651 -0.6691306155160015 0
vn -0.5180269848623478 0.8553642750047636 0
vn 0.5180269848623478 -0.8553642750047636 0
vn 0.7836934641902682 0.621147771617557 0
vn -0.7836934641902682 -0.621147771617557 0
vn -0.5707135937547954 0.8211491910143286 0
vn 0.5707135937547954 -0.8211491910143286 0
vn 0.8211491910143286 0.5707135937547954 0
vn -0.8211491910143286 -0.5707135937547954 0
vn -0.621147771617557 0.7836934641902682 0
vn 0.621147771617557 -0.7836934641902682 0
vn 0.8553642750047636 0.5180269848623478 0
vn -0.8553642750047636 -0.5180269848623478 0
vn -0.6691306155160015 0.7431448172322651 0
vn 0.6691306155160015 -0.7431448172322651 0
vn 0.8862035981084162 0.46329599901110396 0
vn -0.8862035981084162 -0.46329599901110396 0
vn -0.7144727098553723 0.6996633096510927 0
vn 0.7144727098553723 -0.6996633096510927 0
vn 0.9135454806557615 0.40673659138739143 0
vn -0.9135454806557615 -0.40673659138739143 0
vn -0.7569950765602648 0.6534205797673647 0
vn 0.7569950765602648 -0.6534205797673647 0
vn 0.9372820062291763 0.34857200231660956 0
vn -0.9372820062291763 -0.34857200231660956 0
vn -0.7965299185930715 0.6045991141129093 0
vn 0.7965299185930715 -0.6045991141129093 0
vn 0.957319496892785 0.2890317990618765 0
vn -0.957319496892785 -0.2890317990618765 0
vn -0.8329212509407615 0.5533915338449596 0
vn 0.8329212509407615 -0.5533915338449596 0
vn 0.9735788960784145 0.22835089908020031 0
vn -0.9735788960784145 -0.22835089908020031 0
vn -0.866025402838329 0.5000000016387101 0
vn 0.866025402838329 -0.5000000016387101 0
vn 0.9859960437211903 0.16676870739488403 0
vn -0.9859960437211903 -0.16676870739488403 0
vn -0.8957117598101846 0.4446351800496024 0
vn 0.8957117598101846 -0.4446351800496024 0
vn 0.9945218916003378 0.10452849911715961 0
vn -0.9945218916003378 -0.10452849911715961 0
vn -0.9218631540185733 0.38751558067118835 0
vn 0.9218631540185733 -0.38751558067118835 0
vn 0.9991228302021037 0.041875651265843125 0
vn -0.9991228302021037 -0.041875651265843125 0
vn -0.9443763879721767 0.3288665958114695 0
vn 0.9443763879721767 -0.3288665958114695 0
vn 0.9997806834796508 -0.02094241965394802 0
vn -0.9997806834796508 0.02094241965394802 0
vn -0.9631625745384124 0.26891979289099777 0
vn 0.9631625745384124 -0.26891979289099777 0
vn 0.9964928598127015 -0.08367783662537855 0
vn -0.9964928598127015 0.08367783662537855 0
vn -0.9781475988347083 0.20791169975230958 0
vn 0.9781475988347083 -0.20791169975230958 0
vn 0.9892723363872724 -0.146083005373204 0
vn -0.9892723363872724 0.146083005373204 0
usemtl material_0_0
f 1//1 2//1 3//1
f 2//1 1//1 4//1
f 5//2 6//2 7//2
f 8//2 7//2 6//2
f 13//3 14//3 15//3
f 14//3 13//3 16//3
f 17//4 18//4 19//4
f 20//4 19//4 18//4
f 23//5 24//5 25//5
f 24//5 23//5 26//5
f 27//6 28//6 29//6
f 30//6 29//6 28//6
f 33//7 34//7 35//7
f 34//7 33//7 36//7
f 37//8 38//8 39//8
f 40//8 39//8 38//8
f 43//9 44//9 45//9
f 44//9 43//9 46//9
f 47//10 48//10 49//10
f 50//10 49//10 48//10
f 53//11 54//11 55//11
f 54//11 53//11 56//11
f 57//12 58//12 59//12
f 60//12 59//12 58//12
f 63//13 64//13 65//13
f 64//13 63//13 66//13
f 67//14 68//14 69//14
f 70//14 69//14 68//14
f 73//15 74//15 75//15
f 74//15 73//15 76//15
f 77//16 78//16 79//16
f 80//16 79//16 78//16
f 83//17 84//17 85//17
f 84//17 83//17 86//17
f 87//18 88//18 89//18
f 90//18 89//18 88//18
f 93//19 94//19 95//19
f 94//19 93//19 96//19
f 97//20 98//20 99//20
f 100//20 99//20 98//20
f 103//21 104//21 105//21
f 104//21 103//21 106//21
f 107//22 108//22 109//22
f 110//22 109//22 108//22
f 113//23 114//23 115//23
f 114//23 113//23 116//23
f 117//24 118//24 119//24
f 120//24 119//24 118//24
f 123//25 124//25 125//25
f 124//25 123//25 126//25
f 127//26 128//26 129//26
f 130//26 129//26 128//26
f 133//27 134//27 135//27
f 134//27 133//27 136//27
f 137//28 138//28 139//28
f 140//28 139//28 138//28
f 143//29 144//29 145//29
f 144//29 143//29 146//29
f 147//30 148//30 149//30
f 150//30 149//30 148//30
f 153//31 154//31 155//31
f 154//31 153//31 156//31
f 157//32 158//32 159//32
f 160//32 159//32 158//32
f 163//33 164//33 165//33
f 164//33 163//33 166//33
f 167//34 168//34 169//34
f 170//34 169//34 168//34
f 173//35 174//35 175//35
f 174//35 173//35 176//35
f 177//36 178//36 179//36
f 180//36 179//36 178//36
f 183//37 184//37 185//37
f 184//37 183//37 186//37
f 187//38 188//38 189//38
f 190//38 189//38 188//38
f 193//39 194//39 195//39
f 194//39 193//39 196//39
f 197//40 198//40 199//40
f 200//40 199//40 198//40
f 203//41 204//41 205//41
f 204//41 203//41 206//41
f 207//42 208//42 209//42
f 210//42 209//42 208//42
f 213//43 214//43 215//43
f 214//43 213//43 216//43
f 217//44 218//44 219//44
f 220//44 219//44 218//44
f 223//45 224//45 225//45
f 224//45 223//45 226//45
f 227//46 228//46 229//46
f 230//46 229//46 228//46
f 233//47 234//47 235//47
f 234//47 233//47 236//47
f 237//48 238//48 239//48
f 240//48 239//48 238//48
f 243//49 244//49 245//49
f 244//49 243//49 246//49
f 247//50 248//50 249//50
f 250//50 249//50 248//50
f 253//51 254//51 255//51
f 254//51 253//51 256//51
f 257//52 258//52 259//52
f 260//52 259//52 258//52
f 263//53 264//53 265//53
f 264//53 263//53 266//53
f 267//54 268//54 269//54
f 270//54 269//54 268//54
f 273//55 274//55 275//55
f 274//55 273//55 276//55
f 277//56 278//56 279//56
f 280//56 279//56 278//56
f 283//57 284//57 285//57
f 284//57 283//57 286//57
f 287//58 288//58 289//58
f 290//58 289//58 288//58
f 293//59 294//59 295//59
f 294//59 293//59 296//59
f 297//60 298//60 299//60
f 300//60 299//60 298//60
f 303//61 304//61 305//61
f 304//61 303//61 306//61
f 307//62 308//62 309//62
f 310//62 309//62 308//62
f 313//63 314//63 315//63
f 314//63 313//63 316//63
f 317//64 318//64 319//64
f 320//64 319//64 318//64
f 323//65 324//65 325//65
f 324//65 323//65 326//65
f 327//66 328//66 329//66
f 330//66 329//66 328//66
f 333//67 334//67 335//67
f 334//67 333//67 336//67
f 337//68 338//68 339//68
f 340//68 339//68 338//68
f 343//69 344//69 345//69
f 344//69 343//69 346//69
f 347//70 348//70 349//70
f 350//70 349//70 348//70
f 353//71 354//71 355//71
f 354//71 353//71 356//71
f 357//72 358//72 359//72
f 360//72 359//72 358//72
f 363//73 364//73 365//73
f 364//73 363//73 366//73
f 367//74 368//74 369//74
f 370//74 369//74 368//74
f 373//75 374//75 375//75
f 374//75 373//75 376//75
f 377//76 378//76 379//76
f 380//76 379//76 378//76
f 383//77 384//77 385//77
f 384//77 383//77 386//77
f 387//78 388//78 389//78
f 390//78 389//78 388//78
f 393//79 394//79 395//79
f 394//79 393//79 396//79
f 397//80 398//80 399//80
f 400//80 399//80 398//80
f 403//81 404//81 405//81
f 404//81 403//81 406//81
f 407//82 408//82 409//82
f 410//82 409//82 408//82
f 413//83 414//83 415//83
f 414//83 413//83 416//83
f 417//84 418//84 419//84
f 420//84 419//84 418//84
f 423//85 424//85 425//85
f 424//85 423//85 426//85
f 427//86 428//86 429//86
f 430//86 429//86 428//86
f 433//87 434//87 435//87
f 434//87 433//87 436//87
f 437//88 438//88 439//88
f 440//88 439//88 438//88
f 443//89 444//89 445//89
f 444//89 443//89 446//89
f 447//90 448//90 449//90
f 450//90 449//90 448//90
f 453//91 454//91 455//91
f 454//91 453//91 456//91
f 457//92 458//92 459//92
f 460//92 459//92 458//92
f 463//93 464//93 465//93
f 464//93 463//93 466//93
f 467//94 468//94 469//94
f 470//94 469//94 468//94
f 473//95 474//95 475//95
f 474//95 473//95 476//95
f 477//96 478//96 479//96
f 480//96 479//96 478//96
f 483//97 484//97 485//97
f 484//97 483//97 486//97
f 487//98 488//98 489//98
f 490//98 489//98 488//98
f 493//99 494//99 495//99
f 494//99 493//99 496//99
f 497//100 498//100 499//100
f 500//100 499//100 498//100
f 503//100 504//100 505//100
f 504//100 503//100 506//100
f 507//99 508//99 509//99
f 510//99 509//99 508//99
f 513//98 514//98 515//98
f 514//98 513//98 516//98
f 517//97 518//97 519//97
f 520//97 519//97 518//97
f 523//96 524//96 525//96
f 524//96 523//96 526//96
f 527//95 528//95 529//95
f 530//95 529//95 528//95
f 533//94 534//94 535//94
f 534//94 533//94 536//94
f 537//93 538//93 539//93
f 540//93 539//93 538//93
f 543//92 544//92 545//92
f 544//92 543//92 546//92
f 547//91 548//91 549//91
f 550//91 549//91 548//91
f 553//90 554//90 555//90
f 554//90 553//90 556//90
f 557//89 558//89 559//89
f 560//89 559//89 558//89
f 563//88 564//88 565//88
f 564//88 563//88 566//88
f 567//87 568//87 569//87
f 570//87 569//87 568//87
f 573//86 574//86 575//86
f 574//86 573//86 576//86
f 577//85 578//85 579//85
f 580//85 579//85 578//85
f 583//84 584//84 585//84
f 584//84 583//84 586//84
f 587//83 588//83 589//83
f 590//83 589//83 588//83
f 593//82 594//82 595//82
f 594//82 593//82 596//82
f 597//81 598//81 599//81
f 600//81 599//81 598//81
f 603//80 604//80 605//80
f 604//80 603//80 606//80
f 607//79 608//79 609//79
f 610//79 609//79 608//79
f 613//78 614//78 615//78
f 614//78 613//78 616//78
f 617//77 618//77 619//77
f 620//77 619//77 618//77
f 623//76 624//76 625//76
f 624//76 623//76 626//76
f 627//75 628//75 629//75
f 630//75 629//75 628//75
f 633//74 634//74 635//74
f 634//74 633//74 636//74
f 637//73 638//73 639//73
f 640//73 639//73 638//73
f 643//72 644//72 645//72
f 644//72 643//72 646//72
f 647//71 648//71 649//71
f 650//71 649//71 648//71
f 653//70 654//70 655//70
f 654//70 653//70 656//70
f 657//69 658//69 659//69
f 660//69 659//69 658//69
f 663//68 664//68 665//68
f 664//68 663//68 666//68
f 667//67 668//67 669//67
f 670//67 669//67 668//67
f 673//66 674//66 675//66
f 674//66 673//66 676//66
f 677//65 678//65 679//65
f 680//65 679//65 678//65
f 683//64 684//64 685//64
f 684//64 683//64 686//64
f 687//63 688//63 689//63
f 690//63 689//63 688//63
f 693//62 694//62 695//62
f 694//62 693//62 696//62
f 697//61 698//61 699//61
f 700//61 699//61 698//61
f 703//60 704//60 705//60
f 704//60 703//60 706//60
f 707//59 708//59 709//59
f 710//59 709//59 708//59
f 713//58 714//58 715//58
f 714//58 713//58 716//58
f 717//57 718//57 719//57
f 720//57 719//57 718//57
f 723//56 724//56 725//56
f 724//56 723//56 726//56
f 727//55 728//55 729//55
f 730//55 729//55 728//55
f 733//54 734//54 735//54
f 734//54 733//54 736//54
f 737//53 738//53 739//53
f 740//53 739//53 738//53
f 743//52 744//52 745//52
f 744//52 743//52 746//52
f 747//51 748//51 749//51
f 750//51 749//51 748//51
f 753//50 754//50 755//50
f 754//50 753//50 756//50
f 757//49 758//49 759//49
f 760//49 759//49 758//49
f 763//48 764//48 765//48
f 764//48 763//48 766//48
f 767//47 768//47 769//47
f 770//47 769//47 768//47
f 773//46 774//46 775//46
f 774//46 773//46 776//46
f 777//45 778//45 779//45
f 780//45 779//45 778//45
f 783//44 784//44 785//44
f 784//44 783//44 786//44
f 787//43 788//43 789//43
f 790//43 789//43 788//43
f 793//42 794//42 795//42
f 794//42 793//42 796//42
f 797//41 798//41 799//41
f 800//41 799//41 798//41
f 803//40 804//40 805//40
f 804//40 803//40 806//40
f 807//39 808//39 809//39
f 810//39 809//39 808//39
f 813//38 814//38 815//38
f 814//38 813//38 816//38
f 817//37 818//37 819//37
f 820//37 819//37 818//37
f 823//36 824//36 825//36
f 824//36 823//36 826//36
f 827//35 828//35 829//35
f 830//35 829//35 828//35
f 833//34 834//34 835//34
f 834//34 833//34 836//34
f 837//33 838//33 839//33
f 840//33 839//33 838//33
f 843//32 844//32 845//32
f 844//32 843//32 846//32
f 847//31 848//31 849//31
f 850//31 849//31 848//31
f 853//30 854//30 855//30
f 854//30 853//30 856//30
f 857//29 858//29 859//29
f 860//29 859//29 858//29
f 863//28 864//28 865//28
f 864//28 863//28 866//28
f 867//27 868//27 869//27
f 870//27 869//27 868//27
f 873//26 874//26 875//26
f 874//26 873//26 876//26
f 877//25 878//25 879//25
f 880//25 879//25 878//25
f 883//24 884//24 885//24
f 884//24 883//24 886//24
f 887//23 888//23 889//23
f 890//23 889//23 888//23
f 893//22 894//22 895//22
f 894//22 893//22 896//22
f 897//21 898//21 899//21
f 900//21 899//21 898//21
f 903//20 904//20 905//20
f 904//20 903//20 906//20
f 907//19 908//19 909//19
f 910//19 909//19 908//19
f 913//18 914//18 915//18
f 914//18 913//18 916//18
f 917//17 918//17 919//17
f 920//17 919//17 918//17
f 923//16 924//16 925//16
f 924//16 923//16 926//16
f 927//15 928//15 929//15
f 930//15 929//15 928//15
f 933//14 934//14 935//14
f 934//14 933//14 936//14
f 937//13 938//13 939//13
f 940//13 939//13 938//13
f 943//12 944//12 945//12
f 944//12 943//12 946//12
f 947//11 948//11 949//11
f 950//11 949//11 948//11
f 953//10 954//10 955//10
f 954//10 953//10 956//10
f 957//9 958//9 959//9
f 960//9 959//9 958//9
f 963//8 964//8 965//8
f 964//8 963//8 966//8
f 967//7 968//7 969//7
f 970//7 969//7 968//7
f 973//6 974//6 975//6
f 974//6 973//6 976//6
f 977//5 978//5 979//5
f 980//5 979//5 978//5
f 983//4 984//4 985//4
f 984//4 983//4 986//4
f 987//3 988//3 989//3
f 990//3 989//3 988//3
f 993//2 994//2 995//2
f 994//2 993//2 996//2
f 997//1 998//1 999//1
f 1000//1 999//1 998//1
usemtl material_1_0
