# SSTK version 0.8.0
# 133
mtllib original-133.mtl
o #ID155
v -0.051250 0.464077 0.454438
v -0.050389 0.471270 0.454438
v -0.050391 0.472716 0.454438
v -0.050115 0.462760 0.454438
v -0.050196 0.469862 0.454438
v -0.049817 0.468514 0.454438
v -0.049724 0.462369 0.454438
v -0.049257 0.467251 0.454438
v -0.048594 0.461431 0.454438
v -0.048526 0.466093 0.454438
v -0.047042 0.460451 0.454438
v -0.047636 0.465061 0.454438
v -0.047445 0.464870 0.454438
v -0.046604 0.464172 0.454438
v -0.045332 0.459693 0.454438
v -0.045446 0.463441 0.454438
v -0.044183 0.462881 0.454438
v -0.043526 0.459184 0.454438
v -0.042835 0.462501 0.454438
v -0.041660 0.458929 0.454438
v -0.041427 0.462308 0.454438
v -0.039768 0.458926 0.454438
v -0.039982 0.462306 0.454438
v -0.038524 0.462494 0.454438
v -0.037881 0.459169 0.454438
v -0.037079 0.462868 0.454438
v -0.036031 0.459649 0.454438
v -0.035672 0.463424 0.454438
v -0.034244 0.460354 0.454438
v -0.034327 0.464150 0.454438
v -0.033066 0.465036 0.454438
v -0.032547 0.461271 0.454438
v -0.031911 0.466065 0.454438
v -0.030964 0.462382 0.454438
v -0.012792 0.485184 0.454438
v -0.029590 0.463606 0.454438
v -0.010333 0.482863 0.454438
v -0.011763 0.486338 0.454438
v -0.010878 0.487599 0.454438
v -0.010151 0.488945 0.454438
v -0.009109 0.484236 0.454438
v -0.009596 0.490352 0.454438
v -0.009221 0.491797 0.454438
v -0.009033 0.493254 0.454438
v -0.007998 0.485819 0.454438
v -0.008158 0.501866 0.454438
v -0.007178 0.500314 0.454438
v -0.007082 0.487516 0.454438
v -0.006420 0.498604 0.454438
v -0.006376 0.489303 0.454438
v -0.005912 0.496799 0.454438
v -0.005896 0.491154 0.454438
v -0.005656 0.494933 0.454438
v -0.005653 0.493040 0.454438
v -0.053768 0.471037 0.454438
v -0.053529 0.474816 0.454438
v -0.053772 0.472930 0.454438
v -0.053513 0.469171 0.454438
v -0.053048 0.476667 0.454438
v -0.053004 0.467366 0.454438
v -0.052343 0.478453 0.454438
v -0.052246 0.465656 0.454438
v -0.051427 0.480151 0.454438
v -0.050315 0.481734 0.454438
v -0.050204 0.474173 0.454438
v -0.049091 0.483107 0.454438
v -0.049829 0.475618 0.454438
v -0.049273 0.477025 0.454438
v -0.048547 0.478371 0.454438
v -0.047662 0.479631 0.454438
v -0.029835 0.502364 0.454438
v -0.046633 0.480786 0.454438
v -0.027514 0.499905 0.454438
v -0.028461 0.503588 0.454438
v -0.026878 0.504699 0.454438
v -0.026359 0.500934 0.454438
v -0.025181 0.505616 0.454438
v -0.025098 0.501819 0.454438
v -0.023394 0.506321 0.454438
v -0.025011 0.501866 0.454438
v -0.023752 0.502546 0.454438
v -0.022345 0.503101 0.454438
v -0.021543 0.506801 0.454438
v -0.020900 0.503476 0.454438
v -0.019657 0.507044 0.454438
v -0.019443 0.503664 0.454438
v -0.017765 0.507041 0.454438
v -0.017998 0.503662 0.454438
v -0.016589 0.503469 0.454438
v -0.015899 0.506786 0.454438
v -0.015242 0.503089 0.454438
v -0.014093 0.506277 0.454438
v -0.013978 0.502529 0.454438
v -0.012383 0.505519 0.454438
v -0.012928 0.501866 0.454438
v -0.012821 0.501798 0.454438
v -0.011788 0.500909 0.454438
v -0.010805 0.504523 0.454438
v -0.011597 0.500718 0.454438
v -0.010899 0.499877 0.454438
v -0.010168 0.498719 0.454438
v -0.009487 0.503388 0.454438
v -0.009608 0.497455 0.454438
v -0.009228 0.496108 0.454438
v -0.009096 0.502997 0.454438
v -0.009036 0.494700 0.454438
v -0.009033 0.493254 0.454438
v -0.009036 0.494700 0.454438
v -0.008158 0.501866 0.454438
v -0.009096 0.502997 0.454438
v -0.009228 0.496108 0.454438
v -0.009487 0.503388 0.454438
v -0.009608 0.497455 0.454438
v -0.010168 0.498719 0.454438
v -0.010805 0.504523 0.454438
v -0.010899 0.499877 0.454438
v -0.011597 0.500718 0.454438
v -0.011788 0.500909 0.454438
v -0.012383 0.505519 0.454438
v -0.012821 0.501798 0.454438
v -0.012928 0.501866 0.454438
v -0.013978 0.502529 0.454438
v -0.014093 0.506277 0.454438
v -0.015242 0.503089 0.454438
v -0.015899 0.506786 0.454438
v -0.016589 0.503469 0.454438
v -0.017765 0.507041 0.454438
v -0.017998 0.503662 0.454438
v -0.019443 0.503664 0.454438
v -0.019657 0.507044 0.454438
v -0.020900 0.503476 0.454438
v -0.021543 0.506801 0.454438
v -0.022345 0.503101 0.454438
v -0.023394 0.506321 0.454438
v -0.023752 0.502546 0.454438
v -0.025011 0.501866 0.454438
v -0.025098 0.501819 0.454438
v -0.025181 0.505616 0.454438
v -0.026359 0.500934 0.454438
v -0.026878 0.504699 0.454438
v -0.027514 0.499905 0.454438
v -0.028461 0.503588 0.454438
v -0.029835 0.502364 0.454438
v -0.046633 0.480786 0.454438
v -0.047662 0.479631 0.454438
v -0.049091 0.483107 0.454438
v -0.048547 0.478371 0.454438
v -0.049273 0.477025 0.454438
v -0.049829 0.475618 0.454438
v -0.050204 0.474173 0.454438
v -0.050315 0.481734 0.454438
v -0.050391 0.472716 0.454438
v -0.051250 0.464077 0.454438
v -0.051427 0.480151 0.454438
v -0.052246 0.465656 0.454438
v -0.052343 0.478453 0.454438
v -0.053004 0.467366 0.454438
v -0.053048 0.476667 0.454438
v -0.053513 0.469171 0.454438
v -0.053529 0.474816 0.454438
v -0.053768 0.471037 0.454438
v -0.053772 0.472930 0.454438
v -0.005653 0.493040 0.454438
v -0.005896 0.491154 0.454438
v -0.005656 0.494933 0.454438
v -0.005912 0.496799 0.454438
v -0.006376 0.489303 0.454438
v -0.006420 0.498604 0.454438
v -0.007082 0.487516 0.454438
v -0.007178 0.500314 0.454438
v -0.007998 0.485819 0.454438
v -0.009109 0.484236 0.454438
v -0.009221 0.491797 0.454438
v -0.009596 0.490352 0.454438
v -0.010151 0.488945 0.454438
v -0.010333 0.482863 0.454438
v -0.010878 0.487599 0.454438
v -0.011763 0.486338 0.454438
v -0.012792 0.485184 0.454438
v -0.029590 0.463606 0.454438
v -0.030964 0.462382 0.454438
v -0.031911 0.466065 0.454438
v -0.032547 0.461271 0.454438
v -0.033066 0.465036 0.454438
v -0.034244 0.460354 0.454438
v -0.034327 0.464150 0.454438
v -0.035672 0.463424 0.454438
v -0.036031 0.459649 0.454438
v -0.037079 0.462868 0.454438
v -0.037881 0.459169 0.454438
v -0.038524 0.462494 0.454438
v -0.039768 0.458926 0.454438
v -0.039982 0.462306 0.454438
v -0.041427 0.462308 0.454438
v -0.041660 0.458929 0.454438
v -0.042835 0.462501 0.454438
v -0.043526 0.459184 0.454438
v -0.044183 0.462881 0.454438
v -0.045332 0.459693 0.454438
v -0.045446 0.463441 0.454438
v -0.046604 0.464172 0.454438
v -0.047042 0.460451 0.454438
v -0.047445 0.464870 0.454438
v -0.047636 0.465061 0.454438
v -0.048526 0.466093 0.454438
v -0.048594 0.461431 0.454438
v -0.049257 0.467251 0.454438
v -0.049724 0.462369 0.454438
v -0.049817 0.468514 0.454438
v -0.050115 0.462760 0.454438
v -0.050196 0.469862 0.454438
v -0.050389 0.471270 0.454438
v -0.049091 0.483107 0.454438
v -0.050315 0.481734 0.454438
v -0.051427 0.480151 0.454438
v -0.052343 0.478453 0.454438
v -0.053048 0.476667 0.454438
v -0.053529 0.474816 0.454438
v -0.053772 0.472930 0.454438
v -0.053768 0.471037 0.454438
v -0.053513 0.469171 0.454438
v -0.053004 0.467366 0.454438
v -0.052246 0.465656 0.454438
v -0.051250 0.464077 0.454438
v -0.050115 0.462760 0.454438
v -0.049724 0.462369 0.454438
v -0.048594 0.461431 0.454438
v -0.047042 0.460451 0.454438
v -0.045332 0.459693 0.454438
v -0.043526 0.459184 0.454438
v -0.041660 0.458929 0.454438
v -0.039768 0.458926 0.454438
v -0.037881 0.459169 0.454438
v -0.036031 0.459649 0.454438
v -0.034244 0.460354 0.454438
v -0.032547 0.461271 0.454438
v -0.030964 0.462382 0.454438
v -0.029590 0.463606 0.454438
v -0.010333 0.482863 0.454438
v -0.009109 0.484236 0.454438
v -0.007998 0.485819 0.454438
v -0.007082 0.487516 0.454438
v -0.006376 0.489303 0.454438
v -0.005896 0.491154 0.454438
v -0.005653 0.493040 0.454438
v -0.005656 0.494933 0.454438
v -0.005912 0.496799 0.454438
v -0.006420 0.498604 0.454438
v -0.007178 0.500314 0.454438
v -0.008158 0.501866 0.454438
v -0.009096 0.502997 0.454438
v -0.009487 0.503388 0.454438
v -0.010805 0.504523 0.454438
v -0.012383 0.505519 0.454438
v -0.014093 0.506277 0.454438
v -0.015899 0.506786 0.454438
v -0.017765 0.507041 0.454438
v -0.019657 0.507044 0.454438
v -0.021543 0.506801 0.454438
v -0.023394 0.506321 0.454438
v -0.025181 0.505616 0.454438
v -0.026878 0.504699 0.454438
v -0.028461 0.503588 0.454438
v -0.029835 0.502364 0.454438
v -0.025011 0.501866 0.454438
v -0.023752 0.502546 0.454438
v -0.022345 0.503101 0.454438
v -0.020900 0.503476 0.454438
v -0.019443 0.503664 0.454438
v -0.017998 0.503662 0.454438
v -0.016589 0.503469 0.454438
v -0.015242 0.503089 0.454438
v -0.013978 0.502529 0.454438
v -0.012928 0.501866 0.454438
v -0.012821 0.501798 0.454438
v -0.011788 0.500909 0.454438
v -0.011597 0.500718 0.454438
v -0.010899 0.499877 0.454438
v -0.010168 0.498719 0.454438
v -0.009608 0.497455 0.454438
v -0.009228 0.496108 0.454438
v -0.009036 0.494700 0.454438
v -0.009033 0.493254 0.454438
v -0.009221 0.491797 0.454438
v -0.009596 0.490352 0.454438
v -0.010151 0.488945 0.454438
v -0.010878 0.487599 0.454438
v -0.011763 0.486338 0.454438
v -0.012792 0.485184 0.454438
v -0.031911 0.466065 0.454438
v -0.033066 0.465036 0.454438
v -0.034327 0.464150 0.454438
v -0.035672 0.463424 0.454438
v -0.037079 0.462868 0.454438
v -0.038524 0.462494 0.454438
v -0.039982 0.462306 0.454438
v -0.041427 0.462308 0.454438
v -0.042835 0.462501 0.454438
v -0.044183 0.462881 0.454438
v -0.045446 0.463441 0.454438
v -0.046604 0.464172 0.454438
v -0.047445 0.464870 0.454438
v -0.047636 0.465061 0.454438
v -0.048526 0.466093 0.454438
v -0.049257 0.467251 0.454438
v -0.049817 0.468514 0.454438
v -0.050196 0.469862 0.454438
v -0.050389 0.471270 0.454438
v -0.050391 0.472716 0.454438
v -0.050204 0.474173 0.454438
v -0.049829 0.475618 0.454438
v -0.049273 0.477025 0.454438
v -0.048547 0.478371 0.454438
v -0.047662 0.479631 0.454438
v -0.046633 0.480786 0.454438
v -0.027514 0.499905 0.454438
v -0.026359 0.500934 0.454438
v -0.025098 0.501819 0.454438
v -0.048594 0.461431 0.454438
v -0.049724 0.462369 0.452748
v -0.048594 0.461431 0.452748
v -0.049724 0.462369 0.454438
v -0.049724 0.462369 0.454438
v -0.048594 0.461431 0.454438
v -0.049724 0.462369 0.452748
v -0.048594 0.461431 0.452748
v -0.049724 0.462369 0.452748
v -0.048594 0.461431 0.452748
v -0.047042 0.460451 0.454438
v -0.047042 0.460451 0.452748
v -0.047042 0.460451 0.454438
v -0.047042 0.460451 0.452748
v -0.047042 0.460451 0.452748
v -0.045332 0.459693 0.452748
v -0.045332 0.459693 0.454438
v -0.045332 0.459693 0.454438
v -0.045332 0.459693 0.452748
v -0.045332 0.459693 0.452748
v -0.043526 0.459184 0.452748
v -0.043526 0.459184 0.454438
v -0.043526 0.459184 0.454438
v -0.043526 0.459184 0.452748
v -0.043526 0.459184 0.452748
v -0.041660 0.458929 0.452748
v -0.041660 0.458929 0.454438
v -0.041660 0.458929 0.454438
v -0.041660 0.458929 0.452748
v -0.041660 0.458929 0.452748
v -0.039768 0.458926 0.454438
v -0.039768 0.458926 0.452748
v -0.039768 0.458926 0.454438
v -0.039768 0.458926 0.452748
v -0.039768 0.458926 0.452748
v -0.037881 0.459169 0.454438
v -0.037881 0.459169 0.452748
v -0.037881 0.459169 0.454438
v -0.037881 0.459169 0.452748
v -0.037881 0.459169 0.452748
v -0.036031 0.459649 0.452748
v -0.036031 0.459649 0.454438
v -0.036031 0.459649 0.454438
v -0.036031 0.459649 0.452748
v -0.036031 0.459649 0.452748
v -0.034244 0.460354 0.454438
v -0.034244 0.460354 0.452748
v -0.034244 0.460354 0.454438
v -0.034244 0.460354 0.452748
v -0.034244 0.460354 0.452748
v -0.032547 0.461271 0.454438
v -0.032547 0.461271 0.452748
v -0.032547 0.461271 0.454438
v -0.032547 0.461271 0.452748
v -0.032547 0.461271 0.452748
v -0.030964 0.462382 0.452748
v -0.030964 0.462382 0.454438
v -0.030964 0.462382 0.454438
v -0.030964 0.462382 0.452748
v -0.030964 0.462382 0.452748
v -0.029590 0.463606 0.452748
v -0.029590 0.463606 0.454438
v -0.029590 0.463606 0.454438
v -0.029590 0.463606 0.452748
v -0.029590 0.463606 0.452748
v -0.010333 0.482863 0.452748
v -0.029590 0.463606 0.454438
v -0.029590 0.463606 0.452748
v -0.010333 0.482863 0.454438
v -0.010333 0.482863 0.454438
v -0.010333 0.482863 0.452748
v -0.029590 0.463606 0.454438
v -0.029590 0.463606 0.452748
v -0.010333 0.482863 0.452748
v -0.009109 0.484236 0.452748
v -0.010333 0.482863 0.454438
v -0.010333 0.482863 0.452748
v -0.009109 0.484236 0.454438
v -0.009109 0.484236 0.454438
v -0.009109 0.484236 0.452748
v -0.010333 0.482863 0.454438
v -0.010333 0.482863 0.452748
v -0.009109 0.484236 0.452748
v -0.007998 0.485819 0.452748
v -0.007998 0.485819 0.454438
v -0.007998 0.485819 0.454438
v -0.007998 0.485819 0.452748
v -0.007998 0.485819 0.452748
v -0.007082 0.487516 0.452748
v -0.007082 0.487516 0.454438
v -0.007082 0.487516 0.454438
v -0.007082 0.487516 0.452748
v -0.007082 0.487516 0.452748
v -0.006376 0.489303 0.452748
v -0.006376 0.489303 0.454438
v -0.006376 0.489303 0.454438
v -0.006376 0.489303 0.452748
v -0.006376 0.489303 0.452748
v -0.005896 0.491154 0.452748
v -0.005896 0.491154 0.454438
v -0.005896 0.491154 0.454438
v -0.005896 0.491154 0.452748
v -0.005896 0.491154 0.452748
v -0.005653 0.493040 0.452748
v -0.005653 0.493040 0.454438
v -0.005653 0.493040 0.454438
v -0.005653 0.493040 0.452748
v -0.005653 0.493040 0.452748
v -0.005656 0.494933 0.452748
v -0.005656 0.494933 0.454438
v -0.005656 0.494933 0.454438
v -0.005656 0.494933 0.452748
v -0.005656 0.494933 0.452748
v -0.005912 0.496799 0.452748
v -0.005912 0.496799 0.454438
v -0.005912 0.496799 0.454438
v -0.005912 0.496799 0.452748
v -0.005912 0.496799 0.452748
v -0.006420 0.498604 0.452748
v -0.006420 0.498604 0.454438
v -0.006420 0.498604 0.454438
v -0.006420 0.498604 0.452748
v -0.006420 0.498604 0.452748
v -0.007178 0.500314 0.452748
v -0.007178 0.500314 0.454438
v -0.007178 0.500314 0.454438
v -0.007178 0.500314 0.452748
v -0.007178 0.500314 0.452748
v -0.008158 0.501866 0.452748
v -0.008158 0.501866 0.454438
v -0.008158 0.501866 0.454438
v -0.008158 0.501866 0.452748
v -0.008158 0.501866 0.452748
v -0.010805 0.504523 0.454438
v -0.009487 0.503388 0.452748
v -0.010805 0.504523 0.452748
v -0.009487 0.503388 0.454438
v -0.009487 0.503388 0.454438
v -0.010805 0.504523 0.454438
v -0.009487 0.503388 0.452748
v -0.010805 0.504523 0.452748
v -0.009487 0.503388 0.452748
v -0.010805 0.504523 0.452748
v -0.012383 0.505519 0.452748
v -0.012383 0.505519 0.454438
v -0.012383 0.505519 0.454438
v -0.012383 0.505519 0.452748
v -0.012383 0.505519 0.452748
v -0.014093 0.506277 0.452748
v -0.014093 0.506277 0.454438
v -0.014093 0.506277 0.454438
v -0.014093 0.506277 0.452748
v -0.014093 0.506277 0.452748
v -0.015899 0.506786 0.454438
v -0.015899 0.506786 0.452748
v -0.015899 0.506786 0.454438
v -0.015899 0.506786 0.452748
v -0.015899 0.506786 0.452748
v -0.017765 0.507041 0.452748
v -0.017765 0.507041 0.454438
v -0.017765 0.507041 0.454438
v -0.017765 0.507041 0.452748
v -0.017765 0.507041 0.452748
v -0.019657 0.507044 0.452748
v -0.019657 0.507044 0.454438
v -0.019657 0.507044 0.454438
v -0.019657 0.507044 0.452748
v -0.019657 0.507044 0.452748
v -0.021543 0.506801 0.454438
v -0.021543 0.506801 0.452748
v -0.021543 0.506801 0.454438
v -0.021543 0.506801 0.452748
v -0.021543 0.506801 0.452748
v -0.023394 0.506321 0.454438
v -0.023394 0.506321 0.452748
v -0.023394 0.506321 0.454438
v -0.023394 0.506321 0.452748
v -0.023394 0.506321 0.452748
v -0.025181 0.505616 0.452748
v -0.025181 0.505616 0.454438
v -0.025181 0.505616 0.454438
v -0.025181 0.505616 0.452748
v -0.025181 0.505616 0.452748
v -0.026878 0.504699 0.454438
v -0.026878 0.504699 0.452748
v -0.026878 0.504699 0.454438
v -0.026878 0.504699 0.452748
v -0.026878 0.504699 0.452748
v -0.028461 0.503588 0.452748
v -0.028461 0.503588 0.454438
v -0.028461 0.503588 0.454438
v -0.028461 0.503588 0.452748
v -0.028461 0.503588 0.452748
v -0.029835 0.502364 0.454438
v -0.029835 0.502364 0.452748
v -0.029835 0.502364 0.454438
v -0.029835 0.502364 0.452748
v -0.029835 0.502364 0.452748
v -0.029835 0.502364 0.454438
v -0.049091 0.483107 0.452748
v -0.049091 0.483107 0.454438
v -0.029835 0.502364 0.452748
v -0.029835 0.502364 0.452748
v -0.029835 0.502364 0.454438
v -0.049091 0.483107 0.452748
v -0.049091 0.483107 0.454438
v -0.049091 0.483107 0.452748
vn 0 0 1
vn -0.5874374045811541 -0.8092696063111214 0
vn -0.6386018863419343 -0.7695372835415601 0
vn -0.4707754755526632 -0.8822530541846619 0
vn -0.33906849595166794 -0.9407616887677099 0
vn -0.20385430762110054 -0.9790012365999962 0
vn -0.06879378011001852 -0.9976309015954622 0
vn 0.06316172032578032 -0.9980033051475772 0
vn 0.18983070726816897 -0.9818168375914456 0
vn 0.3097248132652849 -0.9508262407231851 0
vn 0.42189662056772026 -0.9066439441994509 0
vn 0.5257644877464567 -0.8506301801750898 0
vn 0.6209446873148919 -0.7838543839868546 0
vn 0.6652165129642384 -0.7466505145512854 0
vn 0.7071067811865476 -0.7071067811865476 0
vn 0.7838543839868546 -0.6209446873148919 0
vn 0.7466505145512854 -0.6652165129642384 0
vn 0.8506301801750898 -0.5257644877464567 0
vn 0.9066439441994509 -0.42189662056772026 0
vn 0.9508262407231851 -0.3097248132652849 0
vn 0.9818168375914456 -0.18983070726816897 0
vn 0.9980033051475772 -0.06316172032578032 0
vn 0.9976309015954622 0.06879378011001852 0
vn 0.9790012365999962 0.20385430762110054 0
vn 0.9407616887677099 0.33906849595166794 0
vn 0.8822530541846619 0.4707754755526632 0
vn 0.8456059005521385 0.5338077003485499 0
vn 0.5948473101317429 0.8038387136913911 0
vn 0.6526328846491284 0.7576742821784025 0
vn 0.4707754755526632 0.8822530541846619 0
vn 0.33906849595166794 0.9407616887677099 0
vn 0.20385430762110054 0.9790012365999962 0
vn 0.06879378011001852 0.9976309015954622 0
vn -0.06316172032578032 0.9980033051475772 0
vn -0.18983070726816897 0.9818168375914456 0
vn -0.3097248132652849 0.9508262407231851 0
vn -0.42189662056772026 0.9066439441994509 0
vn -0.5257644877464567 0.8506301801750898 0
vn -0.6209446873148919 0.7838543839868546 0
vn -0.6652165129642384 0.7466505145512854 0
vn -0.7071067811865476 0.7071067811865476 0
vn 0 0 -1
vn 0.6386018863419343 0.7695372835415601 0
vn 0.5874374045811541 0.8092696063111214 0
vn -0.7838543839868546 0.6209446873148919 0
vn -0.7466505145512854 0.6652165129642384 0
vn -0.8506301801750898 0.5257644877464567 0
vn -0.9066439441994509 0.42189662056772026 0
vn -0.9508262407231851 0.3097248132652849 0
vn -0.9818168375914456 0.18983070726816897 0
vn -0.9980033051475772 0.06316172032578032 0
vn -0.9976309015954622 -0.06879378011001852 0
vn -0.9790012365999962 -0.20385430762110054 0
vn -0.9407616887677099 -0.33906849595166794 0
vn -0.8822530541846619 -0.4707754755526632 0
vn -0.8456059005521385 -0.5338077003485499 0
vn -0.6526328846491284 -0.7576742821784025 0
vn -0.5948473101317429 -0.8038387136913911 0
usemtl material_0_0
f 107//42 108//42 109//42
f 109//42 108//42 110//42
f 108//42 111//42 110//42
f 110//42 111//42 112//42
f 111//42 113//42 112//42
f 113//42 114//42 112//42
f 112//42 114//42 115//42
f 114//42 116//42 115//42
f 116//42 117//42 115//42
f 117//42 118//42 115//42
f 115//42 118//42 119//42
f 118//42 120//42 119//42
f 120//42 121//42 119//42
f 121//42 122//42 119//42
f 119//42 122//42 123//42
f 122//42 124//42 123//42
f 123//42 124//42 125//42
f 124//42 126//42 125//42
f 125//42 126//42 127//42
f 126//42 128//42 127//42
f 128//42 129//42 127//42
f 127//42 129//42 130//42
f 129//42 131//42 130//42
f 130//42 131//42 132//42
f 131//42 133//42 132//42
f 132//42 133//42 134//42
f 133//42 135//42 134//42
f 135//42 136//42 134//42
f 136//42 137//42 134//42
f 134//42 137//42 138//42
f 137//42 139//42 138//42
f 138//42 139//42 140//42
f 139//42 141//42 140//42
f 140//42 141//42 142//42
f 142//42 141//42 143//42
f 141//42 144//42 143//42
f 144//42 145//42 143//42
f 143//42 145//42 146//42
f 145//42 147//42 146//42
f 147//42 148//42 146//42
f 148//42 149//42 146//42
f 149//42 150//42 146//42
f 146//42 150//42 151//42
f 150//42 152//42 151//42
f 152//42 153//42 151//42
f 151//42 153//42 154//42
f 153//42 155//42 154//42
f 154//42 155//42 156//42
f 155//42 157//42 156//42
f 156//42 157//42 158//42
f 157//42 159//42 158//42
f 158//42 159//42 160//42
f 159//42 161//42 160//42
f 162//42 160//42 161//42
f 163//42 164//42 165//42
f 165//42 164//42 166//42
f 164//42 167//42 166//42
f 166//42 167//42 168//42
f 167//42 169//42 168//42
f 168//42 169//42 170//42
f 169//42 171//42 170//42
f 170//42 171//42 109//42
f 109//42 171//42 107//42
f 171//42 172//42 107//42
f 107//42 172//42 173//42
f 173//42 172//42 174//42
f 174//42 172//42 175//42
f 172//42 176//42 175//42
f 175//42 176//42 177//42
f 177//42 176//42 178//42
f 178//42 176//42 179//42
f 176//42 180//42 179//42
f 180//42 181//42 179//42
f 179//42 181//42 182//42
f 181//42 183//42 182//42
f 182//42 183//42 184//42
f 183//42 185//42 184//42
f 184//42 185//42 186//42
f 186//42 185//42 187//42
f 185//42 188//42 187//42
f 187//42 188//42 189//42
f 188//42 190//42 189//42
f 189//42 190//42 191//42
f 190//42 192//42 191//42
f 191//42 192//42 193//42
f 193//42 192//42 194//42
f 192//42 195//42 194//42
f 194//42 195//42 196//42
f 195//42 197//42 196//42
f 196//42 197//42 198//42
f 197//42 199//42 198//42
f 198//42 199//42 200//42
f 200//42 199//42 201//42
f 199//42 202//42 201//42
f 201//42 202//42 203//42
f 203//42 202//42 204//42
f 204//42 202//42 205//42
f 202//42 206//42 205//42
f 205//42 206//42 207//42
f 206//42 208//42 207//42
f 207//42 208//42 209//42
f 208//42 210//42 209//42
f 209//42 210//42 211//42
f 211//42 210//42 212//42
f 210//42 153//42 212//42
f 152//42 212//42 153//42
f 323//43 324//44 325//43
f 326//44 325//43 324//44
f 324//44 331//30 326//44
f 332//30 326//44 331//30
f 336//31 337//31 331//30
f 332//30 331//30 337//31
f 341//32 342//32 336//31
f 337//31 336//31 342//32
f 346//33 347//33 341//32
f 342//32 341//32 347//33
f 346//33 351//34 347//33
f 352//34 347//33 351//34
f 351//34 356//35 352//34
f 357//35 352//34 356//35
f 361//36 362//36 356//35
f 357//35 356//35 362//36
f 361//36 366//37 362//36
f 367//37 362//36 366//37
f 366//37 371//38 367//37
f 372//38 367//37 371//38
f 376//39 377//39 371//38
f 372//38 371//38 377//39
f 381//40 382//40 376//39
f 377//39 376//39 382//40
f 388//41 389//41 390//41
f 391//41 390//41 389//41
f 397//45 398//45 399//46
f 400//46 399//46 398//45
f 404//47 405//47 397//45
f 398//45 397//45 405//47
f 409//48 410//48 404//47
f 405//47 404//47 410//48
f 414//49 415//49 409//48
f 410//48 409//48 415//49
f 419//50 420//50 414//49
f 415//49 414//49 420//50
f 424//51 425//51 419//50
f 420//50 419//50 425//51
f 429//52 430//52 424//51
f 425//51 424//51 430//52
f 434//53 435//53 429//52
f 430//52 429//52 435//53
f 439//54 440//54 434//53
f 435//53 434//53 440//54
f 444//55 445//55 439//54
f 440//54 439//54 445//55
f 449//56 450//56 444//55
f 445//55 444//55 450//56
f 456//57 457//58 458//57
f 459//58 458//57 457//58
f 464//4 465//4 457//58
f 459//58 457//58 465//4
f 469//5 470//5 464//4
f 465//4 464//4 470//5
f 469//5 474//6 470//5
f 475//6 470//5 474//6
f 479//7 480//7 474//6
f 475//6 474//6 480//7
f 484//8 485//8 479//7
f 480//7 479//7 485//8
f 484//8 489//9 485//8
f 490//9 485//8 489//9
f 489//9 494//10 490//9
f 495//10 490//9 494//10
f 499//11 500//11 494//10
f 495//10 494//10 500//11
f 499//11 504//12 500//11
f 505//12 500//11 504//12
f 509//13 510//13 504//12
f 505//12 504//12 510//13
f 509//13 514//14 510//13
f 515//14 510//13 514//14
f 521//15 522//15 523//15
f 524//15 523//15 522//15
usemtl material_1_0
f 1//1 2//1 3//1
f 2//1 1//1 4//1
f 2//1 4//1 5//1
f 5//1 4//1 6//1
f 6//1 4//1 7//1
f 6//1 7//1 8//1
f 8//1 7//1 9//1
f 8//1 9//1 10//1
f 10//1 9//1 11//1
f 10//1 11//1 12//1
f 12//1 11//1 13//1
f 13//1 11//1 14//1
f 14//1 11//1 15//1
f 14//1 15//1 16//1
f 16//1 15//1 17//1
f 17//1 15//1 18//1
f 17//1 18//1 19//1
f 19//1 18//1 20//1
f 19//1 20//1 21//1
f 21//1 20//1 22//1
f 21//1 22//1 23//1
f 23//1 22//1 24//1
f 24//1 22//1 25//1
f 24//1 25//1 26//1
f 26//1 25//1 27//1
f 26//1 27//1 28//1
f 28//1 27//1 29//1
f 28//1 29//1 30//1
f 30//1 29//1 31//1
f 31//1 29//1 32//1
f 31//1 32//1 33//1
f 33//1 32//1 34//1
f 33//1 34//1 35//1
f 35//1 34//1 36//1
f 35//1 36//1 37//1
f 35//1 37//1 38//1
f 38//1 37//1 39//1
f 39//1 37//1 40//1
f 40//1 37//1 41//1
f 40//1 41//1 42//1
f 42//1 41//1 43//1
f 43//1 41//1 44//1
f 44//1 41//1 45//1
f 44//1 45//1 46//1
f 46//1 45//1 47//1
f 47//1 45//1 48//1
f 47//1 48//1 49//1
f 49//1 48//1 50//1
f 49//1 50//1 51//1
f 51//1 50//1 52//1
f 51//1 52//1 53//1
f 53//1 52//1 54//1
f 55//1 56//1 57//1
f 56//1 55//1 58//1
f 56//1 58//1 59//1
f 59//1 58//1 60//1
f 59//1 60//1 61//1
f 61//1 60//1 62//1
f 61//1 62//1 63//1
f 63//1 62//1 1//1
f 63//1 1//1 64//1
f 64//1 1//1 3//1
f 64//1 3//1 65//1
f 64//1 65//1 66//1
f 66//1 65//1 67//1
f 66//1 67//1 68//1
f 66//1 68//1 69//1
f 66//1 69//1 70//1
f 66//1 70//1 71//1
f 71//1 70//1 72//1
f 71//1 72//1 73//1
f 71//1 73//1 74//1
f 74//1 73//1 75//1
f 75//1 73//1 76//1
f 75//1 76//1 77//1
f 77//1 76//1 78//1
f 77//1 78//1 79//1
f 79//1 78//1 80//1
f 79//1 80//1 81//1
f 79//1 81//1 82//1
f 79//1 82//1 83//1
f 83//1 82//1 84//1
f 83//1 84//1 85//1
f 85//1 84//1 86//1
f 85//1 86//1 87//1
f 87//1 86//1 88//1
f 87//1 88//1 89//1
f 87//1 89//1 90//1
f 90//1 89//1 91//1
f 90//1 91//1 92//1
f 92//1 91//1 93//1
f 92//1 93//1 94//1
f 94//1 93//1 95//1
f 94//1 95//1 96//1
f 94//1 96//1 97//1
f 94//1 97//1 98//1
f 98//1 97//1 99//1
f 98//1 99//1 100//1
f 98//1 100//1 101//1
f 98//1 101//1 102//1
f 102//1 101//1 103//1
f 102//1 103//1 104//1
f 102//1 104//1 105//1
f 105//1 104//1 106//1
f 105//1 106//1 46//1
f 46//1 106//1 44//1
f 319//2 320//3 321//2
f 320//3 319//2 322//3
f 329//4 321//2 330//4
f 321//2 329//4 319//2
f 334//5 329//4 330//4
f 329//4 334//5 335//5
f 339//6 335//5 334//5
f 335//5 339//6 340//6
f 344//7 340//6 339//6
f 340//6 344//7 345//7
f 349//8 344//7 350//8
f 344//7 349//8 345//7
f 354//9 350//8 355//9
f 350//8 354//9 349//8
f 359//10 354//9 355//9
f 354//9 359//10 360//10
f 364//11 359//10 365//11
f 359//10 364//11 360//10
f 369//12 365//11 370//12
f 365//11 369//12 364//11
f 374//13 369//12 370//12
f 369//12 374//13 375//13
f 379//14 375//13 374//13
f 375//13 379//14 380//14
f 384//15 385//15 386//15
f 385//15 384//15 387//15
f 393//16 394//17 395//17
f 394//17 393//16 396//16
f 402//18 396//16 393//16
f 396//16 402//18 403//18
f 407//19 403//18 402//18
f 403//18 407//19 408//19
f 412//20 408//19 407//19
f 408//19 412//20 413//20
f 417//21 413//20 412//20
f 413//20 417//21 418//21
f 422//22 418//21 417//21
f 418//21 422//22 423//22
f 427//23 423//22 422//22
f 423//22 427//23 428//23
f 432//24 428//23 427//23
f 428//23 432//24 433//24
f 437//25 433//24 432//24
f 433//24 437//25 438//25
f 442//26 438//25 437//25
f 438//25 442//26 443//26
f 447//27 443//26 442//26
f 443//26 447//27 448//27
f 452//28 453//29 454//28
f 453//29 452//28 455//29
f 462//30 452//28 454//28
f 452//28 462//30 463//30
f 467//31 463//30 462//30
f 463//30 467//31 468//31
f 472//32 467//31 473//32
f 467//31 472//32 468//31
f 477//33 472//32 473//32
f 472//32 477//33 478//33
f 482//34 478//33 477//33
f 478//33 482//34 483//34
f 487//35 482//34 488//35
f 482//34 487//35 483//34
f 492//36 488//35 493//36
f 488//35 492//36 487//35
f 497//37 492//36 493//36
f 492//36 497//37 498//37
f 502//38 497//37 503//38
f 497//37 502//38 498//37
f 507//39 502//38 503//38
f 502//38 507//39 508//39
f 512//40 507//39 513//40
f 507//39 512//40 508//39
f 517//41 518//41 519//41
f 518//41 517//41 520//41
usemtl material_2_0
