# SSTK version 0.8.0
# 156
mtllib original-156.mtl
o #ID334
v -0.430947 -0.058607 -0.189415
v -0.429112 -0.078011 0.317556
v -0.429112 -0.078011 -0.189415
v -0.430947 -0.058607 0.317556
v -0.430947 -0.058607 0.317556
v -0.430947 -0.058607 -0.189415
v -0.429112 -0.078011 0.317556
v -0.429112 -0.078011 -0.189415
v -0.429112 -0.078011 0.317556
v -0.430947 -0.058607 0.317556
v -0.429112 -0.078011 -0.189415
v -0.430947 -0.058607 -0.189415
v -0.424977 -0.104120 0.317556
v -0.424977 -0.104120 -0.189415
v -0.424977 -0.104120 0.317556
v -0.424977 -0.104120 -0.189415
v -0.424977 -0.104120 0.317556
v -0.424977 -0.104120 -0.189415
v -0.419211 -0.129918 0.317556
v -0.419211 -0.129918 -0.189415
v -0.419211 -0.129918 0.317556
v -0.419211 -0.129918 -0.189415
v -0.419211 -0.129918 0.317556
v -0.419211 -0.129918 -0.189415
v -0.411836 -0.155303 -0.189415
v -0.411836 -0.155303 0.317556
v -0.411836 -0.155303 -0.189415
v -0.411836 -0.155303 0.317556
v -0.411836 -0.155303 0.317556
v -0.411836 -0.155303 -0.189415
v -0.402881 -0.180174 -0.189415
v -0.402881 -0.180174 0.317556
v -0.402881 -0.180174 -0.189415
v -0.402881 -0.180174 0.317556
v -0.402881 -0.180174 0.317556
v -0.402881 -0.180174 -0.189415
v -0.392383 -0.204435 0.317556
v -0.392383 -0.204435 -0.189415
v -0.392383 -0.204435 0.317556
v -0.392383 -0.204435 -0.189415
v -0.392383 -0.204435 0.317556
v -0.392383 -0.204435 -0.189415
v -0.380382 -0.227988 -0.189415
v -0.380382 -0.227988 0.317556
v -0.380382 -0.227988 -0.189415
v -0.380382 -0.227988 0.317556
v -0.380382 -0.227988 0.317556
v -0.380382 -0.227988 -0.189415
v -0.366926 -0.250741 -0.189415
v -0.366926 -0.250741 0.317556
v -0.366926 -0.250741 -0.189415
v -0.366926 -0.250741 0.317556
v -0.366926 -0.250741 0.317556
v -0.366926 -0.250741 -0.189415
v -0.352068 -0.272604 -0.189415
v -0.352068 -0.272604 0.317556
v -0.352068 -0.272604 -0.189415
v -0.352068 -0.272604 0.317556
v -0.352068 -0.272604 0.317556
v -0.352068 -0.272604 -0.189415
v -0.335866 -0.293492 -0.189415
v -0.335866 -0.293492 0.317556
v -0.335866 -0.293492 -0.189415
v -0.335866 -0.293492 0.317556
v -0.335866 -0.293492 0.317556
v -0.335866 -0.293492 -0.189415
v -0.318384 -0.313320 0.317556
v -0.318384 -0.313320 -0.189415
v -0.318384 -0.313320 0.317556
v -0.318384 -0.313320 -0.189415
v -0.318384 -0.313320 0.317556
v -0.318384 -0.313320 -0.189415
v -0.299692 -0.332012 0.317556
v -0.299692 -0.332012 -0.189415
v -0.299692 -0.332012 0.317556
v -0.299692 -0.332012 -0.189415
v -0.299692 -0.332012 0.317556
v -0.299692 -0.332012 -0.189415
v -0.279864 -0.349493 -0.189415
v -0.279864 -0.349493 0.317556
v -0.279864 -0.349493 0.317556
v -0.279864 -0.349493 -0.189415
v -0.279864 -0.349493 0.317556
v -0.279864 -0.349493 -0.189415
v -0.258977 -0.365695 -0.189415
v -0.258977 -0.365695 0.317556
v -0.258977 -0.365695 0.317556
v -0.258977 -0.365695 -0.189415
v -0.258977 -0.365695 0.317556
v -0.258977 -0.365695 -0.189415
v -0.237113 -0.380554 -0.189415
v -0.237113 -0.380554 0.317556
v -0.237113 -0.380554 0.317556
v -0.237113 -0.380554 -0.189415
v -0.237113 -0.380554 0.317556
v -0.237113 -0.380554 -0.189415
v -0.214360 -0.394010 0.317556
v -0.214360 -0.394010 -0.189415
v -0.214360 -0.394010 0.317556
v -0.214360 -0.394010 -0.189415
v -0.214360 -0.394010 0.317556
v -0.214360 -0.394010 -0.189415
v -0.190807 -0.406011 -0.189415
v -0.190807 -0.406011 0.317556
v -0.190807 -0.406011 0.317556
v -0.190807 -0.406011 -0.189415
v -0.190807 -0.406011 0.317556
v -0.190807 -0.406011 -0.189415
v -0.166547 -0.416509 -0.189415
v -0.166547 -0.416509 0.317556
v -0.166547 -0.416509 0.317556
v -0.166547 -0.416509 -0.189415
v -0.166547 -0.416509 0.317556
v -0.166547 -0.416509 -0.189415
v -0.141675 -0.425463 -0.189415
v -0.141675 -0.425463 0.317556
v -0.141675 -0.425463 0.317556
v -0.141675 -0.425463 -0.189415
v -0.141675 -0.425463 0.317556
v -0.141675 -0.425463 -0.189415
v -0.116290 -0.432838 0.317556
v -0.116290 -0.432838 -0.189415
v -0.116290 -0.432838 0.317556
v -0.116290 -0.432838 -0.189415
v -0.116290 -0.432838 0.317556
v -0.116290 -0.432838 -0.189415
v -0.090493 -0.438605 -0.189415
v -0.090493 -0.438605 0.317556
v -0.090493 -0.438605 0.317556
v -0.090493 -0.438605 -0.189415
v -0.090493 -0.438605 0.317556
v -0.090493 -0.438605 -0.189415
v -0.064384 -0.442740 0.317556
v -0.064384 -0.442740 -0.189415
v -0.064384 -0.442740 0.317556
v -0.064384 -0.442740 -0.189415
v -0.064384 -0.442740 0.317556
v -0.064384 -0.442740 -0.189415
v -0.044980 -0.444574 -0.189415
v -0.044980 -0.444574 0.317556
v -0.044980 -0.444574 0.317556
v -0.044980 -0.444574 -0.189415
v -0.044980 -0.444574 0.317556
v -0.044980 -0.444574 -0.189415
vt -7.000769 1.602037
vt -8.500769 1.54437
vt -7.000769 1.54437
vt -8.500769 1.602037
vt -7.000769 1.263557
vt -8.500769 1.185344
vt -7.000769 1.185344
vt -8.500769 1.263557
vt -7.000769 0.8996995
vt -8.500769 0.8214869
vt -7.000769 0.8214869
vt -8.500769 0.8996995
vt -7.000769 0.454233
vt -8.500769 0.5324456
vt -8.500769 0.454233
vt -7.000769 0.5324456
vt -7.000769 0.08503211
vt -8.500769 0.1632447
vt -8.500769 0.08503211
vt -7.000769 0.1632447
vt -7.000769 -0.2064461
vt -8.500769 -0.2846587
vt -7.000769 -0.2846587
vt -8.500769 -0.2064461
vt -7.000769 -0.6533804
vt -8.500769 -0.5751678
vt -8.500769 -0.6533804
vt -7.000769 -0.5751678
vt -7.000769 -1.019678
vt -8.500769 -0.9414652
vt -8.500769 -1.019678
vt -7.000769 -0.9414652
vt -7.000769 -1.382105
vt -8.500769 -1.303893
vt -8.500769 -1.382105
vt -7.000769 -1.303893
vt -7.000769 -1.739233
vt -8.500769 -1.66102
vt -8.500769 -1.739233
vt -7.000769 -1.66102
vt -7.000769 -2.011438
vt -8.500769 -2.089651
vt -7.000769 -2.089651
vt -8.500769 -2.011438
vt -7.000769 -2.353763
vt -8.500769 -2.431976
vt -7.000769 -2.431976
vt -8.500769 -2.353763
vt -8.500769 -2.686645
vt -7.000769 -2.764857
vt -7.000769 -2.686645
vt -8.500769 -2.764857
vt -8.500769 -3.008769
vt -7.000769 -3.086982
vt -7.000769 -3.008769
vt -8.500769 -3.086982
vt -8.500769 -3.318865
vt -7.000769 -3.397078
vt -7.000769 -3.318865
vt -8.500769 -3.397078
vt -7.000769 -3.615708
vt -8.500769 -3.693921
vt -7.000769 -3.693921
vt -8.500769 -3.615708
vt -8.500769 -3.898128
vt -7.000769 -3.976341
vt -7.000769 -3.898128
vt -8.500769 -3.976341
vt -8.500769 -4.165009
vt -7.000769 -4.243222
vt -7.000769 -4.165009
vt -8.500769 -4.243222
vt -8.500769 -4.415298
vt -7.000769 -4.493511
vt -7.000769 -4.415298
vt -8.500769 -4.493511
vt -7.000769 -4.648008
vt -8.500769 -4.726221
vt -7.000769 -4.726221
vt -8.500769 -4.648008
vt -8.500769 -4.86222
vt -7.000769 -4.940433
vt -7.000769 -4.86222
vt -8.500769 -4.940433
vt -7.000769 -5.057089
vt -8.500769 -5.135301
vt -7.000769 -5.135301
vt -8.500769 -5.057089
vt -8.500769 -5.231845
vt -7.000769 -5.289513
vt -7.000769 -5.231845
vt -8.500769 -5.289513
vn 0.9955619652274822 0.09410830671302954 0
vn 0.9921147054673806 0.1253332006906906 0
vn 0.9822872551433722 0.18738129144314172 0
vn 0.9685831604410063 0.24868988984297663 0
vn 0.9510565130859434 0.3090170042518809 0
vn 0.9297764716058311 0.368124588757952 0
vn 0.9048270578337482 0.42577928015806865 0
vn 0.8763066737420931 0.4817536855645931 0
vn 0.8443279159085524 0.5358268100958747 0
vn 0.8090169736320784 0.5877852808425821 0
vn 0.7705132203607198 0.6374240168438534 0
vn 0.7289686175301027 0.6845471164618626 0
vn 0.6845471164618626 0.7289686175301027 0
vn 0.6374240168438534 0.7705132203607198 0
vn 0.5877852808425821 0.8090169736320784 0
vn 0.5358268100958747 0.8443279159085524 0
vn 0.4817536855645931 0.8763066737420931 0
vn 0.42577928015806865 0.9048270578337482 0
vn 0.368124588757952 0.9297764716058311 0
vn 0.3090170042518809 0.9510565130859434 0
vn 0.24868988984297663 0.9685831604410063 0
vn 0.18738129144314172 0.9822872551433722 0
vn 0.1253332006906906 0.9921147054673806 0
vn 0.09410830671302954 0.9955619652274822 0
vn -0.9955619652274822 -0.09410830671302954 0
vn -0.9921147054673806 -0.1253332006906906 0
vn -0.9822872551433722 -0.18738129144314172 0
vn -0.9685831604410063 -0.24868988984297663 0
vn -0.9510565130859434 -0.3090170042518809 0
vn -0.9297764716058311 -0.368124588757952 0
vn -0.9048270578337482 -0.42577928015806865 0
vn -0.8763066737420931 -0.4817536855645931 0
vn -0.8443279159085524 -0.5358268100958747 0
vn -0.8090169736320784 -0.5877852808425821 0
vn -0.7705132203607198 -0.6374240168438534 0
vn -0.7289686175301027 -0.6845471164618626 0
vn -0.6845471164618626 -0.7289686175301027 0
vn -0.6374240168438534 -0.7705132203607198 0
vn -0.5877852808425821 -0.8090169736320784 0
vn -0.5358268100958747 -0.8443279159085524 0
vn -0.4817536855645931 -0.8763066737420931 0
vn -0.42577928015806865 -0.9048270578337482 0
vn -0.368124588757952 -0.9297764716058311 0
vn -0.3090170042518809 -0.9510565130859434 0
vn -0.24868988984297663 -0.9685831604410063 0
vn -0.18738129144314172 -0.9822872551433722 0
vn -0.1253332006906906 -0.9921147054673806 0
vn -0.09410830671302954 -0.9955619652274822 0
usemtl material_0_0
f 5//25 6//25 7//26
f 8//26 7//26 6//25
f 7//26 8//26 15//27
f 16//27 15//27 8//26
f 15//27 16//27 21//28
f 22//28 21//28 16//27
f 22//28 27//29 21//28
f 28//29 21//28 27//29
f 27//29 33//30 28//29
f 34//30 28//29 33//30
f 34//30 33//30 39//31
f 40//31 39//31 33//30
f 40//31 45//32 39//31
f 46//32 39//31 45//32
f 45//32 51//33 46//32
f 52//33 46//32 51//33
f 51//33 57//34 52//33
f 58//34 52//33 57//34
f 57//34 63//35 58//34
f 64//35 58//34 63//35
f 64//35 63//35 69//36
f 70//36 69//36 63//35
f 69//36 70//36 75//37
f 76//37 75//37 70//36
f 81//38 75//37 82//38
f 76//37 82//38 75//37
f 87//39 81//38 88//39
f 82//38 88//39 81//38
f 93//40 87//39 94//40
f 88//39 94//40 87//39
f 93//40 94//40 99//41
f 100//41 99//41 94//40
f 105//42 99//41 106//42
f 100//41 106//42 99//41
f 111//43 105//42 112//43
f 106//42 112//43 105//42
f 117//44 111//43 118//44
f 112//43 118//44 111//43
f 117//44 118//44 123//45
f 124//45 123//45 118//44
f 129//46 123//45 130//46
f 124//45 130//46 123//45
f 129//46 130//46 135//47
f 136//47 135//47 130//46
f 141//48 135//47 142//48
f 136//47 142//48 135//47
usemtl material_1_0
f 1/1/1 2/2/2 3/3/2
f 2/2/2 1/1/1 4/4/1
f 3/5/2 13/6/3 14/7/3
f 13/6/3 3/5/2 2/8/2
f 14/9/3 19/10/4 20/11/4
f 19/10/4 14/9/3 13/12/3
f 25/13/5 19/14/4 26/15/5
f 19/14/4 25/13/5 20/16/4
f 31/17/6 26/18/5 32/19/6
f 26/18/5 31/17/6 25/20/5
f 31/21/6 37/22/7 38/23/7
f 37/22/7 31/21/6 32/24/6
f 43/25/8 37/26/7 44/27/8
f 37/26/7 43/25/8 38/28/7
f 49/29/9 44/30/8 50/31/9
f 44/30/8 49/29/9 43/32/8
f 55/33/10 50/34/9 56/35/10
f 50/34/9 55/33/10 49/36/9
f 61/37/11 56/38/10 62/39/11
f 56/38/10 61/37/11 55/40/10
f 61/41/11 67/42/12 68/43/12
f 67/42/12 61/41/11 62/44/11
f 68/45/12 73/46/13 74/47/13
f 73/46/13 68/45/12 67/48/12
f 73/49/13 79/50/14 74/51/13
f 79/50/14 73/49/13 80/52/14
f 80/53/14 85/54/15 79/55/14
f 85/54/15 80/53/14 86/56/15
f 86/57/15 91/58/16 85/59/15
f 91/58/16 86/57/15 92/60/16
f 91/61/16 97/62/17 98/63/17
f 97/62/17 91/61/16 92/64/16
f 97/65/17 103/66/18 98/67/17
f 103/66/18 97/65/17 104/68/18
f 104/69/18 109/70/19 103/71/18
f 109/70/19 104/69/18 110/72/19
f 110/73/19 115/74/20 109/75/19
f 115/74/20 110/73/19 116/76/20
f 115/77/20 121/78/21 122/79/21
f 121/78/21 115/77/20 116/80/20
f 121/81/21 127/82/22 122/83/21
f 127/82/22 121/81/21 128/84/22
f 127/85/22 133/86/23 134/87/23
f 133/86/23 127/85/22 128/88/22
f 133/89/23 139/90/24 134/91/23
f 139/90/24 133/89/23 140/92/24
usemtl material_2_0
usemtl material_3_0
