# SSTK version 0.8.0
# 13
mtllib original-13.mtl
o #ID416
v 0.257967 0.538666 0.469647
v 0.255315 0.564065 0.456128
v 0.255315 0.538750 0.469647
v 0.259557 0.563931 0.456128
v 0.259557 0.563931 0.456128
v 0.257967 0.538666 0.469647
v 0.255315 0.564065 0.456128
v 0.255315 0.538750 0.469647
v 0.259557 0.563931 0.456128
v 0.257967 0.538666 0.469647
v 0.255315 0.564065 0.456128
v 0.255315 0.538750 0.469647
v 0.260609 0.538417 0.469647
v 0.263782 0.563532 0.456128
v 0.263782 0.563532 0.456128
v 0.260609 0.538417 0.469647
v 0.263782 0.563532 0.456128
v 0.260609 0.538417 0.469647
v 0.252662 0.538666 0.469647
v 0.251072 0.563931 0.456128
v 0.252662 0.538666 0.469647
v 0.251072 0.563931 0.456128
v 0.251072 0.563931 0.456128
v 0.252662 0.538666 0.469647
v 0.263231 0.538001 0.469647
v 0.267975 0.562868 0.456128
v 0.267975 0.562868 0.456128
v 0.263231 0.538001 0.469647
v 0.267975 0.562868 0.456128
v 0.263231 0.538001 0.469647
v 0.250020 0.538417 0.469647
v 0.246847 0.563532 0.456128
v 0.250020 0.538417 0.469647
v 0.246847 0.563532 0.456128
v 0.246847 0.563532 0.456128
v 0.250020 0.538417 0.469647
v 0.265821 0.537422 0.469647
v 0.272117 0.561942 0.456128
v 0.272117 0.561942 0.456128
v 0.265821 0.537422 0.469647
v 0.272117 0.561942 0.456128
v 0.265821 0.537422 0.469647
v 0.247398 0.538001 0.469647
v 0.242654 0.562868 0.456128
v 0.247398 0.538001 0.469647
v 0.242654 0.562868 0.456128
v 0.242654 0.562868 0.456128
v 0.247398 0.538001 0.469647
v 0.268370 0.536682 0.469647
v 0.276193 0.560758 0.456128
v 0.276193 0.560758 0.456128
v 0.268370 0.536682 0.469647
v 0.276193 0.560758 0.456128
v 0.268370 0.536682 0.469647
v 0.244808 0.537422 0.469647
v 0.238512 0.561942 0.456128
v 0.244808 0.537422 0.469647
v 0.238512 0.561942 0.456128
v 0.238512 0.561942 0.456128
v 0.244808 0.537422 0.469647
v 0.270867 0.535783 0.469647
v 0.280186 0.559320 0.456128
v 0.280186 0.559320 0.456128
v 0.270867 0.535783 0.469647
v 0.280186 0.559320 0.456128
v 0.270867 0.535783 0.469647
v 0.242259 0.536682 0.469647
v 0.234436 0.560758 0.456128
v 0.242259 0.536682 0.469647
v 0.234436 0.560758 0.456128
v 0.234436 0.560758 0.456128
v 0.242259 0.536682 0.469647
v 0.273303 0.534729 0.469647
v 0.284081 0.557635 0.456128
v 0.284081 0.557635 0.456128
v 0.273303 0.534729 0.469647
v 0.284081 0.557635 0.456128
v 0.273303 0.534729 0.469647
v 0.239762 0.535783 0.469647
v 0.230443 0.559320 0.456128
v 0.239762 0.535783 0.469647
v 0.230443 0.559320 0.456128
v 0.230443 0.559320 0.456128
v 0.239762 0.535783 0.469647
v 0.275667 0.533524 0.469647
v 0.287863 0.555708 0.456128
v 0.287863 0.555708 0.456128
v 0.275667 0.533524 0.469647
v 0.287863 0.555708 0.456128
v 0.275667 0.533524 0.469647
v 0.237326 0.534729 0.469647
v 0.226548 0.557635 0.456128
v 0.237326 0.534729 0.469647
v 0.226548 0.557635 0.456128
v 0.226548 0.557635 0.456128
v 0.237326 0.534729 0.469647
v 0.277952 0.532173 0.469647
v 0.291516 0.553547 0.456128
v 0.291516 0.553547 0.456128
v 0.277952 0.532173 0.469647
v 0.291516 0.553547 0.456128
v 0.277952 0.532173 0.469647
v 0.234962 0.533524 0.469647
v 0.222766 0.555708 0.456128
v 0.234962 0.533524 0.469647
v 0.222766 0.555708 0.456128
v 0.222766 0.555708 0.456128
v 0.234962 0.533524 0.469647
v 0.280147 0.530681 0.469647
v 0.295027 0.551161 0.456128
v 0.295027 0.551161 0.456128
v 0.280147 0.530681 0.469647
v 0.295027 0.551161 0.456128
v 0.280147 0.530681 0.469647
v 0.232677 0.532173 0.469647
v 0.219113 0.553547 0.456128
v 0.232677 0.532173 0.469647
v 0.219113 0.553547 0.456128
v 0.219113 0.553547 0.456128
v 0.232677 0.532173 0.469647
v 0.282244 0.529054 0.469647
v 0.298381 0.548560 0.456128
v 0.298381 0.548560 0.456128
v 0.282244 0.529054 0.469647
v 0.298381 0.548560 0.456128
v 0.282244 0.529054 0.469647
v 0.230482 0.530681 0.469647
v 0.215602 0.551161 0.456128
v 0.230482 0.530681 0.469647
v 0.215602 0.551161 0.456128
v 0.215602 0.551161 0.456128
v 0.230482 0.530681 0.469647
v 0.284235 0.527299 0.469647
v 0.301564 0.545753 0.456128
v 0.301564 0.545753 0.456128
v 0.284235 0.527299 0.469647
v 0.301564 0.545753 0.456128
v 0.284235 0.527299 0.469647
v 0.228385 0.529054 0.469647
v 0.212248 0.548560 0.456128
v 0.228385 0.529054 0.469647
v 0.212248 0.548560 0.456128
v 0.212248 0.548560 0.456128
v 0.228385 0.529054 0.469647
v 0.286112 0.525422 0.469647
v 0.304566 0.542752 0.456128
v 0.304566 0.542752 0.456128
v 0.286112 0.525422 0.469647
v 0.304566 0.542752 0.456128
v 0.286112 0.525422 0.469647
v 0.226394 0.527299 0.469647
v 0.209065 0.545753 0.456128
v 0.226394 0.527299 0.469647
v 0.209065 0.545753 0.456128
v 0.209065 0.545753 0.456128
v 0.226394 0.527299 0.469647
v 0.287867 0.523432 0.469647
v 0.307372 0.539568 0.456128
v 0.307372 0.539568 0.456128
v 0.287867 0.523432 0.469647
v 0.307372 0.539568 0.456128
v 0.287867 0.523432 0.469647
v 0.224518 0.525422 0.469647
v 0.206063 0.542752 0.456128
v 0.224518 0.525422 0.469647
v 0.206063 0.542752 0.456128
v 0.206063 0.542752 0.456128
v 0.224518 0.525422 0.469647
v 0.289493 0.521334 0.469647
v 0.309974 0.536214 0.456128
v 0.309974 0.536214 0.456128
v 0.289493 0.521334 0.469647
v 0.309974 0.536214 0.456128
v 0.289493 0.521334 0.469647
v 0.222762 0.523432 0.469647
v 0.203257 0.539568 0.456128
v 0.222762 0.523432 0.469647
v 0.203257 0.539568 0.456128
v 0.203257 0.539568 0.456128
v 0.222762 0.523432 0.469647
v 0.290985 0.519139 0.469647
v 0.312360 0.532704 0.456128
v 0.312360 0.532704 0.456128
v 0.290985 0.519139 0.469647
v 0.312360 0.532704 0.456128
v 0.290985 0.519139 0.469647
v 0.221136 0.521334 0.469647
v 0.200655 0.536214 0.456128
v 0.221136 0.521334 0.469647
v 0.200655 0.536214 0.456128
v 0.200655 0.536214 0.456128
v 0.221136 0.521334 0.469647
v 0.292336 0.516855 0.469647
v 0.314520 0.529051 0.456128
v 0.314520 0.529051 0.456128
v 0.292336 0.516855 0.469647
v 0.314520 0.529051 0.456128
v 0.292336 0.516855 0.469647
v 0.219644 0.519139 0.469647
v 0.198269 0.532704 0.456128
v 0.219644 0.519139 0.469647
v 0.198269 0.532704 0.456128
v 0.198269 0.532704 0.456128
v 0.219644 0.519139 0.469647
v 0.293541 0.514490 0.469647
v 0.316447 0.525269 0.456128
v 0.316447 0.525269 0.456128
v 0.293541 0.514490 0.469647
v 0.316447 0.525269 0.456128
v 0.293541 0.514490 0.469647
v 0.218293 0.516855 0.469647
v 0.196109 0.529051 0.456128
v 0.218293 0.516855 0.469647
v 0.196109 0.529051 0.456128
v 0.196109 0.529051 0.456128
v 0.218293 0.516855 0.469647
v 0.294595 0.512054 0.469647
v 0.318133 0.521373 0.456128
v 0.318133 0.521373 0.456128
v 0.294595 0.512054 0.469647
v 0.318133 0.521373 0.456128
v 0.294595 0.512054 0.469647
v 0.217088 0.514490 0.469647
v 0.194182 0.525269 0.456128
v 0.217088 0.514490 0.469647
v 0.194182 0.525269 0.456128
v 0.194182 0.525269 0.456128
v 0.217088 0.514490 0.469647
v 0.295494 0.509557 0.469647
v 0.319570 0.517380 0.456128
v 0.319570 0.517380 0.456128
v 0.295494 0.509557 0.469647
v 0.319570 0.517380 0.456128
v 0.295494 0.509557 0.469647
v 0.216034 0.512054 0.469647
v 0.192496 0.521373 0.456128
v 0.216034 0.512054 0.469647
v 0.192496 0.521373 0.456128
v 0.192496 0.521373 0.456128
v 0.216034 0.512054 0.469647
v 0.296235 0.507009 0.469647
v 0.320755 0.513304 0.456128
v 0.320755 0.513304 0.456128
v 0.296235 0.507009 0.469647
v 0.320755 0.513304 0.456128
v 0.296235 0.507009 0.469647
v 0.215135 0.509557 0.469647
v 0.191059 0.517380 0.456128
v 0.215135 0.509557 0.469647
v 0.191059 0.517380 0.456128
v 0.191059 0.517380 0.456128
v 0.215135 0.509557 0.469647
v 0.296814 0.504418 0.469647
v 0.321681 0.509162 0.456128
v 0.321681 0.509162 0.456128
v 0.296814 0.504418 0.469647
v 0.321681 0.509162 0.456128
v 0.296814 0.504418 0.469647
v 0.214394 0.507009 0.469647
v 0.189874 0.513304 0.456128
v 0.214394 0.507009 0.469647
v 0.189874 0.513304 0.456128
v 0.189874 0.513304 0.456128
v 0.214394 0.507009 0.469647
v 0.297229 0.501797 0.469647
v 0.322345 0.504970 0.456128
v 0.322345 0.504970 0.456128
v 0.297229 0.501797 0.469647
v 0.322345 0.504970 0.456128
v 0.297229 0.501797 0.469647
v 0.213815 0.504418 0.469647
v 0.188949 0.509162 0.456128
v 0.213815 0.504418 0.469647
v 0.188949 0.509162 0.456128
v 0.188949 0.509162 0.456128
v 0.213815 0.504418 0.469647
v 0.297479 0.499155 0.469647
v 0.322744 0.500744 0.456128
v 0.322744 0.500744 0.456128
v 0.297479 0.499155 0.469647
v 0.322744 0.500744 0.456128
v 0.297479 0.499155 0.469647
v 0.213400 0.501797 0.469647
v 0.188284 0.504970 0.456128
v 0.213400 0.501797 0.469647
v 0.188284 0.504970 0.456128
v 0.188284 0.504970 0.456128
v 0.213400 0.501797 0.469647
v 0.297562 0.496502 0.469647
v 0.322877 0.496502 0.456128
v 0.322877 0.496502 0.456128
v 0.297562 0.496502 0.469647
v 0.322877 0.496502 0.456128
v 0.297562 0.496502 0.469647
v 0.213151 0.499155 0.469647
v 0.187885 0.500744 0.456128
v 0.213151 0.499155 0.469647
v 0.187885 0.500744 0.456128
v 0.187885 0.500744 0.456128
v 0.213151 0.499155 0.469647
v 0.322744 0.492260 0.456128
v 0.297479 0.493849 0.469647
v 0.322744 0.492260 0.456128
v 0.297479 0.493849 0.469647
v 0.322744 0.492260 0.456128
v 0.297479 0.493849 0.469647
v 0.213067 0.496502 0.469647
v 0.187752 0.496502 0.456128
v 0.213067 0.496502 0.469647
v 0.187752 0.496502 0.456128
v 0.187752 0.496502 0.456128
v 0.213067 0.496502 0.469647
v 0.322345 0.488034 0.456128
v 0.297229 0.491207 0.469647
v 0.322345 0.488034 0.456128
v 0.297229 0.491207 0.469647
v 0.322345 0.488034 0.456128
v 0.297229 0.491207 0.469647
v 0.187885 0.492260 0.456128
v 0.213151 0.493849 0.469647
v 0.213151 0.493849 0.469647
v 0.187885 0.492260 0.456128
v 0.187885 0.492260 0.456128
v 0.213151 0.493849 0.469647
v 0.321681 0.483842 0.456128
v 0.296814 0.488585 0.469647
v 0.321681 0.483842 0.456128
v 0.296814 0.488585 0.469647
v 0.321681 0.483842 0.456128
v 0.296814 0.488585 0.469647
v 0.188284 0.488034 0.456128
v 0.213400 0.491207 0.469647
v 0.213400 0.491207 0.469647
v 0.188284 0.488034 0.456128
v 0.188284 0.488034 0.456128
v 0.213400 0.491207 0.469647
v 0.320755 0.479700 0.456128
v 0.296235 0.485995 0.469647
v 0.320755 0.479700 0.456128
v 0.296235 0.485995 0.469647
v 0.320755 0.479700 0.456128
v 0.296235 0.485995 0.469647
v 0.188949 0.483842 0.456128
v 0.213815 0.488585 0.469647
v 0.213815 0.488585 0.469647
v 0.188949 0.483842 0.456128
v 0.188949 0.483842 0.456128
v 0.213815 0.488585 0.469647
v 0.319570 0.475624 0.456128
v 0.295494 0.483447 0.469647
v 0.319570 0.475624 0.456128
v 0.295494 0.483447 0.469647
v 0.319570 0.475624 0.456128
v 0.295494 0.483447 0.469647
v 0.189874 0.479700 0.456128
v 0.214394 0.485995 0.469647
v 0.214394 0.485995 0.469647
v 0.189874 0.479700 0.456128
v 0.189874 0.479700 0.456128
v 0.214394 0.485995 0.469647
v 0.318133 0.471631 0.456128
v 0.294595 0.480950 0.469647
v 0.318133 0.471631 0.456128
v 0.294595 0.480950 0.469647
v 0.318133 0.471631 0.456128
v 0.294595 0.480950 0.469647
v 0.191059 0.475624 0.456128
v 0.215135 0.483447 0.469647
v 0.215135 0.483447 0.469647
v 0.191059 0.475624 0.456128
v 0.191059 0.475624 0.456128
v 0.215135 0.483447 0.469647
v 0.316447 0.467735 0.456128
v 0.293541 0.478514 0.469647
v 0.316447 0.467735 0.456128
v 0.293541 0.478514 0.469647
v 0.316447 0.467735 0.456128
v 0.293541 0.478514 0.469647
v 0.192496 0.471631 0.456128
v 0.216034 0.480950 0.469647
v 0.216034 0.480950 0.469647
v 0.192496 0.471631 0.456128
v 0.192496 0.471631 0.456128
v 0.216034 0.480950 0.469647
v 0.314520 0.463953 0.456128
v 0.292336 0.476149 0.469647
v 0.314520 0.463953 0.456128
v 0.292336 0.476149 0.469647
v 0.314520 0.463953 0.456128
v 0.292336 0.476149 0.469647
v 0.194182 0.467735 0.456128
v 0.217088 0.478514 0.469647
v 0.217088 0.478514 0.469647
v 0.194182 0.467735 0.456128
v 0.194182 0.467735 0.456128
v 0.217088 0.478514 0.469647
v 0.312360 0.460300 0.456128
v 0.290985 0.473865 0.469647
v 0.312360 0.460300 0.456128
v 0.290985 0.473865 0.469647
v 0.312360 0.460300 0.456128
v 0.290985 0.473865 0.469647
v 0.196109 0.463953 0.456128
v 0.218293 0.476149 0.469647
v 0.218293 0.476149 0.469647
v 0.196109 0.463953 0.456128
v 0.196109 0.463953 0.456128
v 0.218293 0.476149 0.469647
v 0.309974 0.456790 0.456128
v 0.289493 0.471670 0.469647
v 0.309974 0.456790 0.456128
v 0.289493 0.471670 0.469647
v 0.309974 0.456790 0.456128
v 0.289493 0.471670 0.469647
v 0.198269 0.460300 0.456128
v 0.219644 0.473865 0.469647
v 0.219644 0.473865 0.469647
v 0.198269 0.460300 0.456128
v 0.198269 0.460300 0.456128
v 0.219644 0.473865 0.469647
v 0.307372 0.453436 0.456128
v 0.287867 0.469572 0.469647
v 0.307372 0.453436 0.456128
v 0.287867 0.469572 0.469647
v 0.307372 0.453436 0.456128
v 0.287867 0.469572 0.469647
v 0.200655 0.456790 0.456128
v 0.221136 0.471670 0.469647
v 0.221136 0.471670 0.469647
v 0.200655 0.456790 0.456128
v 0.200655 0.456790 0.456128
v 0.221136 0.471670 0.469647
v 0.304566 0.450252 0.456128
v 0.286112 0.467582 0.469647
v 0.304566 0.450252 0.456128
v 0.286112 0.467582 0.469647
v 0.304566 0.450252 0.456128
v 0.286112 0.467582 0.469647
v 0.203257 0.453436 0.456128
v 0.222762 0.469572 0.469647
v 0.222762 0.469572 0.469647
v 0.203257 0.453436 0.456128
v 0.203257 0.453436 0.456128
v 0.222762 0.469572 0.469647
v 0.301564 0.447251 0.456128
v 0.284235 0.465705 0.469647
v 0.301564 0.447251 0.456128
v 0.284235 0.465705 0.469647
v 0.301564 0.447251 0.456128
v 0.284235 0.465705 0.469647
v 0.206063 0.450252 0.456128
v 0.224518 0.467582 0.469647
v 0.224518 0.467582 0.469647
v 0.206063 0.450252 0.456128
v 0.206063 0.450252 0.456128
v 0.224518 0.467582 0.469647
v 0.298381 0.444444 0.456128
v 0.282244 0.463950 0.469647
v 0.298381 0.444444 0.456128
v 0.282244 0.463950 0.469647
v 0.298381 0.444444 0.456128
v 0.282244 0.463950 0.469647
v 0.209065 0.447251 0.456128
v 0.226394 0.465705 0.469647
v 0.226394 0.465705 0.469647
v 0.209065 0.447251 0.456128
v 0.209065 0.447251 0.456128
v 0.226394 0.465705 0.469647
v 0.295027 0.441843 0.456128
v 0.280147 0.462323 0.469647
v 0.295027 0.441843 0.456128
v 0.280147 0.462323 0.469647
v 0.295027 0.441843 0.456128
v 0.280147 0.462323 0.469647
v 0.212248 0.444444 0.456128
v 0.228385 0.463950 0.469647
v 0.228385 0.463950 0.469647
v 0.212248 0.444444 0.456128
v 0.212248 0.444444 0.456128
v 0.228385 0.463950 0.469647
v 0.291516 0.439457 0.456128
v 0.277952 0.460831 0.469647
v 0.291516 0.439457 0.456128
v 0.277952 0.460831 0.469647
v 0.291516 0.439457 0.456128
v 0.277952 0.460831 0.469647
v 0.215602 0.441843 0.456128
v 0.230482 0.462323 0.469647
v 0.230482 0.462323 0.469647
v 0.215602 0.441843 0.456128
v 0.215602 0.441843 0.456128
v 0.230482 0.462323 0.469647
v 0.287863 0.437296 0.456128
v 0.275667 0.459480 0.469647
v 0.287863 0.437296 0.456128
v 0.275667 0.459480 0.469647
v 0.287863 0.437296 0.456128
v 0.275667 0.459480 0.469647
v 0.219113 0.439457 0.456128
v 0.232677 0.460831 0.469647
v 0.232677 0.460831 0.469647
v 0.219113 0.439457 0.456128
v 0.219113 0.439457 0.456128
v 0.232677 0.460831 0.469647
v 0.284081 0.435369 0.456128
v 0.273303 0.458275 0.469647
v 0.284081 0.435369 0.456128
v 0.273303 0.458275 0.469647
v 0.284081 0.435369 0.456128
v 0.273303 0.458275 0.469647
v 0.222766 0.437296 0.456128
v 0.234962 0.459480 0.469647
v 0.234962 0.459480 0.469647
v 0.222766 0.437296 0.456128
v 0.222766 0.437296 0.456128
v 0.234962 0.459480 0.469647
v 0.280186 0.433684 0.456128
v 0.270867 0.457221 0.469647
v 0.280186 0.433684 0.456128
v 0.270867 0.457221 0.469647
v 0.280186 0.433684 0.456128
v 0.270867 0.457221 0.469647
v 0.226548 0.435369 0.456128
v 0.237326 0.458275 0.469647
v 0.237326 0.458275 0.469647
v 0.226548 0.435369 0.456128
v 0.226548 0.435369 0.456128
v 0.237326 0.458275 0.469647
v 0.276193 0.432246 0.456128
v 0.268370 0.456322 0.469647
v 0.276193 0.432246 0.456128
v 0.268370 0.456322 0.469647
v 0.276193 0.432246 0.456128
v 0.268370 0.456322 0.469647
v 0.230443 0.433684 0.456128
v 0.239762 0.457221 0.469647
v 0.239762 0.457221 0.469647
v 0.230443 0.433684 0.456128
v 0.230443 0.433684 0.456128
v 0.239762 0.457221 0.469647
v 0.272117 0.431062 0.456128
v 0.265821 0.455581 0.469647
v 0.272117 0.431062 0.456128
v 0.265821 0.455581 0.469647
v 0.272117 0.431062 0.456128
v 0.265821 0.455581 0.469647
v 0.234436 0.432246 0.456128
v 0.242259 0.456322 0.469647
v 0.242259 0.456322 0.469647
v 0.234436 0.432246 0.456128
v 0.234436 0.432246 0.456128
v 0.242259 0.456322 0.469647
v 0.267975 0.430136 0.456128
v 0.263231 0.455003 0.469647
v 0.267975 0.430136 0.456128
v 0.263231 0.455003 0.469647
v 0.267975 0.430136 0.456128
v 0.263231 0.455003 0.469647
v 0.238512 0.431062 0.456128
v 0.244808 0.455581 0.469647
v 0.244808 0.455581 0.469647
v 0.238512 0.431062 0.456128
v 0.238512 0.431062 0.456128
v 0.244808 0.455581 0.469647
v 0.263782 0.429472 0.456128
v 0.260609 0.454587 0.469647
v 0.263782 0.429472 0.456128
v 0.260609 0.454587 0.469647
v 0.263782 0.429472 0.456128
v 0.260609 0.454587 0.469647
v 0.242654 0.430136 0.456128
v 0.247398 0.455003 0.469647
v 0.247398 0.455003 0.469647
v 0.242654 0.430136 0.456128
v 0.242654 0.430136 0.456128
v 0.247398 0.455003 0.469647
v 0.259557 0.429072 0.456128
v 0.257967 0.454338 0.469647
v 0.259557 0.429072 0.456128
v 0.257967 0.454338 0.469647
v 0.259557 0.429072 0.456128
v 0.257967 0.454338 0.469647
v 0.246847 0.429472 0.456128
v 0.250020 0.454587 0.469647
v 0.250020 0.454587 0.469647
v 0.246847 0.429472 0.456128
v 0.246847 0.429472 0.456128
v 0.250020 0.454587 0.469647
v 0.255315 0.428939 0.456128
v 0.255315 0.454254 0.469647
v 0.255315 0.428939 0.456128
v 0.255315 0.454254 0.469647
v 0.255315 0.428939 0.456128
v 0.255315 0.454254 0.469647
v 0.251072 0.429072 0.456128
v 0.252662 0.454338 0.469647
v 0.252662 0.454338 0.469647
v 0.251072 0.429072 0.456128
v 0.251072 0.429072 0.456128
v 0.252662 0.454338 0.469647
vn 0.029578780785835916 0.470141212490503 0.8820954234351196
vn 0 0.471070723765601 0.8820954445018705
vn 0.05904082204263913 0.4673562161691531 0.8820954305179124
vn -0.029578780785835916 0.470141212490503 0.8820954234351196
vn 0.0882698620159151 0.46272681056779674 0.882095420145375
vn -0.05904082204263913 0.4673562161691531 0.8820954305179124
vn 0.1171505033797423 0.45627121316323077 0.8820954254480785
vn -0.0882698620159151 0.46272681056779674 0.882095420145375
vn 0.1455689036413785 0.448014911207008 0.8820954220654496
vn -0.1171505033797423 0.45627121316323077 0.8820954254480785
vn 0.17341270543538723 0.43799051372822156 0.8820954276480908
vn -0.1455689036413785 0.448014911207008 0.8820954220654496
vn 0.20057220062500705 0.42623760132820754 0.8820954027487151
vn -0.17341270543538723 0.43799051372822156 0.8820954276480908
vn 0.2269401084949437 0.41280241545224117 0.8820954330190688
vn -0.20057220062500705 0.42623760132820754 0.8820954027487151
vn 0.25241230761885236 0.39773821200539206 0.8820954266253056
vn -0.2269401084949437 0.41280241545224117 0.8820954330190688
vn 0.27688841495012523 0.3811042205770827 0.8820954476272631
vn -0.25241230761885236 0.39773821200539206 0.8820954266253056
vn 0.30027180247542723 0.3629663029922779 0.8820954072719548
vn -0.27688841495012523 0.3811042205770827 0.8820954476272631
vn 0.3224701103911464 0.34339581106544775 0.8820954284242863
vn -0.30027180247542723 0.3629663029922779 0.8820954072719548
vn 0.34339581106544775 0.3224701103911464 0.8820954284242863
vn -0.3224701103911464 0.34339581106544775 0.8820954284242863
vn 0.3629663029922779 0.30027180247542723 0.8820954072719548
vn -0.34339581106544775 0.3224701103911464 0.8820954284242863
vn 0.3811042205770827 0.27688841495012523 0.8820954476272631
vn -0.3629663029922779 0.30027180247542723 0.8820954072719548
vn 0.39773821200539206 0.25241230761885236 0.8820954266253056
vn -0.3811042205770827 0.27688841495012523 0.8820954476272631
vn 0.41280241545224117 0.2269401084949437 0.8820954330190688
vn -0.39773821200539206 0.25241230761885236 0.8820954266253056
vn 0.42623760132820754 0.20057220062500705 0.8820954027487151
vn -0.41280241545224117 0.2269401084949437 0.8820954330190688
vn 0.43799051372822156 0.17341270543538723 0.8820954276480908
vn -0.42623760132820754 0.20057220062500705 0.8820954027487151
vn 0.448014911207008 0.1455689036413785 0.8820954220654496
vn -0.43799051372822156 0.17341270543538723 0.8820954276480908
vn 0.45627121316323077 0.1171505033797423 0.8820954254480785
vn -0.448014911207008 0.1455689036413785 0.8820954220654496
vn 0.46272681056779674 0.0882698620159151 0.882095420145375
vn -0.45627121316323077 0.1171505033797423 0.8820954254480785
vn 0.4673562161691531 0.05904082204263913 0.8820954305179124
vn -0.46272681056779674 0.0882698620159151 0.882095420145375
vn 0.470141212490503 0.029578780785835916 0.8820954234351196
vn -0.4673562161691531 0.05904082204263913 0.8820954305179124
vn 0.471070723765601 0 0.8820954445018705
vn -0.470141212490503 0.029578780785835916 0.8820954234351196
vn 0.470141212490503 -0.029578780785835916 0.8820954234351196
vn -0.471070723765601 0 0.8820954445018705
vn 0.4673562161691531 -0.05904082204263913 0.8820954305179124
vn -0.470141212490503 -0.029578780785835916 0.8820954234351196
vn 0.46272681056779674 -0.0882698620159151 0.882095420145375
vn -0.4673562161691531 -0.05904082204263913 0.8820954305179124
vn 0.45627121316323077 -0.1171505033797423 0.8820954254480785
vn -0.46272681056779674 -0.0882698620159151 0.882095420145375
vn 0.448014911207008 -0.1455689036413785 0.8820954220654496
vn -0.45627121316323077 -0.1171505033797423 0.8820954254480785
vn 0.43799051372822156 -0.17341270543538723 0.8820954276480908
vn -0.448014911207008 -0.1455689036413785 0.8820954220654496
vn 0.42623760132820754 -0.20057220062500705 0.8820954027487151
vn -0.43799051372822156 -0.17341270543538723 0.8820954276480908
vn 0.41280241545224117 -0.2269401084949437 0.8820954330190688
vn -0.42623760132820754 -0.20057220062500705 0.8820954027487151
vn 0.39773821200539206 -0.25241230761885236 0.8820954266253056
vn -0.41280241545224117 -0.2269401084949437 0.8820954330190688
vn 0.3811042205770827 -0.27688841495012523 0.8820954476272631
vn -0.39773821200539206 -0.25241230761885236 0.8820954266253056
vn 0.3629663029922779 -0.30027180247542723 0.8820954072719548
vn -0.3811042205770827 -0.27688841495012523 0.8820954476272631
vn 0.34339581106544775 -0.3224701103911464 0.8820954284242863
vn -0.3629663029922779 -0.30027180247542723 0.8820954072719548
vn 0.3224701103911464 -0.34339581106544775 0.8820954284242863
vn -0.34339581106544775 -0.3224701103911464 0.8820954284242863
vn 0.30027180247542723 -0.3629663029922779 0.8820954072719548
vn -0.3224701103911464 -0.34339581106544775 0.8820954284242863
vn 0.27688841495012523 -0.3811042205770827 0.8820954476272631
vn -0.30027180247542723 -0.3629663029922779 0.8820954072719548
vn 0.25241230761885236 -0.39773821200539206 0.8820954266253056
vn -0.27688841495012523 -0.3811042205770827 0.8820954476272631
vn 0.2269401084949437 -0.41280241545224117 0.8820954330190688
vn -0.25241230761885236 -0.39773821200539206 0.8820954266253056
vn 0.20057220062500705 -0.42623760132820754 0.8820954027487151
vn -0.2269401084949437 -0.41280241545224117 0.8820954330190688
vn 0.17341270543538723 -0.43799051372822156 0.8820954276480908
vn -0.20057220062500705 -0.42623760132820754 0.8820954027487151
vn 0.1455689036413785 -0.448014911207008 0.8820954220654496
vn -0.17341270543538723 -0.43799051372822156 0.8820954276480908
vn 0.1171505033797423 -0.45627121316323077 0.8820954254480785
vn -0.1455689036413785 -0.448014911207008 0.8820954220654496
vn 0.0882698620159151 -0.46272681056779674 0.882095420145375
vn -0.1171505033797423 -0.45627121316323077 0.8820954254480785
vn 0.05904082204263913 -0.4673562161691531 0.8820954305179124
vn -0.0882698620159151 -0.46272681056779674 0.882095420145375
vn 0.029578780785835916 -0.470141212490503 0.8820954234351196
vn -0.05904082204263913 -0.4673562161691531 0.8820954305179124
vn 0 -0.471070723765601 0.8820954445018705
vn -0.029578780785835916 -0.470141212490503 0.8820954234351196
vn -0.029578780785835916 -0.470141212490503 -0.8820954234351196
vn 0 -0.471070723765601 -0.8820954445018705
vn -0.05904082204263913 -0.4673562161691531 -0.8820954305179124
vn 0.029578780785835916 -0.470141212490503 -0.8820954234351196
vn -0.0882698620159151 -0.46272681056779674 -0.882095420145375
vn 0.05904082204263913 -0.4673562161691531 -0.8820954305179124
vn -0.1171505033797423 -0.45627121316323077 -0.8820954254480785
vn 0.0882698620159151 -0.46272681056779674 -0.882095420145375
vn -0.1455689036413785 -0.448014911207008 -0.8820954220654496
vn 0.1171505033797423 -0.45627121316323077 -0.8820954254480785
vn -0.17341270543538723 -0.43799051372822156 -0.8820954276480908
vn 0.1455689036413785 -0.448014911207008 -0.8820954220654496
vn -0.20057220062500705 -0.42623760132820754 -0.8820954027487151
vn 0.17341270543538723 -0.43799051372822156 -0.8820954276480908
vn -0.2269401084949437 -0.41280241545224117 -0.8820954330190688
vn 0.20057220062500705 -0.42623760132820754 -0.8820954027487151
vn -0.25241230761885236 -0.39773821200539206 -0.8820954266253056
vn 0.2269401084949437 -0.41280241545224117 -0.8820954330190688
vn -0.27688841495012523 -0.3811042205770827 -0.8820954476272631
vn 0.25241230761885236 -0.39773821200539206 -0.8820954266253056
vn -0.30027180247542723 -0.3629663029922779 -0.8820954072719548
vn 0.27688841495012523 -0.3811042205770827 -0.8820954476272631
vn -0.3224701103911464 -0.34339581106544775 -0.8820954284242863
vn 0.30027180247542723 -0.3629663029922779 -0.8820954072719548
vn -0.34339581106544775 -0.3224701103911464 -0.8820954284242863
vn 0.3224701103911464 -0.34339581106544775 -0.8820954284242863
vn -0.3629663029922779 -0.30027180247542723 -0.8820954072719548
vn 0.34339581106544775 -0.3224701103911464 -0.8820954284242863
vn -0.3811042205770827 -0.27688841495012523 -0.8820954476272631
vn 0.3629663029922779 -0.30027180247542723 -0.8820954072719548
vn -0.39773821200539206 -0.25241230761885236 -0.8820954266253056
vn 0.3811042205770827 -0.27688841495012523 -0.8820954476272631
vn -0.41280241545224117 -0.2269401084949437 -0.8820954330190688
vn 0.39773821200539206 -0.25241230761885236 -0.8820954266253056
vn -0.42623760132820754 -0.20057220062500705 -0.8820954027487151
vn 0.41280241545224117 -0.2269401084949437 -0.8820954330190688
vn -0.43799051372822156 -0.17341270543538723 -0.8820954276480908
vn 0.42623760132820754 -0.20057220062500705 -0.8820954027487151
vn -0.448014911207008 -0.1455689036413785 -0.8820954220654496
vn 0.43799051372822156 -0.17341270543538723 -0.8820954276480908
vn -0.45627121316323077 -0.1171505033797423 -0.8820954254480785
vn 0.448014911207008 -0.1455689036413785 -0.8820954220654496
vn -0.46272681056779674 -0.0882698620159151 -0.882095420145375
vn 0.45627121316323077 -0.1171505033797423 -0.8820954254480785
vn -0.4673562161691531 -0.05904082204263913 -0.8820954305179124
vn 0.46272681056779674 -0.0882698620159151 -0.882095420145375
vn -0.470141212490503 -0.029578780785835916 -0.8820954234351196
vn 0.4673562161691531 -0.05904082204263913 -0.8820954305179124
vn -0.471070723765601 0 -0.8820954445018705
vn 0.470141212490503 -0.029578780785835916 -0.8820954234351196
vn -0.470141212490503 0.029578780785835916 -0.8820954234351196
vn 0.471070723765601 0 -0.8820954445018705
vn -0.4673562161691531 0.05904082204263913 -0.8820954305179124
vn 0.470141212490503 0.029578780785835916 -0.8820954234351196
vn -0.46272681056779674 0.0882698620159151 -0.882095420145375
vn 0.4673562161691531 0.05904082204263913 -0.8820954305179124
vn -0.45627121316323077 0.1171505033797423 -0.8820954254480785
vn 0.46272681056779674 0.0882698620159151 -0.882095420145375
vn -0.448014911207008 0.1455689036413785 -0.8820954220654496
vn 0.45627121316323077 0.1171505033797423 -0.8820954254480785
vn -0.43799051372822156 0.17341270543538723 -0.8820954276480908
vn 0.448014911207008 0.1455689036413785 -0.8820954220654496
vn -0.42623760132820754 0.20057220062500705 -0.8820954027487151
vn 0.43799051372822156 0.17341270543538723 -0.8820954276480908
vn -0.41280241545224117 0.2269401084949437 -0.8820954330190688
vn 0.42623760132820754 0.20057220062500705 -0.8820954027487151
vn -0.39773821200539206 0.25241230761885236 -0.8820954266253056
vn 0.41280241545224117 0.2269401084949437 -0.8820954330190688
vn -0.3811042205770827 0.27688841495012523 -0.8820954476272631
vn 0.39773821200539206 0.25241230761885236 -0.8820954266253056
vn -0.3629663029922779 0.30027180247542723 -0.8820954072719548
vn 0.3811042205770827 0.27688841495012523 -0.8820954476272631
vn -0.34339581106544775 0.3224701103911464 -0.8820954284242863
vn 0.3629663029922779 0.30027180247542723 -0.8820954072719548
vn -0.3224701103911464 0.34339581106544775 -0.8820954284242863
vn 0.34339581106544775 0.3224701103911464 -0.8820954284242863
vn -0.30027180247542723 0.3629663029922779 -0.8820954072719548
vn 0.3224701103911464 0.34339581106544775 -0.8820954284242863
vn -0.27688841495012523 0.3811042205770827 -0.8820954476272631
vn 0.30027180247542723 0.3629663029922779 -0.8820954072719548
vn -0.25241230761885236 0.39773821200539206 -0.8820954266253056
vn 0.27688841495012523 0.3811042205770827 -0.8820954476272631
vn -0.2269401084949437 0.41280241545224117 -0.8820954330190688
vn 0.25241230761885236 0.39773821200539206 -0.8820954266253056
vn -0.20057220062500705 0.42623760132820754 -0.8820954027487151
vn 0.2269401084949437 0.41280241545224117 -0.8820954330190688
vn -0.17341270543538723 0.43799051372822156 -0.8820954276480908
vn 0.20057220062500705 0.42623760132820754 -0.8820954027487151
vn -0.1455689036413785 0.448014911207008 -0.8820954220654496
vn 0.17341270543538723 0.43799051372822156 -0.8820954276480908
vn -0.1171505033797423 0.45627121316323077 -0.8820954254480785
vn 0.1455689036413785 0.448014911207008 -0.8820954220654496
vn -0.0882698620159151 0.46272681056779674 -0.882095420145375
vn 0.1171505033797423 0.45627121316323077 -0.8820954254480785
vn -0.05904082204263913 0.4673562161691531 -0.8820954305179124
vn 0.0882698620159151 0.46272681056779674 -0.882095420145375
vn -0.029578780785835916 0.470141212490503 -0.8820954234351196
vn 0.05904082204263913 0.4673562161691531 -0.8820954305179124
vn 0 0.471070723765601 -0.8820954445018705
vn 0.029578780785835916 0.470141212490503 -0.8820954234351196
usemtl material_0_0
f 5//101 6//101 7//102
f 8//102 7//102 6//101
f 15//103 16//103 5//101
f 6//101 5//101 16//103
f 8//102 21//104 7//102
f 22//104 7//102 21//104
f 27//105 28//105 15//103
f 16//103 15//103 28//105
f 21//104 33//106 22//104
f 34//106 22//104 33//106
f 39//107 40//107 27//105
f 28//105 27//105 40//107
f 33//106 45//108 34//106
f 46//108 34//106 45//108
f 51//109 52//109 39//107
f 40//107 39//107 52//109
f 45//108 57//110 46//108
f 58//110 46//108 57//110
f 63//111 64//111 51//109
f 52//109 51//109 64//111
f 57//110 69//112 58//110
f 70//112 58//110 69//112
f 75//113 76//113 63//111
f 64//111 63//111 76//113
f 69//112 81//114 70//112
f 82//114 70//112 81//114
f 87//115 88//115 75//113
f 76//113 75//113 88//115
f 81//114 93//116 82//114
f 94//116 82//114 93//116
f 99//117 100//117 87//115
f 88//115 87//115 100//117
f 93//116 105//118 94//116
f 106//118 94//116 105//118
f 111//119 112//119 99//117
f 100//117 99//117 112//119
f 105//118 117//120 106//118
f 118//120 106//118 117//120
f 123//121 124//121 111//119
f 112//119 111//119 124//121
f 117//120 129//122 118//120
f 130//122 118//120 129//122
f 135//123 136//123 123//121
f 124//121 123//121 136//123
f 129//122 141//124 130//122
f 142//124 130//122 141//124
f 147//125 148//125 135//123
f 136//123 135//123 148//125
f 141//124 153//126 142//124
f 154//126 142//124 153//126
f 159//127 160//127 147//125
f 148//125 147//125 160//127
f 153//126 165//128 154//126
f 166//128 154//126 165//128
f 171//129 172//129 159//127
f 160//127 159//127 172//129
f 165//128 177//130 166//128
f 178//130 166//128 177//130
f 183//131 184//131 171//129
f 172//129 171//129 184//131
f 177//130 189//132 178//130
f 190//132 178//130 189//132
f 195//133 196//133 183//131
f 184//131 183//131 196//133
f 189//132 201//134 190//132
f 202//134 190//132 201//134
f 207//135 208//135 195//133
f 196//133 195//133 208//135
f 201//134 213//136 202//134
f 214//136 202//134 213//136
f 219//137 220//137 207//135
f 208//135 207//135 220//137
f 213//136 225//138 214//136
f 226//138 214//136 225//138
f 231//139 232//139 219//137
f 220//137 219//137 232//139
f 225//138 237//140 226//138
f 238//140 226//138 237//140
f 243//141 244//141 231//139
f 232//139 231//139 244//141
f 237//140 249//142 238//140
f 250//142 238//140 249//142
f 255//143 256//143 243//141
f 244//141 243//141 256//143
f 249//142 261//144 250//142
f 262//144 250//142 261//144
f 267//145 268//145 255//143
f 256//143 255//143 268//145
f 261//144 273//146 262//144
f 274//146 262//144 273//146
f 279//147 280//147 267//145
f 268//145 267//145 280//147
f 273//146 285//148 274//146
f 286//148 274//146 285//148
f 291//149 292//149 279//147
f 280//147 279//147 292//149
f 285//148 297//150 286//148
f 298//150 286//148 297//150
f 291//149 303//151 292//149
f 304//151 292//149 303//151
f 297//150 309//152 298//150
f 310//152 298//150 309//152
f 303//151 315//153 304//151
f 316//153 304//151 315//153
f 321//154 322//154 309//152
f 310//152 309//152 322//154
f 315//153 327//155 316//153
f 328//155 316//153 327//155
f 333//156 334//156 321//154
f 322//154 321//154 334//156
f 327//155 339//157 328//155
f 340//157 328//155 339//157
f 345//158 346//158 333//156
f 334//156 333//156 346//158
f 339//157 351//159 340//157
f 352//159 340//157 351//159
f 357//160 358//160 345//158
f 346//158 345//158 358//160
f 351//159 363//161 352//159
f 364//161 352//159 363//161
f 369//162 370//162 357//160
f 358//160 357//160 370//162
f 363//161 375//163 364//161
f 376//163 364//161 375//163
f 381//164 382//164 369//162
f 370//162 369//162 382//164
f 375//163 387//165 376//163
f 388//165 376//163 387//165
f 393//166 394//166 381//164
f 382//164 381//164 394//166
f 387//165 399//167 388//165
f 400//167 388//165 399//167
f 405//168 406//168 393//166
f 394//166 393//166 406//168
f 399//167 411//169 400//167
f 412//169 400//167 411//169
f 417//170 418//170 405//168
f 406//168 405//168 418//170
f 411//169 423//171 412//169
f 424//171 412//169 423//171
f 429//172 430//172 417//170
f 418//170 417//170 430//172
f 423//171 435//173 424//171
f 436//173 424//171 435//173
f 441//174 442//174 429//172
f 430//172 429//172 442//174
f 435//173 447//175 436//173
f 448//175 436//173 447//175
f 453//176 454//176 441//174
f 442//174 441//174 454//176
f 447//175 459//177 448//175
f 460//177 448//175 459//177
f 465//178 466//178 453//176
f 454//176 453//176 466//178
f 459//177 471//179 460//177
f 472//179 460//177 471//179
f 477//180 478//180 465//178
f 466//178 465//178 478//180
f 471//179 483//181 472//179
f 484//181 472//179 483//181
f 489//182 490//182 477//180
f 478//180 477//180 490//182
f 483//181 495//183 484//181
f 496//183 484//181 495//183
f 501//184 502//184 489//182
f 490//182 489//182 502//184
f 495//183 507//185 496//183
f 508//185 496//183 507//185
f 513//186 514//186 501//184
f 502//184 501//184 514//186
f 507//185 519//187 508//185
f 520//187 508//185 519//187
f 525//188 526//188 513//186
f 514//186 513//186 526//188
f 519//187 531//189 520//187
f 532//189 520//187 531//189
f 537//190 538//190 525//188
f 526//188 525//188 538//190
f 531//189 543//191 532//189
f 544//191 532//189 543//191
f 549//192 550//192 537//190
f 538//190 537//190 550//192
f 543//191 555//193 544//191
f 556//193 544//191 555//193
f 561//194 562//194 549//192
f 550//192 549//192 562//194
f 555//193 567//195 556//193
f 568//195 556//193 567//195
f 573//196 574//196 561//194
f 562//194 561//194 574//196
f 567//195 579//197 568//195
f 580//197 568//195 579//197
f 585//198 586//198 573//196
f 574//196 573//196 586//198
f 579//197 591//199 580//197
f 592//199 580//197 591//199
f 597//200 598//200 585//198
f 586//198 585//198 598//200
f 592//199 591//199 597//200
f 598//200 597//200 591//199
usemtl material_1_0
f 1//1 2//2 3//2
f 2//2 1//1 4//1
f 13//3 4//1 1//1
f 4//1 13//3 14//3
f 19//4 2//2 20//4
f 2//2 19//4 3//2
f 25//5 14//3 13//3
f 14//3 25//5 26//5
f 31//6 20//4 32//6
f 20//4 31//6 19//4
f 37//7 26//5 25//5
f 26//5 37//7 38//7
f 43//8 32//6 44//8
f 32//6 43//8 31//6
f 49//9 38//7 37//7
f 38//7 49//9 50//9
f 55//10 44//8 56//10
f 44//8 55//10 43//8
f 61//11 50//9 49//9
f 50//9 61//11 62//11
f 67//12 56//10 68//12
f 56//10 67//12 55//10
f 73//13 62//11 61//11
f 62//11 73//13 74//13
f 79//14 68//12 80//14
f 68//12 79//14 67//12
f 85//15 74//13 73//13
f 74//13 85//15 86//15
f 91//16 80//14 92//16
f 80//14 91//16 79//14
f 97//17 86//15 85//15
f 86//15 97//17 98//17
f 103//18 92//16 104//18
f 92//16 103//18 91//16
f 109//19 98//17 97//17
f 98//17 109//19 110//19
f 115//20 104//18 116//20
f 104//18 115//20 103//18
f 121//21 110//19 109//19
f 110//19 121//21 122//21
f 127//22 116//20 128//22
f 116//20 127//22 115//20
f 133//23 122//21 121//21
f 122//21 133//23 134//23
f 139//24 128//22 140//24
f 128//22 139//24 127//22
f 145//25 134//23 133//23
f 134//23 145//25 146//25
f 151//26 140//24 152//26
f 140//24 151//26 139//24
f 157//27 146//25 145//25
f 146//25 157//27 158//27
f 163//28 152//26 164//28
f 152//26 163//28 151//26
f 169//29 158//27 157//27
f 158//27 169//29 170//29
f 175//30 164//28 176//30
f 164//28 175//30 163//28
f 181//31 170//29 169//29
f 170//29 181//31 182//31
f 187//32 176//30 188//32
f 176//30 187//32 175//30
f 193//33 182//31 181//31
f 182//31 193//33 194//33
f 199//34 188//32 200//34
f 188//32 199//34 187//32
f 205//35 194//33 193//33
f 194//33 205//35 206//35
f 211//36 200//34 212//36
f 200//34 211//36 199//34
f 217//37 206//35 205//35
f 206//35 217//37 218//37
f 223//38 212//36 224//38
f 212//36 223//38 211//36
f 229//39 218//37 217//37
f 218//37 229//39 230//39
f 235//40 224//38 236//40
f 224//38 235//40 223//38
f 241//41 230//39 229//39
f 230//39 241//41 242//41
f 247//42 236//40 248//42
f 236//40 247//42 235//40
f 253//43 242//41 241//41
f 242//41 253//43 254//43
f 259//44 248//42 260//44
f 248//42 259//44 247//42
f 265//45 254//43 253//43
f 254//43 265//45 266//45
f 271//46 260//44 272//46
f 260//44 271//46 259//44
f 277//47 266//45 265//45
f 266//45 277//47 278//47
f 283//48 272//46 284//48
f 272//46 283//48 271//46
f 289//49 278//47 277//47
f 278//47 289//49 290//49
f 295//50 284//48 296//50
f 284//48 295//50 283//48
f 301//51 289//49 302//51
f 289//49 301//51 290//49
f 307//52 296//50 308//52
f 296//50 307//52 295//50
f 313//53 302//51 314//53
f 302//51 313//53 301//51
f 319//54 307//52 308//52
f 307//52 319//54 320//54
f 325//55 314//53 326//55
f 314//53 325//55 313//53
f 331//56 320//54 319//54
f 320//54 331//56 332//56
f 337//57 326//55 338//57
f 326//55 337//57 325//55
f 343//58 332//56 331//56
f 332//56 343//58 344//58
f 349//59 338//57 350//59
f 338//57 349//59 337//57
f 355//60 344//58 343//58
f 344//58 355//60 356//60
f 361//61 350//59 362//61
f 350//59 361//61 349//59
f 367//62 356//60 355//60
f 356//60 367//62 368//62
f 373//63 362//61 374//63
f 362//61 373//63 361//61
f 379//64 368//62 367//62
f 368//62 379//64 380//64
f 385//65 374//63 386//65
f 374//63 385//65 373//63
f 391//66 380//64 379//64
f 380//64 391//66 392//66
f 397//67 386//65 398//67
f 386//65 397//67 385//65
f 403//68 392//66 391//66
f 392//66 403//68 404//68
f 409//69 398//67 410//69
f 398//67 409//69 397//67
f 415//70 404//68 403//68
f 404//68 415//70 416//70
f 421//71 410//69 422//71
f 410//69 421//71 409//69
f 427//72 416//70 415//70
f 416//70 427//72 428//72
f 433//73 422//71 434//73
f 422//71 433//73 421//71
f 439//74 428//72 427//72
f 428//72 439//74 440//74
f 445//75 434//73 446//75
f 434//73 445//75 433//73
f 451//76 440//74 439//74
f 440//74 451//76 452//76
f 457//77 446//75 458//77
f 446//75 457//77 445//75
f 463//78 452//76 451//76
f 452//76 463//78 464//78
f 469//79 458//77 470//79
f 458//77 469//79 457//77
f 475//80 464//78 463//78
f 464//78 475//80 476//80
f 481//81 470//79 482//81
f 470//79 481//81 469//79
f 487//82 476//80 475//80
f 476//80 487//82 488//82
f 493//83 482//81 494//83
f 482//81 493//83 481//81
f 499//84 488//82 487//82
f 488//82 499//84 500//84
f 505//85 494//83 506//85
f 494//83 505//85 493//83
f 511//86 500//84 499//84
f 500//84 511//86 512//86
f 517//87 506//85 518//87
f 506//85 517//87 505//85
f 523//88 512//86 511//86
f 512//86 523//88 524//88
f 529//89 518//87 530//89
f 518//87 529//89 517//87
f 535//90 524//88 523//88
f 524//88 535//90 536//90
f 541//91 530//89 542//91
f 530//89 541//91 529//89
f 547//92 536//90 535//90
f 536//90 547//92 548//92
f 553//93 542//91 554//93
f 542//91 553//93 541//91
f 559//94 548//92 547//92
f 548//92 559//94 560//94
f 565//95 554//93 566//95
f 554//93 565//95 553//93
f 571//96 560//94 559//94
f 560//94 571//96 572//96
f 577//97 566//95 578//97
f 566//95 577//97 565//95
f 583//98 572//96 571//96
f 572//96 583//98 584//98
f 589//99 578//97 590//99
f 578//97 589//99 577//97
f 595//100 584//98 583//98
f 584//98 595//100 596//100
f 589//99 596//100 595//100
f 596//100 589//99 590//99
usemtl material_2_0
