# SSTK version 0.8.0
# 154
mtllib original-154.mtl
o #ID316
v -0.044980 0.394028 -0.189415
v -0.064384 0.392194 0.317556
v -0.064384 0.392194 -0.189415
v -0.044980 0.394028 0.317556
v -0.044980 0.394028 0.317556
v -0.044980 0.394028 -0.189415
v -0.064384 0.392194 0.317556
v -0.064384 0.392194 -0.189415
v -0.064384 0.392194 0.317556
v -0.044980 0.394028 0.317556
v -0.064384 0.392194 -0.189415
v -0.044980 0.394028 -0.189415
v -0.090493 0.388059 -0.189415
v -0.090493 0.388059 0.317556
v -0.090493 0.388059 0.317556
v -0.090493 0.388059 -0.189415
v -0.090493 0.388059 0.317556
v -0.090493 0.388059 -0.189415
v -0.116290 0.382292 -0.189415
v -0.116290 0.382292 0.317556
v -0.116290 0.382292 0.317556
v -0.116290 0.382292 -0.189415
v -0.116290 0.382292 0.317556
v -0.116290 0.382292 -0.189415
v -0.141675 0.374917 0.317556
v -0.141675 0.374917 -0.189415
v -0.141675 0.374917 0.317556
v -0.141675 0.374917 -0.189415
v -0.141675 0.374917 0.317556
v -0.141675 0.374917 -0.189415
v -0.166547 0.365963 0.317556
v -0.166547 0.365963 -0.189415
v -0.166547 0.365963 0.317556
v -0.166547 0.365963 -0.189415
v -0.166547 0.365963 0.317556
v -0.166547 0.365963 -0.189415
v -0.190807 0.355465 0.317556
v -0.190807 0.355465 -0.189415
v -0.190807 0.355465 0.317556
v -0.190807 0.355465 -0.189415
v -0.190807 0.355465 0.317556
v -0.190807 0.355465 -0.189415
v -0.214360 0.343464 -0.189415
v -0.214360 0.343464 0.317556
v -0.214360 0.343464 0.317556
v -0.214360 0.343464 -0.189415
v -0.214360 0.343464 0.317556
v -0.214360 0.343464 -0.189415
v -0.237113 0.330008 -0.189415
v -0.237113 0.330008 0.317556
v -0.237113 0.330008 0.317556
v -0.237113 0.330008 -0.189415
v -0.237113 0.330008 0.317556
v -0.237113 0.330008 -0.189415
v -0.258977 0.315149 0.317556
v -0.258977 0.315149 -0.189415
v -0.258977 0.315149 0.317556
v -0.258977 0.315149 -0.189415
v -0.258977 0.315149 0.317556
v -0.258977 0.315149 -0.189415
v -0.279864 0.298947 0.317556
v -0.279864 0.298947 -0.189415
v -0.279864 0.298947 0.317556
v -0.279864 0.298947 -0.189415
v -0.279864 0.298947 0.317556
v -0.279864 0.298947 -0.189415
v -0.299692 0.281466 -0.189415
v -0.299692 0.281466 0.317556
v -0.299692 0.281466 0.317556
v -0.299692 0.281466 -0.189415
v -0.299692 0.281466 0.317556
v -0.299692 0.281466 -0.189415
v -0.318384 0.262774 0.317556
v -0.318384 0.262774 -0.189415
v -0.318384 0.262774 0.317556
v -0.318384 0.262774 -0.189415
v -0.318384 0.262774 0.317556
v -0.318384 0.262774 -0.189415
v -0.335866 0.242945 0.317556
v -0.335866 0.242945 -0.189415
v -0.335866 0.242945 0.317556
v -0.335866 0.242945 -0.189415
v -0.335866 0.242945 0.317556
v -0.335866 0.242945 -0.189415
v -0.352068 0.222058 0.317556
v -0.352068 0.222058 -0.189415
v -0.352068 0.222058 0.317556
v -0.352068 0.222058 -0.189415
v -0.352068 0.222058 0.317556
v -0.352068 0.222058 -0.189415
v -0.366926 0.200195 -0.189415
v -0.366926 0.200195 0.317556
v -0.366926 0.200195 -0.189415
v -0.366926 0.200195 0.317556
v -0.366926 0.200195 0.317556
v -0.366926 0.200195 -0.189415
v -0.380382 0.177442 0.317556
v -0.380382 0.177442 -0.189415
v -0.380382 0.177442 0.317556
v -0.380382 0.177442 -0.189415
v -0.380382 0.177442 0.317556
v -0.380382 0.177442 -0.189415
v -0.392383 0.153889 -0.189415
v -0.392383 0.153889 0.317556
v -0.392383 0.153889 -0.189415
v -0.392383 0.153889 0.317556
v -0.392383 0.153889 0.317556
v -0.392383 0.153889 -0.189415
v -0.402881 0.129628 0.317556
v -0.402881 0.129628 -0.189415
v -0.402881 0.129628 0.317556
v -0.402881 0.129628 -0.189415
v -0.402881 0.129628 0.317556
v -0.402881 0.129628 -0.189415
v -0.411836 0.104757 0.317556
v -0.411836 0.104757 -0.189415
v -0.411836 0.104757 0.317556
v -0.411836 0.104757 -0.189415
v -0.411836 0.104757 0.317556
v -0.411836 0.104757 -0.189415
v -0.419211 0.079372 -0.189415
v -0.419211 0.079372 0.317556
v -0.419211 0.079372 -0.189415
v -0.419211 0.079372 0.317556
v -0.419211 0.079372 0.317556
v -0.419211 0.079372 -0.189415
v -0.424977 0.053574 0.317556
v -0.424977 0.053574 -0.189415
v -0.424977 0.053574 0.317556
v -0.424977 0.053574 -0.189415
v -0.424977 0.053574 0.317556
v -0.424977 0.053574 -0.189415
v -0.429112 0.027465 0.317556
v -0.429112 0.027465 -0.189415
v -0.429112 0.027465 0.317556
v -0.429112 0.027465 -0.189415
v -0.429112 0.027465 0.317556
v -0.429112 0.027465 -0.189415
v -0.430736 0.010287 -0.189415
v -0.430736 0.010287 0.317556
v -0.430736 0.010287 -0.189415
v -0.430736 0.010287 0.317556
v -0.430736 0.010287 0.317556
v -0.430736 0.010287 -0.189415
vt -7.000769 5.686623
vt -8.500769 5.628956
vt -7.000769 5.628956
vt -8.500769 5.686623
vt -8.500769 5.795411
vt -7.000769 5.717198
vt -7.000769 5.795411
vt -8.500769 5.717198
vt -8.500769 5.860936
vt -7.000769 5.782723
vt -7.000769 5.860936
vt -8.500769 5.782723
vt -7.000769 5.903485
vt -8.500769 5.825273
vt -7.000769 5.825273
vt -8.500769 5.903485
vt -7.000769 5.92289
vt -8.500769 5.844678
vt -7.000769 5.844678
vt -8.500769 5.92289
vt -7.000769 5.919075
vt -8.500769 5.840862
vt -7.000769 5.840862
vt -8.500769 5.919075
vt -8.500769 5.892053
vt -7.000769 5.813841
vt -7.000769 5.892053
vt -8.500769 5.813841
vt -8.500769 5.841933
vt -7.000769 5.763721
vt -7.000769 5.841933
vt -8.500769 5.763721
vt -7.000769 5.768912
vt -8.500769 5.6907
vt -7.000769 5.6907
vt -8.500769 5.768912
vt -7.000769 5.673278
vt -8.500769 5.595066
vt -7.000769 5.595066
vt -8.500769 5.673278
vt -8.500769 5.555409
vt -7.000769 5.477196
vt -7.000769 5.555409
vt -8.500769 5.477196
vt -7.000769 5.415769
vt -8.500769 5.337556
vt -7.000769 5.337556
vt -8.500769 5.415769
vt -7.000769 5.25491
vt -8.500769 5.176697
vt -7.000769 5.176697
vt -8.500769 5.25491
vt -7.000769 5.073466
vt -8.500769 4.995253
vt -7.000769 4.995253
vt -8.500769 5.073466
vt -7.000769 4.793942
vt -8.500769 4.872154
vt -8.500769 4.793942
vt -7.000769 4.872154
vt -7.000769 4.651769
vt -8.500769 4.573556
vt -7.000769 4.573556
vt -8.500769 4.651769
vt -7.000769 4.334966
vt -8.500769 4.413179
vt -8.500769 4.334966
vt -7.000769 4.413179
vt -7.000769 4.157327
vt -8.500769 4.079114
vt -7.000769 4.079114
vt -8.500769 4.157327
vt -7.000769 3.885222
vt -8.500769 3.807009
vt -7.000769 3.807009
vt -8.500769 3.885222
vt -7.000769 3.519725
vt -8.500769 3.597938
vt -8.500769 3.519725
vt -7.000769 3.597938
vt -7.000769 3.296609
vt -8.500769 3.218396
vt -7.000769 3.218396
vt -8.500769 3.296609
vt -7.000769 2.982424
vt -8.500769 2.904212
vt -7.000769 2.904212
vt -8.500769 2.982424
vt -7.000769 2.605573
vt -8.500769 2.656623
vt -8.500769 2.605573
vt -7.000769 2.656623
vn 0.09410830671302954 -0.9955619652274822 0
vn 0.1253332006906906 -0.9921147054673806 0
vn 0.18738129144314172 -0.9822872551433722 0
vn 0.24868988984297663 -0.9685831604410063 0
vn 0.3090170042518809 -0.9510565130859434 0
vn 0.368124588757952 -0.9297764716058311 0
vn 0.42577928015806865 -0.9048270578337482 0
vn 0.4817536855645931 -0.8763066737420931 0
vn 0.5358268100958747 -0.8443279159085524 0
vn 0.5877852808425821 -0.8090169736320784 0
vn 0.6374240168438534 -0.7705132203607198 0
vn 0.6845471164618626 -0.7289686175301027 0
vn 0.7289686175301027 -0.6845471164618626 0
vn 0.7705132203607198 -0.6374240168438534 0
vn 0.8090169736320784 -0.5877852808425821 0
vn 0.8443279159085524 -0.5358268100958747 0
vn 0.8763066737420931 -0.4817536855645931 0
vn 0.9048270578337482 -0.42577928015806865 0
vn 0.9297764716058311 -0.368124588757952 0
vn 0.9510565130859434 -0.3090170042518809 0
vn 0.9685831604410063 -0.24868988984297663 0
vn 0.9822872551433722 -0.18738129144314172 0
vn 0.9921147054673806 -0.1253332006906906 0
vn 0.9955619652274822 -0.09410830671302954 0
vn -0.09410830671302954 0.9955619652274822 0
vn -0.1253332006906906 0.9921147054673806 0
vn -0.18738129144314172 0.9822872551433722 0
vn -0.24868988984297663 0.9685831604410063 0
vn -0.3090170042518809 0.9510565130859434 0
vn -0.368124588757952 0.9297764716058311 0
vn -0.42577928015806865 0.9048270578337482 0
vn -0.4817536855645931 0.8763066737420931 0
vn -0.5358268100958747 0.8443279159085524 0
vn -0.5877852808425821 0.8090169736320784 0
vn -0.6374240168438534 0.7705132203607198 0
vn -0.6845471164618626 0.7289686175301027 0
vn -0.7289686175301027 0.6845471164618626 0
vn -0.7705132203607198 0.6374240168438534 0
vn -0.8090169736320784 0.5877852808425821 0
vn -0.8443279159085524 0.5358268100958747 0
vn -0.8763066737420931 0.4817536855645931 0
vn -0.9048270578337482 0.42577928015806865 0
vn -0.9297764716058311 0.368124588757952 0
vn -0.9510565130859434 0.3090170042518809 0
vn -0.9685831604410063 0.24868988984297663 0
vn -0.9822872551433722 0.18738129144314172 0
vn -0.9921147054673806 0.1253332006906906 0
vn -0.9955619652274822 0.09410830671302954 0
usemtl material_0_0
f 5//25 6//25 7//26
f 8//26 7//26 6//25
f 15//27 7//26 16//27
f 8//26 16//27 7//26
f 21//28 15//27 22//28
f 16//27 22//28 15//27
f 21//28 22//28 27//29
f 28//29 27//29 22//28
f 27//29 28//29 33//30
f 34//30 33//30 28//29
f 33//30 34//30 39//31
f 40//31 39//31 34//30
f 45//32 39//31 46//32
f 40//31 46//32 39//31
f 51//33 45//32 52//33
f 46//32 52//33 45//32
f 51//33 52//33 57//34
f 58//34 57//34 52//33
f 57//34 58//34 63//35
f 64//35 63//35 58//34
f 69//36 63//35 70//36
f 64//35 70//36 63//35
f 69//36 70//36 75//37
f 76//37 75//37 70//36
f 75//37 76//37 81//38
f 82//38 81//38 76//37
f 81//38 82//38 87//39
f 88//39 87//39 82//38
f 88//39 93//40 87//39
f 94//40 87//39 93//40
f 94//40 93//40 99//41
f 100//41 99//41 93//40
f 100//41 105//42 99//41
f 106//42 99//41 105//42
f 106//42 105//42 111//43
f 112//43 111//43 105//42
f 111//43 112//43 117//44
f 118//44 117//44 112//43
f 118//44 123//45 117//44
f 124//45 117//44 123//45
f 124//45 123//45 129//46
f 130//46 129//46 123//45
f 129//46 130//46 135//47
f 136//47 135//47 130//46
f 136//47 141//48 135//47
f 142//48 135//47 141//48
usemtl material_1_0
f 1/1/1 2/2/2 3/3/2
f 2/2/2 1/1/1 4/4/1
f 2/5/2 13/6/3 3/7/2
f 13/6/3 2/5/2 14/8/3
f 14/9/3 19/10/4 13/11/3
f 19/10/4 14/9/3 20/12/4
f 19/13/4 25/14/5 26/15/5
f 25/14/5 19/13/4 20/16/4
f 26/17/5 31/18/6 32/19/6
f 31/18/6 26/17/5 25/20/5
f 32/21/6 37/22/7 38/23/7
f 37/22/7 32/21/6 31/24/6
f 37/25/7 43/26/8 38/27/7
f 43/26/8 37/25/7 44/28/8
f 44/29/8 49/30/9 43/31/8
f 49/30/9 44/29/8 50/32/9
f 49/33/9 55/34/10 56/35/10
f 55/34/10 49/33/9 50/36/9
f 56/37/10 61/38/11 62/39/11
f 61/38/11 56/37/10 55/40/10
f 61/41/11 67/42/12 62/43/11
f 67/42/12 61/41/11 68/44/12
f 67/45/12 73/46/13 74/47/13
f 73/46/13 67/45/12 68/48/12
f 74/49/13 79/50/14 80/51/14
f 79/50/14 74/49/13 73/52/13
f 80/53/14 85/54/15 86/55/15
f 85/54/15 80/53/14 79/56/14
f 91/57/16 85/58/15 92/59/16
f 85/58/15 91/57/16 86/60/15
f 91/61/16 97/62/17 98/63/17
f 97/62/17 91/61/16 92/64/16
f 103/65/18 97/66/17 104/67/18
f 97/66/17 103/65/18 98/68/17
f 103/69/18 109/70/19 110/71/19
f 109/70/19 103/69/18 104/72/18
f 110/73/19 115/74/20 116/75/20
f 115/74/20 110/73/19 109/76/19
f 121/77/21 115/78/20 122/79/21
f 115/78/20 121/77/21 116/80/20
f 121/81/21 127/82/22 128/83/22
f 127/82/22 121/81/21 122/84/21
f 128/85/22 133/86/23 134/87/23
f 133/86/23 128/85/22 127/88/22
f 139/89/24 133/90/23 140/91/24
f 133/90/23 139/89/24 134/92/23
usemtl material_2_0
usemtl material_3_0
