# SSTK version 0.8.0
# 140
mtllib original-140.mtl
o #ID211
v -0.009096 0.502997 0.452748
v -0.008158 0.501866 0.454438
v -0.008158 0.501866 0.452748
v -0.009096 0.502997 0.454438
v -0.009096 0.502997 0.454438
v -0.009096 0.502997 0.452748
v -0.008158 0.501866 0.454438
v -0.008158 0.501866 0.452748
v -0.008158 0.501866 0.454438
v -0.009096 0.502997 0.454438
v -0.008158 0.501866 0.452748
v -0.009096 0.502997 0.452748
v -0.009487 0.503388 0.454438
v -0.009096 0.502997 0.452748
v -0.009487 0.503388 0.452748
v -0.009096 0.502997 0.454438
v -0.009096 0.502997 0.454438
v -0.009487 0.503388 0.454438
v -0.009096 0.502997 0.452748
v -0.009487 0.503388 0.452748
v -0.009487 0.503388 0.454438
v -0.009487 0.503388 0.452748
vn 0.7695372835415601 0.6386018863419343 0
vn -0.7695372835415601 -0.6386018863419343 0
vn 0.7071067811865476 0.7071067811865476 0
vn -0.7071067811865476 -0.7071067811865476 0
usemtl material_0_0
f 1//1 2//1 3//1
f 2//1 1//1 4//1
f 5//2 6//2 7//2
f 8//2 7//2 6//2
f 13//3 14//3 15//3
f 14//3 13//3 16//3
f 17//4 18//4 19//4
f 20//4 19//4 18//4
usemtl material_1_0
