# SSTK version 0.8.0
# 157
mtllib original-157.mtl
o #ID344
v -0.044980 -0.444574 -0.189415
v -0.044217 -0.444598 0.317556
v -0.044217 -0.444598 -0.189415
v -0.044980 -0.444574 0.317556
v -0.044980 -0.444574 0.317556
v -0.044980 -0.444574 -0.189415
v -0.044217 -0.444598 0.317556
v -0.044217 -0.444598 -0.189415
v -0.044217 -0.444598 0.317556
v -0.044980 -0.444574 0.317556
v -0.044217 -0.444598 -0.189415
v -0.044980 -0.444574 -0.189415
v -0.043510 -0.444530 0.317556
v -0.043510 -0.444530 -0.189415
v -0.043510 -0.444530 0.317556
v -0.043510 -0.444530 -0.189415
v -0.043510 -0.444530 0.317556
v -0.043510 -0.444530 -0.189415
v -0.042818 -0.444373 -0.189415
v -0.042818 -0.444373 0.317556
v -0.042818 -0.444373 0.317556
v -0.042818 -0.444373 -0.189415
v -0.042818 -0.444373 0.317556
v -0.042818 -0.444373 -0.189415
v -0.042152 -0.444130 -0.189415
v -0.042152 -0.444130 0.317556
v -0.042152 -0.444130 0.317556
v -0.042152 -0.444130 -0.189415
v -0.042152 -0.444130 0.317556
v -0.042152 -0.444130 -0.189415
v -0.041521 -0.443805 -0.189415
v -0.041521 -0.443805 0.317556
v -0.041521 -0.443805 0.317556
v -0.041521 -0.443805 -0.189415
v -0.041521 -0.443805 0.317556
v -0.041521 -0.443805 -0.189415
v -0.040937 -0.443402 0.317556
v -0.040937 -0.443402 -0.189415
v -0.040937 -0.443402 0.317556
v -0.040937 -0.443402 -0.189415
v -0.040937 -0.443402 0.317556
v -0.040937 -0.443402 -0.189415
v -0.040408 -0.442929 -0.189415
v -0.040408 -0.442929 0.317556
v -0.040408 -0.442929 0.317556
v -0.040408 -0.442929 -0.189415
v -0.040408 -0.442929 0.317556
v -0.040408 -0.442929 -0.189415
v -0.039944 -0.442393 -0.189415
v -0.039944 -0.442393 0.317556
v -0.039944 -0.442393 0.317556
v -0.039944 -0.442393 -0.189415
v -0.039944 -0.442393 0.317556
v -0.039944 -0.442393 -0.189415
v -0.039551 -0.441802 -0.189415
v -0.039551 -0.441802 0.317556
v -0.039551 -0.441802 0.317556
v -0.039551 -0.441802 -0.189415
v -0.039551 -0.441802 0.317556
v -0.039551 -0.441802 -0.189415
v -0.039235 -0.441166 0.317556
v -0.039235 -0.441166 -0.189415
v -0.039235 -0.441166 -0.189415
v -0.039235 -0.441166 0.317556
v -0.039235 -0.441166 0.317556
v -0.039235 -0.441166 -0.189415
v -0.039003 -0.440496 0.317556
v -0.039003 -0.440496 -0.189415
v -0.039003 -0.440496 -0.189415
v -0.039003 -0.440496 0.317556
v -0.039003 -0.440496 0.317556
v -0.039003 -0.440496 -0.189415
v -0.038847 -0.439749 0.317556
v -0.038847 -0.439749 -0.189415
v -0.038847 -0.439749 -0.189415
v -0.038847 -0.439749 0.317556
v -0.038847 -0.439749 0.317556
v -0.038847 -0.439749 -0.189415
v -0.038847 -0.439749 0.317556
v -0.031416 -0.388225 -0.189415
v -0.038847 -0.439749 -0.189415
v -0.031416 -0.388225 0.317556
v -0.031416 -0.388225 0.317556
v -0.038847 -0.439749 0.317556
v -0.031416 -0.388225 -0.189415
v -0.038847 -0.439749 -0.189415
v -0.031416 -0.388225 0.317556
v -0.031416 -0.388225 -0.189415
v -0.031416 -0.388225 0.317556
v -0.031152 -0.386941 -0.189415
v -0.031416 -0.388225 -0.189415
v -0.031152 -0.386941 0.317556
v -0.031152 -0.386941 0.317556
v -0.031416 -0.388225 0.317556
v -0.031152 -0.386941 -0.189415
v -0.031416 -0.388225 -0.189415
v -0.031152 -0.386941 0.317556
v -0.031152 -0.386941 -0.189415
v -0.030722 -0.385649 -0.189415
v -0.030722 -0.385649 0.317556
v -0.030722 -0.385649 0.317556
v -0.030722 -0.385649 -0.189415
v -0.030722 -0.385649 0.317556
v -0.030722 -0.385649 -0.189415
v -0.030141 -0.384418 0.317556
v -0.030141 -0.384418 -0.189415
v -0.030141 -0.384418 -0.189415
v -0.030141 -0.384418 0.317556
v -0.030141 -0.384418 0.317556
v -0.030141 -0.384418 -0.189415
v -0.029418 -0.383265 0.317556
v -0.029418 -0.383265 -0.189415
v -0.029418 -0.383265 -0.189415
v -0.029418 -0.383265 0.317556
v -0.029418 -0.383265 0.317556
v -0.029418 -0.383265 -0.189415
v -0.028564 -0.382205 0.317556
v -0.028564 -0.382205 -0.189415
v -0.028564 -0.382205 -0.189415
v -0.028564 -0.382205 0.317556
v -0.028564 -0.382205 0.317556
v -0.028564 -0.382205 -0.189415
v -0.027590 -0.381254 -0.189415
v -0.027590 -0.381254 0.317556
v -0.027590 -0.381254 0.317556
v -0.027590 -0.381254 -0.189415
v -0.027590 -0.381254 0.317556
v -0.027590 -0.381254 -0.189415
v -0.026510 -0.380426 -0.189415
v -0.026510 -0.380426 0.317556
v -0.026510 -0.380426 0.317556
v -0.026510 -0.380426 -0.189415
v -0.026510 -0.380426 0.317556
v -0.026510 -0.380426 -0.189415
v -0.025339 -0.379732 0.317556
v -0.025339 -0.379732 -0.189415
v -0.025339 -0.379732 0.317556
v -0.025339 -0.379732 -0.189415
v -0.025339 -0.379732 0.317556
v -0.025339 -0.379732 -0.189415
v -0.024094 -0.379181 -0.189415
v -0.024094 -0.379181 0.317556
v -0.024094 -0.379181 0.317556
v -0.024094 -0.379181 -0.189415
v -0.024094 -0.379181 0.317556
v -0.024094 -0.379181 -0.189415
v -0.022793 -0.378782 -0.189415
v -0.022793 -0.378782 0.317556
v -0.022793 -0.378782 0.317556
v -0.022793 -0.378782 -0.189415
v -0.022793 -0.378782 0.317556
v -0.022793 -0.378782 -0.189415
v -0.021454 -0.378541 0.317556
v -0.021454 -0.378541 -0.189415
v -0.021454 -0.378541 0.317556
v -0.021454 -0.378541 -0.189415
v -0.021454 -0.378541 0.317556
v -0.021454 -0.378541 -0.189415
v -0.020145 -0.378463 -0.189415
v -0.020145 -0.378463 0.317556
v -0.020145 -0.378463 0.317556
v -0.020145 -0.378463 -0.189415
v -0.020145 -0.378463 0.317556
v -0.020145 -0.378463 -0.189415
v -0.020145 -0.378463 0.317556
v -0.011610 -0.378463 -0.189415
v -0.020145 -0.378463 -0.189415
v -0.003074 -0.378463 0.317556
v -0.003074 -0.378463 -0.189415
v -0.020145 -0.378463 0.317556
v -0.011610 -0.378463 -0.189415
v -0.003074 -0.378463 0.317556
v -0.003074 -0.378463 -0.189415
v -0.020145 -0.378463 -0.189415
v -0.003074 -0.378463 0.317556
v -0.003074 -0.378463 -0.189415
v -0.011610 -0.378463 -0.189415
v -0.003074 -0.378463 0.317556
v -0.001776 -0.378540 -0.189415
v -0.003074 -0.378463 -0.189415
v -0.001776 -0.378540 0.317556
v -0.001776 -0.378540 0.317556
v -0.003074 -0.378463 0.317556
v -0.001776 -0.378540 -0.189415
v -0.003074 -0.378463 -0.189415
v -0.001776 -0.378540 0.317556
v -0.001776 -0.378540 -0.189415
v -0.000446 -0.378780 0.317556
v -0.000446 -0.378780 -0.189415
v -0.000446 -0.378780 0.317556
v -0.000446 -0.378780 -0.189415
v -0.000446 -0.378780 0.317556
v -0.000446 -0.378780 -0.189415
v 0.000846 -0.379176 -0.189415
v 0.000846 -0.379176 0.317556
v 0.000846 -0.379176 0.317556
v 0.000846 -0.379176 -0.189415
v 0.000846 -0.379176 0.317556
v 0.000846 -0.379176 -0.189415
v 0.002082 -0.379723 -0.189415
v 0.002082 -0.379723 0.317556
v 0.002082 -0.379723 0.317556
v 0.002082 -0.379723 -0.189415
v 0.002082 -0.379723 0.317556
v 0.002082 -0.379723 -0.189415
v 0.003245 -0.380412 -0.189415
v 0.003245 -0.380412 0.317556
v 0.003245 -0.380412 0.317556
v 0.003245 -0.380412 -0.189415
v 0.003245 -0.380412 0.317556
v 0.003245 -0.380412 -0.189415
v 0.004317 -0.381234 0.317556
v 0.004317 -0.381234 -0.189415
v 0.004317 -0.381234 0.317556
v 0.004317 -0.381234 -0.189415
v 0.004317 -0.381234 0.317556
v 0.004317 -0.381234 -0.189415
v 0.005284 -0.382178 -0.189415
v 0.005284 -0.382178 0.317556
v 0.005284 -0.382178 0.317556
v 0.005284 -0.382178 -0.189415
v 0.005284 -0.382178 0.317556
v 0.005284 -0.382178 -0.189415
v 0.006132 -0.383230 -0.189415
v 0.006132 -0.383230 0.317556
v 0.006132 -0.383230 -0.189415
v 0.006132 -0.383230 0.317556
v 0.006132 -0.383230 0.317556
v 0.006132 -0.383230 -0.189415
v 0.006850 -0.384376 -0.189415
v 0.006850 -0.384376 0.317556
v 0.006850 -0.384376 -0.189415
v 0.006850 -0.384376 0.317556
v 0.006850 -0.384376 0.317556
v 0.006850 -0.384376 -0.189415
v 0.007426 -0.385598 0.317556
v 0.007426 -0.385598 -0.189415
v 0.007426 -0.385598 0.317556
v 0.007426 -0.385598 -0.189415
v 0.007426 -0.385598 0.317556
v 0.007426 -0.385598 -0.189415
v 0.007853 -0.386880 0.317556
v 0.007853 -0.386880 -0.189415
v 0.007853 -0.386880 0.317556
v 0.007853 -0.386880 -0.189415
v 0.007853 -0.386880 0.317556
v 0.007853 -0.386880 -0.189415
v 0.008115 -0.388154 0.317556
v 0.008115 -0.388154 -0.189415
v 0.008115 -0.388154 0.317556
v 0.008115 -0.388154 -0.189415
v 0.008115 -0.388154 0.317556
v 0.008115 -0.388154 -0.189415
v 0.015237 -0.437535 -0.189415
v 0.008115 -0.388154 0.317556
v 0.015237 -0.437535 0.317556
v 0.008115 -0.388154 -0.189415
v 0.008115 -0.388154 -0.189415
v 0.015237 -0.437535 -0.189415
v 0.008115 -0.388154 0.317556
v 0.015237 -0.437535 0.317556
v 0.015237 -0.437535 0.317556
v 0.015237 -0.437535 -0.189415
v 0.015455 -0.438574 -0.189415
v 0.015237 -0.437535 0.317556
v 0.015455 -0.438574 0.317556
v 0.015237 -0.437535 -0.189415
v 0.015237 -0.437535 -0.189415
v 0.015455 -0.438574 -0.189415
v 0.015237 -0.437535 0.317556
v 0.015455 -0.438574 0.317556
v 0.015455 -0.438574 0.317556
v 0.015455 -0.438574 -0.189415
v 0.015784 -0.439525 0.317556
v 0.015784 -0.439525 -0.189415
v 0.015784 -0.439525 0.317556
v 0.015784 -0.439525 -0.189415
v 0.015784 -0.439525 0.317556
v 0.015784 -0.439525 -0.189415
v 0.016231 -0.440428 -0.189415
v 0.016231 -0.440428 0.317556
v 0.016231 -0.440428 -0.189415
v 0.016231 -0.440428 0.317556
v 0.016231 -0.440428 0.317556
v 0.016231 -0.440428 -0.189415
v 0.016789 -0.441266 0.317556
v 0.016789 -0.441266 -0.189415
v 0.016789 -0.441266 0.317556
v 0.016789 -0.441266 -0.189415
v 0.016789 -0.441266 0.317556
v 0.016789 -0.441266 -0.189415
v 0.017449 -0.442027 0.317556
v 0.017449 -0.442027 -0.189415
v 0.017449 -0.442027 0.317556
v 0.017449 -0.442027 -0.189415
v 0.017449 -0.442027 0.317556
v 0.017449 -0.442027 -0.189415
v 0.018200 -0.442699 0.317556
v 0.018200 -0.442699 -0.189415
v 0.018200 -0.442699 0.317556
v 0.018200 -0.442699 -0.189415
v 0.018200 -0.442699 0.317556
v 0.018200 -0.442699 -0.189415
v 0.019029 -0.443271 -0.189415
v 0.019029 -0.443271 0.317556
v 0.019029 -0.443271 0.317556
v 0.019029 -0.443271 -0.189415
v 0.019029 -0.443271 0.317556
v 0.019029 -0.443271 -0.189415
v 0.019924 -0.443732 -0.189415
v 0.019924 -0.443732 0.317556
v 0.019924 -0.443732 0.317556
v 0.019924 -0.443732 -0.189415
v 0.019924 -0.443732 0.317556
v 0.019924 -0.443732 -0.189415
v 0.020870 -0.444077 0.317556
v 0.020870 -0.444077 -0.189415
v 0.020870 -0.444077 0.317556
v 0.020870 -0.444077 -0.189415
v 0.020870 -0.444077 0.317556
v 0.020870 -0.444077 -0.189415
v 0.021852 -0.444300 -0.189415
v 0.021852 -0.444300 0.317556
v 0.021852 -0.444300 0.317556
v 0.021852 -0.444300 -0.189415
v 0.021852 -0.444300 0.317556
v 0.021852 -0.444300 -0.189415
v 0.022855 -0.444397 -0.189415
v 0.022855 -0.444397 0.317556
v 0.022855 -0.444397 0.317556
v 0.022855 -0.444397 -0.189415
v 0.022855 -0.444397 0.317556
v 0.022855 -0.444397 -0.189415
v 0.023915 -0.444364 0.317556
v 0.023915 -0.444364 -0.189415
v 0.023915 -0.444364 0.317556
v 0.023915 -0.444364 -0.189415
v 0.023915 -0.444364 0.317556
v 0.023915 -0.444364 -0.189415
vn 0.030834050543609676 0.9995245176217911 0
vn -0.03256415154371369 0.9994696473801683 0
vn -0.1587135944406557 0.9873246654164612 0
vn -0.28231389581023314 0.9593220857628832 0
vn -0.40137992345291656 0.9159116535173744 0
vn -0.5139993015808435 0.8577906026381994 0
vn -0.6183632891277359 0.7858923861821849 0
vn -0.7127956109718491 0.701371810796006 0
vn -0.795779539595918 0.605586430132404 0
vn -0.8659823218753848 0.5000746126322725 0
vn -0.9222764485800969 0.38653092036017467 0
vn -0.9637577036111521 0.26677910099960794 0
vn -0.9787256814831319 0.20517319611825346 0
vn -0.9897598437717341 0.1427426063127348 0
vn -0.9795238397286649 0.20132820816570318 0
vn -0.9658232121012192 0.2592017032476509 0
vn -0.9282340102262429 0.37199680409824426 0
vn -0.8775236218185193 0.4795334119229942 0
vn -0.8144087859319029 0.5802915899760432 0
vn -0.7397817769 0.6728468789900707 0
vn -0.6546973867011419 0.755891084645596 0
vn -0.5603584881421728 0.828250182473278 0
vn -0.45809851497427645 0.888901429056317 0
vn -0.3493629858638568 0.9369874620870285 0
vn -0.23568891284558113 0.9718285529668637 0
vn -0.11868329528259249 0.9929321605330672 0
vn -0.05944678856039039 0.9982314758260512 0
vn 0 1 0
vn 0.05944678856039039 0.9982314758260512 0
vn 0.11868329528259249 0.9929321605330672 0
vn 0.23568891284558113 0.9718285529668637 0
vn 0.3493629858638568 0.9369874620870285 0
vn 0.45809851497427645 0.888901429056317 0
vn 0.5603584881421728 0.828250182473278 0
vn 0.6546973867011419 0.755891084645596 0
vn 0.7397817769 0.6728468789900707 0
vn 0.8144087859319029 0.5802915899760432 0
vn 0.8775236218185193 0.4795334119229942 0
vn 0.9282340102262429 0.37199680409824426 0
vn 0.9658232121012192 0.2592017032476509 0
vn 0.9795238397286649 0.20132820816570318 0
vn 0.9897598437717341 0.1427426063127348 0
vn 0.9637577036111521 0.26677910099960794 0
vn 0.9787256814831319 0.20517319611825346 0
vn 0.9222764485800969 0.38653092036017467 0
vn 0.8659823218753848 0.5000746126322725 0
vn 0.795779539595918 0.605586430132404 0
vn 0.7127956109718491 0.701371810796006 0
vn 0.6183632891277359 0.7858923861821849 0
vn 0.5139993015808435 0.8577906026381994 0
vn 0.40137992345291656 0.9159116535173744 0
vn 0.28231389581023314 0.9593220857628832 0
vn 0.1587135944406557 0.9873246654164612 0
vn 0.03256415154371369 0.9994696473801683 0
vn -0.030834050543609676 0.9995245176217911 0
vn -0.030834050543609676 -0.9995245176217911 0
vn 0.03256415154371369 -0.9994696473801683 0
vn 0.1587135944406557 -0.9873246654164612 0
vn 0.28231389581023314 -0.9593220857628832 0
vn 0.40137992345291656 -0.9159116535173744 0
vn 0.5139993015808435 -0.8577906026381994 0
vn 0.6183632891277359 -0.7858923861821849 0
vn 0.7127956109718491 -0.701371810796006 0
vn 0.795779539595918 -0.605586430132404 0
vn 0.8659823218753848 -0.5000746126322725 0
vn 0.9222764485800969 -0.38653092036017467 0
vn 0.9637577036111521 -0.26677910099960794 0
vn 0.9787256814831319 -0.20517319611825346 0
vn 0.9897598437717341 -0.1427426063127348 0
vn 0.9658232121012192 -0.2592017032476509 0
vn 0.9795238397286649 -0.20132820816570318 0
vn 0.9282340102262429 -0.37199680409824426 0
vn 0.8775236218185193 -0.4795334119229942 0
vn 0.8144087859319029 -0.5802915899760432 0
vn 0.7397817769 -0.6728468789900707 0
vn 0.6546973867011419 -0.755891084645596 0
vn 0.5603584881421728 -0.828250182473278 0
vn 0.45809851497427645 -0.888901429056317 0
vn 0.3493629858638568 -0.9369874620870285 0
vn 0.23568891284558113 -0.9718285529668637 0
vn 0.11868329528259249 -0.9929321605330672 0
vn 0.05944678856039039 -0.9982314758260512 0
vn 0 -1 0
vn -0.11868329528259249 -0.9929321605330672 0
vn -0.05944678856039039 -0.9982314758260512 0
vn -0.23568891284558113 -0.9718285529668637 0
vn -0.3493629858638568 -0.9369874620870285 0
vn -0.45809851497427645 -0.888901429056317 0
vn -0.5603584881421728 -0.828250182473278 0
vn -0.6546973867011419 -0.755891084645596 0
vn -0.7397817769 -0.6728468789900707 0
vn -0.8144087859319029 -0.5802915899760432 0
vn -0.8775236218185193 -0.4795334119229942 0
vn -0.9282340102262429 -0.37199680409824426 0
vn -0.9658232121012192 -0.2592017032476509 0
vn -0.9795238397286649 -0.20132820816570318 0
vn -0.9897598437717341 -0.1427426063127348 0
vn -0.9787256814831319 -0.20517319611825346 0
vn -0.9637577036111521 -0.26677910099960794 0
vn -0.9222764485800969 -0.38653092036017467 0
vn -0.8659823218753848 -0.5000746126322725 0
vn -0.795779539595918 -0.605586430132404 0
vn -0.7127956109718491 -0.701371810796006 0
vn -0.6183632891277359 -0.7858923861821849 0
vn -0.5139993015808435 -0.8577906026381994 0
vn -0.40137992345291656 -0.9159116535173744 0
vn -0.28231389581023314 -0.9593220857628832 0
vn -0.1587135944406557 -0.9873246654164612 0
vn -0.03256415154371369 -0.9994696473801683 0
vn 0.030834050543609676 -0.9995245176217911 0
usemtl material_0_0
f 5//56 6//56 7//57
f 8//57 7//57 6//56
f 7//57 8//57 15//58
f 16//58 15//58 8//57
f 21//59 15//58 22//59
f 16//58 22//59 15//58
f 27//60 21//59 28//60
f 22//59 28//60 21//59
f 33//61 27//60 34//61
f 28//60 34//61 27//60
f 33//61 34//61 39//62
f 40//62 39//62 34//61
f 45//63 39//62 46//63
f 40//62 46//63 39//62
f 51//64 45//63 52//64
f 46//63 52//64 45//63
f 57//65 51//64 58//65
f 52//64 58//65 51//64
f 63//66 64//66 58//65
f 57//65 58//65 64//66
f 69//67 70//67 63//66
f 64//66 63//66 70//67
f 75//68 76//68 69//67
f 70//67 69//67 76//68
f 83//69 84//69 85//69
f 86//69 85//69 84//69
f 93//70 94//71 95//70
f 96//71 95//70 94//71
f 101//72 93//70 102//72
f 95//70 102//72 93//70
f 107//73 108//73 102//72
f 101//72 102//72 108//73
f 113//74 114//74 107//73
f 108//73 107//73 114//74
f 119//75 120//75 113//74
f 114//74 113//74 120//75
f 125//76 120//75 126//76
f 119//75 126//76 120//75
f 131//77 125//76 132//77
f 126//76 132//77 125//76
f 131//77 132//77 137//78
f 138//78 137//78 132//77
f 143//79 137//78 144//79
f 138//78 144//79 137//78
f 149//80 143//79 150//80
f 144//79 150//80 143//79
f 149//80 150//80 155//81
f 156//81 155//81 150//80
f 161//82 155//81 162//82
f 156//81 162//82 155//81
f 170//83 171//83 172//83
f 173//83 172//83 171//83
f 174//83 171//83 170//83
f 182//84 183//85 184//84
f 185//85 184//84 183//85
f 182//84 184//84 190//86
f 191//86 190//86 184//84
f 196//87 190//86 197//87
f 191//86 197//87 190//86
f 202//88 196//87 203//88
f 197//87 203//88 196//87
f 208//89 202//88 209//89
f 203//88 209//89 202//88
f 208//89 209//89 214//90
f 215//90 214//90 209//89
f 220//91 214//90 221//91
f 215//90 221//91 214//90
f 221//91 226//92 220//91
f 227//92 220//91 226//92
f 226//92 232//93 227//92
f 233//93 227//92 232//93
f 233//93 232//93 238//94
f 239//94 238//94 232//93
f 238//94 239//94 244//95
f 245//95 244//95 239//94
f 244//95 245//95 250//96
f 251//96 250//96 245//95
f 258//97 259//97 260//97
f 261//97 260//97 259//97
f 268//98 269//99 270//98
f 271//99 270//98 269//99
f 271//99 269//99 276//100
f 277//100 276//100 269//99
f 277//100 282//101 276//100
f 283//101 276//100 282//101
f 283//101 282//101 288//102
f 289//102 288//102 282//101
f 288//102 289//102 294//103
f 295//103 294//103 289//102
f 294//103 295//103 300//104
f 301//104 300//104 295//103
f 306//105 300//104 307//105
f 301//104 307//105 300//104
f 312//106 306//105 313//106
f 307//105 313//106 306//105
f 312//106 313//106 318//107
f 319//107 318//107 313//106
f 324//108 318//107 325//108
f 319//107 325//108 318//107
f 330//109 324//108 331//109
f 325//108 331//109 324//108
f 330//109 331//109 336//110
f 337//110 336//110 331//109
usemtl material_1_0
f 1//1 2//2 3//2
f 2//2 1//1 4//1
f 3//2 13//3 14//3
f 13//3 3//2 2//2
f 13//3 19//4 14//3
f 19//4 13//3 20//4
f 20//4 25//5 19//4
f 25//5 20//4 26//5
f 26//5 31//6 25//5
f 31//6 26//5 32//6
f 31//6 37//7 38//7
f 37//7 31//6 32//6
f 37//7 43//8 38//7
f 43//8 37//7 44//8
f 44//8 49//9 43//8
f 49//9 44//8 50//9
f 50//9 55//10 49//9
f 55//10 50//9 56//10
f 61//11 55//10 56//10
f 55//10 61//11 62//11
f 67//12 62//11 61//11
f 62//11 67//12 68//12
f 73//13 68//12 67//12
f 68//12 73//13 74//13
f 79//14 80//14 81//14
f 80//14 79//14 82//14
f 89//15 90//16 91//15
f 90//16 89//15 92//16
f 92//16 99//17 90//16
f 99//17 92//16 100//17
f 105//18 99//17 100//17
f 99//17 105//18 106//18
f 111//19 106//18 105//18
f 106//18 111//19 112//19
f 117//20 112//19 111//19
f 112//19 117//20 118//20
f 117//20 123//21 118//20
f 123//21 117//20 124//21
f 124//21 129//22 123//21
f 129//22 124//21 130//22
f 129//22 135//23 136//23
f 135//23 129//22 130//22
f 135//23 141//24 136//23
f 141//24 135//23 142//24
f 142//24 147//25 141//24
f 147//25 142//24 148//25
f 147//25 153//26 154//26
f 153//26 147//25 148//25
f 153//26 159//27 154//26
f 159//27 153//26 160//27
f 165//28 166//28 167//28
f 166//28 168//28 169//28
f 168//28 166//28 165//28
f 178//29 179//30 180//29
f 179//30 178//29 181//30
f 179//30 188//31 189//31
f 188//31 179//30 181//30
f 188//31 194//32 189//31
f 194//32 188//31 195//32
f 195//32 200//33 194//32
f 200//33 195//32 201//33
f 201//33 206//34 200//33
f 206//34 201//33 207//34
f 206//34 212//35 213//35
f 212//35 206//34 207//34
f 212//35 218//36 213//35
f 218//36 212//35 219//36
f 224//37 219//36 225//37
f 219//36 224//37 218//36
f 230//38 225//37 231//38
f 225//37 230//38 224//37
f 230//38 236//39 237//39
f 236//39 230//38 231//38
f 237//39 242//40 243//40
f 242//40 237//39 236//39
f 243//40 248//41 249//41
f 248//41 243//40 242//40
f 254//42 255//42 256//42
f 255//42 254//42 257//42
f 264//43 265//44 266//43
f 265//44 264//43 267//44
f 264//43 274//45 275//45
f 274//45 264//43 266//43
f 280//46 274//45 281//46
f 274//45 280//46 275//45
f 280//46 286//47 287//47
f 286//47 280//46 281//46
f 287//47 292//48 293//48
f 292//48 287//47 286//47
f 293//48 298//49 299//49
f 298//49 293//48 292//48
f 298//49 304//50 299//49
f 304//50 298//49 305//50
f 305//50 310//51 304//50
f 310//51 305//50 311//51
f 310//51 316//52 317//52
f 316//52 310//51 311//51
f 316//52 322//53 317//52
f 322//53 316//52 323//53
f 323//53 328//54 322//53
f 328//54 323//53 329//54
f 328//54 334//55 335//55
f 334//55 328//54 329//54
usemtl material_2_0
usemtl material_3_0
