# SSTK version 0.8.0
# 139
mtllib original-139.mtl
o #ID203
v 0.085077 0.462760 0.454438
v 0.085468 0.462369 0.452748
v 0.085468 0.462369 0.454438
v 0.085077 0.462760 0.452748
v 0.085077 0.462760 0.452748
v 0.085077 0.462760 0.454438
v 0.085468 0.462369 0.452748
v 0.085468 0.462369 0.454438
v 0.085077 0.462760 0.454438
v 0.085468 0.462369 0.454438
v 0.085077 0.462760 0.452748
v 0.085468 0.462369 0.452748
vn -0.7071067811865476 -0.7071067811865476 0
vn 0.7071067811865476 0.7071067811865476 0
usemtl material_0_0
f 1//1 2//1 3//1
f 2//1 1//1 4//1
f 5//2 6//2 7//2
f 8//2 7//2 6//2
usemtl material_1_0
