# SSTK version 0.8.0
# 152
mtllib original-152.mtl
o #ID293
v 0.405822 0.027465 0.317556
v 0.407446 0.010287 -0.189415
v 0.407446 0.010287 0.317556
v 0.405822 0.027465 -0.189415
v 0.405822 0.027465 -0.189415
v 0.405822 0.027465 0.317556
v 0.407446 0.010287 -0.189415
v 0.407446 0.010287 0.317556
v 0.405822 0.027465 0.317556
v 0.407446 0.010287 0.317556
v 0.405822 0.027465 -0.189415
v 0.407446 0.010287 -0.189415
v 0.401687 0.053574 -0.189415
v 0.401687 0.053574 0.317556
v 0.401687 0.053574 0.317556
v 0.401687 0.053574 -0.189415
v 0.401687 0.053574 0.317556
v 0.401687 0.053574 -0.189415
v 0.395920 0.079372 -0.189415
v 0.395920 0.079372 0.317556
v 0.395920 0.079372 0.317556
v 0.395920 0.079372 -0.189415
v 0.395920 0.079372 0.317556
v 0.395920 0.079372 -0.189415
v 0.388545 0.104757 0.317556
v 0.388545 0.104757 -0.189415
v 0.388545 0.104757 -0.189415
v 0.388545 0.104757 0.317556
v 0.388545 0.104757 0.317556
v 0.388545 0.104757 -0.189415
v 0.379591 0.129628 -0.189415
v 0.379591 0.129628 0.317556
v 0.379591 0.129628 0.317556
v 0.379591 0.129628 -0.189415
v 0.379591 0.129628 0.317556
v 0.379591 0.129628 -0.189415
v 0.369093 0.153889 0.317556
v 0.369093 0.153889 -0.189415
v 0.369093 0.153889 -0.189415
v 0.369093 0.153889 0.317556
v 0.369093 0.153889 0.317556
v 0.369093 0.153889 -0.189415
v 0.357092 0.177442 -0.189415
v 0.357092 0.177442 0.317556
v 0.357092 0.177442 0.317556
v 0.357092 0.177442 -0.189415
v 0.357092 0.177442 0.317556
v 0.357092 0.177442 -0.189415
v 0.343635 0.200195 -0.189415
v 0.343635 0.200195 0.317556
v 0.343635 0.200195 0.317556
v 0.343635 0.200195 -0.189415
v 0.343635 0.200195 0.317556
v 0.343635 0.200195 -0.189415
v 0.328777 0.222058 -0.189415
v 0.328777 0.222058 0.317556
v 0.328777 0.222058 0.317556
v 0.328777 0.222058 -0.189415
v 0.328777 0.222058 0.317556
v 0.328777 0.222058 -0.189415
v 0.312575 0.242945 0.317556
v 0.312575 0.242945 -0.189415
v 0.312575 0.242945 -0.189415
v 0.312575 0.242945 0.317556
v 0.312575 0.242945 0.317556
v 0.312575 0.242945 -0.189415
v 0.295094 0.262774 -0.189415
v 0.295094 0.262774 0.317556
v 0.295094 0.262774 0.317556
v 0.295094 0.262774 -0.189415
v 0.295094 0.262774 0.317556
v 0.295094 0.262774 -0.189415
v 0.276402 0.281466 -0.189415
v 0.276402 0.281466 0.317556
v 0.276402 0.281466 0.317556
v 0.276402 0.281466 -0.189415
v 0.276402 0.281466 0.317556
v 0.276402 0.281466 -0.189415
v 0.256573 0.298947 0.317556
v 0.256573 0.298947 -0.189415
v 0.256573 0.298947 0.317556
v 0.256573 0.298947 -0.189415
v 0.256573 0.298947 0.317556
v 0.256573 0.298947 -0.189415
v 0.235686 0.315149 -0.189415
v 0.235686 0.315149 0.317556
v 0.235686 0.315149 0.317556
v 0.235686 0.315149 -0.189415
v 0.235686 0.315149 0.317556
v 0.235686 0.315149 -0.189415
v 0.213823 0.330008 -0.189415
v 0.213823 0.330008 0.317556
v 0.213823 0.330008 0.317556
v 0.213823 0.330008 -0.189415
v 0.213823 0.330008 0.317556
v 0.213823 0.330008 -0.189415
v 0.191069 0.343464 -0.189415
v 0.191069 0.343464 0.317556
v 0.191069 0.343464 0.317556
v 0.191069 0.343464 -0.189415
v 0.191069 0.343464 0.317556
v 0.191069 0.343464 -0.189415
v 0.167516 0.355465 0.317556
v 0.167516 0.355465 -0.189415
v 0.167516 0.355465 0.317556
v 0.167516 0.355465 -0.189415
v 0.167516 0.355465 0.317556
v 0.167516 0.355465 -0.189415
v 0.143256 0.365963 -0.189415
v 0.143256 0.365963 0.317556
v 0.143256 0.365963 0.317556
v 0.143256 0.365963 -0.189415
v 0.143256 0.365963 0.317556
v 0.143256 0.365963 -0.189415
v 0.118384 0.374917 -0.189415
v 0.118384 0.374917 0.317556
v 0.118384 0.374917 0.317556
v 0.118384 0.374917 -0.189415
v 0.118384 0.374917 0.317556
v 0.118384 0.374917 -0.189415
v 0.093000 0.382292 -0.189415
v 0.093000 0.382292 0.317556
v 0.093000 0.382292 0.317556
v 0.093000 0.382292 -0.189415
v 0.093000 0.382292 0.317556
v 0.093000 0.382292 -0.189415
v 0.067202 0.388059 -0.189415
v 0.067202 0.388059 0.317556
v 0.067202 0.388059 0.317556
v 0.067202 0.388059 -0.189415
v 0.067202 0.388059 0.317556
v 0.067202 0.388059 -0.189415
v 0.041093 0.392194 0.317556
v 0.041093 0.392194 -0.189415
v 0.041093 0.392194 0.317556
v 0.041093 0.392194 -0.189415
v 0.041093 0.392194 0.317556
v 0.041093 0.392194 -0.189415
v 0.023915 0.393818 -0.189415
v 0.023915 0.393818 0.317556
v 0.023915 0.393818 0.317556
v 0.023915 0.393818 -0.189415
v 0.023915 0.393818 0.317556
v 0.023915 0.393818 -0.189415
vt 8.500769 1.622582
vt 7.000769 1.571531
vt 8.500769 1.571531
vt 7.000769 1.622582
vt 8.500769 1.185344
vt 7.000769 1.263557
vt 7.000769 1.185344
vt 8.500769 1.263557
vt 8.500769 0.8214869
vt 7.000769 0.8996995
vt 7.000769 0.8214869
vt 8.500769 0.8996995
vt 8.500769 0.5324456
vt 7.000769 0.454233
vt 8.500769 0.454233
vt 7.000769 0.5324456
vt 8.500769 0.08503211
vt 7.000769 0.1632447
vt 7.000769 0.08503211
vt 8.500769 0.1632447
vt 8.500769 -0.2064461
vt 7.000769 -0.2846587
vt 8.500769 -0.2846587
vt 7.000769 -0.2064461
vt 8.500769 -0.6533804
vt 7.000769 -0.5751678
vt 7.000769 -0.6533804
vt 8.500769 -0.5751678
vt 8.500769 -1.019678
vt 7.000769 -0.9414652
vt 7.000769 -1.019678
vt 8.500769 -0.9414652
vt 8.500769 -1.382105
vt 7.000769 -1.303893
vt 7.000769 -1.382105
vt 8.500769 -1.303893
vt 8.500769 -1.66102
vt 7.000769 -1.739233
vt 8.500769 -1.739233
vt 7.000769 -1.66102
vt 8.500769 -2.089651
vt 7.000769 -2.011438
vt 7.000769 -2.089651
vt 8.500769 -2.011438
vt 8.500769 -2.431976
vt 7.000769 -2.353763
vt 7.000769 -2.431976
vt 8.500769 -2.353763
vt 7.000769 -2.764857
vt 8.500769 -2.686645
vt 7.000769 -2.686645
vt 8.500769 -2.764857
vt 8.500769 -3.086982
vt 7.000769 -3.008769
vt 7.000769 -3.086982
vt 8.500769 -3.008769
vt 8.500769 -3.397078
vt 7.000769 -3.318865
vt 7.000769 -3.397078
vt 8.500769 -3.318865
vt 8.500769 -3.693921
vt 7.000769 -3.615708
vt 7.000769 -3.693921
vt 8.500769 -3.615708
vt 7.000769 -3.976341
vt 8.500769 -3.898128
vt 7.000769 -3.898128
vt 8.500769 -3.976341
vt 8.500769 -4.243222
vt 7.000769 -4.165009
vt 7.000769 -4.243222
vt 8.500769 -4.165009
vt 8.500769 -4.493511
vt 7.000769 -4.415298
vt 7.000769 -4.493511
vt 8.500769 -4.415298
vt 8.500769 -4.726221
vt 7.000769 -4.648008
vt 7.000769 -4.726221
vt 8.500769 -4.648008
vt 8.500769 -4.940433
vt 7.000769 -4.86222
vt 7.000769 -4.940433
vt 8.500769 -4.86222
vt 7.000769 -5.135301
vt 8.500769 -5.057089
vt 7.000769 -5.057089
vt 8.500769 -5.135301
vt 8.500769 -5.310058
vt 7.000769 -5.259007
vt 7.000769 -5.310058
vt 8.500769 -5.259007
vn -0.9921147054673806 -0.1253332006906906 0
vn -0.9955619652274822 -0.09410830671302954 0
vn -0.9822872551433722 -0.18738129144314172 0
vn -0.9685831604410063 -0.24868988984297663 0
vn -0.9510565130859434 -0.3090170042518809 0
vn -0.9297764716058311 -0.368124588757952 0
vn -0.9048270578337482 -0.42577928015806865 0
vn -0.8763066737420931 -0.4817536855645931 0
vn -0.8443279159085524 -0.5358268100958747 0
vn -0.8090169736320784 -0.5877852808425821 0
vn -0.7705132203607198 -0.6374240168438534 0
vn -0.7289686175301027 -0.6845471164618626 0
vn -0.6845471164618626 -0.7289686175301027 0
vn -0.6374240168438534 -0.7705132203607198 0
vn -0.5877852808425821 -0.8090169736320784 0
vn -0.5358268100958747 -0.8443279159085524 0
vn -0.4817536855645931 -0.8763066737420931 0
vn -0.42577928015806865 -0.9048270578337482 0
vn -0.368124588757952 -0.9297764716058311 0
vn -0.3090170042518809 -0.9510565130859434 0
vn -0.24868988984297663 -0.9685831604410063 0
vn -0.18738129144314172 -0.9822872551433722 0
vn -0.1253332006906906 -0.9921147054673806 0
vn -0.09410830671302954 -0.9955619652274822 0
vn 0.9921147054673806 0.1253332006906906 0
vn 0.9955619652274822 0.09410830671302954 0
vn 0.9822872551433722 0.18738129144314172 0
vn 0.9685831604410063 0.24868988984297663 0
vn 0.9510565130859434 0.3090170042518809 0
vn 0.9297764716058311 0.368124588757952 0
vn 0.9048270578337482 0.42577928015806865 0
vn 0.8763066737420931 0.4817536855645931 0
vn 0.8443279159085524 0.5358268100958747 0
vn 0.8090169736320784 0.5877852808425821 0
vn 0.7705132203607198 0.6374240168438534 0
vn 0.7289686175301027 0.6845471164618626 0
vn 0.6845471164618626 0.7289686175301027 0
vn 0.6374240168438534 0.7705132203607198 0
vn 0.5877852808425821 0.8090169736320784 0
vn 0.5358268100958747 0.8443279159085524 0
vn 0.4817536855645931 0.8763066737420931 0
vn 0.42577928015806865 0.9048270578337482 0
vn 0.368124588757952 0.9297764716058311 0
vn 0.3090170042518809 0.9510565130859434 0
vn 0.24868988984297663 0.9685831604410063 0
vn 0.18738129144314172 0.9822872551433722 0
vn 0.1253332006906906 0.9921147054673806 0
vn 0.09410830671302954 0.9955619652274822 0
usemtl material_0_0
f 5//25 6//25 7//26
f 8//26 7//26 6//25
f 15//27 6//25 16//27
f 5//25 16//27 6//25
f 21//28 15//27 22//28
f 16//27 22//28 15//27
f 27//29 28//29 22//28
f 21//28 22//28 28//29
f 33//30 28//29 34//30
f 27//29 34//30 28//29
f 39//31 40//31 34//30
f 33//30 34//30 40//31
f 45//32 40//31 46//32
f 39//31 46//32 40//31
f 51//33 45//32 52//33
f 46//32 52//33 45//32
f 57//34 51//33 58//34
f 52//33 58//34 51//33
f 63//35 64//35 58//34
f 57//34 58//34 64//35
f 69//36 64//35 70//36
f 63//35 70//36 64//35
f 75//37 69//36 76//37
f 70//36 76//37 69//36
f 75//37 76//37 81//38
f 82//38 81//38 76//37
f 87//39 81//38 88//39
f 82//38 88//39 81//38
f 93//40 87//39 94//40
f 88//39 94//40 87//39
f 99//41 93//40 100//41
f 94//40 100//41 93//40
f 99//41 100//41 105//42
f 106//42 105//42 100//41
f 111//43 105//42 112//43
f 106//42 112//43 105//42
f 117//44 111//43 118//44
f 112//43 118//44 111//43
f 123//45 117//44 124//45
f 118//44 124//45 117//44
f 129//46 123//45 130//46
f 124//45 130//46 123//45
f 129//46 130//46 135//47
f 136//47 135//47 130//46
f 141//48 135//47 142//48
f 136//47 142//48 135//47
usemtl material_1_0
f 1/1/1 2/2/2 3/3/2
f 2/2/2 1/1/1 4/4/1
f 1/5/1 13/6/3 4/7/1
f 13/6/3 1/5/1 14/8/3
f 14/9/3 19/10/4 13/11/3
f 19/10/4 14/9/3 20/12/4
f 25/13/5 19/14/4 20/15/4
f 19/14/4 25/13/5 26/16/5
f 25/17/5 31/18/6 26/19/5
f 31/18/6 25/17/5 32/20/6
f 37/21/7 31/22/6 32/23/6
f 31/22/6 37/21/7 38/24/7
f 37/25/7 43/26/8 38/27/7
f 43/26/8 37/25/7 44/28/8
f 44/29/8 49/30/9 43/31/8
f 49/30/9 44/29/8 50/32/9
f 50/33/9 55/34/10 49/35/9
f 55/34/10 50/33/9 56/36/10
f 61/37/11 55/38/10 56/39/10
f 55/38/10 61/37/11 62/40/11
f 61/41/11 67/42/12 62/43/11
f 67/42/12 61/41/11 68/44/12
f 68/45/12 73/46/13 67/47/12
f 73/46/13 68/45/12 74/48/13
f 73/49/13 79/50/14 80/51/14
f 79/50/14 73/49/13 74/52/13
f 79/53/14 85/54/15 80/55/14
f 85/54/15 79/53/14 86/56/15
f 86/57/15 91/58/16 85/59/15
f 91/58/16 86/57/15 92/60/16
f 92/61/16 97/62/17 91/63/16
f 97/62/17 92/61/16 98/64/17
f 97/65/17 103/66/18 104/67/18
f 103/66/18 97/65/17 98/68/17
f 103/69/18 109/70/19 104/71/18
f 109/70/19 103/69/18 110/72/19
f 110/73/19 115/74/20 109/75/19
f 115/74/20 110/73/19 116/76/20
f 116/77/20 121/78/21 115/79/20
f 121/78/21 116/77/20 122/80/21
f 122/81/21 127/82/22 121/83/21
f 127/82/22 122/81/21 128/84/22
f 127/85/22 133/86/23 134/87/23
f 133/86/23 127/85/22 128/88/22
f 133/89/23 139/90/24 134/91/23
f 139/90/24 133/89/23 140/92/24
usemtl material_2_0
usemtl material_3_0
