# SSTK version 0.8.0
# 22
mtllib original-22.mtl
o #ID488
v 0.365241 0.493849 0.456128
v 0.365241 0.499155 0.456128
v 0.365158 0.496502 0.456128
v 0.365491 0.491207 0.456128
v 0.365491 0.501797 0.456128
v 0.365906 0.488585 0.456128
v 0.365906 0.504418 0.456128
v 0.366485 0.485995 0.456128
v 0.366485 0.507009 0.456128
v 0.367226 0.483447 0.456128
v 0.366849 0.496502 0.456128
v 0.366929 0.493956 0.456128
v 0.367169 0.491419 0.456128
v 0.367568 0.488902 0.456128
v 0.368125 0.480950 0.456128
v 0.368123 0.486416 0.456128
v 0.368834 0.483969 0.456128
v 0.369179 0.478514 0.456128
v 0.369697 0.481572 0.456128
v 0.370384 0.476149 0.456128
v 0.370709 0.479234 0.456128
v 0.371735 0.473865 0.456128
v 0.371865 0.476963 0.456128
v 0.373227 0.471670 0.456128
v 0.373163 0.474770 0.456128
v 0.374595 0.472663 0.456128
v 0.374853 0.469572 0.456128
v 0.376156 0.470650 0.456128
v 0.376609 0.467582 0.456128
v 0.377841 0.468739 0.456128
v 0.378486 0.465705 0.456128
v 0.379643 0.466937 0.456128
v 0.380476 0.463950 0.456128
v 0.381554 0.465253 0.456128
v 0.382573 0.462323 0.456128
v 0.383567 0.463691 0.456128
v 0.384768 0.460831 0.456128
v 0.385674 0.462259 0.456128
v 0.387053 0.459480 0.456128
v 0.387867 0.460962 0.456128
v 0.389418 0.458275 0.456128
v 0.390138 0.459805 0.456128
v 0.391854 0.457221 0.456128
v 0.392476 0.458793 0.456128
v 0.394351 0.456322 0.456128
v 0.394873 0.457930 0.456128
v 0.396899 0.455581 0.456128
v 0.397320 0.457219 0.456128
v 0.399489 0.455003 0.456128
v 0.399806 0.456664 0.456128
v 0.402111 0.454587 0.456128
v 0.402323 0.456265 0.456128
v 0.404753 0.454338 0.456128
v 0.404859 0.456025 0.456128
v 0.407406 0.454254 0.456128
v 0.407406 0.455945 0.456128
v 0.410058 0.454338 0.456128
v 0.409952 0.456025 0.456128
v 0.412489 0.456265 0.456128
v 0.412701 0.454587 0.456128
v 0.415005 0.456664 0.456128
v 0.415322 0.455003 0.456128
v 0.417492 0.457219 0.456128
v 0.417913 0.455581 0.456128
v 0.419939 0.457930 0.456128
v 0.420461 0.456322 0.456128
v 0.422336 0.458793 0.456128
v 0.422958 0.457221 0.456128
v 0.424674 0.459805 0.456128
v 0.425394 0.458275 0.456128
v 0.426944 0.460962 0.456128
v 0.427759 0.459480 0.456128
v 0.429137 0.462259 0.456128
v 0.430043 0.460831 0.456128
v 0.431245 0.463691 0.456128
v 0.432238 0.462323 0.456128
v 0.433258 0.465253 0.456128
v 0.434336 0.463950 0.456128
v 0.435169 0.466937 0.456128
v 0.436326 0.465705 0.456128
v 0.436971 0.468739 0.456128
v 0.438203 0.467582 0.456128
v 0.438655 0.470650 0.456128
v 0.439958 0.469572 0.456128
v 0.440217 0.472663 0.456128
v 0.441585 0.471670 0.456128
v 0.441649 0.474770 0.456128
v 0.443076 0.473865 0.456128
v 0.442946 0.476963 0.456128
v 0.444103 0.479234 0.456128
v 0.444428 0.476149 0.456128
v 0.445114 0.481572 0.456128
v 0.445633 0.478514 0.456128
v 0.445978 0.483969 0.456128
v 0.446687 0.480950 0.456128
v 0.446688 0.486416 0.456128
v 0.447586 0.483447 0.456128
v 0.447244 0.488902 0.456128
v 0.447643 0.491419 0.456128
v 0.448326 0.485995 0.456128
v 0.447883 0.493956 0.456128
v 0.447962 0.496502 0.456128
v 0.367226 0.509557 0.456128
v 0.366929 0.499048 0.456128
v 0.367169 0.501585 0.456128
v 0.367568 0.504101 0.456128
v 0.368125 0.512054 0.456128
v 0.368123 0.506588 0.456128
v 0.368834 0.509035 0.456128
v 0.369179 0.514490 0.456128
v 0.369697 0.511432 0.456128
v 0.370384 0.516855 0.456128
v 0.370709 0.513770 0.456128
v 0.371735 0.519139 0.456128
v 0.371865 0.516041 0.456128
v 0.373227 0.521334 0.456128
v 0.373163 0.518234 0.456128
v 0.374595 0.520341 0.456128
v 0.374853 0.523432 0.456128
v 0.376156 0.522354 0.456128
v 0.376609 0.525422 0.456128
v 0.377841 0.524265 0.456128
v 0.378486 0.527299 0.456128
v 0.379643 0.526067 0.456128
v 0.380476 0.529054 0.456128
v 0.381554 0.527751 0.456128
v 0.382573 0.530681 0.456128
v 0.383567 0.529313 0.456128
v 0.384768 0.532173 0.456128
v 0.385674 0.530745 0.456128
v 0.387053 0.533524 0.456128
v 0.387867 0.532042 0.456128
v 0.389418 0.534729 0.456128
v 0.390138 0.533199 0.456128
v 0.391854 0.535783 0.456128
v 0.392476 0.534211 0.456128
v 0.394351 0.536682 0.456128
v 0.394873 0.535074 0.456128
v 0.396899 0.537422 0.456128
v 0.397320 0.535785 0.456128
v 0.399489 0.538001 0.456128
v 0.399806 0.536340 0.456128
v 0.402111 0.538417 0.456128
v 0.402323 0.536739 0.456128
v 0.404753 0.538666 0.456128
v 0.404859 0.536979 0.456128
v 0.407406 0.538750 0.456128
v 0.407406 0.537059 0.456128
v 0.409952 0.536979 0.456128
v 0.410058 0.538666 0.456128
v 0.412489 0.536739 0.456128
v 0.412701 0.538417 0.456128
v 0.415005 0.536340 0.456128
v 0.415322 0.538001 0.456128
v 0.417492 0.535785 0.456128
v 0.417913 0.537422 0.456128
v 0.419939 0.535074 0.456128
v 0.420461 0.536682 0.456128
v 0.422336 0.534211 0.456128
v 0.422958 0.535783 0.456128
v 0.424674 0.533199 0.456128
v 0.425394 0.534729 0.456128
v 0.426944 0.532042 0.456128
v 0.427759 0.533524 0.456128
v 0.429137 0.530745 0.456128
v 0.430043 0.532173 0.456128
v 0.431245 0.529313 0.456128
v 0.432238 0.530681 0.456128
v 0.433258 0.527751 0.456128
v 0.434336 0.529054 0.456128
v 0.435169 0.526067 0.456128
v 0.436326 0.527299 0.456128
v 0.436971 0.524265 0.456128
v 0.438203 0.525422 0.456128
v 0.438655 0.522354 0.456128
v 0.439958 0.523432 0.456128
v 0.440217 0.520341 0.456128
v 0.441585 0.521334 0.456128
v 0.441649 0.518234 0.456128
v 0.443076 0.519139 0.456128
v 0.442946 0.516041 0.456128
v 0.444103 0.513770 0.456128
v 0.444428 0.516855 0.456128
v 0.445114 0.511432 0.456128
v 0.445633 0.514490 0.456128
v 0.445978 0.509035 0.456128
v 0.446687 0.512054 0.456128
v 0.446688 0.506588 0.456128
v 0.447586 0.509557 0.456128
v 0.447244 0.504101 0.456128
v 0.447643 0.501585 0.456128
v 0.448326 0.507009 0.456128
v 0.447883 0.499048 0.456128
v 0.448905 0.488585 0.456128
v 0.448905 0.504418 0.456128
v 0.449320 0.491207 0.456128
v 0.449320 0.501797 0.456128
v 0.449570 0.493849 0.456128
v 0.449570 0.499155 0.456128
v 0.449653 0.496502 0.456128
v 0.449653 0.496502 0.456128
v 0.449570 0.493849 0.456128
v 0.449570 0.499155 0.456128
v 0.449320 0.501797 0.456128
v 0.449320 0.491207 0.456128
v 0.448905 0.504418 0.456128
v 0.448905 0.488585 0.456128
v 0.448326 0.507009 0.456128
v 0.448326 0.485995 0.456128
v 0.447962 0.496502 0.456128
v 0.447883 0.499048 0.456128
v 0.447643 0.501585 0.456128
v 0.447586 0.509557 0.456128
v 0.447244 0.504101 0.456128
v 0.446688 0.506588 0.456128
v 0.446687 0.512054 0.456128
v 0.445978 0.509035 0.456128
v 0.445633 0.514490 0.456128
v 0.445114 0.511432 0.456128
v 0.444428 0.516855 0.456128
v 0.444103 0.513770 0.456128
v 0.443076 0.519139 0.456128
v 0.442946 0.516041 0.456128
v 0.441649 0.518234 0.456128
v 0.441585 0.521334 0.456128
v 0.440217 0.520341 0.456128
v 0.439958 0.523432 0.456128
v 0.438655 0.522354 0.456128
v 0.438203 0.525422 0.456128
v 0.436971 0.524265 0.456128
v 0.436326 0.527299 0.456128
v 0.435169 0.526067 0.456128
v 0.434336 0.529054 0.456128
v 0.433258 0.527751 0.456128
v 0.432238 0.530681 0.456128
v 0.431245 0.529313 0.456128
v 0.430043 0.532173 0.456128
v 0.429137 0.530745 0.456128
v 0.427759 0.533524 0.456128
v 0.426944 0.532042 0.456128
v 0.425394 0.534729 0.456128
v 0.424674 0.533199 0.456128
v 0.422958 0.535783 0.456128
v 0.422336 0.534211 0.456128
v 0.420461 0.536682 0.456128
v 0.419939 0.535074 0.456128
v 0.417913 0.537422 0.456128
v 0.417492 0.535785 0.456128
v 0.415322 0.538001 0.456128
v 0.415005 0.536340 0.456128
v 0.412701 0.538417 0.456128
v 0.412489 0.536739 0.456128
v 0.410058 0.538666 0.456128
v 0.409952 0.536979 0.456128
v 0.407406 0.538750 0.456128
v 0.407406 0.537059 0.456128
v 0.404859 0.536979 0.456128
v 0.404753 0.538666 0.456128
v 0.402323 0.536739 0.456128
v 0.402111 0.538417 0.456128
v 0.399806 0.536340 0.456128
v 0.399489 0.538001 0.456128
v 0.397320 0.535785 0.456128
v 0.396899 0.537422 0.456128
v 0.394873 0.535074 0.456128
v 0.394351 0.536682 0.456128
v 0.392476 0.534211 0.456128
v 0.391854 0.535783 0.456128
v 0.390138 0.533199 0.456128
v 0.389418 0.534729 0.456128
v 0.387867 0.532042 0.456128
v 0.387053 0.533524 0.456128
v 0.385674 0.530745 0.456128
v 0.384768 0.532173 0.456128
v 0.383567 0.529313 0.456128
v 0.382573 0.530681 0.456128
v 0.381554 0.527751 0.456128
v 0.380476 0.529054 0.456128
v 0.379643 0.526067 0.456128
v 0.378486 0.527299 0.456128
v 0.377841 0.524265 0.456128
v 0.376609 0.525422 0.456128
v 0.376156 0.522354 0.456128
v 0.374853 0.523432 0.456128
v 0.374595 0.520341 0.456128
v 0.373227 0.521334 0.456128
v 0.373163 0.518234 0.456128
v 0.371865 0.516041 0.456128
v 0.371735 0.519139 0.456128
v 0.370709 0.513770 0.456128
v 0.370384 0.516855 0.456128
v 0.369697 0.511432 0.456128
v 0.369179 0.514490 0.456128
v 0.368834 0.509035 0.456128
v 0.368125 0.512054 0.456128
v 0.368123 0.506588 0.456128
v 0.367568 0.504101 0.456128
v 0.367226 0.509557 0.456128
v 0.367169 0.501585 0.456128
v 0.366929 0.499048 0.456128
v 0.366849 0.496502 0.456128
v 0.366485 0.507009 0.456128
v 0.447883 0.493956 0.456128
v 0.447643 0.491419 0.456128
v 0.447586 0.483447 0.456128
v 0.447244 0.488902 0.456128
v 0.446688 0.486416 0.456128
v 0.446687 0.480950 0.456128
v 0.445978 0.483969 0.456128
v 0.445633 0.478514 0.456128
v 0.445114 0.481572 0.456128
v 0.444428 0.476149 0.456128
v 0.444103 0.479234 0.456128
v 0.443076 0.473865 0.456128
v 0.442946 0.476963 0.456128
v 0.441649 0.474770 0.456128
v 0.441585 0.471670 0.456128
v 0.440217 0.472663 0.456128
v 0.439958 0.469572 0.456128
v 0.438655 0.470650 0.456128
v 0.438203 0.467582 0.456128
v 0.436971 0.468739 0.456128
v 0.436326 0.465705 0.456128
v 0.435169 0.466937 0.456128
v 0.434336 0.463950 0.456128
v 0.433258 0.465253 0.456128
v 0.432238 0.462323 0.456128
v 0.431245 0.463691 0.456128
v 0.430043 0.460831 0.456128
v 0.429137 0.462259 0.456128
v 0.427759 0.459480 0.456128
v 0.426944 0.460962 0.456128
v 0.425394 0.458275 0.456128
v 0.424674 0.459805 0.456128
v 0.422958 0.457221 0.456128
v 0.422336 0.458793 0.456128
v 0.420461 0.456322 0.456128
v 0.419939 0.457930 0.456128
v 0.417913 0.455581 0.456128
v 0.417492 0.457219 0.456128
v 0.415322 0.455003 0.456128
v 0.415005 0.456664 0.456128
v 0.412701 0.454587 0.456128
v 0.412489 0.456265 0.456128
v 0.410058 0.454338 0.456128
v 0.409952 0.456025 0.456128
v 0.407406 0.455945 0.456128
v 0.407406 0.454254 0.456128
v 0.404859 0.456025 0.456128
v 0.404753 0.454338 0.456128
v 0.402323 0.456265 0.456128
v 0.402111 0.454587 0.456128
v 0.399806 0.456664 0.456128
v 0.399489 0.455003 0.456128
v 0.397320 0.457219 0.456128
v 0.396899 0.455581 0.456128
v 0.394873 0.457930 0.456128
v 0.394351 0.456322 0.456128
v 0.392476 0.458793 0.456128
v 0.391854 0.457221 0.456128
v 0.390138 0.459805 0.456128
v 0.389418 0.458275 0.456128
v 0.387867 0.460962 0.456128
v 0.387053 0.459480 0.456128
v 0.385674 0.462259 0.456128
v 0.384768 0.460831 0.456128
v 0.383567 0.463691 0.456128
v 0.382573 0.462323 0.456128
v 0.381554 0.465253 0.456128
v 0.380476 0.463950 0.456128
v 0.379643 0.466937 0.456128
v 0.378486 0.465705 0.456128
v 0.377841 0.468739 0.456128
v 0.376609 0.467582 0.456128
v 0.376156 0.470650 0.456128
v 0.374853 0.469572 0.456128
v 0.374595 0.472663 0.456128
v 0.373227 0.471670 0.456128
v 0.373163 0.474770 0.456128
v 0.371865 0.476963 0.456128
v 0.371735 0.473865 0.456128
v 0.370709 0.479234 0.456128
v 0.370384 0.476149 0.456128
v 0.369697 0.481572 0.456128
v 0.369179 0.478514 0.456128
v 0.368834 0.483969 0.456128
v 0.368125 0.480950 0.456128
v 0.368123 0.486416 0.456128
v 0.367568 0.488902 0.456128
v 0.367226 0.483447 0.456128
v 0.367169 0.491419 0.456128
v 0.366929 0.493956 0.456128
v 0.366485 0.485995 0.456128
v 0.365906 0.504418 0.456128
v 0.365906 0.488585 0.456128
v 0.365491 0.501797 0.456128
v 0.365491 0.491207 0.456128
v 0.365241 0.499155 0.456128
v 0.365241 0.493849 0.456128
v 0.365158 0.496502 0.456128
v 0.449570 0.499155 0.456128
v 0.449653 0.496502 0.456128
v 0.449320 0.501797 0.456128
v 0.448905 0.504418 0.456128
v 0.448326 0.507009 0.456128
v 0.447586 0.509557 0.456128
v 0.446687 0.512054 0.456128
v 0.445633 0.514490 0.456128
v 0.444428 0.516855 0.456128
v 0.443076 0.519139 0.456128
v 0.441585 0.521334 0.456128
v 0.439958 0.523432 0.456128
v 0.438203 0.525422 0.456128
v 0.436326 0.527299 0.456128
v 0.434336 0.529054 0.456128
v 0.432238 0.530681 0.456128
v 0.430043 0.532173 0.456128
v 0.427759 0.533524 0.456128
v 0.425394 0.534729 0.456128
v 0.422958 0.535783 0.456128
v 0.420461 0.536682 0.456128
v 0.417913 0.537422 0.456128
v 0.415322 0.538001 0.456128
v 0.412701 0.538417 0.456128
v 0.410058 0.538666 0.456128
v 0.407406 0.538750 0.456128
v 0.404753 0.538666 0.456128
v 0.402111 0.538417 0.456128
v 0.399489 0.538001 0.456128
v 0.396899 0.537422 0.456128
v 0.394351 0.536682 0.456128
v 0.391854 0.535783 0.456128
v 0.389418 0.534729 0.456128
v 0.387053 0.533524 0.456128
v 0.384768 0.532173 0.456128
v 0.382573 0.530681 0.456128
v 0.380476 0.529054 0.456128
v 0.378486 0.527299 0.456128
v 0.376609 0.525422 0.456128
v 0.374853 0.523432 0.456128
v 0.373227 0.521334 0.456128
v 0.371735 0.519139 0.456128
v 0.370384 0.516855 0.456128
v 0.369179 0.514490 0.456128
v 0.368125 0.512054 0.456128
v 0.367226 0.509557 0.456128
v 0.366485 0.507009 0.456128
v 0.365906 0.504418 0.456128
v 0.365491 0.501797 0.456128
v 0.365241 0.499155 0.456128
v 0.365158 0.496502 0.456128
v 0.365241 0.493849 0.456128
v 0.365491 0.491207 0.456128
v 0.365906 0.488585 0.456128
v 0.366485 0.485995 0.456128
v 0.367226 0.483447 0.456128
v 0.368125 0.480950 0.456128
v 0.369179 0.478514 0.456128
v 0.370384 0.476149 0.456128
v 0.371735 0.473865 0.456128
v 0.373227 0.471670 0.456128
v 0.374853 0.469572 0.456128
v 0.376609 0.467582 0.456128
v 0.378486 0.465705 0.456128
v 0.380476 0.463950 0.456128
v 0.382573 0.462323 0.456128
v 0.384768 0.460831 0.456128
v 0.387053 0.459480 0.456128
v 0.389418 0.458275 0.456128
v 0.391854 0.457221 0.456128
v 0.394351 0.456322 0.456128
v 0.396899 0.455581 0.456128
v 0.399489 0.455003 0.456128
v 0.402111 0.454587 0.456128
v 0.404753 0.454338 0.456128
v 0.407406 0.454254 0.456128
v 0.410058 0.454338 0.456128
v 0.412701 0.454587 0.456128
v 0.415322 0.455003 0.456128
v 0.417913 0.455581 0.456128
v 0.420461 0.456322 0.456128
v 0.422958 0.457221 0.456128
v 0.425394 0.458275 0.456128
v 0.427759 0.459480 0.456128
v 0.430043 0.460831 0.456128
v 0.432238 0.462323 0.456128
v 0.434336 0.463950 0.456128
v 0.436326 0.465705 0.456128
v 0.438203 0.467582 0.456128
v 0.439958 0.469572 0.456128
v 0.441585 0.471670 0.456128
v 0.443076 0.473865 0.456128
v 0.444428 0.476149 0.456128
v 0.445633 0.478514 0.456128
v 0.446687 0.480950 0.456128
v 0.447586 0.483447 0.456128
v 0.448326 0.485995 0.456128
v 0.448905 0.488585 0.456128
v 0.449320 0.491207 0.456128
v 0.449570 0.493849 0.456128
v 0.436971 0.524265 0.456128
v 0.438655 0.522354 0.456128
v 0.440217 0.520341 0.456128
v 0.441649 0.518234 0.456128
v 0.442946 0.516041 0.456128
v 0.444103 0.513770 0.456128
v 0.445114 0.511432 0.456128
v 0.445978 0.509035 0.456128
v 0.446688 0.506588 0.456128
v 0.447244 0.504101 0.456128
v 0.447643 0.501585 0.456128
v 0.447883 0.499048 0.456128
v 0.447962 0.496502 0.456128
v 0.447883 0.493956 0.456128
v 0.447643 0.491419 0.456128
v 0.447244 0.488902 0.456128
v 0.446688 0.486416 0.456128
v 0.445978 0.483969 0.456128
v 0.445114 0.481572 0.456128
v 0.444103 0.479234 0.456128
v 0.442946 0.476963 0.456128
v 0.441649 0.474770 0.456128
v 0.440217 0.472663 0.456128
v 0.438655 0.470650 0.456128
v 0.436971 0.468739 0.456128
v 0.435169 0.466937 0.456128
v 0.433258 0.465253 0.456128
v 0.431245 0.463691 0.456128
v 0.429137 0.462259 0.456128
v 0.426944 0.460962 0.456128
v 0.424674 0.459805 0.456128
v 0.422336 0.458793 0.456128
v 0.419939 0.457930 0.456128
v 0.417492 0.457219 0.456128
v 0.415005 0.456664 0.456128
v 0.412489 0.456265 0.456128
v 0.409952 0.456025 0.456128
v 0.407406 0.455945 0.456128
v 0.404859 0.456025 0.456128
v 0.402323 0.456265 0.456128
v 0.399806 0.456664 0.456128
v 0.397320 0.457219 0.456128
v 0.394873 0.457930 0.456128
v 0.392476 0.458793 0.456128
v 0.390138 0.459805 0.456128
v 0.387867 0.460962 0.456128
v 0.385674 0.462259 0.456128
v 0.383567 0.463691 0.456128
v 0.381554 0.465253 0.456128
v 0.379643 0.466937 0.456128
v 0.377841 0.468739 0.456128
v 0.376156 0.470650 0.456128
v 0.374595 0.472663 0.456128
v 0.373163 0.474770 0.456128
v 0.371865 0.476963 0.456128
v 0.370709 0.479234 0.456128
v 0.369697 0.481572 0.456128
v 0.368834 0.483969 0.456128
v 0.368123 0.486416 0.456128
v 0.367568 0.488902 0.456128
v 0.367169 0.491419 0.456128
v 0.366929 0.493956 0.456128
v 0.366849 0.496502 0.456128
v 0.366929 0.499048 0.456128
v 0.367169 0.501585 0.456128
v 0.367568 0.504101 0.456128
v 0.368123 0.506588 0.456128
v 0.368834 0.509035 0.456128
v 0.369697 0.511432 0.456128
v 0.370709 0.513770 0.456128
v 0.371865 0.516041 0.456128
v 0.373163 0.518234 0.456128
v 0.374595 0.520341 0.456128
v 0.376156 0.522354 0.456128
v 0.377841 0.524265 0.456128
v 0.379643 0.526067 0.456128
v 0.381554 0.527751 0.456128
v 0.383567 0.529313 0.456128
v 0.385674 0.530745 0.456128
v 0.387867 0.532042 0.456128
v 0.390138 0.533199 0.456128
v 0.392476 0.534211 0.456128
v 0.394873 0.535074 0.456128
v 0.397320 0.535785 0.456128
v 0.399806 0.536340 0.456128
v 0.402323 0.536739 0.456128
v 0.404859 0.536979 0.456128
v 0.407406 0.537059 0.456128
v 0.409952 0.536979 0.456128
v 0.412489 0.536739 0.456128
v 0.415005 0.536340 0.456128
v 0.417492 0.535785 0.456128
v 0.419939 0.535074 0.456128
v 0.422336 0.534211 0.456128
v 0.424674 0.533199 0.456128
v 0.426944 0.532042 0.456128
v 0.429137 0.530745 0.456128
v 0.431245 0.529313 0.456128
v 0.433258 0.527751 0.456128
v 0.435169 0.526067 0.456128
vn 0 0 1
vn 0 0 -1
usemtl material_0_0
f 201//2 202//2 203//2
f 203//2 202//2 204//2
f 202//2 205//2 204//2
f 204//2 205//2 206//2
f 205//2 207//2 206//2
f 206//2 207//2 208//2
f 207//2 209//2 208//2
f 209//2 210//2 208//2
f 210//2 211//2 208//2
f 211//2 212//2 208//2
f 208//2 212//2 213//2
f 212//2 214//2 213//2
f 214//2 215//2 213//2
f 213//2 215//2 216//2
f 215//2 217//2 216//2
f 216//2 217//2 218//2
f 217//2 219//2 218//2
f 218//2 219//2 220//2
f 219//2 221//2 220//2
f 220//2 221//2 222//2
f 221//2 223//2 222//2
f 223//2 224//2 222//2
f 222//2 224//2 225//2
f 224//2 226//2 225//2
f 225//2 226//2 227//2
f 226//2 228//2 227//2
f 227//2 228//2 229//2
f 228//2 230//2 229//2
f 229//2 230//2 231//2
f 230//2 232//2 231//2
f 231//2 232//2 233//2
f 232//2 234//2 233//2
f 233//2 234//2 235//2
f 234//2 236//2 235//2
f 235//2 236//2 237//2
f 236//2 238//2 237//2
f 237//2 238//2 239//2
f 238//2 240//2 239//2
f 239//2 240//2 241//2
f 240//2 242//2 241//2
f 241//2 242//2 243//2
f 242//2 244//2 243//2
f 243//2 244//2 245//2
f 244//2 246//2 245//2
f 245//2 246//2 247//2
f 246//2 248//2 247//2
f 247//2 248//2 249//2
f 248//2 250//2 249//2
f 249//2 250//2 251//2
f 250//2 252//2 251//2
f 251//2 252//2 253//2
f 252//2 254//2 253//2
f 253//2 254//2 255//2
f 254//2 256//2 255//2
f 256//2 257//2 255//2
f 255//2 257//2 258//2
f 257//2 259//2 258//2
f 258//2 259//2 260//2
f 259//2 261//2 260//2
f 260//2 261//2 262//2
f 261//2 263//2 262//2
f 262//2 263//2 264//2
f 263//2 265//2 264//2
f 264//2 265//2 266//2
f 265//2 267//2 266//2
f 266//2 267//2 268//2
f 267//2 269//2 268//2
f 268//2 269//2 270//2
f 269//2 271//2 270//2
f 270//2 271//2 272//2
f 271//2 273//2 272//2
f 272//2 273//2 274//2
f 273//2 275//2 274//2
f 274//2 275//2 276//2
f 275//2 277//2 276//2
f 276//2 277//2 278//2
f 277//2 279//2 278//2
f 278//2 279//2 280//2
f 279//2 281//2 280//2
f 280//2 281//2 282//2
f 281//2 283//2 282//2
f 282//2 283//2 284//2
f 283//2 285//2 284//2
f 284//2 285//2 286//2
f 285//2 287//2 286//2
f 287//2 288//2 286//2
f 286//2 288//2 289//2
f 288//2 290//2 289//2
f 289//2 290//2 291//2
f 290//2 292//2 291//2
f 291//2 292//2 293//2
f 292//2 294//2 293//2
f 293//2 294//2 295//2
f 294//2 296//2 295//2
f 296//2 297//2 295//2
f 295//2 297//2 298//2
f 297//2 299//2 298//2
f 299//2 300//2 298//2
f 300//2 301//2 298//2
f 302//2 298//2 301//2
f 210//2 209//2 303//2
f 303//2 209//2 304//2
f 209//2 305//2 304//2
f 304//2 305//2 306//2
f 306//2 305//2 307//2
f 305//2 308//2 307//2
f 307//2 308//2 309//2
f 308//2 310//2 309//2
f 309//2 310//2 311//2
f 310//2 312//2 311//2
f 311//2 312//2 313//2
f 312//2 314//2 313//2
f 313//2 314//2 315//2
f 315//2 314//2 316//2
f 314//2 317//2 316//2
f 316//2 317//2 318//2
f 317//2 319//2 318//2
f 318//2 319//2 320//2
f 319//2 321//2 320//2
f 320//2 321//2 322//2
f 321//2 323//2 322//2
f 322//2 323//2 324//2
f 323//2 325//2 324//2
f 324//2 325//2 326//2
f 325//2 327//2 326//2
f 326//2 327//2 328//2
f 327//2 329//2 328//2
f 328//2 329//2 330//2
f 329//2 331//2 330//2
f 330//2 331//2 332//2
f 331//2 333//2 332//2
f 332//2 333//2 334//2
f 333//2 335//2 334//2
f 334//2 335//2 336//2
f 335//2 337//2 336//2
f 336//2 337//2 338//2
f 337//2 339//2 338//2
f 338//2 339//2 340//2
f 339//2 341//2 340//2
f 340//2 341//2 342//2
f 341//2 343//2 342//2
f 342//2 343//2 344//2
f 343//2 345//2 344//2
f 344//2 345//2 346//2
f 346//2 345//2 347//2
f 345//2 348//2 347//2
f 347//2 348//2 349//2
f 348//2 350//2 349//2
f 349//2 350//2 351//2
f 350//2 352//2 351//2
f 351//2 352//2 353//2
f 352//2 354//2 353//2
f 353//2 354//2 355//2
f 354//2 356//2 355//2
f 355//2 356//2 357//2
f 356//2 358//2 357//2
f 357//2 358//2 359//2
f 358//2 360//2 359//2
f 359//2 360//2 361//2
f 360//2 362//2 361//2
f 361//2 362//2 363//2
f 362//2 364//2 363//2
f 363//2 364//2 365//2
f 364//2 366//2 365//2
f 365//2 366//2 367//2
f 366//2 368//2 367//2
f 367//2 368//2 369//2
f 368//2 370//2 369//2
f 369//2 370//2 371//2
f 370//2 372//2 371//2
f 371//2 372//2 373//2
f 372//2 374//2 373//2
f 373//2 374//2 375//2
f 374//2 376//2 375//2
f 375//2 376//2 377//2
f 376//2 378//2 377//2
f 377//2 378//2 379//2
f 379//2 378//2 380//2
f 378//2 381//2 380//2
f 380//2 381//2 382//2
f 381//2 383//2 382//2
f 382//2 383//2 384//2
f 383//2 385//2 384//2
f 384//2 385//2 386//2
f 385//2 387//2 386//2
f 386//2 387//2 388//2
f 388//2 387//2 389//2
f 387//2 390//2 389//2
f 389//2 390//2 391//2
f 391//2 390//2 392//2
f 392//2 390//2 301//2
f 301//2 390//2 302//2
f 390//2 393//2 302//2
f 302//2 393//2 394//2
f 393//2 395//2 394//2
f 394//2 395//2 396//2
f 395//2 397//2 396//2
f 396//2 397//2 398//2
f 397//2 399//2 398//2
f 400//2 398//2 399//2
usemtl material_1_0
f 1//1 2//1 3//1
f 2//1 1//1 4//1
f 2//1 4//1 5//1
f 5//1 4//1 6//1
f 5//1 6//1 7//1
f 7//1 6//1 8//1
f 7//1 8//1 9//1
f 9//1 8//1 10//1
f 9//1 10//1 11//1
f 11//1 10//1 12//1
f 12//1 10//1 13//1
f 13//1 10//1 14//1
f 14//1 10//1 15//1
f 14//1 15//1 16//1
f 16//1 15//1 17//1
f 17//1 15//1 18//1
f 17//1 18//1 19//1
f 19//1 18//1 20//1
f 19//1 20//1 21//1
f 21//1 20//1 22//1
f 21//1 22//1 23//1
f 23//1 22//1 24//1
f 23//1 24//1 25//1
f 25//1 24//1 26//1
f 26//1 24//1 27//1
f 26//1 27//1 28//1
f 28//1 27//1 29//1
f 28//1 29//1 30//1
f 30//1 29//1 31//1
f 30//1 31//1 32//1
f 32//1 31//1 33//1
f 32//1 33//1 34//1
f 34//1 33//1 35//1
f 34//1 35//1 36//1
f 36//1 35//1 37//1
f 36//1 37//1 38//1
f 38//1 37//1 39//1
f 38//1 39//1 40//1
f 40//1 39//1 41//1
f 40//1 41//1 42//1
f 42//1 41//1 43//1
f 42//1 43//1 44//1
f 44//1 43//1 45//1
f 44//1 45//1 46//1
f 46//1 45//1 47//1
f 46//1 47//1 48//1
f 48//1 47//1 49//1
f 48//1 49//1 50//1
f 50//1 49//1 51//1
f 50//1 51//1 52//1
f 52//1 51//1 53//1
f 52//1 53//1 54//1
f 54//1 53//1 55//1
f 54//1 55//1 56//1
f 56//1 55//1 57//1
f 56//1 57//1 58//1
f 58//1 57//1 59//1
f 59//1 57//1 60//1
f 59//1 60//1 61//1
f 61//1 60//1 62//1
f 61//1 62//1 63//1
f 63//1 62//1 64//1
f 63//1 64//1 65//1
f 65//1 64//1 66//1
f 65//1 66//1 67//1
f 67//1 66//1 68//1
f 67//1 68//1 69//1
f 69//1 68//1 70//1
f 69//1 70//1 71//1
f 71//1 70//1 72//1
f 71//1 72//1 73//1
f 73//1 72//1 74//1
f 73//1 74//1 75//1
f 75//1 74//1 76//1
f 75//1 76//1 77//1
f 77//1 76//1 78//1
f 77//1 78//1 79//1
f 79//1 78//1 80//1
f 79//1 80//1 81//1
f 81//1 80//1 82//1
f 81//1 82//1 83//1
f 83//1 82//1 84//1
f 83//1 84//1 85//1
f 85//1 84//1 86//1
f 85//1 86//1 87//1
f 87//1 86//1 88//1
f 87//1 88//1 89//1
f 89//1 88//1 90//1
f 90//1 88//1 91//1
f 90//1 91//1 92//1
f 92//1 91//1 93//1
f 92//1 93//1 94//1
f 94//1 93//1 95//1
f 94//1 95//1 96//1
f 96//1 95//1 97//1
f 96//1 97//1 98//1
f 98//1 97//1 99//1
f 99//1 97//1 100//1
f 99//1 100//1 101//1
f 101//1 100//1 102//1
f 11//1 103//1 9//1
f 103//1 11//1 104//1
f 103//1 104//1 105//1
f 103//1 105//1 106//1
f 103//1 106//1 107//1
f 107//1 106//1 108//1
f 107//1 108//1 109//1
f 107//1 109//1 110//1
f 110//1 109//1 111//1
f 110//1 111//1 112//1
f 112//1 111//1 113//1
f 112//1 113//1 114//1
f 114//1 113//1 115//1
f 114//1 115//1 116//1
f 116//1 115//1 117//1
f 116//1 117//1 118//1
f 116//1 118//1 119//1
f 119//1 118//1 120//1
f 119//1 120//1 121//1
f 121//1 120//1 122//1
f 121//1 122//1 123//1
f 123//1 122//1 124//1
f 123//1 124//1 125//1
f 125//1 124//1 126//1
f 125//1 126//1 127//1
f 127//1 126//1 128//1
f 127//1 128//1 129//1
f 129//1 128//1 130//1
f 129//1 130//1 131//1
f 131//1 130//1 132//1
f 131//1 132//1 133//1
f 133//1 132//1 134//1
f 133//1 134//1 135//1
f 135//1 134//1 136//1
f 135//1 136//1 137//1
f 137//1 136//1 138//1
f 137//1 138//1 139//1
f 139//1 138//1 140//1
f 139//1 140//1 141//1
f 141//1 140//1 142//1
f 141//1 142//1 143//1
f 143//1 142//1 144//1
f 143//1 144//1 145//1
f 145//1 144//1 146//1
f 145//1 146//1 147//1
f 147//1 146//1 148//1
f 147//1 148//1 149//1
f 147//1 149//1 150//1
f 150//1 149//1 151//1
f 150//1 151//1 152//1
f 152//1 151//1 153//1
f 152//1 153//1 154//1
f 154//1 153//1 155//1
f 154//1 155//1 156//1
f 156//1 155//1 157//1
f 156//1 157//1 158//1
f 158//1 157//1 159//1
f 158//1 159//1 160//1
f 160//1 159//1 161//1
f 160//1 161//1 162//1
f 162//1 161//1 163//1
f 162//1 163//1 164//1
f 164//1 163//1 165//1
f 164//1 165//1 166//1
f 166//1 165//1 167//1
f 166//1 167//1 168//1
f 168//1 167//1 169//1
f 168//1 169//1 170//1
f 170//1 169//1 171//1
f 170//1 171//1 172//1
f 172//1 171//1 173//1
f 172//1 173//1 174//1
f 174//1 173//1 175//1
f 174//1 175//1 176//1
f 176//1 175//1 177//1
f 176//1 177//1 178//1
f 178//1 177//1 179//1
f 178//1 179//1 180//1
f 180//1 179//1 181//1
f 180//1 181//1 182//1
f 180//1 182//1 183//1
f 183//1 182//1 184//1
f 183//1 184//1 185//1
f 185//1 184//1 186//1
f 185//1 186//1 187//1
f 187//1 186//1 188//1
f 187//1 188//1 189//1
f 189//1 188//1 190//1
f 189//1 190//1 191//1
f 189//1 191//1 192//1
f 192//1 191//1 193//1
f 192//1 193//1 102//1
f 192//1 102//1 100//1
f 192//1 100//1 194//1
f 192//1 194//1 195//1
f 195//1 194//1 196//1
f 195//1 196//1 197//1
f 197//1 196//1 198//1
f 197//1 198//1 199//1
f 199//1 198//1 200//1
usemtl material_2_0
