# SSTK version 0.8.0
# 134
mtllib original-134.mtl
o #ID163
v 0.083942 0.464077 0.454438
v 0.084803 0.471270 0.454438
v 0.084801 0.472716 0.454438
v 0.085077 0.462760 0.454438
v 0.084996 0.469862 0.454438
v 0.085376 0.468514 0.454438
v 0.085468 0.462369 0.454438
v 0.085936 0.467251 0.454438
v 0.086599 0.461431 0.454438
v 0.086667 0.466093 0.454438
v 0.088151 0.460451 0.454438
v 0.087556 0.465061 0.454438
v 0.087747 0.464870 0.454438
v 0.088588 0.464172 0.454438
v 0.089860 0.459693 0.454438
v 0.089746 0.463441 0.454438
v 0.091009 0.462881 0.454438
v 0.091666 0.459184 0.454438
v 0.092357 0.462501 0.454438
v 0.093532 0.458929 0.454438
v 0.093765 0.462308 0.454438
v 0.095425 0.458926 0.454438
v 0.095211 0.462306 0.454438
v 0.096668 0.462494 0.454438
v 0.097311 0.459169 0.454438
v 0.098113 0.462868 0.454438
v 0.099162 0.459649 0.454438
v 0.099520 0.463424 0.454438
v 0.100948 0.460354 0.454438
v 0.100866 0.464150 0.454438
v 0.102126 0.465036 0.454438
v 0.102646 0.461271 0.454438
v 0.103281 0.466065 0.454438
v 0.104229 0.462382 0.454438
v 0.122400 0.485184 0.454438
v 0.105602 0.463606 0.454438
v 0.124859 0.482863 0.454438
v 0.123429 0.486338 0.454438
v 0.124314 0.487599 0.454438
v 0.125041 0.488945 0.454438
v 0.126083 0.484236 0.454438
v 0.125596 0.490352 0.454438
v 0.125971 0.491797 0.454438
v 0.126159 0.493254 0.454438
v 0.127194 0.485819 0.454438
v 0.127034 0.501866 0.454438
v 0.128014 0.500314 0.454438
v 0.128111 0.487516 0.454438
v 0.128772 0.498604 0.454438
v 0.128816 0.489303 0.454438
v 0.129281 0.496799 0.454438
v 0.129296 0.491154 0.454438
v 0.129536 0.494933 0.454438
v 0.129539 0.493040 0.454438
v 0.081424 0.471037 0.454438
v 0.081664 0.474816 0.454438
v 0.081421 0.472930 0.454438
v 0.081679 0.469171 0.454438
v 0.082144 0.476667 0.454438
v 0.082188 0.467366 0.454438
v 0.082849 0.478453 0.454438
v 0.082946 0.465656 0.454438
v 0.083766 0.480151 0.454438
v 0.084877 0.481734 0.454438
v 0.084989 0.474173 0.454438
v 0.086101 0.483107 0.454438
v 0.085363 0.475618 0.454438
v 0.085919 0.477025 0.454438
v 0.086645 0.478371 0.454438
v 0.087531 0.479631 0.454438
v 0.105358 0.502364 0.454438
v 0.088560 0.480786 0.454438
v 0.107679 0.499905 0.454438
v 0.106731 0.503588 0.454438
v 0.108314 0.504699 0.454438
v 0.108833 0.500934 0.454438
v 0.110011 0.505616 0.454438
v 0.110094 0.501819 0.454438
v 0.111798 0.506321 0.454438
v 0.110181 0.501866 0.454438
v 0.111440 0.502546 0.454438
v 0.112847 0.503101 0.454438
v 0.113649 0.506801 0.454438
v 0.114292 0.503476 0.454438
v 0.115535 0.507044 0.454438
v 0.115749 0.503664 0.454438
v 0.117428 0.507041 0.454438
v 0.117195 0.503662 0.454438
v 0.118603 0.503469 0.454438
v 0.119294 0.506786 0.454438
v 0.119950 0.503089 0.454438
v 0.121099 0.506277 0.454438
v 0.121214 0.502529 0.454438
v 0.122809 0.505519 0.454438
v 0.122264 0.501866 0.454438
v 0.122372 0.501798 0.454438
v 0.123404 0.500909 0.454438
v 0.124388 0.504523 0.454438
v 0.123595 0.500718 0.454438
v 0.124293 0.499877 0.454438
v 0.125024 0.498719 0.454438
v 0.125705 0.503388 0.454438
v 0.125584 0.497455 0.454438
v 0.125964 0.496108 0.454438
v 0.126096 0.502997 0.454438
v 0.126157 0.494700 0.454438
v 0.126159 0.493254 0.454438
v 0.126157 0.494700 0.454438
v 0.127034 0.501866 0.454438
v 0.126096 0.502997 0.454438
v 0.125964 0.496108 0.454438
v 0.125705 0.503388 0.454438
v 0.125584 0.497455 0.454438
v 0.125024 0.498719 0.454438
v 0.124388 0.504523 0.454438
v 0.124293 0.499877 0.454438
v 0.123595 0.500718 0.454438
v 0.123404 0.500909 0.454438
v 0.122809 0.505519 0.454438
v 0.122372 0.501798 0.454438
v 0.122264 0.501866 0.454438
v 0.121214 0.502529 0.454438
v 0.121099 0.506277 0.454438
v 0.119950 0.503089 0.454438
v 0.119294 0.506786 0.454438
v 0.118603 0.503469 0.454438
v 0.117428 0.507041 0.454438
v 0.117195 0.503662 0.454438
v 0.115749 0.503664 0.454438
v 0.115535 0.507044 0.454438
v 0.114292 0.503476 0.454438
v 0.113649 0.506801 0.454438
v 0.112847 0.503101 0.454438
v 0.111798 0.506321 0.454438
v 0.111440 0.502546 0.454438
v 0.110181 0.501866 0.454438
v 0.110094 0.501819 0.454438
v 0.110011 0.505616 0.454438
v 0.108833 0.500934 0.454438
v 0.108314 0.504699 0.454438
v 0.107679 0.499905 0.454438
v 0.106731 0.503588 0.454438
v 0.105358 0.502364 0.454438
v 0.088560 0.480786 0.454438
v 0.087531 0.479631 0.454438
v 0.086101 0.483107 0.454438
v 0.086645 0.478371 0.454438
v 0.085919 0.477025 0.454438
v 0.085363 0.475618 0.454438
v 0.084989 0.474173 0.454438
v 0.084877 0.481734 0.454438
v 0.084801 0.472716 0.454438
v 0.083942 0.464077 0.454438
v 0.083766 0.480151 0.454438
v 0.082946 0.465656 0.454438
v 0.082849 0.478453 0.454438
v 0.082188 0.467366 0.454438
v 0.082144 0.476667 0.454438
v 0.081679 0.469171 0.454438
v 0.081664 0.474816 0.454438
v 0.081424 0.471037 0.454438
v 0.081421 0.472930 0.454438
v 0.129539 0.493040 0.454438
v 0.129296 0.491154 0.454438
v 0.129536 0.494933 0.454438
v 0.129281 0.496799 0.454438
v 0.128816 0.489303 0.454438
v 0.128772 0.498604 0.454438
v 0.128111 0.487516 0.454438
v 0.128014 0.500314 0.454438
v 0.127194 0.485819 0.454438
v 0.126083 0.484236 0.454438
v 0.125971 0.491797 0.454438
v 0.125596 0.490352 0.454438
v 0.125041 0.488945 0.454438
v 0.124859 0.482863 0.454438
v 0.124314 0.487599 0.454438
v 0.123429 0.486338 0.454438
v 0.122400 0.485184 0.454438
v 0.105602 0.463606 0.454438
v 0.104229 0.462382 0.454438
v 0.103281 0.466065 0.454438
v 0.102646 0.461271 0.454438
v 0.102126 0.465036 0.454438
v 0.100948 0.460354 0.454438
v 0.100866 0.464150 0.454438
v 0.099520 0.463424 0.454438
v 0.099162 0.459649 0.454438
v 0.098113 0.462868 0.454438
v 0.097311 0.459169 0.454438
v 0.096668 0.462494 0.454438
v 0.095425 0.458926 0.454438
v 0.095211 0.462306 0.454438
v 0.093765 0.462308 0.454438
v 0.093532 0.458929 0.454438
v 0.092357 0.462501 0.454438
v 0.091666 0.459184 0.454438
v 0.091009 0.462881 0.454438
v 0.089860 0.459693 0.454438
v 0.089746 0.463441 0.454438
v 0.088588 0.464172 0.454438
v 0.088151 0.460451 0.454438
v 0.087747 0.464870 0.454438
v 0.087556 0.465061 0.454438
v 0.086667 0.466093 0.454438
v 0.086599 0.461431 0.454438
v 0.085936 0.467251 0.454438
v 0.085468 0.462369 0.454438
v 0.085376 0.468514 0.454438
v 0.085077 0.462760 0.454438
v 0.084996 0.469862 0.454438
v 0.084803 0.471270 0.454438
v 0.086101 0.483107 0.454438
v 0.084877 0.481734 0.454438
v 0.083766 0.480151 0.454438
v 0.082849 0.478453 0.454438
v 0.082144 0.476667 0.454438
v 0.081664 0.474816 0.454438
v 0.081421 0.472930 0.454438
v 0.081424 0.471037 0.454438
v 0.081679 0.469171 0.454438
v 0.082188 0.467366 0.454438
v 0.082946 0.465656 0.454438
v 0.083942 0.464077 0.454438
v 0.085077 0.462760 0.454438
v 0.085468 0.462369 0.454438
v 0.086599 0.461431 0.454438
v 0.088151 0.460451 0.454438
v 0.089860 0.459693 0.454438
v 0.091666 0.459184 0.454438
v 0.093532 0.458929 0.454438
v 0.095425 0.458926 0.454438
v 0.097311 0.459169 0.454438
v 0.099162 0.459649 0.454438
v 0.100948 0.460354 0.454438
v 0.102646 0.461271 0.454438
v 0.104229 0.462382 0.454438
v 0.105602 0.463606 0.454438
v 0.124859 0.482863 0.454438
v 0.126083 0.484236 0.454438
v 0.127194 0.485819 0.454438
v 0.128111 0.487516 0.454438
v 0.128816 0.489303 0.454438
v 0.129296 0.491154 0.454438
v 0.129539 0.493040 0.454438
v 0.129536 0.494933 0.454438
v 0.129281 0.496799 0.454438
v 0.128772 0.498604 0.454438
v 0.128014 0.500314 0.454438
v 0.127034 0.501866 0.454438
v 0.126096 0.502997 0.454438
v 0.125705 0.503388 0.454438
v 0.124388 0.504523 0.454438
v 0.122809 0.505519 0.454438
v 0.121099 0.506277 0.454438
v 0.119294 0.506786 0.454438
v 0.117428 0.507041 0.454438
v 0.115535 0.507044 0.454438
v 0.113649 0.506801 0.454438
v 0.111798 0.506321 0.454438
v 0.110011 0.505616 0.454438
v 0.108314 0.504699 0.454438
v 0.106731 0.503588 0.454438
v 0.105358 0.502364 0.454438
v 0.110181 0.501866 0.454438
v 0.111440 0.502546 0.454438
v 0.112847 0.503101 0.454438
v 0.114292 0.503476 0.454438
v 0.115749 0.503664 0.454438
v 0.117195 0.503662 0.454438
v 0.118603 0.503469 0.454438
v 0.119950 0.503089 0.454438
v 0.121214 0.502529 0.454438
v 0.122264 0.501866 0.454438
v 0.122372 0.501798 0.454438
v 0.123404 0.500909 0.454438
v 0.123595 0.500718 0.454438
v 0.124293 0.499877 0.454438
v 0.125024 0.498719 0.454438
v 0.125584 0.497455 0.454438
v 0.125964 0.496108 0.454438
v 0.126157 0.494700 0.454438
v 0.126159 0.493254 0.454438
v 0.125971 0.491797 0.454438
v 0.125596 0.490352 0.454438
v 0.125041 0.488945 0.454438
v 0.124314 0.487599 0.454438
v 0.123429 0.486338 0.454438
v 0.122400 0.485184 0.454438
v 0.103281 0.466065 0.454438
v 0.102126 0.465036 0.454438
v 0.100866 0.464150 0.454438
v 0.099520 0.463424 0.454438
v 0.098113 0.462868 0.454438
v 0.096668 0.462494 0.454438
v 0.095211 0.462306 0.454438
v 0.093765 0.462308 0.454438
v 0.092357 0.462501 0.454438
v 0.091009 0.462881 0.454438
v 0.089746 0.463441 0.454438
v 0.088588 0.464172 0.454438
v 0.087747 0.464870 0.454438
v 0.087556 0.465061 0.454438
v 0.086667 0.466093 0.454438
v 0.085936 0.467251 0.454438
v 0.085376 0.468514 0.454438
v 0.084996 0.469862 0.454438
v 0.084803 0.471270 0.454438
v 0.084801 0.472716 0.454438
v 0.084989 0.474173 0.454438
v 0.085363 0.475618 0.454438
v 0.085919 0.477025 0.454438
v 0.086645 0.478371 0.454438
v 0.087531 0.479631 0.454438
v 0.088560 0.480786 0.454438
v 0.107679 0.499905 0.454438
v 0.108833 0.500934 0.454438
v 0.110094 0.501819 0.454438
v 0.086101 0.483107 0.454438
v 0.084877 0.481734 0.452748
v 0.084877 0.481734 0.454438
v 0.086101 0.483107 0.452748
v 0.086101 0.483107 0.452748
v 0.086101 0.483107 0.454438
v 0.084877 0.481734 0.452748
v 0.084877 0.481734 0.454438
v 0.086101 0.483107 0.452748
v 0.084877 0.481734 0.452748
v 0.083766 0.480151 0.452748
v 0.083766 0.480151 0.454438
v 0.083766 0.480151 0.452748
v 0.083766 0.480151 0.454438
v 0.083766 0.480151 0.452748
v 0.082849 0.478453 0.452748
v 0.082849 0.478453 0.454438
v 0.082849 0.478453 0.452748
v 0.082849 0.478453 0.454438
v 0.082849 0.478453 0.452748
v 0.082144 0.476667 0.452748
v 0.082144 0.476667 0.454438
v 0.082144 0.476667 0.452748
v 0.082144 0.476667 0.454438
v 0.082144 0.476667 0.452748
v 0.081664 0.474816 0.452748
v 0.081664 0.474816 0.454438
v 0.081664 0.474816 0.452748
v 0.081664 0.474816 0.454438
v 0.081664 0.474816 0.452748
v 0.081421 0.472930 0.452748
v 0.081421 0.472930 0.454438
v 0.081421 0.472930 0.452748
v 0.081421 0.472930 0.454438
v 0.081421 0.472930 0.452748
v 0.081424 0.471037 0.452748
v 0.081424 0.471037 0.454438
v 0.081424 0.471037 0.452748
v 0.081424 0.471037 0.454438
v 0.081424 0.471037 0.452748
v 0.081679 0.469171 0.452748
v 0.081679 0.469171 0.454438
v 0.081679 0.469171 0.452748
v 0.081679 0.469171 0.454438
v 0.081679 0.469171 0.452748
v 0.082188 0.467366 0.452748
v 0.082188 0.467366 0.454438
v 0.082188 0.467366 0.452748
v 0.082188 0.467366 0.454438
v 0.082188 0.467366 0.452748
v 0.082946 0.465656 0.452748
v 0.082946 0.465656 0.454438
v 0.082946 0.465656 0.452748
v 0.082946 0.465656 0.454438
v 0.082946 0.465656 0.452748
v 0.083942 0.464077 0.452748
v 0.083942 0.464077 0.454438
v 0.083942 0.464077 0.452748
v 0.083942 0.464077 0.454438
v 0.083942 0.464077 0.452748
v 0.085077 0.462760 0.452748
v 0.085077 0.462760 0.454438
v 0.085077 0.462760 0.452748
v 0.085077 0.462760 0.454438
v 0.085077 0.462760 0.452748
v 0.086599 0.461431 0.454438
v 0.085468 0.462369 0.452748
v 0.086599 0.461431 0.452748
v 0.085468 0.462369 0.454438
v 0.085468 0.462369 0.454438
v 0.086599 0.461431 0.454438
v 0.085468 0.462369 0.452748
v 0.086599 0.461431 0.452748
v 0.085468 0.462369 0.452748
v 0.086599 0.461431 0.452748
v 0.088151 0.460451 0.454438
v 0.088151 0.460451 0.452748
v 0.088151 0.460451 0.454438
v 0.088151 0.460451 0.452748
v 0.088151 0.460451 0.452748
v 0.089860 0.459693 0.452748
v 0.089860 0.459693 0.454438
v 0.089860 0.459693 0.454438
v 0.089860 0.459693 0.452748
v 0.089860 0.459693 0.452748
v 0.091666 0.459184 0.452748
v 0.091666 0.459184 0.454438
v 0.091666 0.459184 0.454438
v 0.091666 0.459184 0.452748
v 0.091666 0.459184 0.452748
v 0.093532 0.458929 0.452748
v 0.093532 0.458929 0.454438
v 0.093532 0.458929 0.454438
v 0.093532 0.458929 0.452748
v 0.093532 0.458929 0.452748
v 0.095425 0.458926 0.454438
v 0.095425 0.458926 0.452748
v 0.095425 0.458926 0.454438
v 0.095425 0.458926 0.452748
v 0.095425 0.458926 0.452748
v 0.097311 0.459169 0.454438
v 0.097311 0.459169 0.452748
v 0.097311 0.459169 0.454438
v 0.097311 0.459169 0.452748
v 0.097311 0.459169 0.452748
v 0.099162 0.459649 0.452748
v 0.099162 0.459649 0.454438
v 0.099162 0.459649 0.454438
v 0.099162 0.459649 0.452748
v 0.099162 0.459649 0.452748
v 0.100948 0.460354 0.454438
v 0.100948 0.460354 0.452748
v 0.100948 0.460354 0.454438
v 0.100948 0.460354 0.452748
v 0.100948 0.460354 0.452748
v 0.102646 0.461271 0.454438
v 0.102646 0.461271 0.452748
v 0.102646 0.461271 0.454438
v 0.102646 0.461271 0.452748
v 0.102646 0.461271 0.452748
v 0.104229 0.462382 0.452748
v 0.104229 0.462382 0.454438
v 0.104229 0.462382 0.454438
v 0.104229 0.462382 0.452748
v 0.104229 0.462382 0.452748
v 0.105602 0.463606 0.452748
v 0.105602 0.463606 0.454438
v 0.105602 0.463606 0.454438
v 0.105602 0.463606 0.452748
v 0.105602 0.463606 0.452748
v 0.124859 0.482863 0.452748
v 0.105602 0.463606 0.454438
v 0.105602 0.463606 0.452748
v 0.124859 0.482863 0.454438
v 0.124859 0.482863 0.454438
v 0.124859 0.482863 0.452748
v 0.105602 0.463606 0.454438
v 0.105602 0.463606 0.452748
v 0.124859 0.482863 0.452748
v 0.126083 0.484236 0.452748
v 0.124859 0.482863 0.454438
v 0.124859 0.482863 0.452748
v 0.126083 0.484236 0.454438
v 0.126083 0.484236 0.454438
v 0.126083 0.484236 0.452748
v 0.124859 0.482863 0.454438
v 0.124859 0.482863 0.452748
v 0.126083 0.484236 0.452748
v 0.127194 0.485819 0.452748
v 0.127194 0.485819 0.454438
v 0.127194 0.485819 0.454438
v 0.127194 0.485819 0.452748
v 0.127194 0.485819 0.452748
v 0.128111 0.487516 0.452748
v 0.128111 0.487516 0.454438
v 0.128111 0.487516 0.454438
v 0.128111 0.487516 0.452748
v 0.128111 0.487516 0.452748
v 0.128816 0.489303 0.452748
v 0.128816 0.489303 0.454438
v 0.128816 0.489303 0.454438
v 0.128816 0.489303 0.452748
v 0.128816 0.489303 0.452748
v 0.129296 0.491154 0.452748
v 0.129296 0.491154 0.454438
v 0.129296 0.491154 0.454438
v 0.129296 0.491154 0.452748
v 0.129296 0.491154 0.452748
v 0.129539 0.493040 0.452748
v 0.129539 0.493040 0.454438
v 0.129539 0.493040 0.454438
v 0.129539 0.493040 0.452748
v 0.129539 0.493040 0.452748
v 0.129536 0.494933 0.452748
v 0.129536 0.494933 0.454438
v 0.129536 0.494933 0.454438
v 0.129536 0.494933 0.452748
v 0.129536 0.494933 0.452748
v 0.129281 0.496799 0.452748
v 0.129281 0.496799 0.454438
v 0.129281 0.496799 0.454438
v 0.129281 0.496799 0.452748
v 0.129281 0.496799 0.452748
v 0.128772 0.498604 0.452748
v 0.128772 0.498604 0.454438
v 0.128772 0.498604 0.454438
v 0.128772 0.498604 0.452748
v 0.128772 0.498604 0.452748
v 0.128014 0.500314 0.452748
v 0.128014 0.500314 0.454438
v 0.128014 0.500314 0.454438
v 0.128014 0.500314 0.452748
v 0.128014 0.500314 0.452748
v 0.127034 0.501866 0.452748
v 0.127034 0.501866 0.454438
v 0.127034 0.501866 0.454438
v 0.127034 0.501866 0.452748
v 0.127034 0.501866 0.452748
v 0.124388 0.504523 0.454438
v 0.125705 0.503388 0.452748
v 0.124388 0.504523 0.452748
v 0.125705 0.503388 0.454438
v 0.125705 0.503388 0.454438
v 0.124388 0.504523 0.454438
v 0.125705 0.503388 0.452748
v 0.124388 0.504523 0.452748
v 0.125705 0.503388 0.452748
v 0.124388 0.504523 0.452748
v 0.122809 0.505519 0.452748
v 0.122809 0.505519 0.454438
v 0.122809 0.505519 0.454438
v 0.122809 0.505519 0.452748
v 0.122809 0.505519 0.452748
v 0.121099 0.506277 0.452748
v 0.121099 0.506277 0.454438
v 0.121099 0.506277 0.454438
v 0.121099 0.506277 0.452748
v 0.121099 0.506277 0.452748
v 0.119294 0.506786 0.454438
v 0.119294 0.506786 0.452748
v 0.119294 0.506786 0.454438
v 0.119294 0.506786 0.452748
v 0.119294 0.506786 0.452748
v 0.117428 0.507041 0.452748
v 0.117428 0.507041 0.454438
v 0.117428 0.507041 0.454438
v 0.117428 0.507041 0.452748
v 0.117428 0.507041 0.452748
v 0.115535 0.507044 0.452748
v 0.115535 0.507044 0.454438
v 0.115535 0.507044 0.454438
v 0.115535 0.507044 0.452748
v 0.115535 0.507044 0.452748
v 0.113649 0.506801 0.454438
v 0.113649 0.506801 0.452748
v 0.113649 0.506801 0.454438
v 0.113649 0.506801 0.452748
v 0.113649 0.506801 0.452748
v 0.111798 0.506321 0.454438
v 0.111798 0.506321 0.452748
v 0.111798 0.506321 0.454438
v 0.111798 0.506321 0.452748
v 0.111798 0.506321 0.452748
v 0.110011 0.505616 0.452748
v 0.110011 0.505616 0.454438
v 0.110011 0.505616 0.454438
v 0.110011 0.505616 0.452748
v 0.110011 0.505616 0.452748
v 0.108314 0.504699 0.454438
v 0.108314 0.504699 0.452748
v 0.108314 0.504699 0.454438
v 0.108314 0.504699 0.452748
v 0.108314 0.504699 0.452748
v 0.106731 0.503588 0.452748
v 0.106731 0.503588 0.454438
v 0.106731 0.503588 0.454438
v 0.106731 0.503588 0.452748
v 0.106731 0.503588 0.452748
v 0.105358 0.502364 0.454438
v 0.105358 0.502364 0.452748
v 0.105358 0.502364 0.454438
v 0.105358 0.502364 0.452748
v 0.105358 0.502364 0.452748
v 0.105358 0.502364 0.454438
v 0.086101 0.483107 0.452748
v 0.086101 0.483107 0.454438
v 0.105358 0.502364 0.452748
v 0.105358 0.502364 0.452748
v 0.105358 0.502364 0.454438
v 0.086101 0.483107 0.452748
v 0.086101 0.483107 0.454438
vn 0 0 1
vn -0.7466505145512854 0.6652165129642384 0
vn -0.7838543839868546 0.6209446873148919 0
vn -0.8506301801750898 0.5257644877464567 0
vn -0.9066439441994509 0.42189662056772026 0
vn -0.9508262407231851 0.3097248132652849 0
vn -0.9818168375914456 0.18983070726816897 0
vn -0.9980033051475772 0.06316172032578032 0
vn -0.9976309015954622 -0.06879378011001852 0
vn -0.9790012365999962 -0.20385430762110054 0
vn -0.9407616887677099 -0.33906849595166794 0
vn -0.8822530541846619 -0.4707754755526632 0
vn -0.8038387136913911 -0.5948473101317429 0
vn -0.7576742821784025 -0.6526328846491284 0
vn -0.5874374045811541 -0.8092696063111214 0
vn -0.6386018863419343 -0.7695372835415601 0
vn -0.4707754755526632 -0.8822530541846619 0
vn -0.33906849595166794 -0.9407616887677099 0
vn -0.20385430762110054 -0.9790012365999962 0
vn -0.06879378011001852 -0.9976309015954622 0
vn 0.06316172032578032 -0.9980033051475772 0
vn 0.18983070726816897 -0.9818168375914456 0
vn 0.3097248132652849 -0.9508262407231851 0
vn 0.42189662056772026 -0.9066439441994509 0
vn 0.5257644877464567 -0.8506301801750898 0
vn 0.6209446873148919 -0.7838543839868546 0
vn 0.6652165129642384 -0.7466505145512854 0
vn 0.7071067811865476 -0.7071067811865476 0
vn 0.7838543839868546 -0.6209446873148919 0
vn 0.7466505145512854 -0.6652165129642384 0
vn 0.8506301801750898 -0.5257644877464567 0
vn 0.9066439441994509 -0.42189662056772026 0
vn 0.9508262407231851 -0.3097248132652849 0
vn 0.9818168375914456 -0.18983070726816897 0
vn 0.9980033051475772 -0.06316172032578032 0
vn 0.9976309015954622 0.06879378011001852 0
vn 0.9790012365999962 0.20385430762110054 0
vn 0.9407616887677099 0.33906849595166794 0
vn 0.8822530541846619 0.4707754755526632 0
vn 0.8456059005521385 0.5338077003485499 0
vn 0.5948473101317429 0.8038387136913911 0
vn 0.6526328846491284 0.7576742821784025 0
vn 0.4707754755526632 0.8822530541846619 0
vn 0.33906849595166794 0.9407616887677099 0
vn 0.20385430762110054 0.9790012365999962 0
vn 0.06879378011001852 0.9976309015954622 0
vn -0.06316172032578032 0.9980033051475772 0
vn -0.18983070726816897 0.9818168375914456 0
vn -0.3097248132652849 0.9508262407231851 0
vn -0.42189662056772026 0.9066439441994509 0
vn -0.5257644877464567 0.8506301801750898 0
vn -0.6209446873148919 0.7838543839868546 0
vn -0.6652165129642384 0.7466505145512854 0
vn -0.7071067811865476 0.7071067811865476 0
vn 0 0 -1
vn 0.8038387136913911 0.5948473101317429 0
vn 0.7576742821784025 0.6526328846491284 0
vn 0.6386018863419343 0.7695372835415601 0
vn 0.5874374045811541 0.8092696063111214 0
vn -0.8456059005521385 -0.5338077003485499 0
vn -0.6526328846491284 -0.7576742821784025 0
vn -0.5948473101317429 -0.8038387136913911 0
usemtl material_0_0
f 107//55 108//55 109//55
f 109//55 108//55 110//55
f 108//55 111//55 110//55
f 110//55 111//55 112//55
f 111//55 113//55 112//55
f 113//55 114//55 112//55
f 112//55 114//55 115//55
f 114//55 116//55 115//55
f 116//55 117//55 115//55
f 117//55 118//55 115//55
f 115//55 118//55 119//55
f 118//55 120//55 119//55
f 120//55 121//55 119//55
f 121//55 122//55 119//55
f 119//55 122//55 123//55
f 122//55 124//55 123//55
f 123//55 124//55 125//55
f 124//55 126//55 125//55
f 125//55 126//55 127//55
f 126//55 128//55 127//55
f 128//55 129//55 127//55
f 127//55 129//55 130//55
f 129//55 131//55 130//55
f 130//55 131//55 132//55
f 131//55 133//55 132//55
f 132//55 133//55 134//55
f 133//55 135//55 134//55
f 135//55 136//55 134//55
f 136//55 137//55 134//55
f 134//55 137//55 138//55
f 137//55 139//55 138//55
f 138//55 139//55 140//55
f 139//55 141//55 140//55
f 140//55 141//55 142//55
f 142//55 141//55 143//55
f 141//55 144//55 143//55
f 144//55 145//55 143//55
f 143//55 145//55 146//55
f 145//55 147//55 146//55
f 147//55 148//55 146//55
f 148//55 149//55 146//55
f 149//55 150//55 146//55
f 146//55 150//55 151//55
f 150//55 152//55 151//55
f 152//55 153//55 151//55
f 151//55 153//55 154//55
f 153//55 155//55 154//55
f 154//55 155//55 156//55
f 155//55 157//55 156//55
f 156//55 157//55 158//55
f 157//55 159//55 158//55
f 158//55 159//55 160//55
f 159//55 161//55 160//55
f 162//55 160//55 161//55
f 163//55 164//55 165//55
f 165//55 164//55 166//55
f 164//55 167//55 166//55
f 166//55 167//55 168//55
f 167//55 169//55 168//55
f 168//55 169//55 170//55
f 169//55 171//55 170//55
f 170//55 171//55 109//55
f 109//55 171//55 107//55
f 171//55 172//55 107//55
f 107//55 172//55 173//55
f 173//55 172//55 174//55
f 174//55 172//55 175//55
f 172//55 176//55 175//55
f 175//55 176//55 177//55
f 177//55 176//55 178//55
f 178//55 176//55 179//55
f 176//55 180//55 179//55
f 180//55 181//55 179//55
f 179//55 181//55 182//55
f 181//55 183//55 182//55
f 182//55 183//55 184//55
f 183//55 185//55 184//55
f 184//55 185//55 186//55
f 186//55 185//55 187//55
f 185//55 188//55 187//55
f 187//55 188//55 189//55
f 188//55 190//55 189//55
f 189//55 190//55 191//55
f 190//55 192//55 191//55
f 191//55 192//55 193//55
f 193//55 192//55 194//55
f 192//55 195//55 194//55
f 194//55 195//55 196//55
f 195//55 197//55 196//55
f 196//55 197//55 198//55
f 197//55 199//55 198//55
f 198//55 199//55 200//55
f 200//55 199//55 201//55
f 199//55 202//55 201//55
f 201//55 202//55 203//55
f 203//55 202//55 204//55
f 204//55 202//55 205//55
f 202//55 206//55 205//55
f 205//55 206//55 207//55
f 206//55 208//55 207//55
f 207//55 208//55 209//55
f 208//55 210//55 209//55
f 209//55 210//55 211//55
f 211//55 210//55 212//55
f 210//55 153//55 212//55
f 152//55 212//55 153//55
f 323//30 324//30 325//29
f 326//29 325//29 324//30
f 325//29 326//29 331//31
f 332//31 331//31 326//29
f 331//31 332//31 336//32
f 337//32 336//32 332//31
f 336//32 337//32 341//33
f 342//33 341//33 337//32
f 341//33 342//33 346//34
f 347//34 346//34 342//33
f 346//34 347//34 351//35
f 352//35 351//35 347//34
f 351//35 352//35 356//36
f 357//36 356//36 352//35
f 356//36 357//36 361//37
f 362//37 361//37 357//36
f 361//37 362//37 366//38
f 367//38 366//38 362//37
f 366//38 367//38 371//39
f 372//39 371//39 367//38
f 371//39 372//39 376//56
f 377//56 376//56 372//39
f 376//56 377//56 381//57
f 382//57 381//57 377//56
f 388//58 389//59 390//58
f 391//59 390//58 389//59
f 389//59 396//43 391//59
f 397//43 391//59 396//43
f 401//44 402//44 396//43
f 397//43 396//43 402//44
f 406//45 407//45 401//44
f 402//44 401//44 407//45
f 411//46 412//46 406//45
f 407//45 406//45 412//46
f 411//46 416//47 412//46
f 417//47 412//46 416//47
f 416//47 421//48 417//47
f 422//48 417//47 421//48
f 426//49 427//49 421//48
f 422//48 421//48 427//49
f 426//49 431//50 427//49
f 432//50 427//49 431//50
f 431//50 436//51 432//50
f 437//51 432//50 436//51
f 441//52 442//52 436//51
f 437//51 436//51 442//52
f 446//53 447//53 441//52
f 442//52 441//52 447//53
f 453//54 454//54 455//54
f 456//54 455//54 454//54
f 462//3 463//3 464//2
f 465//2 464//2 463//3
f 469//4 470//4 462//3
f 463//3 462//3 470//4
f 474//5 475//5 469//4
f 470//4 469//4 475//5
f 479//6 480//6 474//5
f 475//5 474//5 480//6
f 484//7 485//7 479//6
f 480//6 479//6 485//7
f 489//8 490//8 484//7
f 485//7 484//7 490//8
f 494//9 495//9 489//8
f 490//8 489//8 495//9
f 499//10 500//10 494//9
f 495//9 494//9 500//10
f 504//11 505//11 499//10
f 500//10 499//10 505//11
f 509//12 510//12 504//11
f 505//11 504//11 510//12
f 514//60 515//60 509//12
f 510//12 509//12 515//60
f 521//61 522//62 523//61
f 524//62 523//61 522//62
f 529//17 530//17 522//62
f 524//62 522//62 530//17
f 534//18 535//18 529//17
f 530//17 529//17 535//18
f 534//18 539//19 535//18
f 540//19 535//18 539//19
f 544//20 545//20 539//19
f 540//19 539//19 545//20
f 549//21 550//21 544//20
f 545//20 544//20 550//21
f 549//21 554//22 550//21
f 555//22 550//21 554//22
f 554//22 559//23 555//22
f 560//23 555//22 559//23
f 564//24 565//24 559//23
f 560//23 559//23 565//24
f 564//24 569//25 565//24
f 570//25 565//24 569//25
f 574//26 575//26 569//25
f 570//25 569//25 575//26
f 574//26 579//27 575//26
f 580//27 575//26 579//27
f 586//28 587//28 588//28
f 589//28 588//28 587//28
usemtl material_1_0
f 1//1 2//1 3//1
f 2//1 1//1 4//1
f 2//1 4//1 5//1
f 5//1 4//1 6//1
f 6//1 4//1 7//1
f 6//1 7//1 8//1
f 8//1 7//1 9//1
f 8//1 9//1 10//1
f 10//1 9//1 11//1
f 10//1 11//1 12//1
f 12//1 11//1 13//1
f 13//1 11//1 14//1
f 14//1 11//1 15//1
f 14//1 15//1 16//1
f 16//1 15//1 17//1
f 17//1 15//1 18//1
f 17//1 18//1 19//1
f 19//1 18//1 20//1
f 19//1 20//1 21//1
f 21//1 20//1 22//1
f 21//1 22//1 23//1
f 23//1 22//1 24//1
f 24//1 22//1 25//1
f 24//1 25//1 26//1
f 26//1 25//1 27//1
f 26//1 27//1 28//1
f 28//1 27//1 29//1
f 28//1 29//1 30//1
f 30//1 29//1 31//1
f 31//1 29//1 32//1
f 31//1 32//1 33//1
f 33//1 32//1 34//1
f 33//1 34//1 35//1
f 35//1 34//1 36//1
f 35//1 36//1 37//1
f 35//1 37//1 38//1
f 38//1 37//1 39//1
f 39//1 37//1 40//1
f 40//1 37//1 41//1
f 40//1 41//1 42//1
f 42//1 41//1 43//1
f 43//1 41//1 44//1
f 44//1 41//1 45//1
f 44//1 45//1 46//1
f 46//1 45//1 47//1
f 47//1 45//1 48//1
f 47//1 48//1 49//1
f 49//1 48//1 50//1
f 49//1 50//1 51//1
f 51//1 50//1 52//1
f 51//1 52//1 53//1
f 53//1 52//1 54//1
f 55//1 56//1 57//1
f 56//1 55//1 58//1
f 56//1 58//1 59//1
f 59//1 58//1 60//1
f 59//1 60//1 61//1
f 61//1 60//1 62//1
f 61//1 62//1 63//1
f 63//1 62//1 1//1
f 63//1 1//1 64//1
f 64//1 1//1 3//1
f 64//1 3//1 65//1
f 64//1 65//1 66//1
f 66//1 65//1 67//1
f 66//1 67//1 68//1
f 66//1 68//1 69//1
f 66//1 69//1 70//1
f 66//1 70//1 71//1
f 71//1 70//1 72//1
f 71//1 72//1 73//1
f 71//1 73//1 74//1
f 74//1 73//1 75//1
f 75//1 73//1 76//1
f 75//1 76//1 77//1
f 77//1 76//1 78//1
f 77//1 78//1 79//1
f 79//1 78//1 80//1
f 79//1 80//1 81//1
f 79//1 81//1 82//1
f 79//1 82//1 83//1
f 83//1 82//1 84//1
f 83//1 84//1 85//1
f 85//1 84//1 86//1
f 85//1 86//1 87//1
f 87//1 86//1 88//1
f 87//1 88//1 89//1
f 87//1 89//1 90//1
f 90//1 89//1 91//1
f 90//1 91//1 92//1
f 92//1 91//1 93//1
f 92//1 93//1 94//1
f 94//1 93//1 95//1
f 94//1 95//1 96//1
f 94//1 96//1 97//1
f 94//1 97//1 98//1
f 98//1 97//1 99//1
f 98//1 99//1 100//1
f 98//1 100//1 101//1
f 98//1 101//1 102//1
f 102//1 101//1 103//1
f 102//1 103//1 104//1
f 102//1 104//1 105//1
f 105//1 104//1 106//1
f 105//1 106//1 46//1
f 46//1 106//1 44//1
f 319//2 320//3 321//3
f 320//3 319//2 322//2
f 321//3 329//4 330//4
f 329//4 321//3 320//3
f 330//4 334//5 335//5
f 334//5 330//4 329//4
f 335//5 339//6 340//6
f 339//6 335//5 334//5
f 340//6 344//7 345//7
f 344//7 340//6 339//6
f 345//7 349//8 350//8
f 349//8 345//7 344//7
f 350//8 354//9 355//9
f 354//9 350//8 349//8
f 355//9 359//10 360//10
f 359//10 355//9 354//9
f 360//10 364//11 365//11
f 364//11 360//10 359//10
f 365//11 369//12 370//12
f 369//12 365//11 364//11
f 370//12 374//13 375//13
f 374//13 370//12 369//12
f 375//13 379//14 380//14
f 379//14 375//13 374//13
f 384//15 385//16 386//15
f 385//16 384//15 387//16
f 394//17 386//15 395//17
f 386//15 394//17 384//15
f 399//18 394//17 395//17
f 394//17 399//18 400//18
f 404//19 400//18 399//18
f 400//18 404//19 405//19
f 409//20 405//19 404//19
f 405//19 409//20 410//20
f 414//21 409//20 415//21
f 409//20 414//21 410//20
f 419//22 415//21 420//22
f 415//21 419//22 414//21
f 424//23 419//22 420//22
f 419//22 424//23 425//23
f 429//24 424//23 430//24
f 424//23 429//24 425//23
f 434//25 430//24 435//25
f 430//24 434//25 429//24
f 439//26 434//25 435//25
f 434//25 439//26 440//26
f 444//27 440//26 439//26
f 440//26 444//27 445//27
f 449//28 450//28 451//28
f 450//28 449//28 452//28
f 458//29 459//30 460//30
f 459//30 458//29 461//29
f 467//31 461//29 458//29
f 461//29 467//31 468//31
f 472//32 468//31 467//31
f 468//31 472//32 473//32
f 477//33 473//32 472//32
f 473//32 477//33 478//33
f 482//34 478//33 477//33
f 478//33 482//34 483//34
f 487//35 483//34 482//34
f 483//34 487//35 488//35
f 492//36 488//35 487//35
f 488//35 492//36 493//36
f 497//37 493//36 492//36
f 493//36 497//37 498//37
f 502//38 498//37 497//37
f 498//37 502//38 503//38
f 507//39 503//38 502//38
f 503//38 507//39 508//39
f 512//40 508//39 507//39
f 508//39 512//40 513//40
f 517//41 518//42 519//41
f 518//42 517//41 520//42
f 527//43 517//41 519//41
f 517//41 527//43 528//43
f 532//44 528//43 527//43
f 528//43 532//44 533//44
f 537//45 532//44 538//45
f 532//44 537//45 533//44
f 542//46 537//45 538//45
f 537//45 542//46 543//46
f 547//47 543//46 542//46
f 543//46 547//47 548//47
f 552//48 547//47 553//48
f 547//47 552//48 548//47
f 557//49 553//48 558//49
f 553//48 557//49 552//48
f 562//50 557//49 558//49
f 557//49 562//50 563//50
f 567//51 562//50 568//51
f 562//50 567//51 563//50
f 572//52 567//51 568//51
f 567//51 572//52 573//52
f 577//53 572//52 578//53
f 572//52 577//53 573//52
f 582//54 583//54 584//54
f 583//54 582//54 585//54
usemtl material_2_0
usemtl material_3_0
