# SSTK version 0.8.0
# 125
mtllib original-125.mtl
o #ID87
v -0.002831 0.474816 0.454438
v -0.003074 0.472930 0.452748
v -0.003074 0.472930 0.454438
v -0.002831 0.474816 0.452748
v -0.002831 0.474816 0.452748
v -0.002831 0.474816 0.454438
v -0.003074 0.472930 0.452748
v -0.003074 0.472930 0.454438
v -0.002831 0.474816 0.454438
v -0.003074 0.472930 0.454438
v -0.002831 0.474816 0.452748
v -0.003074 0.472930 0.452748
v -0.000553 0.464077 0.454438
v 0.000308 0.471270 0.454438
v 0.000306 0.472716 0.454438
v 0.000582 0.462760 0.454438
v 0.000501 0.469862 0.454438
v 0.000880 0.468514 0.454438
v 0.000973 0.462369 0.454438
v 0.001441 0.467251 0.454438
v 0.002103 0.461431 0.454438
v 0.002171 0.466093 0.454438
v 0.003655 0.460451 0.454438
v 0.003061 0.465061 0.454438
v 0.003252 0.464870 0.454438
v 0.004093 0.464172 0.454438
v 0.005365 0.459693 0.454438
v 0.005251 0.463441 0.454438
v 0.006514 0.462881 0.454438
v 0.007171 0.459184 0.454438
v 0.007862 0.462501 0.454438
v 0.009037 0.458929 0.454438
v 0.009270 0.462308 0.454438
v 0.010929 0.458926 0.454438
v 0.010715 0.462306 0.454438
v 0.012173 0.462494 0.454438
v 0.012816 0.459169 0.454438
v 0.013618 0.462868 0.454438
v 0.014666 0.459649 0.454438
v 0.015025 0.463424 0.454438
v 0.016453 0.460354 0.454438
v 0.016370 0.464150 0.454438
v 0.017631 0.465036 0.454438
v 0.018150 0.461271 0.454438
v 0.018786 0.466065 0.454438
v 0.019734 0.462382 0.454438
v 0.037905 0.485184 0.454438
v 0.021107 0.463606 0.454438
v 0.040364 0.482863 0.454438
v 0.038934 0.486338 0.454438
v 0.039819 0.487599 0.454438
v 0.040546 0.488945 0.454438
v 0.041588 0.484236 0.454438
v 0.041101 0.490352 0.454438
v 0.041476 0.491797 0.454438
v 0.041664 0.493254 0.454438
v 0.042699 0.485819 0.454438
v 0.042539 0.501866 0.454438
v 0.043519 0.500314 0.454438
v 0.043616 0.487516 0.454438
v 0.044277 0.498604 0.454438
v 0.044321 0.489303 0.454438
v 0.044785 0.496799 0.454438
v 0.044801 0.491154 0.454438
v 0.045041 0.494933 0.454438
v 0.045044 0.493040 0.454438
v -0.003071 0.471037 0.454438
v -0.002831 0.474816 0.454438
v -0.003074 0.472930 0.454438
v -0.002816 0.469171 0.454438
v -0.002351 0.476667 0.454438
v -0.002307 0.467366 0.454438
v -0.001646 0.478453 0.454438
v -0.001549 0.465656 0.454438
v -0.000730 0.480151 0.454438
v 0.000382 0.481734 0.454438
v 0.000493 0.474173 0.454438
v 0.001606 0.483107 0.454438
v 0.000868 0.475618 0.454438
v 0.001424 0.477025 0.454438
v 0.002150 0.478371 0.454438
v 0.003036 0.479631 0.454438
v 0.020862 0.502364 0.454438
v 0.004064 0.480786 0.454438
v 0.023183 0.499905 0.454438
v 0.022236 0.503588 0.454438
v 0.023819 0.504699 0.454438
v 0.024338 0.500934 0.454438
v 0.025516 0.505616 0.454438
v 0.025599 0.501819 0.454438
v 0.027303 0.506321 0.454438
v 0.025686 0.501866 0.454438
v 0.026945 0.502546 0.454438
v 0.028352 0.503101 0.454438
v 0.029154 0.506801 0.454438
v 0.029797 0.503476 0.454438
v 0.031040 0.507044 0.454438
v 0.031254 0.503664 0.454438
v 0.032932 0.507041 0.454438
v 0.032699 0.503662 0.454438
v 0.034108 0.503469 0.454438
v 0.034799 0.506786 0.454438
v 0.035455 0.503089 0.454438
v 0.036604 0.506277 0.454438
v 0.036719 0.502529 0.454438
v 0.038314 0.505519 0.454438
v 0.037769 0.501866 0.454438
v 0.037877 0.501798 0.454438
v 0.038909 0.500909 0.454438
v 0.039893 0.504523 0.454438
v 0.039100 0.500718 0.454438
v 0.039798 0.499877 0.454438
v 0.040529 0.498719 0.454438
v 0.041210 0.503388 0.454438
v 0.041089 0.497455 0.454438
v 0.041469 0.496108 0.454438
v 0.041601 0.502997 0.454438
v 0.041661 0.494700 0.454438
v 0.041664 0.493254 0.454438
v 0.041661 0.494700 0.454438
v 0.042539 0.501866 0.454438
v 0.041601 0.502997 0.454438
v 0.041469 0.496108 0.454438
v 0.041210 0.503388 0.454438
v 0.041089 0.497455 0.454438
v 0.040529 0.498719 0.454438
v 0.039893 0.504523 0.454438
v 0.039798 0.499877 0.454438
v 0.039100 0.500718 0.454438
v 0.038909 0.500909 0.454438
v 0.038314 0.505519 0.454438
v 0.037877 0.501798 0.454438
v 0.037769 0.501866 0.454438
v 0.036719 0.502529 0.454438
v 0.036604 0.506277 0.454438
v 0.035455 0.503089 0.454438
v 0.034799 0.506786 0.454438
v 0.034108 0.503469 0.454438
v 0.032932 0.507041 0.454438
v 0.032699 0.503662 0.454438
v 0.031254 0.503664 0.454438
v 0.031040 0.507044 0.454438
v 0.029797 0.503476 0.454438
v 0.029154 0.506801 0.454438
v 0.028352 0.503101 0.454438
v 0.027303 0.506321 0.454438
v 0.026945 0.502546 0.454438
v 0.025686 0.501866 0.454438
v 0.025599 0.501819 0.454438
v 0.025516 0.505616 0.454438
v 0.024338 0.500934 0.454438
v 0.023819 0.504699 0.454438
v 0.023183 0.499905 0.454438
v 0.022236 0.503588 0.454438
v 0.020862 0.502364 0.454438
v 0.004064 0.480786 0.454438
v 0.003036 0.479631 0.454438
v 0.001606 0.483107 0.454438
v 0.002150 0.478371 0.454438
v 0.001424 0.477025 0.454438
v 0.000868 0.475618 0.454438
v 0.000493 0.474173 0.454438
v 0.000382 0.481734 0.454438
v 0.000306 0.472716 0.454438
v -0.000553 0.464077 0.454438
v -0.000730 0.480151 0.454438
v -0.001549 0.465656 0.454438
v -0.001646 0.478453 0.454438
v -0.002307 0.467366 0.454438
v -0.002351 0.476667 0.454438
v -0.002816 0.469171 0.454438
v -0.002831 0.474816 0.454438
v -0.003071 0.471037 0.454438
v -0.003074 0.472930 0.454438
v 0.045044 0.493040 0.454438
v 0.044801 0.491154 0.454438
v 0.045041 0.494933 0.454438
v 0.044785 0.496799 0.454438
v 0.044321 0.489303 0.454438
v 0.044277 0.498604 0.454438
v 0.043616 0.487516 0.454438
v 0.043519 0.500314 0.454438
v 0.042699 0.485819 0.454438
v 0.041588 0.484236 0.454438
v 0.041476 0.491797 0.454438
v 0.041101 0.490352 0.454438
v 0.040546 0.488945 0.454438
v 0.040364 0.482863 0.454438
v 0.039819 0.487599 0.454438
v 0.038934 0.486338 0.454438
v 0.037905 0.485184 0.454438
v 0.021107 0.463606 0.454438
v 0.019734 0.462382 0.454438
v 0.018786 0.466065 0.454438
v 0.018150 0.461271 0.454438
v 0.017631 0.465036 0.454438
v 0.016453 0.460354 0.454438
v 0.016370 0.464150 0.454438
v 0.015025 0.463424 0.454438
v 0.014666 0.459649 0.454438
v 0.013618 0.462868 0.454438
v 0.012816 0.459169 0.454438
v 0.012173 0.462494 0.454438
v 0.010929 0.458926 0.454438
v 0.010715 0.462306 0.454438
v 0.009270 0.462308 0.454438
v 0.009037 0.458929 0.454438
v 0.007862 0.462501 0.454438
v 0.007171 0.459184 0.454438
v 0.006514 0.462881 0.454438
v 0.005365 0.459693 0.454438
v 0.005251 0.463441 0.454438
v 0.004093 0.464172 0.454438
v 0.003655 0.460451 0.454438
v 0.003252 0.464870 0.454438
v 0.003061 0.465061 0.454438
v 0.002171 0.466093 0.454438
v 0.002103 0.461431 0.454438
v 0.001441 0.467251 0.454438
v 0.000973 0.462369 0.454438
v 0.000880 0.468514 0.454438
v 0.000582 0.462760 0.454438
v 0.000501 0.469862 0.454438
v 0.000308 0.471270 0.454438
v 0.001606 0.483107 0.454438
v 0.000382 0.481734 0.454438
v -0.000730 0.480151 0.454438
v -0.001646 0.478453 0.454438
v -0.002351 0.476667 0.454438
v -0.003071 0.471037 0.454438
v -0.002816 0.469171 0.454438
v -0.002307 0.467366 0.454438
v -0.001549 0.465656 0.454438
v -0.000553 0.464077 0.454438
v 0.000582 0.462760 0.454438
v 0.000973 0.462369 0.454438
v 0.002103 0.461431 0.454438
v 0.003655 0.460451 0.454438
v 0.005365 0.459693 0.454438
v 0.007171 0.459184 0.454438
v 0.009037 0.458929 0.454438
v 0.010929 0.458926 0.454438
v 0.012816 0.459169 0.454438
v 0.014666 0.459649 0.454438
v 0.016453 0.460354 0.454438
v 0.018150 0.461271 0.454438
v 0.019734 0.462382 0.454438
v 0.021107 0.463606 0.454438
v 0.040364 0.482863 0.454438
v 0.041588 0.484236 0.454438
v 0.042699 0.485819 0.454438
v 0.043616 0.487516 0.454438
v 0.044321 0.489303 0.454438
v 0.044801 0.491154 0.454438
v 0.045044 0.493040 0.454438
v 0.045041 0.494933 0.454438
v 0.044785 0.496799 0.454438
v 0.044277 0.498604 0.454438
v 0.043519 0.500314 0.454438
v 0.042539 0.501866 0.454438
v 0.041601 0.502997 0.454438
v 0.041210 0.503388 0.454438
v 0.039893 0.504523 0.454438
v 0.038314 0.505519 0.454438
v 0.036604 0.506277 0.454438
v 0.034799 0.506786 0.454438
v 0.032932 0.507041 0.454438
v 0.031040 0.507044 0.454438
v 0.029154 0.506801 0.454438
v 0.027303 0.506321 0.454438
v 0.025516 0.505616 0.454438
v 0.023819 0.504699 0.454438
v 0.022236 0.503588 0.454438
v 0.020862 0.502364 0.454438
v 0.025686 0.501866 0.454438
v 0.026945 0.502546 0.454438
v 0.028352 0.503101 0.454438
v 0.029797 0.503476 0.454438
v 0.031254 0.503664 0.454438
v 0.032699 0.503662 0.454438
v 0.034108 0.503469 0.454438
v 0.035455 0.503089 0.454438
v 0.036719 0.502529 0.454438
v 0.037769 0.501866 0.454438
v 0.037877 0.501798 0.454438
v 0.038909 0.500909 0.454438
v 0.039100 0.500718 0.454438
v 0.039798 0.499877 0.454438
v 0.040529 0.498719 0.454438
v 0.041089 0.497455 0.454438
v 0.041469 0.496108 0.454438
v 0.041661 0.494700 0.454438
v 0.041664 0.493254 0.454438
v 0.041476 0.491797 0.454438
v 0.041101 0.490352 0.454438
v 0.040546 0.488945 0.454438
v 0.039819 0.487599 0.454438
v 0.038934 0.486338 0.454438
v 0.037905 0.485184 0.454438
v 0.018786 0.466065 0.454438
v 0.017631 0.465036 0.454438
v 0.016370 0.464150 0.454438
v 0.015025 0.463424 0.454438
v 0.013618 0.462868 0.454438
v 0.012173 0.462494 0.454438
v 0.010715 0.462306 0.454438
v 0.009270 0.462308 0.454438
v 0.007862 0.462501 0.454438
v 0.006514 0.462881 0.454438
v 0.005251 0.463441 0.454438
v 0.004093 0.464172 0.454438
v 0.003252 0.464870 0.454438
v 0.003061 0.465061 0.454438
v 0.002171 0.466093 0.454438
v 0.001441 0.467251 0.454438
v 0.000880 0.468514 0.454438
v 0.000501 0.469862 0.454438
v 0.000308 0.471270 0.454438
v 0.000306 0.472716 0.454438
v 0.000493 0.474173 0.454438
v 0.000868 0.475618 0.454438
v 0.001424 0.477025 0.454438
v 0.002150 0.478371 0.454438
v 0.003036 0.479631 0.454438
v 0.004064 0.480786 0.454438
v 0.023183 0.499905 0.454438
v 0.024338 0.500934 0.454438
v 0.025599 0.501819 0.454438
v -0.002351 0.476667 0.454438
v -0.002351 0.476667 0.452748
v -0.002351 0.476667 0.452748
v -0.002351 0.476667 0.454438
v -0.002351 0.476667 0.452748
v -0.003071 0.471037 0.452748
v -0.003071 0.471037 0.454438
v -0.003071 0.471037 0.452748
v -0.003071 0.471037 0.454438
v -0.003071 0.471037 0.452748
v 0.001606 0.483107 0.454438
v 0.000382 0.481734 0.452748
v 0.000382 0.481734 0.454438
v 0.001606 0.483107 0.452748
v 0.001606 0.483107 0.452748
v 0.001606 0.483107 0.454438
v 0.000382 0.481734 0.452748
v 0.000382 0.481734 0.454438
v 0.001606 0.483107 0.452748
v 0.000382 0.481734 0.452748
v -0.000730 0.480151 0.452748
v -0.000730 0.480151 0.454438
v -0.000730 0.480151 0.452748
v -0.000730 0.480151 0.454438
v -0.000730 0.480151 0.452748
v -0.001646 0.478453 0.452748
v -0.001646 0.478453 0.454438
v -0.001646 0.478453 0.452748
v -0.001646 0.478453 0.454438
v -0.001646 0.478453 0.452748
v -0.002816 0.469171 0.452748
v -0.002816 0.469171 0.454438
v -0.002816 0.469171 0.452748
v -0.002816 0.469171 0.454438
v -0.002816 0.469171 0.452748
v -0.002307 0.467366 0.452748
v -0.002307 0.467366 0.454438
v -0.002307 0.467366 0.452748
v -0.002307 0.467366 0.454438
v -0.002307 0.467366 0.452748
v -0.001549 0.465656 0.452748
v -0.001549 0.465656 0.454438
v -0.001549 0.465656 0.452748
v -0.001549 0.465656 0.454438
v -0.001549 0.465656 0.452748
v -0.000553 0.464077 0.452748
v -0.000553 0.464077 0.454438
v -0.000553 0.464077 0.452748
v -0.000553 0.464077 0.454438
v -0.000553 0.464077 0.452748
v 0.000582 0.462760 0.452748
v 0.000582 0.462760 0.454438
v 0.000582 0.462760 0.452748
v 0.000582 0.462760 0.454438
v 0.000582 0.462760 0.452748
v 0.002103 0.461431 0.454438
v 0.000973 0.462369 0.452748
v 0.002103 0.461431 0.452748
v 0.000973 0.462369 0.454438
v 0.000973 0.462369 0.454438
v 0.002103 0.461431 0.454438
v 0.000973 0.462369 0.452748
v 0.002103 0.461431 0.452748
v 0.000973 0.462369 0.452748
v 0.002103 0.461431 0.452748
v 0.003655 0.460451 0.454438
v 0.003655 0.460451 0.452748
v 0.003655 0.460451 0.454438
v 0.003655 0.460451 0.452748
v 0.003655 0.460451 0.452748
v 0.005365 0.459693 0.452748
v 0.005365 0.459693 0.454438
v 0.005365 0.459693 0.454438
v 0.005365 0.459693 0.452748
v 0.005365 0.459693 0.452748
v 0.007171 0.459184 0.452748
v 0.007171 0.459184 0.454438
v 0.007171 0.459184 0.454438
v 0.007171 0.459184 0.452748
v 0.007171 0.459184 0.452748
v 0.009037 0.458929 0.452748
v 0.009037 0.458929 0.454438
v 0.009037 0.458929 0.454438
v 0.009037 0.458929 0.452748
v 0.009037 0.458929 0.452748
v 0.010929 0.458926 0.454438
v 0.010929 0.458926 0.452748
v 0.010929 0.458926 0.454438
v 0.010929 0.458926 0.452748
v 0.010929 0.458926 0.452748
v 0.012816 0.459169 0.454438
v 0.012816 0.459169 0.452748
v 0.012816 0.459169 0.454438
v 0.012816 0.459169 0.452748
v 0.012816 0.459169 0.452748
v 0.014666 0.459649 0.452748
v 0.014666 0.459649 0.454438
v 0.014666 0.459649 0.454438
v 0.014666 0.459649 0.452748
v 0.014666 0.459649 0.452748
v 0.016453 0.460354 0.454438
v 0.016453 0.460354 0.452748
v 0.016453 0.460354 0.454438
v 0.016453 0.460354 0.452748
v 0.016453 0.460354 0.452748
v 0.018150 0.461271 0.454438
v 0.018150 0.461271 0.452748
v 0.018150 0.461271 0.454438
v 0.018150 0.461271 0.452748
v 0.018150 0.461271 0.452748
v 0.019734 0.462382 0.452748
v 0.019734 0.462382 0.454438
v 0.019734 0.462382 0.454438
v 0.019734 0.462382 0.452748
v 0.019734 0.462382 0.452748
v 0.021107 0.463606 0.452748
v 0.021107 0.463606 0.454438
v 0.021107 0.463606 0.454438
v 0.021107 0.463606 0.452748
v 0.021107 0.463606 0.452748
v 0.040364 0.482863 0.452748
v 0.021107 0.463606 0.454438
v 0.021107 0.463606 0.452748
v 0.040364 0.482863 0.454438
v 0.040364 0.482863 0.454438
v 0.040364 0.482863 0.452748
v 0.021107 0.463606 0.454438
v 0.021107 0.463606 0.452748
v 0.040364 0.482863 0.452748
v 0.041588 0.484236 0.452748
v 0.040364 0.482863 0.454438
v 0.040364 0.482863 0.452748
v 0.041588 0.484236 0.454438
v 0.041588 0.484236 0.454438
v 0.041588 0.484236 0.452748
v 0.040364 0.482863 0.454438
v 0.040364 0.482863 0.452748
v 0.041588 0.484236 0.452748
v 0.042699 0.485819 0.452748
v 0.042699 0.485819 0.454438
v 0.042699 0.485819 0.454438
v 0.042699 0.485819 0.452748
v 0.042699 0.485819 0.452748
v 0.043616 0.487516 0.452748
v 0.043616 0.487516 0.454438
v 0.043616 0.487516 0.454438
v 0.043616 0.487516 0.452748
v 0.043616 0.487516 0.452748
v 0.044321 0.489303 0.452748
v 0.044321 0.489303 0.454438
v 0.044321 0.489303 0.454438
v 0.044321 0.489303 0.452748
v 0.044321 0.489303 0.452748
v 0.044801 0.491154 0.452748
v 0.044801 0.491154 0.454438
v 0.044801 0.491154 0.454438
v 0.044801 0.491154 0.452748
v 0.044801 0.491154 0.452748
v 0.045044 0.493040 0.452748
v 0.045044 0.493040 0.454438
v 0.045044 0.493040 0.454438
v 0.045044 0.493040 0.452748
v 0.045044 0.493040 0.452748
v 0.045041 0.494933 0.452748
v 0.045041 0.494933 0.454438
v 0.045041 0.494933 0.454438
v 0.045041 0.494933 0.452748
v 0.045041 0.494933 0.452748
v 0.044785 0.496799 0.452748
v 0.044785 0.496799 0.454438
v 0.044785 0.496799 0.454438
v 0.044785 0.496799 0.452748
v 0.044785 0.496799 0.452748
v 0.044277 0.498604 0.452748
v 0.044277 0.498604 0.454438
v 0.044277 0.498604 0.454438
v 0.044277 0.498604 0.452748
v 0.044277 0.498604 0.452748
v 0.043519 0.500314 0.452748
v 0.043519 0.500314 0.454438
v 0.043519 0.500314 0.454438
v 0.043519 0.500314 0.452748
v 0.043519 0.500314 0.452748
v 0.042539 0.501866 0.452748
v 0.042539 0.501866 0.454438
v 0.042539 0.501866 0.454438
v 0.042539 0.501866 0.452748
v 0.042539 0.501866 0.452748
v 0.039893 0.504523 0.454438
v 0.041210 0.503388 0.452748
v 0.039893 0.504523 0.452748
v 0.041210 0.503388 0.454438
v 0.041210 0.503388 0.454438
v 0.039893 0.504523 0.454438
v 0.041210 0.503388 0.452748
v 0.039893 0.504523 0.452748
v 0.041210 0.503388 0.452748
v 0.039893 0.504523 0.452748
v 0.038314 0.505519 0.452748
v 0.038314 0.505519 0.454438
v 0.038314 0.505519 0.454438
v 0.038314 0.505519 0.452748
v 0.038314 0.505519 0.452748
v 0.036604 0.506277 0.452748
v 0.036604 0.506277 0.454438
v 0.036604 0.506277 0.454438
v 0.036604 0.506277 0.452748
v 0.036604 0.506277 0.452748
v 0.034799 0.506786 0.454438
v 0.034799 0.506786 0.452748
v 0.034799 0.506786 0.454438
v 0.034799 0.506786 0.452748
v 0.034799 0.506786 0.452748
v 0.032932 0.507041 0.452748
v 0.032932 0.507041 0.454438
v 0.032932 0.507041 0.454438
v 0.032932 0.507041 0.452748
v 0.032932 0.507041 0.452748
v 0.031040 0.507044 0.452748
v 0.031040 0.507044 0.454438
v 0.031040 0.507044 0.454438
v 0.031040 0.507044 0.452748
v 0.031040 0.507044 0.452748
v 0.029154 0.506801 0.454438
v 0.029154 0.506801 0.452748
v 0.029154 0.506801 0.454438
v 0.029154 0.506801 0.452748
v 0.029154 0.506801 0.452748
v 0.027303 0.506321 0.454438
v 0.027303 0.506321 0.452748
v 0.027303 0.506321 0.454438
v 0.027303 0.506321 0.452748
v 0.027303 0.506321 0.452748
v 0.025516 0.505616 0.452748
v 0.025516 0.505616 0.454438
v 0.025516 0.505616 0.454438
v 0.025516 0.505616 0.452748
v 0.025516 0.505616 0.452748
v 0.023819 0.504699 0.454438
v 0.023819 0.504699 0.452748
v 0.023819 0.504699 0.454438
v 0.023819 0.504699 0.452748
v 0.023819 0.504699 0.452748
v 0.022236 0.503588 0.452748
v 0.022236 0.503588 0.454438
v 0.022236 0.503588 0.454438
v 0.022236 0.503588 0.452748
v 0.022236 0.503588 0.452748
v 0.020862 0.502364 0.454438
v 0.020862 0.502364 0.452748
v 0.020862 0.502364 0.454438
v 0.020862 0.502364 0.452748
v 0.020862 0.502364 0.452748
v 0.020862 0.502364 0.454438
v 0.001606 0.483107 0.452748
v 0.001606 0.483107 0.454438
v 0.020862 0.502364 0.452748
v 0.020862 0.502364 0.452748
v 0.020862 0.502364 0.454438
v 0.001606 0.483107 0.452748
v 0.001606 0.483107 0.454438
vn -0.9818168375914456 0.18983070726816897 0
vn -0.9980033051475772 0.06316172032578032 0
vn 0 0 1
vn -0.9508262407231851 0.3097248132652849 0
vn -0.9976309015954622 -0.06879378011001852 0
vn -0.7466505145512854 0.6652165129642384 0
vn -0.7838543839868546 0.6209446873148919 0
vn -0.8506301801750898 0.5257644877464567 0
vn -0.9066439441994509 0.42189662056772026 0
vn -0.9790012365999962 -0.20385430762110054 0
vn -0.9407616887677099 -0.33906849595166794 0
vn -0.8822530541846619 -0.4707754755526632 0
vn -0.8038387136913911 -0.5948473101317429 0
vn -0.7576742821784025 -0.6526328846491284 0
vn -0.5874374045811541 -0.8092696063111214 0
vn -0.6386018863419343 -0.7695372835415601 0
vn -0.4707754755526632 -0.8822530541846619 0
vn -0.33906849595166794 -0.9407616887677099 0
vn -0.20385430762110054 -0.9790012365999962 0
vn -0.06879378011001852 -0.9976309015954622 0
vn 0.06316172032578032 -0.9980033051475772 0
vn 0.18983070726816897 -0.9818168375914456 0
vn 0.3097248132652849 -0.9508262407231851 0
vn 0.42189662056772026 -0.9066439441994509 0
vn 0.5257644877464567 -0.8506301801750898 0
vn 0.6209446873148919 -0.7838543839868546 0
vn 0.6652165129642384 -0.7466505145512854 0
vn 0.7071067811865476 -0.7071067811865476 0
vn 0.7838543839868546 -0.6209446873148919 0
vn 0.7466505145512854 -0.6652165129642384 0
vn 0.8506301801750898 -0.5257644877464567 0
vn 0.9066439441994509 -0.42189662056772026 0
vn 0.9508262407231851 -0.3097248132652849 0
vn 0.9818168375914456 -0.18983070726816897 0
vn 0.9980033051475772 -0.06316172032578032 0
vn 0.9976309015954622 0.06879378011001852 0
vn 0.9790012365999962 0.20385430762110054 0
vn 0.9407616887677099 0.33906849595166794 0
vn 0.8822530541846619 0.4707754755526632 0
vn 0.8456059005521385 0.5338077003485499 0
vn 0.5948473101317429 0.8038387136913911 0
vn 0.6526328846491284 0.7576742821784025 0
vn 0.4707754755526632 0.8822530541846619 0
vn 0.33906849595166794 0.9407616887677099 0
vn 0.20385430762110054 0.9790012365999962 0
vn 0.06879378011001852 0.9976309015954622 0
vn -0.06316172032578032 0.9980033051475772 0
vn -0.18983070726816897 0.9818168375914456 0
vn -0.3097248132652849 0.9508262407231851 0
vn -0.42189662056772026 0.9066439441994509 0
vn -0.5257644877464567 0.8506301801750898 0
vn -0.6209446873148919 0.7838543839868546 0
vn -0.6652165129642384 0.7466505145512854 0
vn -0.7071067811865476 0.7071067811865476 0
vn 0 0 -1
vn 0.8038387136913911 0.5948473101317429 0
vn 0.7576742821784025 0.6526328846491284 0
vn 0.6386018863419343 0.7695372835415601 0
vn 0.5874374045811541 0.8092696063111214 0
vn -0.8456059005521385 -0.5338077003485499 0
vn -0.6526328846491284 -0.7576742821784025 0
vn -0.5948473101317429 -0.8038387136913911 0
usemtl material_0_0
f 5//34 6//34 7//35
f 8//35 7//35 6//34
f 119//55 120//55 121//55
f 121//55 120//55 122//55
f 120//55 123//55 122//55
f 122//55 123//55 124//55
f 123//55 125//55 124//55
f 125//55 126//55 124//55
f 124//55 126//55 127//55
f 126//55 128//55 127//55
f 128//55 129//55 127//55
f 129//55 130//55 127//55
f 127//55 130//55 131//55
f 130//55 132//55 131//55
f 132//55 133//55 131//55
f 133//55 134//55 131//55
f 131//55 134//55 135//55
f 134//55 136//55 135//55
f 135//55 136//55 137//55
f 136//55 138//55 137//55
f 137//55 138//55 139//55
f 138//55 140//55 139//55
f 140//55 141//55 139//55
f 139//55 141//55 142//55
f 141//55 143//55 142//55
f 142//55 143//55 144//55
f 143//55 145//55 144//55
f 144//55 145//55 146//55
f 145//55 147//55 146//55
f 147//55 148//55 146//55
f 148//55 149//55 146//55
f 146//55 149//55 150//55
f 149//55 151//55 150//55
f 150//55 151//55 152//55
f 151//55 153//55 152//55
f 152//55 153//55 154//55
f 154//55 153//55 155//55
f 153//55 156//55 155//55
f 156//55 157//55 155//55
f 155//55 157//55 158//55
f 157//55 159//55 158//55
f 159//55 160//55 158//55
f 160//55 161//55 158//55
f 161//55 162//55 158//55
f 158//55 162//55 163//55
f 162//55 164//55 163//55
f 164//55 165//55 163//55
f 163//55 165//55 166//55
f 165//55 167//55 166//55
f 166//55 167//55 168//55
f 167//55 169//55 168//55
f 168//55 169//55 170//55
f 169//55 171//55 170//55
f 170//55 171//55 172//55
f 171//55 173//55 172//55
f 174//55 172//55 173//55
f 175//55 176//55 177//55
f 177//55 176//55 178//55
f 176//55 179//55 178//55
f 178//55 179//55 180//55
f 179//55 181//55 180//55
f 180//55 181//55 182//55
f 181//55 183//55 182//55
f 182//55 183//55 121//55
f 121//55 183//55 119//55
f 183//55 184//55 119//55
f 119//55 184//55 185//55
f 185//55 184//55 186//55
f 186//55 184//55 187//55
f 184//55 188//55 187//55
f 187//55 188//55 189//55
f 189//55 188//55 190//55
f 190//55 188//55 191//55
f 188//55 192//55 191//55
f 192//55 193//55 191//55
f 191//55 193//55 194//55
f 193//55 195//55 194//55
f 194//55 195//55 196//55
f 195//55 197//55 196//55
f 196//55 197//55 198//55
f 198//55 197//55 199//55
f 197//55 200//55 199//55
f 199//55 200//55 201//55
f 200//55 202//55 201//55
f 201//55 202//55 203//55
f 202//55 204//55 203//55
f 203//55 204//55 205//55
f 205//55 204//55 206//55
f 204//55 207//55 206//55
f 206//55 207//55 208//55
f 207//55 209//55 208//55
f 208//55 209//55 210//55
f 209//55 211//55 210//55
f 210//55 211//55 212//55
f 212//55 211//55 213//55
f 211//55 214//55 213//55
f 213//55 214//55 215//55
f 215//55 214//55 216//55
f 216//55 214//55 217//55
f 214//55 218//55 217//55
f 217//55 218//55 219//55
f 218//55 220//55 219//55
f 219//55 220//55 221//55
f 220//55 222//55 221//55
f 221//55 222//55 223//55
f 223//55 222//55 224//55
f 222//55 165//55 224//55
f 164//55 224//55 165//55
f 331//33 332//33 5//34
f 6//34 5//34 332//33
f 7//35 8//35 336//36
f 337//36 336//36 8//35
f 343//30 344//30 345//29
f 346//29 345//29 344//30
f 345//29 346//29 351//31
f 352//31 351//31 346//29
f 351//31 352//31 356//32
f 357//32 356//32 352//31
f 356//32 357//32 331//33
f 332//33 331//33 357//32
f 336//36 337//36 361//37
f 362//37 361//37 337//36
f 361//37 362//37 366//38
f 367//38 366//38 362//37
f 366//38 367//38 371//39
f 372//39 371//39 367//38
f 371//39 372//39 376//56
f 377//56 376//56 372//39
f 376//56 377//56 381//57
f 382//57 381//57 377//56
f 388//58 389//59 390//58
f 391//59 390//58 389//59
f 389//59 396//43 391//59
f 397//43 391//59 396//43
f 401//44 402//44 396//43
f 397//43 396//43 402//44
f 406//45 407//45 401//44
f 402//44 401//44 407//45
f 411//46 412//46 406//45
f 407//45 406//45 412//46
f 411//46 416//47 412//46
f 417//47 412//46 416//47
f 416//47 421//48 417//47
f 422//48 417//47 421//48
f 426//49 427//49 421//48
f 422//48 421//48 427//49
f 426//49 431//50 427//49
f 432//50 427//49 431//50
f 431//50 436//51 432//50
f 437//51 432//50 436//51
f 441//52 442//52 436//51
f 437//51 436//51 442//52
f 446//53 447//53 441//52
f 442//52 441//52 447//53
f 453//54 454//54 455//54
f 456//54 455//54 454//54
f 462//7 463//7 464//6
f 465//6 464//6 463//7
f 469//8 470//8 462//7
f 463//7 462//7 470//8
f 474//9 475//9 469//8
f 470//8 469//8 475//9
f 479//4 480//4 474//9
f 475//9 474//9 480//4
f 484//1 485//1 479//4
f 480//4 479//4 485//1
f 489//2 490//2 484//1
f 485//1 484//1 490//2
f 494//5 495//5 489//2
f 490//2 489//2 495//5
f 499//10 500//10 494//5
f 495//5 494//5 500//10
f 504//11 505//11 499//10
f 500//10 499//10 505//11
f 509//12 510//12 504//11
f 505//11 504//11 510//12
f 514//60 515//60 509//12
f 510//12 509//12 515//60
f 521//61 522//62 523//61
f 524//62 523//61 522//62
f 529//17 530//17 522//62
f 524//62 522//62 530//17
f 534//18 535//18 529//17
f 530//17 529//17 535//18
f 534//18 539//19 535//18
f 540//19 535//18 539//19
f 544//20 545//20 539//19
f 540//19 539//19 545//20
f 549//21 550//21 544//20
f 545//20 544//20 550//21
f 549//21 554//22 550//21
f 555//22 550//21 554//22
f 554//22 559//23 555//22
f 560//23 555//22 559//23
f 564//24 565//24 559//23
f 560//23 559//23 565//24
f 564//24 569//25 565//24
f 570//25 565//24 569//25
f 574//26 575//26 569//25
f 570//25 569//25 575//26
f 574//26 579//27 575//26
f 580//27 575//26 579//27
f 586//28 587//28 588//28
f 589//28 588//28 587//28
usemtl material_1_0
f 1//1 2//2 3//2
f 2//2 1//1 4//1
f 13//3 14//3 15//3
f 14//3 13//3 16//3
f 14//3 16//3 17//3
f 17//3 16//3 18//3
f 18//3 16//3 19//3
f 18//3 19//3 20//3
f 20//3 19//3 21//3
f 20//3 21//3 22//3
f 22//3 21//3 23//3
f 22//3 23//3 24//3
f 24//3 23//3 25//3
f 25//3 23//3 26//3
f 26//3 23//3 27//3
f 26//3 27//3 28//3
f 28//3 27//3 29//3
f 29//3 27//3 30//3
f 29//3 30//3 31//3
f 31//3 30//3 32//3
f 31//3 32//3 33//3
f 33//3 32//3 34//3
f 33//3 34//3 35//3
f 35//3 34//3 36//3
f 36//3 34//3 37//3
f 36//3 37//3 38//3
f 38//3 37//3 39//3
f 38//3 39//3 40//3
f 40//3 39//3 41//3
f 40//3 41//3 42//3
f 42//3 41//3 43//3
f 43//3 41//3 44//3
f 43//3 44//3 45//3
f 45//3 44//3 46//3
f 45//3 46//3 47//3
f 47//3 46//3 48//3
f 47//3 48//3 49//3
f 47//3 49//3 50//3
f 50//3 49//3 51//3
f 51//3 49//3 52//3
f 52//3 49//3 53//3
f 52//3 53//3 54//3
f 54//3 53//3 55//3
f 55//3 53//3 56//3
f 56//3 53//3 57//3
f 56//3 57//3 58//3
f 58//3 57//3 59//3
f 59//3 57//3 60//3
f 59//3 60//3 61//3
f 61//3 60//3 62//3
f 61//3 62//3 63//3
f 63//3 62//3 64//3
f 63//3 64//3 65//3
f 65//3 64//3 66//3
f 67//3 68//3 69//3
f 68//3 67//3 70//3
f 68//3 70//3 71//3
f 71//3 70//3 72//3
f 71//3 72//3 73//3
f 73//3 72//3 74//3
f 73//3 74//3 75//3
f 75//3 74//3 13//3
f 75//3 13//3 76//3
f 76//3 13//3 15//3
f 76//3 15//3 77//3
f 76//3 77//3 78//3
f 78//3 77//3 79//3
f 78//3 79//3 80//3
f 78//3 80//3 81//3
f 78//3 81//3 82//3
f 78//3 82//3 83//3
f 83//3 82//3 84//3
f 83//3 84//3 85//3
f 83//3 85//3 86//3
f 86//3 85//3 87//3
f 87//3 85//3 88//3
f 87//3 88//3 89//3
f 89//3 88//3 90//3
f 89//3 90//3 91//3
f 91//3 90//3 92//3
f 91//3 92//3 93//3
f 91//3 93//3 94//3
f 91//3 94//3 95//3
f 95//3 94//3 96//3
f 95//3 96//3 97//3
f 97//3 96//3 98//3
f 97//3 98//3 99//3
f 99//3 98//3 100//3
f 99//3 100//3 101//3
f 99//3 101//3 102//3
f 102//3 101//3 103//3
f 102//3 103//3 104//3
f 104//3 103//3 105//3
f 104//3 105//3 106//3
f 106//3 105//3 107//3
f 106//3 107//3 108//3
f 106//3 108//3 109//3
f 106//3 109//3 110//3
f 110//3 109//3 111//3
f 110//3 111//3 112//3
f 110//3 112//3 113//3
f 110//3 113//3 114//3
f 114//3 113//3 115//3
f 114//3 115//3 116//3
f 114//3 116//3 117//3
f 117//3 116//3 118//3
f 117//3 118//3 58//3
f 58//3 118//3 56//3
f 329//4 4//1 1//1
f 4//1 329//4 330//4
f 3//2 334//5 335//5
f 334//5 3//2 2//2
f 339//6 340//7 341//7
f 340//7 339//6 342//6
f 341//7 349//8 350//8
f 349//8 341//7 340//7
f 350//8 354//9 355//9
f 354//9 350//8 349//8
f 355//9 330//4 329//4
f 330//4 355//9 354//9
f 335//5 359//10 360//10
f 359//10 335//5 334//5
f 360//10 364//11 365//11
f 364//11 360//10 359//10
f 365//11 369//12 370//12
f 369//12 365//11 364//11
f 370//12 374//13 375//13
f 374//13 370//12 369//12
f 375//13 379//14 380//14
f 379//14 375//13 374//13
f 384//15 385//16 386//15
f 385//16 384//15 387//16
f 394//17 386//15 395//17
f 386//15 394//17 384//15
f 399//18 394//17 395//17
f 394//17 399//18 400//18
f 404//19 400//18 399//18
f 400//18 404//19 405//19
f 409//20 405//19 404//19
f 405//19 409//20 410//20
f 414//21 409//20 415//21
f 409//20 414//21 410//20
f 419//22 415//21 420//22
f 415//21 419//22 414//21
f 424//23 419//22 420//22
f 419//22 424//23 425//23
f 429//24 424//23 430//24
f 424//23 429//24 425//23
f 434//25 430//24 435//25
f 430//24 434//25 429//24
f 439//26 434//25 435//25
f 434//25 439//26 440//26
f 444//27 440//26 439//26
f 440//26 444//27 445//27
f 449//28 450//28 451//28
f 450//28 449//28 452//28
f 458//29 459//30 460//30
f 459//30 458//29 461//29
f 467//31 461//29 458//29
f 461//29 467//31 468//31
f 472//32 468//31 467//31
f 468//31 472//32 473//32
f 477//33 473//32 472//32
f 473//32 477//33 478//33
f 482//34 478//33 477//33
f 478//33 482//34 483//34
f 487//35 483//34 482//34
f 483//34 487//35 488//35
f 492//36 488//35 487//35
f 488//35 492//36 493//36
f 497//37 493//36 492//36
f 493//36 497//37 498//37
f 502//38 498//37 497//37
f 498//37 502//38 503//38
f 507//39 503//38 502//38
f 503//38 507//39 508//39
f 512//40 508//39 507//39
f 508//39 512//40 513//40
f 517//41 518//42 519//41
f 518//42 517//41 520//42
f 527//43 517//41 519//41
f 517//41 527//43 528//43
f 532//44 528//43 527//43
f 528//43 532//44 533//44
f 537//45 532//44 538//45
f 532//44 537//45 533//44
f 542//46 537//45 538//45
f 537//45 542//46 543//46
f 547//47 543//46 542//46
f 543//46 547//47 548//47
f 552//48 547//47 553//48
f 547//47 552//48 548//47
f 557//49 553//48 558//49
f 553//48 557//49 552//48
f 562//50 557//49 558//49
f 557//49 562//50 563//50
f 567//51 562//50 568//51
f 562//50 567//51 563//50
f 572//52 567//51 568//51
f 567//51 572//52 573//52
f 577//53 572//52 578//53
f 572//52 577//53 573//52
f 582//54 583//54 584//54
f 583//54 582//54 585//54
usemtl material_2_0
