# SSTK version 0.8.0
# 147
mtllib original-147.mtl
o #ID251
v -0.505142 0.608880 -0.561194
v 0.508800 0.659577 -0.561194
v 0.508800 0.608880 -0.561194
v -0.505142 0.659577 -0.561194
v -0.505142 0.659577 -0.561194
v -0.505142 0.608880 -0.561194
v 0.508800 0.659577 -0.561194
v 0.508800 0.608880 -0.561194
v -0.505142 0.608880 -0.561194
v -0.505142 0.659577 -0.561194
v 0.508800 0.659577 -0.561194
v 0.508800 0.608880 -0.561194
v -0.505142 0.614304 0.452678
v -0.505142 0.608880 -0.561194
v -0.505142 0.608880 0.452748
v -0.505142 0.619691 0.452043
v -0.505142 0.624982 0.450848
v -0.505142 0.630119 0.449108
v -0.505142 0.635047 0.446842
v -0.505142 0.639711 0.444073
v -0.505142 0.644061 0.440832
v -0.505142 0.648049 0.437155
v -0.505142 0.651631 0.433082
v -0.505142 0.654768 0.428658
v -0.505142 0.657427 0.423930
v -0.505142 0.659577 0.418950
v -0.505142 0.659577 -0.561194
v -0.505142 0.659577 -0.561194
v -0.505142 0.659577 0.418950
v -0.505142 0.608880 -0.561194
v -0.505142 0.657427 0.423930
v -0.505142 0.654768 0.428658
v -0.505142 0.651631 0.433082
v -0.505142 0.648049 0.437155
v -0.505142 0.644061 0.440832
v -0.505142 0.639711 0.444073
v -0.505142 0.635047 0.446842
v -0.505142 0.630119 0.449108
v -0.505142 0.624982 0.450848
v -0.505142 0.619691 0.452043
v -0.505142 0.614304 0.452678
v -0.505142 0.608880 0.452748
v -0.505142 0.608880 0.452748
v -0.505142 0.614304 0.452678
v -0.505142 0.619691 0.452043
v -0.505142 0.624982 0.450848
v -0.505142 0.630119 0.449108
v -0.505142 0.635047 0.446842
v -0.505142 0.639711 0.444073
v -0.505142 0.644061 0.440832
v -0.505142 0.648049 0.437155
v -0.505142 0.651631 0.433082
v -0.505142 0.654768 0.428658
v -0.505142 0.657427 0.423930
v -0.505142 0.659577 0.418950
v -0.505142 0.659577 0.418950
v -0.488243 0.659577 0.402051
v -0.505142 0.659577 -0.561194
v 0.508800 0.659577 0.418950
v 0.491901 0.659577 0.402051
v 0.491901 0.659577 -0.544295
v -0.488243 0.659577 -0.544295
v 0.508800 0.659577 -0.561194
v 0.508800 0.659577 0.418950
v 0.491901 0.659577 -0.544295
v 0.508800 0.659577 -0.561194
v -0.488243 0.659577 -0.544295
v -0.488243 0.659577 0.402051
v -0.505142 0.659577 -0.561194
v 0.491901 0.659577 0.402051
v -0.505142 0.659577 0.418950
v 0.508800 0.659577 0.418950
v -0.488243 0.659577 -0.544295
v -0.488243 0.659577 0.402051
v 0.491901 0.659577 -0.544295
v 0.491901 0.659577 0.402051
v 0.508800 0.608880 -0.561194
v 0.508800 0.614304 0.452678
v 0.508800 0.608880 0.452748
v 0.508800 0.619691 0.452043
v 0.508800 0.624982 0.450848
v 0.508800 0.630119 0.449108
v 0.508800 0.635047 0.446842
v 0.508800 0.639711 0.444073
v 0.508800 0.644061 0.440832
v 0.508800 0.648049 0.437155
v 0.508800 0.651631 0.433082
v 0.508800 0.654768 0.428658
v 0.508800 0.657427 0.423930
v 0.508800 0.659577 0.418950
v 0.508800 0.659577 -0.561194
v 0.508800 0.659577 -0.561194
v 0.508800 0.608880 -0.561194
v 0.508800 0.659577 0.418950
v 0.508800 0.657427 0.423930
v 0.508800 0.654768 0.428658
v 0.508800 0.651631 0.433082
v 0.508800 0.648049 0.437155
v 0.508800 0.644061 0.440832
v 0.508800 0.639711 0.444073
v 0.508800 0.635047 0.446842
v 0.508800 0.630119 0.449108
v 0.508800 0.624982 0.450848
v 0.508800 0.619691 0.452043
v 0.508800 0.614304 0.452678
v 0.508800 0.608880 0.452748
v 0.508800 0.608880 0.452748
v 0.508800 0.657427 0.423930
v 0.508800 0.654768 0.428658
v 0.508800 0.651631 0.433082
v 0.508800 0.648049 0.437155
v 0.508800 0.644061 0.440832
v 0.508800 0.639711 0.444073
v 0.508800 0.635047 0.446842
v 0.508800 0.630119 0.449108
v 0.508800 0.624982 0.450848
v 0.508800 0.619691 0.452043
v 0.508800 0.614304 0.452678
v 0.508800 0.608880 -0.561194
v -0.505142 0.608880 0.452748
v -0.505142 0.608880 -0.561194
v 0.508800 0.608880 0.452748
v 0.508800 0.608880 0.452748
v 0.508800 0.608880 -0.561194
v -0.505142 0.608880 0.452748
v -0.505142 0.608880 -0.561194
v 0.508800 0.614304 0.452678
v -0.505142 0.608880 0.452748
v 0.508800 0.608880 0.452748
v -0.505142 0.614304 0.452678
v -0.505142 0.614304 0.452678
v 0.508800 0.614304 0.452678
v -0.505142 0.608880 0.452748
v 0.508800 0.608880 0.452748
v 0.508800 0.619691 0.452043
v -0.505142 0.619691 0.452043
v -0.505142 0.619691 0.452043
v 0.508800 0.619691 0.452043
v -0.505142 0.624982 0.450848
v 0.508800 0.624982 0.450848
v 0.508800 0.624982 0.450848
v -0.505142 0.624982 0.450848
v -0.505142 0.630119 0.449108
v 0.508800 0.630119 0.449108
v 0.508800 0.630119 0.449108
v -0.505142 0.630119 0.449108
v 0.508800 0.635047 0.446842
v -0.505142 0.635047 0.446842
v -0.505142 0.635047 0.446842
v 0.508800 0.635047 0.446842
v 0.508800 0.639711 0.444073
v -0.505142 0.639711 0.444073
v -0.505142 0.639711 0.444073
v 0.508800 0.639711 0.444073
v 0.508800 0.644061 0.440832
v -0.505142 0.644061 0.440832
v -0.505142 0.644061 0.440832
v 0.508800 0.644061 0.440832
v -0.505142 0.648049 0.437155
v 0.508800 0.648049 0.437155
v 0.508800 0.648049 0.437155
v -0.505142 0.648049 0.437155
v 0.508800 0.651631 0.433082
v -0.505142 0.651631 0.433082
v 0.508800 0.651631 0.433082
v -0.505142 0.651631 0.433082
v 0.508800 0.654768 0.428658
v -0.505142 0.654768 0.428658
v 0.508800 0.654768 0.428658
v -0.505142 0.654768 0.428658
v 0.508800 0.657427 0.423930
v -0.505142 0.657427 0.423930
v 0.508800 0.657427 0.423930
v -0.505142 0.657427 0.423930
v -0.505142 0.659577 0.418950
v 0.508800 0.659577 0.418950
v 0.508800 0.659577 0.418950
v -0.505142 0.659577 0.418950
vn 0 0 -1
vn -1 0 0
vn 0 1 0
vn 1 0 0
vn 0 -1 0
vn 0 0.0651085989638227 0.997878184119168
vn 0 0.01286953979463013 0.9999171840434959
vn 0 0.16891059599189348 0.9856313766117957
vn 0 0.27086729927838515 0.9626166974355026
vn 0 0.3698647095363236 0.9290856239548704
vn 0 0.46482150501969816 0.885404409561655
vn 0 0.554700196225229 0.8320502943378437
vn 0 0.6385188716703071 0.769606165854249
vn 0 0.7153618225636281 0.6987542220397984
vn 0 0.7843895777702389 0.6202684824214643
vn 0 0.8448479585406714 0.535006473745561
vn 0 0.8960765824513214 0.4438994913067145
vn 0 0.9180506644567054 0.3964630846505157
vn 0 0 1
vn 0 -0.0651085989638227 -0.997878184119168
vn 0 -0.01286953979463013 -0.9999171840434959
vn 0 -0.16891059599189348 -0.9856313766117957
vn 0 -0.27086729927838515 -0.9626166974355026
vn 0 -0.3698647095363236 -0.9290856239548704
vn 0 -0.46482150501969816 -0.885404409561655
vn 0 -0.554700196225229 -0.8320502943378437
vn 0 -0.6385188716703071 -0.769606165854249
vn 0 -0.7153618225636281 -0.6987542220397984
vn 0 -0.7843895777702389 -0.6202684824214643
vn 0 -0.8448479585406714 -0.535006473745561
vn 0 -0.8960765824513214 -0.4438994913067145
vn 0 -0.9180506644567054 -0.3964630846505157
usemtl material_0_0
f 5//19 6//19 7//19
f 8//19 7//19 6//19
f 28//4 29//4 30//4
f 29//4 31//4 30//4
f 31//4 32//4 30//4
f 32//4 33//4 30//4
f 33//4 34//4 30//4
f 34//4 35//4 30//4
f 35//4 36//4 30//4
f 36//4 37//4 30//4
f 37//4 38//4 30//4
f 38//4 39//4 30//4
f 39//4 40//4 30//4
f 40//4 41//4 30//4
f 42//4 30//4 41//4
f 64//5 65//5 66//5
f 65//5 67//5 66//5
f 68//5 69//5 67//5
f 66//5 67//5 69//5
f 65//5 64//5 70//5
f 70//5 64//5 68//5
f 64//5 71//5 68//5
f 69//5 68//5 71//5
f 92//2 93//2 94//2
f 94//2 93//2 95//2
f 95//2 93//2 96//2
f 96//2 93//2 97//2
f 97//2 93//2 98//2
f 98//2 93//2 99//2
f 99//2 93//2 100//2
f 100//2 93//2 101//2
f 101//2 93//2 102//2
f 102//2 93//2 103//2
f 103//2 93//2 104//2
f 104//2 93//2 105//2
f 106//2 105//2 93//2
f 123//3 124//3 125//3
f 126//3 125//3 124//3
f 131//20 132//20 133//21
f 134//21 133//21 132//20
f 137//22 138//22 131//20
f 132//20 131//20 138//22
f 141//23 138//22 142//23
f 137//22 142//23 138//22
f 145//24 141//23 146//24
f 142//23 146//24 141//23
f 149//25 150//25 146//24
f 145//24 146//24 150//25
f 153//26 154//26 149//25
f 150//25 149//25 154//26
f 157//27 158//27 153//26
f 154//26 153//26 158//27
f 161//28 158//27 162//28
f 157//27 162//28 158//27
f 161//28 162//28 165//29
f 166//29 165//29 162//28
f 165//29 166//29 169//30
f 170//30 169//30 166//29
f 169//30 170//30 173//31
f 174//31 173//31 170//30
f 177//32 173//31 178//32
f 174//31 178//32 173//31
usemtl material_1_0
f 1//1 2//1 3//1
f 2//1 1//1 4//1
f 13//2 14//2 15//2
f 14//2 13//2 16//2
f 14//2 16//2 17//2
f 14//2 17//2 18//2
f 14//2 18//2 19//2
f 14//2 19//2 20//2
f 14//2 20//2 21//2
f 14//2 21//2 22//2
f 14//2 22//2 23//2
f 14//2 23//2 24//2
f 14//2 24//2 25//2
f 14//2 25//2 26//2
f 14//2 26//2 27//2
f 56//3 57//3 58//3
f 57//3 56//3 59//3
f 57//3 59//3 60//3
f 60//3 59//3 61//3
f 58//3 62//3 63//3
f 62//3 58//3 57//3
f 63//3 62//3 61//3
f 63//3 61//3 59//3
f 77//4 78//4 79//4
f 78//4 77//4 80//4
f 80//4 77//4 81//4
f 81//4 77//4 82//4
f 82//4 77//4 83//4
f 83//4 77//4 84//4
f 84//4 77//4 85//4
f 85//4 77//4 86//4
f 86//4 77//4 87//4
f 87//4 77//4 88//4
f 88//4 77//4 89//4
f 89//4 77//4 90//4
f 90//4 77//4 91//4
f 119//5 120//5 121//5
f 120//5 119//5 122//5
f 127//6 128//7 129//7
f 128//7 127//6 130//6
f 135//8 130//6 127//6
f 130//6 135//8 136//8
f 135//8 139//9 136//8
f 139//9 135//8 140//9
f 140//9 143//10 139//9
f 143//10 140//9 144//10
f 147//11 143//10 144//10
f 143//10 147//11 148//11
f 151//12 148//11 147//11
f 148//11 151//12 152//12
f 155//13 152//12 151//12
f 152//12 155//13 156//13
f 155//13 159//14 156//13
f 159//14 155//13 160//14
f 159//14 163//15 164//15
f 163//15 159//14 160//14
f 164//15 167//16 168//16
f 167//16 164//15 163//15
f 168//16 171//17 172//17
f 171//17 168//16 167//16
f 171//17 175//18 172//17
f 175//18 171//17 176//18
usemtl material_2_0
