# SSTK version 0.8.0
# 129
mtllib original-129.mtl
o #ID123
v -0.074449 0.502546 0.454438
v -0.063625 0.501866 0.454438
v -0.075708 0.501866 0.454438
v -0.073042 0.503101 0.454438
v -0.071598 0.503476 0.454438
v -0.070140 0.503664 0.454438
v -0.068695 0.503662 0.454438
v -0.067286 0.503469 0.454438
v -0.065939 0.503089 0.454438
v -0.064675 0.502529 0.454438
v -0.064675 0.502529 0.454438
v -0.065939 0.503089 0.454438
v -0.063625 0.501866 0.454438
v -0.067286 0.503469 0.454438
v -0.068695 0.503662 0.454438
v -0.070140 0.503664 0.454438
v -0.071598 0.503476 0.454438
v -0.073042 0.503101 0.454438
v -0.074449 0.502546 0.454438
v -0.075708 0.501866 0.454438
v -0.064675 0.502529 0.454438
v -0.063625 0.501866 0.454438
v -0.075708 0.501866 0.454438
v -0.074449 0.502546 0.454438
v -0.073042 0.503101 0.454438
v -0.071598 0.503476 0.454438
v -0.070140 0.503664 0.454438
v -0.068695 0.503662 0.454438
v -0.067286 0.503469 0.454438
v -0.065939 0.503089 0.454438
v -0.063625 0.501866 0.454438
v -0.064675 0.502529 0.452748
v -0.063625 0.501866 0.452748
v -0.064675 0.502529 0.454438
v -0.064675 0.502529 0.454438
v -0.063625 0.501866 0.454438
v -0.064675 0.502529 0.452748
v -0.063625 0.501866 0.452748
v -0.064675 0.502529 0.452748
v -0.063625 0.501866 0.452748
v -0.100901 0.474173 0.454438
v -0.101086 0.471270 0.454438
v -0.101088 0.472716 0.454438
v -0.100893 0.469862 0.454438
v -0.100526 0.475618 0.454438
v -0.100514 0.468514 0.454438
v -0.099970 0.477025 0.454438
v -0.099954 0.467251 0.454438
v -0.099244 0.478371 0.454438
v -0.099223 0.466093 0.454438
v -0.098359 0.479631 0.454438
v -0.098334 0.465061 0.454438
v -0.097330 0.480786 0.454438
v -0.098142 0.464870 0.454438
v -0.097301 0.464172 0.454438
v -0.078211 0.499905 0.454438
v -0.096143 0.463441 0.454438
v -0.094880 0.462881 0.454438
v -0.093532 0.462501 0.454438
v -0.092124 0.462308 0.454438
v -0.090679 0.462306 0.454438
v -0.089221 0.462494 0.454438
v -0.087777 0.462868 0.454438
v -0.086369 0.463424 0.454438
v -0.085024 0.464150 0.454438
v -0.083763 0.465036 0.454438
v -0.082608 0.466065 0.454438
v -0.063489 0.485184 0.454438
v -0.077056 0.500934 0.454438
v -0.075795 0.501819 0.454438
v -0.075708 0.501866 0.454438
v -0.063625 0.501866 0.454438
v -0.063518 0.501798 0.454438
v -0.062485 0.500909 0.454438
v -0.062460 0.486338 0.454438
v -0.062294 0.500718 0.454438
v -0.061575 0.487599 0.454438
v -0.061596 0.499877 0.454438
v -0.060865 0.498719 0.454438
v -0.060848 0.488945 0.454438
v -0.060305 0.497455 0.454438
v -0.060293 0.490352 0.454438
v -0.059926 0.496108 0.454438
v -0.059918 0.491797 0.454438
v -0.059733 0.494700 0.454438
v -0.059730 0.493254 0.454438
v -0.059730 0.493254 0.454438
v -0.059733 0.494700 0.454438
v -0.059918 0.491797 0.454438
v -0.059926 0.496108 0.454438
v -0.060293 0.490352 0.454438
v -0.060305 0.497455 0.454438
v -0.060848 0.488945 0.454438
v -0.060865 0.498719 0.454438
v -0.061575 0.487599 0.454438
v -0.061596 0.499877 0.454438
v -0.062294 0.500718 0.454438
v -0.062460 0.486338 0.454438
v -0.062485 0.500909 0.454438
v -0.063489 0.485184 0.454438
v -0.063518 0.501798 0.454438
v -0.063625 0.501866 0.454438
v -0.075708 0.501866 0.454438
v -0.075795 0.501819 0.454438
v -0.077056 0.500934 0.454438
v -0.078211 0.499905 0.454438
v -0.082608 0.466065 0.454438
v -0.083763 0.465036 0.454438
v -0.085024 0.464150 0.454438
v -0.086369 0.463424 0.454438
v -0.087777 0.462868 0.454438
v -0.089221 0.462494 0.454438
v -0.090679 0.462306 0.454438
v -0.092124 0.462308 0.454438
v -0.093532 0.462501 0.454438
v -0.094880 0.462881 0.454438
v -0.096143 0.463441 0.454438
v -0.097301 0.464172 0.454438
v -0.097330 0.480786 0.454438
v -0.098142 0.464870 0.454438
v -0.098334 0.465061 0.454438
v -0.098359 0.479631 0.454438
v -0.099223 0.466093 0.454438
v -0.099244 0.478371 0.454438
v -0.099954 0.467251 0.454438
v -0.099970 0.477025 0.454438
v -0.100514 0.468514 0.454438
v -0.100526 0.475618 0.454438
v -0.100893 0.469862 0.454438
v -0.100901 0.474173 0.454438
v -0.101086 0.471270 0.454438
v -0.101088 0.472716 0.454438
v -0.075795 0.501819 0.454438
v -0.063518 0.501798 0.454438
v -0.062485 0.500909 0.454438
v -0.062294 0.500718 0.454438
v -0.061596 0.499877 0.454438
v -0.060865 0.498719 0.454438
v -0.060305 0.497455 0.454438
v -0.059926 0.496108 0.454438
v -0.059733 0.494700 0.454438
v -0.059730 0.493254 0.454438
v -0.059918 0.491797 0.454438
v -0.060293 0.490352 0.454438
v -0.060848 0.488945 0.454438
v -0.061575 0.487599 0.454438
v -0.062460 0.486338 0.454438
v -0.063489 0.485184 0.454438
v -0.082608 0.466065 0.454438
v -0.083763 0.465036 0.454438
v -0.085024 0.464150 0.454438
v -0.086369 0.463424 0.454438
v -0.087777 0.462868 0.454438
v -0.089221 0.462494 0.454438
v -0.090679 0.462306 0.454438
v -0.092124 0.462308 0.454438
v -0.093532 0.462501 0.454438
v -0.094880 0.462881 0.454438
v -0.096143 0.463441 0.454438
v -0.097301 0.464172 0.454438
v -0.098142 0.464870 0.454438
v -0.098334 0.465061 0.454438
v -0.099223 0.466093 0.454438
v -0.099954 0.467251 0.454438
v -0.100514 0.468514 0.454438
v -0.100893 0.469862 0.454438
v -0.101086 0.471270 0.454438
v -0.101088 0.472716 0.454438
v -0.100901 0.474173 0.454438
v -0.100526 0.475618 0.454438
v -0.099970 0.477025 0.454438
v -0.099244 0.478371 0.454438
v -0.098359 0.479631 0.454438
v -0.097330 0.480786 0.454438
v -0.078211 0.499905 0.454438
v -0.077056 0.500934 0.454438
v -0.074449 0.502546 0.454438
v -0.075708 0.501866 0.452748
v -0.074449 0.502546 0.452748
v -0.075708 0.501866 0.454438
v -0.075708 0.501866 0.454438
v -0.074449 0.502546 0.454438
v -0.075708 0.501866 0.452748
v -0.074449 0.502546 0.452748
v -0.075708 0.501866 0.452748
v -0.074449 0.502546 0.452748
v -0.073042 0.503101 0.452748
v -0.073042 0.503101 0.454438
v -0.073042 0.503101 0.454438
v -0.073042 0.503101 0.452748
v -0.073042 0.503101 0.452748
v -0.071598 0.503476 0.454438
v -0.071598 0.503476 0.452748
v -0.071598 0.503476 0.454438
v -0.071598 0.503476 0.452748
v -0.071598 0.503476 0.452748
v -0.070140 0.503664 0.452748
v -0.070140 0.503664 0.454438
v -0.070140 0.503664 0.454438
v -0.070140 0.503664 0.452748
v -0.070140 0.503664 0.452748
v -0.068695 0.503662 0.454438
v -0.068695 0.503662 0.452748
v -0.068695 0.503662 0.454438
v -0.068695 0.503662 0.452748
v -0.068695 0.503662 0.452748
v -0.067286 0.503469 0.452748
v -0.067286 0.503469 0.454438
v -0.067286 0.503469 0.454438
v -0.067286 0.503469 0.452748
v -0.067286 0.503469 0.452748
v -0.065939 0.503089 0.454438
v -0.065939 0.503089 0.452748
v -0.065939 0.503089 0.454438
v -0.065939 0.503089 0.452748
v -0.065939 0.503089 0.452748
v -0.063518 0.501798 0.454438
v -0.063625 0.501866 0.452748
v -0.063518 0.501798 0.452748
v -0.063625 0.501866 0.454438
v -0.063625 0.501866 0.454438
v -0.063518 0.501798 0.454438
v -0.063625 0.501866 0.452748
v -0.063518 0.501798 0.452748
v -0.063518 0.501798 0.452748
v -0.075708 0.501866 0.452748
v -0.075795 0.501819 0.454438
v -0.075795 0.501819 0.452748
v -0.075708 0.501866 0.454438
v -0.075708 0.501866 0.454438
v -0.075708 0.501866 0.452748
v -0.075795 0.501819 0.454438
v -0.075795 0.501819 0.452748
v -0.075795 0.501819 0.452748
v -0.062485 0.500909 0.452748
v -0.062485 0.500909 0.454438
v -0.062485 0.500909 0.454438
v -0.062485 0.500909 0.452748
v -0.062485 0.500909 0.452748
v -0.062294 0.500718 0.452748
v -0.062294 0.500718 0.454438
v -0.062294 0.500718 0.454438
v -0.062294 0.500718 0.452748
v -0.062294 0.500718 0.452748
v -0.061596 0.499877 0.452748
v -0.061596 0.499877 0.454438
v -0.061596 0.499877 0.452748
v -0.061596 0.499877 0.454438
v -0.061596 0.499877 0.452748
v -0.060865 0.498719 0.452748
v -0.060865 0.498719 0.454438
v -0.060865 0.498719 0.452748
v -0.060865 0.498719 0.454438
v -0.060865 0.498719 0.452748
v -0.060305 0.497455 0.452748
v -0.060305 0.497455 0.454438
v -0.060305 0.497455 0.452748
v -0.060305 0.497455 0.454438
v -0.060305 0.497455 0.452748
v -0.059926 0.496108 0.452748
v -0.059926 0.496108 0.454438
v -0.059926 0.496108 0.452748
v -0.059926 0.496108 0.454438
v -0.059926 0.496108 0.452748
v -0.059733 0.494700 0.452748
v -0.059733 0.494700 0.454438
v -0.059733 0.494700 0.452748
v -0.059733 0.494700 0.454438
v -0.059733 0.494700 0.452748
v -0.059730 0.493254 0.452748
v -0.059730 0.493254 0.454438
v -0.059730 0.493254 0.452748
v -0.059730 0.493254 0.454438
v -0.059730 0.493254 0.452748
v -0.059918 0.491797 0.452748
v -0.059918 0.491797 0.454438
v -0.059918 0.491797 0.452748
v -0.059918 0.491797 0.454438
v -0.059918 0.491797 0.452748
v -0.060293 0.490352 0.452748
v -0.060293 0.490352 0.454438
v -0.060293 0.490352 0.452748
v -0.060293 0.490352 0.454438
v -0.060293 0.490352 0.452748
v -0.060848 0.488945 0.452748
v -0.060848 0.488945 0.454438
v -0.060848 0.488945 0.452748
v -0.060848 0.488945 0.454438
v -0.060848 0.488945 0.452748
v -0.061575 0.487599 0.452748
v -0.061575 0.487599 0.454438
v -0.061575 0.487599 0.452748
v -0.061575 0.487599 0.454438
v -0.061575 0.487599 0.452748
v -0.062460 0.486338 0.452748
v -0.062460 0.486338 0.454438
v -0.062460 0.486338 0.452748
v -0.062460 0.486338 0.454438
v -0.062460 0.486338 0.452748
v -0.063489 0.485184 0.452748
v -0.063489 0.485184 0.454438
v -0.063489 0.485184 0.452748
v -0.063489 0.485184 0.454438
v -0.063489 0.485184 0.452748
v -0.063489 0.485184 0.454438
v -0.082608 0.466065 0.452748
v -0.082608 0.466065 0.454438
v -0.063489 0.485184 0.452748
v -0.063489 0.485184 0.452748
v -0.063489 0.485184 0.454438
v -0.082608 0.466065 0.452748
v -0.082608 0.466065 0.454438
v -0.082608 0.466065 0.452748
v -0.083763 0.465036 0.454438
v -0.082608 0.466065 0.452748
v -0.083763 0.465036 0.452748
v -0.082608 0.466065 0.454438
v -0.082608 0.466065 0.454438
v -0.083763 0.465036 0.454438
v -0.082608 0.466065 0.452748
v -0.083763 0.465036 0.452748
v -0.083763 0.465036 0.452748
v -0.085024 0.464150 0.452748
v -0.085024 0.464150 0.454438
v -0.085024 0.464150 0.454438
v -0.085024 0.464150 0.452748
v -0.085024 0.464150 0.452748
v -0.086369 0.463424 0.454438
v -0.086369 0.463424 0.452748
v -0.086369 0.463424 0.454438
v -0.086369 0.463424 0.452748
v -0.086369 0.463424 0.452748
v -0.087777 0.462868 0.452748
v -0.087777 0.462868 0.454438
v -0.087777 0.462868 0.454438
v -0.087777 0.462868 0.452748
v -0.087777 0.462868 0.452748
v -0.089221 0.462494 0.454438
v -0.089221 0.462494 0.452748
v -0.089221 0.462494 0.454438
v -0.089221 0.462494 0.452748
v -0.089221 0.462494 0.452748
v -0.090679 0.462306 0.452748
v -0.090679 0.462306 0.454438
v -0.090679 0.462306 0.454438
v -0.090679 0.462306 0.452748
v -0.090679 0.462306 0.452748
v -0.092124 0.462308 0.454438
v -0.092124 0.462308 0.452748
v -0.092124 0.462308 0.454438
v -0.092124 0.462308 0.452748
v -0.092124 0.462308 0.452748
v -0.093532 0.462501 0.454438
v -0.093532 0.462501 0.452748
v -0.093532 0.462501 0.454438
v -0.093532 0.462501 0.452748
v -0.093532 0.462501 0.452748
v -0.094880 0.462881 0.452748
v -0.094880 0.462881 0.454438
v -0.094880 0.462881 0.454438
v -0.094880 0.462881 0.452748
v -0.094880 0.462881 0.452748
v -0.096143 0.463441 0.454438
v -0.096143 0.463441 0.452748
v -0.096143 0.463441 0.454438
v -0.096143 0.463441 0.452748
v -0.096143 0.463441 0.452748
v -0.097301 0.464172 0.454438
v -0.097301 0.464172 0.452748
v -0.097301 0.464172 0.454438
v -0.097301 0.464172 0.452748
v -0.097301 0.464172 0.452748
v -0.098142 0.464870 0.454438
v -0.098142 0.464870 0.452748
v -0.098142 0.464870 0.454438
v -0.098142 0.464870 0.452748
v -0.098142 0.464870 0.452748
v -0.098142 0.464870 0.476407
v -0.098334 0.465061 0.454438
v -0.098142 0.464870 0.454438
v -0.098334 0.465061 0.476407
v -0.098334 0.465061 0.476407
v -0.098142 0.464870 0.476407
v -0.098334 0.465061 0.454438
v -0.098142 0.464870 0.454438
v -0.098142 0.464870 0.476407
v -0.098334 0.465061 0.476407
v -0.098334 0.465061 0.452748
v -0.098142 0.464870 0.454438
v -0.098142 0.464870 0.452748
v -0.098334 0.465061 0.454438
v -0.098334 0.465061 0.454438
v -0.098334 0.465061 0.452748
v -0.098142 0.464870 0.454438
v -0.098142 0.464870 0.452748
v -0.098334 0.465061 0.452748
v -0.099223 0.466093 0.452748
v -0.098334 0.465061 0.454438
v -0.098334 0.465061 0.452748
v -0.099223 0.466093 0.454438
v -0.099223 0.466093 0.454438
v -0.099223 0.466093 0.452748
v -0.098334 0.465061 0.454438
v -0.098334 0.465061 0.452748
v -0.099223 0.466093 0.452748
v -0.099954 0.467251 0.452748
v -0.099954 0.467251 0.454438
v -0.099954 0.467251 0.454438
v -0.099954 0.467251 0.452748
v -0.099954 0.467251 0.452748
v -0.100514 0.468514 0.452748
v -0.100514 0.468514 0.454438
v -0.100514 0.468514 0.454438
v -0.100514 0.468514 0.452748
v -0.100514 0.468514 0.452748
v -0.100893 0.469862 0.452748
v -0.100893 0.469862 0.454438
v -0.100893 0.469862 0.454438
v -0.100893 0.469862 0.452748
v -0.100893 0.469862 0.452748
v -0.101086 0.471270 0.452748
v -0.101086 0.471270 0.454438
v -0.101086 0.471270 0.454438
v -0.101086 0.471270 0.452748
v -0.101086 0.471270 0.452748
v -0.101088 0.472716 0.452748
v -0.101088 0.472716 0.454438
v -0.101088 0.472716 0.454438
v -0.101088 0.472716 0.452748
v -0.101088 0.472716 0.452748
v -0.100901 0.474173 0.452748
v -0.100901 0.474173 0.454438
v -0.100901 0.474173 0.454438
v -0.100901 0.474173 0.452748
v -0.100901 0.474173 0.452748
v -0.100526 0.475618 0.452748
v -0.100526 0.475618 0.454438
v -0.100526 0.475618 0.454438
v -0.100526 0.475618 0.452748
v -0.100526 0.475618 0.452748
v -0.099970 0.477025 0.452748
v -0.099970 0.477025 0.454438
v -0.099970 0.477025 0.454438
v -0.099970 0.477025 0.452748
v -0.099970 0.477025 0.452748
v -0.099244 0.478371 0.452748
v -0.099244 0.478371 0.454438
v -0.099244 0.478371 0.454438
v -0.099244 0.478371 0.452748
v -0.099244 0.478371 0.452748
v -0.098359 0.479631 0.452748
v -0.098359 0.479631 0.454438
v -0.098359 0.479631 0.454438
v -0.098359 0.479631 0.452748
v -0.098359 0.479631 0.452748
v -0.097330 0.480786 0.452748
v -0.097330 0.480786 0.454438
v -0.097330 0.480786 0.454438
v -0.097330 0.480786 0.452748
v -0.097330 0.480786 0.452748
v -0.078211 0.499905 0.452748
v -0.097330 0.480786 0.454438
v -0.097330 0.480786 0.452748
v -0.078211 0.499905 0.454438
v -0.078211 0.499905 0.454438
v -0.078211 0.499905 0.452748
v -0.097330 0.480786 0.454438
v -0.097330 0.480786 0.452748
v -0.078211 0.499905 0.452748
v -0.077056 0.500934 0.454438
v -0.078211 0.499905 0.452748
v -0.077056 0.500934 0.452748
v -0.078211 0.499905 0.454438
v -0.078211 0.499905 0.454438
v -0.077056 0.500934 0.454438
v -0.078211 0.499905 0.452748
v -0.077056 0.500934 0.452748
v -0.077056 0.500934 0.452748
vn 0 0 -1
vn 0 0 1
vn -0.5338077003485499 -0.8456059005521385 0
vn -0.4707754755526632 -0.8822530541846619 0
vn 0.4707754755526632 0.8822530541846619 0
vn 0.5338077003485499 0.8456059005521385 0
vn 0.42189662056772026 -0.9066439441994509 0
vn 0.47513402151037243 -0.8799134398356357 0
vn -0.47513402151037243 0.8799134398356357 0
vn -0.42189662056772026 0.9066439441994509 0
vn 0.3097248132652849 -0.9508262407231851 0
vn -0.3097248132652849 0.9508262407231851 0
vn 0.18983070726816897 -0.9818168375914456 0
vn -0.18983070726816897 0.9818168375914456 0
vn 0.06316172032578032 -0.9980033051475772 0
vn -0.06316172032578032 0.9980033051475772 0
vn -0.06879378011001852 -0.9976309015954622 0
vn 0.06879378011001852 0.9976309015954622 0
vn -0.20385430762110054 -0.9790012365999962 0
vn 0.20385430762110054 0.9790012365999962 0
vn -0.33906849595166794 -0.9407616887677099 0
vn 0.33906849595166794 0.9407616887677099 0
vn -0.5948473101317429 -0.8038387136913911 0
vn 0.5948473101317429 0.8038387136913911 0
vn 0.5257644877464567 -0.8506301801750898 0
vn -0.5257644877464567 0.8506301801750898 0
vn -0.6803398126154461 -0.7328968135900032 0
vn 0.6803398126154461 0.7328968135900032 0
vn -0.7391161253652796 -0.673578023116117 0
vn 0.7391161253652796 0.673578023116117 0
vn -0.8092696063111214 -0.5874374045811541 0
vn 0.8092696063111214 0.5874374045811541 0
vn -0.8822530541846619 -0.4707754755526632 0
vn 0.8822530541846619 0.4707754755526632 0
vn -0.9407616887677099 -0.33906849595166794 0
vn 0.9407616887677099 0.33906849595166794 0
vn -0.9790012365999962 -0.20385430762110054 0
vn 0.9790012365999962 0.20385430762110054 0
vn -0.9976309015954622 -0.06879378011001852 0
vn 0.9976309015954622 0.06879378011001852 0
vn -0.9980033051475772 0.06316172032578032 0
vn 0.9980033051475772 -0.06316172032578032 0
vn -0.9818168375914456 0.18983070726816897 0
vn 0.9818168375914456 -0.18983070726816897 0
vn -0.9508262407231851 0.3097248132652849 0
vn 0.9508262407231851 -0.3097248132652849 0
vn -0.9066439441994509 0.42189662056772026 0
vn 0.9066439441994509 -0.42189662056772026 0
vn -0.8506301801750898 0.5257644877464567 0
vn 0.8506301801750898 -0.5257644877464567 0
vn -0.7838543839868546 0.6209446873148919 0
vn 0.7838543839868546 -0.6209446873148919 0
vn -0.7466505145512854 0.6652165129642384 0
vn 0.7466505145512854 -0.6652165129642384 0
vn -0.7071067811865476 0.7071067811865476 0
vn 0.7071067811865476 -0.7071067811865476 0
vn -0.6209446873148919 0.7838543839868546 0
vn -0.6652165129642384 0.7466505145512854 0
vn 0.6652165129642384 -0.7466505145512854 0
vn 0.6209446873148919 -0.7838543839868546 0
vn 0.5874374045811541 0.8092696063111214 0
vn -0.5874374045811541 -0.8092696063111214 0
vn 0.6386018863419343 0.7695372835415601 0
vn -0.6386018863419343 -0.7695372835415601 0
vn -0.7071067811865476 -0.7071067811865476 0
vn 0.7071067811865476 0.7071067811865476 0
vn 0.8038387136913911 0.5948473101317429 0
vn 0.7576742821784025 0.6526328846491284 0
vn -0.8038387136913911 -0.5948473101317429 0
vn -0.7576742821784025 -0.6526328846491284 0
usemtl material_0_0
f 1//1 2//1 3//1
f 2//1 1//1 4//1
f 2//1 4//1 5//1
f 2//1 5//1 6//1
f 2//1 6//1 7//1
f 2//1 7//1 8//1
f 2//1 8//1 9//1
f 2//1 9//1 10//1
f 11//2 12//2 13//2
f 12//2 14//2 13//2
f 14//2 15//2 13//2
f 15//2 16//2 13//2
f 16//2 17//2 13//2
f 17//2 18//2 13//2
f 18//2 19//2 13//2
f 20//2 13//2 19//2
f 31//3 32//4 33//3
f 32//4 31//3 34//4
f 35//5 36//6 37//5
f 38//6 37//5 36//6
f 41//1 42//1 43//1
f 42//1 41//1 44//1
f 44//1 41//1 45//1
f 44//1 45//1 46//1
f 46//1 45//1 47//1
f 46//1 47//1 48//1
f 48//1 47//1 49//1
f 48//1 49//1 50//1
f 50//1 49//1 51//1
f 50//1 51//1 52//1
f 52//1 51//1 53//1
f 52//1 53//1 54//1
f 54//1 53//1 55//1
f 55//1 53//1 56//1
f 55//1 56//1 57//1
f 57//1 56//1 58//1
f 58//1 56//1 59//1
f 59//1 56//1 60//1
f 60//1 56//1 61//1
f 61//1 56//1 62//1
f 62//1 56//1 63//1
f 63//1 56//1 64//1
f 64//1 56//1 65//1
f 65//1 56//1 66//1
f 66//1 56//1 67//1
f 67//1 56//1 68//1
f 68//1 56//1 69//1
f 68//1 69//1 70//1
f 68//1 70//1 71//1
f 68//1 71//1 72//1
f 68//1 72//1 73//1
f 68//1 73//1 74//1
f 68//1 74//1 75//1
f 75//1 74//1 76//1
f 75//1 76//1 77//1
f 77//1 76//1 78//1
f 77//1 78//1 79//1
f 77//1 79//1 80//1
f 80//1 79//1 81//1
f 80//1 81//1 82//1
f 82//1 81//1 83//1
f 82//1 83//1 84//1
f 84//1 83//1 85//1
f 84//1 85//1 86//1
f 87//2 88//2 89//2
f 88//2 90//2 89//2
f 89//2 90//2 91//2
f 90//2 92//2 91//2
f 91//2 92//2 93//2
f 92//2 94//2 93//2
f 93//2 94//2 95//2
f 94//2 96//2 95//2
f 96//2 97//2 95//2
f 95//2 97//2 98//2
f 97//2 99//2 98//2
f 98//2 99//2 100//2
f 99//2 101//2 100//2
f 101//2 102//2 100//2
f 102//2 103//2 100//2
f 103//2 104//2 100//2
f 104//2 105//2 100//2
f 105//2 106//2 100//2
f 100//2 106//2 107//2
f 107//2 106//2 108//2
f 108//2 106//2 109//2
f 109//2 106//2 110//2
f 110//2 106//2 111//2
f 111//2 106//2 112//2
f 112//2 106//2 113//2
f 113//2 106//2 114//2
f 114//2 106//2 115//2
f 115//2 106//2 116//2
f 116//2 106//2 117//2
f 117//2 106//2 118//2
f 106//2 119//2 118//2
f 118//2 119//2 120//2
f 120//2 119//2 121//2
f 119//2 122//2 121//2
f 121//2 122//2 123//2
f 122//2 124//2 123//2
f 123//2 124//2 125//2
f 124//2 126//2 125//2
f 125//2 126//2 127//2
f 126//2 128//2 127//2
f 127//2 128//2 129//2
f 128//2 130//2 129//2
f 129//2 130//2 131//2
f 132//2 131//2 130//2
f 177//7 178//8 179//7
f 178//8 177//7 180//8
f 181//9 182//10 183//9
f 184//10 183//9 182//10
f 187//11 177//7 179//7
f 177//7 187//11 188//11
f 189//12 190//12 182//10
f 184//10 182//10 190//12
f 192//13 187//11 193//13
f 187//11 192//13 188//11
f 189//12 194//14 190//12
f 195//14 190//12 194//14
f 197//15 192//13 193//13
f 192//13 197//15 198//15
f 199//16 200//16 194//14
f 195//14 194//14 200//16
f 202//17 197//15 203//17
f 197//15 202//17 198//15
f 199//16 204//18 200//16
f 205//18 200//16 204//18
f 207//19 202//17 203//17
f 202//17 207//19 208//19
f 209//20 210//20 204//18
f 205//18 204//18 210//20
f 212//21 207//19 213//21
f 207//19 212//21 208//19
f 209//20 214//22 210//20
f 215//22 210//20 214//22
f 34//4 213//21 32//4
f 213//21 34//4 212//21
f 214//22 35//5 215//22
f 37//5 215//22 35//5
f 217//23 218//3 219//23
f 218//3 217//23 220//3
f 221//6 222//24 223//6
f 224//24 223//6 222//24
f 226//8 227//25 228//25
f 227//25 226//8 229//8
f 230//9 231//9 232//26
f 233//26 232//26 231//9
f 235//27 217//23 219//23
f 217//23 235//27 236//27
f 237//28 238//28 222//24
f 224//24 222//24 238//28
f 240//29 236//27 235//27
f 236//27 240//29 241//29
f 242//30 243//30 237//28
f 238//28 237//28 243//30
f 241//29 245//31 246//31
f 245//31 241//29 240//29
f 243//30 242//30 247//32
f 248//32 247//32 242//30
f 246//31 250//33 251//33
f 250//33 246//31 245//31
f 247//32 248//32 252//34
f 253//34 252//34 248//32
f 251//33 255//35 256//35
f 255//35 251//33 250//33
f 252//34 253//34 257//36
f 258//36 257//36 253//34
f 256//35 260//37 261//37
f 260//37 256//35 255//35
f 257//36 258//36 262//38
f 263//38 262//38 258//36
f 261//37 265//39 266//39
f 265//39 261//37 260//37
f 262//38 263//38 267//40
f 268//40 267//40 263//38
f 266//39 270//41 271//41
f 270//41 266//39 265//39
f 267//40 268//40 272//42
f 273//42 272//42 268//40
f 271//41 275//43 276//43
f 275//43 271//41 270//41
f 272//42 273//42 277//44
f 278//44 277//44 273//42
f 276//43 280//45 281//45
f 280//45 276//43 275//43
f 277//44 278//44 282//46
f 283//46 282//46 278//44
f 281//45 285//47 286//47
f 285//47 281//45 280//45
f 282//46 283//46 287//48
f 288//48 287//48 283//46
f 286//47 290//49 291//49
f 290//49 286//47 285//47
f 287//48 288//48 292//50
f 293//50 292//50 288//48
f 291//49 295//51 296//51
f 295//51 291//49 290//49
f 292//50 293//50 297//52
f 298//52 297//52 293//50
f 296//51 300//53 301//53
f 300//53 296//51 295//51
f 297//52 298//52 302//54
f 303//54 302//54 298//52
f 305//55 306//55 307//55
f 306//55 305//55 308//55
f 309//56 310//56 311//56
f 312//56 311//56 310//56
f 314//57 315//58 316//57
f 315//58 314//57 317//58
f 318//59 319//60 320//59
f 321//60 320//59 319//60
f 323//26 314//57 316//57
f 314//57 323//26 324//26
f 325//25 326//25 319//60
f 321//60 319//60 326//25
f 328//10 323//26 329//10
f 323//26 328//10 324//26
f 325//25 330//7 326//25
f 331//7 326//25 330//7
f 333//12 328//10 329//10
f 328//10 333//12 334//12
f 335//11 336//11 330//7
f 331//7 330//7 336//11
f 338//14 333//12 339//14
f 333//12 338//14 334//12
f 335//11 340//13 336//11
f 341//13 336//11 340//13
f 343//16 338//14 339//14
f 338//14 343//16 344//16
f 345//15 346//15 340//13
f 341//13 340//13 346//15
f 348//18 343//16 349//18
f 343//16 348//18 344//16
f 345//15 350//17 346//15
f 351//17 346//15 350//17
f 353//20 349//18 354//20
f 349//18 353//20 348//18
f 350//17 355//19 351//17
f 356//19 351//17 355//19
f 358//22 353//20 354//20
f 353//20 358//22 359//22
f 360//21 361//21 355//19
f 356//19 355//19 361//21
f 363//5 358//22 364//5
f 358//22 363//5 359//22
f 360//21 365//4 361//21
f 366//4 361//21 365//4
f 368//61 364//5 369//61
f 364//5 368//61 363//5
f 365//4 370//62 366//4
f 371//62 366//4 370//62
f 373//63 369//61 374//63
f 369//61 373//63 368//61
f 370//62 375//64 371//62
f 376//64 371//62 375//64
f 378//65 379//65 380//65
f 379//65 378//65 381//65
f 382//66 383//66 384//66
f 385//66 384//66 383//66
f 388//66 389//66 390//66
f 389//66 388//66 391//66
f 392//65 393//65 394//65
f 395//65 394//65 393//65
f 397//67 398//68 399//68
f 398//68 397//67 400//67
f 401//69 402//69 403//70
f 404//70 403//70 402//69
f 406//34 400//67 397//67
f 400//67 406//34 407//34
f 408//33 409//33 401//69
f 402//69 401//69 409//33
f 411//36 407//34 406//34
f 407//34 411//36 412//36
f 413//35 414//35 408//33
f 409//33 408//33 414//35
f 416//38 412//36 411//36
f 412//36 416//38 417//38
f 418//37 419//37 413//35
f 414//35 413//35 419//37
f 421//40 417//38 416//38
f 417//38 421//40 422//40
f 423//39 424//39 418//37
f 419//37 418//37 424//39
f 426//42 422//40 421//40
f 422//40 426//42 427//42
f 428//41 429//41 423//39
f 424//39 423//39 429//41
f 431//44 427//42 426//42
f 427//42 431//44 432//44
f 433//43 434//43 428//41
f 429//41 428//41 434//43
f 436//46 432//44 431//44
f 432//44 436//46 437//46
f 438//45 439//45 433//43
f 434//43 433//43 439//45
f 441//48 437//46 436//46
f 437//46 441//48 442//48
f 443//47 444//47 438//45
f 439//45 438//45 444//47
f 446//50 442//48 441//48
f 442//48 446//50 447//50
f 448//49 449//49 443//47
f 444//47 443//47 449//49
f 451//52 447//50 446//50
f 447//50 451//52 452//52
f 453//51 454//51 448//49
f 449//49 448//49 454//51
f 456//54 452//52 451//52
f 452//52 456//54 457//54
f 458//53 459//53 453//51
f 454//51 453//51 459//53
f 461//56 462//56 463//56
f 462//56 461//56 464//56
f 465//55 466//55 467//55
f 468//55 467//55 466//55
f 470//60 471//59 472//60
f 471//59 470//60 473//59
f 474//58 475//57 476//58
f 477//57 476//58 475//57
f 228//25 470//60 472//60
f 470//60 228//25 227//25
f 232//26 233//26 475//57
f 477//57 475//57 233//26
usemtl material_1_0
