# SSTK version 0.8.0
# 3
mtllib original-3.mtl
o #ID5
v -0.174695 0.148899 0.435849
v -0.188470 0.137045 0.508177
v -0.188470 0.137045 0.435849
v -0.174695 0.148899 0.508177
v -0.174695 0.148899 0.508177
v -0.174695 0.148899 0.435849
v -0.188470 0.137045 0.508177
v -0.188470 0.137045 0.435849
v -0.174695 0.148899 0.435849
v -0.188470 0.137045 0.435849
v -0.174695 0.148899 0.508177
v -0.188470 0.137045 0.508177
v -0.160203 0.159865 0.435849
v -0.160203 0.159865 0.508177
v -0.160203 0.159865 0.508177
v -0.160203 0.159865 0.435849
v -0.160203 0.159865 0.435849
v -0.160203 0.159865 0.508177
v -0.201474 0.124350 0.508177
v -0.201474 0.124350 0.435849
v -0.201474 0.124350 0.508177
v -0.201474 0.124350 0.435849
v -0.201474 0.124350 0.435849
v -0.201474 0.124350 0.508177
v -0.145051 0.169899 0.435849
v -0.145051 0.169899 0.508177
v -0.145051 0.169899 0.508177
v -0.145051 0.169899 0.435849
v -0.145051 0.169899 0.435849
v -0.145051 0.169899 0.508177
v -0.213655 0.110863 0.435849
v -0.213655 0.110863 0.508177
v -0.213655 0.110863 0.508177
v -0.213655 0.110863 0.435849
v -0.213655 0.110863 0.435849
v -0.213655 0.110863 0.508177
v -0.129299 0.178962 0.435849
v -0.129299 0.178962 0.508177
v -0.129299 0.178962 0.508177
v -0.129299 0.178962 0.435849
v -0.129299 0.178962 0.435849
v -0.129299 0.178962 0.508177
v -0.224964 0.096637 0.435849
v -0.224964 0.096637 0.508177
v -0.224964 0.096637 0.508177
v -0.224964 0.096637 0.435849
v -0.224964 0.096637 0.435849
v -0.224964 0.096637 0.508177
v -0.113009 0.187018 0.435849
v -0.113009 0.187018 0.508177
v -0.113009 0.187018 0.508177
v -0.113009 0.187018 0.435849
v -0.113009 0.187018 0.435849
v -0.113009 0.187018 0.508177
v -0.235358 0.081730 0.435849
v -0.235358 0.081730 0.508177
v -0.235358 0.081730 0.508177
v -0.235358 0.081730 0.435849
v -0.235358 0.081730 0.435849
v -0.235358 0.081730 0.508177
v -0.096245 0.194035 0.435849
v -0.096245 0.194035 0.508177
v -0.096245 0.194035 0.508177
v -0.096245 0.194035 0.435849
v -0.096245 0.194035 0.435849
v -0.096245 0.194035 0.508177
v -0.244796 0.066199 0.508177
v -0.244796 0.066199 0.435849
v -0.244796 0.066199 0.508177
v -0.244796 0.066199 0.435849
v -0.244796 0.066199 0.435849
v -0.244796 0.066199 0.508177
v -0.079074 0.199986 0.435849
v -0.079074 0.199986 0.508177
v -0.079074 0.199986 0.508177
v -0.079074 0.199986 0.435849
v -0.079074 0.199986 0.435849
v -0.079074 0.199986 0.508177
v -0.253240 0.050107 0.435849
v -0.253240 0.050107 0.508177
v -0.253240 0.050107 0.508177
v -0.253240 0.050107 0.435849
v -0.253240 0.050107 0.435849
v -0.253240 0.050107 0.508177
v -0.061562 0.204847 0.435849
v -0.061562 0.204847 0.508177
v -0.061562 0.204847 0.508177
v -0.061562 0.204847 0.435849
v -0.061562 0.204847 0.435849
v -0.061562 0.204847 0.508177
v -0.260657 0.033516 0.435849
v -0.260657 0.033516 0.508177
v -0.260657 0.033516 0.508177
v -0.260657 0.033516 0.435849
v -0.260657 0.033516 0.435849
v -0.260657 0.033516 0.508177
v -0.043781 0.208599 0.435849
v -0.043781 0.208599 0.508177
v -0.043781 0.208599 0.508177
v -0.043781 0.208599 0.435849
v -0.043781 0.208599 0.435849
v -0.043781 0.208599 0.508177
v -0.267017 0.016492 0.435849
v -0.267017 0.016492 0.508177
v -0.267017 0.016492 0.508177
v -0.267017 0.016492 0.435849
v -0.267017 0.016492 0.435849
v -0.267017 0.016492 0.508177
v -0.025798 0.211226 0.435849
v -0.025798 0.211226 0.508177
v -0.025798 0.211226 0.508177
v -0.025798 0.211226 0.435849
v -0.025798 0.211226 0.435849
v -0.025798 0.211226 0.508177
v -0.272296 -0.000898 0.435849
v -0.272296 -0.000898 0.508177
v -0.272296 -0.000898 0.508177
v -0.272296 -0.000898 0.435849
v -0.272296 -0.000898 0.435849
v -0.272296 -0.000898 0.508177
v -0.007686 0.212720 0.435849
v -0.007686 0.212720 0.508177
v -0.007686 0.212720 0.508177
v -0.007686 0.212720 0.435849
v -0.007686 0.212720 0.435849
v -0.007686 0.212720 0.508177
v -0.276473 -0.018585 0.435849
v -0.276473 -0.018585 0.508177
v -0.276473 -0.018585 0.508177
v -0.276473 -0.018585 0.435849
v -0.276473 -0.018585 0.435849
v -0.276473 -0.018585 0.508177
v 0.010484 0.213073 0.435849
v 0.010484 0.213073 0.508177
v 0.010484 0.213073 0.508177
v 0.010484 0.213073 0.435849
v 0.010484 0.213073 0.435849
v 0.010484 0.213073 0.508177
v -0.279530 -0.036499 0.435849
v -0.279530 -0.036499 0.508177
v -0.279530 -0.036499 0.508177
v -0.279530 -0.036499 0.435849
v -0.279530 -0.036499 0.435849
v -0.279530 -0.036499 0.508177
v 0.028640 0.212284 0.435849
v 0.028640 0.212284 0.508177
v 0.028640 0.212284 0.508177
v 0.028640 0.212284 0.435849
v 0.028640 0.212284 0.435849
v 0.028640 0.212284 0.508177
v -0.281457 -0.054570 0.435849
v -0.281457 -0.054570 0.508177
v -0.281457 -0.054570 0.508177
v -0.281457 -0.054570 0.435849
v -0.281457 -0.054570 0.435849
v -0.281457 -0.054570 0.508177
v 0.046711 0.210358 0.435849
v 0.046711 0.210358 0.508177
v 0.046711 0.210358 0.508177
v 0.046711 0.210358 0.435849
v 0.046711 0.210358 0.435849
v 0.046711 0.210358 0.508177
v -0.282246 -0.072726 0.435849
v -0.282246 -0.072726 0.508177
v -0.282246 -0.072726 0.508177
v -0.282246 -0.072726 0.435849
v -0.282246 -0.072726 0.435849
v -0.282246 -0.072726 0.508177
v 0.064625 0.207300 0.435849
v 0.064625 0.207300 0.508177
v 0.064625 0.207300 0.508177
v 0.064625 0.207300 0.435849
v 0.064625 0.207300 0.435849
v 0.064625 0.207300 0.508177
v -0.281892 -0.090896 0.435849
v -0.281892 -0.090896 0.508177
v -0.281892 -0.090896 0.508177
v -0.281892 -0.090896 0.435849
v -0.281892 -0.090896 0.435849
v -0.281892 -0.090896 0.508177
v 0.082312 0.203123 0.435849
v 0.082312 0.203123 0.508177
v 0.082312 0.203123 0.508177
v 0.082312 0.203123 0.435849
v 0.082312 0.203123 0.435849
v 0.082312 0.203123 0.508177
v -0.280399 -0.109007 0.435849
v -0.280399 -0.109007 0.508177
v -0.280399 -0.109007 0.508177
v -0.280399 -0.109007 0.435849
v -0.280399 -0.109007 0.435849
v -0.280399 -0.109007 0.508177
v 0.099701 0.197844 0.435849
v 0.099701 0.197844 0.508177
v 0.099701 0.197844 0.508177
v 0.099701 0.197844 0.435849
v 0.099701 0.197844 0.435849
v 0.099701 0.197844 0.508177
v -0.277771 -0.126990 0.435849
v -0.277771 -0.126990 0.508177
v -0.277771 -0.126990 0.508177
v -0.277771 -0.126990 0.435849
v -0.277771 -0.126990 0.435849
v -0.277771 -0.126990 0.508177
v 0.116725 0.191484 0.435849
v 0.116725 0.191484 0.508177
v 0.116725 0.191484 0.508177
v 0.116725 0.191484 0.435849
v 0.116725 0.191484 0.435849
v 0.116725 0.191484 0.508177
v -0.274020 -0.144772 0.435849
v -0.274020 -0.144772 0.508177
v -0.274020 -0.144772 0.508177
v -0.274020 -0.144772 0.435849
v -0.274020 -0.144772 0.435849
v -0.274020 -0.144772 0.508177
v 0.133316 0.184067 0.435849
v 0.133316 0.184067 0.508177
v 0.133316 0.184067 0.508177
v 0.133316 0.184067 0.435849
v 0.133316 0.184067 0.435849
v 0.133316 0.184067 0.508177
v -0.269159 -0.162283 0.435849
v -0.269159 -0.162283 0.508177
v -0.269159 -0.162283 0.508177
v -0.269159 -0.162283 0.435849
v -0.269159 -0.162283 0.435849
v -0.269159 -0.162283 0.508177
v 0.149409 0.175623 0.435849
v 0.149409 0.175623 0.508177
v 0.149409 0.175623 0.508177
v 0.149409 0.175623 0.435849
v 0.149409 0.175623 0.435849
v 0.149409 0.175623 0.508177
v -0.263208 -0.179454 0.435849
v -0.263208 -0.179454 0.508177
v -0.263208 -0.179454 0.508177
v -0.263208 -0.179454 0.435849
v -0.263208 -0.179454 0.435849
v -0.263208 -0.179454 0.508177
v 0.164939 0.166186 0.435849
v 0.164939 0.166186 0.508177
v 0.164939 0.166186 0.508177
v 0.164939 0.166186 0.435849
v 0.164939 0.166186 0.435849
v 0.164939 0.166186 0.508177
v -0.256191 -0.196218 0.435849
v -0.256191 -0.196218 0.508177
v -0.256191 -0.196218 0.508177
v -0.256191 -0.196218 0.435849
v -0.256191 -0.196218 0.435849
v -0.256191 -0.196218 0.508177
v 0.179847 0.155792 0.435849
v 0.179847 0.155792 0.508177
v 0.179847 0.155792 0.508177
v 0.179847 0.155792 0.435849
v 0.179847 0.155792 0.435849
v 0.179847 0.155792 0.508177
v -0.248135 -0.212508 0.435849
v -0.248135 -0.212508 0.508177
v -0.248135 -0.212508 0.508177
v -0.248135 -0.212508 0.435849
v -0.248135 -0.212508 0.435849
v -0.248135 -0.212508 0.508177
v 0.194072 0.144482 0.435849
v 0.194072 0.144482 0.508177
v 0.194072 0.144482 0.508177
v 0.194072 0.144482 0.435849
v 0.194072 0.144482 0.435849
v 0.194072 0.144482 0.508177
v -0.239072 -0.228261 0.435849
v -0.239072 -0.228261 0.508177
v -0.239072 -0.228261 0.508177
v -0.239072 -0.228261 0.435849
v -0.239072 -0.228261 0.435849
v -0.239072 -0.228261 0.508177
v 0.207559 0.132301 0.435849
v 0.207559 0.132301 0.508177
v 0.207559 0.132301 0.508177
v 0.207559 0.132301 0.435849
v 0.207559 0.132301 0.435849
v 0.207559 0.132301 0.508177
v -0.229038 -0.243412 0.435849
v -0.229038 -0.243412 0.508177
v -0.229038 -0.243412 0.508177
v -0.229038 -0.243412 0.435849
v -0.229038 -0.243412 0.435849
v -0.229038 -0.243412 0.508177
v 0.220255 0.119298 0.508177
v 0.220255 0.119298 0.435849
v 0.220255 0.119298 0.508177
v 0.220255 0.119298 0.435849
v 0.220255 0.119298 0.435849
v 0.220255 0.119298 0.508177
v -0.218072 -0.257905 0.435849
v -0.218072 -0.257905 0.508177
v -0.218072 -0.257905 0.508177
v -0.218072 -0.257905 0.435849
v -0.218072 -0.257905 0.435849
v -0.218072 -0.257905 0.508177
v 0.232109 0.105523 0.508177
v 0.232109 0.105523 0.435849
v 0.232109 0.105523 0.508177
v 0.232109 0.105523 0.435849
v 0.232109 0.105523 0.435849
v 0.232109 0.105523 0.508177
v -0.206218 -0.271680 0.435849
v -0.206218 -0.271680 0.508177
v -0.206218 -0.271680 0.508177
v -0.206218 -0.271680 0.435849
v -0.206218 -0.271680 0.435849
v -0.206218 -0.271680 0.508177
v 0.243075 0.091031 0.508177
v 0.243075 0.091031 0.435849
v 0.243075 0.091031 0.508177
v 0.243075 0.091031 0.435849
v 0.243075 0.091031 0.435849
v 0.243075 0.091031 0.508177
v -0.193523 -0.284683 0.435849
v -0.193523 -0.284683 0.508177
v -0.193523 -0.284683 0.508177
v -0.193523 -0.284683 0.435849
v -0.193523 -0.284683 0.435849
v -0.193523 -0.284683 0.508177
v 0.253108 0.075878 0.508177
v 0.253108 0.075878 0.435849
v 0.253108 0.075878 0.508177
v 0.253108 0.075878 0.435849
v 0.253108 0.075878 0.435849
v 0.253108 0.075878 0.508177
v -0.180035 -0.296864 0.508177
v -0.180035 -0.296864 0.435849
v -0.180035 -0.296864 0.435849
v -0.180035 -0.296864 0.508177
v -0.180035 -0.296864 0.435849
v -0.180035 -0.296864 0.508177
v 0.262171 0.060126 0.508177
v 0.262171 0.060126 0.435849
v 0.262171 0.060126 0.508177
v 0.262171 0.060126 0.435849
v 0.262171 0.060126 0.435849
v 0.262171 0.060126 0.508177
v -0.165810 -0.308173 0.508177
v -0.165810 -0.308173 0.435849
v -0.165810 -0.308173 0.435849
v -0.165810 -0.308173 0.508177
v -0.165810 -0.308173 0.435849
v -0.165810 -0.308173 0.508177
v 0.270227 0.043836 0.508177
v 0.270227 0.043836 0.435849
v 0.270227 0.043836 0.508177
v 0.270227 0.043836 0.435849
v 0.270227 0.043836 0.435849
v 0.270227 0.043836 0.508177
v -0.150903 -0.318568 0.508177
v -0.150903 -0.318568 0.435849
v -0.150903 -0.318568 0.435849
v -0.150903 -0.318568 0.508177
v -0.150903 -0.318568 0.435849
v -0.150903 -0.318568 0.508177
v 0.277245 0.027072 0.508177
v 0.277245 0.027072 0.435849
v 0.277245 0.027072 0.508177
v 0.277245 0.027072 0.435849
v 0.277245 0.027072 0.435849
v 0.277245 0.027072 0.508177
v -0.135372 -0.328006 0.508177
v -0.135372 -0.328006 0.435849
v -0.135372 -0.328006 0.435849
v -0.135372 -0.328006 0.508177
v -0.135372 -0.328006 0.435849
v -0.135372 -0.328006 0.508177
v 0.283196 0.009901 0.508177
v 0.283196 0.009901 0.435849
v 0.283196 0.009901 0.508177
v 0.283196 0.009901 0.435849
v 0.283196 0.009901 0.435849
v 0.283196 0.009901 0.508177
v -0.119280 -0.336450 0.508177
v -0.119280 -0.336450 0.435849
v -0.119280 -0.336450 0.435849
v -0.119280 -0.336450 0.508177
v -0.119280 -0.336450 0.435849
v -0.119280 -0.336450 0.508177
v 0.288056 -0.007610 0.508177
v 0.288056 -0.007610 0.435849
v 0.288056 -0.007610 0.508177
v 0.288056 -0.007610 0.435849
v 0.288056 -0.007610 0.435849
v 0.288056 -0.007610 0.508177
v -0.102689 -0.343866 0.508177
v -0.102689 -0.343866 0.435849
v -0.102689 -0.343866 0.435849
v -0.102689 -0.343866 0.508177
v -0.102689 -0.343866 0.435849
v -0.102689 -0.343866 0.508177
v 0.291808 -0.025392 0.508177
v 0.291808 -0.025392 0.435849
v 0.291808 -0.025392 0.508177
v 0.291808 -0.025392 0.435849
v 0.291808 -0.025392 0.435849
v 0.291808 -0.025392 0.508177
v -0.085665 -0.350227 0.508177
v -0.085665 -0.350227 0.435849
v -0.085665 -0.350227 0.435849
v -0.085665 -0.350227 0.508177
v -0.085665 -0.350227 0.435849
v -0.085665 -0.350227 0.508177
v 0.294436 -0.043375 0.508177
v 0.294436 -0.043375 0.435849
v 0.294436 -0.043375 0.508177
v 0.294436 -0.043375 0.435849
v 0.294436 -0.043375 0.435849
v 0.294436 -0.043375 0.508177
v -0.068275 -0.355505 0.508177
v -0.068275 -0.355505 0.435849
v -0.068275 -0.355505 0.435849
v -0.068275 -0.355505 0.508177
v -0.068275 -0.355505 0.435849
v -0.068275 -0.355505 0.508177
v 0.295929 -0.061486 0.435849
v 0.295929 -0.061486 0.508177
v 0.295929 -0.061486 0.508177
v 0.295929 -0.061486 0.435849
v 0.295929 -0.061486 0.435849
v 0.295929 -0.061486 0.508177
v -0.050588 -0.359682 0.508177
v -0.050588 -0.359682 0.435849
v -0.050588 -0.359682 0.435849
v -0.050588 -0.359682 0.508177
v -0.050588 -0.359682 0.435849
v -0.050588 -0.359682 0.508177
v 0.296282 -0.079656 0.508177
v 0.296282 -0.079656 0.435849
v 0.296282 -0.079656 0.508177
v 0.296282 -0.079656 0.435849
v 0.296282 -0.079656 0.435849
v 0.296282 -0.079656 0.508177
v -0.032674 -0.362740 0.508177
v -0.032674 -0.362740 0.435849
v -0.032674 -0.362740 0.435849
v -0.032674 -0.362740 0.508177
v -0.032674 -0.362740 0.435849
v -0.032674 -0.362740 0.508177
v 0.295494 -0.097812 0.508177
v 0.295494 -0.097812 0.435849
v 0.295494 -0.097812 0.508177
v 0.295494 -0.097812 0.435849
v 0.295494 -0.097812 0.435849
v 0.295494 -0.097812 0.508177
v -0.014603 -0.364666 0.508177
v -0.014603 -0.364666 0.435849
v -0.014603 -0.364666 0.435849
v -0.014603 -0.364666 0.508177
v -0.014603 -0.364666 0.435849
v -0.014603 -0.364666 0.508177
v 0.293567 -0.115883 0.508177
v 0.293567 -0.115883 0.435849
v 0.293567 -0.115883 0.508177
v 0.293567 -0.115883 0.435849
v 0.293567 -0.115883 0.435849
v 0.293567 -0.115883 0.508177
v 0.003553 -0.365455 0.508177
v 0.003553 -0.365455 0.435849
v 0.003553 -0.365455 0.435849
v 0.003553 -0.365455 0.508177
v 0.003553 -0.365455 0.435849
v 0.003553 -0.365455 0.508177
v 0.290509 -0.133798 0.508177
v 0.290509 -0.133798 0.435849
v 0.290509 -0.133798 0.508177
v 0.290509 -0.133798 0.435849
v 0.290509 -0.133798 0.435849
v 0.290509 -0.133798 0.508177
v 0.021723 -0.365102 0.508177
v 0.021723 -0.365102 0.435849
v 0.021723 -0.365102 0.435849
v 0.021723 -0.365102 0.508177
v 0.021723 -0.365102 0.435849
v 0.021723 -0.365102 0.508177
v 0.286332 -0.151484 0.508177
v 0.286332 -0.151484 0.435849
v 0.286332 -0.151484 0.508177
v 0.286332 -0.151484 0.435849
v 0.286332 -0.151484 0.435849
v 0.286332 -0.151484 0.508177
v 0.039835 -0.363608 0.508177
v 0.039835 -0.363608 0.435849
v 0.039835 -0.363608 0.435849
v 0.039835 -0.363608 0.508177
v 0.039835 -0.363608 0.435849
v 0.039835 -0.363608 0.508177
v 0.281054 -0.168874 0.508177
v 0.281054 -0.168874 0.435849
v 0.281054 -0.168874 0.508177
v 0.281054 -0.168874 0.435849
v 0.281054 -0.168874 0.435849
v 0.281054 -0.168874 0.508177
v 0.057817 -0.360981 0.508177
v 0.057817 -0.360981 0.435849
v 0.057817 -0.360981 0.435849
v 0.057817 -0.360981 0.508177
v 0.057817 -0.360981 0.435849
v 0.057817 -0.360981 0.508177
v 0.274693 -0.185898 0.508177
v 0.274693 -0.185898 0.435849
v 0.274693 -0.185898 0.508177
v 0.274693 -0.185898 0.435849
v 0.274693 -0.185898 0.435849
v 0.274693 -0.185898 0.508177
v 0.075599 -0.357229 0.508177
v 0.075599 -0.357229 0.435849
v 0.075599 -0.357229 0.435849
v 0.075599 -0.357229 0.508177
v 0.075599 -0.357229 0.435849
v 0.075599 -0.357229 0.508177
v 0.267277 -0.202489 0.508177
v 0.267277 -0.202489 0.435849
v 0.267277 -0.202489 0.508177
v 0.267277 -0.202489 0.435849
v 0.267277 -0.202489 0.435849
v 0.267277 -0.202489 0.508177
v 0.093110 -0.352368 0.508177
v 0.093110 -0.352368 0.435849
v 0.093110 -0.352368 0.435849
v 0.093110 -0.352368 0.508177
v 0.093110 -0.352368 0.435849
v 0.093110 -0.352368 0.508177
v 0.258833 -0.218581 0.508177
v 0.258833 -0.218581 0.435849
v 0.258833 -0.218581 0.508177
v 0.258833 -0.218581 0.435849
v 0.258833 -0.218581 0.435849
v 0.258833 -0.218581 0.508177
v 0.110282 -0.346417 0.508177
v 0.110282 -0.346417 0.435849
v 0.110282 -0.346417 0.435849
v 0.110282 -0.346417 0.508177
v 0.110282 -0.346417 0.435849
v 0.110282 -0.346417 0.508177
v 0.249395 -0.234112 0.508177
v 0.249395 -0.234112 0.435849
v 0.249395 -0.234112 0.508177
v 0.249395 -0.234112 0.435849
v 0.249395 -0.234112 0.435849
v 0.249395 -0.234112 0.508177
v 0.127045 -0.339400 0.508177
v 0.127045 -0.339400 0.435849
v 0.127045 -0.339400 0.435849
v 0.127045 -0.339400 0.508177
v 0.127045 -0.339400 0.435849
v 0.127045 -0.339400 0.508177
v 0.239001 -0.249019 0.508177
v 0.239001 -0.249019 0.435849
v 0.239001 -0.249019 0.508177
v 0.239001 -0.249019 0.435849
v 0.239001 -0.249019 0.435849
v 0.239001 -0.249019 0.508177
v 0.143336 -0.331344 0.508177
v 0.143336 -0.331344 0.435849
v 0.143336 -0.331344 0.435849
v 0.143336 -0.331344 0.508177
v 0.143336 -0.331344 0.435849
v 0.143336 -0.331344 0.508177
v 0.227691 -0.263245 0.508177
v 0.227691 -0.263245 0.435849
v 0.227691 -0.263245 0.508177
v 0.227691 -0.263245 0.435849
v 0.227691 -0.263245 0.435849
v 0.227691 -0.263245 0.508177
v 0.159088 -0.322281 0.508177
v 0.159088 -0.322281 0.435849
v 0.159088 -0.322281 0.435849
v 0.159088 -0.322281 0.508177
v 0.159088 -0.322281 0.435849
v 0.159088 -0.322281 0.508177
v 0.215510 -0.276732 0.508177
v 0.215510 -0.276732 0.435849
v 0.215510 -0.276732 0.508177
v 0.215510 -0.276732 0.435849
v 0.215510 -0.276732 0.435849
v 0.215510 -0.276732 0.508177
v 0.174240 -0.312247 0.508177
v 0.174240 -0.312247 0.435849
v 0.174240 -0.312247 0.435849
v 0.174240 -0.312247 0.508177
v 0.174240 -0.312247 0.435849
v 0.174240 -0.312247 0.508177
v 0.202507 -0.289427 0.435849
v 0.202507 -0.289427 0.508177
v 0.202507 -0.289427 0.435849
v 0.202507 -0.289427 0.508177
v 0.202507 -0.289427 0.435849
v 0.202507 -0.289427 0.508177
v 0.188732 -0.301281 0.508177
v 0.188732 -0.301281 0.435849
v 0.188732 -0.301281 0.435849
v 0.188732 -0.301281 0.508177
v 0.188732 -0.301281 0.435849
v 0.188732 -0.301281 0.508177
vt 0.04184462 -2.488772e-32
vt 0.02509376 0.06666667
vt 0.02509376 -2.488772e-32
vt 0.04184462 0.06666667
vt 0.06981766 -4.079234e-32
vt 0.0530668 0.06666667
vt 0.0530668 -4.079234e-32
vt 0.06981766 0.06666667
vt 0.01373949 -2.505642e-32
vt -0.003011367 0.06666667
vt -0.003011367 -2.505642e-32
vt 0.01373949 0.06666667
vt 0.09754821 1.588073e-32
vt 0.08079736 0.06666667
vt 0.08079736 1.588073e-32
vt 0.09754821 0.06666667
vt -0.01438681 0.06666667
vt -0.03113766 -1.249042e-32
vt -0.01438681 -1.249042e-32
vt -0.03113766 0.06666667
vt 0.1249268 -1.528493e-32
vt 0.108176 0.06666667
vt 0.108176 -1.528493e-32
vt 0.1249268 0.06666667
vt -0.04242328 0.06666667
vt -0.05917413 -1.644085e-32
vt -0.04242328 -1.644085e-32
vt -0.05917413 0.06666667
vt 0.1518455 0
vt 0.1350946 0.06666667
vt 0.1350946 0
vt 0.1518455 0.06666667
vt -0.07025926 0.06666667
vt -0.08701012 -8.032996e-33
vt -0.07025926 -8.032996e-33
vt -0.08701012 0.06666667
vt 0.1781979 2.724906e-32
vt 0.1614471 0.06666667
vt 0.1614471 2.724906e-32
vt 0.1781979 0.06666667
vt -0.09778491 0
vt -0.1145358 0.06666667
vt -0.1145358 -6.015928e-16
vt -0.09778491 0.06666667
vt 0.2038802 -4.398272e-32
vt 0.1871293 0.06666667
vt 0.1871293 -4.398272e-32
vt 0.2038802 0.06666667
vt -0.1248916 0.06666667
vt -0.1416425 -6.015928e-16
vt -0.1248916 -6.015928e-16
vt -0.1416425 0.06666667
vt 0.2287908 -2.272386e-32
vt 0.21204 0.06666667
vt 0.21204 -2.272386e-32
vt 0.2287908 0.06666667
vt -0.1514723 0.06666667
vt -0.1682232 -6.015928e-16
vt -0.1514723 -6.015928e-16
vt -0.1682232 0.06666667
vt 0.2528316 -1.00156e-32
vt 0.2360808 0.06666667
vt 0.2360808 -1.00156e-32
vt 0.2528316 0.06666667
vt -0.1774222 0.06666667
vt -0.1941731 -6.015928e-16
vt -0.1774222 -6.015928e-16
vt -0.1941731 0.06666667
vt 0.2759077 -1.706561e-32
vt 0.2591568 0.06666667
vt 0.2591568 -1.706561e-32
vt 0.2759077 0.06666667
vt -0.2026389 0.06666667
vt -0.2193897 -6.015928e-16
vt -0.2026389 -6.015928e-16
vt -0.2193897 0.06666667
vt 0.2979279 -3.459706e-33
vt 0.281177 0.06666667
vt 0.281177 -3.459706e-33
vt 0.2979279 0.06666667
vt -0.2270227 0.06666667
vt -0.2437736 -2.636338e-33
vt -0.2270227 -6.015928e-16
vt -0.2437736 0.06666667
vt 0.3188053 -1.554534e-32
vt 0.3020545 0.06666667
vt 0.3020545 -1.554534e-32
vt 0.3188053 0.06666667
vt -0.2504776 0.06666667
vt -0.2672284 -5.696207e-34
vt -0.2504776 -5.696207e-34
vt -0.2672284 0.06666667
vt 0.3384577 -6.653533e-33
vt 0.3217068 0.06666667
vt 0.3217068 -6.653533e-33
vt 0.3384577 0.06666667
vt -0.2729109 0.06666667
vt -0.2896617 0
vt -0.2729109 0
vt -0.2896617 0.06666667
vt 0.3568074 -2.72339e-33
vt 0.3400565 0.06666667
vt 0.3400565 -2.72339e-33
vt 0.3568074 0.06666667
vt -0.294234 0.06666667
vt -0.3109849 6.407809e-34
vt -0.294234 6.407809e-34
vt -0.3109849 0.06666667
vt 0.3737819 1.764202e-33
vt 0.3570311 0.06666667
vt 0.3570311 1.764202e-33
vt 0.3737819 0.06666667
vt -0.3143629 0.06666667
vt -0.3311138 6.956596e-34
vt -0.3143629 6.956596e-34
vt -0.3311138 0.06666667
vt 0.3893144 2.867201e-33
vt 0.3725635 0.06666667
vt 0.3725635 2.867201e-33
vt 0.3893144 0.06666667
vt -0.3332181 0.06666667
vt -0.349969 5.308691e-34
vt -0.3332181 5.308691e-34
vt -0.349969 0.06666667
vt 0.4033435 -1.022867e-32
vt 0.3865926 0.06666667
vt 0.3865926 -1.022867e-32
vt 0.4033435 0.06666667
vt -0.3507252 0.06666667
vt -0.3674761 -5.88552e-36
vt -0.3507252 -5.88552e-36
vt -0.3674761 0.06666667
vt 0.4158138 0
vt 0.3990629 0.06666667
vt 0.3990629 0
vt 0.4158138 0.06666667
vt -0.3668151 0.06666667
vt -0.383566 0
vt -0.3668151 0
vt -0.383566 0.06666667
vt 0.4266761 1.965934e-32
vt 0.4099253 0.06666667
vt 0.4099253 1.965934e-32
vt 0.4266761 0.06666667
vt -0.3814243 0.06666667
vt -0.3981751 2.12398e-33
vt -0.3814243 2.12398e-33
vt -0.3981751 0.06666667
vt 0.4358876 3.069816e-32
vt 0.4191368 0.06666667
vt 0.4191368 3.069816e-32
vt 0.4358876 0.06666667
vt -0.3944951 0.06666667
vt -0.411246 3.271822e-33
vt -0.3944951 3.271822e-33
vt -0.411246 0.06666667
vt 0.4434119 4.433197e-32
vt 0.4266611 0.06666667
vt 0.4266611 4.433197e-32
vt 0.4434119 0.06666667
vt -0.405976 0.06666667
vt -0.4227268 -4.455216e-33
vt -0.405976 -4.455216e-33
vt -0.4227268 0.06666667
vt 0.4492193 0
vt 0.4324685 0.06666667
vt 0.4324685 0
vt 0.4492193 0.06666667
vt -0.4158216 0.06666667
vt -0.4325725 5.669492e-33
vt -0.4158216 5.669492e-33
vt -0.4325725 0.06666667
vt 0.453287 0
vt 0.4365361 0.06666667
vt 0.4365361 0
vt 0.453287 0.06666667
vt -0.4239931 0.06666667
vt -0.440744 -6.909859e-33
vt -0.4239931 -6.909859e-33
vt -0.440744 0.06666667
vt 0.4555987 3.369452e-32
vt 0.4388478 0.06666667
vt 0.4388478 3.369452e-32
vt 0.4555987 0.06666667
vt -0.4304582 0.06666667
vt -0.4472091 2.042855e-32
vt -0.4304582 2.042855e-32
vt -0.4472091 0.06666667
vt 0.4561455 0.06666667
vt 0.4393946 2.505504e-32
vt 0.4561455 2.505504e-32
vt 0.4393946 0.06666667
vt -0.4351915 0.06666667
vt -0.4519424 -4.724599e-32
vt -0.4351915 -4.724599e-32
vt -0.4519424 0.06666667
vt 0.4549251 0.06666667
vt 0.4381742 2.073384e-32
vt 0.4549251 2.073384e-32
vt 0.4381742 0.06666667
vt -0.4381742 0.06666667
vt -0.4549251 5.369074e-33
vt -0.4381742 5.369074e-33
vt -0.4549251 0.06666667
vt 0.4519424 0.06666667
vt 0.4351915 7.555754e-33
vt 0.4519424 7.555754e-33
vt 0.4351915 0.06666667
vt -0.4393946 0.06666667
vt -0.4561455 -2.406637e-32
vt -0.4393946 -2.406637e-32
vt -0.4561455 0.06666667
vt 0.4472091 0.06666667
vt 0.4304582 3.277857e-32
vt 0.4472091 3.277857e-32
vt 0.4304582 0.06666667
vt -0.4555987 0.06666667
vt -0.4388478 0
vt -0.4388478 0.06666667
vt -0.4555987 0
vt 0.440744 0.06666667
vt 0.4239931 -8.825424e-33
vt 0.440744 -6.015928e-16
vt 0.4239931 0.06666667
vt -0.453287 0.06666667
vt -0.4365361 -2.924214e-32
vt -0.4365361 0.06666667
vt -0.453287 -2.924214e-32
vt 0.4325725 0.06666667
vt 0.4158216 -6.015928e-16
vt 0.4325725 -6.015928e-16
vt 0.4158216 0.06666667
vt -0.4492193 0.06666667
vt -0.4324685 1.590371e-32
vt -0.4324685 0.06666667
vt -0.4492193 1.590371e-32
vt 0.4227268 0.06666667
vt 0.405976 -6.015928e-16
vt 0.4227268 -6.015928e-16
vt 0.405976 0.06666667
vt -0.4434119 0.06666667
vt -0.4266611 -1.717204e-32
vt -0.4266611 0.06666667
vt -0.4434119 -1.717204e-32
vt 0.411246 0.06666667
vt 0.3944951 -6.015928e-16
vt 0.411246 -6.015928e-16
vt 0.3944951 0.06666667
vt -0.4358876 0.06666667
vt -0.4191368 0
vt -0.4191368 0.06666667
vt -0.4358876 0
vt 0.3981751 0.06666667
vt 0.3814243 -6.015928e-16
vt 0.3981751 -6.015928e-16
vt 0.3814243 0.06666667
vt -0.4266761 0.06666667
vt -0.4099253 0
vt -0.4099253 0.06666667
vt -0.4266761 0
vt 0.383566 0.06666667
vt 0.3668151 -6.015928e-16
vt 0.383566 -6.015928e-16
vt 0.3668151 0.06666667
vt -0.4158138 0.06666667
vt -0.3990629 -2.08416e-32
vt -0.3990629 0.06666667
vt -0.4158138 -2.08416e-32
vt 0.3674761 0.06666667
vt 0.3507252 -6.015928e-16
vt 0.3674761 -6.015928e-16
vt 0.3507252 0.06666667
vt -0.4033435 0.06666667
vt -0.3865926 8.801415e-32
vt -0.3865926 0.06666667
vt -0.4033435 8.801415e-32
vt 0.349969 -1.601403e-33
vt 0.3332181 0.06666667
vt 0.3332181 -6.015928e-16
vt 0.349969 0.06666667
vt -0.3893144 0.06666667
vt -0.3725635 -2.312711e-32
vt -0.3725635 0.06666667
vt -0.3893144 -2.312711e-32
vt 0.3311138 0.06666667
vt 0.3143629 4.153819e-34
vt 0.3311138 4.153819e-34
vt 0.3143629 0.06666667
vt -0.3737819 0.06666667
vt -0.3570311 -2.420787e-32
vt -0.3570311 0.06666667
vt -0.3737819 -2.420787e-32
vt 0.3109849 0.06666667
vt 0.294234 1.718124e-33
vt 0.3109849 1.718124e-33
vt 0.294234 0.06666667
vt -0.3568074 0.06666667
vt -0.3400565 -1.514493e-31
vt -0.3400565 0.06666667
vt -0.3568074 -1.514493e-31
vt 0.2896617 0.06666667
vt 0.2729109 0
vt 0.2896617 0
vt 0.2729109 0.06666667
vt -0.3384577 0.06666667
vt -0.3217068 0
vt -0.3217068 0.06666667
vt -0.3384577 0
vt 0.2672284 0.06666667
vt 0.2504776 -1.455884e-32
vt 0.2672284 -1.455884e-32
vt 0.2504776 0.06666667
vt -0.3188053 0.06666667
vt -0.3020545 -5.430319e-32
vt -0.3020545 0.06666667
vt -0.3188053 -5.430319e-32
vt 0.2437736 0.06666667
vt 0.2270227 -1.491669e-32
vt 0.2437736 -1.491669e-32
vt 0.2270227 0.06666667
vt -0.2979279 0.06666667
vt -0.281177 -1.961429e-31
vt -0.281177 0.06666667
vt -0.2979279 -1.961429e-31
vt 0.2193897 0.06666667
vt 0.2026389 -3.047982e-32
vt 0.2193897 -3.047982e-32
vt 0.2026389 0.06666667
vt -0.2759077 0.06666667
vt -0.2591568 0
vt -0.2591568 0.06666667
vt -0.2759077 0
vt 0.1941731 0.06666667
vt 0.1774222 0
vt 0.1941731 0
vt 0.1774222 0.06666667
vt -0.2528316 0.06666667
vt -0.2360808 -2.95685e-31
vt -0.2360808 0.06666667
vt -0.2528316 -2.95685e-31
vt 0.1682232 0.06666667
vt 0.1514723 -4.733242e-32
vt 0.1682232 -4.733242e-32
vt 0.1514723 0.06666667
vt -0.2287908 0.06666667
vt -0.21204 -1.209667e-31
vt -0.21204 0.06666667
vt -0.2287908 -1.209667e-31
vt 0.1416425 0.06666667
vt 0.1248916 4.79691e-32
vt 0.1416425 4.79691e-32
vt 0.1248916 0.06666667
vt -0.2038802 0.06666667
vt -0.1871293 -3.084395e-32
vt -0.1871293 0.06666667
vt -0.2038802 -3.084395e-32
vt 0.1145358 0.06666667
vt 0.09778491 3.232611e-32
vt 0.1145358 3.232611e-32
vt 0.09778491 0.06666667
vt -0.1781979 0.06666667
vt -0.1614471 6.274594e-32
vt -0.1614471 0.06666667
vt -0.1781979 6.274594e-32
vt 0.08701012 0.06666667
vt 0.07025926 3.25937e-32
vt 0.08701012 3.25937e-32
vt 0.07025926 0.06666667
vt -0.1518455 0.06666667
vt -0.1350946 1.273066e-31
vt -0.1350946 0.06666667
vt -0.1518455 1.273066e-31
vt 0.05917413 0.06666667
vt 0.04242328 -4.91717e-32
vt 0.05917413 -4.91717e-32
vt 0.04242328 0.06666667
vt -0.1249268 0.06666667
vt -0.108176 -1.288127e-31
vt -0.108176 0.06666667
vt -0.1249268 -1.288127e-31
vt 0.03113766 0.06666667
vt 0.01438681 -4.933148e-32
vt 0.03113766 -4.933148e-32
vt 0.01438681 0.06666667
vt -0.09754821 0.06666667
vt -0.08079736 -1.300043e-31
vt -0.08079736 0.06666667
vt -0.09754821 -1.300043e-31
vt -0.01373949 0.06666667
vt 0.003011367 -9.873854e-32
vt 0.003011367 0.06666667
vt -0.01373949 -9.873854e-32
vt -0.06981766 0.06666667
vt -0.0530668 -1.635959e-31
vt -0.0530668 0.06666667
vt -0.06981766 -1.635959e-31
vt -0.04184462 0.06666667
vt -0.02509376 -6.571323e-32
vt -0.02509376 0.06666667
vt -0.04184462 -6.571323e-32
vn 0.6281485991188586 -0.7780933989085216 0
vn 0.6757659029299523 -0.7371163031959517 0
vn -0.6281485991188586 0.7780933989085216 0
vn -0.6757659029299523 0.7371163031959517 0
vn 0.5780521943568003 -0.8159997920338509 0
vn -0.5780521943568003 0.8159997920338509 0
vn 0.7207164136471405 -0.6932300131266707 0
vn -0.7207164136471405 0.6932300131266707 0
vn 0.5256744973001649 -0.8506857956309244 0
vn -0.5256744973001649 0.8506857956309244 0
vn 0.7628224724734564 -0.6466079766670705 0
vn -0.7628224724734564 0.6466079766670705 0
vn 0.4712220947832017 -0.882014590235406 0
vn -0.4712220947832017 0.882014590235406 0
vn 0.8019180905920535 -0.5974339929910207 0
vn -0.8019180905920535 0.5974339929910207 0
vn 0.4149101045607399 -0.9098624100013122 0
vn -0.4149101045607399 0.9098624100013122 0
vn 0.8378488579498332 -0.5459022726021208 0
vn -0.8378488579498332 0.5459022726021208 0
vn 0.35696070092794646 -0.9341194024283134 0
vn -0.35696070092794646 0.9341194024283134 0
vn 0.8704730534632845 -0.4922160736854352 0
vn -0.8704730534632845 0.4922160736854352 0
vn 0.29760249208849704 -0.9546898746204004 0
vn -0.29760249208849704 0.9546898746204004 0
vn 0.8996618978260121 -0.43658729894500825 0
vn -0.8996618978260121 0.43658729894500825 0
vn 0.23706971013320743 -0.9714926415250693 0
vn -0.23706971013320743 0.9714926415250693 0
vn 0.9253001391552931 -0.37923561604785383 0
vn -0.9253001391552931 0.37923561604785383 0
vn 0.1756014085272356 -0.9844613478056164 0
vn -0.1756014085272356 0.9844613478056164 0
vn 0.9472866763553791 -0.32038719200301846 0
vn -0.9472866763553791 0.32038719200301846 0
vn 0.11344010420323698 -0.9935448368132958 0
vn -0.11344010420323698 0.9935448368132958 0
vn 0.9655346902483652 -0.26027439737129987 0
vn -0.9655346902483652 0.26027439737129987 0
vn 0.05083100840769585 -0.9987072687150408 0
vn -0.05083100840769585 0.9987072687150408 0
vn 0.9799722087171814 -0.19913430177136604 0
vn -0.9799722087171814 0.19913430177136604 0
vn -0.011978639443249683 -0.9999282535247659 0
vn 0.011978639443249683 0.9999282535247659 0
vn 0.9905422024707095 -0.13720840034223863 0
vn -0.9905422024707095 0.13720840034223863 0
vn -0.07474101838261751 -0.9972029784207069 0
vn 0.07474101838261751 0.9972029784207069 0
vn 0.9972029784207069 -0.07474101838261751 0
vn -0.9972029784207069 0.07474101838261751 0
vn -0.13720840034223863 -0.9905422024707095 0
vn 0.13720840034223863 0.9905422024707095 0
vn 0.9999282535247659 -0.011978639443249683 0
vn -0.9999282535247659 0.011978639443249683 0
vn -0.19913430177136604 -0.9799722087171814 0
vn 0.19913430177136604 0.9799722087171814 0
vn 0.9987072687150408 0.05083100840769585 0
vn -0.9987072687150408 -0.05083100840769585 0
vn -0.26027439737129987 -0.9655346902483652 0
vn 0.26027439737129987 0.9655346902483652 0
vn 0.9935448368132958 0.11344010420323698 0
vn -0.9935448368132958 -0.11344010420323698 0
vn -0.32038719200301846 -0.9472866763553791 0
vn 0.32038719200301846 0.9472866763553791 0
vn 0.9844613478056164 0.1756014085272356 0
vn -0.9844613478056164 -0.1756014085272356 0
vn -0.37923561604785383 -0.9253001391552931 0
vn 0.37923561604785383 0.9253001391552931 0
vn 0.9714926415250693 0.23706971013320743 0
vn -0.9714926415250693 -0.23706971013320743 0
vn -0.43658729894500825 -0.8996618978260121 0
vn 0.43658729894500825 0.8996618978260121 0
vn 0.9546898746204004 0.29760249208849704 0
vn -0.9546898746204004 -0.29760249208849704 0
vn -0.4922160736854352 -0.8704730534632845 0
vn 0.4922160736854352 0.8704730534632845 0
vn 0.9341194024283134 0.35696070092794646 0
vn -0.9341194024283134 -0.35696070092794646 0
vn -0.5459022726021208 -0.8378488579498332 0
vn 0.5459022726021208 0.8378488579498332 0
vn 0.9098624100013122 0.4149101045607399 0
vn -0.9098624100013122 -0.4149101045607399 0
vn -0.5974339929910207 -0.8019180905920535 0
vn 0.5974339929910207 0.8019180905920535 0
vn 0.882014590235406 0.4712220947832017 0
vn -0.882014590235406 -0.4712220947832017 0
vn -0.6466079766670705 -0.7628224724734564 0
vn 0.6466079766670705 0.7628224724734564 0
vn 0.8506857956309244 0.5256744973001649 0
vn -0.8506857956309244 -0.5256744973001649 0
vn -0.6932300131266707 -0.7207164136471405 0
vn 0.6932300131266707 0.7207164136471405 0
vn 0.8159997920338509 0.5780521943568003 0
vn -0.8159997920338509 -0.5780521943568003 0
vn -0.7371163031959517 -0.6757659029299523 0
vn 0.7371163031959517 0.6757659029299523 0
vn 0.7780933989085216 0.6281485991188586 0
vn -0.7780933989085216 -0.6281485991188586 0
usemtl material_0_0
f 1/1/1 2/2/2 3/3/2
f 2/2/2 1/1/1 4/4/1
f 5/4/3 6/1/3 7/2/4
f 8/3/4 7/2/4 6/1/3
f 13/5/5 4/6/1 1/7/1
f 4/6/1 13/5/5 14/8/5
f 15/8/6 16/5/6 5/6/3
f 6/7/3 5/6/3 16/5/6
f 3/9/2 19/10/7 20/11/7
f 19/10/7 3/9/2 2/12/2
f 7/12/4 8/9/4 21/10/8
f 22/11/8 21/10/8 8/9/4
f 25/13/9 14/14/5 13/15/5
f 14/14/5 25/13/9 26/16/9
f 27/16/10 28/13/10 15/14/6
f 16/15/6 15/14/6 28/13/10
f 19/17/7 31/18/11 20/19/7
f 31/18/11 19/17/7 32/20/11
f 33/20/12 21/17/8 34/18/12
f 22/19/8 34/18/12 21/17/8
f 37/21/13 26/22/9 25/23/9
f 26/22/9 37/21/13 38/24/13
f 39/24/14 40/21/14 27/22/10
f 28/23/10 27/22/10 40/21/14
f 32/25/11 43/26/15 31/27/11
f 43/26/15 32/25/11 44/28/15
f 45/28/16 33/25/12 46/26/16
f 34/27/12 46/26/16 33/25/12
f 49/29/17 38/30/13 37/31/13
f 38/30/13 49/29/17 50/32/17
f 51/32/18 52/29/18 39/30/14
f 40/31/14 39/30/14 52/29/18
f 44/33/15 55/34/19 43/35/15
f 55/34/19 44/33/15 56/36/19
f 57/36/20 45/33/16 58/34/20
f 46/35/16 58/34/20 45/33/16
f 61/37/21 50/38/17 49/39/17
f 50/38/17 61/37/21 62/40/21
f 63/40/22 64/37/22 51/38/18
f 52/39/18 51/38/18 64/37/22
f 55/41/19 67/42/23 68/43/23
f 67/42/23 55/41/19 56/44/19
f 57/44/20 58/41/20 69/42/24
f 70/43/24 69/42/24 58/41/20
f 73/45/25 62/46/21 61/47/21
f 62/46/21 73/45/25 74/48/25
f 75/48/26 76/45/26 63/46/22
f 64/47/22 63/46/22 76/45/26
f 67/49/23 79/50/27 68/51/23
f 79/50/27 67/49/23 80/52/27
f 81/52/28 69/49/24 82/50/28
f 70/51/24 82/50/28 69/49/24
f 85/53/29 74/54/25 73/55/25
f 74/54/25 85/53/29 86/56/29
f 87/56/30 88/53/30 75/54/26
f 76/55/26 75/54/26 88/53/30
f 80/57/27 91/58/31 79/59/27
f 91/58/31 80/57/27 92/60/31
f 93/60/32 81/57/28 94/58/32
f 82/59/28 94/58/32 81/57/28
f 97/61/33 86/62/29 85/63/29
f 86/62/29 97/61/33 98/64/33
f 99/64/34 100/61/34 87/62/30
f 88/63/30 87/62/30 100/61/34
f 92/65/31 103/66/35 91/67/31
f 103/66/35 92/65/31 104/68/35
f 105/68/36 93/65/32 106/66/36
f 94/67/32 106/66/36 93/65/32
f 109/69/37 98/70/33 97/71/33
f 98/70/33 109/69/37 110/72/37
f 111/72/38 112/69/38 99/70/34
f 100/71/34 99/70/34 112/69/38
f 104/73/35 115/74/39 103/75/35
f 115/74/39 104/73/35 116/76/39
f 117/76/40 105/73/36 118/74/40
f 106/75/36 118/74/40 105/73/36
f 121/77/41 110/78/37 109/79/37
f 110/78/37 121/77/41 122/80/41
f 123/80/42 124/77/42 111/78/38
f 112/79/38 111/78/38 124/77/42
f 116/81/39 127/82/43 115/83/39
f 127/82/43 116/81/39 128/84/43
f 129/84/44 117/81/40 130/82/44
f 118/83/40 130/82/44 117/81/40
f 133/85/45 122/86/41 121/87/41
f 122/86/41 133/85/45 134/88/45
f 135/88/46 136/85/46 123/86/42
f 124/87/42 123/86/42 136/85/46
f 128/89/43 139/90/47 127/91/43
f 139/90/47 128/89/43 140/92/47
f 141/92/48 129/89/44 142/90/48
f 130/91/44 142/90/48 129/89/44
f 145/93/49 134/94/45 133/95/45
f 134/94/45 145/93/49 146/96/49
f 147/96/50 148/93/50 135/94/46
f 136/95/46 135/94/46 148/93/50
f 140/97/47 151/98/51 139/99/47
f 151/98/51 140/97/47 152/100/51
f 153/100/52 141/97/48 154/98/52
f 142/99/48 154/98/52 141/97/48
f 157/101/53 146/102/49 145/103/49
f 146/102/49 157/101/53 158/104/53
f 159/104/54 160/101/54 147/102/50
f 148/103/50 147/102/50 160/101/54
f 152/105/51 163/106/55 151/107/51
f 163/106/55 152/105/51 164/108/55
f 165/108/56 153/105/52 166/106/56
f 154/107/52 166/106/56 153/105/52
f 169/109/57 158/110/53 157/111/53
f 158/110/53 169/109/57 170/112/57
f 171/112/58 172/109/58 159/110/54
f 160/111/54 159/110/54 172/109/58
f 164/113/55 175/114/59 163/115/55
f 175/114/59 164/113/55 176/116/59
f 177/116/60 165/113/56 178/114/60
f 166/115/56 178/114/60 165/113/56
f 181/117/61 170/118/57 169/119/57
f 170/118/57 181/117/61 182/120/61
f 183/120/62 184/117/62 171/118/58
f 172/119/58 171/118/58 184/117/62
f 176/121/59 187/122/63 175/123/59
f 187/122/63 176/121/59 188/124/63
f 189/124/64 177/121/60 190/122/64
f 178/123/60 190/122/64 177/121/60
f 193/125/65 182/126/61 181/127/61
f 182/126/61 193/125/65 194/128/65
f 195/128/66 196/125/66 183/126/62
f 184/127/62 183/126/62 196/125/66
f 188/129/63 199/130/67 187/131/63
f 199/130/67 188/129/63 200/132/67
f 201/132/68 189/129/64 202/130/68
f 190/131/64 202/130/68 189/129/64
f 205/133/69 194/134/65 193/135/65
f 194/134/65 205/133/69 206/136/69
f 207/136/70 208/133/70 195/134/66
f 196/135/66 195/134/66 208/133/70
f 200/137/67 211/138/71 199/139/67
f 211/138/71 200/137/67 212/140/71
f 213/140/72 201/137/68 214/138/72
f 202/139/68 214/138/72 201/137/68
f 217/141/73 206/142/69 205/143/69
f 206/142/69 217/141/73 218/144/73
f 219/144/74 220/141/74 207/142/70
f 208/143/70 207/142/70 220/141/74
f 212/145/71 223/146/75 211/147/71
f 223/146/75 212/145/71 224/148/75
f 225/148/76 213/145/72 226/146/76
f 214/147/72 226/146/76 213/145/72
f 229/149/77 218/150/73 217/151/73
f 218/150/73 229/149/77 230/152/77
f 231/152/78 232/149/78 219/150/74
f 220/151/74 219/150/74 232/149/78
f 224/153/75 235/154/79 223/155/75
f 235/154/79 224/153/75 236/156/79
f 237/156/80 225/153/76 238/154/80
f 226/155/76 238/154/80 225/153/76
f 241/157/81 230/158/77 229/159/77
f 230/158/77 241/157/81 242/160/81
f 243/160/82 244/157/82 231/158/78
f 232/159/78 231/158/78 244/157/82
f 236/161/79 247/162/83 235/163/79
f 247/162/83 236/161/79 248/164/83
f 249/164/84 237/161/80 250/162/84
f 238/163/80 250/162/84 237/161/80
f 253/165/85 242/166/81 241/167/81
f 242/166/81 253/165/85 254/168/85
f 255/168/86 256/165/86 243/166/82
f 244/167/82 243/166/82 256/165/86
f 248/169/83 259/170/87 247/171/83
f 259/170/87 248/169/83 260/172/87
f 261/172/88 249/169/84 262/170/88
f 250/171/84 262/170/88 249/169/84
f 265/173/89 254/174/85 253/175/85
f 254/174/85 265/173/89 266/176/89
f 267/176/90 268/173/90 255/174/86
f 256/175/86 255/174/86 268/173/90
f 260/177/87 271/178/91 259/179/87
f 271/178/91 260/177/87 272/180/91
f 273/180/92 261/177/88 274/178/92
f 262/179/88 274/178/92 261/177/88
f 277/181/93 266/182/89 265/183/89
f 266/182/89 277/181/93 278/184/93
f 279/184/94 280/181/94 267/182/90
f 268/183/90 267/182/90 280/181/94
f 272/185/91 283/186/95 271/187/91
f 283/186/95 272/185/91 284/188/95
f 285/188/96 273/185/92 286/186/96
f 274/187/92 286/186/96 273/185/92
f 289/189/97 277/190/93 290/191/97
f 277/190/93 289/189/97 278/192/93
f 279/192/94 291/189/98 280/190/94
f 292/191/98 280/190/94 291/189/98
f 284/193/95 295/194/99 283/195/95
f 295/194/99 284/193/95 296/196/99
f 297/196/100 285/193/96 298/194/100
f 286/195/96 298/194/100 285/193/96
f 301/197/100 290/198/97 302/199/100
f 290/198/97 301/197/100 289/200/97
f 291/200/98 303/197/99 292/198/98
f 304/199/99 292/198/98 303/197/99
f 296/201/99 307/202/98 295/203/99
f 307/202/98 296/201/99 308/204/98
f 309/204/97 297/201/100 310/202/97
f 298/203/100 310/202/97 297/201/100
f 313/205/96 302/206/100 314/207/96
f 302/206/100 313/205/96 301/208/100
f 303/208/99 315/205/95 304/206/99
f 316/207/95 304/206/99 315/205/95
f 308/209/98 319/210/94 307/211/98
f 319/210/94 308/209/98 320/212/94
f 321/212/93 309/209/97 322/210/93
f 310/211/97 322/210/93 309/209/97
f 325/213/92 314/214/96 326/215/92
f 314/214/96 325/213/92 313/216/96
f 315/216/95 327/213/91 316/214/95
f 328/215/91 316/214/95 327/213/91
f 331/217/90 319/218/94 320/219/94
f 319/218/94 331/217/90 332/220/90
f 333/220/89 334/217/89 322/218/93
f 321/219/93 322/218/93 334/217/89
f 337/221/88 326/222/92 338/223/88
f 326/222/92 337/221/88 325/224/92
f 327/224/91 339/221/87 328/222/91
f 340/223/87 328/222/91 339/221/87
f 343/225/86 332/226/90 331/227/90
f 332/226/90 343/225/86 344/228/86
f 345/228/85 346/225/85 333/226/89
f 334/227/89 333/226/89 346/225/85
f 349/229/84 338/230/88 350/231/84
f 338/230/88 349/229/84 337/232/88
f 339/232/87 351/229/83 340/230/87
f 352/231/83 340/230/87 351/229/83
f 355/233/82 344/234/86 343/235/86
f 344/234/86 355/233/82 356/236/82
f 357/236/81 358/233/81 345/234/85
f 346/235/85 345/234/85 358/233/81
f 361/237/80 350/238/84 362/239/80
f 350/238/84 361/237/80 349/240/84
f 351/240/83 363/237/79 352/238/83
f 364/239/79 352/238/83 363/237/79
f 367/241/78 356/242/82 355/243/82
f 356/242/82 367/241/78 368/244/78
f 369/244/77 370/241/77 357/242/81
f 358/243/81 357/242/81 370/241/77
f 373/245/76 362/246/80 374/247/76
f 362/246/80 373/245/76 361/248/80
f 363/248/79 375/245/75 364/246/79
f 376/247/75 364/246/79 375/245/75
f 379/249/74 368/250/78 367/251/78
f 368/250/78 379/249/74 380/252/74
f 381/252/73 382/249/73 369/250/77
f 370/251/77 369/250/77 382/249/73
f 385/253/72 374/254/76 386/255/72
f 374/254/76 385/253/72 373/256/76
f 375/256/75 387/253/71 376/254/75
f 388/255/71 376/254/75 387/253/71
f 391/257/70 380/258/74 379/259/74
f 380/258/74 391/257/70 392/260/70
f 393/260/69 394/257/69 381/258/73
f 382/259/73 381/258/73 394/257/69
f 397/261/68 386/262/72 398/263/68
f 386/262/72 397/261/68 385/264/72
f 387/264/71 399/261/67 388/262/71
f 400/263/67 388/262/71 399/261/67
f 403/265/66 392/266/70 391/267/70
f 392/266/70 403/265/66 404/268/66
f 405/268/65 406/265/65 393/266/69
f 394/267/69 393/266/69 406/265/65
f 409/269/64 398/270/68 410/271/64
f 398/270/68 409/269/64 397/272/68
f 399/272/67 411/269/63 400/270/67
f 412/271/63 400/270/67 411/269/63
f 415/273/62 404/274/66 403/275/66
f 404/274/66 415/273/62 416/276/62
f 417/276/61 418/273/61 405/274/65
f 406/275/65 405/274/65 418/273/61
f 421/277/60 409/278/64 410/279/64
f 409/278/64 421/277/60 422/280/60
f 423/280/59 424/277/59 411/278/63
f 412/279/63 411/278/63 424/277/59
f 427/281/58 416/282/62 415/283/62
f 416/282/62 427/281/58 428/284/58
f 429/284/57 430/281/57 417/282/61
f 418/283/61 417/282/61 430/281/57
f 433/285/56 421/286/60 434/287/56
f 421/286/60 433/285/56 422/288/60
f 423/288/59 435/285/55 424/286/59
f 436/287/55 424/286/59 435/285/55
f 439/289/54 428/290/58 427/291/58
f 428/290/58 439/289/54 440/292/54
f 441/292/53 442/289/53 429/290/57
f 430/291/57 429/290/57 442/289/53
f 445/293/52 434/294/56 446/295/52
f 434/294/56 445/293/52 433/296/56
f 435/296/55 447/293/51 436/294/55
f 448/295/51 436/294/55 447/293/51
f 451/297/50 440/298/54 439/299/54
f 440/298/54 451/297/50 452/300/50
f 453/300/49 454/297/49 441/298/53
f 442/299/53 441/298/53 454/297/49
f 457/301/48 446/302/52 458/303/48
f 446/302/52 457/301/48 445/304/52
f 447/304/51 459/301/47 448/302/51
f 460/303/47 448/302/51 459/301/47
f 463/305/46 452/306/50 451/307/50
f 452/306/50 463/305/46 464/308/46
f 465/308/45 466/305/45 453/306/49
f 454/307/49 453/306/49 466/305/45
f 469/309/44 458/310/48 470/311/44
f 458/310/48 469/309/44 457/312/48
f 459/312/47 471/309/43 460/310/47
f 472/311/43 460/310/47 471/309/43
f 475/313/42 464/314/46 463/315/46
f 464/314/46 475/313/42 476/316/42
f 477/316/41 478/313/41 465/314/45
f 466/315/45 465/314/45 478/313/41
f 481/317/40 470/318/44 482/319/40
f 470/318/44 481/317/40 469/320/44
f 471/320/43 483/317/39 472/318/43
f 484/319/39 472/318/43 483/317/39
f 487/321/38 476/322/42 475/323/42
f 476/322/42 487/321/38 488/324/38
f 489/324/37 490/321/37 477/322/41
f 478/323/41 477/322/41 490/321/37
f 493/325/36 482/326/40 494/327/36
f 482/326/40 493/325/36 481/328/40
f 483/328/39 495/325/35 484/326/39
f 496/327/35 484/326/39 495/325/35
f 499/329/34 488/330/38 487/331/38
f 488/330/38 499/329/34 500/332/34
f 501/332/33 502/329/33 489/330/37
f 490/331/37 489/330/37 502/329/33
f 505/333/32 494/334/36 506/335/32
f 494/334/36 505/333/32 493/336/36
f 495/336/35 507/333/31 496/334/35
f 508/335/31 496/334/35 507/333/31
f 511/337/30 500/338/34 499/339/34
f 500/338/34 511/337/30 512/340/30
f 513/340/29 514/337/29 501/338/33
f 502/339/33 501/338/33 514/337/29
f 517/341/28 506/342/32 518/343/28
f 506/342/32 517/341/28 505/344/32
f 507/344/31 519/341/27 508/342/31
f 520/343/27 508/342/31 519/341/27
f 523/345/26 512/346/30 511/347/30
f 512/346/30 523/345/26 524/348/26
f 525/348/25 526/345/25 513/346/29
f 514/347/29 513/346/29 526/345/25
f 529/349/24 518/350/28 530/351/24
f 518/350/28 529/349/24 517/352/28
f 519/352/27 531/349/23 520/350/27
f 532/351/23 520/350/27 531/349/23
f 535/353/22 524/354/26 523/355/26
f 524/354/26 535/353/22 536/356/22
f 537/356/21 538/353/21 525/354/25
f 526/355/25 525/354/25 538/353/21
f 541/357/20 530/358/24 542/359/20
f 530/358/24 541/357/20 529/360/24
f 531/360/23 543/357/19 532/358/23
f 544/359/19 532/358/23 543/357/19
f 547/361/18 536/362/22 535/363/22
f 536/362/22 547/361/18 548/364/18
f 549/364/17 550/361/17 537/362/21
f 538/363/21 537/362/21 550/361/17
f 553/365/16 542/366/20 554/367/16
f 542/366/20 553/365/16 541/368/20
f 543/368/19 555/365/15 544/366/19
f 556/367/15 544/366/19 555/365/15
f 559/369/14 548/370/18 547/371/18
f 548/370/18 559/369/14 560/372/14
f 561/372/13 562/369/13 549/370/17
f 550/371/17 549/370/17 562/369/13
f 565/373/12 554/374/16 566/375/12
f 554/374/16 565/373/12 553/376/16
f 555/376/15 567/373/11 556/374/15
f 568/375/11 556/374/15 567/373/11
f 571/377/10 560/378/14 559/379/14
f 560/378/14 571/377/10 572/380/10
f 573/380/9 574/377/9 561/378/13
f 562/379/13 561/378/13 574/377/9
f 577/381/8 566/382/12 578/383/8
f 566/382/12 577/381/8 565/384/12
f 567/384/11 579/381/7 568/382/11
f 580/383/7 568/382/11 579/381/7
f 583/385/6 572/386/10 571/387/10
f 572/386/10 583/385/6 584/388/6
f 585/388/5 586/385/5 573/386/9
f 574/387/9 573/386/9 586/385/5
f 577/389/8 589/390/4 590/391/4
f 589/390/4 577/389/8 578/392/8
f 580/392/7 579/389/7 591/390/2
f 592/391/2 591/390/2 579/389/7
f 595/393/3 584/394/6 583/395/6
f 584/394/6 595/393/3 596/396/3
f 597/396/1 598/393/1 585/394/5
f 586/395/5 585/394/5 598/393/1
f 590/397/4 596/398/3 595/399/3
f 596/398/3 590/397/4 589/400/4
f 591/400/2 592/397/2 597/398/1
f 598/399/1 597/398/1 592/397/2
usemtl material_1_0
