# SSTK version 0.8.0
# 8
mtllib original-8.mtl
o #ID374
v 0.290905 0.060835 0.435849
v 0.299109 0.042408 0.418950
v 0.299109 0.042408 0.435849
v 0.290905 0.060835 0.418950
v 0.290905 0.060835 0.418950
v 0.290905 0.060835 0.435849
v 0.299109 0.042408 0.418950
v 0.299109 0.042408 0.435849
v 0.299109 0.042408 0.435849
v 0.290905 0.060835 0.435849
v 0.290905 0.060835 0.418950
v 0.299109 0.042408 0.418950
v 0.281560 0.078710 0.435849
v 0.290905 0.060835 0.418950
v 0.290905 0.060835 0.435849
v 0.281560 0.078710 0.418950
v 0.281560 0.078710 0.418950
v 0.281560 0.078710 0.435849
v 0.290905 0.060835 0.418950
v 0.290905 0.060835 0.435849
v 0.281560 0.078710 0.435849
v 0.281560 0.078710 0.418950
v -0.318390 -0.102425 0.418950
v -0.318812 -0.062106 0.418950
v -0.319235 -0.082272 0.418950
v -0.317125 -0.042006 0.418950
v -0.316282 -0.122486 0.418950
v -0.314178 -0.022051 0.418950
v -0.312918 -0.142374 0.418950
v -0.309984 -0.002321 0.418950
v -0.308312 -0.162012 0.418950
v -0.304560 0.017106 0.418950
v -0.302482 -0.181322 0.418950
v -0.297926 0.036155 0.418950
v -0.295451 -0.200228 0.418950
v -0.290110 0.054750 0.418950
v -0.287247 -0.218655 0.418950
v -0.281141 0.072817 0.418950
v -0.277902 -0.236530 0.418950
v -0.271056 0.090286 0.418950
v -0.267453 -0.253784 0.418950
v -0.268516 -0.081741 0.418950
v -0.267804 -0.098711 0.418950
v -0.266029 -0.115602 0.418950
v -0.255941 -0.270347 0.418950
v -0.263196 -0.132349 0.418950
v -0.259318 -0.148884 0.418950
v -0.254409 -0.165144 0.418950
v -0.243412 -0.286154 0.418950
v -0.248489 -0.181063 0.418950
v -0.241581 -0.196579 0.418950
v -0.229915 -0.301145 0.418950
v -0.233712 -0.211631 0.418950
v -0.224913 -0.226158 0.418950
v -0.215503 -0.315257 0.418950
v -0.215220 -0.240105 0.418950
v -0.200234 -0.328437 0.418950
v -0.204670 -0.253416 0.418950
v -0.193306 -0.266037 0.418950
v -0.184167 -0.340633 0.418950
v -0.181171 -0.277921 0.418950
v -0.167367 -0.351795 0.418950
v -0.168314 -0.289019 0.418950
v -0.154785 -0.299288 0.418950
v -0.149898 -0.361880 0.418950
v -0.140638 -0.308687 0.418950
v -0.131831 -0.370849 0.418950
v -0.125929 -0.317179 0.418950
v -0.113236 -0.378665 0.418950
v -0.110716 -0.324731 0.418950
v -0.094187 -0.385299 0.418950
v -0.095059 -0.331312 0.418950
v -0.079019 -0.336898 0.418950
v -0.074760 -0.390723 0.418950
v -0.062661 -0.341465 0.418950
v -0.055030 -0.394917 0.418950
v -0.046048 -0.344997 0.418950
v -0.035075 -0.397864 0.418950
v -0.029245 -0.347478 0.418950
v -0.014975 -0.399552 0.418950
v -0.012320 -0.348899 0.418950
v 0.005192 -0.399974 0.418950
v 0.004660 -0.349255 0.418950
v 0.021630 -0.348543 0.418950
v 0.025345 -0.399129 0.418950
v 0.038521 -0.346768 0.418950
v 0.045405 -0.397021 0.418950
v 0.055267 -0.343935 0.418950
v 0.065293 -0.393657 0.418950
v 0.071803 -0.340057 0.418950
v 0.084931 -0.389051 0.418950
v 0.088063 -0.335148 0.418950
v 0.104241 -0.383221 0.418950
v 0.103982 -0.329228 0.418950
v 0.119498 -0.322320 0.418950
v 0.123147 -0.376190 0.418950
v 0.134549 -0.314451 0.418950
v 0.141574 -0.367986 0.418950
v 0.149077 -0.305652 0.418950
v 0.159449 -0.358641 0.418950
v 0.163024 -0.295959 0.418950
v 0.176703 -0.348192 0.418950
v 0.176335 -0.285410 0.418950
v 0.188957 -0.274045 0.418950
v 0.193266 -0.336680 0.418950
v 0.200840 -0.261910 0.418950
v 0.209074 -0.324151 0.418950
v 0.211938 -0.249053 0.418950
v 0.224063 -0.310654 0.418950
v 0.222207 -0.235524 0.418950
v 0.231605 -0.221378 0.418950
v 0.238176 -0.296242 0.418950
v 0.240098 -0.206669 0.418950
v 0.251356 -0.280973 0.418950
v 0.247649 -0.191456 0.418950
v 0.254231 -0.175798 0.418950
v 0.263552 -0.264906 0.418950
v 0.259817 -0.159758 0.418950
v 0.264384 -0.143400 0.418950
v 0.274714 -0.248106 0.418950
v 0.267916 -0.126787 0.418950
v 0.270397 -0.109984 0.418950
v 0.271818 -0.093059 0.418950
v 0.272174 -0.076079 0.418950
v -0.268160 -0.064760 0.418950
v -0.259893 0.107087 0.418950
v -0.266739 -0.047836 0.418950
v -0.264258 -0.031034 0.418950
v -0.260726 -0.014420 0.418950
v -0.256159 0.001939 0.418950
v -0.247698 0.123153 0.418950
v -0.250573 0.017978 0.418950
v -0.243992 0.033635 0.418950
v -0.234518 0.138422 0.418950
v -0.236440 0.048848 0.418950
v -0.227947 0.063557 0.418950
v -0.220405 0.152834 0.418950
v -0.218548 0.077704 0.418950
v -0.205415 0.166331 0.418950
v -0.208280 0.091233 0.418950
v -0.197182 0.104090 0.418950
v -0.189608 0.178860 0.418950
v -0.185298 0.116225 0.418950
v -0.173044 0.190372 0.418950
v -0.172676 0.127589 0.418950
v -0.155791 0.200821 0.418950
v -0.159366 0.138139 0.418950
v -0.145419 0.147833 0.418950
v -0.137916 0.210166 0.418950
v -0.130891 0.156631 0.418950
v -0.119489 0.218370 0.418950
v -0.115840 0.164500 0.418950
v -0.100583 0.225401 0.418950
v -0.100324 0.171408 0.418950
v -0.081273 0.231231 0.418950
v -0.084405 0.177328 0.418950
v -0.068145 0.182237 0.418950
v -0.061635 0.235837 0.418950
v -0.051610 0.186116 0.418950
v -0.041747 0.239201 0.418950
v -0.034863 0.188948 0.418950
v -0.021686 0.241309 0.418950
v -0.017972 0.190724 0.418950
v -0.001533 0.242154 0.418950
v -0.001002 0.191435 0.418950
v 0.018633 0.241732 0.418950
v 0.015979 0.191079 0.418950
v 0.032903 0.189658 0.418950
v 0.038733 0.240044 0.418950
v 0.049705 0.187177 0.418950
v 0.058688 0.237097 0.418950
v 0.066319 0.183645 0.418950
v 0.078418 0.232903 0.418950
v 0.082678 0.179078 0.418950
v 0.097845 0.227479 0.418950
v 0.098717 0.173492 0.418950
v 0.116894 0.220846 0.418950
v 0.114374 0.166910 0.418950
v 0.129588 0.159359 0.418950
v 0.135489 0.213029 0.418950
v 0.144296 0.150866 0.418950
v 0.153556 0.204060 0.418950
v 0.158443 0.141467 0.418950
v 0.171025 0.193975 0.418950
v 0.171972 0.131199 0.418950
v 0.187826 0.182813 0.418950
v 0.184829 0.120101 0.418950
v 0.196964 0.108218 0.418950
v 0.203892 0.170617 0.418950
v 0.208328 0.095596 0.418950
v 0.219162 0.157437 0.418950
v 0.218878 0.082285 0.418950
v 0.228572 0.068338 0.418950
v 0.233573 0.143324 0.418950
v 0.237370 0.053810 0.418950
v 0.247070 0.128335 0.418950
v 0.245239 0.038759 0.418950
v 0.252147 0.023243 0.418950
v 0.259599 0.112527 0.418950
v 0.258067 0.007324 0.418950
v 0.262976 -0.008936 0.418950
v 0.271111 0.095963 0.418950
v 0.266855 -0.025472 0.418950
v 0.269687 -0.042218 0.418950
v 0.271463 -0.059109 0.418950
v 0.281560 0.078710 0.418950
v 0.284799 -0.230638 0.418950
v 0.290905 0.060835 0.418950
v 0.293768 -0.212570 0.418950
v 0.299109 0.042408 0.418950
v 0.301585 -0.193975 0.418950
v 0.306140 0.023502 0.418950
v 0.308218 -0.174927 0.418950
v 0.311970 0.004192 0.418950
v 0.313642 -0.155499 0.418950
v 0.316576 -0.015446 0.418950
v 0.317836 -0.135769 0.418950
v 0.319940 -0.035334 0.418950
v 0.320783 -0.115814 0.418950
v 0.322048 -0.055394 0.418950
v 0.322471 -0.095714 0.418950
v 0.322893 -0.075548 0.418950
v 0.322893 -0.075548 0.418950
v 0.322471 -0.095714 0.418950
v 0.322048 -0.055394 0.418950
v 0.320783 -0.115814 0.418950
v 0.319940 -0.035334 0.418950
v 0.317836 -0.135769 0.418950
v 0.316576 -0.015446 0.418950
v 0.313642 -0.155499 0.418950
v 0.311970 0.004192 0.418950
v 0.308218 -0.174927 0.418950
v 0.306140 0.023502 0.418950
v 0.301585 -0.193975 0.418950
v 0.299109 0.042408 0.418950
v 0.293768 -0.212570 0.418950
v 0.290905 0.060835 0.418950
v 0.284799 -0.230638 0.418950
v 0.281560 0.078710 0.418950
v 0.274714 -0.248106 0.418950
v 0.272174 -0.076079 0.418950
v 0.271463 -0.059109 0.418950
v 0.271111 0.095963 0.418950
v 0.269687 -0.042218 0.418950
v 0.266855 -0.025472 0.418950
v 0.262976 -0.008936 0.418950
v 0.259599 0.112527 0.418950
v 0.258067 0.007324 0.418950
v 0.252147 0.023243 0.418950
v 0.247070 0.128335 0.418950
v 0.245239 0.038759 0.418950
v 0.237370 0.053810 0.418950
v 0.233573 0.143324 0.418950
v 0.228572 0.068338 0.418950
v 0.219162 0.157437 0.418950
v 0.218878 0.082285 0.418950
v 0.208328 0.095596 0.418950
v 0.203892 0.170617 0.418950
v 0.196964 0.108218 0.418950
v 0.187826 0.182813 0.418950
v 0.184829 0.120101 0.418950
v 0.171972 0.131199 0.418950
v 0.171025 0.193975 0.418950
v 0.158443 0.141467 0.418950
v 0.153556 0.204060 0.418950
v 0.144296 0.150866 0.418950
v 0.135489 0.213029 0.418950
v 0.129588 0.159359 0.418950
v 0.116894 0.220846 0.418950
v 0.114374 0.166910 0.418950
v 0.098717 0.173492 0.418950
v 0.097845 0.227479 0.418950
v 0.082678 0.179078 0.418950
v 0.078418 0.232903 0.418950
v 0.066319 0.183645 0.418950
v 0.058688 0.237097 0.418950
v 0.049705 0.187177 0.418950
v 0.038733 0.240044 0.418950
v 0.032903 0.189658 0.418950
v 0.018633 0.241732 0.418950
v 0.015979 0.191079 0.418950
v -0.001002 0.191435 0.418950
v -0.001533 0.242154 0.418950
v -0.017972 0.190724 0.418950
v -0.021686 0.241309 0.418950
v -0.034863 0.188948 0.418950
v -0.041747 0.239201 0.418950
v -0.051610 0.186116 0.418950
v -0.061635 0.235837 0.418950
v -0.068145 0.182237 0.418950
v -0.081273 0.231231 0.418950
v -0.084405 0.177328 0.418950
v -0.100324 0.171408 0.418950
v -0.100583 0.225401 0.418950
v -0.115840 0.164500 0.418950
v -0.119489 0.218370 0.418950
v -0.130891 0.156631 0.418950
v -0.137916 0.210166 0.418950
v -0.145419 0.147833 0.418950
v -0.155791 0.200821 0.418950
v -0.159366 0.138139 0.418950
v -0.172676 0.127589 0.418950
v -0.173044 0.190372 0.418950
v -0.185298 0.116225 0.418950
v -0.189608 0.178860 0.418950
v -0.197182 0.104090 0.418950
v -0.205415 0.166331 0.418950
v -0.208280 0.091233 0.418950
v -0.218548 0.077704 0.418950
v -0.220405 0.152834 0.418950
v -0.227947 0.063557 0.418950
v -0.234518 0.138422 0.418950
v -0.236440 0.048848 0.418950
v -0.243992 0.033635 0.418950
v -0.247698 0.123153 0.418950
v -0.250573 0.017978 0.418950
v -0.256159 0.001939 0.418950
v -0.259893 0.107087 0.418950
v -0.260726 -0.014420 0.418950
v -0.264258 -0.031034 0.418950
v -0.266739 -0.047836 0.418950
v -0.268160 -0.064760 0.418950
v -0.268516 -0.081741 0.418950
v -0.271056 0.090286 0.418950
v 0.271818 -0.093059 0.418950
v 0.270397 -0.109984 0.418950
v 0.267916 -0.126787 0.418950
v 0.264384 -0.143400 0.418950
v 0.263552 -0.264906 0.418950
v 0.259817 -0.159758 0.418950
v 0.254231 -0.175798 0.418950
v 0.251356 -0.280973 0.418950
v 0.247649 -0.191456 0.418950
v 0.240098 -0.206669 0.418950
v 0.238176 -0.296242 0.418950
v 0.231605 -0.221378 0.418950
v 0.224063 -0.310654 0.418950
v 0.222207 -0.235524 0.418950
v 0.211938 -0.249053 0.418950
v 0.209074 -0.324151 0.418950
v 0.200840 -0.261910 0.418950
v 0.193266 -0.336680 0.418950
v 0.188957 -0.274045 0.418950
v 0.176703 -0.348192 0.418950
v 0.176335 -0.285410 0.418950
v 0.163024 -0.295959 0.418950
v 0.159449 -0.358641 0.418950
v 0.149077 -0.305652 0.418950
v 0.141574 -0.367986 0.418950
v 0.134549 -0.314451 0.418950
v 0.123147 -0.376190 0.418950
v 0.119498 -0.322320 0.418950
v 0.104241 -0.383221 0.418950
v 0.103982 -0.329228 0.418950
v 0.088063 -0.335148 0.418950
v 0.084931 -0.389051 0.418950
v 0.071803 -0.340057 0.418950
v 0.065293 -0.393657 0.418950
v 0.055267 -0.343935 0.418950
v 0.045405 -0.397021 0.418950
v 0.038521 -0.346768 0.418950
v 0.025345 -0.399129 0.418950
v 0.021630 -0.348543 0.418950
v 0.005192 -0.399974 0.418950
v 0.004660 -0.349255 0.418950
v -0.012320 -0.348899 0.418950
v -0.014975 -0.399552 0.418950
v -0.029245 -0.347478 0.418950
v -0.035075 -0.397864 0.418950
v -0.046048 -0.344997 0.418950
v -0.055030 -0.394917 0.418950
v -0.062661 -0.341465 0.418950
v -0.074760 -0.390723 0.418950
v -0.079019 -0.336898 0.418950
v -0.094187 -0.385299 0.418950
v -0.095059 -0.331312 0.418950
v -0.110716 -0.324731 0.418950
v -0.113236 -0.378665 0.418950
v -0.125929 -0.317179 0.418950
v -0.131831 -0.370849 0.418950
v -0.140638 -0.308687 0.418950
v -0.149898 -0.361880 0.418950
v -0.154785 -0.299288 0.418950
v -0.167367 -0.351795 0.418950
v -0.168314 -0.289019 0.418950
v -0.181171 -0.277921 0.418950
v -0.184167 -0.340633 0.418950
v -0.193306 -0.266037 0.418950
v -0.200234 -0.328437 0.418950
v -0.204670 -0.253416 0.418950
v -0.215220 -0.240105 0.418950
v -0.215503 -0.315257 0.418950
v -0.224913 -0.226158 0.418950
v -0.229915 -0.301145 0.418950
v -0.233712 -0.211631 0.418950
v -0.241581 -0.196579 0.418950
v -0.243412 -0.286154 0.418950
v -0.248489 -0.181063 0.418950
v -0.254409 -0.165144 0.418950
v -0.255941 -0.270347 0.418950
v -0.259318 -0.148884 0.418950
v -0.263196 -0.132349 0.418950
v -0.266029 -0.115602 0.418950
v -0.267453 -0.253784 0.418950
v -0.267804 -0.098711 0.418950
v -0.277902 -0.236530 0.418950
v -0.281141 0.072817 0.418950
v -0.287247 -0.218655 0.418950
v -0.290110 0.054750 0.418950
v -0.295451 -0.200228 0.418950
v -0.297926 0.036155 0.418950
v -0.302482 -0.181322 0.418950
v -0.304560 0.017106 0.418950
v -0.308312 -0.162012 0.418950
v -0.309984 -0.002321 0.418950
v -0.312918 -0.142374 0.418950
v -0.314178 -0.022051 0.418950
v -0.316282 -0.122486 0.418950
v -0.317125 -0.042006 0.418950
v -0.318390 -0.102425 0.418950
v -0.318812 -0.062106 0.418950
v -0.319235 -0.082272 0.418950
v -0.014975 -0.399552 0.418950
v 0.005192 -0.399974 0.418950
v 0.025345 -0.399129 0.418950
v 0.045405 -0.397021 0.418950
v 0.065293 -0.393657 0.418950
v 0.084931 -0.389051 0.418950
v 0.104241 -0.383221 0.418950
v 0.123147 -0.376190 0.418950
v 0.141574 -0.367986 0.418950
v 0.159449 -0.358641 0.418950
v 0.176703 -0.348192 0.418950
v 0.193266 -0.336680 0.418950
v 0.209074 -0.324151 0.418950
v 0.224063 -0.310654 0.418950
v 0.238176 -0.296242 0.418950
v 0.251356 -0.280973 0.418950
v 0.263552 -0.264906 0.418950
v 0.274714 -0.248106 0.418950
v 0.284799 -0.230638 0.418950
v 0.293768 -0.212570 0.418950
v 0.301585 -0.193975 0.418950
v 0.308218 -0.174927 0.418950
v 0.313642 -0.155499 0.418950
v 0.317836 -0.135769 0.418950
v 0.320783 -0.115814 0.418950
v 0.322471 -0.095714 0.418950
v 0.322893 -0.075548 0.418950
v 0.322048 -0.055394 0.418950
v 0.319940 -0.035334 0.418950
v 0.316576 -0.015446 0.418950
v 0.311970 0.004192 0.418950
v 0.306140 0.023502 0.418950
v 0.271111 0.095963 0.418950
v 0.259599 0.112527 0.418950
v 0.247070 0.128335 0.418950
v 0.233573 0.143324 0.418950
v 0.219162 0.157437 0.418950
v 0.203892 0.170617 0.418950
v 0.187826 0.182813 0.418950
v 0.171025 0.193975 0.418950
v 0.153556 0.204060 0.418950
v 0.135489 0.213029 0.418950
v 0.116894 0.220846 0.418950
v 0.097845 0.227479 0.418950
v 0.078418 0.232903 0.418950
v 0.058688 0.237097 0.418950
v 0.038733 0.240044 0.418950
v 0.018633 0.241732 0.418950
v -0.001533 0.242154 0.418950
v -0.021686 0.241309 0.418950
v -0.041747 0.239201 0.418950
v -0.061635 0.235837 0.418950
v -0.081273 0.231231 0.418950
v -0.100583 0.225401 0.418950
v -0.119489 0.218370 0.418950
v -0.137916 0.210166 0.418950
v -0.155791 0.200821 0.418950
v -0.173044 0.190372 0.418950
v -0.189608 0.178860 0.418950
v -0.205415 0.166331 0.418950
v -0.220405 0.152834 0.418950
v -0.234518 0.138422 0.418950
v -0.247698 0.123153 0.418950
v -0.259893 0.107087 0.418950
v -0.271056 0.090286 0.418950
v -0.281141 0.072817 0.418950
v -0.290110 0.054750 0.418950
v -0.297926 0.036155 0.418950
v -0.304560 0.017106 0.418950
v -0.309984 -0.002321 0.418950
v -0.314178 -0.022051 0.418950
v -0.317125 -0.042006 0.418950
v -0.318812 -0.062106 0.418950
v -0.319235 -0.082272 0.418950
v -0.318390 -0.102425 0.418950
v -0.316282 -0.122486 0.418950
v -0.312918 -0.142374 0.418950
v -0.308312 -0.162012 0.418950
v -0.302482 -0.181322 0.418950
v -0.295451 -0.200228 0.418950
v -0.287247 -0.218655 0.418950
v -0.277902 -0.236530 0.418950
v -0.267453 -0.253784 0.418950
v -0.255941 -0.270347 0.418950
v -0.243412 -0.286154 0.418950
v -0.229915 -0.301145 0.418950
v -0.215503 -0.315257 0.418950
v -0.200234 -0.328437 0.418950
v -0.184167 -0.340633 0.418950
v -0.167367 -0.351795 0.418950
v -0.149898 -0.361880 0.418950
v -0.131831 -0.370849 0.418950
v -0.113236 -0.378665 0.418950
v -0.094187 -0.385299 0.418950
v -0.074760 -0.390723 0.418950
v -0.055030 -0.394917 0.418950
v -0.035075 -0.397864 0.418950
v -0.029245 -0.347478 0.418950
v -0.012320 -0.348899 0.418950
v -0.046048 -0.344997 0.418950
v -0.062661 -0.341465 0.418950
v -0.079019 -0.336898 0.418950
v -0.095059 -0.331312 0.418950
v -0.110716 -0.324731 0.418950
v -0.125929 -0.317179 0.418950
v -0.140638 -0.308687 0.418950
v -0.154785 -0.299288 0.418950
v -0.168314 -0.289019 0.418950
v -0.181171 -0.277921 0.418950
v -0.193306 -0.266037 0.418950
v -0.204670 -0.253416 0.418950
v -0.215220 -0.240105 0.418950
v -0.224913 -0.226158 0.418950
v -0.233712 -0.211631 0.418950
v -0.241581 -0.196579 0.418950
v -0.248489 -0.181063 0.418950
v -0.254409 -0.165144 0.418950
v -0.259318 -0.148884 0.418950
v -0.263196 -0.132349 0.418950
v -0.266029 -0.115602 0.418950
v -0.267804 -0.098711 0.418950
v -0.268516 -0.081741 0.418950
v -0.268160 -0.064760 0.418950
v -0.266739 -0.047836 0.418950
v -0.264258 -0.031034 0.418950
v -0.260726 -0.014420 0.418950
v -0.256159 0.001939 0.418950
v -0.250573 0.017978 0.418950
v -0.243992 0.033635 0.418950
v -0.236440 0.048848 0.418950
v -0.227947 0.063557 0.418950
v -0.218548 0.077704 0.418950
v -0.208280 0.091233 0.418950
v -0.197182 0.104090 0.418950
v -0.185298 0.116225 0.418950
v -0.172676 0.127589 0.418950
v -0.159366 0.138139 0.418950
v -0.145419 0.147833 0.418950
v -0.130891 0.156631 0.418950
v -0.115840 0.164500 0.418950
v -0.100324 0.171408 0.418950
v -0.084405 0.177328 0.418950
v -0.068145 0.182237 0.418950
v -0.051610 0.186116 0.418950
v -0.034863 0.188948 0.418950
v -0.017972 0.190724 0.418950
v -0.001002 0.191435 0.418950
v 0.015979 0.191079 0.418950
v 0.032903 0.189658 0.418950
v 0.049705 0.187177 0.418950
v 0.066319 0.183645 0.418950
v 0.082678 0.179078 0.418950
v 0.098717 0.173492 0.418950
v 0.114374 0.166910 0.418950
v 0.129588 0.159359 0.418950
v 0.144296 0.150866 0.418950
v 0.158443 0.141467 0.418950
v 0.171972 0.131199 0.418950
v 0.184829 0.120101 0.418950
v 0.196964 0.108218 0.418950
v 0.208328 0.095596 0.418950
v 0.218878 0.082285 0.418950
v 0.228572 0.068338 0.418950
v 0.237370 0.053810 0.418950
v 0.245239 0.038759 0.418950
v 0.252147 0.023243 0.418950
v 0.258067 0.007324 0.418950
v 0.262976 -0.008936 0.418950
v 0.266855 -0.025472 0.418950
v 0.269687 -0.042218 0.418950
v 0.271463 -0.059109 0.418950
v 0.272174 -0.076079 0.418950
v 0.271818 -0.093059 0.418950
v 0.270397 -0.109984 0.418950
v 0.267916 -0.126787 0.418950
v 0.264384 -0.143400 0.418950
v 0.259817 -0.159758 0.418950
v 0.254231 -0.175798 0.418950
v 0.247649 -0.191456 0.418950
v 0.240098 -0.206669 0.418950
v 0.231605 -0.221378 0.418950
v 0.222207 -0.235524 0.418950
v 0.211938 -0.249053 0.418950
v 0.200840 -0.261910 0.418950
v 0.188957 -0.274045 0.418950
v 0.176335 -0.285410 0.418950
v 0.163024 -0.295959 0.418950
v 0.149077 -0.305652 0.418950
v 0.134549 -0.314451 0.418950
v 0.119498 -0.322320 0.418950
v 0.103982 -0.329228 0.418950
v 0.088063 -0.335148 0.418950
v 0.071803 -0.340057 0.418950
v 0.055267 -0.343935 0.418950
v 0.038521 -0.346768 0.418950
v 0.021630 -0.348543 0.418950
v 0.004660 -0.349255 0.418950
v 0.299109 0.042408 0.435849
v 0.306140 0.023502 0.418950
v 0.306140 0.023502 0.435849
v 0.299109 0.042408 0.418950
v 0.299109 0.042408 0.418950
v 0.299109 0.042408 0.435849
v 0.306140 0.023502 0.418950
v 0.306140 0.023502 0.435849
v 0.306140 0.023502 0.435849
v 0.271111 0.095963 0.435849
v 0.281560 0.078710 0.418950
v 0.281560 0.078710 0.435849
v 0.271111 0.095963 0.418950
v 0.271111 0.095963 0.418950
v 0.271111 0.095963 0.435849
v 0.281560 0.078710 0.418950
v 0.281560 0.078710 0.435849
v 0.271111 0.095963 0.435849
v -0.014975 -0.399552 0.435849
v 0.005192 -0.399974 0.418950
v -0.014975 -0.399552 0.418950
v 0.005192 -0.399974 0.435849
v 0.005192 -0.399974 0.435849
v -0.014975 -0.399552 0.435849
v 0.005192 -0.399974 0.418950
v -0.014975 -0.399552 0.418950
v -0.014975 -0.399552 0.435849
v 0.005192 -0.399974 0.435849
v 0.005192 -0.399974 0.435849
v 0.025345 -0.399129 0.418950
v 0.005192 -0.399974 0.418950
v 0.025345 -0.399129 0.435849
v 0.025345 -0.399129 0.435849
v 0.005192 -0.399974 0.435849
v 0.025345 -0.399129 0.418950
v 0.005192 -0.399974 0.418950
v 0.025345 -0.399129 0.435849
v 0.025345 -0.399129 0.435849
v 0.045405 -0.397021 0.418950
v 0.025345 -0.399129 0.418950
v 0.045405 -0.397021 0.435849
v 0.045405 -0.397021 0.435849
v 0.025345 -0.399129 0.435849
v 0.045405 -0.397021 0.418950
v 0.025345 -0.399129 0.418950
v 0.045405 -0.397021 0.435849
v 0.045405 -0.397021 0.435849
v 0.065293 -0.393657 0.418950
v 0.045405 -0.397021 0.418950
v 0.065293 -0.393657 0.435849
v 0.065293 -0.393657 0.435849
v 0.045405 -0.397021 0.435849
v 0.065293 -0.393657 0.418950
v 0.045405 -0.397021 0.418950
v 0.065293 -0.393657 0.435849
v 0.065293 -0.393657 0.435849
v 0.084931 -0.389051 0.418950
v 0.065293 -0.393657 0.418950
v 0.084931 -0.389051 0.435849
v 0.084931 -0.389051 0.435849
v 0.065293 -0.393657 0.435849
v 0.084931 -0.389051 0.418950
v 0.065293 -0.393657 0.418950
v 0.084931 -0.389051 0.435849
v 0.084931 -0.389051 0.418950
v 0.104241 -0.383221 0.435849
v 0.104241 -0.383221 0.418950
v 0.084931 -0.389051 0.435849
v 0.084931 -0.389051 0.435849
v 0.084931 -0.389051 0.418950
v 0.104241 -0.383221 0.435849
v 0.104241 -0.383221 0.418950
v 0.104241 -0.383221 0.435849
v 0.104241 -0.383221 0.435849
v 0.123147 -0.376190 0.418950
v 0.104241 -0.383221 0.418950
v 0.123147 -0.376190 0.435849
v 0.123147 -0.376190 0.435849
v 0.104241 -0.383221 0.435849
v 0.123147 -0.376190 0.418950
v 0.104241 -0.383221 0.418950
v 0.123147 -0.376190 0.435849
v 0.123147 -0.376190 0.435849
v 0.141574 -0.367986 0.418950
v 0.123147 -0.376190 0.418950
v 0.141574 -0.367986 0.435849
v 0.141574 -0.367986 0.435849
v 0.123147 -0.376190 0.435849
v 0.141574 -0.367986 0.418950
v 0.123147 -0.376190 0.418950
v 0.141574 -0.367986 0.435849
v 0.141574 -0.367986 0.435849
v 0.159449 -0.358641 0.418950
v 0.141574 -0.367986 0.418950
v 0.159449 -0.358641 0.435849
v 0.159449 -0.358641 0.435849
v 0.141574 -0.367986 0.435849
v 0.159449 -0.358641 0.418950
v 0.141574 -0.367986 0.418950
v 0.159449 -0.358641 0.435849
v 0.159449 -0.358641 0.435849
v 0.176703 -0.348192 0.418950
v 0.159449 -0.358641 0.418950
v 0.176703 -0.348192 0.435849
v 0.176703 -0.348192 0.435849
v 0.159449 -0.358641 0.435849
v 0.176703 -0.348192 0.418950
v 0.159449 -0.358641 0.418950
v 0.176703 -0.348192 0.435849
v 0.176703 -0.348192 0.435849
v 0.193266 -0.336680 0.418950
v 0.176703 -0.348192 0.418950
v 0.193266 -0.336680 0.435849
v 0.193266 -0.336680 0.435849
v 0.176703 -0.348192 0.435849
v 0.193266 -0.336680 0.418950
v 0.176703 -0.348192 0.418950
v 0.193266 -0.336680 0.435849
v 0.193266 -0.336680 0.435849
v 0.209074 -0.324151 0.418950
v 0.193266 -0.336680 0.418950
v 0.209074 -0.324151 0.435849
v 0.209074 -0.324151 0.435849
v 0.193266 -0.336680 0.435849
v 0.209074 -0.324151 0.418950
v 0.193266 -0.336680 0.418950
v 0.209074 -0.324151 0.435849
v 0.209074 -0.324151 0.435849
v 0.224063 -0.310654 0.418950
v 0.209074 -0.324151 0.418950
v 0.224063 -0.310654 0.435849
v 0.224063 -0.310654 0.435849
v 0.209074 -0.324151 0.435849
v 0.224063 -0.310654 0.418950
v 0.209074 -0.324151 0.418950
v 0.224063 -0.310654 0.435849
v 0.238176 -0.296242 0.435849
v 0.224063 -0.310654 0.418950
v 0.224063 -0.310654 0.435849
v 0.238176 -0.296242 0.418950
v 0.238176 -0.296242 0.418950
v 0.238176 -0.296242 0.435849
v 0.224063 -0.310654 0.418950
v 0.224063 -0.310654 0.435849
v 0.238176 -0.296242 0.435849
v 0.251356 -0.280973 0.435849
v 0.238176 -0.296242 0.418950
v 0.238176 -0.296242 0.435849
v 0.251356 -0.280973 0.418950
v 0.251356 -0.280973 0.418950
v 0.251356 -0.280973 0.435849
v 0.238176 -0.296242 0.418950
v 0.238176 -0.296242 0.435849
v 0.251356 -0.280973 0.435849
v 0.263552 -0.264906 0.435849
v 0.251356 -0.280973 0.418950
v 0.251356 -0.280973 0.435849
v 0.263552 -0.264906 0.418950
v 0.263552 -0.264906 0.418950
v 0.263552 -0.264906 0.435849
v 0.251356 -0.280973 0.418950
v 0.251356 -0.280973 0.435849
v 0.263552 -0.264906 0.435849
v 0.274714 -0.248106 0.435849
v 0.263552 -0.264906 0.418950
v 0.263552 -0.264906 0.435849
v 0.274714 -0.248106 0.418950
v 0.274714 -0.248106 0.418950
v 0.274714 -0.248106 0.435849
v 0.263552 -0.264906 0.418950
v 0.263552 -0.264906 0.435849
v 0.274714 -0.248106 0.435849
v 0.284799 -0.230638 0.435849
v 0.274714 -0.248106 0.418950
v 0.274714 -0.248106 0.435849
v 0.284799 -0.230638 0.418950
v 0.284799 -0.230638 0.418950
v 0.284799 -0.230638 0.435849
v 0.274714 -0.248106 0.418950
v 0.274714 -0.248106 0.435849
v 0.284799 -0.230638 0.435849
v 0.293768 -0.212570 0.435849
v 0.284799 -0.230638 0.418950
v 0.284799 -0.230638 0.435849
v 0.293768 -0.212570 0.418950
v 0.293768 -0.212570 0.418950
v 0.293768 -0.212570 0.435849
v 0.284799 -0.230638 0.418950
v 0.284799 -0.230638 0.435849
v 0.293768 -0.212570 0.435849
v 0.301585 -0.193975 0.435849
v 0.293768 -0.212570 0.418950
v 0.293768 -0.212570 0.435849
v 0.301585 -0.193975 0.418950
v 0.301585 -0.193975 0.418950
v 0.301585 -0.193975 0.435849
v 0.293768 -0.212570 0.418950
v 0.293768 -0.212570 0.435849
v 0.301585 -0.193975 0.435849
v 0.308218 -0.174927 0.435849
v 0.301585 -0.193975 0.418950
v 0.301585 -0.193975 0.435849
v 0.308218 -0.174927 0.418950
v 0.308218 -0.174927 0.418950
v 0.308218 -0.174927 0.435849
v 0.301585 -0.193975 0.418950
v 0.301585 -0.193975 0.435849
v 0.308218 -0.174927 0.435849
v 0.313642 -0.155499 0.435849
v 0.308218 -0.174927 0.418950
v 0.308218 -0.174927 0.435849
v 0.313642 -0.155499 0.418950
v 0.313642 -0.155499 0.418950
v 0.313642 -0.155499 0.435849
v 0.308218 -0.174927 0.418950
v 0.308218 -0.174927 0.435849
v 0.313642 -0.155499 0.435849
v 0.317836 -0.135769 0.435849
v 0.313642 -0.155499 0.418950
v 0.313642 -0.155499 0.435849
v 0.317836 -0.135769 0.418950
v 0.317836 -0.135769 0.418950
v 0.317836 -0.135769 0.435849
v 0.313642 -0.155499 0.418950
v 0.313642 -0.155499 0.435849
v 0.317836 -0.135769 0.435849
v 0.320783 -0.115814 0.435849
v 0.317836 -0.135769 0.418950
v 0.317836 -0.135769 0.435849
v 0.320783 -0.115814 0.418950
v 0.320783 -0.115814 0.418950
v 0.320783 -0.115814 0.435849
v 0.317836 -0.135769 0.418950
v 0.317836 -0.135769 0.435849
v 0.320783 -0.115814 0.435849
v 0.322471 -0.095714 0.435849
v 0.320783 -0.115814 0.418950
v 0.320783 -0.115814 0.435849
v 0.322471 -0.095714 0.418950
v 0.322471 -0.095714 0.418950
v 0.322471 -0.095714 0.435849
v 0.320783 -0.115814 0.418950
v 0.320783 -0.115814 0.435849
v 0.322471 -0.095714 0.435849
v 0.322893 -0.075548 0.435849
v 0.322471 -0.095714 0.418950
v 0.322471 -0.095714 0.435849
v 0.322893 -0.075548 0.418950
v 0.322893 -0.075548 0.418950
v 0.322893 -0.075548 0.435849
v 0.322471 -0.095714 0.418950
v 0.322471 -0.095714 0.435849
v 0.322893 -0.075548 0.435849
v 0.322048 -0.055394 0.435849
v 0.322893 -0.075548 0.418950
v 0.322893 -0.075548 0.435849
v 0.322048 -0.055394 0.418950
v 0.322048 -0.055394 0.418950
v 0.322048 -0.055394 0.435849
v 0.322893 -0.075548 0.418950
v 0.322893 -0.075548 0.435849
v 0.322048 -0.055394 0.435849
v 0.319940 -0.035334 0.435849
v 0.322048 -0.055394 0.418950
v 0.322048 -0.055394 0.435849
v 0.319940 -0.035334 0.418950
v 0.319940 -0.035334 0.418950
v 0.319940 -0.035334 0.435849
v 0.322048 -0.055394 0.418950
v 0.322048 -0.055394 0.435849
v 0.319940 -0.035334 0.435849
v 0.316576 -0.015446 0.435849
v 0.319940 -0.035334 0.418950
v 0.319940 -0.035334 0.435849
v 0.316576 -0.015446 0.418950
v 0.316576 -0.015446 0.418950
v 0.316576 -0.015446 0.435849
v 0.319940 -0.035334 0.418950
v 0.319940 -0.035334 0.435849
v 0.316576 -0.015446 0.435849
v 0.311970 0.004192 0.435849
v 0.316576 -0.015446 0.418950
v 0.316576 -0.015446 0.435849
v 0.311970 0.004192 0.418950
v 0.311970 0.004192 0.418950
v 0.311970 0.004192 0.435849
v 0.316576 -0.015446 0.418950
v 0.316576 -0.015446 0.435849
v 0.311970 0.004192 0.435849
v 0.306140 0.023502 0.435849
v 0.311970 0.004192 0.418950
v 0.311970 0.004192 0.435849
v 0.306140 0.023502 0.418950
v 0.306140 0.023502 0.418950
v 0.306140 0.023502 0.435849
v 0.311970 0.004192 0.418950
v 0.311970 0.004192 0.435849
v 0.259599 0.112527 0.435849
v 0.271111 0.095963 0.418950
v 0.271111 0.095963 0.435849
v 0.259599 0.112527 0.418950
v 0.259599 0.112527 0.418950
v 0.259599 0.112527 0.435849
v 0.271111 0.095963 0.418950
v 0.271111 0.095963 0.435849
v 0.259599 0.112527 0.435849
v 0.247070 0.128335 0.435849
v 0.259599 0.112527 0.418950
v 0.259599 0.112527 0.435849
v 0.247070 0.128335 0.418950
v 0.247070 0.128335 0.418950
v 0.247070 0.128335 0.435849
v 0.259599 0.112527 0.418950
v 0.259599 0.112527 0.435849
v 0.247070 0.128335 0.435849
v 0.233573 0.143324 0.435849
v 0.247070 0.128335 0.418950
v 0.247070 0.128335 0.435849
v 0.233573 0.143324 0.418950
v 0.233573 0.143324 0.418950
v 0.233573 0.143324 0.435849
v 0.247070 0.128335 0.418950
v 0.247070 0.128335 0.435849
v 0.233573 0.143324 0.435849
v 0.233573 0.143324 0.435849
v 0.219162 0.157437 0.418950
v 0.233573 0.143324 0.418950
v 0.219162 0.157437 0.435849
v 0.219162 0.157437 0.435849
v 0.233573 0.143324 0.435849
v 0.219162 0.157437 0.418950
v 0.233573 0.143324 0.418950
v 0.219162 0.157437 0.435849
v 0.219162 0.157437 0.435849
v 0.203892 0.170617 0.418950
v 0.219162 0.157437 0.418950
v 0.203892 0.170617 0.435849
v 0.203892 0.170617 0.435849
v 0.219162 0.157437 0.435849
v 0.203892 0.170617 0.418950
v 0.219162 0.157437 0.418950
v 0.203892 0.170617 0.435849
v 0.203892 0.170617 0.435849
v 0.187826 0.182813 0.418950
v 0.203892 0.170617 0.418950
v 0.187826 0.182813 0.435849
v 0.187826 0.182813 0.435849
v 0.203892 0.170617 0.435849
v 0.187826 0.182813 0.418950
v 0.203892 0.170617 0.418950
v 0.187826 0.182813 0.435849
v 0.187826 0.182813 0.435849
v 0.171025 0.193975 0.418950
v 0.187826 0.182813 0.418950
v 0.171025 0.193975 0.435849
v 0.171025 0.193975 0.435849
v 0.187826 0.182813 0.435849
v 0.171025 0.193975 0.418950
v 0.187826 0.182813 0.418950
v 0.171025 0.193975 0.435849
v 0.171025 0.193975 0.435849
v 0.153556 0.204060 0.418950
v 0.171025 0.193975 0.418950
v 0.153556 0.204060 0.435849
v 0.153556 0.204060 0.435849
v 0.171025 0.193975 0.435849
v 0.153556 0.204060 0.418950
v 0.171025 0.193975 0.418950
v 0.153556 0.204060 0.435849
v 0.153556 0.204060 0.435849
v 0.135489 0.213029 0.418950
v 0.153556 0.204060 0.418950
v 0.135489 0.213029 0.435849
v 0.135489 0.213029 0.435849
v 0.153556 0.204060 0.435849
v 0.135489 0.213029 0.418950
v 0.153556 0.204060 0.418950
v 0.135489 0.213029 0.435849
v 0.135489 0.213029 0.435849
v 0.116894 0.220846 0.418950
v 0.135489 0.213029 0.418950
v 0.116894 0.220846 0.435849
v 0.116894 0.220846 0.435849
v 0.135489 0.213029 0.435849
v 0.116894 0.220846 0.418950
v 0.135489 0.213029 0.418950
v 0.116894 0.220846 0.435849
v 0.116894 0.220846 0.435849
v 0.097845 0.227479 0.418950
v 0.116894 0.220846 0.418950
v 0.097845 0.227479 0.435849
v 0.097845 0.227479 0.435849
v 0.116894 0.220846 0.435849
v 0.097845 0.227479 0.418950
v 0.116894 0.220846 0.418950
v 0.097845 0.227479 0.435849
v 0.097845 0.227479 0.435849
v 0.078418 0.232903 0.418950
v 0.097845 0.227479 0.418950
v 0.078418 0.232903 0.435849
v 0.078418 0.232903 0.435849
v 0.097845 0.227479 0.435849
v 0.078418 0.232903 0.418950
v 0.097845 0.227479 0.418950
v 0.078418 0.232903 0.435849
v 0.078418 0.232903 0.435849
v 0.058688 0.237097 0.418950
v 0.078418 0.232903 0.418950
v 0.058688 0.237097 0.435849
v 0.058688 0.237097 0.435849
v 0.078418 0.232903 0.435849
v 0.058688 0.237097 0.418950
v 0.078418 0.232903 0.418950
v 0.058688 0.237097 0.435849
v 0.058688 0.237097 0.435849
v 0.038733 0.240044 0.418950
v 0.058688 0.237097 0.418950
v 0.038733 0.240044 0.435849
v 0.038733 0.240044 0.435849
v 0.058688 0.237097 0.435849
v 0.038733 0.240044 0.418950
v 0.058688 0.237097 0.418950
v 0.038733 0.240044 0.435849
v 0.038733 0.240044 0.435849
v 0.018633 0.241732 0.418950
v 0.038733 0.240044 0.418950
v 0.018633 0.241732 0.435849
v 0.018633 0.241732 0.435849
v 0.038733 0.240044 0.435849
v 0.018633 0.241732 0.418950
v 0.038733 0.240044 0.418950
v 0.018633 0.241732 0.435849
v 0.018633 0.241732 0.435849
v -0.001533 0.242154 0.418950
v 0.018633 0.241732 0.418950
v -0.001533 0.242154 0.435849
v -0.001533 0.242154 0.435849
v 0.018633 0.241732 0.435849
v -0.001533 0.242154 0.418950
v 0.018633 0.241732 0.418950
v -0.001533 0.242154 0.435849
v -0.001533 0.242154 0.435849
v -0.021686 0.241309 0.418950
v -0.001533 0.242154 0.418950
v -0.021686 0.241309 0.435849
v -0.021686 0.241309 0.435849
v -0.001533 0.242154 0.435849
v -0.021686 0.241309 0.418950
v -0.001533 0.242154 0.418950
v -0.021686 0.241309 0.435849
v -0.021686 0.241309 0.435849
v -0.041747 0.239201 0.418950
v -0.021686 0.241309 0.418950
v -0.041747 0.239201 0.435849
v -0.041747 0.239201 0.435849
v -0.021686 0.241309 0.435849
v -0.041747 0.239201 0.418950
v -0.021686 0.241309 0.418950
v -0.041747 0.239201 0.435849
v -0.041747 0.239201 0.435849
v -0.061635 0.235837 0.418950
v -0.041747 0.239201 0.418950
v -0.061635 0.235837 0.435849
v -0.061635 0.235837 0.435849
v -0.041747 0.239201 0.435849
v -0.061635 0.235837 0.418950
v -0.041747 0.239201 0.418950
v -0.061635 0.235837 0.435849
v -0.061635 0.235837 0.435849
v -0.081273 0.231231 0.418950
v -0.061635 0.235837 0.418950
v -0.081273 0.231231 0.435849
v -0.081273 0.231231 0.435849
v -0.061635 0.235837 0.435849
v -0.081273 0.231231 0.418950
v -0.061635 0.235837 0.418950
v -0.081273 0.231231 0.435849
v -0.081273 0.231231 0.435849
v -0.100583 0.225401 0.418950
v -0.081273 0.231231 0.418950
v -0.100583 0.225401 0.435849
v -0.100583 0.225401 0.435849
v -0.081273 0.231231 0.435849
v -0.100583 0.225401 0.418950
v -0.081273 0.231231 0.418950
v -0.100583 0.225401 0.435849
v -0.100583 0.225401 0.435849
v -0.119489 0.218370 0.418950
v -0.100583 0.225401 0.418950
v -0.119489 0.218370 0.435849
v -0.119489 0.218370 0.435849
v -0.100583 0.225401 0.435849
v -0.119489 0.218370 0.418950
v -0.100583 0.225401 0.418950
v -0.119489 0.218370 0.435849
v -0.119489 0.218370 0.435849
v -0.137916 0.210166 0.418950
v -0.119489 0.218370 0.418950
v -0.137916 0.210166 0.435849
v -0.137916 0.210166 0.435849
v -0.119489 0.218370 0.435849
v -0.137916 0.210166 0.418950
v -0.119489 0.218370 0.418950
v -0.137916 0.210166 0.435849
v -0.137916 0.210166 0.435849
v -0.155791 0.200821 0.418950
v -0.137916 0.210166 0.418950
v -0.155791 0.200821 0.435849
v -0.155791 0.200821 0.435849
v -0.137916 0.210166 0.435849
v -0.155791 0.200821 0.418950
v -0.137916 0.210166 0.418950
v -0.155791 0.200821 0.435849
v -0.155791 0.200821 0.435849
v -0.173044 0.190372 0.418950
v -0.155791 0.200821 0.418950
v -0.173044 0.190372 0.435849
v -0.173044 0.190372 0.435849
v -0.155791 0.200821 0.435849
v -0.173044 0.190372 0.418950
v -0.155791 0.200821 0.418950
v -0.173044 0.190372 0.435849
v -0.173044 0.190372 0.435849
v -0.189608 0.178860 0.418950
v -0.173044 0.190372 0.418950
v -0.189608 0.178860 0.435849
v -0.189608 0.178860 0.435849
v -0.173044 0.190372 0.435849
v -0.189608 0.178860 0.418950
v -0.173044 0.190372 0.418950
v -0.189608 0.178860 0.435849
v -0.189608 0.178860 0.435849
v -0.205415 0.166331 0.418950
v -0.189608 0.178860 0.418950
v -0.205415 0.166331 0.435849
v -0.205415 0.166331 0.435849
v -0.189608 0.178860 0.435849
v -0.205415 0.166331 0.418950
v -0.189608 0.178860 0.418950
v -0.205415 0.166331 0.435849
v -0.205415 0.166331 0.435849
v -0.220405 0.152834 0.418950
v -0.205415 0.166331 0.418950
v -0.220405 0.152834 0.435849
v -0.220405 0.152834 0.435849
v -0.205415 0.166331 0.435849
v -0.220405 0.152834 0.418950
v -0.205415 0.166331 0.418950
v -0.220405 0.152834 0.435849
v -0.220405 0.152834 0.418950
v -0.234518 0.138422 0.435849
v -0.234518 0.138422 0.418950
v -0.220405 0.152834 0.435849
v -0.220405 0.152834 0.435849
v -0.220405 0.152834 0.418950
v -0.234518 0.138422 0.435849
v -0.234518 0.138422 0.418950
v -0.234518 0.138422 0.435849
v -0.234518 0.138422 0.418950
v -0.247698 0.123153 0.435849
v -0.247698 0.123153 0.418950
v -0.234518 0.138422 0.435849
v -0.234518 0.138422 0.435849
v -0.234518 0.138422 0.418950
v -0.247698 0.123153 0.435849
v -0.247698 0.123153 0.418950
v -0.247698 0.123153 0.435849
v -0.247698 0.123153 0.418950
v -0.259893 0.107087 0.435849
v -0.259893 0.107087 0.418950
v -0.247698 0.123153 0.435849
v -0.247698 0.123153 0.435849
v -0.247698 0.123153 0.418950
v -0.259893 0.107087 0.435849
v -0.259893 0.107087 0.418950
v -0.259893 0.107087 0.435849
v -0.259893 0.107087 0.418950
v -0.271056 0.090286 0.435849
v -0.271056 0.090286 0.418950
v -0.259893 0.107087 0.435849
v -0.259893 0.107087 0.435849
v -0.259893 0.107087 0.418950
v -0.271056 0.090286 0.435849
v -0.271056 0.090286 0.418950
v -0.271056 0.090286 0.435849
v -0.271056 0.090286 0.418950
v -0.281141 0.072817 0.435849
v -0.281141 0.072817 0.418950
v -0.271056 0.090286 0.435849
v -0.271056 0.090286 0.435849
v -0.271056 0.090286 0.418950
v -0.281141 0.072817 0.435849
v -0.281141 0.072817 0.418950
v -0.281141 0.072817 0.435849
v -0.281141 0.072817 0.418950
v -0.290110 0.054750 0.435849
v -0.290110 0.054750 0.418950
v -0.281141 0.072817 0.435849
v -0.281141 0.072817 0.435849
v -0.281141 0.072817 0.418950
v -0.290110 0.054750 0.435849
v -0.290110 0.054750 0.418950
v -0.290110 0.054750 0.435849
v -0.290110 0.054750 0.418950
v -0.297926 0.036155 0.435849
v -0.297926 0.036155 0.418950
v -0.290110 0.054750 0.435849
v -0.290110 0.054750 0.435849
v -0.290110 0.054750 0.418950
v -0.297926 0.036155 0.435849
v -0.297926 0.036155 0.418950
v -0.297926 0.036155 0.435849
v -0.297926 0.036155 0.418950
v -0.304560 0.017106 0.435849
v -0.304560 0.017106 0.418950
v -0.297926 0.036155 0.435849
v -0.297926 0.036155 0.435849
v -0.297926 0.036155 0.418950
v -0.304560 0.017106 0.435849
v -0.304560 0.017106 0.418950
v -0.304560 0.017106 0.435849
v -0.304560 0.017106 0.418950
v -0.309984 -0.002321 0.435849
v -0.309984 -0.002321 0.418950
v -0.304560 0.017106 0.435849
v -0.304560 0.017106 0.435849
v -0.304560 0.017106 0.418950
v -0.309984 -0.002321 0.435849
v -0.309984 -0.002321 0.418950
v -0.309984 -0.002321 0.435849
v -0.309984 -0.002321 0.418950
v -0.314178 -0.022051 0.435849
v -0.314178 -0.022051 0.418950
v -0.309984 -0.002321 0.435849
v -0.309984 -0.002321 0.435849
v -0.309984 -0.002321 0.418950
v -0.314178 -0.022051 0.435849
v -0.314178 -0.022051 0.418950
v -0.314178 -0.022051 0.435849
v -0.314178 -0.022051 0.418950
v -0.317125 -0.042006 0.435849
v -0.317125 -0.042006 0.418950
v -0.314178 -0.022051 0.435849
v -0.314178 -0.022051 0.435849
v -0.314178 -0.022051 0.418950
v -0.317125 -0.042006 0.435849
v -0.317125 -0.042006 0.418950
v -0.317125 -0.042006 0.435849
v -0.317125 -0.042006 0.418950
v -0.318812 -0.062106 0.435849
v -0.318812 -0.062106 0.418950
v -0.317125 -0.042006 0.435849
v -0.317125 -0.042006 0.435849
v -0.317125 -0.042006 0.418950
v -0.318812 -0.062106 0.435849
v -0.318812 -0.062106 0.418950
v -0.318812 -0.062106 0.435849
v -0.318812 -0.062106 0.418950
v -0.319235 -0.082272 0.435849
v -0.319235 -0.082272 0.418950
v -0.318812 -0.062106 0.435849
v -0.318812 -0.062106 0.435849
v -0.318812 -0.062106 0.418950
v -0.319235 -0.082272 0.435849
v -0.319235 -0.082272 0.418950
v -0.319235 -0.082272 0.435849
v -0.319235 -0.082272 0.418950
v -0.318390 -0.102425 0.435849
v -0.318390 -0.102425 0.418950
v -0.319235 -0.082272 0.435849
v -0.319235 -0.082272 0.435849
v -0.319235 -0.082272 0.418950
v -0.318390 -0.102425 0.435849
v -0.318390 -0.102425 0.418950
v -0.318390 -0.102425 0.435849
v -0.318390 -0.102425 0.418950
v -0.316282 -0.122486 0.435849
v -0.316282 -0.122486 0.418950
v -0.318390 -0.102425 0.435849
v -0.318390 -0.102425 0.435849
v -0.318390 -0.102425 0.418950
v -0.316282 -0.122486 0.435849
v -0.316282 -0.122486 0.418950
v -0.316282 -0.122486 0.435849
v -0.316282 -0.122486 0.418950
v -0.312918 -0.142374 0.435849
v -0.312918 -0.142374 0.418950
v -0.316282 -0.122486 0.435849
v -0.316282 -0.122486 0.435849
v -0.316282 -0.122486 0.418950
v -0.312918 -0.142374 0.435849
v -0.312918 -0.142374 0.418950
v -0.312918 -0.142374 0.435849
v -0.312918 -0.142374 0.418950
v -0.308312 -0.162012 0.435849
v -0.308312 -0.162012 0.418950
v -0.312918 -0.142374 0.435849
v -0.312918 -0.142374 0.435849
v -0.312918 -0.142374 0.418950
v -0.308312 -0.162012 0.435849
v -0.308312 -0.162012 0.418950
v -0.308312 -0.162012 0.435849
v -0.308312 -0.162012 0.418950
v -0.302482 -0.181322 0.435849
v -0.302482 -0.181322 0.418950
v -0.308312 -0.162012 0.435849
v -0.308312 -0.162012 0.435849
v -0.308312 -0.162012 0.418950
v -0.302482 -0.181322 0.435849
v -0.302482 -0.181322 0.418950
v -0.302482 -0.181322 0.435849
v -0.302482 -0.181322 0.418950
v -0.295451 -0.200228 0.435849
v -0.295451 -0.200228 0.418950
v -0.302482 -0.181322 0.435849
v -0.302482 -0.181322 0.435849
v -0.302482 -0.181322 0.418950
v -0.295451 -0.200228 0.435849
v -0.295451 -0.200228 0.418950
v -0.295451 -0.200228 0.435849
v -0.295451 -0.200228 0.418950
v -0.287247 -0.218655 0.435849
v -0.287247 -0.218655 0.418950
v -0.295451 -0.200228 0.435849
v -0.295451 -0.200228 0.435849
v -0.295451 -0.200228 0.418950
v -0.287247 -0.218655 0.435849
v -0.287247 -0.218655 0.418950
v -0.287247 -0.218655 0.435849
v -0.287247 -0.218655 0.418950
v -0.277902 -0.236530 0.435849
v -0.277902 -0.236530 0.418950
v -0.287247 -0.218655 0.435849
v -0.287247 -0.218655 0.435849
v -0.287247 -0.218655 0.418950
v -0.277902 -0.236530 0.435849
v -0.277902 -0.236530 0.418950
v -0.277902 -0.236530 0.435849
v -0.277902 -0.236530 0.418950
v -0.267453 -0.253784 0.435849
v -0.267453 -0.253784 0.418950
v -0.277902 -0.236530 0.435849
v -0.277902 -0.236530 0.435849
v -0.277902 -0.236530 0.418950
v -0.267453 -0.253784 0.435849
v -0.267453 -0.253784 0.418950
v -0.267453 -0.253784 0.435849
v -0.267453 -0.253784 0.418950
v -0.255941 -0.270347 0.435849
v -0.255941 -0.270347 0.418950
v -0.267453 -0.253784 0.435849
v -0.267453 -0.253784 0.435849
v -0.267453 -0.253784 0.418950
v -0.255941 -0.270347 0.435849
v -0.255941 -0.270347 0.418950
v -0.255941 -0.270347 0.435849
v -0.255941 -0.270347 0.418950
v -0.243412 -0.286154 0.435849
v -0.243412 -0.286154 0.418950
v -0.255941 -0.270347 0.435849
v -0.255941 -0.270347 0.435849
v -0.255941 -0.270347 0.418950
v -0.243412 -0.286154 0.435849
v -0.243412 -0.286154 0.418950
v -0.243412 -0.286154 0.435849
v -0.243412 -0.286154 0.418950
v -0.229915 -0.301145 0.435849
v -0.229915 -0.301145 0.418950
v -0.243412 -0.286154 0.435849
v -0.243412 -0.286154 0.435849
v -0.243412 -0.286154 0.418950
v -0.229915 -0.301145 0.435849
v -0.229915 -0.301145 0.418950
v -0.229915 -0.301145 0.435849
v -0.229915 -0.301145 0.435849
v -0.215503 -0.315257 0.418950
v -0.229915 -0.301145 0.418950
v -0.215503 -0.315257 0.435849
v -0.215503 -0.315257 0.435849
v -0.229915 -0.301145 0.435849
v -0.215503 -0.315257 0.418950
v -0.229915 -0.301145 0.418950
v -0.215503 -0.315257 0.435849
v -0.215503 -0.315257 0.435849
v -0.200234 -0.328437 0.418950
v -0.215503 -0.315257 0.418950
v -0.200234 -0.328437 0.435849
v -0.200234 -0.328437 0.435849
v -0.215503 -0.315257 0.435849
v -0.200234 -0.328437 0.418950
v -0.215503 -0.315257 0.418950
v -0.200234 -0.328437 0.435849
v -0.200234 -0.328437 0.435849
v -0.184167 -0.340633 0.418950
v -0.200234 -0.328437 0.418950
v -0.184167 -0.340633 0.435849
v -0.184167 -0.340633 0.435849
v -0.200234 -0.328437 0.435849
v -0.184167 -0.340633 0.418950
v -0.200234 -0.328437 0.418950
v -0.184167 -0.340633 0.435849
v -0.184167 -0.340633 0.435849
v -0.167367 -0.351795 0.418950
v -0.184167 -0.340633 0.418950
v -0.167367 -0.351795 0.435849
v -0.167367 -0.351795 0.435849
v -0.184167 -0.340633 0.435849
v -0.167367 -0.351795 0.418950
v -0.184167 -0.340633 0.418950
v -0.167367 -0.351795 0.435849
v -0.167367 -0.351795 0.435849
v -0.149898 -0.361880 0.418950
v -0.167367 -0.351795 0.418950
v -0.149898 -0.361880 0.435849
v -0.149898 -0.361880 0.435849
v -0.167367 -0.351795 0.435849
v -0.149898 -0.361880 0.418950
v -0.167367 -0.351795 0.418950
v -0.149898 -0.361880 0.435849
v -0.149898 -0.361880 0.435849
v -0.131831 -0.370849 0.418950
v -0.149898 -0.361880 0.418950
v -0.131831 -0.370849 0.435849
v -0.131831 -0.370849 0.435849
v -0.149898 -0.361880 0.435849
v -0.131831 -0.370849 0.418950
v -0.149898 -0.361880 0.418950
v -0.131831 -0.370849 0.435849
v -0.131831 -0.370849 0.435849
v -0.113236 -0.378665 0.418950
v -0.131831 -0.370849 0.418950
v -0.113236 -0.378665 0.435849
v -0.113236 -0.378665 0.435849
v -0.131831 -0.370849 0.435849
v -0.113236 -0.378665 0.418950
v -0.131831 -0.370849 0.418950
v -0.113236 -0.378665 0.435849
v -0.113236 -0.378665 0.435849
v -0.094187 -0.385299 0.418950
v -0.113236 -0.378665 0.418950
v -0.094187 -0.385299 0.435849
v -0.094187 -0.385299 0.435849
v -0.113236 -0.378665 0.435849
v -0.094187 -0.385299 0.418950
v -0.113236 -0.378665 0.418950
v -0.094187 -0.385299 0.435849
v -0.094187 -0.385299 0.435849
v -0.074760 -0.390723 0.418950
v -0.094187 -0.385299 0.418950
v -0.074760 -0.390723 0.435849
v -0.074760 -0.390723 0.435849
v -0.094187 -0.385299 0.435849
v -0.074760 -0.390723 0.418950
v -0.094187 -0.385299 0.418950
v -0.074760 -0.390723 0.435849
v -0.074760 -0.390723 0.435849
v -0.055030 -0.394917 0.418950
v -0.074760 -0.390723 0.418950
v -0.055030 -0.394917 0.435849
v -0.055030 -0.394917 0.435849
v -0.074760 -0.390723 0.435849
v -0.055030 -0.394917 0.418950
v -0.074760 -0.390723 0.418950
v -0.055030 -0.394917 0.435849
v -0.055030 -0.394917 0.435849
v -0.035075 -0.397864 0.418950
v -0.055030 -0.394917 0.418950
v -0.035075 -0.397864 0.435849
v -0.035075 -0.397864 0.435849
v -0.055030 -0.394917 0.435849
v -0.035075 -0.397864 0.418950
v -0.055030 -0.394917 0.418950
v -0.035075 -0.397864 0.435849
v -0.035075 -0.397864 0.435849
v -0.014975 -0.399552 0.418950
v -0.035075 -0.397864 0.418950
v -0.014975 -0.399552 0.435849
v -0.014975 -0.399552 0.435849
v -0.035075 -0.397864 0.435849
v -0.014975 -0.399552 0.418950
v -0.035075 -0.397864 0.418950
vn -0.9135454806557615 -0.40673659138739143 0
vn 0.9135454806557615 0.40673659138739143 0
vn -0.8862035981084162 -0.46329599901110396 0
vn 0.8862035981084162 0.46329599901110396 0
vn 0 0 1
vn 0 0 -1
vn -0.9372820062291763 -0.34857200231660956 0
vn 0.9372820062291763 0.34857200231660956 0
vn -0.8553642750047636 -0.5180269848623478 0
vn 0.8553642750047636 0.5180269848623478 0
vn 0.02094241965394802 0.9997806834796508 0
vn -0.02094241965394802 -0.9997806834796508 0
vn -0.041875651265843125 0.9991228302021037 0
vn 0.041875651265843125 -0.9991228302021037 0
vn -0.10452849911715961 0.9945218916003378 0
vn 0.10452849911715961 -0.9945218916003378 0
vn -0.16676870739488403 0.9859960437211903 0
vn 0.16676870739488403 -0.9859960437211903 0
vn -0.22835089908020031 0.9735788960784145 0
vn 0.22835089908020031 -0.9735788960784145 0
vn -0.2890317990618765 0.957319496892785 0
vn 0.2890317990618765 -0.957319496892785 0
vn -0.34857200231660956 0.9372820062291763 0
vn 0.34857200231660956 -0.9372820062291763 0
vn -0.40673659138739143 0.9135454806557615 0
vn 0.40673659138739143 -0.9135454806557615 0
vn -0.46329599901110396 0.8862035981084162 0
vn 0.46329599901110396 -0.8862035981084162 0
vn -0.5180269848623478 0.8553642750047636 0
vn 0.5180269848623478 -0.8553642750047636 0
vn -0.5707135937547954 0.8211491910143286 0
vn 0.5707135937547954 -0.8211491910143286 0
vn -0.621147771617557 0.7836934641902682 0
vn 0.621147771617557 -0.7836934641902682 0
vn -0.6691306155160015 0.7431448172322651 0
vn 0.6691306155160015 -0.7431448172322651 0
vn -0.7144727098553723 0.6996633096510927 0
vn 0.7144727098553723 -0.6996633096510927 0
vn -0.7569950765602648 0.6534205797673647 0
vn 0.7569950765602648 -0.6534205797673647 0
vn -0.7965299185930715 0.6045991141129093 0
vn 0.7965299185930715 -0.6045991141129093 0
vn -0.8329212509407615 0.5533915338449596 0
vn 0.8329212509407615 -0.5533915338449596 0
vn -0.866025402838329 0.5000000016387101 0
vn 0.866025402838329 -0.5000000016387101 0
vn -0.8957117598101846 0.4446351800496024 0
vn 0.8957117598101846 -0.4446351800496024 0
vn -0.9218631540185733 0.38751558067118835 0
vn 0.9218631540185733 -0.38751558067118835 0
vn -0.9443763879721767 0.3288665958114695 0
vn 0.9443763879721767 -0.3288665958114695 0
vn -0.9631625745384124 0.26891979289099777 0
vn 0.9631625745384124 -0.26891979289099777 0
vn -0.9781475988347083 0.20791169975230958 0
vn 0.9781475988347083 -0.20791169975230958 0
vn -0.9892723363872724 0.146083005373204 0
vn 0.9892723363872724 -0.146083005373204 0
vn -0.9964928598127015 0.08367783662537855 0
vn 0.9964928598127015 -0.08367783662537855 0
vn -0.9997806834796508 0.02094241965394802 0
vn 0.9997806834796508 -0.02094241965394802 0
vn -0.9991228302021037 -0.041875651265843125 0
vn 0.9991228302021037 0.041875651265843125 0
vn -0.9945218916003378 -0.10452849911715961 0
vn 0.9945218916003378 0.10452849911715961 0
vn -0.9859960437211903 -0.16676870739488403 0
vn 0.9859960437211903 0.16676870739488403 0
vn -0.9735788960784145 -0.22835089908020031 0
vn 0.9735788960784145 0.22835089908020031 0
vn -0.957319496892785 -0.2890317990618765 0
vn 0.957319496892785 0.2890317990618765 0
vn -0.8211491910143286 -0.5707135937547954 0
vn 0.8211491910143286 0.5707135937547954 0
vn -0.7836934641902682 -0.621147771617557 0
vn 0.7836934641902682 0.621147771617557 0
vn -0.7431448172322651 -0.6691306155160015 0
vn 0.7431448172322651 0.6691306155160015 0
vn -0.6996633096510927 -0.7144727098553723 0
vn 0.6996633096510927 0.7144727098553723 0
vn -0.6534205797673647 -0.7569950765602648 0
vn 0.6534205797673647 0.7569950765602648 0
vn -0.6045991141129093 -0.7965299185930715 0
vn 0.6045991141129093 0.7965299185930715 0
vn -0.5533915338449596 -0.8329212509407615 0
vn 0.5533915338449596 0.8329212509407615 0
vn -0.5000000016387101 -0.866025402838329 0
vn 0.5000000016387101 0.866025402838329 0
vn -0.4446351800496024 -0.8957117598101846 0
vn 0.4446351800496024 0.8957117598101846 0
vn -0.38751558067118835 -0.9218631540185733 0
vn 0.38751558067118835 0.9218631540185733 0
vn -0.3288665958114695 -0.9443763879721767 0
vn 0.3288665958114695 0.9443763879721767 0
vn -0.26891979289099777 -0.9631625745384124 0
vn 0.26891979289099777 0.9631625745384124 0
vn -0.20791169975230958 -0.9781475988347083 0
vn 0.20791169975230958 0.9781475988347083 0
vn -0.146083005373204 -0.9892723363872724 0
vn 0.146083005373204 0.9892723363872724 0
vn -0.08367783662537855 -0.9964928598127015 0
vn 0.08367783662537855 0.9964928598127015 0
usemtl material_0_0
f 1//1 2//1 3//1
f 2//1 1//1 4//1
f 5//2 6//2 7//2
f 8//2 7//2 6//2
f 13//3 14//3 15//3
f 14//3 13//3 16//3
f 17//4 18//4 19//4
f 20//4 19//4 18//4
f 23//5 24//5 25//5
f 24//5 23//5 26//5
f 26//5 23//5 27//5
f 26//5 27//5 28//5
f 28//5 27//5 29//5
f 28//5 29//5 30//5
f 30//5 29//5 31//5
f 30//5 31//5 32//5
f 32//5 31//5 33//5
f 32//5 33//5 34//5
f 34//5 33//5 35//5
f 34//5 35//5 36//5
f 36//5 35//5 37//5
f 36//5 37//5 38//5
f 38//5 37//5 39//5
f 38//5 39//5 40//5
f 40//5 39//5 41//5
f 40//5 41//5 42//5
f 42//5 41//5 43//5
f 43//5 41//5 44//5
f 44//5 41//5 45//5
f 44//5 45//5 46//5
f 46//5 45//5 47//5
f 47//5 45//5 48//5
f 48//5 45//5 49//5
f 48//5 49//5 50//5
f 50//5 49//5 51//5
f 51//5 49//5 52//5
f 51//5 52//5 53//5
f 53//5 52//5 54//5
f 54//5 52//5 55//5
f 54//5 55//5 56//5
f 56//5 55//5 57//5
f 56//5 57//5 58//5
f 58//5 57//5 59//5
f 59//5 57//5 60//5
f 59//5 60//5 61//5
f 61//5 60//5 62//5
f 61//5 62//5 63//5
f 63//5 62//5 64//5
f 64//5 62//5 65//5
f 64//5 65//5 66//5
f 66//5 65//5 67//5
f 66//5 67//5 68//5
f 68//5 67//5 69//5
f 68//5 69//5 70//5
f 70//5 69//5 71//5
f 70//5 71//5 72//5
f 72//5 71//5 73//5
f 73//5 71//5 74//5
f 73//5 74//5 75//5
f 75//5 74//5 76//5
f 75//5 76//5 77//5
f 77//5 76//5 78//5
f 77//5 78//5 79//5
f 79//5 78//5 80//5
f 79//5 80//5 81//5
f 81//5 80//5 82//5
f 81//5 82//5 83//5
f 83//5 82//5 84//5
f 84//5 82//5 85//5
f 84//5 85//5 86//5
f 86//5 85//5 87//5
f 86//5 87//5 88//5
f 88//5 87//5 89//5
f 88//5 89//5 90//5
f 90//5 89//5 91//5
f 90//5 91//5 92//5
f 92//5 91//5 93//5
f 92//5 93//5 94//5
f 94//5 93//5 95//5
f 95//5 93//5 96//5
f 95//5 96//5 97//5
f 97//5 96//5 98//5
f 97//5 98//5 99//5
f 99//5 98//5 100//5
f 99//5 100//5 101//5
f 101//5 100//5 102//5
f 101//5 102//5 103//5
f 103//5 102//5 104//5
f 104//5 102//5 105//5
f 104//5 105//5 106//5
f 106//5 105//5 107//5
f 106//5 107//5 108//5
f 108//5 107//5 109//5
f 108//5 109//5 110//5
f 110//5 109//5 111//5
f 111//5 109//5 112//5
f 111//5 112//5 113//5
f 113//5 112//5 114//5
f 113//5 114//5 115//5
f 115//5 114//5 116//5
f 116//5 114//5 117//5
f 116//5 117//5 118//5
f 118//5 117//5 119//5
f 119//5 117//5 120//5
f 119//5 120//5 121//5
f 121//5 120//5 122//5
f 122//5 120//5 123//5
f 123//5 120//5 124//5
f 40//5 125//5 126//5
f 125//5 40//5 42//5
f 126//5 125//5 127//5
f 126//5 127//5 128//5
f 126//5 128//5 129//5
f 126//5 129//5 130//5
f 126//5 130//5 131//5
f 131//5 130//5 132//5
f 131//5 132//5 133//5
f 131//5 133//5 134//5
f 134//5 133//5 135//5
f 134//5 135//5 136//5
f 134//5 136//5 137//5
f 137//5 136//5 138//5
f 137//5 138//5 139//5
f 139//5 138//5 140//5
f 139//5 140//5 141//5
f 139//5 141//5 142//5
f 142//5 141//5 143//5
f 142//5 143//5 144//5
f 144//5 143//5 145//5
f 144//5 145//5 146//5
f 146//5 145//5 147//5
f 146//5 147//5 148//5
f 146//5 148//5 149//5
f 149//5 148//5 150//5
f 149//5 150//5 151//5
f 151//5 150//5 152//5
f 151//5 152//5 153//5
f 153//5 152//5 154//5
f 153//5 154//5 155//5
f 155//5 154//5 156//5
f 155//5 156//5 157//5
f 155//5 157//5 158//5
f 158//5 157//5 159//5
f 158//5 159//5 160//5
f 160//5 159//5 161//5
f 160//5 161//5 162//5
f 162//5 161//5 163//5
f 162//5 163//5 164//5
f 164//5 163//5 165//5
f 164//5 165//5 166//5
f 166//5 165//5 167//5
f 166//5 167//5 168//5
f 166//5 168//5 169//5
f 169//5 168//5 170//5
f 169//5 170//5 171//5
f 171//5 170//5 172//5
f 171//5 172//5 173//5
f 173//5 172//5 174//5
f 173//5 174//5 175//5
f 175//5 174//5 176//5
f 175//5 176//5 177//5
f 177//5 176//5 178//5
f 177//5 178//5 179//5
f 177//5 179//5 180//5
f 180//5 179//5 181//5
f 180//5 181//5 182//5
f 182//5 181//5 183//5
f 182//5 183//5 184//5
f 184//5 183//5 185//5
f 184//5 185//5 186//5
f 186//5 185//5 187//5
f 186//5 187//5 188//5
f 186//5 188//5 189//5
f 189//5 188//5 190//5
f 189//5 190//5 191//5
f 191//5 190//5 192//5
f 191//5 192//5 193//5
f 191//5 193//5 194//5
f 194//5 193//5 195//5
f 194//5 195//5 196//5
f 196//5 195//5 197//5
f 196//5 197//5 198//5
f 196//5 198//5 199//5
f 199//5 198//5 200//5
f 199//5 200//5 201//5
f 199//5 201//5 202//5
f 202//5 201//5 203//5
f 202//5 203//5 204//5
f 202//5 204//5 205//5
f 202//5 205//5 206//5
f 206//5 205//5 124//5
f 206//5 124//5 120//5
f 206//5 120//5 207//5
f 206//5 207//5 208//5
f 208//5 207//5 209//5
f 208//5 209//5 210//5
f 210//5 209//5 211//5
f 210//5 211//5 212//5
f 212//5 211//5 213//5
f 212//5 213//5 214//5
f 214//5 213//5 215//5
f 214//5 215//5 216//5
f 216//5 215//5 217//5
f 216//5 217//5 218//5
f 218//5 217//5 219//5
f 218//5 219//5 220//5
f 220//5 219//5 221//5
f 220//5 221//5 222//5
f 223//6 224//6 225//6
f 224//6 226//6 225//6
f 225//6 226//6 227//6
f 226//6 228//6 227//6
f 227//6 228//6 229//6
f 228//6 230//6 229//6
f 229//6 230//6 231//6
f 230//6 232//6 231//6
f 231//6 232//6 233//6
f 232//6 234//6 233//6
f 233//6 234//6 235//6
f 234//6 236//6 235//6
f 235//6 236//6 237//6
f 236//6 238//6 237//6
f 237//6 238//6 239//6
f 238//6 240//6 239//6
f 240//6 241//6 239//6
f 241//6 242//6 239//6
f 239//6 242//6 243//6
f 242//6 244//6 243//6
f 244//6 245//6 243//6
f 245//6 246//6 243//6
f 243//6 246//6 247//6
f 246//6 248//6 247//6
f 248//6 249//6 247//6
f 247//6 249//6 250//6
f 249//6 251//6 250//6
f 251//6 252//6 250//6
f 250//6 252//6 253//6
f 252//6 254//6 253//6
f 253//6 254//6 255//6
f 254//6 256//6 255//6
f 256//6 257//6 255//6
f 255//6 257//6 258//6
f 257//6 259//6 258//6
f 258//6 259//6 260//6
f 259//6 261//6 260//6
f 261//6 262//6 260//6
f 260//6 262//6 263//6
f 262//6 264//6 263//6
f 263//6 264//6 265//6
f 264//6 266//6 265//6
f 265//6 266//6 267//6
f 266//6 268//6 267//6
f 267//6 268//6 269//6
f 268//6 270//6 269//6
f 270//6 271//6 269//6
f 269//6 271//6 272//6
f 271//6 273//6 272//6
f 272//6 273//6 274//6
f 273//6 275//6 274//6
f 274//6 275//6 276//6
f 275//6 277//6 276//6
f 276//6 277//6 278//6
f 277//6 279//6 278//6
f 278//6 279//6 280//6
f 279//6 281//6 280//6
f 281//6 282//6 280//6
f 280//6 282//6 283//6
f 282//6 284//6 283//6
f 283//6 284//6 285//6
f 284//6 286//6 285//6
f 285//6 286//6 287//6
f 286//6 288//6 287//6
f 287//6 288//6 289//6
f 288//6 290//6 289//6
f 289//6 290//6 291//6
f 290//6 292//6 291//6
f 292//6 293//6 291//6
f 291//6 293//6 294//6
f 293//6 295//6 294//6
f 294//6 295//6 296//6
f 295//6 297//6 296//6
f 296//6 297//6 298//6
f 297//6 299//6 298//6
f 298//6 299//6 300//6
f 299//6 301//6 300//6
f 301//6 302//6 300//6
f 300//6 302//6 303//6
f 302//6 304//6 303//6
f 303//6 304//6 305//6
f 304//6 306//6 305//6
f 305//6 306//6 307//6
f 306//6 308//6 307//6
f 308//6 309//6 307//6
f 307//6 309//6 310//6
f 309//6 311//6 310//6
f 310//6 311//6 312//6
f 311//6 313//6 312//6
f 313//6 314//6 312//6
f 312//6 314//6 315//6
f 314//6 316//6 315//6
f 316//6 317//6 315//6
f 315//6 317//6 318//6
f 317//6 319//6 318//6
f 319//6 320//6 318//6
f 320//6 321//6 318//6
f 321//6 322//6 318//6
f 323//6 324//6 322//6
f 318//6 322//6 324//6
f 241//6 240//6 325//6
f 325//6 240//6 326//6
f 326//6 240//6 327//6
f 327//6 240//6 328//6
f 240//6 329//6 328//6
f 328//6 329//6 330//6
f 330//6 329//6 331//6
f 329//6 332//6 331//6
f 331//6 332//6 333//6
f 333//6 332//6 334//6
f 332//6 335//6 334//6
f 334//6 335//6 336//6
f 335//6 337//6 336//6
f 336//6 337//6 338//6
f 338//6 337//6 339//6
f 337//6 340//6 339//6
f 339//6 340//6 341//6
f 340//6 342//6 341//6
f 341//6 342//6 343//6
f 342//6 344//6 343//6
f 343//6 344//6 345//6
f 345//6 344//6 346//6
f 344//6 347//6 346//6
f 346//6 347//6 348//6
f 347//6 349//6 348//6
f 348//6 349//6 350//6
f 349//6 351//6 350//6
f 350//6 351//6 352//6
f 351//6 353//6 352//6
f 352//6 353//6 354//6
f 354//6 353//6 355//6
f 353//6 356//6 355//6
f 355//6 356//6 357//6
f 356//6 358//6 357//6
f 357//6 358//6 359//6
f 358//6 360//6 359//6
f 359//6 360//6 361//6
f 360//6 362//6 361//6
f 361//6 362//6 363//6
f 362//6 364//6 363//6
f 363//6 364//6 365//6
f 365//6 364//6 366//6
f 364//6 367//6 366//6
f 366//6 367//6 368//6
f 367//6 369//6 368//6
f 368//6 369//6 370//6
f 369//6 371//6 370//6
f 370//6 371//6 372//6
f 371//6 373//6 372//6
f 372//6 373//6 374//6
f 373//6 375//6 374//6
f 374//6 375//6 376//6
f 376//6 375//6 377//6
f 375//6 378//6 377//6
f 377//6 378//6 379//6
f 378//6 380//6 379//6
f 379//6 380//6 381//6
f 380//6 382//6 381//6
f 381//6 382//6 383//6
f 382//6 384//6 383//6
f 383//6 384//6 385//6
f 385//6 384//6 386//6
f 384//6 387//6 386//6
f 386//6 387//6 388//6
f 387//6 389//6 388//6
f 388//6 389//6 390//6
f 390//6 389//6 391//6
f 389//6 392//6 391//6
f 391//6 392//6 393//6
f 392//6 394//6 393//6
f 393//6 394//6 395//6
f 395//6 394//6 396//6
f 394//6 397//6 396//6
f 396//6 397//6 398//6
f 398//6 397//6 399//6
f 397//6 400//6 399//6
f 399//6 400//6 401//6
f 401//6 400//6 402//6
f 402//6 400//6 403//6
f 400//6 404//6 403//6
f 403//6 404//6 405//6
f 405//6 404//6 323//6
f 323//6 404//6 324//6
f 404//6 406//6 324//6
f 324//6 406//6 407//6
f 406//6 408//6 407//6
f 407//6 408//6 409//6
f 408//6 410//6 409//6
f 409//6 410//6 411//6
f 410//6 412//6 411//6
f 411//6 412//6 413//6
f 412//6 414//6 413//6
f 413//6 414//6 415//6
f 414//6 416//6 415//6
f 415//6 416//6 417//6
f 416//6 418//6 417//6
f 417//6 418//6 419//6
f 418//6 420//6 419//6
f 419//6 420//6 421//6
f 422//6 421//6 420//6
f 620//7 621//7 622//7
f 621//7 620//7 623//7
f 624//8 625//8 626//8
f 627//8 626//8 625//8
f 629//9 630//9 631//9
f 630//9 629//9 632//9
f 633//10 634//10 635//10
f 636//10 635//10 634//10
f 638//11 639//11 640//11
f 639//11 638//11 641//11
f 642//12 643//12 644//12
f 645//12 644//12 643//12
f 648//13 649//13 650//13
f 649//13 648//13 651//13
f 652//14 653//14 654//14
f 655//14 654//14 653//14
f 657//15 658//15 659//15
f 658//15 657//15 660//15
f 661//16 662//16 663//16
f 664//16 663//16 662//16
f 666//17 667//17 668//17
f 667//17 666//17 669//17
f 670//18 671//18 672//18
f 673//18 672//18 671//18
f 675//19 676//19 677//19
f 676//19 675//19 678//19
f 679//20 680//20 681//20
f 682//20 681//20 680//20
f 684//21 685//21 686//21
f 685//21 684//21 687//21
f 688//22 689//22 690//22
f 691//22 690//22 689//22
f 693//23 694//23 695//23
f 694//23 693//23 696//23
f 697//24 698//24 699//24
f 700//24 699//24 698//24
f 702//25 703//25 704//25
f 703//25 702//25 705//25
f 706//26 707//26 708//26
f 709//26 708//26 707//26
f 711//27 712//27 713//27
f 712//27 711//27 714//27
f 715//28 716//28 717//28
f 718//28 717//28 716//28
f 720//29 721//29 722//29
f 721//29 720//29 723//29
f 724//30 725//30 726//30
f 727//30 726//30 725//30
f 729//31 730//31 731//31
f 730//31 729//31 732//31
f 733//32 734//32 735//32
f 736//32 735//32 734//32
f 738//33 739//33 740//33
f 739//33 738//33 741//33
f 742//34 743//34 744//34
f 745//34 744//34 743//34
f 747//35 748//35 749//35
f 748//35 747//35 750//35
f 751//36 752//36 753//36
f 754//36 753//36 752//36
f 756//37 757//37 758//37
f 757//37 756//37 759//37
f 760//38 761//38 762//38
f 763//38 762//38 761//38
f 765//39 766//39 767//39
f 766//39 765//39 768//39
f 769//40 770//40 771//40
f 772//40 771//40 770//40
f 774//41 775//41 776//41
f 775//41 774//41 777//41
f 778//42 779//42 780//42
f 781//42 780//42 779//42
f 783//43 784//43 785//43
f 784//43 783//43 786//43
f 787//44 788//44 789//44
f 790//44 789//44 788//44
f 792//45 793//45 794//45
f 793//45 792//45 795//45
f 796//46 797//46 798//46
f 799//46 798//46 797//46
f 801//47 802//47 803//47
f 802//47 801//47 804//47
f 805//48 806//48 807//48
f 808//48 807//48 806//48
f 810//49 811//49 812//49
f 811//49 810//49 813//49
f 814//50 815//50 816//50
f 817//50 816//50 815//50
f 819//51 820//51 821//51
f 820//51 819//51 822//51
f 823//52 824//52 825//52
f 826//52 825//52 824//52
f 828//53 829//53 830//53
f 829//53 828//53 831//53
f 832//54 833//54 834//54
f 835//54 834//54 833//54
f 837//55 838//55 839//55
f 838//55 837//55 840//55
f 841//56 842//56 843//56
f 844//56 843//56 842//56
f 846//57 847//57 848//57
f 847//57 846//57 849//57
f 850//58 851//58 852//58
f 853//58 852//58 851//58
f 855//59 856//59 857//59
f 856//59 855//59 858//59
f 859//60 860//60 861//60
f 862//60 861//60 860//60
f 864//61 865//61 866//61
f 865//61 864//61 867//61
f 868//62 869//62 870//62
f 871//62 870//62 869//62
f 873//63 874//63 875//63
f 874//63 873//63 876//63
f 877//64 878//64 879//64
f 880//64 879//64 878//64
f 882//65 883//65 884//65
f 883//65 882//65 885//65
f 886//66 887//66 888//66
f 889//66 888//66 887//66
f 891//67 892//67 893//67
f 892//67 891//67 894//67
f 895//68 896//68 897//68
f 898//68 897//68 896//68
f 900//69 901//69 902//69
f 901//69 900//69 903//69
f 904//70 905//70 906//70
f 907//70 906//70 905//70
f 909//71 910//71 911//71
f 910//71 909//71 912//71
f 913//72 914//72 915//72
f 916//72 915//72 914//72
f 917//73 918//73 919//73
f 918//73 917//73 920//73
f 921//74 922//74 923//74
f 924//74 923//74 922//74
f 926//75 927//75 928//75
f 927//75 926//75 929//75
f 930//76 931//76 932//76
f 933//76 932//76 931//76
f 935//77 936//77 937//77
f 936//77 935//77 938//77
f 939//78 940//78 941//78
f 942//78 941//78 940//78
f 944//79 945//79 946//79
f 945//79 944//79 947//79
f 948//80 949//80 950//80
f 951//80 950//80 949//80
f 953//81 954//81 955//81
f 954//81 953//81 956//81
f 957//82 958//82 959//82
f 960//82 959//82 958//82
f 962//83 963//83 964//83
f 963//83 962//83 965//83
f 966//84 967//84 968//84
f 969//84 968//84 967//84
f 971//85 972//85 973//85
f 972//85 971//85 974//85
f 975//86 976//86 977//86
f 978//86 977//86 976//86
f 980//87 981//87 982//87
f 981//87 980//87 983//87
f 984//88 985//88 986//88
f 987//88 986//88 985//88
f 989//89 990//89 991//89
f 990//89 989//89 992//89
f 993//90 994//90 995//90
f 996//90 995//90 994//90
f 998//91 999//91 1000//91
f 999//91 998//91 1001//91
f 1002//92 1003//92 1004//92
f 1005//92 1004//92 1003//92
f 1007//93 1008//93 1009//93
f 1008//93 1007//93 1010//93
f 1011//94 1012//94 1013//94
f 1014//94 1013//94 1012//94
f 1016//95 1017//95 1018//95
f 1017//95 1016//95 1019//95
f 1020//96 1021//96 1022//96
f 1023//96 1022//96 1021//96
f 1025//97 1026//97 1027//97
f 1026//97 1025//97 1028//97
f 1029//98 1030//98 1031//98
f 1032//98 1031//98 1030//98
f 1034//99 1035//99 1036//99
f 1035//99 1034//99 1037//99
f 1038//100 1039//100 1040//100
f 1041//100 1040//100 1039//100
f 1043//101 1044//101 1045//101
f 1044//101 1043//101 1046//101
f 1047//102 1048//102 1049//102
f 1050//102 1049//102 1048//102
f 1052//12 1053//12 1054//12
f 1053//12 1052//12 1055//12
f 1056//11 1057//11 1058//11
f 1059//11 1058//11 1057//11
f 1061//14 1062//14 1063//14
f 1062//14 1061//14 1064//14
f 1065//13 1066//13 1067//13
f 1068//13 1067//13 1066//13
f 1070//16 1071//16 1072//16
f 1071//16 1070//16 1073//16
f 1074//15 1075//15 1076//15
f 1077//15 1076//15 1075//15
f 1079//18 1080//18 1081//18
f 1080//18 1079//18 1082//18
f 1083//17 1084//17 1085//17
f 1086//17 1085//17 1084//17
f 1088//20 1089//20 1090//20
f 1089//20 1088//20 1091//20
f 1092//19 1093//19 1094//19
f 1095//19 1094//19 1093//19
f 1097//22 1098//22 1099//22
f 1098//22 1097//22 1100//22
f 1101//21 1102//21 1103//21
f 1104//21 1103//21 1102//21
f 1106//24 1107//24 1108//24
f 1107//24 1106//24 1109//24
f 1110//23 1111//23 1112//23
f 1113//23 1112//23 1111//23
f 1115//26 1116//26 1117//26
f 1116//26 1115//26 1118//26
f 1119//25 1120//25 1121//25
f 1122//25 1121//25 1120//25
f 1124//28 1125//28 1126//28
f 1125//28 1124//28 1127//28
f 1128//27 1129//27 1130//27
f 1131//27 1130//27 1129//27
f 1133//30 1134//30 1135//30
f 1134//30 1133//30 1136//30
f 1137//29 1138//29 1139//29
f 1140//29 1139//29 1138//29
f 1142//32 1143//32 1144//32
f 1143//32 1142//32 1145//32
f 1146//31 1147//31 1148//31
f 1149//31 1148//31 1147//31
f 1151//34 1152//34 1153//34
f 1152//34 1151//34 1154//34
f 1155//33 1156//33 1157//33
f 1158//33 1157//33 1156//33
f 1160//36 1161//36 1162//36
f 1161//36 1160//36 1163//36
f 1164//35 1165//35 1166//35
f 1167//35 1166//35 1165//35
f 1169//38 1170//38 1171//38
f 1170//38 1169//38 1172//38
f 1173//37 1174//37 1175//37
f 1176//37 1175//37 1174//37
f 1178//40 1179//40 1180//40
f 1179//40 1178//40 1181//40
f 1182//39 1183//39 1184//39
f 1185//39 1184//39 1183//39
f 1187//42 1188//42 1189//42
f 1188//42 1187//42 1190//42
f 1191//41 1192//41 1193//41
f 1194//41 1193//41 1192//41
f 1196//44 1197//44 1198//44
f 1197//44 1196//44 1199//44
f 1200//43 1201//43 1202//43
f 1203//43 1202//43 1201//43
f 1205//46 1206//46 1207//46
f 1206//46 1205//46 1208//46
f 1209//45 1210//45 1211//45
f 1212//45 1211//45 1210//45
f 1214//48 1215//48 1216//48
f 1215//48 1214//48 1217//48
f 1218//47 1219//47 1220//47
f 1221//47 1220//47 1219//47
f 1223//50 1224//50 1225//50
f 1224//50 1223//50 1226//50
f 1227//49 1228//49 1229//49
f 1230//49 1229//49 1228//49
f 1232//52 1233//52 1234//52
f 1233//52 1232//52 1235//52
f 1236//51 1237//51 1238//51
f 1239//51 1238//51 1237//51
f 1241//54 1242//54 1243//54
f 1242//54 1241//54 1244//54
f 1245//53 1246//53 1247//53
f 1248//53 1247//53 1246//53
f 1250//56 1251//56 1252//56
f 1251//56 1250//56 1253//56
f 1254//55 1255//55 1256//55
f 1257//55 1256//55 1255//55
f 1259//58 1260//58 1261//58
f 1260//58 1259//58 1262//58
f 1263//57 1264//57 1265//57
f 1266//57 1265//57 1264//57
f 1268//60 1269//60 1270//60
f 1269//60 1268//60 1271//60
f 1272//59 1273//59 1274//59
f 1275//59 1274//59 1273//59
f 1277//62 1278//62 1279//62
f 1278//62 1277//62 1280//62
f 1281//61 1282//61 1283//61
f 1284//61 1283//61 1282//61
f 1286//64 1287//64 1288//64
f 1287//64 1286//64 1289//64
f 1290//63 1291//63 1292//63
f 1293//63 1292//63 1291//63
f 1295//66 1296//66 1297//66
f 1296//66 1295//66 1298//66
f 1299//65 1300//65 1301//65
f 1302//65 1301//65 1300//65
f 1304//68 1305//68 1306//68
f 1305//68 1304//68 1307//68
f 1308//67 1309//67 1310//67
f 1311//67 1310//67 1309//67
f 1313//70 1314//70 1315//70
f 1314//70 1313//70 1316//70
f 1317//69 1318//69 1319//69
f 1320//69 1319//69 1318//69
f 1322//72 1323//72 1324//72
f 1323//72 1322//72 1325//72
f 1326//71 1327//71 1328//71
f 1329//71 1328//71 1327//71
f 1331//8 1332//8 1333//8
f 1332//8 1331//8 1334//8
f 1335//7 1336//7 1337//7
f 1338//7 1337//7 1336//7
f 1340//2 1341//2 1342//2
f 1341//2 1340//2 1343//2
f 1344//1 1345//1 1346//1
f 1347//1 1346//1 1345//1
f 1349//4 1350//4 1351//4
f 1350//4 1349//4 1352//4
f 1353//3 1354//3 1355//3
f 1356//3 1355//3 1354//3
f 1358//10 1359//10 1360//10
f 1359//10 1358//10 1361//10
f 1362//9 1363//9 1364//9
f 1365//9 1364//9 1363//9
f 1367//74 1368//74 1369//74
f 1368//74 1367//74 1370//74
f 1371//73 1372//73 1373//73
f 1374//73 1373//73 1372//73
f 1376//76 1377//76 1378//76
f 1377//76 1376//76 1379//76
f 1380//75 1381//75 1382//75
f 1383//75 1382//75 1381//75
f 1385//78 1386//78 1387//78
f 1386//78 1385//78 1388//78
f 1389//77 1390//77 1391//77
f 1392//77 1391//77 1390//77
f 1394//80 1395//80 1396//80
f 1395//80 1394//80 1397//80
f 1398//79 1399//79 1400//79
f 1401//79 1400//79 1399//79
f 1403//82 1404//82 1405//82
f 1404//82 1403//82 1406//82
f 1407//81 1408//81 1409//81
f 1410//81 1409//81 1408//81
f 1412//84 1413//84 1414//84
f 1413//84 1412//84 1415//84
f 1416//83 1417//83 1418//83
f 1419//83 1418//83 1417//83
f 1421//86 1422//86 1423//86
f 1422//86 1421//86 1424//86
f 1425//85 1426//85 1427//85
f 1428//85 1427//85 1426//85
f 1430//88 1431//88 1432//88
f 1431//88 1430//88 1433//88
f 1434//87 1435//87 1436//87
f 1437//87 1436//87 1435//87
f 1439//90 1440//90 1441//90
f 1440//90 1439//90 1442//90
f 1443//89 1444//89 1445//89
f 1446//89 1445//89 1444//89
f 1448//92 1449//92 1450//92
f 1449//92 1448//92 1451//92
f 1452//91 1453//91 1454//91
f 1455//91 1454//91 1453//91
f 1457//94 1458//94 1459//94
f 1458//94 1457//94 1460//94
f 1461//93 1462//93 1463//93
f 1464//93 1463//93 1462//93
f 1466//96 1467//96 1468//96
f 1467//96 1466//96 1469//96
f 1470//95 1471//95 1472//95
f 1473//95 1472//95 1471//95
f 1475//98 1476//98 1477//98
f 1476//98 1475//98 1478//98
f 1479//97 1480//97 1481//97
f 1482//97 1481//97 1480//97
f 1484//100 1485//100 1486//100
f 1485//100 1484//100 1487//100
f 1488//99 1489//99 1490//99
f 1491//99 1490//99 1489//99
f 1493//102 1494//102 1495//102
f 1494//102 1493//102 1496//102
f 1497//101 1498//101 1499//101
f 1500//101 1499//101 1498//101
usemtl material_1_0
