# SSTK version 0.8.0
# 14
mtllib original-14.mtl
o #ID424
v 0.257967 0.538666 0.456128
v 0.255315 0.538750 0.469647
v 0.255315 0.538750 0.456128
v 0.257967 0.538666 0.469647
v 0.257967 0.538666 0.469647
v 0.257967 0.538666 0.456128
v 0.255315 0.538750 0.469647
v 0.255315 0.538750 0.456128
v 0.257967 0.538666 0.469647
v 0.257967 0.538666 0.456128
v 0.255315 0.538750 0.469647
v 0.255315 0.538750 0.456128
v 0.260609 0.538417 0.469647
v 0.260609 0.538417 0.456128
v 0.260609 0.538417 0.469647
v 0.260609 0.538417 0.456128
v 0.260609 0.538417 0.469647
v 0.260609 0.538417 0.456128
v 0.252662 0.538666 0.456128
v 0.252662 0.538666 0.469647
v 0.252662 0.538666 0.469647
v 0.252662 0.538666 0.456128
v 0.252662 0.538666 0.469647
v 0.252662 0.538666 0.456128
v 0.263231 0.538001 0.469647
v 0.263231 0.538001 0.456128
v 0.263231 0.538001 0.469647
v 0.263231 0.538001 0.456128
v 0.263231 0.538001 0.469647
v 0.263231 0.538001 0.456128
v 0.250020 0.538417 0.456128
v 0.250020 0.538417 0.469647
v 0.250020 0.538417 0.469647
v 0.250020 0.538417 0.456128
v 0.250020 0.538417 0.469647
v 0.250020 0.538417 0.456128
v 0.265821 0.537422 0.456128
v 0.265821 0.537422 0.469647
v 0.265821 0.537422 0.469647
v 0.265821 0.537422 0.456128
v 0.265821 0.537422 0.469647
v 0.265821 0.537422 0.456128
v 0.247398 0.538001 0.469647
v 0.247398 0.538001 0.456128
v 0.247398 0.538001 0.469647
v 0.247398 0.538001 0.456128
v 0.247398 0.538001 0.469647
v 0.247398 0.538001 0.456128
v 0.268370 0.536682 0.469647
v 0.268370 0.536682 0.456128
v 0.268370 0.536682 0.469647
v 0.268370 0.536682 0.456128
v 0.268370 0.536682 0.469647
v 0.268370 0.536682 0.456128
v 0.244808 0.537422 0.469647
v 0.244808 0.537422 0.456128
v 0.244808 0.537422 0.469647
v 0.244808 0.537422 0.456128
v 0.244808 0.537422 0.469647
v 0.244808 0.537422 0.456128
v 0.270867 0.535783 0.469647
v 0.270867 0.535783 0.456128
v 0.270867 0.535783 0.469647
v 0.270867 0.535783 0.456128
v 0.270867 0.535783 0.469647
v 0.270867 0.535783 0.456128
v 0.242259 0.536682 0.456128
v 0.242259 0.536682 0.469647
v 0.242259 0.536682 0.469647
v 0.242259 0.536682 0.456128
v 0.242259 0.536682 0.469647
v 0.242259 0.536682 0.456128
v 0.273303 0.534729 0.456128
v 0.273303 0.534729 0.469647
v 0.273303 0.534729 0.469647
v 0.273303 0.534729 0.456128
v 0.273303 0.534729 0.469647
v 0.273303 0.534729 0.456128
v 0.239762 0.535783 0.469647
v 0.239762 0.535783 0.456128
v 0.239762 0.535783 0.469647
v 0.239762 0.535783 0.456128
v 0.239762 0.535783 0.469647
v 0.239762 0.535783 0.456128
v 0.275667 0.533524 0.469647
v 0.275667 0.533524 0.456128
v 0.275667 0.533524 0.469647
v 0.275667 0.533524 0.456128
v 0.275667 0.533524 0.469647
v 0.275667 0.533524 0.456128
v 0.237326 0.534729 0.456128
v 0.237326 0.534729 0.469647
v 0.237326 0.534729 0.469647
v 0.237326 0.534729 0.456128
v 0.237326 0.534729 0.469647
v 0.237326 0.534729 0.456128
v 0.277952 0.532173 0.469647
v 0.277952 0.532173 0.456128
v 0.277952 0.532173 0.469647
v 0.277952 0.532173 0.456128
v 0.277952 0.532173 0.469647
v 0.277952 0.532173 0.456128
v 0.234962 0.533524 0.469647
v 0.234962 0.533524 0.456128
v 0.234962 0.533524 0.469647
v 0.234962 0.533524 0.456128
v 0.234962 0.533524 0.469647
v 0.234962 0.533524 0.456128
v 0.280147 0.530681 0.456128
v 0.280147 0.530681 0.469647
v 0.280147 0.530681 0.469647
v 0.280147 0.530681 0.456128
v 0.280147 0.530681 0.469647
v 0.280147 0.530681 0.456128
v 0.232677 0.532173 0.469647
v 0.232677 0.532173 0.456128
v 0.232677 0.532173 0.469647
v 0.232677 0.532173 0.456128
v 0.232677 0.532173 0.469647
v 0.232677 0.532173 0.456128
v 0.282244 0.529054 0.469647
v 0.282244 0.529054 0.456128
v 0.282244 0.529054 0.469647
v 0.282244 0.529054 0.456128
v 0.282244 0.529054 0.469647
v 0.282244 0.529054 0.456128
v 0.230482 0.530681 0.469647
v 0.230482 0.530681 0.456128
v 0.230482 0.530681 0.469647
v 0.230482 0.530681 0.456128
v 0.230482 0.530681 0.469647
v 0.230482 0.530681 0.456128
v 0.284235 0.527299 0.469647
v 0.284235 0.527299 0.456128
v 0.284235 0.527299 0.469647
v 0.284235 0.527299 0.456128
v 0.284235 0.527299 0.469647
v 0.284235 0.527299 0.456128
v 0.228385 0.529054 0.456128
v 0.228385 0.529054 0.469647
v 0.228385 0.529054 0.469647
v 0.228385 0.529054 0.456128
v 0.228385 0.529054 0.469647
v 0.228385 0.529054 0.456128
v 0.286112 0.525422 0.469647
v 0.286112 0.525422 0.456128
v 0.286112 0.525422 0.469647
v 0.286112 0.525422 0.456128
v 0.286112 0.525422 0.469647
v 0.286112 0.525422 0.456128
v 0.226394 0.527299 0.469647
v 0.226394 0.527299 0.456128
v 0.226394 0.527299 0.469647
v 0.226394 0.527299 0.456128
v 0.226394 0.527299 0.469647
v 0.226394 0.527299 0.456128
v 0.287867 0.523432 0.469647
v 0.287867 0.523432 0.456128
v 0.287867 0.523432 0.469647
v 0.287867 0.523432 0.456128
v 0.287867 0.523432 0.469647
v 0.287867 0.523432 0.456128
v 0.224518 0.525422 0.456128
v 0.224518 0.525422 0.469647
v 0.224518 0.525422 0.456128
v 0.224518 0.525422 0.469647
v 0.224518 0.525422 0.469647
v 0.224518 0.525422 0.456128
v 0.289493 0.521334 0.469647
v 0.289493 0.521334 0.456128
v 0.289493 0.521334 0.469647
v 0.289493 0.521334 0.456128
v 0.289493 0.521334 0.469647
v 0.289493 0.521334 0.456128
v 0.222762 0.523432 0.456128
v 0.222762 0.523432 0.469647
v 0.222762 0.523432 0.456128
v 0.222762 0.523432 0.469647
v 0.222762 0.523432 0.469647
v 0.222762 0.523432 0.456128
v 0.290985 0.519139 0.456128
v 0.290985 0.519139 0.469647
v 0.290985 0.519139 0.456128
v 0.290985 0.519139 0.469647
v 0.290985 0.519139 0.469647
v 0.290985 0.519139 0.456128
v 0.221136 0.521334 0.469647
v 0.221136 0.521334 0.456128
v 0.221136 0.521334 0.469647
v 0.221136 0.521334 0.456128
v 0.221136 0.521334 0.469647
v 0.221136 0.521334 0.456128
v 0.292336 0.516855 0.456128
v 0.292336 0.516855 0.469647
v 0.292336 0.516855 0.456128
v 0.292336 0.516855 0.469647
v 0.292336 0.516855 0.469647
v 0.292336 0.516855 0.456128
v 0.219644 0.519139 0.469647
v 0.219644 0.519139 0.456128
v 0.219644 0.519139 0.469647
v 0.219644 0.519139 0.456128
v 0.219644 0.519139 0.469647
v 0.219644 0.519139 0.456128
v 0.293541 0.514490 0.456128
v 0.293541 0.514490 0.469647
v 0.293541 0.514490 0.456128
v 0.293541 0.514490 0.469647
v 0.293541 0.514490 0.469647
v 0.293541 0.514490 0.456128
v 0.218293 0.516855 0.456128
v 0.218293 0.516855 0.469647
v 0.218293 0.516855 0.456128
v 0.218293 0.516855 0.469647
v 0.218293 0.516855 0.469647
v 0.218293 0.516855 0.456128
v 0.294595 0.512054 0.469647
v 0.294595 0.512054 0.456128
v 0.294595 0.512054 0.469647
v 0.294595 0.512054 0.456128
v 0.294595 0.512054 0.469647
v 0.294595 0.512054 0.456128
v 0.217088 0.514490 0.456128
v 0.217088 0.514490 0.469647
v 0.217088 0.514490 0.456128
v 0.217088 0.514490 0.469647
v 0.217088 0.514490 0.469647
v 0.217088 0.514490 0.456128
v 0.295494 0.509557 0.469647
v 0.295494 0.509557 0.456128
v 0.295494 0.509557 0.469647
v 0.295494 0.509557 0.456128
v 0.295494 0.509557 0.469647
v 0.295494 0.509557 0.456128
v 0.216034 0.512054 0.469647
v 0.216034 0.512054 0.456128
v 0.216034 0.512054 0.469647
v 0.216034 0.512054 0.456128
v 0.216034 0.512054 0.469647
v 0.216034 0.512054 0.456128
v 0.296235 0.507009 0.469647
v 0.296235 0.507009 0.456128
v 0.296235 0.507009 0.469647
v 0.296235 0.507009 0.456128
v 0.296235 0.507009 0.469647
v 0.296235 0.507009 0.456128
v 0.215135 0.509557 0.456128
v 0.215135 0.509557 0.469647
v 0.215135 0.509557 0.456128
v 0.215135 0.509557 0.469647
v 0.215135 0.509557 0.469647
v 0.215135 0.509557 0.456128
v 0.296814 0.504418 0.456128
v 0.296814 0.504418 0.469647
v 0.296814 0.504418 0.456128
v 0.296814 0.504418 0.469647
v 0.296814 0.504418 0.469647
v 0.296814 0.504418 0.456128
v 0.214394 0.507009 0.469647
v 0.214394 0.507009 0.456128
v 0.214394 0.507009 0.469647
v 0.214394 0.507009 0.456128
v 0.214394 0.507009 0.469647
v 0.214394 0.507009 0.456128
v 0.297229 0.501797 0.456128
v 0.297229 0.501797 0.469647
v 0.297229 0.501797 0.456128
v 0.297229 0.501797 0.469647
v 0.297229 0.501797 0.469647
v 0.297229 0.501797 0.456128
v 0.213815 0.504418 0.469647
v 0.213815 0.504418 0.456128
v 0.213815 0.504418 0.469647
v 0.213815 0.504418 0.456128
v 0.213815 0.504418 0.469647
v 0.213815 0.504418 0.456128
v 0.297479 0.499155 0.456128
v 0.297479 0.499155 0.469647
v 0.297479 0.499155 0.456128
v 0.297479 0.499155 0.469647
v 0.297479 0.499155 0.469647
v 0.297479 0.499155 0.456128
v 0.213400 0.501797 0.469647
v 0.213400 0.501797 0.456128
v 0.213400 0.501797 0.469647
v 0.213400 0.501797 0.456128
v 0.213400 0.501797 0.469647
v 0.213400 0.501797 0.456128
v 0.297562 0.496502 0.456128
v 0.297562 0.496502 0.469647
v 0.297562 0.496502 0.456128
v 0.297562 0.496502 0.469647
v 0.297562 0.496502 0.469647
v 0.297562 0.496502 0.456128
v 0.213151 0.499155 0.469647
v 0.213151 0.499155 0.456128
v 0.213151 0.499155 0.469647
v 0.213151 0.499155 0.456128
v 0.213151 0.499155 0.469647
v 0.213151 0.499155 0.456128
v 0.297479 0.493849 0.469647
v 0.297479 0.493849 0.456128
v 0.297479 0.493849 0.469647
v 0.297479 0.493849 0.456128
v 0.297479 0.493849 0.469647
v 0.297479 0.493849 0.456128
v 0.213067 0.496502 0.469647
v 0.213067 0.496502 0.456128
v 0.213067 0.496502 0.469647
v 0.213067 0.496502 0.456128
v 0.213067 0.496502 0.469647
v 0.213067 0.496502 0.456128
v 0.297229 0.491207 0.469647
v 0.297229 0.491207 0.456128
v 0.297229 0.491207 0.469647
v 0.297229 0.491207 0.456128
v 0.297229 0.491207 0.469647
v 0.297229 0.491207 0.456128
v 0.213151 0.493849 0.456128
v 0.213151 0.493849 0.469647
v 0.213151 0.493849 0.456128
v 0.213151 0.493849 0.469647
v 0.213151 0.493849 0.469647
v 0.213151 0.493849 0.456128
v 0.296814 0.488585 0.469647
v 0.296814 0.488585 0.456128
v 0.296814 0.488585 0.469647
v 0.296814 0.488585 0.456128
v 0.296814 0.488585 0.469647
v 0.296814 0.488585 0.456128
v 0.213400 0.491207 0.456128
v 0.213400 0.491207 0.469647
v 0.213400 0.491207 0.456128
v 0.213400 0.491207 0.469647
v 0.213400 0.491207 0.469647
v 0.213400 0.491207 0.456128
v 0.296235 0.485995 0.456128
v 0.296235 0.485995 0.469647
v 0.296235 0.485995 0.456128
v 0.296235 0.485995 0.469647
v 0.296235 0.485995 0.469647
v 0.296235 0.485995 0.456128
v 0.213815 0.488585 0.456128
v 0.213815 0.488585 0.469647
v 0.213815 0.488585 0.456128
v 0.213815 0.488585 0.469647
v 0.213815 0.488585 0.469647
v 0.213815 0.488585 0.456128
v 0.295494 0.483447 0.456128
v 0.295494 0.483447 0.469647
v 0.295494 0.483447 0.456128
v 0.295494 0.483447 0.469647
v 0.295494 0.483447 0.469647
v 0.295494 0.483447 0.456128
v 0.214394 0.485995 0.456128
v 0.214394 0.485995 0.469647
v 0.214394 0.485995 0.456128
v 0.214394 0.485995 0.469647
v 0.214394 0.485995 0.469647
v 0.214394 0.485995 0.456128
v 0.294595 0.480950 0.456128
v 0.294595 0.480950 0.469647
v 0.294595 0.480950 0.456128
v 0.294595 0.480950 0.469647
v 0.294595 0.480950 0.469647
v 0.294595 0.480950 0.456128
v 0.215135 0.483447 0.456128
v 0.215135 0.483447 0.469647
v 0.215135 0.483447 0.456128
v 0.215135 0.483447 0.469647
v 0.215135 0.483447 0.469647
v 0.215135 0.483447 0.456128
v 0.293541 0.478514 0.469647
v 0.293541 0.478514 0.456128
v 0.293541 0.478514 0.469647
v 0.293541 0.478514 0.456128
v 0.293541 0.478514 0.469647
v 0.293541 0.478514 0.456128
v 0.216034 0.480950 0.456128
v 0.216034 0.480950 0.469647
v 0.216034 0.480950 0.456128
v 0.216034 0.480950 0.469647
v 0.216034 0.480950 0.469647
v 0.216034 0.480950 0.456128
v 0.292336 0.476149 0.469647
v 0.292336 0.476149 0.456128
v 0.292336 0.476149 0.469647
v 0.292336 0.476149 0.456128
v 0.292336 0.476149 0.469647
v 0.292336 0.476149 0.456128
v 0.217088 0.478514 0.469647
v 0.217088 0.478514 0.456128
v 0.217088 0.478514 0.469647
v 0.217088 0.478514 0.456128
v 0.217088 0.478514 0.469647
v 0.217088 0.478514 0.456128
v 0.290985 0.473865 0.469647
v 0.290985 0.473865 0.456128
v 0.290985 0.473865 0.469647
v 0.290985 0.473865 0.456128
v 0.290985 0.473865 0.469647
v 0.290985 0.473865 0.456128
v 0.218293 0.476149 0.469647
v 0.218293 0.476149 0.456128
v 0.218293 0.476149 0.469647
v 0.218293 0.476149 0.456128
v 0.218293 0.476149 0.469647
v 0.218293 0.476149 0.456128
v 0.289493 0.471670 0.456128
v 0.289493 0.471670 0.469647
v 0.289493 0.471670 0.456128
v 0.289493 0.471670 0.469647
v 0.289493 0.471670 0.469647
v 0.289493 0.471670 0.456128
v 0.219644 0.473865 0.469647
v 0.219644 0.473865 0.456128
v 0.219644 0.473865 0.469647
v 0.219644 0.473865 0.456128
v 0.219644 0.473865 0.469647
v 0.219644 0.473865 0.456128
v 0.287867 0.469572 0.456128
v 0.287867 0.469572 0.469647
v 0.287867 0.469572 0.456128
v 0.287867 0.469572 0.469647
v 0.287867 0.469572 0.469647
v 0.287867 0.469572 0.456128
v 0.221136 0.471670 0.456128
v 0.221136 0.471670 0.469647
v 0.221136 0.471670 0.456128
v 0.221136 0.471670 0.469647
v 0.221136 0.471670 0.469647
v 0.221136 0.471670 0.456128
v 0.286112 0.467582 0.456128
v 0.286112 0.467582 0.469647
v 0.286112 0.467582 0.456128
v 0.286112 0.467582 0.469647
v 0.286112 0.467582 0.469647
v 0.286112 0.467582 0.456128
v 0.222762 0.469572 0.456128
v 0.222762 0.469572 0.469647
v 0.222762 0.469572 0.456128
v 0.222762 0.469572 0.469647
v 0.222762 0.469572 0.469647
v 0.222762 0.469572 0.456128
v 0.284235 0.465705 0.469647
v 0.284235 0.465705 0.456128
v 0.284235 0.465705 0.469647
v 0.284235 0.465705 0.456128
v 0.284235 0.465705 0.469647
v 0.284235 0.465705 0.456128
v 0.224518 0.467582 0.469647
v 0.224518 0.467582 0.456128
v 0.224518 0.467582 0.469647
v 0.224518 0.467582 0.456128
v 0.224518 0.467582 0.469647
v 0.224518 0.467582 0.456128
v 0.282244 0.463950 0.456128
v 0.282244 0.463950 0.469647
v 0.282244 0.463950 0.469647
v 0.282244 0.463950 0.456128
v 0.282244 0.463950 0.469647
v 0.282244 0.463950 0.456128
v 0.226394 0.465705 0.469647
v 0.226394 0.465705 0.456128
v 0.226394 0.465705 0.469647
v 0.226394 0.465705 0.456128
v 0.226394 0.465705 0.469647
v 0.226394 0.465705 0.456128
v 0.280147 0.462323 0.456128
v 0.280147 0.462323 0.469647
v 0.280147 0.462323 0.469647
v 0.280147 0.462323 0.456128
v 0.280147 0.462323 0.469647
v 0.280147 0.462323 0.456128
v 0.228385 0.463950 0.456128
v 0.228385 0.463950 0.469647
v 0.228385 0.463950 0.469647
v 0.228385 0.463950 0.456128
v 0.228385 0.463950 0.469647
v 0.228385 0.463950 0.456128
v 0.277952 0.460831 0.469647
v 0.277952 0.460831 0.456128
v 0.277952 0.460831 0.469647
v 0.277952 0.460831 0.456128
v 0.277952 0.460831 0.469647
v 0.277952 0.460831 0.456128
v 0.230482 0.462323 0.469647
v 0.230482 0.462323 0.456128
v 0.230482 0.462323 0.469647
v 0.230482 0.462323 0.456128
v 0.230482 0.462323 0.469647
v 0.230482 0.462323 0.456128
v 0.275667 0.459480 0.456128
v 0.275667 0.459480 0.469647
v 0.275667 0.459480 0.469647
v 0.275667 0.459480 0.456128
v 0.275667 0.459480 0.469647
v 0.275667 0.459480 0.456128
v 0.232677 0.460831 0.456128
v 0.232677 0.460831 0.469647
v 0.232677 0.460831 0.469647
v 0.232677 0.460831 0.456128
v 0.232677 0.460831 0.469647
v 0.232677 0.460831 0.456128
v 0.273303 0.458275 0.469647
v 0.273303 0.458275 0.456128
v 0.273303 0.458275 0.469647
v 0.273303 0.458275 0.456128
v 0.273303 0.458275 0.469647
v 0.273303 0.458275 0.456128
v 0.234962 0.459480 0.456128
v 0.234962 0.459480 0.469647
v 0.234962 0.459480 0.469647
v 0.234962 0.459480 0.456128
v 0.234962 0.459480 0.469647
v 0.234962 0.459480 0.456128
v 0.270867 0.457221 0.469647
v 0.270867 0.457221 0.456128
v 0.270867 0.457221 0.469647
v 0.270867 0.457221 0.456128
v 0.270867 0.457221 0.469647
v 0.270867 0.457221 0.456128
v 0.237326 0.458275 0.456128
v 0.237326 0.458275 0.469647
v 0.237326 0.458275 0.469647
v 0.237326 0.458275 0.456128
v 0.237326 0.458275 0.469647
v 0.237326 0.458275 0.456128
v 0.268370 0.456322 0.469647
v 0.268370 0.456322 0.456128
v 0.268370 0.456322 0.469647
v 0.268370 0.456322 0.456128
v 0.268370 0.456322 0.469647
v 0.268370 0.456322 0.456128
v 0.239762 0.457221 0.469647
v 0.239762 0.457221 0.456128
v 0.239762 0.457221 0.469647
v 0.239762 0.457221 0.456128
v 0.239762 0.457221 0.469647
v 0.239762 0.457221 0.456128
v 0.265821 0.455581 0.456128
v 0.265821 0.455581 0.469647
v 0.265821 0.455581 0.469647
v 0.265821 0.455581 0.456128
v 0.265821 0.455581 0.469647
v 0.265821 0.455581 0.456128
v 0.242259 0.456322 0.456128
v 0.242259 0.456322 0.469647
v 0.242259 0.456322 0.469647
v 0.242259 0.456322 0.456128
v 0.242259 0.456322 0.469647
v 0.242259 0.456322 0.456128
v 0.263231 0.455003 0.469647
v 0.263231 0.455003 0.456128
v 0.263231 0.455003 0.469647
v 0.263231 0.455003 0.456128
v 0.263231 0.455003 0.469647
v 0.263231 0.455003 0.456128
v 0.244808 0.455581 0.469647
v 0.244808 0.455581 0.456128
v 0.244808 0.455581 0.469647
v 0.244808 0.455581 0.456128
v 0.244808 0.455581 0.469647
v 0.244808 0.455581 0.456128
v 0.260609 0.454587 0.456128
v 0.260609 0.454587 0.469647
v 0.260609 0.454587 0.469647
v 0.260609 0.454587 0.456128
v 0.260609 0.454587 0.469647
v 0.260609 0.454587 0.456128
v 0.247398 0.455003 0.456128
v 0.247398 0.455003 0.469647
v 0.247398 0.455003 0.469647
v 0.247398 0.455003 0.456128
v 0.247398 0.455003 0.469647
v 0.247398 0.455003 0.456128
v 0.257967 0.454338 0.456128
v 0.257967 0.454338 0.469647
v 0.257967 0.454338 0.469647
v 0.257967 0.454338 0.456128
v 0.257967 0.454338 0.469647
v 0.257967 0.454338 0.456128
v 0.250020 0.454587 0.456128
v 0.250020 0.454587 0.469647
v 0.250020 0.454587 0.469647
v 0.250020 0.454587 0.456128
v 0.250020 0.454587 0.469647
v 0.250020 0.454587 0.456128
v 0.255315 0.454254 0.469647
v 0.255315 0.454254 0.456128
v 0.255315 0.454254 0.469647
v 0.255315 0.454254 0.456128
v 0.255315 0.454254 0.469647
v 0.255315 0.454254 0.456128
v 0.252662 0.454338 0.469647
v 0.252662 0.454338 0.456128
v 0.252662 0.454338 0.469647
v 0.252662 0.454338 0.456128
v 0.252662 0.454338 0.469647
v 0.252662 0.454338 0.456128
vn -0.0627905217796479 -0.9980267282866925 0
vn 0 -1 0
vn 0.0627905217796479 0.9980267282866925 0
vn 0 1 0
vn -0.1253332006906906 -0.9921147054673806 0
vn 0.1253332006906906 0.9921147054673806 0
vn 0.0627905217796479 -0.9980267282866925 0
vn -0.0627905217796479 0.9980267282866925 0
vn -0.18738129144314172 -0.9822872551433722 0
vn 0.18738129144314172 0.9822872551433722 0
vn 0.1253332006906906 -0.9921147054673806 0
vn -0.1253332006906906 0.9921147054673806 0
vn -0.24868988984297663 -0.9685831604410063 0
vn 0.24868988984297663 0.9685831604410063 0
vn 0.18738129144314172 -0.9822872551433722 0
vn -0.18738129144314172 0.9822872551433722 0
vn -0.3090170042518809 -0.9510565130859434 0
vn 0.3090170042518809 0.9510565130859434 0
vn 0.24868988984297663 -0.9685831604410063 0
vn -0.24868988984297663 0.9685831604410063 0
vn -0.368124588757952 -0.9297764716058311 0
vn 0.368124588757952 0.9297764716058311 0
vn 0.3090170042518809 -0.9510565130859434 0
vn -0.3090170042518809 0.9510565130859434 0
vn -0.42577928015806865 -0.9048270578337482 0
vn 0.42577928015806865 0.9048270578337482 0
vn 0.368124588757952 -0.9297764716058311 0
vn -0.368124588757952 0.9297764716058311 0
vn -0.4817536855645931 -0.8763066737420931 0
vn 0.4817536855645931 0.8763066737420931 0
vn 0.42577928015806865 -0.9048270578337482 0
vn -0.42577928015806865 0.9048270578337482 0
vn -0.5358268100958747 -0.8443279159085524 0
vn 0.5358268100958747 0.8443279159085524 0
vn 0.4817536855645931 -0.8763066737420931 0
vn -0.4817536855645931 0.8763066737420931 0
vn -0.5877852808425821 -0.8090169736320784 0
vn 0.5877852808425821 0.8090169736320784 0
vn 0.5358268100958747 -0.8443279159085524 0
vn -0.5358268100958747 0.8443279159085524 0
vn -0.6374240168438534 -0.7705132203607198 0
vn 0.6374240168438534 0.7705132203607198 0
vn 0.5877852808425821 -0.8090169736320784 0
vn -0.5877852808425821 0.8090169736320784 0
vn -0.6845471164618626 -0.7289686175301027 0
vn 0.6845471164618626 0.7289686175301027 0
vn 0.6374240168438534 -0.7705132203607198 0
vn -0.6374240168438534 0.7705132203607198 0
vn -0.7289686175301027 -0.6845471164618626 0
vn 0.7289686175301027 0.6845471164618626 0
vn 0.6845471164618626 -0.7289686175301027 0
vn -0.6845471164618626 0.7289686175301027 0
vn -0.7705132203607198 -0.6374240168438534 0
vn 0.7705132203607198 0.6374240168438534 0
vn 0.7289686175301027 -0.6845471164618626 0
vn -0.7289686175301027 0.6845471164618626 0
vn -0.8090169736320784 -0.5877852808425821 0
vn 0.8090169736320784 0.5877852808425821 0
vn 0.7705132203607198 -0.6374240168438534 0
vn -0.7705132203607198 0.6374240168438534 0
vn -0.8443279159085524 -0.5358268100958747 0
vn 0.8443279159085524 0.5358268100958747 0
vn 0.8090169736320784 -0.5877852808425821 0
vn -0.8090169736320784 0.5877852808425821 0
vn -0.8763066737420931 -0.4817536855645931 0
vn 0.8763066737420931 0.4817536855645931 0
vn 0.8443279159085524 -0.5358268100958747 0
vn -0.8443279159085524 0.5358268100958747 0
vn -0.9048270578337482 -0.42577928015806865 0
vn 0.9048270578337482 0.42577928015806865 0
vn 0.8763066737420931 -0.4817536855645931 0
vn -0.8763066737420931 0.4817536855645931 0
vn -0.9297764716058311 -0.368124588757952 0
vn 0.9297764716058311 0.368124588757952 0
vn 0.9048270578337482 -0.42577928015806865 0
vn -0.9048270578337482 0.42577928015806865 0
vn -0.9510565130859434 -0.3090170042518809 0
vn 0.9510565130859434 0.3090170042518809 0
vn 0.9297764716058311 -0.368124588757952 0
vn -0.9297764716058311 0.368124588757952 0
vn -0.9685831604410063 -0.24868988984297663 0
vn 0.9685831604410063 0.24868988984297663 0
vn 0.9510565130859434 -0.3090170042518809 0
vn -0.9510565130859434 0.3090170042518809 0
vn -0.9822872551433722 -0.18738129144314172 0
vn 0.9822872551433722 0.18738129144314172 0
vn 0.9685831604410063 -0.24868988984297663 0
vn -0.9685831604410063 0.24868988984297663 0
vn -0.9921147054673806 -0.1253332006906906 0
vn 0.9921147054673806 0.1253332006906906 0
vn 0.9822872551433722 -0.18738129144314172 0
vn -0.9822872551433722 0.18738129144314172 0
vn -0.9980267282866925 -0.0627905217796479 0
vn 0.9980267282866925 0.0627905217796479 0
vn 0.9921147054673806 -0.1253332006906906 0
vn -0.9921147054673806 0.1253332006906906 0
vn -1 0 0
vn 1 0 0
vn 0.9980267282866925 -0.0627905217796479 0
vn -0.9980267282866925 0.0627905217796479 0
usemtl material_0_0
f 1//1 2//2 3//2
f 2//2 1//1 4//1
f 5//3 6//3 7//4
f 8//4 7//4 6//3
f 13//5 1//1 14//5
f 1//1 13//5 4//1
f 5//3 15//6 6//3
f 16//6 6//3 15//6
f 2//2 19//7 3//2
f 19//7 2//2 20//7
f 21//8 7//4 22//8
f 8//4 22//8 7//4
f 25//9 14//5 26//9
f 14//5 25//9 13//5
f 15//6 27//10 16//6
f 28//10 16//6 27//10
f 20//7 31//11 19//7
f 31//11 20//7 32//11
f 33//12 21//8 34//12
f 22//8 34//12 21//8
f 37//13 25//9 26//9
f 25//9 37//13 38//13
f 39//14 40//14 27//10
f 28//10 27//10 40//14
f 31//11 43//15 44//15
f 43//15 31//11 32//11
f 33//12 34//12 45//16
f 46//16 45//16 34//12
f 49//17 37//13 50//17
f 37//13 49//17 38//13
f 39//14 51//18 40//14
f 52//18 40//14 51//18
f 44//15 55//19 56//19
f 55//19 44//15 43//15
f 45//16 46//16 57//20
f 58//20 57//20 46//16
f 61//21 50//17 62//21
f 50//17 61//21 49//17
f 51//18 63//22 52//18
f 64//22 52//18 63//22
f 55//19 67//23 56//19
f 67//23 55//19 68//23
f 69//24 57//20 70//24
f 58//20 70//24 57//20
f 73//25 61//21 62//21
f 61//21 73//25 74//25
f 75//26 76//26 63//22
f 64//22 63//22 76//26
f 67//23 79//27 80//27
f 79//27 67//23 68//23
f 69//24 70//24 81//28
f 82//28 81//28 70//24
f 85//29 73//25 86//29
f 73//25 85//29 74//25
f 75//26 87//30 76//26
f 88//30 76//26 87//30
f 79//27 91//31 80//27
f 91//31 79//27 92//31
f 93//32 81//28 94//32
f 82//28 94//32 81//28
f 97//33 86//29 98//33
f 86//29 97//33 85//29
f 87//30 99//34 88//30
f 100//34 88//30 99//34
f 91//31 103//35 104//35
f 103//35 91//31 92//31
f 93//32 94//32 105//36
f 106//36 105//36 94//32
f 109//37 97//33 98//33
f 97//33 109//37 110//37
f 111//38 112//38 99//34
f 100//34 99//34 112//38
f 104//35 115//39 116//39
f 115//39 104//35 103//35
f 105//36 106//36 117//40
f 118//40 117//40 106//36
f 121//41 109//37 122//41
f 109//37 121//41 110//37
f 111//38 123//42 112//38
f 124//42 112//38 123//42
f 116//39 127//43 128//43
f 127//43 116//39 115//39
f 117//40 118//40 129//44
f 130//44 129//44 118//40
f 133//45 122//41 134//45
f 122//41 133//45 121//41
f 123//42 135//46 124//42
f 136//46 124//42 135//46
f 127//43 139//47 128//43
f 139//47 127//43 140//47
f 141//48 129//44 142//48
f 130//44 142//48 129//44
f 145//49 134//45 146//49
f 134//45 145//49 133//45
f 135//46 147//50 136//46
f 148//50 136//46 147//50
f 139//47 151//51 152//51
f 151//51 139//47 140//47
f 141//48 142//48 153//52
f 154//52 153//52 142//48
f 157//53 146//49 158//53
f 146//49 157//53 145//49
f 147//50 159//54 148//50
f 160//54 148//50 159//54
f 163//55 151//51 164//55
f 151//51 163//55 152//51
f 154//52 165//56 153//52
f 166//56 153//52 165//56
f 169//57 158//53 170//57
f 158//53 169//57 157//53
f 159//54 171//58 160//54
f 172//58 160//54 171//58
f 175//59 164//55 176//59
f 164//55 175//59 163//55
f 165//56 177//60 166//56
f 178//60 166//56 177//60
f 169//57 181//61 182//61
f 181//61 169//57 170//57
f 172//58 171//58 183//62
f 184//62 183//62 171//58
f 175//59 187//63 188//63
f 187//63 175//59 176//59
f 178//60 177//60 189//64
f 190//64 189//64 177//60
f 182//61 193//65 194//65
f 193//65 182//61 181//61
f 183//62 184//62 195//66
f 196//66 195//66 184//62
f 188//63 199//67 200//67
f 199//67 188//63 187//63
f 189//64 190//64 201//68
f 202//68 201//68 190//64
f 194//65 205//69 206//69
f 205//69 194//65 193//65
f 195//66 196//66 207//70
f 208//70 207//70 196//66
f 211//71 199//67 212//71
f 199//67 211//71 200//67
f 202//68 213//72 201//68
f 214//72 201//68 213//72
f 217//73 205//69 218//73
f 205//69 217//73 206//69
f 208//70 219//74 207//70
f 220//74 207//70 219//74
f 223//75 212//71 224//75
f 212//71 223//75 211//71
f 213//72 225//76 214//72
f 226//76 214//72 225//76
f 229//77 218//73 230//77
f 218//73 229//77 217//73
f 219//74 231//78 220//74
f 232//78 220//74 231//78
f 223//75 235//79 236//79
f 235//79 223//75 224//75
f 226//76 225//76 237//80
f 238//80 237//80 225//76
f 241//81 230//77 242//81
f 230//77 241//81 229//77
f 231//78 243//82 232//78
f 244//82 232//78 243//82
f 247//83 235//79 248//83
f 235//79 247//83 236//79
f 238//80 249//84 237//80
f 250//84 237//80 249//84
f 241//81 253//85 254//85
f 253//85 241//81 242//81
f 244//82 243//82 255//86
f 256//86 255//86 243//82
f 247//83 259//87 260//87
f 259//87 247//83 248//83
f 250//84 249//84 261//88
f 262//88 261//88 249//84
f 254//85 265//89 266//89
f 265//89 254//85 253//85
f 255//86 256//86 267//90
f 268//90 267//90 256//86
f 260//87 271//91 272//91
f 271//91 260//87 259//87
f 261//88 262//88 273//92
f 274//92 273//92 262//88
f 266//89 277//93 278//93
f 277//93 266//89 265//89
f 267//90 268//90 279//94
f 280//94 279//94 268//90
f 272//91 283//95 284//95
f 283//95 272//91 271//91
f 273//92 274//92 285//96
f 286//96 285//96 274//92
f 278//93 289//97 290//97
f 289//97 278//93 277//93
f 279//94 280//94 291//98
f 292//98 291//98 280//94
f 284//95 295//99 296//99
f 295//99 284//95 283//95
f 285//96 286//96 297//100
f 298//100 297//100 286//96
f 301//100 289//97 302//100
f 289//97 301//100 290//97
f 292//98 303//99 291//98
f 304//99 291//98 303//99
f 296//99 307//98 308//98
f 307//98 296//99 295//99
f 297//100 298//100 309//97
f 310//97 309//97 298//100
f 313//96 302//100 314//96
f 302//100 313//96 301//100
f 303//99 315//95 304//99
f 316//95 304//99 315//95
f 319//94 307//98 320//94
f 307//98 319//94 308//98
f 310//97 321//93 309//97
f 322//93 309//97 321//93
f 325//92 314//96 326//92
f 314//96 325//92 313//96
f 315//95 327//91 316//95
f 328//91 316//95 327//91
f 331//90 320//94 332//90
f 320//94 331//90 319//94
f 321//93 333//89 322//93
f 334//89 322//93 333//89
f 325//92 337//88 338//88
f 337//88 325//92 326//92
f 328//91 327//91 339//87
f 340//87 339//87 327//91
f 343//86 332//90 344//86
f 332//90 343//86 331//90
f 333//89 345//85 334//89
f 346//85 334//89 345//85
f 338//88 349//84 350//84
f 349//84 338//88 337//88
f 339//87 340//87 351//83
f 352//83 351//83 340//87
f 355//82 344//86 356//82
f 344//86 355//82 343//86
f 345//85 357//81 346//85
f 358//81 346//85 357//81
f 350//84 361//80 362//80
f 361//80 350//84 349//84
f 351//83 352//83 363//79
f 364//79 363//79 352//83
f 367//78 356//82 368//78
f 356//82 367//78 355//82
f 357//81 369//77 358//81
f 370//77 358//81 369//77
f 373//76 361//80 374//76
f 361//80 373//76 362//80
f 364//79 375//75 363//79
f 376//75 363//79 375//75
f 379//74 368//78 380//74
f 368//78 379//74 367//78
f 369//77 381//73 370//77
f 382//73 370//77 381//73
f 385//72 374//76 386//72
f 374//76 385//72 373//76
f 375//75 387//71 376//75
f 388//71 376//75 387//71
f 379//74 391//70 392//70
f 391//70 379//74 380//74
f 382//73 381//73 393//69
f 394//69 393//69 381//73
f 397//68 386//72 398//68
f 386//72 397//68 385//72
f 387//71 399//67 388//71
f 400//67 388//71 399//67
f 392//70 403//66 404//66
f 403//66 392//70 391//70
f 393//69 394//69 405//65
f 406//65 405//65 394//69
f 397//68 409//64 410//64
f 409//64 397//68 398//68
f 400//67 399//67 411//63
f 412//63 411//63 399//67
f 404//66 415//62 416//62
f 415//62 404//66 403//66
f 405//65 406//65 417//61
f 418//61 417//61 406//65
f 410//64 421//60 422//60
f 421//60 410//64 409//64
f 411//63 412//63 423//59
f 424//59 423//59 412//63
f 427//58 415//62 428//58
f 415//62 427//58 416//62
f 418//61 429//57 417//61
f 430//57 417//61 429//57
f 422//60 433//56 434//56
f 433//56 422//60 421//60
f 423//59 424//59 435//55
f 436//55 435//55 424//59
f 439//54 428//58 440//54
f 428//58 439//54 427//58
f 429//57 441//53 430//57
f 442//53 430//57 441//53
f 445//52 433//56 446//52
f 433//56 445//52 434//56
f 436//55 447//51 435//55
f 448//51 435//55 447//51
f 439//54 451//50 452//50
f 451//50 439//54 440//54
f 442//53 441//53 453//49
f 454//49 453//49 441//53
f 457//48 445//52 446//52
f 445//52 457//48 458//48
f 459//47 460//47 447//51
f 448//51 447//51 460//47
f 452//50 463//46 464//46
f 463//46 452//50 451//50
f 453//49 454//49 465//45
f 466//45 465//45 454//49
f 469//44 458//48 457//48
f 458//48 469//44 470//44
f 471//43 472//43 459//47
f 460//47 459//47 472//43
f 463//46 475//42 464//46
f 475//42 463//46 476//42
f 477//41 465//45 478//41
f 466//45 478//41 465//45
f 481//40 469//44 482//40
f 469//44 481//40 470//44
f 471//43 483//39 472//43
f 484//39 472//43 483//39
f 475//42 487//38 488//38
f 487//38 475//42 476//42
f 477//41 478//41 489//37
f 490//37 489//37 478//41
f 493//36 481//40 482//40
f 481//40 493//36 494//36
f 495//35 496//35 483//39
f 484//39 483//39 496//35
f 487//38 499//34 488//38
f 499//34 487//38 500//34
f 501//33 489//37 502//33
f 490//37 502//33 489//37
f 505//32 493//36 506//32
f 493//36 505//32 494//36
f 495//35 507//31 496//35
f 508//31 496//35 507//31
f 500//34 511//30 499//34
f 511//30 500//34 512//30
f 513//29 501//33 514//29
f 502//33 514//29 501//33
f 517//28 506//32 518//28
f 506//32 517//28 505//32
f 507//31 519//27 508//31
f 520//27 508//31 519//27
f 512//30 523//26 511//30
f 523//26 512//30 524//26
f 525//25 513//29 526//25
f 514//29 526//25 513//29
f 529//24 518//28 530//24
f 518//28 529//24 517//28
f 519//27 531//23 520//27
f 532//23 520//27 531//23
f 523//26 535//22 536//22
f 535//22 523//26 524//26
f 525//25 526//25 537//21
f 538//21 537//21 526//25
f 541//20 529//24 530//24
f 529//24 541//20 542//20
f 543//19 544//19 531//23
f 532//23 531//23 544//19
f 535//22 547//18 536//22
f 547//18 535//22 548//18
f 549//17 537//21 550//17
f 538//21 550//17 537//21
f 553//16 541//20 554//16
f 541//20 553//16 542//20
f 543//19 555//15 544//19
f 556//15 544//19 555//15
f 547//18 559//14 560//14
f 559//14 547//18 548//18
f 549//17 550//17 561//13
f 562//13 561//13 550//17
f 565//12 553//16 554//16
f 553//16 565//12 566//12
f 567//11 568//11 555//15
f 556//15 555//15 568//11
f 559//14 571//10 560//14
f 571//10 559//14 572//10
f 573//9 561//13 574//9
f 562//13 574//9 561//13
f 577//8 566//12 565//12
f 566//12 577//8 578//8
f 579//7 580//7 567//11
f 568//11 567//11 580//7
f 572//10 583//6 571//10
f 583//6 572//10 584//6
f 585//5 573//9 586//5
f 574//9 586//5 573//9
f 589//4 577//8 590//4
f 577//8 589//4 578//8
f 579//7 591//2 580//7
f 592//2 580//7 591//2
f 583//6 595//3 596//3
f 595//3 583//6 584//6
f 585//5 586//5 597//1
f 598//1 597//1 586//5
f 595//3 590//4 596//3
f 590//4 595//3 589//4
f 591//2 597//1 592//2
f 598//1 592//2 597//1
usemtl material_1_0
