# SSTK version 0.8.0
# 123
mtllib original-123.mtl
o #ID1296
v 0.331365 0.431445 -0.493598
v -0.327706 -0.599404 -0.493598
v -0.327706 0.431445 -0.493598
v 0.331365 -0.599404 -0.493598
v 0.331365 -0.599404 -0.493598
v 0.331365 0.431445 -0.493598
v -0.327706 -0.599404 -0.493598
v -0.327706 0.431445 -0.493598
v -0.327706 0.431445 -0.493598
v 0.331365 0.431445 -0.493598
v 0.331365 -0.599404 -0.493598
v -0.327706 -0.599404 -0.493598
vn 0 0 -1
vn 0 0 1
usemtl material_0_0
f 1//1 2//1 3//1
f 2//1 1//1 4//1
f 5//2 6//2 7//2
f 8//2 7//2 6//2
usemtl material_1_0
