# SSTK version 0.8.0
# 132
mtllib original-132.mtl
o #ID147
v -0.050204 0.474173 0.454438
v -0.050389 0.471270 0.454438
v -0.050391 0.472716 0.454438
v -0.050196 0.469862 0.454438
v -0.049829 0.475618 0.454438
v -0.049817 0.468514 0.454438
v -0.049273 0.477025 0.454438
v -0.049257 0.467251 0.454438
v -0.048547 0.478371 0.454438
v -0.048526 0.466093 0.454438
v -0.047662 0.479631 0.454438
v -0.047636 0.465061 0.454438
v -0.046633 0.480786 0.454438
v -0.047445 0.464870 0.454438
v -0.046604 0.464172 0.454438
v -0.027514 0.499905 0.454438
v -0.045446 0.463441 0.454438
v -0.044183 0.462881 0.454438
v -0.042835 0.462501 0.454438
v -0.041427 0.462308 0.454438
v -0.039982 0.462306 0.454438
v -0.038524 0.462494 0.454438
v -0.037079 0.462868 0.454438
v -0.035672 0.463424 0.454438
v -0.034327 0.464150 0.454438
v -0.033066 0.465036 0.454438
v -0.031911 0.466065 0.454438
v -0.012792 0.485184 0.454438
v -0.026359 0.500934 0.454438
v -0.025098 0.501819 0.454438
v -0.025011 0.501866 0.454438
v -0.012928 0.501866 0.454438
v -0.012821 0.501798 0.454438
v -0.011788 0.500909 0.454438
v -0.011763 0.486338 0.454438
v -0.011597 0.500718 0.454438
v -0.010878 0.487599 0.454438
v -0.010899 0.499877 0.454438
v -0.010168 0.498719 0.454438
v -0.010151 0.488945 0.454438
v -0.009608 0.497455 0.454438
v -0.009596 0.490352 0.454438
v -0.009228 0.496108 0.454438
v -0.009221 0.491797 0.454438
v -0.009036 0.494700 0.454438
v -0.009033 0.493254 0.454438
v -0.009033 0.493254 0.454438
v -0.009036 0.494700 0.454438
v -0.009221 0.491797 0.454438
v -0.009228 0.496108 0.454438
v -0.009596 0.490352 0.454438
v -0.009608 0.497455 0.454438
v -0.010151 0.488945 0.454438
v -0.010168 0.498719 0.454438
v -0.010878 0.487599 0.454438
v -0.010899 0.499877 0.454438
v -0.011597 0.500718 0.454438
v -0.011763 0.486338 0.454438
v -0.011788 0.500909 0.454438
v -0.012792 0.485184 0.454438
v -0.012821 0.501798 0.454438
v -0.012928 0.501866 0.454438
v -0.025011 0.501866 0.454438
v -0.025098 0.501819 0.454438
v -0.026359 0.500934 0.454438
v -0.027514 0.499905 0.454438
v -0.031911 0.466065 0.454438
v -0.033066 0.465036 0.454438
v -0.034327 0.464150 0.454438
v -0.035672 0.463424 0.454438
v -0.037079 0.462868 0.454438
v -0.038524 0.462494 0.454438
v -0.039982 0.462306 0.454438
v -0.041427 0.462308 0.454438
v -0.042835 0.462501 0.454438
v -0.044183 0.462881 0.454438
v -0.045446 0.463441 0.454438
v -0.046604 0.464172 0.454438
v -0.046633 0.480786 0.454438
v -0.047445 0.464870 0.454438
v -0.047636 0.465061 0.454438
v -0.047662 0.479631 0.454438
v -0.048526 0.466093 0.454438
v -0.048547 0.478371 0.454438
v -0.049257 0.467251 0.454438
v -0.049273 0.477025 0.454438
v -0.049817 0.468514 0.454438
v -0.049829 0.475618 0.454438
v -0.050196 0.469862 0.454438
v -0.050204 0.474173 0.454438
v -0.050389 0.471270 0.454438
v -0.050391 0.472716 0.454438
v -0.025098 0.501819 0.454438
v -0.025011 0.501866 0.454438
v -0.012928 0.501866 0.454438
v -0.012821 0.501798 0.454438
v -0.011788 0.500909 0.454438
v -0.011597 0.500718 0.454438
v -0.010899 0.499877 0.454438
v -0.010168 0.498719 0.454438
v -0.009608 0.497455 0.454438
v -0.009228 0.496108 0.454438
v -0.009036 0.494700 0.454438
v -0.009033 0.493254 0.454438
v -0.009221 0.491797 0.454438
v -0.009596 0.490352 0.454438
v -0.010151 0.488945 0.454438
v -0.010878 0.487599 0.454438
v -0.011763 0.486338 0.454438
v -0.012792 0.485184 0.454438
v -0.031911 0.466065 0.454438
v -0.033066 0.465036 0.454438
v -0.034327 0.464150 0.454438
v -0.035672 0.463424 0.454438
v -0.037079 0.462868 0.454438
v -0.038524 0.462494 0.454438
v -0.039982 0.462306 0.454438
v -0.041427 0.462308 0.454438
v -0.042835 0.462501 0.454438
v -0.044183 0.462881 0.454438
v -0.045446 0.463441 0.454438
v -0.046604 0.464172 0.454438
v -0.047445 0.464870 0.454438
v -0.047636 0.465061 0.454438
v -0.048526 0.466093 0.454438
v -0.049257 0.467251 0.454438
v -0.049817 0.468514 0.454438
v -0.050196 0.469862 0.454438
v -0.050389 0.471270 0.454438
v -0.050391 0.472716 0.454438
v -0.050204 0.474173 0.454438
v -0.049829 0.475618 0.454438
v -0.049273 0.477025 0.454438
v -0.048547 0.478371 0.454438
v -0.047662 0.479631 0.454438
v -0.046633 0.480786 0.454438
v -0.027514 0.499905 0.454438
v -0.026359 0.500934 0.454438
v -0.025011 0.501866 0.452748
v -0.025098 0.501819 0.454438
v -0.025098 0.501819 0.452748
v -0.025011 0.501866 0.454438
v -0.025011 0.501866 0.454438
v -0.025011 0.501866 0.452748
v -0.025098 0.501819 0.454438
v -0.025098 0.501819 0.452748
v -0.025098 0.501819 0.452748
v -0.025011 0.501866 0.452748
v -0.023752 0.502546 0.454438
v -0.012928 0.501866 0.454438
v -0.025011 0.501866 0.454438
v -0.022345 0.503101 0.454438
v -0.020900 0.503476 0.454438
v -0.019443 0.503664 0.454438
v -0.017998 0.503662 0.454438
v -0.016589 0.503469 0.454438
v -0.015242 0.503089 0.454438
v -0.013978 0.502529 0.454438
v -0.013978 0.502529 0.454438
v -0.015242 0.503089 0.454438
v -0.012928 0.501866 0.454438
v -0.016589 0.503469 0.454438
v -0.017998 0.503662 0.454438
v -0.019443 0.503664 0.454438
v -0.020900 0.503476 0.454438
v -0.022345 0.503101 0.454438
v -0.023752 0.502546 0.454438
v -0.025011 0.501866 0.454438
v -0.013978 0.502529 0.454438
v -0.023752 0.502546 0.454438
v -0.022345 0.503101 0.454438
v -0.020900 0.503476 0.454438
v -0.019443 0.503664 0.454438
v -0.017998 0.503662 0.454438
v -0.016589 0.503469 0.454438
v -0.015242 0.503089 0.454438
v -0.012821 0.501798 0.454438
v -0.012928 0.501866 0.452748
v -0.012821 0.501798 0.452748
v -0.012928 0.501866 0.454438
v -0.012928 0.501866 0.454438
v -0.012821 0.501798 0.454438
v -0.012928 0.501866 0.452748
v -0.012821 0.501798 0.452748
v -0.012928 0.501866 0.452748
v -0.012821 0.501798 0.452748
v -0.011788 0.500909 0.452748
v -0.011788 0.500909 0.454438
v -0.011788 0.500909 0.454438
v -0.011788 0.500909 0.452748
v -0.011788 0.500909 0.452748
v -0.011597 0.500718 0.452748
v -0.011788 0.500909 0.454438
v -0.011788 0.500909 0.452748
v -0.011597 0.500718 0.454438
v -0.011597 0.500718 0.454438
v -0.011597 0.500718 0.452748
v -0.011788 0.500909 0.454438
v -0.011788 0.500909 0.452748
v -0.011597 0.500718 0.452748
v -0.011597 0.500718 0.454438
v -0.010899 0.499877 0.452748
v -0.010899 0.499877 0.454438
v -0.011597 0.500718 0.452748
v -0.011597 0.500718 0.452748
v -0.011597 0.500718 0.454438
v -0.010899 0.499877 0.452748
v -0.010899 0.499877 0.454438
v -0.010899 0.499877 0.452748
v -0.010168 0.498719 0.452748
v -0.010168 0.498719 0.454438
v -0.010168 0.498719 0.452748
v -0.010168 0.498719 0.454438
v -0.010168 0.498719 0.452748
v -0.009608 0.497455 0.452748
v -0.009608 0.497455 0.454438
v -0.009608 0.497455 0.452748
v -0.009608 0.497455 0.454438
v -0.009608 0.497455 0.452748
v -0.009228 0.496108 0.452748
v -0.009228 0.496108 0.454438
v -0.009228 0.496108 0.452748
v -0.009228 0.496108 0.454438
v -0.009228 0.496108 0.452748
v -0.009036 0.494700 0.452748
v -0.009036 0.494700 0.454438
v -0.009036 0.494700 0.452748
v -0.009036 0.494700 0.454438
v -0.009036 0.494700 0.452748
v -0.009033 0.493254 0.452748
v -0.009033 0.493254 0.454438
v -0.009033 0.493254 0.452748
v -0.009033 0.493254 0.454438
v -0.009033 0.493254 0.452748
v -0.009221 0.491797 0.452748
v -0.009221 0.491797 0.454438
v -0.009221 0.491797 0.452748
v -0.009221 0.491797 0.454438
v -0.009221 0.491797 0.452748
v -0.009596 0.490352 0.452748
v -0.009596 0.490352 0.454438
v -0.009596 0.490352 0.452748
v -0.009596 0.490352 0.454438
v -0.009596 0.490352 0.452748
v -0.010151 0.488945 0.452748
v -0.010151 0.488945 0.454438
v -0.010151 0.488945 0.452748
v -0.010151 0.488945 0.454438
v -0.010151 0.488945 0.452748
v -0.010878 0.487599 0.452748
v -0.010878 0.487599 0.454438
v -0.010878 0.487599 0.452748
v -0.010878 0.487599 0.454438
v -0.010878 0.487599 0.452748
v -0.011763 0.486338 0.452748
v -0.011763 0.486338 0.454438
v -0.011763 0.486338 0.452748
v -0.011763 0.486338 0.454438
v -0.011763 0.486338 0.452748
v -0.012792 0.485184 0.452748
v -0.012792 0.485184 0.454438
v -0.012792 0.485184 0.452748
v -0.012792 0.485184 0.454438
v -0.012792 0.485184 0.452748
v -0.012792 0.485184 0.454438
v -0.031911 0.466065 0.452748
v -0.031911 0.466065 0.454438
v -0.012792 0.485184 0.452748
v -0.012792 0.485184 0.452748
v -0.012792 0.485184 0.454438
v -0.031911 0.466065 0.452748
v -0.031911 0.466065 0.454438
v -0.031911 0.466065 0.452748
v -0.033066 0.465036 0.454438
v -0.031911 0.466065 0.452748
v -0.033066 0.465036 0.452748
v -0.031911 0.466065 0.454438
v -0.031911 0.466065 0.454438
v -0.033066 0.465036 0.454438
v -0.031911 0.466065 0.452748
v -0.033066 0.465036 0.452748
v -0.033066 0.465036 0.452748
v -0.034327 0.464150 0.452748
v -0.034327 0.464150 0.454438
v -0.034327 0.464150 0.454438
v -0.034327 0.464150 0.452748
v -0.034327 0.464150 0.452748
v -0.035672 0.463424 0.454438
v -0.035672 0.463424 0.452748
v -0.035672 0.463424 0.454438
v -0.035672 0.463424 0.452748
v -0.035672 0.463424 0.452748
v -0.037079 0.462868 0.452748
v -0.037079 0.462868 0.454438
v -0.037079 0.462868 0.454438
v -0.037079 0.462868 0.452748
v -0.037079 0.462868 0.452748
v -0.038524 0.462494 0.454438
v -0.038524 0.462494 0.452748
v -0.038524 0.462494 0.454438
v -0.038524 0.462494 0.452748
v -0.038524 0.462494 0.452748
v -0.039982 0.462306 0.452748
v -0.039982 0.462306 0.454438
v -0.039982 0.462306 0.454438
v -0.039982 0.462306 0.452748
v -0.039982 0.462306 0.452748
v -0.041427 0.462308 0.454438
v -0.041427 0.462308 0.452748
v -0.041427 0.462308 0.454438
v -0.041427 0.462308 0.452748
v -0.041427 0.462308 0.452748
v -0.042835 0.462501 0.454438
v -0.042835 0.462501 0.452748
v -0.042835 0.462501 0.454438
v -0.042835 0.462501 0.452748
v -0.042835 0.462501 0.452748
v -0.044183 0.462881 0.452748
v -0.044183 0.462881 0.454438
v -0.044183 0.462881 0.454438
v -0.044183 0.462881 0.452748
v -0.044183 0.462881 0.452748
v -0.045446 0.463441 0.454438
v -0.045446 0.463441 0.452748
v -0.045446 0.463441 0.454438
v -0.045446 0.463441 0.452748
v -0.045446 0.463441 0.452748
v -0.046604 0.464172 0.454438
v -0.046604 0.464172 0.452748
v -0.046604 0.464172 0.454438
v -0.046604 0.464172 0.452748
v -0.046604 0.464172 0.452748
v -0.047445 0.464870 0.454438
v -0.047445 0.464870 0.452748
v -0.047445 0.464870 0.454438
v -0.047445 0.464870 0.452748
v -0.047445 0.464870 0.452748
v -0.047445 0.464870 0.476407
v -0.047636 0.465061 0.454438
v -0.047445 0.464870 0.454438
v -0.047636 0.465061 0.476407
v -0.047636 0.465061 0.476407
v -0.047445 0.464870 0.476407
v -0.047636 0.465061 0.454438
v -0.047445 0.464870 0.454438
v -0.047445 0.464870 0.476407
v -0.047636 0.465061 0.476407
v -0.047636 0.465061 0.452748
v -0.047445 0.464870 0.454438
v -0.047445 0.464870 0.452748
v -0.047636 0.465061 0.454438
v -0.047636 0.465061 0.454438
v -0.047636 0.465061 0.452748
v -0.047445 0.464870 0.454438
v -0.047445 0.464870 0.452748
v -0.047636 0.465061 0.452748
v -0.048526 0.466093 0.452748
v -0.047636 0.465061 0.454438
v -0.047636 0.465061 0.452748
v -0.048526 0.466093 0.454438
v -0.048526 0.466093 0.454438
v -0.048526 0.466093 0.452748
v -0.047636 0.465061 0.454438
v -0.047636 0.465061 0.452748
v -0.048526 0.466093 0.452748
v -0.049257 0.467251 0.452748
v -0.049257 0.467251 0.454438
v -0.049257 0.467251 0.454438
v -0.049257 0.467251 0.452748
v -0.049257 0.467251 0.452748
v -0.049817 0.468514 0.452748
v -0.049817 0.468514 0.454438
v -0.049817 0.468514 0.454438
v -0.049817 0.468514 0.452748
v -0.049817 0.468514 0.452748
v -0.050196 0.469862 0.452748
v -0.050196 0.469862 0.454438
v -0.050196 0.469862 0.454438
v -0.050196 0.469862 0.452748
v -0.050196 0.469862 0.452748
v -0.050389 0.471270 0.452748
v -0.050389 0.471270 0.454438
v -0.050389 0.471270 0.454438
v -0.050389 0.471270 0.452748
v -0.050389 0.471270 0.452748
v -0.050391 0.472716 0.452748
v -0.050391 0.472716 0.454438
v -0.050391 0.472716 0.454438
v -0.050391 0.472716 0.452748
v -0.050391 0.472716 0.452748
v -0.050204 0.474173 0.452748
v -0.050204 0.474173 0.454438
v -0.050204 0.474173 0.454438
v -0.050204 0.474173 0.452748
v -0.050204 0.474173 0.452748
v -0.049829 0.475618 0.452748
v -0.049829 0.475618 0.454438
v -0.049829 0.475618 0.454438
v -0.049829 0.475618 0.452748
v -0.049829 0.475618 0.452748
v -0.049273 0.477025 0.452748
v -0.049273 0.477025 0.454438
v -0.049273 0.477025 0.454438
v -0.049273 0.477025 0.452748
v -0.049273 0.477025 0.452748
v -0.048547 0.478371 0.452748
v -0.048547 0.478371 0.454438
v -0.048547 0.478371 0.454438
v -0.048547 0.478371 0.452748
v -0.048547 0.478371 0.452748
v -0.047662 0.479631 0.452748
v -0.047662 0.479631 0.454438
v -0.047662 0.479631 0.454438
v -0.047662 0.479631 0.452748
v -0.047662 0.479631 0.452748
v -0.046633 0.480786 0.452748
v -0.046633 0.480786 0.454438
v -0.046633 0.480786 0.454438
v -0.046633 0.480786 0.452748
v -0.046633 0.480786 0.452748
v -0.027514 0.499905 0.452748
v -0.046633 0.480786 0.454438
v -0.046633 0.480786 0.452748
v -0.027514 0.499905 0.454438
v -0.027514 0.499905 0.454438
v -0.027514 0.499905 0.452748
v -0.046633 0.480786 0.454438
v -0.046633 0.480786 0.452748
v -0.027514 0.499905 0.452748
v -0.026359 0.500934 0.454438
v -0.027514 0.499905 0.452748
v -0.026359 0.500934 0.452748
v -0.027514 0.499905 0.454438
v -0.027514 0.499905 0.454438
v -0.026359 0.500934 0.454438
v -0.027514 0.499905 0.452748
v -0.026359 0.500934 0.452748
v -0.026359 0.500934 0.452748
v -0.023752 0.502546 0.454438
v -0.025011 0.501866 0.452748
v -0.023752 0.502546 0.452748
v -0.025011 0.501866 0.454438
v -0.025011 0.501866 0.454438
v -0.023752 0.502546 0.454438
v -0.025011 0.501866 0.452748
v -0.023752 0.502546 0.452748
v -0.023752 0.502546 0.452748
v -0.012928 0.501866 0.454438
v -0.013978 0.502529 0.452748
v -0.012928 0.501866 0.452748
v -0.013978 0.502529 0.454438
v -0.013978 0.502529 0.454438
v -0.012928 0.501866 0.454438
v -0.013978 0.502529 0.452748
v -0.012928 0.501866 0.452748
v -0.013978 0.502529 0.452748
v -0.022345 0.503101 0.452748
v -0.022345 0.503101 0.454438
v -0.022345 0.503101 0.454438
v -0.022345 0.503101 0.452748
v -0.022345 0.503101 0.452748
v -0.020900 0.503476 0.454438
v -0.020900 0.503476 0.452748
v -0.020900 0.503476 0.454438
v -0.020900 0.503476 0.452748
v -0.020900 0.503476 0.452748
v -0.019443 0.503664 0.452748
v -0.019443 0.503664 0.454438
v -0.019443 0.503664 0.454438
v -0.019443 0.503664 0.452748
v -0.019443 0.503664 0.452748
v -0.017998 0.503662 0.454438
v -0.017998 0.503662 0.452748
v -0.017998 0.503662 0.454438
v -0.017998 0.503662 0.452748
v -0.017998 0.503662 0.452748
v -0.016589 0.503469 0.452748
v -0.016589 0.503469 0.454438
v -0.016589 0.503469 0.454438
v -0.016589 0.503469 0.452748
v -0.016589 0.503469 0.452748
v -0.015242 0.503089 0.454438
v -0.015242 0.503089 0.452748
v -0.015242 0.503089 0.454438
v -0.015242 0.503089 0.452748
v -0.015242 0.503089 0.452748
vn 0 0 -1
vn 0 0 1
vn 0.47513402151037243 -0.8799134398356357 0
vn 0.5257644877464567 -0.8506301801750898 0
vn -0.47513402151037243 0.8799134398356357 0
vn -0.5257644877464567 0.8506301801750898 0
vn -0.5948473101317429 -0.8038387136913911 0
vn -0.5338077003485499 -0.8456059005521385 0
vn 0.5338077003485499 0.8456059005521385 0
vn 0.5948473101317429 0.8038387136913911 0
vn -0.6526328846491284 -0.7576742821784025 0
vn 0.6526328846491284 0.7576742821784025 0
vn -0.7071067811865476 -0.7071067811865476 0
vn 0.7071067811865476 0.7071067811865476 0
vn -0.7695372835415601 -0.6386018863419343 0
vn -0.8092696063111214 -0.5874374045811541 0
vn 0.7695372835415601 0.6386018863419343 0
vn 0.8092696063111214 0.5874374045811541 0
vn -0.8822530541846619 -0.4707754755526632 0
vn 0.8822530541846619 0.4707754755526632 0
vn -0.9407616887677099 -0.33906849595166794 0
vn 0.9407616887677099 0.33906849595166794 0
vn -0.9790012365999962 -0.20385430762110054 0
vn 0.9790012365999962 0.20385430762110054 0
vn -0.9976309015954622 -0.06879378011001852 0
vn 0.9976309015954622 0.06879378011001852 0
vn -0.9980033051475772 0.06316172032578032 0
vn 0.9980033051475772 -0.06316172032578032 0
vn -0.9818168375914456 0.18983070726816897 0
vn 0.9818168375914456 -0.18983070726816897 0
vn -0.9508262407231851 0.3097248132652849 0
vn 0.9508262407231851 -0.3097248132652849 0
vn -0.9066439441994509 0.42189662056772026 0
vn 0.9066439441994509 -0.42189662056772026 0
vn -0.8506301801750898 0.5257644877464567 0
vn 0.8506301801750898 -0.5257644877464567 0
vn -0.7838543839868546 0.6209446873148919 0
vn 0.7838543839868546 -0.6209446873148919 0
vn -0.7466505145512854 0.6652165129642384 0
vn 0.7466505145512854 -0.6652165129642384 0
vn -0.7071067811865476 0.7071067811865476 0
vn 0.7071067811865476 -0.7071067811865476 0
vn -0.6209446873148919 0.7838543839868546 0
vn -0.6652165129642384 0.7466505145512854 0
vn 0.6652165129642384 -0.7466505145512854 0
vn 0.6209446873148919 -0.7838543839868546 0
vn -0.42189662056772026 0.9066439441994509 0
vn 0.42189662056772026 -0.9066439441994509 0
vn -0.3097248132652849 0.9508262407231851 0
vn 0.3097248132652849 -0.9508262407231851 0
vn -0.18983070726816897 0.9818168375914456 0
vn 0.18983070726816897 -0.9818168375914456 0
vn -0.06316172032578032 0.9980033051475772 0
vn 0.06316172032578032 -0.9980033051475772 0
vn 0.06879378011001852 0.9976309015954622 0
vn -0.06879378011001852 -0.9976309015954622 0
vn 0.20385430762110054 0.9790012365999962 0
vn -0.20385430762110054 -0.9790012365999962 0
vn 0.33906849595166794 0.9407616887677099 0
vn -0.33906849595166794 -0.9407616887677099 0
vn 0.4707754755526632 0.8822530541846619 0
vn -0.4707754755526632 -0.8822530541846619 0
vn 0.5874374045811541 0.8092696063111214 0
vn -0.5874374045811541 -0.8092696063111214 0
vn 0.6386018863419343 0.7695372835415601 0
vn -0.6386018863419343 -0.7695372835415601 0
vn 0.8038387136913911 0.5948473101317429 0
vn 0.7576742821784025 0.6526328846491284 0
vn -0.8038387136913911 -0.5948473101317429 0
vn -0.7576742821784025 -0.6526328846491284 0
usemtl material_0_0
f 1//1 2//1 3//1
f 2//1 1//1 4//1
f 4//1 1//1 5//1
f 4//1 5//1 6//1
f 6//1 5//1 7//1
f 6//1 7//1 8//1
f 8//1 7//1 9//1
f 8//1 9//1 10//1
f 10//1 9//1 11//1
f 10//1 11//1 12//1
f 12//1 11//1 13//1
f 12//1 13//1 14//1
f 14//1 13//1 15//1
f 15//1 13//1 16//1
f 15//1 16//1 17//1
f 17//1 16//1 18//1
f 18//1 16//1 19//1
f 19//1 16//1 20//1
f 20//1 16//1 21//1
f 21//1 16//1 22//1
f 22//1 16//1 23//1
f 23//1 16//1 24//1
f 24//1 16//1 25//1
f 25//1 16//1 26//1
f 26//1 16//1 27//1
f 27//1 16//1 28//1
f 28//1 16//1 29//1
f 28//1 29//1 30//1
f 28//1 30//1 31//1
f 28//1 31//1 32//1
f 28//1 32//1 33//1
f 28//1 33//1 34//1
f 28//1 34//1 35//1
f 35//1 34//1 36//1
f 35//1 36//1 37//1
f 37//1 36//1 38//1
f 37//1 38//1 39//1
f 37//1 39//1 40//1
f 40//1 39//1 41//1
f 40//1 41//1 42//1
f 42//1 41//1 43//1
f 42//1 43//1 44//1
f 44//1 43//1 45//1
f 44//1 45//1 46//1
f 47//2 48//2 49//2
f 48//2 50//2 49//2
f 49//2 50//2 51//2
f 50//2 52//2 51//2
f 51//2 52//2 53//2
f 52//2 54//2 53//2
f 53//2 54//2 55//2
f 54//2 56//2 55//2
f 56//2 57//2 55//2
f 55//2 57//2 58//2
f 57//2 59//2 58//2
f 58//2 59//2 60//2
f 59//2 61//2 60//2
f 61//2 62//2 60//2
f 62//2 63//2 60//2
f 63//2 64//2 60//2
f 64//2 65//2 60//2
f 65//2 66//2 60//2
f 60//2 66//2 67//2
f 67//2 66//2 68//2
f 68//2 66//2 69//2
f 69//2 66//2 70//2
f 70//2 66//2 71//2
f 71//2 66//2 72//2
f 72//2 66//2 73//2
f 73//2 66//2 74//2
f 74//2 66//2 75//2
f 75//2 66//2 76//2
f 76//2 66//2 77//2
f 77//2 66//2 78//2
f 66//2 79//2 78//2
f 78//2 79//2 80//2
f 80//2 79//2 81//2
f 79//2 82//2 81//2
f 81//2 82//2 83//2
f 82//2 84//2 83//2
f 83//2 84//2 85//2
f 84//2 86//2 85//2
f 85//2 86//2 87//2
f 86//2 88//2 87//2
f 87//2 88//2 89//2
f 88//2 90//2 89//2
f 89//2 90//2 91//2
f 92//2 91//2 90//2
f 139//3 140//4 141//4
f 140//4 139//3 142//3
f 143//5 144//5 145//6
f 146//6 145//6 144//5
f 149//1 150//1 151//1
f 150//1 149//1 152//1
f 150//1 152//1 153//1
f 150//1 153//1 154//1
f 150//1 154//1 155//1
f 150//1 155//1 156//1
f 150//1 156//1 157//1
f 150//1 157//1 158//1
f 159//2 160//2 161//2
f 160//2 162//2 161//2
f 162//2 163//2 161//2
f 163//2 164//2 161//2
f 164//2 165//2 161//2
f 165//2 166//2 161//2
f 166//2 167//2 161//2
f 168//2 161//2 167//2
f 177//7 178//8 179//7
f 178//8 177//7 180//8
f 181//9 182//10 183//9
f 184//10 183//9 182//10
f 187//11 177//7 179//7
f 177//7 187//11 188//11
f 189//12 190//12 182//10
f 184//10 182//10 190//12
f 192//13 193//13 194//13
f 193//13 192//13 195//13
f 196//14 197//14 198//14
f 199//14 198//14 197//14
f 201//15 202//16 203//16
f 202//16 201//15 204//15
f 205//17 206//17 207//18
f 208//18 207//18 206//17
f 203//16 210//19 211//19
f 210//19 203//16 202//16
f 207//18 208//18 212//20
f 213//20 212//20 208//18
f 211//19 215//21 216//21
f 215//21 211//19 210//19
f 212//20 213//20 217//22
f 218//22 217//22 213//20
f 216//21 220//23 221//23
f 220//23 216//21 215//21
f 217//22 218//22 222//24
f 223//24 222//24 218//22
f 221//23 225//25 226//25
f 225//25 221//23 220//23
f 222//24 223//24 227//26
f 228//26 227//26 223//24
f 226//25 230//27 231//27
f 230//27 226//25 225//25
f 227//26 228//26 232//28
f 233//28 232//28 228//26
f 231//27 235//29 236//29
f 235//29 231//27 230//27
f 232//28 233//28 237//30
f 238//30 237//30 233//28
f 236//29 240//31 241//31
f 240//31 236//29 235//29
f 237//30 238//30 242//32
f 243//32 242//32 238//30
f 241//31 245//33 246//33
f 245//33 241//31 240//31
f 242//32 243//32 247//34
f 248//34 247//34 243//32
f 246//33 250//35 251//35
f 250//35 246//33 245//33
f 247//34 248//34 252//36
f 253//36 252//36 248//34
f 251//35 255//37 256//37
f 255//37 251//35 250//35
f 252//36 253//36 257//38
f 258//38 257//38 253//36
f 256//37 260//39 261//39
f 260//39 256//37 255//37
f 257//38 258//38 262//40
f 263//40 262//40 258//38
f 265//41 266//41 267//41
f 266//41 265//41 268//41
f 269//42 270//42 271//42
f 272//42 271//42 270//42
f 274//43 275//44 276//43
f 275//44 274//43 277//44
f 278//45 279//46 280//45
f 281//46 280//45 279//46
f 283//6 274//43 276//43
f 274//43 283//6 284//6
f 285//4 286//4 279//46
f 281//46 279//46 286//4
f 288//47 283//6 289//47
f 283//6 288//47 284//6
f 285//4 290//48 286//4
f 291//48 286//4 290//48
f 293//49 288//47 289//47
f 288//47 293//49 294//49
f 295//50 296//50 290//48
f 291//48 290//48 296//50
f 298//51 293//49 299//51
f 293//49 298//51 294//49
f 295//50 300//52 296//50
f 301//52 296//50 300//52
f 303//53 298//51 299//51
f 298//51 303//53 304//53
f 305//54 306//54 300//52
f 301//52 300//52 306//54
f 308//55 303//53 309//55
f 303//53 308//55 304//53
f 305//54 310//56 306//54
f 311//56 306//54 310//56
f 313//57 309//55 314//57
f 309//55 313//57 308//55
f 310//56 315//58 311//56
f 316//58 311//56 315//58
f 318//59 313//57 314//57
f 313//57 318//59 319//59
f 320//60 321//60 315//58
f 316//58 315//58 321//60
f 323//61 318//59 324//61
f 318//59 323//61 319//59
f 320//60 325//62 321//60
f 326//62 321//60 325//62
f 328//63 324//61 329//63
f 324//61 328//63 323//61
f 325//62 330//64 326//62
f 331//64 326//62 330//64
f 333//65 329//63 334//65
f 329//63 333//65 328//63
f 330//64 335//66 331//64
f 336//66 331//64 335//66
f 338//13 339//13 340//13
f 339//13 338//13 341//13
f 342//14 343//14 344//14
f 345//14 344//14 343//14
f 348//14 349//14 350//14
f 349//14 348//14 351//14
f 352//13 353//13 354//13
f 355//13 354//13 353//13
f 357//67 358//68 359//68
f 358//68 357//67 360//67
f 361//69 362//69 363//70
f 364//70 363//70 362//69
f 366//20 360//67 357//67
f 360//67 366//20 367//20
f 368//19 369//19 361//69
f 362//69 361//69 369//19
f 371//22 367//20 366//20
f 367//20 371//22 372//22
f 373//21 374//21 368//19
f 369//19 368//19 374//21
f 376//24 372//22 371//22
f 372//22 376//24 377//24
f 378//23 379//23 373//21
f 374//21 373//21 379//23
f 381//26 377//24 376//24
f 377//24 381//26 382//26
f 383//25 384//25 378//23
f 379//23 378//23 384//25
f 386//28 382//26 381//26
f 382//26 386//28 387//28
f 388//27 389//27 383//25
f 384//25 383//25 389//27
f 391//30 387//28 386//28
f 387//28 391//30 392//30
f 393//29 394//29 388//27
f 389//27 388//27 394//29
f 396//32 392//30 391//30
f 392//30 396//32 397//32
f 398//31 399//31 393//29
f 394//29 393//29 399//31
f 401//34 397//32 396//32
f 397//32 401//34 402//34
f 403//33 404//33 398//31
f 399//31 398//31 404//33
f 406//36 402//34 401//34
f 402//34 406//36 407//36
f 408//35 409//35 403//33
f 404//33 403//33 409//35
f 411//38 407//36 406//36
f 407//36 411//38 412//38
f 413//37 414//37 408//35
f 409//35 408//35 414//37
f 416//40 412//38 411//38
f 412//38 416//40 417//40
f 418//39 419//39 413//37
f 414//37 413//37 419//39
f 421//42 422//42 423//42
f 422//42 421//42 424//42
f 425//41 426//41 427//41
f 428//41 427//41 426//41
f 430//46 431//45 432//46
f 431//45 430//46 433//45
f 434//44 435//43 436//44
f 437//43 436//44 435//43
f 141//4 430//46 432//46
f 430//46 141//4 140//4
f 145//6 146//6 435//43
f 437//43 435//43 146//6
f 439//48 440//3 441//48
f 440//3 439//48 442//3
f 443//5 444//47 445//5
f 446//47 445//5 444//47
f 448//8 449//62 450//8
f 449//62 448//8 451//62
f 452//61 453//9 454//61
f 455//9 454//61 453//9
f 457//50 439//48 441//48
f 439//48 457//50 458//50
f 459//49 460//49 444//47
f 446//47 444//47 460//49
f 462//52 457//50 463//52
f 457//50 462//52 458//50
f 459//49 464//51 460//49
f 465//51 460//49 464//51
f 467//54 462//52 463//52
f 462//52 467//54 468//54
f 469//53 470//53 464//51
f 465//51 464//51 470//53
f 472//56 467//54 473//56
f 467//54 472//56 468//54
f 469//53 474//55 470//53
f 475//55 470//53 474//55
f 477//58 472//56 473//56
f 472//56 477//58 478//58
f 479//57 480//57 474//55
f 475//55 474//55 480//57
f 482//60 477//58 483//60
f 477//58 482//60 478//58
f 479//57 484//59 480//57
f 485//59 480//57 484//59
f 451//62 483//60 449//62
f 483//60 451//62 482//60
f 484//59 452//61 485//59
f 454//61 485//59 452//61
usemtl material_1_0
