# SSTK version 0.8.0
# 146
mtllib original-146.mtl
o #ID236
v 0.491901 0.659577 0.402051
v -0.488243 0.659577 -0.544295
v -0.488243 0.659577 0.402051
v 0.491901 0.659577 -0.544295
v 0.491901 0.659577 -0.544295
v 0.491901 0.659577 0.402051
v -0.488243 0.659577 -0.544295
v -0.488243 0.659577 0.402051
v -0.488243 0.659577 -0.544295
v -0.488243 0.659577 0.402051
v 0.491901 0.659577 0.402051
v 0.491901 0.659577 -0.544295
vt 3.933333 0.2
vt 0.06666667 3.933333
vt 0.06666667 0.2
vt 3.933333 3.933333
vn 0 1 0
vn 0 -1 0
usemtl material_0_0
f 5//2 6//2 7//2
f 8//2 7//2 6//2
usemtl material_1_0
f 1/1/1 2/2/1 3/3/1
f 2/2/1 1/1/1 4/4/1
usemtl material_2_0
