# SSTK version 0.8.0
# 24
mtllib original-24.mtl
o #ID504
v 0.355348 0.539568 0.456128
v 0.353994 0.537932 0.456128
v 0.352746 0.536214 0.456128
v 0.352746 0.536214 0.456128
v 0.353994 0.537932 0.456128
v 0.355348 0.539568 0.456128
v 0.353994 0.537932 0.456128
v 0.352746 0.536214 0.456128
v 0.355348 0.539568 0.456128
v 0.373227 0.521334 0.469647
v 0.355348 0.539568 0.456128
v 0.352746 0.536214 0.456128
v 0.374853 0.523432 0.469647
v 0.374853 0.523432 0.469647
v 0.373227 0.521334 0.469647
v 0.355348 0.539568 0.456128
v 0.352746 0.536214 0.456128
v 0.373227 0.521334 0.469647
v 0.374853 0.523432 0.469647
v 0.371735 0.519139 0.469647
v 0.350361 0.532704 0.456128
v 0.371735 0.519139 0.469647
v 0.350361 0.532704 0.456128
v 0.350361 0.532704 0.456128
v 0.371735 0.519139 0.469647
v 0.358155 0.542752 0.456128
v 0.376609 0.525422 0.469647
v 0.376609 0.525422 0.469647
v 0.358155 0.542752 0.456128
v 0.376609 0.525422 0.469647
v 0.358155 0.542752 0.456128
v 0.370384 0.516855 0.469647
v 0.348200 0.529051 0.456128
v 0.370384 0.516855 0.469647
v 0.348200 0.529051 0.456128
v 0.348200 0.529051 0.456128
v 0.370384 0.516855 0.469647
v 0.352746 0.536214 0.456128
v 0.351498 0.534497 0.456128
v 0.350361 0.532704 0.456128
v 0.350361 0.532704 0.456128
v 0.351498 0.534497 0.456128
v 0.352746 0.536214 0.456128
v 0.351498 0.534497 0.456128
v 0.361156 0.545753 0.456128
v 0.378486 0.527299 0.469647
v 0.378486 0.527299 0.469647
v 0.361156 0.545753 0.456128
v 0.378486 0.527299 0.469647
v 0.361156 0.545753 0.456128
v 0.358155 0.542752 0.456128
v 0.356701 0.541204 0.456128
v 0.355348 0.539568 0.456128
v 0.355348 0.539568 0.456128
v 0.356701 0.541204 0.456128
v 0.358155 0.542752 0.456128
v 0.356701 0.541204 0.456128
v 0.369179 0.514490 0.469647
v 0.346273 0.525269 0.456128
v 0.369179 0.514490 0.469647
v 0.346273 0.525269 0.456128
v 0.346273 0.525269 0.456128
v 0.369179 0.514490 0.469647
v 0.350361 0.532704 0.456128
v 0.349223 0.530911 0.456128
v 0.348200 0.529051 0.456128
v 0.348200 0.529051 0.456128
v 0.349223 0.530911 0.456128
v 0.350361 0.532704 0.456128
v 0.349223 0.530911 0.456128
v 0.364340 0.548560 0.456128
v 0.380476 0.529054 0.469647
v 0.380476 0.529054 0.469647
v 0.364340 0.548560 0.456128
v 0.380476 0.529054 0.469647
v 0.364340 0.548560 0.456128
v 0.361156 0.545753 0.456128
v 0.359608 0.544300 0.456128
v 0.358155 0.542752 0.456128
v 0.358155 0.542752 0.456128
v 0.359608 0.544300 0.456128
v 0.361156 0.545753 0.456128
v 0.359608 0.544300 0.456128
v 0.368125 0.512054 0.469647
v 0.344588 0.521373 0.456128
v 0.368125 0.512054 0.469647
v 0.344588 0.521373 0.456128
v 0.344588 0.521373 0.456128
v 0.368125 0.512054 0.469647
v 0.348200 0.529051 0.456128
v 0.347177 0.527190 0.456128
v 0.346273 0.525269 0.456128
v 0.346273 0.525269 0.456128
v 0.347177 0.527190 0.456128
v 0.348200 0.529051 0.456128
v 0.347177 0.527190 0.456128
v 0.367693 0.551161 0.456128
v 0.382573 0.530681 0.469647
v 0.382573 0.530681 0.469647
v 0.367693 0.551161 0.456128
v 0.382573 0.530681 0.469647
v 0.367693 0.551161 0.456128
v 0.364340 0.548560 0.456128
v 0.362704 0.547207 0.456128
v 0.361156 0.545753 0.456128
v 0.361156 0.545753 0.456128
v 0.362704 0.547207 0.456128
v 0.364340 0.548560 0.456128
v 0.362704 0.547207 0.456128
v 0.367226 0.509557 0.469647
v 0.343150 0.517380 0.456128
v 0.367226 0.509557 0.469647
v 0.343150 0.517380 0.456128
v 0.343150 0.517380 0.456128
v 0.367226 0.509557 0.469647
v 0.346273 0.525269 0.456128
v 0.345369 0.523347 0.456128
v 0.344588 0.521373 0.456128
v 0.344588 0.521373 0.456128
v 0.345369 0.523347 0.456128
v 0.346273 0.525269 0.456128
v 0.345369 0.523347 0.456128
v 0.371204 0.553547 0.456128
v 0.384768 0.532173 0.469647
v 0.384768 0.532173 0.469647
v 0.371204 0.553547 0.456128
v 0.384768 0.532173 0.469647
v 0.371204 0.553547 0.456128
v 0.367693 0.551161 0.456128
v 0.365975 0.549913 0.456128
v 0.364340 0.548560 0.456128
v 0.364340 0.548560 0.456128
v 0.365975 0.549913 0.456128
v 0.367693 0.551161 0.456128
v 0.365975 0.549913 0.456128
v 0.366485 0.507009 0.469647
v 0.341966 0.513304 0.456128
v 0.366485 0.507009 0.469647
v 0.341966 0.513304 0.456128
v 0.341966 0.513304 0.456128
v 0.366485 0.507009 0.469647
v 0.344588 0.521373 0.456128
v 0.343806 0.519399 0.456128
v 0.343150 0.517380 0.456128
v 0.343150 0.517380 0.456128
v 0.343806 0.519399 0.456128
v 0.344588 0.521373 0.456128
v 0.343806 0.519399 0.456128
v 0.374857 0.555708 0.456128
v 0.387053 0.533524 0.469647
v 0.387053 0.533524 0.469647
v 0.374857 0.555708 0.456128
v 0.387053 0.533524 0.469647
v 0.374857 0.555708 0.456128
v 0.371204 0.553547 0.456128
v 0.369411 0.552409 0.456128
v 0.367693 0.551161 0.456128
v 0.367693 0.551161 0.456128
v 0.369411 0.552409 0.456128
v 0.371204 0.553547 0.456128
v 0.369411 0.552409 0.456128
v 0.365906 0.504418 0.469647
v 0.341040 0.509162 0.456128
v 0.365906 0.504418 0.469647
v 0.341040 0.509162 0.456128
v 0.341040 0.509162 0.456128
v 0.365906 0.504418 0.469647
v 0.343150 0.517380 0.456128
v 0.342494 0.515361 0.456128
v 0.341966 0.513304 0.456128
v 0.341966 0.513304 0.456128
v 0.342494 0.515361 0.456128
v 0.343150 0.517380 0.456128
v 0.342494 0.515361 0.456128
v 0.378639 0.557635 0.456128
v 0.389418 0.534729 0.469647
v 0.389418 0.534729 0.469647
v 0.378639 0.557635 0.456128
v 0.389418 0.534729 0.469647
v 0.378639 0.557635 0.456128
v 0.374857 0.555708 0.456128
v 0.372996 0.554685 0.456128
v 0.371204 0.553547 0.456128
v 0.371204 0.553547 0.456128
v 0.372996 0.554685 0.456128
v 0.374857 0.555708 0.456128
v 0.372996 0.554685 0.456128
v 0.365491 0.501797 0.469647
v 0.340376 0.504970 0.456128
v 0.365491 0.501797 0.469647
v 0.340376 0.504970 0.456128
v 0.340376 0.504970 0.456128
v 0.365491 0.501797 0.469647
v 0.341966 0.513304 0.456128
v 0.341438 0.511248 0.456128
v 0.341040 0.509162 0.456128
v 0.341040 0.509162 0.456128
v 0.341438 0.511248 0.456128
v 0.341966 0.513304 0.456128
v 0.341438 0.511248 0.456128
v 0.382534 0.559320 0.456128
v 0.391854 0.535783 0.469647
v 0.391854 0.535783 0.469647
v 0.382534 0.559320 0.456128
v 0.391854 0.535783 0.469647
v 0.382534 0.559320 0.456128
v 0.378639 0.557635 0.456128
v 0.376718 0.556730 0.456128
v 0.374857 0.555708 0.456128
v 0.374857 0.555708 0.456128
v 0.376718 0.556730 0.456128
v 0.378639 0.557635 0.456128
v 0.376718 0.556730 0.456128
v 0.365241 0.499155 0.469647
v 0.339976 0.500744 0.456128
v 0.365241 0.499155 0.469647
v 0.339976 0.500744 0.456128
v 0.339976 0.500744 0.456128
v 0.365241 0.499155 0.469647
v 0.341040 0.509162 0.456128
v 0.340642 0.507076 0.456128
v 0.340376 0.504970 0.456128
v 0.340376 0.504970 0.456128
v 0.340642 0.507076 0.456128
v 0.341040 0.509162 0.456128
v 0.340642 0.507076 0.456128
v 0.386528 0.560758 0.456128
v 0.394351 0.536682 0.469647
v 0.394351 0.536682 0.469647
v 0.386528 0.560758 0.456128
v 0.394351 0.536682 0.469647
v 0.386528 0.560758 0.456128
v 0.382534 0.559320 0.456128
v 0.380560 0.558539 0.456128
v 0.378639 0.557635 0.456128
v 0.378639 0.557635 0.456128
v 0.380560 0.558539 0.456128
v 0.382534 0.559320 0.456128
v 0.380560 0.558539 0.456128
v 0.365158 0.496502 0.469647
v 0.339843 0.496502 0.456128
v 0.365158 0.496502 0.469647
v 0.339843 0.496502 0.456128
v 0.339843 0.496502 0.456128
v 0.365158 0.496502 0.469647
v 0.340376 0.504970 0.456128
v 0.340110 0.502863 0.456128
v 0.339976 0.500744 0.456128
v 0.339976 0.500744 0.456128
v 0.340110 0.502863 0.456128
v 0.340376 0.504970 0.456128
v 0.340110 0.502863 0.456128
v 0.390604 0.561942 0.456128
v 0.396899 0.537422 0.469647
v 0.396899 0.537422 0.469647
v 0.390604 0.561942 0.456128
v 0.396899 0.537422 0.469647
v 0.390604 0.561942 0.456128
v 0.386528 0.560758 0.456128
v 0.384509 0.560102 0.456128
v 0.382534 0.559320 0.456128
v 0.382534 0.559320 0.456128
v 0.384509 0.560102 0.456128
v 0.386528 0.560758 0.456128
v 0.384509 0.560102 0.456128
v 0.339976 0.492260 0.456128
v 0.365241 0.493849 0.469647
v 0.365241 0.493849 0.469647
v 0.339976 0.492260 0.456128
v 0.339976 0.492260 0.456128
v 0.365241 0.493849 0.469647
v 0.339976 0.500744 0.456128
v 0.339843 0.498625 0.456128
v 0.339843 0.496502 0.456128
v 0.339843 0.496502 0.456128
v 0.339843 0.498625 0.456128
v 0.339976 0.500744 0.456128
v 0.339843 0.498625 0.456128
v 0.394746 0.562868 0.456128
v 0.399489 0.538001 0.469647
v 0.399489 0.538001 0.469647
v 0.394746 0.562868 0.456128
v 0.399489 0.538001 0.469647
v 0.394746 0.562868 0.456128
v 0.390604 0.561942 0.456128
v 0.388547 0.561414 0.456128
v 0.386528 0.560758 0.456128
v 0.386528 0.560758 0.456128
v 0.388547 0.561414 0.456128
v 0.390604 0.561942 0.456128
v 0.388547 0.561414 0.456128
v 0.340376 0.488034 0.456128
v 0.365491 0.491207 0.469647
v 0.365491 0.491207 0.469647
v 0.340376 0.488034 0.456128
v 0.340376 0.488034 0.456128
v 0.365491 0.491207 0.469647
v 0.339976 0.492260 0.456128
v 0.339843 0.496502 0.456128
v 0.339843 0.494379 0.456128
v 0.339843 0.494379 0.456128
v 0.339843 0.496502 0.456128
v 0.339976 0.492260 0.456128
v 0.339843 0.494379 0.456128
v 0.398938 0.563532 0.456128
v 0.402111 0.538417 0.469647
v 0.402111 0.538417 0.469647
v 0.398938 0.563532 0.456128
v 0.402111 0.538417 0.469647
v 0.398938 0.563532 0.456128
v 0.394746 0.562868 0.456128
v 0.392660 0.562470 0.456128
v 0.390604 0.561942 0.456128
v 0.390604 0.561942 0.456128
v 0.392660 0.562470 0.456128
v 0.394746 0.562868 0.456128
v 0.392660 0.562470 0.456128
v 0.341040 0.483842 0.456128
v 0.365906 0.488585 0.469647
v 0.365906 0.488585 0.469647
v 0.341040 0.483842 0.456128
v 0.341040 0.483842 0.456128
v 0.365906 0.488585 0.469647
v 0.340376 0.488034 0.456128
v 0.339976 0.492260 0.456128
v 0.340110 0.490141 0.456128
v 0.340110 0.490141 0.456128
v 0.339976 0.492260 0.456128
v 0.340376 0.488034 0.456128
v 0.340110 0.490141 0.456128
v 0.403164 0.563931 0.456128
v 0.404753 0.538666 0.469647
v 0.404753 0.538666 0.469647
v 0.403164 0.563931 0.456128
v 0.404753 0.538666 0.469647
v 0.403164 0.563931 0.456128
v 0.398938 0.563532 0.456128
v 0.396832 0.563266 0.456128
v 0.394746 0.562868 0.456128
v 0.394746 0.562868 0.456128
v 0.396832 0.563266 0.456128
v 0.398938 0.563532 0.456128
v 0.396832 0.563266 0.456128
v 0.341966 0.479700 0.456128
v 0.366485 0.485995 0.469647
v 0.366485 0.485995 0.469647
v 0.341966 0.479700 0.456128
v 0.341966 0.479700 0.456128
v 0.366485 0.485995 0.469647
v 0.341040 0.483842 0.456128
v 0.340376 0.488034 0.456128
v 0.340642 0.485928 0.456128
v 0.340642 0.485928 0.456128
v 0.340376 0.488034 0.456128
v 0.341040 0.483842 0.456128
v 0.340642 0.485928 0.456128
v 0.407406 0.564065 0.456128
v 0.407406 0.538750 0.469647
v 0.407406 0.538750 0.469647
v 0.407406 0.564065 0.456128
v 0.407406 0.538750 0.469647
v 0.407406 0.564065 0.456128
v 0.403164 0.563931 0.456128
v 0.401044 0.563798 0.456128
v 0.398938 0.563532 0.456128
v 0.398938 0.563532 0.456128
v 0.401044 0.563798 0.456128
v 0.403164 0.563931 0.456128
v 0.401044 0.563798 0.456128
v 0.343150 0.475624 0.456128
v 0.367226 0.483447 0.469647
v 0.367226 0.483447 0.469647
v 0.343150 0.475624 0.456128
v 0.343150 0.475624 0.456128
v 0.367226 0.483447 0.469647
v 0.341966 0.479700 0.456128
v 0.341040 0.483842 0.456128
v 0.341438 0.481756 0.456128
v 0.341438 0.481756 0.456128
v 0.341040 0.483842 0.456128
v 0.341966 0.479700 0.456128
v 0.341438 0.481756 0.456128
v 0.411648 0.563931 0.456128
v 0.410058 0.538666 0.469647
v 0.410058 0.538666 0.469647
v 0.411648 0.563931 0.456128
v 0.410058 0.538666 0.469647
v 0.411648 0.563931 0.456128
v 0.407406 0.564065 0.456128
v 0.405283 0.564065 0.456128
v 0.403164 0.563931 0.456128
v 0.403164 0.563931 0.456128
v 0.405283 0.564065 0.456128
v 0.407406 0.564065 0.456128
v 0.405283 0.564065 0.456128
v 0.344588 0.471631 0.456128
v 0.368125 0.480950 0.469647
v 0.368125 0.480950 0.469647
v 0.344588 0.471631 0.456128
v 0.344588 0.471631 0.456128
v 0.368125 0.480950 0.469647
v 0.343150 0.475624 0.456128
v 0.341966 0.479700 0.456128
v 0.342494 0.477643 0.456128
v 0.342494 0.477643 0.456128
v 0.341966 0.479700 0.456128
v 0.343150 0.475624 0.456128
v 0.342494 0.477643 0.456128
v 0.412701 0.538417 0.469647
v 0.415874 0.563532 0.456128
v 0.415874 0.563532 0.456128
v 0.412701 0.538417 0.469647
v 0.412701 0.538417 0.469647
v 0.415874 0.563532 0.456128
v 0.411648 0.563931 0.456128
v 0.409529 0.564065 0.456128
v 0.407406 0.564065 0.456128
v 0.407406 0.564065 0.456128
v 0.409529 0.564065 0.456128
v 0.411648 0.563931 0.456128
v 0.409529 0.564065 0.456128
v 0.346273 0.467735 0.456128
v 0.369179 0.478514 0.469647
v 0.369179 0.478514 0.469647
v 0.346273 0.467735 0.456128
v 0.346273 0.467735 0.456128
v 0.369179 0.478514 0.469647
v 0.344588 0.471631 0.456128
v 0.343150 0.475624 0.456128
v 0.343806 0.473605 0.456128
v 0.343806 0.473605 0.456128
v 0.343150 0.475624 0.456128
v 0.344588 0.471631 0.456128
v 0.343806 0.473605 0.456128
v 0.415322 0.538001 0.469647
v 0.420066 0.562868 0.456128
v 0.420066 0.562868 0.456128
v 0.415322 0.538001 0.469647
v 0.415322 0.538001 0.469647
v 0.420066 0.562868 0.456128
v 0.415874 0.563532 0.456128
v 0.413767 0.563798 0.456128
v 0.411648 0.563931 0.456128
v 0.411648 0.563931 0.456128
v 0.413767 0.563798 0.456128
v 0.415874 0.563532 0.456128
v 0.413767 0.563798 0.456128
v 0.348200 0.463953 0.456128
v 0.370384 0.476149 0.469647
v 0.370384 0.476149 0.469647
v 0.348200 0.463953 0.456128
v 0.348200 0.463953 0.456128
v 0.370384 0.476149 0.469647
v 0.346273 0.467735 0.456128
v 0.344588 0.471631 0.456128
v 0.345369 0.469656 0.456128
v 0.345369 0.469656 0.456128
v 0.344588 0.471631 0.456128
v 0.346273 0.467735 0.456128
v 0.345369 0.469656 0.456128
v 0.417913 0.537422 0.469647
v 0.424208 0.561942 0.456128
v 0.424208 0.561942 0.456128
v 0.417913 0.537422 0.469647
v 0.417913 0.537422 0.469647
v 0.424208 0.561942 0.456128
v 0.420066 0.562868 0.456128
v 0.417980 0.563266 0.456128
v 0.415874 0.563532 0.456128
v 0.415874 0.563532 0.456128
v 0.417980 0.563266 0.456128
v 0.420066 0.562868 0.456128
v 0.417980 0.563266 0.456128
v 0.350361 0.460300 0.456128
v 0.371735 0.473865 0.469647
v 0.371735 0.473865 0.469647
v 0.350361 0.460300 0.456128
v 0.350361 0.460300 0.456128
v 0.371735 0.473865 0.469647
v 0.348200 0.463953 0.456128
v 0.346273 0.467735 0.456128
v 0.347177 0.465814 0.456128
v 0.347177 0.465814 0.456128
v 0.346273 0.467735 0.456128
v 0.348200 0.463953 0.456128
v 0.347177 0.465814 0.456128
v 0.420461 0.536682 0.469647
v 0.428284 0.560758 0.456128
v 0.428284 0.560758 0.456128
v 0.420461 0.536682 0.469647
v 0.420461 0.536682 0.469647
v 0.428284 0.560758 0.456128
v 0.424208 0.561942 0.456128
v 0.422152 0.562470 0.456128
v 0.420066 0.562868 0.456128
v 0.420066 0.562868 0.456128
v 0.422152 0.562470 0.456128
v 0.424208 0.561942 0.456128
v 0.422152 0.562470 0.456128
v 0.352746 0.456790 0.456128
v 0.373227 0.471670 0.469647
v 0.373227 0.471670 0.469647
v 0.352746 0.456790 0.456128
v 0.352746 0.456790 0.456128
v 0.373227 0.471670 0.469647
v 0.350361 0.460300 0.456128
v 0.348200 0.463953 0.456128
v 0.349223 0.462093 0.456128
v 0.349223 0.462093 0.456128
v 0.348200 0.463953 0.456128
v 0.350361 0.460300 0.456128
v 0.349223 0.462093 0.456128
v 0.422958 0.535783 0.469647
v 0.432277 0.559320 0.456128
v 0.432277 0.559320 0.456128
v 0.422958 0.535783 0.469647
v 0.422958 0.535783 0.469647
v 0.432277 0.559320 0.456128
v 0.428284 0.560758 0.456128
v 0.426265 0.561414 0.456128
v 0.424208 0.561942 0.456128
v 0.424208 0.561942 0.456128
v 0.426265 0.561414 0.456128
v 0.428284 0.560758 0.456128
v 0.426265 0.561414 0.456128
v 0.355348 0.453436 0.456128
v 0.374853 0.469572 0.469647
v 0.374853 0.469572 0.469647
v 0.355348 0.453436 0.456128
v 0.355348 0.453436 0.456128
v 0.374853 0.469572 0.469647
v 0.352746 0.456790 0.456128
v 0.350361 0.460300 0.456128
v 0.351498 0.458507 0.456128
v 0.351498 0.458507 0.456128
v 0.350361 0.460300 0.456128
v 0.352746 0.456790 0.456128
v 0.351498 0.458507 0.456128
v 0.425394 0.534729 0.469647
v 0.436173 0.557635 0.456128
v 0.436173 0.557635 0.456128
v 0.425394 0.534729 0.469647
v 0.425394 0.534729 0.469647
v 0.436173 0.557635 0.456128
v 0.432277 0.559320 0.456128
v 0.430303 0.560102 0.456128
v 0.428284 0.560758 0.456128
v 0.428284 0.560758 0.456128
v 0.430303 0.560102 0.456128
v 0.432277 0.559320 0.456128
v 0.430303 0.560102 0.456128
v 0.358155 0.450252 0.456128
v 0.376609 0.467582 0.469647
v 0.376609 0.467582 0.469647
v 0.358155 0.450252 0.456128
v 0.358155 0.450252 0.456128
v 0.376609 0.467582 0.469647
v 0.355348 0.453436 0.456128
v 0.352746 0.456790 0.456128
v 0.353994 0.455072 0.456128
v 0.353994 0.455072 0.456128
v 0.352746 0.456790 0.456128
v 0.355348 0.453436 0.456128
v 0.353994 0.455072 0.456128
v 0.427759 0.533524 0.469647
v 0.439955 0.555708 0.456128
v 0.439955 0.555708 0.456128
v 0.427759 0.533524 0.469647
v 0.427759 0.533524 0.469647
v 0.439955 0.555708 0.456128
v 0.436173 0.557635 0.456128
v 0.434251 0.558539 0.456128
v 0.432277 0.559320 0.456128
v 0.432277 0.559320 0.456128
v 0.434251 0.558539 0.456128
v 0.436173 0.557635 0.456128
v 0.434251 0.558539 0.456128
v 0.361156 0.447251 0.456128
v 0.378486 0.465705 0.469647
v 0.378486 0.465705 0.469647
v 0.361156 0.447251 0.456128
v 0.361156 0.447251 0.456128
v 0.378486 0.465705 0.469647
v 0.358155 0.450252 0.456128
v 0.355348 0.453436 0.456128
v 0.356701 0.451800 0.456128
v 0.356701 0.451800 0.456128
v 0.355348 0.453436 0.456128
v 0.358155 0.450252 0.456128
v 0.356701 0.451800 0.456128
v 0.430043 0.532173 0.469647
v 0.443608 0.553547 0.456128
v 0.443608 0.553547 0.456128
v 0.430043 0.532173 0.469647
v 0.430043 0.532173 0.469647
v 0.443608 0.553547 0.456128
v 0.439955 0.555708 0.456128
v 0.438094 0.556730 0.456128
v 0.436173 0.557635 0.456128
v 0.436173 0.557635 0.456128
v 0.438094 0.556730 0.456128
v 0.439955 0.555708 0.456128
v 0.438094 0.556730 0.456128
v 0.364340 0.444444 0.456128
v 0.380476 0.463950 0.469647
v 0.380476 0.463950 0.469647
v 0.364340 0.444444 0.456128
v 0.364340 0.444444 0.456128
v 0.380476 0.463950 0.469647
v 0.361156 0.447251 0.456128
v 0.358155 0.450252 0.456128
v 0.359608 0.448704 0.456128
v 0.359608 0.448704 0.456128
v 0.358155 0.450252 0.456128
v 0.361156 0.447251 0.456128
v 0.359608 0.448704 0.456128
v 0.432238 0.530681 0.469647
v 0.447118 0.551161 0.456128
v 0.447118 0.551161 0.456128
v 0.432238 0.530681 0.469647
v 0.432238 0.530681 0.469647
v 0.447118 0.551161 0.456128
v 0.443608 0.553547 0.456128
v 0.441815 0.554685 0.456128
v 0.439955 0.555708 0.456128
v 0.439955 0.555708 0.456128
v 0.441815 0.554685 0.456128
v 0.443608 0.553547 0.456128
v 0.441815 0.554685 0.456128
v 0.367693 0.441843 0.456128
v 0.382573 0.462323 0.469647
v 0.382573 0.462323 0.469647
v 0.367693 0.441843 0.456128
v 0.367693 0.441843 0.456128
v 0.382573 0.462323 0.469647
v 0.364340 0.444444 0.456128
v 0.361156 0.447251 0.456128
v 0.362704 0.445798 0.456128
v 0.362704 0.445798 0.456128
v 0.361156 0.447251 0.456128
v 0.364340 0.444444 0.456128
v 0.362704 0.445798 0.456128
v 0.434336 0.529054 0.469647
v 0.450472 0.548560 0.456128
v 0.450472 0.548560 0.456128
v 0.434336 0.529054 0.469647
v 0.434336 0.529054 0.469647
v 0.450472 0.548560 0.456128
v 0.447118 0.551161 0.456128
v 0.445400 0.552409 0.456128
v 0.443608 0.553547 0.456128
v 0.443608 0.553547 0.456128
v 0.445400 0.552409 0.456128
v 0.447118 0.551161 0.456128
v 0.445400 0.552409 0.456128
v 0.371204 0.439457 0.456128
v 0.384768 0.460831 0.469647
v 0.384768 0.460831 0.469647
v 0.371204 0.439457 0.456128
v 0.371204 0.439457 0.456128
v 0.384768 0.460831 0.469647
v 0.367693 0.441843 0.456128
v 0.364340 0.444444 0.456128
v 0.365975 0.443091 0.456128
v 0.365975 0.443091 0.456128
v 0.364340 0.444444 0.456128
v 0.367693 0.441843 0.456128
v 0.365975 0.443091 0.456128
v 0.436326 0.527299 0.469647
v 0.453656 0.545753 0.456128
v 0.453656 0.545753 0.456128
v 0.436326 0.527299 0.469647
v 0.436326 0.527299 0.469647
v 0.453656 0.545753 0.456128
v 0.450472 0.548560 0.456128
v 0.448836 0.549913 0.456128
v 0.447118 0.551161 0.456128
v 0.447118 0.551161 0.456128
v 0.448836 0.549913 0.456128
v 0.450472 0.548560 0.456128
v 0.448836 0.549913 0.456128
v 0.374857 0.437296 0.456128
v 0.387053 0.459480 0.469647
v 0.387053 0.459480 0.469647
v 0.374857 0.437296 0.456128
v 0.374857 0.437296 0.456128
v 0.387053 0.459480 0.469647
v 0.371204 0.439457 0.456128
v 0.367693 0.441843 0.456128
v 0.369411 0.440595 0.456128
v 0.369411 0.440595 0.456128
v 0.367693 0.441843 0.456128
v 0.371204 0.439457 0.456128
v 0.369411 0.440595 0.456128
v 0.438203 0.525422 0.469647
v 0.456657 0.542752 0.456128
v 0.456657 0.542752 0.456128
v 0.438203 0.525422 0.469647
v 0.438203 0.525422 0.469647
v 0.456657 0.542752 0.456128
v 0.453656 0.545753 0.456128
v 0.452108 0.547207 0.456128
v 0.450472 0.548560 0.456128
v 0.450472 0.548560 0.456128
v 0.452108 0.547207 0.456128
v 0.453656 0.545753 0.456128
v 0.452108 0.547207 0.456128
v 0.378639 0.435369 0.456128
v 0.389418 0.458275 0.469647
v 0.389418 0.458275 0.469647
v 0.378639 0.435369 0.456128
v 0.378639 0.435369 0.456128
v 0.389418 0.458275 0.469647
v 0.374857 0.437296 0.456128
v 0.371204 0.439457 0.456128
v 0.372996 0.438319 0.456128
v 0.372996 0.438319 0.456128
v 0.371204 0.439457 0.456128
v 0.374857 0.437296 0.456128
v 0.372996 0.438319 0.456128
v 0.439958 0.523432 0.469647
v 0.459464 0.539568 0.456128
v 0.459464 0.539568 0.456128
v 0.439958 0.523432 0.469647
v 0.439958 0.523432 0.469647
v 0.459464 0.539568 0.456128
v 0.456657 0.542752 0.456128
v 0.455204 0.544300 0.456128
v 0.453656 0.545753 0.456128
v 0.453656 0.545753 0.456128
v 0.455204 0.544300 0.456128
v 0.456657 0.542752 0.456128
v 0.455204 0.544300 0.456128
v 0.382534 0.433684 0.456128
v 0.391854 0.457221 0.469647
v 0.391854 0.457221 0.469647
v 0.382534 0.433684 0.456128
v 0.382534 0.433684 0.456128
v 0.391854 0.457221 0.469647
v 0.378639 0.435369 0.456128
v 0.374857 0.437296 0.456128
v 0.376718 0.436273 0.456128
v 0.376718 0.436273 0.456128
v 0.374857 0.437296 0.456128
v 0.378639 0.435369 0.456128
v 0.376718 0.436273 0.456128
v 0.441585 0.521334 0.469647
v 0.462065 0.536214 0.456128
v 0.462065 0.536214 0.456128
v 0.441585 0.521334 0.469647
v 0.441585 0.521334 0.469647
v 0.462065 0.536214 0.456128
v 0.459464 0.539568 0.456128
v 0.458110 0.541204 0.456128
v 0.456657 0.542752 0.456128
v 0.456657 0.542752 0.456128
v 0.458110 0.541204 0.456128
v 0.459464 0.539568 0.456128
v 0.458110 0.541204 0.456128
v 0.386528 0.432246 0.456128
v 0.394351 0.456322 0.469647
v 0.394351 0.456322 0.469647
v 0.386528 0.432246 0.456128
v 0.386528 0.432246 0.456128
v 0.394351 0.456322 0.469647
v 0.382534 0.433684 0.456128
v 0.378639 0.435369 0.456128
v 0.380560 0.434465 0.456128
v 0.380560 0.434465 0.456128
v 0.378639 0.435369 0.456128
v 0.382534 0.433684 0.456128
v 0.380560 0.434465 0.456128
v 0.443076 0.519139 0.469647
v 0.464451 0.532704 0.456128
v 0.464451 0.532704 0.456128
v 0.443076 0.519139 0.469647
v 0.443076 0.519139 0.469647
v 0.464451 0.532704 0.456128
v 0.462065 0.536214 0.456128
v 0.460817 0.537932 0.456128
v 0.459464 0.539568 0.456128
v 0.459464 0.539568 0.456128
v 0.460817 0.537932 0.456128
v 0.462065 0.536214 0.456128
v 0.460817 0.537932 0.456128
v 0.390604 0.431062 0.456128
v 0.396899 0.455581 0.469647
v 0.396899 0.455581 0.469647
v 0.390604 0.431062 0.456128
v 0.390604 0.431062 0.456128
v 0.396899 0.455581 0.469647
v 0.386528 0.432246 0.456128
v 0.382534 0.433684 0.456128
v 0.384509 0.432902 0.456128
v 0.384509 0.432902 0.456128
v 0.382534 0.433684 0.456128
v 0.386528 0.432246 0.456128
v 0.384509 0.432902 0.456128
v 0.444428 0.516855 0.469647
v 0.466611 0.529051 0.456128
v 0.466611 0.529051 0.456128
v 0.444428 0.516855 0.469647
v 0.444428 0.516855 0.469647
v 0.466611 0.529051 0.456128
v 0.464451 0.532704 0.456128
v 0.463313 0.534497 0.456128
v 0.462065 0.536214 0.456128
v 0.462065 0.536214 0.456128
v 0.463313 0.534497 0.456128
v 0.464451 0.532704 0.456128
v 0.463313 0.534497 0.456128
v 0.394746 0.430136 0.456128
v 0.399489 0.455003 0.469647
v 0.399489 0.455003 0.469647
v 0.394746 0.430136 0.456128
v 0.394746 0.430136 0.456128
v 0.399489 0.455003 0.469647
v 0.390604 0.431062 0.456128
v 0.386528 0.432246 0.456128
v 0.388547 0.431590 0.456128
v 0.388547 0.431590 0.456128
v 0.386528 0.432246 0.456128
v 0.390604 0.431062 0.456128
v 0.388547 0.431590 0.456128
v 0.445633 0.514490 0.469647
v 0.468538 0.525269 0.456128
v 0.468538 0.525269 0.456128
v 0.445633 0.514490 0.469647
v 0.445633 0.514490 0.469647
v 0.468538 0.525269 0.456128
v 0.466611 0.529051 0.456128
v 0.465589 0.530911 0.456128
v 0.464451 0.532704 0.456128
v 0.464451 0.532704 0.456128
v 0.465589 0.530911 0.456128
v 0.466611 0.529051 0.456128
v 0.465589 0.530911 0.456128
v 0.398938 0.429472 0.456128
v 0.402111 0.454587 0.469647
v 0.402111 0.454587 0.469647
v 0.398938 0.429472 0.456128
v 0.398938 0.429472 0.456128
v 0.402111 0.454587 0.469647
v 0.394746 0.430136 0.456128
v 0.390604 0.431062 0.456128
v 0.392660 0.430534 0.456128
v 0.392660 0.430534 0.456128
v 0.390604 0.431062 0.456128
v 0.394746 0.430136 0.456128
v 0.392660 0.430534 0.456128
v 0.446687 0.512054 0.469647
v 0.470224 0.521373 0.456128
v 0.470224 0.521373 0.456128
v 0.446687 0.512054 0.469647
v 0.446687 0.512054 0.469647
v 0.470224 0.521373 0.456128
v 0.468538 0.525269 0.456128
v 0.467634 0.527190 0.456128
v 0.466611 0.529051 0.456128
v 0.466611 0.529051 0.456128
v 0.467634 0.527190 0.456128
v 0.468538 0.525269 0.456128
v 0.467634 0.527190 0.456128
v 0.403164 0.429072 0.456128
v 0.404753 0.454338 0.469647
v 0.404753 0.454338 0.469647
v 0.403164 0.429072 0.456128
v 0.403164 0.429072 0.456128
v 0.404753 0.454338 0.469647
v 0.398938 0.429472 0.456128
v 0.394746 0.430136 0.456128
v 0.396832 0.429738 0.456128
v 0.396832 0.429738 0.456128
v 0.394746 0.430136 0.456128
v 0.398938 0.429472 0.456128
v 0.396832 0.429738 0.456128
v 0.447586 0.509557 0.469647
v 0.471662 0.517380 0.456128
v 0.471662 0.517380 0.456128
v 0.447586 0.509557 0.469647
v 0.447586 0.509557 0.469647
v 0.471662 0.517380 0.456128
v 0.470224 0.521373 0.456128
v 0.469443 0.523347 0.456128
v 0.468538 0.525269 0.456128
v 0.468538 0.525269 0.456128
v 0.469443 0.523347 0.456128
v 0.470224 0.521373 0.456128
v 0.469443 0.523347 0.456128
v 0.407406 0.428939 0.456128
v 0.407406 0.454254 0.469647
v 0.407406 0.454254 0.469647
v 0.407406 0.428939 0.456128
v 0.407406 0.428939 0.456128
v 0.407406 0.454254 0.469647
v 0.403164 0.429072 0.456128
v 0.398938 0.429472 0.456128
v 0.401044 0.429206 0.456128
v 0.401044 0.429206 0.456128
v 0.398938 0.429472 0.456128
v 0.403164 0.429072 0.456128
v 0.401044 0.429206 0.456128
v 0.448326 0.507009 0.469647
v 0.472846 0.513304 0.456128
v 0.472846 0.513304 0.456128
v 0.448326 0.507009 0.469647
v 0.448326 0.507009 0.469647
v 0.472846 0.513304 0.456128
v 0.471662 0.517380 0.456128
v 0.471006 0.519399 0.456128
v 0.470224 0.521373 0.456128
v 0.470224 0.521373 0.456128
v 0.471006 0.519399 0.456128
v 0.471662 0.517380 0.456128
v 0.471006 0.519399 0.456128
v 0.411648 0.429072 0.456128
v 0.410058 0.454338 0.469647
v 0.410058 0.454338 0.469647
v 0.411648 0.429072 0.456128
v 0.411648 0.429072 0.456128
v 0.410058 0.454338 0.469647
v 0.407406 0.428939 0.456128
v 0.403164 0.429072 0.456128
v 0.405283 0.428939 0.456128
v 0.405283 0.428939 0.456128
v 0.403164 0.429072 0.456128
v 0.407406 0.428939 0.456128
v 0.405283 0.428939 0.456128
v 0.448905 0.504418 0.469647
v 0.473772 0.509162 0.456128
v 0.473772 0.509162 0.456128
v 0.448905 0.504418 0.469647
v 0.448905 0.504418 0.469647
v 0.473772 0.509162 0.456128
v 0.472846 0.513304 0.456128
v 0.472318 0.515361 0.456128
v 0.471662 0.517380 0.456128
v 0.471662 0.517380 0.456128
v 0.472318 0.515361 0.456128
v 0.472846 0.513304 0.456128
v 0.472318 0.515361 0.456128
v 0.412701 0.454587 0.469647
v 0.415874 0.429472 0.456128
v 0.415874 0.429472 0.456128
v 0.412701 0.454587 0.469647
v 0.415874 0.429472 0.456128
v 0.412701 0.454587 0.469647
v 0.411648 0.429072 0.456128
v 0.407406 0.428939 0.456128
v 0.409529 0.428939 0.456128
v 0.409529 0.428939 0.456128
v 0.407406 0.428939 0.456128
v 0.411648 0.429072 0.456128
v 0.409529 0.428939 0.456128
v 0.449320 0.501797 0.469647
v 0.474436 0.504970 0.456128
v 0.474436 0.504970 0.456128
v 0.449320 0.501797 0.469647
v 0.449320 0.501797 0.469647
v 0.474436 0.504970 0.456128
v 0.473772 0.509162 0.456128
v 0.473374 0.511248 0.456128
v 0.472846 0.513304 0.456128
v 0.472846 0.513304 0.456128
v 0.473374 0.511248 0.456128
v 0.473772 0.509162 0.456128
v 0.473374 0.511248 0.456128
v 0.415322 0.455003 0.469647
v 0.420066 0.430136 0.456128
v 0.420066 0.430136 0.456128
v 0.415322 0.455003 0.469647
v 0.420066 0.430136 0.456128
v 0.415322 0.455003 0.469647
v 0.415874 0.429472 0.456128
v 0.411648 0.429072 0.456128
v 0.413767 0.429206 0.456128
v 0.413767 0.429206 0.456128
v 0.411648 0.429072 0.456128
v 0.415874 0.429472 0.456128
v 0.413767 0.429206 0.456128
v 0.449570 0.499155 0.469647
v 0.474835 0.500744 0.456128
v 0.474835 0.500744 0.456128
v 0.449570 0.499155 0.469647
v 0.449570 0.499155 0.469647
v 0.474835 0.500744 0.456128
v 0.474436 0.504970 0.456128
v 0.474170 0.507076 0.456128
v 0.473772 0.509162 0.456128
v 0.473772 0.509162 0.456128
v 0.474170 0.507076 0.456128
v 0.474436 0.504970 0.456128
v 0.474170 0.507076 0.456128
v 0.417913 0.455581 0.469647
v 0.424208 0.431062 0.456128
v 0.424208 0.431062 0.456128
v 0.417913 0.455581 0.469647
v 0.424208 0.431062 0.456128
v 0.417913 0.455581 0.469647
v 0.420066 0.430136 0.456128
v 0.415874 0.429472 0.456128
v 0.417980 0.429738 0.456128
v 0.417980 0.429738 0.456128
v 0.415874 0.429472 0.456128
v 0.420066 0.430136 0.456128
v 0.417980 0.429738 0.456128
v 0.449653 0.496502 0.469647
v 0.474969 0.496502 0.456128
v 0.474969 0.496502 0.456128
v 0.449653 0.496502 0.469647
v 0.449653 0.496502 0.469647
v 0.474969 0.496502 0.456128
v 0.474835 0.500744 0.456128
v 0.474702 0.502863 0.456128
v 0.474436 0.504970 0.456128
v 0.474436 0.504970 0.456128
v 0.474702 0.502863 0.456128
v 0.474835 0.500744 0.456128
v 0.474702 0.502863 0.456128
v 0.420461 0.456322 0.469647
v 0.428284 0.432246 0.456128
v 0.428284 0.432246 0.456128
v 0.420461 0.456322 0.469647
v 0.428284 0.432246 0.456128
v 0.420461 0.456322 0.469647
v 0.424208 0.431062 0.456128
v 0.420066 0.430136 0.456128
v 0.422152 0.430534 0.456128
v 0.422152 0.430534 0.456128
v 0.420066 0.430136 0.456128
v 0.424208 0.431062 0.456128
v 0.422152 0.430534 0.456128
v 0.474835 0.492260 0.456128
v 0.449570 0.493849 0.469647
v 0.474835 0.492260 0.456128
v 0.449570 0.493849 0.469647
v 0.449570 0.493849 0.469647
v 0.474835 0.492260 0.456128
v 0.474969 0.498625 0.456128
v 0.474835 0.500744 0.456128
v 0.474969 0.496502 0.456128
v 0.474969 0.496502 0.456128
v 0.474835 0.500744 0.456128
v 0.474969 0.498625 0.456128
v 0.474969 0.498625 0.456128
v 0.422958 0.457221 0.469647
v 0.432277 0.433684 0.456128
v 0.432277 0.433684 0.456128
v 0.422958 0.457221 0.469647
v 0.432277 0.433684 0.456128
v 0.422958 0.457221 0.469647
v 0.428284 0.432246 0.456128
v 0.424208 0.431062 0.456128
v 0.426265 0.431590 0.456128
v 0.426265 0.431590 0.456128
v 0.424208 0.431062 0.456128
v 0.428284 0.432246 0.456128
v 0.426265 0.431590 0.456128
v 0.474436 0.488034 0.456128
v 0.449320 0.491207 0.469647
v 0.474436 0.488034 0.456128
v 0.449320 0.491207 0.469647
v 0.449320 0.491207 0.469647
v 0.474436 0.488034 0.456128
v 0.474969 0.494379 0.456128
v 0.474969 0.496502 0.456128
v 0.474835 0.492260 0.456128
v 0.474835 0.492260 0.456128
v 0.474969 0.496502 0.456128
v 0.474969 0.494379 0.456128
v 0.474969 0.494379 0.456128
v 0.425394 0.458275 0.469647
v 0.436173 0.435369 0.456128
v 0.436173 0.435369 0.456128
v 0.425394 0.458275 0.469647
v 0.436173 0.435369 0.456128
v 0.425394 0.458275 0.469647
v 0.432277 0.433684 0.456128
v 0.428284 0.432246 0.456128
v 0.430303 0.432902 0.456128
v 0.430303 0.432902 0.456128
v 0.428284 0.432246 0.456128
v 0.432277 0.433684 0.456128
v 0.430303 0.432902 0.456128
v 0.473772 0.483842 0.456128
v 0.448905 0.488585 0.469647
v 0.473772 0.483842 0.456128
v 0.448905 0.488585 0.469647
v 0.448905 0.488585 0.469647
v 0.473772 0.483842 0.456128
v 0.474835 0.492260 0.456128
v 0.474436 0.488034 0.456128
v 0.474702 0.490141 0.456128
v 0.474702 0.490141 0.456128
v 0.474436 0.488034 0.456128
v 0.474835 0.492260 0.456128
v 0.474702 0.490141 0.456128
v 0.427759 0.459480 0.469647
v 0.439955 0.437296 0.456128
v 0.439955 0.437296 0.456128
v 0.427759 0.459480 0.469647
v 0.439955 0.437296 0.456128
v 0.427759 0.459480 0.469647
v 0.436173 0.435369 0.456128
v 0.432277 0.433684 0.456128
v 0.434251 0.434465 0.456128
v 0.434251 0.434465 0.456128
v 0.432277 0.433684 0.456128
v 0.436173 0.435369 0.456128
v 0.434251 0.434465 0.456128
v 0.472846 0.479700 0.456128
v 0.448326 0.485995 0.469647
v 0.472846 0.479700 0.456128
v 0.448326 0.485995 0.469647
v 0.448326 0.485995 0.469647
v 0.472846 0.479700 0.456128
v 0.474436 0.488034 0.456128
v 0.473772 0.483842 0.456128
v 0.474170 0.485928 0.456128
v 0.474170 0.485928 0.456128
v 0.473772 0.483842 0.456128
v 0.474436 0.488034 0.456128
v 0.474170 0.485928 0.456128
v 0.430043 0.460831 0.469647
v 0.443608 0.439457 0.456128
v 0.443608 0.439457 0.456128
v 0.430043 0.460831 0.469647
v 0.443608 0.439457 0.456128
v 0.430043 0.460831 0.469647
v 0.439955 0.437296 0.456128
v 0.436173 0.435369 0.456128
v 0.438094 0.436273 0.456128
v 0.438094 0.436273 0.456128
v 0.436173 0.435369 0.456128
v 0.439955 0.437296 0.456128
v 0.438094 0.436273 0.456128
v 0.471662 0.475624 0.456128
v 0.447586 0.483447 0.469647
v 0.471662 0.475624 0.456128
v 0.447586 0.483447 0.469647
v 0.447586 0.483447 0.469647
v 0.471662 0.475624 0.456128
v 0.473772 0.483842 0.456128
v 0.472846 0.479700 0.456128
v 0.473374 0.481756 0.456128
v 0.473374 0.481756 0.456128
v 0.472846 0.479700 0.456128
v 0.473772 0.483842 0.456128
v 0.473374 0.481756 0.456128
v 0.432238 0.462323 0.469647
v 0.447118 0.441843 0.456128
v 0.447118 0.441843 0.456128
v 0.432238 0.462323 0.469647
v 0.447118 0.441843 0.456128
v 0.432238 0.462323 0.469647
v 0.443608 0.439457 0.456128
v 0.439955 0.437296 0.456128
v 0.441815 0.438319 0.456128
v 0.441815 0.438319 0.456128
v 0.439955 0.437296 0.456128
v 0.443608 0.439457 0.456128
v 0.441815 0.438319 0.456128
v 0.470224 0.471631 0.456128
v 0.446687 0.480950 0.469647
v 0.470224 0.471631 0.456128
v 0.446687 0.480950 0.469647
v 0.446687 0.480950 0.469647
v 0.470224 0.471631 0.456128
v 0.472846 0.479700 0.456128
v 0.471662 0.475624 0.456128
v 0.472318 0.477643 0.456128
v 0.472318 0.477643 0.456128
v 0.471662 0.475624 0.456128
v 0.472846 0.479700 0.456128
v 0.472318 0.477643 0.456128
v 0.434336 0.463950 0.469647
v 0.450472 0.444444 0.456128
v 0.450472 0.444444 0.456128
v 0.434336 0.463950 0.469647
v 0.450472 0.444444 0.456128
v 0.434336 0.463950 0.469647
v 0.447118 0.441843 0.456128
v 0.443608 0.439457 0.456128
v 0.445400 0.440595 0.456128
v 0.445400 0.440595 0.456128
v 0.443608 0.439457 0.456128
v 0.447118 0.441843 0.456128
v 0.445400 0.440595 0.456128
v 0.468538 0.467735 0.456128
v 0.445633 0.478514 0.469647
v 0.468538 0.467735 0.456128
v 0.445633 0.478514 0.469647
v 0.445633 0.478514 0.469647
v 0.468538 0.467735 0.456128
v 0.471662 0.475624 0.456128
v 0.470224 0.471631 0.456128
v 0.471006 0.473605 0.456128
v 0.471006 0.473605 0.456128
v 0.470224 0.471631 0.456128
v 0.471662 0.475624 0.456128
v 0.471006 0.473605 0.456128
v 0.436326 0.465705 0.469647
v 0.453656 0.447251 0.456128
v 0.453656 0.447251 0.456128
v 0.436326 0.465705 0.469647
v 0.453656 0.447251 0.456128
v 0.436326 0.465705 0.469647
v 0.450472 0.444444 0.456128
v 0.447118 0.441843 0.456128
v 0.448836 0.443091 0.456128
v 0.448836 0.443091 0.456128
v 0.447118 0.441843 0.456128
v 0.450472 0.444444 0.456128
v 0.448836 0.443091 0.456128
v 0.466611 0.463953 0.456128
v 0.444428 0.476149 0.469647
v 0.466611 0.463953 0.456128
v 0.444428 0.476149 0.469647
v 0.444428 0.476149 0.469647
v 0.466611 0.463953 0.456128
v 0.470224 0.471631 0.456128
v 0.468538 0.467735 0.456128
v 0.469443 0.469656 0.456128
v 0.469443 0.469656 0.456128
v 0.468538 0.467735 0.456128
v 0.470224 0.471631 0.456128
v 0.469443 0.469656 0.456128
v 0.438203 0.467582 0.469647
v 0.456657 0.450252 0.456128
v 0.456657 0.450252 0.456128
v 0.438203 0.467582 0.469647
v 0.456657 0.450252 0.456128
v 0.438203 0.467582 0.469647
v 0.453656 0.447251 0.456128
v 0.450472 0.444444 0.456128
v 0.452108 0.445798 0.456128
v 0.452108 0.445798 0.456128
v 0.450472 0.444444 0.456128
v 0.453656 0.447251 0.456128
v 0.452108 0.445798 0.456128
v 0.464451 0.460300 0.456128
v 0.443076 0.473865 0.469647
v 0.464451 0.460300 0.456128
v 0.443076 0.473865 0.469647
v 0.443076 0.473865 0.469647
v 0.464451 0.460300 0.456128
v 0.468538 0.467735 0.456128
v 0.466611 0.463953 0.456128
v 0.467634 0.465814 0.456128
v 0.467634 0.465814 0.456128
v 0.466611 0.463953 0.456128
v 0.468538 0.467735 0.456128
v 0.467634 0.465814 0.456128
v 0.439958 0.469572 0.469647
v 0.459464 0.453436 0.456128
v 0.459464 0.453436 0.456128
v 0.439958 0.469572 0.469647
v 0.459464 0.453436 0.456128
v 0.439958 0.469572 0.469647
v 0.456657 0.450252 0.456128
v 0.453656 0.447251 0.456128
v 0.455204 0.448704 0.456128
v 0.455204 0.448704 0.456128
v 0.453656 0.447251 0.456128
v 0.456657 0.450252 0.456128
v 0.455204 0.448704 0.456128
v 0.462065 0.456790 0.456128
v 0.441585 0.471670 0.469647
v 0.462065 0.456790 0.456128
v 0.441585 0.471670 0.469647
v 0.441585 0.471670 0.469647
v 0.462065 0.456790 0.456128
v 0.466611 0.463953 0.456128
v 0.464451 0.460300 0.456128
v 0.465589 0.462093 0.456128
v 0.465589 0.462093 0.456128
v 0.464451 0.460300 0.456128
v 0.466611 0.463953 0.456128
v 0.465589 0.462093 0.456128
v 0.459464 0.453436 0.456128
v 0.456657 0.450252 0.456128
v 0.458110 0.451800 0.456128
v 0.458110 0.451800 0.456128
v 0.456657 0.450252 0.456128
v 0.459464 0.453436 0.456128
v 0.458110 0.451800 0.456128
v 0.464451 0.460300 0.456128
v 0.462065 0.456790 0.456128
v 0.463313 0.458507 0.456128
v 0.463313 0.458507 0.456128
v 0.462065 0.456790 0.456128
v 0.464451 0.460300 0.456128
v 0.463313 0.458507 0.456128
v 0.462065 0.456790 0.456128
v 0.459464 0.453436 0.456128
v 0.460817 0.455072 0.456128
v 0.460817 0.455072 0.456128
v 0.459464 0.453436 0.456128
v 0.462065 0.456790 0.456128
v 0.460817 0.455072 0.456128
vn 0 0 1
vn -0.3811042205770827 0.27688841495012523 0.8820954476272631
vn -0.3629663029922779 0.30027180247542723 0.8820954072719548
vn -0.39773821200539206 0.25241230761885236 0.8820954266253056
vn -0.34339581106544775 0.3224701103911464 0.8820954284242863
vn -0.41280241545224117 0.2269401084949437 0.8820954330190688
vn -0.3224701103911464 0.34339581106544775 0.8820954284242863
vn -0.42623760132820754 0.20057220062500705 0.8820954027487151
vn -0.30027180247542723 0.3629663029922779 0.8820954072719548
vn -0.43799051372822156 0.17341270543538723 0.8820954276480908
vn -0.27688841495012523 0.3811042205770827 0.8820954476272631
vn -0.448014911207008 0.1455689036413785 0.8820954220654496
vn -0.25241230761885236 0.39773821200539206 0.8820954266253056
vn -0.45627121316323077 0.1171505033797423 0.8820954254480785
vn -0.2269401084949437 0.41280241545224117 0.8820954330190688
vn -0.46272681056779674 0.0882698620159151 0.882095420145375
vn -0.20057220062500705 0.42623760132820754 0.8820954027487151
vn -0.4673562161691531 0.05904082204263913 0.8820954305179124
vn -0.17341270543538723 0.43799051372822156 0.8820954276480908
vn -0.470141212490503 0.029578780785835916 0.8820954234351196
vn -0.1455689036413785 0.448014911207008 0.8820954220654496
vn -0.471070723765601 0 0.8820954445018705
vn -0.1171505033797423 0.45627121316323077 0.8820954254480785
vn -0.470141212490503 -0.029578780785835916 0.8820954234351196
vn -0.0882698620159151 0.46272681056779674 0.882095420145375
vn -0.4673562161691531 -0.05904082204263913 0.8820954305179124
vn -0.05904082204263913 0.4673562161691531 0.8820954305179124
vn -0.46272681056779674 -0.0882698620159151 0.882095420145375
vn -0.029578780785835916 0.470141212490503 0.8820954234351196
vn -0.45627121316323077 -0.1171505033797423 0.8820954254480785
vn 0 0.471070723765601 0.8820954445018705
vn -0.448014911207008 -0.1455689036413785 0.8820954220654496
vn 0.029578780785835916 0.470141212490503 0.8820954234351196
vn -0.43799051372822156 -0.17341270543538723 0.8820954276480908
vn 0.05904082204263913 0.4673562161691531 0.8820954305179124
vn -0.42623760132820754 -0.20057220062500705 0.8820954027487151
vn 0.0882698620159151 0.46272681056779674 0.882095420145375
vn -0.41280241545224117 -0.2269401084949437 0.8820954330190688
vn 0.1171505033797423 0.45627121316323077 0.8820954254480785
vn -0.39773821200539206 -0.25241230761885236 0.8820954266253056
vn 0.1455689036413785 0.448014911207008 0.8820954220654496
vn -0.3811042205770827 -0.27688841495012523 0.8820954476272631
vn 0.17341270543538723 0.43799051372822156 0.8820954276480908
vn -0.3629663029922779 -0.30027180247542723 0.8820954072719548
vn 0.20057220062500705 0.42623760132820754 0.8820954027487151
vn -0.34339581106544775 -0.3224701103911464 0.8820954284242863
vn 0.2269401084949437 0.41280241545224117 0.8820954330190688
vn -0.3224701103911464 -0.34339581106544775 0.8820954284242863
vn 0.25241230761885236 0.39773821200539206 0.8820954266253056
vn -0.30027180247542723 -0.3629663029922779 0.8820954072719548
vn 0.27688841495012523 0.3811042205770827 0.8820954476272631
vn -0.27688841495012523 -0.3811042205770827 0.8820954476272631
vn 0.30027180247542723 0.3629663029922779 0.8820954072719548
vn -0.25241230761885236 -0.39773821200539206 0.8820954266253056
vn 0.3224701103911464 0.34339581106544775 0.8820954284242863
vn -0.2269401084949437 -0.41280241545224117 0.8820954330190688
vn 0.34339581106544775 0.3224701103911464 0.8820954284242863
vn -0.20057220062500705 -0.42623760132820754 0.8820954027487151
vn 0.3629663029922779 0.30027180247542723 0.8820954072719548
vn -0.17341270543538723 -0.43799051372822156 0.8820954276480908
vn 0.3811042205770827 0.27688841495012523 0.8820954476272631
vn -0.1455689036413785 -0.448014911207008 0.8820954220654496
vn 0.39773821200539206 0.25241230761885236 0.8820954266253056
vn -0.1171505033797423 -0.45627121316323077 0.8820954254480785
vn 0.41280241545224117 0.2269401084949437 0.8820954330190688
vn -0.0882698620159151 -0.46272681056779674 0.882095420145375
vn 0.42623760132820754 0.20057220062500705 0.8820954027487151
vn -0.05904082204263913 -0.4673562161691531 0.8820954305179124
vn 0.43799051372822156 0.17341270543538723 0.8820954276480908
vn -0.029578780785835916 -0.470141212490503 0.8820954234351196
vn 0.448014911207008 0.1455689036413785 0.8820954220654496
vn 0 -0.471070723765601 0.8820954445018705
vn 0.45627121316323077 0.1171505033797423 0.8820954254480785
vn 0.029578780785835916 -0.470141212490503 0.8820954234351196
vn 0.46272681056779674 0.0882698620159151 0.882095420145375
vn 0.05904082204263913 -0.4673562161691531 0.8820954305179124
vn 0.4673562161691531 0.05904082204263913 0.8820954305179124
vn 0.0882698620159151 -0.46272681056779674 0.882095420145375
vn 0.470141212490503 0.029578780785835916 0.8820954234351196
vn 0.1171505033797423 -0.45627121316323077 0.8820954254480785
vn 0.471070723765601 0 0.8820954445018705
vn 0.1455689036413785 -0.448014911207008 0.8820954220654496
vn 0.470141212490503 -0.029578780785835916 0.8820954234351196
vn 0.17341270543538723 -0.43799051372822156 0.8820954276480908
vn 0.4673562161691531 -0.05904082204263913 0.8820954305179124
vn 0.20057220062500705 -0.42623760132820754 0.8820954027487151
vn 0.46272681056779674 -0.0882698620159151 0.882095420145375
vn 0.2269401084949437 -0.41280241545224117 0.8820954330190688
vn 0.45627121316323077 -0.1171505033797423 0.8820954254480785
vn 0.25241230761885236 -0.39773821200539206 0.8820954266253056
vn 0.448014911207008 -0.1455689036413785 0.8820954220654496
vn 0.27688841495012523 -0.3811042205770827 0.8820954476272631
vn 0.43799051372822156 -0.17341270543538723 0.8820954276480908
vn 0.30027180247542723 -0.3629663029922779 0.8820954072719548
vn 0.42623760132820754 -0.20057220062500705 0.8820954027487151
vn 0.3224701103911464 -0.34339581106544775 0.8820954284242863
vn 0.41280241545224117 -0.2269401084949437 0.8820954330190688
vn 0.34339581106544775 -0.3224701103911464 0.8820954284242863
vn 0.39773821200539206 -0.25241230761885236 0.8820954266253056
vn 0.3629663029922779 -0.30027180247542723 0.8820954072719548
vn 0.3811042205770827 -0.27688841495012523 0.8820954476272631
vn 0 0 -1
vn 0.3629663029922779 -0.30027180247542723 -0.8820954072719548
vn 0.3811042205770827 -0.27688841495012523 -0.8820954476272631
vn 0.39773821200539206 -0.25241230761885236 -0.8820954266253056
vn 0.34339581106544775 -0.3224701103911464 -0.8820954284242863
vn 0.41280241545224117 -0.2269401084949437 -0.8820954330190688
vn 0.3224701103911464 -0.34339581106544775 -0.8820954284242863
vn 0.42623760132820754 -0.20057220062500705 -0.8820954027487151
vn 0.30027180247542723 -0.3629663029922779 -0.8820954072719548
vn 0.43799051372822156 -0.17341270543538723 -0.8820954276480908
vn 0.27688841495012523 -0.3811042205770827 -0.8820954476272631
vn 0.448014911207008 -0.1455689036413785 -0.8820954220654496
vn 0.25241230761885236 -0.39773821200539206 -0.8820954266253056
vn 0.45627121316323077 -0.1171505033797423 -0.8820954254480785
vn 0.2269401084949437 -0.41280241545224117 -0.8820954330190688
vn 0.46272681056779674 -0.0882698620159151 -0.882095420145375
vn 0.20057220062500705 -0.42623760132820754 -0.8820954027487151
vn 0.4673562161691531 -0.05904082204263913 -0.8820954305179124
vn 0.17341270543538723 -0.43799051372822156 -0.8820954276480908
vn 0.470141212490503 -0.029578780785835916 -0.8820954234351196
vn 0.1455689036413785 -0.448014911207008 -0.8820954220654496
vn 0.471070723765601 0 -0.8820954445018705
vn 0.1171505033797423 -0.45627121316323077 -0.8820954254480785
vn 0.470141212490503 0.029578780785835916 -0.8820954234351196
vn 0.0882698620159151 -0.46272681056779674 -0.882095420145375
vn 0.4673562161691531 0.05904082204263913 -0.8820954305179124
vn 0.05904082204263913 -0.4673562161691531 -0.8820954305179124
vn 0.46272681056779674 0.0882698620159151 -0.882095420145375
vn 0.029578780785835916 -0.470141212490503 -0.8820954234351196
vn 0.45627121316323077 0.1171505033797423 -0.8820954254480785
vn 0 -0.471070723765601 -0.8820954445018705
vn 0.448014911207008 0.1455689036413785 -0.8820954220654496
vn -0.029578780785835916 -0.470141212490503 -0.8820954234351196
vn 0.43799051372822156 0.17341270543538723 -0.8820954276480908
vn -0.05904082204263913 -0.4673562161691531 -0.8820954305179124
vn 0.42623760132820754 0.20057220062500705 -0.8820954027487151
vn -0.0882698620159151 -0.46272681056779674 -0.882095420145375
vn 0.41280241545224117 0.2269401084949437 -0.8820954330190688
vn -0.1171505033797423 -0.45627121316323077 -0.8820954254480785
vn 0.39773821200539206 0.25241230761885236 -0.8820954266253056
vn -0.1455689036413785 -0.448014911207008 -0.8820954220654496
vn 0.3811042205770827 0.27688841495012523 -0.8820954476272631
vn -0.17341270543538723 -0.43799051372822156 -0.8820954276480908
vn 0.3629663029922779 0.30027180247542723 -0.8820954072719548
vn -0.20057220062500705 -0.42623760132820754 -0.8820954027487151
vn 0.34339581106544775 0.3224701103911464 -0.8820954284242863
vn -0.2269401084949437 -0.41280241545224117 -0.8820954330190688
vn 0.3224701103911464 0.34339581106544775 -0.8820954284242863
vn -0.25241230761885236 -0.39773821200539206 -0.8820954266253056
vn 0.30027180247542723 0.3629663029922779 -0.8820954072719548
vn -0.27688841495012523 -0.3811042205770827 -0.8820954476272631
vn 0.27688841495012523 0.3811042205770827 -0.8820954476272631
vn -0.30027180247542723 -0.3629663029922779 -0.8820954072719548
vn 0.25241230761885236 0.39773821200539206 -0.8820954266253056
vn -0.3224701103911464 -0.34339581106544775 -0.8820954284242863
vn 0.2269401084949437 0.41280241545224117 -0.8820954330190688
vn -0.34339581106544775 -0.3224701103911464 -0.8820954284242863
vn 0.20057220062500705 0.42623760132820754 -0.8820954027487151
vn -0.3629663029922779 -0.30027180247542723 -0.8820954072719548
vn 0.17341270543538723 0.43799051372822156 -0.8820954276480908
vn -0.3811042205770827 -0.27688841495012523 -0.8820954476272631
vn 0.1455689036413785 0.448014911207008 -0.8820954220654496
vn -0.39773821200539206 -0.25241230761885236 -0.8820954266253056
vn 0.1171505033797423 0.45627121316323077 -0.8820954254480785
vn -0.41280241545224117 -0.2269401084949437 -0.8820954330190688
vn 0.0882698620159151 0.46272681056779674 -0.882095420145375
vn -0.42623760132820754 -0.20057220062500705 -0.8820954027487151
vn 0.05904082204263913 0.4673562161691531 -0.8820954305179124
vn -0.43799051372822156 -0.17341270543538723 -0.8820954276480908
vn 0.029578780785835916 0.470141212490503 -0.8820954234351196
vn -0.448014911207008 -0.1455689036413785 -0.8820954220654496
vn 0 0.471070723765601 -0.8820954445018705
vn -0.45627121316323077 -0.1171505033797423 -0.8820954254480785
vn -0.029578780785835916 0.470141212490503 -0.8820954234351196
vn -0.46272681056779674 -0.0882698620159151 -0.882095420145375
vn -0.05904082204263913 0.4673562161691531 -0.8820954305179124
vn -0.4673562161691531 -0.05904082204263913 -0.8820954305179124
vn -0.0882698620159151 0.46272681056779674 -0.882095420145375
vn -0.470141212490503 -0.029578780785835916 -0.8820954234351196
vn -0.1171505033797423 0.45627121316323077 -0.8820954254480785
vn -0.471070723765601 0 -0.8820954445018705
vn -0.1455689036413785 0.448014911207008 -0.8820954220654496
vn -0.470141212490503 0.029578780785835916 -0.8820954234351196
vn -0.17341270543538723 0.43799051372822156 -0.8820954276480908
vn -0.4673562161691531 0.05904082204263913 -0.8820954305179124
vn -0.20057220062500705 0.42623760132820754 -0.8820954027487151
vn -0.46272681056779674 0.0882698620159151 -0.882095420145375
vn -0.2269401084949437 0.41280241545224117 -0.8820954330190688
vn -0.45627121316323077 0.1171505033797423 -0.8820954254480785
vn -0.25241230761885236 0.39773821200539206 -0.8820954266253056
vn -0.448014911207008 0.1455689036413785 -0.8820954220654496
vn -0.27688841495012523 0.3811042205770827 -0.8820954476272631
vn -0.43799051372822156 0.17341270543538723 -0.8820954276480908
vn -0.30027180247542723 0.3629663029922779 -0.8820954072719548
vn -0.42623760132820754 0.20057220062500705 -0.8820954027487151
vn -0.3224701103911464 0.34339581106544775 -0.8820954284242863
vn -0.41280241545224117 0.2269401084949437 -0.8820954330190688
vn -0.34339581106544775 0.3224701103911464 -0.8820954284242863
vn -0.39773821200539206 0.25241230761885236 -0.8820954266253056
vn -0.3629663029922779 0.30027180247542723 -0.8820954072719548
vn -0.3811042205770827 0.27688841495012523 -0.8820954476272631
usemtl material_0_0
f 4//102 5//102 6//102
f 14//103 15//104 16//103
f 17//104 16//103 15//104
f 15//104 22//105 17//104
f 23//105 17//104 22//105
f 28//106 14//103 29//106
f 16//103 29//106 14//103
f 22//105 34//107 23//105
f 35//107 23//105 34//107
f 41//102 42//102 43//102
f 47//108 28//106 48//108
f 29//106 48//108 28//106
f 54//102 55//102 56//102
f 34//107 60//109 35//107
f 61//109 35//107 60//109
f 67//102 68//102 69//102
f 73//110 47//108 74//110
f 48//108 74//110 47//108
f 80//102 81//102 82//102
f 60//109 86//111 61//109
f 87//111 61//109 86//111
f 93//102 94//102 95//102
f 99//112 73//110 100//112
f 74//110 100//112 73//110
f 106//102 107//102 108//102
f 86//111 112//113 87//111
f 113//113 87//111 112//113
f 119//102 120//102 121//102
f 125//114 99//112 126//114
f 100//112 126//114 99//112
f 132//102 133//102 134//102
f 112//113 138//115 113//113
f 139//115 113//113 138//115
f 145//102 146//102 147//102
f 151//116 125//114 152//116
f 126//114 152//116 125//114
f 158//102 159//102 160//102
f 138//115 164//117 139//115
f 165//117 139//115 164//117
f 171//102 172//102 173//102
f 177//118 151//116 178//118
f 152//116 178//118 151//116
f 184//102 185//102 186//102
f 164//117 190//119 165//117
f 191//119 165//117 190//119
f 197//102 198//102 199//102
f 203//120 177//118 204//120
f 178//118 204//120 177//118
f 210//102 211//102 212//102
f 190//119 216//121 191//119
f 217//121 191//119 216//121
f 223//102 224//102 225//102
f 229//122 203//120 230//122
f 204//120 230//122 203//120
f 236//102 237//102 238//102
f 216//121 242//123 217//121
f 243//123 217//121 242//123
f 249//102 250//102 251//102
f 255//124 229//122 256//124
f 230//122 256//124 229//122
f 262//102 263//102 264//102
f 268//125 269//125 242//123
f 243//123 242//123 269//125
f 275//102 276//102 277//102
f 281//126 255//124 282//126
f 256//124 282//126 255//124
f 288//102 289//102 290//102
f 294//127 295//127 268//125
f 269//125 268//125 295//127
f 301//102 302//102 303//102
f 307//128 281//126 308//128
f 282//126 308//128 281//126
f 314//102 315//102 316//102
f 320//129 321//129 294//127
f 295//127 294//127 321//129
f 327//102 328//102 329//102
f 333//130 307//128 334//130
f 308//128 334//130 307//128
f 340//102 341//102 342//102
f 346//131 347//131 320//129
f 321//129 320//129 347//131
f 353//102 354//102 355//102
f 359//132 333//130 360//132
f 334//130 360//132 333//130
f 366//102 367//102 368//102
f 372//133 373//133 346//131
f 347//131 346//131 373//133
f 379//102 380//102 381//102
f 385//134 359//132 386//134
f 360//132 386//134 359//132
f 392//102 393//102 394//102
f 398//135 399//135 372//133
f 373//133 372//133 399//135
f 405//102 406//102 407//102
f 411//136 412//136 386//134
f 385//134 386//134 412//136
f 418//102 419//102 420//102
f 424//137 425//137 398//135
f 399//135 398//135 425//137
f 431//102 432//102 433//102
f 437//138 438//138 411//136
f 412//136 411//136 438//138
f 444//102 445//102 446//102
f 450//139 451//139 424//137
f 425//137 424//137 451//139
f 457//102 458//102 459//102
f 463//140 464//140 437//138
f 438//138 437//138 464//140
f 470//102 471//102 472//102
f 476//141 477//141 450//139
f 451//139 450//139 477//141
f 483//102 484//102 485//102
f 489//142 490//142 463//140
f 464//140 463//140 490//142
f 496//102 497//102 498//102
f 502//143 503//143 476//141
f 477//141 476//141 503//143
f 509//102 510//102 511//102
f 515//144 516//144 489//142
f 490//142 489//142 516//144
f 522//102 523//102 524//102
f 528//145 529//145 502//143
f 503//143 502//143 529//145
f 535//102 536//102 537//102
f 541//146 542//146 515//144
f 516//144 515//144 542//146
f 548//102 549//102 550//102
f 554//147 555//147 528//145
f 529//145 528//145 555//147
f 561//102 562//102 563//102
f 567//148 568//148 541//146
f 542//146 541//146 568//148
f 574//102 575//102 576//102
f 580//149 581//149 554//147
f 555//147 554//147 581//149
f 587//102 588//102 589//102
f 593//150 594//150 567//148
f 568//148 567//148 594//150
f 600//102 601//102 602//102
f 606//151 607//151 580//149
f 581//149 580//149 607//151
f 613//102 614//102 615//102
f 619//152 620//152 593//150
f 594//150 593//150 620//152
f 626//102 627//102 628//102
f 632//153 633//153 606//151
f 607//151 606//151 633//153
f 639//102 640//102 641//102
f 645//154 646//154 619//152
f 620//152 619//152 646//154
f 652//102 653//102 654//102
f 658//155 659//155 632//153
f 633//153 632//153 659//155
f 665//102 666//102 667//102
f 671//156 672//156 645//154
f 646//154 645//154 672//156
f 678//102 679//102 680//102
f 684//157 685//157 658//155
f 659//155 658//155 685//157
f 691//102 692//102 693//102
f 697//158 698//158 671//156
f 672//156 671//156 698//158
f 704//102 705//102 706//102
f 710//159 711//159 684//157
f 685//157 684//157 711//159
f 717//102 718//102 719//102
f 723//160 724//160 697//158
f 698//158 697//158 724//160
f 730//102 731//102 732//102
f 736//161 737//161 710//159
f 711//159 710//159 737//161
f 743//102 744//102 745//102
f 749//162 750//162 723//160
f 724//160 723//160 750//162
f 756//102 757//102 758//102
f 762//163 763//163 736//161
f 737//161 736//161 763//163
f 769//102 770//102 771//102
f 775//164 776//164 749//162
f 750//162 749//162 776//164
f 782//102 783//102 784//102
f 788//165 789//165 762//163
f 763//163 762//163 789//165
f 795//102 796//102 797//102
f 801//166 802//166 775//164
f 776//164 775//164 802//166
f 808//102 809//102 810//102
f 814//167 815//167 788//165
f 789//165 788//165 815//167
f 821//102 822//102 823//102
f 827//168 828//168 801//166
f 802//166 801//166 828//168
f 834//102 835//102 836//102
f 840//169 841//169 814//167
f 815//167 814//167 841//169
f 847//102 848//102 849//102
f 853//170 854//170 827//168
f 828//168 827//168 854//170
f 860//102 861//102 862//102
f 866//171 867//171 840//169
f 841//169 840//169 867//171
f 873//102 874//102 875//102
f 879//172 880//172 853//170
f 854//170 853//170 880//172
f 886//102 887//102 888//102
f 892//173 893//173 866//171
f 867//171 866//171 893//173
f 899//102 900//102 901//102
f 905//174 906//174 879//172
f 880//172 879//172 906//174
f 912//102 913//102 914//102
f 918//175 919//175 892//173
f 893//173 892//173 919//175
f 925//102 926//102 927//102
f 931//176 932//176 905//174
f 906//174 905//174 932//176
f 938//102 939//102 940//102
f 944//177 919//175 945//177
f 918//175 945//177 919//175
f 951//102 952//102 953//102
f 957//178 958//178 931//176
f 932//176 931//176 958//178
f 964//102 965//102 966//102
f 970//179 944//177 971//179
f 945//177 971//179 944//177
f 977//102 978//102 979//102
f 983//180 984//180 957//178
f 958//178 957//178 984//180
f 990//102 991//102 992//102
f 996//181 970//179 997//181
f 971//179 997//181 970//179
f 1003//102 1004//102 1005//102
f 1009//182 1010//182 983//180
f 984//180 983//180 1010//182
f 1016//102 1017//102 1018//102
f 1022//183 996//181 1023//183
f 997//181 1023//183 996//181
f 1029//102 1030//102 1031//102
f 1009//182 1035//184 1010//182
f 1036//184 1010//182 1035//184
f 1042//102 1043//102 1044//102
f 1048//185 1022//183 1049//185
f 1023//183 1049//185 1022//183
f 1055//102 1056//102 1057//102
f 1035//184 1061//186 1036//184
f 1062//186 1036//184 1061//186
f 1068//102 1069//102 1070//102
f 1074//187 1048//185 1075//187
f 1049//185 1075//187 1048//185
f 1081//102 1082//102 1083//102
f 1061//186 1087//188 1062//186
f 1088//188 1062//186 1087//188
f 1094//102 1095//102 1096//102
f 1100//189 1074//187 1101//189
f 1075//187 1101//189 1074//187
f 1107//102 1108//102 1109//102
f 1087//188 1113//190 1088//188
f 1114//190 1088//188 1113//190
f 1120//102 1121//102 1122//102
f 1126//191 1100//189 1127//191
f 1101//189 1127//191 1100//189
f 1133//102 1134//102 1135//102
f 1113//190 1139//192 1114//190
f 1140//192 1114//190 1139//192
f 1146//102 1147//102 1148//102
f 1152//193 1126//191 1153//193
f 1127//191 1153//193 1126//191
f 1159//102 1160//102 1161//102
f 1139//192 1165//194 1140//192
f 1166//194 1140//192 1165//194
f 1172//102 1173//102 1174//102
f 1178//195 1152//193 1179//195
f 1153//193 1179//195 1152//193
f 1185//102 1186//102 1187//102
f 1165//194 1191//196 1166//194
f 1192//196 1166//194 1191//196
f 1198//102 1199//102 1200//102
f 1204//197 1178//195 1205//197
f 1179//195 1205//197 1178//195
f 1211//102 1212//102 1213//102
f 1191//196 1217//198 1192//196
f 1218//198 1192//196 1217//198
f 1224//102 1225//102 1226//102
f 1230//199 1204//197 1231//199
f 1205//197 1231//199 1204//197
f 1237//102 1238//102 1239//102
f 1217//198 1243//200 1218//198
f 1244//200 1218//198 1243//200
f 1250//102 1251//102 1252//102
f 1256//201 1230//199 1257//201
f 1231//199 1257//201 1230//199
f 1263//102 1264//102 1265//102
f 1243//200 1269//202 1244//200
f 1270//202 1244//200 1269//202
f 1276//102 1277//102 1278//102
f 1269//202 1256//201 1270//202
f 1257//201 1270//202 1256//201
f 1283//102 1284//102 1285//102
f 1290//102 1291//102 1292//102
f 1297//102 1298//102 1299//102
usemtl material_1_0
f 1//1 2//1 3//1
f 10//2 11//3 12//2
f 11//3 10//2 13//3
f 20//4 12//2 21//4
f 12//2 20//4 10//2
f 13//3 26//5 11//3
f 26//5 13//3 27//5
f 32//6 21//4 33//6
f 21//4 32//6 20//4
f 38//1 39//1 40//1
f 27//5 45//7 26//5
f 45//7 27//5 46//7
f 51//1 52//1 53//1
f 58//8 33//6 59//8
f 33//6 58//8 32//6
f 64//1 65//1 66//1
f 46//7 71//9 45//7
f 71//9 46//7 72//9
f 77//1 78//1 79//1
f 84//10 59//8 85//10
f 59//8 84//10 58//8
f 90//1 91//1 92//1
f 72//9 97//11 71//9
f 97//11 72//9 98//11
f 103//1 104//1 105//1
f 110//12 85//10 111//12
f 85//10 110//12 84//10
f 116//1 117//1 118//1
f 98//11 123//13 97//11
f 123//13 98//11 124//13
f 129//1 130//1 131//1
f 136//14 111//12 137//14
f 111//12 136//14 110//12
f 142//1 143//1 144//1
f 124//13 149//15 123//13
f 149//15 124//13 150//15
f 155//1 156//1 157//1
f 162//16 137//14 163//16
f 137//14 162//16 136//14
f 168//1 169//1 170//1
f 150//15 175//17 149//15
f 175//17 150//15 176//17
f 181//1 182//1 183//1
f 188//18 163//16 189//18
f 163//16 188//18 162//16
f 194//1 195//1 196//1
f 176//17 201//19 175//17
f 201//19 176//17 202//19
f 207//1 208//1 209//1
f 214//20 189//18 215//20
f 189//18 214//20 188//18
f 220//1 221//1 222//1
f 202//19 227//21 201//19
f 227//21 202//19 228//21
f 233//1 234//1 235//1
f 240//22 215//20 241//22
f 215//20 240//22 214//20
f 246//1 247//1 248//1
f 228//21 253//23 227//21
f 253//23 228//21 254//23
f 259//1 260//1 261//1
f 266//24 240//22 241//22
f 240//22 266//24 267//24
f 272//1 273//1 274//1
f 254//23 279//25 253//23
f 279//25 254//23 280//25
f 285//1 286//1 287//1
f 292//26 267//24 266//24
f 267//24 292//26 293//26
f 298//1 299//1 300//1
f 280//25 305//27 279//25
f 305//27 280//25 306//27
f 311//1 312//1 313//1
f 318//28 293//26 292//26
f 293//26 318//28 319//28
f 324//1 325//1 326//1
f 306//27 331//29 305//27
f 331//29 306//27 332//29
f 337//1 338//1 339//1
f 344//30 319//28 318//28
f 319//28 344//30 345//30
f 350//1 351//1 352//1
f 332//29 357//31 331//29
f 357//31 332//29 358//31
f 363//1 364//1 365//1
f 370//32 345//30 344//30
f 345//30 370//32 371//32
f 376//1 377//1 378//1
f 358//31 383//33 357//31
f 383//33 358//31 384//33
f 389//1 390//1 391//1
f 396//34 371//32 370//32
f 371//32 396//34 397//34
f 402//1 403//1 404//1
f 409//35 383//33 384//33
f 383//33 409//35 410//35
f 415//1 416//1 417//1
f 422//36 397//34 396//34
f 397//34 422//36 423//36
f 428//1 429//1 430//1
f 435//37 410//35 409//35
f 410//35 435//37 436//37
f 441//1 442//1 443//1
f 448//38 423//36 422//36
f 423//36 448//38 449//38
f 454//1 455//1 456//1
f 461//39 436//37 435//37
f 436//37 461//39 462//39
f 467//1 468//1 469//1
f 474//40 449//38 448//38
f 449//38 474//40 475//40
f 480//1 481//1 482//1
f 487//41 462//39 461//39
f 462//39 487//41 488//41
f 493//1 494//1 495//1
f 500//42 475//40 474//40
f 475//40 500//42 501//42
f 506//1 507//1 508//1
f 513//43 488//41 487//41
f 488//41 513//43 514//43
f 519//1 520//1 521//1
f 526//44 501//42 500//42
f 501//42 526//44 527//44
f 532//1 533//1 534//1
f 539//45 514//43 513//43
f 514//43 539//45 540//45
f 545//1 546//1 547//1
f 552//46 527//44 526//44
f 527//44 552//46 553//46
f 558//1 559//1 560//1
f 565//47 540//45 539//45
f 540//45 565//47 566//47
f 571//1 572//1 573//1
f 578//48 553//46 552//46
f 553//46 578//48 579//48
f 584//1 585//1 586//1
f 591//49 566//47 565//47
f 566//47 591//49 592//49
f 597//1 598//1 599//1
f 604//50 579//48 578//48
f 579//48 604//50 605//50
f 610//1 611//1 612//1
f 617//51 592//49 591//49
f 592//49 617//51 618//51
f 623//1 624//1 625//1
f 630//52 605//50 604//50
f 605//50 630//52 631//52
f 636//1 637//1 638//1
f 643//53 618//51 617//51
f 618//51 643//53 644//53
f 649//1 650//1 651//1
f 656//54 631//52 630//52
f 631//52 656//54 657//54
f 662//1 663//1 664//1
f 669//55 644//53 643//53
f 644//53 669//55 670//55
f 675//1 676//1 677//1
f 682//56 657//54 656//54
f 657//54 682//56 683//56
f 688//1 689//1 690//1
f 695//57 670//55 669//55
f 670//55 695//57 696//57
f 701//1 702//1 703//1
f 708//58 683//56 682//56
f 683//56 708//58 709//58
f 714//1 715//1 716//1
f 721//59 696//57 695//57
f 696//57 721//59 722//59
f 727//1 728//1 729//1
f 734//60 709//58 708//58
f 709//58 734//60 735//60
f 740//1 741//1 742//1
f 747//61 722//59 721//59
f 722//59 747//61 748//61
f 753//1 754//1 755//1
f 760//62 735//60 734//60
f 735//60 760//62 761//62
f 766//1 767//1 768//1
f 773//63 748//61 747//61
f 748//61 773//63 774//63
f 779//1 780//1 781//1
f 786//64 761//62 760//62
f 761//62 786//64 787//64
f 792//1 793//1 794//1
f 799//65 774//63 773//63
f 774//63 799//65 800//65
f 805//1 806//1 807//1
f 812//66 787//64 786//64
f 787//64 812//66 813//66
f 818//1 819//1 820//1
f 825//67 800//65 799//65
f 800//65 825//67 826//67
f 831//1 832//1 833//1
f 838//68 813//66 812//66
f 813//66 838//68 839//68
f 844//1 845//1 846//1
f 851//69 826//67 825//67
f 826//67 851//69 852//69
f 857//1 858//1 859//1
f 864//70 839//68 838//68
f 839//68 864//70 865//70
f 870//1 871//1 872//1
f 877//71 852//69 851//69
f 852//69 877//71 878//71
f 883//1 884//1 885//1
f 890//72 865//70 864//70
f 865//70 890//72 891//72
f 896//1 897//1 898//1
f 903//73 878//71 877//71
f 878//71 903//73 904//73
f 909//1 910//1 911//1
f 916//74 891//72 890//72
f 891//72 916//74 917//74
f 922//1 923//1 924//1
f 929//75 904//73 903//73
f 904//73 929//75 930//75
f 935//1 936//1 937//1
f 916//74 942//76 917//74
f 942//76 916//74 943//76
f 948//1 949//1 950//1
f 955//77 930//75 929//75
f 930//75 955//77 956//77
f 961//1 962//1 963//1
f 943//76 968//78 942//76
f 968//78 943//76 969//78
f 974//1 975//1 976//1
f 981//79 956//77 955//77
f 956//77 981//79 982//79
f 987//1 988//1 989//1
f 969//78 994//80 968//78
f 994//80 969//78 995//80
f 1000//1 1001//1 1002//1
f 1007//81 982//79 981//79
f 982//79 1007//81 1008//81
f 1013//1 1014//1 1015//1
f 995//80 1020//82 994//80
f 1020//82 995//80 1021//82
f 1026//1 1027//1 1028//1
f 1033//83 1007//81 1034//83
f 1007//81 1033//83 1008//81
f 1039//1 1040//1 1041//1
f 1021//82 1046//84 1020//82
f 1046//84 1021//82 1047//84
f 1052//1 1053//1 1054//1
f 1059//85 1034//83 1060//85
f 1034//83 1059//85 1033//83
f 1065//1 1066//1 1067//1
f 1047//84 1072//86 1046//84
f 1072//86 1047//84 1073//86
f 1078//1 1079//1 1080//1
f 1085//87 1060//85 1086//87
f 1060//85 1085//87 1059//85
f 1091//1 1092//1 1093//1
f 1073//86 1098//88 1072//86
f 1098//88 1073//86 1099//88
f 1104//1 1105//1 1106//1
f 1111//89 1086//87 1112//89
f 1086//87 1111//89 1085//87
f 1117//1 1118//1 1119//1
f 1099//88 1124//90 1098//88
f 1124//90 1099//88 1125//90
f 1130//1 1131//1 1132//1
f 1137//91 1112//89 1138//91
f 1112//89 1137//91 1111//89
f 1143//1 1144//1 1145//1
f 1125//90 1150//92 1124//90
f 1150//92 1125//90 1151//92
f 1156//1 1157//1 1158//1
f 1163//93 1138//91 1164//93
f 1138//91 1163//93 1137//91
f 1169//1 1170//1 1171//1
f 1151//92 1176//94 1150//92
f 1176//94 1151//92 1177//94
f 1182//1 1183//1 1184//1
f 1189//95 1164//93 1190//95
f 1164//93 1189//95 1163//93
f 1195//1 1196//1 1197//1
f 1177//94 1202//96 1176//94
f 1202//96 1177//94 1203//96
f 1208//1 1209//1 1210//1
f 1215//97 1190//95 1216//97
f 1190//95 1215//97 1189//95
f 1221//1 1222//1 1223//1
f 1203//96 1228//98 1202//96
f 1228//98 1203//96 1229//98
f 1234//1 1235//1 1236//1
f 1241//99 1216//97 1242//99
f 1216//97 1241//99 1215//97
f 1247//1 1248//1 1249//1
f 1229//98 1254//100 1228//98
f 1254//100 1229//98 1255//100
f 1260//1 1261//1 1262//1
f 1267//101 1242//99 1268//101
f 1242//99 1267//101 1241//99
f 1273//1 1274//1 1275//1
f 1255//100 1268//101 1254//100
f 1268//101 1255//100 1267//101
f 1280//1 1281//1 1282//1
f 1287//1 1288//1 1289//1
f 1294//1 1295//1 1296//1
usemtl material_2_0
