# Blender 4.4.0
# www.blender.org
mtllib mesh.mtl
o __articraft_commit_0002_0000
v -0.015000 -0.002500 -0.374000
v -0.015000 0.616500 -0.374000
v -0.015000 0.616500 0.382000
v -0.015000 -0.002500 0.382000
v -0.015000 0.040500 -0.331000
v -0.015000 0.573500 -0.331000
v -0.015000 0.573500 0.339000
v -0.015000 0.040500 0.339000
v 0.029000 -0.002500 -0.374000
v 0.029000 0.616500 -0.374000
v 0.029000 0.616500 0.382000
v 0.029000 -0.002500 0.382000
v 0.029000 0.040500 -0.331000
v 0.029000 0.573500 -0.331000
v 0.029000 0.573500 0.339000
v 0.029000 0.040500 0.339000
v 0.004500 0.038000 -0.333500
v 0.004500 0.038000 0.341500
v 0.004500 0.576000 -0.333500
v 0.004500 0.576000 0.341500
v 0.013500 0.038000 -0.333500
v 0.013500 0.038000 0.341500
v 0.013500 0.576000 -0.333500
v 0.013500 0.576000 0.341500
vn -1.0000 -0.0000 -0.0000
vn 1.0000 -0.0000 -0.0000
vn -0.0000 -0.0000 -1.0000
vn -0.0000 -0.0000 1.0000
vn -0.0000 1.0000 -0.0000
vn -0.0000 -1.0000 -0.0000
vt 0.030049 0.498253
vt 0.432565 0.528302
vt 0.000000 0.528302
vt 0.835080 0.498253
vt 0.865129 0.528302
vt 0.782669 0.960867
vt 0.751922 0.528302
vt 0.782669 0.528302
vt 0.844165 0.528302
vt 0.813417 0.900769
vt 0.813417 0.528302
vt 0.402516 0.498253
vt 0.432565 0.000000
vt 0.462614 0.498253
vt 0.865129 0.000000
vt 0.895877 0.528302
vt 0.865129 0.528302
vt 0.926625 0.468204
vt 0.957372 0.000000
vt 0.957372 0.468204
vt 0.030049 0.030049
vt 0.000000 0.000000
vt 0.835080 0.030049
vt 0.462614 0.030049
vt 0.813417 0.960867
vt 0.844165 0.900769
vt 0.874913 0.528302
vt 0.874913 0.900769
vt 0.865129 0.000000
vt 0.926625 0.528302
vt 0.895877 0.000000
vt 0.926625 0.000000
vt 0.957372 0.468204
vt 0.926625 0.936408
vt 0.926625 0.468204
vt 0.000000 0.528302
vt 0.375961 1.000000
vt 0.000000 1.000000
vt 0.957373 0.000000
vt 0.963662 0.471698
vt 0.957373 0.471698
vt 0.375961 0.528302
vt 0.751922 1.000000
vt 0.375961 1.000000
vt 0.957373 0.471698
vt 0.963662 0.943396
vt 0.957373 0.943396
vt 0.874913 0.904263
vt 0.881202 0.528302
vt 0.881202 0.904263
vt 0.895877 0.904263
vt 0.902166 0.528302
vt 0.902166 0.904263
vt 0.751922 0.960867
vt 0.402516 0.030049
vt 0.813417 0.528302
vt 0.957372 0.936408
vt 0.375961 0.528302
vt 0.963662 0.000000
vt 0.751922 0.528302
vt 0.963662 0.471698
vt 0.874913 0.528302
vt 0.895877 0.528302
s 0
usemtl door_2_glazing.001
f 18/36/1 19/37/1 17/38/1
f 20/39/5 23/40/5 19/41/5
f 24/42/2 21/43/2 23/44/2
f 22/45/6 17/46/6 21/47/6
f 23/48/3 17/49/3 19/50/3
f 20/51/4 22/52/4 24/53/4
f 18/36/1 20/58/1 19/37/1
f 20/39/5 24/59/5 23/40/5
f 24/42/2 22/60/2 21/43/2
f 22/45/6 18/61/6 17/46/6
f 23/48/3 21/62/3 17/49/3
f 20/51/4 18/63/4 22/52/4
usemtl aluminium
f 5/1/1 2/2/1 1/3/1
f 10/2/2 13/4/2 9/5/2
f 2/6/3 9/7/3 1/8/3
f 13/9/4 6/10/4 5/11/4
f 6/12/1 3/13/1 2/2/1
f 11/13/2 14/14/2 10/2/2
f 3/15/5 10/16/5 2/17/5
f 14/18/6 7/19/6 6/20/6
f 3/13/1 8/21/1 4/22/1
f 11/13/2 16/23/2 15/24/2
f 4/8/4 11/25/4 3/6/4
f 15/26/3 8/27/3 7/28/3
f 4/22/1 5/1/1 1/3/1
f 12/29/2 13/4/2 16/23/2
f 1/30/6 12/31/6 4/32/6
f 16/33/5 5/34/5 8/35/5
f 5/1/1 6/12/1 2/2/1
f 10/2/2 14/14/2 13/4/2
f 2/6/3 10/54/3 9/7/3
f 13/9/4 14/26/4 6/10/4
f 6/12/1 7/55/1 3/13/1
f 11/13/2 15/24/2 14/14/2
f 3/15/5 11/31/5 10/16/5
f 14/18/6 15/32/6 7/19/6
f 3/13/1 7/55/1 8/21/1
f 11/13/2 12/29/2 16/23/2
f 4/8/4 12/56/4 11/25/4
f 15/26/3 16/9/3 8/27/3
f 4/22/1 8/21/1 5/1/1
f 12/29/2 9/5/2 13/4/2
f 1/30/6 9/16/6 12/31/6
f 16/33/5 13/57/5 5/34/5
