# https://github.com/mikedh/trimesh
mtllib material.mtl
usemtl material_0
v -0.03748285 0.01227119 -0.04108805
v -0.04829632 0.02702541 -0.04093282
v -0.04723994 0.00493538 -0.04111424
v -0.04034749 0.03124517 -0.04083253
v -0.06398454 0.02672683 -0.04129782
v -0.06338641 0.00437122 -0.04137744
v -0.06890377 0.02228022 -0.04141752
v -0.06981950 0.00268054 -0.04158142
v -0.04973119 0.00116877 -0.04131690
v -0.06017390 0.02912231 -0.04129408
v -0.04367357 -0.00339425 -0.04101249
v -0.04188230 -0.01086379 -0.04095626
v -0.02272496 -0.00582082 -0.04116343
v -0.01727515 0.00358133 -0.04125702
v -0.02103389 0.02664179 -0.04113714
v -0.02952364 0.03126141 -0.04095545
v -0.00433799 0.01723720 -0.04132381
v -0.00509540 0.02647934 -0.04138383
v -0.03191679 -0.01152158 -0.04095817
v -0.00401560 0.00509626 -0.04151801
v -0.01583206 -0.00115913 -0.04137276
v -0.01703549 0.02987986 -0.04133957
v -0.05052471 0.02940240 -0.04110793
v -0.03739465 0.03305601 -0.04076886
v -0.03597090 -0.01327811 -0.04108388
v -0.00006072 0.01154983 -0.04167222
v -0.00012662 0.01852006 -0.04167014
v -0.05374179 0.00175373 -0.04137298
v -0.02490861 -0.01104708 -0.04131104
v -0.01900839 -0.00967783 -0.04162687
v -0.01772941 -0.00709859 -0.04160077
v -0.02651303 -0.01282551 -0.04130856
v -0.03376522 0.03346001 -0.04057312
v -0.07317673 0.01662875 -0.04186032
v -0.07260422 0.00289655 -0.04176553
v -0.00535333 0.00227441 -0.04169312
v -0.06913455 0.02714358 -0.04180180
v -0.06734920 0.02880212 -0.04175301
v -0.04361109 -0.01232011 -0.04119956
v -0.04554299 -0.00637049 -0.04137771
v -0.04784933 -0.00243550 -0.04153948
v -0.07467550 0.02347363 -0.04234679
v -0.07463054 0.02547051 -0.04252376
v -0.00005605 0.00390506 -0.04228313
v -0.01394944 -0.00228777 -0.04172784
v -0.01615091 -0.00568701 -0.04184239
v -0.00865294 0.02925161 -0.04171129
v -0.00072335 0.02596364 -0.04220460
v -0.02896577 0.03219307 -0.04119075
v -0.00232619 0.00120542 -0.04241569
v -0.00188552 0.02772845 -0.04226634
v 0.00204746 0.02104119 -0.04258000
v -0.07483126 0.01786020 -0.04240917
v 0.00228166 0.01204942 -0.04247368
v 0.00139336 0.00482795 -0.04270830
v -0.01858219 0.03086176 -0.04155076
v -0.07470711 0.00463479 -0.04262957
v -0.00882497 0.00025913 -0.04197576
v -0.01323845 -0.00399393 -0.04490201
v 0.00134814 0.02495681 -0.04331460
v -0.06938419 0.01309426 -0.05943199
v -0.07759035 0.02278651 -0.05928610
v -0.06548298 0.02328264 -0.05914900
v -0.07328189 0.00631172 -0.05973643
v -0.07951175 0.01636226 -0.05957209
v -0.07930796 0.02158067 -0.05937468
v -0.07155654 0.02340925 -0.05922175
v -0.06715744 0.00673516 -0.05949730
v -0.07960780 0.00671540 -0.05952597
v -0.06362247 0.01080088 -0.05881440
v -0.06132043 0.02344965 -0.05925984
v -0.06104106 0.00897590 -0.05850343
v -0.06494645 0.00511082 -0.05860851
v -0.06926815 0.00449566 -0.05932080
v -0.07387711 0.00421906 -0.05952457
v -0.07785214 0.00457018 -0.05933956
v -0.06056804 0.00449010 -0.05796427
v -0.06465862 0.02724153 -0.05803865
v -0.06048042 0.02735427 -0.05873192
v -0.05962300 0.01809359 -0.05941866
v -0.05957804 0.00771001 -0.05873989
v -0.06925862 0.02748242 -0.05747513
v -0.05916792 0.00296019 -0.05807168
v -0.05932130 0.02556955 -0.06000057
v -0.07724632 0.02644414 -0.05755809
v -0.08168324 0.02548780 -0.05651900
v -0.05829141 0.02870217 -0.05931270
v -0.06771197 0.02906387 -0.05620452
v -0.06463050 0.00232124 -0.05665565
v -0.06091315 0.00186064 -0.05602464
v -0.08063401 0.01770568 -0.05858416
v -0.08081862 0.00579860 -0.05779435
v -0.08022495 0.00357546 -0.05708048
v -0.05817169 0.00061624 -0.05661949
v -0.08189882 0.01748713 -0.05688494
v -0.03987861 0.00876739 -0.05962108
v -0.04055423 0.01425236 -0.05959906
v -0.02633931 0.00744019 -0.06000149
v -0.02313926 0.01401268 -0.06011504
v -0.02050732 0.00844489 -0.06030211
v -0.04038948 0.00455612 -0.05978027
v -0.02652872 0.00052242 -0.06007362
v -0.04538458 0.00046452 -0.05978955
v -0.02073243 0.00087513 -0.06070631
v -0.01640846 0.00490756 -0.06086234
v -0.01368447 0.00615123 -0.06103833
v -0.01689943 0.01415150 -0.06084356
v -0.02535267 0.01921609 -0.06044771
v -0.04071442 0.01871119 -0.05970203
v -0.04597375 0.01274157 -0.05991468
v -0.04602127 0.00452666 -0.06007587
v -0.02052293 0.01790144 -0.06067762
v -0.01756630 0.01727860 -0.06095093
v -0.03471159 -0.00255498 -0.06036332
v -0.04652849 0.01912000 -0.06060376
v -0.03308015 0.02171149 -0.06055735
v -0.03663009 0.02211910 -0.06045533
v -0.02553062 -0.00222673 -0.06064600
v -0.02220719 -0.00190048 -0.06082911
v -0.02697176 0.02120930 -0.06080550
v -0.04151779 0.02221445 -0.06050372
v -0.04541860 0.02181235 -0.06083979
v -0.04599236 -0.00220500 -0.06044754
v -0.04896961 0.00038391 -0.06067815
v -0.04860970 0.01266975 -0.06068179
v -0.04848682 0.01802919 -0.06106069
v -0.04901470 -0.00207489 -0.06096884
v -0.01818630 0.00258309 -0.06094386
v -0.01403013 0.00970657 -0.06130850
v -0.01896765 -0.00047334 -0.06214872
v -0.01460874 0.01406329 -0.06265007
v -0.01624443 0.00087967 -0.06454950
v -0.02008810 -0.01061662 -0.06037328
v -0.01700003 -0.00939325 -0.05735456
v -0.02015788 -0.00957265 -0.05609690
v -0.02457898 -0.01019537 -0.05620011
v -0.02496343 -0.01124249 -0.06016274
v -0.01571093 -0.00665216 -0.04828792
v -0.02003942 -0.00843674 -0.05204760
v -0.02667781 -0.00928755 -0.05250129
v -0.03985954 -0.01135365 -0.06046414
v -0.04148763 -0.01026626 -0.05673217
v -0.04782400 -0.00990673 -0.05664717
v -0.04188655 -0.00896805 -0.05287433
v -0.03642315 -0.00937416 -0.05506413
v -0.04616901 -0.01097564 -0.06088692
v -0.02476442 -0.00939994 -0.05449424
v -0.02539459 -0.01175788 -0.06528001
v -0.03618461 -0.01183688 -0.06531018
v -0.04447884 -0.01148483 -0.06524919
v -0.05255448 -0.01005269 -0.06146971
v -0.05037931 -0.01085773 -0.06565321
v -0.03906897 -0.01181725 -0.07055560
v -0.02913389 -0.01183158 -0.07004119
v -0.02013486 -0.01094614 -0.06552927
v -0.04931984 -0.01101259 -0.07006682
v -0.02278704 -0.01133163 -0.06988751
v -0.03099488 -0.01153785 -0.07385838
v -0.03946466 -0.01164742 -0.07396621
v -0.04613898 -0.01087670 -0.07394115
v -0.01621045 -0.00956389 -0.06042703
v -0.03561781 -0.00935898 -0.05073101
v -0.02851768 -0.00959264 -0.04996741
v -0.04220456 -0.00895844 -0.04894033
v -0.02442965 -0.00951635 -0.04820631
v -0.02017891 -0.00844790 -0.04803382
v -0.02436748 -0.01077542 -0.07399538
v -0.05218931 -0.00943843 -0.05902050
v -0.05279879 -0.01015084 -0.06815508
v -0.01564005 -0.00951839 -0.06599174
v -0.01179973 -0.00729033 -0.05592346
v -0.01598052 -0.00926370 -0.07025126
v -0.01440608 -0.00578083 -0.04683934
v -0.01183557 -0.00783697 -0.06067341
v -0.01003773 -0.00573266 -0.05286397
v -0.01799860 -0.00941687 -0.07315563
v -0.02051272 -0.00915930 -0.04487391
v -0.05172192 -0.00996507 -0.07253424
v -0.03376747 -0.01142155 -0.04445116
v -0.02893490 -0.01164339 -0.04387839
v -0.02424721 -0.01100354 -0.04363062
v -0.01900839 -0.00967783 -0.04162687
v -0.02490861 -0.01104708 -0.04131104
v -0.03842387 -0.01105150 -0.04459668
v -0.02298714 -0.00983981 -0.07606494
v -0.04421489 -0.00977183 -0.04531839
v -0.01676661 -0.00733476 -0.04419581
v -0.00925685 -0.00639121 -0.05966904
v -0.04836819 -0.00978918 -0.07579575
v -0.04535278 -0.00769079 -0.04757613
v -0.04657415 -0.00756118 -0.05255240
v -0.00937309 -0.00623003 -0.06566251
v -0.05067560 -0.00894527 -0.05667114
v -0.03748311 -0.01065515 -0.07610924
v -0.00989949 -0.00558143 -0.07127372
v -0.02651303 -0.01282551 -0.04130856
v -0.03597090 -0.01327811 -0.04108388
v -0.01944819 -0.00905283 -0.07501867
v -0.04205038 -0.01107746 -0.04365127
v -0.04430519 -0.01047023 -0.04301909
v -0.01274292 -0.00620535 -0.07348607
v -0.04361109 -0.01232011 -0.04119956
v -0.00720685 -0.00178624 -0.04783795
v -0.00816857 -0.00099443 -0.04483094
v -0.00232619 0.00120542 -0.04241569
v -0.00420505 -0.00005308 -0.04552556
v -0.00413044 -0.00038372 -0.04850565
v -0.00617770 -0.00197261 -0.05297557
v -0.00882497 0.00025913 -0.04197576
v -0.01323845 -0.00399393 -0.04490201
v -0.00121740 0.00183687 -0.04823786
v -0.00066529 0.00259009 -0.04414274
v -0.00199583 0.00173945 -0.05192028
v -0.00471132 -0.00060210 -0.05424355
v -0.00655198 -0.00296246 -0.05641006
v -0.01615091 -0.00568701 -0.04184239
v -0.01772941 -0.00709859 -0.04160077
v 0.00139336 0.00482795 -0.04270830
v -0.00005605 0.00390506 -0.04228313
v -0.01389333 -0.00564043 -0.07531954
v -0.05231914 -0.00654298 -0.05433803
v -0.04806805 -0.00537579 -0.05113695
v -0.05817169 0.00061624 -0.05661949
v -0.05737511 0.00020464 -0.05238631
v -0.06091315 0.00186064 -0.05602464
v -0.06116752 0.00149278 -0.05253459
v -0.06152853 0.00163654 -0.04783489
v -0.06604991 0.00209603 -0.05317602
v -0.06463050 0.00232124 -0.05665565
v -0.06176057 0.00180671 -0.04343972
v -0.05774272 0.00104977 -0.04775258
v -0.07341041 0.00283265 -0.04338231
v -0.07491902 0.00259468 -0.05351008
v -0.07661439 0.00342951 -0.04483230
v -0.06981950 0.00268054 -0.04158142
v -0.07260422 0.00289655 -0.04176553
v -0.07757726 0.00317944 -0.04847611
v -0.07778313 0.00275332 -0.05357330
v -0.05769378 0.00147175 -0.04345394
v -0.07986286 0.00346608 -0.05027579
v -0.05364465 0.00017022 -0.04820297
v -0.07285836 0.00302146 -0.05776780
v -0.08053792 0.00342991 -0.05353972
v -0.05104718 0.00057028 -0.04370397
v -0.08022495 0.00357546 -0.05708048
v -0.05101927 -0.00024443 -0.04743253
v -0.05488484 -0.00036466 -0.05113813
v -0.05374179 0.00175373 -0.04137298
v -0.04973119 0.00116877 -0.04131690
v -0.05231439 -0.00092923 -0.05014173
v -0.05612259 -0.00166719 -0.05521027
v -0.07785214 0.00457018 -0.05933956
v -0.07387711 0.00421906 -0.05952457
v -0.04784933 -0.00243550 -0.04153948
v -0.06926815 0.00449566 -0.05932080
v -0.04740690 -0.00465299 -0.04822747
v -0.04673522 -0.00441593 -0.04433106
v -0.07470711 0.00463479 -0.04262957
v -0.04806805 -0.00537579 -0.05113695
v -0.05018026 -0.00444622 -0.05160642
v -0.05360577 -0.00273345 -0.05272029
v -0.04554299 -0.00637049 -0.04137771
v -0.04535278 -0.00769079 -0.04757613
v -0.04571812 -0.00694426 -0.04315121
v -0.05231914 -0.00654298 -0.05433803
v -0.04421489 -0.00977183 -0.04531839
v -0.04361109 -0.01232011 -0.04119956
v -0.04430519 -0.01047023 -0.04301909
v -0.02844266 -0.00507332 -0.07371056
v -0.02895197 -0.00382177 -0.06453593
v -0.02458887 -0.00335026 -0.06454321
v -0.02409826 -0.00475602 -0.07338028
v -0.03361975 -0.00389638 -0.06442147
v -0.03659190 -0.00495240 -0.07420128
v -0.04182738 -0.00492056 -0.07354548
v -0.04595674 -0.00339263 -0.06458475
v -0.03753584 -0.00541720 -0.07610814
v -0.02478066 -0.00564509 -0.07601271
v -0.04638641 -0.00400330 -0.07013320
v -0.04626407 -0.00500540 -0.07448056
v -0.04718274 -0.00574043 -0.07602421
v -0.03471159 -0.00255498 -0.06036332
v -0.04599236 -0.00220500 -0.06044754
v -0.02553062 -0.00222673 -0.06064600
v -0.02012414 -0.00418351 -0.07373603
v -0.01763668 -0.00257316 -0.06946330
v -0.02037362 -0.00241013 -0.06441500
v -0.01753554 -0.00206384 -0.06656197
v -0.02220719 -0.00190048 -0.06082911
v -0.01590897 -0.00310209 -0.07369813
v -0.04934772 -0.00251319 -0.06490295
v -0.04901470 -0.00207489 -0.06096884
v -0.02015185 -0.00532820 -0.07595520
v -0.04940439 -0.00305785 -0.07402486
v -0.01896765 -0.00047334 -0.06214872
v -0.04984577 -0.00402572 -0.07616141
v -0.01624443 0.00087967 -0.06454950
v -0.01444132 -0.00512829 -0.07532490
v -0.01174017 -0.00400925 -0.07380497
v -0.01500379 -0.00039586 -0.06970392
v -0.01349325 0.00188295 -0.06704276
v -0.01445627 -0.00097819 -0.07263795
v -0.05581409 0.02119227 -0.07453899
v -0.05758515 0.01034512 -0.07043938
v -0.05699984 0.02102349 -0.07020546
v -0.05673193 0.00984435 -0.07415738
v -0.05591513 0.02718152 -0.07026076
v -0.05470311 0.02949621 -0.07282679
v -0.05779681 0.01130318 -0.06544121
v -0.05721145 0.02136903 -0.06548674
v -0.05616483 0.02727622 -0.06593360
v -0.05840727 0.01610675 -0.06103754
v -0.05780822 0.02335725 -0.06154856
v -0.05849876 0.00486642 -0.06053443
v -0.05751778 0.00422865 -0.06549172
v -0.05709510 0.00110331 -0.07020549
v -0.05620421 0.00161781 -0.07417234
v -0.05743172 0.02736370 -0.06145876
v -0.05697976 0.00006974 -0.06549042
v -0.05744485 0.00021521 -0.06050179
v -0.05603976 -0.00384913 -0.07024750
v -0.05530125 -0.00354000 -0.07410960
v -0.05492712 0.03002785 -0.07023563
v -0.05520370 0.02984184 -0.06617442
v -0.05510088 0.02134568 -0.07585465
v -0.05492852 -0.00629535 -0.06589542
v -0.05466782 -0.00181256 -0.07607806
v -0.05916792 0.00296019 -0.05807168
v -0.05957804 0.00771001 -0.05873989
v -0.05962300 0.01809359 -0.05941866
v -0.05452134 -0.00747376 -0.07073454
v -0.05486039 -0.00637879 -0.07280838
v -0.05537423 0.01039887 -0.07614796
v -0.05371469 0.02565990 -0.07538334
v -0.05817169 0.00061624 -0.05661949
v -0.05562217 -0.00395398 -0.06059025
v -0.05396869 -0.00463382 -0.07533793
v -0.05255448 -0.01005269 -0.06146971
v -0.05279879 -0.01015084 -0.06815508
v -0.05932130 0.02556955 -0.06000057
v -0.05829141 0.02870217 -0.05931270
v -0.05599182 0.02948438 -0.06202496
v -0.05218931 -0.00943843 -0.05902050
v -0.05468174 -0.00446911 -0.05658993
v -0.05612259 -0.00166719 -0.05521027
v -0.05172192 -0.00996507 -0.07253424
v -0.05276083 -0.00758691 -0.07394235
v -0.05231914 -0.00654298 -0.05433803
v -0.05360577 -0.00273345 -0.05272029
v -0.04836819 -0.00978918 -0.07579575
v -0.01799728 0.02519526 -0.07525797
v -0.01969920 0.02759652 -0.07526958
v -0.01656842 0.02729039 -0.07506056
v -0.01542500 0.02362947 -0.07510146
v -0.01155251 0.02720172 -0.07343614
v -0.01985070 0.02950314 -0.07410269
v -0.01176103 0.02449448 -0.07501166
v -0.01417875 0.02152136 -0.07525294
v -0.00653798 0.02005034 -0.07522576
v -0.00776719 0.02323165 -0.07457958
v -0.01171637 0.01965855 -0.07524277
v -0.01057425 0.01422775 -0.07522751
v -0.00790664 0.00966081 -0.07561931
v -0.00549047 0.01737479 -0.07520155
v -0.00542283 0.01098892 -0.07539314
v -0.00867072 0.00124278 -0.07520017
v -0.01042477 0.00717093 -0.07530660
v -0.01029401 0.00097687 -0.07507683
v -0.00586745 0.00351895 -0.07493008
v -0.01964383 0.02352096 -0.07471088
v -0.02407354 0.02659997 -0.07532842
v -0.02116709 0.02925398 -0.07552633
v -0.02379371 0.02945910 -0.07576519
v -0.02964032 0.02744954 -0.07589916
v -0.02844116 0.03095792 -0.07614727
v -0.03214531 0.03063154 -0.07641409
v -0.03420023 0.03637416 -0.07716885
v -0.03747444 0.03158157 -0.07646916
v -0.04592527 0.03014077 -0.07620615
v -0.04240564 0.03475029 -0.07682052
v -0.03928826 0.03708209 -0.07687814
v -0.04743677 0.03708357 -0.07609328
v -0.04925848 0.03362445 -0.07602735
v -0.05097912 0.02950311 -0.07592686
v -0.04768352 0.02781226 -0.07597490
v -0.04935137 0.02549636 -0.07584701
v -0.05279132 0.02444681 -0.07582361
v -0.05098381 0.02295987 -0.07585744
v -0.05101442 0.01860422 -0.07591752
v -0.05273226 0.00583246 -0.07641782
v -0.05537423 0.01039887 -0.07614796
v -0.05510088 0.02134568 -0.07585465
v -0.05048551 0.00052443 -0.07630810
v -0.04984577 -0.00402572 -0.07616141
v -0.05098484 -0.00646433 -0.07597708
v -0.05466782 -0.00181256 -0.07607806
v -0.04718274 -0.00574043 -0.07602421
v -0.03753584 -0.00541720 -0.07610814
v -0.03535516 -0.00766360 -0.07629275
v -0.03748311 -0.01065515 -0.07610924
v -0.02107292 -0.00787194 -0.07610050
v -0.02298714 -0.00983981 -0.07606494
v -0.02478066 -0.00564509 -0.07601271
v -0.02015185 -0.00532820 -0.07595520
v -0.01389333 -0.00564043 -0.07531954
v -0.04836819 -0.00978918 -0.07579575
v -0.01444132 -0.00512829 -0.07532490
v -0.04076254 0.02870143 -0.07549074
v -0.03432065 0.02906863 -0.07541334
v -0.05371469 0.02565990 -0.07538334
v -0.03109220 0.03647553 -0.07610592
v -0.01536635 0.01964336 -0.07371623
v -0.02411018 0.02303454 -0.07355413
v -0.03419412 0.03689141 -0.07689606
v -0.01944819 -0.00905283 -0.07501867
v -0.04644572 0.02651004 -0.07497538
v -0.01299752 0.01855948 -0.07437820
v -0.01248867 0.01471664 -0.07339499
v -0.01174017 -0.00400925 -0.07380497
v -0.00561936 0.02554982 -0.07273323
v -0.05396869 -0.00463382 -0.07533793
v -0.00502738 0.02369999 -0.07272340
v -0.01983012 0.02068312 -0.07306968
v -0.02264958 0.02109393 -0.07253595
v -0.01285565 0.02884399 -0.07246587
v -0.00749875 0.00020685 -0.07371738
v -0.04654336 0.02399661 -0.07302254
v -0.04935652 0.02270539 -0.07426726
v -0.05239252 0.03076886 -0.07422009
v -0.05470311 0.02949621 -0.07282679
v -0.04377189 0.02501673 -0.07201620
v -0.05276083 -0.00758691 -0.07394235
v -0.01185568 0.00000912 -0.07370612
v -0.00208293 0.01159663 -0.06170901
v -0.00061975 0.01889025 -0.05908823
v -0.00115175 0.01371585 -0.05897686
v -0.00108283 0.00904072 -0.05662803
v -0.00330500 0.00400082 -0.06198573
v -0.00264836 0.00227619 -0.05657045
v -0.00299315 0.00798528 -0.06419016
v -0.00439153 0.00437210 -0.06723825
v -0.00388334 0.01219936 -0.06986670
v -0.00586745 0.00351895 -0.07493008
v -0.00462211 0.01221137 -0.07347903
v -0.00579479 0.00122325 -0.07156751
v -0.00289988 0.02307108 -0.06670133
v -0.00060301 0.02326969 -0.05958520
v 0.00120910 0.02327183 -0.05527271
v -0.00394077 0.01925152 -0.07020973
v -0.00542283 0.01098892 -0.07539314
v -0.00043268 0.00517405 -0.05171945
v -0.00602163 -0.00200027 -0.06663606
v -0.00356126 0.00194315 -0.06038610
v -0.00617917 -0.00153058 -0.06893614
v -0.00502738 0.02369999 -0.07272340
v -0.00549047 0.01737479 -0.07520155
v -0.00161613 0.02679049 -0.06179560
v -0.00227866 0.02582397 -0.06468821
v 0.00072920 0.02643557 -0.05519303
v 0.00098094 0.01877882 -0.05614646
v 0.00046304 0.01359458 -0.05603579
v 0.00278780 0.01862185 -0.05175726
v 0.00246261 0.01352918 -0.05175557
v 0.00305998 0.01379538 -0.04783388
v 0.00204378 0.02545203 -0.05170704
v 0.00097031 0.00782965 -0.05144828
v 0.00243339 0.00943996 -0.04790036
v 0.00312593 0.01857400 -0.04780591
v 0.00112211 0.00538045 -0.04747001
v 0.00264376 0.01001249 -0.04455706
v 0.00139336 0.00482795 -0.04270830
v -0.00199583 0.00173945 -0.05192028
v 0.00299875 0.01685405 -0.04461244
v 0.00214997 0.02558762 -0.04768833
v -0.00495053 0.02582597 -0.07019868
v -0.00561936 0.02554982 -0.07273323
v -0.00399882 0.02643264 -0.06615195
v -0.00749875 0.00020685 -0.07371738
v -0.00893849 -0.00283068 -0.07274008
v -0.00989949 -0.00558143 -0.07127372
v -0.00631662 -0.00313062 -0.06107488
v -0.00121740 0.00183687 -0.04823786
v -0.00471132 -0.00060210 -0.05424355
v 0.00228166 0.01204942 -0.04247368
v 0.00204746 0.02104119 -0.04258000
v -0.00188569 0.02839111 -0.06043761
v 0.00084401 0.02790428 -0.05167177
v -0.00937309 -0.00623003 -0.06566251
v 0.00134814 0.02495681 -0.04331460
v -0.00925685 -0.00639121 -0.05966904
v -0.00655198 -0.00296246 -0.05641006
v -0.00143377 0.02866242 -0.05707977
v -0.01174017 -0.00400925 -0.07380497
v -0.01274292 -0.00620535 -0.07348607
v -0.01389333 -0.00564043 -0.07531954
v -0.01185568 0.00000912 -0.07370612
v -0.04966891 0.01365804 -0.07060261
v -0.04912803 0.01394426 -0.06476410
v -0.05004470 0.00014032 -0.06938086
v -0.04973606 0.00002475 -0.06482480
v -0.05006220 0.01444742 -0.07377589
v -0.04860970 0.01266975 -0.06068179
v -0.04848682 0.01802919 -0.06106069
v -0.04896961 0.00038391 -0.06067815
v -0.05012584 0.00021671 -0.07414211
v -0.05048551 0.00052443 -0.07630810
v -0.04890555 0.01958754 -0.07051486
v -0.04863263 0.02136857 -0.07206970
v -0.04993264 0.01919862 -0.07403951
v -0.04934772 -0.00251319 -0.06490295
v -0.04901470 -0.00207489 -0.06096884
v -0.04940439 -0.00305785 -0.07402486
v -0.04984577 -0.00402572 -0.07616141
v -0.05101442 0.01860422 -0.07591752
v -0.04804196 0.02057985 -0.06474640
v -0.04935652 0.02270539 -0.07426726
v -0.05098381 0.02295987 -0.07585744
v -0.04609277 0.02251835 -0.06468276
v -0.04541860 0.02181235 -0.06083979
v -0.04652849 0.01912000 -0.06060376
v -0.04689259 0.02265166 -0.07049882
v -0.04654336 0.02399661 -0.07302254
v -0.01203319 0.00880821 -0.06992041
v -0.01298602 0.00832460 -0.06394419
v -0.01304964 0.01462470 -0.06984959
v -0.01248867 0.01471664 -0.07339499
v -0.01165038 0.00845371 -0.07343317
v -0.01324857 0.01409495 -0.06609982
v -0.01362448 0.01724734 -0.06772213
v -0.01403013 0.00970657 -0.06130850
v -0.01368447 0.00615123 -0.06103833
v -0.01319010 0.00455994 -0.06468032
v -0.01243174 0.00427158 -0.06981237
v -0.01185568 0.00000912 -0.07370612
v -0.01460874 0.01406329 -0.06265007
v -0.01394632 0.01690108 -0.07222971
v -0.01042477 0.00717093 -0.07530660
v -0.01332828 0.00164454 -0.06972269
v -0.01349325 0.00188295 -0.06704276
v -0.01299752 0.01855948 -0.07437820
v -0.01029401 0.00097687 -0.07507683
v -0.01500379 -0.00039586 -0.06970392
v -0.01445627 -0.00097819 -0.07263795
v -0.01624443 0.00087967 -0.06454950
v -0.01174017 -0.00400925 -0.07380497
v -0.08145066 0.01259165 -0.05291551
v -0.08177579 0.02543532 -0.05551427
v -0.08201615 0.01517231 -0.05487844
v -0.08045730 0.02327246 -0.05199343
v -0.07987212 0.00538006 -0.04950941
v -0.08161607 0.00528610 -0.05378953
v -0.07775363 0.02337525 -0.04787733
v -0.07811217 0.00491548 -0.04704984
v -0.07483126 0.01786020 -0.04240917
v -0.07467550 0.02347363 -0.04234679
v -0.07661439 0.00342951 -0.04483230
v -0.07923578 0.02592932 -0.05088101
v -0.07555802 0.02596003 -0.04493660
v -0.07463054 0.02547051 -0.04252376
v -0.07470711 0.00463479 -0.04262957
v -0.07986286 0.00346608 -0.05027579
v -0.08210117 0.00636548 -0.05570167
v -0.08044334 0.02612581 -0.05425595
v -0.07711209 0.02661128 -0.04931920
v -0.08189882 0.01748713 -0.05688494
v -0.07757726 0.00317944 -0.04847611
v -0.08168324 0.02548780 -0.05651900
v -0.08053792 0.00342991 -0.05353972
v -0.08022495 0.00357546 -0.05708048
v -0.08081862 0.00579860 -0.05779435
v -0.02501026 0.02136479 -0.07004358
v -0.02934593 0.02200913 -0.06409484
v -0.02879517 0.02247641 -0.06968631
v -0.03298756 0.02324847 -0.06434805
v -0.02627781 0.02130245 -0.06397364
v -0.02028701 0.01928191 -0.06422477
v -0.02001072 0.01995145 -0.06982774
v -0.02697176 0.02120930 -0.06080550
v -0.01553164 0.01811555 -0.06984241
v -0.01598767 0.01769951 -0.06490549
v -0.01362448 0.01724734 -0.06772213
v -0.01983012 0.02068312 -0.07306968
v -0.03461985 0.02540801 -0.07016765
v -0.03623428 0.02437897 -0.06469271
v -0.03067655 0.02445064 -0.07319257
v -0.02264958 0.02109393 -0.07253595
v -0.02052293 0.01790144 -0.06067762
v -0.01756630 0.01727860 -0.06095093
v -0.01536635 0.01964336 -0.07371623
v -0.03308015 0.02171149 -0.06055735
v -0.03829440 0.02519321 -0.06749553
v -0.03621856 0.02557049 -0.06976540
v -0.02411018 0.02303454 -0.07355413
v -0.03602434 0.02722540 -0.07340427
v -0.03224200 0.02680599 -0.07429643
v -0.02535267 0.01921609 -0.06044771
v -0.03663009 0.02211910 -0.06045533
v -0.04127398 0.02425623 -0.06475658
v -0.04151779 0.02221445 -0.06050372
v -0.04038405 0.02529794 -0.07013424
v -0.01394632 0.01690108 -0.07222971
v -0.04170669 0.02637300 -0.07332473
v -0.04541860 0.02181235 -0.06083979
v -0.04377189 0.02501673 -0.07201620
v -0.04644572 0.02651004 -0.07497538
v -0.01299752 0.01855948 -0.07437820
v -0.04609277 0.02251835 -0.06468276
v -0.02964032 0.02744954 -0.07589916
v -0.03432065 0.02906863 -0.07541334
v -0.04076254 0.02870143 -0.07549074
v -0.01460874 0.01406329 -0.06265007
v -0.04689259 0.02265166 -0.07049882
v -0.04654336 0.02399661 -0.07302254
v -0.04800081 0.03105356 -0.06287084
v -0.04568305 0.03451648 -0.05550985
v -0.04716285 0.03414860 -0.06361105
v -0.04755510 0.03037374 -0.05563631
v -0.04449574 0.03738355 -0.05701525
v -0.04565404 0.03767311 -0.06555375
v -0.04534909 0.03311933 -0.05214140
v -0.04637832 0.03069985 -0.05076969
v -0.04773832 0.03700010 -0.06788937
v -0.05045529 0.03223112 -0.06769575
v -0.04978473 0.03493065 -0.06986186
v -0.04804702 0.03724606 -0.07005921
v -0.05118551 0.03377659 -0.07097975
v -0.04815381 0.03718145 -0.07393090
v -0.05086251 0.03394243 -0.07355853
v -0.05239252 0.03076886 -0.07422009
v -0.05250460 0.03203129 -0.06991661
v -0.04147109 0.03698067 -0.05457363
v -0.04325906 0.03157154 -0.04911609
v -0.04743677 0.03708357 -0.07609328
v -0.05470311 0.02949621 -0.07282679
v -0.05492712 0.03002785 -0.07023563
v -0.04529750 0.03811218 -0.06986624
v -0.04121097 0.03371220 -0.05110709
v -0.04498135 0.03793348 -0.07386603
v -0.04095259 0.03828359 -0.06280295
v -0.04052393 0.03845489 -0.06971810
v -0.04026093 0.03814534 -0.07380626
v -0.03757567 0.03729671 -0.05776025
v -0.03803346 0.03185999 -0.04897263
v -0.03570761 0.03804636 -0.06981573
v -0.03578200 0.03782738 -0.07374645
v -0.03636685 0.03753553 -0.06150674
v -0.03928826 0.03708209 -0.07687814
v -0.03419412 0.03689141 -0.07689606
v -0.03307994 0.03719353 -0.06689650
v -0.03255787 0.03720784 -0.07006212
v -0.03109220 0.03647553 -0.07610592
v -0.04925848 0.03362445 -0.07602735
v -0.03004390 0.02854022 -0.06368499
v -0.03153218 0.02827252 -0.06102459
v -0.02524469 0.02809079 -0.06107344
v -0.02522047 0.02793414 -0.05694517
v -0.01772400 0.02831252 -0.06191443
v -0.01914920 0.02804893 -0.05718432
v -0.01267957 0.02844528 -0.06093720
v -0.01542833 0.02883894 -0.06772073
v -0.01946126 0.02945307 -0.06993616
v -0.02165108 0.02805690 -0.05271813
v -0.00925369 0.02856995 -0.05149581
v -0.00600212 0.02877980 -0.05658851
v -0.00383159 0.02882805 -0.04823165
v -0.00143377 0.02866242 -0.05707977
v -0.00095382 0.02867387 -0.05023259
v -0.00707968 0.02886441 -0.04769373
v -0.00396233 0.02857868 -0.04386392
v -0.03292263 0.02846717 -0.05725360
v -0.00188569 0.02839111 -0.06043761
v -0.00781739 0.02830881 -0.06180324
v -0.01174592 0.02827206 -0.06614374
v -0.01294077 0.02897933 -0.04810711
v -0.03103244 0.02902507 -0.04929506
v -0.00427307 0.02802989 -0.06191069
v -0.01285565 0.02884399 -0.07246587
v -0.01985070 0.02950314 -0.07410269
v -0.01153683 0.02837523 -0.07033727
v -0.00781828 0.02770518 -0.06618065
v -0.00188552 0.02772845 -0.04226634
v -0.00898494 0.02952186 -0.04383494
v -0.01634722 0.03012213 -0.04322917
v -0.00865294 0.02925161 -0.04171129
v -0.02268216 0.03048721 -0.04395481
v -0.01703549 0.02987986 -0.04133957
v -0.02446243 0.03048902 -0.07396340
v -0.02479087 0.03007700 -0.07027052
v -0.03303716 0.02922421 -0.05122634
v -0.03342770 0.03002362 -0.04711360
v -0.00782711 0.02728862 -0.07025366
v -0.01858219 0.03086176 -0.04155076
v -0.03213341 0.03088868 -0.04419724
v -0.03710679 0.03131206 -0.04418802
v -0.03681654 0.03108231 -0.04743830
v -0.04170706 0.03118348 -0.04414230
v -0.04127384 0.03144853 -0.04743648
v -0.04189210 0.03162343 -0.04221878
v -0.04608312 0.03053459 -0.04711400
v -0.04628357 0.03039352 -0.04301038
v -0.03515352 0.03050897 -0.05140393
v -0.04981954 0.02962755 -0.04345896
v -0.05052471 0.02940240 -0.04110793
v -0.06017390 0.02912231 -0.04129408
v -0.05249125 0.02933240 -0.05512370
v -0.05745073 0.02933899 -0.05767116
v -0.06075725 0.02924250 -0.05658725
v -0.05599182 0.02948438 -0.06202496
v -0.06104140 0.02917876 -0.05120724
v -0.06734920 0.02880212 -0.04175301
v -0.06771197 0.02906387 -0.05620452
v -0.04927963 0.02957439 -0.05498376
v -0.06746338 0.02871563 -0.04813002
v -0.06913345 0.02877558 -0.05378667
v -0.05259246 0.02963918 -0.06191531
v -0.05520370 0.02984184 -0.06617442
v -0.04899248 0.03004788 -0.06119073
v -0.07327740 0.02796844 -0.04897899
v -0.06895185 0.02837260 -0.04357155
v -0.07342239 0.02828072 -0.05383094
v -0.03739465 0.03305601 -0.04076886
v -0.05829141 0.02870217 -0.05931270
v -0.02896577 0.03219307 -0.04119075
v -0.00399882 0.02643264 -0.06615195
v -0.03597346 0.03203905 -0.04246004
v -0.07724632 0.02644414 -0.05755809
v -0.07741626 0.02755632 -0.05394698
v -0.06925862 0.02748242 -0.05747513
v -0.07711209 0.02661128 -0.04931920
v -0.02116709 0.02925398 -0.07552633
v -0.00495053 0.02582597 -0.07019868
v -0.08168324 0.02548780 -0.05651900
v -0.05244866 0.03081752 -0.06619289
v -0.02506825 0.02913756 -0.06714304
v 0.00084401 0.02790428 -0.05167177
v -0.07303196 0.02720208 -0.04440481
v -0.00561936 0.02554982 -0.07273323
v -0.01155251 0.02720172 -0.07343614
v -0.02379371 0.02945910 -0.07576519
v -0.08044334 0.02612581 -0.05425595
v -0.07923578 0.02592932 -0.05088101
v 0.00048809 0.02759420 -0.04749443
v -0.02894538 0.03123352 -0.06999539
v -0.02750254 0.03192246 -0.07405141
v -0.07555802 0.02596003 -0.04493660
v -0.08177579 0.02543532 -0.05551427
v -0.03376522 0.03346001 -0.04057312
v -0.02844116 0.03095792 -0.07614727
v -0.00227866 0.02582397 -0.06468821
v -0.00161613 0.02679049 -0.06179560
v -0.07463054 0.02547051 -0.04252376
v -0.06913455 0.02714358 -0.04180180
v -0.06048042 0.02735427 -0.05873192
v 0.00134814 0.02495681 -0.04331460
v 0.00214997 0.02558762 -0.04768833
v -0.03274439 0.03342548 -0.06427412
v -0.03360063 0.03657144 -0.06389143
v -0.03411582 0.03429838 -0.06105484
v -0.03313120 0.02948945 -0.05975075
v -0.03082592 0.03137076 -0.06823395
v -0.03067420 0.03448385 -0.07058921
v -0.03392793 0.03013356 -0.05646670
v -0.03626041 0.03451218 -0.05621899
v -0.03727642 0.03283932 -0.05145633
v -0.03036438 0.03619455 -0.07343755
v -0.03644150 -0.02498892 -0.02933193
v -0.03815607 -0.02895282 -0.02344473
v -0.02755689 -0.02546396 -0.02769639
v -0.02768075 -0.02935296 -0.02136875
v -0.02815810 -0.03303645 -0.01555502
v -0.03147878 -0.03289985 -0.01607506
v -0.03908259 -0.03110038 -0.02028239
v -0.03968867 -0.02555628 -0.02907248
v -0.03571275 -0.03485736 -0.01428663
v -0.03133341 -0.02135974 -0.03354016
v -0.03929303 -0.02264893 -0.03270199
v -0.03644974 -0.02072760 -0.03497333
v -0.03411345 -0.01928402 -0.03662516
v -0.03409501 -0.03651974 -0.01174622
v -0.02931529 -0.03628192 -0.01137293
v -0.02770444 -0.02102087 -0.03393910
v -0.02605942 -0.01965504 -0.03662645
v -0.02541585 -0.02458445 -0.02919933
v -0.02538444 -0.02831356 -0.02345547
v -0.02619083 -0.03258738 -0.01662594
v -0.03671987 -0.01745869 -0.03853925
v -0.02519067 -0.02676384 -0.02651837
v -0.03233710 -0.01729510 -0.03836557
v -0.02800297 -0.01809518 -0.03836241
v -0.02716597 -0.03655205 -0.01182742
v -0.02968278 -0.01500655 -0.04033004
v -0.03608807 -0.01389773 -0.04072394
v -0.02632762 -0.03490949 -0.01455035
v -0.03123504 -0.03930541 -0.00965446
v -0.03868608 -0.03356315 -0.01748341
v -0.03826339 -0.03545111 -0.01480223
v -0.03939559 -0.02878508 -0.02493803
v -0.04045638 -0.01466164 -0.04031748
v -0.02507345 -0.03016372 -0.02189524
v -0.02547703 -0.02189597 -0.03422988
v -0.02982186 -0.04084713 -0.00888927
v -0.03477221 -0.03868665 -0.01072012
v -0.03655016 -0.03817863 -0.01292602
v -0.03854293 -0.02147418 -0.03611037
v -0.03696612 -0.01990794 -0.03765476
v -0.03465649 -0.04085934 -0.01001014
v -0.03840441 -0.01812039 -0.03918862
v -0.02985876 -0.04118901 -0.00912595
v -0.03183158 -0.02537256 -0.03344656
v -0.03199784 -0.03090358 -0.02580174
v -0.03623372 -0.02666551 -0.03099214
v -0.03849234 -0.02978756 -0.02630430
v -0.02786477 -0.02553151 -0.03330253
v -0.02785431 -0.02886612 -0.02871068
v -0.03845391 -0.02261156 -0.03566261
v -0.03254722 -0.03523589 -0.01905292
v -0.03610083 -0.03414677 -0.02013964
v -0.02827616 -0.03350708 -0.02204015
v -0.03540714 -0.03801493 -0.01541991
v -0.02805274 -0.03555102 -0.01864260
v -0.02836453 -0.03937292 -0.01382107
v -0.02581540 -0.03038758 -0.02631908
v -0.02583581 -0.03612000 -0.01759708
v -0.02950677 -0.02344573 -0.03566074
v -0.03462860 -0.03972597 -0.01346658
v -0.02708896 -0.04081997 -0.01112080
v -0.02564667 -0.02749220 -0.03000843
v -0.03830922 -0.03549862 -0.01756009
v -0.03915346 -0.02735519 -0.02904672
v -0.03925614 -0.02414038 -0.03293448
v -0.03918483 -0.03233569 -0.02109780
v -0.03199518 -0.02070590 -0.03785871
v -0.02580415 -0.02261189 -0.03589003
v -0.02533372 -0.03342887 -0.02071441
v -0.02878948 -0.01918075 -0.03878726
v -0.03696612 -0.01990794 -0.03765476
v -0.03840441 -0.01812039 -0.03918862
v -0.02544105 -0.02485034 -0.03285223
v -0.02985876 -0.04118901 -0.00912595
v -0.03465649 -0.04085934 -0.01001014
v -0.03382061 -0.01649565 -0.04002407
v -0.02645661 -0.03858558 -0.01339051
v -0.03655016 -0.03817863 -0.01292602
v -0.04045638 -0.01466164 -0.04031748
v -0.02968278 -0.01500655 -0.04033004
v -0.03608807 -0.01389773 -0.04072394
v -0.03854293 -0.02147418 -0.03611037
v -0.02800297 -0.01809518 -0.03836241
v -0.02476775 -0.02830485 -0.02658712
v -0.02507345 -0.03016372 -0.02189524
v -0.02533372 -0.03342887 -0.02071441
v -0.02521886 -0.03416661 -0.01766600
v -0.02583581 -0.03612000 -0.01759708
v -0.02645661 -0.03858558 -0.01339051
v -0.02581540 -0.03038758 -0.02631908
v -0.02564667 -0.02749220 -0.03000843
v -0.02544105 -0.02485034 -0.03285223
v -0.02547703 -0.02189597 -0.03422988
v -0.02580415 -0.02261189 -0.03589003
v -0.02605942 -0.01965504 -0.03662645
v -0.02541585 -0.02458445 -0.02919933
v -0.02519067 -0.02676384 -0.02651837
v -0.02632762 -0.03490949 -0.01455035
v -0.02716597 -0.03655205 -0.01182742
v -0.02708896 -0.04081997 -0.01112080
v -0.02538444 -0.02831356 -0.02345547
v -0.02619083 -0.03258738 -0.01662594
v -0.02800297 -0.01809518 -0.03836241
v -0.03830922 -0.03549862 -0.01756009
v -0.03868608 -0.03356315 -0.01748341
v -0.03918483 -0.03233569 -0.02109780
v -0.03826339 -0.03545111 -0.01480223
v -0.03908259 -0.03110038 -0.02028239
v -0.03939559 -0.02878508 -0.02493803
v -0.03655016 -0.03817863 -0.01292602
v -0.03925614 -0.02414038 -0.03293448
v -0.03968867 -0.02555628 -0.02907248
v -0.03929303 -0.02264893 -0.03270199
v -0.03845391 -0.02261156 -0.03566261
v -0.03854293 -0.02147418 -0.03611037
v -0.03915346 -0.02735519 -0.02904672
v -0.03939559 -0.02878508 -0.02493803
v -0.03849234 -0.02978756 -0.02630430
v -0.03918483 -0.03233569 -0.02109780
v -0.02708896 -0.04081997 -0.01112080
v -0.02982186 -0.04084713 -0.00888927
v -0.02985876 -0.04118901 -0.00912595
v -0.02716597 -0.03655205 -0.01182742
v -0.02985876 -0.04118901 -0.00912595
v -0.02982186 -0.04084713 -0.00888927
v -0.03123504 -0.03930541 -0.00965446
v -0.03180033 0.04542552 -0.02205949
v -0.03471017 0.04881922 -0.01613499
v -0.03542249 0.04468855 -0.02407151
v -0.03197497 0.04144935 -0.02980947
v -0.03668306 0.04376419 -0.02630262
v -0.03188052 0.04848439 -0.01598174
v -0.03685185 0.04203312 -0.03037369
v -0.03192410 0.04997465 -0.01383360
v -0.02790677 0.04510327 -0.02333187
v -0.02905727 0.04867882 -0.01608397
v -0.03902478 0.04406387 -0.02720183
v -0.02648691 0.04476611 -0.02480278
v -0.02769958 0.04193569 -0.03037489
v -0.02933708 0.03993377 -0.03238054
v -0.03566300 0.03982303 -0.03243959
v -0.03181687 0.03885287 -0.03496259
v -0.02998175 0.03819414 -0.03673214
v -0.03573832 0.03933412 -0.03378823
v -0.03856610 0.04816501 -0.02021902
v -0.03626322 0.05048173 -0.01488058
v -0.03472595 0.05212345 -0.01098678
v -0.03190103 0.05194629 -0.01118888
v -0.02856997 0.05076399 -0.01465283
v -0.02644527 0.04860850 -0.01818863
v -0.02985458 0.05269647 -0.01156821
v -0.02567717 0.04363320 -0.02854104
v -0.02554004 0.04668882 -0.02322414
v -0.03204887 0.05448099 -0.00967673
v -0.03777897 0.04590704 -0.02555246
v -0.03910948 0.04406894 -0.02831395
v -0.02650970 0.05444892 -0.01693758
v -0.02702823 0.05656013 -0.01511752
v -0.02659053 0.05160960 -0.01630703
v -0.02600341 0.05284634 -0.01999105
v -0.02554598 0.05036445 -0.02145743
v -0.02644527 0.04860850 -0.01818863
v -0.02554004 0.04668882 -0.02322414
v -0.02565834 0.04801707 -0.02461613
v -0.02586245 0.04522214 -0.02758465
v -0.02567717 0.04363320 -0.02854104
v -0.02803341 0.05455894 -0.01367646
v -0.02882066 0.05795069 -0.01331890
v -0.02996876 0.05986765 -0.01147204
v -0.02985458 0.05269647 -0.01156821
v -0.02856997 0.05076399 -0.01465283
v -0.03204887 0.05448099 -0.00967673
v -0.03170766 0.05852489 -0.01044490
v -0.03382815 0.05590189 -0.00840360
v -0.03382973 0.05715756 -0.00856650
v -0.03831092 0.05007774 -0.02134532
v -0.03831339 0.05061005 -0.01810175
v -0.03775941 0.05239685 -0.01953025
v -0.03799389 0.05354067 -0.01595673
v -0.03856610 0.04816501 -0.02021902
v -0.03839770 0.04822787 -0.02398683
v -0.03811239 0.05202229 -0.01531288
v -0.03731971 0.05492447 -0.01335332
v -0.03777897 0.04590704 -0.02555246
v -0.03587652 0.05502637 -0.01713580
v -0.03467108 0.05704783 -0.01557995
v -0.03578578 0.05755882 -0.01299073
v -0.03765595 0.05659045 -0.01168944
v -0.03548395 0.05761421 -0.01046266
v -0.03146876 0.05918322 -0.01277101
v -0.03170766 0.05852489 -0.01044490
v -0.02996876 0.05986765 -0.01147204
v -0.03382973 0.05715756 -0.00856650
v -0.03586485 0.04849183 -0.02486770
v -0.03563606 0.05146135 -0.02155135
v -0.03160211 0.05121739 -0.02272035
v -0.03188928 0.05658874 -0.01656826
v -0.03446181 0.04712160 -0.02701093
v -0.03211334 0.04632530 -0.02798159
v -0.03631715 0.04487425 -0.02910889
v -0.03519665 0.04306903 -0.03202430
v -0.03198730 0.04309748 -0.03208070
v -0.03176040 0.04001651 -0.03498384
v -0.02840936 0.05628532 -0.01638104
v -0.02697010 0.05162941 -0.02218444
v -0.02828326 0.04800585 -0.02558099
v -0.02841189 0.04350984 -0.03075142
v -0.02891191 0.04027371 -0.03399053
v -0.02998175 0.03819414 -0.03673214
v -0.03598931 0.04100914 -0.03326642
v -0.02600341 0.05284634 -0.01999105
v -0.02586245 0.04522214 -0.02758465
v -0.02565834 0.04801707 -0.02461613
v -0.02882066 0.05795069 -0.01331890
v -0.02702823 0.05656013 -0.01511752
v -0.03910948 0.04406894 -0.02831395
v -0.03685185 0.04203312 -0.03037369
v -0.02650970 0.05444892 -0.01693758
v -0.03573832 0.03933412 -0.03378823
v -0.02554598 0.05036445 -0.02145743
v -0.03181687 0.03885287 -0.03496259
v -0.03573076 0.05479291 -0.01028773
v -0.03382815 0.05590189 -0.00840360
v -0.03548395 0.05761421 -0.01046266
v -0.03382973 0.05715756 -0.00856650
v -0.03765595 0.05659045 -0.01168944
v -0.03731971 0.05492447 -0.01335332
v -0.03472595 0.05212345 -0.01098678
v -0.03626322 0.05048173 -0.01488058
v -0.03811239 0.05202229 -0.01531288
v -0.03831339 0.05061005 -0.01810175
v -0.03856610 0.04816501 -0.02021902
v -0.03204887 0.05448099 -0.00967673
v -0.02841189 0.04350984 -0.03075142
v -0.02769958 0.04193569 -0.03037489
v -0.02891191 0.04027371 -0.03399053
v -0.02586245 0.04522214 -0.02758465
v -0.02567717 0.04363320 -0.02854104
v -0.02998175 0.03819414 -0.03673214
v -0.03573832 0.03933412 -0.03378823
v -0.03685185 0.04203312 -0.03037369
v -0.03598931 0.04100914 -0.03326642
v -0.03910948 0.04406894 -0.02831395
v -0.03902478 0.04406387 -0.02720183
v -0.03777897 0.04590704 -0.02555246
vt 0.32986474 0.39698550
vt 0.39671302 0.48661131
vt 0.38915446 0.35171211
vt 0.34833416 0.51280212
vt 0.49263033 0.48398966
vt 0.48784515 0.34744766
vt 0.52246612 0.45656630
vt 0.52710992 0.33678469
vt 0.40421593 0.32857719
vt 0.46946535 0.49884161
vt 0.36695698 0.30103624
vt 0.35563555 0.25556454
vt 0.23889275 0.28723264
vt 0.20580113 0.34480801
vt 0.23000878 0.48563144
vt 0.28215674 0.51343709
vt 0.12747400 0.42909268
vt 0.13259663 0.48542958
vt 0.29473877 0.25206333
vt 0.12473276 0.35507521
vt 0.19657901 0.31562060
vt 0.20570974 0.50564712
vt 0.41047710 0.50103503
vt 0.33039835 0.52405381
vt 0.31939945 0.24107143
vt 0.10095035 0.39466795
vt 0.10176948 0.43717462
vt 0.42876169 0.33192918
vt 0.25193384 0.25532103
vt 0.21612395 0.26390040
vt 0.20856398 0.27956599
vt 0.26162270 0.24435346
vt 0.30822641 0.52678573
vt 0.54845697 0.42183340
vt 0.54418916 0.33795261
vt 0.13267455 0.33779329
vt 0.52431291 0.48635450
vt 0.51345283 0.49659979
vt 0.36617464 0.24654055
vt 0.37837258 0.28273451
vt 0.39272827 0.30656710
vt 0.55825603 0.46365038
vt 0.55819732 0.47594106
vt 0.10008777 0.34784558
vt 0.18454871 0.30804566
vt 0.19930674 0.28814521
vt 0.15433757 0.50250518
vt 0.10541756 0.48274893
vt 0.27867484 0.51926422
vt 0.11367187 0.33108559
vt 0.11243158 0.49372447
vt 0.08767725 0.45291668
vt 0.55917162 0.42929769
vt 0.08579881 0.39775568
vt 0.09077392 0.35342500
vt 0.21513718 0.51180637
vt 0.55819732 0.34843877
vt 0.15348412 0.32447973
vt 0.17265277 0.28900936
vt 0.09057548 0.47764879
vt 0.18945593 0.65841860
vt 0.24961311 0.60918272
vt 0.25187007 0.68366563
vt 0.14851426 0.63311917
vt 0.21101971 0.59651822
vt 0.24235819 0.59921688
vt 0.25307816 0.64600992
vt 0.14993075 0.67096663
vt 0.15244104 0.59446955
vt 0.17443329 0.69397420
vt 0.25252473 0.70977670
vt 0.16279523 0.70993757
vt 0.13893425 0.68517655
vt 0.13647954 0.65765256
vt 0.13554487 0.62900478
vt 0.13837074 0.60389167
vt 0.13436283 0.71316689
vt 0.27749610 0.68908179
vt 0.27682897 0.71520668
vt 0.21920903 0.71979403
vt 0.15513912 0.71913129
vt 0.28028381 0.66043490
vt 0.12630112 0.72344124
vt 0.26478618 0.72378355
vt 0.27440828 0.61039490
vt 0.26987919 0.58108670
vt 0.28413248 0.72916669
vt 0.29289940 0.66964608
vt 0.11785261 0.68803489
vt 0.11384628 0.71106511
vt 0.21984060 0.58764696
vt 0.14599180 0.58193630
vt 0.13037153 0.58304375
vt 0.10946745 0.72916669
vt 0.21960531 0.57440478
vt 0.79932147 0.86127961
vt 0.80440104 0.82709259
vt 0.71521080 0.86732256
vt 0.69654042 0.82559347
vt 0.67907560 0.85996747
vt 0.80180287 0.88773775
vt 0.71530294 0.91070229
vt 0.83193970 0.91419584
vt 0.67902905 0.90787268
vt 0.65256435 0.88160461
vt 0.63609469 0.87272316
vt 0.65768063 0.82339448
vt 0.71105862 0.79331809
vt 0.80609411 0.79927653
vt 0.83774734 0.83741760
vt 0.83678901 0.88890523
vt 0.68089581 0.80066365
vt 0.66246998 0.80396068
vt 0.76537222 0.93154764
vt 0.84256333 0.79733795
vt 0.75926399 0.77877778
vt 0.78139120 0.77678573
vt 0.70855707 0.92799938
vt 0.68818456 0.92535508
vt 0.72132146 0.78083104
vt 0.81183261 0.77697957
vt 0.83619845 0.78009135
vt 0.83550394 0.93143684
vt 0.85475761 0.91553319
vt 0.85476667 0.83819932
vt 0.85502958 0.80434418
vt 0.85476667 0.93122846
vt 0.66355801 0.89639139
vt 0.63868403 0.85050130
vt 0.66632128 0.91840732
vt 0.63967788 0.82188034
vt 0.64298016 0.91450828
vt 0.51116675 0.68521923
vt 0.49088612 0.66674894
vt 0.51006508 0.65793276
vt 0.53791863 0.65815735
vt 0.54106373 0.68353534
vt 0.47679716 0.60845196
vt 0.50731319 0.63144237
vt 0.55000550 0.63313341
vt 0.63235521 0.68525213
vt 0.64288926 0.66122347
vt 0.68166173 0.66223878
vt 0.64651293 0.63546705
vt 0.61158299 0.64912140
vt 0.67076212 0.68845856
vt 0.53848928 0.64624023
vt 0.54413378 0.71493387
vt 0.60968399 0.71505326
vt 0.66007257 0.71504039
vt 0.70983821 0.69210064
vt 0.69602090 0.71780443
vt 0.62696940 0.74717414
vt 0.56676751 0.74384290
vt 0.51213676 0.71666658
vt 0.68932372 0.74469155
vt 0.52840579 0.74293435
vt 0.57795298 0.76712346
vt 0.62922436 0.76803207
vt 0.67001373 0.76838213
vt 0.48674291 0.68583733
vt 0.60650086 0.62160790
vt 0.56153381 0.61677992
vt 0.64806896 0.61021650
vt 0.53531379 0.60575187
vt 0.50731176 0.60575593
vt 0.53746659 0.76837939
vt 0.70816851 0.67662340
vt 0.71137595 0.73326391
vt 0.48378053 0.71984339
vt 0.45625296 0.65831637
vt 0.48562804 0.74581063
vt 0.46656835 0.59940171
vt 0.45801693 0.68768328
vt 0.44239375 0.63913447
vt 0.49777058 0.76362276
vt 0.50989228 0.58531940
vt 0.70476854 0.76043117
vt 0.59430856 0.58015311
vt 0.56458104 0.57632816
vt 0.53531975 0.57525891
vt 0.50168723 0.56470078
vt 0.53736758 0.56070149
vt 0.62290889 0.58131409
vt 0.52830327 0.78201258
vt 0.65867275 0.58668274
vt 0.48372170 0.58226180
vt 0.43981493 0.68160784
vt 0.68430740 0.78088349
vt 0.66879225 0.60247791
vt 0.67757350 0.63244230
vt 0.44060323 0.71877271
vt 0.69971281 0.66175407
vt 0.61730170 0.78273809
vt 0.44252321 0.75375402
vt 0.55063063 0.55870754
vt 0.60732555 0.55654764
vt 0.50555003 0.77612251
vt 0.64483637 0.57486683
vt 0.65913594 0.57249314
vt 0.46018755 0.76790291
vt 0.65319896 0.55776709
vt 0.41478473 0.60526955
vt 0.41796744 0.58497441
vt 0.37850514 0.57146150
vt 0.39274341 0.59081078
vt 0.39348447 0.60963434
vt 0.40912926 0.63793832
vt 0.41866055 0.56509942
vt 0.45427275 0.58668035
vt 0.37078235 0.60779846
vt 0.36513475 0.58220065
vt 0.37464151 0.63074219
vt 0.39647660 0.64545339
vt 0.41409642 0.65982085
vt 0.47329223 0.56783378
vt 0.48510960 0.56544429
vt 0.34615386 0.57319939
vt 0.35673538 0.57010818
vt 0.46533808 0.78088349
vt 0.71301776 0.64388478
vt 0.69144273 0.62062198
vt 0.74785948 0.62410188
vt 0.77335036 0.63180685
vt 0.75244808 0.60607290
vt 0.77388233 0.60638034
vt 0.80297023 0.60534906
vt 0.77153188 0.57549948
vt 0.74982762 0.58302891
vt 0.82996941 0.60478181
vt 0.80271930 0.62932336
vt 0.83332497 0.53216052
vt 0.77185440 0.52033836
vt 0.82525265 0.51157331
vt 0.84319526 0.55500966
vt 0.84278393 0.53793561
vt 0.80320287 0.50482094
vt 0.77214116 0.50264639
vt 0.82916945 0.63006717
vt 0.79280043 0.49001613
vt 0.79937726 0.65517056
vt 0.74524140 0.53176153
vt 0.77292645 0.48511904
vt 0.82662052 0.67178100
vt 0.75114971 0.48626459
vt 0.80370617 0.67107773
vt 0.78085482 0.64824474
vt 0.84169430 0.65447044
vt 0.84205264 0.67867398
vt 0.78701133 0.66436297
vt 0.75434119 0.64343852
vt 0.73494208 0.49965772
vt 0.73287046 0.52438515
vt 0.83290315 0.70110297
vt 0.73076922 0.55299675
vt 0.79121536 0.70307469
vt 0.81355023 0.71006948
vt 0.84205276 0.52062374
vt 0.77340859 0.69935548
vt 0.77133340 0.68525493
vt 0.76714635 0.66153616
vt 0.82692355 0.72796178
vt 0.78898108 0.72540766
vt 0.81571227 0.72784185
vt 0.74801463 0.67902231
vt 0.79806101 0.74296254
vt 0.81782001 0.76488096
vt 0.81046271 0.75031507
vt 0.86772346 0.33968043
vt 0.81084132 0.33599114
vt 0.81015468 0.36287057
vt 0.86514860 0.36659023
vt 0.81034780 0.30734983
vt 0.87099677 0.28938931
vt 0.86735463 0.25684303
vt 0.81117332 0.23109004
vt 0.88305116 0.28372383
vt 0.88218123 0.36229324
vt 0.84565467 0.22802925
vt 0.87357193 0.22907695
vt 0.88461536 0.22437598
vt 0.78402364 0.30045164
vt 0.78463393 0.23054148
vt 0.78516591 0.35726741
vt 0.86658537 0.39153773
vt 0.83840662 0.40717629
vt 0.80803812 0.38926005
vt 0.82066488 0.40656582
vt 0.78584760 0.37795353
vt 0.86493397 0.41911283
vt 0.81200123 0.20949958
vt 0.78756946 0.21178506
vt 0.88175648 0.39050382
vt 0.86818755 0.20664240
vt 0.79136217 0.40055820
vt 0.88249159 0.20535715
vt 0.80322200 0.42107004
vt 0.88249159 0.42525050
vt 0.87573117 0.44345239
vt 0.83547872 0.42790759
vt 0.81610823 0.44045258
vt 0.85327816 0.43200850
vt 0.63327450 0.14603527
vt 0.70027131 0.11853784
vt 0.63416725 0.11858979
vt 0.70362538 0.14169143
vt 0.59555078 0.12071935
vt 0.58086497 0.13777511
vt 0.69397980 0.08806290
vt 0.63117188 0.08971558
vt 0.59377533 0.09415796
vt 0.66374540 0.06109880
vt 0.61843038 0.06528910
vt 0.73380387 0.05717960
vt 0.73805624 0.08827884
vt 0.75706738 0.11720847
vt 0.75429618 0.14175932
vt 0.59305227 0.06527718
vt 0.76420695 0.08877591
vt 0.76376557 0.05787745
vt 0.78774267 0.11853673
vt 0.78634471 0.14209087
vt 0.57696205 0.12193088
vt 0.57692307 0.09706958
vt 0.63217473 0.15520467
vt 0.80540812 0.09311439
vt 0.77640224 0.15547900
vt 0.74509233 0.04122105
vt 0.71584404 0.04475979
vt 0.65138209 0.04875493
vt 0.81121576 0.12271055
vt 0.80358624 0.13431099
vt 0.70038664 0.15647237
vt 0.60378903 0.15575837
vt 0.76128483 0.03365709
vt 0.79223049 0.05978616
vt 0.79528773 0.15179917
vt 0.83431327 0.06756158
vt 0.83185834 0.10843519
vt 0.60532629 0.05157518
vt 0.58498806 0.05098690
vt 0.57796121 0.07144850
vt 0.83288991 0.05211588
vt 0.79938817 0.03531977
vt 0.78046989 0.02580776
vt 0.83288991 0.13626570
vt 0.81618083 0.14454845
vt 0.81884295 0.02157978
vt 0.79542553 0.00892857
vt 0.84319526 0.16369048
vt 0.10003337 0.76674169
vt 0.11120978 0.78080207
vt 0.09227088 0.77943581
vt 0.08366294 0.75836998
vt 0.06138678 0.78255928
vt 0.11074770 0.79426396
vt 0.06221026 0.76457685
vt 0.07487586 0.74657071
vt 0.03026486 0.74180138
vt 0.03843867 0.75978553
vt 0.05982910 0.73666817
vt 0.04980872 0.70619911
vt 0.03112718 0.68210477
vt 0.02220415 0.72748023
vt 0.01775696 0.69122493
vt 0.02936832 0.63454473
vt 0.04372116 0.66625017
vt 0.03806621 0.63125485
vt 0.01479290 0.64889181
vt 0.10945509 0.75582576
vt 0.13778703 0.77305293
vt 0.12116264 0.78991473
vt 0.13691500 0.79054517
vt 0.17230509 0.77732986
vt 0.16556831 0.79898816
vt 0.18862349 0.79660088
vt 0.20206974 0.83227640
vt 0.22220634 0.80195570
vt 0.27562663 0.79243624
vt 0.25341490 0.82155406
vt 0.23404048 0.83630955
vt 0.28547072 0.83587331
vt 0.29675493 0.81425023
vt 0.30781436 0.78856760
vt 0.28689465 0.77763069
vt 0.29793963 0.76295781
vt 0.32016122 0.75707883
vt 0.30910742 0.74737865
vt 0.31038943 0.72002357
vt 0.32463601 0.64034045
vt 0.34023669 0.66965711
vt 0.33556014 0.73821723
vt 0.31176242 0.60648984
vt 0.30894276 0.57777619
vt 0.31684157 0.56275135
vt 0.33895504 0.59289253
vt 0.29254955 0.56625831
vt 0.23133367 0.56567085
vt 0.21814083 0.55094230
vt 0.23245884 0.53273809
vt 0.12770826 0.54570866
vt 0.14039060 0.53389704
vt 0.15057935 0.56071103
vt 0.12117524 0.56144035
vt 0.08139578 0.55797338
vt 0.30121917 0.54112548
vt 0.08472762 0.56133211
vt 0.24278583 0.78283435
vt 0.20225854 0.78514189
vt 0.32613245 0.76503181
vt 0.18163441 0.83324993
vt 0.08269595 0.73314166
vt 0.13684359 0.74897975
vt 0.20183468 0.83587331
vt 0.11662716 0.53649855
vt 0.27822852 0.76796830
vt 0.06776854 0.72909147
vt 0.06538733 0.70666188
vt 0.06546008 0.56932747
vt 0.02574599 0.77665430
vt 0.33617800 0.57426864
vt 0.02031599 0.76668549
vt 0.11018339 0.73619831
vt 0.12762196 0.73615873
vt 0.06838576 0.79415894
vt 0.01976159 0.62712890
vt 0.27518570 0.74834692
vt 0.29546982 0.74283910
vt 0.32067728 0.79818398
vt 0.33825344 0.79176933
vt 0.25609958 0.75296891
vt 0.33238757 0.55273533
vt 0.04363715 0.61926460
vt 0.67126429 0.29686108
vt 0.71582681 0.31541556
vt 0.68411344 0.31476265
vt 0.65523404 0.32869944
vt 0.62411749 0.29290929
vt 0.61262465 0.32649577
vt 0.64926654 0.28037724
vt 0.62704188 0.25973779
vt 0.67572087 0.24538267
vt 0.62287837 0.21123421
vt 0.67616355 0.22269428
vt 0.60807705 0.23146278
vt 0.74217927 0.26677936
vt 0.74262017 0.31300476
vt 0.74200785 0.34158111
vt 0.71892798 0.24386132
vt 0.66884255 0.20983112
vt 0.63129514 0.35893968
vt 0.58675748 0.26052657
vt 0.61071378 0.30206195
vt 0.59030026 0.24665439
vt 0.74631131 0.22734077
vt 0.70789421 0.21149442
vt 0.76443285 0.29858389
vt 0.75861210 0.28039366
vt 0.76133448 0.34155512
vt 0.71511805 0.33575663
vt 0.68389904 0.33522192
vt 0.71396053 0.36405215
vt 0.68410075 0.36342654
vt 0.68524253 0.38692743
vt 0.75465643 0.36388737
vt 0.64909279 0.36286595
vt 0.65928078 0.38566944
vt 0.71344388 0.38756195
vt 0.63368577 0.38649422
vt 0.66204172 0.40594682
vt 0.62906098 0.41553560
vt 0.60844707 0.35551399
vt 0.70298153 0.40652883
vt 0.75587451 0.38828519
vt 0.75977880 0.24222210
vt 0.75802124 0.22624345
vt 0.76412714 0.26744241
vt 0.59934837 0.21561986
vt 0.57777524 0.21904294
vt 0.55915308 0.22742280
vt 0.57599801 0.29365215
vt 0.60856414 0.37885195
vt 0.58906305 0.33776268
vt 0.67366087 0.41964287
vt 0.72844219 0.41964012
vt 0.77499688 0.30618876
vt 0.77112061 0.36290345
vt 0.55330145 0.26203737
vt 0.75263965 0.41553560
vt 0.54822725 0.29879740
vt 0.57233006 0.32225427
vt 0.77810651 0.32694921
vt 0.56241125 0.20593432
vt 0.54750836 0.20796508
vt 0.54733729 0.19401196
vt 0.58387190 0.19345239
vt 0.41563556 0.95860112
vt 0.41404989 0.92064202
vt 0.49807721 0.95089912
vt 0.49882922 0.92153376
vt 0.41092339 0.97936618
vt 0.42189875 0.89411837
vt 0.38929880 0.89622289
vt 0.49667576 0.89438719
vt 0.49773619 0.98157257
vt 0.49577141 0.99569201
vt 0.37886795 0.95741618
vt 0.36724514 0.96718144
vt 0.38185427 0.98118007
vt 0.51443207 0.92175484
vt 0.51168889 0.89623934
vt 0.51818132 0.98052615
vt 0.52366865 0.99473101
vt 0.38595474 0.99473101
vt 0.37291366 0.91955674
vt 0.36081034 0.98289245
vt 0.36065900 0.99702382
vt 0.35641029 0.91723353
vt 0.35907444 0.89188230
vt 0.37673119 0.88988096
vt 0.35588905 0.95482510
vt 0.34615386 0.96925437
vt 0.50065464 0.06160397
vt 0.49968648 0.02276466
vt 0.53701621 0.06193482
vt 0.53635538 0.08493473
vt 0.49751398 0.08425233
vt 0.53436792 0.03781391
vt 0.55355698 0.04835064
vt 0.50930345 0.00538898
vt 0.48756245 0.00297619
vt 0.47641984 0.02571397
vt 0.47249156 0.05903691
vt 0.44538289 0.08358032
vt 0.53605181 0.01428153
vt 0.55212522 0.07709319
vt 0.48892897 0.09821428
vt 0.45523694 0.05611961
vt 0.45889056 0.03924768
vt 0.55917162 0.09381737
vt 0.45101497 0.09699436
vt 0.43961340 0.05153345
vt 0.43354440 0.06938411
vt 0.44836214 0.01746508
vt 0.42307693 0.09381737
vt 0.92110991 0.30551586
vt 0.90538144 0.22681922
vt 0.90865684 0.28989920
vt 0.92834502 0.23991510
vt 0.94362700 0.34969103
vt 0.91581547 0.34972176
vt 0.95836627 0.23878305
vt 0.96207529 0.35285768
vt 0.99625182 0.27277544
vt 0.99704140 0.23825772
vt 0.97866595 0.36165187
vt 0.93769962 0.22331555
vt 0.98075074 0.22277763
vt 0.99633527 0.22602068
vt 0.99633539 0.35410851
vt 0.93917447 0.36166295
vt 0.90462524 0.34302545
vt 0.91603172 0.22139227
vt 0.95289350 0.21726191
vt 0.89636540 0.27582839
vt 0.95640254 0.36607143
vt 0.89921814 0.22640021
vt 0.91807920 0.36278719
vt 0.89531505 0.36288276
vt 0.89053255 0.34817129
vt 0.91284060 0.64068407
vt 0.87627858 0.61169970
vt 0.91183126 0.61649144
vt 0.87994015 0.58823460
vt 0.87424815 0.63124883
vt 0.87380862 0.67030507
vt 0.90977144 0.67267233
vt 0.85448503 0.62555903
vt 0.90786183 0.70272183
vt 0.87610227 0.69865352
vt 0.89299637 0.71413529
vt 0.93087125 0.67337608
vt 0.91929340 0.57681829
vt 0.88365579 0.56773216
vt 0.93568790 0.60331523
vt 0.92790586 0.65592432
vt 0.84971899 0.67054176
vt 0.85098511 0.68893063
vt 0.93449682 0.70138615
vt 0.85425651 0.58851767
vt 0.90130603 0.55451047
vt 0.91679806 0.56653625
vt 0.93790853 0.64338261
vt 0.94300020 0.56607360
vt 0.94847155 0.58996338
vt 0.84911245 0.64007676
vt 0.85375130 0.56702429
vt 0.88195485 0.53778702
vt 0.85265231 0.53766310
vt 0.91672450 0.54040998
vt 0.92082322 0.71726191
vt 0.93751460 0.53073335
vt 0.85240799 0.51390314
vt 0.92555588 0.51834691
vt 0.94519746 0.50121713
vt 0.93877333 0.71708941
vt 0.87630212 0.50752079
vt 0.96124935 0.60464233
vt 0.96153843 0.57470560
vt 0.95766050 0.53599441
vt 0.85511082 0.71708941
vt 0.91134030 0.49702382
vt 0.92912978 0.49982756
vt 0.34157512 0.09147538
vt 0.31036699 0.12679452
vt 0.32558039 0.08291891
vt 0.33554956 0.13316658
vt 0.29808486 0.11373923
vt 0.30666107 0.06825888
vt 0.30946392 0.14859594
vt 0.32215267 0.16321015
vt 0.31863695 0.05453344
vt 0.34955525 0.06059296
vt 0.33599180 0.04441675
vt 0.31956571 0.04233254
vt 0.34694177 0.03806689
vt 0.32012028 0.02019103
vt 0.34467915 0.02230459
vt 0.36576548 0.01700563
vt 0.36033192 0.04494758
vt 0.28392476 0.12666424
vt 0.29851893 0.17281455
vt 0.31656018 0.00700396
vt 0.38152242 0.02676731
vt 0.38003841 0.04336575
vt 0.30369934 0.04368104
vt 0.28324038 0.15403886
vt 0.30175582 0.02081084
vt 0.28078899 0.08279997
vt 0.27738231 0.04509237
vt 0.27495593 0.02190646
vt 0.26397431 0.11015146
vt 0.26171246 0.17305173
vt 0.25100496 0.04598441
vt 0.24954319 0.02357794
vt 0.25679794 0.09093267
vt 0.26847818 0.00297619
vt 0.23832576 0.00529235
vt 0.23785597 0.06316108
vt 0.23288214 0.04644355
vt 0.22020514 0.01215963
vt 0.34025767 0.00463421
vt 0.19653876 0.09623577
vt 0.20461041 0.11025009
vt 0.17017825 0.11233497
vt 0.17188692 0.13628165
vt 0.12612660 0.10927393
vt 0.13645378 0.13750763
vt 0.09582706 0.11700410
vt 0.11101096 0.07417203
vt 0.13515759 0.05971026
vt 0.15361327 0.16322681
vt 0.07935373 0.17732026
vt 0.05693299 0.14696419
vt 0.04730489 0.20054433
vt 0.02862740 0.14593752
vt 0.02857938 0.18910380
vt 0.06771971 0.20250085
vt 0.04999837 0.22828218
vt 0.21463472 0.12927841
vt 0.02997163 0.12484033
vt 0.06576253 0.11324795
vt 0.08863855 0.08485562
vt 0.10369382 0.19701762
vt 0.21176888 0.17710406
vt 0.04370830 0.11399170
vt 0.09491675 0.04553346
vt 0.13640657 0.03420902
vt 0.08657266 0.05869908
vt 0.06438114 0.08552106
vt 0.03689086 0.23989283
vt 0.08172402 0.22602220
vt 0.12745698 0.22605506
vt 0.08051528 0.23964001
vt 0.16547531 0.21748149
vt 0.13203350 0.23782165
vt 0.16454442 0.03284649
vt 0.16724496 0.05572401
vt 0.22261232 0.16335703
vt 0.22927716 0.18950567
vt 0.06316406 0.06019973
vt 0.14252160 0.23527302
vt 0.22299579 0.20999849
vt 0.25541556 0.20815238
vt 0.25284794 0.18539520
vt 0.28707096 0.20858647
vt 0.28437018 0.18490168
vt 0.28775862 0.22258389
vt 0.31853482 0.18883099
vt 0.31848329 0.21762007
vt 0.23806104 0.16006503
vt 0.34274712 0.21581575
vt 0.34657422 0.23170611
vt 0.41006315 0.23605390
vt 0.36669245 0.13927910
vt 0.39957964 0.12400972
vt 0.42159563 0.13206916
vt 0.38994911 0.09557050
vt 0.42117661 0.16897565
vt 0.45833007 0.23735754
vt 0.46830532 0.13769107
vt 0.34636998 0.13854221
vt 0.46320429 0.19372468
vt 0.47767395 0.15501143
vt 0.36875555 0.09689002
vt 0.38302734 0.06912029
vt 0.34783766 0.10158959
vt 0.50387824 0.19140491
vt 0.47093764 0.22642024
vt 0.50767410 0.15744093
vt 0.25731263 0.23338564
vt 0.40563974 0.11281768
vt 0.20578805 0.23250826
vt 0.03995519 0.08596165
vt 0.24831364 0.22092165
vt 0.53879446 0.13237581
vt 0.53565133 0.15917894
vt 0.48262620 0.12761645
vt 0.53208357 0.19233829
vt 0.14304255 0.02504070
vt 0.04380108 0.06049528
vt 0.57034683 0.14325191
vt 0.36471486 0.06956452
vt 0.16870388 0.07544600
vt 0.01565022 0.18100248
vt 0.50036126 0.22357759
vt 0.04662008 0.04466179
vt 0.08329330 0.03853372
vt 0.15753929 0.02206114
vt 0.55923623 0.15935850
vt 0.54918772 0.18330584
vt 0.01947315 0.20771413
vt 0.19330119 0.05644924
vt 0.18580371 0.02965681
vt 0.51988435 0.22287884
vt 0.57100594 0.15069784
vt 0.23582682 0.23689178
vt 0.18420322 0.01417205
vt 0.02842641 0.09397799
vt 0.02578672 0.11278859
vt 0.51317692 0.23989283
vt 0.47395226 0.24107143
vt 0.42244315 0.11248577
vt 0.00919288 0.23816407
vt 0.00295858 0.20955808
vt 0.22434752 0.08397863
vt 0.24084675 0.07938474
vt 0.23722160 0.09874441
vt 0.21584959 0.11511558
vt 0.20364730 0.06745030
vt 0.21375221 0.04772949
vt 0.22553912 0.13137242
vt 0.25197911 0.12411752
vt 0.25738195 0.15427037
vt 0.21756673 0.02835772
vt 0.17549773 0.91554159
vt 0.13223432 0.92881638
vt 0.16284393 0.85896695
vt 0.11699578 0.86189508
vt 0.07462789 0.86716861
vt 0.07880206 0.88826334
vt 0.10887681 0.93593997
vt 0.17321196 0.93659002
vt 0.06409960 0.91650927
vt 0.20811304 0.88090307
vt 0.20156629 0.93240440
vt 0.21958666 0.91365784
vt 0.23232694 0.89733195
vt 0.04547523 0.90658778
vt 0.04293687 0.87661141
vt 0.20994703 0.85742176
vt 0.22761978 0.84573334
vt 0.17291993 0.84478223
vt 0.13081832 0.84654927
vt 0.08103765 0.85411245
vt 0.25014165 0.91300184
vt 0.15176998 0.84404510
vt 0.24796399 0.88464725
vt 0.24252337 0.85709834
vt 0.04260000 0.86257505
vt 0.26517642 0.86638939
vt 0.27514791 0.90600443
vt 0.06172853 0.85509372
vt 0.02271634 0.89062744
vt 0.08572119 0.93537003
vt 0.06538271 0.93371040
vt 0.14090443 0.93750000
vt 0.27323505 0.93371040
vt 0.11611886 0.84401876
vt 0.20768496 0.84226191
vt 0.01147684 0.88210070
vt 0.03190559 0.91257930
vt 0.04330249 0.92659098
vt 0.22311343 0.92914391
vt 0.23587812 0.91987038
vt 0.01805953 0.91486061
vt 0.25034833 0.92504722
vt 0.00887574 0.88427198
vt 0.43233711 0.83091748
vt 0.49034899 0.83459991
vt 0.44796526 0.86037093
vt 0.48209375 0.87668771
vt 0.43459940 0.80532628
vt 0.46954873 0.80669641
vt 0.40920329 0.87310302
vt 0.53971690 0.84056246
vt 0.52943671 0.86339426
vt 0.51960820 0.81174207
vt 0.56725794 0.86018610
vt 0.54414511 0.81150788
vt 0.58186722 0.81525922
vt 0.48758906 0.79422790
vt 0.55203950 0.79743940
vt 0.41494051 0.81517655
vt 0.58289403 0.85526949
vt 0.60104525 0.80816615
vt 0.45863122 0.79162216
vt 0.54669905 0.87875712
vt 0.45932171 0.88031912
vt 0.42811868 0.87985182
vt 0.51742935 0.88392860
vt 0.39286876 0.83045912
vt 0.41102546 0.79084843
vt 0.52699387 0.79225856
vt 0.38268885 0.80924505
vt 0.38862163 0.86287117
vt 0.37351984 0.87138259
vt 0.43459415 0.78869045
vt 0.61242604 0.82681412
vt 0.60477406 0.85742313
vt 0.36329892 0.84112042
vt 0.58203757 0.80165052
vt 0.58079189 0.87112570
vt 0.35054496 0.88392860
vt 0.35500926 0.81375039
vt 0.34615386 0.85524559
vt 0.40165502 0.87398267
vt 0.37761971 0.80184174
vt 0.58928019 0.53606939
vt 0.62004608 0.52876556
vt 0.63716549 0.54491299
vt 0.65533608 0.53683007
vt 0.66280949 0.54927570
vt 0.69321102 0.54617923
vt 0.59769171 0.55059522
vt 0.56857258 0.54681164
vt 0.54486173 0.54101324
vt 0.52754825 0.52811420
vt 0.52130377 0.53983617
vt 0.50701392 0.52442867
vt 0.56277120 0.52326059
vt 0.58434796 0.52553880
vt 0.67478693 0.52754843
vt 0.69513446 0.52613419
vt 0.71301776 0.55059522
vt 0.60566199 0.52268934
vt 0.65612531 0.52083331
vt 0.48816568 0.52651185
vt 0.13932909 0.51488096
vt 0.14699946 0.52551872
vt 0.17056254 0.51695728
vt 0.12559852 0.52678573
vt 0.17123812 0.52669001
vt 0.20414202 0.51914865
vt 0.10355029 0.51914865
vt 0.96461892 0.72976291
vt 0.93983823 0.74071568
vt 0.96958572 0.73870987
vt 0.98425555 0.72321427
vt 0.99112427 0.72748095
vt 0.93230706 0.72971165
vt 0.90624171 0.74107140
vt 0.90879995 0.72694272
vt 0.87278104 0.73870987
vt 0.65976334 0.95630372
vt 0.64201182 0.97159588
vt 0.64424670 0.97321427
vt 0.64424670 0.93154764
vt 0.25739652 0.96130955
vt 0.26331362 0.96277046
vt 0.25739646 0.97916669
vt 0.89526224 0.09503259
vt 0.86700684 0.05951215
vt 0.87721485 0.11375245
vt 0.90927267 0.14675657
vt 0.87402254 0.13046797
vt 0.88373256 0.05505372
vt 0.88077408 0.15672153
vt 0.87908077 0.03979190
vt 0.92042869 0.09593396
vt 0.90018696 0.05066558
vt 0.86128187 0.13914931
vt 0.93131846 0.10219232
vt 0.93519962 0.14079392
vt 0.92958069 0.15961581
vt 0.89370942 0.17145409
vt 0.92070955 0.18026236
vt 0.93517894 0.18750000
vt 0.89536333 0.17994577
vt 0.84911245 0.08908790
vt 0.85368383 0.05078334
vt 0.85664397 0.02312506
vt 0.87382054 0.02048625
vt 0.90047216 0.03500937
vt 0.91965193 0.05671553
vt 0.88643426 0.01549349
vt 0.94378698 0.12304627
vt 0.93517894 0.08648149
vt 0.86914080 0.00297619
vt 0.86081946 0.12266580
vt 0.86144453 0.14587946
vt 0.96526098 0.10476613
vt 0.95930022 0.12158916
vt 0.98333955 0.09992231
vt 0.96517545 0.08293026
vt 0.97516495 0.06738421
vt 0.99539465 0.08125335
vt 0.99151361 0.04727757
vt 0.97971016 0.04314424
vt 0.98739451 0.01865886
vt 0.99412042 0.00892857
vt 0.97628099 0.12511483
vt 0.95923346 0.13971330
vt 0.95562130 0.15754215
vt 0.99582016 0.13454473
vt 0.99704140 0.11039535
vt 0.99502879 0.15585248
vt 0.96965355 0.16455834
vt 0.99412042 0.17217879
vt 0.98666471 0.17559524
vt 0.88257885 0.87111038
vt 0.86820281 0.88608712
vt 0.88257909 0.88920939
vt 0.87069649 0.90888339
vt 0.86967331 0.86536127
vt 0.88852000 0.85351562
vt 0.86094677 0.90499479
vt 0.86662745 0.92744339
vt 0.89186078 0.83718783
vt 0.88797343 0.91318464
vt 0.89196098 0.92995852
vt 0.87931776 0.94216359
vt 0.86354691 0.94252217
vt 0.87324405 0.95699573
vt 0.90462118 0.95648301
vt 0.89530265 0.96879321
vt 0.91094291 0.96815944
vt 0.87543094 0.97321427
vt 0.90418899 0.85345006
vt 0.89894205 0.87995309
vt 0.92514670 0.88007373
vt 0.91028517 0.92836207
vt 0.91630024 0.83985275
vt 0.93289155 0.83554792
vt 0.90884525 0.81798714
vt 0.92182416 0.79895455
vt 0.94167072 0.80361211
vt 0.94968987 0.77776790
vt 0.93157887 0.93396795
vt 0.95228738 0.89143109
vt 0.95241398 0.85926139
vt 0.96222609 0.81694412
vt 0.96653330 0.78792900
vt 0.96511650 0.76488096
vt 0.91982806 0.78316844
vt 0.95483994 0.90797234
vt 0.97337276 0.84255981
vt 0.96813089 0.86776608
vt 0.92346931 0.95456767
vt 0.93836892 0.94378954
vt 0.88952923 0.81477094
vt 0.90567619 0.79792339
vt 0.94788295 0.92868388
vt 0.92289090 0.77233070
vt 0.96511650 0.89247340
vt 0.94919240 0.77029836
vt 0.74498659 0.44375375
vt 0.76352316 0.44670779
vt 0.75288475 0.42951107
vt 0.76627219 0.43986973
vt 0.73726964 0.42559522
vt 0.72471499 0.43443409
vt 0.73653090 0.46130952
vt 0.70696527 0.46097982
vt 0.70381558 0.44527143
vt 0.68454397 0.44977093
vt 0.66568047 0.46012577
vt 0.75786585 0.46012574
vt 0.04437870 0.32132038
vt 0.03094782 0.32378238
vt 0.03645855 0.34946418
vt 0.03540405 0.29464287
vt 0.02662722 0.30394426
vt 0.03540402 0.37202382
vt 0.99112427 0.77083331
vt 0.99112427 0.80059522
vt 0.97928995 0.78053904
vt 0.01479290 0.31250000
vt 0.02071006 0.31841657
vt 0.01479290 0.33630952
f 562/562 548/548 565/565
f 565/565 548/548 547/547
f 565/565 547/547 567/567
f 569/569 568/568 551/551
f 569/569 551/551 570/570
f 568/568 561/561 551/551
f 551/551 561/561 550/550
f 551/551 550/550 546/546
f 562/562 565/565 570/570
f 92/92 95/95 91/91
f 69/69 92/92 65/65
f 65/65 92/92 91/91
f 546/546 550/550 549/549
f 95/95 86/86 91/91
f 91/91 86/86 66/66
f 65/65 91/91 66/66
f 549/549 557/557 563/563
f 732/732 746/746 740/740
f 93/93 92/92 76/76
f 566/566 556/556 553/553
f 553/553 556/556 554/554
f 553/553 554/554 552/552
f 552/552 554/554 555/555
f 65/65 66/66 62/62
f 66/66 86/86 62/62
f 62/62 86/86 85/85
f 552/552 555/555 558/558
f 552/552 558/558 564/564
f 558/558 555/555 559/559
f 732/732 740/740 727/727
f 732/732 727/727 726/726
f 740/740 741/741 727/727
f 727/727 741/741 729/729
f 245/245 252/252 242/242
f 242/242 252/252 253/253
f 232/232 236/236 258/258
f 69/69 65/65 64/64
f 64/64 65/65 62/62
f 57/57 35/35 34/34
f 57/57 34/34 53/53
f 53/53 34/34 42/42
f 62/62 85/85 67/67
f 726/726 727/727 720/720
f 727/727 729/729 720/720
f 720/720 729/729 718/718
f 729/729 745/745 718/718
f 718/718 745/745 736/736
f 745/745 751/751 736/736
f 242/242 253/253 255/255
f 68/68 64/64 61/61
f 64/64 62/62 61/61
f 61/61 62/62 63/63
f 62/62 67/67 63/63
f 67/67 85/85 82/82
f 726/726 720/720 714/714
f 726/726 714/714 728/728
f 728/728 714/714 711/711
f 720/720 718/718 714/714
f 714/714 718/718 713/713
f 718/718 736/736 719/719
f 718/718 719/719 713/713
f 736/736 751/751 719/719
f 719/719 751/751 752/752
f 719/719 752/752 710/710
f 242/242 255/255 229/229
f 89/89 74/74 73/73
f 68/68 61/61 70/70
f 61/61 63/63 70/70
f 67/67 82/82 63/63
f 63/63 82/82 78/78
f 82/82 88/88 78/78
f 714/714 713/713 709/709
f 713/713 719/719 710/710
f 89/89 73/73 77/77
f 89/89 77/77 90/90
f 73/73 70/70 72/72
f 73/73 72/72 77/77
f 81/81 77/77 72/72
f 72/72 70/70 71/71
f 81/81 72/72 80/80
f 80/80 72/72 71/71
f 70/70 63/63 71/71
f 80/80 71/71 84/84
f 63/63 78/78 71/71
f 71/71 78/78 79/79
f 84/84 71/71 79/79
f 78/78 88/88 79/79
f 753/753 711/711 707/707
f 713/713 710/710 709/709
f 711/711 709/709 707/707
f 710/710 704/704 709/709
f 332/332 331/331 322/322
f 322/322 331/331 321/321
f 331/331 326/326 321/321
f 327/327 322/322 317/317
f 322/322 321/321 317/317
f 317/317 321/321 316/316
f 321/321 326/326 319/319
f 321/321 319/319 316/316
f 326/326 336/336 320/320
f 326/326 320/320 319/319
f 336/336 345/345 335/335
f 336/336 335/335 320/320
f 251/251 224/224 223/223
f 316/316 319/319 315/315
f 319/319 320/320 315/315
f 315/315 320/320 314/314
f 90/90 77/77 83/83
f 90/90 83/83 94/94
f 320/320 335/335 328/328
f 320/320 328/328 314/314
f 327/327 317/317 333/333
f 333/333 317/317 306/306
f 317/317 316/316 304/304
f 317/317 304/304 306/306
f 316/316 315/315 304/304
f 304/304 315/315 309/309
f 315/315 314/314 309/309
f 329/329 330/330 314/314
f 314/314 330/330 312/312
f 309/309 314/314 312/312
f 333/333 306/306 325/325
f 325/325 306/306 303/303
f 306/306 304/304 303/303
f 303/303 304/304 305/305
f 304/304 309/309 305/305
f 305/305 309/309 310/310
f 309/309 312/312 310/310
f 330/330 340/340 313/313
f 330/330 313/313 312/312
f 310/310 312/312 313/313
f 303/303 305/305 307/307
f 303/303 307/307 308/308
f 305/305 310/310 307/307
f 307/307 310/310 311/311
f 313/313 340/340 318/318
f 310/310 313/313 311/311
f 311/311 313/313 318/318
f 308/308 307/307 323/323
f 307/307 311/311 324/324
f 307/307 324/324 323/323
f 311/311 318/318 324/324
f 324/324 318/318 342/342
f 84/84 79/79 87/87
f 340/340 341/341 318/318
f 753/753 707/707 722/722
f 722/722 707/707 706/706
f 318/318 341/341 342/342
f 708/708 722/722 706/706
f 707/707 709/709 704/704
f 707/707 704/704 706/706
f 346/346 339/339 331/331
f 346/346 331/331 347/347
f 331/331 339/339 326/326
f 339/339 338/338 326/326
f 332/332 322/322 337/337
f 332/332 337/337 347/347
f 395/395 432/432 421/421
f 326/326 338/338 336/336
f 338/338 343/343 336/336
f 336/336 343/343 344/344
f 343/343 348/348 344/344
f 344/344 348/348 349/349
f 396/396 390/390 395/395
f 261/261 250/250 247/247
f 247/247 250/250 241/241
f 396/396 391/391 390/390
f 391/391 392/392 387/387
f 391/391 387/387 390/390
f 325/325 303/303 334/334
f 392/392 410/410 387/387
f 303/303 308/308 334/334
f 410/410 430/430 429/429
f 387/387 410/410 384/384
f 384/384 410/410 429/429
f 634/634 635/635 630/630
f 634/634 630/630 629/629
f 629/629 630/630 626/626
f 629/629 626/626 628/628
f 635/635 716/716 733/733
f 635/635 733/733 630/630
f 716/716 708/708 715/715
f 716/716 715/715 733/733
f 708/708 706/706 705/705
f 708/708 705/705 715/715
f 706/706 704/704 705/705
f 704/704 702/702 705/705
f 704/704 703/703 702/702
f 346/346 347/347 350/350
f 151/151 143/143 168/168
f 168/168 143/143 193/193
f 395/395 390/390 394/394
f 394/394 390/390 393/393
f 246/246 254/254 244/244
f 244/244 254/254 249/249
f 390/390 389/389 393/393
f 390/390 387/387 389/389
f 389/389 387/387 388/388
f 387/387 386/386 388/388
f 387/387 384/384 386/386
f 384/384 429/429 383/383
f 629/629 628/628 652/652
f 630/630 733/733 623/623
f 623/623 622/622 624/624
f 733/733 715/715 717/717
f 733/733 717/717 623/623
f 715/715 705/705 717/717
f 717/717 705/705 712/712
f 712/712 705/705 702/702
f 652/652 628/628 633/633
f 633/633 628/628 627/627
f 628/628 626/626 624/624
f 628/628 624/624 627/627
f 627/627 624/624 625/625
f 624/624 622/622 625/625
f 266/266 268/268 264/264
f 266/266 264/264 263/263
f 268/268 267/267 264/264
f 264/264 267/267 262/262
f 395/395 394/394 397/397
f 191/191 190/190 222/222
f 259/259 263/263 256/256
f 262/262 254/254 257/257
f 262/262 257/257 264/264
f 263/263 264/264 256/256
f 256/256 264/264 257/257
f 296/296 294/294 281/281
f 281/281 294/294 280/280
f 294/294 279/279 280/280
f 294/294 291/291 279/279
f 279/279 291/291 276/276
f 291/291 292/292 283/283
f 291/291 283/283 276/276
f 127/127 124/124 103/103
f 127/127 103/103 123/123
f 103/103 124/124 111/111
f 124/124 125/125 111/111
f 111/111 125/125 110/110
f 125/125 126/126 110/110
f 110/110 126/126 115/115
f 428/428 386/386 427/427
f 427/427 386/386 416/416
f 386/386 384/384 385/385
f 385/385 384/384 379/379
f 384/384 383/383 379/379
f 379/379 383/383 380/380
f 623/623 717/717 614/614
f 717/717 712/712 614/614
f 614/614 712/712 617/617
f 614/614 617/617 615/615
f 614/614 615/615 616/616
f 617/617 712/712 621/621
f 617/617 621/621 620/620
f 617/617 620/620 615/615
f 712/712 702/702 699/699
f 712/712 699/699 621/621
f 702/702 700/700 699/699
f 702/702 703/703 700/700
f 383/383 382/382 380/380
f 616/616 618/618 619/619
f 616/616 615/615 618/618
f 633/633 627/627 638/638
f 627/627 625/625 638/638
f 638/638 625/625 636/636
f 625/625 622/622 636/636
f 636/636 622/622 619/619
f 869/869 870/870 871/871
f 869/869 872/872 870/870
f 883/883 884/884 882/882
f 883/883 882/882 881/881
f 874/874 871/871 873/873
f 871/871 870/870 873/873
f 881/881 877/877 876/876
f 881/881 882/882 877/877
f 879/879 876/876 878/878
f 879/879 878/878 880/880
f 876/876 877/877 878/878
f 202/202 200/200 199/199
f 406/406 395/395 400/400
f 186/186 190/190 164/164
f 281/281 280/280 275/275
f 395/395 397/397 398/398
f 277/277 281/281 275/275
f 280/280 279/279 275/275
f 279/279 276/276 275/275
f 103/103 111/111 101/101
f 111/111 110/110 101/101
f 101/101 110/110 96/96
f 110/110 97/97 96/96
f 110/110 115/115 97/97
f 97/97 115/115 109/109
f 115/115 122/122 109/109
f 109/109 122/122 121/121
f 427/427 416/416 431/431
f 604/604 605/605 602/602
f 416/416 385/385 408/408
f 605/605 610/610 602/602
f 379/379 380/380 378/378
f 621/621 699/699 632/632
f 632/632 699/699 697/697
f 632/632 697/697 643/643
f 632/632 643/643 637/637
f 699/699 700/700 696/696
f 699/699 696/696 697/697
f 696/696 700/700 698/698
f 380/380 382/382 381/381
f 615/615 620/620 631/631
f 631/631 620/620 637/637
f 700/700 703/703 698/698
f 698/698 703/703 721/721
f 633/633 638/638 641/641
f 633/633 641/641 647/647
f 638/638 636/636 641/641
f 641/641 636/636 640/640
f 636/636 619/619 639/639
f 636/636 639/639 640/640
f 619/619 618/618 639/639
f 639/639 618/618 631/631
f 946/946 945/945 941/941
f 945/945 942/942 941/941
f 941/941 942/942 943/943
f 943/943 942/942 944/944
f 942/942 947/947 944/944
f 825/825 843/843 819/819
f 825/825 840/840 843/843
f 803/803 806/806 802/802
f 828/828 831/831 817/817
f 803/803 802/802 779/779
f 803/803 779/779 774/774
f 812/812 829/829 811/811
f 795/795 796/796 774/774
f 829/829 830/830 811/811
f 797/797 772/772 767/767
f 815/815 847/847 836/836
f 766/766 773/773 767/767
f 837/837 844/844 841/841
f 804/804 776/776 777/777
f 804/804 777/777 805/805
f 805/805 777/777 786/786
f 786/786 777/777 778/778
f 844/844 846/846 841/841
f 202/202 199/199 197/197
f 197/197 199/199 184/184
f 400/400 395/395 399/399
f 186/186 164/164 162/162
f 186/186 162/162 184/184
f 395/395 398/398 399/399
f 277/277 275/275 274/274
f 274/274 275/275 273/273
f 275/275 276/276 273/273
f 276/276 283/283 282/282
f 276/276 282/282 273/273
f 123/123 103/103 114/114
f 114/114 103/103 102/102
f 103/103 101/101 102/102
f 109/109 121/121 117/117
f 598/598 591/591 584/584
f 583/583 584/584 591/591
f 583/583 591/591 592/592
f 602/602 610/610 594/594
f 594/594 610/610 609/609
f 378/378 380/380 377/377
f 697/697 696/696 695/695
f 695/695 696/696 694/694
f 696/696 698/698 694/694
f 694/694 698/698 725/725
f 631/631 637/637 764/764
f 631/631 764/764 763/763
f 637/637 643/643 764/764
f 698/698 721/721 725/725
f 647/647 641/641 648/648
f 648/648 641/641 645/645
f 641/641 640/640 644/644
f 641/641 644/644 645/645
f 640/640 639/639 644/644
f 644/644 639/639 646/646
f 639/639 631/631 642/642
f 639/639 642/642 646/646
f 909/909 906/906 898/898
f 1005/1005 1006/1006 1007/1007
f 982/982 981/981 965/965
f 975/975 982/982 966/966
f 966/966 982/982 965/965
f 896/896 894/894 920/920
f 1008/1008 1009/1009 1010/1010
f 981/981 949/949 965/965
f 949/949 946/946 959/959
f 965/965 949/949 963/963
f 963/963 949/949 959/959
f 946/946 941/941 960/960
f 946/946 960/960 959/959
f 941/941 943/943 960/960
f 994/994 993/993 992/992
f 992/992 993/993 987/987
f 943/943 944/944 950/950
f 943/943 950/950 960/960
f 944/944 948/948 950/950
f 948/948 953/953 952/952
f 950/950 948/948 951/951
f 951/951 948/948 952/952
f 987/987 988/988 989/989
f 989/989 988/988 990/990
f 953/953 954/954 952/952
f 889/889 890/890 891/891
f 812/812 811/811 810/810
f 774/774 779/779 771/771
f 771/771 779/779 780/780
f 767/767 772/772 771/771
f 815/815 836/836 832/832
f 815/815 832/832 824/824
f 766/766 767/767 768/768
f 766/766 768/768 775/775
f 837/837 841/841 835/835
f 777/777 776/776 775/775
f 786/786 778/778 788/788
f 197/197 184/184 179/179
f 184/184 162/162 179/179
f 109/109 117/117 116/116
f 585/585 583/583 595/595
f 594/594 609/609 595/595
f 608/608 595/595 609/609
f 374/374 409/409 376/376
f 378/378 377/377 376/376
f 759/759 762/762 670/670
f 762/762 701/701 689/689
f 762/762 689/689 670/670
f 701/701 695/695 690/690
f 701/701 690/690 689/689
f 695/695 694/694 690/690
f 690/690 694/694 693/693
f 694/694 725/725 693/693
f 757/757 758/758 756/756
f 725/725 721/721 747/747
f 381/381 414/414 377/377
f 648/648 645/645 651/651
f 645/645 644/644 650/650
f 645/645 650/650 651/651
f 644/644 646/646 649/649
f 644/644 649/649 650/650
f 984/984 975/975 968/968
f 984/984 968/968 986/986
f 974/974 986/986 968/968
f 975/975 966/966 968/968
f 968/968 966/966 967/967
f 966/966 965/965 964/964
f 966/966 964/964 967/967
f 965/965 963/963 964/964
f 963/963 959/959 961/961
f 963/963 961/961 964/964
f 959/959 960/960 961/961
f 960/960 950/950 962/962
f 960/960 962/962 961/961
f 950/950 951/951 962/962
f 951/951 952/952 955/955
f 951/951 955/955 962/962
f 952/952 954/954 955/955
f 955/955 954/954 956/956
f 955/955 956/956 957/957
f 954/954 958/958 956/956
f 825/825 821/821 826/826
f 820/820 816/816 818/818
f 810/810 814/814 818/818
f 771/771 780/780 770/770
f 767/767 771/771 770/770
f 767/767 770/770 769/769
f 824/824 832/832 835/835
f 768/768 767/767 769/769
f 835/835 841/841 845/845
f 781/781 775/775 768/768
f 841/841 846/846 845/845
f 788/788 778/778 782/782
f 788/788 782/782 789/789
f 197/197 179/179 196/196
f 196/196 179/179 180/180
f 400/400 399/399 401/401
f 400/400 401/401 402/402
f 179/179 162/162 163/163
f 399/399 398/398 401/401
f 401/401 398/398 403/403
f 277/277 274/274 269/269
f 277/277 269/269 278/278
f 274/274 273/273 269/269
f 273/273 270/270 269/269
f 273/273 282/282 270/270
f 270/270 282/282 284/284
f 114/114 102/102 118/118
f 102/102 101/101 98/98
f 101/101 96/96 98/98
f 96/96 97/97 98/98
f 98/98 97/97 99/99
f 97/97 109/109 108/108
f 97/97 108/108 99/99
f 109/109 116/116 108/108
f 108/108 116/116 120/120
f 585/585 595/595 608/608
f 374/374 376/376 375/375
f 376/376 377/377 375/375
f 375/375 377/377 411/411
f 760/760 653/653 743/743
f 760/760 759/759 654/654
f 760/760 654/654 653/653
f 689/689 690/690 675/675
f 690/690 693/693 675/675
f 693/693 725/725 723/723
f 377/377 414/414 411/411
f 725/725 747/747 723/723
f 33/33 16/16 49/49
f 974/974 968/968 973/973
f 968/968 967/967 973/973
f 973/973 967/967 972/972
f 967/967 964/964 972/972
f 972/972 964/964 971/971
f 964/964 961/961 971/971
f 961/961 970/970 971/971
f 961/961 962/962 969/969
f 961/961 969/969 970/970
f 962/962 955/955 969/969
f 969/969 955/955 979/979
f 955/955 957/957 979/979
f 826/826 821/821 842/842
f 820/820 818/818 823/823
f 823/823 818/818 834/834
f 818/818 814/814 822/822
f 822/822 814/814 827/827
f 770/770 780/780 790/790
f 770/770 790/790 793/793
f 827/827 813/813 838/838
f 769/769 770/770 785/785
f 769/769 785/785 799/799
f 824/824 835/835 833/833
f 768/768 769/769 784/784
f 768/768 784/784 787/787
f 835/835 848/848 833/833
f 859/859 868/868 860/860
f 781/781 768/768 783/783
f 781/781 783/783 800/800
f 196/196 180/180 181/181
f 278/278 269/269 272/272
f 269/269 270/270 271/271
f 269/269 271/271 272/272
f 270/270 284/284 271/271
f 586/586 571/571 593/593
f 575/575 596/596 578/578
f 585/585 608/608 593/593
f 413/413 374/374 371/371
f 374/374 375/375 373/373
f 653/653 654/654 655/655
f 654/654 670/670 656/656
f 654/654 656/656 655/655
f 670/670 675/675 656/656
f 656/656 675/675 662/662
f 748/748 744/744 739/739
f 739/739 744/744 687/687
f 744/744 743/743 688/688
f 744/744 688/688 687/687
f 743/743 653/653 734/734
f 743/743 734/734 688/688
f 675/675 693/693 685/685
f 675/675 685/685 674/674
f 693/693 723/723 685/685
f 1000/1000 999/999 1002/1002
f 1000/1000 1002/1002 1003/1003
f 972/972 971/971 977/977
f 977/977 971/971 978/978
f 971/971 970/970 978/978
f 978/978 970/970 985/985
f 970/970 976/976 985/985
f 970/970 969/969 976/976
f 976/976 969/969 983/983
f 969/969 980/980 983/983
f 969/969 979/979 980/980
f 181/181 165/165 182/182
f 182/182 165/165 177/177
f 401/401 403/403 404/404
f 278/278 272/272 285/285
f 278/278 285/285 293/293
f 272/272 286/286 285/285
f 272/272 271/271 287/287
f 272/272 287/287 286/286
f 271/271 284/284 287/287
f 287/287 284/284 289/289
f 118/118 102/102 104/104
f 118/118 104/104 119/119
f 287/287 289/289 295/295
f 130/130 119/119 104/104
f 102/102 98/98 104/104
f 104/104 98/98 100/100
f 98/98 99/99 100/100
f 99/99 108/108 112/112
f 424/424 413/413 370/370
f 424/424 370/370 423/423
f 413/413 371/371 370/370
f 370/370 371/371 352/352
f 351/351 370/370 352/352
f 653/653 655/655 661/661
f 661/661 655/655 657/657
f 655/655 656/656 657/657
f 657/657 656/656 658/658
f 656/656 662/662 658/658
f 662/662 675/675 674/674
f 739/739 687/687 730/730
f 730/730 687/687 678/678
f 687/687 688/688 661/661
f 687/687 661/661 678/678
f 688/688 734/734 661/661
f 685/685 723/723 692/692
f 182/182 177/177 187/187
f 401/401 404/404 405/405
f 405/405 404/404 407/407
f 293/293 285/285 290/290
f 293/293 290/290 298/298
f 285/285 286/286 290/290
f 290/290 286/286 302/302
f 302/302 286/286 300/300
f 286/286 287/287 288/288
f 287/287 295/295 297/297
f 287/287 297/297 288/288
f 286/286 288/288 300/300
f 300/300 288/288 297/297
f 130/130 104/104 132/132
f 132/132 104/104 128/128
f 104/104 100/100 105/105
f 104/104 105/105 128/128
f 132/132 128/128 105/105
f 105/105 100/100 106/106
f 100/100 99/99 107/107
f 100/100 107/107 106/106
f 129/129 106/106 107/107
f 129/129 107/107 131/131
f 601/601 579/579 589/589
f 99/99 112/112 107/107
f 107/107 112/112 113/113
f 131/131 107/107 113/113
f 611/611 588/588 580/580
f 423/423 370/370 412/412
f 412/412 370/370 354/354
f 358/358 412/412 354/354
f 351/351 352/352 353/353
f 352/352 356/356 353/353
f 353/353 356/356 425/425
f 661/661 657/657 660/660
f 678/678 661/661 677/677
f 677/677 661/661 660/660
f 674/674 685/685 683/683
f 685/685 692/692 683/683
f 187/187 173/173 216/216
f 216/216 173/173 210/210
f 298/298 290/290 299/299
f 290/290 302/302 299/299
f 545/545 543/543 534/534
f 541/541 534/534 537/537
f 537/537 534/534 527/527
f 543/543 542/542 538/538
f 543/543 538/538 534/534
f 534/534 538/538 533/533
f 534/534 533/533 527/527
f 300/300 297/297 301/301
f 542/542 539/539 538/538
f 539/539 544/544 532/532
f 538/538 539/539 532/532
f 538/538 532/532 533/533
f 527/527 533/533 523/523
f 533/533 532/532 523/523
f 523/523 532/532 524/524
f 132/132 105/105 106/106
f 544/544 531/531 532/532
f 532/532 531/531 524/524
f 537/537 527/527 526/526
f 367/367 418/418 362/362
f 527/527 523/523 526/526
f 526/526 523/523 525/525
f 530/530 535/535 528/528
f 530/530 528/528 524/524
f 523/523 524/524 525/525
f 525/525 524/524 528/528
f 601/601 589/589 606/606
f 536/536 540/540 526/526
f 362/362 418/418 361/361
f 361/361 418/418 417/417
f 611/611 580/580 581/581
f 535/535 529/529 528/528
f 525/525 528/528 529/529
f 358/358 354/354 357/357
f 354/354 353/353 355/355
f 354/354 355/355 357/357
f 353/353 425/425 355/355
f 660/660 673/673 679/679
f 660/660 657/657 659/659
f 660/660 659/659 673/673
f 657/657 658/658 659/659
f 658/658 662/662 659/659
f 659/659 662/662 663/663
f 662/662 674/674 663/663
f 663/663 674/674 668/668
f 674/674 683/683 668/668
f 668/668 683/683 682/682
f 683/683 686/686 684/684
f 683/683 684/684 682/682
f 493/493 496/496 479/479
f 479/479 496/496 478/478
f 368/368 367/367 366/366
f 366/366 367/367 363/363
f 367/367 362/362 363/363
f 362/362 361/361 359/359
f 362/362 359/359 363/363
f 361/361 358/358 359/359
f 358/358 357/357 359/359
f 359/359 357/357 360/360
f 357/357 355/355 420/420
f 357/357 420/420 360/360
f 738/738 679/679 737/737
f 737/737 679/679 691/691
f 679/679 673/673 680/680
f 679/679 680/680 691/691
f 673/673 659/659 672/672
f 673/673 672/672 680/680
f 659/659 664/664 672/672
f 659/659 663/663 664/664
f 204/204 203/203 205/205
f 205/205 203/203 206/206
f 478/478 443/443 445/445
f 366/366 363/363 365/365
f 366/366 365/365 369/369
f 363/363 359/359 364/364
f 363/363 364/364 365/365
f 359/359 360/360 422/422
f 359/359 422/422 364/364
f 360/360 420/420 422/422
f 737/737 691/691 731/731
f 691/691 680/680 731/731
f 731/731 680/680 724/724
f 680/680 672/672 724/724
f 724/724 672/672 676/676
f 672/672 664/664 676/676
f 676/676 664/664 671/671
f 671/671 664/664 666/666
f 664/664 663/663 665/665
f 664/664 665/665 666/666
f 663/663 668/668 665/665
f 668/668 682/682 669/669
f 668/668 669/669 665/665
f 682/682 684/684 669/669
f 669/669 684/684 681/681
f 205/205 206/206 212/212
f 446/446 477/477 458/458
f 724/724 676/676 749/749
f 749/749 676/676 750/750
f 676/676 671/671 750/750
f 666/666 665/665 667/667
f 665/665 669/669 681/681
f 665/665 681/681 667/667
f 437/437 436/436 461/461
f 436/436 435/435 460/460
f 436/436 460/460 461/461
f 435/435 447/447 448/448
f 435/435 448/448 460/460
f 447/447 459/459 448/448
f 60/60 48/48 52/52
f 459/459 487/487 465/465
f 735/735 742/742 755/755
f 487/487 474/474 465/465
f 742/742 754/754 755/755
f 570/570 551/551 562/562
f 551/551 546/546 562/562
f 546/546 548/548 562/562
f 546/546 547/547 548/548
f 546/546 549/549 547/547
f 549/549 563/563 547/547
f 245/245 238/238 243/243
f 238/238 237/237 240/240
f 238/238 240/240 243/243
f 566/566 553/553 561/561
f 561/561 553/553 550/550
f 69/69 76/76 92/92
f 553/553 552/552 550/550
f 550/550 552/552 549/549
f 552/552 564/564 557/557
f 552/552 557/557 549/549
f 242/242 233/233 238/238
f 242/242 238/238 245/245
f 233/233 237/237 238/238
f 233/233 232/232 234/234
f 233/233 234/234 237/237
f 232/232 258/258 234/234
f 64/64 75/75 76/76
f 64/64 76/76 69/69
f 560/560 554/554 556/556
f 242/242 228/228 233/233
f 228/228 232/232 233/233
f 68/68 74/74 64/64
f 64/64 74/74 75/75
f 8/8 7/7 34/34
f 8/8 34/34 35/35
f 7/7 42/42 34/34
f 7/7 37/37 43/43
f 7/7 43/43 42/42
f 229/229 228/228 242/242
f 232/232 235/235 236/236
f 68/68 73/73 74/74
f 68/68 70/70 73/73
f 6/6 7/7 8/8
f 7/7 5/5 37/37
f 709/709 711/711 714/714
f 5/5 38/38 37/37
f 225/225 226/226 229/229
f 229/229 226/226 228/228
f 226/226 227/227 228/228
f 227/227 230/230 228/228
f 228/228 230/230 232/232
f 230/230 235/235 232/232
f 6/6 5/5 7/7
f 5/5 10/10 38/38
f 223/223 224/224 225/225
f 225/225 224/224 226/226
f 224/224 231/231 227/227
f 224/224 227/227 226/226
f 231/231 239/239 230/230
f 231/231 230/230 227/227
f 239/239 248/248 235/235
f 239/239 235/235 230/230
f 28/28 6/6 8/8
f 314/314 328/328 329/329
f 81/81 83/83 77/77
f 3/3 5/5 6/6
f 347/347 331/331 332/332
f 395/395 421/421 396/396
f 327/327 337/337 322/322
f 336/336 344/344 345/345
f 344/344 349/349 345/345
f 261/261 247/247 251/251
f 251/251 247/247 224/224
f 247/247 241/241 231/231
f 247/247 231/231 224/224
f 241/241 244/244 239/239
f 241/241 239/239 231/231
f 244/244 248/248 239/239
f 3/3 2/2 5/5
f 2/2 23/23 10/10
f 2/2 10/10 5/5
f 178/178 156/156 169/169
f 156/156 152/152 169/169
f 152/152 151/151 169/169
f 395/395 406/406 432/432
f 193/193 221/221 168/168
f 265/265 260/260 261/261
f 506/506 505/505 512/512
f 506/506 512/512 513/513
f 505/505 499/499 512/512
f 499/499 500/500 512/512
f 512/512 500/500 510/510
f 500/500 504/504 510/510
f 510/510 504/504 511/511
f 260/260 246/246 250/250
f 260/260 250/250 261/261
f 250/250 246/246 241/241
f 246/246 244/244 241/241
f 244/244 249/249 248/248
f 9/9 3/3 6/6
f 9/9 6/6 28/28
f 506/506 501/501 505/505
f 501/501 497/497 499/499
f 501/501 499/499 505/505
f 497/497 498/498 499/499
f 499/499 498/498 500/500
f 498/498 502/502 500/500
f 500/500 502/502 504/504
f 514/514 501/501 506/506
f 514/514 509/509 501/501
f 509/509 507/507 501/501
f 501/501 507/507 497/497
f 507/507 503/503 497/497
f 497/497 503/503 498/498
f 503/503 502/502 498/498
f 517/517 516/516 514/514
f 514/514 516/516 509/509
f 516/516 508/508 509/509
f 509/509 508/508 507/507
f 388/388 386/386 428/428
f 623/623 624/624 626/626
f 623/623 626/626 630/630
f 189/189 160/160 178/178
f 160/160 156/156 178/178
f 156/156 150/150 152/152
f 150/150 146/146 151/151
f 150/150 151/151 152/152
f 146/146 143/143 151/151
f 143/143 191/191 221/221
f 143/143 221/221 193/193
f 191/191 222/222 221/221
f 265/265 259/259 260/260
f 40/40 11/11 41/41
f 259/259 256/256 246/246
f 259/259 246/246 260/260
f 256/256 257/257 254/254
f 256/256 254/254 246/246
f 11/11 3/3 9/9
f 11/11 9/9 41/41
f 508/508 515/515 503/503
f 508/508 503/503 507/507
f 521/521 518/518 508/508
f 508/508 518/518 515/515
f 515/515 520/520 503/503
f 518/518 519/519 515/515
f 515/515 519/519 520/520
f 522/522 521/521 508/508
f 522/522 508/508 516/516
f 385/385 416/416 386/386
f 614/614 616/616 622/622
f 614/614 622/622 623/623
f 616/616 619/619 622/622
f 194/194 159/159 189/189
f 189/189 159/159 160/160
f 159/159 153/153 160/160
f 160/160 153/153 156/156
f 153/153 150/150 156/156
f 150/150 141/141 146/146
f 141/141 142/142 143/143
f 141/141 143/143 146/146
f 186/186 199/199 200/200
f 12/12 40/40 39/39
f 142/142 144/144 143/143
f 143/143 144/144 191/191
f 144/144 164/164 190/190
f 144/144 190/190 191/191
f 12/12 11/11 40/40
f 11/11 1/1 3/3
f 1/1 2/2 3/3
f 1/1 4/4 2/2
f 604/604 612/612 613/613
f 602/602 600/600 604/604
f 604/604 598/598 607/607
f 604/604 607/607 612/612
f 600/600 591/591 604/604
f 604/604 591/591 598/598
f 598/598 599/599 603/603
f 598/598 603/603 607/607
f 2/2 4/4 23/23
f 378/378 408/408 379/379
f 379/379 408/408 385/385
f 632/632 637/637 620/620
f 632/632 620/620 621/621
f 4/4 24/24 23/23
f 631/631 618/618 615/615
f 817/817 819/819 828/828
f 819/819 843/843 828/828
f 869/869 875/875 872/872
f 803/803 774/774 796/796
f 812/812 817/817 831/831
f 774/774 772/772 795/795
f 767/767 773/773 797/797
f 815/815 811/811 830/830
f 766/766 776/776 773/773
f 805/805 786/786 807/807
f 807/807 786/786 798/798
f 786/786 792/792 798/798
f 25/25 19/19 12/12
f 25/25 12/12 39/39
f 153/153 149/149 150/150
f 149/149 141/141 150/150
f 186/186 184/184 199/199
f 145/145 144/144 142/142
f 144/144 162/162 164/164
f 584/584 597/597 599/599
f 584/584 599/599 598/598
f 594/594 592/592 600/600
f 594/594 600/600 602/602
f 592/592 591/591 600/600
f 378/378 409/409 408/408
f 758/758 763/763 762/762
f 758/758 762/762 759/759
f 763/763 764/764 762/762
f 762/762 764/764 701/701
f 695/695 643/643 697/697
f 764/764 643/643 701/701
f 701/701 643/643 695/695
f 377/377 380/380 381/381
f 757/757 646/646 758/758
f 763/763 642/642 631/631
f 646/646 642/642 763/763
f 646/646 763/763 758/758
f 898/898 896/896 902/902
f 898/898 902/902 921/921
f 896/896 920/920 902/902
f 920/920 894/894 910/910
f 949/949 945/945 946/946
f 894/894 893/893 910/910
f 893/893 911/911 910/910
f 997/997 994/994 996/996
f 994/994 995/995 996/996
f 994/994 992/992 995/995
f 947/947 948/948 944/944
f 992/992 987/987 991/991
f 987/987 989/989 991/991
f 819/819 821/821 825/825
f 825/825 839/839 840/840
f 808/808 794/794 806/806
f 806/806 794/794 802/802
f 816/816 819/819 817/817
f 794/794 780/780 779/779
f 794/794 779/779 802/802
f 810/810 816/816 812/812
f 812/812 816/816 817/817
f 771/771 772/772 774/774
f 809/809 810/810 811/811
f 824/824 809/809 815/815
f 815/815 809/809 811/811
f 766/766 775/775 776/776
f 835/835 832/832 837/837
f 837/837 832/832 836/836
f 775/775 778/778 777/777
f 788/788 792/792 786/786
f 194/194 158/158 159/159
f 158/158 153/153 159/159
f 19/19 13/13 12/12
f 12/12 1/1 11/11
f 1/1 16/16 4/4
f 583/583 574/574 584/584
f 574/574 590/590 597/597
f 574/574 597/597 584/584
f 595/595 583/583 594/594
f 594/594 583/583 592/592
f 759/759 670/670 654/654
f 670/670 689/689 675/675
f 376/376 409/409 378/378
f 761/761 756/756 760/760
f 759/759 756/756 758/758
f 756/756 759/759 760/760
f 16/16 33/33 4/4
f 651/651 650/650 765/765
f 765/765 650/650 761/761
f 756/756 649/649 757/757
f 757/757 649/649 646/646
f 650/650 649/649 761/761
f 761/761 649/649 756/756
f 33/33 24/24 4/4
f 907/907 905/905 906/906
f 907/907 906/906 909/909
f 905/905 895/895 906/906
f 906/906 895/895 898/898
f 895/895 896/896 898/898
f 895/895 892/892 894/894
f 895/895 894/894 896/896
f 892/892 897/897 893/893
f 892/892 893/893 894/894
f 897/897 899/899 893/893
f 893/893 899/899 911/911
f 899/899 913/913 912/912
f 899/899 912/912 911/911
f 913/913 919/919 912/912
f 993/993 998/998 987/987
f 998/998 988/988 987/987
f 938/938 940/940 939/939
f 938/938 939/939 937/937
f 826/826 839/839 825/825
f 820/820 819/819 816/816
f 820/820 821/821 819/819
f 801/801 780/780 794/794
f 818/818 816/816 810/810
f 813/813 814/814 810/810
f 813/813 810/810 809/809
f 824/824 813/813 809/809
f 845/845 848/848 835/835
f 781/781 782/782 775/775
f 775/775 782/782 778/778
f 789/789 791/791 788/788
f 788/788 791/791 792/792
f 32/32 19/19 25/25
f 185/185 158/158 194/194
f 158/158 154/154 153/153
f 154/154 148/148 153/153
f 153/153 148/148 149/149
f 148/148 137/137 141/141
f 148/148 141/141 149/149
f 137/137 136/136 141/141
f 141/141 136/136 142/142
f 136/136 147/147 145/145
f 136/136 145/145 142/142
f 163/163 180/180 179/179
f 147/147 140/140 145/145
f 145/145 140/140 144/144
f 140/140 163/163 162/162
f 140/140 162/162 144/144
f 13/13 1/1 12/12
f 585/585 573/573 583/583
f 573/573 572/572 574/574
f 573/573 574/574 583/583
f 572/572 578/578 590/590
f 572/572 590/590 574/574
f 651/651 765/765 744/744
f 651/651 744/744 748/748
f 743/743 761/761 760/760
f 765/765 761/761 744/744
f 744/744 761/761 743/743
f 908/908 905/905 907/907
f 905/905 904/904 895/895
f 1001/1001 1000/1000 1004/1004
f 908/908 904/904 905/905
f 999/999 1000/1000 1001/1001
f 904/904 903/903 895/895
f 903/903 900/900 895/895
f 895/895 900/900 892/892
f 900/900 901/901 892/892
f 892/892 901/901 897/897
f 901/901 914/914 897/897
f 897/897 914/914 899/899
f 915/915 914/914 901/901
f 914/914 916/916 899/899
f 899/899 916/916 913/913
f 916/916 919/919 913/913
f 932/932 935/935 936/936
f 935/935 934/934 937/937
f 937/937 934/934 938/938
f 933/933 934/934 932/932
f 932/932 934/934 935/935
f 885/885 886/886 887/887
f 851/851 852/852 853/853
f 823/823 842/842 821/821
f 823/823 821/821 820/820
f 852/852 863/863 854/854
f 852/852 854/854 853/853
f 885/885 888/888 886/886
f 801/801 790/790 780/780
f 863/863 864/864 854/854
f 854/854 864/864 865/865
f 856/856 849/849 855/855
f 822/822 834/834 818/818
f 849/849 850/850 851/851
f 849/849 851/851 855/855
f 850/850 867/867 852/852
f 850/850 852/852 851/851
f 793/793 785/785 770/770
f 852/852 867/867 863/863
f 827/827 814/814 813/813
f 857/857 849/849 856/856
f 799/799 784/784 769/769
f 862/862 866/866 850/850
f 862/862 850/850 849/849
f 833/833 838/838 813/813
f 833/833 813/813 824/824
f 859/859 858/858 857/857
f 858/858 861/861 849/849
f 858/858 849/849 857/857
f 787/787 783/783 768/768
f 861/861 862/862 849/849
f 800/800 782/782 781/781
f 859/859 860/860 858/858
f 32/32 29/29 19/19
f 181/181 183/183 196/196
f 185/185 167/167 158/158
f 167/167 157/157 154/154
f 167/167 154/154 158/158
f 157/157 148/148 154/154
f 165/165 181/181 180/180
f 165/165 180/180 163/163
f 29/29 13/13 19/19
f 140/140 165/165 163/163
f 13/13 14/14 1/1
f 1/1 15/15 16/16
f 593/593 571/571 573/573
f 593/593 573/573 585/585
f 571/571 575/575 572/572
f 571/571 572/572 573/573
f 575/575 578/578 572/572
f 373/373 371/371 374/374
f 22/22 49/49 16/16
f 904/904 917/917 903/903
f 917/917 918/918 903/903
f 930/930 928/928 931/931
f 930/930 929/929 928/928
f 903/903 918/918 900/900
f 929/929 926/926 928/928
f 918/918 915/915 900/900
f 900/900 915/915 901/901
f 926/926 924/924 927/927
f 926/926 927/927 928/928
f 925/925 922/922 924/924
f 925/925 924/924 926/926
f 927/927 924/924 936/936
f 924/924 923/923 932/932
f 924/924 932/932 936/936
f 922/922 923/923 924/924
f 932/932 923/923 933/933
f 185/185 176/176 167/167
f 401/401 415/415 402/402
f 185/185 198/198 176/176
f 176/176 157/157 167/167
f 157/157 155/155 148/148
f 155/155 133/133 148/148
f 148/148 133/133 137/137
f 133/133 135/135 136/136
f 133/133 136/136 137/137
f 135/135 147/147 136/136
f 181/181 182/182 183/183
f 30/30 13/13 29/29
f 135/135 139/139 140/140
f 135/135 140/140 147/147
f 139/139 166/166 165/165
f 139/139 165/165 140/140
f 166/166 177/177 165/165
f 14/14 15/15 1/1
f 582/582 577/577 571/571
f 582/582 571/571 586/586
f 577/577 576/576 571/571
f 571/571 576/576 575/575
f 576/576 587/587 575/575
f 575/575 587/587 596/596
f 372/372 352/352 371/371
f 372/372 371/371 373/373
f 372/372 356/356 352/352
f 661/661 734/734 653/653
f 15/15 22/22 16/16
f 22/22 56/56 49/49
f 176/176 172/172 157/157
f 172/172 170/170 157/157
f 157/157 170/170 155/155
f 170/170 161/161 155/155
f 155/155 161/161 133/133
f 161/161 134/134 133/133
f 133/133 134/134 135/135
f 30/30 31/31 13/13
f 187/187 217/217 182/182
f 220/220 176/176 198/198
f 405/405 415/415 401/401
f 134/134 138/138 135/135
f 135/135 138/138 139/139
f 139/139 138/138 166/166
f 138/138 187/187 177/177
f 138/138 177/177 166/166
f 173/173 187/187 138/138
f 31/31 21/21 13/13
f 21/21 14/14 13/13
f 589/589 579/579 582/582
f 582/582 579/579 577/577
f 579/579 580/580 576/576
f 579/579 576/576 577/577
f 580/580 588/588 587/587
f 580/580 587/587 576/576
f 351/351 354/354 370/370
f 353/353 354/354 351/351
f 18/18 22/22 15/15
f 692/692 686/686 683/683
f 220/220 201/201 176/176
f 407/407 419/419 405/405
f 495/495 493/493 494/494
f 201/201 195/195 172/172
f 201/201 172/172 176/176
f 493/493 480/480 494/494
f 195/195 192/192 170/170
f 195/195 170/170 172/172
f 192/192 174/174 170/170
f 170/170 174/174 161/161
f 174/174 171/171 161/161
f 161/161 171/171 134/134
f 134/134 171/171 138/138
f 171/171 173/173 138/138
f 175/175 173/173 171/171
f 216/216 217/217 187/187
f 46/46 45/45 21/21
f 46/46 21/21 31/31
f 59/59 45/45 46/46
f 524/524 531/531 530/530
f 526/526 525/525 536/536
f 525/525 529/529 536/536
f 601/601 581/581 579/579
f 14/14 17/17 15/15
f 361/361 417/417 358/358
f 358/358 417/417 412/412
f 581/581 580/580 579/579
f 17/17 18/18 15/15
f 679/679 677/677 660/660
f 677/677 679/679 738/738
f 18/18 47/47 22/22
f 480/480 452/452 488/488
f 192/192 188/188 174/174
f 452/452 481/481 488/488
f 488/488 481/481 490/490
f 174/174 188/188 171/171
f 481/481 491/491 490/490
f 188/188 175/175 171/171
f 215/215 175/175 188/188
f 479/479 480/480 493/493
f 478/478 454/454 479/479
f 479/479 454/454 480/480
f 480/480 454/454 452/452
f 208/208 175/175 215/215
f 175/175 203/203 173/173
f 208/208 203/203 175/175
f 203/203 204/204 173/173
f 173/173 204/204 210/210
f 204/204 209/209 210/210
f 59/59 58/58 45/45
f 58/58 36/36 45/45
f 45/45 36/36 21/21
f 366/366 426/426 433/433
f 366/366 433/433 368/368
f 366/366 369/369 426/426
f 36/36 20/20 21/21
f 21/21 20/20 14/14
f 20/20 17/17 14/14
f 452/452 453/453 481/481
f 215/215 214/214 208/208
f 453/453 483/483 481/481
f 481/481 483/483 491/491
f 204/204 205/205 209/209
f 50/50 36/36 58/58
f 445/445 454/454 478/478
f 443/443 441/441 445/445
f 445/445 452/452 454/454
f 445/445 441/441 452/452
f 441/441 438/438 452/452
f 452/452 438/438 453/453
f 214/214 207/207 208/208
f 208/208 207/207 203/203
f 207/207 206/206 203/203
f 450/450 444/444 443/443
f 444/444 442/442 443/443
f 443/443 442/442 441/441
f 442/442 440/440 441/441
f 456/456 444/444 450/450
f 456/456 449/449 444/444
f 444/444 449/449 442/442
f 449/449 446/446 442/442
f 455/455 449/449 456/456
f 455/455 446/446 449/449
f 476/476 475/475 455/455
f 475/475 477/477 446/446
f 475/475 446/446 455/455
f 18/18 51/51 47/47
f 50/50 44/44 36/36
f 212/212 219/219 205/205
f 453/453 439/439 483/483
f 438/438 439/439 453/453
f 439/439 472/472 483/483
f 439/439 451/451 472/472
f 213/213 211/211 207/207
f 213/213 207/207 214/214
f 451/451 469/469 472/472
f 472/472 469/469 482/482
f 211/211 212/212 206/206
f 211/211 206/206 207/207
f 469/469 471/471 482/482
f 211/211 218/218 212/212
f 44/44 20/20 36/36
f 440/440 438/438 441/441
f 440/440 434/434 438/438
f 434/434 437/437 438/438
f 438/438 437/437 439/439
f 437/437 451/451 439/439
f 44/44 26/26 20/20
f 442/442 434/434 440/440
f 434/434 436/436 437/437
f 26/26 17/17 20/20
f 446/446 447/447 434/434
f 446/446 434/434 442/442
f 447/447 435/435 434/434
f 434/434 435/435 436/436
f 26/26 27/27 17/17
f 27/27 48/48 18/18
f 27/27 18/18 17/17
f 458/458 457/457 446/446
f 446/446 457/457 447/447
f 457/457 459/459 447/447
f 486/486 492/492 459/459
f 486/486 459/459 457/457
f 666/666 667/667 735/735
f 492/492 487/487 459/459
f 735/735 667/667 742/742
f 667/667 681/681 742/742
f 742/742 681/681 754/754
f 48/48 51/51 18/18
f 60/60 51/51 48/48
f 212/212 218/218 219/219
f 466/466 469/469 451/451
f 466/466 467/467 469/469
f 467/467 470/470 469/469
f 469/469 470/470 471/471
f 55/55 54/54 26/26
f 55/55 26/26 44/44
f 470/470 484/484 471/471
f 437/437 466/466 451/451
f 461/461 463/463 437/437
f 437/437 463/463 466/466
f 463/463 464/464 466/466
f 466/466 464/464 467/467
f 464/464 473/473 470/470
f 464/464 470/470 467/467
f 473/473 484/484 470/470
f 460/460 462/462 461/461
f 461/461 462/462 463/463
f 462/462 468/468 464/464
f 462/462 464/464 463/463
f 468/468 473/473 464/464
f 54/54 52/52 27/27
f 54/54 27/27 26/26
f 473/473 485/485 484/484
f 448/448 465/465 462/462
f 448/448 462/462 460/460
f 465/465 474/474 468/468
f 465/465 468/468 462/462
f 474/474 485/485 473/473
f 474/474 473/473 468/468
f 27/27 52/52 48/48
f 459/459 465/465 448/448
f 474/474 489/489 485/485