mtllib new-0.mtl
v 0.011512 -0.595774 0.184342
v 0.062780 -0.595774 0.173137
v 0.026634 -0.595774 0.184342
v 0.062780 -0.540892 0.173137
v 0.026821 -0.595774 0.196220
v 0.026634 -0.540892 0.184342
v 0.026821 -0.540892 0.196220
v -0.044855 -0.595774 0.175686
v -0.024633 -0.595774 0.033801
v -0.086336 -0.558062 0.529607
v -0.024633 -0.595774 0.173137
v -0.086336 -0.625026 0.529607
v -0.063879 -0.595774 0.121600
v 0.020478 -0.530297 0.194403
v 0.023755 -0.530297 0.182422
v -0.092717 -0.546674 0.527722
v -0.036867 -0.595774 0.164657
v -0.158447 -0.614545 0.508304
v -0.127834 -0.626055 0.636627
v -0.128657 -0.550418 0.621738
v -0.036867 -0.540892 0.164657
v -0.044855 -0.540892 0.175686
v -0.059206 -0.595774 0.135321
v -0.038513 -0.530297 0.177503
v -0.152066 -0.546674 0.510189
v -0.127834 -0.561807 0.636627
v -0.136152 -0.550418 0.633583
v -0.158447 -0.558062 0.508304
v -0.187616 -0.626055 0.617903
v -0.033355 -0.530297 0.164718
v -0.177860 -0.550418 0.606327
v -0.134363 -0.561807 0.645756
v -0.059206 -0.540892 0.135321
v -0.187616 -0.561807 0.617903
v -0.127834 -0.627953 0.636627
v -0.134363 -0.626055 0.645756
v -0.174814 -0.550418 0.632927
v -0.187911 -0.626055 0.628984
v -0.134363 -0.627953 0.645756
v -0.187616 -0.627953 0.617903
v -0.141960 -0.561807 0.651138
v -0.147362 -0.550418 0.641525
v -0.179031 -0.550418 0.620153
v -0.158354 -0.550418 0.642777
v -0.187911 -0.561807 0.628984
v -0.141960 -0.627953 0.651138
v -0.141960 -0.626055 0.651138
v -0.185053 -0.561807 0.637641
v -0.166689 -0.550418 0.640167
v -0.185053 -0.626055 0.637641
v -0.187911 -0.627953 0.628984
v -0.150898 -0.627953 0.652967
v -0.150898 -0.561807 0.652967
v -0.178941 -0.561807 0.644184
v -0.185053 -0.627953 0.637641
v -0.150898 -0.626055 0.652967
v -0.178941 -0.626055 0.644184
v -0.178941 -0.627953 0.644184
vn -0.000004 -1.000000 -0.000019
vn 0.000000 -1.000000 0.000000
vn 0.296104 0.000000 0.955156
vn -0.000004 -1.000000 0.000005
vn 0.999876 0.000000 -0.015737
vn 0.946941 0.000000 0.321407
vn 0.022830 -0.996558 -0.079691
vn 0.809894 0.503563 0.300827
vn -0.115559 -0.988722 -0.095263
vn 0.796231 0.527458 0.296317
vn 0.932359 0.000000 0.361533
vn 0.800671 0.502579 0.326098
vn -0.809898 0.000000 -0.586571
vn -0.946336 0.000000 -0.323184
vn -0.126603 -0.990220 -0.058615
vn 0.000000 1.000000 0.000000
vn -0.013178 0.998918 0.044605
vn 0.806947 0.489806 0.330040
vn 0.156287 0.982749 0.098887
vn -0.809898 0.000000 -0.586570
vn -0.795589 0.000000 0.605837
vn -0.946336 0.000001 -0.323183
vn 0.030206 -0.994880 -0.096442
vn -0.012833 0.998914 0.044794
vn -0.010655 0.999293 0.036063
vn 0.813412 0.000000 0.581688
vn 0.672760 0.605141 0.425674
vn -0.018218 0.999445 0.027878
vn -0.781531 0.262347 -0.566024
vn -0.811337 0.528520 -0.249796
vn -0.966360 0.000001 -0.257192
vn -0.966361 0.000000 -0.257191
vn 0.298891 0.000000 -0.954287
vn -0.824464 0.504407 -0.256579
vn -0.788423 0.526514 -0.318075
vn -0.838897 0.504030 -0.205439
vn 0.813413 0.000000 0.581687
vn 0.650864 0.599780 0.465446
vn -0.769945 0.251846 0.586309
vn -0.836526 0.508020 -0.205280
vn -0.999648 0.000000 -0.026544
vn 0.578100 0.000000 0.815966
vn 0.416404 0.693663 0.587741
vn -0.769420 0.638416 -0.020430
vn 0.578099 0.000000 0.815967
vn 0.416405 0.693664 0.587740
vn -0.677018 0.701211 0.223493
vn -0.811894 0.579741 -0.068764
vn -0.949597 0.000000 0.313472
vn 0.200450 0.000000 0.979704
vn 0.084451 0.665823 0.741315
vn -0.532546 0.684747 0.497510
vn -0.677020 0.701210 0.223491
vn -0.475359 0.699587 0.533490
vn -0.249666 0.549777 0.797128
vn 0.141186 0.709858 0.690049
vn -0.730736 0.000000 0.682661
vn -0.249665 0.549776 0.797129
vn -0.298888 0.000000 0.954288
vn 0.000004 1.000000 0.000019
vn -0.296104 0.000000 -0.955156
vn 0.000004 1.000000 -0.000005
vn -0.999876 0.000000 0.015737
vn -0.946941 0.000000 -0.321407
vn -0.022830 0.996558 0.079691
vn -0.809894 -0.503563 -0.300827
vn 0.115559 0.988722 0.095263
vn -0.796231 -0.527458 -0.296317
vn -0.932359 0.000000 -0.361533
vn -0.800671 -0.502579 -0.326098
vn 0.809898 0.000000 0.586571
vn 0.946336 0.000000 0.323184
vn 0.126603 0.990220 0.058615
vn 0.013178 -0.998918 -0.044605
vn -0.806947 -0.489806 -0.330040
vn -0.156287 -0.982749 -0.098887
vn 0.809898 0.000000 0.586570
vn 0.795589 0.000000 -0.605837
vn 0.946336 -0.000001 0.323183
vn -0.030206 0.994880 0.096442
vn 0.012833 -0.998914 -0.044794
vn 0.010655 -0.999293 -0.036063
vn -0.813412 0.000000 -0.581688
vn -0.672760 -0.605141 -0.425674
vn 0.018218 -0.999445 -0.027878
vn 0.781531 -0.262347 0.566024
vn 0.811337 -0.528520 0.249796
vn 0.966360 -0.000001 0.257192
vn 0.966361 0.000000 0.257191
vn -0.298891 0.000000 0.954287
vn 0.824464 -0.504407 0.256579
vn 0.788423 -0.526514 0.318075
vn 0.838897 -0.504030 0.205439
vn -0.813413 0.000000 -0.581687
vn -0.650864 -0.599780 -0.465446
vn 0.769945 -0.251846 -0.586309
vn 0.836526 -0.508020 0.205280
vn 0.999648 0.000000 0.026544
vn -0.578100 0.000000 -0.815966
vn -0.416404 -0.693663 -0.587741
vn 0.769420 -0.638416 0.020430
vn -0.578099 0.000000 -0.815967
vn -0.416405 -0.693664 -0.587740
vn 0.677018 -0.701211 -0.223493
vn 0.811894 -0.579741 0.068764
vn 0.949597 0.000000 -0.313472
vn -0.200450 0.000000 -0.979704
vn -0.084451 -0.665823 -0.741315
vn 0.532546 -0.684747 -0.497510
vn 0.677020 -0.701210 -0.223491
vn 0.475359 -0.699587 -0.533490
vn 0.249666 -0.549777 -0.797128
vn -0.141186 -0.709858 -0.690049
vn 0.730736 0.000000 -0.682661
vn 0.249665 -0.549776 -0.797129
vn 0.298888 0.000000 -0.954288
usemtl material-0
f 1//1 2//1 3//1
f 4//3 3//3 2//3
f 1//4 3//4 5//4
f 6//3 3//3 4//3
f 5//5 3//5 7//5
f 8//2 1//2 5//2
f 7//5 3//5 6//5
f 10//6 5//6 7//6
f 8//2 11//2 1//2
f 12//7 8//7 5//7
f 13//2 9//2 1//2
f 12//6 5//6 10//6
f 10//8 7//8 16//8
f 8//2 17//2 11//2
f 17//2 1//2 11//2
f 18//9 8//9 12//9
f 13//2 1//2 17//2
f 16//10 7//10 14//10
f 19//11 12//11 10//11
f 20//12 10//12 16//12
f 8//13 21//13 17//13
f 18//14 22//14 8//14
f 18//15 12//15 19//15
f 24//16 14//16 15//16
f 25//17 16//17 14//17
f 19//11 10//11 26//11
f 26//18 10//18 20//18
f 27//19 20//19 16//19
f 22//20 21//20 8//20
f 21//21 23//21 17//21
f 28//22 22//22 18//22
f 29//23 18//23 19//23
f 25//24 14//24 24//24
f 24//16 15//16 30//16
f 31//25 16//25 25//25
f 32//26 19//26 26//26
f 26//27 20//27 27//27
f 31//28 27//28 16//28
f 22//29 30//29 21//29
f 21//21 33//21 23//21
f 28//30 24//30 22//30
f 34//31 28//31 18//31
f 34//32 18//32 29//32
f 19//33 35//33 29//33
f 25//34 24//34 28//34
f 24//35 30//35 22//35
f 31//36 25//36 28//36
f 36//37 19//37 32//37
f 32//38 26//38 27//38
f 31//16 37//16 27//16
f 30//39 33//39 21//39
f 34//40 31//40 28//40
f 38//41 34//41 29//41
f 39//37 35//37 19//37
f 29//33 35//33 40//33
f 39//37 19//37 36//37
f 41//42 36//42 32//42
f 42//43 32//43 27//43
f 43//16 37//16 31//16
f 37//16 44//16 27//16
f 45//44 31//44 34//44
f 45//41 34//41 38//41
f 38//41 29//41 40//41
f 40//2 35//2 39//2
f 36//45 46//45 39//45
f 41//45 47//45 36//45
f 42//46 41//46 32//46
f 44//16 42//16 27//16
f 48//47 37//47 43//47
f 45//48 43//48 31//48
f 37//16 49//16 44//16
f 50//49 45//49 38//49
f 38//41 40//41 51//41
f 40//2 39//2 52//2
f 47//45 46//45 36//45
f 52//2 39//2 46//2
f 53//50 47//50 41//50
f 44//51 41//51 42//51
f 48//52 54//52 37//52
f 45//53 48//53 43//53
f 54//54 49//54 37//54
f 49//55 54//55 44//55
f 48//49 45//49 50//49
f 50//49 38//49 51//49
f 51//2 40//2 55//2
f 40//2 52//2 55//2
f 47//50 52//50 46//50
f 53//50 56//50 47//50
f 44//56 53//56 41//56
f 54//57 48//57 57//57
f 44//58 54//58 53//58
f 57//57 48//57 50//57
f 50//49 51//49 55//49
f 55//2 52//2 58//2
f 56//50 52//50 47//50
f 53//59 57//59 56//59
f 54//59 57//59 53//59
f 57//57 50//57 55//57
f 56//59 58//59 52//59
f 57//57 55//57 58//57
f 57//59 58//59 56//59
usemtl material-1
f 3//60 2//60 1//60
f 2//61 3//61 4//61
f 5//62 3//62 1//62
f 4//61 3//61 6//61
f 7//63 3//63 5//63
f 5//16 1//16 8//16
f 6//63 3//63 7//63
f 7//64 5//64 10//64
f 1//16 11//16 8//16
f 5//65 8//65 12//65
f 1//16 9//16 13//16
f 10//64 5//64 12//64
f 16//66 7//66 10//66
f 11//16 17//16 8//16
f 11//16 1//16 17//16
f 12//67 8//67 18//67
f 17//16 1//16 13//16
f 14//68 7//68 16//68
f 10//69 12//69 19//69
f 16//70 10//70 20//70
f 17//71 21//71 8//71
f 8//72 22//72 18//72
f 19//73 12//73 18//73
f 15//2 14//2 24//2
f 14//74 16//74 25//74
f 26//69 10//69 19//69
f 20//75 10//75 26//75
f 16//76 20//76 27//76
f 8//77 21//77 22//77
f 17//78 23//78 21//78
f 18//79 22//79 28//79
f 19//80 18//80 29//80
f 24//81 14//81 25//81
f 30//2 15//2 24//2
f 25//82 16//82 31//82
f 26//83 19//83 32//83
f 27//84 20//84 26//84
f 16//85 27//85 31//85
f 21//86 30//86 22//86
f 23//78 33//78 21//78
f 22//87 24//87 28//87
f 18//88 28//88 34//88
f 29//89 18//89 34//89
f 29//90 35//90 19//90
f 28//91 24//91 25//91
f 22//92 30//92 24//92
f 28//93 25//93 31//93
f 32//94 19//94 36//94
f 27//95 26//95 32//95
f 27//2 37//2 31//2
f 21//96 33//96 30//96
f 28//97 31//97 34//97
f 29//98 34//98 38//98
f 19//94 35//94 39//94
f 40//90 35//90 29//90
f 36//94 19//94 39//94
f 32//99 36//99 41//99
f 27//100 32//100 42//100
f 31//2 37//2 43//2
f 27//2 44//2 37//2
f 34//101 31//101 45//101
f 38//98 34//98 45//98
f 40//98 29//98 38//98
f 39//16 35//16 40//16
f 39//102 46//102 36//102
f 36//102 47//102 41//102
f 32//103 41//103 42//103
f 27//2 42//2 44//2
f 43//104 37//104 48//104
f 31//105 43//105 45//105
f 44//2 49//2 37//2
f 38//106 45//106 50//106
f 51//98 40//98 38//98
f 52//16 39//16 40//16
f 36//102 46//102 47//102
f 46//16 39//16 52//16
f 41//107 47//107 53//107
f 42//108 41//108 44//108
f 37//109 54//109 48//109
f 43//110 48//110 45//110
f 37//111 49//111 54//111
f 44//112 54//112 49//112
f 50//106 45//106 48//106
f 51//106 38//106 50//106
f 55//16 40//16 51//16
f 55//16 52//16 40//16
f 46//107 52//107 47//107
f 47//107 56//107 53//107
f 41//113 53//113 44//113
f 57//114 48//114 54//114
f 53//115 54//115 44//115
f 50//114 48//114 57//114
f 55//106 51//106 50//106
f 58//16 52//16 55//16
f 47//107 52//107 56//107
f 56//116 57//116 53//116
f 53//116 57//116 54//116
f 55//114 50//114 57//114
f 52//116 58//116 56//116
f 58//114 55//114 57//114
f 56//116 58//116 57//116