mtllib new-4.mtl
v 0.011512 -0.595774 0.184342
v 0.062780 -0.595774 0.173137
v 0.097352 -0.595774 0.135321
v 0.062780 -0.540892 0.173137
v 0.075013 -0.595774 0.042281
v 0.075013 -0.595774 0.164657
v 0.026634 -0.540892 0.184342
v 0.073345 -0.594589 0.179319
v 0.026821 -0.540892 0.196220
v -0.024633 -0.595774 0.033801
v 0.102025 -0.595774 0.085338
v 0.117310 -0.595778 0.123132
v 0.063926 -0.530297 0.169969
v 0.069559 -0.538396 0.183815
v -0.063879 -0.595774 0.121600
v 0.102025 -0.595774 0.121599
v 0.366206 -0.615239 0.389084
v 0.020478 -0.530297 0.194403
v 0.023755 -0.530297 0.182422
v 0.366561 -0.558826 0.388609
v -0.036867 -0.595774 0.164657
v -0.059206 -0.595774 0.071617
v 0.113523 -0.542644 0.127627
v 0.411592 -0.613734 0.331750
v 0.040620 -0.517992 0.136568
v 0.072882 -0.527981 0.179517
v 0.370630 -0.547315 0.383465
v -0.036867 -0.595774 0.042281
v -0.059206 -0.595774 0.135321
v 0.102025 -0.540892 0.121599
v 0.476502 -0.626768 0.455839
v 0.058066 -0.517992 0.113659
v 0.020765 -0.517992 0.142723
v 0.099221 -0.530297 0.123619
v 0.468318 -0.551078 0.442914
v -0.043224 -0.595774 0.033910
v 0.411947 -0.557321 0.331276
v 0.109066 -0.531477 0.133272
v 0.513124 -0.625267 0.407503
v 0.476793 -0.562590 0.455445
v -0.033355 -0.530297 0.164718
v 0.407984 -0.546076 0.336278
v 0.023755 -0.530297 0.024515
v -0.036867 -0.540892 0.042281
v -0.043224 -0.540892 0.033910
v 0.513415 -0.561089 0.407109
v 0.513117 -0.627163 0.407513
v 0.487393 -0.626692 0.459577
v 0.058066 -0.517992 0.093740
v -0.019733 -0.517992 0.117858
v -0.007462 -0.517992 0.133973
v 0.487683 -0.562514 0.459183
v 0.495592 -0.550808 0.448485
v 0.498459 -0.549842 0.403132
v 0.520486 -0.561169 0.415887
v 0.520188 -0.627243 0.416291
v 0.476495 -0.628665 0.455849
v 0.040620 -0.517992 0.070831
v 0.481662 -0.551000 0.448306
v 0.507929 -0.549923 0.413637
v 0.019136 -0.530297 0.010346
v 0.020765 -0.517992 0.064675
v -0.033355 -0.530297 0.042219
v 0.520195 -0.625347 0.416281
v 0.487385 -0.628588 0.459587
v 0.496833 -0.626562 0.459698
v -0.007462 -0.517992 0.073426
v 0.497124 -0.562384 0.459304
v 0.510327 -0.550360 0.436647
v -0.019733 -0.517992 0.089541
v 0.523522 -0.561302 0.424461
v 0.512408 -0.550119 0.426289
v 0.522334 -0.627566 0.433542
v 0.523224 -0.627376 0.424865
v 0.496826 -0.628458 0.459708
v 0.505453 -0.562195 0.455812
v 0.505221 -0.550569 0.443386
v 0.523231 -0.625480 0.424855
v 0.505163 -0.626373 0.456206
v 0.522632 -0.561491 0.433137
v 0.505155 -0.628270 0.456215
v 0.522341 -0.625669 0.433532
vn 0.000000 -1.000000 0.000000
vn 0.000000 -1.000000 0.000001
vn -0.000014 -1.000000 -0.000013
vn -0.505027 0.000000 0.863103
vn -0.000001 -1.000000 0.000000
vn 0.000002 -1.000000 0.000000
vn -0.000431 -1.000000 -0.000330
vn 0.060482 -0.994348 0.087257
vn 0.287021 0.245789 0.925855
vn -0.829280 -0.099871 0.549836
vn -0.000289 -1.000000 -0.000099
vn -0.037441 -0.998575 -0.038028
vn -0.117648 -0.990812 0.066713
vn 0.858956 0.511871 -0.013522
vn -0.844470 0.235249 0.481174
vn -0.569433 -0.103614 0.815481
vn 0.099350 0.090918 -0.990890
vn -0.027117 -0.998494 -0.047685
vn -0.581779 0.010502 0.813279
vn 0.921352 0.296034 0.251942
vn 0.089503 0.953223 0.288714
vn -0.702874 0.451200 0.549897
vn -0.470541 0.493292 0.731610
vn 0.579286 0.109622 -0.807720
vn 0.464303 0.000000 -0.885676
vn -0.059659 -0.995519 -0.073367
vn -0.516956 0.010453 0.855948
vn 0.000000 1.000000 0.000000
vn 0.240633 0.953162 0.183241
vn -0.480849 0.461179 0.745720
vn -0.140456 0.984293 -0.106957
vn -0.438894 0.491349 0.752296
vn 0.563289 -0.010494 -0.826193
vn 0.453955 0.539634 -0.709028
vn -0.057512 -0.995562 -0.074494
vn -0.518256 0.007601 0.855192
vn 0.240633 0.953162 0.183241
vn -0.093365 0.948988 0.301172
vn 0.075762 0.996996 -0.016093
vn 0.109143 0.993973 0.010255
vn -0.438254 0.494413 0.750659
vn 0.015194 0.999152 0.038265
vn -0.796407 0.000000 0.604761
vn 0.492004 0.541147 -0.681977
vn 0.598361 -0.010504 -0.801158
vn 0.684835 0.307162 -0.660797
vn 0.597420 -0.007632 -0.801892
vn -0.797063 -0.000085 -0.603896
vn -0.324694 0.007280 0.945791
vn 0.286453 0.958094 0.000000
vn 0.000001 1.000000 0.000001
vn -0.093365 0.948988 0.301171
vn 0.020143 0.998907 0.042176
vn -0.259263 0.617461 0.742647
vn -0.021950 0.998003 0.059227
vn 0.505120 0.493103 -0.708310
vn 0.539424 0.470381 -0.698401
vn 0.778722 -0.007382 -0.627325
vn 0.778739 -0.006200 -0.627318
vn -0.797063 -0.000118 -0.603896
vn -0.324690 0.006143 0.945801
vn -0.324699 0.007279 0.945789
vn -0.000002 1.000000 0.000005
vn 0.000001 1.000000 0.000000
vn -0.313083 0.560516 0.766681
vn -0.014039 0.999693 0.020413
vn 0.014781 0.999422 0.030608
vn 0.530058 0.493539 -0.689534
vn 0.594823 0.603062 -0.531510
vn 0.778727 -0.007383 -0.627320
vn 0.626076 0.599319 -0.498844
vn 0.014039 -0.999693 -0.020412
vn 0.778738 -0.006208 -0.627319
vn -0.324698 0.006196 0.945797
vn -0.012882 0.006198 0.999898
vn 0.000000 1.000000 -0.000001
vn -0.018754 0.681391 0.731680
vn -0.018748 0.681395 0.731676
vn -0.014043 0.999693 0.020411
vn 0.106457 0.990390 -0.088282
vn -0.092375 0.950093 -0.297978
vn 0.942594 -0.006324 -0.333881
vn 0.671956 0.704928 -0.227053
vn 0.942608 -0.005304 -0.333860
vn 0.014044 -0.999693 -0.020417
vn -0.012869 0.005277 0.999903
vn -0.012875 0.006199 0.999898
vn 0.000005 1.000000 0.000000
vn 0.271841 0.676080 0.684849
vn -0.014055 0.999693 0.020396
vn -0.014027 0.999693 0.020409
vn -0.236586 0.954761 -0.180163
vn 0.671953 0.704929 -0.227056
vn 0.014061 -0.999693 -0.020415
vn 0.014042 -0.999693 -0.020406
vn 0.942604 -0.005347 -0.333869
vn -0.012855 0.005209 0.999904
vn 0.386560 0.003912 0.922256
vn 0.386562 0.003912 0.922255
vn 0.323388 0.693977 0.643286
vn 0.652100 0.559643 0.511435
vn 0.713131 0.682714 0.159202
vn 0.994781 -0.003884 0.101956
vn 0.994782 -0.003268 0.101973
vn 0.014033 -0.999693 -0.020414
vn 0.386572 0.003303 0.922253
vn 0.797065 0.000097 0.603894
vn 0.652094 0.559648 0.511437
vn 0.681714 0.726570 0.085802
vn 0.994782 -0.003883 0.101948
vn 0.994783 -0.003321 0.101960
vn 0.797065 0.000052 0.603893
vn 0.386578 0.003276 0.922251
vn 0.797064 0.000097 0.603894
vn 0.797065 0.000058 0.603894
vn 0.000014 1.000000 0.000013
vn 0.505027 0.000000 -0.863103
vn -0.000002 1.000000 0.000000
vn 0.000431 1.000000 0.000330
vn -0.060482 0.994348 -0.087257
vn -0.287021 -0.245789 -0.925855
vn 0.829280 0.099871 -0.549836
vn 0.000289 1.000000 0.000099
vn 0.037441 0.998575 0.038028
vn 0.117648 0.990812 -0.066713
vn -0.858956 -0.511871 0.013522
vn 0.844470 -0.235249 -0.481174
vn 0.569433 0.103614 -0.815481
vn -0.099350 -0.090918 0.990890
vn 0.027117 0.998494 0.047685
vn 0.581779 -0.010502 -0.813279
vn -0.921352 -0.296034 -0.251942
vn -0.089503 -0.953223 -0.288714
vn 0.702874 -0.451200 -0.549897
vn 0.470541 -0.493292 -0.731610
vn -0.579286 -0.109622 0.807720
vn -0.464303 0.000000 0.885676
vn 0.059659 0.995519 0.073367
vn 0.516956 -0.010453 -0.855948
vn -0.240633 -0.953162 -0.183241
vn 0.480849 -0.461179 -0.745720
vn 0.140456 -0.984293 0.106957
vn 0.438894 -0.491349 -0.752296
vn -0.563289 0.010494 0.826193
vn -0.453955 -0.539634 0.709028
vn 0.057512 0.995562 0.074494
vn 0.518256 -0.007601 -0.855192
vn -0.240633 -0.953162 -0.183241
vn 0.093365 -0.948988 -0.301172
vn -0.075762 -0.996996 0.016093
vn -0.109143 -0.993973 -0.010255
vn 0.438254 -0.494413 -0.750659
vn -0.015194 -0.999152 -0.038265
vn 0.796407 0.000000 -0.604761
vn -0.492004 -0.541147 0.681977
vn -0.598361 0.010504 0.801158
vn -0.684835 -0.307162 0.660797
vn -0.597420 0.007632 0.801892
vn 0.797063 0.000085 0.603896
vn 0.324694 -0.007280 -0.945791
vn -0.286453 -0.958094 0.000000
vn -0.000001 -1.000000 -0.000001
vn 0.093365 -0.948988 -0.301171
vn -0.020143 -0.998907 -0.042176
vn 0.259263 -0.617461 -0.742647
vn 0.021950 -0.998003 -0.059227
vn -0.505120 -0.493103 0.708310
vn -0.539424 -0.470381 0.698401
vn -0.778722 0.007382 0.627325
vn -0.778739 0.006200 0.627318
vn 0.797063 0.000118 0.603896
vn 0.324690 -0.006143 -0.945801
vn 0.324699 -0.007279 -0.945789
vn 0.000002 -1.000000 -0.000005
vn 0.313083 -0.560516 -0.766681
vn 0.014039 -0.999693 -0.020413
vn -0.014781 -0.999422 -0.030608
vn -0.530058 -0.493539 0.689534
vn -0.594823 -0.603062 0.531510
vn -0.778727 0.007383 0.627320
vn -0.626076 -0.599319 0.498844
vn -0.014039 0.999693 0.020412
vn -0.778738 0.006208 0.627319
vn 0.324698 -0.006196 -0.945797
vn 0.012882 -0.006198 -0.999898
vn 0.018754 -0.681391 -0.731680
vn 0.018748 -0.681395 -0.731676
vn 0.014043 -0.999693 -0.020411
vn -0.106457 -0.990390 0.088282
vn 0.092375 -0.950093 0.297978
vn -0.942594 0.006324 0.333881
vn -0.671956 -0.704928 0.227053
vn -0.942608 0.005304 0.333860
vn -0.014044 0.999693 0.020417
vn 0.012869 -0.005277 -0.999903
vn 0.012875 -0.006199 -0.999898
vn -0.000005 -1.000000 0.000000
vn -0.271841 -0.676080 -0.684849
vn 0.014055 -0.999693 -0.020396
vn 0.014027 -0.999693 -0.020409
vn 0.236586 -0.954761 0.180163
vn -0.671953 -0.704929 0.227056
vn -0.014061 0.999693 0.020415
vn -0.014042 0.999693 0.020406
vn -0.942604 0.005347 0.333869
vn 0.012855 -0.005209 -0.999904
vn -0.386560 -0.003912 -0.922256
vn -0.386562 -0.003912 -0.922255
vn -0.323388 -0.693977 -0.643286
vn -0.652100 -0.559643 -0.511435
vn -0.713131 -0.682714 -0.159202
vn -0.994781 0.003884 -0.101956
vn -0.994782 0.003268 -0.101973
vn -0.014033 0.999693 0.020414
vn -0.386572 -0.003303 -0.922253
vn -0.797065 -0.000097 -0.603894
vn -0.652094 -0.559648 -0.511437
vn -0.681714 -0.726570 -0.085802
vn -0.994782 0.003883 -0.101948
vn -0.994783 0.003321 -0.101960
vn -0.797065 -0.000052 -0.603893
vn -0.386578 -0.003276 -0.922251
vn -0.797064 -0.000097 -0.603894
vn -0.797065 -0.000058 -0.603894
usemtl material-0
f 1//1 3//1 2//1
f 1//2 5//2 3//2
f 2//3 3//3 6//3
f 4//4 2//4 8//4
f 10//5 5//5 1//5
f 5//6 11//6 3//6
f 6//7 3//7 12//7
f 2//8 6//8 8//8
f 13//9 7//9 4//9
f 14//10 4//10 8//10
f 3//1 11//1 16//1
f 3//11 16//11 12//11
f 6//12 12//12 17//12
f 8//13 6//13 17//13
f 9//14 7//14 18//14
f 19//9 7//9 13//9
f 14//15 13//15 4//15
f 14//16 8//16 20//16
f 15//1 22//1 10//1
f 23//17 12//17 16//17
f 12//18 24//18 17//18
f 20//19 8//19 17//19
f 18//20 7//20 19//20
f 19//21 13//21 25//21
f 14//22 26//22 13//22
f 14//23 20//23 27//23
f 22//1 28//1 10//1
f 15//1 21//1 29//1
f 23//24 24//24 12//24
f 30//25 23//25 16//25
f 17//26 24//26 31//26
f 20//27 17//27 31//27
f 25//29 13//29 32//29
f 33//21 19//21 25//21
f 26//30 14//30 27//30
f 13//31 26//31 34//31
f 27//32 20//32 35//32
f 36//1 10//1 28//1
f 23//33 37//33 24//33
f 38//34 23//34 30//34
f 24//35 39//35 31//35
f 20//36 31//36 40//36
f 32//37 13//37 34//37
f 33//28 25//28 32//28
f 41//38 19//38 33//38
f 26//39 27//39 38//39
f 26//40 38//40 34//40
f 35//41 20//41 40//41
f 27//42 35//42 42//42
f 28//43 45//43 36//43
f 38//44 37//44 23//44
f 37//45 46//45 24//45
f 38//46 30//46 34//46
f 46//47 39//47 24//47
f 31//48 39//48 47//48
f 40//49 31//49 48//49
f 32//50 34//50 49//50
f 50//51 33//51 32//51
f 41//52 33//52 51//52
f 38//53 27//53 42//53
f 35//54 40//54 52//54
f 42//55 35//55 53//55
f 44//43 45//43 28//43
f 38//56 42//56 37//56
f 54//57 46//57 37//57
f 55//58 39//58 46//58
f 56//59 47//59 39//59
f 57//60 31//60 47//60
f 48//61 31//61 57//61
f 52//62 40//62 48//62
f 50//63 51//63 33//63
f 50//64 32//64 58//64
f 59//65 35//65 52//65
f 35//66 59//66 53//66
f 42//67 53//67 60//67
f 42//68 54//68 37//68
f 54//69 60//69 46//69
f 64//70 39//70 55//70
f 55//71 46//71 60//71
f 57//72 47//72 56//72
f 56//73 39//73 64//73
f 48//74 57//74 65//74
f 52//75 48//75 66//75
f 50//76 58//76 67//76
f 59//77 52//77 68//77
f 53//78 59//78 68//78
f 53//79 69//79 60//79
f 42//80 60//80 54//80
f 63//28 43//28 61//28
f 67//81 62//81 43//81
f 71//82 64//82 55//82
f 60//83 72//83 55//83
f 57//72 56//72 73//72
f 74//84 56//84 64//84
f 57//85 75//85 65//85
f 66//86 48//86 65//86
f 68//87 52//87 66//87
f 67//28 58//28 62//28
f 70//88 50//88 67//88
f 53//89 68//89 76//89
f 53//90 77//90 69//90
f 60//91 69//91 72//91
f 63//81 67//81 43//81
f 63//92 70//92 67//92
f 78//82 64//82 71//82
f 72//93 71//93 55//93
f 56//94 74//94 73//94
f 57//95 73//95 75//95
f 74//96 64//96 78//96
f 66//97 65//97 75//97
f 68//98 66//98 79//98
f 76//99 68//99 79//99
f 53//100 76//100 77//100
f 76//101 69//101 77//101
f 69//102 71//102 72//102
f 80//103 78//103 71//103
f 73//104 74//104 78//104
f 75//105 73//105 81//105
f 79//106 66//106 75//106
f 79//107 80//107 76//107
f 76//108 80//108 69//108
f 69//109 80//109 71//109
f 82//110 78//110 80//110
f 73//111 78//111 82//111
f 81//112 73//112 82//112
f 79//113 75//113 81//113
f 79//114 82//114 80//114
f 81//115 82//115 79//115
usemtl material-1
f 2//28 3//28 1//28
f 3//76 5//76 1//76
f 6//116 3//116 2//116
f 8//117 2//117 4//117
f 1//64 5//64 10//64
f 3//118 11//118 5//118
f 12//119 3//119 6//119
f 8//120 6//120 2//120
f 4//121 7//121 13//121
f 8//122 4//122 14//122
f 16//28 11//28 3//28
f 12//123 16//123 3//123
f 17//124 12//124 6//124
f 17//125 6//125 8//125
f 18//126 7//126 9//126
f 13//121 7//121 19//121
f 4//127 13//127 14//127
f 20//128 8//128 14//128
f 10//28 22//28 15//28
f 16//129 12//129 23//129
f 17//130 24//130 12//130
f 17//131 8//131 20//131
f 19//132 7//132 18//132
f 25//133 13//133 19//133
f 13//134 26//134 14//134
f 27//135 20//135 14//135
f 10//28 28//28 22//28
f 29//28 21//28 15//28
f 12//136 24//136 23//136
f 16//137 23//137 30//137
f 31//138 24//138 17//138
f 31//139 17//139 20//139
f 32//140 13//140 25//140
f 25//133 19//133 33//133
f 27//141 14//141 26//141
f 34//142 26//142 13//142
f 35//143 20//143 27//143
f 28//28 10//28 36//28
f 24//144 37//144 23//144
f 30//145 23//145 38//145
f 31//146 39//146 24//146
f 40//147 31//147 20//147
f 34//148 13//148 32//148
f 32//1 25//1 33//1
f 33//149 19//149 41//149
f 38//150 27//150 26//150
f 34//151 38//151 26//151
f 40//152 20//152 35//152
f 42//153 35//153 27//153
f 36//154 45//154 28//154
f 23//155 37//155 38//155
f 24//156 46//156 37//156
f 34//157 30//157 38//157
f 24//158 39//158 46//158
f 47//159 39//159 31//159
f 48//160 31//160 40//160
f 49//161 34//161 32//161
f 32//162 33//162 50//162
f 51//163 33//163 41//163
f 42//164 27//164 38//164
f 52//165 40//165 35//165
f 53//166 35//166 42//166
f 28//154 45//154 44//154
f 37//167 42//167 38//167
f 37//168 46//168 54//168
f 46//169 39//169 55//169
f 39//170 47//170 56//170
f 47//171 31//171 57//171
f 57//172 31//172 48//172
f 48//173 40//173 52//173
f 33//174 51//174 50//174
f 58//5 32//5 50//5
f 52//175 35//175 59//175
f 53//176 59//176 35//176
f 60//177 53//177 42//177
f 37//178 54//178 42//178
f 46//179 60//179 54//179
f 55//180 39//180 64//180
f 60//181 46//181 55//181
f 56//182 47//182 57//182
f 64//183 39//183 56//183
f 65//184 57//184 48//184
f 66//185 48//185 52//185
f 67//2 58//2 50//2
f 68//186 52//186 59//186
f 68//187 59//187 53//187
f 60//188 69//188 53//188
f 54//189 60//189 42//189
f 61//1 43//1 63//1
f 43//190 62//190 67//190
f 55//191 64//191 71//191
f 55//192 72//192 60//192
f 73//182 56//182 57//182
f 64//193 56//193 74//193
f 65//194 75//194 57//194
f 65//195 48//195 66//195
f 66//196 52//196 68//196
f 62//1 58//1 67//1
f 67//197 50//197 70//197
f 76//198 68//198 53//198
f 69//199 77//199 53//199
f 72//200 69//200 60//200
f 43//190 67//190 63//190
f 67//201 70//201 63//201
f 71//191 64//191 78//191
f 55//202 71//202 72//202
f 73//203 74//203 56//203
f 75//204 73//204 57//204
f 78//205 64//205 74//205
f 75//206 65//206 66//206
f 79//207 66//207 68//207
f 79//208 68//208 76//208
f 77//209 76//209 53//209
f 77//210 69//210 76//210
f 72//211 71//211 69//211
f 71//212 78//212 80//212
f 78//213 74//213 73//213
f 81//214 73//214 75//214
f 75//215 66//215 79//215
f 76//216 80//216 79//216
f 69//217 80//217 76//217
f 71//218 80//218 69//218
f 80//219 78//219 82//219
f 82//220 78//220 73//220
f 82//221 73//221 81//221
f 81//222 75//222 79//222
f 80//223 82//223 79//223
f 79//224 82//224 81//224