mtllib new-3.mtl
v 0.075013 -0.595774 0.042281
v 0.102025 -0.595774 0.085338
v 0.026634 -0.595774 0.022595
v 0.097352 -0.595774 0.071617
v 0.102025 -0.595774 0.121599
v 0.062780 -0.595774 0.033801
v 0.108457 -0.595774 0.073295
v 0.102025 -0.540892 0.085338
v 0.026634 -0.540892 0.022595
v 0.076772 -0.595774 0.031686
v 0.365724 -0.615251 -0.181697
v 0.102025 -0.540892 0.121599
v 0.058066 -0.517992 0.113659
v 0.099221 -0.530297 0.123619
v 0.062780 -0.540892 0.033801
v 0.076772 -0.540892 0.031686
v 0.412050 -0.613720 -0.125333
v 0.108457 -0.540892 0.073295
v 0.099221 -0.530297 0.083319
v 0.023755 -0.530297 0.024515
v 0.469230 -0.626779 -0.246049
v 0.412411 -0.557308 -0.124851
v 0.058066 -0.517992 0.093740
v 0.079575 -0.530297 0.035368
v 0.063926 -0.530297 0.036969
v 0.366085 -0.558839 -0.181215
v 0.469523 -0.562602 -0.245649
v 0.505517 -0.625255 -0.197832
v 0.105653 -0.530297 0.069613
v 0.040620 -0.517992 0.070831
v 0.370238 -0.547326 -0.176155
v 0.020765 -0.517992 0.064675
v 0.480383 -0.562524 -0.249418
v 0.469223 -0.628675 -0.246059
v 0.505810 -0.561079 -0.197432
v 0.408366 -0.546066 -0.129766
v 0.461035 -0.551087 -0.233095
v 0.480090 -0.626701 -0.249818
v 0.474345 -0.551009 -0.238525
v 0.480083 -0.628597 -0.249828
v 0.505509 -0.627152 -0.197842
v 0.512593 -0.625337 -0.206630
v 0.490899 -0.549833 -0.193411
v 0.489786 -0.562392 -0.249567
v 0.488219 -0.550814 -0.238745
v 0.512886 -0.561160 -0.206230
v 0.504882 -0.550115 -0.216604
v 0.489493 -0.626569 -0.249967
v 0.489485 -0.628465 -0.249977
v 0.497789 -0.550571 -0.233676
v 0.497768 -0.628274 -0.246510
v 0.512586 -0.627233 -0.206640
v 0.515649 -0.625471 -0.215210
v 0.500371 -0.549916 -0.203942
v 0.498068 -0.562201 -0.246100
v 0.515642 -0.627367 -0.215220
v 0.515942 -0.561294 -0.214810
v 0.502848 -0.550359 -0.226953
v 0.497775 -0.626378 -0.246500
v 0.514789 -0.627560 -0.223892
v 0.514796 -0.625663 -0.223882
v 0.515089 -0.561487 -0.223482
vn 0.000000 -1.000000 0.000000
vn 0.000005 -1.000000 -0.000002
vn 0.000007 -1.000000 -0.000018
vn 0.000000 -1.000000 0.000002
vn 1.000000 0.000000 0.000000
vn 0.296103 0.000000 -0.955156
vn -0.000005 -1.000000 -0.000001
vn -0.036541 -0.998555 0.039405
vn 0.882095 0.000000 0.471072
vn 0.000000 1.000000 0.000000
vn -0.149415 0.000000 -0.988775
vn -0.076591 -0.996982 -0.012714
vn -0.026842 -0.998429 0.049181
vn 0.966725 0.255819 0.000000
vn -0.594048 0.000000 -0.804430
vn -0.062222 -0.994997 0.078167
vn 0.547017 -0.010655 0.837054
vn 0.546102 0.000000 0.837718
vn 0.839345 0.307537 0.448242
vn 0.966724 0.255820 0.000000
vn 0.286453 0.958094 0.000000
vn -0.139525 0.357780 -0.923324
vn 0.287020 0.245789 -0.925855
vn -0.592235 0.010676 -0.805695
vn -0.527360 0.007702 -0.849607
vn -0.062140 -0.994999 0.078206
vn 0.612044 -0.010675 0.790752
vn 0.515616 0.399795 0.757829
vn 0.844214 0.361065 0.396151
vn -0.523860 0.399970 -0.752060
vn -0.097229 0.294767 -0.950610
vn 0.088589 0.954196 -0.285765
vn -0.495609 0.493025 -0.715051
vn -0.528423 0.010637 -0.848915
vn -0.327933 0.007384 -0.944672
vn -0.799009 -0.000103 0.601319
vn 0.613401 -0.007722 0.789734
vn 0.496745 0.491481 0.715325
vn 0.239067 0.953785 -0.182049
vn 0.037655 0.998879 -0.028674
vn 0.088589 0.954196 -0.285764
vn -0.448404 0.490217 -0.747410
vn -0.449261 0.486072 -0.749599
vn -0.270101 0.583110 -0.766178
vn -0.327927 0.006237 -0.944682
vn -0.799010 -0.000090 0.601318
vn 0.779159 -0.007463 0.626782
vn 0.548965 0.484276 0.681259
vn 0.545388 0.492701 0.678083
vn 0.022162 0.998726 -0.045343
vn -0.091505 0.973364 -0.210213
vn -0.308585 0.587833 -0.747815
vn -0.015892 0.006303 -0.999854
vn -0.327928 0.006230 -0.944682
vn -0.021130 0.681167 -0.731823
vn 0.014366 -0.999681 0.020777
vn 0.779170 -0.006306 0.626781
vn 0.779166 -0.007461 0.626773
vn 0.606695 0.632023 0.482150
vn 0.015104 0.999103 -0.039553
vn 0.005951 0.998779 -0.049042
vn -0.015888 0.006303 -0.999854
vn -0.015882 0.005312 -0.999860
vn -0.014364 0.999681 -0.020785
vn 0.014366 -0.999681 0.020776
vn 0.779174 -0.006346 0.626776
vn 0.941966 -0.006390 0.335647
vn 0.612725 0.570781 0.546605
vn 0.020839 0.999783 0.000446
vn -0.014365 0.999681 -0.020778
vn 0.386025 0.003986 -0.922480
vn -0.015875 0.005351 -0.999860
vn 0.335407 0.667114 -0.665178
vn 0.014363 -0.999681 0.020792
vn 0.014370 -0.999681 0.020776
vn 0.014350 -0.999681 0.020765
vn 0.941976 -0.005447 0.335635
vn 0.941963 -0.006391 0.335657
vn 0.673399 0.702958 0.228874
vn -0.014350 0.999681 -0.020767
vn -0.014380 0.999681 -0.020772
vn 0.386021 0.003986 -0.922481
vn 0.258667 0.708106 -0.657022
vn 0.386039 0.003400 -0.922476
vn 0.014351 -0.999681 0.020787
vn 0.941975 -0.005433 0.335638
vn 0.995198 -0.003933 -0.097802
vn 0.673400 0.702956 0.228878
vn 0.688084 0.709541 -0.151957
vn 0.653426 0.559911 -0.509446
vn 0.799010 0.000100 -0.601318
vn 0.386034 0.003374 -0.922478
vn 0.653425 0.559915 -0.509441
vn 0.799010 0.000090 -0.601318
vn 0.995200 -0.003305 -0.097806
vn 0.995199 -0.003353 -0.097815
vn 0.995198 -0.003934 -0.097799
vn 0.715104 0.693741 -0.085736
vn 0.799010 0.000093 -0.601318
vn 0.799011 0.000100 -0.601317
vn -1.000000 0.000000 0.000000
vn -0.000005 1.000000 0.000002
vn -0.000007 1.000000 0.000018
vn 0.000000 1.000000 -0.000002
vn -0.296103 0.000000 0.955156
vn 0.000005 1.000000 0.000001
vn 0.036541 0.998555 -0.039405
vn -0.882095 0.000000 -0.471072
vn 0.149415 0.000000 0.988775
vn 0.076591 0.996982 0.012714
vn 0.026842 0.998429 -0.049181
vn -0.966725 -0.255819 0.000000
vn 0.594048 0.000000 0.804430
vn 0.062222 0.994997 -0.078167
vn -0.547017 0.010655 -0.837054
vn -0.546102 0.000000 -0.837718
vn -0.839345 -0.307537 -0.448242
vn -0.966724 -0.255820 0.000000
vn -0.286453 -0.958094 0.000000
vn 0.139525 -0.357780 0.923324
vn -0.287020 -0.245789 0.925855
vn 0.592235 -0.010676 0.805695
vn 0.527360 -0.007702 0.849607
vn 0.062140 0.994999 -0.078206
vn -0.612044 0.010675 -0.790752
vn -0.515616 -0.399795 -0.757829
vn -0.844214 -0.361065 -0.396151
vn 0.523860 -0.399970 0.752060
vn 0.097229 -0.294767 0.950610
vn -0.088589 -0.954196 0.285765
vn 0.495609 -0.493025 0.715051
vn 0.528423 -0.010637 0.848915
vn 0.327933 -0.007384 0.944672
vn 0.799009 0.000103 -0.601319
vn -0.613401 0.007722 -0.789734
vn -0.496745 -0.491481 -0.715325
vn -0.239067 -0.953785 0.182049
vn -0.037655 -0.998879 0.028674
vn -0.088589 -0.954196 0.285764
vn 0.448404 -0.490217 0.747410
vn 0.449261 -0.486072 0.749599
vn 0.270101 -0.583110 0.766178
vn 0.327927 -0.006237 0.944682
vn -0.779159 0.007463 -0.626782
vn -0.548965 -0.484276 -0.681259
vn -0.545388 -0.492701 -0.678083
vn -0.022162 -0.998726 0.045343
vn 0.091505 -0.973364 0.210213
vn 0.308585 -0.587833 0.747815
vn 0.015892 -0.006303 0.999854
vn 0.327928 -0.006230 0.944682
vn 0.021130 -0.681167 0.731823
vn -0.014366 0.999681 -0.020777
vn -0.779170 0.006306 -0.626781
vn -0.779166 0.007461 -0.626773
vn -0.606695 -0.632023 -0.482150
vn -0.015104 -0.999103 0.039553
vn -0.005951 -0.998779 0.049042
vn 0.015888 -0.006303 0.999854
vn 0.015882 -0.005312 0.999860
vn 0.014364 -0.999681 0.020785
vn -0.014366 0.999681 -0.020776
vn -0.779174 0.006346 -0.626776
vn -0.941966 0.006390 -0.335647
vn -0.612725 -0.570781 -0.546605
vn -0.020839 -0.999783 -0.000446
vn 0.014365 -0.999681 0.020778
vn -0.386025 -0.003986 0.922480
vn 0.015875 -0.005351 0.999860
vn -0.335407 -0.667114 0.665178
vn -0.014363 0.999681 -0.020792
vn -0.014370 0.999681 -0.020776
vn -0.014350 0.999681 -0.020765
vn -0.941976 0.005447 -0.335635
vn -0.941963 0.006391 -0.335657
vn -0.673399 -0.702958 -0.228874
vn 0.014350 -0.999681 0.020767
vn 0.014380 -0.999681 0.020772
vn -0.386021 -0.003986 0.922481
vn -0.258667 -0.708106 0.657022
vn -0.386039 -0.003400 0.922476
vn -0.014351 0.999681 -0.020787
vn -0.941975 0.005433 -0.335638
vn -0.995198 0.003933 0.097802
vn -0.673400 -0.702956 -0.228878
vn -0.688084 -0.709541 0.151957
vn -0.653426 -0.559911 0.509446
vn -0.799010 -0.000100 0.601318
vn -0.386034 -0.003374 0.922478
vn -0.653425 -0.559915 0.509441
vn -0.995200 0.003305 0.097806
vn -0.995199 0.003353 0.097815
vn -0.995198 0.003934 0.097799
vn -0.715104 -0.693741 0.085736
vn -0.799010 -0.000093 0.601318
vn -0.799011 -0.000100 0.601317
usemtl material-0
f 1//2 4//2 2//2
f 3//3 6//3 1//3
f 1//4 7//4 4//4
f 4//1 7//1 2//1
f 5//5 2//5 8//5
f 9//6 6//6 3//6
f 6//7 10//7 1//7
f 1//8 11//8 7//8
f 2//9 7//9 8//9
f 5//5 8//5 12//5
f 15//6 6//6 9//6
f 16//11 10//11 6//11
f 1//12 10//12 11//12
f 7//13 11//13 17//13
f 8//9 7//9 18//9
f 12//14 8//14 19//14
f 16//11 6//11 15//11
f 16//15 11//15 10//15
f 11//16 21//16 17//16
f 22//17 7//17 17//17
f 18//18 7//18 22//18
f 8//19 18//19 19//19
f 14//20 12//20 19//20
f 24//22 16//22 15//22
f 25//23 15//23 20//23
f 16//24 26//24 11//24
f 27//25 21//25 11//25
f 17//26 21//26 28//26
f 22//27 17//27 28//27
f 29//28 18//28 22//28
f 19//29 18//29 29//29
f 23//21 14//21 19//21
f 30//10 13//10 23//10
f 24//30 31//30 16//30
f 24//31 15//31 25//31
f 32//32 25//32 20//32
f 16//33 31//33 26//33
f 26//34 27//34 11//34
f 33//35 21//35 27//35
f 28//36 21//36 34//36
f 22//37 28//37 35//37
f 29//38 22//38 36//38
f 25//10 19//10 29//10
f 30//39 23//39 19//39
f 24//40 29//40 31//40
f 25//10 29//10 24//10
f 32//41 30//41 25//41
f 31//42 37//42 26//42
f 37//43 27//43 26//43
f 33//35 38//35 21//35
f 39//44 33//44 27//44
f 21//45 40//45 34//45
f 28//46 34//46 41//46
f 35//47 28//47 42//47
f 43//48 22//48 35//48
f 36//49 22//49 43//49
f 29//50 36//50 31//50
f 30//39 19//39 25//39
f 31//51 39//51 37//51
f 39//52 27//52 37//52
f 44//53 38//53 33//53
f 38//54 40//54 21//54
f 45//55 33//55 39//55
f 34//56 40//56 41//56
f 28//57 41//57 42//57
f 35//58 42//58 46//58
f 43//59 35//59 46//59
f 31//60 36//60 43//60
f 31//61 47//61 39//61
f 44//62 48//62 38//62
f 45//55 44//55 33//55
f 38//63 49//63 40//63
f 39//64 50//64 45//64
f 40//65 51//65 41//65
f 41//66 52//66 42//66
f 46//67 42//67 53//67
f 43//68 46//68 54//68
f 31//69 43//69 47//69
f 39//70 47//70 50//70
f 55//71 48//71 44//71
f 48//72 49//72 38//72
f 45//73 50//73 44//73
f 40//74 49//74 51//74
f 51//75 56//75 41//75
f 41//76 56//76 52//76
f 42//77 52//77 53//77
f 46//78 53//78 57//78
f 54//79 46//79 57//79
f 43//80 54//80 47//80
f 50//81 47//81 58//81
f 55//82 59//82 48//82
f 44//83 50//83 55//83
f 48//84 51//84 49//84
f 51//85 60//85 56//85
f 52//86 56//86 53//86
f 57//87 53//87 61//87
f 54//88 57//88 47//88
f 58//89 47//89 62//89
f 62//90 50//90 58//90
f 61//91 59//91 55//91
f 59//92 51//92 48//92
f 62//93 55//93 50//93
f 60//94 51//94 59//94
f 56//95 60//95 61//95
f 53//96 56//96 61//96
f 57//97 61//97 62//97
f 57//98 62//98 47//98
f 61//99 60//99 59//99
f 62//100 61//100 55//100
usemtl material-1
f 2//102 4//102 1//102
f 1//103 6//103 3//103
f 4//104 7//104 1//104
f 2//10 7//10 4//10
f 8//101 2//101 5//101
f 3//105 6//105 9//105
f 1//106 10//106 6//106
f 7//107 11//107 1//107
f 8//108 7//108 2//108
f 12//101 8//101 5//101
f 9//105 6//105 15//105
f 6//109 10//109 16//109
f 11//110 10//110 1//110
f 17//111 11//111 7//111
f 18//108 7//108 8//108
f 19//112 8//112 12//112
f 15//109 6//109 16//109
f 10//113 11//113 16//113
f 17//114 21//114 11//114
f 17//115 7//115 22//115
f 22//116 7//116 18//116
f 19//117 18//117 8//117
f 19//118 12//118 14//118
f 15//120 16//120 24//120
f 20//121 15//121 25//121
f 11//122 26//122 16//122
f 11//123 21//123 27//123
f 28//124 21//124 17//124
f 28//125 17//125 22//125
f 22//126 18//126 29//126
f 29//127 18//127 19//127
f 19//119 14//119 23//119
f 23//1 13//1 30//1
f 16//128 31//128 24//128
f 25//129 15//129 24//129
f 20//130 25//130 32//130
f 26//131 31//131 16//131
f 11//132 27//132 26//132
f 27//133 21//133 33//133
f 34//134 21//134 28//134
f 35//135 28//135 22//135
f 36//136 22//136 29//136
f 29//1 19//1 25//1
f 19//137 23//137 30//137
f 31//138 29//138 24//138
f 24//1 29//1 25//1
f 25//139 30//139 32//139
f 26//140 37//140 31//140
f 26//141 27//141 37//141
f 21//133 38//133 33//133
f 27//142 33//142 39//142
f 34//143 40//143 21//143
f 41//94 34//94 28//94
f 42//144 28//144 35//144
f 35//145 22//145 43//145
f 43//146 22//146 36//146
f 31//147 36//147 29//147
f 25//137 19//137 30//137
f 37//148 39//148 31//148
f 37//149 27//149 39//149
f 33//150 38//150 44//150
f 21//151 40//151 38//151
f 39//152 33//152 45//152
f 41//153 40//153 34//153
f 42//154 41//154 28//154
f 46//155 42//155 35//155
f 46//156 35//156 43//156
f 43//157 36//157 31//157
f 39//158 47//158 31//158
f 38//159 48//159 44//159
f 33//152 44//152 45//152
f 40//160 49//160 38//160
f 45//161 50//161 39//161
f 41//162 51//162 40//162
f 42//163 52//163 41//163
f 53//164 42//164 46//164
f 54//165 46//165 43//165
f 47//166 43//166 31//166
f 50//167 47//167 39//167
f 44//168 48//168 55//168
f 38//169 49//169 48//169
f 44//170 50//170 45//170
f 51//171 49//171 40//171
f 41//172 56//172 51//172
f 52//173 56//173 41//173
f 53//174 52//174 42//174
f 57//175 53//175 46//175
f 57//176 46//176 54//176
f 47//177 54//177 43//177
f 58//178 47//178 50//178
f 48//179 59//179 55//179
f 55//180 50//180 44//180
f 49//181 51//181 48//181
f 56//182 60//182 51//182
f 53//183 56//183 52//183
f 61//184 53//184 57//184
f 47//185 57//185 54//185
f 62//186 47//186 58//186
f 58//187 50//187 62//187
f 55//188 59//188 61//188
f 48//189 51//189 59//189
f 50//190 55//190 62//190
f 59//46 51//46 60//46
f 61//191 60//191 56//191
f 61//192 56//192 53//192
f 62//193 61//193 57//193
f 47//194 62//194 57//194
f 59//195 60//195 61//195
f 55//196 61//196 62//196