mtllib new-2.mtl
v 0.075013 -0.595774 0.042281
v -0.024633 -0.595774 0.033801
v 0.026634 -0.595774 0.022595
v 0.011512 -0.595774 0.022595
v 0.025189 -0.595774 0.008059
v 0.026634 -0.540892 0.022595
v -0.043224 -0.595774 0.033910
v 0.062780 -0.540892 0.033801
v -0.158754 -0.614545 -0.299055
v 0.025189 -0.540892 0.008059
v 0.023755 -0.530297 0.024515
v -0.036867 -0.540892 0.042281
v -0.043224 -0.540892 0.033910
v -0.086078 -0.616161 -0.325187
v -0.158754 -0.558062 -0.299055
v -0.135322 -0.626055 -0.445819
v -0.193927 -0.626055 -0.426726
v -0.086078 -0.558062 -0.325187
v 0.019136 -0.530297 0.010346
v -0.033355 -0.530297 0.042219
v -0.037170 -0.530297 0.031622
v -0.152323 -0.546674 -0.301368
v -0.135322 -0.561807 -0.445819
v -0.193927 -0.561807 -0.426726
v -0.184443 -0.550418 -0.415240
v -0.193927 -0.627953 -0.426726
v -0.141661 -0.626055 -0.454885
v -0.194155 -0.561807 -0.437783
v -0.136209 -0.550418 -0.430955
v -0.092509 -0.546674 -0.322875
v -0.185513 -0.550418 -0.429030
v -0.194155 -0.627953 -0.437783
v -0.135322 -0.627953 -0.445819
v -0.141661 -0.561807 -0.454885
v -0.194155 -0.626055 -0.437783
v -0.141661 -0.627953 -0.454885
v -0.149066 -0.626055 -0.460204
v -0.181317 -0.550418 -0.441806
v -0.191311 -0.561807 -0.446441
v -0.143479 -0.550418 -0.442724
v -0.154405 -0.550418 -0.450574
v -0.191311 -0.627953 -0.446441
v -0.185294 -0.627953 -0.453012
v -0.149066 -0.627953 -0.460204
v -0.149066 -0.561807 -0.460204
v -0.173326 -0.550418 -0.449086
v -0.191311 -0.626055 -0.446441
v -0.157803 -0.626055 -0.461968
v -0.185294 -0.561807 -0.453012
v -0.165155 -0.550418 -0.451748
v -0.157803 -0.627953 -0.461968
v -0.157803 -0.561807 -0.461968
v -0.185294 -0.626055 -0.453012
vn 0.000000 -1.000000 0.000000
vn -0.000001 -1.000000 0.000002
vn -0.000004 -1.000000 -0.000014
vn -0.000004 -1.000000 -0.000004
vn 0.000000 1.000000 0.000000
vn 0.995099 0.000000 -0.098881
vn 0.018807 -0.998584 0.049771
vn 0.287020 0.245788 -0.925855
vn -0.000215 -0.998129 0.061136
vn -0.944746 0.000000 0.327802
vn 0.948525 0.000000 -0.316702
vn 0.956147 0.277048 -0.095009
vn 0.006302 -0.996840 0.079183
vn -0.964081 0.000000 0.265608
vn 0.811611 0.520853 -0.264573
vn -0.687237 0.505338 0.521861
vn -0.818132 0.514228 0.257352
vn 0.026851 -0.996236 0.082417
vn 0.925829 0.000000 -0.377943
vn 0.925829 0.000000 -0.377942
vn 0.801051 0.521242 -0.294320
vn -0.897703 0.299455 0.323196
vn -0.814472 0.520648 0.256050
vn -0.830394 0.513032 0.217358
vn 0.309770 0.000000 0.950812
vn 0.819549 0.000000 -0.573010
vn -0.846969 0.484378 0.219137
vn -0.999789 0.000000 0.020550
vn 0.793487 0.505029 -0.339594
vn 0.805116 0.514528 -0.295039
vn -0.015712 0.998921 -0.043696
vn -0.158782 0.987237 0.012323
vn 0.819547 0.000000 -0.573013
vn -0.796724 0.601171 0.061836
vn -0.802576 0.596321 0.016496
vn 0.636306 0.630225 -0.444894
vn 0.788969 0.513892 -0.336812
vn -0.016466 0.998914 -0.043578
vn -0.010871 0.999484 -0.030233
vn -0.001133 0.999578 -0.029025
vn 0.583428 0.000001 -0.812165
vn -0.685107 0.692814 -0.225028
vn -0.950062 0.000000 -0.312062
vn 0.698008 0.571763 -0.431129
vn 0.583428 0.000000 -0.812165
vn 0.583432 0.000000 -0.812162
vn -0.685107 0.692812 -0.225033
vn 0.420810 0.692658 -0.585785
vn 0.197911 0.000000 -0.980220
vn -0.502621 0.665598 -0.551681
vn -0.737494 0.000000 -0.675354
vn 0.420809 0.692658 -0.585785
vn -0.737492 0.000000 -0.675356
vn 0.197906 0.000001 -0.980221
vn -0.519461 0.709844 -0.475692
vn 0.145522 0.677730 -0.720767
vn 0.078278 0.693354 -0.716333
vn -0.259337 0.546900 -0.796018
vn -0.309770 0.000000 -0.950811
vn -0.309769 0.000001 -0.950812
vn -0.259338 0.546899 -0.796018
vn 0.000001 1.000000 -0.000002
vn 0.000004 1.000000 0.000014
vn 0.000004 1.000000 0.000004
vn -0.995099 0.000000 0.098881
vn -0.018807 0.998584 -0.049771
vn -0.287020 -0.245788 0.925855
vn 0.000215 0.998129 -0.061136
vn 0.944746 0.000000 -0.327802
vn -0.948525 0.000000 0.316702
vn -0.956147 -0.277048 0.095009
vn -0.006302 0.996840 -0.079183
vn 0.964081 0.000000 -0.265608
vn -0.811611 -0.520853 0.264573
vn 0.687237 -0.505338 -0.521861
vn 0.818132 -0.514228 -0.257352
vn -0.026851 0.996236 -0.082417
vn -0.925829 0.000000 0.377943
vn -0.925829 0.000000 0.377942
vn -0.801051 -0.521242 0.294320
vn 0.897703 -0.299455 -0.323196
vn 0.814472 -0.520648 -0.256050
vn 0.830394 -0.513032 -0.217358
vn -0.309770 0.000000 -0.950812
vn -0.819549 0.000000 0.573010
vn 0.846969 -0.484378 -0.219137
vn 0.999789 0.000000 -0.020550
vn -0.793487 -0.505029 0.339594
vn -0.805116 -0.514528 0.295039
vn 0.015712 -0.998921 0.043696
vn 0.158782 -0.987237 -0.012323
vn -0.819547 0.000000 0.573013
vn 0.796724 -0.601171 -0.061836
vn 0.802576 -0.596321 -0.016496
vn -0.636306 -0.630225 0.444894
vn -0.788969 -0.513892 0.336812
vn 0.016466 -0.998914 0.043578
vn 0.010871 -0.999484 0.030233
vn 0.001133 -0.999578 0.029025
vn -0.583428 -0.000001 0.812165
vn 0.685107 -0.692814 0.225028
vn 0.950062 0.000000 0.312062
vn -0.698008 -0.571763 0.431129
vn -0.583428 0.000000 0.812165
vn -0.583432 0.000000 0.812162
vn 0.685107 -0.692812 0.225033
vn -0.420810 -0.692658 0.585785
vn -0.197911 0.000000 0.980220
vn 0.502621 -0.665598 0.551681
vn 0.737494 0.000000 0.675354
vn -0.420809 -0.692658 0.585785
vn 0.737492 0.000000 0.675356
vn -0.197906 -0.000001 0.980221
vn 0.519461 -0.709844 0.475692
vn -0.145522 -0.677730 0.720767
vn -0.078278 -0.693354 0.716333
vn 0.259337 -0.546900 0.796018
vn 0.309770 0.000000 0.950811
vn 0.309769 -0.000001 0.950812
vn 0.259338 -0.546899 0.796018
usemtl material-0
f 2//2 3//2 1//2
f 2//3 4//3 3//3
f 2//1 5//1 4//1
f 4//4 5//4 3//4
f 7//1 5//1 2//1
f 3//6 5//6 6//6
f 9//7 5//7 7//7
f 6//6 5//6 10//6
f 11//8 8//8 6//8
f 9//9 14//9 5//9
f 7//10 15//10 9//10
f 5//11 14//11 10//11
f 11//12 6//12 10//12
f 13//10 15//10 7//10
f 9//13 16//13 14//13
f 15//14 17//14 9//14
f 10//11 14//11 18//11
f 11//15 10//15 19//15
f 12//16 21//16 13//16
f 13//17 22//17 15//17
f 17//18 16//18 9//18
f 14//19 16//19 23//19
f 15//14 24//14 17//14
f 14//20 23//20 18//20
f 19//21 10//21 18//21
f 12//22 20//22 21//22
f 13//23 21//23 22//23
f 15//24 22//24 25//24
f 17//25 26//25 16//25
f 16//26 27//26 23//26
f 15//27 25//27 24//27
f 24//28 28//28 17//28
f 18//29 23//29 29//29
f 19//30 18//30 30//30
f 21//5 20//5 19//5
f 22//31 21//31 30//31
f 31//32 25//32 22//32
f 17//28 32//28 26//28
f 16//25 26//25 33//25
f 33//26 27//26 16//26
f 23//33 27//33 34//33
f 25//34 31//34 24//34
f 24//35 31//35 28//35
f 17//28 28//28 35//28
f 29//36 23//36 34//36
f 30//37 18//37 29//37
f 30//38 21//38 19//38
f 22//39 30//39 29//39
f 31//40 22//40 29//40
f 17//28 35//28 32//28
f 32//1 33//1 26//1
f 33//26 36//26 27//26
f 34//41 27//41 37//41
f 28//42 31//42 38//42
f 28//43 39//43 35//43
f 29//44 34//44 40//44
f 31//5 29//5 41//5
f 35//43 42//43 32//43
f 32//1 43//1 33//1
f 44//1 36//1 33//1
f 27//45 36//45 37//45
f 34//46 37//46 45//46
f 31//5 46//5 38//5
f 28//47 38//47 39//47
f 35//43 39//43 47//43
f 45//48 40//48 34//48
f 41//5 29//5 40//5
f 31//5 41//5 46//5
f 35//43 47//43 42//43
f 32//1 42//1 43//1
f 43//1 44//1 33//1
f 37//45 36//45 44//45
f 45//49 37//49 48//49
f 39//50 38//50 46//50
f 39//51 49//51 47//51
f 41//52 40//52 45//52
f 46//5 41//5 50//5
f 47//53 43//53 42//53
f 43//1 51//1 44//1
f 37//49 44//49 48//49
f 45//54 48//54 52//54
f 39//55 46//55 49//55
f 47//53 49//53 53//53
f 41//56 45//56 52//56
f 41//57 52//57 50//57
f 50//58 52//58 46//58
f 47//53 53//53 43//53
f 53//59 51//59 43//59
f 48//49 44//49 51//49
f 52//60 48//60 49//60
f 46//61 52//61 49//61
f 49//59 48//59 53//59
f 48//59 51//59 53//59
usemtl material-1
f 1//62 3//62 2//62
f 3//63 4//63 2//63
f 4//5 5//5 2//5
f 3//64 5//64 4//64
f 2//5 5//5 7//5
f 6//65 5//65 3//65
f 7//66 5//66 9//66
f 10//65 5//65 6//65
f 6//67 8//67 11//67
f 5//68 14//68 9//68
f 9//69 15//69 7//69
f 10//70 14//70 5//70
f 10//71 6//71 11//71
f 7//69 15//69 13//69
f 14//72 16//72 9//72
f 9//73 17//73 15//73
f 18//70 14//70 10//70
f 19//74 10//74 11//74
f 13//75 21//75 12//75
f 15//76 22//76 13//76
f 9//77 16//77 17//77
f 23//78 16//78 14//78
f 17//73 24//73 15//73
f 18//79 23//79 14//79
f 18//80 10//80 19//80
f 21//81 20//81 12//81
f 22//82 21//82 13//82
f 25//83 22//83 15//83
f 16//84 26//84 17//84
f 23//85 27//85 16//85
f 24//86 25//86 15//86
f 17//87 28//87 24//87
f 29//88 23//88 18//88
f 30//89 18//89 19//89
f 19//1 20//1 21//1
f 30//90 21//90 22//90
f 22//91 25//91 31//91
f 26//87 32//87 17//87
f 33//84 26//84 16//84
f 16//85 27//85 33//85
f 34//92 27//92 23//92
f 24//93 31//93 25//93
f 28//94 31//94 24//94
f 35//87 28//87 17//87
f 34//95 23//95 29//95
f 29//96 18//96 30//96
f 19//97 21//97 30//97
f 29//98 30//98 22//98
f 29//99 22//99 31//99
f 32//87 35//87 17//87
f 26//5 33//5 32//5
f 27//85 36//85 33//85
f 37//100 27//100 34//100
f 38//101 31//101 28//101
f 35//102 39//102 28//102
f 40//103 34//103 29//103
f 41//1 29//1 31//1
f 32//102 42//102 35//102
f 33//5 43//5 32//5
f 33//5 36//5 44//5
f 37//104 36//104 27//104
f 45//105 37//105 34//105
f 38//1 46//1 31//1
f 39//106 38//106 28//106
f 47//102 39//102 35//102
f 34//107 40//107 45//107
f 40//1 29//1 41//1
f 46//1 41//1 31//1
f 42//102 47//102 35//102
f 43//5 42//5 32//5
f 33//5 44//5 43//5
f 44//104 36//104 37//104
f 48//108 37//108 45//108
f 46//109 38//109 39//109
f 47//110 49//110 39//110
f 45//111 40//111 41//111
f 50//1 41//1 46//1
f 42//112 43//112 47//112
f 44//5 51//5 43//5
f 48//108 44//108 37//108
f 52//113 48//113 45//113
f 49//114 46//114 39//114
f 53//112 49//112 47//112
f 52//115 45//115 41//115
f 50//116 52//116 41//116
f 46//117 52//117 50//117
f 43//112 53//112 47//112
f 43//118 51//118 53//118
f 51//108 44//108 48//108
f 49//119 48//119 52//119
f 49//120 52//120 46//120
f 53//118 48//118 49//118
f 53//118 51//118 48//118