mtllib new-1.mtl
v -0.063879 -0.595774 0.121600
v -0.059206 -0.595774 0.071617
v -0.063879 -0.595774 0.085338
v -0.036867 -0.595774 0.042281
v -0.059206 -0.595774 0.135321
v -0.071829 -0.595774 0.067962
v -0.059206 -0.540892 0.071617
v -0.071829 -0.595774 0.138976
v -0.033355 -0.530297 0.164718
v -0.059206 -0.540892 0.135321
v -0.441874 -0.614545 0.139252
v -0.036867 -0.540892 0.042281
v -0.071829 -0.540892 0.138976
v -0.019733 -0.517992 0.117858
v -0.007462 -0.517992 0.133973
v -0.071829 -0.540892 0.067962
v -0.441874 -0.614545 0.067653
v -0.058182 -0.530297 0.074823
v -0.058182 -0.530297 0.132115
v -0.071829 -0.530297 0.132692
v -0.441874 -0.558062 0.067653
v -0.530239 -0.626055 0.133224
v -0.033355 -0.530297 0.042219
v -0.441874 -0.558062 0.139252
v -0.441874 -0.546674 0.132916
v -0.071829 -0.530297 0.074245
v -0.530239 -0.626055 0.073681
v -0.530239 -0.561807 0.133224
v -0.019733 -0.517992 0.089541
v -0.441874 -0.546674 0.073988
v -0.530239 -0.561807 0.073681
v -0.530239 -0.627953 0.133224
v -0.547102 -0.561807 0.130119
v -0.508159 -0.550418 0.127955
v -0.508159 -0.550418 0.078950
v -0.547102 -0.626055 0.076786
v -0.530239 -0.627953 0.073681
v -0.547102 -0.627953 0.130119
v -0.547102 -0.626055 0.130119
v -0.529577 -0.550418 0.124806
v -0.547102 -0.561807 0.076786
v -0.558815 -0.561807 0.124913
v -0.546861 -0.550418 0.117123
v -0.546861 -0.550418 0.089782
v -0.547102 -0.627953 0.076786
v -0.558815 -0.626055 0.081992
v -0.529577 -0.550418 0.082099
v -0.565800 -0.627953 0.117418
v -0.558815 -0.627953 0.124913
v -0.558815 -0.626055 0.124913
v -0.553946 -0.550418 0.107603
v -0.558815 -0.627953 0.081992
v -0.558815 -0.561807 0.081992
v -0.565800 -0.561807 0.117418
v -0.553946 -0.550418 0.099302
v -0.565800 -0.626055 0.089487
v -0.565800 -0.627953 0.089487
v -0.565800 -0.626055 0.117418
v -0.565800 -0.561807 0.089487
vn 0.000000 -1.000000 0.000000
vn 1.000000 0.000000 0.000000
vn 0.000000 1.000000 0.000000
vn -0.795589 0.000000 -0.605837
vn 0.278151 0.000000 -0.960537
vn 0.049258 -0.998759 -0.007301
vn 0.050665 -0.998447 0.023180
vn 0.278154 0.000000 0.960537
vn 0.278153 0.000000 0.960537
vn 0.050662 -0.998716 0.000000
vn -0.769946 0.251843 -0.586309
vn 0.000746 0.000000 1.000000
vn -0.238123 0.954158 0.181330
vn -0.769945 0.251843 0.586310
vn 0.241687 0.495002 0.834602
vn 0.268955 0.255031 -0.928775
vn 0.000834 0.000000 -1.000000
vn 0.129163 -0.991623 0.000000
vn -0.769945 0.251844 -0.586309
vn -0.238123 0.954157 0.181333
vn 0.040503 0.285789 0.957436
vn -0.022050 0.510001 0.859891
vn 0.036362 0.509786 -0.859532
vn -0.022947 0.509989 -0.859875
vn -0.068061 0.000000 -0.997681
vn -0.068061 0.000000 0.997681
vn -0.236590 0.954760 -0.180162
vn -0.021901 0.486028 0.873669
vn -0.304804 0.952415 0.000000
vn -0.044214 0.999022 0.000000
vn -0.020904 0.486035 -0.873689
vn -0.181068 0.000000 0.983471
vn -0.092475 0.484061 0.870134
vn -0.080037 0.542153 0.836460
vn -0.092476 0.484058 -0.870136
vn -0.181069 0.000000 -0.983470
vn -0.080037 0.542154 -0.836458
vn -0.181069 0.000000 0.983470
vn -0.145726 0.593530 0.791509
vn -0.090248 0.784300 0.613782
vn -0.116950 0.594719 0.795382
vn -0.056402 0.998408 0.000000
vn -0.181068 0.000000 -0.983471
vn -0.140973 0.627565 -0.765695
vn -0.406162 0.000000 0.913801
vn -0.279924 0.724584 0.629779
vn -0.044682 0.998758 0.022050
vn -0.014431 0.998566 -0.051562
vn -0.406164 0.000000 -0.913800
vn -0.119988 0.565375 -0.816060
vn -0.279921 0.724584 0.629779
vn -0.279924 0.724582 -0.629781
vn -0.731580 0.000000 0.681756
vn -0.501037 0.780970 0.372891
vn -0.279925 0.724585 -0.629777
vn -0.731575 0.000000 -0.681761
vn -0.731577 0.000000 0.681759
vn -0.435668 0.803343 0.405997
vn -0.731577 0.000001 0.681759
vn -0.477615 0.803450 -0.355459
vn -0.692821 0.721110 0.000000
vn -0.460550 0.776977 -0.429186
vn -0.731578 0.000001 -0.681757
vn -1.000000 0.000000 0.000000
vn -1.000000 0.000001 0.000000
vn 0.795589 0.000000 0.605837
vn -0.278151 0.000000 0.960537
vn -0.049258 0.998759 0.007301
vn -0.050665 0.998447 -0.023180
vn -0.278154 0.000000 -0.960537
vn -0.278153 0.000000 -0.960537
vn -0.050662 0.998716 0.000000
vn 0.769946 -0.251843 0.586309
vn -0.000746 0.000000 -1.000000
vn 0.238123 -0.954158 -0.181330
vn 0.769945 -0.251843 -0.586310
vn -0.241687 -0.495002 -0.834602
vn -0.268955 -0.255031 0.928775
vn -0.000834 0.000000 1.000000
vn -0.129163 0.991623 0.000000
vn 0.769945 -0.251844 0.586309
vn 0.238123 -0.954157 -0.181333
vn -0.040503 -0.285789 -0.957436
vn 0.022050 -0.510001 -0.859891
vn -0.036362 -0.509786 0.859532
vn 0.022947 -0.509989 0.859875
vn 0.068061 0.000000 0.997681
vn 0.068061 0.000000 -0.997681
vn 0.236590 -0.954760 0.180162
vn 0.021901 -0.486028 -0.873669
vn 0.304804 -0.952415 0.000000
vn 0.044214 -0.999022 0.000000
vn 0.020904 -0.486035 0.873689
vn 0.181068 0.000000 -0.983471
vn 0.092475 -0.484061 -0.870134
vn 0.080037 -0.542153 -0.836460
vn 0.092476 -0.484058 0.870136
vn 0.181069 0.000000 0.983470
vn 0.080037 -0.542154 0.836458
vn 0.181069 0.000000 -0.983470
vn 0.145726 -0.593530 -0.791509
vn 0.090248 -0.784300 -0.613782
vn 0.116950 -0.594719 -0.795382
vn 0.056402 -0.998408 0.000000
vn 0.181068 0.000000 0.983471
vn 0.140973 -0.627565 0.765695
vn 0.406162 0.000000 -0.913801
vn 0.279924 -0.724584 -0.629779
vn 0.044682 -0.998758 -0.022050
vn 0.014431 -0.998566 0.051562
vn 0.406164 0.000000 0.913800
vn 0.119988 -0.565375 0.816060
vn 0.279921 -0.724584 -0.629779
vn 0.279924 -0.724582 0.629781
vn 0.731580 0.000000 -0.681756
vn 0.501037 -0.780970 -0.372891
vn 0.279925 -0.724585 0.629777
vn 0.731575 0.000000 0.681761
vn 0.731577 0.000000 -0.681759
vn 0.435668 -0.803343 -0.405997
vn 0.731577 -0.000001 -0.681759
vn 0.477615 -0.803450 0.355459
vn 0.692821 -0.721110 0.000000
vn 0.460550 -0.776977 0.429186
vn 0.731578 -0.000001 0.681757
vn 1.000000 -0.000001 0.000000
usemtl material-0
f 3//1 2//1 1//1
f 6//1 2//1 3//1
f 6//1 3//1 1//1
f 7//4 4//4 2//4
f 8//1 1//1 5//1
f 7//5 2//5 6//5
f 11//6 6//6 1//6
f 7//4 12//4 4//4
f 11//7 1//7 8//7
f 13//8 8//8 5//8
f 13//9 5//9 10//9
f 16//5 7//5 6//5
f 17//10 6//10 11//10
f 18//11 12//11 7//11
f 13//12 11//12 8//12
f 19//13 9//13 15//13
f 9//14 19//14 10//14
f 20//15 13//15 10//15
f 18//16 7//16 16//16
f 16//17 6//17 21//17
f 21//17 6//17 17//17
f 22//18 17//18 11//18
f 18//19 23//19 12//19
f 13//12 24//12 11//12
f 19//20 15//20 14//20
f 20//21 10//21 19//21
f 20//22 25//22 13//22
f 18//23 16//23 26//23
f 26//24 16//24 21//24
f 21//25 17//25 27//25
f 27//18 17//18 22//18
f 28//26 22//26 11//26
f 18//27 29//27 23//27
f 13//28 25//28 24//28
f 24//26 28//26 11//26
f 18//29 19//29 14//29
f 20//3 19//3 26//3
f 25//30 20//30 26//30
f 26//3 19//3 18//3
f 26//31 21//31 30//31
f 21//25 27//25 31//25
f 32//2 27//2 22//2
f 33//32 22//32 28//32
f 18//29 14//29 29//29
f 25//33 34//33 24//33
f 34//34 28//34 24//34
f 25//30 26//30 30//30
f 30//35 21//35 35//35
f 31//36 27//36 36//36
f 35//37 21//37 31//37
f 32//2 37//2 27//2
f 22//38 38//38 32//38
f 33//38 39//38 22//38
f 40//39 33//39 28//39
f 40//40 34//40 25//40
f 40//41 28//41 34//41
f 35//42 25//42 30//42
f 27//36 37//36 36//36
f 31//43 36//43 41//43
f 35//44 31//44 41//44
f 38//1 37//1 32//1
f 39//38 38//38 22//38
f 42//45 39//45 33//45
f 33//46 40//46 43//46
f 44//47 40//47 25//47
f 44//48 25//48 35//48
f 36//36 37//36 45//36
f 41//49 36//49 46//49
f 35//50 41//50 47//50
f 48//1 37//1 38//1
f 39//45 49//45 38//45
f 42//45 50//45 39//45
f 42//51 33//51 43//51
f 51//3 43//3 40//3
f 51//3 40//3 44//3
f 44//3 35//3 47//3
f 52//1 45//1 37//1
f 36//49 45//49 46//49
f 41//49 46//49 53//49
f 53//52 47//52 41//52
f 48//1 52//1 37//1
f 48//1 38//1 49//1
f 50//45 49//45 39//45
f 42//53 54//53 50//53
f 42//54 43//54 51//54
f 51//3 44//3 55//3
f 53//55 44//55 47//55
f 46//49 45//49 52//49
f 56//56 53//56 46//56
f 57//1 52//1 48//1
f 50//57 48//57 49//57
f 54//58 42//58 51//58
f 50//59 54//59 58//59
f 59//60 55//60 44//60
f 59//61 51//61 55//61
f 59//62 44//62 53//62
f 56//56 46//56 52//56
f 59//63 53//63 56//63
f 56//56 52//56 57//56
f 58//64 57//64 48//64
f 50//57 58//57 48//57
f 54//61 51//61 59//61
f 54//65 56//65 58//65
f 54//65 59//65 56//65
f 58//64 56//64 57//64
usemtl material-1
f 1//3 2//3 3//3
f 3//3 2//3 6//3
f 1//3 3//3 6//3
f 2//66 4//66 7//66
f 5//3 1//3 8//3
f 6//67 2//67 7//67
f 1//68 6//68 11//68
f 4//66 12//66 7//66
f 8//69 1//69 11//69
f 5//70 8//70 13//70
f 10//71 5//71 13//71
f 6//67 7//67 16//67
f 11//72 6//72 17//72
f 7//73 12//73 18//73
f 8//74 11//74 13//74
f 15//75 9//75 19//75
f 10//76 19//76 9//76
f 10//77 13//77 20//77
f 16//78 7//78 18//78
f 21//79 6//79 16//79
f 17//79 6//79 21//79
f 11//80 17//80 22//80
f 12//81 23//81 18//81
f 11//74 24//74 13//74
f 14//82 15//82 19//82
f 19//83 10//83 20//83
f 13//84 25//84 20//84
f 26//85 16//85 18//85
f 21//86 16//86 26//86
f 27//87 17//87 21//87
f 22//80 17//80 27//80
f 11//88 22//88 28//88
f 23//89 29//89 18//89
f 24//90 25//90 13//90
f 11//88 28//88 24//88
f 14//91 19//91 18//91
f 26//1 19//1 20//1
f 26//92 20//92 25//92
f 18//1 19//1 26//1
f 30//93 21//93 26//93
f 31//87 27//87 21//87
f 22//64 27//64 32//64
f 28//94 22//94 33//94
f 29//91 14//91 18//91
f 24//95 34//95 25//95
f 24//96 28//96 34//96
f 30//92 26//92 25//92
f 35//97 21//97 30//97
f 36//98 27//98 31//98
f 31//99 21//99 35//99
f 27//64 37//64 32//64
f 32//100 38//100 22//100
f 22//100 39//100 33//100
f 28//101 33//101 40//101
f 25//102 34//102 40//102
f 34//103 28//103 40//103
f 30//104 25//104 35//104
f 36//98 37//98 27//98
f 41//105 36//105 31//105
f 41//106 31//106 35//106
f 32//3 37//3 38//3
f 22//100 38//100 39//100
f 33//107 39//107 42//107
f 43//108 40//108 33//108
f 25//109 40//109 44//109
f 35//110 25//110 44//110
f 45//98 37//98 36//98
f 46//111 36//111 41//111
f 47//112 41//112 35//112
f 38//3 37//3 48//3
f 38//107 49//107 39//107
f 39//107 50//107 42//107
f 43//113 33//113 42//113
f 40//1 43//1 51//1
f 44//1 40//1 51//1
f 47//1 35//1 44//1
f 37//3 45//3 52//3
f 46//111 45//111 36//111
f 53//111 46//111 41//111
f 41//114 47//114 53//114
f 37//3 52//3 48//3
f 49//3 38//3 48//3
f 39//107 49//107 50//107
f 50//115 54//115 42//115
f 51//116 43//116 42//116
f 55//1 44//1 51//1
f 47//117 44//117 53//117
f 52//111 45//111 46//111
f 46//118 53//118 56//118
f 48//3 52//3 57//3
f 49//119 48//119 50//119
f 51//120 42//120 54//120
f 58//121 54//121 50//121
f 44//122 55//122 59//122
f 55//123 51//123 59//123
f 53//124 44//124 59//124
f 52//118 46//118 56//118
f 56//125 53//125 59//125
f 57//118 52//118 56//118
f 48//2 57//2 58//2
f 48//119 58//119 50//119
f 59//123 51//123 54//123
f 58//126 56//126 54//126
f 56//126 59//126 54//126
f 57//2 56//2 58//2