# SSTK version 0.8.0
# 13
mtllib original-13.mtl
o mesh13/mesh13-geometry#mesh13-geometry
v -0.184125 -0.652914 0.604095
v -0.184125 -0.652914 0.573926
v -0.184125 -0.670772 0.549518
v -0.185570 -0.652833 0.604095
v -0.185570 -0.652833 0.573926
v -0.184125 -0.699667 0.637826
v -0.185570 -0.670691 0.628503
v -0.185570 -0.670691 0.549518
v -0.184125 -0.670772 0.628503
v -0.184125 -0.728562 0.549518
v -0.185570 -0.648768 0.604701
v -0.185570 -0.666626 0.630088
v -0.184125 -0.699667 0.540196
v -0.185570 -0.648768 0.573321
v -0.185570 -0.699586 0.637826
v -0.184125 -0.746421 0.604095
v -0.185570 -0.695521 0.639785
v -0.185570 -0.699586 0.540196
v -0.185570 -0.666626 0.547934
v -0.107892 -0.699586 0.637826
v -0.109336 -0.699667 0.540196
v -0.184125 -0.746421 0.573926
v -0.184125 -0.728562 0.628503
v -0.107892 -0.648768 0.604701
v -0.107892 -0.666626 0.630088
v -0.107892 -0.695521 0.639785
v -0.107892 -0.648768 0.573321
v -0.109336 -0.699667 0.637826
v -0.109336 -0.728562 0.549518
v -0.109336 -0.746421 0.573926
v -0.109336 -0.746421 0.604095
v -0.109336 -0.728562 0.628503
v -0.185570 -0.695521 0.538237
v -0.107892 -0.699586 0.540196
v -0.107892 -0.666626 0.547934
v -0.107892 -0.670691 0.628503
v -0.109336 -0.670772 0.549518
v -0.107892 -0.652833 0.604095
v -0.107892 -0.652833 0.573926
v -0.109336 -0.670772 0.628503
v -0.109336 -0.652914 0.604095
v -0.107892 -0.695521 0.538237
v -0.107892 -0.670691 0.549518
v -0.109336 -0.652914 0.573926
vn -1 0 0
vn -0.05618097758373823 -0.9984206016292609 0
vn -0.04536597637701224 -0.8062135801881708 0.5898826928360691
vn -0.04536600313760362 -0.8062140557593783 -0.5898820407974233
vn -0.0453649784355358 -0.8062136167624173 0.5898827195963663
vn -1 0 9.999999999995e-7
vn -0.04536500519554093 -0.8062140923336897 -0.5898820675577227
vn -0.017275003298446254 -0.30701405862050263 0.9515481816862481
vn -0.017288004197138947 -0.30701007453514717 -0.9515492310147714
vn -0.017275002771368453 -0.3070110492527118 -0.9515491526537123
vn -1 9.999999999975004e-7 -0.0000019999999999949995
vn -0.017288993810109104 -0.30701489008101396 0.9515476593222103
vn 0 0 1
vn 0 -0.3070570367347706 -0.9516911138555733
vn 0 1 0
vn 0 0.8179092851682114 0.5753472005977134
vn -1 9.99999999999e-7 -9.999999999989996e-7
vn 0 0.318153115023507 0.9480393427494658
vn 0 0 -1
vn 0 0.8179100867737217 -0.5753460610396174
vn 0 -0.434130091297568 0.9008501894488146
vn 0.0000019999996861750735 -0.3070609518183019 -0.951689850667978
vn 9.999997473810956e-7 -0.8070457961249237 -0.5904888508313161
vn 0 -1 0
vn 9.99999963937002e-7 -0.807044970895538 0.5904899787051601
vn 0 -0.307057036734771 0.951691113855573
vn 0 0.8179092851682116 -0.5753472005977129
vn 0.017288998590574957 -0.3070109749720056 -0.9515489224283078
vn 1 0 0
vn 0 -0.8070444943440092 -0.5904906300264403
vn 0 -0.8070457961253275 0.5904888508316108
vn 0 0.3181531150235075 -0.9480393427494658
vn 0 -0.4341300912975676 -0.9008501894488148
vn 0.01728899911807953 -0.30701398433906374 0.9515479514610642
vn 1 0 9.999999999995e-7
vn 0.017275008074979836 -0.30701014350793376 -0.9515494447895219
vn 1 9.999999999995e-7 0
vn 0.017274997994770173 -0.30701496436262626 0.951547889547182
vn 0.04536499538159419 -0.8062149179228911 -0.5898809399468792
vn 0.05617998074035422 -0.9984206577209898 0
vn 0.0453649784355358 -0.8062136167624173 0.5898827195963663
vn 0.05618097758373823 0.9984206016292609 0
vn 0.04536597637701224 0.8062135801881708 -0.5898826928360691
vn 0.04536600313760362 0.8062140557593783 0.5898820407974233
vn 0.0453649784355358 0.8062136167624173 -0.5898827195963663
vn 1 0 -9.999999999995e-7
vn 0.04536500519554093 0.8062140923336897 0.5898820675577227
vn 0.017275003298446254 0.30701405862050263 -0.9515481816862481
vn 0.017288004197138947 0.30701007453514717 0.9515492310147714
vn 0.017275002771368453 0.3070110492527118 0.9515491526537123
vn 1 -9.999999999975004e-7 0.0000019999999999949995
vn 0.017288993810109104 0.30701489008101396 -0.9515476593222103
vn 0 0.3070570367347706 0.9516911138555733
vn 0 -0.8179092851682114 -0.5753472005977134
vn 1 -9.99999999999e-7 9.999999999989996e-7
vn 0 -0.318153115023507 -0.9480393427494658
vn 0 -0.8179100867737217 0.5753460610396174
vn 0 0.434130091297568 -0.9008501894488146
vn -0.0000019999996861750735 0.3070609518183019 0.951689850667978
vn -9.999997473810956e-7 0.8070457961249237 0.5904888508313161
vn -9.99999963937002e-7 0.807044970895538 -0.5904899787051601
vn 0 0.307057036734771 -0.951691113855573
vn 0 -0.8179092851682116 0.5753472005977129
vn -0.017288998590574957 0.3070109749720056 0.9515489224283078
vn 0 0.8070444943440092 0.5904906300264403
vn 0 0.8070457961253275 -0.5904888508316108
vn 0 -0.3181531150235075 0.9480393427494658
vn 0 0.4341300912975676 0.9008501894488148
vn -0.01728899911807953 0.30701398433906374 -0.9515479514610642
vn -1 0 -9.999999999995e-7
vn -0.017275008074979836 0.30701014350793376 0.9515494447895219
vn -1 -9.999999999995e-7 0
vn -0.017274997994770173 0.30701496436262626 -0.951547889547182
vn -0.04536499538159419 0.8062149179228911 0.5898809399468792
vn -0.05617998074035422 0.9984206577209898 0
vn -0.0453649784355358 0.8062136167624173 -0.5898827195963663
usemtl material_0_0
f 1//1 2//1 3//1
f 4//2 2//2 1//2
f 5//3 3//3 2//3
f 6//1 1//1 3//1
f 5//2 2//2 4//2
f 4//4 1//4 7//4
f 8//5 3//5 5//5
f 6//6 9//6 1//6
f 6//1 3//1 10//1
f 11//1 5//1 4//1
f 7//7 1//7 9//7
f 12//1 4//1 7//1
f 8//8 13//8 3//8
f 5//6 14//6 8//6
f 9//9 6//9 15//9
f 3//1 13//1 10//1
f 6//1 10//1 16//1
f 11//1 14//1 5//1
f 12//1 11//1 4//1
f 7//10 9//10 15//10
f 17//11 12//11 7//11
f 8//12 18//12 13//12
f 14//1 19//1 8//1
f 15//13 6//13 20//13
f 21//14 10//14 13//14
f 16//1 10//1 22//1
f 6//6 16//6 23//6
f 11//15 24//15 14//15
f 12//16 25//16 11//16
f 17//17 7//17 15//17
f 12//18 17//18 26//18
f 8//1 19//1 18//1
f 18//19 21//19 13//19
f 19//20 14//20 27//20
f 20//13 6//13 28//13
f 26//21 15//21 20//21
f 21//22 29//22 10//22
f 10//23 29//23 22//23
f 22//24 30//24 16//24
f 16//25 31//25 23//25
f 6//26 23//26 32//26
f 11//16 25//16 24//16
f 14//15 24//15 27//15
f 12//18 26//18 25//18
f 17//21 15//21 26//21
f 19//1 33//1 18//1
f 34//19 21//19 18//19
f 19//27 27//27 35//27
f 6//26 32//26 28//26
f 36//28 20//28 28//28
f 26//29 20//29 25//29
f 29//29 21//29 37//29
f 22//30 29//30 30//30
f 16//24 30//24 31//24
f 23//31 31//31 32//31
f 25//29 36//29 24//29
f 24//29 38//29 27//29
f 35//32 33//32 19//32
f 33//33 34//33 18//33
f 37//34 21//34 34//34
f 39//35 35//35 27//35
f 28//29 32//29 31//29
f 20//29 36//29 25//29
f 36//36 28//36 40//36
f 41//29 29//29 37//29
f 31//37 30//37 29//37
f 36//29 38//29 24//29
f 38//29 39//29 27//29
f 35//32 42//32 33//32
f 42//33 34//33 33//33
f 43//38 37//38 34//38
f 39//35 43//35 35//35
f 28//29 31//29 41//29
f 28//29 41//29 40//29
f 40//39 38//39 36//39
f 31//29 29//29 41//29
f 41//37 37//37 44//37
f 41//40 39//40 38//40
f 43//29 42//29 35//29
f 43//29 34//29 42//29
f 44//41 37//41 43//41
f 44//41 43//41 39//41
f 41//39 38//39 40//39
f 44//40 39//40 41//40
usemtl material_1_0
f 3//29 2//29 1//29
f 1//42 2//42 4//42
f 2//43 3//43 5//43
f 3//29 1//29 6//29
f 4//42 2//42 5//42
f 7//44 1//44 4//44
f 5//45 3//45 8//45
f 1//46 9//46 6//46
f 10//29 3//29 6//29
f 4//29 5//29 11//29
f 9//47 1//47 7//47
f 7//29 4//29 12//29
f 3//48 13//48 8//48
f 8//46 14//46 5//46
f 15//49 6//49 9//49
f 10//29 13//29 3//29
f 16//29 10//29 6//29
f 5//29 14//29 11//29
f 4//29 11//29 12//29
f 15//50 9//50 7//50
f 7//51 12//51 17//51
f 13//52 18//52 8//52
f 8//29 19//29 14//29
f 20//19 6//19 15//19
f 13//53 10//53 21//53
f 22//29 10//29 16//29
f 23//46 16//46 6//46
f 14//24 24//24 11//24
f 11//54 25//54 12//54
f 15//55 7//55 17//55
f 26//56 17//56 12//56
f 18//29 19//29 8//29
f 13//13 21//13 18//13
f 27//57 14//57 19//57
f 28//19 6//19 20//19
f 20//58 15//58 26//58
f 10//59 29//59 21//59
f 22//60 29//60 10//60
f 16//15 30//15 22//15
f 23//61 31//61 16//61
f 32//62 23//62 6//62
f 24//54 25//54 11//54
f 27//24 24//24 14//24
f 25//56 26//56 12//56
f 26//58 15//58 17//58
f 18//29 33//29 19//29
f 18//13 21//13 34//13
f 35//63 27//63 19//63
f 28//62 32//62 6//62
f 28//64 20//64 36//64
f 25//1 20//1 26//1
f 37//1 21//1 29//1
f 30//65 29//65 22//65
f 31//15 30//15 16//15
f 32//66 31//66 23//66
f 24//1 36//1 25//1
f 27//1 38//1 24//1
f 19//67 33//67 35//67
f 18//68 34//68 33//68
f 34//69 21//69 37//69
f 27//70 35//70 39//70
f 31//1 32//1 28//1
f 25//1 36//1 20//1
f 40//71 28//71 36//71
f 37//1 29//1 41//1
f 29//72 30//72 31//72
f 24//1 38//1 36//1
f 27//1 39//1 38//1
f 33//67 42//67 35//67
f 33//68 34//68 42//68
f 34//73 37//73 43//73
f 35//70 43//70 39//70
f 41//1 31//1 28//1
f 40//1 41//1 28//1
f 36//74 38//74 40//74
f 41//1 29//1 31//1
f 44//72 37//72 41//72
f 38//75 39//75 41//75
f 35//1 42//1 43//1
f 42//1 34//1 43//1
f 43//76 37//76 44//76
f 39//76 43//76 44//76
f 40//74 38//74 41//74
f 41//75 39//75 44//75
