# SSTK version 0.8.0
# 10
mtllib original-10.mtl
o mesh10/mesh10-geometry#mesh10-geometry
v -0.015160 -0.189700 0.094654
v -0.002657 -0.189700 0.078237
v -0.015160 -0.189700 0.114946
v -0.015160 0.006643 0.094654
v 0.017572 -0.189700 0.137634
v -0.015160 0.006643 0.114946
v -0.002657 0.006643 0.078237
v 0.037801 -0.189700 0.078237
v -0.002657 -0.189700 0.131363
v -0.002657 0.006643 0.131363
v -0.020227 0.006698 0.093083
v 0.017572 -0.189700 0.071966
v -0.020227 0.006698 0.116517
v 0.050303 -0.189700 0.114946
v 0.017572 0.006643 0.137634
v -0.005789 0.006698 0.135475
v -0.005789 0.006698 0.074125
v 0.017572 0.006643 0.071966
v 0.050303 -0.189700 0.094654
v 0.037801 -0.189700 0.131363
v 0.037801 0.006643 0.131363
v 0.017572 0.006698 0.142717
v -0.029003 0.024319 0.090362
v -0.029003 0.024319 0.119238
v -0.011213 0.024319 0.142598
v 0.037801 0.006643 0.078237
v 0.050303 0.006643 0.094654
v 0.050303 0.006643 0.114946
v 0.040932 0.006698 0.135475
v 0.017572 0.024319 0.151521
v -0.011213 0.024319 0.067002
v 0.017572 0.006698 0.066883
v 0.055370 0.006698 0.116517
v 0.046357 0.024319 0.142598
v 0.040932 0.006698 0.074125
v 0.055370 0.006698 0.093083
v 0.064147 0.024319 0.119238
v 0.046357 0.024319 0.067002
v 0.017572 0.024319 0.058079
v 0.064147 0.024319 0.090362
vn 0 -1 0
vn -0.7955698456817409 0 -0.6058618824797704
vn -1 0 0
vn -0.7955698456817409 0 0.6058618824797704
vn -0.008701001675478095 -0.999940192550002 -0.0066260012759130895
vn -0.29608699296941443 0 -0.9551609773197028
vn -0.010755001756351083 -0.9999421632960682 0
vn -0.29608699296941443 0 0.9551609773197028
vn -0.008701001675478095 -0.999940192550002 0.0066260012759126454
vn 0.29608699296941443 0 -0.9551609773197028
vn 0.29608699296941443 0 0.9551609773197028
vn -0.0033230000230300523 -0.9999370069300635 0.01072100007430167
vn -0.7144708094485172 -0.439868882685665 -0.5441018548864225
vn -0.0033230000230300523 -0.9999370069300635 -0.010721000074302114
vn -0.8951147305163523 -0.44583586577645157 0
vn -0.7144719275250431 -0.4398669553805582 0.5441019448071175
vn 0.7955698456817409 0 -0.6058618824797704
vn 1 0 0
vn 0.7955698456817409 0 0.6058618824797704
vn 0.0033230000230300523 -0.9999370069300635 0.01072100007430167
vn -0.26721611310726034 -0.430700182306812 0.8620283648794435
vn -0.8951151295903021 -0.44583506454577604 0
vn -0.7144707349764181 -0.43986783683677433 -0.5441027981721779
vn -0.7144703199166605 -0.4398691969591748 0.5441022436313557
vn -0.26721692644440925 -0.43069888144347357 0.8620287627132542
vn 0.0033230000230300523 -0.9999370069300635 -0.010721000074302114
vn 0.008701001675478095 -0.999940192550002 0.0066260012759126454
vn 0.26721611310726034 -0.430700182306812 0.8620283648794435
vn 0 1 0
vn -0.2672159980171237 -0.43070099680398305 -0.8620279936033214
vn 0.008701001675478095 -0.999940192550002 -0.0066260012759130895
vn 0.010755001756351083 -0.9999421632960682 0
vn 0.2672159978491785 -0.430698996533304 0.8620289930615287
vn 0.7144711981932663 -0.43986912201905176 0.544101150932864
vn -0.2672169267789647 -0.4307028819816119 -0.8620267637930619
vn 0.2672139106451529 -0.43070285597535773 -0.8620277117427226
vn 0.7144710492488483 -0.4398670303202555 0.5441030375052955
vn 0.8951147305163523 -0.44583586577645157 0
vn 0.26721704170283 -0.43070006721656506 -0.8620281345311384
vn 0.7144719275250431 -0.439866955380558 -0.5441019448071177
vn 0.7144703199166605 -0.4398691969591746 -0.544102243631356
vn 0.008701001675478095 0.999940192550002 0.0066260012759130895
vn 0.010755001756351083 0.9999421632960682 0
vn 0.008701001675478095 0.999940192550002 -0.0066260012759126454
vn 0.0033230000230300523 0.9999370069300635 -0.01072100007430167
vn 0.7144708094485172 0.439868882685665 0.5441018548864225
vn 0.0033230000230300523 0.9999370069300635 0.010721000074302114
vn 0.8951147305163523 0.44583586577645157 0
vn 0.7144719275250431 0.4398669553805582 -0.5441019448071175
vn -0.0033230000230300523 0.9999370069300635 -0.01072100007430167
vn 0.26721611310726034 0.430700182306812 -0.8620283648794435
vn 0.8951151295903021 0.44583506454577604 0
vn 0.7144707349764181 0.43986783683677433 0.5441027981721779
vn 0.7144703199166605 0.4398691969591748 -0.5441022436313557
vn 0.26721692644440925 0.43069888144347357 -0.8620287627132542
vn -0.0033230000230300523 0.9999370069300635 0.010721000074302114
vn -0.008701001675478095 0.999940192550002 -0.0066260012759126454
vn -0.26721611310726034 0.430700182306812 -0.8620283648794435
vn 0.2672159980171237 0.43070099680398305 0.8620279936033214
vn -0.008701001675478095 0.999940192550002 0.0066260012759130895
vn -0.010755001756351083 0.9999421632960682 0
vn -0.2672159978491785 0.430698996533304 -0.8620289930615287
vn -0.7144711981932663 0.43986912201905176 -0.544101150932864
vn 0.2672169267789647 0.4307028819816119 0.8620267637930619
vn -0.2672139106451529 0.43070285597535773 0.8620277117427226
vn -0.7144710492488483 0.4398670303202555 -0.5441030375052955
vn -0.8951147305163523 0.44583586577645157 0
vn -0.26721704170283 0.43070006721656506 0.8620281345311384
vn -0.7144719275250431 0.439866955380558 0.5441019448071177
vn -0.7144703199166605 0.4398691969591746 0.544102243631356
usemtl material_0_0
f 1//1 2//1 3//1
f 4//2 2//2 1//2
f 3//1 2//1 5//1
f 6//3 1//3 3//3
f 4//2 7//2 2//2
f 6//3 4//3 1//3
f 2//1 8//1 5//1
f 3//1 5//1 9//1
f 10//4 6//4 3//4
f 11//5 7//5 4//5
f 7//6 12//6 2//6
f 13//7 4//7 6//7
f 2//1 12//1 8//1
f 5//1 8//1 14//1
f 15//8 9//8 5//8
f 10//4 3//4 9//4
f 6//9 10//9 16//9
f 11//5 17//5 7//5
f 11//7 4//7 13//7
f 18//6 12//6 7//6
f 13//9 6//9 16//9
f 18//10 8//10 12//10
f 8//1 19//1 14//1
f 5//1 14//1 20//1
f 10//8 9//8 15//8
f 15//11 5//11 21//11
f 16//12 10//12 22//12
f 11//13 23//13 17//13
f 17//14 18//14 7//14
f 24//15 11//15 13//15
f 25//16 13//16 16//16
f 26//10 8//10 18//10
f 19//17 8//17 26//17
f 14//18 19//18 27//18
f 20//19 14//19 28//19
f 21//11 5//11 20//11
f 10//12 15//12 22//12
f 15//20 21//20 29//20
f 30//21 16//21 22//21
f 24//22 23//22 11//22
f 23//23 31//23 17//23
f 17//14 32//14 18//14
f 25//24 24//24 13//24
f 25//25 16//25 30//25
f 32//26 26//26 18//26
f 19//17 26//17 27//17
f 14//18 27//18 28//18
f 20//19 28//19 21//19
f 15//20 29//20 22//20
f 21//27 33//27 29//27
f 30//28 22//28 34//28
f 24//29 31//29 23//29
f 31//30 32//30 17//30
f 24//29 25//29 30//29
f 32//26 35//26 26//26
f 26//31 35//31 27//31
f 27//32 36//32 28//32
f 21//27 28//27 33//27
f 34//33 22//33 29//33
f 29//34 33//34 37//34
f 30//29 34//29 37//29
f 24//29 38//29 31//29
f 39//35 32//35 31//35
f 24//29 30//29 37//29
f 39//36 35//36 32//36
f 35//31 36//31 27//31
f 28//32 36//32 33//32
f 34//37 29//37 37//37
f 37//38 33//38 40//38
f 24//29 37//29 38//29
f 31//29 38//29 39//29
f 38//39 35//39 39//39
f 36//40 35//40 38//40
f 33//38 36//38 40//38
f 38//29 37//29 40//29
f 36//41 38//41 40//41
usemtl material_1_0
f 3//29 2//29 1//29
f 1//19 2//19 4//19
f 5//29 2//29 3//29
f 3//18 1//18 6//18
f 2//19 7//19 4//19
f 1//18 4//18 6//18
f 5//29 8//29 2//29
f 9//29 5//29 3//29
f 3//17 6//17 10//17
f 4//42 7//42 11//42
f 2//11 12//11 7//11
f 6//43 4//43 13//43
f 8//29 12//29 2//29
f 14//29 8//29 5//29
f 5//10 9//10 15//10
f 9//17 3//17 10//17
f 16//44 10//44 6//44
f 7//42 17//42 11//42
f 13//43 4//43 11//43
f 7//11 12//11 18//11
f 16//44 6//44 13//44
f 12//8 8//8 18//8
f 14//29 19//29 8//29
f 20//29 14//29 5//29
f 15//10 9//10 10//10
f 21//6 5//6 15//6
f 22//45 10//45 16//45
f 17//46 23//46 11//46
f 7//47 18//47 17//47
f 13//48 11//48 24//48
f 16//49 13//49 25//49
f 18//8 8//8 26//8
f 26//4 8//4 19//4
f 27//3 19//3 14//3
f 28//2 14//2 20//2
f 20//6 5//6 21//6
f 22//45 15//45 10//45
f 29//50 21//50 15//50
f 22//51 16//51 30//51
f 11//52 23//52 24//52
f 17//53 31//53 23//53
f 18//47 32//47 17//47
f 13//54 24//54 25//54
f 30//55 16//55 25//55
f 18//56 26//56 32//56
f 27//4 26//4 19//4
f 28//3 27//3 14//3
f 21//2 28//2 20//2
f 22//50 29//50 15//50
f 29//57 33//57 21//57
f 34//58 22//58 30//58
f 23//1 31//1 24//1
f 17//59 32//59 31//59
f 30//1 25//1 24//1
f 26//56 35//56 32//56
f 27//60 35//60 26//60
f 28//61 36//61 27//61
f 33//57 28//57 21//57
f 29//62 22//62 34//62
f 37//63 33//63 29//63
f 37//1 34//1 30//1
f 31//1 38//1 24//1
f 31//64 32//64 39//64
f 37//1 30//1 24//1
f 32//65 35//65 39//65
f 27//60 36//60 35//60
f 33//61 36//61 28//61
f 37//66 29//66 34//66
f 40//67 33//67 37//67
f 38//1 37//1 24//1
f 39//1 38//1 31//1
f 39//68 35//68 38//68
f 38//69 35//69 36//69
f 40//67 36//67 33//67
f 40//1 37//1 38//1
f 40//70 38//70 36//70
