# SSTK version 0.8.0
# 20
mtllib original-20.mtl
o mesh20/mesh20-geometry#mesh20-geometry
v -0.143930 -0.627041 0.594886
v -0.134682 -0.627041 0.594886
v -0.139306 -0.627041 0.592339
v -0.139306 -0.627041 0.602526
v -0.134682 -0.660285 0.594886
v -0.139306 -0.660285 0.592339
v -0.143930 -0.627041 0.599979
v -0.134682 -0.627041 0.599979
v -0.134682 -0.660285 0.599979
v -0.143930 -0.660285 0.594886
v -0.143930 -0.660285 0.599979
v -0.139306 -0.660285 0.602526
vn 0 1 0
vn 0.48247097645903536 0 -0.8759119572620667
vn -0.48247097645903536 0 -0.8759119572620667
vn 1 0 0
vn -0.4824611911969956 0 0.8759173471217337
vn -1 0 0
vn 0.4824611911969956 0 0.8759173471217337
vn 0 -1 0
vn -0.48247097645903536 0 0.8759119572620667
vn 0.48247097645903536 0 0.8759119572620667
vn 0.4824611911969956 0 -0.8759173471217337
vn -0.4824611911969956 0 -0.8759173471217337
usemtl material_0_0
f 1//1 2//1 3//1
f 1//1 4//1 2//1
f 2//2 5//2 3//2
f 3//3 6//3 1//3
f 7//1 4//1 1//1
f 4//1 8//1 2//1
f 9//4 5//4 2//4
f 3//2 5//2 6//2
f 1//3 6//3 10//3
f 7//5 11//5 4//5
f 7//6 1//6 10//6
f 4//7 12//7 8//7
f 9//4 2//4 8//4
f 12//8 5//8 9//8
f 6//8 5//8 12//8
f 10//8 6//8 12//8
f 7//6 10//6 11//6
f 4//5 11//5 12//5
f 8//7 12//7 9//7
f 10//8 12//8 11//8
usemtl material_1_0
f 3//8 2//8 1//8
f 2//8 4//8 1//8
f 3//9 5//9 2//9
f 1//10 6//10 3//10
f 1//8 4//8 7//8
f 2//8 8//8 4//8
f 2//6 5//6 9//6
f 6//9 5//9 3//9
f 10//10 6//10 1//10
f 4//11 11//11 7//11
f 10//4 1//4 7//4
f 8//12 12//12 4//12
f 8//6 2//6 9//6
f 9//1 5//1 12//1
f 12//1 5//1 6//1
f 12//1 6//1 10//1
f 11//4 10//4 7//4
f 12//11 11//11 4//11
f 9//12 12//12 8//12
f 11//1 12//1 10//1
