# SSTK version 0.8.0
# 11
mtllib original-11.mtl
o mesh11/mesh11-geometry#mesh11-geometry
v -0.559939 -0.652914 0.117396
v -0.559939 -0.652914 0.087227
v -0.559939 -0.670772 0.062819
v -0.561383 -0.652833 0.117396
v -0.561383 -0.652833 0.087227
v -0.559939 -0.699667 0.151127
v -0.561383 -0.670691 0.141804
v -0.561383 -0.670691 0.062819
v -0.559939 -0.670772 0.141804
v -0.559939 -0.728562 0.062819
v -0.561383 -0.648768 0.118002
v -0.561383 -0.666626 0.143389
v -0.559939 -0.699667 0.053496
v -0.561383 -0.648768 0.086621
v -0.561383 -0.699586 0.151127
v -0.559939 -0.746421 0.117396
v -0.561383 -0.695521 0.153085
v -0.561383 -0.699586 0.053496
v -0.561383 -0.666626 0.061234
v -0.483705 -0.699586 0.151127
v -0.485150 -0.699667 0.053496
v -0.559939 -0.746421 0.087227
v -0.559939 -0.728562 0.141804
v -0.483705 -0.648768 0.118002
v -0.483705 -0.666626 0.143389
v -0.483705 -0.695521 0.153086
v -0.483705 -0.648768 0.086621
v -0.485150 -0.699667 0.151127
v -0.485150 -0.728562 0.062819
v -0.485150 -0.746421 0.087227
v -0.485150 -0.746421 0.117396
v -0.485150 -0.728562 0.141804
v -0.561383 -0.695521 0.051537
v -0.483705 -0.699586 0.053496
v -0.483705 -0.666626 0.061234
v -0.483705 -0.670691 0.141804
v -0.485150 -0.670772 0.062819
v -0.483705 -0.652833 0.117396
v -0.483705 -0.652833 0.087227
v -0.485150 -0.670772 0.141804
v -0.485150 -0.652914 0.117396
v -0.483705 -0.695521 0.051537
v -0.483705 -0.670691 0.062819
v -0.485150 -0.652914 0.087227
vn -1 0 0
vn -0.05617998074035422 -0.9984206577209898 0
vn -0.04536500519554093 -0.8062140923336899 0.5898820675577222
vn -0.04536500519554093 -0.8062140923336897 -0.5898820675577227
vn -0.017275002771368456 -0.3070110492527123 0.9515491526537123
vn -0.017288998590574957 -0.3070109749720056 -0.9515489224283078
vn -0.01727499746774468 -0.3070119549966557 -0.9515488605172207
vn -0.017288993282656876 -0.30701188071577634 0.9515486302920277
vn 0 0 1
vn 0 -0.30705794245043794 -0.9516908216317438
vn 0 1 0
vn 0 0.8179092851682114 0.5753472005977134
vn -9.99999731647608e-7 0.31815191462314957 0.9480397455911984
vn 0 0 -1
vn 0 0.8179092851682116 -0.5753472005977129
vn 0 -0.43414097353780623 0.9008449450907995
vn 0 -0.8070449708959411 -0.5904899787054557
vn 0 -1 0
vn 0 -0.8070449708959415 0.5904899787054554
vn 0 -0.3070579424504384 0.9516908216317436
vn 0 0.3181540138019984 0.9480390411273566
vn -0.0000010000002102995662 -0.4341300912973509 0.9008501894483641
vn 0.017287993581928656 -0.3070118860235468 -0.9515486467428639
vn 1 0 0
vn 0 0.31815401380199887 -0.9480390411273564
vn 0 -0.4341409735378058 -0.9008449450907997
vn 0.017288998590574957 -0.307010974972006 0.9515489224283076
vn 1 -9.999999999975004e-7 0.0000019999999999949995
vn 0.017275002771368453 -0.3070110492527118 -0.9515491526537123
vn 0 0.31815491257963247 -0.9480387395045872
vn 0.01727499746774468 -0.3070119549966561 0.9515488605172204
vn 1 0 9.999999999995e-7
vn 1 9.999999999974995e-7 0.0000019999999999950003
vn 0.04536400725334243 -0.8062141289071996 -0.5898820943174355
vn 0.05617998074035422 -0.9984206577209898 0
vn 0.04536500519554093 -0.8062140923336899 0.5898820675577222
vn 0.04536500519554093 -0.8062140923336897 -0.5898820675577227
vn 0.05617998074035422 0.9984206577209898 0
vn 0.04536500519554093 0.8062140923336899 -0.5898820675577222
vn 0.04536500519554093 0.8062140923336897 0.5898820675577227
vn 0.017275002771368456 0.3070110492527123 -0.9515491526537123
vn 0.017288998590574957 0.3070109749720056 0.9515489224283078
vn 0.01727499746774468 0.3070119549966557 0.9515488605172207
vn 0.017288993282656876 0.30701188071577634 -0.9515486302920277
vn 0 0.30705794245043794 0.9516908216317438
vn 0 -0.8179092851682114 -0.5753472005977134
vn 9.99999731647608e-7 -0.31815191462314957 -0.9480397455911984
vn 0 -0.8179092851682116 0.5753472005977129
vn 0 0.43414097353780623 -0.9008449450907995
vn 0 0.8070449708959411 0.5904899787054557
vn 0 0.8070449708959415 -0.5904899787054554
vn 0 0.3070579424504384 -0.9516908216317436
vn 0 -0.3181540138019984 -0.9480390411273566
vn 0.0000010000002102995662 0.4341300912973509 -0.9008501894483641
vn -0.017287993581928656 0.3070118860235468 0.9515486467428639
vn 0 -0.31815401380199887 0.9480390411273564
vn 0 0.4341409735378058 0.9008449450907997
vn -0.017288998590574957 0.307010974972006 -0.9515489224283076
vn -1 9.999999999975004e-7 -0.0000019999999999949995
vn -0.017275002771368453 0.3070110492527118 0.9515491526537123
vn 0 -0.31815491257963247 0.9480387395045872
vn -0.01727499746774468 0.3070119549966561 -0.9515488605172204
vn -1 0 -9.999999999995e-7
vn -1 -9.999999999974995e-7 -0.0000019999999999950003
vn -0.04536400725334243 0.8062141289071996 0.5898820943174355
vn -0.05617998074035422 0.9984206577209898 0
vn -0.04536500519554093 0.8062140923336899 -0.5898820675577222
vn -0.04536500519554093 0.8062140923336897 0.5898820675577227
usemtl material_0_0
f 1//1 2//1 3//1
f 4//2 2//2 1//2
f 5//3 3//3 2//3
f 6//1 1//1 3//1
f 5//2 2//2 4//2
f 4//4 1//4 7//4
f 8//3 3//3 5//3
f 6//1 9//1 1//1
f 6//1 3//1 10//1
f 11//1 5//1 4//1
f 7//4 1//4 9//4
f 12//1 4//1 7//1
f 8//5 13//5 3//5
f 5//1 14//1 8//1
f 9//6 6//6 15//6
f 3//1 13//1 10//1
f 6//1 10//1 16//1
f 11//1 14//1 5//1
f 12//1 11//1 4//1
f 7//7 9//7 15//7
f 17//1 12//1 7//1
f 8//8 18//8 13//8
f 14//1 19//1 8//1
f 15//9 6//9 20//9
f 21//10 10//10 13//10
f 16//1 10//1 22//1
f 6//1 16//1 23//1
f 11//11 24//11 14//11
f 12//12 25//12 11//12
f 17//1 7//1 15//1
f 12//13 17//13 26//13
f 8//1 19//1 18//1
f 18//14 21//14 13//14
f 14//15 27//15 19//15
f 20//9 6//9 28//9
f 26//16 15//16 20//16
f 21//10 29//10 10//10
f 10//17 29//17 22//17
f 22//18 30//18 16//18
f 16//19 31//19 23//19
f 6//20 23//20 32//20
f 11//12 25//12 24//12
f 14//11 24//11 27//11
f 12//21 26//21 25//21
f 17//22 15//22 26//22
f 19//1 33//1 18//1
f 34//14 21//14 18//14
f 19//15 27//15 35//15
f 6//20 32//20 28//20
f 36//23 20//23 28//23
f 26//24 20//24 25//24
f 29//24 21//24 37//24
f 22//17 29//17 30//17
f 16//18 30//18 31//18
f 23//19 31//19 32//19
f 25//24 36//24 24//24
f 24//24 38//24 27//24
f 35//25 33//25 19//25
f 33//26 34//26 18//26
f 37//27 21//27 34//27
f 39//24 35//24 27//24
f 28//28 32//28 31//28
f 20//24 36//24 25//24
f 36//29 28//29 40//29
f 41//24 29//24 37//24
f 31//24 30//24 29//24
f 36//24 38//24 24//24
f 38//24 39//24 27//24
f 35//30 42//30 33//30
f 42//26 34//26 33//26
f 43//31 37//31 34//31
f 39//24 43//24 35//24
f 28//32 31//32 41//32
f 28//33 41//33 40//33
f 40//34 38//34 36//34
f 41//24 31//24 29//24
f 41//24 37//24 44//24
f 41//35 39//35 38//35
f 43//24 42//24 35//24
f 43//24 34//24 42//24
f 37//36 43//36 44//36
f 44//36 43//36 39//36
f 40//37 41//37 38//37
f 44//35 39//35 41//35
usemtl material_1_0
f 3//24 2//24 1//24
f 1//38 2//38 4//38
f 2//39 3//39 5//39
f 3//24 1//24 6//24
f 4//38 2//38 5//38
f 7//40 1//40 4//40
f 5//39 3//39 8//39
f 1//24 9//24 6//24
f 10//24 3//24 6//24
f 4//24 5//24 11//24
f 9//40 1//40 7//40
f 7//24 4//24 12//24
f 3//41 13//41 8//41
f 8//24 14//24 5//24
f 15//42 6//42 9//42
f 10//24 13//24 3//24
f 16//24 10//24 6//24
f 5//24 14//24 11//24
f 4//24 11//24 12//24
f 15//43 9//43 7//43
f 7//24 12//24 17//24
f 13//44 18//44 8//44
f 8//24 19//24 14//24
f 20//14 6//14 15//14
f 13//45 10//45 21//45
f 22//24 10//24 16//24
f 23//24 16//24 6//24
f 14//18 24//18 11//18
f 11//46 25//46 12//46
f 15//24 7//24 17//24
f 26//47 17//47 12//47
f 18//24 19//24 8//24
f 13//9 21//9 18//9
f 19//48 27//48 14//48
f 28//14 6//14 20//14
f 20//49 15//49 26//49
f 10//45 29//45 21//45
f 22//50 29//50 10//50
f 16//11 30//11 22//11
f 23//51 31//51 16//51
f 32//52 23//52 6//52
f 24//46 25//46 11//46
f 27//18 24//18 14//18
f 25//53 26//53 12//53
f 26//54 15//54 17//54
f 18//24 33//24 19//24
f 18//9 21//9 34//9
f 35//48 27//48 19//48
f 28//52 32//52 6//52
f 28//55 20//55 36//55
f 25//1 20//1 26//1
f 37//1 21//1 29//1
f 30//50 29//50 22//50
f 31//11 30//11 16//11
f 32//51 31//51 23//51
f 24//1 36//1 25//1
f 27//1 38//1 24//1
f 19//56 33//56 35//56
f 18//57 34//57 33//57
f 34//58 21//58 37//58
f 27//1 35//1 39//1
f 31//59 32//59 28//59
f 25//1 36//1 20//1
f 40//60 28//60 36//60
f 37//1 29//1 41//1
f 29//1 30//1 31//1
f 24//1 38//1 36//1
f 27//1 39//1 38//1
f 33//61 42//61 35//61
f 33//57 34//57 42//57
f 34//62 37//62 43//62
f 35//1 43//1 39//1
f 41//63 31//63 28//63
f 40//64 41//64 28//64
f 36//65 38//65 40//65
f 29//1 31//1 41//1
f 44//1 37//1 41//1
f 38//66 39//66 41//66
f 35//1 42//1 43//1
f 42//1 34//1 43//1
f 44//67 43//67 37//67
f 39//67 43//67 44//67
f 38//68 41//68 40//68
f 41//66 39//66 44//66
