# SSTK version 0.8.0
# 2
mtllib original-2.mtl
o mesh2/mesh2-geometry#mesh2-geometry
v 0.058447 0.198028 -0.387756
v 0.058447 -0.012738 -0.400455
v 0.058447 0.198028 -0.400455
v 0.058447 -0.012738 -0.387756
v 0.017782 0.198028 -0.400455
v 0.058447 0.408794 -0.387756
v 0.017782 -0.012738 -0.400455
v 0.053453 0.198028 -0.375712
v 0.017782 0.408794 -0.400455
v 0.058447 0.408794 -0.400455
v 0.053453 0.408794 -0.375712
v 0.017782 -0.012738 -0.387756
v 0.053453 -0.005113 -0.375712
v -0.022883 -0.012738 -0.400455
v -0.022884 0.198028 -0.400455
v 0.058447 0.610129 -0.387756
v 0.053453 0.602505 -0.375712
v -0.022883 -0.012738 -0.387756
v 0.017782 -0.005113 -0.375712
v 0.017782 0.198028 -0.375712
v 0.017782 0.617653 -0.400455
v -0.022884 0.408794 -0.400455
v 0.058447 0.610129 -0.400455
v 0.017782 0.408794 -0.375712
v -0.017889 -0.005113 -0.375712
v -0.022884 0.198028 -0.387756
v -0.022884 0.408794 -0.387756
v 0.057199 0.612035 -0.398046
v 0.057199 0.612035 -0.387756
v 0.017782 0.610029 -0.375712
v -0.017889 0.198028 -0.375712
v -0.017889 0.408794 -0.375712
v -0.022884 0.610129 -0.400455
v -0.022884 0.610129 -0.387756
v 0.052760 0.605602 -0.377593
v -0.017889 0.602505 -0.375712
v 0.017782 0.619559 -0.398046
v -0.021635 0.612035 -0.398046
v 0.017782 0.619559 -0.387756
v -0.017197 0.605602 -0.377593
v 0.017782 0.613125 -0.377593
v -0.021635 0.612035 -0.387756
vn 1 0 0
vn 0 0 -1
vn 0 -1 0
vn 0.9237201242292804 0 0.3830680515180596
vn 0 -0.8449299535166024 0.5348769705740115
vn 0 0 1
vn 0 -0.8449306915424762 0.5348758047337278
vn -1 0 0
vn 0.8364896284359903 0.5479827565891275 0
vn 0.6872778401405675 0.45023389527650853 0.5700338674112782
vn 9.999999449850046e-7 -0.84492995351618 0.5348769705737442
vn -0.9237201242292804 0 0.3830680515180596
vn 0.15017805752984587 0.8116953109422703 -0.5644442162259204
vn 0.8364900868176378 0.5479820568739647 0
vn 0.6308038901228031 0.5009299127450296 0.5925838967801903
vn 0.1126539928700727 0.5340969661967369 0.8378839469699079
vn 0.148035017991363 0.7755410942550051 -0.6136950745851284
vn -0.15017803651842215 0.8116911973769434 -0.5644501372559453
vn 0.1874949184602589 0.9822655728221268 0
vn 0.1533350198582664 0.8033061040353769 0.5754890745310197
vn -0.1126539928700727 0.5340969661967369 0.8378839469699079
vn 0.11097398441936465 0.5159189275655034 0.8494188807424471
vn -0.148035017991363 0.7755410942550051 -0.6136950745851284
vn -0.8364940382227594 0.547976025039217 0
vn -0.836494496601417 0.547975325316334 0
vn 0.17881501581574183 0.8313120735274778 0.5262560465460339
vn -0.11097398441936465 0.5159189275655034 0.8494188807424471
vn -0.6437268798116966 0.49721690716613137 0.5817138913899546
vn -0.1874949184602589 0.9822655728221268 0
vn -0.6813568806147019 0.44634792179226296 0.5801088983550682
vn -0.17881501581574183 0.8313120735274778 0.5262560465460339
vn -0.1533350198582664 0.8033061040353769 0.5754890745310197
vn 0 1 0
vn -0.9237201242292804 0 -0.3830680515180596
vn 0 0.8449299535166024 -0.5348769705740115
vn 0 0.8449306915424762 -0.5348758047337278
vn -0.8364896284359903 -0.5479827565891275 0
vn -0.6872778401405675 -0.45023389527650853 -0.5700338674112782
vn -9.999999449850046e-7 0.84492995351618 -0.5348769705737442
vn 0.9237201242292804 0 -0.3830680515180596
vn -0.15017805752984587 -0.8116953109422703 0.5644442162259204
vn -0.8364900868176378 -0.5479820568739647 0
vn -0.6308038901228031 -0.5009299127450296 -0.5925838967801903
vn -0.1126539928700727 -0.5340969661967369 -0.8378839469699079
vn -0.148035017991363 -0.7755410942550051 0.6136950745851284
vn 0.15017803651842215 -0.8116911973769434 0.5644501372559453
vn -0.1874949184602589 -0.9822655728221268 0
vn -0.1533350198582664 -0.8033061040353769 -0.5754890745310197
vn 0.1126539928700727 -0.5340969661967369 -0.8378839469699079
vn -0.11097398441936465 -0.5159189275655034 -0.8494188807424471
vn 0.148035017991363 -0.7755410942550051 0.6136950745851284
vn 0.8364940382227594 -0.547976025039217 0
vn 0.836494496601417 -0.547975325316334 0
vn -0.17881501581574183 -0.8313120735274778 -0.5262560465460339
vn 0.11097398441936465 -0.5159189275655034 -0.8494188807424471
vn 0.6437268798116966 -0.49721690716613137 -0.5817138913899546
vn 0.1874949184602589 -0.9822655728221268 0
vn 0.6813568806147019 -0.44634792179226296 -0.5801088983550682
vn 0.17881501581574183 -0.8313120735274778 -0.5262560465460339
vn 0.1533350198582664 -0.8033061040353769 -0.5754890745310197
usemtl material_0_0
f 1//1 2//1 3//1
f 4//1 2//1 1//1
f 3//2 2//2 5//2
f 1//1 3//1 6//1
f 7//3 2//3 4//3
f 8//4 4//4 1//4
f 5//2 2//2 7//2
f 9//2 3//2 5//2
f 6//1 3//1 10//1
f 11//4 1//4 6//4
f 7//3 4//3 12//3
f 13//4 4//4 8//4
f 8//4 1//4 11//4
f 5//2 7//2 14//2
f 10//2 3//2 9//2
f 9//2 5//2 15//2
f 6//1 10//1 16//1
f 11//4 6//4 17//4
f 12//5 4//5 13//5
f 18//3 7//3 12//3
f 8//6 19//6 13//6
f 11//6 20//6 8//6
f 14//3 7//3 18//3
f 5//2 14//2 15//2
f 21//2 10//2 9//2
f 9//2 15//2 22//2
f 16//1 10//1 23//1
f 17//4 6//4 16//4
f 17//6 24//6 11//6
f 12//5 13//5 19//5
f 18//7 12//7 25//7
f 20//6 19//6 8//6
f 11//6 24//6 20//6
f 26//8 14//8 18//8
f 26//8 15//8 14//8
f 21//2 23//2 10//2
f 21//2 9//2 22//2
f 27//8 22//8 15//8
f 16//9 23//9 28//9
f 17//10 16//10 29//10
f 30//6 24//6 17//6
f 25//11 12//11 19//11
f 25//12 26//12 18//12
f 31//6 19//6 20//6
f 24//6 32//6 20//6
f 27//8 15//8 26//8
f 21//13 28//13 23//13
f 21//2 22//2 33//2
f 34//8 22//8 27//8
f 16//14 28//14 29//14
f 17//15 29//15 35//15
f 30//6 36//6 24//6
f 30//16 17//16 35//16
f 31//6 25//6 19//6
f 31//12 26//12 25//12
f 32//6 31//6 20//6
f 36//6 32//6 24//6
f 31//12 27//12 26//12
f 37//17 28//17 21//17
f 34//8 33//8 22//8
f 33//18 38//18 21//18
f 32//12 34//12 27//12
f 39//19 29//19 28//19
f 39//20 35//20 29//20
f 30//21 40//21 36//21
f 41//22 30//22 35//22
f 32//12 27//12 31//12
f 36//12 34//12 32//12
f 37//19 39//19 28//19
f 38//23 37//23 21//23
f 42//24 33//24 34//24
f 42//25 38//25 33//25
f 41//26 35//26 39//26
f 41//27 40//27 30//27
f 36//28 40//28 34//28
f 38//29 39//29 37//29
f 40//30 42//30 34//30
f 38//29 42//29 39//29
f 40//31 41//31 39//31
f 42//32 40//32 39//32
usemtl material_1_0
f 3//8 2//8 1//8
f 1//8 2//8 4//8
f 5//6 2//6 3//6
f 6//8 3//8 1//8
f 4//33 2//33 7//33
f 1//34 4//34 8//34
f 7//6 2//6 5//6
f 5//6 3//6 9//6
f 10//8 3//8 6//8
f 6//34 1//34 11//34
f 12//33 4//33 7//33
f 8//34 4//34 13//34
f 11//34 1//34 8//34
f 14//6 7//6 5//6
f 9//6 3//6 10//6
f 15//6 5//6 9//6
f 16//8 10//8 6//8
f 17//34 6//34 11//34
f 13//35 4//35 12//35
f 12//33 7//33 18//33
f 13//2 19//2 8//2
f 8//2 20//2 11//2
f 18//33 7//33 14//33
f 15//6 14//6 5//6
f 9//6 10//6 21//6
f 22//6 15//6 9//6
f 23//8 10//8 16//8
f 16//34 6//34 17//34
f 11//2 24//2 17//2
f 19//35 13//35 12//35
f 25//36 12//36 18//36
f 8//2 19//2 20//2
f 20//2 24//2 11//2
f 18//1 14//1 26//1
f 14//1 15//1 26//1
f 10//6 23//6 21//6
f 22//6 9//6 21//6
f 15//1 22//1 27//1
f 28//37 23//37 16//37
f 29//38 16//38 17//38
f 17//2 24//2 30//2
f 19//39 12//39 25//39
f 18//40 26//40 25//40
f 20//2 19//2 31//2
f 20//2 32//2 24//2
f 26//1 15//1 27//1
f 23//41 28//41 21//41
f 33//6 22//6 21//6
f 27//1 22//1 34//1
f 29//42 28//42 16//42
f 35//43 29//43 17//43
f 24//2 36//2 30//2
f 35//44 17//44 30//44
f 19//2 25//2 31//2
f 25//40 26//40 31//40
f 20//2 31//2 32//2
f 24//2 32//2 36//2
f 26//40 27//40 31//40
f 21//45 28//45 37//45
f 22//1 33//1 34//1
f 21//46 38//46 33//46
f 27//40 34//40 32//40
f 28//47 29//47 39//47
f 29//48 35//48 39//48
f 36//49 40//49 30//49
f 35//50 30//50 41//50
f 31//40 27//40 32//40
f 32//40 34//40 36//40
f 28//47 39//47 37//47
f 21//51 37//51 38//51
f 34//52 33//52 42//52
f 33//53 38//53 42//53
f 39//54 35//54 41//54
f 30//55 40//55 41//55
f 34//56 40//56 36//56
f 37//57 39//57 38//57
f 34//58 42//58 40//58
f 39//57 42//57 38//57
f 39//59 41//59 40//59
f 39//60 40//60 42//60
