# SSTK version 0.8.0
# 15
mtllib original-15.mtl
o mesh15/mesh15-geometry#mesh15-geometry
v 0.448549 -0.652914 -0.202723
v 0.448549 -0.652914 -0.232892
v 0.448549 -0.670772 -0.257299
v 0.447105 -0.652833 -0.202723
v 0.447105 -0.652833 -0.232892
v 0.448549 -0.699667 -0.168992
v 0.447105 -0.670691 -0.178315
v 0.447105 -0.670691 -0.257299
v 0.448549 -0.670772 -0.178315
v 0.448549 -0.728562 -0.257299
v 0.447105 -0.648768 -0.202117
v 0.447105 -0.666626 -0.176730
v 0.448549 -0.699667 -0.266622
v 0.447105 -0.648768 -0.233497
v 0.447105 -0.699586 -0.168992
v 0.448549 -0.746421 -0.202723
v 0.447105 -0.695521 -0.167033
v 0.447105 -0.699586 -0.266622
v 0.447105 -0.666626 -0.258884
v 0.524783 -0.699586 -0.168992
v 0.523338 -0.699667 -0.266622
v 0.448549 -0.746421 -0.232892
v 0.448549 -0.728562 -0.178315
v 0.524783 -0.648768 -0.202117
v 0.524783 -0.666626 -0.176730
v 0.524783 -0.695521 -0.167033
v 0.524783 -0.648768 -0.233497
v 0.523338 -0.699667 -0.168992
v 0.523338 -0.728562 -0.257299
v 0.523338 -0.746421 -0.232892
v 0.523338 -0.746421 -0.202723
v 0.523338 -0.728562 -0.178315
v 0.447105 -0.695521 -0.268581
v 0.524783 -0.699586 -0.266622
v 0.524783 -0.666626 -0.258884
v 0.524783 -0.670691 -0.178315
v 0.523338 -0.670772 -0.257299
v 0.524783 -0.652833 -0.202723
v 0.524783 -0.652833 -0.232892
v 0.523338 -0.670772 -0.178315
v 0.523338 -0.652914 -0.202723
v 0.524783 -0.695521 -0.268581
v 0.524783 -0.670691 -0.257299
v 0.523338 -0.652914 -0.232892
vn -1 0 0
vn -0.05617998074035422 -0.9984206577209898 0
vn -0.04536500519554093 -0.8062140923336899 0.5898820675577222
vn -0.04536500519554093 -0.8062140923336897 -0.5898820675577227
vn -0.04536201136853799 -0.8062142020518164 0.5898821478351025
vn -0.017270004262047608 -0.30701107576696596 0.951549234831913
vn -0.017288998590574957 -0.3070109749720056 -0.9515489224283078
vn -0.017275002771368453 -0.3070110492527118 -0.9515491526537123
vn -0.017288993282656876 -0.30701188071577634 0.9515486302920277
vn 0 -0.000004000000000190044 1
vn 0 -0.30705794245043794 -0.9516908216317438
vn 0 1 0
vn 0 0.8179092851682114 0.5753472005977134
vn 0 0.3181540138019984 0.9480390411273566
vn 0 0.0000020000000002180444 -1
vn 0 0.8179092851682116 -0.5753472005977129
vn 0 0.000003999999999745955 1
vn 0 -0.43413574264440824 0.9008474659777803
vn 0 -0.8070449708959411 -0.5904899787054557
vn 0 -1 0
vn 0 -0.8070449708959415 0.5904899787054554
vn 0 -0.3070579424504384 0.9516908216317436
vn 0 0.318153115023507 0.9480393427494658
vn 0 -0.43414097353780623 0.9008449450907995
vn 0 -0.000001999999999773955 -1
vn 0.017287993581928656 -0.3070118860235468 -0.9515486467428639
vn 1 0 0
vn 0 0.31815401380199887 -0.9480390411273564
vn 0 -0.43413895939997743 -0.9008459157542453
vn 0.017288998590574957 -0.307010974972006 0.9515489224283076
vn 1 -9.999999999950006e-7 0.0000029999999999849995
vn 0.017275002771368453 -0.3070110492527118 -0.9515491526537123
vn 0.01727499746774468 -0.3070119549966561 0.9515488605172204
vn 1 0 0.000001999999999996
vn 1 9.999999999949993e-7 0.0000029999999999850004
vn 0.04536300931100812 -0.8062141654799085 -0.5898821210765623
vn 0.05617998074035422 -0.9984206577209898 0
vn 0.04536500519554093 -0.8062140923336899 0.5898820675577222
vn 0.04536500519554093 -0.8062140923336897 -0.5898820675577227
vn 0.05617998074035422 0.9984206577209898 0
vn 0.04536500519554093 0.8062140923336899 -0.5898820675577222
vn 0.04536500519554093 0.8062140923336897 0.5898820675577227
vn 0.04536201136853799 0.8062142020518164 -0.5898821478351025
vn 0.017270004262047608 0.30701107576696596 -0.951549234831913
vn 0.017288998590574957 0.3070109749720056 0.9515489224283078
vn 0.017275002771368453 0.3070110492527118 0.9515491526537123
vn 0.017288993282656876 0.30701188071577634 -0.9515486302920277
vn 0 0.000004000000000190044 -1
vn 0 0.30705794245043794 0.9516908216317438
vn 0 -0.8179092851682114 -0.5753472005977134
vn 0 -0.3181540138019984 -0.9480390411273566
vn 0 -0.0000020000000002180444 1
vn 0 -0.8179092851682116 0.5753472005977129
vn 0 -0.000003999999999745955 -1
vn 0 0.43413574264440824 -0.9008474659777803
vn 0 0.8070449708959411 0.5904899787054557
vn 0 0.8070449708959415 -0.5904899787054554
vn 0 0.3070579424504384 -0.9516908216317436
vn 0 -0.318153115023507 -0.9480393427494658
vn 0 0.43414097353780623 -0.9008449450907995
vn 0 0.000001999999999773955 1
vn -0.017287993581928656 0.3070118860235468 0.9515486467428639
vn 0 -0.31815401380199887 0.9480390411273564
vn 0 0.43413895939997743 0.9008459157542453
vn -0.017288998590574957 0.307010974972006 -0.9515489224283076
vn -1 9.999999999950006e-7 -0.0000029999999999849995
vn -0.017275002771368453 0.3070110492527118 0.9515491526537123
vn -0.01727499746774468 0.3070119549966561 -0.9515488605172204
vn -1 0 -0.000001999999999996
vn -1 -9.999999999949993e-7 -0.0000029999999999850004
vn -0.04536300931100812 0.8062141654799085 0.5898821210765623
vn -0.05617998074035422 0.9984206577209898 0
vn -0.04536500519554093 0.8062140923336899 -0.5898820675577222
vn -0.04536500519554093 0.8062140923336897 0.5898820675577227
usemtl material_0_0
f 1//1 2//1 3//1
f 4//2 2//2 1//2
f 5//3 3//3 2//3
f 6//1 1//1 3//1
f 5//2 2//2 4//2
f 4//4 1//4 7//4
f 8//5 3//5 5//5
f 6//1 9//1 1//1
f 6//1 3//1 10//1
f 11//1 5//1 4//1
f 7//4 1//4 9//4
f 12//1 4//1 7//1
f 8//6 13//6 3//6
f 5//1 14//1 8//1
f 9//7 6//7 15//7
f 3//1 13//1 10//1
f 6//1 10//1 16//1
f 11//1 14//1 5//1
f 12//1 11//1 4//1
f 7//8 9//8 15//8
f 17//1 12//1 7//1
f 8//9 18//9 13//9
f 14//1 19//1 8//1
f 15//10 6//10 20//10
f 21//11 10//11 13//11
f 16//1 10//1 22//1
f 6//1 16//1 23//1
f 11//12 24//12 14//12
f 12//13 25//13 11//13
f 17//1 7//1 15//1
f 12//14 17//14 26//14
f 8//1 19//1 18//1
f 18//15 21//15 13//15
f 14//16 27//16 19//16
f 20//17 6//17 28//17
f 26//18 15//18 20//18
f 21//11 29//11 10//11
f 10//19 29//19 22//19
f 22//20 30//20 16//20
f 16//21 31//21 23//21
f 6//22 23//22 32//22
f 11//13 25//13 24//13
f 14//12 24//12 27//12
f 12//23 26//23 25//23
f 17//24 15//24 26//24
f 19//1 33//1 18//1
f 34//25 21//25 18//25
f 19//16 27//16 35//16
f 6//22 32//22 28//22
f 36//26 20//26 28//26
f 26//27 20//27 25//27
f 37//27 29//27 21//27
f 22//19 29//19 30//19
f 16//20 30//20 31//20
f 23//21 31//21 32//21
f 25//27 36//27 24//27
f 24//27 38//27 27//27
f 35//28 33//28 19//28
f 33//29 34//29 18//29
f 37//30 21//30 34//30
f 39//27 35//27 27//27
f 28//31 32//31 31//31
f 20//27 36//27 25//27
f 36//32 28//32 40//32
f 41//27 29//27 37//27
f 31//27 30//27 29//27
f 36//27 38//27 24//27
f 38//27 39//27 27//27
f 35//28 42//28 33//28
f 42//29 34//29 33//29
f 43//33 37//33 34//33
f 39//27 43//27 35//27
f 28//34 31//34 41//34
f 28//35 41//35 40//35
f 40//36 38//36 36//36
f 41//27 31//27 29//27
f 41//27 37//27 44//27
f 41//37 39//37 38//37
f 43//27 42//27 35//27
f 43//27 34//27 42//27
f 37//38 43//38 44//38
f 44//38 43//38 39//38
f 40//39 41//39 38//39
f 44//37 39//37 41//37
usemtl material_1_0
f 3//27 2//27 1//27
f 1//40 2//40 4//40
f 2//41 3//41 5//41
f 3//27 1//27 6//27
f 4//40 2//40 5//40
f 7//42 1//42 4//42
f 5//43 3//43 8//43
f 1//27 9//27 6//27
f 10//27 3//27 6//27
f 4//27 5//27 11//27
f 9//42 1//42 7//42
f 7//27 4//27 12//27
f 3//44 13//44 8//44
f 8//27 14//27 5//27
f 15//45 6//45 9//45
f 10//27 13//27 3//27
f 16//27 10//27 6//27
f 5//27 14//27 11//27
f 4//27 11//27 12//27
f 15//46 9//46 7//46
f 7//27 12//27 17//27
f 13//47 18//47 8//47
f 8//27 19//27 14//27
f 20//48 6//48 15//48
f 13//49 10//49 21//49
f 22//27 10//27 16//27
f 23//27 16//27 6//27
f 14//20 24//20 11//20
f 11//50 25//50 12//50
f 15//27 7//27 17//27
f 26//51 17//51 12//51
f 18//27 19//27 8//27
f 13//52 21//52 18//52
f 19//53 27//53 14//53
f 28//54 6//54 20//54
f 20//55 15//55 26//55
f 10//49 29//49 21//49
f 22//56 29//56 10//56
f 16//12 30//12 22//12
f 23//57 31//57 16//57
f 32//58 23//58 6//58
f 24//50 25//50 11//50
f 27//20 24//20 14//20
f 25//59 26//59 12//59
f 26//60 15//60 17//60
f 18//27 33//27 19//27
f 18//61 21//61 34//61
f 35//53 27//53 19//53
f 28//58 32//58 6//58
f 28//62 20//62 36//62
f 25//1 20//1 26//1
f 21//1 29//1 37//1
f 30//56 29//56 22//56
f 31//12 30//12 16//12
f 32//57 31//57 23//57
f 24//1 36//1 25//1
f 27//1 38//1 24//1
f 19//63 33//63 35//63
f 18//64 34//64 33//64
f 34//65 21//65 37//65
f 27//1 35//1 39//1
f 31//66 32//66 28//66
f 25//1 36//1 20//1
f 40//67 28//67 36//67
f 37//1 29//1 41//1
f 29//1 30//1 31//1
f 24//1 38//1 36//1
f 27//1 39//1 38//1
f 33//63 42//63 35//63
f 33//64 34//64 42//64
f 34//68 37//68 43//68
f 35//1 43//1 39//1
f 41//69 31//69 28//69
f 40//70 41//70 28//70
f 36//71 38//71 40//71
f 29//1 31//1 41//1
f 44//1 37//1 41//1
f 38//72 39//72 41//72
f 35//1 42//1 43//1
f 42//1 34//1 43//1
f 44//73 43//73 37//73
f 39//73 43//73 44//73
f 38//74 41//74 40//74
f 41//72 39//72 44//72
