# SSTK version 0.8.0
# 4
mtllib original-4.mtl
o mesh4/mesh4-geometry#mesh4-geometry
v -0.488639 -0.014037 0.191558
v -0.431571 -0.014037 0.191558
v -0.431571 -0.014037 0.212468
v -0.490012 -0.014037 0.186199
v -0.359743 -0.014037 0.200915
v -0.490012 -0.014037 0.196917
v -0.482552 -0.014037 0.170048
v -0.491516 -0.014037 0.196030
v -0.359743 -0.014037 0.191558
v -0.360881 -0.013428 0.201973
v -0.482552 -0.014037 0.213068
v -0.491516 -0.014037 0.187086
v -0.475869 -0.014037 0.162382
v -0.431571 -0.014037 0.170648
v -0.359743 -0.000767 0.191558
v -0.360881 -0.001376 0.201973
v -0.431571 -0.013428 0.213353
v -0.475869 -0.014037 0.220735
v -0.491311 -0.012941 0.177575
v -0.495340 -0.012941 0.188278
v -0.359743 -0.014037 0.182201
v -0.359743 -0.000767 0.182201
v -0.359743 -0.000767 0.200915
v -0.495340 -0.012941 0.194839
v -0.477964 -0.012941 0.220983
v -0.477964 -0.012941 0.162133
v -0.474745 -0.013428 0.161640
v -0.431571 -0.013428 0.169763
v -0.431571 -0.000767 0.170648
v -0.431571 0.002993 0.191558
v -0.431571 -0.001376 0.213353
v -0.474745 -0.013428 0.221476
v -0.491311 -0.012941 0.205541
v -0.477964 -0.013039 0.220983
v -0.491311 -0.001863 0.177575
v -0.495340 -0.001863 0.188278
v -0.360881 -0.013428 0.181144
v -0.360881 -0.001376 0.181144
v -0.431571 -0.000767 0.212468
v -0.495340 -0.001863 0.194839
v -0.477964 -0.001863 0.220983
v -0.477964 -0.001863 0.162133
v -0.477964 -0.013039 0.162133
v -0.474745 -0.001376 0.161640
v -0.431571 -0.001376 0.169763
v -0.475869 -0.000767 0.162382
v -0.488659 -0.000085 0.191558
v -0.474745 -0.001376 0.221476
v -0.477964 -0.001765 0.220983
v -0.491311 -0.001863 0.205541
v -0.482552 -0.000767 0.170048
v -0.491516 -0.000767 0.187086
v -0.490024 -0.000412 0.196925
v -0.475869 -0.000767 0.220735
v -0.491516 -0.000767 0.196030
v -0.477964 -0.001765 0.162133
v -0.490024 -0.000412 0.186191
v -0.482552 -0.000767 0.213068
vn 0 -1 0
vn 0.09149800344142298 -0.8173260307412674 0.5688640213961138
vn 1 0 0
vn 0.6806856506817434 0 0.7325756240525423
vn 0.09084704572360217 -0.820561412991125 0.5642922840100707
vn -0.22095905050660455 -0.9683312213402075 -0.11624002657003227
vn -0.4157447332372696 -0.8341494647677505 -0.3624237674506832
vn -0.27526906454372146 -0.9613672254166066 0
vn 0.15894506887139012 0 0.9872874277946971
vn 0.10515098845242424 -0.8194009100142167 0.5634939381176625
vn -0.3193700482675168 -0.9326171409497033 0.16801202539224713
vn -0.4011889123107448 -0.8466008149555171 0.34973492355722186
vn -0.30647914294221207 -0.9448594406834907 -0.11537405381058682
vn -0.4018339924780696 -0.8472809841397474 -0.34733899349816166
vn 0.10006697615334195 -0.8381098002725915 -0.5362448722091087
vn 0.0907600320102521 -0.8205772894102757 -0.5642831990176411
vn 0 1 0
vn 0.05228102158200227 0.9986324122430345 0
vn 0.09159396764530679 0.8172667113083492 0.5689337990295762
vn 0.10074997181273096 -0.8384997654091803 0.5355068501788594
vn -0.18131106906566016 -0.9810543737067369 0.0682540259995672
vn -0.11772601358605364 0 -0.9930461146015003
vn -0.40898110800333637 -0.8412852221657897 0.35351609335618867
vn -0.9358829857698993 0 -0.35231099464311133
vn -0.7565429750397563 0 -0.6539439784247537
vn -0.20822290928260784 -0.577243748509673 -0.7895776560012245
vn 0.10600298118733459 -0.8193358545900206 -0.5634289000065918
vn -1 0 0
vn 0.0915959698663506 -0.8172567311352471 -0.5689478128250193
vn 0.6806747607357166 0 -0.7325857424884646
vn 0.051457995887785886 0.9829079214518996 -0.17675998587440286
vn 0.09150000582214556 0.8173160520058222 -0.5688780361977104
vn 0.028457006150313803 0.9838132126281293 0.17692303823776137
vn 0.1848950510690371 0 0.9827582714432772
vn 0.09076296056341142 0.8205676434626156 0.5642967548125492
vn -0.19150406507950776 -0.596141202588786 0.7797062649703539
vn -0.9358829857698993 0 0.35231099464311133
vn -0.7565429750397563 0 0.6539439784247537
vn -0.9358833154909982 0.000001000000337183399 -0.3523101187655226
vn 0.15138498154238725 0 0.9884748794802077
vn 0.1848940852546824 0 -0.9827584531500274
vn 0.15894604360804512 0 -0.9872872708697046
vn 0.0330100153805416 0.9836754583294233 -0.17689808242311547
vn 0.09084498319790396 0.8205708482325639 -0.5642788956346527
vn -0.052998976527871465 0.9828285647259644 0.17674592172296047
vn 0.10600597982913108 0.8193258440982835 0.5634428927878151
vn -0.15138498154238725 0 0.9884748794802077
vn -0.18130704743192416 0.9810552566548802 -0.06825201785548074
vn -0.4089768345241209 0.841288659606685 -0.3535128569653685
vn -0.15138498154238725 0 -0.9884748794802077
vn -0.2752611414454512 0.9613694940084938 0
vn -0.05378699432896856 0.9974508948337706 -0.04688999505615342
vn 0.1051490053803696 0.8194100419283936 -0.5634810288327613
vn -0.009407003257956225 0.9982583457298675 0.058239020170098285
vn 0.10006397917123462 0.8381178255420212 0.536232888380723
vn -0.30647113170201307 0.9448624060424231 0.1153710495792196
vn -0.40182192112115916 0.8472908336742837 0.34732893181829555
vn -0.31936398132359495 0.9326199454603873 -0.16800799017489285
vn -0.401184060020951 0.8466051266601792 -0.34973005232294196
vn 0.10075201042858926 0.8384910867901207 -0.5355200554303448
vn -0.05379800354181858 0.9974500656676261 -0.046895003087355856
vn 0.0002579998986137997 0.9997596071245444 0.02192399138453102
vn -0.23216698643204567 0.9726759431563333 0.000003999999766453998
vn 0.15138498154238725 0 -0.9884748794802077
vn -0.20821800443025454 0.5772710122825953 0.7895590167994476
vn -0.22095299256857767 0.9683329674315738 0.11623699609054328
vn -0.4157400090943128 0.8341530182470974 0.3624210079279598
vn -0.3245370112228146 0.9303370321719855 -0.17073000590401424
vn -0.05378699685101347 0.9974509416037377 -0.04688899725486007
vn -0.11771098765064665 0 0.9930478958168681
vn -0.19149901973991143 0.5961260614492738 -0.7797190803742264
vn -0.23214409697856495 0.9726814063392013 0
vn -0.23214905331709884 0.9726802233930609 -0.000008000001837124655
vn -0.324541977636949 0.9303349358938781 0.17073198823545685
vn -0.09149800344142298 0.8173260307412674 -0.5688640213961138
vn -0.6806856506817434 0 -0.7325756240525423
vn -0.09084704572360217 0.820561412991125 -0.5642922840100707
vn 0.22095905050660455 0.9683312213402075 0.11624002657003227
vn 0.4157447332372696 0.8341494647677505 0.3624237674506832
vn 0.27526906454372146 0.9613672254166066 0
vn -0.15894506887139012 0 -0.9872874277946971
vn -0.10515098845242424 0.8194009100142167 -0.5634939381176625
vn 0.3193700482675168 0.9326171409497033 -0.16801202539224713
vn 0.4011889123107448 0.8466008149555171 -0.34973492355722186
vn 0.30647914294221207 0.9448594406834907 0.11537405381058682
vn 0.4018339924780696 0.8472809841397474 0.34733899349816166
vn -0.10006697615334195 0.8381098002725915 0.5362448722091087
vn -0.0907600320102521 0.8205772894102757 0.5642831990176411
vn -0.05228102158200227 -0.9986324122430345 0
vn -0.09159396764530679 -0.8172667113083492 -0.5689337990295762
vn -0.10074997181273096 0.8384997654091803 -0.5355068501788594
vn 0.18131106906566016 0.9810543737067369 -0.0682540259995672
vn 0.11772601358605364 0 0.9930461146015003
vn 0.40898110800333637 0.8412852221657897 -0.35351609335618867
vn 0.9358829857698993 0 0.35231099464311133
vn 0.7565429750397563 0 0.6539439784247537
vn 0.20822290928260784 0.577243748509673 0.7895776560012245
vn -0.10600298118733459 0.8193358545900206 0.5634289000065918
vn -0.0915959698663506 0.8172567311352471 0.5689478128250193
vn -0.6806747607357166 0 0.7325857424884646
vn -0.051457995887785886 -0.9829079214518996 0.17675998587440286
vn -0.09150000582214556 -0.8173160520058222 0.5688780361977104
vn -0.028457006150313803 -0.9838132126281293 -0.17692303823776137
vn -0.1848950510690371 0 -0.9827582714432772
vn -0.09076296056341142 -0.8205676434626156 -0.5642967548125492
vn 0.19150406507950776 0.596141202588786 -0.7797062649703539
vn 0.9358829857698993 0 -0.35231099464311133
vn 0.7565429750397563 0 -0.6539439784247537
vn 0.9358833154909982 -0.000001000000337183399 0.3523101187655226
vn -0.1848940852546824 0 0.9827584531500274
vn -0.15894604360804512 0 0.9872872708697046
vn -0.0330100153805416 -0.9836754583294233 0.17689808242311547
vn -0.09084498319790396 -0.8205708482325639 0.5642788956346527
vn 0.052998976527871465 -0.9828285647259644 -0.17674592172296047
vn -0.10600597982913108 -0.8193258440982835 -0.5634428927878151
vn 0.18130704743192416 -0.9810552566548802 0.06825201785548074
vn 0.4089768345241209 -0.841288659606685 0.3535128569653685
vn 0.2752611414454512 -0.9613694940084938 0
vn 0.05378699432896856 -0.9974508948337706 0.04688999505615342
vn -0.1051490053803696 -0.8194100419283936 0.5634810288327613
vn 0.009407003257956225 -0.9982583457298675 -0.058239020170098285
vn -0.10006397917123462 -0.8381178255420212 -0.536232888380723
vn 0.30647113170201307 -0.9448624060424231 -0.1153710495792196
vn 0.40182192112115916 -0.8472908336742837 -0.34732893181829555
vn 0.31936398132359495 -0.9326199454603873 0.16800799017489285
vn 0.401184060020951 -0.8466051266601792 0.34973005232294196
vn -0.10075201042858926 -0.8384910867901207 0.5355200554303448
vn 0.05379800354181858 -0.9974500656676261 0.046895003087355856
vn -0.0002579998986137997 -0.9997596071245444 -0.02192399138453102
vn 0.23216698643204567 -0.9726759431563333 -0.000003999999766453998
vn 0.20821800443025454 -0.5772710122825953 -0.7895590167994476
vn 0.22095299256857767 -0.9683329674315738 -0.11623699609054328
vn 0.4157400090943128 -0.8341530182470974 -0.3624210079279598
vn 0.3245370112228146 -0.9303370321719855 0.17073000590401424
vn 0.05378699685101347 -0.9974509416037377 0.04688899725486007
vn 0.11771098765064665 0 -0.9930478958168681
vn 0.19149901973991143 -0.5961260614492738 0.7797190803742264
vn 0.23214409697856495 -0.9726814063392013 0
vn 0.23214905331709884 -0.9726802233930609 0.000008000001837124655
vn 0.324541977636949 -0.9303349358938781 -0.17073198823545685
usemtl material_0_0
f 1//1 2//1 3//1
f 4//1 2//1 1//1
f 2//1 5//1 3//1
f 6//1 1//1 3//1
f 4//1 7//1 2//1
f 8//1 4//1 1//1
f 2//1 9//1 5//1
f 3//2 5//2 10//2
f 8//1 1//1 6//1
f 6//1 3//1 11//1
f 12//1 7//1 4//1
f 7//1 13//1 2//1
f 12//1 4//1 8//1
f 14//1 9//1 2//1
f 5//3 9//3 15//3
f 16//4 10//4 5//4
f 3//5 10//5 17//5
f 8//1 6//1 11//1
f 11//1 3//1 18//1
f 12//6 19//6 7//6
f 19//7 13//7 7//7
f 13//1 14//1 2//1
f 20//8 12//8 8//8
f 14//1 21//1 9//1
f 9//3 22//3 15//3
f 5//3 15//3 23//3
f 16//9 17//9 10//9
f 23//4 16//4 5//4
f 18//10 3//10 17//10
f 24//11 8//11 11//11
f 11//12 18//12 25//12
f 20//13 19//13 12//13
f 19//14 26//14 13//14
f 13//15 27//15 14//15
f 20//8 8//8 24//8
f 28//16 21//16 14//16
f 9//3 21//3 22//3
f 29//17 15//17 22//17
f 30//18 23//18 15//18
f 31//9 17//9 16//9
f 31//19 16//19 23//19
f 18//20 17//20 32//20
f 24//21 11//21 33//21
f 25//22 18//22 34//22
f 33//23 11//23 25//23
f 20//24 35//24 19//24
f 35//25 26//25 19//25
f 26//26 27//26 13//26
f 27//27 28//27 14//27
f 24//28 36//28 20//28
f 28//29 37//29 21//29
f 22//30 21//30 37//30
f 30//31 15//31 29//31
f 29//32 22//32 38//32
f 39//33 23//33 30//33
f 31//34 32//34 17//34
f 31//35 23//35 39//35
f 34//36 18//36 32//36
f 33//37 40//37 24//37
f 41//38 33//38 25//38
f 36//39 35//39 20//39
f 35//25 42//25 26//25
f 26//40 43//40 27//40
f 44//41 28//41 27//41
f 40//28 36//28 24//28
f 45//42 37//42 28//42
f 22//30 37//30 38//30
f 46//43 30//43 29//43
f 29//44 38//44 45//44
f 47//45 39//45 30//45
f 48//34 32//34 31//34
f 48//46 31//46 39//46
f 49//47 34//47 32//47
f 50//37 40//37 33//37
f 41//38 50//38 33//38
f 36//48 51//48 35//48
f 35//49 51//49 42//49
f 44//50 27//50 43//50
f 45//41 28//41 44//41
f 40//51 52//51 36//51
f 38//42 37//42 45//42
f 47//52 30//52 46//52
f 46//53 29//53 45//53
f 53//54 39//54 47//54
f 48//47 49//47 32//47
f 54//55 48//55 39//55
f 40//56 50//56 55//56
f 50//57 41//57 54//57
f 36//58 52//58 51//58
f 51//59 46//59 42//59
f 44//50 43//50 56//50
f 46//60 45//60 44//60
f 40//51 55//51 52//51
f 57//61 47//61 46//61
f 53//62 58//62 39//62
f 52//63 53//63 47//63
f 48//64 41//64 49//64
f 54//65 41//65 48//65
f 58//17 54//17 39//17
f 55//66 50//66 58//66
f 50//67 54//67 58//67
f 52//68 57//68 51//68
f 57//69 46//69 51//69
f 46//70 56//70 42//70
f 46//71 44//71 56//71
f 55//72 53//72 52//72
f 52//73 47//73 57//73
f 55//74 58//74 53//74
usemtl material_1_0
f 3//17 2//17 1//17
f 1//17 2//17 4//17
f 3//17 5//17 2//17
f 3//17 1//17 6//17
f 2//17 7//17 4//17
f 1//17 4//17 8//17
f 5//17 9//17 2//17
f 10//75 5//75 3//75
f 6//17 1//17 8//17
f 11//17 3//17 6//17
f 4//17 7//17 12//17
f 2//17 13//17 7//17
f 8//17 4//17 12//17
f 2//17 9//17 14//17
f 15//28 9//28 5//28
f 5//76 10//76 16//76
f 17//77 10//77 3//77
f 11//17 6//17 8//17
f 18//17 3//17 11//17
f 7//78 19//78 12//78
f 7//79 13//79 19//79
f 2//17 14//17 13//17
f 8//80 12//80 20//80
f 9//17 21//17 14//17
f 15//28 22//28 9//28
f 23//28 15//28 5//28
f 10//81 17//81 16//81
f 5//76 16//76 23//76
f 17//82 3//82 18//82
f 11//83 8//83 24//83
f 25//84 18//84 11//84
f 12//85 19//85 20//85
f 13//86 26//86 19//86
f 14//87 27//87 13//87
f 24//80 8//80 20//80
f 14//88 21//88 28//88
f 22//28 21//28 9//28
f 22//1 15//1 29//1
f 15//89 23//89 30//89
f 16//81 17//81 31//81
f 23//90 16//90 31//90
f 32//91 17//91 18//91
f 33//92 11//92 24//92
f 34//93 18//93 25//93
f 25//94 11//94 33//94
f 19//95 35//95 20//95
f 19//96 26//96 35//96
f 13//97 27//97 26//97
f 14//98 28//98 27//98
f 20//3 36//3 24//3
f 21//99 37//99 28//99
f 37//100 21//100 22//100
f 29//101 15//101 30//101
f 38//102 22//102 29//102
f 30//103 23//103 39//103
f 17//104 32//104 31//104
f 39//105 23//105 31//105
f 32//106 18//106 34//106
f 24//107 40//107 33//107
f 25//108 33//108 41//108
f 20//109 35//109 36//109
f 26//96 42//96 35//96
f 27//50 43//50 26//50
f 27//110 28//110 44//110
f 24//3 36//3 40//3
f 28//111 37//111 45//111
f 38//100 37//100 22//100
f 29//112 30//112 46//112
f 45//113 38//113 29//113
f 30//114 39//114 47//114
f 31//104 32//104 48//104
f 39//115 31//115 48//115
f 32//64 34//64 49//64
f 33//107 40//107 50//107
f 33//108 50//108 41//108
f 35//116 51//116 36//116
f 42//117 51//117 35//117
f 43//40 27//40 44//40
f 44//110 28//110 45//110
f 36//118 52//118 40//118
f 45//111 37//111 38//111
f 46//119 30//119 47//119
f 45//120 29//120 46//120
f 47//121 39//121 53//121
f 32//64 49//64 48//64
f 39//122 48//122 54//122
f 55//123 50//123 40//123
f 54//124 41//124 50//124
f 51//125 52//125 36//125
f 42//126 46//126 51//126
f 56//40 43//40 44//40
f 44//127 45//127 46//127
f 52//118 55//118 40//118
f 46//128 47//128 57//128
f 39//129 58//129 53//129
f 47//130 53//130 52//130
f 49//47 41//47 48//47
f 48//131 41//131 54//131
f 39//1 54//1 58//1
f 58//132 50//132 55//132
f 58//133 54//133 50//133
f 51//134 57//134 52//134
f 51//135 46//135 57//135
f 42//136 56//136 46//136
f 56//137 44//137 46//137
f 52//138 53//138 55//138
f 57//139 47//139 52//139
f 53//140 58//140 55//140
