# SSTK version 0.8.0
# 14
mtllib original-14.mtl
o mesh14/mesh14-geometry#mesh14-geometry
v 0.448549 -0.652914 0.432610
v 0.448549 -0.652914 0.402440
v 0.448549 -0.670772 0.378033
v 0.447105 -0.652833 0.432610
v 0.447105 -0.652833 0.402440
v 0.448549 -0.699667 0.466340
v 0.447105 -0.670691 0.457017
v 0.447105 -0.670691 0.378033
v 0.448549 -0.670772 0.457017
v 0.448549 -0.728562 0.378033
v 0.447105 -0.648768 0.433215
v 0.447105 -0.666626 0.458602
v 0.448549 -0.699667 0.368710
v 0.447105 -0.648768 0.401835
v 0.447105 -0.699586 0.466340
v 0.448549 -0.746421 0.432610
v 0.447105 -0.695521 0.468299
v 0.447105 -0.699586 0.368710
v 0.447105 -0.666626 0.376448
v 0.524783 -0.699586 0.466340
v 0.523338 -0.699667 0.368710
v 0.448549 -0.746421 0.402440
v 0.448549 -0.728562 0.457017
v 0.524783 -0.648768 0.433215
v 0.524783 -0.666626 0.458602
v 0.524783 -0.695521 0.468299
v 0.524783 -0.648768 0.401835
v 0.523338 -0.699667 0.466340
v 0.523338 -0.728562 0.378033
v 0.523338 -0.746421 0.402440
v 0.523338 -0.746421 0.432610
v 0.523338 -0.728562 0.457017
v 0.447105 -0.695521 0.366751
v 0.524783 -0.699586 0.368710
v 0.524783 -0.666626 0.376448
v 0.524783 -0.670691 0.457017
v 0.523338 -0.670772 0.378033
v 0.524783 -0.652833 0.432610
v 0.524783 -0.652833 0.402440
v 0.523338 -0.670772 0.457017
v 0.523338 -0.652914 0.432610
v 0.524783 -0.695521 0.366751
v 0.524783 -0.670691 0.378033
v 0.523338 -0.652914 0.402440
vn -1 0 0
vn -0.05617998074035422 -0.9984206577209898 0
vn -0.04536500519554093 -0.8062140923336899 0.5898820675577222
vn -0.04536500519554093 -0.8062140923336897 -0.5898820675577227
vn -0.01727500807497984 -0.30701014350793426 0.9515494447895219
vn -0.017289003898480634 -0.30701006922740104 -0.951549214563905
vn -0.017275002771368453 -0.3070110492527118 -0.9515491526537123
vn -0.017288998590574957 -0.307010974972006 0.9515489224283076
vn 0 0 1
vn 0 -0.3070570367347706 -0.9516911138555733
vn 0 1 0
vn 0 0.8179100867737215 0.5753460610396178
vn 9.999997252266132e-7 0.3181549125794729 0.9480387395041133
vn 0 0 -1
vn 0 0.8179092851682116 -0.5753472005977129
vn 0 -0.43414097353780623 0.9008449450907995
vn 0 -0.8070449708959411 -0.5904899787054557
vn 0 -1 0
vn 0 -0.8070449708959415 0.5904899787054554
vn 0 -0.307057036734771 0.951691113855573
vn 0 0.8179092851682114 0.5753472005977134
vn 0 0.318153115023507 0.9480393427494658
vn 0.000001000000134334527 -0.43415305832173817 0.9008391210137808
vn 0.017287998889540003 -0.30701098027976403 -0.9515489388791589
vn 1 0 0
vn 0 0.31815491257963247 -0.9480387395045872
vn 0 -0.4341409735378058 -0.9008449450907997
vn 0.017289003898480638 -0.30701006922740154 0.951549214563905
vn 1 0 -9.999999999995e-7
vn 1 -9.999999999950006e-7 0.0000029999999999849995
vn 0.01727400837291254 -0.3070101488113856 -0.9515494612270785
vn 0.0000010000003615346962 0.3181531150233484 -0.9480393427489917
vn 0.0000010000002102995664 -0.4341300912973506 -0.9008501894483646
vn 0.017276002473077208 -0.3070110439489413 0.9515491362152201
vn 1 0 0.000001999999999996
vn 1 9.999999999949993e-7 0.0000029999999999850004
vn 0.04536298255217547 -0.8062136899085066 -0.5898827731152025
vn 0.05617998074035422 -0.9984206577209898 0
vn 0.04536600313760362 -0.8062140557593785 0.5898820407974229
vn 0.04536500519554093 -0.8062140923336899 0.5898820675577222
vn 0.0453649784355358 -0.8062136167624171 -0.5898827195963667
vn 0.05617998074035422 0.9984206577209898 0
vn 0.04536500519554093 0.8062140923336899 -0.5898820675577222
vn 0.04536500519554093 0.8062140923336897 0.5898820675577227
vn 0.01727500807497984 0.30701014350793426 -0.9515494447895219
vn 0.017289003898480634 0.30701006922740104 0.951549214563905
vn 0.017275002771368453 0.3070110492527118 0.9515491526537123
vn 0.017288998590574957 0.307010974972006 -0.9515489224283076
vn 0 0.3070570367347706 0.9516911138555733
vn 0 -0.8179100867737215 -0.5753460610396178
vn -9.999997252266132e-7 -0.3181549125794729 -0.9480387395041133
vn 0 -0.8179092851682116 0.5753472005977129
vn 0 0.43414097353780623 -0.9008449450907995
vn 0 0.8070449708959411 0.5904899787054557
vn 0 0.8070449708959415 -0.5904899787054554
vn 0 0.307057036734771 -0.951691113855573
vn 0 -0.8179092851682114 -0.5753472005977134
vn 0 -0.318153115023507 -0.9480393427494658
vn -0.000001000000134334527 0.43415305832173817 -0.9008391210137808
vn -0.017287998889540003 0.30701098027976403 0.9515489388791589
vn 0 -0.31815491257963247 0.9480387395045872
vn 0 0.4341409735378058 0.9008449450907997
vn -0.017289003898480638 0.30701006922740154 -0.951549214563905
vn -1 0 9.999999999995e-7
vn -1 9.999999999950006e-7 -0.0000029999999999849995
vn -0.01727400837291254 0.3070101488113856 0.9515494612270785
vn -0.0000010000003615346962 -0.3181531150233484 0.9480393427489917
vn -0.0000010000002102995664 0.4341300912973506 0.9008501894483646
vn -0.017276002473077208 0.3070110439489413 -0.9515491362152201
vn -1 0 -0.000001999999999996
vn -1 -9.999999999949993e-7 -0.0000029999999999850004
vn -0.04536298255217547 0.8062136899085066 0.5898827731152025
vn -0.05617998074035422 0.9984206577209898 0
vn -0.04536600313760362 0.8062140557593785 -0.5898820407974229
vn -0.04536500519554093 0.8062140923336899 -0.5898820675577222
vn -0.0453649784355358 0.8062136167624171 0.5898827195963667
usemtl material_0_0
f 1//1 2//1 3//1
f 4//2 2//2 1//2
f 5//3 3//3 2//3
f 6//1 1//1 3//1
f 5//2 2//2 4//2
f 4//4 1//4 7//4
f 8//3 3//3 5//3
f 6//1 9//1 1//1
f 6//1 3//1 10//1
f 11//1 5//1 4//1
f 7//4 1//4 9//4
f 12//1 4//1 7//1
f 8//5 13//5 3//5
f 5//1 14//1 8//1
f 9//6 6//6 15//6
f 3//1 13//1 10//1
f 6//1 10//1 16//1
f 11//1 14//1 5//1
f 12//1 11//1 4//1
f 7//7 9//7 15//7
f 17//1 12//1 7//1
f 8//8 18//8 13//8
f 14//1 19//1 8//1
f 15//9 6//9 20//9
f 21//10 10//10 13//10
f 16//1 10//1 22//1
f 6//1 16//1 23//1
f 11//11 24//11 14//11
f 12//12 25//12 11//12
f 17//1 7//1 15//1
f 12//13 17//13 26//13
f 8//1 19//1 18//1
f 18//14 21//14 13//14
f 14//15 27//15 19//15
f 20//9 6//9 28//9
f 26//16 15//16 20//16
f 21//10 29//10 10//10
f 10//17 29//17 22//17
f 22//18 30//18 16//18
f 16//19 31//19 23//19
f 6//20 23//20 32//20
f 11//21 25//21 24//21
f 14//11 24//11 27//11
f 12//22 26//22 25//22
f 17//23 15//23 26//23
f 19//1 33//1 18//1
f 34//14 21//14 18//14
f 19//15 27//15 35//15
f 6//20 32//20 28//20
f 36//24 20//24 28//24
f 26//25 20//25 25//25
f 29//25 21//25 37//25
f 22//17 29//17 30//17
f 16//18 30//18 31//18
f 23//19 31//19 32//19
f 25//25 36//25 24//25
f 24//25 38//25 27//25
f 35//26 33//26 19//26
f 33//27 34//27 18//27
f 37//28 21//28 34//28
f 39//29 35//29 27//29
f 28//30 32//30 31//30
f 20//25 36//25 25//25
f 36//31 28//31 40//31
f 41//25 29//25 37//25
f 31//25 30//25 29//25
f 36//25 38//25 24//25
f 38//25 39//25 27//25
f 35//32 42//32 33//32
f 42//33 34//33 33//33
f 43//34 37//34 34//34
f 39//29 43//29 35//29
f 28//35 31//35 41//35
f 28//36 41//36 40//36
f 40//37 38//37 36//37
f 41//25 31//25 29//25
f 41//25 37//25 44//25
f 41//38 39//38 38//38
f 43//25 42//25 35//25
f 43//25 34//25 42//25
f 37//39 43//39 44//39
f 44//40 43//40 39//40
f 40//41 41//41 38//41
f 44//38 39//38 41//38
usemtl material_1_0
f 3//25 2//25 1//25
f 1//42 2//42 4//42
f 2//43 3//43 5//43
f 3//25 1//25 6//25
f 4//42 2//42 5//42
f 7//44 1//44 4//44
f 5//43 3//43 8//43
f 1//25 9//25 6//25
f 10//25 3//25 6//25
f 4//25 5//25 11//25
f 9//44 1//44 7//44
f 7//25 4//25 12//25
f 3//45 13//45 8//45
f 8//25 14//25 5//25
f 15//46 6//46 9//46
f 10//25 13//25 3//25
f 16//25 10//25 6//25
f 5//25 14//25 11//25
f 4//25 11//25 12//25
f 15//47 9//47 7//47
f 7//25 12//25 17//25
f 13//48 18//48 8//48
f 8//25 19//25 14//25
f 20//14 6//14 15//14
f 13//49 10//49 21//49
f 22//25 10//25 16//25
f 23//25 16//25 6//25
f 14//18 24//18 11//18
f 11//50 25//50 12//50
f 15//25 7//25 17//25
f 26//51 17//51 12//51
f 18//25 19//25 8//25
f 13//9 21//9 18//9
f 19//52 27//52 14//52
f 28//14 6//14 20//14
f 20//53 15//53 26//53
f 10//49 29//49 21//49
f 22//54 29//54 10//54
f 16//11 30//11 22//11
f 23//55 31//55 16//55
f 32//56 23//56 6//56
f 24//57 25//57 11//57
f 27//18 24//18 14//18
f 25//58 26//58 12//58
f 26//59 15//59 17//59
f 18//25 33//25 19//25
f 18//9 21//9 34//9
f 35//52 27//52 19//52
f 28//56 32//56 6//56
f 28//60 20//60 36//60
f 25//1 20//1 26//1
f 37//1 21//1 29//1
f 30//54 29//54 22//54
f 31//11 30//11 16//11
f 32//55 31//55 23//55
f 24//1 36//1 25//1
f 27//1 38//1 24//1
f 19//61 33//61 35//61
f 18//62 34//62 33//62
f 34//63 21//63 37//63
f 27//64 35//64 39//64
f 31//65 32//65 28//65
f 25//1 36//1 20//1
f 40//66 28//66 36//66
f 37//1 29//1 41//1
f 29//1 30//1 31//1
f 24//1 38//1 36//1
f 27//1 39//1 38//1
f 33//67 42//67 35//67
f 33//68 34//68 42//68
f 34//69 37//69 43//69
f 35//64 43//64 39//64
f 41//70 31//70 28//70
f 40//71 41//71 28//71
f 36//72 38//72 40//72
f 29//1 31//1 41//1
f 44//1 37//1 41//1
f 38//73 39//73 41//73
f 35//1 42//1 43//1
f 42//1 34//1 43//1
f 44//74 43//74 37//74
f 39//75 43//75 44//75
f 38//76 41//76 40//76
f 41//73 39//73 44//73
