# SSTK version 0.8.0
# 23
mtllib original-23.mtl
o mesh23/mesh23-geometry#mesh23-geometry
v -0.252176 -0.052689 0.035328
v -0.252176 -0.059081 0.011473
v -0.252176 -0.052689 -0.012382
v -0.293851 -0.052689 0.035328
v -0.293851 -0.059081 0.011473
v -0.252176 -0.011370 0.059184
v -0.293851 -0.035226 0.052792
v -0.293851 -0.052689 -0.012382
v -0.252176 -0.035226 0.052792
v -0.252176 0.029949 -0.012382
v -0.293851 -0.011370 0.059184
v -0.252176 -0.035226 -0.029846
v -0.252176 -0.011370 -0.036238
v -0.252176 0.029949 0.035328
v -0.293851 -0.011370 -0.036238
v -0.293851 0.029949 0.035328
v -0.293851 -0.035226 -0.029846
v -0.293851 0.012485 0.052792
v -0.252176 0.012485 -0.029846
v -0.252176 0.036341 0.011473
v -0.252176 0.012485 0.052792
v -0.293851 0.012485 -0.029846
v -0.293851 0.029949 -0.012382
v -0.293851 0.036341 0.011473
vn 1 0 0
vn 0 -0.9659260992006156 0.2588180265806125
vn 0 -0.9659260992006156 -0.258818026580613
vn 0 -0.7071067811865478 0.7071067811865476
vn -1 0 0
vn 0.000001000000397657237 -0.7071062811858184 0.7071072811862159
vn 0 -0.7071067811865476 -0.7071067811865478
vn 0 -0.2588189595935757 0.9659258492011171
vn -1 -9.999999999995e-7 0
vn 0 0.2588189595935752 0.9659258492011171
vn -1 -0.0000019999999999919997 -0.0000019999999999920005
vn 0 -0.2588189595935752 -0.9659258492011171
vn 0 0.2588189595935757 -0.9659258492011171
vn 0 0.7071072811865697 -0.7071062811861718
vn 0 0.9659258492011171 -0.2588189595935752
vn 0 0.9659258492011171 0.2588189595935757
vn 0 0.7071072811865695 0.707106281186172
vn -1 9.999999999995e-7 0
vn -1 0.0000019999999999920005 -0.0000019999999999919997
vn 0 0.9659260992006156 -0.2588180265806125
vn 0 0.9659260992006156 0.258818026580613
vn 0 0.7071067811865478 -0.7071067811865476
vn -0.000001000000397657237 0.7071062811858184 -0.7071072811862159
vn 0 0.7071067811865476 0.7071067811865478
vn 1 9.999999999995e-7 0
vn 1 0.0000019999999999919997 0.0000019999999999920005
vn 0 -0.7071072811865697 0.7071062811861718
vn 0 -0.9659258492011171 0.2588189595935752
vn 0 -0.9659258492011171 -0.2588189595935757
vn 0 -0.7071072811865695 -0.707106281186172
vn 1 -9.999999999995e-7 0
vn 1 -0.0000019999999999920005 0.0000019999999999919997
usemtl material_0_0
f 1//1 2//1 3//1
f 4//2 2//2 1//2
f 5//3 3//3 2//3
f 6//1 1//1 3//1
f 5//2 2//2 4//2
f 7//4 4//4 1//4
f 8//3 3//3 5//3
f 6//1 9//1 1//1
f 6//1 3//1 10//1
f 4//5 8//5 5//5
f 11//5 4//5 7//5
f 9//6 7//6 1//6
f 12//7 3//7 8//7
f 11//8 9//8 6//8
f 3//1 13//1 10//1
f 6//1 10//1 14//1
f 4//9 15//9 8//9
f 11//5 16//5 4//5
f 11//8 7//8 9//8
f 3//1 12//1 13//1
f 12//7 8//7 17//7
f 18//10 11//10 6//10
f 10//1 13//1 19//1
f 14//1 10//1 20//1
f 6//1 14//1 21//1
f 16//5 15//5 4//5
f 8//11 15//11 17//11
f 11//5 18//5 16//5
f 13//12 12//12 17//12
f 18//10 6//10 21//10
f 19//13 13//13 15//13
f 22//14 10//14 19//14
f 23//15 20//15 10//15
f 24//16 14//16 20//16
f 16//17 21//17 14//17
f 16//18 23//18 15//18
f 13//12 17//12 15//12
f 18//17 21//17 16//17
f 19//13 15//13 22//13
f 23//14 10//14 22//14
f 24//15 20//15 23//15
f 16//16 14//16 24//16
f 16//5 24//5 23//5
f 23//19 22//19 15//19
usemtl material_1_0
f 3//5 2//5 1//5
f 1//20 2//20 4//20
f 2//21 3//21 5//21
f 3//5 1//5 6//5
f 4//20 2//20 5//20
f 1//22 4//22 7//22
f 5//21 3//21 8//21
f 1//5 9//5 6//5
f 10//5 3//5 6//5
f 5//1 8//1 4//1
f 7//1 4//1 11//1
f 1//23 7//23 9//23
f 8//24 3//24 12//24
f 6//13 9//13 11//13
f 10//5 13//5 3//5
f 14//5 10//5 6//5
f 8//25 15//25 4//25
f 4//1 16//1 11//1
f 9//13 7//13 11//13
f 13//5 12//5 3//5
f 17//24 8//24 12//24
f 6//12 11//12 18//12
f 19//5 13//5 10//5
f 20//5 10//5 14//5
f 21//5 14//5 6//5
f 4//1 15//1 16//1
f 17//26 15//26 8//26
f 16//1 18//1 11//1
f 17//10 12//10 13//10
f 21//12 6//12 18//12
f 15//8 13//8 19//8
f 19//27 10//27 22//27
f 10//28 20//28 23//28
f 20//29 14//29 24//29
f 14//30 21//30 16//30
f 15//31 23//31 16//31
f 15//10 17//10 13//10
f 16//30 21//30 18//30
f 22//8 15//8 19//8
f 22//27 10//27 23//27
f 23//28 20//28 24//28
f 24//29 14//29 16//29
f 23//1 24//1 16//1
f 15//32 22//32 23//32
