# SSTK version 0.8.0
# 16
mtllib original-16.mtl
o mesh16/mesh16-geometry#mesh16-geometry
v -0.180366 -0.652914 -0.400471
v -0.180366 -0.652914 -0.430640
v -0.180366 -0.670772 -0.455048
v -0.181810 -0.652833 -0.400471
v -0.181810 -0.652833 -0.430640
v -0.180366 -0.699667 -0.366741
v -0.181810 -0.670691 -0.376063
v -0.181810 -0.670691 -0.455048
v -0.180366 -0.670772 -0.376063
v -0.180366 -0.728562 -0.455048
v -0.181810 -0.648768 -0.399866
v -0.181810 -0.666626 -0.374479
v -0.180366 -0.699667 -0.464371
v -0.181810 -0.648768 -0.431246
v -0.181811 -0.699586 -0.366741
v -0.180366 -0.746421 -0.400471
v -0.181811 -0.695521 -0.364782
v -0.181810 -0.699586 -0.464371
v -0.181810 -0.666626 -0.456633
v -0.104133 -0.699586 -0.366741
v -0.105577 -0.699667 -0.464371
v -0.180366 -0.746421 -0.430640
v -0.180366 -0.728562 -0.376063
v -0.104133 -0.648768 -0.399866
v -0.104133 -0.666626 -0.374479
v -0.104133 -0.695521 -0.364782
v -0.104133 -0.648768 -0.431246
v -0.105577 -0.699667 -0.366741
v -0.105577 -0.728562 -0.455048
v -0.105577 -0.746421 -0.430640
v -0.105577 -0.746421 -0.400471
v -0.105577 -0.728562 -0.376063
v -0.181810 -0.695521 -0.466330
v -0.104132 -0.699586 -0.464371
v -0.104132 -0.666626 -0.456633
v -0.104133 -0.670691 -0.376063
v -0.105577 -0.670772 -0.455048
v -0.104133 -0.652833 -0.400471
v -0.104133 -0.652833 -0.430640
v -0.105577 -0.670772 -0.376063
v -0.105577 -0.652914 -0.400471
v -0.104132 -0.695521 -0.466330
v -0.104132 -0.670691 -0.455048
v -0.105577 -0.652914 -0.430640
vn -1 0 0
vn -0.05617998074035422 -0.9984206577209898 0
vn -0.04536500519554093 -0.8062140923336899 0.5898820675577222
vn -0.04536500519554093 -0.8062140923336897 -0.5898820675577227
vn -0.045367999021321534 -0.8062139826083521 -0.5898819872750661
vn -0.017275002771368456 -0.3070110492527123 0.9515491526537123
vn -0.017288998590574957 -0.3070109749720056 -0.9515489224283078
vn -0.017281000980843727 -0.30701101742548514 -0.9515490540084988
vn -1 0 -9.999999999995e-7
vn -0.017288998590574957 -0.307010974972006 0.9515489224283076
vn 0 -0.0000020000000002180444 1
vn 0 -0.3070570367347706 -0.9516911138555733
vn 0 1 0
vn 0 0.8179092851682114 0.5753472005977134
vn 0 0.3181540138019984 0.9480390411273566
vn 0 0 -1
vn 0 0.8179092851682116 -0.5753472005977129
vn 0 0.000001999999999773955 1
vn 0 -0.4341381478761614 0.9008463068463213
vn 0 -0.30705794245043794 -0.9516908216317438
vn 0 -0.8070449708959411 -0.5904899787054557
vn 0 -1 0
vn 0 -0.8070449708959415 0.5904899787054554
vn 0 -0.3070579424504384 0.9516908216317436
vn 0.017288998590574957 -0.3070109749720056 -0.9515489224283078
vn 1 0 0
vn 0 0.31815491257963247 -0.9480387395045872
vn 0 -0.4341409735378058 -0.9008449450907997
vn 0.017288998590574957 -0.307010974972006 0.9515489224283076
vn 0.017275002771368453 -0.3070110492527118 -0.9515491526537123
vn 0 0.31815401380199887 -0.9480390411273564
vn 0 -0.43413814787616095 -0.9008463068463215
vn 0.01727499746774468 -0.3070119549966561 0.9515488605172204
vn 0.04536500519554093 -0.8062140923336897 -0.5898820675577227
vn 0.05617998074035422 -0.9984206577209898 0
vn 0.04536500519554093 -0.8062140923336899 0.5898820675577222
vn 0.05617998074035422 0.9984206577209898 0
vn 0.04536500519554093 0.8062140923336899 -0.5898820675577222
vn 0.04536500519554093 0.8062140923336897 0.5898820675577227
vn 0.045367999021321534 0.8062139826083521 0.5898819872750661
vn 0.017275002771368456 0.3070110492527123 -0.9515491526537123
vn 0.017288998590574957 0.3070109749720056 0.9515489224283078
vn 0.017281000980843727 0.30701101742548514 0.9515490540084988
vn 1 0 9.999999999995e-7
vn 0.017288998590574957 0.307010974972006 -0.9515489224283076
vn 0 0.0000020000000002180444 -1
vn 0 0.3070570367347706 0.9516911138555733
vn 0 -0.8179092851682114 -0.5753472005977134
vn 0 -0.3181540138019984 -0.9480390411273566
vn 0 0 1
vn 0 -0.8179092851682116 0.5753472005977129
vn 0 -0.000001999999999773955 -1
vn 0 0.4341381478761614 -0.9008463068463213
vn 0 0.30705794245043794 0.9516908216317438
vn 0 0.8070449708959411 0.5904899787054557
vn 0 0.8070449708959415 -0.5904899787054554
vn 0 0.3070579424504384 -0.9516908216317436
vn -0.017288998590574957 0.3070109749720056 0.9515489224283078
vn 0 -0.31815491257963247 0.9480387395045872
vn 0 0.4341409735378058 0.9008449450907997
vn -0.017288998590574957 0.307010974972006 -0.9515489224283076
vn -0.017275002771368453 0.3070110492527118 0.9515491526537123
vn 0 -0.31815401380199887 0.9480390411273564
vn 0 0.43413814787616095 0.9008463068463215
vn -0.01727499746774468 0.3070119549966561 -0.9515488605172204
vn -0.04536500519554093 0.8062140923336897 0.5898820675577227
vn -0.05617998074035422 0.9984206577209898 0
vn -0.04536500519554093 0.8062140923336899 -0.5898820675577222
usemtl material_0_0
f 1//1 2//1 3//1
f 4//2 2//2 1//2
f 5//3 3//3 2//3
f 6//1 1//1 3//1
f 5//2 2//2 4//2
f 4//4 1//4 7//4
f 8//3 3//3 5//3
f 6//1 9//1 1//1
f 6//1 3//1 10//1
f 11//1 5//1 4//1
f 7//5 1//5 9//5
f 12//1 4//1 7//1
f 8//6 13//6 3//6
f 5//1 14//1 8//1
f 9//7 6//7 15//7
f 3//1 13//1 10//1
f 6//1 10//1 16//1
f 11//1 14//1 5//1
f 12//1 11//1 4//1
f 7//8 9//8 15//8
f 17//9 12//9 7//9
f 8//10 18//10 13//10
f 14//1 19//1 8//1
f 15//11 6//11 20//11
f 21//12 10//12 13//12
f 16//1 10//1 22//1
f 6//1 16//1 23//1
f 11//13 24//13 14//13
f 12//14 25//14 11//14
f 17//9 7//9 15//9
f 12//15 17//15 26//15
f 8//1 19//1 18//1
f 18//16 21//16 13//16
f 14//17 27//17 19//17
f 20//18 6//18 28//18
f 26//19 15//19 20//19
f 21//20 29//20 10//20
f 10//21 29//21 22//21
f 22//22 30//22 16//22
f 16//23 31//23 23//23
f 6//24 23//24 32//24
f 11//14 25//14 24//14
f 14//13 24//13 27//13
f 12//15 26//15 25//15
f 17//19 15//19 26//19
f 19//1 33//1 18//1
f 34//16 21//16 18//16
f 19//17 27//17 35//17
f 6//24 32//24 28//24
f 36//25 20//25 28//25
f 26//26 20//26 25//26
f 37//26 29//26 21//26
f 22//21 29//21 30//21
f 16//22 30//22 31//22
f 23//23 31//23 32//23
f 25//26 36//26 24//26
f 24//26 38//26 27//26
f 35//27 33//27 19//27
f 33//28 34//28 18//28
f 37//29 21//29 34//29
f 39//26 35//26 27//26
f 28//26 32//26 31//26
f 20//26 36//26 25//26
f 36//30 28//30 40//30
f 41//26 29//26 37//26
f 31//26 30//26 29//26
f 36//26 38//26 24//26
f 38//26 39//26 27//26
f 35//31 42//31 33//31
f 42//32 34//32 33//32
f 43//33 37//33 34//33
f 39//26 43//26 35//26
f 28//26 31//26 41//26
f 28//26 41//26 40//26
f 40//34 38//34 36//34
f 41//26 31//26 29//26
f 41//26 37//26 44//26
f 41//35 39//35 38//35
f 43//26 42//26 35//26
f 43//26 34//26 42//26
f 44//36 37//36 43//36
f 44//36 43//36 39//36
f 41//34 38//34 40//34
f 44//35 39//35 41//35
usemtl material_1_0
f 3//26 2//26 1//26
f 1//37 2//37 4//37
f 2//38 3//38 5//38
f 3//26 1//26 6//26
f 4//37 2//37 5//37
f 7//39 1//39 4//39
f 5//38 3//38 8//38
f 1//26 9//26 6//26
f 10//26 3//26 6//26
f 4//26 5//26 11//26
f 9//40 1//40 7//40
f 7//26 4//26 12//26
f 3//41 13//41 8//41
f 8//26 14//26 5//26
f 15//42 6//42 9//42
f 10//26 13//26 3//26
f 16//26 10//26 6//26
f 5//26 14//26 11//26
f 4//26 11//26 12//26
f 15//43 9//43 7//43
f 7//44 12//44 17//44
f 13//45 18//45 8//45
f 8//26 19//26 14//26
f 20//46 6//46 15//46
f 13//47 10//47 21//47
f 22//26 10//26 16//26
f 23//26 16//26 6//26
f 14//22 24//22 11//22
f 11//48 25//48 12//48
f 15//44 7//44 17//44
f 26//49 17//49 12//49
f 18//26 19//26 8//26
f 13//50 21//50 18//50
f 19//51 27//51 14//51
f 28//52 6//52 20//52
f 20//53 15//53 26//53
f 10//54 29//54 21//54
f 22//55 29//55 10//55
f 16//13 30//13 22//13
f 23//56 31//56 16//56
f 32//57 23//57 6//57
f 24//48 25//48 11//48
f 27//22 24//22 14//22
f 25//49 26//49 12//49
f 26//53 15//53 17//53
f 18//26 33//26 19//26
f 18//50 21//50 34//50
f 35//51 27//51 19//51
f 28//57 32//57 6//57
f 28//58 20//58 36//58
f 25//1 20//1 26//1
f 21//1 29//1 37//1
f 30//55 29//55 22//55
f 31//13 30//13 16//13
f 32//56 31//56 23//56
f 24//1 36//1 25//1
f 27//1 38//1 24//1
f 19//59 33//59 35//59
f 18//60 34//60 33//60
f 34//61 21//61 37//61
f 27//1 35//1 39//1
f 31//1 32//1 28//1
f 25//1 36//1 20//1
f 40//62 28//62 36//62
f 37//1 29//1 41//1
f 29//1 30//1 31//1
f 24//1 38//1 36//1
f 27//1 39//1 38//1
f 33//63 42//63 35//63
f 33//64 34//64 42//64
f 34//65 37//65 43//65
f 35//1 43//1 39//1
f 41//1 31//1 28//1
f 40//1 41//1 28//1
f 36//66 38//66 40//66
f 29//1 31//1 41//1
f 44//1 37//1 41//1
f 38//67 39//67 41//67
f 35//1 42//1 43//1
f 42//1 34//1 43//1
f 43//68 37//68 44//68
f 39//68 43//68 44//68
f 40//66 38//66 41//66
f 41//67 39//67 44//67
