# SSTK version 0.8.0
# 19
mtllib original-19.mtl
o mesh19/mesh19-geometry#mesh19-geometry
v 0.485965 -0.627041 0.424834
v 0.495212 -0.627041 0.424834
v 0.490589 -0.627041 0.422287
v 0.490589 -0.627041 0.432474
v 0.495212 -0.660285 0.424834
v 0.490589 -0.660285 0.422287
v 0.485965 -0.627041 0.429928
v 0.495212 -0.627041 0.429928
v 0.495212 -0.660285 0.429928
v 0.485965 -0.660285 0.424834
v 0.485965 -0.660285 0.429928
v 0.490589 -0.660285 0.432474
vn 0 1 0
vn 0.4824721662828546 0 -0.8759113018806924
vn -0.4824721662828546 0 -0.8759113018806924
vn 1 0 0
vn -0.4824721662828546 0 0.8759113018806924
vn -1 0 0
vn 0.4824721662828546 0 0.8759113018806924
vn 0 -1 0
usemtl material_0_0
f 1//1 2//1 3//1
f 1//1 4//1 2//1
f 2//2 5//2 3//2
f 3//3 6//3 1//3
f 7//1 4//1 1//1
f 4//1 8//1 2//1
f 9//4 5//4 2//4
f 3//2 5//2 6//2
f 1//3 6//3 10//3
f 7//5 11//5 4//5
f 7//6 1//6 10//6
f 4//7 12//7 8//7
f 9//4 2//4 8//4
f 12//8 5//8 9//8
f 6//8 5//8 12//8
f 10//8 6//8 12//8
f 7//6 10//6 11//6
f 4//5 11//5 12//5
f 8//7 12//7 9//7
f 10//8 12//8 11//8
usemtl material_1_0
f 3//8 2//8 1//8
f 2//8 4//8 1//8
f 3//5 5//5 2//5
f 1//7 6//7 3//7
f 1//8 4//8 7//8
f 2//8 8//8 4//8
f 2//6 5//6 9//6
f 6//5 5//5 3//5
f 10//7 6//7 1//7
f 4//2 11//2 7//2
f 10//4 1//4 7//4
f 8//3 12//3 4//3
f 8//6 2//6 9//6
f 9//1 5//1 12//1
f 12//1 5//1 6//1
f 12//1 6//1 10//1
f 11//4 10//4 7//4
f 12//2 11//2 4//2
f 9//3 12//3 8//3
f 11//1 12//1 10//1
