# SSTK version 0.8.0
# 9
mtllib original-9.mtl
o mesh9/mesh9-geometry#mesh9-geometry
v -0.062532 0.032142 -0.101232
v -0.010913 0.032142 -0.321209
v -0.010913 0.032142 -0.101232
v -0.062532 0.032142 -0.321209
v -0.010913 0.022439 -0.091668
v -0.010913 -0.029042 -0.101232
v -0.062532 0.037714 -0.404572
v -0.068310 0.036993 -0.101232
v -0.010913 0.022439 -0.321209
v -0.010913 -0.029042 0.079013
v -0.062532 -0.029042 -0.101232
v -0.010913 0.037714 -0.404572
v -0.068310 0.042566 -0.409545
v -0.068310 0.036993 -0.326182
v -0.068310 0.036993 0.079013
v -0.005135 0.017587 -0.321209
v -0.010913 0.032142 0.079013
v -0.062532 0.032142 0.079013
v -0.068310 0.047400 -0.326182
v -0.068310 0.047400 -0.101232
v -0.010913 0.028011 -0.404572
v -0.005135 0.017587 -0.086886
v -0.062532 -0.029042 0.079013
v -0.010913 0.046696 0.079013
v 0.046485 0.032142 0.079013
v -0.010913 0.046696 -0.101232
v -0.010913 0.042566 -0.409545
v -0.068310 0.052973 -0.409545
v -0.068310 0.036993 0.261652
v -0.068310 0.047400 0.079013
v -0.005135 0.037714 -0.409545
v -0.005135 0.023159 -0.404572
v 0.046485 0.017587 -0.321209
v -0.010913 0.021084 -0.090333
v -0.010913 0.017587 0.064667
v 0.046485 0.032142 -0.101232
v 0.046485 0.017587 0.064667
v -0.062532 0.052252 -0.101232
v -0.010913 0.052973 -0.409545
v -0.062532 0.032142 0.256680
v -0.068310 0.047400 0.261652
v -0.062532 0.052252 0.079013
v -0.005135 0.028011 -0.409545
v 0.046485 0.017587 -0.086886
v -0.010913 0.017587 0.256680
v 0.098105 0.032142 0.079013
v 0.046485 0.046696 0.079013
v 0.046485 0.017587 0.256680
v 0.040707 0.037714 -0.409545
v -0.062532 0.052252 -0.321209
v -0.010913 0.047400 -0.326182
v -0.010913 0.036993 0.261652
v -0.010913 0.047400 0.261652
v -0.062532 0.052252 0.256680
v 0.040707 0.028011 -0.409545
v 0.046485 0.023159 -0.404572
v -0.010913 0.032142 0.256680
v 0.098105 0.032142 -0.101232
v 0.046485 0.032142 0.256680
v 0.046485 0.046696 -0.101232
v -0.010913 0.052252 -0.101232
v -0.010913 0.052252 -0.321209
v 0.046485 0.052973 -0.409545
v -0.010913 0.052252 0.256680
v 0.046485 0.032142 -0.321209
v -0.005135 0.022439 0.261652
v 0.098105 0.032142 -0.321209
v 0.103883 0.036993 -0.101232
v 0.098105 0.032142 0.256680
v 0.040707 0.022439 0.261652
v 0.040707 0.032142 0.261652
v 0.046485 0.042566 -0.409545
v 0.046485 0.037714 -0.404572
v -0.010913 0.052252 0.079013
v 0.046485 0.047400 -0.326182
v -0.005135 0.032142 0.261652
v 0.046485 0.047400 0.261652
v 0.046485 0.052252 0.256680
v 0.103883 0.036993 -0.326182
v 0.103883 0.036993 0.079013
v 0.103883 0.036993 0.261652
v 0.046485 0.036993 0.261652
v 0.046485 0.052252 -0.101232
v 0.046485 0.052252 -0.321209
v 0.103883 0.052973 -0.409545
v 0.103883 0.042566 -0.409545
v 0.098105 0.037714 -0.404572
v 0.103883 0.047400 -0.101232
v 0.046485 0.052252 0.079013
v 0.103883 0.047400 -0.326182
v 0.098105 0.052252 0.256680
v 0.103883 0.047400 0.079013
v 0.103883 0.047400 0.261652
v 0.098105 0.052252 -0.101232
v 0.098105 0.052252 -0.321209
v 0.098105 0.052252 0.079013
vn 0 -1 0
vn -1 0 0
vn 0 0 -1
vn 0 -0.9977735453521155 -0.06669296961052187
vn -0.6430408778527892 -0.7658318545283385 0
vn 1 0 0
vn -0.6152268764507662 -0.7865948420368263 -0.05257798944134197
vn -0.6430430357695914 -0.7658300425996802 0
vn 0 -0.7157591866378109 -0.6983471820975433
vn -0.6422018814578923 -0.7648288588225484 -0.05112299056336158
vn 0 0 1
vn 0 -0.7157586867894353 -0.6983476944083534
vn -0.6522988764399277 0 -0.7579618564249838
vn -0.6421969460316975 -0.7648329357257373 -0.05112399570369312
vn -0.000005000002342899147 -0.7019803289336686 -0.7121963337206804
vn 0 0.7019783145958642 -0.7121983191760214
vn -0.5151231827404965 -0.6134882176355971 -0.5985652123416454
vn -0.6430381334304265 0.7658341589106044 0
vn 0 0.9977734788071728 0.06669396516201645
vn -0.5151218083590118 -0.6134907717627639 -0.5985637773160603
vn 0 -0.9977734743590834 -0.06669403170751757
vn 9.999997257351127e-7 0.7019768074723571 0.7121998046685475
vn 0 0.7019798289945756 0.7121968265056694
vn 0 -0.7157552364762645 0.6983512307262061
vn 0 -0.7157611617097901 -0.6983451577750445
vn 0 0.701978821822003 0.7121978192281921
vn 0 1 0
vn 0 0.7157596743262015 -0.6983466822491894
vn 0 0.7157576992512036 0.6983487065661563
vn -0.6522956696641845 0 0.7579646161512774
vn 0.6430408778527892 -0.7658318545283385 0
vn 0 -0.7157527615380604 0.6983537673347516
vn 0.6522961640812069 0 0.7579641906613683
vn 0.6522988764399277 0 -0.7579618564249838
vn -0.5151218467922255 -0.6134858175367686 0.598568821973388
vn 0.5151218467922255 -0.6134858175367686 0.598568821973388
vn 0.5151231827404965 -0.6134882176355971 -0.5985652123416454
vn 0.6152268764507662 -0.7865948420368263 -0.05257798944134197
vn 0.6152262549544271 -0.78659532597107 -0.05257802178873124
vn 0.6430387199319415 0.7658336664500264 0
vn 0.6430381334304265 0.7658341589106044 0
vn 0 0.9977735453521155 0.06669296961052187
vn 0.6430408778527892 0.7658318545283385 0
vn 0.6152268764507662 0.7865948420368263 0.05257798944134197
vn 0.6430430357695914 0.7658300425996802 0
vn 0 0.7157591866378109 0.6983471820975433
vn 0.6422018814578923 0.7648288588225484 0.05112299056336158
vn 0 0.7157586867894353 0.6983476944083534
vn 0.6522988764399277 0 0.7579618564249838
vn 0.6421969460316975 0.7648329357257373 0.05112399570369312
vn 0.000005000002342899147 0.7019803289336686 0.7121963337206804
vn 0 -0.7019783145958642 0.7121983191760214
vn 0.5151231827404965 0.6134882176355971 0.5985652123416454
vn 0.6430381334304265 -0.7658341589106044 0
vn 0 -0.9977734788071728 -0.06669396516201645
vn 0.5151218083590118 0.6134907717627639 0.5985637773160603
vn 0 0.9977734743590834 0.06669403170751757
vn -9.999997257351127e-7 -0.7019768074723571 -0.7121998046685475
vn 0 -0.7019798289945756 -0.7121968265056694
vn 0 0.7157552364762645 -0.6983512307262061
vn 0 0.7157611617097901 0.6983451577750445
vn 0 -0.701978821822003 -0.7121978192281921
vn 0 -0.7157596743262015 0.6983466822491894
vn 0 -0.7157576992512036 -0.6983487065661563
vn 0.6522956696641845 0 -0.7579646161512774
vn -0.6430408778527892 0.7658318545283385 0
vn 0 0.7157527615380604 -0.6983537673347516
vn -0.6522961640812069 0 -0.7579641906613683
vn -0.6522988764399277 0 0.7579618564249838
vn 0.5151218467922255 0.6134858175367686 -0.598568821973388
vn -0.5151218467922255 0.6134858175367686 -0.598568821973388
vn -0.5151231827404965 0.6134882176355971 0.5985652123416454
vn -0.6152268764507662 0.7865948420368263 0.05257798944134197
vn -0.6152262549544271 0.78659532597107 0.05257802178873124
vn -0.6430387199319415 -0.7658336664500264 0
vn -0.6430381334304265 -0.7658341589106044 0
usemtl material_0_0
f 1//1 2//1 3//1
f 4//1 2//1 1//1
f 5//2 3//2 2//2
f 3//3 6//3 1//3
f 7//4 2//4 4//4
f 8//5 4//5 1//5
f 5//2 2//2 9//2
f 10//6 6//6 3//6
f 1//3 6//3 11//3
f 7//4 12//4 2//4
f 13//7 7//7 4//7
f 14//5 4//5 8//5
f 8//5 1//5 15//5
f 2//2 12//2 9//2
f 9//8 16//8 5//8
f 11//1 6//1 10//1
f 10//6 3//6 17//6
f 18//2 1//2 11//2
f 13//9 12//9 7//9
f 13//7 4//7 14//7
f 8//2 19//2 14//2
f 15//5 1//5 18//5
f 15//2 20//2 8//2
f 9//2 12//2 21//2
f 21//10 16//10 9//10
f 5//8 16//8 22//8
f 11//1 10//1 23//1
f 24//2 3//2 17//2
f 3//1 25//1 17//1
f 17//6 3//6 26//6
f 17//11 23//11 10//11
f 18//2 11//2 23//2
f 13//12 27//12 12//12
f 14//2 28//2 13//2
f 20//2 19//2 8//2
f 19//2 28//2 14//2
f 15//5 18//5 29//5
f 30//2 20//2 15//2
f 31//13 21//13 12//13
f 21//14 32//14 16//14
f 16//1 33//1 22//1
f 5//15 22//15 34//15
f 24//2 26//2 3//2
f 17//6 35//6 24//6
f 24//2 35//2 17//2
f 17//6 26//6 24//6
f 3//1 36//1 25//1
f 25//16 37//16 17//16
f 18//11 23//11 17//11
f 28//3 27//3 13//3
f 27//17 31//17 12//17
f 19//18 20//18 38//18
f 19//19 39//19 28//19
f 29//5 18//5 40//5
f 41//2 15//2 29//2
f 20//18 30//18 42//18
f 41//2 30//2 15//2
f 31//13 43//13 21//13
f 21//20 43//20 32//20
f 32//21 33//21 16//21
f 22//1 33//1 44//1
f 36//22 34//22 22//22
f 45//2 17//2 35//2
f 17//16 37//16 35//16
f 3//23 34//23 36//23
f 36//1 46//1 25//1
f 25//6 36//6 47//6
f 47//2 36//2 25//2
f 48//6 37//6 25//6
f 18//1 17//1 40//1
f 39//3 27//3 28//3
f 27//3 49//3 31//3
f 20//18 42//18 38//18
f 19//18 38//18 50//18
f 19//19 51//19 39//19
f 29//24 40//24 52//24
f 41//11 29//11 53//11
f 30//18 54//18 42//18
f 30//18 41//18 54//18
f 31//3 55//3 43//3
f 43//25 56//25 32//25
f 32//21 56//21 33//21
f 44//6 33//6 36//6
f 36//26 22//26 44//26
f 57//2 17//2 45//2
f 35//1 37//1 45//1
f 36//1 58//1 46//1
f 25//1 46//1 59//1
f 47//6 36//6 60//6
f 47//2 60//2 36//2
f 45//1 37//1 48//1
f 48//6 25//6 59//6
f 40//1 17//1 57//1
f 39//3 49//3 27//3
f 49//3 55//3 31//3
f 38//27 42//27 61//27
f 50//27 38//27 62//27
f 19//28 50//28 51//28
f 51//19 63//19 39//19
f 40//24 57//24 52//24
f 53//11 29//11 52//11
f 41//29 53//29 64//29
f 42//27 54//27 64//27
f 41//29 64//29 54//29
f 43//25 55//25 56//25
f 33//6 56//6 65//6
f 36//6 33//6 65//6
f 44//2 60//2 36//2
f 44//6 36//6 60//6
f 57//30 45//30 66//30
f 36//1 67//1 58//1
f 58//31 68//31 46//31
f 59//1 46//1 69//1
f 45//32 48//32 70//32
f 71//33 48//33 59//33
f 39//3 72//3 49//3
f 73//34 55//34 49//34
f 42//27 74//27 61//27
f 38//27 61//27 62//27
f 50//28 62//28 51//28
f 51//19 75//19 63//19
f 63//3 72//3 39//3
f 57//35 76//35 52//35
f 53//11 52//11 77//11
f 53//29 78//29 64//29
f 42//27 64//27 74//27
f 73//34 56//34 55//34
f 65//6 56//6 73//6
f 65//1 67//1 36//1
f 45//32 70//32 66//32
f 57//30 66//30 76//30
f 67//31 79//31 58//31
f 58//31 79//31 68//31
f 46//31 68//31 80//31
f 46//31 80//31 69//31
f 59//24 69//24 81//24
f 71//33 70//33 48//33
f 71//36 59//36 82//36
f 49//37 72//37 73//37
f 61//27 74//27 83//27
f 62//27 61//27 84//27
f 62//28 75//28 51//28
f 63//19 75//19 85//19
f 63//3 86//3 72//3
f 77//11 52//11 76//11
f 53//29 77//29 78//29
f 74//27 64//27 78//27
f 73//4 67//4 65//4
f 87//38 79//38 67//38
f 68//6 79//6 88//6
f 80//6 68//6 88//6
f 69//31 80//31 81//31
f 59//24 81//24 82//24
f 82//11 76//11 71//11
f 72//12 87//12 73//12
f 74//27 89//27 83//27
f 61//27 83//27 84//27
f 62//28 84//28 75//28
f 75//19 90//19 85//19
f 85//3 86//3 63//3
f 72//9 86//9 87//9
f 77//11 76//11 82//11
f 77//29 91//29 78//29
f 74//27 78//27 89//27
f 73//4 87//4 67//4
f 87//39 86//39 79//39
f 88//6 79//6 90//6
f 80//6 88//6 92//6
f 81//6 80//6 93//6
f 93//11 82//11 81//11
f 83//27 89//27 94//27
f 84//27 83//27 95//27
f 84//28 90//28 75//28
f 90//6 86//6 85//6
f 77//11 82//11 93//11
f 77//29 93//29 91//29
f 89//27 78//27 91//27
f 79//6 86//6 90//6
f 95//40 88//40 90//40
f 94//41 92//41 88//41
f 93//6 80//6 92//6
f 89//27 96//27 94//27
f 83//27 94//27 95//27
f 84//28 95//28 90//28
f 96//41 91//41 93//41
f 89//27 91//27 96//27
f 95//41 94//41 88//41
f 94//41 96//41 92//41
f 96//41 93//41 92//41
usemtl material_1_0
f 3//27 2//27 1//27
f 1//27 2//27 4//27
f 2//6 3//6 5//6
f 1//11 6//11 3//11
f 4//42 2//42 7//42
f 1//43 4//43 8//43
f 9//6 2//6 5//6
f 3//2 6//2 10//2
f 11//11 6//11 1//11
f 2//42 12//42 7//42
f 4//44 7//44 13//44
f 8//43 4//43 14//43
f 15//43 1//43 8//43
f 9//6 12//6 2//6
f 5//45 16//45 9//45
f 10//27 6//27 11//27
f 17//2 3//2 10//2
f 11//6 1//6 18//6
f 7//46 12//46 13//46
f 14//44 4//44 13//44
f 14//6 19//6 8//6
f 18//43 1//43 15//43
f 8//6 20//6 15//6
f 21//6 12//6 9//6
f 9//47 16//47 21//47
f 22//45 16//45 5//45
f 23//27 10//27 11//27
f 17//6 3//6 24//6
f 17//27 25//27 3//27
f 26//2 3//2 17//2
f 10//3 23//3 17//3
f 23//6 11//6 18//6
f 12//48 27//48 13//48
f 13//6 28//6 14//6
f 8//6 19//6 20//6
f 14//6 28//6 19//6
f 29//43 18//43 15//43
f 15//6 20//6 30//6
f 12//49 21//49 31//49
f 16//50 32//50 21//50
f 22//27 33//27 16//27
f 34//51 22//51 5//51
f 3//6 26//6 24//6
f 24//2 35//2 17//2
f 17//6 35//6 24//6
f 24//2 26//2 17//2
f 25//27 36//27 3//27
f 17//52 37//52 25//52
f 17//3 23//3 18//3
f 13//11 27//11 28//11
f 12//53 31//53 27//53
f 38//54 20//54 19//54
f 28//55 39//55 19//55
f 40//43 18//43 29//43
f 29//6 15//6 41//6
f 42//54 30//54 20//54
f 15//6 30//6 41//6
f 21//49 43//49 31//49
f 32//56 43//56 21//56
f 16//57 33//57 32//57
f 44//27 33//27 22//27
f 22//58 34//58 36//58
f 35//6 17//6 45//6
f 35//52 37//52 17//52
f 36//59 34//59 3//59
f 25//27 46//27 36//27
f 47//2 36//2 25//2
f 25//6 36//6 47//6
f 25//2 37//2 48//2
f 40//27 17//27 18//27
f 28//11 27//11 39//11
f 31//11 49//11 27//11
f 38//54 42//54 20//54
f 50//54 38//54 19//54
f 39//55 51//55 19//55
f 52//60 40//60 29//60
f 53//3 29//3 41//3
f 42//54 54//54 30//54
f 54//54 41//54 30//54
f 43//11 55//11 31//11
f 32//61 56//61 43//61
f 33//57 56//57 32//57
f 36//2 33//2 44//2
f 44//62 22//62 36//62
f 45//6 17//6 57//6
f 45//27 37//27 35//27
f 46//27 58//27 36//27
f 59//27 46//27 25//27
f 60//2 36//2 47//2
f 36//6 60//6 47//6
f 48//27 37//27 45//27
f 59//2 25//2 48//2
f 57//27 17//27 40//27
f 27//11 49//11 39//11
f 31//11 55//11 49//11
f 61//1 42//1 38//1
f 62//1 38//1 50//1
f 51//63 50//63 19//63
f 39//55 63//55 51//55
f 52//60 57//60 40//60
f 52//3 29//3 53//3
f 64//64 53//64 41//64
f 64//1 54//1 42//1
f 54//64 64//64 41//64
f 56//61 55//61 43//61
f 65//2 56//2 33//2
f 65//2 33//2 36//2
f 36//6 60//6 44//6
f 60//2 36//2 44//2
f 66//65 45//65 57//65
f 58//27 67//27 36//27
f 46//66 68//66 58//66
f 69//27 46//27 59//27
f 70//67 48//67 45//67
f 59//68 48//68 71//68
f 49//11 72//11 39//11
f 49//69 55//69 73//69
f 61//1 74//1 42//1
f 62//1 61//1 38//1
f 51//63 62//63 50//63
f 63//55 75//55 51//55
f 39//11 72//11 63//11
f 52//70 76//70 57//70
f 77//3 52//3 53//3
f 64//64 78//64 53//64
f 74//1 64//1 42//1
f 55//69 56//69 73//69
f 73//2 56//2 65//2
f 36//27 67//27 65//27
f 66//67 70//67 45//67
f 76//65 66//65 57//65
f 58//66 79//66 67//66
f 68//66 79//66 58//66
f 80//66 68//66 46//66
f 69//66 80//66 46//66
f 81//60 69//60 59//60
f 48//68 70//68 71//68
f 82//71 59//71 71//71
f 73//72 72//72 49//72
f 83//1 74//1 61//1
f 84//1 61//1 62//1
f 51//63 75//63 62//63
f 85//55 75//55 63//55
f 72//11 86//11 63//11
f 76//3 52//3 77//3
f 78//64 77//64 53//64
f 78//1 64//1 74//1
f 65//42 67//42 73//42
f 70//3 66//3 71//3
f 71//3 66//3 76//3
f 67//73 79//73 87//73
f 88//2 79//2 68//2
f 88//2 68//2 80//2
f 81//66 80//66 69//66
f 82//60 81//60 59//60
f 71//3 76//3 82//3
f 73//48 87//48 72//48
f 83//1 89//1 74//1
f 84//1 83//1 61//1
f 75//63 84//63 62//63
f 85//55 90//55 75//55
f 63//11 86//11 85//11
f 87//46 86//46 72//46
f 82//3 76//3 77//3
f 78//64 91//64 77//64
f 89//1 78//1 74//1
f 67//42 87//42 73//42
f 79//74 86//74 87//74
f 90//2 79//2 88//2
f 92//2 88//2 80//2
f 93//2 80//2 81//2
f 81//3 82//3 93//3
f 94//1 89//1 83//1
f 95//1 83//1 84//1
f 75//63 90//63 84//63
f 85//2 86//2 90//2
f 93//3 82//3 77//3
f 91//64 93//64 77//64
f 91//1 78//1 89//1
f 90//2 86//2 79//2
f 90//75 88//75 95//75
f 88//76 92//76 94//76
f 92//2 80//2 93//2
f 94//1 96//1 89//1
f 95//1 94//1 83//1
f 90//63 95//63 84//63
f 93//76 91//76 96//76
f 96//1 91//1 89//1
f 88//76 94//76 95//76
f 92//76 96//76 94//76
f 92//76 93//76 96//76
usemtl material_2_0
f 71//11 66//11 70//11
f 76//11 66//11 71//11
