# SSTK version 0.8.0
# 22
mtllib original-22.mtl
o mesh22/mesh22-geometry#mesh22-geometry
v -0.054066 -0.024987 0.019335
v -0.054066 -0.027094 0.011473
v -0.054066 -0.024987 0.003611
v -0.262442 -0.024987 0.019335
v -0.262442 -0.027094 0.011473
v -0.054066 -0.011370 0.027197
v -0.262442 -0.019232 0.025090
v -0.262442 -0.024987 0.003611
v -0.054066 -0.019232 0.025090
v -0.054066 0.002247 0.003611
v -0.262442 -0.011370 0.027197
v -0.054066 -0.019232 -0.002144
v -0.054066 -0.011370 -0.004251
v -0.054066 0.002247 0.019335
v -0.262442 -0.011370 -0.004251
v -0.262442 0.002247 0.019335
v -0.262442 -0.019232 -0.002144
v -0.262442 -0.003508 0.025090
v -0.054066 -0.003508 -0.002144
v -0.054066 0.004353 0.011473
v -0.054066 -0.003508 0.025090
v -0.262442 -0.003508 -0.002144
v -0.262442 0.002247 0.003611
v -0.262442 0.004353 0.011473
vn 1 9.999999999995e-7 0
vn 0 -0.9659258492011171 0.2588189595935752
vn 0 -0.9659258492011171 -0.2588189595935757
vn 1 0 0
vn 0 -0.7071087811831003 0.7071047811843378
vn 0 -0.9659255992008469 -0.25881989260581395
vn -1 0 0
vn 0 -0.7071067811865478 0.7071067811865476
vn 0 -0.7071067811865476 -0.7071067811865478
vn 0 -0.2588189595935757 0.9659258492011171
vn 0 -0.7071087811831 -0.7071047811843381
vn 0 0.25882387465149825 0.9659245322023796
vn 1 -9.999999999995e-7 0
vn 0 -0.2588189595935752 -0.9659258492011171
vn 0 0.2588180265806125 0.9659260992006156
vn 0 0.258818026580613 -0.9659260992006156
vn 0 0.7071067811865478 -0.7071067811865476
vn 0 0.9659269161797637 -0.25881497754081345
vn 0 0.9659269161797635 0.2588149775408139
vn 0 0.7071067811865476 0.7071067811865478
vn 0 0.7071027811764716 0.7071107811739962
vn 0 0.25881989260581395 -0.9659255992008469
vn 0 0.7071047811843381 -0.7071087811831
vn 0 0.9659266661830462 -0.2588159105551776
vn -1 -9.999999999995e-7 0
vn 0 0.9659258492011171 -0.2588189595935752
vn 0 0.9659258492011171 0.2588189595935757
vn 0 0.7071087811831003 -0.7071047811843378
vn 0 0.9659255992008469 0.25881989260581395
vn 0 0.2588189595935757 -0.9659258492011171
vn 0 0.7071087811831 0.7071047811843381
vn 0 -0.25882387465149825 -0.9659245322023796
vn -1 9.999999999995e-7 0
vn 0 0.2588189595935752 0.9659258492011171
vn 0 -0.2588180265806125 -0.9659260992006156
vn 0 -0.258818026580613 0.9659260992006156
vn 0 -0.9659269161797637 0.25881497754081345
vn 0 -0.9659269161797635 -0.2588149775408139
vn 0 -0.7071027811764716 -0.7071107811739962
vn 0 -0.25881989260581395 0.9659255992008469
vn 0 -0.7071047811843381 0.7071087811831
vn 0 -0.9659266661830462 0.2588159105551776
usemtl material_0_0
f 1//1 2//1 3//1
f 4//2 2//2 1//2
f 5//3 3//3 2//3
f 6//4 1//4 3//4
f 5//2 2//2 4//2
f 4//5 1//5 7//5
f 8//6 3//6 5//6
f 6//4 9//4 1//4
f 6//4 3//4 10//4
f 4//7 8//7 5//7
f 7//8 1//8 9//8
f 11//7 4//7 7//7
f 8//9 12//9 3//9
f 11//10 9//10 6//10
f 3//4 13//4 10//4
f 6//4 10//4 14//4
f 4//7 15//7 8//7
f 11//10 7//10 9//10
f 11//7 16//7 4//7
f 17//11 12//11 8//11
f 3//4 12//4 13//4
f 18//12 11//12 6//12
f 10//4 13//4 19//4
f 14//13 10//13 20//13
f 6//4 14//4 21//4
f 16//7 15//7 4//7
f 8//7 15//7 17//7
f 11//7 18//7 16//7
f 13//14 12//14 17//14
f 21//15 18//15 6//15
f 19//16 13//16 15//16
f 10//17 19//17 22//17
f 23//18 20//18 10//18
f 24//19 14//19 20//19
f 16//20 21//20 14//20
f 16//7 23//7 15//7
f 13//14 17//14 15//14
f 16//21 18//21 21//21
f 19//22 15//22 22//22
f 10//23 22//23 23//23
f 24//24 20//24 23//24
f 16//19 14//19 24//19
f 16//7 24//7 23//7
f 23//7 22//7 15//7
usemtl material_1_0
f 3//25 2//25 1//25
f 1//26 2//26 4//26
f 2//27 3//27 5//27
f 3//7 1//7 6//7
f 4//26 2//26 5//26
f 7//28 1//28 4//28
f 5//29 3//29 8//29
f 1//7 9//7 6//7
f 10//7 3//7 6//7
f 5//4 8//4 4//4
f 9//17 1//17 7//17
f 7//4 4//4 11//4
f 3//20 12//20 8//20
f 6//30 9//30 11//30
f 10//7 13//7 3//7
f 14//7 10//7 6//7
f 8//4 15//4 4//4
f 9//30 7//30 11//30
f 4//4 16//4 11//4
f 8//31 12//31 17//31
f 13//7 12//7 3//7
f 6//32 11//32 18//32
f 19//7 13//7 10//7
f 20//33 10//33 14//33
f 21//7 14//7 6//7
f 4//4 15//4 16//4
f 17//4 15//4 8//4
f 16//4 18//4 11//4
f 17//34 12//34 13//34
f 6//35 18//35 21//35
f 15//36 13//36 19//36
f 22//8 19//8 10//8
f 10//37 20//37 23//37
f 20//38 14//38 24//38
f 14//9 21//9 16//9
f 15//4 23//4 16//4
f 15//34 17//34 13//34
f 21//39 18//39 16//39
f 22//40 15//40 19//40
f 23//41 22//41 10//41
f 23//42 20//42 24//42
f 24//38 14//38 16//38
f 23//4 24//4 16//4
f 15//4 22//4 23//4
