# SSTK version 0.8.0
# 6
mtllib original-6.mtl
o mesh6/mesh6-geometry#mesh6-geometry
v -0.034147 -0.521890 0.088768
v -0.014392 -0.521890 0.062828
v -0.034147 -0.521890 0.120832
v -0.034147 -0.169589 0.088768
v 0.017572 -0.521890 0.156680
v -0.034147 -0.169589 0.120832
v -0.014392 -0.169589 0.062828
v 0.049535 -0.521890 0.062828
v -0.014392 -0.521890 0.146772
v -0.014392 -0.169589 0.146772
v -0.034147 -0.164989 0.088768
v 0.017572 -0.521890 0.052919
v -0.034147 -0.164989 0.120832
v 0.069290 -0.521890 0.120832
v 0.017572 -0.169589 0.156680
v -0.014392 -0.164989 0.146772
v -0.014392 -0.164989 0.062828
v 0.017572 -0.169589 0.052919
v 0.069290 -0.521890 0.088768
v 0.049535 -0.521890 0.146772
v 0.049535 -0.169589 0.146772
v 0.017572 -0.164989 0.156680
v 0.049535 -0.169589 0.062828
v 0.069290 -0.169589 0.088768
v 0.069290 -0.169589 0.120832
v 0.049535 -0.164989 0.146772
v 0.049535 -0.164989 0.062828
v 0.017572 -0.164989 0.052919
v 0.069290 -0.164989 0.120832
v 0.069290 -0.164989 0.088768
vn 0 -1 0
vn -0.7955694786127534 0 -0.6058623644853935
vn -1 0 0
vn -0.7955689966068983 0 0.6058629974159944
vn -0.29608699296941443 0 -0.9551609773197028
vn -0.29608608063653835 0 0.9551612601300858
vn 0.29608608063653835 0 -0.9551612601300858
vn 0.29608608063653835 0 0.9551612601300858
vn 0.7955698456817409 0 -0.6058618824797704
vn 1 0 0
vn 0.7955694786127534 0 0.6058623644853935
vn 0 1 0
vn 0.7955689966068983 0 -0.6058629974159944
vn 0.7955694786123556 0.0000010000006014630144 0.6058623644850906
vn 0.29608699296941443 0 0.9551609773197028
vn 0.7955689966068983 0 0.6058629974159944
vn 1 9.999999999995e-7 0
vn -0.29608608063653835 0 -0.9551612601300858
vn -0.7955698456817409 0 0.6058618824797704
vn -0.7955694786123556 -0.0000010000006014630144 -0.6058623644850906
vn -0.7955689966068983 0 -0.6058629974159944
vn -1 -9.999999999995e-7 0
usemtl material_0_0
f 1//1 2//1 3//1
f 4//2 2//2 1//2
f 3//1 2//1 5//1
f 6//3 1//3 3//3
f 4//2 7//2 2//2
f 6//3 4//3 1//3
f 2//1 8//1 5//1
f 3//1 5//1 9//1
f 10//4 6//4 3//4
f 7//5 12//5 2//5
f 2//1 12//1 8//1
f 5//1 8//1 14//1
f 15//6 9//6 5//6
f 10//4 3//4 9//4
f 18//5 12//5 7//5
f 18//7 8//7 12//7
f 8//1 19//1 14//1
f 5//1 14//1 20//1
f 10//6 9//6 15//6
f 15//8 5//8 21//8
f 23//7 8//7 18//7
f 19//9 8//9 23//9
f 14//10 19//10 24//10
f 20//11 14//11 25//11
f 21//8 5//8 20//8
f 19//9 23//9 24//9
f 14//10 24//10 25//10
f 20//11 25//11 21//11
usemtl material_1_0
f 3//12 2//12 1//12
f 1//11 2//11 4//11
f 5//12 2//12 3//12
f 3//10 1//10 6//10
f 2//11 7//11 4//11
f 1//10 4//10 6//10
f 5//12 8//12 2//12
f 9//12 5//12 3//12
f 3//13 6//13 10//13
f 4//14 7//14 11//14
f 2//15 12//15 7//15
f 6//10 4//10 13//10
f 8//12 12//12 2//12
f 14//12 8//12 5//12
f 5//7 9//7 15//7
f 9//13 3//13 10//13
f 10//13 6//13 16//13
f 7//16 17//16 11//16
f 4//17 11//17 13//17
f 7//15 12//15 18//15
f 6//13 13//13 16//13
f 12//6 8//6 18//6
f 14//12 19//12 8//12
f 20//12 14//12 5//12
f 15//7 9//7 10//7
f 21//18 5//18 15//18
f 22//7 10//7 16//7
f 17//1 13//1 11//1
f 7//15 18//15 17//15
f 22//1 16//1 13//1
f 18//6 8//6 23//6
f 23//19 8//19 19//19
f 24//3 19//3 14//3
f 25//2 14//2 20//2
f 20//18 5//18 21//18
f 15//7 10//7 22//7
f 21//18 15//18 26//18
f 17//1 27//1 13//1
f 17//15 18//15 28//15
f 29//1 22//1 13//1
f 18//6 23//6 28//6
f 24//19 23//19 19//19
f 25//3 24//3 14//3
f 21//2 25//2 20//2
f 26//18 15//18 22//18
f 26//2 29//2 21//2
f 27//1 29//1 13//1
f 28//1 27//1 17//1
f 29//1 26//1 22//1
f 28//6 23//6 27//6
f 27//19 23//19 24//19
f 30//3 24//3 25//3
f 29//2 25//2 21//2
f 30//1 29//1 27//1
f 30//19 27//19 24//19
f 29//3 30//3 25//3
usemtl material_2_0
f 11//20 7//20 4//20
f 13//3 4//3 6//3
f 16//4 6//4 10//4
f 11//21 17//21 7//21
f 13//22 11//22 4//22
f 16//4 13//4 6//4
f 16//6 10//6 22//6
f 11//12 13//12 17//12
f 17//5 18//5 7//5
f 13//12 16//12 22//12
f 22//6 10//6 15//6
f 26//8 15//8 21//8
f 13//12 27//12 17//12
f 28//5 18//5 17//5
f 13//12 22//12 29//12
f 28//7 23//7 18//7
f 22//8 15//8 26//8
f 21//11 29//11 26//11
f 13//12 29//12 27//12
f 17//12 27//12 28//12
f 22//12 26//12 29//12
f 27//7 23//7 28//7
f 24//9 23//9 27//9
f 25//10 24//10 30//10
f 21//11 25//11 29//11
f 27//12 29//12 30//12
f 24//9 27//9 30//9
f 25//10 30//10 29//10
