# SSTK version 0.8.0
# 5
mtllib original-5.mtl
o mesh5/mesh5-geometry#mesh5-geometry
v -0.488639 -0.014037 -0.094245
v -0.431571 -0.014037 -0.094245
v -0.431571 -0.014037 -0.061004
v -0.490288 -0.014037 -0.100193
v -0.323660 -0.014037 -0.077569
v -0.489119 -0.014037 -0.083767
v -0.487213 -0.014037 -0.116382
v -0.490599 -0.014037 -0.087392
v -0.323660 -0.014037 -0.094110
v -0.324798 -0.013428 -0.075701
v -0.475869 -0.014037 -0.053513
v -0.491718 -0.014037 -0.099712
v -0.475869 -0.014037 -0.134205
v -0.431571 -0.014037 -0.127485
v -0.041237 0.036763 -0.094110
v -0.041237 0.036763 -0.068372
v -0.431571 -0.013428 -0.059598
v -0.491166 -0.012941 -0.114400
v -0.495302 -0.012941 -0.099497
v -0.323660 -0.014037 -0.110652
v -0.041237 0.036763 -0.119849
v -0.042375 0.037371 -0.065465
v -0.324798 -0.001376 -0.075701
v -0.495365 -0.012941 -0.090337
v -0.474745 -0.013428 -0.052478
v -0.477964 -0.012941 -0.135323
v -0.474745 -0.013428 -0.136011
v -0.431571 -0.013428 -0.128891
v -0.041237 0.050032 -0.119849
v -0.041237 0.050032 -0.094110
v -0.042375 0.049423 -0.065465
v -0.431571 -0.001376 -0.059598
v -0.491436 -0.012941 -0.075335
v -0.477964 -0.013039 -0.053166
v -0.491302 -0.001863 -0.113780
v -0.495334 -0.001863 -0.098826
v -0.324798 -0.013428 -0.112520
v -0.042375 0.037371 -0.122756
v -0.041237 0.050032 -0.068372
v -0.323660 -0.000767 -0.077569
v -0.477964 -0.012941 -0.053166
v -0.495334 -0.001863 -0.089663
v -0.474745 -0.001376 -0.052478
v -0.477964 -0.001765 -0.053166
v -0.477964 -0.001863 -0.135323
v -0.477964 -0.013039 -0.135323
v -0.474745 -0.001376 -0.136011
v -0.431571 -0.001376 -0.128891
v -0.042375 0.049423 -0.122756
v -0.323660 -0.000767 -0.110652
v -0.323660 -0.000767 -0.094110
v -0.431571 -0.000767 -0.061004
v -0.477964 -0.001863 -0.053166
v -0.491302 -0.001863 -0.074709
v -0.482569 -0.000767 -0.124246
v -0.491516 -0.000767 -0.100492
v -0.324798 -0.001376 -0.112520
v -0.431571 0.002993 -0.094245
v -0.491516 -0.000767 -0.087997
v -0.475869 -0.000767 -0.053513
v -0.475869 -0.000767 -0.134976
v -0.477964 -0.001765 -0.135323
v -0.431571 -0.000767 -0.127485
v -0.488659 -0.000085 -0.094245
v -0.482569 -0.000767 -0.064243
v -0.490024 -0.000412 -0.101737
v -0.490024 -0.000412 -0.086752
vn 0 -1 0
vn 0.05181600026278485 -0.9398800047666017 0.3375510017118897
vn 0.17702796784995367 -0.9842058212583971 0
vn 0.150914972309067 -0.9092548331635738 0.3879179288221093
vn 0.059771000609604434 -0.9161600093439161 0.3963310040421797
vn 0 1 0
vn 0.06699399523143458 -0.9157389348186207 0.3961489718025131
vn -0.30413413829879604 -0.9490764315731492 -0.08219703737742641
vn -0.3664681577528489 -0.9007183877305264 -0.23325410040844788
vn -0.2907080045591737 -0.9564470149999588 0.02641900041432898
vn 0.16161302172200367 -0.9513541278691386 0.2623100352564382
vn 0.14912602975064593 0 0.9888181972692501
vn -0.2971750045296901 -0.9460410144200303 0.12920300196937656
vn 0.07339204593136214 -0.8924925585537016 0.44505127852897636
vn -0.29577795210468005 -0.95172384588737 -0.08207998670878902
vn -0.35498503540088444 -0.9076390905143128 -0.224002022338603
vn 0.04457897948373305 -0.9548065605761613 -0.2938658647562015
vn -0.22301992382387817 -0.974812667036706 -0.001541999473304943
vn 0.06181603755962129 -0.9160475565934126 -0.39627724077931376
vn 1 0 0
vn 0.9312471911138277 0 0.36438807478100377
vn -0.03621899553968531 0 0.9993438769323083
vn -0.11042200384991845 -0.9934640346376209 0.028917001008205497
vn 0.16270998971868147 0 0.9866739376540491
vn -0.22824792146526754 -0.7104927555361815 0.665659770962155
vn -0.9635810694159009 0.0031340002257718765 -0.2673980192632203
vn -0.8455420922617533 0.019486002126225102 -0.533553058218912
vn -0.22469696968984135 -0.8725828822942486 -0.4337169414944078
vn 0.06533399895909874 -0.9158419854088055 -0.3961879936879331
vn -0.9999729923387071 -0.0024949999808845562 -0.006912999947036053
vn 0.051750006497575975 -0.9398951180104187 -0.33751904237788133
vn 0.16252403410884134 -0.9511141996098823 -0.262617055115316
vn 0.9312468517781066 0 -0.36438894200203864
vn 0.05082802914965435 0.9401215391556267 0.33702819328420786
vn -0.4152249879107246 -0.8740169745529962 0.2523539926527134
vn -0.9673000706274173 -0.012691000926633523 0.2533170184959428
vn -0.1632629328125823 0 -0.9865825939927351
vn -0.2090870087630458 0 0.9778970409846438
vn -0.9654400966825551 0.012952001297058865 -0.26030302606765743
vn -0.8502195155966517 0 -0.5264283192407064
vn 0.20908297916561394 0 0.9778979025559015
vn 0.16270998971868147 0 -0.9866739376540491
vn -0.9999960743897106 0.0028020002084408026 0
vn 0.15155301989815506 0 -0.9884491297784371
vn 0.14959907254225346 -0.9097444411451935 -0.3872791877959839
vn -0.17702893651061916 0.9842056470260265 0
vn -0.17965394330787166 0.9746126924483434 0.13362095783417655
vn -0.180463930290226 0.9623146282762148 0.2034289214192882
vn 0.0608350123966255 0.9161011866780803 0.39630508075687815
vn -0.8545556723907638 0 0.51935980089411
vn -0.9655171684837263 -0.0030050005243757003 0.26032204542646126
vn 0.06533501082310479 0.9158401517139708 0.3961920656314004
vn -0.18194101203257826 0.9820850649497068 -0.049055003244228006
vn -0.4220328865586304 0.8681047666556405 -0.26130892976082226
vn -0.20908297916561394 0 -0.9778979025559015
vn -0.27566493870025655 0.9612537862455386 0
vn -0.036219994227692426 0 -0.9993438407365836
vn -0.18012805457727774 0.9745522952811065 -0.13342304042605307
vn -0.1797379576756702 0.9623537733868849 -0.20388595198934925
vn 0.017253000684478312 0.9935140394156834 0.112393004458968
vn -0.8500587812773535 -0.0194149950044643 0.5263298645737642
vn -0.308018870375522 0.9477486011561969 0.08304796505068328
vn 0.2090870087630458 0 -0.9778970409846438
vn 0.0750220283716485 0.8930693377387932 0.4436201677671979
vn -0.3221721212544943 0.9388733533596054 -0.12133404566595714
vn -0.413695903877561 0.8729967971587813 -0.2583259399778455
vn 0.07339297539299082 0.8924907007679994 -0.44505485078314705
vn 0.06076299254356097 0.9161068875813245 -0.3963029513682806
vn 0.05273100296556533 0.9396540528456758 -0.33803801901108954
vn 0.034826013604349546 0.9993933904006117 0
vn -0.05350597423265263 0.9922385221588798 0.1122489459432781
vn -0.4141728781391745 0.8733257430440243 0.2564429245475789
vn -0.22203390645646884 0.9714465907267232 0.08362096477024433
vn -0.24950582302782806 0.691710509376135 0.6777045193104544
vn -0.32635007748530814 0.9372242225251737 -0.12290802918205665
vn -0.053817010070804944 0.9979851867534846 -0.033605006288522005
vn -0.1632650405755309 0 0.9865822451908763
vn -0.22823911714991937 0.7104903646784565 -0.665665341670797
vn 0.06699397869116158 0.9157407087294833 -0.39614487399782355
vn -0.23214409697856495 0.9726814063392013 0
vn 0.03474499868259128 0.9930619623465669 -0.11234199574038457
vn -0.01209200127096009 0.9990751050102921 0.04126400433715678
vn -0.05381601115829364 0.9979852069237714 -0.0336060069679204
vn -0.42967892663104057 0.862198852776972 0.26830795418561604
vn -0.32635007748530803 0.9372242225251735 0.12290802918205704
vn -0.001026000038660708 0.9998690376760659 0.016151000608586086
vn -0.2321490533203489 0.9726802234066784 -0.000006000001377873496
vn -0.053825976763815286 0.9979845691791365 -0.03360898549130636
vn 0.019007007009091723 0.9934823663601021 -0.11239004144535247
vn -0.23216698643285827 0.9726759431597377 0.000002999999824904993
vn -0.05181600026278485 0.9398800047666017 -0.3375510017118897
vn -0.17702796784995367 0.9842058212583971 0
vn -0.150914972309067 0.9092548331635738 -0.3879179288221093
vn -0.059771000609604434 0.9161600093439161 -0.3963310040421797
vn -0.06699399523143458 0.9157389348186207 -0.3961489718025131
vn 0.30413413829879604 0.9490764315731492 0.08219703737742641
vn 0.3664681577528489 0.9007183877305264 0.23325410040844788
vn 0.2907080045591737 0.9564470149999588 -0.02641900041432898
vn -0.16161302172200367 0.9513541278691386 -0.2623100352564382
vn -0.14912602975064593 0 -0.9888181972692501
vn 0.2971750045296901 0.9460410144200303 -0.12920300196937656
vn -0.07339204593136214 0.8924925585537016 -0.44505127852897636
vn 0.29577795210468005 0.95172384588737 0.08207998670878902
vn 0.35498503540088444 0.9076390905143128 0.224002022338603
vn -0.04457897948373305 0.9548065605761613 0.2938658647562015
vn 0.22301992382387817 0.974812667036706 0.001541999473304943
vn -0.06181603755962129 0.9160475565934126 0.39627724077931376
vn -1 0 0
vn -0.9312471911138277 0 -0.36438807478100377
vn 0.03621899553968531 0 -0.9993438769323083
vn 0.11042200384991845 0.9934640346376209 -0.028917001008205497
vn -0.16270998971868147 0 -0.9866739376540491
vn 0.22824792146526754 0.7104927555361815 -0.665659770962155
vn 0.9635810694159009 -0.0031340002257718765 0.2673980192632203
vn 0.8455420922617533 -0.019486002126225102 0.533553058218912
vn 0.22469696968984135 0.8725828822942486 0.4337169414944078
vn -0.06533399895909874 0.9158419854088055 0.3961879936879331
vn 0.9999729923387071 0.0024949999808845562 0.006912999947036053
vn -0.051750006497575975 0.9398951180104187 0.33751904237788133
vn -0.16252403410884134 0.9511141996098823 0.262617055115316
vn -0.9312468517781066 0 0.36438894200203864
vn -0.05082802914965435 -0.9401215391556267 -0.33702819328420786
vn 0.4152249879107246 0.8740169745529962 -0.2523539926527134
vn 0.9673000706274173 0.012691000926633523 -0.2533170184959428
vn 0.1632629328125823 0 0.9865825939927351
vn 0.9654400966825551 -0.012952001297058865 0.26030302606765743
vn 0.8502195155966517 0 0.5264283192407064
vn -0.16270998971868147 0 0.9866739376540491
vn 0.9999960743897106 -0.0028020002084408026 0
vn -0.15155301989815506 0 0.9884491297784371
vn -0.14959907254225346 0.9097444411451935 0.3872791877959839
vn 0.17702893651061916 -0.9842056470260265 0
vn 0.17965394330787166 -0.9746126924483434 -0.13362095783417655
vn 0.180463930290226 -0.9623146282762148 -0.2034289214192882
vn -0.0608350123966255 -0.9161011866780803 -0.39630508075687815
vn 0.8545556723907638 0 -0.51935980089411
vn 0.9655171684837263 0.0030050005243757003 -0.26032204542646126
vn -0.06533501082310479 -0.9158401517139708 -0.3961920656314004
vn 0.18194101203257826 -0.9820850649497068 0.049055003244228006
vn 0.4220328865586304 -0.8681047666556405 0.26130892976082226
vn 0.27566493870025655 -0.9612537862455386 0
vn 0.036219994227692426 0 0.9993438407365836
vn 0.18012805457727774 -0.9745522952811065 0.13342304042605307
vn 0.1797379576756702 -0.9623537733868849 0.20388595198934925
vn -0.017253000684478312 -0.9935140394156834 -0.112393004458968
vn 0.8500587812773535 0.0194149950044643 -0.5263298645737642
vn 0.308018870375522 -0.9477486011561969 -0.08304796505068328
vn -0.0750220283716485 -0.8930693377387932 -0.4436201677671979
vn 0.3221721212544943 -0.9388733533596054 0.12133404566595714
vn 0.413695903877561 -0.8729967971587813 0.2583259399778455
vn -0.07339297539299082 -0.8924907007679994 0.44505485078314705
vn -0.06076299254356097 -0.9161068875813245 0.3963029513682806
vn -0.05273100296556533 -0.9396540528456758 0.33803801901108954
vn -0.034826013604349546 -0.9993933904006117 0
vn 0.05350597423265263 -0.9922385221588798 -0.1122489459432781
vn 0.4141728781391745 -0.8733257430440243 -0.2564429245475789
vn 0.22203390645646884 -0.9714465907267232 -0.08362096477024433
vn 0.24950582302782806 -0.691710509376135 -0.6777045193104544
vn 0.32635007748530814 -0.9372242225251737 0.12290802918205665
vn 0.053817010070804944 -0.9979851867534846 0.033605006288522005
vn 0.1632650405755309 0 -0.9865822451908763
vn 0.22823911714991937 -0.7104903646784565 0.665665341670797
vn -0.06699397869116158 -0.9157407087294833 0.39614487399782355
vn 0.23214409697856495 -0.9726814063392013 0
vn -0.03474499868259128 -0.9930619623465669 0.11234199574038457
vn 0.01209200127096009 -0.9990751050102921 -0.04126400433715678
vn 0.05381601115829364 -0.9979852069237714 0.0336060069679204
vn 0.42967892663104057 -0.862198852776972 -0.26830795418561604
vn 0.32635007748530803 -0.9372242225251735 -0.12290802918205704
vn 0.001026000038660708 -0.9998690376760659 -0.016151000608586086
vn 0.2321490533203489 -0.9726802234066784 0.000006000001377873496
vn 0.053825976763815286 -0.9979845691791365 0.03360898549130636
vn -0.019007007009091723 -0.9934823663601021 0.11239004144535247
vn 0.23216698643285827 -0.9726759431597377 -0.000002999999824904993
usemtl material_0_0
f 1//1 2//1 3//1
f 4//1 2//1 1//1
f 2//1 5//1 3//1
f 6//1 1//1 3//1
f 4//1 7//1 2//1
f 8//1 4//1 1//1
f 2//1 9//1 5//1
f 3//2 5//2 10//2
f 8//1 1//1 6//1
f 6//1 3//1 11//1
f 12//1 7//1 4//1
f 7//1 13//1 2//1
f 12//1 4//1 8//1
f 14//1 9//1 2//1
f 9//3 15//3 5//3
f 10//4 5//4 16//4
f 3//5 10//5 17//5
f 8//6 6//6 11//6
f 11//7 3//7 17//7
f 12//8 18//8 7//8
f 18//9 13//9 7//9
f 13//1 14//1 2//1
f 19//10 12//10 8//10
f 14//1 20//1 9//1
f 9//3 21//3 15//3
f 5//3 15//3 16//3
f 10//11 16//11 22//11
f 23//12 17//12 10//12
f 24//13 8//13 11//13
f 11//14 17//14 25//14
f 19//15 18//15 12//15
f 18//16 26//16 13//16
f 13//17 27//17 14//17
f 24//18 19//18 8//18
f 28//19 20//19 14//19
f 20//3 21//3 9//3
f 15//20 21//20 29//20
f 16//20 15//20 30//20
f 22//21 16//21 31//21
f 22//22 23//22 10//22
f 32//12 17//12 23//12
f 24//23 11//23 33//23
f 32//24 25//24 17//24
f 34//25 11//25 25//25
f 19//26 35//26 18//26
f 35//27 26//27 18//27
f 26//28 27//28 13//28
f 27//29 28//29 14//29
f 24//30 36//30 19//30
f 28//31 37//31 20//31
f 20//32 38//32 21//32
f 21//33 38//33 29//33
f 15//20 29//20 30//20
f 16//20 30//20 39//20
f 31//21 16//21 39//21
f 31//22 23//22 22//22
f 32//34 23//34 40//34
f 33//35 11//35 41//35
f 33//36 42//36 24//36
f 43//24 25//24 32//24
f 41//37 11//37 34//37
f 44//38 34//38 25//38
f 36//39 35//39 19//39
f 35//40 45//40 26//40
f 26//41 46//41 27//41
f 47//42 28//42 27//42
f 42//43 36//43 24//43
f 48//44 37//44 28//44
f 37//45 38//45 20//45
f 29//33 38//33 49//33
f 50//46 30//46 29//46
f 51//46 39//46 30//46
f 40//47 31//47 39//47
f 23//48 31//48 40//48
f 32//49 40//49 52//49
f 53//50 33//50 41//50
f 54//51 42//51 33//51
f 43//38 44//38 25//38
f 43//52 32//52 52//52
f 36//53 55//53 35//53
f 35//54 55//54 45//54
f 47//55 27//55 46//55
f 48//42 28//42 47//42
f 42//56 56//56 36//56
f 57//44 37//44 48//44
f 49//57 38//57 37//57
f 57//58 29//58 49//58
f 51//46 30//46 50//46
f 57//59 50//59 29//59
f 40//46 39//46 51//46
f 52//60 40//60 58//60
f 53//61 54//61 33//61
f 42//62 54//62 59//62
f 43//63 53//63 44//63
f 60//64 43//64 52//64
f 36//65 56//65 55//65
f 55//66 61//66 45//66
f 47//55 46//55 62//55
f 61//67 48//67 47//67
f 42//56 59//56 56//56
f 49//57 37//57 57//57
f 63//68 57//68 48//68
f 63//6 51//6 50//6
f 63//69 50//69 57//69
f 58//70 40//70 51//70
f 64//71 52//71 58//71
f 54//72 53//72 60//72
f 59//73 54//73 65//73
f 53//74 43//74 60//74
f 65//6 60//6 52//6
f 56//75 66//75 55//75
f 66//76 61//76 55//76
f 61//77 62//77 45//77
f 62//78 61//78 47//78
f 61//79 63//79 48//79
f 59//80 67//80 56//80
f 58//81 51//81 63//81
f 67//82 52//82 64//82
f 64//83 58//83 61//83
f 54//84 60//84 65//84
f 59//85 65//85 67//85
f 67//86 65//86 52//86
f 56//87 64//87 66//87
f 66//88 64//88 61//88
f 61//89 58//89 63//89
f 56//90 67//90 64//90
usemtl material_1_0
f 3//6 2//6 1//6
f 1//6 2//6 4//6
f 3//6 5//6 2//6
f 3//6 1//6 6//6
f 2//6 7//6 4//6
f 1//6 4//6 8//6
f 5//6 9//6 2//6
f 10//91 5//91 3//91
f 6//6 1//6 8//6
f 11//6 3//6 6//6
f 4//6 7//6 12//6
f 2//6 13//6 7//6
f 8//6 4//6 12//6
f 2//6 9//6 14//6
f 5//92 15//92 9//92
f 16//93 5//93 10//93
f 17//94 10//94 3//94
f 11//1 6//1 8//1
f 17//95 3//95 11//95
f 7//96 18//96 12//96
f 7//97 13//97 18//97
f 2//6 14//6 13//6
f 8//98 12//98 19//98
f 9//6 20//6 14//6
f 15//92 21//92 9//92
f 16//92 15//92 5//92
f 22//99 16//99 10//99
f 10//100 17//100 23//100
f 11//101 8//101 24//101
f 25//102 17//102 11//102
f 12//103 18//103 19//103
f 13//104 26//104 18//104
f 14//105 27//105 13//105
f 8//106 19//106 24//106
f 14//107 20//107 28//107
f 9//92 21//92 20//92
f 29//108 21//108 15//108
f 30//108 15//108 16//108
f 31//109 16//109 22//109
f 10//110 23//110 22//110
f 23//100 17//100 32//100
f 33//111 11//111 24//111
f 17//112 25//112 32//112
f 25//113 11//113 34//113
f 18//114 35//114 19//114
f 18//115 26//115 35//115
f 13//116 27//116 26//116
f 14//117 28//117 27//117
f 19//118 36//118 24//118
f 20//119 37//119 28//119
f 21//120 38//120 20//120
f 29//121 38//121 21//121
f 30//108 29//108 15//108
f 39//108 30//108 16//108
f 39//109 16//109 31//109
f 22//110 23//110 31//110
f 40//122 23//122 32//122
f 41//123 11//123 33//123
f 24//124 42//124 33//124
f 32//112 25//112 43//112
f 34//125 11//125 41//125
f 25//63 34//63 44//63
f 19//126 35//126 36//126
f 26//127 45//127 35//127
f 27//55 46//55 26//55
f 27//128 28//128 47//128
f 24//129 36//129 42//129
f 28//130 37//130 48//130
f 20//131 38//131 37//131
f 49//121 38//121 29//121
f 29//132 30//132 50//132
f 30//132 39//132 51//132
f 39//133 31//133 40//133
f 40//134 31//134 23//134
f 52//135 40//135 32//135
f 41//136 33//136 53//136
f 33//137 42//137 54//137
f 25//63 44//63 43//63
f 52//138 32//138 43//138
f 35//139 55//139 36//139
f 45//140 55//140 35//140
f 46//41 27//41 47//41
f 47//128 28//128 48//128
f 36//141 56//141 42//141
f 48//130 37//130 57//130
f 37//142 38//142 49//142
f 49//143 29//143 57//143
f 50//132 30//132 51//132
f 29//144 50//144 57//144
f 51//132 39//132 40//132
f 58//145 40//145 52//145
f 33//146 54//146 53//146
f 59//147 54//147 42//147
f 44//38 53//38 43//38
f 52//148 43//148 60//148
f 55//149 56//149 36//149
f 45//150 61//150 55//150
f 62//41 46//41 47//41
f 47//151 48//151 61//151
f 56//141 59//141 42//141
f 57//142 37//142 49//142
f 48//152 57//152 63//152
f 50//1 51//1 63//1
f 57//153 50//153 63//153
f 51//154 40//154 58//154
f 58//155 52//155 64//155
f 60//156 53//156 54//156
f 65//157 54//157 59//157
f 60//158 43//158 53//158
f 52//1 60//1 65//1
f 55//159 66//159 56//159
f 55//160 61//160 66//160
f 45//161 62//161 61//161
f 47//162 61//162 62//162
f 48//163 63//163 61//163
f 56//164 67//164 59//164
f 63//165 51//165 58//165
f 64//166 52//166 67//166
f 61//167 58//167 64//167
f 65//168 60//168 54//168
f 67//169 65//169 59//169
f 52//170 65//170 67//170
f 66//171 64//171 56//171
f 61//172 64//172 66//172
f 63//173 58//173 61//173
f 64//174 67//174 56//174
