# SSTK version 0.8.0
# 21
mtllib original-21.mtl
o mesh21/mesh21-geometry#mesh21-geometry
v -0.041154 0.036062 0.056407
v -0.308579 -0.000308 0.202551
v -0.308109 -0.002844 0.203483
v -0.041989 0.038546 0.055676
v -0.367049 -0.003074 0.197605
v -0.041401 0.033578 0.055352
v -0.309268 0.000830 0.200059
v -0.044008 0.033578 0.051043
v -0.366884 -0.001896 0.195185
v -0.367001 -0.005631 0.198502
v -0.308133 -0.005296 0.202306
v -0.043415 0.039575 0.053589
v -0.366323 -0.007786 0.192397
v -0.042583 0.032549 0.053130
v -0.366603 -0.002790 0.192657
v -0.309772 -0.000101 0.197464
v -0.044597 0.038546 0.051367
v -0.366769 -0.008070 0.197346
v -0.308638 -0.006227 0.199711
v -0.044843 0.036062 0.050312
v -0.366371 -0.005229 0.191501
v -0.366488 -0.008964 0.194818
v -0.309327 -0.005090 0.197219
v -0.309797 -0.002553 0.196287
vn 0.4031079273043292 0.3804659313875409 0.8323158499018379
vn 0.4031130732516987 0.3804510691336721 0.83232015124507
vn -0.09501796815055252 0.32769989015698114 0.93999168492048
vn 0.4880592221350809 -0.3818441737924061 0.7848523572173907
vn 0.08385004889310353 0.9151565336293029 0.3942812299060438
vn 0.8477866715967556 0.1338489481515454 -0.5131688012161492
vn -0.0790289720257641 0.8985476819370898 0.4317018471885818
vn -0.09501900254242349 0.3276900087680014 0.9399950251514474
vn 0.4880581495303027 -0.38185811699294425 0.7848462404596582
vn 0.8477831065858422 0.13385901682915835 -0.5131720645175355
vn -0.07903095594203254 0.8985364990862582 0.43172475932322774
vn 0.08384396126321848 0.9151615771858398 0.3942708178427846
vn 0.8477835201966285 0.1338539242453262 -0.5131727095697306
vn -0.9944149792018108 -0.05096099893415069 -0.09242199806699393
vn -0.9944151346423268 -0.05096700690085673 -0.09241701251312573
vn -0.0557230097367331 -0.43181107545229924 0.9002411573032022
vn 0.28492099654020425 -0.9185019888466304 0.27417899667064416
vn 0.847783841775997 0.1338549750183138 -0.5131719042254534
vn -0.016245000419535263 0.9421200243307212 -0.33488200864849527
vn -0.2849229669795669 0.9184998935527573 -0.27418396822413604
vn 0.8477832389333273 0.13385403772449045 -0.5131731446291473
vn -0.994413944073664 -0.05095399713432178 -0.09243699480129734
vn -0.9944151758598533 -0.05096800901356575 -0.0924160163435429
vn -0.05572298363435714 -0.4318098731789704 0.9002417356021918
vn 0.28491689940070414 -0.9185056756913178 0.2741709031949318
vn -0.08384396126321848 -0.9151615771858398 -0.3942708178427846
vn -0.016243993211790975 0.9421176062980848 -0.3348888600531558
vn -0.28492099654020425 0.9185019888466304 -0.27417899667064416
vn 0.8477922960728598 0.13385404674558932 -0.513158179209236
vn -0.9944153751477457 -0.050955019223013896 -0.09242103486625787
vn -0.9944128497472129 -0.051007992292845944 -0.09241898603576953
vn 0.016245007890738336 -0.9421224576200791 0.33487516265995665
vn -0.08383703411136786 -0.9151663723602238 -0.394261160415831
vn 0.0557240204871628 0.43180015875308503 -0.9002463309792254
vn -0.4880590357722884 0.3818450279873325 -0.7848520575257335
vn -0.4031130732516987 -0.3804510691336721 -0.83232015124507
vn -0.48805883908068254 0.3818438741011317 -0.7848527412238907
vn 0.09501703287333362 -0.32768111336883726 -0.9399983252140971
vn 0.07903001100425804 -0.8985441251146403 -0.4317090601118215
vn 0.016244001043051706 -0.9421150604946232 0.33489602150417636
vn 0.07902999989706344 -0.8985479988296412 -0.43170099943770973
vn 0.05572397236381421 0.43180178584882123 -0.9002455535251288
vn -0.4031100336375182 -0.38046103174757195 -0.8323170694527009
vn 0.0950190173009217 -0.32770105966732255 -0.939991171152198
vn -0.4031079273043292 -0.3804659313875409 -0.8323158499018379
vn 0.09501796815055252 -0.32769989015698114 -0.93999168492048
vn -0.4880592221350809 0.3818441737924061 -0.7848523572173907
vn -0.08385004889310353 -0.9151565336293029 -0.3942812299060438
vn -0.8477866715967556 -0.1338489481515454 0.5131688012161492
vn 0.0790289720257641 -0.8985476819370898 -0.4317018471885818
vn 0.09501900254242349 -0.3276900087680014 -0.9399950251514474
vn -0.4880581495303027 0.38185811699294425 -0.7848462404596582
vn -0.8477831065858422 -0.13385901682915835 0.5131720645175355
vn 0.07903095594203254 -0.8985364990862582 -0.43172475932322774
vn -0.8477835201966285 -0.1338539242453262 0.5131727095697306
vn 0.9944149792018108 0.05096099893415069 0.09242199806699393
vn 0.9944151346423268 0.05096700690085673 0.09241701251312573
vn 0.0557230097367331 0.43181107545229924 -0.9002411573032022
vn -0.847783841775997 -0.1338549750183138 0.5131719042254534
vn 0.016245000419535263 -0.9421200243307212 0.33488200864849527
vn 0.2849229669795669 -0.9184998935527573 0.27418396822413604
vn -0.8477832389333273 -0.13385403772449045 0.5131731446291473
vn 0.994413944073664 0.05095399713432178 0.09243699480129734
vn 0.9944151758598533 0.05096800901356575 0.0924160163435429
vn 0.05572298363435714 0.4318098731789704 -0.9002417356021918
vn -0.28491689940070414 0.9185056756913178 -0.2741709031949318
vn 0.016243993211790975 -0.9421176062980848 0.3348888600531558
vn -0.8477922960728598 -0.13385404674558932 0.513158179209236
vn 0.9944153751477457 0.050955019223013896 0.09242103486625787
vn 0.9944128497472129 0.051007992292845944 0.09241898603576953
vn -0.016245007890738336 0.9421224576200791 -0.33487516265995665
vn 0.08383703411136786 0.9151663723602238 0.394261160415831
vn -0.0557240204871628 -0.43180015875308503 0.9002463309792254
vn 0.4880590357722884 -0.3818450279873325 0.7848520575257335
vn 0.48805883908068254 -0.3818438741011317 0.7848527412238907
vn -0.09501703287333362 0.32768111336883726 0.9399983252140971
vn -0.07903001100425804 0.8985441251146403 0.4317090601118215
vn -0.016244001043051706 0.9421150604946232 -0.33489602150417636
vn -0.07902999989706344 0.8985479988296412 0.43170099943770973
vn -0.05572397236381421 -0.43180178584882123 0.9002455535251288
vn 0.4031100336375182 0.38046103174757195 0.8323170694527009
vn -0.0950190173009217 0.32770105966732255 0.939991171152198
usemtl material_0_0
f 1//1 2//1 3//1
f 4//2 2//2 1//2
f 2//3 5//3 3//3
f 1//4 3//4 6//4
f 7//5 2//5 4//5
f 1//6 8//6 4//6
f 5//7 2//7 9//7
f 3//8 5//8 10//8
f 6//9 3//9 11//9
f 1//10 6//10 8//10
f 9//11 2//11 7//11
f 7//12 4//12 12//12
f 4//13 8//13 12//13
f 5//14 9//14 13//14
f 10//15 5//15 13//15
f 3//16 10//16 11//16
f 11//17 14//17 6//17
f 6//18 14//18 8//18
f 9//19 7//19 15//19
f 16//20 7//20 12//20
f 12//21 8//21 17//21
f 9//22 15//22 13//22
f 10//23 13//23 18//23
f 11//24 10//24 18//24
f 19//25 14//25 11//25
f 19//26 8//26 14//26
f 15//27 7//27 16//27
f 16//28 12//28 17//28
f 17//29 8//29 20//29
f 15//30 21//30 13//30
f 18//31 13//31 22//31
f 18//32 19//32 11//32
f 23//33 8//33 19//33
f 16//34 21//34 15//34
f 17//35 24//35 16//35
f 20//36 8//36 23//36
f 17//37 20//37 24//37
f 24//38 13//38 21//38
f 22//39 13//39 23//39
f 18//40 22//40 19//40
f 22//41 23//41 19//41
f 16//42 24//42 21//42
f 20//43 23//43 24//43
f 24//44 23//44 13//44
usemtl material_1_0
f 3//45 2//45 1//45
f 1//36 2//36 4//36
f 3//46 5//46 2//46
f 6//47 3//47 1//47
f 4//48 2//48 7//48
f 4//49 8//49 1//49
f 9//50 2//50 5//50
f 10//51 5//51 3//51
f 11//52 3//52 6//52
f 8//53 6//53 1//53
f 7//54 2//54 9//54
f 12//26 4//26 7//26
f 12//55 8//55 4//55
f 13//56 9//56 5//56
f 13//57 5//57 10//57
f 11//58 10//58 3//58
f 6//28 14//28 11//28
f 8//59 14//59 6//59
f 15//60 7//60 9//60
f 12//61 7//61 16//61
f 17//62 8//62 12//62
f 13//63 15//63 9//63
f 18//64 13//64 10//64
f 18//65 10//65 11//65
f 11//66 14//66 19//66
f 14//12 8//12 19//12
f 16//67 7//67 15//67
f 17//17 12//17 16//17
f 20//68 8//68 17//68
f 13//69 21//69 15//69
f 22//70 13//70 18//70
f 11//71 19//71 18//71
f 19//72 8//72 23//72
f 15//73 21//73 16//73
f 16//74 24//74 17//74
f 23//2 8//2 20//2
f 24//75 20//75 17//75
f 21//76 13//76 24//76
f 23//77 13//77 22//77
f 19//78 22//78 18//78
f 19//79 23//79 22//79
f 21//80 24//80 16//80
f 24//81 23//81 20//81
f 13//82 23//82 24//82
