# Blender 4.4.0
# www.blender.org
mtllib mesh.mtl
o __articraft_commit_0002_0000
v 0.121761 -0.191000 -0.388528
v 0.122441 -0.194827 -0.388183
v 0.124377 -0.198071 -0.387202
v 0.127273 -0.200239 -0.385733
v 0.130690 -0.201000 -0.384000
v 0.134107 -0.200239 -0.382267
v 0.137004 -0.198071 -0.380798
v 0.138939 -0.194827 -0.379817
v 0.139619 -0.191000 -0.379472
v 0.138939 -0.187173 -0.379817
v 0.137004 -0.183929 -0.380798
v 0.134107 -0.181761 -0.382267
v 0.130690 -0.181000 -0.384000
v 0.127273 -0.181761 -0.385733
v 0.124377 -0.183929 -0.387202
v 0.122441 -0.187173 -0.388183
v -0.008929 -0.191000 -0.004528
v -0.009020 -0.193863 -0.001919
v -0.007869 -0.196290 0.000982
v -0.005776 -0.197912 0.003733
v -0.002805 -0.198481 0.005917
v 0.000594 -0.197912 0.007199
v 0.003902 -0.196290 0.007385
v 0.006616 -0.193863 0.006447
v 0.008323 -0.191000 0.004528
v 0.008763 -0.188137 0.001919
v 0.007737 -0.185710 -0.000982
v 0.005277 -0.184088 -0.003733
v 0.002014 -0.183519 -0.005917
v -0.001557 -0.184088 -0.007199
v -0.004890 -0.185710 -0.007385
v -0.007478 -0.188137 -0.006447
v 0.008323 0.191000 0.004528
v 0.008763 0.188137 0.001919
v 0.007737 0.185710 -0.000982
v 0.005277 0.184088 -0.003733
v 0.002014 0.183519 -0.005917
v -0.001557 0.184088 -0.007199
v -0.004890 0.185710 -0.007385
v -0.007478 0.188137 -0.006447
v -0.008929 0.191000 -0.004528
v -0.009020 0.193863 -0.001919
v -0.007869 0.196290 0.000982
v -0.005776 0.197912 0.003733
v -0.002805 0.198481 0.005917
v 0.000594 0.197912 0.007199
v 0.003902 0.196290 0.007385
v 0.006616 0.193863 0.006447
v 0.139619 0.191000 -0.379472
v 0.138939 0.187173 -0.379817
v 0.137004 0.183929 -0.380798
v 0.134107 0.181761 -0.382267
v 0.130690 0.181000 -0.384000
v 0.127273 0.181761 -0.385733
v 0.124377 0.183929 -0.387202
v 0.122441 0.187173 -0.388183
v 0.121761 0.191000 -0.388528
v 0.122441 0.194827 -0.388183
v 0.124377 0.198071 -0.387202
v 0.127273 0.200239 -0.385733
v 0.130690 0.201000 -0.384000
v 0.134107 0.200239 -0.382267
v 0.137004 0.198071 -0.380798
v 0.138939 0.194827 -0.379817
vn -0.4283 0.0001 -0.9036
vn -0.3720 -0.2972 -0.8794
vn -0.2133 -0.5449 -0.8109
vn 0.0200 -0.7030 -0.7109
vn 0.2882 -0.7489 -0.5968
vn 0.5478 -0.6798 -0.4877
vn 0.7607 -0.5118 -0.3992
vn 0.8988 -0.2738 -0.3425
vn 0.9464 -0.0001 -0.3231
vn 0.8987 0.2737 -0.3427
vn 0.7606 0.5118 -0.3994
vn 0.5478 0.6797 -0.4877
vn 0.2881 0.7489 -0.5968
vn 0.0195 0.7032 -0.7107
vn -0.2138 0.5452 -0.8106
vn -0.3722 0.2975 -0.8792
vn -0.9746 -0.0331 -0.2216
vn -0.9598 -0.2804 0.0135
vn -0.8488 -0.4822 0.2168
vn -0.6382 -0.6336 0.4374
vn -0.3309 -0.6991 0.6339
vn 0.0243 -0.6555 0.7548
vn 0.3746 -0.5136 0.7720
vn 0.6703 -0.3075 0.6754
vn 0.8777 -0.0767 0.4731
vn 0.9658 0.1690 0.1966
vn 0.8923 0.4352 -0.1199
vn 0.6543 0.6341 -0.4120
vn 0.3219 0.7153 -0.6203
vn -0.0926 0.6671 -0.7392
vn -0.5159 0.4870 -0.7047
vn -0.8353 0.2346 -0.4972
vn 0.8774 0.0761 0.4737
vn 0.9655 -0.1698 0.1975
vn 0.8923 -0.4354 -0.1194
vn 0.6544 -0.6340 -0.4121
vn 0.3219 -0.7152 -0.6204
vn -0.0925 -0.6670 -0.7393
vn -0.5157 -0.4867 -0.7051
vn -0.8350 -0.2340 -0.4980
vn -0.9744 0.0338 -0.2224
vn -0.9597 0.2808 0.0132
vn -0.8488 0.4822 0.2170
vn -0.6382 0.6334 0.4375
vn -0.3310 0.6990 0.6340
vn 0.0243 0.6554 0.7549
vn 0.3745 0.5134 0.7721
vn 0.6702 0.3072 0.6756
vn 0.9464 0.0001 -0.3231
vn 0.8987 -0.2737 -0.3426
vn 0.7606 -0.5118 -0.3994
vn 0.2881 -0.7489 -0.5968
vn 0.0195 -0.7032 -0.7107
vn -0.2137 -0.5452 -0.8106
vn -0.3723 -0.2975 -0.8792
vn -0.4283 -0.0001 -0.9036
vn -0.3720 0.2972 -0.8794
vn -0.2133 0.5449 -0.8109
vn 0.0200 0.7030 -0.7109
vn 0.2882 0.7488 -0.5968
vn 0.5478 0.6798 -0.4876
vn 0.7607 0.5118 -0.3993
vn 0.8988 0.2738 -0.3425
s 1
usemtl chair_black_enamel
f 2//2 17//17 1//1
f 3//3 18//18 2//2
f 4//4 19//19 3//3
f 5//5 20//20 4//4
f 6//6 21//21 5//5
f 6//6 23//23 22//22
f 7//7 24//24 23//23
f 8//8 25//25 24//24
f 9//9 26//26 25//25
f 10//10 27//27 26//26
f 11//11 28//28 27//27
f 12//12 29//29 28//28
f 13//13 30//30 29//29
f 15//15 30//30 14//14
f 16//16 31//31 15//15
f 1//1 32//32 16//16
f 17//17 34//34 33//33
f 18//18 35//35 34//34
f 19//19 36//36 35//35
f 20//20 37//37 36//36
f 21//21 38//38 37//37
f 22//22 39//39 38//38
f 23//23 40//40 39//39
f 24//24 41//41 40//40
f 25//25 42//42 41//41
f 26//26 43//43 42//42
f 27//27 44//44 43//43
f 28//28 45//45 44//44
f 29//29 46//46 45//45
f 30//30 47//47 46//46
f 31//31 48//48 47//47
f 32//32 33//33 48//48
f 34//34 49//49 33//33
f 35//35 50//50 34//34
f 36//36 51//51 35//35
f 37//37 52//6 36//36
f 38//38 53//52 37//37
f 38//38 55//54 54//53
f 39//39 56//55 55//54
f 40//40 57//56 56//55
f 41//41 58//57 57//56
f 42//42 59//58 58//57
f 43//43 60//59 59//58
f 44//44 61//60 60//59
f 45//45 62//61 61//60
f 47//47 62//61 46//46
f 48//48 63//62 47//47
f 33//33 64//63 48//48
f 9//9 5//5 1//1
f 56//55 60//59 64//63
f 2//2 18//18 17//17
f 3//3 19//19 18//18
f 4//4 20//20 19//19
f 5//5 21//21 20//20
f 6//6 22//22 21//21
f 6//6 7//7 23//23
f 7//7 8//8 24//24
f 8//8 9//9 25//25
f 9//9 10//10 26//26
f 10//10 11//11 27//27
f 11//11 12//12 28//28
f 12//12 13//13 29//29
f 13//13 14//14 30//30
f 15//15 31//31 30//30
f 16//16 32//32 31//31
f 1//1 17//17 32//32
f 17//17 18//18 34//34
f 18//18 19//19 35//35
f 19//19 20//20 36//36
f 20//20 21//21 37//37
f 21//21 22//22 38//38
f 22//22 23//23 39//39
f 23//23 24//24 40//40
f 24//24 25//25 41//41
f 25//25 26//26 42//42
f 26//26 27//27 43//43
f 27//27 28//28 44//44
f 28//28 29//29 45//45
f 29//29 30//30 46//46
f 30//30 31//31 47//47
f 31//31 32//32 48//48
f 32//32 17//17 33//33
f 34//34 50//50 49//49
f 35//35 51//51 50//50
f 36//36 52//6 51//51
f 37//37 53//52 52//6
f 38//38 54//53 53//52
f 38//38 39//39 55//54
f 39//39 40//40 56//55
f 40//40 41//41 57//56
f 41//41 42//42 58//57
f 42//42 43//43 59//58
f 43//43 44//44 60//59
f 44//44 45//45 61//60
f 45//45 46//46 62//61
f 47//47 63//62 62//61
f 48//48 64//63 63//62
f 33//33 49//49 64//63
f 1//1 16//16 15//15
f 15//15 14//14 13//13
f 13//13 12//12 11//11
f 11//11 10//10 9//9
f 9//9 8//8 7//7
f 7//7 6//6 5//5
f 5//5 4//4 3//3
f 3//3 2//2 1//1
f 1//1 15//15 13//13
f 13//13 11//11 9//9
f 9//9 7//7 5//5
f 5//5 3//3 1//1
f 1//1 13//13 9//9
f 64//63 49//49 50//50
f 50//50 51//51 52//6
f 52//6 53//52 54//53
f 54//53 55//54 56//55
f 56//55 57//56 58//57
f 58//57 59//58 60//59
f 60//59 61//60 62//61
f 62//61 63//62 64//63
f 64//63 50//50 52//6
f 52//6 54//53 56//55
f 56//55 58//57 60//59
f 60//59 62//61 64//63
f 64//63 52//6 56//55
o __articraft_commit_0002_0001
v 0.102442 -0.191000 -0.309000
v 0.099584 -0.191000 -0.308391
v 0.097161 -0.191000 -0.306657
v 0.095542 -0.191000 -0.304061
v 0.094974 -0.191000 -0.301000
v 0.095542 -0.191000 -0.297939
v 0.097161 -0.191000 -0.295343
v 0.099584 -0.191000 -0.293609
v 0.102442 -0.191000 -0.293000
v 0.105300 -0.191000 -0.293609
v 0.107723 -0.191000 -0.295343
v 0.109342 -0.191000 -0.297939
v 0.109910 -0.191000 -0.301000
v 0.109342 -0.191000 -0.304061
v 0.107723 -0.191000 -0.306657
v 0.105300 -0.191000 -0.308391
v 0.102442 0.191000 -0.309000
v 0.099584 0.191000 -0.308391
v 0.097161 0.191000 -0.306657
v 0.095542 0.191000 -0.304061
v 0.094974 0.191000 -0.301000
v 0.095542 0.191000 -0.297939
v 0.097161 0.191000 -0.295343
v 0.099584 0.191000 -0.293609
v 0.102442 0.191000 -0.293000
v 0.105300 0.191000 -0.293609
v 0.107723 0.191000 -0.295343
v 0.109342 0.191000 -0.297939
v 0.109910 0.191000 -0.301000
v 0.109342 0.191000 -0.304061
v 0.107723 0.191000 -0.306657
v 0.105300 0.191000 -0.308391
vn -0.0000 -0.6631 -0.7486
vn -0.3019 -0.6639 -0.6842
vn -0.5441 -0.6658 -0.5106
vn -0.6940 -0.6676 -0.2697
vn -0.7440 -0.6682 -0.0000
vn -0.6940 -0.6676 0.2697
vn -0.5441 -0.6658 0.5106
vn -0.3019 -0.6639 0.6842
vn -0.0000 -0.6631 0.7486
vn 0.3019 -0.6639 0.6842
vn 0.5441 -0.6658 0.5106
vn 0.6940 -0.6676 0.2697
vn 0.7440 -0.6682 -0.0000
vn 0.6940 -0.6676 -0.2697
vn 0.5441 -0.6658 -0.5106
vn 0.3019 -0.6639 -0.6842
vn -0.0000 0.6631 -0.7486
vn -0.3019 0.6639 -0.6842
vn -0.5441 0.6658 -0.5106
vn -0.6940 0.6675 -0.2697
vn -0.7440 0.6682 -0.0000
vn -0.6940 0.6675 0.2697
vn -0.5441 0.6658 0.5106
vn -0.3019 0.6639 0.6842
vn -0.0000 0.6631 0.7486
vn 0.3019 0.6639 0.6842
vn 0.5441 0.6658 0.5106
vn 0.6940 0.6675 0.2697
vn 0.7440 0.6682 -0.0000
vn 0.6940 0.6675 -0.2697
vn 0.5441 0.6658 -0.5106
vn 0.3019 0.6639 -0.6842
s 1
usemtl chair_black_enamel
f 66//65 81//80 65//64
f 67//66 82//81 66//65
f 68//67 83//82 67//66
f 69//68 84//83 68//67
f 70//69 85//84 69//68
f 71//70 86//85 70//69
f 72//71 87//86 71//70
f 73//72 88//87 72//71
f 74//73 89//88 73//72
f 75//74 90//89 74//73
f 76//75 91//90 75//74
f 77//76 92//91 76//75
f 78//77 93//92 77//76
f 79//78 94//93 78//77
f 80//79 95//94 79//78
f 65//64 96//95 80//79
f 73//72 69//68 65//64
f 88//87 92//91 96//95
f 66//65 82//81 81//80
f 67//66 83//82 82//81
f 68//67 84//83 83//82
f 69//68 85//84 84//83
f 70//69 86//85 85//84
f 71//70 87//86 86//85
f 72//71 88//87 87//86
f 73//72 89//88 88//87
f 74//73 90//89 89//88
f 75//74 91//90 90//89
f 76//75 92//91 91//90
f 77//76 93//92 92//91
f 78//77 94//93 93//92
f 79//78 95//94 94//93
f 80//79 96//95 95//94
f 65//64 81//80 96//95
f 65//64 80//79 79//78
f 79//78 78//77 77//76
f 77//76 76//75 75//74
f 75//74 74//73 73//72
f 73//72 72//71 71//70
f 71//70 70//69 69//68
f 69//68 68//67 67//66
f 67//66 66//65 65//64
f 65//64 79//78 77//76
f 77//76 75//74 73//72
f 73//72 71//70 69//68
f 69//68 67//66 65//64
f 65//64 77//76 73//72
f 96//95 81//80 82//81
f 82//81 83//82 84//83
f 84//83 85//84 86//85
f 86//85 87//86 88//87
f 88//87 89//88 90//89
f 90//89 91//90 92//91
f 92//91 93//92 94//93
f 94//93 95//94 96//95
f 96//95 82//81 84//83
f 84//83 86//85 88//87
f 88//87 90//89 92//91
f 92//91 94//93 96//95
f 96//95 84//83 88//87
o __articraft_commit_0002_0002
v 0.119506 -0.191000 -0.389590
v 0.120357 -0.195784 -0.389165
v 0.122782 -0.199839 -0.387953
v 0.126410 -0.202548 -0.386139
v 0.130690 -0.203500 -0.384000
v 0.134970 -0.202548 -0.381861
v 0.138599 -0.199839 -0.380047
v 0.141023 -0.195784 -0.378835
v 0.141874 -0.191000 -0.378410
v 0.141023 -0.186216 -0.378835
v 0.138599 -0.182161 -0.380047
v 0.134970 -0.179452 -0.381861
v 0.130690 -0.178500 -0.384000
v 0.126410 -0.179452 -0.386139
v 0.122782 -0.182161 -0.387953
v 0.120357 -0.186216 -0.389165
v 0.113511 -0.191000 -0.371590
v 0.114362 -0.195784 -0.371165
v 0.116787 -0.199839 -0.369953
v 0.120415 -0.202548 -0.368139
v 0.124695 -0.203500 -0.366000
v 0.128975 -0.202548 -0.363861
v 0.132604 -0.199839 -0.362047
v 0.135028 -0.195784 -0.360835
v 0.135880 -0.191000 -0.360410
v 0.135028 -0.186216 -0.360835
v 0.132604 -0.182161 -0.362047
v 0.128975 -0.179452 -0.363861
v 0.124695 -0.178500 -0.366000
v 0.120415 -0.179452 -0.368139
v 0.116787 -0.182161 -0.369953
v 0.114362 -0.186216 -0.371165
v 0.119506 0.191000 -0.389590
v 0.120357 0.186216 -0.389165
v 0.122782 0.182161 -0.387953
v 0.126410 0.179452 -0.386139
v 0.130690 0.178500 -0.384000
v 0.134970 0.179452 -0.381861
v 0.138599 0.182161 -0.380047
v 0.141023 0.186216 -0.378835
v 0.141874 0.191000 -0.378410
v 0.141023 0.195784 -0.378835
v 0.138599 0.199839 -0.380047
v 0.134970 0.202548 -0.381861
v 0.130690 0.203500 -0.384000
v 0.126410 0.202548 -0.386139
v 0.122782 0.199839 -0.387953
v 0.120357 0.195784 -0.389165
v 0.113511 0.191000 -0.371590
v 0.114362 0.186216 -0.371165
v 0.116787 0.182161 -0.369953
v 0.120415 0.179452 -0.368139
v 0.124695 0.178500 -0.366000
v 0.128975 0.179452 -0.363861
v 0.132604 0.182161 -0.362047
v 0.135028 0.186216 -0.360835
v 0.135880 0.191000 -0.360410
v 0.135028 0.195784 -0.360835
v 0.132604 0.199839 -0.362047
v 0.128975 0.202548 -0.363861
v 0.124695 0.203500 -0.366000
v 0.120415 0.202548 -0.368139
v 0.116787 0.199839 -0.369953
v 0.114362 0.195784 -0.371165
vn -0.4337 -0.0000 -0.9010
vn -0.3773 -0.2967 -0.8773
vn -0.2179 -0.5439 -0.8103
vn 0.0164 -0.7016 -0.7124
vn 0.2854 -0.7470 -0.6005
vn 0.5456 -0.6777 -0.4930
vn 0.7585 -0.5101 -0.4055
vn 0.8965 -0.2728 -0.3490
vn 0.9441 -0.0000 -0.3296
vn 0.8965 0.2728 -0.3490
vn 0.7585 0.5101 -0.4055
vn 0.5456 0.6777 -0.4930
vn 0.2854 0.7470 -0.6005
vn 0.0164 0.7016 -0.7124
vn -0.2179 0.5439 -0.8103
vn -0.3773 0.2967 -0.8773
vn -0.9441 -0.0000 0.3296
vn -0.8965 -0.2728 0.3490
vn -0.7585 -0.5101 0.4055
vn -0.5456 -0.6777 0.4930
vn -0.2854 -0.7469 0.6005
vn -0.0163 -0.7016 0.7124
vn 0.2179 -0.5439 0.8104
vn 0.3773 -0.2967 0.8773
vn 0.4337 -0.0000 0.9010
vn 0.3773 0.2967 0.8773
vn 0.2179 0.5439 0.8104
vn -0.0163 0.7016 0.7124
vn -0.2854 0.7469 0.6005
vn -0.5456 0.6777 0.4930
vn -0.7585 0.5101 0.4055
vn -0.8965 0.2728 0.3490
s 1
usemtl chair_rubber
f 98//97 113//112 97//96
f 99//98 114//113 98//97
f 100//99 115//114 99//98
f 101//100 116//115 100//99
f 102//101 117//116 101//100
f 103//102 118//117 102//101
f 104//103 119//118 103//102
f 105//104 120//119 104//103
f 105//104 122//121 121//120
f 106//105 123//122 122//121
f 107//106 124//123 123//122
f 108//107 125//124 124//123
f 109//108 126//125 125//124
f 110//109 127//126 126//125
f 111//110 128//127 127//126
f 112//111 113//112 128//127
f 105//104 101//100 97//96
f 120//119 124//123 128//127
f 130//97 145//112 129//96
f 131//98 146//113 130//97
f 132//99 147//114 131//98
f 133//100 148//115 132//99
f 134//101 149//116 133//100
f 135//102 150//117 134//101
f 136//103 151//118 135//102
f 137//104 152//119 136//103
f 137//104 154//121 153//120
f 138//105 155//122 154//121
f 139//106 156//123 155//122
f 140//107 157//124 156//123
f 141//108 158//125 157//124
f 142//109 159//126 158//125
f 143//110 160//127 159//126
f 144//111 145//112 160//127
f 137//104 133//100 129//96
f 152//119 156//123 160//127
f 98//97 114//113 113//112
f 99//98 115//114 114//113
f 100//99 116//115 115//114
f 101//100 117//116 116//115
f 102//101 118//117 117//116
f 103//102 119//118 118//117
f 104//103 120//119 119//118
f 105//104 121//120 120//119
f 105//104 106//105 122//121
f 106//105 107//106 123//122
f 107//106 108//107 124//123
f 108//107 109//108 125//124
f 109//108 110//109 126//125
f 110//109 111//110 127//126
f 111//110 112//111 128//127
f 112//111 97//96 113//112
f 97//96 112//111 111//110
f 111//110 110//109 109//108
f 109//108 108//107 107//106
f 107//106 106//105 105//104
f 105//104 104//103 103//102
f 103//102 102//101 101//100
f 101//100 100//99 99//98
f 99//98 98//97 97//96
f 97//96 111//110 109//108
f 109//108 107//106 105//104
f 105//104 103//102 101//100
f 101//100 99//98 97//96
f 97//96 109//108 105//104
f 128//127 113//112 114//113
f 114//113 115//114 116//115
f 116//115 117//116 118//117
f 118//117 119//118 120//119
f 120//119 121//120 122//121
f 122//121 123//122 124//123
f 124//123 125//124 126//125
f 126//125 127//126 128//127
f 128//127 114//113 116//115
f 116//115 118//117 120//119
f 120//119 122//121 124//123
f 124//123 126//125 128//127
f 128//127 116//115 120//119
f 130//97 146//113 145//112
f 131//98 147//114 146//113
f 132//99 148//115 147//114
f 133//100 149//116 148//115
f 134//101 150//117 149//116
f 135//102 151//118 150//117
f 136//103 152//119 151//118
f 137//104 153//120 152//119
f 137//104 138//105 154//121
f 138//105 139//106 155//122
f 139//106 140//107 156//123
f 140//107 141//108 157//124
f 141//108 142//109 158//125
f 142//109 143//110 159//126
f 143//110 144//111 160//127
f 144//111 129//96 145//112
f 129//96 144//111 143//110
f 143//110 142//109 141//108
f 141//108 140//107 139//106
f 139//106 138//105 137//104
f 137//104 136//103 135//102
f 135//102 134//101 133//100
f 133//100 132//99 131//98
f 131//98 130//97 129//96
f 129//96 143//110 141//108
f 141//108 139//106 137//104
f 137//104 135//102 133//100
f 133//100 131//98 129//96
f 129//96 141//108 137//104
f 160//127 145//112 146//113
f 146//113 147//114 148//115
f 148//115 149//116 150//117
f 150//117 151//118 152//119
f 152//119 153//120 154//121
f 154//121 155//122 156//123
f 156//123 157//124 158//125
f 158//125 159//126 160//127
f 160//127 146//113 148//115
f 148//115 150//117 152//119
f 152//119 154//121 156//123
f 156//123 158//125 160//127
f 160//127 148//115 152//119
o __articraft_commit_0002_0003
v 0.000000 -0.180000 0.005500
v -0.001965 -0.180000 0.005081
v -0.003630 -0.180000 0.003889
v -0.004743 -0.180000 0.002105
v -0.005134 -0.180000 0.000000
v -0.004743 -0.180000 -0.002105
v -0.003630 -0.180000 -0.003889
v -0.001965 -0.180000 -0.005081
v 0.000000 -0.180000 -0.005500
v 0.001965 -0.180000 -0.005081
v 0.003630 -0.180000 -0.003889
v 0.004743 -0.180000 -0.002105
v 0.005134 -0.180000 0.000000
v 0.004743 -0.180000 0.002105
v 0.003630 -0.180000 0.003889
v 0.001965 -0.180000 0.005081
v 0.000000 -0.225000 0.005500
v -0.001965 -0.225000 0.005081
v -0.003630 -0.225000 0.003889
v -0.004743 -0.225000 0.002105
v -0.005134 -0.225000 0.000000
v -0.004743 -0.225000 -0.002105
v -0.003630 -0.225000 -0.003889
v -0.001965 -0.225000 -0.005081
v 0.000000 -0.225000 -0.005500
v 0.001965 -0.225000 -0.005081
v 0.003630 -0.225000 -0.003889
v 0.004743 -0.225000 -0.002105
v 0.005134 -0.225000 0.000000
v 0.004743 -0.225000 0.002105
v 0.003630 -0.225000 0.003889
v 0.001965 -0.225000 0.005081
vn -0.0000 0.6631 0.7486
vn -0.3019 0.6639 0.6842
vn -0.5441 0.6658 0.5106
vn -0.6940 0.6675 0.2697
vn -0.7440 0.6682 -0.0000
vn -0.6940 0.6675 -0.2697
vn -0.5441 0.6658 -0.5106
vn -0.3019 0.6639 -0.6842
vn -0.0000 0.6631 -0.7486
vn 0.3019 0.6639 -0.6842
vn 0.5441 0.6658 -0.5106
vn 0.6940 0.6675 -0.2697
vn 0.7440 0.6682 -0.0000
vn 0.6940 0.6675 0.2697
vn 0.5441 0.6658 0.5106
vn 0.3019 0.6639 0.6842
vn -0.0000 -0.6631 0.7485
vn -0.3019 -0.6639 0.6842
vn -0.5441 -0.6658 0.5105
vn -0.6940 -0.6675 0.2697
vn -0.7440 -0.6682 -0.0000
vn -0.6940 -0.6675 -0.2697
vn -0.5441 -0.6658 -0.5105
vn -0.3019 -0.6639 -0.6842
vn -0.0000 -0.6631 -0.7485
vn 0.3019 -0.6639 -0.6842
vn 0.5441 -0.6658 -0.5106
vn 0.6940 -0.6675 -0.2697
vn 0.7440 -0.6682 -0.0000
vn 0.6940 -0.6675 0.2697
vn 0.5441 -0.6658 0.5106
vn 0.3019 -0.6639 0.6842
s 1
usemtl chair_rivets
f 162//129 177//144 161//128
f 163//130 178//145 162//129
f 164//131 179//146 163//130
f 165//132 180//147 164//131
f 166//133 181//148 165//132
f 167//134 182//149 166//133
f 168//135 183//150 167//134
f 169//136 184//151 168//135
f 170//137 185//152 169//136
f 171//138 186//153 170//137
f 172//139 187//154 171//138
f 173//140 188//155 172//139
f 174//141 189//156 173//140
f 175//142 190//157 174//141
f 176//143 191//158 175//142
f 161//128 192//159 176//143
f 169//136 165//132 161//128
f 184//151 188//155 192//159
f 162//129 178//145 177//144
f 163//130 179//146 178//145
f 164//131 180//147 179//146
f 165//132 181//148 180//147
f 166//133 182//149 181//148
f 167//134 183//150 182//149
f 168//135 184//151 183//150
f 169//136 185//152 184//151
f 170//137 186//153 185//152
f 171//138 187//154 186//153
f 172//139 188//155 187//154
f 173//140 189//156 188//155
f 174//141 190//157 189//156
f 175//142 191//158 190//157
f 176//143 192//159 191//158
f 161//128 177//144 192//159
f 161//128 176//143 175//142
f 175//142 174//141 173//140
f 173//140 172//139 171//138
f 171//138 170//137 169//136
f 169//136 168//135 167//134
f 167//134 166//133 165//132
f 165//132 164//131 163//130
f 163//130 162//129 161//128
f 161//128 175//142 173//140
f 173//140 171//138 169//136
f 169//136 167//134 165//132
f 165//132 163//130 161//128
f 161//128 173//140 169//136
f 192//159 177//144 178//145
f 178//145 179//146 180//147
f 180//147 181//148 182//149
f 182//149 183//150 184//151
f 184//151 185//152 186//153
f 186//153 187//154 188//155
f 188//155 189//156 190//157
f 190//157 191//158 192//159
f 192//159 178//145 180//147
f 180//147 182//149 184//151
f 184//151 186//153 188//155
f 188//155 190//157 192//159
f 192//159 180//147 184//151
o __articraft_commit_0002_0004
v 0.000000 0.180000 -0.005500
v -0.001965 0.180000 -0.005081
v -0.003630 0.180000 -0.003889
v -0.004743 0.180000 -0.002105
v -0.005134 0.180000 0.000000
v -0.004743 0.180000 0.002105
v -0.003630 0.180000 0.003889
v -0.001965 0.180000 0.005081
v 0.000000 0.180000 0.005500
v 0.001965 0.180000 0.005081
v 0.003630 0.180000 0.003889
v 0.004743 0.180000 0.002105
v 0.005134 0.180000 0.000000
v 0.004743 0.180000 -0.002105
v 0.003630 0.180000 -0.003889
v 0.001965 0.180000 -0.005081
v 0.000000 0.225000 -0.005500
v -0.001965 0.225000 -0.005081
v -0.003630 0.225000 -0.003889
v -0.004743 0.225000 -0.002105
v -0.005134 0.225000 0.000000
v -0.004743 0.225000 0.002105
v -0.003630 0.225000 0.003889
v -0.001965 0.225000 0.005081
v 0.000000 0.225000 0.005500
v 0.001965 0.225000 0.005081
v 0.003630 0.225000 0.003889
v 0.004743 0.225000 0.002105
v 0.005134 0.225000 0.000000
v 0.004743 0.225000 -0.002105
v 0.003630 0.225000 -0.003889
v 0.001965 0.225000 -0.005081
vn -0.0000 -0.6631 -0.7486
vn -0.3019 -0.6639 -0.6842
vn -0.5441 -0.6658 -0.5106
vn -0.6940 -0.6675 -0.2697
vn -0.7440 -0.6682 -0.0000
vn -0.6940 -0.6675 0.2697
vn -0.5441 -0.6658 0.5106
vn -0.3019 -0.6639 0.6842
vn -0.0000 -0.6631 0.7486
vn 0.3019 -0.6639 0.6842
vn 0.5441 -0.6658 0.5106
vn 0.6940 -0.6675 0.2697
vn 0.7440 -0.6682 -0.0000
vn 0.6940 -0.6675 -0.2697
vn 0.5441 -0.6658 -0.5106
vn 0.3019 -0.6639 -0.6842
vn -0.0000 0.6631 -0.7485
vn -0.3019 0.6639 -0.6842
vn -0.5441 0.6658 -0.5106
vn -0.6940 0.6675 -0.2697
vn -0.7440 0.6682 -0.0000
vn -0.6940 0.6675 0.2697
vn -0.5441 0.6658 0.5106
vn -0.3019 0.6639 0.6842
vn -0.0000 0.6631 0.7485
vn 0.3019 0.6639 0.6842
vn 0.5441 0.6658 0.5106
vn 0.6940 0.6675 0.2697
vn 0.7440 0.6682 -0.0000
vn 0.6940 0.6675 -0.2697
vn 0.5441 0.6658 -0.5106
vn 0.3019 0.6639 -0.6842
s 1
usemtl chair_rivets
f 194//161 209//176 193//160
f 195//162 210//177 194//161
f 196//163 211//178 195//162
f 197//164 212//179 196//163
f 198//165 213//180 197//164
f 199//166 214//181 198//165
f 200//167 215//182 199//166
f 201//168 216//183 200//167
f 202//169 217//184 201//168
f 203//170 218//185 202//169
f 204//171 219//186 203//170
f 205//172 220//187 204//171
f 206//173 221//188 205//172
f 207//174 222//189 206//173
f 208//175 223//190 207//174
f 193//160 224//191 208//175
f 201//168 197//164 193//160
f 216//183 220//187 224//191
f 194//161 210//177 209//176
f 195//162 211//178 210//177
f 196//163 212//179 211//178
f 197//164 213//180 212//179
f 198//165 214//181 213//180
f 199//166 215//182 214//181
f 200//167 216//183 215//182
f 201//168 217//184 216//183
f 202//169 218//185 217//184
f 203//170 219//186 218//185
f 204//171 220//187 219//186
f 205//172 221//188 220//187
f 206//173 222//189 221//188
f 207//174 223//190 222//189
f 208//175 224//191 223//190
f 193//160 209//176 224//191
f 193//160 208//175 207//174
f 207//174 206//173 205//172
f 205//172 204//171 203//170
f 203//170 202//169 201//168
f 201//168 200//167 199//166
f 199//166 198//165 197//164
f 197//164 196//163 195//162
f 195//162 194//161 193//160
f 193//160 207//174 205//172
f 205//172 203//170 201//168
f 201//168 199//166 197//164
f 197//164 195//162 193//160
f 193//160 205//172 201//168
f 224//191 209//176 210//177
f 210//177 211//178 212//179
f 212//179 213//180 214//181
f 214//181 215//182 216//183
f 216//183 217//184 218//185
f 218//185 219//186 220//187
f 220//187 221//188 222//189
f 222//189 223//190 224//191
f 224//191 210//177 212//179
f 212//179 214//181 216//183
f 216//183 218//185 220//187
f 220//187 222//189 224//191
f 224//191 212//179 216//183
