# https://github.com/mikedh/trimesh
mtllib material.mtl

o geometry_0
usemtl material_0
v 0.08440427 -0.26124310 0.12771969
v 0.08417410 -0.26548070 0.12828591
v 0.07872328 -0.26550311 0.12807517
v 0.07438694 -0.26140785 0.12747502
v 0.07437275 -0.26550722 0.12794289
v 0.07915011 -0.25705606 0.12732247
v 0.07440291 -0.26947322 0.12849055
v 0.08470450 -0.25678471 0.12733281
v 0.07945722 -0.25152037 0.12690240
v 0.08492260 -0.25133437 0.12689570
v 0.07456574 -0.25164717 0.12694158
v 0.07443864 -0.25720769 0.12730762
v 0.08953696 -0.25647855 0.12764131
v 0.08982292 -0.25071216 0.12725180
v 0.08871296 -0.24749032 0.12702285
v 0.07963511 -0.24708563 0.12682939
v 0.07467726 -0.24700323 0.12684190
v 0.08500755 -0.24722397 0.12685768
v 0.08948654 -0.26114178 0.12818365
v 0.07170643 -0.24751130 0.12706532
v 0.08942382 -0.26546496 0.12884383
v 0.08404409 -0.26947185 0.12908982
v 0.08935072 -0.26946512 0.12962696
v 0.07082528 -0.26550886 0.12839207
v 0.07080463 -0.26142278 0.12795036
v 0.07090817 -0.26947850 0.12891938
v 0.07081281 -0.25732392 0.12788332
v 0.09177405 -0.25221729 0.12777711
v 0.09130599 -0.24843304 0.12752503
v 0.07070983 -0.25223207 0.12767000
v 0.09184723 -0.26947927 0.13016112
v 0.09168863 -0.27163345 0.13052459
v 0.08926973 -0.27198082 0.13032638
v 0.08397682 -0.27245161 0.13008386
v 0.09193902 -0.26548928 0.12952778
v 0.09198619 -0.25624231 0.12824985
v 0.07870511 -0.27283466 0.12989990
v 0.07445586 -0.27309069 0.12974378
v 0.09200554 -0.26109123 0.12889613
v 0.07111327 -0.27281860 0.12994203
v 0.06966212 -0.27213299 0.13037558
v 0.06922450 -0.25498953 0.12855725
v 0.07461153 -0.27504104 0.13130890
v 0.06915731 -0.25746542 0.12886570
v 0.06915785 -0.26150307 0.12924807
v 0.07885279 -0.27478603 0.13163781
v 0.06923116 -0.26555252 0.12964341
v 0.06938086 -0.26949990 0.13004026
v 0.08392595 -0.27440134 0.13215844
v 0.07159963 -0.27476549 0.13187629
v 0.07961228 -0.24509223 0.12814096
v 0.07473227 -0.24498440 0.12836276
v 0.07486565 -0.24314967 0.12832008
v 0.07966524 -0.24313582 0.12810968
v 0.08485383 -0.24306986 0.12828162
v 0.08494569 -0.24523850 0.12831914
v 0.08928052 -0.24280713 0.12908508
v 0.08972403 -0.24606055 0.12892622
v 0.07127149 -0.24281800 0.12930413
v 0.07160082 -0.24616975 0.12964711
v 0.08880645 -0.27413169 0.13296901
v 0.07909849 -0.27605712 0.13362625
v 0.08389603 -0.27572036 0.13417239
v 0.08704944 -0.27542770 0.13454910
v 0.08992407 -0.27520412 0.13507847
v 0.09229568 -0.27268952 0.13266629
v 0.09211896 -0.27478442 0.13560210
v 0.07503142 -0.27610600 0.13327578
v 0.07218295 -0.27572909 0.13383341
v 0.08389478 -0.27680251 0.13657711
v 0.07950947 -0.27719641 0.13660447
v 0.09197067 -0.27565411 0.13754281
v 0.09346829 -0.27543071 0.13807510
v 0.08842292 -0.27597210 0.13643350
v 0.07593577 -0.27705887 0.13658634
v 0.08835830 -0.27704296 0.14018640
v 0.08406779 -0.27772486 0.14016379
v 0.08131089 -0.26066586 0.15119249
v 0.08104272 -0.25597176 0.15165251
v 0.07924412 -0.26062253 0.14737998
v 0.07971291 -0.26543483 0.14713708
v 0.07892169 -0.25579405 0.14761768
v 0.08180428 -0.26549709 0.15076393
v 0.08012087 -0.26951486 0.14685181
v 0.08245964 -0.26968014 0.15046668
v 0.08300110 -0.26553521 0.15340993
v 0.08333650 -0.26847985 0.15279335
v 0.08409384 -0.26552185 0.15549733
v 0.08241507 -0.26076311 0.15387924
v 0.08201466 -0.25772539 0.15399353
v 0.08333008 -0.26086462 0.15594654
v 0.08517893 -0.26083842 0.15938449
v 0.08271612 -0.25614178 0.15556528
v 0.08431102 -0.25595561 0.15969130
v 0.08592515 -0.25563771 0.16256335
v 0.08364508 -0.27109545 0.15181187
v 0.08085028 -0.27341959 0.14624672
v 0.08435858 -0.25088671 0.15981960
v 0.08553102 -0.25079018 0.16281480
v 0.08176806 -0.25468060 0.15336646
v 0.08064997 -0.25075608 0.15041071
v 0.07888266 -0.25086197 0.14774963
v 0.08320047 -0.25082418 0.15579249
v 0.08179664 -0.25074804 0.15256956
v 0.08063710 -0.24610063 0.14982082
v 0.08491206 -0.24603015 0.15973774
v 0.08378369 -0.24610715 0.15548144
v 0.08200110 -0.24610165 0.15174823
v 0.08177625 -0.24367326 0.15193173
v 0.08267035 -0.24334586 0.15500480
v 0.08540720 -0.24729414 0.16250001
v 0.07755396 -0.25597653 0.14589627
v 0.07786047 -0.26070264 0.14568584
v 0.08288678 -0.27341440 0.14862661
v 0.07734667 -0.25097460 0.14594330
v 0.07708681 -0.24610358 0.14604874
v 0.08674687 -0.26057085 0.16154429
v 0.07820884 -0.26540717 0.14544623
v 0.07888305 -0.24610198 0.14788929
v 0.08646157 -0.26498660 0.15897593
v 0.07844021 -0.26951188 0.14511517
v 0.07850319 -0.24365687 0.14836448
v 0.07542975 -0.25115392 0.14405680
v 0.07489885 -0.24628150 0.14365724
v 0.07437700 -0.24356923 0.14386460
v 0.07343446 -0.24507801 0.14164661
v 0.07337940 -0.24391814 0.14164133
v 0.07163249 -0.24316685 0.13959137
v 0.07271700 -0.24630538 0.14002924
v 0.07341555 -0.24772298 0.14217769
v 0.07353763 -0.25134659 0.14217666
v 0.07240061 -0.25150019 0.14012924
v 0.07237434 -0.25692829 0.14010796
v 0.07378432 -0.25664464 0.14213534
v 0.07241730 -0.26123056 0.13995209
v 0.07078916 -0.25726190 0.13631351
v 0.07069723 -0.26160663 0.13633476
v 0.07410695 -0.26104003 0.14198497
v 0.07639558 -0.26542413 0.14375071
v 0.07220213 -0.26582131 0.13945246
v 0.07100562 -0.26473513 0.13753065
v 0.07123462 -0.26740122 0.13826504
v 0.07137821 -0.26951694 0.13825935
v 0.07261435 -0.26951310 0.13960193
v 0.07436671 -0.26545900 0.14182627
v 0.07462011 -0.26950887 0.14164506
v 0.07656361 -0.26950884 0.14345565
v 0.07283802 -0.27335295 0.13915178
v 0.07090955 -0.25170964 0.13567637
v 0.07502652 -0.27340844 0.14125551
v 0.07688254 -0.27341011 0.14290880
v 0.07158081 -0.27202687 0.13820548
v 0.07178073 -0.27460241 0.13724086
v 0.07541031 -0.27560204 0.14084937
v 0.07879267 -0.27341619 0.14443052
v 0.08519357 -0.26971593 0.15432920
v 0.07081388 -0.26951879 0.13634799
v 0.07123223 -0.27335066 0.13619977
v 0.08681906 -0.26823732 0.15736638
v 0.08735306 -0.26338419 0.16074452
v 0.06980981 -0.26951927 0.13256827
v 0.07033055 -0.26315948 0.13496444
v 0.07006657 -0.26040128 0.13388845
v 0.06966895 -0.26170081 0.13232234
v 0.06971427 -0.26558694 0.13240400
v 0.06992995 -0.25743216 0.13272399
v 0.07044380 -0.27342007 0.13302314
v 0.07439233 -0.27594808 0.13936558
v 0.07974119 -0.24321173 0.15078245
v 0.08868814 -0.25503942 0.16462609
v 0.08727037 -0.25055185 0.16484377
v 0.08817992 -0.24575700 0.16407810
v 0.08995571 -0.24684791 0.16711152
v 0.08988246 -0.25030854 0.16694362
v 0.09180099 -0.25014377 0.16887604
v 0.06932406 -0.25749505 0.13022476
v 0.07135160 -0.27537471 0.13495021
v 0.06966212 -0.27213299 0.13037558
v 0.06926474 -0.25499687 0.12894349
v 0.06991735 -0.25228107 0.13035940
v 0.07921472 -0.27560732 0.14384687
v 0.09100760 -0.25459331 0.16582638
v 0.09248777 -0.25402871 0.16772254
v 0.09267581 -0.25006923 0.16995567
v 0.09268181 -0.24750197 0.17017126
v 0.09305046 -0.25236657 0.16949435
v 0.09154230 -0.25667217 0.16545010
v 0.08980322 -0.25942603 0.16351338
v 0.09225338 -0.24647243 0.16823438
v 0.09267441 -0.25853944 0.16559117
v 0.09206568 -0.26046941 0.16414882
v 0.06923116 -0.26555252 0.12964341
v 0.06938086 -0.26949990 0.13004026
v 0.06915785 -0.26150307 0.12924807
v 0.07598351 -0.24315588 0.14708351
v 0.07770477 -0.27606243 0.14210498
v 0.07127796 -0.27537340 0.13457221
v 0.07163537 -0.24617746 0.13464738
v 0.07089333 -0.24305388 0.13391554
v 0.08373403 -0.24323177 0.15944670
v 0.08627401 -0.24465823 0.16115652
v 0.08835404 -0.24357942 0.16409962
v 0.08627537 -0.24391523 0.16113347
v 0.06915731 -0.25746542 0.12886570
v 0.06922450 -0.25498953 0.12855725
v 0.09354120 -0.26187661 0.16453819
v 0.07160082 -0.24616975 0.12964711
v 0.07127149 -0.24281800 0.12930413
v 0.07170643 -0.24751130 0.12706532
v 0.07159963 -0.27476549 0.13187629
v 0.07070983 -0.25223207 0.12767000
v 0.09262751 -0.24327175 0.16416068
v 0.09250700 -0.24477759 0.16418852
v 0.09680603 -0.26071995 0.15205452
v 0.09630390 -0.26050344 0.14725420
v 0.09604470 -0.25483313 0.14700475
v 0.09682692 -0.26460302 0.15099618
v 0.09653496 -0.26576445 0.14792040
v 0.09643099 -0.25471476 0.15157543
v 0.09694520 -0.25883484 0.15482934
v 0.09702871 -0.26300311 0.15379338
v 0.09549450 -0.25506431 0.14244838
v 0.09569908 -0.26066443 0.14270698
v 0.09686277 -0.26725924 0.14968340
v 0.09703956 -0.26579267 0.15231113
v 0.09709279 -0.26948422 0.15203163
v 0.09677008 -0.26955500 0.14828987
v 0.09651866 -0.26827246 0.14693701
v 0.09641984 -0.27088952 0.14559211
v 0.09579993 -0.26552880 0.14315541
v 0.09498674 -0.26089782 0.13831916
v 0.09466621 -0.25498414 0.13767017
v 0.09431840 -0.25683469 0.13514008
v 0.09603395 -0.26955530 0.14390063
v 0.09523220 -0.26951778 0.13956685
v 0.09502833 -0.26553690 0.13877183
v 0.09432643 -0.26103878 0.13490596
v 0.09415280 -0.25287032 0.13584110
v 0.09450804 -0.25134864 0.13871075
v 0.09486242 -0.24996081 0.14200340
v 0.09547538 -0.25012180 0.14681704
v 0.09390010 -0.25527227 0.13375895
v 0.09414259 -0.26576748 0.13476333
v 0.09440818 -0.26951483 0.13575435
v 0.09386136 -0.26108444 0.13302165
v 0.09301490 -0.25601843 0.13022390
v 0.09656885 -0.27223951 0.14812949
v 0.09635015 -0.27193728 0.14563327
v 0.09580579 -0.25008479 0.15142456
v 0.09714976 -0.26553231 0.15595430
v 0.09701020 -0.26078817 0.15612364
v 0.09662602 -0.25508487 0.15597881
v 0.09686667 -0.25717553 0.15747905
v 0.09430314 -0.24839783 0.14031120
v 0.09463380 -0.24776512 0.14321390
v 0.09702601 -0.26043445 0.15988171
v 0.09402598 -0.25007984 0.13737747
v 0.09678688 -0.25599334 0.15996821
v 0.09640250 -0.25328940 0.15994841
v 0.09586324 -0.25006413 0.15569419
v 0.09625518 -0.25218174 0.16251378
v 0.09338122 -0.25044897 0.13342990
v 0.09227619 -0.25039801 0.12922034
v 0.09372423 -0.26720890 0.13339797
v 0.09379699 -0.26950872 0.13355337
v 0.09190054 -0.24726364 0.12992580
v 0.09484489 -0.24742381 0.14664534
v 0.09574164 -0.25005639 0.15990344
v 0.09640945 -0.25406501 0.16381493
v 0.09607858 -0.25193092 0.16512996
v 0.09664944 -0.26527369 0.15953571
v 0.09501961 -0.24710537 0.15122274
v 0.09216134 -0.24600595 0.13342930
v 0.09498682 -0.24696828 0.15552369
v 0.09283724 -0.24609843 0.13746335
v 0.09245006 -0.24266364 0.13335016
v 0.09300619 -0.24280600 0.13731037
v 0.09358974 -0.24631481 0.14173786
v 0.09338659 -0.24284954 0.14164153
v 0.09363818 -0.24546444 0.14645611
v 0.09363192 -0.24298026 0.14620937
v 0.09369259 -0.24514529 0.15099400
v 0.09372049 -0.24315022 0.15073791
v 0.09367766 -0.24324633 0.15508790
v 0.09360157 -0.24500869 0.15531093
v 0.09573753 -0.25038472 0.16389535
v 0.09341282 -0.24319680 0.15964316
v 0.09642954 -0.25945029 0.16349499
v 0.09130599 -0.24843304 0.12752503
v 0.09475408 -0.24692447 0.15984377
v 0.09327766 -0.24496543 0.15974943
v 0.09455901 -0.24683599 0.16399173
v 0.09670803 -0.27204978 0.15186273
v 0.09681666 -0.26934552 0.15561204
v 0.09658626 -0.27150801 0.15427318
v 0.09603535 -0.25417879 0.16605376
v 0.09598392 -0.25192824 0.16613171
v 0.09472039 -0.27340561 0.14016446
v 0.09393881 -0.27342594 0.13654593
v 0.09370644 -0.27217451 0.13395183
v 0.09309144 -0.26109529 0.13083899
v 0.09540714 -0.27330139 0.14413564
v 0.09314040 -0.26575652 0.13180296
v 0.09177405 -0.25221729 0.12777711
v 0.09262751 -0.24327175 0.16416068
v 0.09250700 -0.24477759 0.16418852
v 0.09289316 -0.26949957 0.13175176
v 0.09501000 -0.25038344 0.16756348
v 0.09418485 -0.24699205 0.16792807
v 0.09365486 -0.24750163 0.17017180
v 0.09599299 -0.25688627 0.16566271
v 0.09198619 -0.25624231 0.12824985
v 0.09200554 -0.26109123 0.12889613
v 0.09630464 -0.26379937 0.16167165
v 0.09193902 -0.26548928 0.12952778
v 0.09184723 -0.26947927 0.13016112
v 0.09648336 -0.26769477 0.15824683
v 0.09346829 -0.27543071 0.13807510
v 0.09371694 -0.27558610 0.14028327
v 0.09168863 -0.27163345 0.13052459
v 0.09229568 -0.27268952 0.13266629
v 0.09078480 -0.24463513 0.13219303
v 0.09405378 -0.27562279 0.14394824
v 0.09505375 -0.27435565 0.14787728
v 0.09602352 -0.26610100 0.16023614
v 0.09358878 -0.25006327 0.16995598
v 0.09601371 -0.27042678 0.15637080
v 0.09436164 -0.25388220 0.16783185
v 0.09415410 -0.27549690 0.14651148
v 0.08972403 -0.24606055 0.12892622
v 0.08928052 -0.24280713 0.12908508
v 0.09072390 -0.24342284 0.13218221
v 0.09211896 -0.27478442 0.13560210
v 0.09536576 -0.26058954 0.16423735
v 0.09520780 -0.27365106 0.15140575
v 0.09329470 -0.25235891 0.16949424
v 0.09224945 -0.27468529 0.15074648
v 0.09034377 -0.27535602 0.14860538
v 0.09221584 -0.27528208 0.14863507
v 0.08915451 -0.27498007 0.15028994
v 0.09215135 -0.27573508 0.14683495
v 0.09415410 -0.27549690 0.14651148
v 0.08898433 -0.27624038 0.14694852
v 0.08821946 -0.27570480 0.14895593
v 0.08514414 -0.27681863 0.14593378
v 0.08460107 -0.27776065 0.14306270
v 0.08846249 -0.27714968 0.14339809
v 0.09199422 -0.27623850 0.14371653
v 0.09520780 -0.27365106 0.15140575
v 0.09405378 -0.27562279 0.14394824
v 0.09505375 -0.27435565 0.14787728
v 0.09218018 -0.27251482 0.15473753
v 0.09523641 -0.27197686 0.15492837
v 0.09448113 -0.27105692 0.15678835
v 0.09319239 -0.27118796 0.15670390
v 0.08538570 -0.27568775 0.14836363
v 0.08902457 -0.27287844 0.15378597
v 0.08093803 -0.27727523 0.14263086
v 0.08016172 -0.27767181 0.13999857
v 0.07693345 -0.27700734 0.13966218
v 0.09104387 -0.27117735 0.15628447
v 0.08180229 -0.27601385 0.14531271
v 0.08343452 -0.27545545 0.14751785
v 0.08618636 -0.27250776 0.15287463
v 0.08511857 -0.27366331 0.15063986
v 0.07593577 -0.27705887 0.13658634
v 0.08406779 -0.27772486 0.14016379
v 0.08913235 -0.27093920 0.15603006
v 0.07770477 -0.27606243 0.14210498
v 0.07268716 -0.27598006 0.13628086
v 0.07541031 -0.27560204 0.14084937
v 0.07439233 -0.27594808 0.13936558
v 0.07921472 -0.27560732 0.14384687
v 0.09227043 -0.26958111 0.15801661
v 0.08959842 -0.26838386 0.15837523
v 0.09250652 -0.26686746 0.16051009
v 0.09114539 -0.26682872 0.16017382
v 0.08681906 -0.26823732 0.15736638
v 0.08519357 -0.26971593 0.15432920
v 0.09525950 -0.26858059 0.15852511
v 0.09453759 -0.26664692 0.16065095
v 0.09266768 -0.26389337 0.16268671
v 0.08863427 -0.26579207 0.15990046
v 0.09496358 -0.26396838 0.16239391
v 0.09354120 -0.26187661 0.16453819
v 0.08967108 -0.26467088 0.16087431
v 0.08364508 -0.27109545 0.15181187
v 0.08288678 -0.27341440 0.14862661
v 0.09389341 -0.26179817 0.16452900
v 0.08735306 -0.26338419 0.16074452
v 0.08646157 -0.26498660 0.15897593
v 0.08085028 -0.27341959 0.14624672
v 0.08980322 -0.25942603 0.16351338
v 0.09206568 -0.26046941 0.16414882
v 0.07178073 -0.27460241 0.13724086
v 0.07135160 -0.27537471 0.13495021
v 0.07127796 -0.27537340 0.13457221
v 0.07218295 -0.27572909 0.13383341
v 0.09459091 -0.25867760 0.16567710
v 0.09267441 -0.25853944 0.16559117
v 0.09436164 -0.25388220 0.16783185
v 0.09248777 -0.25402871 0.16772254
v 0.09305046 -0.25236657 0.16949435
v 0.09329470 -0.25235891 0.16949424
v 0.09267581 -0.25006923 0.16995567
v 0.09358878 -0.25006327 0.16995598
v 0.09601371 -0.27042678 0.15637080
v 0.09365486 -0.24750163 0.17017180
v 0.09268181 -0.24750197 0.17017126
v 0.09599299 -0.25688627 0.16566271
v 0.09536576 -0.26058954 0.16423735
v 0.09630464 -0.26379937 0.16167165
v 0.09602352 -0.26610100 0.16023614
v 0.09658626 -0.27150801 0.15427318
v 0.09648336 -0.26769477 0.15824683
v 0.07159963 -0.27476549 0.13187629
v 0.07950947 -0.27719641 0.13660447
v 0.08835830 -0.27704296 0.14018640
v 0.09187903 -0.27618092 0.14022800
v 0.08389478 -0.27680251 0.13657711
v 0.09371694 -0.27558610 0.14028327
v 0.09346829 -0.27543071 0.13807510
v 0.09197067 -0.27565411 0.13754281
v 0.04046032 -0.23895088 0.13037413
v 0.04038261 -0.23902273 0.13879320
v 0.04041661 -0.23907557 0.14923891
v 0.04038252 -0.23917513 0.15764046
v 0.04037014 -0.23921724 0.16157074
v 0.04025741 -0.23926085 0.16580029
v 0.04845714 -0.23963103 0.17142428
v 0.04855081 -0.23954596 0.16454956
v 0.04895458 -0.23950990 0.15819241
v 0.04893821 -0.23941079 0.15098840
v 0.04854470 -0.23935570 0.14271517
v 0.04881954 -0.23936269 0.13448280
v 0.04877616 -0.23933835 0.13041613
v 0.04473205 -0.23908997 0.12652341
v 0.04476488 -0.23901282 0.12216636
v 0.04489370 -0.23868744 0.11083558
v 0.04492319 -0.23853713 0.10696850
v 0.04494128 -0.23838149 0.10307560
v 0.04489538 -0.23808186 0.09583162
v 0.04493891 -0.23783344 0.09037767
v 0.04490982 -0.23750781 0.08368956
v 0.04870562 -0.23757459 0.07943113
v 0.04878586 -0.23787892 0.08362938
v 0.05245200 -0.23793896 0.07932974
v 0.05250735 -0.23826686 0.08357281
v 0.05635894 -0.23829508 0.07924666
v 0.05639483 -0.23861176 0.08350592
v 0.06035920 -0.23891146 0.08345344
v 0.06032815 -0.23861888 0.07919682
v 0.04872070 -0.23899069 0.11081641
v 0.04875235 -0.23886664 0.10694247
v 0.04878631 -0.23873931 0.10304046
v 0.04881591 -0.23860323 0.09920378
v 0.05257664 -0.23881546 0.09519729
v 0.04884819 -0.23817998 0.08956493
v 0.05265694 -0.23855118 0.08896691
v 0.05249390 -0.23895667 0.09920775
v 0.05245256 -0.23907015 0.10302236
v 0.05241626 -0.23917048 0.10693247
v 0.05239086 -0.23926708 0.11081968
v 0.05238420 -0.23935017 0.11461857
v 0.04869601 -0.23910366 0.11462215
v 0.05241044 -0.23940158 0.11844850
v 0.04884095 -0.23925157 0.12244615
v 0.05251886 -0.23945397 0.12525895
v 0.05268423 -0.23949805 0.13028707
v 0.05277180 -0.23951045 0.13443454
v 0.05279988 -0.23948878 0.14212455
v 0.05304974 -0.23951562 0.14936720
v 0.05299027 -0.23962554 0.15830140
v 0.05263570 -0.23966114 0.16447653
v 0.05219606 -0.23973256 0.16989224
v 0.05660332 -0.23979911 0.16975832
v 0.05880921 -0.23976299 0.16617845
v 0.05684970 -0.23970191 0.16238979
v 0.05709098 -0.23968191 0.15851952
v 0.05691231 -0.23956221 0.14910394
v 0.05657125 -0.23954080 0.14192979
v 0.05679288 -0.23958375 0.13433699
v 0.05668481 -0.23958156 0.13011469
v 0.05609992 -0.23954564 0.12571833
v 0.06055801 -0.23959915 0.12587655
v 0.06091446 -0.23962548 0.13183939
v 0.06511014 -0.23963852 0.13043284
v 0.06716100 -0.23965123 0.12583521
v 0.06125835 -0.23962198 0.12123693
v 0.06835689 -0.23967463 0.12950207
v 0.07567853 -0.23982713 0.12925474
v 0.07537065 -0.23980159 0.12528512
v 0.06836235 -0.23969533 0.12194973
v 0.08001479 -0.23987395 0.12930201
v 0.08205582 -0.23984559 0.12550108
v 0.08145634 -0.23985201 0.12156225
v 0.07550660 -0.23980676 0.12161831
v 0.08810254 -0.23983148 0.12575629
v 0.09145188 -0.23986247 0.12258247
v 0.09169168 -0.23982176 0.12593338
v 0.08434363 -0.23989239 0.12934613
v 0.08830542 -0.23987019 0.12946472
v 0.09171512 -0.23983213 0.12964185
v 0.08849569 -0.23986755 0.13350494
v 0.08434948 -0.23987354 0.13350531
v 0.07699569 -0.23979577 0.13358644
v 0.07209844 -0.23970932 0.13370427
v 0.09184906 -0.23983471 0.13363868
v 0.06849430 -0.23964259 0.13382174
v 0.06490752 -0.23958373 0.13859002
v 0.06063480 -0.23956634 0.14280547
v 0.06506869 -0.23956643 0.14323150
v 0.06864902 -0.23957993 0.13859649
v 0.06881101 -0.23954511 0.14280330
v 0.07234425 -0.23960322 0.13861419
v 0.06897341 -0.23954891 0.14639744
v 0.07261571 -0.23951803 0.14290950
v 0.07289857 -0.23948677 0.14653108
v 0.07641515 -0.23949905 0.14291286
v 0.07674438 -0.23942952 0.14658707
v 0.06506900 -0.23960455 0.15048988
v 0.06890819 -0.23957911 0.15040694
v 0.07360490 -0.23949079 0.15032017
v 0.07703916 -0.23942311 0.15033783
v 0.06944095 -0.23975846 0.16254184
v 0.07275529 -0.23971595 0.16280124
v 0.07760582 -0.23949836 0.15621452
v 0.07894930 -0.23960070 0.16261145
v 0.08162017 -0.23947914 0.15759930
v 0.08065735 -0.23941436 0.15007615
v 0.08885986 -0.23949315 0.15909016
v 0.08878635 -0.23947848 0.15455073
v 0.08869008 -0.23948769 0.15044320
v 0.08021956 -0.23943877 0.14645682
v 0.08862296 -0.23953232 0.14637309
v 0.08014934 -0.23952968 0.14278053
v 0.07807706 -0.23965320 0.13854727
v 0.08423395 -0.23973100 0.13829800
v 0.08857069 -0.23976165 0.13811338
v 0.08859136 -0.23962669 0.14234808
v 0.09224700 -0.23969586 0.14226449
v 0.08445600 -0.23948520 0.15884793
v 0.08450016 -0.23955262 0.16323501
v 0.08887000 -0.23955017 0.16347098
v 0.07250679 -0.23983252 0.16694397
v 0.06840039 -0.23985860 0.16717626
v 0.06860141 -0.23994741 0.17133358
v 0.06272187 -0.23987237 0.17017463
v 0.06286398 -0.23975453 0.16256346
v 0.06279465 -0.23971713 0.15824494
v 0.06084893 -0.23960429 0.15075953
v 0.06293727 -0.23992877 0.17492977
v 0.05633857 -0.23985557 0.17548241
v 0.07193001 -0.24001959 0.17488863
v 0.07227496 -0.23994513 0.17098559
v 0.07651030 -0.23992617 0.17117831
v 0.07715957 -0.24002652 0.17471839
v 0.08066864 -0.23990312 0.17131667
v 0.08083909 -0.23973000 0.16728358
v 0.07674928 -0.23977917 0.16709082
v 0.08451906 -0.23968741 0.16748914
v 0.08882901 -0.23968534 0.16764301
v 0.08394551 -0.24003184 0.17458875
v 0.08853430 -0.23988661 0.17144907
v 0.09140768 -0.24011637 0.17478369
v 0.09527060 -0.24016976 0.17489184
v 0.10282134 -0.24015437 0.17066880
v 0.09871092 -0.24013498 0.17111951
v 0.09481356 -0.24008545 0.17139302
v 0.09871423 -0.24003655 0.16753288
v 0.10283604 -0.24009317 0.16720986
v 0.09887898 -0.23994599 0.16355780
v 0.09499376 -0.23993994 0.16770685
v 0.10296378 -0.24004029 0.16335066
v 0.10304163 -0.24001320 0.15911044
v 0.09901759 -0.23990503 0.15925299
v 0.09915159 -0.23990819 0.15489249
v 0.10314523 -0.24001226 0.15433916
v 0.10330171 -0.24003866 0.14646514
v 0.09893866 -0.23994173 0.14656536
v 0.09894496 -0.23994234 0.14233421
v 0.09506339 -0.23980616 0.14233902
v 0.09558413 -0.23973696 0.15452754
v 0.09557404 -0.23975097 0.15936813
v 0.09261129 -0.23958986 0.15932153
v 0.09264897 -0.23957503 0.15479462
v 0.09256536 -0.23959005 0.15061295
v 0.09243307 -0.23962949 0.14644565
v 0.09203643 -0.23978139 0.13805756
v 0.09531090 -0.23981288 0.16366892
v 0.09512340 -0.23984788 0.13810384
v 0.09511126 -0.23986903 0.13382566
v 0.09546677 -0.23988163 0.12607083
v 0.09902941 -0.23994464 0.13612682
v 0.09934209 -0.23995252 0.12614194
v 0.09556215 -0.23992194 0.12233409
v 0.09178507 -0.23992544 0.11853245
v 0.09757859 -0.23997159 0.12051161
v 0.10567386 -0.24002025 0.12259915
v 0.10354294 -0.24000254 0.12827526
v 0.10780661 -0.24004664 0.12849516
v 0.10339996 -0.24001865 0.13630866
v 0.10778402 -0.24007159 0.13747317
v 0.10738046 -0.24009170 0.16312757
v 0.10748207 -0.24007198 0.15900379
v 0.11136556 -0.24013939 0.16474156
v 0.10723893 -0.24012475 0.16686955
v 0.11086091 -0.24016891 0.16985168
v 0.04818074 -0.23971070 0.18084900
v 0.11160704 -0.24010262 0.15677300
v 0.10752305 -0.24006298 0.15477547
v 0.11211251 -0.24008930 0.15051420
v 0.10757025 -0.24007398 0.14855522
v 0.11180969 -0.24009186 0.14351809
v 0.11181918 -0.24007843 0.13118291
v 0.09957419 -0.24000259 0.11864989
v 0.10567521 -0.24002624 0.11871292
v 0.10569605 -0.24002391 0.11493526
v 0.08602297 -0.23989230 0.11847381
v 0.07613654 -0.23987493 0.11466979
v 0.06046528 -0.23962666 0.11856049
v 0.07030636 -0.23976141 0.11833590
v 0.06090800 -0.23963267 0.11479355
v 0.06432944 -0.23968738 0.11092211
v 0.06022336 -0.23959020 0.11086077
v 0.05624687 -0.23931395 0.10300290
v 0.06019779 -0.23950201 0.10302226
v 0.05630407 -0.23922379 0.09920897
v 0.06024924 -0.23943526 0.09924133
v 0.05637158 -0.23911126 0.09539760
v 0.06031864 -0.23934725 0.09542532
v 0.05642058 -0.23896590 0.09147637
v 0.06037288 -0.23922750 0.09146973
v 0.05642459 -0.23880470 0.08753110
v 0.06038304 -0.23908570 0.08748879
v 0.06433509 -0.23953633 0.09548632
v 0.06438524 -0.23944014 0.09149496
v 0.06440007 -0.23931497 0.08747113
v 0.06438737 -0.23915768 0.08342276
v 0.06845307 -0.23949236 0.08746079
v 0.06846326 -0.23934954 0.08339790
v 0.06842353 -0.23960529 0.09152034
v 0.07240261 -0.23971690 0.09153050
v 0.07244804 -0.23961180 0.08744801
v 0.07247650 -0.23947737 0.08337035
v 0.07644773 -0.23968619 0.08743560
v 0.07648120 -0.23955725 0.08334427
v 0.08048231 -0.23959956 0.08333521
v 0.08096664 -0.23973005 0.08750534
v 0.08527677 -0.23961082 0.08331015
v 0.09017406 -0.23973343 0.08745027
v 0.09243571 -0.23960663 0.08335590
v 0.09795880 -0.23971909 0.08744268
v 0.10184845 -0.23956880 0.08335070
v 0.10384399 -0.23969787 0.08743396
v 0.11815701 -0.23947379 0.08341898
v 0.10969381 -0.23991454 0.09943323
v 0.10678285 -0.23986962 0.09554477
v 0.09889507 -0.23993669 0.09949379
v 0.09793915 -0.23989373 0.09559612
v 0.08724756 -0.23988733 0.09562580
v 0.08721989 -0.23992121 0.09949718
v 0.08030368 -0.23991877 0.10136001
v 0.08037710 -0.23987877 0.09560410
v 0.08084551 -0.23981890 0.09140647
v 0.07632796 -0.23984870 0.09558968
v 0.07639550 -0.23978476 0.09153335
v 0.07263478 -0.23981300 0.09703873
v 0.06836892 -0.23968458 0.09554379
v 0.07634656 -0.23989828 0.10180974
v 0.09405026 -0.23982719 0.09154348
v 0.08718720 -0.23993997 0.10332252
v 0.09492600 -0.23996660 0.10536770
v 0.10188492 -0.23981282 0.09151635
v 0.11264561 -0.23975927 0.09148420
v 0.10278985 -0.23996234 0.10335733
v 0.11353280 -0.23994085 0.10334191
v 0.06830993 -0.23973213 0.09937639
v 0.06425992 -0.23962234 0.10075216
v 0.06425852 -0.23967433 0.10703585
v 0.06018978 -0.23955216 0.10695644
v 0.06832570 -0.23977268 0.10904792
v 0.06827235 -0.23976219 0.10315270
v 0.07225820 -0.23985204 0.10434237
v 0.07228120 -0.23983961 0.11102029
v 0.07619992 -0.23989508 0.10912588
v 0.08013620 -0.23990838 0.11473094
v 0.08023623 -0.23992676 0.10917564
v 0.08619242 -0.23994258 0.10731138
v 0.08615398 -0.23994485 0.11118135
v 0.08608159 -0.23992926 0.11479040
v 0.09389579 -0.23998064 0.11124067
v 0.09744722 -0.24000148 0.11487859
v 0.09976134 -0.23999190 0.10930835
v 0.10572851 -0.24000666 0.11122698
v 0.10866936 -0.23998672 0.10831510
v 0.11162414 -0.24003965 0.11686181
v 0.05621683 -0.23938967 0.10692263
v 0.05621594 -0.23945768 0.11082730
v 0.05623554 -0.23950945 0.11461880
v 0.05628886 -0.23953609 0.11843086
v 0.07033668 -0.23979191 0.11461847
v 0.09245555 -0.23965724 0.16363762
v 0.09180351 -0.23997752 0.17146271
v 0.09219066 -0.23979498 0.16772841
v 0.07649358 -0.23933949 0.07907924
v 0.07249088 -0.23925088 0.07911913
v 0.06846153 -0.23910895 0.07915160
v 0.10509117 -0.23932700 0.07907803
v 0.09203035 -0.23938562 0.07900181
v 0.08571615 -0.23939574 0.07900690
v 0.08047681 -0.23938501 0.07905176
v 0.06436530 -0.23889266 0.07917348
v 0.07251085 -0.23885940 0.07481930
v 0.07651342 -0.23896530 0.07478038
v 0.08048028 -0.23902145 0.07474489
v 0.09204269 -0.23902765 0.07472087
v 0.10151414 -0.23897667 0.07474285
v 0.05245595 -0.23743220 0.07502232
v 0.06437703 -0.23844421 0.07486580
v 0.05638387 -0.23779663 0.07493718
v 0.06034663 -0.23814058 0.07488923
v 0.05657308 -0.24170157 0.16737705
v 0.05251516 -0.24167810 0.16275194
v 0.05994426 -0.24184139 0.16192982
v 0.05231528 -0.24150918 0.17781854
v 0.05644912 -0.24160349 0.17499828
v 0.04861049 -0.24153163 0.17085785
v 0.04494306 -0.24152131 0.16514543
v 0.04531632 -0.24155806 0.16140638
v 0.04876151 -0.24159707 0.16530403
v 0.05669745 -0.24180111 0.15583326
v 0.05280154 -0.24171498 0.15168327
v 0.04893564 -0.24163891 0.15172327
v 0.05259466 -0.24171525 0.14116174
v 0.05658148 -0.24173632 0.13155910
v 0.05262865 -0.24164639 0.13165845
v 0.05741912 -0.24165164 0.12348372
v 0.05257423 -0.24159375 0.12556116
v 0.04881382 -0.24157254 0.12876113
v 0.05246379 -0.24156167 0.11977778
v 0.04889758 -0.24163422 0.13995822
v 0.04493552 -0.24156132 0.13999026
v 0.04490286 -0.24153505 0.13195992
v 0.04501994 -0.24147862 0.10843202
v 0.04494955 -0.24147807 0.11607938
v 0.04491067 -0.24149927 0.12390427
v 0.05058640 -0.24153891 0.11698239
v 0.06032490 -0.24171437 0.12585072
v 0.06414016 -0.24172184 0.12239232
v 0.06424158 -0.24175431 0.12918046
v 0.06428515 -0.24184488 0.13537022
v 0.06064431 -0.24187616 0.13732520
v 0.06452741 -0.24201371 0.14261352
v 0.06040909 -0.24195071 0.14587010
v 0.06035629 -0.24194534 0.14248344
v 0.06069185 -0.24192730 0.15170957
v 0.06459986 -0.24194302 0.15825564
v 0.06674194 -0.24203743 0.15388247
v 0.06868441 -0.24200343 0.15840852
v 0.06656259 -0.24192104 0.16269231
v 0.06655698 -0.24186331 0.16645674
v 0.07258109 -0.24200734 0.16304532
v 0.07231061 -0.24193643 0.16707706
v 0.06053244 -0.24168567 0.17160475
v 0.06070412 -0.24179611 0.16585827
v 0.06567901 -0.24168651 0.17357965
v 0.09857684 -0.24141707 0.17127316
v 0.10715092 -0.24142517 0.17283949
v 0.10292607 -0.24142997 0.17057495
v 0.10295869 -0.24144505 0.16738807
v 0.11394250 -0.24147408 0.16196303
v 0.11239776 -0.24147511 0.14490864
v 0.11192295 -0.24154784 0.13799575
v 0.11192451 -0.24157031 0.13394417
v 0.10799302 -0.24159877 0.13781489
v 0.10805655 -0.24162830 0.13369301
v 0.11143837 -0.24156827 0.12846853
v 0.10782263 -0.24161941 0.12780951
v 0.10828814 -0.24150100 0.14459252
v 0.10775724 -0.24144739 0.14992724
v 0.11182024 -0.24146527 0.15631218
v 0.10794684 -0.24147822 0.16685008
v 0.10779795 -0.24148859 0.16250369
v 0.10781840 -0.24145465 0.15427878
v 0.09892723 -0.24142484 0.16373008
v 0.10317917 -0.24144444 0.15900406
v 0.09906562 -0.24145211 0.15923245
v 0.10305599 -0.24139988 0.15076260
v 0.10313646 -0.24144319 0.14575300
v 0.09898946 -0.24142031 0.14584383
v 0.09919456 -0.24148355 0.14183825
v 0.09553377 -0.24152598 0.13733803
v 0.09896713 -0.24157119 0.13749138
v 0.09543583 -0.24158347 0.13313743
v 0.09909584 -0.24162285 0.13328919
v 0.09925927 -0.24164550 0.12923098
v 0.10245429 -0.24161898 0.13291943
v 0.09544139 -0.24164785 0.12914252
v 0.09944373 -0.24165508 0.12546720
v 0.09274124 -0.24171124 0.12562320
v 0.08863117 -0.24177097 0.12178803
v 0.08440357 -0.24178836 0.12142515
v 0.08691115 -0.24173662 0.11796272
v 0.08891077 -0.24182828 0.12523994
v 0.08469327 -0.24188684 0.12515533
v 0.07989894 -0.24182434 0.12137723
v 0.08000102 -0.24178286 0.11757359
v 0.08493970 -0.24164984 0.11385561
v 0.07204600 -0.24176708 0.11753445
v 0.07012409 -0.24165446 0.11350323
v 0.07652752 -0.24167663 0.11387953
v 0.06824446 -0.24171971 0.11756010
v 0.06455257 -0.24162637 0.11415984
v 0.05630326 -0.24158722 0.11594109
v 0.06037936 -0.24158274 0.11034232
v 0.05440768 -0.24156183 0.10937379
v 0.04876073 -0.24152151 0.11128283
v 0.05069216 -0.24155578 0.10071738
v 0.06243445 -0.24158278 0.10654076
v 0.05639697 -0.24158514 0.10453850
v 0.06346541 -0.24159071 0.10268798
v 0.07050243 -0.24158294 0.10664967
v 0.07438582 -0.24160314 0.11042029
v 0.06579790 -0.24158786 0.11047662
v 0.07844518 -0.24159384 0.10674139
v 0.07252359 -0.24158800 0.10280672
v 0.07851277 -0.24160841 0.10099001
v 0.09017752 -0.24159192 0.11067016
v 0.08636260 -0.24159417 0.10489389
v 0.09410778 -0.24157538 0.10695034
v 0.09794813 -0.24156162 0.11078744
v 0.09787147 -0.24158107 0.11430680
v 0.09683219 -0.24163017 0.11792533
v 0.09204838 -0.24161662 0.11413819
v 0.10392039 -0.24161312 0.12477637
v 0.09766166 -0.24165563 0.12174232
v 0.10988615 -0.24152613 0.12211987
v 0.10683115 -0.24151735 0.11820770
v 0.11364397 -0.24143273 0.11455675
v 0.10586590 -0.24150646 0.11446281
v 0.10979082 -0.24147052 0.11081870
v 0.10292225 -0.24153113 0.10889065
v 0.10933176 -0.24152416 0.09908837
v 0.10981589 -0.24155590 0.09117508
v 0.10235880 -0.24162449 0.08188502
v 0.10396811 -0.24158984 0.09320039
v 0.09711166 -0.24159837 0.09719998
v 0.09711768 -0.24162684 0.09121652
v 0.08881065 -0.24166098 0.08504749
v 0.09702204 -0.24163836 0.08298425
v 0.09112711 -0.24167535 0.07873070
v 0.09493981 -0.24167681 0.07448553
v 0.07906945 -0.24171516 0.07663991
v 0.07862362 -0.24167722 0.08299311
v 0.07268878 -0.24168594 0.08089913
v 0.07368078 -0.24165940 0.08919604
v 0.08254278 -0.24167004 0.08712158
v 0.08642821 -0.24164706 0.09328578
v 0.09027556 -0.24159764 0.10106398
v 0.07858115 -0.24164483 0.09529717
v 0.07861714 -0.24166499 0.09126137
v 0.07260044 -0.24161869 0.09718172
v 0.06351838 -0.24160907 0.09896162
v 0.06663270 -0.24164812 0.09323026
v 0.06664640 -0.24167264 0.08715203
v 0.06660445 -0.24168697 0.08304212
v 0.06655328 -0.24172224 0.07879718
v 0.06753463 -0.24175817 0.07453433
v 0.06032366 -0.24176770 0.07663742
v 0.06049798 -0.24170658 0.08510184
v 0.06056346 -0.24166210 0.09315073
v 0.05652223 -0.24166057 0.09310760
v 0.05641997 -0.24171019 0.08511341
v 0.05248807 -0.24165344 0.08911952
v 0.04871573 -0.24161050 0.08913379
v 0.05032085 -0.24170138 0.07885439
v 0.04390501 -0.24162623 0.07943786
v 0.04504006 -0.24149308 0.10071127
v 0.05621546 -0.24176094 0.07662980
v 0.10197636 -0.24155821 0.10199192
v 0.08234933 -0.24160329 0.11052954
v 0.05646948 -0.24161059 0.09885029
v 0.09904866 -0.24140964 0.15016085
v 0.09910110 -0.24143726 0.15453547
v 0.09873943 -0.24140598 0.16774066
v 0.09151712 -0.24148257 0.17466888
v 0.09502682 -0.24146260 0.17452092
v 0.08366249 -0.24157047 0.17474745
v 0.07996053 -0.24165370 0.17469504
v 0.07606217 -0.24169888 0.17458698
v 0.07629523 -0.24184363 0.17128892
v 0.08016105 -0.24177490 0.17146127
v 0.08379538 -0.24171588 0.17154451
v 0.07657618 -0.24194239 0.16738395
v 0.08031504 -0.24185704 0.16761675
v 0.08038878 -0.24195714 0.16344446
v 0.07686691 -0.24201815 0.16323046
v 0.07201018 -0.24169137 0.17436385
v 0.07213172 -0.24182758 0.17095926
v 0.06807319 -0.24179235 0.17030688
v 0.07702718 -0.24214131 0.15870748
v 0.08032668 -0.24217892 0.15898415
v 0.07687192 -0.24225648 0.15431958
v 0.07286874 -0.24208266 0.15852807
v 0.07310287 -0.24222222 0.15066317
v 0.06861147 -0.24211967 0.14992261
v 0.07234289 -0.24229051 0.14679533
v 0.06834266 -0.24212790 0.14645743
v 0.06828433 -0.24207808 0.14302824
v 0.06803237 -0.24197626 0.13882704
v 0.06765605 -0.24181117 0.12907548
v 0.06770197 -0.24180719 0.12517051
v 0.07121237 -0.24189943 0.12512580
v 0.06796617 -0.24178518 0.12139483
v 0.07164171 -0.24183056 0.12136092
v 0.07587485 -0.24178776 0.11754701
v 0.07552170 -0.24183761 0.12135650
v 0.06031224 -0.24163093 0.11772787
v 0.05667986 -0.24180594 0.13813454
v 0.06064373 -0.24187818 0.15809731
v 0.09244534 -0.24174483 0.12904090
v 0.09570803 -0.24152067 0.14153986
v 0.07513766 -0.24199589 0.12511024
v 0.07981907 -0.24196850 0.12511823
v 0.08378010 -0.24194942 0.16778304
v 0.09503739 -0.24159157 0.17146657
v 0.07641864 -0.24239428 0.15068895
v 0.08002642 -0.24242336 0.15461266
v 0.08833470 -0.24189973 0.17156669
v 0.09588278 -0.24162377 0.14600782
v 0.09600990 -0.24180299 0.15044957
v 0.09570806 -0.24176414 0.16387382
v 0.09534621 -0.24172650 0.16789235
v 0.09596656 -0.24187104 0.15948659
v 0.09203955 -0.24192448 0.17156306
v 0.09607075 -0.24192069 0.15482856
v 0.08363479 -0.24239382 0.16367289
v 0.07183329 -0.24255839 0.14349248
v 0.09253031 -0.24267106 0.16792363
v 0.08854065 -0.24269791 0.16788627
v 0.07163249 -0.24316685 0.13959137
v 0.08835404 -0.24357942 0.16409962
v 0.09262751 -0.24327175 0.16416068
v 0.07127149 -0.24281800 0.12930413
v 0.08373403 -0.24323177 0.15944670
v 0.07089333 -0.24305388 0.13391554
v 0.07974119 -0.24321173 0.15078245
v 0.07598351 -0.24315588 0.14708351
v 0.07437700 -0.24356923 0.14386460
v 0.09245006 -0.24266364 0.13335016
v 0.07486565 -0.24314967 0.12832008
v 0.08267035 -0.24334586 0.15500480
v 0.08485383 -0.24306986 0.12828162
v 0.07966524 -0.24313582 0.12810968
v 0.08928052 -0.24280713 0.12908508
v 0.07850319 -0.24365687 0.14836448
v 0.08177625 -0.24367326 0.15193173
v 0.09072390 -0.24342284 0.13218221
v 0.09341282 -0.24319680 0.15964316
v 0.09300619 -0.24280600 0.13731037
v 0.09338659 -0.24284954 0.14164153
v 0.09367766 -0.24324633 0.15508790
v 0.07337940 -0.24391814 0.14164133
v 0.09363192 -0.24298026 0.14620937
v 0.09372049 -0.24315022 0.15073791
v 0.08627537 -0.24391523 0.16113347
v 0.09268181 -0.24750197 0.17017126
v 0.09365486 -0.24750163 0.17017180
v 0.09225338 -0.24647243 0.16823438
v 0.09418485 -0.24699205 0.16792807
v 0.09455901 -0.24683599 0.16399173
v 0.09250700 -0.24477759 0.16418852
v 0.08817992 -0.24575700 0.16407810
v 0.08995571 -0.24684791 0.16711152
vt 0.33291522 0.98737097
vt 0.33146784 0.98715204
vt 0.33164510 0.98528892
vt 0.33318093 0.98393309
vt 0.33178440 0.98380387
vt 0.33451369 0.98570162
vt 0.33044088 0.98369795
vt 0.33442986 0.98761940
vt 0.33639750 0.98598385
vt 0.33628464 0.98786694
vt 0.33650777 0.98429614
vt 0.33460957 0.98407537
vt 0.33437276 0.98929793
vt 0.33634087 0.98957199
vt 0.33745226 0.98927224
vt 0.33790794 0.98618937
vt 0.33809066 0.98447812
vt 0.33767620 0.98803288
vt 0.33276546 0.98913145
vt 0.33800462 0.98344219
vt 0.33126807 0.98896730
vt 0.33008990 0.98697221
vt 0.32987267 0.98880452
vt 0.33186454 0.98257679
vt 0.33326682 0.98269349
vt 0.33049831 0.98250461
vt 0.33466989 0.98280287
vt 0.33575752 0.99022347
vt 0.33709210 0.99015892
vt 0.33641943 0.98292756
vt 0.32973960 0.98968822
vt 0.32898402 0.98954493
vt 0.32898164 0.98868746
vt 0.32902619 0.98684913
vt 0.33113396 0.98986703
vt 0.33435369 0.99018037
vt 0.32909408 0.98504037
vt 0.32917157 0.98360676
vt 0.33266601 0.99003822
vt 0.32931644 0.98248607
vt 0.32950422 0.98193926
vt 0.33551481 0.98226273
vt 0.32834557 0.98358554
vt 0.33466521 0.98212963
vt 0.33326849 0.98196465
vt 0.32821044 0.98502004
vt 0.33185118 0.98186743
vt 0.33045596 0.98184359
vt 0.32805264 0.98677331
vt 0.32835355 0.98252565
vt 0.33873039 0.98626494
vt 0.33897948 0.98453921
vt 0.33959219 0.98472941
vt 0.33939642 0.98635417
vt 0.33927667 0.98814666
vt 0.33852357 0.98812908
vt 0.33928996 0.98971903
vt 0.33815080 0.98980522
vt 0.34009433 0.98357940
vt 0.33898187 0.98327035
vt 0.32781470 0.98847824
vt 0.32740396 0.98505539
vt 0.32722297 0.98672682
vt 0.32712987 0.98783857
vt 0.32698780 0.98885500
vt 0.32814881 0.98976541
vt 0.32688573 0.98965746
vt 0.32759377 0.98366588
vt 0.32755882 0.98264712
vt 0.32630369 0.98670220
vt 0.32629657 0.98514980
vt 0.32613373 0.98960423
vt 0.32599270 0.99015892
vt 0.32644951 0.98832411
vt 0.32638925 0.98389220
vt 0.32508042 0.98832524
vt 0.32499999 0.98678529
vt 0.99298751 0.18533826
vt 0.99470687 0.18541402
vt 0.99297565 0.18380487
vt 0.99120671 0.18384492
vt 0.99475187 0.18379682
vt 0.99121392 0.18532395
vt 0.98970312 0.18385935
vt 0.98966950 0.18538260
vt 0.99123728 0.18634456
vt 0.99014872 0.18623620
vt 0.99126297 0.18716776
vt 0.99298304 0.18635911
vt 0.99408871 0.18631732
vt 0.99296874 0.18714774
vt 0.99300051 0.18850034
vt 0.99466819 0.18690991
vt 0.99475902 0.18843520
vt 0.99487180 0.18955052
vt 0.98916072 0.18601608
vt 0.98824048 0.18385291
vt 0.99655068 0.18849027
vt 0.99656314 0.18958354
vt 0.99518526 0.18606520
vt 0.99660832 0.18494481
vt 0.99656349 0.18381286
vt 0.99658608 0.18703806
vt 0.99661541 0.18580765
vt 0.99830544 0.18476444
vt 0.99832016 0.18857229
vt 0.99829125 0.18702167
vt 0.99830347 0.18558943
vt 0.99918073 0.18560785
vt 0.99932241 0.18672305
vt 0.99775255 0.18947196
vt 0.99468130 0.18301344
vt 0.99294513 0.18302995
vt 0.98821688 0.18495101
vt 0.99651855 0.18296981
vt 0.99831808 0.18292689
vt 0.99308366 0.18942171
vt 0.99122018 0.18304527
vt 0.99830532 0.18384457
vt 0.99144471 0.18863606
vt 0.98971617 0.18300265
vt 0.99921417 0.18388700
vt 0.99645019 0.18201399
vt 0.99824113 0.18176562
vt 0.99924594 0.18169785
vt 0.99866760 0.18087476
vt 0.99908620 0.18087280
vt 0.99943942 0.17998070
vt 0.99823457 0.18022299
vt 0.99770033 0.18102962
vt 0.99637604 0.18106836
vt 0.99630910 0.18023878
vt 0.99432486 0.18025500
vt 0.99443811 0.18112588
vt 0.99275744 0.18023437
vt 0.99417645 0.17880559
vt 0.99259782 0.17882729
vt 0.99283135 0.18116629
vt 0.99122524 0.18217021
vt 0.99109441 0.18006527
vt 0.99147397 0.17927051
vt 0.99052411 0.17954332
vt 0.98977512 0.17957032
vt 0.98977071 0.18019706
vt 0.99122339 0.18118763
vt 0.98975819 0.18119097
vt 0.98973918 0.18212008
vt 0.98839170 0.18011117
vt 0.99620545 0.17857158
vt 0.98834032 0.18116593
vt 0.98831087 0.18203503
vt 0.98888677 0.17959398
vt 0.98793334 0.17935109
vt 0.98752213 0.18114126
vt 0.98827320 0.18289137
vt 0.98965019 0.18704975
vt 0.98975378 0.17888600
vt 0.98837364 0.17892212
vt 0.99019670 0.18824470
vt 0.99202168 0.18932903
vt 0.98971659 0.17752665
vt 0.99202788 0.17833722
vt 0.99302012 0.17793214
vt 0.99253803 0.17737305
vt 0.99113226 0.17743170
vt 0.99409318 0.17750412
vt 0.98830092 0.17777592
vt 0.98737943 0.18051010
vt 0.99945068 0.18481869
vt 0.99500167 0.19073272
vt 0.99663711 0.19047976
vt 0.99837023 0.19048798
vt 0.99793434 0.19168144
vt 0.99669135 0.19162989
vt 0.99675429 0.19258595
vt 0.99405164 0.17659795
vt 0.98760676 0.17854190
vt 0.98874283 0.17679441
vt 0.99495620 0.17613363
vt 0.99597156 0.17665154
vt 0.98743922 0.18284476
vt 0.99505544 0.19163966
vt 0.99527782 0.19246578
vt 0.99676549 0.19307166
vt 0.99766260 0.19320297
vt 0.99592412 0.19305086
vt 0.99427652 0.19166654
vt 0.99334222 0.19071287
vt 0.99810952 0.19256228
vt 0.99355870 0.19197357
vt 0.99284160 0.19146228
vt 0.99112123 0.17644858
vt 0.98969555 0.17662996
vt 0.99258757 0.17627597
vt 0.99952829 0.18293321
vt 0.98726416 0.18203908
vt 0.98760217 0.17840815
vt 0.99827641 0.17824292
vt 0.99945527 0.17796487
vt 0.99940473 0.18830752
vt 0.99879104 0.18930006
vt 0.99913996 0.19054675
vt 0.99905360 0.18931144
vt 0.99405426 0.17611545
vt 0.99495518 0.17599833
vt 0.99226832 0.19192106
vt 0.99830371 0.17645425
vt 0.99952829 0.17633593
vt 0.99786305 0.17551208
vt 0.98762059 0.17743206
vt 0.99609089 0.17566144
vt 0.99925065 0.19201005
vt 0.99871826 0.19196969
vt 0.58523333 0.52445197
vt 0.58531719 0.52608949
vt 0.58736122 0.52617943
vt 0.58383948 0.52481449
vt 0.58342785 0.52586031
vt 0.58740044 0.52461940
vt 0.58590889 0.52350622
vt 0.58440816 0.52386087
vt 0.58728164 0.52774125
vt 0.58526164 0.52764583
vt 0.58288997 0.52525896
vt 0.58340871 0.52436781
vt 0.58208972 0.52447206
vt 0.58207572 0.52573085
vt 0.58253199 0.52619082
vt 0.58160251 0.52663779
vt 0.58351326 0.52749044
vt 0.58517677 0.52915561
vt 0.58731341 0.52939415
vt 0.58664119 0.53026342
vt 0.58206910 0.52722573
vt 0.58208030 0.52871674
vt 0.58350766 0.52899826
vt 0.58512253 0.53033715
vt 0.58808136 0.53004068
vt 0.58863837 0.52905262
vt 0.58914089 0.52791733
vt 0.58907473 0.52625990
vt 0.58720660 0.53075588
vt 0.58341748 0.53038943
vt 0.58207816 0.53003216
vt 0.58510286 0.53099757
vt 0.58693182 0.53199881
vt 0.58112615 0.52579403
vt 0.58123451 0.52662325
vt 0.58908755 0.52468383
vt 0.58349180 0.52313179
vt 0.58520371 0.52306581
vt 0.58726758 0.52311897
vt 0.58650935 0.52260607
vt 0.58972472 0.52851659
vt 0.58994687 0.52751303
vt 0.58533418 0.52178770
vt 0.58911139 0.52953404
vt 0.58693790 0.52175879
vt 0.58792579 0.52176648
vt 0.58910519 0.52322495
vt 0.58832604 0.52089071
vt 0.58896798 0.53091270
vt 0.58897173 0.53240412
vt 0.58289278 0.53086990
vt 0.58207315 0.53079545
vt 0.59011519 0.53221679
vt 0.59007686 0.52633661
vt 0.58912402 0.52178055
vt 0.58764595 0.52044964
vt 0.58841759 0.52000415
vt 0.58357668 0.52189636
vt 0.59020269 0.52476865
vt 0.59068328 0.53102851
vt 0.59027576 0.52329284
vt 0.59063792 0.52957863
vt 0.59192908 0.53096288
vt 0.59184325 0.52960652
vt 0.59056175 0.52806568
vt 0.59183288 0.52811563
vt 0.59091103 0.52643681
vt 0.59181774 0.52653950
vt 0.59106374 0.52487069
vt 0.59179258 0.52497607
vt 0.59180069 0.52347237
vt 0.59115553 0.52337307
vt 0.58899480 0.52041179
vt 0.59188855 0.52189720
vt 0.58569545 0.52053851
vt 0.58970034 0.53305399
vt 0.59032851 0.52179629
vt 0.59123725 0.52182007
vt 0.59036332 0.52035266
vt 0.58116877 0.52454609
vt 0.58210915 0.52325350
vt 0.58132005 0.52371871
vt 0.58761877 0.51967973
vt 0.58842301 0.51967037
vt 0.58066624 0.52855217
vt 0.58066219 0.52980840
vt 0.58114260 0.53065473
vt 0.58509415 0.53178698
vt 0.58069873 0.52718019
vt 0.58340609 0.53145772
vt 0.58831638 0.53293175
vt 0.59198111 0.52031201
vt 0.59143031 0.52025795
vt 0.58204561 0.53147686
vt 0.58903116 0.51911861
vt 0.59031981 0.51897299
vt 0.59016675 0.51816005
vt 0.58663154 0.51978147
vt 0.58684969 0.53276062
vt 0.58508408 0.53254908
vt 0.58410686 0.52115017
vt 0.58348185 0.53234202
vt 0.58202434 0.53212953
vt 0.58269083 0.52233225
vt 0.57987994 0.52933860
vt 0.57979703 0.52857727
vt 0.58123040 0.53201729
vt 0.58084339 0.53125077
vt 0.59125054 0.53164011
vt 0.57973409 0.52731764
vt 0.58020270 0.52593195
vt 0.58323944 0.52160794
vt 0.58921510 0.51815641
vt 0.58165389 0.52294165
vt 0.58774412 0.51884288
vt 0.57971698 0.52643836
vt 0.59081626 0.53282160
vt 0.59198111 0.53275687
vt 0.59167844 0.53163910
vt 0.57996356 0.53032809
vt 0.58521932 0.52015185
vt 0.58038151 0.52470624
vt 0.58834267 0.51818085
vt 0.97285593 0.63124466
vt 0.97311103 0.63030303
vt 0.97250885 0.63059068
vt 0.97377330 0.63064069
vt 0.97223294 0.63002181
vt 0.97152376 0.63024557
vt 0.97327685 0.62955213
vt 0.97384483 0.63005775
vt 0.97435093 0.62867624
vt 0.97407067 0.62770635
vt 0.97288346 0.62838584
vt 0.97177607 0.62904960
vt 0.97203702 0.63199836
vt 0.97112346 0.62945932
vt 0.97144061 0.63091606
vt 0.97358596 0.63257915
vt 0.97267205 0.63315970
vt 0.97325426 0.63364136
vt 0.97363430 0.63341385
vt 0.97467780 0.62950075
vt 0.97444046 0.63183326
vt 0.97522604 0.62710065
vt 0.97507644 0.62618971
vt 0.97613561 0.62566108
vt 0.97427255 0.63301104
vt 0.97545177 0.62811047
vt 0.97523433 0.62902278
vt 0.97530425 0.63124990
vt 0.97527915 0.63034463
vt 0.97602713 0.62457627
vt 0.97379577 0.62676424
vt 0.97488761 0.63271433
vt 0.97635508 0.62655890
vt 0.97715855 0.62405795
vt 0.97698331 0.62586635
vt 0.97704536 0.62524432
vt 0.97617072 0.62734061
vt 0.97425908 0.63388610
vt 0.97532499 0.63380313
vt 0.97478914 0.63501436
vt 0.97520661 0.63474643
vt 0.97617155 0.63317895
vt 0.97625387 0.63191921
vt 0.97345591 0.63465744
vt 0.97417778 0.63539678
vt 0.97535676 0.63615352
vt 0.97617728 0.63452262
vt 0.97454387 0.63643080
vt 0.97551823 0.63713080
vt 0.97610730 0.63513559
vt 0.97632539 0.63082111
vt 0.97591978 0.62951392
vt 0.97540492 0.63719809
vt 0.97708672 0.63502032
vt 0.97700804 0.63415277
vt 0.97641152 0.62855190
vt 0.97720695 0.63687098
vt 0.97628957 0.63712555
vt 0.97783017 0.62424624
vt 0.97749943 0.62346584
vt 0.97746825 0.62333465
vt 0.97703016 0.62321597
vt 0.97555602 0.63836628
vt 0.97625905 0.63818520
vt 0.97626513 0.64008570
vt 0.97692388 0.63982099
vt 0.97701025 0.64069504
vt 0.97690845 0.64072549
vt 0.97750050 0.64167279
vt 0.97706527 0.64178294
vt 0.97271800 0.63392079
vt 0.97736365 0.64292365
vt 0.97783017 0.64280814
vt 0.97518116 0.63908094
vt 0.97493863 0.63770294
vt 0.97399408 0.63655853
vt 0.97368246 0.63568544
vt 0.97211671 0.63329208
vt 0.97305298 0.63502383
vt 0.97709477 0.62243950
vt 0.97481537 0.62504470
vt 0.97237939 0.62742174
vt 0.97121400 0.62800074
vt 0.97331738 0.62559593
vt 0.97059661 0.62831813
vt 0.97028303 0.62762523
vt 0.97067755 0.62722415
vt 0.63368237 0.92247504
vt 0.63364816 0.91964847
vt 0.63364881 0.91613925
vt 0.63363057 0.91331565
vt 0.63362384 0.91199493
vt 0.63358331 0.91057408
vt 0.63636094 0.90867889
vt 0.63639760 0.91098750
vt 0.63653958 0.91312265
vt 0.63653958 0.91554314
vt 0.63641363 0.91832304
vt 0.63651478 0.92108768
vt 0.63650358 0.92245328
vt 0.63513404 0.92376405
vt 0.63514751 0.92522711
vt 0.63519329 0.92903394
vt 0.63520288 0.93033427
vt 0.63520849 0.93164378
vt 0.63519192 0.93408203
vt 0.63520586 0.93591946
vt 0.63519537 0.93817526
vt 0.63649160 0.93960828
vt 0.63652027 0.93818891
vt 0.63777328 0.93963361
vt 0.63779277 0.93819970
vt 0.63910788 0.93965149
vt 0.63911897 0.93821377
vt 0.64046866 0.93822312
vt 0.64046079 0.93965757
vt 0.63649511 0.92903668
vt 0.63650656 0.93033892
vt 0.63651878 0.93165100
vt 0.63652939 0.93294162
vt 0.63781279 0.93428415
vt 0.63654065 0.93618715
vt 0.63784176 0.93638146
vt 0.63778323 0.93293512
vt 0.63776761 0.93165249
vt 0.63775355 0.93033820
vt 0.63774323 0.92903185
vt 0.63773906 0.92775559
vt 0.63648587 0.92775768
vt 0.63774556 0.92646915
vt 0.63653117 0.92512965
vt 0.63777733 0.92418182
vt 0.63782948 0.92249322
vt 0.63785553 0.92110032
vt 0.63785774 0.91851741
vt 0.63793594 0.91608405
vt 0.63790846 0.91308254
vt 0.63778317 0.91100854
vt 0.63763005 0.90919000
vt 0.63912421 0.90923107
vt 0.63987505 0.91043156
vt 0.63921380 0.91170591
vt 0.63929886 0.91300571
vt 0.63924611 0.91616905
vt 0.63913691 0.91857946
vt 0.63921899 0.92112958
vt 0.63918602 0.92254770
vt 0.63899130 0.92402464
vt 0.64050257 0.92396790
vt 0.64061856 0.92196488
vt 0.64204216 0.92243385
vt 0.64274126 0.92397642
vt 0.64074385 0.92552549
vt 0.64314377 0.92274386
vt 0.64562666 0.92282134
vt 0.64552534 0.92415470
vt 0.64315182 0.92528039
vt 0.64709669 0.92280209
vt 0.64779156 0.92407703
vt 0.64759141 0.92540032
vt 0.64557433 0.92538613
vt 0.64984125 0.92398661
vt 0.65097916 0.92505002
vt 0.65105784 0.92392439
vt 0.64856410 0.92278379
vt 0.64990705 0.92274094
vt 0.65106302 0.92267883
vt 0.64996839 0.92138380
vt 0.64856279 0.92138708
vt 0.64606971 0.92136544
vt 0.64440900 0.92132950
vt 0.65110534 0.92133605
vt 0.64318675 0.92129278
vt 0.64196646 0.91969407
vt 0.64051396 0.91828173
vt 0.64201707 0.91813475
vt 0.64323509 0.91968870
vt 0.64328641 0.91827542
vt 0.64448804 0.91967970
vt 0.64333844 0.91706795
vt 0.64457637 0.91823649
vt 0.64466935 0.91701972
vt 0.64586455 0.91823202
vt 0.64597321 0.91699767
vt 0.64201093 0.91569644
vt 0.64331281 0.91572112
vt 0.64490551 0.91574657
vt 0.64606994 0.91573793
vt 0.64348304 0.91164410
vt 0.64460677 0.91155452
vt 0.64625716 0.91376370
vt 0.64670730 0.91161388
vt 0.64761698 0.91329551
vt 0.64729667 0.91582280
vt 0.65006983 0.91278911
vt 0.65004867 0.91431355
vt 0.65001941 0.91569304
vt 0.64715129 0.91703856
vt 0.65000015 0.91706002
vt 0.64713067 0.91827357
vt 0.64643180 0.91969776
vt 0.64851952 0.91977686
vt 0.64999002 0.91983539
vt 0.64999312 0.91841233
vt 0.65123296 0.91843766
vt 0.64857727 0.91287398
vt 0.64858878 0.91140050
vt 0.65006983 0.91131788
vt 0.64451891 0.91016257
vt 0.64312631 0.91008788
vt 0.64319092 0.90869087
vt 0.64119828 0.90908569
vt 0.64125299 0.91164237
vt 0.64123315 0.91309309
vt 0.64057970 0.91560948
vt 0.64126700 0.90748829
vt 0.63902938 0.90730900
vt 0.64431638 0.90749353
vt 0.64443684 0.90880454
vt 0.64587283 0.90873629
vt 0.64608991 0.90754586
vt 0.64728296 0.90868652
vt 0.64734417 0.91004246
vt 0.64595747 0.91011012
vt 0.64859182 0.90997106
vt 0.65005296 0.90991622
vt 0.64839160 0.90758359
vt 0.64995050 0.90863609
vt 0.65092313 0.90751117
vt 0.65223366 0.90747124
vt 0.65479910 0.90888458
vt 0.65340406 0.90873635
vt 0.65208149 0.90864784
vt 0.65340781 0.90994227
vt 0.65480667 0.91004741
vt 0.65346664 0.91127855
vt 0.65214515 0.90988737
vt 0.65485299 0.91134459
vt 0.65488273 0.91276973
vt 0.65351707 0.91272521
vt 0.65356618 0.91419029
vt 0.65492165 0.91437310
vt 0.65498078 0.91701871
vt 0.65350062 0.91698819
vt 0.65350586 0.91840971
vt 0.65218866 0.91841078
vt 0.65235525 0.91431582
vt 0.65234786 0.91268963
vt 0.65134180 0.91270810
vt 0.65135831 0.91422850
vt 0.65133345 0.91563296
vt 0.65129226 0.91703290
vt 0.65116531 0.91985136
vt 0.65225530 0.91124463
vt 0.65221238 0.91983360
vt 0.65221155 0.92127085
vt 0.65233779 0.92387551
vt 0.65353882 0.92049503
vt 0.65365183 0.92384899
vt 0.65237290 0.92513055
vt 0.65109521 0.92641008
vt 0.65305799 0.92574137
vt 0.65580124 0.92503470
vt 0.65507489 0.92312950
vt 0.65652055 0.92305291
vt 0.65502101 0.92043096
vt 0.65650707 0.92003679
vt 0.65635180 0.91141605
vt 0.65638942 0.91280210
vt 0.65770286 0.91087049
vt 0.65630096 0.91015828
vt 0.65752774 0.90915298
vt 0.63625902 0.90551543
vt 0.65779060 0.91354883
vt 0.65640652 0.91422313
vt 0.65796649 0.91565198
vt 0.65642709 0.91631341
vt 0.65786844 0.91800314
vt 0.65787953 0.92214751
vt 0.65373588 0.92636526
vt 0.65580422 0.92633998
vt 0.65581369 0.92760873
vt 0.64914197 0.92643398
vt 0.64579362 0.92771924
vt 0.64047724 0.92642516
vt 0.64381397 0.92649263
vt 0.64063042 0.92768991
vt 0.64179373 0.92898744
vt 0.64040124 0.92901140
vt 0.63905728 0.93165499
vt 0.64039856 0.93164462
vt 0.63907897 0.93293011
vt 0.64041889 0.93291491
vt 0.63910407 0.93421149
vt 0.64044523 0.93419725
vt 0.63912266 0.93553048
vt 0.64046651 0.93552685
vt 0.63912642 0.93685830
vt 0.64047325 0.93686551
vt 0.64180851 0.93417197
vt 0.64182901 0.93551290
vt 0.64183772 0.93686491
vt 0.64183736 0.93822557
vt 0.64321268 0.93686253
vt 0.64322007 0.93822694
vt 0.64319885 0.93549925
vt 0.64454758 0.93549144
vt 0.64456660 0.93686193
vt 0.64457989 0.93823063
vt 0.64592147 0.93686199
vt 0.64593607 0.93823504
vt 0.64729077 0.93823475
vt 0.64745188 0.93683481
vt 0.64891440 0.93824023
vt 0.65057093 0.93684745
vt 0.65133947 0.93822110
vt 0.65320879 0.93684554
vt 0.65452951 0.93821818
vt 0.65520328 0.93684518
vt 0.66005719 0.93818569
vt 0.65717846 0.93281198
vt 0.65619433 0.93411940
vt 0.65351850 0.93279833
vt 0.65319705 0.93410760
vt 0.64957404 0.93410468
vt 0.64956188 0.93280506
vt 0.64721680 0.93218488
vt 0.64724618 0.93411696
vt 0.64740801 0.93552554
vt 0.64587426 0.93412519
vt 0.64590043 0.93548661
vt 0.64462155 0.93364203
vt 0.64317673 0.93414819
vt 0.64587539 0.93203706
vt 0.65188175 0.93547070
vt 0.64954799 0.93152082
vt 0.65216941 0.93082875
vt 0.65453684 0.93547517
vt 0.65818387 0.93547964
vt 0.65483606 0.93149853
vt 0.65847731 0.93149722
vt 0.64315337 0.93286127
vt 0.64177859 0.93240321
vt 0.64177287 0.93029267
vt 0.64039284 0.93032295
vt 0.64315033 0.92961353
vt 0.64313734 0.93159324
vt 0.64448762 0.93119025
vt 0.64448971 0.92894787
vt 0.64581966 0.92958081
vt 0.64714944 0.92769557
vt 0.64718771 0.92956090
vt 0.64920795 0.93018228
vt 0.64919198 0.92888284
vt 0.64916468 0.92767096
vt 0.65181613 0.92885739
vt 0.65301746 0.92763323
vt 0.65380567 0.92950225
vt 0.65582705 0.92885405
vt 0.65682578 0.92983007
vt 0.65782219 0.92695808
vt 0.63904452 0.93033785
vt 0.63904178 0.92902601
vt 0.63904589 0.92775232
vt 0.63906115 0.92647195
vt 0.64382744 0.92774111
vt 0.65128571 0.91125852
vt 0.65105969 0.90862787
vt 0.65119320 0.90988380
vt 0.64594328 0.93966711
vt 0.64458829 0.93965840
vt 0.64322329 0.93965393
vt 0.65563136 0.93965328
vt 0.65120435 0.93968475
vt 0.64906538 0.93968558
vt 0.64729148 0.93967313
vt 0.64183348 0.93965536
vt 0.64459747 0.94110584
vt 0.64595211 0.94111353
vt 0.64729434 0.94112229
vt 0.65121043 0.94112688
vt 0.65442151 0.94111651
vt 0.63776988 0.94109720
vt 0.64183939 0.94111019
vt 0.63911420 0.94111353
vt 0.64046723 0.94111586
vt 0.24765907 0.84838885
vt 0.24626666 0.84683180
vt 0.24880783 0.84654891
vt 0.24621007 0.85191780
vt 0.24762389 0.85096139
vt 0.24493556 0.84957045
vt 0.24367610 0.84764433
vt 0.24380194 0.84638226
vt 0.24498360 0.84769553
vt 0.24769321 0.84449625
vt 0.24635871 0.84309876
vt 0.24503577 0.84311378
vt 0.24628520 0.83955002
vt 0.24764913 0.83630770
vt 0.24629468 0.83634186
vt 0.24793494 0.83357936
vt 0.24627441 0.83428258
vt 0.24498694 0.83536458
vt 0.24623416 0.83232850
vt 0.24501896 0.83914471
vt 0.24366230 0.83915669
vt 0.24364826 0.83644593
vt 0.24367569 0.82849962
vt 0.24365661 0.83108288
vt 0.24364743 0.83372581
vt 0.24558912 0.83138490
vt 0.24893226 0.83437908
vt 0.25024116 0.83320796
vt 0.25027597 0.83550525
vt 0.25028658 0.83759463
vt 0.24904065 0.83825451
vt 0.25037053 0.84003866
vt 0.24896108 0.84113675
vt 0.24894285 0.83999473
vt 0.24905781 0.84310484
vt 0.25039548 0.84530765
vt 0.25112516 0.84383541
vt 0.25178897 0.84535557
vt 0.25107020 0.84679890
vt 0.25107342 0.84806675
vt 0.25312403 0.84690839
vt 0.25304055 0.84826535
vt 0.24901874 0.84981120
vt 0.24907123 0.84787232
vt 0.25078353 0.85047114
vt 0.26210546 0.84962362
vt 0.26505566 0.85015911
vt 0.26360404 0.84939104
vt 0.26361889 0.84831220
vt 0.26738510 0.84648305
vt 0.26684600 0.84073317
vt 0.26667321 0.83840472
vt 0.26666638 0.83703858
vt 0.26532957 0.83835071
vt 0.26534235 0.83696139
vt 0.26648968 0.83519197
vt 0.26525000 0.83497655
vt 0.26544183 0.84063148
vt 0.26526570 0.84242767
vt 0.26665717 0.84457701
vt 0.26533040 0.84813344
vt 0.26528102 0.84666574
vt 0.26528853 0.84389299
vt 0.26224443 0.84707099
vt 0.26370326 0.84548354
vt 0.26229927 0.84555763
vt 0.26366228 0.84271145
vt 0.26368570 0.84102851
vt 0.26227406 0.84106386
vt 0.26233688 0.83972108
vt 0.26107824 0.83822429
vt 0.26224759 0.83826232
vt 0.26101995 0.83680981
vt 0.26227567 0.83684725
vt 0.26231954 0.83547628
vt 0.26342413 0.83671319
vt 0.26100919 0.83545756
vt 0.26237315 0.83420366
vt 0.26007062 0.83427274
vt 0.25864908 0.83297944
vt 0.25719666 0.83285761
vt 0.25805452 0.83168477
vt 0.25874701 0.83415383
vt 0.25729680 0.83411646
vt 0.25565284 0.83284593
vt 0.25568295 0.83156049
vt 0.25737309 0.83029699
vt 0.25295296 0.83155757
vt 0.25228885 0.83019501
vt 0.25448677 0.83031511
vt 0.25164750 0.83156985
vt 0.25037745 0.83042198
vt 0.24754865 0.83102965
vt 0.24894276 0.82913411
vt 0.24689426 0.82881111
vt 0.24495985 0.82946014
vt 0.24561381 0.82588905
vt 0.24964435 0.82784730
vt 0.24757247 0.82717544
vt 0.24999432 0.82654393
vt 0.25241163 0.82787639
vt 0.25374791 0.82914734
vt 0.25080150 0.82917511
vt 0.25513634 0.82789862
vt 0.25310072 0.82657492
vt 0.25515270 0.82595396
vt 0.25916639 0.82921249
vt 0.25784990 0.82726413
vt 0.26050955 0.82794899
vt 0.26183277 0.82924086
vt 0.26181212 0.83043128
vt 0.26146150 0.83165735
vt 0.25981331 0.83038312
vt 0.26390642 0.83396041
vt 0.26175317 0.83294749
vt 0.26594624 0.83305091
vt 0.26489198 0.83173442
vt 0.26722106 0.83048916
vt 0.26455444 0.83047050
vt 0.26589397 0.82923245
vt 0.26353571 0.82859176
vt 0.26571810 0.82526904
vt 0.26587227 0.82259434
vt 0.26330274 0.81946588
vt 0.26387060 0.82328707
vt 0.26152563 0.82464856
vt 0.26151922 0.82262629
vt 0.25866309 0.82055283
vt 0.26147485 0.81984460
vt 0.25944850 0.81841552
vt 0.26074940 0.81697601
vt 0.25531340 0.81772500
vt 0.25516883 0.81987184
vt 0.25313240 0.81917167
vt 0.25348216 0.82197350
vt 0.25651726 0.82126182
vt 0.25785729 0.82334000
vt 0.25918686 0.82596415
vt 0.25516927 0.82402962
vt 0.25517675 0.82266557
vt 0.25312090 0.82467341
vt 0.25000891 0.82528442
vt 0.25107071 0.82334441
vt 0.25106889 0.82129091
vt 0.25104997 0.81990260
vt 0.25102764 0.81846887
vt 0.25135878 0.81702828
vt 0.24889135 0.81774610
vt 0.24895984 0.82060456
vt 0.24899036 0.82332361
vt 0.24760526 0.82331282
vt 0.24756254 0.82061249
vt 0.24621910 0.82196939
vt 0.24492642 0.82197767
vt 0.24546678 0.81850451
vt 0.24326932 0.81870770
vt 0.24367671 0.82589155
vt 0.24748409 0.81774759
vt 0.26320073 0.82626122
vt 0.25648031 0.82917506
vt 0.24759239 0.82525325
vt 0.26229712 0.84251088
vt 0.26231408 0.84397930
vt 0.26216912 0.84842509
vt 0.25966412 0.85077769
vt 0.26087818 0.85072523
vt 0.25695416 0.85082549
vt 0.25568110 0.85081804
vt 0.25434279 0.85079122
vt 0.25441402 0.84967566
vt 0.25573954 0.84972280
vt 0.25698775 0.84973806
vt 0.25449863 0.84835786
vt 0.25577801 0.84842402
vt 0.25578499 0.84701961
vt 0.25458473 0.84696019
vt 0.25295347 0.85072482
vt 0.25298789 0.84957457
vt 0.25159797 0.84936255
vt 0.25462580 0.84544480
vt 0.25574207 0.84552771
vt 0.25456807 0.84398085
vt 0.25321361 0.84539157
vt 0.25329250 0.84275645
vt 0.25176373 0.84250349
vt 0.25304192 0.84145635
vt 0.25167456 0.84133643
vt 0.25165731 0.84017873
vt 0.25156406 0.83876240
vt 0.25144854 0.83547300
vt 0.25146610 0.83414853
vt 0.25267604 0.83413297
vt 0.25155514 0.83286870
vt 0.25281861 0.83285427
vt 0.25426733 0.83155704
vt 0.25415155 0.83284640
vt 0.24892472 0.83163148
vt 0.24768348 0.83852768
vt 0.24904382 0.84525698
vt 0.25998023 0.83543181
vt 0.26115376 0.83962941
vt 0.25402722 0.83411855
vt 0.25563085 0.83410847
vt 0.25696558 0.84846354
vt 0.26088125 0.84968275
vt 0.25441879 0.84276938
vt 0.25563118 0.84407562
vt 0.25855246 0.84972101
vt 0.26121792 0.84112120
vt 0.26125547 0.84260815
vt 0.26114014 0.84710944
vt 0.26099542 0.84846491
vt 0.26123467 0.84563869
vt 0.25983492 0.84970409
vt 0.26126915 0.84407699
vt 0.25689813 0.84707701
vt 0.25287980 0.84034169
vt 0.25997609 0.84844011
vt 0.25861359 0.84844553
vt 0.25285372 0.83902031
vt 0.25854456 0.84714872
vt 0.25998014 0.84716898
vt 0.25272882 0.83557343
vt 0.25694782 0.84564430
vt 0.25261268 0.83711743
vt 0.25557515 0.84277648
vt 0.25431293 0.84153771
vt 0.25380948 0.84043932
vt 0.25994006 0.83691108
vt 0.25395572 0.83526689
vt 0.25657684 0.84417188
vt 0.25733936 0.83523750
vt 0.25558105 0.83518529
vt 0.25884509 0.83549386
vt 0.25518933 0.84194398
vt 0.25629050 0.84313965
vt 0.25928032 0.83656675
vt 0.26026219 0.84567666
vt 0.26011696 0.83823383
vt 0.26024902 0.83968002
vt 0.26034275 0.84416443
vt 0.25352624 0.83967167
vt 0.26032981 0.84120607
vt 0.26035696 0.84271711
vt 0.25786993 0.84614241
vt 0.74402535 0.83659220
vt 0.74444926 0.83660215
vt 0.74378991 0.83750671
vt 0.74465597 0.83760697
vt 0.74481130 0.83929372
vt 0.74382013 0.83938545
vt 0.74198115 0.83929366
vt 0.74280655 0.83792269
f 783/783 784/784 772/772
f 784/784 785/785 782/782
f 782/782 785/785 781/781
f 781/781 780/780 773/773
f 780/780 776/776 774/774
f 776/776 777/777 775/775
f 777/777 779/779 778/778
f 839/839 841/841 840/840
f 769/769 770/770 771/771
f 769/769 771/771 783/783
f 771/771 786/786 784/784
f 783/783 771/771 784/784
f 786/786 787/787 784/784
f 787/787 789/789 785/785
f 784/784 787/787 785/785
f 785/785 789/789 781/781
f 781/781 789/789 790/790
f 781/781 790/790 780/780
f 790/790 792/792 780/780
f 792/792 794/794 776/776
f 780/780 792/792 776/776
f 794/794 798/798 777/777
f 776/776 794/794 777/777
f 777/777 798/798 779/779
f 779/779 798/798 836/836
f 779/779 836/836 838/838
f 838/838 836/836 839/839
f 841/841 843/843 842/842
f 842/842 843/843 844/844
f 844/844 843/843 881/881
f 881/881 847/847 844/844
f 844/844 847/847 845/845
f 845/845 847/847 846/846
f 769/769 768/768 770/770
f 770/770 768/768 886/886
f 770/770 886/886 771/771
f 771/771 886/886 786/786
f 786/786 788/788 787/787
f 788/788 885/885 789/789
f 787/787 788/788 789/789
f 789/789 885/885 884/884
f 789/789 884/884 791/791
f 789/789 791/791 790/790
f 790/790 791/791 792/792
f 794/794 796/796 798/798
f 796/796 797/797 798/798
f 797/797 800/800 836/836
f 798/798 797/797 836/836
f 836/836 800/800 837/837
f 836/836 837/837 834/834
f 836/836 834/834 839/839
f 834/834 833/833 841/841
f 839/839 834/834 841/841
f 833/833 832/832 843/843
f 841/841 833/833 843/843
f 881/881 848/848 847/847
f 847/847 848/848 849/849
f 847/847 849/849 846/846
f 888/888 927/927 768/768
f 927/927 934/934 886/886
f 768/768 927/927 886/886
f 886/886 934/934 933/933
f 886/886 933/933 786/786
f 786/786 933/933 935/935
f 786/786 935/935 788/788
f 788/788 935/935 937/937
f 788/788 937/937 885/885
f 937/937 932/932 884/884
f 885/885 937/937 884/884
f 932/932 931/931 791/791
f 884/884 932/932 791/791
f 791/791 931/931 923/923
f 791/791 923/923 792/792
f 792/792 923/923 793/793
f 792/792 793/793 794/794
f 794/794 793/793 795/795
f 794/794 795/795 796/796
f 795/795 799/799 797/797
f 796/796 795/795 797/797
f 799/799 801/801 800/800
f 797/797 799/799 800/800
f 800/800 801/801 837/837
f 832/832 831/831 843/843
f 831/831 860/860 881/881
f 843/843 831/831 881/881
f 881/881 860/860 848/848
f 849/849 850/850 846/846
f 846/846 850/850 851/851
f 851/851 852/852 846/846
f 846/846 852/852 853/853
f 296/296 269/269 270/270
f 297/297 296/296 270/270
f 297/297 308/308 328/328
f 297/297 328/328 296/296
f 296/296 311/311 288/288
f 296/296 288/288 269/269
f 401/401 399/399 410/410
f 296/296 328/328 311/311
f 410/410 399/399 411/411
f 311/311 334/334 288/288
f 288/288 256/256 258/258
f 269/269 288/288 258/258
f 256/256 251/251 253/253
f 258/258 256/256 253/253
f 288/288 314/314 271/271
f 288/288 271/271 256/256
f 411/411 384/384 412/412
f 288/288 334/334 314/314
f 412/412 384/384 413/413
f 314/314 325/325 271/271
f 271/271 250/250 251/251
f 256/256 271/271 251/251
f 250/250 225/225 221/221
f 251/251 250/250 221/221
f 271/271 317/317 294/294
f 271/271 294/294 250/250
f 413/413 380/380 415/415
f 271/271 325/325 317/317
f 415/415 380/380 407/407
f 317/317 327/327 294/294
f 250/250 294/294 226/226
f 250/250 226/226 225/225
f 226/226 227/227 224/224
f 225/225 226/226 224/224
f 294/294 295/295 293/293
f 294/294 293/293 226/226
f 407/407 353/353 414/414
f 294/294 327/327 295/295
f 414/414 353/353 349/349
f 295/295 335/335 293/293
f 226/226 293/293 247/247
f 226/226 247/247 227/227
f 293/293 335/335 324/324
f 293/293 324/324 247/247
f 247/247 248/248 229/229
f 227/227 247/247 229/229
f 247/247 324/324 302/302
f 247/247 302/302 248/248
f 887/887 936/936 927/927
f 936/936 940/940 934/934
f 927/927 936/936 934/934
f 940/940 944/944 933/933
f 934/934 940/940 933/933
f 933/933 944/944 960/960
f 933/933 960/960 935/935
f 935/935 960/960 963/963
f 935/935 963/963 937/937
f 963/963 966/966 932/932
f 937/937 963/963 932/932
f 966/966 965/965 931/931
f 932/932 966/966 931/931
f 965/965 962/962 923/923
f 931/931 965/965 923/923
f 962/962 961/961 793/793
f 923/923 962/962 793/793
f 793/793 961/961 951/951
f 793/793 951/951 795/795
f 795/795 951/951 922/922
f 795/795 922/922 799/799
f 799/799 922/922 801/801
f 801/801 802/802 837/837
f 837/837 802/802 834/834
f 834/834 835/835 833/833
f 833/833 835/835 829/829
f 833/833 829/829 832/832
f 832/832 829/829 831/831
f 310/310 326/326 308/308
f 310/310 308/308 309/309
f 408/408 409/409 405/405
f 408/408 405/405 406/406
f 308/308 286/286 292/292
f 309/309 308/308 292/292
f 286/286 268/268 290/290
f 292/292 286/286 290/290
f 268/268 260/260 274/274
f 290/290 268/268 274/274
f 274/274 260/260 249/249
f 274/274 249/249 272/272
f 249/249 241/241 267/267
f 272/272 249/249 267/267
f 241/241 240/240 255/255
f 267/267 241/241 255/255
f 326/326 336/336 328/328
f 326/326 328/328 308/308
f 405/405 403/403 404/404
f 406/406 405/405 404/404
f 403/403 402/402 401/401
f 404/404 403/403 401/401
f 261/261 259/259 268/268
f 286/286 261/261 268/268
f 259/259 252/252 260/260
f 268/268 259/259 260/260
f 252/252 219/219 249/249
f 260/260 252/252 249/249
f 249/249 219/219 216/216
f 249/249 216/216 241/241
f 216/216 222/222 240/240
f 241/241 216/216 240/240
f 222/222 232/232 239/239
f 240/240 222/222 239/239
f 401/401 402/402 400/400
f 401/401 400/400 399/399
f 220/220 214/214 219/219
f 252/252 220/220 219/219
f 214/214 215/215 216/216
f 219/219 214/214 216/216
f 215/215 223/223 222/222
f 216/216 215/215 222/222
f 223/223 231/231 232/232
f 222/222 223/223 232/232
f 231/231 237/237 233/233
f 232/232 231/231 233/233
f 389/389 384/384 411/411
f 399/399 389/389 411/411
f 399/399 400/400 385/385
f 399/399 385/385 389/389
f 385/385 382/382 384/384
f 389/389 385/385 384/384
f 217/217 218/218 215/215
f 214/214 217/217 215/215
f 218/218 230/230 223/223
f 215/215 218/218 223/223
f 230/230 236/236 231/231
f 223/223 230/230 231/231
f 236/236 243/243 237/237
f 231/231 236/236 237/237
f 384/384 381/381 380/380
f 384/384 380/380 413/413
f 384/384 382/382 376/376
f 384/384 376/376 381/381
f 376/376 374/374 380/380
f 381/381 376/376 380/380
f 228/228 234/234 230/230
f 218/218 228/228 230/230
f 234/234 235/235 236/236
f 230/230 234/234 236/236
f 235/235 244/244 243/243
f 236/236 235/235 243/243
f 244/244 265/265 264/264
f 243/243 244/244 264/264
f 354/354 353/353 407/407
f 380/380 354/354 407/407
f 380/380 374/374 355/355
f 380/380 355/355 354/354
f 354/354 355/355 352/352
f 354/354 352/352 353/353
f 352/352 337/337 349/349
f 353/353 352/352 349/349
f 349/349 337/337 339/339
f 349/349 339/339 351/351
f 234/234 302/302 298/298
f 234/234 298/298 235/235
f 235/235 298/298 299/299
f 235/235 299/299 244/244
f 299/299 300/300 265/265
f 244/244 299/299 265/265
f 333/333 321/321 300/300
f 299/299 333/333 300/300
f 324/324 329/329 323/323
f 324/324 323/323 302/302
f 339/339 341/341 342/342
f 351/351 339/339 342/342
f 341/341 348/348 350/350
f 342/342 341/341 350/350
f 302/302 323/323 319/319
f 302/302 319/319 298/298
f 348/348 419/419 421/421
f 350/350 348/348 421/421
f 298/298 319/319 318/318
f 298/298 318/318 299/299
f 419/419 423/423 422/422
f 421/421 419/419 422/422
f 887/887 930/930 936/936
f 930/930 941/941 940/940
f 936/936 930/930 940/940
f 940/940 941/941 943/943
f 940/940 943/943 944/944
f 959/959 956/956 922/922
f 951/951 959/959 922/922
f 922/922 956/956 805/805
f 922/922 805/805 801/801
f 801/801 805/805 802/802
f 802/802 804/804 834/834
f 804/804 809/809 835/835
f 834/834 804/804 835/835
f 835/835 809/809 829/829
f 829/829 830/830 831/831
f 831/831 830/830 860/860
f 848/848 860/860 859/859
f 848/848 859/859 849/849
f 849/849 859/859 850/850
f 851/851 850/850 852/852
f 305/305 306/306 291/291
f 305/305 291/291 287/287
f 212/212 202/202 172/172
f 212/212 172/172 213/213
f 287/287 291/291 285/285
f 287/287 285/285 284/284
f 284/284 285/285 282/282
f 284/284 282/282 283/283
f 282/282 280/280 281/281
f 283/283 282/282 281/281
f 280/280 278/278 279/279
f 281/281 280/280 279/279
f 278/278 275/275 277/277
f 279/279 278/278 277/277
f 275/275 273/273 276/276
f 277/277 275/275 276/276
f 173/173 174/174 175/175
f 189/189 173/173 175/175
f 254/254 257/257 275/275
f 278/278 254/254 275/275
f 257/257 262/262 273/273
f 275/275 257/257 273/273
f 262/262 263/263 266/266
f 273/273 262/262 266/266
f 175/175 174/174 182/182
f 175/175 182/182 183/183
f 257/257 238/238 242/242
f 257/257 242/242 262/262
f 262/262 242/242 246/246
f 262/262 246/246 263/263
f 246/246 312/312 304/304
f 263/263 246/246 304/304
f 183/183 182/182 187/187
f 183/183 187/187 190/190
f 187/187 188/188 191/191
f 190/190 187/187 191/191
f 245/245 301/301 246/246
f 242/242 245/245 246/246
f 246/246 301/301 313/313
f 246/246 313/313 312/312
f 394/394 393/393 386/386
f 394/394 386/386 382/382
f 245/245 264/264 303/303
f 245/245 303/303 301/301
f 303/303 315/315 313/313
f 301/301 303/303 313/313
f 382/382 386/386 377/377
f 382/382 377/377 376/376
f 377/377 375/375 374/374
f 376/376 377/377 374/374
f 374/374 375/375 368/368
f 374/374 368/368 361/361
f 303/303 307/307 316/316
f 303/303 316/316 315/315
f 361/361 368/368 357/357
f 361/361 357/357 352/352
f 352/352 357/357 340/340
f 352/352 340/340 337/337
f 337/337 340/340 338/338
f 337/337 338/338 339/339
f 65/65 61/61 66/66
f 67/67 65/65 66/66
f 307/307 321/321 320/320
f 307/307 320/320 316/316
f 61/61 33/33 32/32
f 66/66 61/61 32/32
f 338/338 343/343 341/341
f 339/339 338/338 341/341
f 343/343 347/347 348/348
f 341/341 343/343 348/348
f 348/348 347/347 418/418
f 348/348 418/418 419/419
f 76/76 74/74 72/72
f 419/419 418/418 423/423
f 889/889 894/894 930/930
f 930/930 894/894 926/926
f 930/930 926/926 941/941
f 926/926 938/938 943/943
f 941/941 926/926 943/943
f 943/943 938/938 946/946
f 943/943 946/946 967/967
f 954/954 806/806 805/805
f 956/956 954/954 805/805
f 805/805 806/806 803/803
f 805/805 803/803 802/802
f 802/802 803/803 804/804
f 809/809 882/882 829/829
f 829/829 882/882 830/830
f 859/859 858/858 850/850
f 850/850 854/854 852/852
f 200/200 106/106 201/201
f 203/203 200/200 201/201
f 322/322 330/330 331/331
f 332/332 322/322 331/331
f 172/172 111/111 99/99
f 172/172 99/99 171/171
f 29/29 14/14 15/15
f 58/58 29/29 15/15
f 99/99 95/95 170/170
f 171/171 99/99 170/170
f 170/170 95/95 117/117
f 170/170 117/117 188/188
f 188/188 117/117 160/160
f 393/393 390/390 386/386
f 390/390 391/391 383/383
f 386/386 390/390 383/383
f 383/383 391/391 378/378
f 383/383 378/378 375/375
f 378/378 379/379 368/368
f 375/375 378/378 368/368
f 368/368 379/379 364/364
f 368/368 364/364 357/357
f 364/364 365/365 340/340
f 357/357 364/364 340/340
f 49/49 34/34 33/33
f 61/61 49/49 33/33
f 344/344 343/343 338/338
f 340/340 344/344 338/338
f 340/340 365/365 356/356
f 340/340 356/356 344/344
f 344/344 356/356 345/345
f 344/344 345/345 343/343
f 343/343 345/345 346/346
f 343/343 346/346 347/347
f 347/347 346/346 367/367
f 347/347 367/367 418/418
f 77/77 70/70 74/74
f 76/76 77/77 74/74
f 65/65 74/74 64/64
f 65/65 64/64 61/61
f 70/70 63/63 64/64
f 74/74 70/70 64/64
f 889/889 893/893 894/894
f 894/894 893/893 896/896
f 894/894 896/896 926/926
f 926/926 896/896 897/897
f 926/926 897/897 938/938
f 897/897 903/903 946/946
f 938/938 897/897 946/946
f 946/946 903/903 929/929
f 946/946 929/929 953/953
f 929/929 948/948 958/958
f 953/953 929/929 958/958
f 954/954 955/955 925/925
f 954/954 925/925 806/806
f 806/806 925/925 807/807
f 806/806 807/807 803/803
f 803/803 807/807 808/808
f 803/803 808/808 804/804
f 808/808 812/812 809/809
f 804/804 808/808 809/809
f 809/809 812/812 882/882
f 882/882 826/826 830/830
f 826/826 828/828 830/830
f 830/830 828/828 860/860
f 860/860 828/828 861/861
f 860/860 861/861 859/859
f 859/859 861/861 862/862
f 859/859 862/862 858/858
f 858/858 855/855 850/850
f 850/850 855/855 854/854
f 109/109 169/169 105/105
f 109/109 105/105 108/108
f 105/105 101/101 104/104
f 108/108 105/105 104/104
f 101/101 79/79 100/100
f 104/104 101/101 100/100
f 90/90 89/89 91/91
f 93/93 90/90 91/91
f 89/89 86/86 88/88
f 91/91 89/89 88/88
f 88/88 86/86 87/87
f 88/88 87/87 156/156
f 87/87 85/85 96/96
f 156/156 87/87 96/96
f 96/96 85/85 114/114
f 387/387 388/388 365/365
f 46/46 37/37 34/34
f 49/49 46/46 34/34
f 365/365 388/388 363/363
f 365/365 363/363 356/356
f 356/356 363/363 362/362
f 356/356 362/362 345/345
f 345/345 362/362 358/358
f 345/345 358/358 346/346
f 346/346 358/358 359/359
f 346/346 359/359 367/367
f 359/359 417/417 420/420
f 367/367 359/359 420/420
f 71/71 62/62 63/63
f 70/70 71/71 63/63
f 890/890 892/892 893/893
f 893/893 892/892 895/895
f 893/893 895/895 896/896
f 895/895 898/898 897/897
f 896/896 895/895 897/897
f 898/898 902/902 903/903
f 897/897 898/898 903/903
f 903/903 902/902 904/904
f 903/903 904/904 929/929
f 929/929 904/904 928/928
f 929/929 928/928 948/948
f 928/928 949/949 957/957
f 948/948 928/928 957/957
f 952/952 924/924 925/925
f 955/955 952/952 925/925
f 925/925 924/924 918/918
f 925/925 918/918 807/807
f 807/807 918/918 917/917
f 807/807 917/917 808/808
f 808/808 917/917 812/812
f 812/812 824/824 882/882
f 882/882 824/824 826/826
f 862/862 857/857 858/858
f 858/858 857/857 855/855
f 122/122 195/195 116/116
f 122/122 116/116 119/119
f 116/116 115/115 102/102
f 119/119 116/116 102/102
f 102/102 115/115 112/112
f 102/102 112/112 82/82
f 82/82 112/112 113/113
f 82/82 113/113 80/80
f 113/113 118/118 81/81
f 80/80 113/113 81/81
f 118/118 121/121 84/84
f 81/81 118/118 84/84
f 121/121 155/155 97/97
f 84/84 121/121 97/97
f 43/43 38/38 37/37
f 46/46 43/43 37/37
f 97/97 155/155 181/181
f 392/392 373/373 362/362
f 373/373 369/369 358/358
f 362/362 373/373 358/358
f 358/358 369/369 360/360
f 358/358 360/360 359/359
f 359/359 360/360 366/366
f 359/359 366/366 417/417
f 75/75 68/68 62/62
f 71/71 75/75 62/62
f 891/891 900/900 892/892
f 892/892 900/900 764/764
f 892/892 764/764 895/895
f 764/764 763/763 898/898
f 895/895 764/764 898/898
f 763/763 905/905 902/902
f 898/898 763/763 902/902
f 905/905 906/906 904/904
f 902/902 905/905 904/904
f 904/904 906/906 928/928
f 928/928 906/906 908/908
f 928/928 908/908 949/949
f 908/908 939/939 950/950
f 949/949 908/908 950/950
f 939/939 942/942 964/964
f 950/950 939/939 964/964
f 945/945 914/914 924/924
f 952/952 945/945 924/924
f 924/924 914/914 916/916
f 924/924 916/916 918/918
f 916/916 810/810 917/917
f 918/918 916/916 917/917
f 810/810 811/811 812/812
f 917/917 810/810 812/812
f 812/812 811/811 824/824
f 824/824 823/823 826/826
f 826/826 823/823 827/827
f 826/826 827/827 828/828
f 827/827 863/863 828/828
f 828/828 863/863 861/861
f 861/861 863/863 857/857
f 861/861 857/857 862/862
f 857/857 856/856 855/855
f 855/855 856/856 854/854
f 128/128 129/129 126/126
f 127/127 128/128 126/126
f 130/130 131/131 123/123
f 124/124 130/130 123/123
f 131/131 134/134 112/112
f 123/123 131/131 112/112
f 134/134 138/138 113/113
f 112/112 134/134 113/113
f 138/138 145/145 139/139
f 113/113 138/138 139/139
f 145/145 146/146 147/147
f 139/139 145/145 147/147
f 146/146 150/150 151/151
f 147/147 146/146 151/151
f 43/43 50/50 40/40
f 43/43 40/40 38/38
f 151/151 150/150 154/154
f 151/151 154/154 196/196
f 371/371 372/372 360/360
f 369/369 371/371 360/360
f 360/360 372/372 370/370
f 360/360 370/370 366/366
f 366/366 370/370 398/398
f 75/75 69/69 68/68
f 899/899 901/901 900/900
f 900/900 901/901 762/762
f 900/900 762/762 764/764
f 762/762 761/761 763/763
f 764/764 762/762 763/763
f 761/761 760/760 905/905
f 763/763 761/761 905/905
f 760/760 759/759 906/906
f 905/905 760/760 906/906
f 759/759 907/907 906/906
f 907/907 909/909 908/908
f 906/906 907/907 908/908
f 908/908 909/909 910/910
f 908/908 910/910 939/939
f 910/910 911/911 942/942
f 939/939 910/910 942/942
f 911/911 912/912 947/947
f 942/942 911/911 947/947
f 947/947 912/912 945/945
f 912/912 913/913 914/914
f 945/945 912/912 914/914
f 913/913 915/915 916/916
f 914/914 913/913 916/916
f 915/915 813/813 810/810
f 916/916 915/915 810/810
f 810/810 813/813 811/811
f 811/811 825/825 824/824
f 824/824 825/825 823/823
f 823/823 822/822 827/827
f 822/822 864/864 863/863
f 827/827 822/822 863/863
f 864/864 865/865 863/863
f 863/863 865/865 857/857
f 865/865 866/866 857/857
f 866/866 867/867 856/856
f 857/857 866/866 856/856
f 856/856 867/867 868/868
f 856/856 868/868 869/869
f 179/179 176/176 166/166
f 180/180 179/179 166/166
f 166/166 176/176 164/164
f 166/166 164/164 163/163
f 137/137 162/162 141/141
f 140/140 142/142 143/143
f 140/140 143/143 144/144
f 143/143 152/152 148/148
f 144/144 143/143 148/148
f 152/152 158/158 153/153
f 148/148 152/152 153/153
f 210/210 167/167 178/178
f 50/50 41/41 40/40
f 153/153 158/158 177/177
f 395/395 396/396 370/370
f 370/370 396/396 397/397
f 370/370 397/397 398/398
f 761/761 758/758 760/760
f 760/760 758/758 759/759
f 909/909 754/754 910/910
f 910/910 754/754 752/752
f 910/910 752/752 911/911
f 911/911 752/752 912/912
f 912/912 752/752 751/751
f 751/751 750/750 913/913
f 912/912 751/751 913/913
f 913/913 750/750 915/915
f 750/750 814/814 813/813
f 915/915 750/750 813/813
f 813/813 814/814 811/811
f 811/811 814/814 825/825
f 825/825 820/820 823/823
f 823/823 820/820 822/822
f 767/767 765/765 901/901
f 765/765 766/766 762/762
f 901/901 765/765 762/762
f 762/762 766/766 725/725
f 762/762 725/725 761/761
f 761/761 725/725 921/921
f 761/761 921/921 758/758
f 758/758 921/921 757/757
f 758/758 757/757 759/759
f 759/759 757/757 907/907
f 907/907 757/757 755/755
f 907/907 755/755 909/909
f 755/755 756/756 754/754
f 909/909 755/755 754/754
f 754/754 756/756 753/753
f 754/754 753/753 752/752
f 752/752 753/753 749/749
f 752/752 749/749 751/751
f 751/751 749/749 750/750
f 749/749 738/738 750/750
f 738/738 919/919 814/814
f 750/750 738/738 814/814
f 814/814 816/816 825/825
f 825/825 816/816 820/820
f 864/864 872/872 865/865
f 865/865 872/872 871/871
f 865/865 871/871 866/866
f 866/866 871/871 867/867
f 867/867 871/871 870/870
f 867/867 870/870 868/868
f 765/765 727/727 723/723
f 765/765 723/723 766/766
f 766/766 723/723 725/725
f 725/725 732/732 921/921
f 921/921 732/732 757/757
f 757/757 732/732 755/755
f 756/756 920/920 753/753
f 920/920 736/736 753/753
f 753/753 736/736 749/749
f 736/736 738/738 749/749
f 738/738 815/815 919/919
f 919/919 815/815 814/814
f 815/815 817/817 816/816
f 814/814 815/815 816/816
f 817/817 821/821 820/820
f 816/816 817/817 820/820
f 820/820 821/821 822/822
f 821/821 883/883 864/864
f 822/822 821/821 864/864
f 883/883 873/873 872/872
f 864/864 883/883 872/872
f 872/872 873/873 874/874
f 872/872 874/874 871/871
f 871/871 874/874 880/880
f 727/727 724/724 723/723
f 723/723 724/724 725/725
f 725/725 724/724 732/732
f 732/732 724/724 733/733
f 732/732 733/733 755/755
f 733/733 735/735 755/755
f 755/755 735/735 756/756
f 756/756 735/735 920/920
f 735/735 737/737 736/736
f 920/920 735/735 736/736
f 737/737 739/739 738/738
f 736/736 737/737 738/738
f 739/739 741/741 738/738
f 738/738 741/741 815/815
f 741/741 748/748 815/815
f 815/815 748/748 817/817
f 817/817 819/819 821/821
f 821/821 819/819 883/883
f 883/883 819/819 875/875
f 883/883 875/875 873/873
f 873/873 875/875 874/874
f 875/875 877/877 880/880
f 874/874 875/875 880/880
f 726/726 728/728 724/724
f 728/728 731/731 724/724
f 731/731 730/730 724/724
f 724/724 730/730 734/734
f 724/724 734/734 733/733
f 733/733 734/734 735/735
f 735/735 734/734 742/742
f 735/735 742/742 740/740
f 735/735 740/740 737/737
f 737/737 740/740 739/739
f 740/740 748/748 741/741
f 739/739 740/740 741/741
f 748/748 818/818 817/817
f 817/817 818/818 819/819
f 819/819 876/876 875/875
f 875/875 876/876 877/877
f 728/728 729/729 731/731
f 734/734 743/743 742/742
f 742/742 744/744 740/740
f 740/740 747/747 748/748
f 748/748 746/746 818/818
f 818/818 745/745 819/819
f 819/819 879/879 876/876
f 876/876 878/878 877/877
f 607/607 606/606 604/604
f 604/604 606/606 605/605
f 605/605 610/610 611/611
f 611/611 612/612 613/613
f 613/613 614/614 603/603
f 603/603 615/615 601/601
f 601/601 615/615 599/599
f 599/599 697/697 617/617
f 617/617 697/697 618/618
f 618/618 697/697 696/696
f 618/618 696/696 695/695
f 696/696 677/677 676/676
f 567/567 608/608 607/607
f 567/567 607/607 571/571
f 571/571 607/607 604/604
f 571/571 604/604 574/574
f 574/574 604/604 605/605
f 574/574 605/605 575/575
f 575/575 605/605 611/611
f 575/575 611/611 578/578
f 611/611 613/613 578/578
f 578/578 613/613 579/579
f 613/613 603/603 579/579
f 579/579 603/603 602/602
f 602/602 603/603 601/601
f 602/602 601/601 600/600
f 600/600 601/601 599/599
f 676/676 657/657 659/659
f 659/659 657/657 658/658
f 658/658 675/675 674/674
f 674/674 675/675 655/655
f 655/655 656/656 654/654
f 654/654 656/656 709/709
f 566/566 567/567 568/568
f 567/567 571/571 570/570
f 568/568 567/567 570/570
f 571/571 574/574 572/572
f 570/570 571/571 572/572
f 572/572 574/574 575/575
f 572/572 575/575 576/576
f 575/575 578/578 577/577
f 576/576 575/575 577/577
f 577/577 578/578 579/579
f 577/577 579/579 580/580
f 580/580 579/579 581/581
f 579/579 602/602 594/594
f 581/581 579/579 594/594
f 594/594 602/602 600/600
f 594/594 600/600 595/595
f 595/595 600/600 599/599
f 595/595 599/599 598/598
f 599/599 617/617 616/616
f 598/598 599/599 616/616
f 616/616 617/617 618/618
f 616/616 618/618 693/693
f 693/693 618/618 695/695
f 693/693 695/695 694/694
f 694/694 695/695 696/696
f 694/694 696/696 676/676
f 659/659 658/658 660/660
f 660/660 658/658 674/674
f 674/674 655/655 653/653
f 653/653 655/655 654/654
f 566/566 568/568 569/569
f 568/568 570/570 573/573
f 569/569 568/568 573/573
f 573/573 570/570 572/572
f 573/573 572/572 590/590
f 572/572 576/576 584/584
f 590/590 572/572 584/584
f 584/584 576/576 577/577
f 584/584 577/577 583/583
f 583/583 577/577 580/580
f 583/583 580/580 582/582
f 580/580 581/581 582/582
f 581/581 594/594 591/591
f 582/582 581/581 591/591
f 591/591 594/594 592/592
f 594/594 595/595 593/593
f 592/592 594/594 593/593
f 595/595 598/598 596/596
f 593/593 595/595 596/596
f 598/598 616/616 693/693
f 693/693 694/694 692/692
f 692/692 694/694 673/673
f 694/694 676/676 673/673
f 673/673 676/676 659/659
f 660/660 674/674 671/671
f 671/671 674/674 653/653
f 653/653 654/654 652/652
f 654/654 709/709 710/710
f 652/652 654/654 710/710
f 710/710 709/709 718/718
f 308/308 297/297 270/270
f 308/308 270/270 286/286
f 270/270 269/269 261/261
f 286/286 270/270 261/261
f 261/261 269/269 258/258
f 261/261 258/258 259/259
f 259/259 258/258 253/253
f 259/259 253/253 252/252
f 253/253 251/251 220/220
f 252/252 253/253 220/220
f 220/220 251/251 221/221
f 220/220 221/221 214/214
f 221/221 225/225 217/217
f 214/214 221/221 217/217
f 217/217 225/225 224/224
f 217/217 224/224 218/218
f 224/224 227/227 228/228
f 218/218 224/224 228/228
f 228/228 227/227 229/229
f 228/228 229/229 234/234
f 234/234 229/229 248/248
f 234/234 248/248 302/302
f 565/565 569/569 704/704
f 569/569 573/573 705/705
f 704/704 569/569 705/705
f 573/573 590/590 703/703
f 705/705 573/573 703/703
f 703/703 590/590 584/584
f 703/703 584/584 585/585
f 585/585 584/584 583/583
f 585/585 583/583 586/586
f 586/586 583/583 587/587
f 587/587 583/583 582/582
f 587/587 582/582 588/588
f 588/588 582/582 541/541
f 582/582 591/591 589/589
f 541/541 582/582 589/589
f 589/589 591/591 592/592
f 589/589 592/592 508/508
f 592/592 593/593 503/503
f 508/508 592/592 503/503
f 503/503 593/593 500/500
f 593/593 596/596 499/499
f 500/500 593/593 499/499
f 596/596 598/598 597/597
f 499/499 596/596 597/597
f 597/597 598/598 693/693
f 673/673 659/659 662/662
f 672/672 673/673 662/662
f 659/659 660/660 661/661
f 662/662 659/659 661/661
f 661/661 660/660 671/671
f 671/671 653/653 651/651
f 651/651 653/653 652/652
f 969/969 971/971 970/970
f 968/968 969/969 970/970
f 970/970 971/971 972/972
f 970/970 972/972 973/973
f 306/306 292/292 290/290
f 306/306 290/290 291/291
f 291/291 290/290 274/274
f 291/291 274/274 285/285
f 274/274 272/272 282/282
f 285/285 274/274 282/282
f 282/282 272/272 267/267
f 282/282 267/267 280/280
f 280/280 267/267 255/255
f 280/280 255/255 278/278
f 255/255 240/240 254/254
f 278/278 255/255 254/254
f 254/254 240/240 239/239
f 254/254 239/239 257/257
f 239/239 232/232 238/238
f 257/257 239/239 238/238
f 238/238 232/232 233/233
f 238/238 233/233 242/242
f 233/233 237/237 245/245
f 242/242 233/233 245/245
f 237/237 243/243 264/264
f 245/245 237/237 264/264
f 264/264 265/265 307/307
f 303/303 264/264 307/307
f 307/307 265/265 300/300
f 307/307 300/300 321/321
f 333/333 299/299 318/318
f 67/67 73/73 72/72
f 565/565 704/704 564/564
f 704/704 705/705 562/562
f 564/564 704/704 562/562
f 562/562 705/705 703/703
f 562/562 703/703 544/544
f 544/544 703/703 585/585
f 544/544 585/585 531/531
f 531/531 585/585 586/586
f 531/531 586/586 532/532
f 532/532 586/586 587/587
f 532/532 587/587 533/533
f 533/533 587/587 588/588
f 533/533 588/588 535/535
f 588/588 541/541 540/540
f 535/535 588/588 540/540
f 541/541 589/589 539/539
f 540/540 541/541 539/539
f 539/539 589/589 508/508
f 539/539 508/508 504/504
f 504/504 508/508 503/503
f 504/504 503/503 502/502
f 503/503 500/500 498/498
f 502/502 503/503 498/498
f 498/498 500/500 499/499
f 499/499 597/597 619/619
f 619/619 597/597 693/693
f 619/619 693/693 691/691
f 691/691 693/693 692/692
f 691/691 692/692 690/690
f 690/690 692/692 673/673
f 690/690 673/673 689/689
f 689/689 673/673 672/672
f 661/661 671/671 665/665
f 665/665 671/671 651/651
f 651/651 652/652 650/650
f 650/650 652/652 710/710
f 650/650 710/710 711/711
f 711/711 710/710 717/717
f 970/970 973/973 974/974
f 975/975 970/970 974/974
f 276/276 273/273 322/322
f 332/332 276/276 322/322
f 322/322 273/273 266/266
f 322/322 266/266 330/330
f 185/185 189/189 175/175
f 184/184 185/185 175/175
f 266/266 263/263 289/289
f 330/330 266/266 289/289
f 289/289 263/263 304/304
f 29/29 28/28 14/14
f 184/184 175/175 183/183
f 186/186 184/184 183/183
f 28/28 36/36 13/13
f 14/14 28/28 13/13
f 13/13 36/36 39/39
f 13/13 39/39 19/19
f 206/206 190/190 191/191
f 385/385 394/394 382/382
f 19/19 39/39 35/35
f 19/19 35/35 21/21
f 21/21 35/35 31/31
f 21/21 31/31 23/23
f 355/355 374/374 361/361
f 355/355 361/361 352/352
f 23/23 31/31 32/32
f 23/23 32/32 33/33
f 65/65 67/67 72/72
f 65/65 72/72 74/74
f 563/563 564/564 562/562
f 563/563 562/562 561/561
f 561/561 562/562 544/544
f 561/561 544/544 543/543
f 543/543 544/544 531/531
f 543/543 531/531 542/542
f 532/532 533/533 530/530
f 531/531 532/532 530/530
f 533/533 535/535 534/534
f 530/530 533/533 534/534
f 535/535 540/540 536/536
f 534/534 535/535 536/536
f 540/540 539/539 538/538
f 536/536 540/540 538/538
f 539/539 504/504 505/505
f 538/538 539/539 505/505
f 505/505 504/504 502/502
f 505/505 502/502 501/501
f 501/501 502/502 498/498
f 501/501 498/498 495/495
f 498/498 499/499 496/496
f 495/495 498/498 496/496
f 496/496 499/499 619/619
f 665/665 651/651 649/649
f 649/649 651/651 650/650
f 202/202 203/203 201/201
f 172/172 202/202 201/201
f 111/111 172/172 201/201
f 111/111 201/201 106/106
f 57/57 58/58 56/56
f 55/55 57/57 56/56
f 56/56 58/58 15/15
f 56/56 15/15 18/18
f 173/173 172/172 171/171
f 174/174 173/173 171/171
f 15/15 14/14 10/10
f 18/18 15/15 10/10
f 174/174 171/171 170/170
f 182/182 174/174 170/170
f 10/10 14/14 13/13
f 10/10 13/13 8/8
f 187/187 182/182 170/170
f 187/187 170/170 188/188
f 13/13 19/19 1/1
f 8/8 13/13 1/1
f 1/1 19/19 21/21
f 1/1 21/21 2/2
f 377/377 386/386 383/383
f 377/377 383/383 375/375
f 2/2 21/21 23/23
f 2/2 23/23 22/22
f 23/23 33/33 34/34
f 22/22 23/23 34/34
f 49/49 61/61 64/64
f 49/49 64/64 63/63
f 558/558 563/563 561/561
f 558/558 561/561 559/559
f 559/559 561/561 543/543
f 559/559 543/543 528/528
f 528/528 543/543 542/542
f 528/528 542/542 529/529
f 542/542 531/531 529/529
f 529/529 531/531 530/530
f 536/536 538/538 537/537
f 538/538 505/505 506/506
f 537/537 538/538 506/506
f 505/505 501/501 494/494
f 506/506 505/505 494/494
f 494/494 501/501 495/495
f 496/496 619/619 691/691
f 496/496 691/691 687/687
f 687/687 691/691 690/690
f 687/687 690/690 688/688
f 688/688 690/690 689/689
f 689/689 672/672 663/663
f 688/688 689/689 663/663
f 663/663 672/672 662/662
f 663/663 662/662 661/661
f 663/663 661/661 664/664
f 664/664 661/661 665/665
f 649/649 650/650 648/648
f 650/650 711/711 712/712
f 648/648 650/650 712/712
f 712/712 711/711 716/716
f 106/106 200/200 110/110
f 106/106 110/110 107/107
f 110/110 109/109 108/108
f 107/107 110/110 108/108
f 55/55 56/56 51/51
f 54/54 55/55 51/51
f 51/51 56/56 18/18
f 51/51 18/18 16/16
f 99/99 111/111 106/106
f 99/99 106/106 98/98
f 106/106 107/107 103/103
f 98/98 106/106 103/103
f 107/107 108/108 104/104
f 103/103 107/107 104/104
f 18/18 10/10 9/9
f 16/16 18/18 9/9
f 95/95 99/99 98/98
f 95/95 98/98 94/94
f 94/94 98/98 103/103
f 94/94 103/103 93/93
f 103/103 104/104 100/100
f 93/93 103/103 100/100
f 90/90 93/93 100/100
f 90/90 100/100 79/79
f 9/9 10/10 8/8
f 9/9 8/8 6/6
f 95/95 94/94 92/92
f 117/117 95/95 92/92
f 92/92 94/94 93/93
f 92/92 93/93 91/91
f 6/6 8/8 1/1
f 6/6 1/1 4/4
f 117/117 92/92 120/120
f 160/160 117/117 120/120
f 92/92 91/91 88/88
f 120/120 92/92 88/88
f 1/1 2/2 3/3
f 4/4 1/1 3/3
f 120/120 88/88 156/156
f 159/159 120/120 156/156
f 3/3 2/2 22/22
f 3/3 22/22 7/7
f 364/364 379/379 387/387
f 364/364 387/387 365/365
f 7/7 22/22 34/34
f 7/7 34/34 37/37
f 46/46 49/49 63/63
f 46/46 63/63 62/62
f 557/557 558/558 556/556
f 556/556 558/558 559/559
f 556/556 559/559 560/560
f 560/560 559/559 528/528
f 528/528 529/529 527/527
f 527/527 529/529 530/530
f 527/527 530/530 524/524
f 524/524 530/530 534/534
f 524/524 534/534 520/520
f 520/520 534/534 536/536
f 520/520 536/536 519/519
f 519/519 536/536 537/537
f 506/506 494/494 491/491
f 494/494 495/495 492/492
f 491/491 494/494 492/492
f 492/492 495/495 496/496
f 492/492 496/496 497/497
f 496/496 687/687 620/620
f 497/497 496/496 620/620
f 687/687 688/688 686/686
f 620/620 687/687 686/686
f 688/688 663/663 670/670
f 686/686 688/688 670/670
f 670/670 663/663 664/664
f 670/670 664/664 666/666
f 666/666 664/664 665/665
f 666/666 665/665 667/667
f 665/665 649/649 646/646
f 667/667 665/665 646/646
f 646/646 649/649 648/648
f 646/646 648/648 647/647
f 647/647 648/648 712/712
f 647/647 712/712 706/706
f 706/706 712/712 715/715
f 105/105 169/169 122/122
f 105/105 122/122 119/119
f 53/53 54/54 51/51
f 53/53 51/51 52/52
f 52/52 51/51 16/16
f 52/52 16/16 17/17
f 105/105 119/119 102/102
f 101/101 105/105 102/102
f 16/16 9/9 11/11
f 17/17 16/16 11/11
f 101/101 102/102 82/82
f 79/79 101/101 82/82
f 11/11 9/9 6/6
f 11/11 6/6 12/12
f 90/90 79/79 78/78
f 89/89 90/90 78/78
f 79/79 82/82 80/80
f 78/78 79/79 80/80
f 12/12 6/6 4/4
f 89/89 78/78 83/83
f 86/86 89/89 83/83
f 78/78 80/80 81/81
f 83/83 78/78 81/81
f 4/4 3/3 5/5
f 86/86 83/83 85/85
f 87/87 86/86 85/85
f 83/83 81/81 84/84
f 85/85 83/83 84/84
f 5/5 3/3 7/7
f 85/85 84/84 97/97
f 114/114 85/85 97/97
f 7/7 37/37 38/38
f 363/363 388/388 392/392
f 363/363 392/392 362/362
f 43/43 46/46 62/62
f 43/43 62/62 68/68
f 554/554 556/556 555/555
f 555/555 556/556 560/560
f 555/555 560/560 545/545
f 545/545 560/560 528/528
f 545/545 528/528 526/526
f 526/526 528/528 527/527
f 526/526 527/527 523/523
f 523/523 527/527 524/524
f 523/523 524/524 520/520
f 523/523 520/520 518/518
f 518/518 520/520 519/519
f 518/518 519/519 517/517
f 519/519 537/537 515/515
f 517/517 519/519 515/515
f 537/537 506/506 507/507
f 515/515 537/537 507/507
f 507/507 506/506 491/491
f 622/622 497/497 620/620
f 622/622 620/620 702/702
f 620/620 686/686 685/685
f 702/702 620/620 685/685
f 685/685 686/686 684/684
f 684/684 686/686 670/670
f 684/684 670/670 668/668
f 668/668 670/670 666/666
f 666/666 667/667 643/643
f 668/668 666/666 643/643
f 667/667 646/646 644/644
f 643/643 667/667 644/644
f 646/646 647/647 645/645
f 644/644 646/646 645/645
f 645/645 647/647 706/706
f 645/645 706/706 707/707
f 707/707 706/706 715/715
f 116/116 195/195 125/125
f 116/116 125/125 124/124
f 125/125 127/127 126/126
f 124/124 125/125 126/126
f 130/130 124/124 126/126
f 130/130 126/126 129/129
f 59/59 53/53 52/52
f 59/59 52/52 60/60
f 52/52 17/17 20/20
f 60/60 52/52 20/20
f 116/116 124/124 123/123
f 115/115 116/116 123/123
f 20/20 17/17 11/11
f 20/20 11/11 30/30
f 115/115 123/123 112/112
f 11/11 12/12 27/27
f 30/30 11/11 27/27
f 27/27 12/12 4/4
f 27/27 4/4 25/25
f 118/118 113/113 139/139
f 4/4 5/5 24/24
f 25/25 4/4 24/24
f 118/118 139/139 147/147
f 121/121 118/118 147/147
f 5/5 7/7 26/26
f 24/24 5/5 26/26
f 121/121 147/147 151/151
f 155/155 121/121 151/151
f 7/7 38/38 40/40
f 26/26 7/7 40/40
f 181/181 155/155 151/151
f 181/181 151/151 196/196
f 43/43 68/68 69/69
f 50/50 43/43 69/69
f 554/554 555/555 547/547
f 547/547 555/555 545/545
f 547/547 545/545 546/546
f 546/546 545/545 526/526
f 546/546 526/526 525/525
f 525/525 526/526 523/523
f 525/525 523/523 522/522
f 522/522 523/523 518/518
f 522/522 518/518 516/516
f 516/516 518/518 517/517
f 516/516 517/517 514/514
f 514/514 517/517 515/515
f 514/514 515/515 513/513
f 515/515 507/507 509/509
f 513/513 515/515 509/509
f 507/507 491/491 490/490
f 509/509 507/507 490/490
f 491/491 492/492 488/488
f 490/490 491/491 488/488
f 492/492 497/497 493/493
f 488/488 492/492 493/493
f 493/493 497/497 622/622
f 702/702 685/685 682/682
f 685/685 684/684 682/682
f 682/682 684/684 683/683
f 684/684 668/668 678/678
f 683/683 684/684 678/678
f 678/678 668/668 669/669
f 669/669 668/668 643/643
f 669/669 643/643 642/642
f 643/643 644/644 640/640
f 642/642 643/643 640/640
f 640/640 644/644 645/645
f 640/640 645/645 641/641
f 645/645 707/707 708/708
f 641/641 645/645 708/708
f 708/708 707/707 714/714
f 129/129 128/128 199/199
f 129/129 199/199 198/198
f 198/198 199/199 208/208
f 198/198 208/208 207/207
f 130/130 129/129 132/132
f 131/131 130/130 132/132
f 129/129 198/198 149/149
f 132/132 129/129 149/149
f 198/198 207/207 180/180
f 149/149 198/198 180/180
f 180/180 207/207 209/209
f 180/180 209/209 211/211
f 180/180 211/211 205/205
f 179/179 180/180 205/205
f 131/131 132/132 133/133
f 134/134 131/131 133/133
f 133/133 132/132 149/149
f 133/133 149/149 136/136
f 149/149 180/180 166/166
f 136/136 149/149 166/166
f 42/42 30/30 27/27
f 42/42 27/27 44/44
f 134/134 133/133 135/135
f 138/138 134/134 135/135
f 135/135 133/133 136/136
f 135/135 136/136 137/137
f 137/137 136/136 166/166
f 137/137 166/166 163/163
f 162/162 137/137 163/163
f 162/162 163/163 164/164
f 27/27 25/25 45/45
f 44/44 27/27 45/45
f 138/138 135/135 140/140
f 145/145 138/138 140/140
f 135/135 137/137 141/141
f 140/140 135/135 141/141
f 142/142 140/140 141/141
f 25/25 24/24 47/47
f 45/45 25/25 47/47
f 146/146 145/145 140/140
f 146/146 140/140 144/144
f 24/24 26/26 48/48
f 47/47 24/24 48/48
f 146/146 144/144 148/148
f 150/150 146/146 148/148
f 26/26 40/40 41/41
f 48/48 26/26 41/41
f 154/154 150/150 148/148
f 154/154 148/148 168/168
f 168/168 148/148 153/153
f 372/372 395/395 370/370
f 416/416 398/398 397/397
f 167/167 210/210 197/197
f 552/552 547/547 548/548
f 548/548 547/547 546/546
f 546/546 525/525 549/549
f 549/549 525/525 550/550
f 550/550 525/525 522/522
f 550/550 522/522 521/521
f 521/521 522/522 516/516
f 521/521 516/516 512/512
f 512/512 516/516 514/514
f 512/512 514/514 513/513
f 512/512 513/513 510/510
f 510/510 513/513 509/509
f 510/510 509/509 487/487
f 509/509 490/490 487/487
f 487/487 490/490 488/488
f 488/488 493/493 489/489
f 493/493 622/622 621/621
f 489/489 493/493 621/621
f 622/622 702/702 623/623
f 621/621 622/622 623/623
f 702/702 682/682 624/624
f 623/623 702/702 624/624
f 624/624 682/682 680/680
f 680/680 682/682 683/683
f 680/680 683/683 679/679
f 683/683 678/678 679/679
f 678/678 669/669 636/636
f 679/679 678/678 636/636
f 636/636 669/669 642/642
f 636/636 642/642 637/637
f 637/637 642/642 640/640
f 637/637 640/640 638/638
f 640/640 641/641 639/639
f 638/638 640/640 639/639
f 641/641 708/708 713/713
f 639/639 641/641 713/713
f 713/713 708/708 720/720
f 176/176 179/179 205/205
f 176/176 205/205 204/204
f 176/176 204/204 194/194
f 164/164 176/176 194/194
f 162/162 164/164 165/165
f 141/141 162/162 165/165
f 165/165 164/164 194/194
f 165/165 194/194 192/192
f 142/142 141/141 157/157
f 143/143 142/142 157/157
f 141/141 165/165 161/161
f 157/157 141/141 161/161
f 161/161 165/165 192/192
f 161/161 192/192 193/193
f 143/143 157/157 158/158
f 152/152 143/143 158/158
f 157/157 161/161 167/167
f 158/158 157/157 167/167
f 161/161 193/193 178/178
f 167/167 161/161 178/178
f 177/177 158/158 167/167
f 177/177 167/167 197/197
f 548/548 546/546 477/477
f 477/477 546/546 549/549
f 550/550 521/521 551/551
f 521/521 512/512 511/511
f 551/551 521/521 511/511
f 511/511 512/512 510/510
f 511/511 510/510 487/487
f 511/511 487/487 486/486
f 487/487 488/488 485/485
f 486/486 487/487 485/485
f 485/485 488/488 489/489
f 623/623 624/624 625/625
f 625/625 624/624 680/680
f 625/625 680/680 681/681
f 681/681 680/680 679/679
f 681/681 679/679 627/627
f 627/627 679/679 629/629
f 629/629 679/679 636/636
f 629/629 636/636 631/631
f 636/636 637/637 633/633
f 631/631 636/636 633/633
f 637/637 638/638 635/635
f 633/633 637/637 635/635
f 638/638 639/639 451/451
f 635/635 638/638 451/451
f 639/639 713/713 452/452
f 451/451 639/639 452/452
f 452/452 713/713 720/720
f 552/552 548/548 476/476
f 476/476 548/548 477/477
f 477/477 549/549 478/478
f 549/549 550/550 479/479
f 478/478 549/549 479/479
f 550/550 551/551 479/479
f 479/479 551/551 480/480
f 551/551 511/511 480/480
f 480/480 511/511 481/481
f 481/481 511/511 486/486
f 481/481 486/486 482/482
f 482/482 486/486 483/483
f 483/483 486/486 485/485
f 483/483 485/485 484/484
f 484/484 485/485 489/489
f 489/489 621/621 701/701
f 484/484 489/489 701/701
f 621/621 623/623 700/700
f 701/701 621/621 700/700
f 623/623 625/625 699/699
f 700/700 623/623 699/699
f 625/625 681/681 698/698
f 699/699 625/625 698/698
f 681/681 627/627 626/626
f 698/698 681/681 626/626
f 627/627 629/629 628/628
f 626/626 627/627 628/628
f 629/629 631/631 630/630
f 628/628 629/629 630/630
f 631/631 633/633 632/632
f 630/630 631/631 632/632
f 633/633 635/635 634/634
f 632/632 633/633 634/634
f 635/635 451/451 450/450
f 634/634 635/635 450/450
f 451/451 452/452 449/449
f 450/450 451/451 449/449
f 449/449 452/452 722/722
f 475/475 553/553 476/476
f 476/476 477/477 474/474
f 475/475 476/476 474/474
f 477/477 478/478 474/474
f 474/474 478/478 479/479
f 474/474 479/479 473/473
f 479/479 480/480 472/472
f 473/473 479/479 472/472
f 480/480 481/481 471/471
f 472/472 480/480 471/471
f 481/481 482/482 470/470
f 471/471 481/481 470/470
f 482/482 483/483 469/469
f 470/470 482/482 469/469
f 469/469 483/483 484/484
f 469/469 484/484 468/468
f 468/468 484/484 701/701
f 468/468 701/701 466/466
f 466/466 701/701 700/700
f 466/466 700/700 464/464
f 700/700 699/699 463/463
f 464/464 700/700 463/463
f 699/699 698/698 462/462
f 463/463 699/699 462/462
f 698/698 626/626 461/461
f 462/462 698/698 461/461
f 461/461 626/626 628/628
f 461/461 628/628 460/460
f 628/628 630/630 457/457
f 460/460 628/628 457/457
f 630/630 632/632 459/459
f 457/457 630/630 459/459
f 632/632 634/634 459/459
f 634/634 450/450 448/448
f 459/459 634/634 448/448
f 448/448 450/450 449/449
f 448/448 449/449 447/447
f 447/447 449/449 721/721
f 609/609 475/475 430/430
f 475/475 474/474 431/431
f 430/430 475/475 431/431
f 431/431 474/474 473/473
f 431/431 473/473 432/432
f 432/432 473/473 433/433
f 473/473 472/472 433/433
f 433/433 472/472 434/434
f 472/472 471/471 434/434
f 434/434 471/471 470/470
f 434/434 470/470 435/435
f 435/435 470/470 469/469
f 435/435 469/469 436/436
f 436/436 469/469 468/468
f 436/436 468/468 467/467
f 467/467 468/468 466/466
f 467/467 466/466 438/438
f 466/466 464/464 465/465
f 438/438 466/466 465/465
f 464/464 463/463 453/453
f 465/465 464/464 453/453
f 463/463 462/462 454/454
f 453/453 463/463 454/454
f 462/462 461/461 455/455
f 454/454 462/462 455/455
f 461/461 460/460 456/456
f 455/455 461/461 456/456
f 456/456 460/460 457/457
f 457/457 459/459 458/458
f 458/458 459/459 448/448
f 458/458 448/448 446/446
f 446/446 448/448 447/447
f 446/446 447/447 445/445
f 445/445 447/447 719/719
f 430/430 431/431 429/429
f 428/428 431/431 432/432
f 432/432 433/433 427/427
f 433/433 434/434 426/426
f 425/425 434/434 435/435
f 435/435 436/436 424/424
f 436/436 467/467 437/437
f 465/465 453/453 439/439
f 453/453 454/454 440/440
f 454/454 455/455 441/441
f 441/441 455/455 456/456
f 456/456 457/457 442/442
f 442/442 457/457 458/458
f 443/443 458/458 446/446
f 444/444 446/446 445/445

