# SSTK version 0.8.0
# 21
mtllib original-21.mtl
o #ID117
v 0.292457 0.594525 0.473465
v 0.290663 0.594451 0.473478
v 0.291565 0.594369 0.473493
v 0.289814 0.594766 0.473422
v 0.293278 0.594908 0.473397
v 0.289074 0.595293 0.473327
v 0.293974 0.595493 0.473292
v 0.288494 0.595995 0.473201
v 0.294495 0.596240 0.473158
v 0.288114 0.596824 0.473053
v 0.294808 0.597097 0.473004
v 0.287960 0.597725 0.472891
v 0.294889 0.598007 0.472840
v 0.288042 0.598634 0.472728
v 0.294735 0.598907 0.472679
v 0.288354 0.599492 0.472574
v 0.294355 0.599737 0.472530
v 0.288876 0.600239 0.472440
v 0.293775 0.600439 0.472404
v 0.289571 0.600824 0.472335
v 0.293036 0.600965 0.472309
v 0.290392 0.601207 0.472266
v 0.292186 0.601281 0.472253
v 0.291285 0.601363 0.472238
v 0.291285 0.601363 0.472238
v 0.292186 0.601281 0.472253
v 0.290392 0.601207 0.472266
v 0.293036 0.600965 0.472309
v 0.289571 0.600824 0.472335
v 0.293775 0.600439 0.472404
v 0.288876 0.600239 0.472440
v 0.294355 0.599737 0.472530
v 0.288354 0.599492 0.472574
v 0.294735 0.598907 0.472679
v 0.288042 0.598634 0.472728
v 0.294889 0.598007 0.472840
v 0.287960 0.597725 0.472891
v 0.294808 0.597097 0.473004
v 0.288114 0.596824 0.473053
v 0.294495 0.596240 0.473158
v 0.288494 0.595995 0.473201
v 0.293974 0.595493 0.473292
v 0.289074 0.595293 0.473327
v 0.293278 0.594908 0.473397
v 0.289814 0.594766 0.473422
v 0.292457 0.594525 0.473465
v 0.290663 0.594451 0.473478
v 0.291565 0.594369 0.473493
vn 0 0.17664192088322073 0.9842751809258863
vn 0 -0.17664192088322073 -0.9842751809258863
usemtl material_0_0
f 25//2 26//2 27//2
f 26//2 28//2 27//2
f 27//2 28//2 29//2
f 28//2 30//2 29//2
f 29//2 30//2 31//2
f 30//2 32//2 31//2
f 31//2 32//2 33//2
f 32//2 34//2 33//2
f 33//2 34//2 35//2
f 34//2 36//2 35//2
f 35//2 36//2 37//2
f 36//2 38//2 37//2
f 37//2 38//2 39//2
f 38//2 40//2 39//2
f 39//2 40//2 41//2
f 40//2 42//2 41//2
f 41//2 42//2 43//2
f 42//2 44//2 43//2
f 43//2 44//2 45//2
f 44//2 46//2 45//2
f 45//2 46//2 47//2
f 48//2 47//2 46//2
usemtl material_1_0
f 1//1 2//1 3//1
f 2//1 1//1 4//1
f 4//1 1//1 5//1
f 4//1 5//1 6//1
f 6//1 5//1 7//1
f 6//1 7//1 8//1
f 8//1 7//1 9//1
f 8//1 9//1 10//1
f 10//1 9//1 11//1
f 10//1 11//1 12//1
f 12//1 11//1 13//1
f 12//1 13//1 14//1
f 14//1 13//1 15//1
f 14//1 15//1 16//1
f 16//1 15//1 17//1
f 16//1 17//1 18//1
f 18//1 17//1 19//1
f 18//1 19//1 20//1
f 20//1 19//1 21//1
f 20//1 21//1 22//1
f 22//1 21//1 23//1
f 22//1 23//1 24//1
