# SSTK version 0.8.0
# 17
mtllib original-17.mtl
o #ID89
v 0.354726 0.685009 0.448362
v 0.221984 0.684779 0.448498
v 0.355189 0.684779 0.448498
v 0.222447 0.685009 0.448362
v 0.354082 0.685230 0.448231
v 0.223091 0.685230 0.448231
v 0.353415 0.685364 0.448152
v 0.223758 0.685364 0.448152
v 0.224437 0.685409 0.448125
v 0.352736 0.685409 0.448125
v 0.352736 0.685409 0.448125
v 0.353415 0.685364 0.448152
v 0.224437 0.685409 0.448125
v 0.223758 0.685364 0.448152
v 0.223091 0.685230 0.448231
v 0.354082 0.685230 0.448231
v 0.222447 0.685009 0.448362
v 0.354726 0.685009 0.448362
v 0.221984 0.684779 0.448498
v 0.355189 0.684779 0.448498
v 0.357937 0.680159 0.450516
v 0.219236 0.670643 0.454672
v 0.357937 0.670643 0.454672
v 0.219236 0.680159 0.450516
v 0.357892 0.680844 0.450217
v 0.219281 0.680844 0.450217
v 0.357760 0.681517 0.449923
v 0.219413 0.681517 0.449923
v 0.357541 0.682168 0.449639
v 0.219632 0.682168 0.449639
v 0.357240 0.682784 0.449370
v 0.219933 0.682784 0.449370
v 0.356862 0.683355 0.449120
v 0.220311 0.683355 0.449120
v 0.356414 0.683871 0.448895
v 0.220759 0.683871 0.448895
v 0.355902 0.684324 0.448697
v 0.221271 0.684324 0.448697
v 0.355336 0.684705 0.448530
v 0.221837 0.684705 0.448530
v 0.221837 0.684705 0.448530
v 0.355336 0.684705 0.448530
v 0.221271 0.684324 0.448697
v 0.355902 0.684324 0.448697
v 0.220759 0.683871 0.448895
v 0.356414 0.683871 0.448895
v 0.220311 0.683355 0.449120
v 0.356862 0.683355 0.449120
v 0.219933 0.682784 0.449370
v 0.357240 0.682784 0.449370
v 0.219632 0.682168 0.449639
v 0.357541 0.682168 0.449639
v 0.219413 0.681517 0.449923
v 0.357760 0.681517 0.449923
v 0.219281 0.680844 0.450217
v 0.357892 0.680844 0.450217
v 0.219236 0.680159 0.450516
v 0.357937 0.680159 0.450516
v 0.219236 0.670643 0.454672
v 0.357937 0.670643 0.454672
v 0.357937 0.654013 0.460287
v 0.219236 0.654013 0.460287
v 0.357937 0.654013 0.460287
v 0.219236 0.654013 0.460287
v 0.357034 0.635126 0.465366
v 0.219236 0.635126 0.465366
v 0.357250 0.635470 0.465274
v 0.357547 0.636107 0.465103
v 0.357762 0.636776 0.464923
v 0.357937 0.638169 0.464548
v 0.357937 0.638169 0.464548
v 0.357762 0.636776 0.464923
v 0.357547 0.636107 0.465103
v 0.357250 0.635470 0.465274
v 0.357034 0.635126 0.465366
v 0.219236 0.635126 0.465366
v 0.352736 0.632580 0.465922
v 0.223772 0.624490 0.467688
v 0.224437 0.624486 0.467689
v 0.223112 0.624585 0.467668
v 0.222472 0.624769 0.467627
v 0.221863 0.625040 0.467568
v 0.221295 0.625391 0.467492
v 0.220780 0.625817 0.467399
v 0.220327 0.626309 0.467291
v 0.219944 0.626859 0.467171
v 0.219638 0.627456 0.467041
v 0.219416 0.628090 0.466902
v 0.219281 0.628748 0.466759
v 0.219236 0.629419 0.466612
v 0.354102 0.632843 0.465865
v 0.354750 0.633102 0.465808
v 0.355361 0.633440 0.465734
v 0.355924 0.633853 0.465644
v 0.356432 0.634335 0.465539
v 0.356877 0.634877 0.465421
v 0.356877 0.634877 0.465421
v 0.356432 0.634335 0.465539
v 0.355924 0.633853 0.465644
v 0.355361 0.633440 0.465734
v 0.354750 0.633102 0.465808
v 0.354102 0.632843 0.465865
v 0.352736 0.632580 0.465922
v 0.219236 0.629419 0.466612
v 0.219281 0.628748 0.466759
v 0.219416 0.628090 0.466902
v 0.219638 0.627456 0.467041
v 0.219944 0.626859 0.467171
v 0.220327 0.626309 0.467291
v 0.220780 0.625817 0.467399
v 0.221295 0.625391 0.467492
v 0.221863 0.625040 0.467568
v 0.222472 0.624769 0.467627
v 0.223112 0.624585 0.467668
v 0.223772 0.624490 0.467688
v 0.224437 0.624486 0.467689
vn 0 0.5095376030356603 0.8604483895578362
vn 0 0.4187387279784919 0.9081067545674101
vn 0 0.4002376041073496 0.9164114033873697
vn 0 0.3603538604741058 0.9328156812797526
vn 0 0.2899218904191157 0.9570503108279137
vn 0 0.24469715714354057 0.9695995571811434
vn 0 0.23654747556723874 0.9716199317648679
vn 0 0.259688272908938 0.9656924981139562
vn 0 0.21329884175822658 0.9769870030377061
vn 0 -0.5095376030356603 -0.8604483895578362
vn 0 -0.4187387279784919 -0.9081067545674101
vn 0 -0.4002376041073496 -0.9164114033873697
vn 0 -0.3603538604741058 -0.9328156812797526
vn 0 -0.2899218904191157 -0.9570503108279137
vn 0 -0.259688272908938 -0.9656924981139562
vn 0 -0.24469715714354057 -0.9695995571811434
vn 0 -0.23654747556723874 -0.9716199317648679
vn 0 -0.21329884175822658 -0.9769870030377061
usemtl material_0_0
f 11//10 12//10 13//10
f 13//10 12//10 14//10
f 14//10 12//10 15//10
f 12//10 16//10 15//10
f 15//10 16//10 17//10
f 16//10 18//10 17//10
f 17//10 18//10 19//11
f 20//11 19//11 18//10
f 19//11 20//11 41//12
f 20//11 42//12 41//12
f 41//12 42//12 43//12
f 42//12 44//12 43//12
f 43//12 44//12 45//12
f 44//12 46//12 45//12
f 45//12 46//12 47//12
f 46//12 48//12 47//12
f 47//12 48//12 49//12
f 48//12 50//12 49//12
f 49//12 50//12 51//12
f 50//12 52//12 51//12
f 51//12 52//12 53//12
f 52//12 54//12 53//12
f 53//12 54//12 55//12
f 54//12 56//12 55//12
f 55//12 56//12 57//12
f 56//12 58//12 57//12
f 57//12 58//12 59//13
f 60//13 59//13 58//12
f 60//13 63//14 59//13
f 64//14 59//13 63//14
f 63//14 71//15 64//14
f 71//15 72//15 64//14
f 72//15 73//15 64//14
f 73//15 74//15 64//14
f 74//15 75//16 64//14
f 76//17 64//14 75//16
f 75//16 97//18 76//17
f 97//18 98//18 76//17
f 98//18 99//18 76//17
f 99//18 100//18 76//17
f 100//18 101//18 76//17
f 101//18 102//18 76//17
f 102//18 103//18 76//17
f 76//17 103//18 104//18
f 104//18 103//18 105//18
f 105//18 103//18 106//18
f 106//18 103//18 107//18
f 107//18 103//18 108//18
f 108//18 103//18 109//18
f 109//18 103//18 110//18
f 110//18 103//18 111//18
f 111//18 103//18 112//18
f 112//18 103//18 113//18
f 113//18 103//18 114//18
f 114//18 103//18 115//18
f 116//18 115//18 103//18
usemtl material_1_0
f 1//1 2//2 3//2
f 2//2 1//1 4//1
f 4//1 1//1 5//1
f 4//1 5//1 6//1
f 6//1 5//1 7//1
f 6//1 7//1 8//1
f 8//1 7//1 9//1
f 9//1 7//1 10//1
f 21//3 22//4 23//4
f 22//4 21//3 24//3
f 24//3 21//3 25//3
f 24//3 25//3 26//3
f 26//3 25//3 27//3
f 26//3 27//3 28//3
f 28//3 27//3 29//3
f 28//3 29//3 30//3
f 30//3 29//3 31//3
f 30//3 31//3 32//3
f 32//3 31//3 33//3
f 32//3 33//3 34//3
f 34//3 33//3 35//3
f 34//3 35//3 36//3
f 36//3 35//3 37//3
f 36//3 37//3 38//3
f 38//3 37//3 39//3
f 38//3 39//3 40//3
f 40//3 39//3 3//2
f 40//3 3//2 2//2
f 61//5 22//4 62//5
f 22//4 61//5 23//4
f 65//6 62//5 66//7
f 62//5 65//6 67//8
f 62//5 67//8 68//8
f 62//5 68//8 69//8
f 62//5 69//8 70//8
f 62//5 70//8 61//5
f 77//9 78//9 79//9
f 78//9 77//9 80//9
f 80//9 77//9 81//9
f 81//9 77//9 82//9
f 82//9 77//9 83//9
f 83//9 77//9 84//9
f 84//9 77//9 85//9
f 85//9 77//9 86//9
f 86//9 77//9 87//9
f 87//9 77//9 88//9
f 88//9 77//9 89//9
f 89//9 77//9 90//9
f 90//9 77//9 66//7
f 66//7 77//9 91//9
f 66//7 91//9 92//9
f 66//7 92//9 93//9
f 66//7 93//9 94//9
f 66//7 94//9 95//9
f 66//7 95//9 96//9
f 66//7 96//9 65//6
