# SSTK version 0.8.0
# 33
mtllib original-33.mtl
o #ID153
v 0.255501 0.305480 0.251417
v 0.283933 0.233313 0.417778
v 0.255501 0.305480 0.417778
v 0.283933 0.233313 0.251417
v 0.283933 0.233313 0.251417
v 0.255501 0.305480 0.251417
v 0.283933 0.233313 0.417778
v 0.255501 0.305480 0.417778
v 0.209534 0.367760 0.251417
v 0.209534 0.367760 0.417778
v 0.209534 0.367760 0.251417
v 0.209534 0.367760 0.417778
v 0.292891 0.156177 0.417778
v 0.292891 0.156177 0.251417
v 0.292891 0.156177 0.251417
v 0.292891 0.156177 0.417778
v 0.149163 0.415910 0.417778
v 0.149163 0.415910 0.251417
v 0.149163 0.415910 0.417778
v 0.149163 0.415910 0.251417
v 0.281765 0.079330 0.417778
v 0.281765 0.079330 0.251417
v 0.281765 0.079330 0.251417
v 0.281765 0.079330 0.417778
v 0.078503 0.446647 0.417778
v 0.078503 0.446647 0.251417
v 0.078503 0.446647 0.417778
v 0.078503 0.446647 0.251417
v 0.251314 0.008008 0.417778
v 0.251314 0.008008 0.251417
v 0.251314 0.008008 0.251417
v 0.251314 0.008008 0.417778
v 0.002369 0.457877 0.417778
v 0.002369 0.457877 0.251417
v 0.002369 0.457877 0.417778
v 0.002369 0.457877 0.251417
v 0.203611 -0.052929 0.417778
v 0.203611 -0.052929 0.251417
v 0.203611 -0.052929 0.251417
v 0.203611 -0.052929 0.417778
v -0.074050 0.448835 0.417778
v -0.074050 0.448835 0.251417
v -0.074050 0.448835 0.417778
v -0.074050 0.448835 0.251417
v 0.141909 -0.099328 0.251417
v 0.141909 -0.099328 0.417778
v 0.141909 -0.099328 0.251417
v 0.141909 -0.099328 0.417778
v -0.145547 0.420137 0.417778
v -0.145547 0.420137 0.251417
v -0.145547 0.420137 0.417778
v -0.145547 0.420137 0.251417
v 0.070413 -0.128026 0.251417
v 0.070413 -0.128026 0.417778
v 0.070413 -0.128026 0.251417
v 0.070413 -0.128026 0.417778
v -0.207248 0.373738 0.417778
v -0.207248 0.373738 0.251417
v -0.207248 0.373738 0.417778
v -0.207248 0.373738 0.251417
v -0.006006 -0.137068 0.251417
v -0.006006 -0.137068 0.417778
v -0.006006 -0.137068 0.251417
v -0.006006 -0.137068 0.417778
v -0.254951 0.312801 0.251417
v -0.254951 0.312801 0.417778
v -0.254951 0.312801 0.251417
v -0.254951 0.312801 0.417778
v -0.082140 -0.125838 0.251417
v -0.082140 -0.125838 0.417778
v -0.082140 -0.125838 0.251417
v -0.082140 -0.125838 0.417778
v -0.285402 0.241479 0.251417
v -0.285402 0.241479 0.417778
v -0.285402 0.241479 0.251417
v -0.285402 0.241479 0.417778
v -0.152800 -0.095101 0.251417
v -0.152800 -0.095101 0.417778
v -0.152800 -0.095101 0.251417
v -0.152800 -0.095101 0.417778
v -0.296528 0.164632 0.251417
v -0.296528 0.164632 0.417778
v -0.296528 0.164632 0.251417
v -0.296528 0.164632 0.417778
v -0.213171 -0.046951 0.251417
v -0.213171 -0.046951 0.417778
v -0.213171 -0.046951 0.251417
v -0.213171 -0.046951 0.417778
v -0.287570 0.087496 0.251417
v -0.287570 0.087496 0.417778
v -0.287570 0.087496 0.251417
v -0.287570 0.087496 0.417778
v -0.259138 0.015329 0.417778
v -0.259138 0.015329 0.251417
v -0.259138 0.015329 0.251417
v -0.259138 0.015329 0.417778
vn -0.8749678658601081 -0.48418099272091214 0
vn -0.970044497711041 -0.24292729871410934 0
vn -0.720324692570218 -0.6936370356848175 0
vn -0.9999009213664525 0.014076485730451642 0
vn -0.5157836246051579 -0.8567188877275705 0
vn -0.9628121909379648 0.27017158433343047 0
vn -0.2748798947677328 -0.9614785714993758 0
vn -0.8609248560764445 0.5087321418878046 0
vn -0.014341609243445233 -0.9998971538334872 0
vn -0.7003256948082796 0.7138234523965297 0
vn 0.24722636484345695 -0.9689577516725328 0
vn -0.49111766522181366 0.8710932435205054 0
vn 0.49111766522181366 -0.8710932435205054 0
vn -0.24722636484345695 0.9689577516725328 0
vn 0.7003256948082796 -0.7138234523965297 0
vn 0.014341609243445233 0.9998971538334872 0
vn 0.8609248560764445 -0.5087321418878046 0
vn 0.2748798947677328 0.9614785714993758 0
vn 0.9628121909379648 -0.27017158433343047 0
vn 0.5157836246051579 0.8567188877275705 0
vn 0.9999009213664525 -0.014076485730451642 0
vn 0.720324692570218 0.6936370356848175 0
vn 0.970044497711041 0.24292729871410934 0
vn 0.8749678658601081 0.48418099272091214 0
usemtl material_0_0
f 1//1 2//2 3//1
f 2//2 1//1 4//2
f 9//3 3//1 10//3
f 3//1 9//3 1//1
f 4//2 13//4 2//2
f 13//4 4//2 14//4
f 9//3 17//5 18//5
f 17//5 9//3 10//3
f 14//4 21//6 13//4
f 21//6 14//4 22//6
f 18//5 25//7 26//7
f 25//7 18//5 17//5
f 22//6 29//8 21//6
f 29//8 22//6 30//8
f 26//7 33//9 34//9
f 33//9 26//7 25//7
f 30//8 37//10 29//8
f 37//10 30//8 38//10
f 34//9 41//11 42//11
f 41//11 34//9 33//9
f 37//10 45//12 46//12
f 45//12 37//10 38//10
f 42//11 49//13 50//13
f 49//13 42//11 41//11
f 46//12 53//14 54//14
f 53//14 46//12 45//12
f 50//13 57//15 58//15
f 57//15 50//13 49//13
f 54//14 61//16 62//16
f 61//16 54//14 53//14
f 65//17 57//15 66//17
f 57//15 65//17 58//15
f 62//16 69//18 70//18
f 69//18 62//16 61//16
f 73//19 66//17 74//19
f 66//17 73//19 65//17
f 70//18 77//20 78//20
f 77//20 70//18 69//18
f 81//21 74//19 82//21
f 74//19 81//21 73//19
f 78//20 85//22 86//22
f 85//22 78//20 77//20
f 89//23 82//21 90//23
f 82//21 89//23 81//21
f 85//22 93//24 86//22
f 93//24 85//22 94//24
f 94//24 90//23 93//24
f 90//23 94//24 89//23
usemtl material_1_0
f 5//23 6//24 7//23
f 8//24 7//23 6//24
f 6//24 11//22 8//24
f 12//22 8//24 11//22
f 15//21 5//23 16//21
f 7//23 16//21 5//23
f 12//22 11//22 19//20
f 20//20 19//20 11//22
f 23//19 15//21 24//19
f 16//21 24//19 15//21
f 19//20 20//20 27//18
f 28//18 27//18 20//20
f 31//17 23//19 32//17
f 24//19 32//17 23//19
f 27//18 28//18 35//16
f 36//16 35//16 28//18
f 39//15 31//17 40//15
f 32//17 40//15 31//17
f 35//16 36//16 43//14
f 44//14 43//14 36//16
f 39//15 40//15 47//13
f 48//13 47//13 40//15
f 43//14 44//14 51//12
f 52//12 51//12 44//14
f 47//13 48//13 55//11
f 56//11 55//11 48//13
f 51//12 52//12 59//10
f 60//10 59//10 52//12
f 55//11 56//11 63//9
f 64//9 63//9 56//11
f 60//10 67//8 59//10
f 68//8 59//10 67//8
f 63//9 64//9 71//7
f 72//7 71//7 64//9
f 67//8 75//6 68//8
f 76//6 68//8 75//6
f 71//7 72//7 79//5
f 80//5 79//5 72//7
f 75//6 83//4 76//6
f 84//4 76//6 83//4
f 79//5 80//5 87//3
f 88//3 87//3 80//5
f 83//4 91//2 84//4
f 92//2 84//4 91//2
f 95//1 87//3 96//1
f 88//3 96//1 87//3
f 91//2 95//1 92//2
f 96//1 92//2 95//1
