# SSTK version 0.8.0
# 41
mtllib original-41.mtl
o instance_12/Лопасть_Ст._машина/ID182#ID182
v 0.277614 -0.170536 -0.170794
v 0.326048 -0.121648 0.211836
v 0.277614 -0.170536 0.211836
v 0.326048 -0.121648 -0.170794
v 0.242041 -0.070324 0.181337
v 0.277614 -0.170536 0.211836
v 0.326048 -0.121648 0.211836
v 0.226767 -0.085741 0.181337
v 0.226767 -0.085741 0.181337
v 0.277614 -0.170536 -0.170794
v 0.277614 -0.170536 0.211836
v 0.226767 -0.085741 -0.140295
v 0.222144 -0.078033 0.169796
v 0.222144 -0.078033 -0.128754
v 0.277614 -0.170536 -0.170794
v 0.242041 -0.070324 -0.140295
v 0.326048 -0.121648 -0.170794
v 0.226767 -0.085741 -0.140295
v 0.242041 -0.070324 -0.140295
v 0.326048 -0.121648 0.211836
v 0.326048 -0.121648 -0.170794
v 0.242041 -0.070324 0.181337
v 0.234404 -0.065658 -0.128754
v 0.234404 -0.065658 0.169796
v 0.234404 -0.065658 0.169796
v 0.226767 -0.085741 0.181337
v 0.242041 -0.070324 0.181337
v 0.222144 -0.078033 0.169796
v 0.234404 -0.065658 -0.128754
v 0.222144 -0.078033 0.169796
v 0.234404 -0.065658 0.169796
v 0.222144 -0.078033 -0.128754
v 0.242041 -0.070324 -0.140295
v 0.222144 -0.078033 -0.128754
v 0.234404 -0.065658 -0.128754
v 0.226767 -0.085741 -0.140295
vn 0.7103982244361962 -0.7037999450965451 0
vn -0.21550748693082458 0.21350582286461092 0.9528755357756152
vn -0.8576259381003042 -0.5142740031321565 0
vn -0.21550748693082458 0.21350582286461137 -0.9528755357756152
vn 0.5213466468568142 0.8533449910857601 0
vn -0.5670508408649069 0.5617839923296657 0.6023720526689004
vn -0.7103982244361957 0.7037999450965455 0
vn -0.5670508408649069 0.5617839923296659 -0.6023720526689001
usemtl material_0_0
f 1//1 2//1 3//1
f 2//1 1//1 4//1
f 5//2 6//2 7//2
f 6//2 5//2 8//2
f 9//3 10//3 11//3
f 10//3 9//3 12//3
f 12//3 9//3 13//3
f 12//3 13//3 14//3
f 15//4 16//4 17//4
f 16//4 15//4 18//4
f 19//5 20//5 21//5
f 20//5 19//5 22//5
f 22//5 19//5 23//5
f 22//5 23//5 24//5
f 25//6 26//6 27//6
f 26//6 25//6 28//6
f 29//7 30//7 31//7
f 30//7 29//7 32//7
f 33//8 34//8 35//8
f 34//8 33//8 36//8
