# SSTK version 0.8.0
# 32
mtllib original-32.mtl
o #ID147
v 0.513975 -0.705853 -0.513844
v 0.513975 0.676659 0.417778
v 0.513975 -0.705853 0.417778
v 0.513975 0.676659 -0.513844
v 0.513975 0.676659 -0.513844
v 0.513975 -0.705853 -0.513844
v 0.513975 0.676659 0.417778
v 0.513975 -0.705853 0.417778
v 0.513679 -0.710421 -0.513844
v 0.513975 -0.705853 0.417778
v 0.513679 -0.710421 0.417778
v 0.513975 -0.705853 -0.513844
v 0.513975 -0.705853 -0.513844
v 0.513679 -0.710421 -0.513844
v 0.513975 -0.705853 0.417778
v 0.513679 -0.710421 0.417778
v -0.487463 -0.740554 -0.513844
v 0.479300 -0.740853 -0.513844
v -0.482937 -0.740853 -0.513844
v 0.483826 -0.740554 -0.513844
v -0.491912 -0.739661 -0.513844
v 0.488275 -0.739661 -0.513844
v -0.496207 -0.738189 -0.513844
v 0.492570 -0.738189 -0.513844
v -0.500275 -0.736164 -0.513844
v 0.496638 -0.736164 -0.513844
v -0.504046 -0.733620 -0.513844
v 0.500409 -0.733620 -0.513844
v -0.507456 -0.730602 -0.513844
v 0.503819 -0.730602 -0.513844
v -0.510447 -0.727160 -0.513844
v 0.506810 -0.727160 -0.513844
v -0.512967 -0.723353 -0.513844
v 0.509330 -0.723353 -0.513844
v -0.514973 -0.719247 -0.513844
v 0.511336 -0.719247 -0.513844
v -0.516431 -0.714912 -0.513844
v 0.512794 -0.714912 -0.513844
v -0.517316 -0.710421 -0.513844
v 0.513679 -0.710421 -0.513844
v -0.517612 -0.705853 -0.513844
v 0.513975 -0.705853 -0.513844
v -0.517612 0.676659 -0.513844
v 0.513975 0.676659 -0.513844
v 0.513679 0.681227 -0.513844
v -0.517316 0.681227 -0.513844
v 0.512794 0.685718 -0.513844
v -0.516431 0.685718 -0.513844
v 0.511336 0.690053 -0.513844
v -0.514973 0.690053 -0.513844
v 0.509330 0.694159 -0.513844
v -0.512967 0.694159 -0.513844
v 0.506810 0.697965 -0.513844
v -0.510447 0.697965 -0.513844
v 0.503819 0.701408 -0.513844
v -0.507456 0.701408 -0.513844
v -0.504046 0.704426 -0.513844
v 0.500409 0.704426 -0.513844
v 0.496638 0.706970 -0.513844
v -0.500275 0.706970 -0.513844
v 0.492570 0.708995 -0.513844
v -0.496207 0.708995 -0.513844
v 0.488275 0.710467 -0.513844
v -0.491912 0.710467 -0.513844
v 0.483826 0.711360 -0.513844
v -0.487463 0.711360 -0.513844
v 0.479300 0.711659 -0.513844
v -0.482937 0.711659 -0.513844
v -0.482937 0.711659 -0.513844
v -0.487463 0.711360 -0.513844
v 0.479300 0.711659 -0.513844
v 0.483826 0.711360 -0.513844
v -0.491912 0.710467 -0.513844
v 0.488275 0.710467 -0.513844
v -0.496207 0.708995 -0.513844
v 0.492570 0.708995 -0.513844
v -0.500275 0.706970 -0.513844
v 0.496638 0.706970 -0.513844
v -0.504046 0.704426 -0.513844
v 0.500409 0.704426 -0.513844
v 0.503819 0.701408 -0.513844
v -0.507456 0.701408 -0.513844
v -0.510447 0.697965 -0.513844
v 0.506810 0.697965 -0.513844
v -0.512967 0.694159 -0.513844
v 0.509330 0.694159 -0.513844
v -0.514973 0.690053 -0.513844
v 0.511336 0.690053 -0.513844
v -0.516431 0.685718 -0.513844
v 0.512794 0.685718 -0.513844
v -0.517316 0.681227 -0.513844
v 0.513679 0.681227 -0.513844
v -0.517612 0.676659 -0.513844
v 0.513975 0.676659 -0.513844
v 0.513975 -0.705853 -0.513844
v -0.517612 -0.705853 -0.513844
v 0.513679 -0.710421 -0.513844
v -0.517316 -0.710421 -0.513844
v 0.512794 -0.714912 -0.513844
v -0.516431 -0.714912 -0.513844
v 0.511336 -0.719247 -0.513844
v -0.514973 -0.719247 -0.513844
v 0.509330 -0.723353 -0.513844
v -0.512967 -0.723353 -0.513844
v 0.506810 -0.727160 -0.513844
v -0.510447 -0.727160 -0.513844
v 0.503819 -0.730602 -0.513844
v -0.507456 -0.730602 -0.513844
v 0.500409 -0.733620 -0.513844
v -0.504046 -0.733620 -0.513844
v 0.496638 -0.736164 -0.513844
v -0.500275 -0.736164 -0.513844
v 0.492570 -0.738189 -0.513844
v -0.496207 -0.738189 -0.513844
v 0.488275 -0.739661 -0.513844
v -0.491912 -0.739661 -0.513844
v 0.483826 -0.740554 -0.513844
v -0.487463 -0.740554 -0.513844
v 0.479300 -0.740853 -0.513844
v -0.482937 -0.740853 -0.513844
v 0.513975 0.676659 -0.513844
v 0.513679 0.681227 0.417778
v 0.513975 0.676659 0.417778
v 0.513679 0.681227 -0.513844
v 0.513679 0.681227 -0.513844
v 0.513975 0.676659 -0.513844
v 0.513679 0.681227 0.417778
v 0.513975 0.676659 0.417778
v 0.513975 -0.705853 0.417778
v 0.070413 -0.128026 0.417778
v -0.006006 -0.137068 0.417778
v 0.141909 -0.099328 0.417778
v 0.203611 -0.052929 0.417778
v 0.251314 0.008008 0.417778
v 0.281765 0.079330 0.417778
v 0.513975 0.676659 0.417778
v 0.292891 0.156177 0.417778
v 0.283933 0.233313 0.417778
v 0.255501 0.305480 0.417778
v 0.209534 0.367760 0.417778
v 0.149163 0.415910 0.417778
v 0.078503 0.446647 0.417778
v 0.002369 0.457877 0.417778
v 0.479300 -0.740853 0.417778
v -0.487463 -0.740554 0.417778
v -0.482937 -0.740853 0.417778
v 0.483826 -0.740554 0.417778
v -0.491912 -0.739661 0.417778
v 0.488275 -0.739661 0.417778
v -0.496207 -0.738189 0.417778
v 0.492570 -0.738189 0.417778
v -0.500275 -0.736164 0.417778
v 0.496638 -0.736164 0.417778
v -0.504046 -0.733620 0.417778
v 0.500409 -0.733620 0.417778
v -0.507456 -0.730602 0.417778
v 0.503819 -0.730602 0.417778
v -0.510447 -0.727160 0.417778
v 0.506810 -0.727160 0.417778
v -0.512967 -0.723353 0.417778
v 0.509330 -0.723353 0.417778
v -0.514973 -0.719247 0.417778
v 0.511336 -0.719247 0.417778
v -0.516431 -0.714912 0.417778
v 0.512794 -0.714912 0.417778
v -0.517316 -0.710421 0.417778
v 0.513679 -0.710421 0.417778
v -0.517612 -0.705853 0.417778
v -0.213171 -0.046951 0.417778
v -0.259138 0.015329 0.417778
v -0.287570 0.087496 0.417778
v -0.517612 0.676659 0.417778
v -0.152800 -0.095101 0.417778
v -0.082140 -0.125838 0.417778
v -0.296528 0.164632 0.417778
v -0.285402 0.241479 0.417778
v -0.254951 0.312801 0.417778
v -0.207248 0.373738 0.417778
v -0.145547 0.420137 0.417778
v -0.074050 0.448835 0.417778
v 0.513679 0.681227 0.417778
v -0.517316 0.681227 0.417778
v 0.512794 0.685718 0.417778
v -0.516431 0.685718 0.417778
v 0.511336 0.690053 0.417778
v -0.514973 0.690053 0.417778
v 0.509330 0.694159 0.417778
v -0.512967 0.694159 0.417778
v 0.506810 0.697965 0.417778
v -0.510447 0.697965 0.417778
v 0.503819 0.701408 0.417778
v -0.507456 0.701408 0.417778
v 0.500409 0.704426 0.417778
v -0.504046 0.704426 0.417778
v 0.496638 0.706970 0.417778
v -0.500275 0.706970 0.417778
v 0.492570 0.708995 0.417778
v -0.496207 0.708995 0.417778
v 0.488275 0.710467 0.417778
v -0.491912 0.710467 0.417778
v 0.483826 0.711360 0.417778
v -0.487463 0.711360 0.417778
v 0.479300 0.711659 0.417778
v -0.482937 0.711659 0.417778
v -0.482937 0.711659 0.417778
v 0.479300 0.711659 0.417778
v -0.487463 0.711360 0.417778
v 0.483826 0.711360 0.417778
v -0.491912 0.710467 0.417778
v 0.488275 0.710467 0.417778
v -0.496207 0.708995 0.417778
v 0.492570 0.708995 0.417778
v -0.500275 0.706970 0.417778
v 0.496638 0.706970 0.417778
v -0.504046 0.704426 0.417778
v 0.500409 0.704426 0.417778
v -0.507456 0.701408 0.417778
v 0.503819 0.701408 0.417778
v -0.510447 0.697965 0.417778
v 0.506810 0.697965 0.417778
v -0.512967 0.694159 0.417778
v 0.509330 0.694159 0.417778
v -0.514973 0.690053 0.417778
v 0.511336 0.690053 0.417778
v -0.516431 0.685718 0.417778
v 0.512794 0.685718 0.417778
v -0.517316 0.681227 0.417778
v 0.513679 0.681227 0.417778
v -0.517612 0.676659 0.417778
v 0.513975 0.676659 0.417778
v 0.002369 0.457877 0.417778
v -0.074050 0.448835 0.417778
v -0.145547 0.420137 0.417778
v -0.207248 0.373738 0.417778
v -0.254951 0.312801 0.417778
v -0.285402 0.241479 0.417778
v -0.296528 0.164632 0.417778
v -0.287570 0.087496 0.417778
v -0.006006 -0.137068 0.417778
v 0.513975 -0.705853 0.417778
v -0.082140 -0.125838 0.417778
v -0.152800 -0.095101 0.417778
v -0.213171 -0.046951 0.417778
v -0.517612 -0.705853 0.417778
v -0.259138 0.015329 0.417778
v 0.513679 -0.710421 0.417778
v -0.517316 -0.710421 0.417778
v 0.512794 -0.714912 0.417778
v -0.516431 -0.714912 0.417778
v 0.511336 -0.719247 0.417778
v -0.514973 -0.719247 0.417778
v 0.509330 -0.723353 0.417778
v -0.512967 -0.723353 0.417778
v 0.506810 -0.727160 0.417778
v -0.510447 -0.727160 0.417778
v 0.503819 -0.730602 0.417778
v -0.507456 -0.730602 0.417778
v 0.500409 -0.733620 0.417778
v -0.504046 -0.733620 0.417778
v 0.496638 -0.736164 0.417778
v -0.500275 -0.736164 0.417778
v 0.492570 -0.738189 0.417778
v -0.496207 -0.738189 0.417778
v 0.488275 -0.739661 0.417778
v -0.491912 -0.739661 0.417778
v 0.483826 -0.740554 0.417778
v -0.487463 -0.740554 0.417778
v 0.479300 -0.740853 0.417778
v -0.482937 -0.740853 0.417778
v 0.078503 0.446647 0.417778
v 0.149163 0.415910 0.417778
v 0.209534 0.367760 0.417778
v 0.255501 0.305480 0.417778
v 0.283933 0.233313 0.417778
v 0.292891 0.156177 0.417778
v 0.281765 0.079330 0.417778
v 0.251314 0.008008 0.417778
v 0.203611 -0.052929 0.417778
v 0.141909 -0.099328 0.417778
v 0.070413 -0.128026 0.417778
v 0.512794 -0.714912 -0.513844
v 0.512794 -0.714912 0.417778
v 0.512794 -0.714912 -0.513844
v 0.512794 -0.714912 0.417778
v 0.479300 0.711659 0.417778
v -0.482937 0.711659 -0.513844
v -0.482937 0.711659 0.417778
v 0.479300 0.711659 -0.513844
v 0.479300 0.711659 -0.513844
v 0.479300 0.711659 0.417778
v -0.482937 0.711659 -0.513844
v -0.482937 0.711659 0.417778
v 0.483826 0.711360 0.417778
v 0.479300 0.711659 -0.513844
v 0.479300 0.711659 0.417778
v 0.483826 0.711360 -0.513844
v 0.483826 0.711360 -0.513844
v 0.483826 0.711360 0.417778
v 0.479300 0.711659 -0.513844
v 0.479300 0.711659 0.417778
v 0.488275 0.710467 0.417778
v 0.488275 0.710467 -0.513844
v 0.488275 0.710467 -0.513844
v 0.488275 0.710467 0.417778
v 0.492570 0.708995 0.417778
v 0.492570 0.708995 -0.513844
v 0.492570 0.708995 -0.513844
v 0.492570 0.708995 0.417778
v 0.496638 0.706970 0.417778
v 0.496638 0.706970 -0.513844
v 0.496638 0.706970 -0.513844
v 0.496638 0.706970 0.417778
v 0.500409 0.704426 0.417778
v 0.500409 0.704426 -0.513844
v 0.500409 0.704426 -0.513844
v 0.500409 0.704426 0.417778
v 0.503819 0.701408 0.417778
v 0.503819 0.701408 -0.513844
v 0.503819 0.701408 -0.513844
v 0.503819 0.701408 0.417778
v 0.506810 0.697965 -0.513844
v 0.506810 0.697965 0.417778
v 0.506810 0.697965 -0.513844
v 0.506810 0.697965 0.417778
v 0.509330 0.694159 -0.513844
v 0.509330 0.694159 0.417778
v 0.509330 0.694159 -0.513844
v 0.509330 0.694159 0.417778
v 0.511336 0.690053 -0.513844
v 0.511336 0.690053 0.417778
v 0.511336 0.690053 -0.513844
v 0.511336 0.690053 0.417778
v 0.512794 0.685718 -0.513844
v 0.512794 0.685718 0.417778
v 0.512794 0.685718 -0.513844
v 0.512794 0.685718 0.417778
v 0.511336 -0.719247 -0.513844
v 0.511336 -0.719247 0.417778
v 0.511336 -0.719247 -0.513844
v 0.511336 -0.719247 0.417778
v 0.509330 -0.723353 -0.513844
v 0.509330 -0.723353 0.417778
v 0.509330 -0.723353 -0.513844
v 0.509330 -0.723353 0.417778
v 0.506810 -0.727160 -0.513844
v 0.506810 -0.727160 0.417778
v 0.506810 -0.727160 -0.513844
v 0.506810 -0.727160 0.417778
v 0.503819 -0.730602 -0.513844
v 0.503819 -0.730602 0.417778
v 0.503819 -0.730602 -0.513844
v 0.503819 -0.730602 0.417778
v 0.500409 -0.733620 0.417778
v 0.500409 -0.733620 -0.513844
v 0.500409 -0.733620 0.417778
v 0.500409 -0.733620 -0.513844
v 0.496638 -0.736164 0.417778
v 0.496638 -0.736164 -0.513844
v 0.496638 -0.736164 0.417778
v 0.496638 -0.736164 -0.513844
v 0.492570 -0.738189 0.417778
v 0.492570 -0.738189 -0.513844
v 0.492570 -0.738189 0.417778
v 0.492570 -0.738189 -0.513844
v 0.488275 -0.739661 0.417778
v 0.488275 -0.739661 -0.513844
v 0.488275 -0.739661 0.417778
v 0.488275 -0.739661 -0.513844
v 0.483826 -0.740554 0.417778
v 0.483826 -0.740554 -0.513844
v 0.483826 -0.740554 0.417778
v 0.483826 -0.740554 -0.513844
v 0.479300 -0.740853 0.417778
v 0.479300 -0.740853 -0.513844
v 0.479300 -0.740853 0.417778
v 0.479300 -0.740853 -0.513844
v 0.479300 -0.740853 -0.513844
v -0.482937 -0.740853 0.417778
v -0.482937 -0.740853 -0.513844
v 0.479300 -0.740853 0.417778
v 0.479300 -0.740853 0.417778
v 0.479300 -0.740853 -0.513844
v -0.482937 -0.740853 0.417778
v -0.482937 -0.740853 -0.513844
v -0.482937 -0.740853 -0.513844
v -0.487463 -0.740554 0.417778
v -0.487463 -0.740554 -0.513844
v -0.482937 -0.740853 0.417778
v -0.482937 -0.740853 0.417778
v -0.482937 -0.740853 -0.513844
v -0.487463 -0.740554 0.417778
v -0.487463 -0.740554 -0.513844
v -0.491912 -0.739661 0.417778
v -0.491912 -0.739661 -0.513844
v -0.491912 -0.739661 0.417778
v -0.491912 -0.739661 -0.513844
v -0.496207 -0.738189 0.417778
v -0.496207 -0.738189 -0.513844
v -0.496207 -0.738189 0.417778
v -0.496207 -0.738189 -0.513844
v -0.500275 -0.736164 0.417778
v -0.500275 -0.736164 -0.513844
v -0.500275 -0.736164 0.417778
v -0.500275 -0.736164 -0.513844
v -0.504046 -0.733620 0.417778
v -0.504046 -0.733620 -0.513844
v -0.504046 -0.733620 0.417778
v -0.504046 -0.733620 -0.513844
v -0.507456 -0.730602 0.417778
v -0.507456 -0.730602 -0.513844
v -0.507456 -0.730602 0.417778
v -0.507456 -0.730602 -0.513844
v -0.510447 -0.727160 -0.513844
v -0.510447 -0.727160 0.417778
v -0.510447 -0.727160 -0.513844
v -0.510447 -0.727160 0.417778
v -0.512967 -0.723353 -0.513844
v -0.512967 -0.723353 0.417778
v -0.512967 -0.723353 -0.513844
v -0.512967 -0.723353 0.417778
v -0.514973 -0.719247 -0.513844
v -0.514973 -0.719247 0.417778
v -0.514973 -0.719247 -0.513844
v -0.514973 -0.719247 0.417778
v -0.516431 -0.714912 -0.513844
v -0.516431 -0.714912 0.417778
v -0.516431 -0.714912 -0.513844
v -0.516431 -0.714912 0.417778
v -0.517316 -0.710421 -0.513844
v -0.517316 -0.710421 0.417778
v -0.517316 -0.710421 -0.513844
v -0.517316 -0.710421 0.417778
v -0.517612 -0.705853 -0.513844
v -0.517612 -0.705853 0.417778
v -0.517612 -0.705853 -0.513844
v -0.517612 -0.705853 0.417778
v -0.517612 0.676659 -0.513844
v -0.517612 -0.705853 0.417778
v -0.517612 0.676659 0.417778
v -0.517612 -0.705853 -0.513844
v -0.517612 -0.705853 -0.513844
v -0.517612 0.676659 -0.513844
v -0.517612 -0.705853 0.417778
v -0.517612 0.676659 0.417778
v -0.517316 0.681227 -0.513844
v -0.517612 0.676659 0.417778
v -0.517316 0.681227 0.417778
v -0.517612 0.676659 -0.513844
v -0.517612 0.676659 -0.513844
v -0.517316 0.681227 -0.513844
v -0.517612 0.676659 0.417778
v -0.517316 0.681227 0.417778
v -0.516431 0.685718 -0.513844
v -0.516431 0.685718 0.417778
v -0.516431 0.685718 -0.513844
v -0.516431 0.685718 0.417778
v -0.514973 0.690053 -0.513844
v -0.514973 0.690053 0.417778
v -0.514973 0.690053 -0.513844
v -0.514973 0.690053 0.417778
v -0.512967 0.694159 -0.513844
v -0.512967 0.694159 0.417778
v -0.512967 0.694159 -0.513844
v -0.512967 0.694159 0.417778
v -0.510447 0.697965 -0.513844
v -0.510447 0.697965 0.417778
v -0.510447 0.697965 -0.513844
v -0.510447 0.697965 0.417778
v -0.507456 0.701408 -0.513844
v -0.507456 0.701408 0.417778
v -0.507456 0.701408 -0.513844
v -0.507456 0.701408 0.417778
v -0.504046 0.704426 0.417778
v -0.504046 0.704426 -0.513844
v -0.504046 0.704426 -0.513844
v -0.504046 0.704426 0.417778
v -0.500275 0.706970 0.417778
v -0.500275 0.706970 -0.513844
v -0.500275 0.706970 -0.513844
v -0.500275 0.706970 0.417778
v -0.496207 0.708995 0.417778
v -0.496207 0.708995 -0.513844
v -0.496207 0.708995 -0.513844
v -0.496207 0.708995 0.417778
v -0.491912 0.710467 0.417778
v -0.491912 0.710467 -0.513844
v -0.491912 0.710467 -0.513844
v -0.491912 0.710467 0.417778
v -0.487463 0.711360 0.417778
v -0.487463 0.711360 -0.513844
v -0.487463 0.711360 -0.513844
v -0.487463 0.711360 0.417778
v -0.482937 0.711659 0.417778
v -0.482937 0.711659 -0.513844
v -0.482937 0.711659 -0.513844
v -0.482937 0.711659 0.417778
vn 1 0 0
vn 0.9916010584181697 -0.12933422185935722 0
vn 0.9978983869189981 -0.06479822053468404 0
vn 0 0 -1
vn 0.9978983869189981 0.06479822053468404 0
vn 0.9916010584181697 0.12933422185935722 0
vn 0 0 1
vn 0.9665245878739831 -0.2565740069356732 0
vn 0 1 0
vn 0.1317287691629147 0.9912857970206288 0
vn 0.06601364055013177 0.9978187206408377 0
vn 0.2610808139933653 0.9653169472067512 0
vn 0.38573943303319164 0.9226077659564934 0
vn 0.5035033587502925 0.8639932683344089 0
vn 0.6123349707764523 0.7905984338235192 0
vn 0.7103982244361964 0.7037999450965448 0
vn 0.7960855054911246 0.6051841603569451 0
vn 0.8680339717014589 0.4965048076022934 0
vn 0.9251329255264414 0.37964334592731597 0
vn 0.9665245878739831 0.2565740069356732 0
vn 0.9251329255264414 -0.37964334592731597 0
vn 0.8680339717014589 -0.4965048076022934 0
vn 0.7960855054911246 -0.6051841603569451 0
vn 0.7103982244361964 -0.7037999450965448 0
vn 0.6123349707764523 -0.7905984338235192 0
vn 0.5035033587502925 -0.8639932683344089 0
vn 0.38573943303319164 -0.9226077659564934 0
vn 0.2610808139933653 -0.9653169472067512 0
vn 0.1317287691629147 -0.9912857970206288 0
vn 0.06601364055013177 -0.9978187206408377 0
vn 0 -1 0
vn -0.06601364055013177 -0.9978187206408377 0
vn -0.1317287691629147 -0.9912857970206288 0
vn -0.2610808139933653 -0.9653169472067512 0
vn -0.38573943303319164 -0.9226077659564934 0
vn -0.5035033587502925 -0.8639932683344089 0
vn -0.6123349707764523 -0.7905984338235192 0
vn -0.7103982244361964 -0.7037999450965448 0
vn -0.7960855054911246 -0.6051841603569451 0
vn -0.8680339717014589 -0.4965048076022934 0
vn -0.9251329255264414 -0.37964334592731597 0
vn -0.9665245878739831 -0.2565740069356732 0
vn -0.9916010584181697 -0.12933422185935722 0
vn -0.9978983869189981 -0.06479822053468404 0
vn -1 0 0
vn -0.9916010584181697 0.12933422185935722 0
vn -0.9978983869189981 0.06479822053468404 0
vn -0.9665245878739831 0.2565740069356732 0
vn -0.9251329255264414 0.37964334592731597 0
vn -0.8680339717014589 0.4965048076022934 0
vn -0.7960855054911246 0.6051841603569451 0
vn -0.7103982244361964 0.7037999450965448 0
vn -0.6123349707764523 0.7905984338235192 0
vn -0.5035033587502925 0.8639932683344089 0
vn -0.38573943303319164 0.9226077659564934 0
vn -0.2610808139933653 0.9653169472067512 0
vn -0.1317287691629147 0.9912857970206288 0
vn -0.06601364055013177 0.9978187206408377 0
usemtl material_0_0
f 1//1 2//1 3//1
f 2//1 1//1 4//1
f 9//2 10//3 11//2
f 10//3 9//2 12//3
f 17//4 18//4 19//4
f 18//4 17//4 20//4
f 20//4 17//4 21//4
f 20//4 21//4 22//4
f 22//4 21//4 23//4
f 22//4 23//4 24//4
f 24//4 23//4 25//4
f 24//4 25//4 26//4
f 26//4 25//4 27//4
f 26//4 27//4 28//4
f 28//4 27//4 29//4
f 28//4 29//4 30//4
f 30//4 29//4 31//4
f 30//4 31//4 32//4
f 32//4 31//4 33//4
f 32//4 33//4 34//4
f 34//4 33//4 35//4
f 34//4 35//4 36//4
f 36//4 35//4 37//4
f 36//4 37//4 38//4
f 38//4 37//4 39//4
f 38//4 39//4 40//4
f 40//4 39//4 41//4
f 40//4 41//4 42//4
f 42//4 41//4 43//4
f 42//4 43//4 44//4
f 44//4 43//4 45//4
f 45//4 43//4 46//4
f 45//4 46//4 47//4
f 47//4 46//4 48//4
f 47//4 48//4 49//4
f 49//4 48//4 50//4
f 49//4 50//4 51//4
f 51//4 50//4 52//4
f 51//4 52//4 53//4
f 53//4 52//4 54//4
f 53//4 54//4 55//4
f 55//4 54//4 56//4
f 55//4 56//4 57//4
f 55//4 57//4 58//4
f 58//4 57//4 59//4
f 59//4 57//4 60//4
f 59//4 60//4 61//4
f 61//4 60//4 62//4
f 61//4 62//4 63//4
f 63//4 62//4 64//4
f 63//4 64//4 65//4
f 65//4 64//4 66//4
f 65//4 66//4 67//4
f 67//4 66//4 68//4
f 121//5 122//6 123//5
f 122//6 121//5 124//6
f 129//7 130//7 131//7
f 130//7 129//7 132//7
f 132//7 129//7 133//7
f 133//7 129//7 134//7
f 134//7 129//7 135//7
f 135//7 129//7 136//7
f 135//7 136//7 137//7
f 137//7 136//7 138//7
f 138//7 136//7 139//7
f 139//7 136//7 140//7
f 140//7 136//7 141//7
f 141//7 136//7 142//7
f 142//7 136//7 143//7
f 144//7 145//7 146//7
f 145//7 144//7 147//7
f 145//7 147//7 148//7
f 148//7 147//7 149//7
f 148//7 149//7 150//7
f 150//7 149//7 151//7
f 150//7 151//7 152//7
f 152//7 151//7 153//7
f 152//7 153//7 154//7
f 154//7 153//7 155//7
f 154//7 155//7 156//7
f 156//7 155//7 157//7
f 156//7 157//7 158//7
f 158//7 157//7 159//7
f 158//7 159//7 160//7
f 160//7 159//7 161//7
f 160//7 161//7 162//7
f 162//7 161//7 163//7
f 162//7 163//7 164//7
f 164//7 163//7 165//7
f 164//7 165//7 166//7
f 166//7 165//7 167//7
f 166//7 167//7 168//7
f 168//7 167//7 129//7
f 168//7 129//7 169//7
f 168//7 169//7 170//7
f 168//7 170//7 171//7
f 168//7 171//7 172//7
f 169//7 129//7 173//7
f 173//7 129//7 174//7
f 174//7 129//7 131//7
f 172//7 171//7 175//7
f 172//7 175//7 176//7
f 172//7 176//7 177//7
f 172//7 177//7 178//7
f 172//7 178//7 179//7
f 172//7 179//7 180//7
f 172//7 180//7 143//7
f 172//7 143//7 136//7
f 172//7 136//7 181//7
f 172//7 181//7 182//7
f 182//7 181//7 183//7
f 182//7 183//7 184//7
f 184//7 183//7 185//7
f 184//7 185//7 186//7
f 186//7 185//7 187//7
f 186//7 187//7 188//7
f 188//7 187//7 189//7
f 188//7 189//7 190//7
f 190//7 189//7 191//7
f 190//7 191//7 192//7
f 192//7 191//7 193//7
f 192//7 193//7 194//7
f 194//7 193//7 195//7
f 194//7 195//7 196//7
f 196//7 195//7 197//7
f 196//7 197//7 198//7
f 198//7 197//7 199//7
f 198//7 199//7 200//7
f 200//7 199//7 201//7
f 200//7 201//7 202//7
f 202//7 201//7 203//7
f 202//7 203//7 204//7
f 281//8 11//2 282//8
f 11//2 281//8 9//2
f 285//9 286//9 287//9
f 286//9 285//9 288//9
f 293//10 294//11 295//11
f 294//11 293//10 296//10
f 301//12 296//10 293//10
f 296//10 301//12 302//12
f 305//13 302//12 301//12
f 302//12 305//13 306//13
f 309//14 306//13 305//13
f 306//13 309//14 310//14
f 313//15 310//14 309//14
f 310//14 313//15 314//15
f 317//16 314//15 313//15
f 314//15 317//16 318//16
f 321//17 317//16 322//17
f 317//16 321//17 318//16
f 325//18 322//17 326//18
f 322//17 325//18 321//17
f 329//19 326//18 330//19
f 326//18 329//19 325//18
f 333//20 330//19 334//20
f 330//19 333//20 329//19
f 124//6 334//20 122//6
f 334//20 124//6 333//20
f 337//21 282//8 338//21
f 282//8 337//21 281//8
f 341//22 338//21 342//22
f 338//21 341//22 337//21
f 345//23 342//22 346//23
f 342//22 345//23 341//22
f 349//24 346//23 350//24
f 346//23 349//24 345//23
f 349//24 353//25 354//25
f 353//25 349//24 350//24
f 354//25 357//26 358//26
f 357//26 354//25 353//25
f 358//26 361//27 362//27
f 361//27 358//26 357//26
f 362//27 365//28 366//28
f 365//28 362//27 361//27
f 366//28 369//29 370//29
f 369//29 366//28 365//28
f 370//29 373//30 374//30
f 373//30 370//29 369//29
f 377//31 378//31 379//31
f 378//31 377//31 380//31
f 385//32 386//33 387//33
f 386//33 385//32 388//32
f 387//33 393//34 394//34
f 393//34 387//33 386//33
f 394//34 397//35 398//35
f 397//35 394//34 393//34
f 398//35 401//36 402//36
f 401//36 398//35 397//35
f 402//36 405//37 406//37
f 405//37 402//36 401//36
f 406//37 409//38 410//38
f 409//38 406//37 405//37
f 413//39 409//38 414//39
f 409//38 413//39 410//38
f 417//40 414//39 418//40
f 414//39 417//40 413//39
f 421//41 418//40 422//41
f 418//40 421//41 417//40
f 425//42 422//41 426//42
f 422//41 425//42 421//41
f 429//43 426//42 430//43
f 426//42 429//43 425//42
f 433//44 430//43 434//44
f 430//43 433//44 429//43
f 437//45 438//45 439//45
f 438//45 437//45 440//45
f 445//46 446//47 447//46
f 446//47 445//46 448//47
f 453//48 447//46 454//48
f 447//46 453//48 445//46
f 457//49 454//48 458//49
f 454//48 457//49 453//48
f 461//50 458//49 462//50
f 458//49 461//50 457//49
f 465//51 462//50 466//51
f 462//50 465//51 461//50
f 469//52 466//51 470//52
f 466//51 469//52 465//51
f 473//53 469//52 470//52
f 469//52 473//53 474//53
f 477//54 474//53 473//53
f 474//53 477//54 478//54
f 481//55 478//54 477//54
f 478//54 481//55 482//55
f 485//56 482//55 481//55
f 482//55 485//56 486//56
f 489//57 486//56 485//56
f 486//56 489//57 490//57
f 493//58 490//57 489//57
f 490//57 493//58 494//58
usemtl material_1_0
f 5//45 6//45 7//45
f 8//45 7//45 6//45
f 13//47 14//46 15//47
f 16//46 15//47 14//46
f 69//7 70//7 71//7
f 71//7 70//7 72//7
f 70//7 73//7 72//7
f 72//7 73//7 74//7
f 73//7 75//7 74//7
f 74//7 75//7 76//7
f 75//7 77//7 76//7
f 76//7 77//7 78//7
f 77//7 79//7 78//7
f 78//7 79//7 80//7
f 80//7 79//7 81//7
f 79//7 82//7 81//7
f 82//7 83//7 81//7
f 81//7 83//7 84//7
f 83//7 85//7 84//7
f 84//7 85//7 86//7
f 85//7 87//7 86//7
f 86//7 87//7 88//7
f 87//7 89//7 88//7
f 88//7 89//7 90//7
f 89//7 91//7 90//7
f 90//7 91//7 92//7
f 91//7 93//7 92//7
f 92//7 93//7 94//7
f 94//7 93//7 95//7
f 93//7 96//7 95//7
f 95//7 96//7 97//7
f 96//7 98//7 97//7
f 97//7 98//7 99//7
f 98//7 100//7 99//7
f 99//7 100//7 101//7
f 100//7 102//7 101//7
f 101//7 102//7 103//7
f 102//7 104//7 103//7
f 103//7 104//7 105//7
f 104//7 106//7 105//7
f 105//7 106//7 107//7
f 106//7 108//7 107//7
f 107//7 108//7 109//7
f 108//7 110//7 109//7
f 109//7 110//7 111//7
f 110//7 112//7 111//7
f 111//7 112//7 113//7
f 112//7 114//7 113//7
f 113//7 114//7 115//7
f 114//7 116//7 115//7
f 115//7 116//7 117//7
f 116//7 118//7 117//7
f 117//7 118//7 119//7
f 120//7 119//7 118//7
f 125//43 126//44 127//43
f 128//44 127//43 126//44
f 205//4 206//4 207//4
f 206//4 208//4 207//4
f 207//4 208//4 209//4
f 208//4 210//4 209//4
f 209//4 210//4 211//4
f 210//4 212//4 211//4
f 211//4 212//4 213//4
f 212//4 214//4 213//4
f 213//4 214//4 215//4
f 214//4 216//4 215//4
f 215//4 216//4 217//4
f 216//4 218//4 217//4
f 217//4 218//4 219//4
f 218//4 220//4 219//4
f 219//4 220//4 221//4
f 220//4 222//4 221//4
f 221//4 222//4 223//4
f 222//4 224//4 223//4
f 223//4 224//4 225//4
f 224//4 226//4 225//4
f 225//4 226//4 227//4
f 226//4 228//4 227//4
f 227//4 228//4 229//4
f 228//4 230//4 229//4
f 230//4 231//4 229//4
f 231//4 232//4 229//4
f 232//4 233//4 229//4
f 233//4 234//4 229//4
f 234//4 235//4 229//4
f 235//4 236//4 229//4
f 236//4 237//4 229//4
f 237//4 238//4 229//4
f 239//4 240//4 241//4
f 241//4 240//4 242//4
f 242//4 240//4 243//4
f 229//4 238//4 244//4
f 238//4 245//4 244//4
f 245//4 243//4 244//4
f 243//4 240//4 244//4
f 240//4 246//4 244//4
f 244//4 246//4 247//4
f 246//4 248//4 247//4
f 247//4 248//4 249//4
f 248//4 250//4 249//4
f 249//4 250//4 251//4
f 250//4 252//4 251//4
f 251//4 252//4 253//4
f 252//4 254//4 253//4
f 253//4 254//4 255//4
f 254//4 256//4 255//4
f 255//4 256//4 257//4
f 256//4 258//4 257//4
f 257//4 258//4 259//4
f 258//4 260//4 259//4
f 259//4 260//4 261//4
f 260//4 262//4 261//4
f 261//4 262//4 263//4
f 262//4 264//4 263//4
f 263//4 264//4 265//4
f 264//4 266//4 265//4
f 265//4 266//4 267//4
f 266//4 268//4 267//4
f 269//4 267//4 268//4
f 231//4 230//4 270//4
f 270//4 230//4 271//4
f 271//4 230//4 272//4
f 272//4 230//4 273//4
f 273//4 230//4 274//4
f 274//4 230//4 275//4
f 275//4 230//4 276//4
f 230//4 240//4 276//4
f 276//4 240//4 277//4
f 277//4 240//4 278//4
f 278//4 240//4 279//4
f 279//4 240//4 280//4
f 239//4 280//4 240//4
f 14//46 283//48 16//46
f 284//48 16//46 283//48
f 289//31 290//31 291//31
f 292//31 291//31 290//31
f 297//33 298//33 299//32
f 300//32 299//32 298//33
f 303//34 304//34 297//33
f 298//33 297//33 304//34
f 307//35 308//35 303//34
f 304//34 303//34 308//35
f 311//36 312//36 307//35
f 308//35 307//35 312//36
f 315//37 316//37 311//36
f 312//36 311//36 316//37
f 319//38 320//38 315//37
f 316//37 315//37 320//38
f 319//38 323//39 320//38
f 324//39 320//38 323//39
f 323//39 327//40 324//39
f 328//40 324//39 327//40
f 327//40 331//41 328//40
f 332//41 328//40 331//41
f 331//41 335//42 332//41
f 336//42 332//41 335//42
f 335//42 125//43 336//42
f 127//43 336//42 125//43
f 283//48 339//49 284//48
f 340//49 284//48 339//49
f 339//49 343//50 340//49
f 344//50 340//49 343//50
f 343//50 347//51 344//50
f 348//51 344//50 347//51
f 347//51 351//52 348//51
f 352//52 348//51 351//52
f 352//52 351//52 355//53
f 356//53 355//53 351//52
f 355//53 356//53 359//54
f 360//54 359//54 356//53
f 359//54 360//54 363//55
f 364//55 363//55 360//54
f 363//55 364//55 367//56
f 368//56 367//56 364//55
f 367//56 368//56 371//57
f 372//57 371//57 368//56
f 371//57 372//57 375//58
f 376//58 375//58 372//57
f 381//9 382//9 383//9
f 384//9 383//9 382//9
f 389//11 390//11 391//10
f 392//10 391//10 390//11
f 391//10 392//10 395//12
f 396//12 395//12 392//10
f 395//12 396//12 399//13
f 400//13 399//13 396//12
f 399//13 400//13 403//14
f 404//14 403//14 400//13
f 403//14 404//14 407//15
f 408//15 407//15 404//14
f 407//15 408//15 411//16
f 412//16 411//16 408//15
f 412//16 415//17 411//16
f 416//17 411//16 415//17
f 415//17 419//18 416//17
f 420//18 416//17 419//18
f 419//18 423//19 420//18
f 424//19 420//18 423//19
f 423//19 427//20 424//19
f 428//20 424//19 427//20
f 427//20 431//6 428//20
f 432//6 428//20 431//6
f 431//6 435//5 432//6
f 436//5 432//6 435//5
f 441//1 442//1 443//1
f 444//1 443//1 442//1
f 449//3 450//2 451//3
f 452//2 451//3 450//2
f 450//2 455//8 452//2
f 456//8 452//2 455//8
f 455//8 459//21 456//8
f 460//21 456//8 459//21
f 459//21 463//22 460//21
f 464//22 460//21 463//22
f 463//22 467//23 464//22
f 468//23 464//22 467//23
f 467//23 471//24 468//23
f 472//24 468//23 471//24
f 475//25 476//25 471//24
f 472//24 471//24 476//25
f 479//26 480//26 475//25
f 476//25 475//25 480//26
f 483//27 484//27 479//26
f 480//26 479//26 484//27
f 487//28 488//28 483//27
f 484//27 483//27 488//28
f 491//29 492//29 487//28
f 488//28 487//28 492//29
f 495//30 496//30 491//29
f 492//29 491//29 496//30
