# SSTK version 0.8.0
# 29
mtllib original-29.mtl
o instance_5/Кнопка_Ст._машина/ID134#ID134
v 0.383754 0.678643 0.453311
v 0.388177 0.677416 0.450305
v 0.383840 0.677464 0.450180
v 0.388092 0.678596 0.453436
v 0.388092 0.678596 0.453436
v 0.383754 0.678643 0.453311
v 0.388177 0.677416 0.450305
v 0.383840 0.677464 0.450180
v 0.379602 0.677414 0.453625
v 0.379687 0.676234 0.450494
v 0.379602 0.677414 0.453625
v 0.379687 0.676234 0.450494
v 0.388092 0.678596 0.453436
v 0.383951 0.677583 0.455445
v 0.387739 0.677541 0.455554
v 0.383754 0.678643 0.453311
v 0.383754 0.678643 0.453311
v 0.388092 0.678596 0.453436
v 0.383951 0.677583 0.455445
v 0.387739 0.677541 0.455554
v 0.392275 0.676097 0.450857
v 0.392189 0.677276 0.453988
v 0.392189 0.677276 0.453988
v 0.392275 0.676097 0.450857
v 0.383283 0.651428 0.459030
v 0.391772 0.652610 0.458841
v 0.387620 0.651381 0.459155
v 0.379185 0.652748 0.458478
v 0.395333 0.654995 0.458119
v 0.397954 0.658303 0.457058
v 0.375728 0.655210 0.457553
v 0.373250 0.658574 0.456345
v 0.399378 0.662211 0.455764
v 0.371993 0.662510 0.454973
v 0.399466 0.666334 0.454362
v 0.398210 0.670271 0.452990
v 0.372082 0.666634 0.453572
v 0.395732 0.673634 0.451782
v 0.373506 0.670541 0.452277
v 0.392275 0.676097 0.450857
v 0.376127 0.673849 0.451217
v 0.379687 0.676234 0.450494
v 0.388177 0.677416 0.450305
v 0.383840 0.677464 0.450180
v 0.383840 0.677464 0.450180
v 0.379687 0.676234 0.450494
v 0.388177 0.677416 0.450305
v 0.392275 0.676097 0.450857
v 0.376127 0.673849 0.451217
v 0.373506 0.670541 0.452277
v 0.395732 0.673634 0.451782
v 0.372082 0.666634 0.453572
v 0.398210 0.670271 0.452990
v 0.371993 0.662510 0.454973
v 0.399466 0.666334 0.454362
v 0.399378 0.662211 0.455764
v 0.373250 0.658574 0.456345
v 0.397954 0.658303 0.457058
v 0.375728 0.655210 0.457553
v 0.379185 0.652748 0.458478
v 0.395333 0.654995 0.458119
v 0.391772 0.652610 0.458841
v 0.383283 0.651428 0.459030
v 0.387620 0.651381 0.459155
v 0.376127 0.673849 0.451217
v 0.376041 0.675029 0.454348
v 0.376127 0.673849 0.451217
v 0.376041 0.675029 0.454348
v 0.379602 0.677414 0.453625
v 0.380324 0.676509 0.455719
v 0.379602 0.677414 0.453625
v 0.380324 0.676509 0.455719
v 0.390879 0.655875 0.463010
v 0.383464 0.654843 0.463175
v 0.387253 0.654801 0.463285
v 0.393989 0.657958 0.462379
v 0.379885 0.655995 0.462693
v 0.396279 0.660848 0.461453
v 0.376865 0.658146 0.461885
v 0.374701 0.661084 0.460830
v 0.397523 0.664260 0.460322
v 0.373604 0.664522 0.459632
v 0.397600 0.667862 0.459098
v 0.396502 0.671300 0.457899
v 0.373681 0.668124 0.458407
v 0.394338 0.674238 0.456845
v 0.374925 0.671536 0.457277
v 0.377214 0.674426 0.456350
v 0.391318 0.676389 0.456036
v 0.380324 0.676509 0.455719
v 0.387739 0.677541 0.455554
v 0.383951 0.677583 0.455445
v 0.383951 0.677583 0.455445
v 0.387739 0.677541 0.455554
v 0.380324 0.676509 0.455719
v 0.391318 0.676389 0.456036
v 0.377214 0.674426 0.456350
v 0.394338 0.674238 0.456845
v 0.374925 0.671536 0.457277
v 0.373681 0.668124 0.458407
v 0.396502 0.671300 0.457899
v 0.373604 0.664522 0.459632
v 0.397600 0.667862 0.459098
v 0.397523 0.664260 0.460322
v 0.374701 0.661084 0.460830
v 0.396279 0.660848 0.461453
v 0.376865 0.658146 0.461885
v 0.379885 0.655995 0.462693
v 0.393989 0.657958 0.462379
v 0.383464 0.654843 0.463175
v 0.390879 0.655875 0.463010
v 0.387253 0.654801 0.463285
v 0.392189 0.677276 0.453988
v 0.391318 0.676389 0.456036
v 0.392189 0.677276 0.453988
v 0.391318 0.676389 0.456036
v 0.395732 0.673634 0.451782
v 0.395646 0.674814 0.454914
v 0.395732 0.673634 0.451782
v 0.395646 0.674814 0.454914
v 0.383283 0.651428 0.459030
v 0.379099 0.653928 0.461609
v 0.379185 0.652748 0.458478
v 0.383197 0.652608 0.462162
v 0.383197 0.652608 0.462162
v 0.383283 0.651428 0.459030
v 0.379099 0.653928 0.461609
v 0.379185 0.652748 0.458478
v 0.375728 0.655210 0.457553
v 0.375642 0.656390 0.460684
v 0.375728 0.655210 0.457553
v 0.375642 0.656390 0.460684
v 0.373250 0.658574 0.456345
v 0.373164 0.659754 0.459477
v 0.373250 0.658574 0.456345
v 0.373164 0.659754 0.459477
v 0.371993 0.662510 0.454973
v 0.371908 0.663690 0.458105
v 0.371993 0.662510 0.454973
v 0.371908 0.663690 0.458105
v 0.372082 0.666634 0.453572
v 0.371996 0.667814 0.456703
v 0.372082 0.666634 0.453572
v 0.371996 0.667814 0.456703
v 0.373420 0.671721 0.455409
v 0.373506 0.670541 0.452277
v 0.373506 0.670541 0.452277
v 0.373420 0.671721 0.455409
v 0.398210 0.670271 0.452990
v 0.398124 0.671450 0.456121
v 0.398210 0.670271 0.452990
v 0.398124 0.671450 0.456121
v 0.399466 0.666334 0.454362
v 0.399381 0.667514 0.457493
v 0.399466 0.666334 0.454362
v 0.399381 0.667514 0.457493
v 0.399378 0.662211 0.455764
v 0.399293 0.663390 0.458895
v 0.399378 0.662211 0.455764
v 0.399293 0.663390 0.458895
v 0.397868 0.659483 0.460189
v 0.397954 0.658303 0.457058
v 0.397954 0.658303 0.457058
v 0.397868 0.659483 0.460189
v 0.395248 0.656175 0.461250
v 0.395333 0.654995 0.458119
v 0.395333 0.654995 0.458119
v 0.395248 0.656175 0.461250
v 0.391772 0.652610 0.458841
v 0.391687 0.653790 0.461973
v 0.391772 0.652610 0.458841
v 0.391687 0.653790 0.461973
v 0.387620 0.651381 0.459155
v 0.387534 0.652561 0.462287
v 0.387620 0.651381 0.459155
v 0.387534 0.652561 0.462287
v 0.376041 0.675029 0.454348
v 0.377214 0.674426 0.456350
v 0.376041 0.675029 0.454348
v 0.377214 0.674426 0.456350
v 0.376865 0.658146 0.461885
v 0.373164 0.659754 0.459477
v 0.375642 0.656390 0.460684
v 0.374701 0.661084 0.460830
v 0.374701 0.661084 0.460830
v 0.376865 0.658146 0.461885
v 0.373164 0.659754 0.459477
v 0.375642 0.656390 0.460684
v 0.379885 0.655995 0.462693
v 0.379099 0.653928 0.461609
v 0.379885 0.655995 0.462693
v 0.379099 0.653928 0.461609
v 0.383464 0.654843 0.463175
v 0.383197 0.652608 0.462162
v 0.383464 0.654843 0.463175
v 0.383197 0.652608 0.462162
v 0.387253 0.654801 0.463285
v 0.387534 0.652561 0.462287
v 0.387253 0.654801 0.463285
v 0.387534 0.652561 0.462287
v 0.391687 0.653790 0.461973
v 0.390879 0.655875 0.463010
v 0.390879 0.655875 0.463010
v 0.391687 0.653790 0.461973
v 0.395248 0.656175 0.461250
v 0.393989 0.657958 0.462379
v 0.393989 0.657958 0.462379
v 0.395248 0.656175 0.461250
v 0.397868 0.659483 0.460189
v 0.396279 0.660848 0.461453
v 0.396279 0.660848 0.461453
v 0.397868 0.659483 0.460189
v 0.399293 0.663390 0.458895
v 0.397523 0.664260 0.460322
v 0.397523 0.664260 0.460322
v 0.399293 0.663390 0.458895
v 0.399381 0.667514 0.457493
v 0.397600 0.667862 0.459098
v 0.397600 0.667862 0.459098
v 0.399381 0.667514 0.457493
v 0.398124 0.671450 0.456121
v 0.396502 0.671300 0.457899
v 0.396502 0.671300 0.457899
v 0.398124 0.671450 0.456121
v 0.394338 0.674238 0.456845
v 0.395646 0.674814 0.454914
v 0.395646 0.674814 0.454914
v 0.394338 0.674238 0.456845
v 0.373420 0.671721 0.455409
v 0.374925 0.671536 0.457277
v 0.373420 0.671721 0.455409
v 0.374925 0.671536 0.457277
v 0.371996 0.667814 0.456703
v 0.373681 0.668124 0.458407
v 0.371996 0.667814 0.456703
v 0.373681 0.668124 0.458407
v 0.371908 0.663690 0.458105
v 0.373604 0.664522 0.459632
v 0.371908 0.663690 0.458105
v 0.373604 0.664522 0.459632
vn -0.1367016797270746 0.9257630557244632 -0.3525271839383465
vn 0.17702736043752482 0.9225889119600976 -0.34276962115217574
vn -0.13670167972714067 0.925763055724454 -0.3525271839383449
vn -0.43666946979015897 0.8378560118953852 -0.3275928532247634
vn 0.10634847957664141 0.8829096951949784 0.4573406509621105
vn -0.11322029973883238 0.8855222259995136 0.45059022513578284
vn -0.11322029973876914 0.8855222259995225 0.4505902251357814
vn 0.47324807831270177 0.8285433969227525 -0.2992525618754849
vn 0.023778636478080664 -0.3222190802657962 -0.9463664410575365
vn -0.6932689938447623 0.6679545950521796 -0.27058226313295175
vn -0.3229316374180342 0.8231164532243038 0.46711290068456657
vn -0.023778636478083124 0.3222190802657954 0.9463664410575366
vn 0.31307595739938215 0.8155800019757171 0.486634056839171
vn 0.7225537379534372 0.6531969313453138 -0.22638432951638038
vn -0.17702736043752462 -0.9225889119601007 0.34276962115216725
vn -0.47324807831270177 -0.8285433969227559 0.29925256187547616
vn -0.7225537379534371 -0.6531969313453153 0.22638432951637572
vn -0.9006190319357928 -0.4142399183707247 0.13149391371181815
vn -0.9905129183995806 -0.1353162232324858 0.023951580608423177
vn -0.990512918399581 -0.1353162232324833 0.023951580608422215
vn -0.9839433511270513 0.1564970608488271 -0.08581463580617486
vn -0.8816537789471423 0.43315258353494823 -0.1872577193207884
vn 0.9006190319357924 0.41423991837072915 -0.131493913711805
vn 0.9905129183995801 0.13531622323249362 -0.023951580608406332
vn 0.9905129183995792 0.1353162232324994 -0.02395158060840853
vn 0.9839433511270514 -0.156497060848826 0.08581463580617825
vn 0.8816537789471426 -0.43315258353495045 0.18725771932078225
vn 0.6932689938447623 -0.6679545950521805 0.2705822631329491
vn 0.4366694697901592 -0.8378560118953874 0.32759285322475773
vn 0.13670167972716066 -0.9257630557244559 0.3525271839383318
vn 0.13670167972709285 -0.9257630557244655 0.3525271839383335
vn -0.5013076331013888 0.7024991872269679 0.5051589343362468
vn -0.5098812094134347 -0.2144460912983876 0.8330870460005586
vn -0.6343289482507153 -0.05195200969524092 0.7713156125087621
vn -0.3386093387850811 -0.33260731019279355 0.8801795799118752
vn -0.13702820316596864 -0.3955873073680178 0.9081486407997468
vn 0.07571038563073483 -0.39768831519888714 0.9143915690019871
vn 0.07571038563071544 -0.39768831519888986 0.9143915690019878
vn 0.2795345227726321 -0.33880324777209364 0.8983723113928647
vn 0.455219361495005 -0.22437725518800572 0.8616438825143348
vn 0.5860377887140099 -0.06492273922405857 0.8076786168587344
vn 0.6591845635022243 0.12482718606480826 0.741548302445312
vn 0.6669404355845715 0.3270510400792289 0.6694983738332428
vn 0.6669404355845702 0.32705104007923974 0.6694983738332388
vn 0.6075642029310845 0.5222409707782812 0.5984397277565006
vn 0.48583794115939705 0.690908321422459 0.5353570643217463
vn -0.6306084467755024 0.5365566179635187 0.5607494829020699
vn -0.6986222032925318 0.3424888503103024 0.6281945594159628
vn -0.699583622680987 0.13975078741840335 0.7007513626761512
vn -0.6995836226809822 0.13975078741837438 0.7007513626761618
vn -0.17702736043752482 -0.9225889119600976 0.34276962115217574
vn 0.1367016797270746 -0.9257630557244632 0.3525271839383465
vn 0.13670167972714067 -0.925763055724454 0.3525271839383449
vn 0.43666946979015897 -0.8378560118953852 0.3275928532247634
vn 0.11322029973876914 -0.8855222259995225 -0.4505902251357814
vn -0.10634847957664141 -0.8829096951949784 -0.4573406509621105
vn 0.11322029973883238 -0.8855222259995136 -0.45059022513578284
vn -0.47324807831270177 -0.8285433969227525 0.2992525618754849
vn -0.023778636478080664 0.3222190802657962 0.9463664410575365
vn 0.6932689938447623 -0.6679545950521796 0.27058226313295175
vn 0.3229316374180342 -0.8231164532243038 -0.46711290068456657
vn 0.023778636478083124 -0.3222190802657954 -0.9463664410575366
vn -0.31307595739938215 -0.8155800019757171 -0.486634056839171
vn -0.7225537379534372 -0.6531969313453138 0.22638432951638038
vn 0.17702736043752462 0.9225889119601007 -0.34276962115216725
vn 0.47324807831270177 0.8285433969227559 -0.29925256187547616
vn 0.7225537379534371 0.6531969313453153 -0.22638432951637572
vn 0.9006190319357928 0.4142399183707247 -0.13149391371181815
vn 0.9905129183995806 0.1353162232324858 -0.023951580608423177
vn 0.990512918399581 0.1353162232324833 -0.023951580608422215
vn 0.9839433511270513 -0.1564970608488271 0.08581463580617486
vn 0.8816537789471423 -0.43315258353494823 0.1872577193207884
vn -0.9006190319357924 -0.41423991837072915 0.131493913711805
vn -0.9905129183995801 -0.13531622323249362 0.023951580608406332
vn -0.9905129183995792 -0.1353162232324994 0.02395158060840853
vn -0.9839433511270514 0.156497060848826 -0.08581463580617825
vn -0.8816537789471426 0.43315258353495045 -0.18725771932078225
vn -0.6932689938447623 0.6679545950521805 -0.2705822631329491
vn -0.4366694697901592 0.8378560118953874 -0.32759285322475773
vn -0.13670167972716066 0.9257630557244559 -0.3525271839383318
vn -0.13670167972709285 0.9257630557244655 -0.3525271839383335
vn 0.5013076331013888 -0.7024991872269679 -0.5051589343362468
vn 0.6343289482507153 0.05195200969524092 -0.7713156125087621
vn 0.5098812094134347 0.2144460912983876 -0.8330870460005586
vn 0.3386093387850811 0.33260731019279355 -0.8801795799118752
vn 0.13702820316596864 0.3955873073680178 -0.9081486407997468
vn -0.07571038563073483 0.39768831519888714 -0.9143915690019871
vn -0.07571038563071544 0.39768831519888986 -0.9143915690019878
vn -0.2795345227726321 0.33880324777209364 -0.8983723113928647
vn -0.455219361495005 0.22437725518800572 -0.8616438825143348
vn -0.5860377887140099 0.06492273922405857 -0.8076786168587344
vn -0.6591845635022243 -0.12482718606480826 -0.741548302445312
vn -0.6669404355845702 -0.32705104007923974 -0.6694983738332388
vn -0.6669404355845715 -0.3270510400792289 -0.6694983738332428
vn -0.6075642029310845 -0.5222409707782812 -0.5984397277565006
vn -0.48583794115939705 -0.690908321422459 -0.5353570643217463
vn 0.6306084467755024 -0.5365566179635187 -0.5607494829020699
vn 0.6986222032925318 -0.3424888503103024 -0.6281945594159628
vn 0.699583622680987 -0.13975078741840335 -0.7007513626761512
vn 0.6995836226809822 -0.13975078741837438 -0.7007513626761618
usemtl material_0_0
f 1//1 2//2 3//3
f 2//2 1//1 4//2
f 9//4 3//3 10//4
f 3//3 9//4 1//1
f 13//5 14//6 15//5
f 14//6 13//5 16//7
f 4//2 21//8 2//2
f 21//8 4//2 22//8
f 25//9 26//9 27//9
f 26//9 25//9 28//9
f 26//9 28//9 29//9
f 29//9 28//9 30//9
f 30//9 28//9 31//9
f 30//9 31//9 32//9
f 30//9 32//9 33//9
f 33//9 32//9 34//9
f 33//9 34//9 35//9
f 35//9 34//9 36//9
f 36//9 34//9 37//9
f 36//9 37//9 38//9
f 38//9 37//9 39//9
f 38//9 39//9 40//9
f 40//9 39//9 41//9
f 40//9 41//9 42//9
f 40//9 42//9 43//9
f 43//9 42//9 44//9
f 9//4 65//10 66//10
f 65//10 9//4 10//4
f 14//6 69//11 70//11
f 69//11 14//6 16//7
f 73//12 74//12 75//12
f 74//12 73//12 76//12
f 74//12 76//12 77//12
f 77//12 76//12 78//12
f 77//12 78//12 79//12
f 79//12 78//12 80//12
f 80//12 78//12 81//12
f 80//12 81//12 82//12
f 82//12 81//12 83//12
f 82//12 83//12 84//12
f 82//12 84//12 85//12
f 85//12 84//12 86//12
f 85//12 86//12 87//12
f 87//12 86//12 88//12
f 88//12 86//12 89//12
f 88//12 89//12 90//12
f 90//12 89//12 91//12
f 90//12 91//12 92//12
f 113//13 15//5 114//13
f 15//5 113//13 13//5
f 117//14 22//8 118//14
f 22//8 117//14 21//8
f 121//15 122//16 123//16
f 122//16 121//15 124//15
f 129//17 122//16 130//17
f 122//16 129//17 123//16
f 133//18 130//17 134//18
f 130//17 133//18 129//17
f 137//19 134//18 138//20
f 134//18 137//19 133//18
f 141//21 138//20 142//21
f 138//20 141//21 137//19
f 145//22 141//21 142//21
f 141//21 145//22 146//22
f 65//10 145//22 66//10
f 145//22 65//10 146//22
f 149//23 118//14 150//23
f 118//14 149//23 117//14
f 153//24 150//23 154//25
f 150//23 153//24 149//23
f 157//26 154//25 158//26
f 154//25 157//26 153//24
f 161//27 157//26 158//26
f 157//26 161//27 162//27
f 165//28 162//27 161//27
f 162//27 165//28 166//28
f 169//29 165//28 170//29
f 165//28 169//29 166//28
f 173//30 170//29 174//31
f 170//29 173//30 169//29
f 173//30 124//15 121//15
f 124//15 173//30 174//31
f 70//11 177//32 178//32
f 177//32 70//11 69//11
f 181//33 182//34 183//33
f 182//34 181//33 184//34
f 189//35 183//33 190//35
f 183//33 189//35 181//33
f 193//36 190//35 194//36
f 190//35 193//36 189//35
f 197//37 194//36 198//38
f 194//36 197//37 193//36
f 201//39 197//37 198//38
f 197//37 201//39 202//39
f 205//40 202//39 201//39
f 202//39 205//40 206//40
f 209//41 206//40 205//40
f 206//40 209//41 210//41
f 213//42 210//41 209//41
f 210//41 213//42 214//42
f 217//43 214//42 213//42
f 214//42 217//43 218//44
f 221//45 218//44 217//43
f 218//44 221//45 222//45
f 221//45 225//46 222//45
f 225//46 221//45 226//46
f 226//46 114//13 225//46
f 114//13 226//46 113//13
f 178//32 229//47 230//47
f 229//47 178//32 177//32
f 230//47 233//48 234//48
f 233//48 230//47 229//47
f 234//48 237//49 238//50
f 237//49 234//48 233//48
f 184//34 237//49 182//34
f 237//49 184//34 238//50
usemtl material_1_0
f 5//51 6//52 7//51
f 8//53 7//51 6//52
f 6//52 11//54 8//53
f 12//54 8//53 11//54
f 17//55 18//56 19//57
f 20//56 19//57 18//56
f 23//58 5//51 24//58
f 7//51 24//58 5//51
f 45//59 46//59 47//59
f 47//59 46//59 48//59
f 46//59 49//59 48//59
f 49//59 50//59 48//59
f 48//59 50//59 51//59
f 50//59 52//59 51//59
f 51//59 52//59 53//59
f 52//59 54//59 53//59
f 53//59 54//59 55//59
f 55//59 54//59 56//59
f 54//59 57//59 56//59
f 56//59 57//59 58//59
f 57//59 59//59 58//59
f 59//59 60//59 58//59
f 58//59 60//59 61//59
f 61//59 60//59 62//59
f 60//59 63//59 62//59
f 64//59 62//59 63//59
f 12//54 11//54 67//60
f 68//60 67//60 11//54
f 17//55 19//57 71//61
f 72//61 71//61 19//57
f 93//62 94//62 95//62
f 94//62 96//62 95//62
f 95//62 96//62 97//62
f 96//62 98//62 97//62
f 97//62 98//62 99//62
f 99//62 98//62 100//62
f 98//62 101//62 100//62
f 100//62 101//62 102//62
f 101//62 103//62 102//62
f 103//62 104//62 102//62
f 102//62 104//62 105//62
f 104//62 106//62 105//62
f 105//62 106//62 107//62
f 107//62 106//62 108//62
f 106//62 109//62 108//62
f 108//62 109//62 110//62
f 109//62 111//62 110//62
f 112//62 110//62 111//62
f 18//56 115//63 20//56
f 116//63 20//56 115//63
f 24//58 119//64 23//58
f 120//64 23//58 119//64
f 125//65 126//65 127//66
f 128//66 127//66 126//65
f 128//66 131//67 127//66
f 132//67 127//66 131//67
f 131//67 135//68 132//67
f 136//68 132//67 135//68
f 135//68 139//69 136//68
f 140//70 136//68 139//69
f 139//69 143//71 140//70
f 144//71 140//70 143//71
f 147//72 148//72 143//71
f 144//71 143//71 148//72
f 147//72 67//60 148//72
f 68//60 148//72 67//60
f 119//64 151//73 120//64
f 152//73 120//64 151//73
f 151//73 155//74 152//73
f 156//75 152//73 155//74
f 155//74 159//76 156//75
f 160//76 156//75 159//76
f 163//77 164//77 159//76
f 160//76 159//76 164//77
f 167//78 168//78 163//77
f 164//77 163//77 168//78
f 167//78 171//79 168//78
f 172//79 168//78 171//79
f 171//79 175//80 172//79
f 176//81 172//79 175//80
f 176//81 175//80 125//65
f 126//65 125//65 175//80
f 71//61 72//61 179//82
f 180//82 179//82 72//61
f 185//83 186//84 187//83
f 188//84 187//83 186//84
f 186//84 191//85 188//84
f 192//85 188//84 191//85
f 191//85 195//86 192//85
f 196//86 192//85 195//86
f 195//86 199//87 196//86
f 200//88 196//86 199//87
f 203//89 204//89 199//87
f 200//88 199//87 204//89
f 207//90 208//90 203//89
f 204//89 203//89 208//90
f 211//91 212//91 207//90
f 208//90 207//90 212//91
f 215//92 216//92 211//91
f 212//91 211//91 216//92
f 219//93 220//94 215//92
f 216//92 215//92 220//94
f 223//95 224//95 219//93
f 220//94 219//93 224//95
f 227//96 224//95 228//96
f 223//95 228//96 224//95
f 115//63 227//96 116//63
f 228//96 116//63 227//96
f 179//82 180//82 231//97
f 232//97 231//97 180//82
f 231//97 232//97 235//98
f 236//98 235//98 232//97
f 235//98 236//98 239//99
f 240//100 239//99 236//98
f 240//100 185//83 239//99
f 187//83 239//99 185//83
