# SSTK version 0.8.0
# 20
mtllib original-20.mtl
o #ID111
v 0.335410 0.600287 0.472431
v 0.333617 0.600213 0.472444
v 0.334518 0.600131 0.472459
v 0.332767 0.600528 0.472388
v 0.336232 0.600670 0.472362
v 0.332027 0.601055 0.472293
v 0.336927 0.601255 0.472257
v 0.331447 0.601757 0.472167
v 0.337448 0.602002 0.472123
v 0.331067 0.602586 0.472019
v 0.337761 0.602859 0.471970
v 0.330913 0.603487 0.471857
v 0.337842 0.603769 0.471806
v 0.330995 0.604397 0.471694
v 0.337688 0.604670 0.471645
v 0.331307 0.605254 0.471540
v 0.337308 0.605499 0.471496
v 0.331829 0.606001 0.471406
v 0.336729 0.606201 0.471370
v 0.332524 0.606586 0.471301
v 0.335989 0.606727 0.471275
v 0.333346 0.606969 0.471232
v 0.335139 0.607043 0.471219
v 0.334238 0.607125 0.471204
v 0.334238 0.607125 0.471204
v 0.335139 0.607043 0.471219
v 0.333346 0.606969 0.471232
v 0.335989 0.606727 0.471275
v 0.332524 0.606586 0.471301
v 0.336729 0.606201 0.471370
v 0.331829 0.606001 0.471406
v 0.337308 0.605499 0.471496
v 0.331307 0.605254 0.471540
v 0.337688 0.604670 0.471645
v 0.330995 0.604397 0.471694
v 0.337842 0.603769 0.471806
v 0.330913 0.603487 0.471857
v 0.337761 0.602859 0.471970
v 0.331067 0.602586 0.472019
v 0.337448 0.602002 0.472123
v 0.331447 0.601757 0.472167
v 0.336927 0.601255 0.472257
v 0.332027 0.601055 0.472293
v 0.336232 0.600670 0.472362
v 0.332767 0.600528 0.472388
v 0.335410 0.600287 0.472431
v 0.333617 0.600213 0.472444
v 0.334518 0.600131 0.472459
vn 0 0.17664192088322073 0.9842751809258863
vn 0 -0.17664192088322073 -0.9842751809258863
usemtl material_0_0
f 25//2 26//2 27//2
f 26//2 28//2 27//2
f 27//2 28//2 29//2
f 28//2 30//2 29//2
f 29//2 30//2 31//2
f 30//2 32//2 31//2
f 31//2 32//2 33//2
f 32//2 34//2 33//2
f 33//2 34//2 35//2
f 34//2 36//2 35//2
f 35//2 36//2 37//2
f 36//2 38//2 37//2
f 37//2 38//2 39//2
f 38//2 40//2 39//2
f 39//2 40//2 41//2
f 40//2 42//2 41//2
f 41//2 42//2 43//2
f 42//2 44//2 43//2
f 43//2 44//2 45//2
f 44//2 46//2 45//2
f 45//2 46//2 47//2
f 48//2 47//2 46//2
usemtl material_1_0
f 1//1 2//1 3//1
f 2//1 1//1 4//1
f 4//1 1//1 5//1
f 4//1 5//1 6//1
f 6//1 5//1 7//1
f 6//1 7//1 8//1
f 8//1 7//1 9//1
f 8//1 9//1 10//1
f 10//1 9//1 11//1
f 10//1 11//1 12//1
f 12//1 11//1 13//1
f 12//1 13//1 14//1
f 14//1 13//1 15//1
f 14//1 15//1 16//1
f 16//1 15//1 17//1
f 16//1 17//1 18//1
f 18//1 17//1 19//1
f 18//1 19//1 20//1
f 20//1 19//1 21//1
f 20//1 21//1 22//1
f 22//1 21//1 23//1
f 22//1 23//1 24//1
