# SSTK version 0.8.0
# 9
mtllib original-9.mtl
o #ID44
v -0.208414 0.441503 0.517744
v -0.273452 0.377952 0.517744
v -0.157440 0.433447 0.492865
v -0.157440 0.433447 0.492865
v -0.273452 0.377952 0.517744
v -0.208414 0.441503 0.517744
v -0.222150 0.383487 0.492865
v -0.222150 0.383487 0.492865
v -0.082126 0.464799 0.492865
v -0.082126 0.464799 0.492865
v -0.319979 0.299576 0.517744
v -0.319979 0.299576 0.517744
v -0.129297 0.485897 0.517744
v -0.129297 0.485897 0.517744
v -0.271844 0.318325 0.492865
v -0.271844 0.318325 0.492865
v -0.001338 0.475406 0.492865
v -0.001338 0.475406 0.492865
v -0.344824 0.211716 0.517744
v -0.344824 0.211716 0.517744
v -0.041492 0.508109 0.517744
v -0.041492 0.508109 0.517744
v -0.303137 0.242402 0.492865
v -0.303137 0.242402 0.492865
v 0.079417 0.464548 0.492865
v 0.079417 0.464548 0.492865
v -0.346293 0.120359 0.517744
v -0.346293 0.120359 0.517744
v 0.049017 0.506626 0.517744
v 0.049017 0.506626 0.517744
v -0.313895 0.160889 0.492865
v -0.313895 0.160889 0.492865
v 0.154636 0.432962 0.492865
v 0.154636 0.432962 0.492865
v -0.324288 0.031731 0.517744
v -0.324288 0.031731 0.517744
v 0.136061 0.481548 0.517744
v 0.136061 0.481548 0.517744
v -0.303386 0.079344 0.492865
v -0.303386 0.079344 0.492865
v 0.169281 0.442089 0.507802
v 0.169281 0.421583 0.492865
v 0.169281 0.442089 0.507802
v 0.169281 0.421583 0.492865
v -0.280306 -0.048128 0.517744
v -0.280306 -0.048128 0.517744
v 0.169281 0.461456 0.517744
v 0.169281 0.461456 0.517744
v -0.272325 0.003323 0.492865
v -0.272325 0.003323 0.492865
v -0.217346 -0.113776 0.517744
v -0.217346 -0.113776 0.517744
v -0.222830 -0.061993 0.492865
v -0.222830 -0.061993 0.492865
v -0.139698 -0.160739 0.517744
v -0.139698 -0.160739 0.517744
v -0.158273 -0.112153 0.492865
v -0.158273 -0.112153 0.492865
v -0.052654 -0.185817 0.517744
v -0.052654 -0.185817 0.517744
v -0.083054 -0.143739 0.492865
v -0.083054 -0.143739 0.492865
v 0.037855 -0.187300 0.517744
v 0.037855 -0.187300 0.517744
v -0.002299 -0.154598 0.492865
v -0.002299 -0.154598 0.492865
v 0.125660 -0.165088 0.517744
v 0.125660 -0.165088 0.517744
v 0.078488 -0.143990 0.492865
v 0.078488 -0.143990 0.492865
v 0.204777 -0.120694 0.517744
v 0.204777 -0.120694 0.517744
v 0.153804 -0.112638 0.492865
v 0.153804 -0.112638 0.492865
v 0.269816 -0.057144 0.517744
v 0.269816 -0.057144 0.517744
v 0.218513 -0.062679 0.492865
v 0.218513 -0.062679 0.492865
v 0.316342 0.021232 0.517744
v 0.316342 0.021232 0.517744
v 0.268207 0.002483 0.492865
v 0.268207 0.002483 0.492865
v 0.341187 0.109093 0.517744
v 0.341187 0.109093 0.517744
v 0.299500 0.078407 0.492865
v 0.299500 0.078407 0.492865
v 0.342657 0.200450 0.517744
v 0.342657 0.200450 0.517744
v 0.310258 0.159919 0.492865
v 0.310258 0.159919 0.492865
v 0.313827 0.204281 0.501410
v 0.313827 0.204281 0.501410
v 0.304379 0.205536 0.492865
v 0.304379 0.205536 0.492865
vn 0.33403038531502016 -0.417245463949504 0.8451804094392287
vn 0.43135406401942805 -0.3171585910920368 0.8445970042277189
vn 0.29445596844527877 -0.5739022150747135 0.7641543889681522
vn 0.433943150801634 -0.4783933529336725 0.7634350933388044
vn 0.1345786128028695 -0.6302498457413295 0.7646396072131536
vn 0.49921960451546993 -0.19563132732597788 0.8441019904230138
vn 0.21377542460598128 -0.4889767510114426 0.845696047528204
vn 0.5435936534602385 -0.3504738672682562 0.7626755589893929
vn -0.0346624310455864 -0.6433832259703668 0.7647591388234429
vn 0.5331433844089514 -0.06093804913510175 0.8438274028665914
vn 0.07877697172708345 -0.5273230535423608 0.8460050744104737
vn 0.6161483992762462 -0.1989902468089514 0.7620787569170473
vn -0.20148884712983517 -0.6123493602513289 0.764480546176342
vn 0.5309084735250207 0.07784610780538954 0.8438460619324379
vn -0.06166946366968791 -0.5295663388808884 0.8460238589868403
vn 0.6469048663822614 -0.034207743374631096 0.761803074386133
vn -0.35431808192223896 -0.5393948253439038 0.7638795187823568
vn 0.4926604620244459 0.21140341548487346 0.8441529867738368
vn -0.19785032161766278 -0.4955468428303017 0.8457473480873043
vn 0.6338970669661439 0.13285465143614825 0.7619213542640078
vn -0.3823967246512915 -0.5151869698122961 0.7670431090307692
vn -0.41602240707654947 -0.5354256077201912 0.7350134525351882
vn 0.42090127775007585 0.33072674557511733 0.8446667592309082
vn -0.2662371776581406 -0.44019226653775995 0.8575246548717871
vn 0.5779544718613472 0.291052149942839 0.7624023048687107
vn 0.3203796804025114 0.42767818727218293 0.8452503939761071
vn 0.48267823394062065 0.4297344186927649 0.7631186355153141
vn 0.19785032161766278 0.49554684283030126 0.8457473480873046
vn 0.354318081922239 0.5393948253439036 0.7638795187823573
vn 0.06166946366968791 0.529566338880888 0.8460238589868405
vn 0.20148884712983517 0.6123493602513285 0.7644805461763422
vn -0.07877697172708345 0.5273230535423603 0.8460050744104739
vn 0.0346624310455864 0.6433832259703663 0.7647591388234432
vn -0.21377542460598126 0.48897675101144217 0.845696047528204
vn -0.13457861280286953 0.6302498457413291 0.7646396072131539
vn -0.33403038531502016 0.4172454639495037 0.8451804094392289
vn -0.2944559684452788 0.5739022150747133 0.7641543889681527
vn -0.43135406401942794 0.31715859109203637 0.844597004227719
vn -0.433943150801634 0.4783933529336722 0.7634350933388047
vn -0.49921960451546993 0.1956313273259775 0.8441019904230138
vn -0.5435936534602384 0.3504738672682558 0.762675558989393
vn -0.5331433844089515 0.06093804913510138 0.8438274028665916
vn -0.6161483992762463 0.19899024680895108 0.7620787569170473
vn -0.5517287696465443 -0.04274827834311323 0.8329273374328701
vn -0.6469048663822614 0.034207743374630756 0.761803074386133
vn -0.5867399594178064 -0.1073946505720009 0.8026223327636159
vn -0.6745539351512954 -0.08693489150401763 0.7330888849321663
vn -0.29445596844527877 0.5739022150747135 -0.7641543889681522
vn -0.43135406401942805 0.3171585910920368 -0.8445970042277189
vn -0.33403038531502016 0.417245463949504 -0.8451804094392287
vn -0.433943150801634 0.4783933529336725 -0.7634350933388044
vn -0.1345786128028695 0.6302498457413295 -0.7646396072131536
vn -0.49921960451546993 0.19563132732597788 -0.8441019904230138
vn -0.21377542460598128 0.4889767510114426 -0.845696047528204
vn -0.5435936534602385 0.3504738672682562 -0.7626755589893929
vn 0.0346624310455864 0.6433832259703668 -0.7647591388234429
vn -0.5331433844089514 0.06093804913510175 -0.8438274028665914
vn -0.07877697172708345 0.5273230535423608 -0.8460050744104737
vn -0.6161483992762462 0.1989902468089514 -0.7620787569170473
vn 0.20148884712983517 0.6123493602513289 -0.764480546176342
vn -0.5309084735250207 -0.07784610780538954 -0.8438460619324379
vn 0.06166946366968791 0.5295663388808884 -0.8460238589868403
vn -0.6469048663822614 0.034207743374631096 -0.761803074386133
vn 0.35431808192223896 0.5393948253439038 -0.7638795187823568
vn -0.4926604620244459 -0.21140341548487346 -0.8441529867738368
vn 0.19785032161766278 0.4955468428303017 -0.8457473480873043
vn -0.6338970669661439 -0.13285465143614825 -0.7619213542640078
vn 0.3823967246512915 0.5151869698122961 -0.7670431090307692
vn 0.41602240707654947 0.5354256077201912 -0.7350134525351882
vn -0.42090127775007585 -0.33072674557511733 -0.8446667592309082
vn 0.2662371776581406 0.44019226653775995 -0.8575246548717871
vn -0.5779544718613472 -0.291052149942839 -0.7624023048687107
vn -0.3203796804025114 -0.42767818727218293 -0.8452503939761071
vn -0.48267823394062065 -0.4297344186927649 -0.7631186355153141
vn -0.19785032161766278 -0.49554684283030126 -0.8457473480873046
vn -0.354318081922239 -0.5393948253439036 -0.7638795187823573
vn -0.06166946366968791 -0.529566338880888 -0.8460238589868405
vn -0.20148884712983517 -0.6123493602513285 -0.7644805461763422
vn 0.07877697172708345 -0.5273230535423603 -0.8460050744104739
vn -0.0346624310455864 -0.6433832259703663 -0.7647591388234432
vn 0.21377542460598126 -0.48897675101144217 -0.845696047528204
vn 0.13457861280286953 -0.6302498457413291 -0.7646396072131539
vn 0.33403038531502016 -0.4172454639495037 -0.8451804094392289
vn 0.2944559684452788 -0.5739022150747133 -0.7641543889681527
vn 0.43135406401942794 -0.31715859109203637 -0.844597004227719
vn 0.433943150801634 -0.4783933529336722 -0.7634350933388047
vn 0.49921960451546993 -0.1956313273259775 -0.8441019904230138
vn 0.5435936534602384 -0.3504738672682558 -0.762675558989393
vn 0.5331433844089515 -0.06093804913510138 -0.8438274028665916
vn 0.6161483992762463 -0.19899024680895108 -0.7620787569170473
vn 0.5517287696465443 0.04274827834311323 -0.8329273374328701
vn 0.6469048663822614 -0.034207743374630756 -0.761803074386133
vn 0.5867399594178064 0.1073946505720009 -0.8026223327636159
vn 0.6745539351512954 0.08693489150401763 -0.7330888849321663
usemtl material_0_0
f 1//1 2//2 3//3
f 3//3 2//2 7//4
f 9//5 1//1 3//3
f 7//4 2//2 11//6
f 13//7 1//1 9//5
f 7//4 11//6 15//8
f 13//7 9//5 17//9
f 15//8 11//6 19//10
f 21//11 13//7 17//9
f 15//8 19//10 23//12
f 21//11 17//9 25//13
f 23//12 19//10 27//14
f 21//11 25//13 29//15
f 23//12 27//14 31//16
f 29//15 25//13 33//17
f 31//16 27//14 35//18
f 29//15 33//17 37//19
f 31//16 35//18 39//20
f 41//21 33//17 42//22
f 33//17 41//21 37//19
f 39//20 35//18 45//23
f 37//19 41//21 47//24
f 39//20 45//23 49//25
f 49//25 45//23 51//26
f 49//25 51//26 53//27
f 53//27 51//26 55//28
f 53//27 55//28 57//29
f 57//29 55//28 59//30
f 57//29 59//30 61//31
f 61//31 59//30 63//32
f 61//31 63//32 65//33
f 65//33 63//32 67//34
f 69//35 65//33 67//34
f 71//36 69//35 67//34
f 73//37 69//35 71//36
f 75//38 73//37 71//36
f 75//38 77//39 73//37
f 79//40 77//39 75//38
f 79//40 81//41 77//39
f 83//42 81//41 79//40
f 83//42 85//43 81//41
f 87//44 85//43 83//42
f 87//44 89//45 85//43
f 91//46 89//45 87//44
f 93//47 89//45 91//46
usemtl material_1_0
f 4//48 5//49 6//50
f 8//51 5//49 4//48
f 4//48 6//50 10//52
f 12//53 5//49 8//51
f 10//52 6//50 14//54
f 16//55 12//53 8//51
f 18//56 10//52 14//54
f 20//57 12//53 16//55
f 18//56 14//54 22//58
f 24//59 20//57 16//55
f 26//60 18//56 22//58
f 28//61 20//57 24//59
f 30//62 26//60 22//58
f 32//63 28//61 24//59
f 34//64 26//60 30//62
f 36//65 28//61 32//63
f 38//66 34//64 30//62
f 40//67 36//65 32//63
f 38//66 43//68 34//64
f 44//69 34//64 43//68
f 46//70 36//65 40//67
f 48//71 43//68 38//66
f 50//72 46//70 40//67
f 52//73 46//70 50//72
f 54//74 52//73 50//72
f 56//75 52//73 54//74
f 58//76 56//75 54//74
f 60//77 56//75 58//76
f 62//78 60//77 58//76
f 64//79 60//77 62//78
f 66//80 64//79 62//78
f 68//81 64//79 66//80
f 68//81 66//80 70//82
f 68//81 70//82 72//83
f 72//83 70//82 74//84
f 72//83 74//84 76//85
f 74//84 78//86 76//85
f 76//85 78//86 80//87
f 78//86 82//88 80//87
f 80//87 82//88 84//89
f 82//88 86//90 84//89
f 84//89 86//90 88//91
f 86//90 90//92 88//91
f 88//91 90//92 92//93
f 92//93 90//92 94//94
