# SSTK version 0.8.0
# 40
mtllib original-40.mtl
o instance_11/Лопасть_Ст._машина/ID182#ID182
v 0.223268 0.531156 -0.170794
v 0.162205 0.562480 0.211836
v 0.223268 0.531156 0.211836
v 0.162205 0.562480 -0.170794
v 0.139906 0.465952 0.181337
v 0.223268 0.531156 0.211836
v 0.162205 0.562480 0.211836
v 0.159162 0.456073 0.181337
v 0.159162 0.456073 0.181337
v 0.223268 0.531156 -0.170794
v 0.223268 0.531156 0.211836
v 0.159162 0.456073 -0.140295
v 0.153335 0.449248 0.169796
v 0.153335 0.449248 -0.128754
v 0.223268 0.531156 -0.170794
v 0.139906 0.465952 -0.140295
v 0.162205 0.562480 -0.170794
v 0.159162 0.456073 -0.140295
v 0.139906 0.465952 -0.140295
v 0.162205 0.562480 0.211836
v 0.162205 0.562480 -0.170794
v 0.139906 0.465952 0.181337
v 0.137879 0.457176 -0.128754
v 0.137879 0.457176 0.169796
v 0.137879 0.457176 0.169796
v 0.159162 0.456073 0.181337
v 0.139906 0.465952 0.181337
v 0.153335 0.449248 0.169796
v 0.137879 0.457176 -0.128754
v 0.153335 0.449248 0.169796
v 0.137879 0.457176 0.169796
v 0.153335 0.449248 -0.128754
v 0.139906 0.465952 -0.140295
v 0.153335 0.449248 -0.128754
v 0.137879 0.457176 -0.128754
v 0.159162 0.456073 -0.140295
vn 0.4564237401371965 0.8897625354212061 0
vn -0.1381150371453587 -0.26924450860796384 0.953116798246045
vn 0.7605130002705874 -0.6493227059170419 0
vn -0.1381150371453587 -0.26924450860796345 -0.9531167982460452
vn -0.9743403538099015 0.22507970796496896 0
vn -0.36395945318415573 -0.709510609063207 0.6034303705189583
vn -0.4564237401371971 -0.8897625354212056 0
vn -0.36395945318415573 -0.7095106090632068 -0.6034303705189586
usemtl material_0_0
f 1//1 2//1 3//1
f 2//1 1//1 4//1
f 5//2 6//2 7//2
f 6//2 5//2 8//2
f 9//3 10//3 11//3
f 10//3 9//3 12//3
f 12//3 9//3 13//3
f 12//3 13//3 14//3
f 15//4 16//4 17//4
f 16//4 15//4 18//4
f 19//5 20//5 21//5
f 20//5 19//5 22//5
f 22//5 19//5 23//5
f 22//5 23//5 24//5
f 25//6 26//6 27//6
f 26//6 25//6 28//6
f 29//7 30//7 31//7
f 30//7 29//7 32//7
f 33//8 34//8 35//8
f 34//8 33//8 36//8
