# SSTK version 0.8.0
# 39
mtllib original-39.mtl
o group_9/ID174#ID174
v -0.136295 -0.257351 0.251417
v -0.257607 -0.194959 -0.214394
v -0.257607 -0.194959 0.251417
v -0.136295 -0.257351 -0.214394
v -0.136295 -0.257351 -0.214394
v -0.136295 -0.257351 0.251417
v -0.257607 -0.194959 -0.214394
v -0.257607 -0.194959 0.251417
v 0.132658 -0.257351 -0.214394
v -0.136295 -0.257351 -0.214394
v -0.001818 -0.278849 -0.214394
v 0.253970 -0.194959 -0.214394
v -0.257607 -0.194959 -0.214394
v 0.350245 -0.097782 -0.214394
v -0.353882 -0.097782 -0.214394
v 0.412057 0.024667 -0.214394
v -0.415693 0.024667 -0.214394
v 0.433355 0.160404 -0.214394
v -0.436992 0.160404 -0.214394
v 0.412057 0.296141 -0.214394
v -0.415693 0.296141 -0.214394
v 0.350245 0.418591 -0.214394
v -0.353882 0.418591 -0.214394
v 0.253970 0.515768 -0.214394
v -0.257607 0.515768 -0.214394
v 0.132658 0.578160 -0.214394
v -0.136295 0.578160 -0.214394
v -0.001818 0.599658 -0.214394
v -0.001818 0.599658 -0.214394
v 0.132658 0.578160 -0.214394
v -0.136295 0.578160 -0.214394
v -0.257607 0.515768 -0.214394
v 0.253970 0.515768 -0.214394
v -0.353882 0.418591 -0.214394
v 0.350245 0.418591 -0.214394
v -0.415693 0.296141 -0.214394
v 0.412057 0.296141 -0.214394
v -0.436992 0.160404 -0.214394
v 0.433355 0.160404 -0.214394
v -0.415693 0.024667 -0.214394
v 0.412057 0.024667 -0.214394
v -0.353882 -0.097782 -0.214394
v 0.350245 -0.097782 -0.214394
v -0.257607 -0.194959 -0.214394
v 0.253970 -0.194959 -0.214394
v -0.136295 -0.257351 -0.214394
v 0.132658 -0.257351 -0.214394
v -0.001818 -0.278849 -0.214394
v -0.353882 -0.097782 0.251417
v -0.353882 -0.097782 -0.214394
v -0.353882 -0.097782 -0.214394
v -0.353882 -0.097782 0.251417
v -0.001818 -0.278849 0.251417
v -0.001818 -0.278849 -0.214394
v -0.001818 -0.278849 -0.214394
v -0.001818 -0.278849 0.251417
v 0.132658 -0.257351 0.251417
v 0.132658 -0.257351 -0.214394
v 0.132658 -0.257351 -0.214394
v 0.132658 -0.257351 0.251417
v 0.253970 -0.194959 0.251417
v 0.253970 -0.194959 -0.214394
v 0.253970 -0.194959 -0.214394
v 0.253970 -0.194959 0.251417
v 0.350245 -0.097782 -0.214394
v 0.350245 -0.097782 0.251417
v 0.350245 -0.097782 -0.214394
v 0.350245 -0.097782 0.251417
v 0.412057 0.024667 -0.214394
v 0.412057 0.024667 0.251417
v 0.412057 0.024667 -0.214394
v 0.412057 0.024667 0.251417
v 0.433355 0.160404 -0.214394
v 0.433355 0.160404 0.251417
v 0.433355 0.160404 -0.214394
v 0.433355 0.160404 0.251417
v 0.412057 0.296141 -0.214394
v 0.412057 0.296141 0.251417
v 0.412057 0.296141 -0.214394
v 0.412057 0.296141 0.251417
v 0.350245 0.418591 -0.214394
v 0.350245 0.418591 0.251417
v 0.350245 0.418591 -0.214394
v 0.350245 0.418591 0.251417
v 0.253970 0.515768 -0.214394
v 0.253970 0.515768 0.251417
v 0.253970 0.515768 -0.214394
v 0.253970 0.515768 0.251417
v 0.132658 0.578160 0.251417
v 0.132658 0.578160 -0.214394
v 0.132658 0.578160 0.251417
v 0.132658 0.578160 -0.214394
v -0.001818 0.599658 0.251417
v -0.001818 0.599658 -0.214394
v -0.001818 0.599658 0.251417
v -0.001818 0.599658 -0.214394
v -0.136295 0.578160 0.251417
v -0.136295 0.578160 -0.214394
v -0.136295 0.578160 0.251417
v -0.136295 0.578160 -0.214394
v -0.257607 0.515768 0.251417
v -0.257607 0.515768 -0.214394
v -0.257607 0.515768 0.251417
v -0.257607 0.515768 -0.214394
v -0.353882 0.418591 0.251417
v -0.353882 0.418591 -0.214394
v -0.353882 0.418591 0.251417
v -0.353882 0.418591 -0.214394
v -0.415693 0.296141 -0.214394
v -0.415693 0.296141 0.251417
v -0.415693 0.296141 -0.214394
v -0.415693 0.296141 0.251417
v -0.436992 0.160404 -0.214394
v -0.436992 0.160404 0.251417
v -0.436992 0.160404 -0.214394
v -0.436992 0.160404 0.251417
v -0.415693 0.024667 -0.214394
v -0.415693 0.024667 0.251417
v -0.415693 0.024667 -0.214394
v -0.415693 0.024667 0.251417
vn 0.3116339333033851 0.9502022372178786 0
vn 0.591374542148363 0.8063970181609145 0
vn -0.3116339333033851 -0.9502022372178786 0
vn -0.591374542148363 -0.8063970181609145 0
vn 0 0 1
vn 0 0 -1
vn 0.8116134785704835 0.5841947974800179 0
vn -0.8116134785704835 -0.5841947974800179 0
vn 0 1 0
vn 0 -1 0
vn -0.3116339333033851 0.9502022372178786 0
vn 0.3116339333033851 -0.9502022372178786 0
vn -0.591374542148363 0.8063970181609145 0
vn 0.591374542148363 -0.8063970181609145 0
vn -0.8116134785704835 0.5841947974800179 0
vn 0.8116134785704835 -0.5841947974800179 0
vn -0.9518972379459353 0.30641744139474114 0
vn 0.9518972379459353 -0.30641744139474114 0
vn -1 0 0
vn 1 0 0
vn -0.9518972379459353 -0.30641744139474114 0
vn 0.9518972379459353 0.30641744139474114 0
usemtl material_0_0
f 1//1 2//2 3//2
f 2//2 1//1 4//1
f 5//3 6//3 7//4
f 8//4 7//4 6//3
f 9//5 10//5 11//5
f 10//5 9//5 12//5
f 10//5 12//5 13//5
f 13//5 12//5 14//5
f 13//5 14//5 15//5
f 15//5 14//5 16//5
f 15//5 16//5 17//5
f 17//5 16//5 18//5
f 17//5 18//5 19//5
f 19//5 18//5 20//5
f 19//5 20//5 21//5
f 21//5 20//5 22//5
f 21//5 22//5 23//5
f 23//5 22//5 24//5
f 23//5 24//5 25//5
f 25//5 24//5 26//5
f 25//5 26//5 27//5
f 27//5 26//5 28//5
f 29//6 30//6 31//6
f 31//6 30//6 32//6
f 30//6 33//6 32//6
f 32//6 33//6 34//6
f 33//6 35//6 34//6
f 34//6 35//6 36//6
f 35//6 37//6 36//6
f 36//6 37//6 38//6
f 37//6 39//6 38//6
f 38//6 39//6 40//6
f 39//6 41//6 40//6
f 40//6 41//6 42//6
f 41//6 43//6 42//6
f 42//6 43//6 44//6
f 43//6 45//6 44//6
f 44//6 45//6 46//6
f 45//6 47//6 46//6
f 48//6 46//6 47//6
f 2//2 49//7 3//2
f 49//7 2//2 50//7
f 51//8 7//4 52//8
f 8//4 52//8 7//4
f 53//9 4//1 1//1
f 4//1 53//9 54//9
f 55//10 56//10 5//3
f 6//3 5//3 56//10
f 57//11 54//9 53//9
f 54//9 57//11 58//11
f 59//12 60//12 55//10
f 56//10 55//10 60//12
f 61//13 58//11 57//11
f 58//11 61//13 62//13
f 63//14 64//14 59//12
f 60//12 59//12 64//14
f 65//15 61//13 66//15
f 61//13 65//15 62//13
f 63//14 67//16 64//14
f 68//16 64//14 67//16
f 69//17 66//15 70//17
f 66//15 69//17 65//15
f 67//16 71//18 68//16
f 72//18 68//16 71//18
f 73//19 70//17 74//19
f 70//17 73//19 69//17
f 71//18 75//20 72//18
f 76//20 72//18 75//20
f 77//21 74//19 78//21
f 74//19 77//21 73//19
f 75//20 79//22 76//20
f 80//22 76//20 79//22
f 81//8 78//21 82//8
f 78//21 81//8 77//21
f 79//22 83//7 80//22
f 84//7 80//22 83//7
f 85//4 82//8 86//4
f 82//8 85//4 81//8
f 83//7 87//2 84//7
f 88//2 84//7 87//2
f 85//4 89//3 90//3
f 89//3 85//4 86//4
f 88//2 87//2 91//1
f 92//1 91//1 87//2
f 90//3 93//10 94//10
f 93//10 90//3 89//3
f 91//1 92//1 95//9
f 96//9 95//9 92//1
f 94//10 97//12 98//12
f 97//12 94//10 93//10
f 95//9 96//9 99//11
f 100//11 99//11 96//9
f 98//12 101//14 102//14
f 101//14 98//12 97//12
f 99//11 100//11 103//13
f 104//13 103//13 100//11
f 102//14 105//16 106//16
f 105//16 102//14 101//14
f 103//13 104//13 107//15
f 108//15 107//15 104//13
f 109//18 105//16 110//18
f 105//16 109//18 106//16
f 108//15 111//17 107//15
f 112//17 107//15 111//17
f 113//20 110//18 114//20
f 110//18 113//20 109//18
f 111//17 115//19 112//17
f 116//19 112//17 115//19
f 117//22 114//20 118//22
f 114//20 117//22 113//20
f 115//19 119//21 116//19
f 120//21 116//19 119//21
f 50//7 118//22 49//7
f 118//22 50//7 117//22
f 119//21 51//8 120//21
f 52//8 120//21 51//8
