# SSTK version 0.8.0
# 18
mtllib original-18.mtl
o #ID97
v 0.249504 0.588762 0.474414
v 0.247710 0.588689 0.474425
v 0.248611 0.588606 0.474437
v 0.246861 0.589004 0.474378
v 0.250325 0.589146 0.474357
v 0.246121 0.589531 0.474300
v 0.251020 0.589731 0.474270
v 0.245541 0.590233 0.474196
v 0.251542 0.590478 0.474159
v 0.245161 0.591062 0.474072
v 0.251854 0.591335 0.474032
v 0.245082 0.591525 0.474004
v 0.251872 0.591525 0.474004
v 0.251872 0.591525 0.474004
v 0.251854 0.591335 0.474032
v 0.245082 0.591525 0.474004
v 0.245161 0.591062 0.474072
v 0.251542 0.590478 0.474159
v 0.245541 0.590233 0.474196
v 0.251020 0.589731 0.474270
v 0.246121 0.589531 0.474300
v 0.250325 0.589146 0.474357
v 0.246861 0.589004 0.474378
v 0.249504 0.588762 0.474414
v 0.247710 0.588689 0.474425
v 0.248611 0.588606 0.474437
v 0.251936 0.592245 0.473874
v 0.245007 0.591962 0.473925
v 0.245088 0.592872 0.473762
v 0.251782 0.593145 0.473713
v 0.245401 0.593730 0.473608
v 0.251402 0.593975 0.473564
v 0.245923 0.594477 0.473474
v 0.250822 0.594677 0.473438
v 0.246618 0.595061 0.473369
v 0.250082 0.595203 0.473344
v 0.247440 0.595445 0.473300
v 0.249233 0.595518 0.473287
v 0.248331 0.595601 0.473272
v 0.248331 0.595601 0.473272
v 0.249233 0.595518 0.473287
v 0.247440 0.595445 0.473300
v 0.250082 0.595203 0.473344
v 0.246618 0.595061 0.473369
v 0.250822 0.594677 0.473438
v 0.245923 0.594477 0.473474
v 0.251402 0.593975 0.473564
v 0.245401 0.593730 0.473608
v 0.251782 0.593145 0.473713
v 0.245088 0.592872 0.473762
v 0.251936 0.592245 0.473874
v 0.245007 0.591962 0.473925
vn 0 0.14699469818591845 0.9891372800098228
vn 0 0.16342665992522917 0.9865554859336009
vn 0 0.1626744717222608 0.986679794183444
vn 0 0.17664192088322073 0.9842751809258863
vn 0 -0.1626744717222608 -0.986679794183444
vn 0 -0.14699469818591845 -0.9891372800098228
vn 0 -0.16342665992522917 -0.9865554859336009
vn 0 -0.17664192088322073 -0.9842751809258863
usemtl material_0_0
f 14//5 15//6 16//7
f 16//7 15//6 17//6
f 15//6 18//6 17//6
f 17//6 18//6 19//6
f 18//6 20//6 19//6
f 19//6 20//6 21//6
f 20//6 22//6 21//6
f 21//6 22//6 23//6
f 22//6 24//6 23//6
f 23//6 24//6 25//6
f 26//6 25//6 24//6
f 40//8 41//8 42//8
f 41//8 43//8 42//8
f 42//8 43//8 44//8
f 43//8 45//8 44//8
f 44//8 45//8 46//8
f 45//8 47//8 46//8
f 46//8 47//8 48//8
f 47//8 49//8 48//8
f 48//8 49//8 50//8
f 49//8 51//8 50//8
f 50//8 51//8 52//8
f 52//8 51//8 16//7
f 14//5 16//7 51//8
usemtl material_1_0
f 1//1 2//1 3//1
f 2//1 1//1 4//1
f 4//1 1//1 5//1
f 4//1 5//1 6//1
f 6//1 5//1 7//1
f 6//1 7//1 8//1
f 8//1 7//1 9//1
f 8//1 9//1 10//1
f 10//1 9//1 11//1
f 10//1 11//1 12//2
f 12//2 11//1 13//3
f 27//4 12//2 13//3
f 12//2 27//4 28//4
f 28//4 27//4 29//4
f 29//4 27//4 30//4
f 29//4 30//4 31//4
f 31//4 30//4 32//4
f 31//4 32//4 33//4
f 33//4 32//4 34//4
f 33//4 34//4 35//4
f 35//4 34//4 36//4
f 35//4 36//4 37//4
f 37//4 36//4 38//4
f 37//4 38//4 39//4
