# SSTK version 0.8.0
# 4
mtllib original-4.mtl
o #ID16
v 0.005454 0.626665 0.491333
v -0.009091 0.626665 0.491333
v -0.001819 0.625740 0.491600
v 0.012232 0.629376 0.490550
v -0.015869 0.629376 0.490550
v 0.018051 0.633689 0.489305
v -0.021689 0.633689 0.489305
v 0.022517 0.639310 0.487681
v -0.026154 0.639310 0.487681
v 0.025324 0.645855 0.485791
v -0.028961 0.645855 0.485791
v 0.026282 0.652879 0.483762
v -0.029919 0.652879 0.483762
v 0.025324 0.659903 0.481733
v -0.028961 0.659903 0.481733
v 0.022517 0.666449 0.479843
v -0.026154 0.666449 0.479843
v 0.018051 0.672069 0.478220
v -0.021689 0.672069 0.478220
v 0.012232 0.676382 0.476974
v -0.015869 0.676382 0.476974
v -0.009091 0.679093 0.476191
v 0.005454 0.679093 0.476191
v -0.001819 0.680018 0.475924
v -0.001819 0.680018 0.475924
v 0.005454 0.679093 0.476191
v -0.009091 0.679093 0.476191
v 0.012232 0.676382 0.476974
v -0.015869 0.676382 0.476974
v -0.021689 0.672069 0.478220
v 0.018051 0.672069 0.478220
v -0.026154 0.666449 0.479843
v 0.022517 0.666449 0.479843
v -0.028961 0.659903 0.481733
v 0.025324 0.659903 0.481733
v -0.029919 0.652879 0.483762
v 0.026282 0.652879 0.483762
v -0.028961 0.645855 0.485791
v 0.025324 0.645855 0.485791
v -0.026154 0.639310 0.487681
v 0.022517 0.639310 0.487681
v -0.021689 0.633689 0.489305
v 0.018051 0.633689 0.489305
v -0.015869 0.629376 0.490550
v 0.012232 0.629376 0.490550
v -0.009091 0.626665 0.491333
v 0.005454 0.626665 0.491333
v -0.001819 0.625740 0.491600
vn 0 0.27748061899789744 0.9607312350915546
vn 0 -0.27748061899789744 -0.9607312350915546
usemtl material_0_0
f 1//1 2//1 3//1
f 2//1 1//1 4//1
f 2//1 4//1 5//1
f 5//1 4//1 6//1
f 5//1 6//1 7//1
f 7//1 6//1 8//1
f 7//1 8//1 9//1
f 9//1 8//1 10//1
f 9//1 10//1 11//1
f 11//1 10//1 12//1
f 11//1 12//1 13//1
f 13//1 12//1 14//1
f 13//1 14//1 15//1
f 15//1 14//1 16//1
f 15//1 16//1 17//1
f 17//1 16//1 18//1
f 17//1 18//1 19//1
f 19//1 18//1 20//1
f 19//1 20//1 21//1
f 21//1 20//1 22//1
f 22//1 20//1 23//1
f 22//1 23//1 24//1
f 25//2 26//2 27//2
f 26//2 28//2 27//2
f 27//2 28//2 29//2
f 29//2 28//2 30//2
f 28//2 31//2 30//2
f 30//2 31//2 32//2
f 31//2 33//2 32//2
f 32//2 33//2 34//2
f 33//2 35//2 34//2
f 34//2 35//2 36//2
f 35//2 37//2 36//2
f 36//2 37//2 38//2
f 37//2 39//2 38//2
f 38//2 39//2 40//2
f 39//2 41//2 40//2
f 40//2 41//2 42//2
f 41//2 43//2 42//2
f 42//2 43//2 44//2
f 43//2 45//2 44//2
f 44//2 45//2 46//2
f 45//2 47//2 46//2
f 48//2 46//2 47//2
