# SSTK version 0.8.0
# 5
mtllib original-5.mtl
o #ID22
v -0.011915 0.607840 0.467213
v 0.008278 0.607840 0.467213
v -0.001819 0.606556 0.467584
v -0.021323 0.611603 0.466126
v 0.017686 0.611603 0.466126
v -0.029403 0.617591 0.464396
v 0.025765 0.617591 0.464396
v -0.035602 0.625393 0.462143
v 0.031965 0.625393 0.462143
v 0.035862 0.634480 0.459518
v -0.039499 0.634480 0.459518
v -0.040828 0.644231 0.456702
v 0.037191 0.644231 0.456702
v -0.039499 0.653982 0.453886
v 0.035862 0.653982 0.453886
v -0.035602 0.663068 0.451262
v 0.031965 0.663068 0.451262
v 0.025765 0.670871 0.449008
v -0.029403 0.670871 0.449008
v -0.021323 0.676858 0.447279
v 0.017686 0.676858 0.447279
v -0.011915 0.680622 0.446192
v 0.008278 0.680622 0.446192
v -0.001819 0.681906 0.445821
v -0.001819 0.681906 0.445821
v -0.011915 0.680622 0.446192
v 0.008278 0.680622 0.446192
v 0.017686 0.676858 0.447279
v -0.021323 0.676858 0.447279
v 0.025765 0.670871 0.449008
v -0.029403 0.670871 0.449008
v -0.035602 0.663068 0.451262
v 0.031965 0.663068 0.451262
v 0.035862 0.653982 0.453886
v -0.039499 0.653982 0.453886
v 0.037191 0.644231 0.456702
v -0.040828 0.644231 0.456702
v 0.035862 0.634480 0.459518
v -0.039499 0.634480 0.459518
v -0.035602 0.625393 0.462143
v 0.031965 0.625393 0.462143
v 0.025765 0.617591 0.464396
v -0.029403 0.617591 0.464396
v 0.017686 0.611603 0.466126
v -0.021323 0.611603 0.466126
v 0.008278 0.607840 0.467213
v -0.011915 0.607840 0.467213
v -0.001819 0.606556 0.467584
vn 0 -0.2774806189978977 -0.9607312350915544
vn 0 0.2774806189978977 0.9607312350915544
usemtl material_0_0
f 1//1 2//1 3//1
f 2//1 1//1 4//1
f 2//1 4//1 5//1
f 5//1 4//1 6//1
f 5//1 6//1 7//1
f 7//1 6//1 8//1
f 7//1 8//1 9//1
f 9//1 8//1 10//1
f 10//1 8//1 11//1
f 10//1 11//1 12//1
f 10//1 12//1 13//1
f 13//1 12//1 14//1
f 13//1 14//1 15//1
f 15//1 14//1 16//1
f 15//1 16//1 17//1
f 17//1 16//1 18//1
f 18//1 16//1 19//1
f 18//1 19//1 20//1
f 18//1 20//1 21//1
f 21//1 20//1 22//1
f 21//1 22//1 23//1
f 23//1 22//1 24//1
f 25//2 26//2 27//2
f 27//2 26//2 28//2
f 26//2 29//2 28//2
f 28//2 29//2 30//2
f 29//2 31//2 30//2
f 31//2 32//2 30//2
f 30//2 32//2 33//2
f 33//2 32//2 34//2
f 32//2 35//2 34//2
f 34//2 35//2 36//2
f 35//2 37//2 36//2
f 36//2 37//2 38//2
f 37//2 39//2 38//2
f 39//2 40//2 38//2
f 38//2 40//2 41//2
f 41//2 40//2 42//2
f 40//2 43//2 42//2
f 42//2 43//2 44//2
f 43//2 45//2 44//2
f 44//2 45//2 46//2
f 45//2 47//2 46//2
f 48//2 46//2 47//2
