# SSTK version 0.8.0
# 22
mtllib original-22.mtl
o #ID123
v 0.200481 0.625906 0.467379
v 0.198687 0.625833 0.467395
v 0.199588 0.625751 0.467413
v 0.197838 0.626149 0.467326
v 0.201302 0.626290 0.467295
v 0.197098 0.626675 0.467211
v 0.201997 0.626875 0.467168
v 0.196518 0.627377 0.467058
v 0.202519 0.627622 0.467005
v 0.196138 0.628206 0.466877
v 0.202831 0.628479 0.466817
v 0.195984 0.629106 0.466681
v 0.202913 0.629389 0.466619
v 0.196065 0.630016 0.466482
v 0.202759 0.630290 0.466422
v 0.196378 0.630874 0.466295
v 0.202379 0.631119 0.466241
v 0.196900 0.631621 0.466132
v 0.201800 0.631821 0.466088
v 0.197595 0.632206 0.466004
v 0.201060 0.632347 0.465973
v 0.198417 0.632589 0.465920
v 0.200210 0.632663 0.465904
v 0.199308 0.632745 0.465886
v 0.199308 0.632745 0.465886
v 0.200210 0.632663 0.465904
v 0.198417 0.632589 0.465920
v 0.201060 0.632347 0.465973
v 0.197595 0.632206 0.466004
v 0.201800 0.631821 0.466088
v 0.196900 0.631621 0.466132
v 0.202379 0.631119 0.466241
v 0.196378 0.630874 0.466295
v 0.202759 0.630290 0.466422
v 0.196065 0.630016 0.466482
v 0.202913 0.629389 0.466619
v 0.195984 0.629106 0.466681
v 0.202831 0.628479 0.466817
v 0.196138 0.628206 0.466877
v 0.202519 0.627622 0.467005
v 0.196518 0.627377 0.467058
v 0.201997 0.626875 0.467168
v 0.197098 0.626675 0.467211
v 0.201302 0.626290 0.467295
v 0.197838 0.626149 0.467326
v 0.200481 0.625906 0.467379
v 0.198687 0.625833 0.467395
v 0.199588 0.625751 0.467413
vn 0 0.21329884175822658 0.9769870030377061
vn 0 -0.21329884175822658 -0.9769870030377061
usemtl material_0_0
f 25//2 26//2 27//2
f 26//2 28//2 27//2
f 27//2 28//2 29//2
f 28//2 30//2 29//2
f 29//2 30//2 31//2
f 30//2 32//2 31//2
f 31//2 32//2 33//2
f 32//2 34//2 33//2
f 33//2 34//2 35//2
f 34//2 36//2 35//2
f 35//2 36//2 37//2
f 36//2 38//2 37//2
f 37//2 38//2 39//2
f 38//2 40//2 39//2
f 39//2 40//2 41//2
f 40//2 42//2 41//2
f 41//2 42//2 43//2
f 42//2 44//2 43//2
f 43//2 44//2 45//2
f 44//2 46//2 45//2
f 45//2 46//2 47//2
f 48//2 47//2 46//2
usemtl material_1_0
f 1//1 2//1 3//1
f 2//1 1//1 4//1
f 4//1 1//1 5//1
f 4//1 5//1 6//1
f 6//1 5//1 7//1
f 6//1 7//1 8//1
f 8//1 7//1 9//1
f 8//1 9//1 10//1
f 10//1 9//1 11//1
f 10//1 11//1 12//1
f 12//1 11//1 13//1
f 12//1 13//1 14//1
f 14//1 13//1 15//1
f 14//1 15//1 16//1
f 16//1 15//1 17//1
f 16//1 17//1 18//1
f 18//1 17//1 19//1
f 18//1 19//1 20//1
f 20//1 19//1 21//1
f 20//1 21//1 22//1
f 22//1 21//1 23//1
f 22//1 23//1 24//1
