# SSTK version 0.8.0
# 30
mtllib original-30.mtl
o instance_6/Кнопка_Ст._машина/ID134#ID134
v 0.193052 0.678517 0.452982
v 0.197475 0.677290 0.449976
v 0.193137 0.677337 0.449850
v 0.197389 0.678470 0.453107
v 0.197389 0.678470 0.453107
v 0.193052 0.678517 0.452982
v 0.197475 0.677290 0.449976
v 0.193137 0.677337 0.449850
v 0.188899 0.677288 0.453296
v 0.188985 0.676108 0.450165
v 0.188899 0.677288 0.453296
v 0.188985 0.676108 0.450165
v 0.197389 0.678470 0.453107
v 0.193248 0.677456 0.455115
v 0.197037 0.677415 0.455225
v 0.193052 0.678517 0.452982
v 0.193052 0.678517 0.452982
v 0.197389 0.678470 0.453107
v 0.193248 0.677456 0.455115
v 0.197037 0.677415 0.455225
v 0.201572 0.675970 0.450528
v 0.201487 0.677150 0.453659
v 0.201487 0.677150 0.453659
v 0.201572 0.675970 0.450528
v 0.192580 0.651302 0.458701
v 0.201070 0.652484 0.458512
v 0.196917 0.651255 0.458826
v 0.188482 0.652621 0.458149
v 0.204631 0.654869 0.457789
v 0.207251 0.658177 0.456729
v 0.185025 0.655084 0.457223
v 0.182547 0.658448 0.456016
v 0.208676 0.662084 0.455434
v 0.181291 0.662384 0.454644
v 0.208764 0.666208 0.454032
v 0.207507 0.670144 0.452661
v 0.181379 0.666508 0.453242
v 0.205029 0.673508 0.451453
v 0.182803 0.670415 0.451948
v 0.201572 0.675970 0.450528
v 0.185424 0.673723 0.450887
v 0.188985 0.676108 0.450165
v 0.197475 0.677290 0.449976
v 0.193137 0.677337 0.449850
v 0.193137 0.677337 0.449850
v 0.188985 0.676108 0.450165
v 0.197475 0.677290 0.449976
v 0.201572 0.675970 0.450528
v 0.185424 0.673723 0.450887
v 0.182803 0.670415 0.451948
v 0.205029 0.673508 0.451453
v 0.181379 0.666508 0.453242
v 0.207507 0.670144 0.452661
v 0.181291 0.662384 0.454644
v 0.208764 0.666208 0.454032
v 0.208676 0.662084 0.455434
v 0.182547 0.658448 0.456016
v 0.207251 0.658177 0.456729
v 0.185025 0.655084 0.457223
v 0.188482 0.652621 0.458149
v 0.204631 0.654869 0.457789
v 0.201070 0.652484 0.458512
v 0.192580 0.651302 0.458701
v 0.196917 0.651255 0.458826
v 0.185424 0.673723 0.450887
v 0.185339 0.674903 0.454019
v 0.185424 0.673723 0.450887
v 0.185339 0.674903 0.454019
v 0.188899 0.677288 0.453296
v 0.189621 0.676383 0.455390
v 0.188899 0.677288 0.453296
v 0.189621 0.676383 0.455390
v 0.200177 0.655748 0.462681
v 0.192762 0.654716 0.462846
v 0.196550 0.654675 0.462955
v 0.203287 0.657832 0.462050
v 0.189183 0.655869 0.462364
v 0.205576 0.660721 0.461123
v 0.186163 0.658019 0.461555
v 0.183999 0.660957 0.460501
v 0.206820 0.664134 0.459993
v 0.182901 0.664396 0.459302
v 0.206897 0.667736 0.458768
v 0.205800 0.671174 0.457570
v 0.182978 0.667997 0.458078
v 0.203635 0.674112 0.456515
v 0.184222 0.671410 0.456947
v 0.186511 0.674299 0.456021
v 0.200616 0.676263 0.455707
v 0.189621 0.676383 0.455390
v 0.197037 0.677415 0.455225
v 0.193248 0.677456 0.455115
v 0.193248 0.677456 0.455115
v 0.197037 0.677415 0.455225
v 0.189621 0.676383 0.455390
v 0.200616 0.676263 0.455707
v 0.186511 0.674299 0.456021
v 0.203635 0.674112 0.456515
v 0.184222 0.671410 0.456947
v 0.182978 0.667997 0.458078
v 0.205800 0.671174 0.457570
v 0.182901 0.664396 0.459302
v 0.206897 0.667736 0.458768
v 0.206820 0.664134 0.459993
v 0.183999 0.660957 0.460501
v 0.205576 0.660721 0.461123
v 0.186163 0.658019 0.461555
v 0.189183 0.655869 0.462364
v 0.203287 0.657832 0.462050
v 0.192762 0.654716 0.462846
v 0.200177 0.655748 0.462681
v 0.196550 0.654675 0.462955
v 0.201487 0.677150 0.453659
v 0.200616 0.676263 0.455707
v 0.201487 0.677150 0.453659
v 0.200616 0.676263 0.455707
v 0.205029 0.673508 0.451453
v 0.204944 0.674688 0.454584
v 0.205029 0.673508 0.451453
v 0.204944 0.674688 0.454584
v 0.192580 0.651302 0.458701
v 0.188397 0.653801 0.461280
v 0.188482 0.652621 0.458149
v 0.192495 0.652482 0.461832
v 0.192495 0.652482 0.461832
v 0.192580 0.651302 0.458701
v 0.188397 0.653801 0.461280
v 0.188482 0.652621 0.458149
v 0.185025 0.655084 0.457223
v 0.184940 0.656263 0.460355
v 0.185025 0.655084 0.457223
v 0.184940 0.656263 0.460355
v 0.182547 0.658448 0.456016
v 0.182462 0.659627 0.459147
v 0.182547 0.658448 0.456016
v 0.182462 0.659627 0.459147
v 0.181291 0.662384 0.454644
v 0.181205 0.663564 0.457775
v 0.181291 0.662384 0.454644
v 0.181205 0.663564 0.457775
v 0.181379 0.666508 0.453242
v 0.181294 0.667687 0.456374
v 0.181379 0.666508 0.453242
v 0.181294 0.667687 0.456374
v 0.182718 0.671594 0.455079
v 0.182803 0.670415 0.451948
v 0.182803 0.670415 0.451948
v 0.182718 0.671594 0.455079
v 0.207507 0.670144 0.452661
v 0.207422 0.671324 0.455792
v 0.207507 0.670144 0.452661
v 0.207422 0.671324 0.455792
v 0.208764 0.666208 0.454032
v 0.208678 0.667388 0.457164
v 0.208764 0.666208 0.454032
v 0.208678 0.667388 0.457164
v 0.208676 0.662084 0.455434
v 0.208590 0.663264 0.458566
v 0.208676 0.662084 0.455434
v 0.208590 0.663264 0.458566
v 0.207166 0.659357 0.459860
v 0.207251 0.658177 0.456729
v 0.207251 0.658177 0.456729
v 0.207166 0.659357 0.459860
v 0.204545 0.656049 0.460921
v 0.204631 0.654869 0.457789
v 0.204631 0.654869 0.457789
v 0.204545 0.656049 0.460921
v 0.201070 0.652484 0.458512
v 0.200984 0.653663 0.461643
v 0.201070 0.652484 0.458512
v 0.200984 0.653663 0.461643
v 0.196917 0.651255 0.458826
v 0.196832 0.652434 0.461957
v 0.196917 0.651255 0.458826
v 0.196832 0.652434 0.461957
v 0.185339 0.674903 0.454019
v 0.186511 0.674299 0.456021
v 0.185339 0.674903 0.454019
v 0.186511 0.674299 0.456021
v 0.186163 0.658019 0.461555
v 0.182462 0.659627 0.459147
v 0.184940 0.656263 0.460355
v 0.183999 0.660957 0.460501
v 0.183999 0.660957 0.460501
v 0.186163 0.658019 0.461555
v 0.182462 0.659627 0.459147
v 0.184940 0.656263 0.460355
v 0.189183 0.655869 0.462364
v 0.188397 0.653801 0.461280
v 0.189183 0.655869 0.462364
v 0.188397 0.653801 0.461280
v 0.192762 0.654716 0.462846
v 0.192495 0.652482 0.461832
v 0.192762 0.654716 0.462846
v 0.192495 0.652482 0.461832
v 0.196550 0.654675 0.462955
v 0.196832 0.652434 0.461957
v 0.196550 0.654675 0.462955
v 0.196832 0.652434 0.461957
v 0.200984 0.653663 0.461643
v 0.200177 0.655748 0.462681
v 0.200177 0.655748 0.462681
v 0.200984 0.653663 0.461643
v 0.204545 0.656049 0.460921
v 0.203287 0.657832 0.462050
v 0.203287 0.657832 0.462050
v 0.204545 0.656049 0.460921
v 0.207166 0.659357 0.459860
v 0.205576 0.660721 0.461123
v 0.205576 0.660721 0.461123
v 0.207166 0.659357 0.459860
v 0.208590 0.663264 0.458566
v 0.206820 0.664134 0.459993
v 0.206820 0.664134 0.459993
v 0.208590 0.663264 0.458566
v 0.208678 0.667388 0.457164
v 0.206897 0.667736 0.458768
v 0.206897 0.667736 0.458768
v 0.208678 0.667388 0.457164
v 0.207422 0.671324 0.455792
v 0.205800 0.671174 0.457570
v 0.205800 0.671174 0.457570
v 0.207422 0.671324 0.455792
v 0.203635 0.674112 0.456515
v 0.204944 0.674688 0.454584
v 0.204944 0.674688 0.454584
v 0.203635 0.674112 0.456515
v 0.182718 0.671594 0.455079
v 0.184222 0.671410 0.456947
v 0.182718 0.671594 0.455079
v 0.184222 0.671410 0.456947
v 0.181294 0.667687 0.456374
v 0.182978 0.667997 0.458078
v 0.181294 0.667687 0.456374
v 0.182978 0.667997 0.458078
v 0.181205 0.663564 0.457775
v 0.182901 0.664396 0.459302
v 0.181205 0.663564 0.457775
v 0.182901 0.664396 0.459302
vn -0.1367016797270746 0.9257630557244632 -0.3525271839383465
vn 0.17702736043752482 0.9225889119600976 -0.34276962115217574
vn -0.13670167972714067 0.925763055724454 -0.3525271839383449
vn -0.43666946979015897 0.8378560118953852 -0.3275928532247634
vn 0.10634847957664141 0.8829096951949784 0.4573406509621105
vn -0.11322029973883238 0.8855222259995136 0.45059022513578284
vn -0.11322029973876914 0.8855222259995225 0.4505902251357814
vn 0.47324807831270177 0.8285433969227525 -0.2992525618754849
vn 0.023778636478080664 -0.3222190802657962 -0.9463664410575365
vn -0.6932689938447623 0.6679545950521796 -0.27058226313295175
vn -0.3229316374180342 0.8231164532243038 0.46711290068456657
vn -0.023778636478083124 0.3222190802657954 0.9463664410575366
vn 0.31307595739938215 0.8155800019757171 0.486634056839171
vn 0.7225537379534372 0.6531969313453138 -0.22638432951638038
vn -0.17702736043752462 -0.9225889119601007 0.34276962115216725
vn -0.47324807831270177 -0.8285433969227559 0.29925256187547616
vn -0.7225537379534371 -0.6531969313453153 0.22638432951637572
vn -0.9006190319357928 -0.4142399183707247 0.13149391371181815
vn -0.9905129183995806 -0.1353162232324858 0.023951580608423177
vn -0.990512918399581 -0.1353162232324833 0.023951580608422215
vn -0.9839433511270513 0.1564970608488271 -0.08581463580617486
vn -0.8816537789471423 0.43315258353494823 -0.1872577193207884
vn 0.9006190319357924 0.41423991837072915 -0.131493913711805
vn 0.9905129183995801 0.13531622323249362 -0.023951580608406332
vn 0.9905129183995792 0.1353162232324994 -0.02395158060840853
vn 0.9839433511270514 -0.156497060848826 0.08581463580617825
vn 0.8816537789471426 -0.43315258353495045 0.18725771932078225
vn 0.6932689938447623 -0.6679545950521805 0.2705822631329491
vn 0.4366694697901592 -0.8378560118953874 0.32759285322475773
vn 0.13670167972716066 -0.9257630557244559 0.3525271839383318
vn 0.13670167972709285 -0.9257630557244655 0.3525271839383335
vn -0.5013076331013888 0.7024991872269679 0.5051589343362468
vn -0.5098812094134347 -0.2144460912983876 0.8330870460005586
vn -0.6343289482507153 -0.05195200969524092 0.7713156125087621
vn -0.3386093387850811 -0.33260731019279355 0.8801795799118752
vn -0.13702820316596864 -0.3955873073680178 0.9081486407997468
vn 0.07571038563073483 -0.39768831519888714 0.9143915690019871
vn 0.07571038563071544 -0.39768831519888986 0.9143915690019878
vn 0.2795345227726321 -0.33880324777209364 0.8983723113928647
vn 0.455219361495005 -0.22437725518800572 0.8616438825143348
vn 0.5860377887140099 -0.06492273922405857 0.8076786168587344
vn 0.6591845635022243 0.12482718606480826 0.741548302445312
vn 0.6669404355845715 0.3270510400792289 0.6694983738332428
vn 0.6669404355845702 0.32705104007923974 0.6694983738332388
vn 0.6075642029310845 0.5222409707782812 0.5984397277565006
vn 0.48583794115939705 0.690908321422459 0.5353570643217463
vn -0.6306084467755024 0.5365566179635187 0.5607494829020699
vn -0.6986222032925318 0.3424888503103024 0.6281945594159628
vn -0.699583622680987 0.13975078741840335 0.7007513626761512
vn -0.6995836226809822 0.13975078741837438 0.7007513626761618
vn -0.17702736043752482 -0.9225889119600976 0.34276962115217574
vn 0.1367016797270746 -0.9257630557244632 0.3525271839383465
vn 0.13670167972714067 -0.925763055724454 0.3525271839383449
vn 0.43666946979015897 -0.8378560118953852 0.3275928532247634
vn 0.11322029973876914 -0.8855222259995225 -0.4505902251357814
vn -0.10634847957664141 -0.8829096951949784 -0.4573406509621105
vn 0.11322029973883238 -0.8855222259995136 -0.45059022513578284
vn -0.47324807831270177 -0.8285433969227525 0.2992525618754849
vn -0.023778636478080664 0.3222190802657962 0.9463664410575365
vn 0.6932689938447623 -0.6679545950521796 0.27058226313295175
vn 0.3229316374180342 -0.8231164532243038 -0.46711290068456657
vn 0.023778636478083124 -0.3222190802657954 -0.9463664410575366
vn -0.31307595739938215 -0.8155800019757171 -0.486634056839171
vn -0.7225537379534372 -0.6531969313453138 0.22638432951638038
vn 0.17702736043752462 0.9225889119601007 -0.34276962115216725
vn 0.47324807831270177 0.8285433969227559 -0.29925256187547616
vn 0.7225537379534371 0.6531969313453153 -0.22638432951637572
vn 0.9006190319357928 0.4142399183707247 -0.13149391371181815
vn 0.9905129183995806 0.1353162232324858 -0.023951580608423177
vn 0.990512918399581 0.1353162232324833 -0.023951580608422215
vn 0.9839433511270513 -0.1564970608488271 0.08581463580617486
vn 0.8816537789471423 -0.43315258353494823 0.1872577193207884
vn -0.9006190319357924 -0.41423991837072915 0.131493913711805
vn -0.9905129183995801 -0.13531622323249362 0.023951580608406332
vn -0.9905129183995792 -0.1353162232324994 0.02395158060840853
vn -0.9839433511270514 0.156497060848826 -0.08581463580617825
vn -0.8816537789471426 0.43315258353495045 -0.18725771932078225
vn -0.6932689938447623 0.6679545950521805 -0.2705822631329491
vn -0.4366694697901592 0.8378560118953874 -0.32759285322475773
vn -0.13670167972716066 0.9257630557244559 -0.3525271839383318
vn -0.13670167972709285 0.9257630557244655 -0.3525271839383335
vn 0.5013076331013888 -0.7024991872269679 -0.5051589343362468
vn 0.6343289482507153 0.05195200969524092 -0.7713156125087621
vn 0.5098812094134347 0.2144460912983876 -0.8330870460005586
vn 0.3386093387850811 0.33260731019279355 -0.8801795799118752
vn 0.13702820316596864 0.3955873073680178 -0.9081486407997468
vn -0.07571038563073483 0.39768831519888714 -0.9143915690019871
vn -0.07571038563071544 0.39768831519888986 -0.9143915690019878
vn -0.2795345227726321 0.33880324777209364 -0.8983723113928647
vn -0.455219361495005 0.22437725518800572 -0.8616438825143348
vn -0.5860377887140099 0.06492273922405857 -0.8076786168587344
vn -0.6591845635022243 -0.12482718606480826 -0.741548302445312
vn -0.6669404355845702 -0.32705104007923974 -0.6694983738332388
vn -0.6669404355845715 -0.3270510400792289 -0.6694983738332428
vn -0.6075642029310845 -0.5222409707782812 -0.5984397277565006
vn -0.48583794115939705 -0.690908321422459 -0.5353570643217463
vn 0.6306084467755024 -0.5365566179635187 -0.5607494829020699
vn 0.6986222032925318 -0.3424888503103024 -0.6281945594159628
vn 0.699583622680987 -0.13975078741840335 -0.7007513626761512
vn 0.6995836226809822 -0.13975078741837438 -0.7007513626761618
usemtl material_0_0
f 1//1 2//2 3//3
f 2//2 1//1 4//2
f 9//4 3//3 10//4
f 3//3 9//4 1//1
f 13//5 14//6 15//5
f 14//6 13//5 16//7
f 4//2 21//8 2//2
f 21//8 4//2 22//8
f 25//9 26//9 27//9
f 26//9 25//9 28//9
f 26//9 28//9 29//9
f 29//9 28//9 30//9
f 30//9 28//9 31//9
f 30//9 31//9 32//9
f 30//9 32//9 33//9
f 33//9 32//9 34//9
f 33//9 34//9 35//9
f 35//9 34//9 36//9
f 36//9 34//9 37//9
f 36//9 37//9 38//9
f 38//9 37//9 39//9
f 38//9 39//9 40//9
f 40//9 39//9 41//9
f 40//9 41//9 42//9
f 40//9 42//9 43//9
f 43//9 42//9 44//9
f 9//4 65//10 66//10
f 65//10 9//4 10//4
f 14//6 69//11 70//11
f 69//11 14//6 16//7
f 73//12 74//12 75//12
f 74//12 73//12 76//12
f 74//12 76//12 77//12
f 77//12 76//12 78//12
f 77//12 78//12 79//12
f 79//12 78//12 80//12
f 80//12 78//12 81//12
f 80//12 81//12 82//12
f 82//12 81//12 83//12
f 82//12 83//12 84//12
f 82//12 84//12 85//12
f 85//12 84//12 86//12
f 85//12 86//12 87//12
f 87//12 86//12 88//12
f 88//12 86//12 89//12
f 88//12 89//12 90//12
f 90//12 89//12 91//12
f 90//12 91//12 92//12
f 113//13 15//5 114//13
f 15//5 113//13 13//5
f 117//14 22//8 118//14
f 22//8 117//14 21//8
f 121//15 122//16 123//16
f 122//16 121//15 124//15
f 129//17 122//16 130//17
f 122//16 129//17 123//16
f 133//18 130//17 134//18
f 130//17 133//18 129//17
f 137//19 134//18 138//20
f 134//18 137//19 133//18
f 141//21 138//20 142//21
f 138//20 141//21 137//19
f 145//22 141//21 142//21
f 141//21 145//22 146//22
f 65//10 145//22 66//10
f 145//22 65//10 146//22
f 149//23 118//14 150//23
f 118//14 149//23 117//14
f 153//24 150//23 154//25
f 150//23 153//24 149//23
f 157//26 154//25 158//26
f 154//25 157//26 153//24
f 161//27 157//26 158//26
f 157//26 161//27 162//27
f 165//28 162//27 161//27
f 162//27 165//28 166//28
f 169//29 165//28 170//29
f 165//28 169//29 166//28
f 173//30 170//29 174//31
f 170//29 173//30 169//29
f 173//30 124//15 121//15
f 124//15 173//30 174//31
f 70//11 177//32 178//32
f 177//32 70//11 69//11
f 181//33 182//34 183//33
f 182//34 181//33 184//34
f 189//35 183//33 190//35
f 183//33 189//35 181//33
f 193//36 190//35 194//36
f 190//35 193//36 189//35
f 197//37 194//36 198//38
f 194//36 197//37 193//36
f 201//39 197//37 198//38
f 197//37 201//39 202//39
f 205//40 202//39 201//39
f 202//39 205//40 206//40
f 209//41 206//40 205//40
f 206//40 209//41 210//41
f 213//42 210//41 209//41
f 210//41 213//42 214//42
f 217//43 214//42 213//42
f 214//42 217//43 218//44
f 221//45 218//44 217//43
f 218//44 221//45 222//45
f 221//45 225//46 222//45
f 225//46 221//45 226//46
f 226//46 114//13 225//46
f 114//13 226//46 113//13
f 178//32 229//47 230//47
f 229//47 178//32 177//32
f 230//47 233//48 234//48
f 233//48 230//47 229//47
f 234//48 237//49 238//50
f 237//49 234//48 233//48
f 184//34 237//49 182//34
f 237//49 184//34 238//50
usemtl material_1_0
f 5//51 6//52 7//51
f 8//53 7//51 6//52
f 6//52 11//54 8//53
f 12//54 8//53 11//54
f 17//55 18//56 19//57
f 20//56 19//57 18//56
f 23//58 5//51 24//58
f 7//51 24//58 5//51
f 45//59 46//59 47//59
f 47//59 46//59 48//59
f 46//59 49//59 48//59
f 49//59 50//59 48//59
f 48//59 50//59 51//59
f 50//59 52//59 51//59
f 51//59 52//59 53//59
f 52//59 54//59 53//59
f 53//59 54//59 55//59
f 55//59 54//59 56//59
f 54//59 57//59 56//59
f 56//59 57//59 58//59
f 57//59 59//59 58//59
f 59//59 60//59 58//59
f 58//59 60//59 61//59
f 61//59 60//59 62//59
f 60//59 63//59 62//59
f 64//59 62//59 63//59
f 12//54 11//54 67//60
f 68//60 67//60 11//54
f 17//55 19//57 71//61
f 72//61 71//61 19//57
f 93//62 94//62 95//62
f 94//62 96//62 95//62
f 95//62 96//62 97//62
f 96//62 98//62 97//62
f 97//62 98//62 99//62
f 99//62 98//62 100//62
f 98//62 101//62 100//62
f 100//62 101//62 102//62
f 101//62 103//62 102//62
f 103//62 104//62 102//62
f 102//62 104//62 105//62
f 104//62 106//62 105//62
f 105//62 106//62 107//62
f 107//62 106//62 108//62
f 106//62 109//62 108//62
f 108//62 109//62 110//62
f 109//62 111//62 110//62
f 112//62 110//62 111//62
f 18//56 115//63 20//56
f 116//63 20//56 115//63
f 24//58 119//64 23//58
f 120//64 23//58 119//64
f 125//65 126//65 127//66
f 128//66 127//66 126//65
f 128//66 131//67 127//66
f 132//67 127//66 131//67
f 131//67 135//68 132//67
f 136//68 132//67 135//68
f 135//68 139//69 136//68
f 140//70 136//68 139//69
f 139//69 143//71 140//70
f 144//71 140//70 143//71
f 147//72 148//72 143//71
f 144//71 143//71 148//72
f 147//72 67//60 148//72
f 68//60 148//72 67//60
f 119//64 151//73 120//64
f 152//73 120//64 151//73
f 151//73 155//74 152//73
f 156//75 152//73 155//74
f 155//74 159//76 156//75
f 160//76 156//75 159//76
f 163//77 164//77 159//76
f 160//76 159//76 164//77
f 167//78 168//78 163//77
f 164//77 163//77 168//78
f 167//78 171//79 168//78
f 172//79 168//78 171//79
f 171//79 175//80 172//79
f 176//81 172//79 175//80
f 176//81 175//80 125//65
f 126//65 125//65 175//80
f 71//61 72//61 179//82
f 180//82 179//82 72//61
f 185//83 186//84 187//83
f 188//84 187//83 186//84
f 186//84 191//85 188//84
f 192//85 188//84 191//85
f 191//85 195//86 192//85
f 196//86 192//85 195//86
f 195//86 199//87 196//86
f 200//88 196//86 199//87
f 203//89 204//89 199//87
f 200//88 199//87 204//89
f 207//90 208//90 203//89
f 204//89 203//89 208//90
f 211//91 212//91 207//90
f 208//90 207//90 212//91
f 215//92 216//92 211//91
f 212//91 211//91 216//92
f 219//93 220//94 215//92
f 216//92 215//92 220//94
f 223//95 224//95 219//93
f 220//94 219//93 224//95
f 227//96 224//95 228//96
f 223//95 228//96 224//95
f 115//63 227//96 116//63
f 228//96 116//63 227//96
f 179//82 180//82 231//97
f 232//97 231//97 180//82
f 231//97 232//97 235//98
f 236//98 235//98 232//97
f 235//98 236//98 239//99
f 240//100 239//99 236//98
f 240//100 185//83 239//99
f 187//83 239//99 185//83
