# SSTK version 0.8.0
# 14
mtllib original-14.mtl
o #ID76
v 0.078488 -0.143990 0.492865
v -0.083054 -0.143739 0.492865
v -0.002299 -0.154598 0.492865
v -0.002272 -0.136947 0.492865
v 0.073989 -0.126933 0.492865
v 0.153804 -0.112638 0.492865
v 0.145083 -0.097338 0.492865
v 0.218513 -0.062679 0.492865
v 0.206167 -0.050179 0.492865
v 0.268207 0.002483 0.492865
v 0.253076 0.011332 0.492865
v 0.299500 0.078407 0.492865
v 0.282615 0.083002 0.492865
v 0.310258 0.159919 0.492865
v 0.292771 0.159946 0.492865
v 0.304379 0.205536 0.492865
v 0.286591 0.207900 0.492865
v 0.169281 0.421583 0.492865
v 0.145869 0.417689 0.492865
v 0.169281 0.399498 0.492865
v 0.074865 0.447505 0.492865
v 0.154636 0.432962 0.492865
v 0.079417 0.464548 0.492865
v -0.001365 0.457756 0.492865
v -0.078502 -0.126696 0.492865
v -0.158273 -0.112153 0.492865
v -0.149506 -0.096880 0.492865
v -0.222830 -0.061993 0.492865
v -0.210445 -0.049531 0.492865
v -0.272325 0.003323 0.492865
v -0.257167 0.012125 0.492865
v -0.303386 0.079344 0.492865
v -0.286487 0.083887 0.492865
v -0.313895 0.160889 0.492865
v -0.296408 0.160862 0.492865
v -0.286252 0.237807 0.492865
v -0.303137 0.242402 0.492865
v -0.256713 0.309477 0.492865
v -0.271844 0.318325 0.492865
v -0.209804 0.370987 0.492865
v -0.222150 0.383487 0.492865
v -0.148720 0.418147 0.492865
v -0.157440 0.433447 0.492865
v -0.077626 0.447742 0.492865
v -0.082126 0.464799 0.492865
v -0.001338 0.475406 0.492865
v -0.001338 0.475406 0.492865
v 0.079417 0.464548 0.492865
v -0.082126 0.464799 0.492865
v -0.001365 0.457756 0.492865
v -0.077626 0.447742 0.492865
v -0.157440 0.433447 0.492865
v -0.148720 0.418147 0.492865
v -0.222150 0.383487 0.492865
v -0.209804 0.370987 0.492865
v -0.271844 0.318325 0.492865
v -0.256713 0.309477 0.492865
v -0.303137 0.242402 0.492865
v -0.286252 0.237807 0.492865
v -0.313895 0.160889 0.492865
v -0.296408 0.160862 0.492865
v -0.286487 0.083887 0.492865
v -0.303386 0.079344 0.492865
v -0.257167 0.012125 0.492865
v -0.272325 0.003323 0.492865
v -0.210445 -0.049531 0.492865
v -0.222830 -0.061993 0.492865
v -0.149506 -0.096880 0.492865
v -0.158273 -0.112153 0.492865
v -0.078502 -0.126696 0.492865
v -0.002272 -0.136947 0.492865
v -0.083054 -0.143739 0.492865
v 0.074865 0.447505 0.492865
v 0.154636 0.432962 0.492865
v 0.169281 0.421583 0.492865
v 0.145869 0.417689 0.492865
v 0.169281 0.399498 0.492865
v 0.286591 0.207900 0.492865
v 0.304379 0.205536 0.492865
v 0.292771 0.159946 0.492865
v 0.310258 0.159919 0.492865
v 0.282615 0.083002 0.492865
v 0.299500 0.078407 0.492865
v 0.253076 0.011332 0.492865
v 0.268207 0.002483 0.492865
v 0.206167 -0.050179 0.492865
v 0.218513 -0.062679 0.492865
v 0.145083 -0.097338 0.492865
v 0.153804 -0.112638 0.492865
v 0.073989 -0.126933 0.492865
v 0.078488 -0.143990 0.492865
v -0.002299 -0.154598 0.492865
vn 0 0 1
vn 0 0 -1
usemtl material_0_0
f 1//1 2//1 3//1
f 2//1 1//1 4//1
f 4//1 1//1 5//1
f 5//1 1//1 6//1
f 5//1 6//1 7//1
f 7//1 6//1 8//1
f 7//1 8//1 9//1
f 9//1 8//1 10//1
f 9//1 10//1 11//1
f 11//1 10//1 12//1
f 11//1 12//1 13//1
f 13//1 12//1 14//1
f 13//1 14//1 15//1
f 15//1 14//1 16//1
f 15//1 16//1 17//1
f 18//1 19//1 20//1
f 19//1 18//1 21//1
f 21//1 18//1 22//1
f 21//1 22//1 23//1
f 21//1 23//1 24//1
f 2//1 25//1 26//1
f 25//1 2//1 4//1
f 26//1 25//1 27//1
f 26//1 27//1 28//1
f 28//1 27//1 29//1
f 28//1 29//1 30//1
f 30//1 29//1 31//1
f 30//1 31//1 32//1
f 32//1 31//1 33//1
f 32//1 33//1 34//1
f 34//1 33//1 35//1
f 34//1 35//1 36//1
f 34//1 36//1 37//1
f 37//1 36//1 38//1
f 37//1 38//1 39//1
f 39//1 38//1 40//1
f 39//1 40//1 41//1
f 41//1 40//1 42//1
f 41//1 42//1 43//1
f 43//1 42//1 44//1
f 43//1 44//1 45//1
f 45//1 44//1 24//1
f 45//1 24//1 23//1
f 45//1 23//1 46//1
usemtl material_1_0
f 47//2 48//2 49//2
f 48//2 50//2 49//2
f 50//2 51//2 49//2
f 49//2 51//2 52//2
f 51//2 53//2 52//2
f 52//2 53//2 54//2
f 53//2 55//2 54//2
f 54//2 55//2 56//2
f 55//2 57//2 56//2
f 56//2 57//2 58//2
f 57//2 59//2 58//2
f 58//2 59//2 60//2
f 59//2 61//2 60//2
f 61//2 62//2 60//2
f 60//2 62//2 63//2
f 62//2 64//2 63//2
f 63//2 64//2 65//2
f 64//2 66//2 65//2
f 65//2 66//2 67//2
f 66//2 68//2 67//2
f 67//2 68//2 69//2
f 68//2 70//2 69//2
f 71//2 72//2 70//2
f 69//2 70//2 72//2
f 50//2 48//2 73//2
f 48//2 74//2 73//2
f 74//2 75//2 73//2
f 73//2 75//2 76//2
f 77//2 76//2 75//2
f 78//2 79//2 80//2
f 79//2 81//2 80//2
f 80//2 81//2 82//2
f 81//2 83//2 82//2
f 82//2 83//2 84//2
f 83//2 85//2 84//2
f 84//2 85//2 86//2
f 85//2 87//2 86//2
f 86//2 87//2 88//2
f 87//2 89//2 88//2
f 88//2 89//2 90//2
f 89//2 91//2 90//2
f 90//2 91//2 71//2
f 71//2 91//2 72//2
f 92//2 72//2 91//2
