# SSTK version 0.8.0
# 3
mtllib original-3.mtl
o #ID6
v 0.025765 0.620134 0.472355
v 0.025546 0.637621 0.488169
v 0.020524 0.631301 0.489995
v 0.031965 0.627937 0.470102
v 0.031965 0.627937 0.470102
v 0.025765 0.620134 0.472355
v 0.025546 0.637621 0.488169
v 0.020524 0.631301 0.489995
v 0.017686 0.614147 0.474085
v 0.013980 0.626451 0.491395
v 0.017686 0.614147 0.474085
v 0.013980 0.626451 0.491395
v 0.025765 0.620134 0.472355
v 0.031965 0.625393 0.462143
v 0.031965 0.627937 0.470102
v 0.025765 0.617591 0.464396
v 0.025765 0.617591 0.464396
v 0.025765 0.620134 0.472355
v 0.031965 0.625393 0.462143
v 0.031965 0.627937 0.470102
v 0.028703 0.644981 0.486043
v 0.035862 0.637023 0.467477
v 0.035862 0.637023 0.467477
v 0.028703 0.644981 0.486043
v 0.006360 0.623402 0.492276
v -0.009997 0.623402 0.492276
v -0.001819 0.622363 0.492576
v 0.013980 0.626451 0.491395
v -0.001819 0.625740 0.491600
v 0.005454 0.626665 0.491333
v 0.020524 0.631301 0.489995
v 0.012232 0.629376 0.490550
v 0.018051 0.633689 0.489305
v 0.025546 0.637621 0.488169
v 0.022517 0.639310 0.487681
v 0.028703 0.644981 0.486043
v 0.025324 0.645855 0.485791
v 0.029779 0.652879 0.483762
v 0.026282 0.652879 0.483762
v 0.028703 0.660778 0.481481
v 0.025324 0.659903 0.481733
v 0.022517 0.666449 0.479843
v 0.025546 0.668138 0.479355
v 0.018051 0.672069 0.478220
v 0.020524 0.674458 0.477530
v 0.012232 0.676382 0.476974
v 0.013980 0.679307 0.476129
v 0.005454 0.679093 0.476191
v -0.001819 0.680018 0.475924
v 0.006360 0.682356 0.475249
v -0.017617 0.626451 0.491395
v -0.009091 0.626665 0.491333
v -0.024162 0.631301 0.489995
v -0.015869 0.629376 0.490550
v -0.021689 0.633689 0.489305
v -0.029183 0.637621 0.488169
v -0.026154 0.639310 0.487681
v -0.032340 0.644981 0.486043
v -0.028961 0.645855 0.485791
v -0.033416 0.652879 0.483762
v -0.029919 0.652879 0.483762
v -0.032340 0.660778 0.481481
v -0.028961 0.659903 0.481733
v -0.026154 0.666449 0.479843
v -0.029183 0.668138 0.479355
v -0.021689 0.672069 0.478220
v -0.024162 0.674458 0.477530
v -0.015869 0.676382 0.476974
v -0.017617 0.679307 0.476129
v -0.009091 0.679093 0.476191
v -0.009997 0.682356 0.475249
v -0.001819 0.683396 0.474948
v -0.001819 0.683396 0.474948
v 0.006360 0.682356 0.475249
v -0.009997 0.682356 0.475249
v -0.001819 0.680018 0.475924
v -0.017617 0.679307 0.476129
v -0.009091 0.679093 0.476191
v -0.015869 0.676382 0.476974
v -0.024162 0.674458 0.477530
v -0.021689 0.672069 0.478220
v -0.029183 0.668138 0.479355
v -0.026154 0.666449 0.479843
v -0.032340 0.660778 0.481481
v -0.028961 0.659903 0.481733
v -0.029919 0.652879 0.483762
v -0.033416 0.652879 0.483762
v -0.028961 0.645855 0.485791
v -0.032340 0.644981 0.486043
v -0.026154 0.639310 0.487681
v -0.029183 0.637621 0.488169
v -0.021689 0.633689 0.489305
v -0.024162 0.631301 0.489995
v -0.015869 0.629376 0.490550
v -0.009091 0.626665 0.491333
v -0.017617 0.626451 0.491395
v -0.001819 0.625740 0.491600
v -0.009997 0.623402 0.492276
v 0.013980 0.679307 0.476129
v 0.005454 0.679093 0.476191
v 0.012232 0.676382 0.476974
v 0.020524 0.674458 0.477530
v 0.018051 0.672069 0.478220
v 0.025546 0.668138 0.479355
v 0.022517 0.666449 0.479843
v 0.028703 0.660778 0.481481
v 0.025324 0.659903 0.481733
v 0.026282 0.652879 0.483762
v 0.029779 0.652879 0.483762
v 0.025324 0.645855 0.485791
v 0.028703 0.644981 0.486043
v 0.022517 0.639310 0.487681
v 0.025546 0.637621 0.488169
v 0.018051 0.633689 0.489305
v 0.020524 0.631301 0.489995
v 0.012232 0.629376 0.490550
v 0.005454 0.626665 0.491333
v 0.013980 0.626451 0.491395
v 0.006360 0.623402 0.492276
v -0.001819 0.622363 0.492576
v 0.017686 0.614147 0.474085
v 0.017686 0.611603 0.466126
v 0.017686 0.614147 0.474085
v 0.017686 0.611603 0.466126
v 0.008278 0.610383 0.475172
v 0.006360 0.623402 0.492276
v 0.008278 0.610383 0.475172
v 0.006360 0.623402 0.492276
v 0.035862 0.637023 0.467477
v 0.035862 0.634480 0.459518
v 0.035862 0.634480 0.459518
v 0.035862 0.637023 0.467477
v 0.037191 0.646774 0.464661
v 0.029779 0.652879 0.483762
v 0.037191 0.646774 0.464661
v 0.029779 0.652879 0.483762
v 0.013980 0.679307 0.476129
v 0.008278 0.683166 0.454150
v 0.006360 0.682356 0.475249
v 0.017686 0.679402 0.455237
v 0.017686 0.679402 0.455237
v 0.013980 0.679307 0.476129
v 0.008278 0.683166 0.454150
v 0.006360 0.682356 0.475249
v -0.001819 0.684449 0.453780
v -0.001819 0.683396 0.474948
v -0.001819 0.684449 0.453780
v -0.001819 0.683396 0.474948
v -0.009997 0.682356 0.475249
v -0.011915 0.683166 0.454150
v -0.009997 0.682356 0.475249
v -0.011915 0.683166 0.454150
v -0.017617 0.679307 0.476129
v -0.021323 0.679402 0.455237
v -0.017617 0.679307 0.476129
v -0.021323 0.679402 0.455237
v -0.024162 0.674458 0.477530
v -0.029403 0.673415 0.456967
v -0.024162 0.674458 0.477530
v -0.029403 0.673415 0.456967
v -0.035602 0.665612 0.459220
v -0.029183 0.668138 0.479355
v -0.035602 0.665612 0.459220
v -0.029183 0.668138 0.479355
v -0.032340 0.660778 0.481481
v -0.039499 0.656525 0.461845
v -0.039499 0.656525 0.461845
v -0.032340 0.660778 0.481481
v -0.040828 0.646774 0.464661
v -0.033416 0.652879 0.483762
v -0.040828 0.646774 0.464661
v -0.033416 0.652879 0.483762
v -0.032340 0.644981 0.486043
v -0.039499 0.637023 0.467477
v -0.039499 0.637023 0.467477
v -0.032340 0.644981 0.486043
v -0.035602 0.627937 0.470102
v -0.029183 0.637621 0.488169
v -0.035602 0.627937 0.470102
v -0.029183 0.637621 0.488169
v -0.029403 0.620134 0.472355
v -0.024162 0.631301 0.489995
v -0.029403 0.620134 0.472355
v -0.024162 0.631301 0.489995
v -0.021323 0.614147 0.474085
v -0.017617 0.626451 0.491395
v -0.017617 0.626451 0.491395
v -0.021323 0.614147 0.474085
v -0.011915 0.610383 0.475172
v -0.009997 0.623402 0.492276
v -0.009997 0.623402 0.492276
v -0.011915 0.610383 0.475172
v -0.001819 0.609100 0.475542
v -0.001819 0.622363 0.492576
v -0.001819 0.622363 0.492576
v -0.001819 0.609100 0.475542
v 0.028703 0.660778 0.481481
v 0.035862 0.656525 0.461845
v 0.035862 0.656525 0.461845
v 0.028703 0.660778 0.481481
v 0.025546 0.668138 0.479355
v 0.031965 0.665612 0.459220
v 0.031965 0.665612 0.459220
v 0.025546 0.668138 0.479355
v 0.025765 0.673415 0.456967
v 0.020524 0.674458 0.477530
v 0.025765 0.673415 0.456967
v 0.020524 0.674458 0.477530
v 0.008278 0.610383 0.475172
v 0.008278 0.607840 0.467213
v 0.008278 0.610383 0.475172
v 0.008278 0.607840 0.467213
v 0.037191 0.644231 0.456702
v 0.037191 0.646774 0.464661
v 0.037191 0.644231 0.456702
v 0.037191 0.646774 0.464661
v 0.017686 0.679402 0.455237
v 0.008278 0.680622 0.446192
v 0.008278 0.683166 0.454150
v 0.017686 0.676858 0.447279
v 0.017686 0.676858 0.447279
v 0.017686 0.679402 0.455237
v 0.008278 0.680622 0.446192
v 0.008278 0.683166 0.454150
v -0.001819 0.681906 0.445821
v -0.001819 0.684449 0.453780
v -0.001819 0.681906 0.445821
v -0.001819 0.684449 0.453780
v -0.011915 0.680622 0.446192
v -0.011915 0.683166 0.454150
v -0.011915 0.680622 0.446192
v -0.011915 0.683166 0.454150
v -0.021323 0.676858 0.447279
v -0.021323 0.679402 0.455237
v -0.021323 0.676858 0.447279
v -0.021323 0.679402 0.455237
v -0.029403 0.670871 0.449008
v -0.029403 0.673415 0.456967
v -0.029403 0.670871 0.449008
v -0.029403 0.673415 0.456967
v -0.035602 0.665612 0.459220
v -0.035602 0.663068 0.451262
v -0.035602 0.663068 0.451262
v -0.035602 0.665612 0.459220
v -0.039499 0.653982 0.453886
v -0.039499 0.656525 0.461845
v -0.039499 0.653982 0.453886
v -0.039499 0.656525 0.461845
v -0.040828 0.646774 0.464661
v -0.040828 0.644231 0.456702
v -0.040828 0.644231 0.456702
v -0.040828 0.646774 0.464661
v -0.039499 0.637023 0.467477
v -0.039499 0.634480 0.459518
v -0.039499 0.634480 0.459518
v -0.039499 0.637023 0.467477
v -0.035602 0.627937 0.470102
v -0.035602 0.625393 0.462143
v -0.035602 0.625393 0.462143
v -0.035602 0.627937 0.470102
v -0.029403 0.620134 0.472355
v -0.029403 0.617591 0.464396
v -0.029403 0.617591 0.464396
v -0.029403 0.620134 0.472355
v -0.021323 0.611603 0.466126
v -0.021323 0.614147 0.474085
v -0.021323 0.614147 0.474085
v -0.021323 0.611603 0.466126
v -0.011915 0.607840 0.467213
v -0.011915 0.610383 0.475172
v -0.011915 0.610383 0.475172
v -0.011915 0.607840 0.467213
v -0.001819 0.606556 0.467584
v -0.001819 0.609100 0.475542
v -0.001819 0.609100 0.475542
v -0.001819 0.606556 0.467584
v 0.035862 0.656525 0.461845
v 0.035862 0.653982 0.453886
v 0.035862 0.653982 0.453886
v 0.035862 0.656525 0.461845
v 0.031965 0.663068 0.451262
v 0.031965 0.665612 0.459220
v 0.031965 0.663068 0.451262
v 0.031965 0.665612 0.459220
v 0.025765 0.673415 0.456967
v 0.025765 0.670871 0.449008
v 0.025765 0.670871 0.449008
v 0.025765 0.673415 0.456967
vn 0.6603704398315643 -0.5301633278754078 0.5318249034905561
vn 0.8094495076976836 -0.3471020393990402 0.4736155283909143
vn 0.4667729198861581 -0.6705918795198319 0.5765670580106093
vn 0.7088189176130617 -0.6719082692331175 0.2147440797088568
vn 0.8670719662943636 -0.4745360443637763 0.15166327131512802
vn 0.9041015332047189 -0.13360451281982297 0.4058943850449947
vn 0 0.27748061899789744 0.9607312350915546
vn 0.5018193037367276 -0.8239155037514508 0.26332608886166065
vn 0.2415873403628673 -0.7588962424365201 0.604741308488288
vn 0.9662381954903311 -0.24542074828640167 0.07843727357660661
vn 0.9379355955597155 0.09623291045056605 0.3331907044445496
vn 0.9379355955597152 0.0962329104505241 0.33319070444456284
vn 0.4742521341914193 0.8759714625908138 0.08808467483844322
vn 0.24591578387978746 0.9674644918477652 0.059480116446887735
vn 0 0.998764090979362 0.0497020177675798
vn -0.24591578387978746 0.9674644918477652 0.059480116446887735
vn -0.4742521341914193 0.8759714625908138 0.08808467483844322
vn -0.6689786388602316 0.731210998808095 0.13340935488480551
vn -0.816880264450434 0.5438452025837335 0.19219528916715542
vn -0.908381518485121 0.32721378672925383 0.26033469735893494
vn -0.9379355955597155 0.09623291045056802 0.333190704444549
vn -0.9379355955597152 0.09623291045052616 0.3331907044445622
vn -0.9041015332047189 -0.13360451281982297 0.4058943850449947
vn -0.8094495076976836 -0.3471020393990402 0.4736155283909143
vn -0.6603704398315643 -0.5301633278754078 0.5318249034905561
vn -0.4667729198861581 -0.6705918795198319 0.5765670580106093
vn -0.2415873403628673 -0.7588962424365201 0.604741308488288
vn 0 -0.7890249839172059 0.6143611110368663
vn 0.908381518485121 0.32721378672925383 0.26033469735893494
vn 0.816880264450434 0.5438452025837335 0.19219528916715542
vn 0.6689786388602316 0.731210998808095 0.13340935488480551
vn 0.25999211453708 -0.919776848222855 0.29396368798164296
vn 1 0 0
vn 0.5018193037367276 0.8239155037514508 -0.2633260888616607
vn 0.25999211453708 0.919776848222855 -0.29396368798164296
vn 0 0.9525337804648639 -0.3044329106278002
vn -0.25999211453708 0.919776848222855 -0.29396368798164296
vn -0.5018193037367276 0.8239155037514508 -0.26332608886166065
vn -0.7088189176130617 0.6719082692331175 -0.2147440797088568
vn -0.8670719662943636 0.4745360443637763 -0.15166327131512802
vn -0.9662381954903311 0.24542074828640167 -0.07843727357660661
vn -1 0 0
vn -0.9662381954903311 -0.24542074828640162 0.07843727357660674
vn -0.8670719662943636 -0.4745360443637763 0.15166327131512813
vn -0.7088189176130617 -0.6719082692331175 0.21474407970885692
vn -0.5018193037367276 -0.8239155037514508 0.2633260888616607
vn -0.25999211453708 -0.919776848222855 0.2939636879816429
vn 0 -0.9525337804648639 0.30443291062780015
vn 0.9662381954903311 0.24542074828640162 -0.07843727357660674
vn 0.8670719662943636 0.4745360443637763 -0.15166327131512813
vn 0.7088189176130617 0.6719082692331175 -0.21474407970885692
vn -0.8094495076976836 0.3471020393990402 -0.4736155283909143
vn -0.6603704398315643 0.5301633278754078 -0.5318249034905561
vn -0.4667729198861581 0.6705918795198319 -0.5765670580106093
vn -0.9041015332047189 0.13360451281982297 -0.4058943850449947
vn 0 -0.27748061899789744 -0.9607312350915546
vn -0.2415873403628673 0.7588962424365201 -0.604741308488288
vn -0.9379355955597155 -0.09623291045056605 -0.3331907044445496
vn -0.9379355955597152 -0.0962329104505241 -0.33319070444456284
vn -0.4742521341914193 -0.8759714625908138 -0.08808467483844322
vn -0.24591578387978746 -0.9674644918477652 -0.059480116446887735
vn 0 -0.998764090979362 -0.0497020177675798
vn 0.24591578387978746 -0.9674644918477652 -0.059480116446887735
vn 0.4742521341914193 -0.8759714625908138 -0.08808467483844322
vn 0.6689786388602316 -0.731210998808095 -0.13340935488480551
vn 0.816880264450434 -0.5438452025837335 -0.19219528916715542
vn 0.908381518485121 -0.32721378672925383 -0.26033469735893494
vn 0.9379355955597155 -0.09623291045056802 -0.333190704444549
vn 0.9379355955597152 -0.09623291045052616 -0.3331907044445622
vn 0.9041015332047189 0.13360451281982297 -0.4058943850449947
vn 0.8094495076976836 0.3471020393990402 -0.4736155283909143
vn 0.6603704398315643 0.5301633278754078 -0.5318249034905561
vn 0.4667729198861581 0.6705918795198319 -0.5765670580106093
vn 0.2415873403628673 0.7588962424365201 -0.604741308488288
vn 0 0.7890249839172059 -0.6143611110368663
vn -0.908381518485121 -0.32721378672925383 -0.26033469735893494
vn -0.816880264450434 -0.5438452025837335 -0.19219528916715542
vn -0.6689786388602316 -0.731210998808095 -0.13340935488480551
vn -0.25999211453708 -0.919776848222855 0.29396368798164296
vn 0 -0.9525337804648639 0.3044329106278002
vn 0.25999211453708 0.919776848222855 -0.2939636879816429
vn 0 0.9525337804648639 -0.30443291062780015
usemtl material_0_0
f 1//1 2//2 3//1
f 2//2 1//1 4//2
f 9//3 3//1 10//3
f 3//1 9//3 1//1
f 13//4 14//5 15//5
f 14//5 13//4 16//4
f 4//2 21//6 2//2
f 21//6 4//2 22//6
f 25//7 26//7 27//7
f 26//7 25//7 28//7
f 26//7 28//7 29//7
f 29//7 28//7 30//7
f 30//7 28//7 31//7
f 30//7 31//7 32//7
f 32//7 31//7 33//7
f 33//7 31//7 34//7
f 33//7 34//7 35//7
f 35//7 34//7 36//7
f 35//7 36//7 37//7
f 37//7 36//7 38//7
f 37//7 38//7 39//7
f 39//7 38//7 40//7
f 39//7 40//7 41//7
f 41//7 40//7 42//7
f 42//7 40//7 43//7
f 42//7 43//7 44//7
f 44//7 43//7 45//7
f 44//7 45//7 46//7
f 46//7 45//7 47//7
f 46//7 47//7 48//7
f 48//7 47//7 49//7
f 49//7 47//7 50//7
f 29//7 51//7 26//7
f 51//7 29//7 52//7
f 51//7 52//7 53//7
f 53//7 52//7 54//7
f 53//7 54//7 55//7
f 53//7 55//7 56//7
f 56//7 55//7 57//7
f 56//7 57//7 58//7
f 58//7 57//7 59//7
f 58//7 59//7 60//7
f 60//7 59//7 61//7
f 60//7 61//7 62//7
f 62//7 61//7 63//7
f 62//7 63//7 64//7
f 62//7 64//7 65//7
f 65//7 64//7 66//7
f 65//7 66//7 67//7
f 67//7 66//7 68//7
f 67//7 68//7 69//7
f 69//7 68//7 70//7
f 69//7 70//7 49//7
f 69//7 49//7 71//7
f 71//7 49//7 50//7
f 71//7 50//7 72//7
f 16//4 121//8 122//8
f 121//8 16//4 13//4
f 125//9 10//3 126//9
f 10//3 125//9 9//3
f 14//5 129//10 15//5
f 129//10 14//5 130//10
f 21//6 133//11 134//12
f 133//11 21//6 22//6
f 137//13 138//14 139//14
f 138//14 137//13 140//13
f 139//14 145//15 146//15
f 145//15 139//14 138//14
f 149//16 145//15 150//16
f 145//15 149//16 146//15
f 153//17 150//16 154//17
f 150//16 153//17 149//16
f 157//18 154//17 158//18
f 154//17 157//18 153//17
f 157//18 161//19 162//19
f 161//19 157//18 158//18
f 161//19 165//20 162//19
f 165//20 161//19 166//20
f 165//20 169//21 170//22
f 169//21 165//20 166//20
f 169//21 173//23 170//22
f 173//23 169//21 174//23
f 173//23 177//24 178//24
f 177//24 173//23 174//23
f 178//24 181//25 182//25
f 181//25 178//24 177//24
f 185//26 182//25 181//25
f 182//25 185//26 186//26
f 189//27 186//26 185//26
f 186//26 189//27 190//27
f 193//28 190//27 189//27
f 190//27 193//28 194//28
f 193//28 126//9 194//28
f 126//9 193//28 125//9
f 133//11 197//29 134//12
f 197//29 133//11 198//29
f 198//29 201//30 197//29
f 201//30 198//29 202//30
f 201//30 205//31 206//31
f 205//31 201//30 202//30
f 206//31 140//13 137//13
f 140//13 206//31 205//31
f 122//8 209//32 210//32
f 209//32 122//8 121//8
f 129//10 213//33 214//33
f 213//33 129//10 130//10
f 217//34 218//35 219//35
f 218//35 217//34 220//34
f 219//35 225//36 226//36
f 225//36 219//35 218//35
f 226//36 229//37 230//37
f 229//37 226//36 225//36
f 230//37 233//38 234//38
f 233//38 230//37 229//37
f 234//38 237//39 238//39
f 237//39 234//38 233//38
f 237//39 241//40 238//39
f 241//40 237//39 242//40
f 241//40 245//41 246//41
f 245//41 241//40 242//40
f 245//41 249//42 246//41
f 249//42 245//41 250//42
f 250//42 253//43 249//42
f 253//43 250//42 254//43
f 254//43 257//44 253//43
f 257//44 254//43 258//44
f 258//44 261//45 257//44
f 261//45 258//44 262//45
f 265//46 261//45 262//45
f 261//45 265//46 266//46
f 269//47 266//46 265//46
f 266//46 269//47 270//47
f 273//48 270//47 269//47
f 270//47 273//48 274//48
f 210//32 274//48 273//48
f 274//48 210//32 209//32
f 213//33 277//49 214//33
f 277//49 213//33 278//49
f 277//49 281//50 282//50
f 281//50 277//49 278//49
f 281//50 285//51 282//50
f 285//51 281//50 286//51
f 285//51 220//34 217//34
f 220//34 285//51 286//51
usemtl material_1_0
f 5//52 6//53 7//52
f 8//53 7//52 6//53
f 6//53 11//54 8//53
f 12//54 8//53 11//54
f 17//39 18//39 19//40
f 20//40 19//40 18//39
f 23//55 5//52 24//55
f 7//52 24//55 5//52
f 73//56 74//56 75//56
f 74//56 76//56 75//56
f 75//56 76//56 77//56
f 76//56 78//56 77//56
f 78//56 79//56 77//56
f 77//56 79//56 80//56
f 79//56 81//56 80//56
f 80//56 81//56 82//56
f 81//56 83//56 82//56
f 82//56 83//56 84//56
f 83//56 85//56 84//56
f 85//56 86//56 84//56
f 84//56 86//56 87//56
f 86//56 88//56 87//56
f 87//56 88//56 89//56
f 88//56 90//56 89//56
f 89//56 90//56 91//56
f 90//56 92//56 91//56
f 91//56 92//56 93//56
f 92//56 94//56 93//56
f 94//56 95//56 93//56
f 93//56 95//56 96//56
f 95//56 97//56 96//56
f 98//56 96//56 97//56
f 74//56 99//56 76//56
f 76//56 99//56 100//56
f 100//56 99//56 101//56
f 99//56 102//56 101//56
f 101//56 102//56 103//56
f 102//56 104//56 103//56
f 103//56 104//56 105//56
f 104//56 106//56 105//56
f 105//56 106//56 107//56
f 107//56 106//56 108//56
f 106//56 109//56 108//56
f 108//56 109//56 110//56
f 109//56 111//56 110//56
f 110//56 111//56 112//56
f 111//56 113//56 112//56
f 112//56 113//56 114//56
f 113//56 115//56 114//56
f 114//56 115//56 116//56
f 116//56 115//56 117//56
f 115//56 118//56 117//56
f 117//56 118//56 97//56
f 97//56 118//56 98//56
f 118//56 119//56 98//56
f 120//56 98//56 119//56
f 18//39 17//39 123//38
f 124//38 123//38 17//39
f 11//54 127//57 12//54
f 128//57 12//54 127//57
f 131//41 19//40 132//41
f 20//40 132//41 19//40
f 23//55 24//55 135//58
f 136//59 135//58 24//55
f 141//60 142//60 143//61
f 144//61 143//61 142//60
f 143//61 144//61 147//62
f 148//62 147//62 144//61
f 148//62 151//63 147//62
f 152//63 147//62 151//63
f 151//63 155//64 152//63
f 156//64 152//63 155//64
f 155//64 159//65 156//64
f 160//65 156//64 159//65
f 160//65 159//65 163//66
f 164//66 163//66 159//65
f 167//67 163//66 168//67
f 164//66 168//67 163//66
f 167//67 168//67 171//68
f 172//69 171//68 168//67
f 175//70 171//68 176//70
f 172//69 176//70 171//68
f 175//70 176//70 179//71
f 180//71 179//71 176//70
f 179//71 180//71 183//72
f 184//72 183//72 180//71
f 187//73 188//73 184//72
f 183//72 184//72 188//73
f 191//74 192//74 187//73
f 188//73 187//73 192//74
f 195//75 196//75 191//74
f 192//74 191//74 196//75
f 127//57 196//75 128//57
f 195//75 128//57 196//75
f 199//76 135//58 200//76
f 136//59 200//76 135//58
f 203//77 199//76 204//77
f 200//76 204//77 199//76
f 203//77 204//77 207//78
f 208//78 207//78 204//77
f 207//78 208//78 141//60
f 142//60 141//60 208//78
f 123//38 124//38 211//37
f 212//37 211//37 124//38
f 131//41 132//41 215//42
f 216//42 215//42 132//41
f 221//46 222//46 223//79
f 224//79 223//79 222//46
f 223//79 224//79 227//80
f 228//80 227//80 224//79
f 227//80 228//80 231//32
f 232//32 231//32 228//80
f 231//32 232//32 235//8
f 236//8 235//8 232//32
f 235//8 236//8 239//4
f 240//4 239//4 236//8
f 243//5 239//4 244//5
f 240//4 244//5 239//4
f 243//5 244//5 247//10
f 248//10 247//10 244//5
f 251//33 247//10 252//33
f 248//10 252//33 247//10
f 255//49 251//33 256//49
f 252//33 256//49 251//33
f 259//50 255//49 260//50
f 256//49 260//50 255//49
f 263//51 259//50 264//51
f 260//50 264//51 259//50
f 267//34 268//34 264//51
f 263//51 264//51 268//34
f 271//81 272//81 267//34
f 268//34 267//34 272//81
f 275//82 276//82 271//81
f 272//81 271//81 276//82
f 211//37 212//37 275//82
f 276//82 275//82 212//37
f 279//43 215//42 280//43
f 216//42 280//43 215//42
f 279//43 280//43 283//44
f 284//44 283//44 280//43
f 287//45 283//44 288//45
f 284//44 288//45 283//44
f 287//45 288//45 221//46
f 222//46 221//46 288//45
