# SSTK version 0.8.0
# 37
mtllib original-37.mtl
o instance_9/Ножка_Ст._машина/ID162#ID162
v -0.463902 -0.758353 -0.474217
v -0.463902 -0.758353 -0.453654
v -0.465599 -0.758353 -0.463936
v -0.458977 -0.758353 -0.444379
v -0.458977 -0.758353 -0.483493
v -0.451306 -0.758353 -0.490853
v -0.451306 -0.758353 -0.437018
v -0.441639 -0.758353 -0.432292
v -0.441639 -0.758353 -0.495579
v -0.430924 -0.758353 -0.430664
v -0.430924 -0.758353 -0.497208
v -0.420209 -0.758353 -0.432292
v -0.420209 -0.758353 -0.495579
v -0.410543 -0.758353 -0.437018
v -0.410543 -0.758353 -0.490853
v -0.402871 -0.758353 -0.483493
v -0.402871 -0.758353 -0.444379
v -0.397946 -0.758353 -0.474217
v -0.397946 -0.758353 -0.453654
v -0.396249 -0.758353 -0.463936
v -0.396249 -0.758353 -0.463936
v -0.397946 -0.758353 -0.474217
v -0.397946 -0.758353 -0.453654
v -0.402871 -0.758353 -0.444379
v -0.402871 -0.758353 -0.483493
v -0.410543 -0.758353 -0.437018
v -0.410543 -0.758353 -0.490853
v -0.420209 -0.758353 -0.495579
v -0.420209 -0.758353 -0.432292
v -0.430924 -0.758353 -0.497208
v -0.430924 -0.758353 -0.430664
v -0.441639 -0.758353 -0.495579
v -0.441639 -0.758353 -0.432292
v -0.451306 -0.758353 -0.490853
v -0.451306 -0.758353 -0.437018
v -0.458977 -0.758353 -0.444379
v -0.458977 -0.758353 -0.483493
v -0.463902 -0.758353 -0.474217
v -0.463902 -0.758353 -0.453654
v -0.465599 -0.758353 -0.463936
v -0.441639 -0.740853 -0.495579
v -0.430924 -0.758353 -0.497208
v -0.441639 -0.758353 -0.495579
v -0.430924 -0.740853 -0.497208
v -0.430924 -0.740853 -0.497208
v -0.441639 -0.740853 -0.495579
v -0.430924 -0.758353 -0.497208
v -0.441639 -0.758353 -0.495579
v -0.420209 -0.758353 -0.495579
v -0.420209 -0.740853 -0.495579
v -0.420209 -0.740853 -0.495579
v -0.420209 -0.758353 -0.495579
v -0.410543 -0.758353 -0.490853
v -0.410543 -0.740853 -0.490853
v -0.410543 -0.740853 -0.490853
v -0.410543 -0.758353 -0.490853
v -0.402871 -0.740853 -0.483493
v -0.402871 -0.758353 -0.483493
v -0.402871 -0.740853 -0.483493
v -0.402871 -0.758353 -0.483493
v -0.397946 -0.740853 -0.474217
v -0.397946 -0.758353 -0.474217
v -0.397946 -0.740853 -0.474217
v -0.397946 -0.758353 -0.474217
v -0.396249 -0.740853 -0.463936
v -0.396249 -0.758353 -0.463936
v -0.396249 -0.740853 -0.463936
v -0.396249 -0.758353 -0.463936
v -0.397946 -0.740853 -0.453654
v -0.397946 -0.758353 -0.453654
v -0.397946 -0.740853 -0.453654
v -0.397946 -0.758353 -0.453654
v -0.402871 -0.740853 -0.444379
v -0.402871 -0.758353 -0.444379
v -0.402871 -0.740853 -0.444379
v -0.402871 -0.758353 -0.444379
v -0.410543 -0.758353 -0.437018
v -0.410543 -0.740853 -0.437018
v -0.410543 -0.740853 -0.437018
v -0.410543 -0.758353 -0.437018
v -0.420209 -0.758353 -0.432292
v -0.420209 -0.740853 -0.432292
v -0.420209 -0.740853 -0.432292
v -0.420209 -0.758353 -0.432292
v -0.430924 -0.758353 -0.430664
v -0.430924 -0.740853 -0.430664
v -0.430924 -0.740853 -0.430664
v -0.430924 -0.758353 -0.430664
v -0.441639 -0.758353 -0.432292
v -0.441639 -0.740853 -0.432292
v -0.441639 -0.740853 -0.432292
v -0.441639 -0.758353 -0.432292
v -0.451306 -0.758353 -0.437018
v -0.451306 -0.740853 -0.437018
v -0.451306 -0.740853 -0.437018
v -0.451306 -0.758353 -0.437018
v -0.458977 -0.740853 -0.444379
v -0.458977 -0.758353 -0.444379
v -0.458977 -0.758353 -0.444379
v -0.458977 -0.740853 -0.444379
v -0.463902 -0.740853 -0.453654
v -0.463902 -0.758353 -0.453654
v -0.463902 -0.758353 -0.453654
v -0.463902 -0.740853 -0.453654
v -0.465599 -0.740853 -0.463936
v -0.465599 -0.758353 -0.463936
v -0.465599 -0.758353 -0.463936
v -0.465599 -0.740853 -0.463936
v -0.463902 -0.740853 -0.474217
v -0.463902 -0.758353 -0.474217
v -0.463902 -0.758353 -0.474217
v -0.463902 -0.740853 -0.474217
v -0.458977 -0.740853 -0.483493
v -0.458977 -0.758353 -0.483493
v -0.458977 -0.758353 -0.483493
v -0.458977 -0.740853 -0.483493
v -0.451306 -0.758353 -0.490853
v -0.451306 -0.740853 -0.490853
v -0.451306 -0.740853 -0.490853
v -0.451306 -0.758353 -0.490853
v -0.463902 -0.740853 -0.453654
v -0.463902 -0.740853 -0.474217
v -0.465599 -0.740853 -0.463936
v -0.458977 -0.740853 -0.444379
v -0.458977 -0.740853 -0.483493
v -0.451306 -0.740853 -0.437018
v -0.451306 -0.740853 -0.490853
v -0.441639 -0.740853 -0.432292
v -0.441639 -0.740853 -0.495579
v -0.430924 -0.740853 -0.430664
v -0.430924 -0.740853 -0.497208
v -0.420209 -0.740853 -0.432292
v -0.420209 -0.740853 -0.495579
v -0.410543 -0.740853 -0.437018
v -0.410543 -0.740853 -0.490853
v -0.402871 -0.740853 -0.444379
v -0.402871 -0.740853 -0.483493
v -0.397946 -0.740853 -0.453654
v -0.397946 -0.740853 -0.474217
v -0.396249 -0.740853 -0.463936
v -0.396249 -0.740853 -0.463936
v -0.397946 -0.740853 -0.453654
v -0.397946 -0.740853 -0.474217
v -0.402871 -0.740853 -0.483493
v -0.402871 -0.740853 -0.444379
v -0.410543 -0.740853 -0.490853
v -0.410543 -0.740853 -0.437018
v -0.420209 -0.740853 -0.495579
v -0.420209 -0.740853 -0.432292
v -0.430924 -0.740853 -0.497208
v -0.430924 -0.740853 -0.430664
v -0.441639 -0.740853 -0.495579
v -0.441639 -0.740853 -0.432292
v -0.451306 -0.740853 -0.490853
v -0.451306 -0.740853 -0.437018
v -0.458977 -0.740853 -0.483493
v -0.458977 -0.740853 -0.444379
v -0.463902 -0.740853 -0.474217
v -0.463902 -0.740853 -0.453654
v -0.465599 -0.740853 -0.463936
vn 0 -1 0
vn -0.29764259793184866 0 -0.9546773716268654
vn 0 0 -1
vn 0.29764259793184866 0 -0.9546773716268654
vn 0.5718897660605112 0 -0.8203304794259773
vn 0.7972443011090523 0 -0.6036567935086449
vn 0.9471701472183052 0 -0.32073152669866173
vn 1 0 0
vn 0.9471701472183052 0 0.32073152669866173
vn 0.7972443011090523 0 0.6036567935086449
vn 0.5718897660605112 0 0.8203304794259773
vn 0.29764259793184866 0 0.9546773716268654
vn 0 0 1
vn -0.29764259793184866 0 0.9546773716268654
vn -0.5718897660605112 0 0.8203304794259773
vn -0.7972443011090523 0 0.6036567935086449
vn -0.9471701472183052 0 0.32073152669866173
vn -1 0 0
vn -0.9471701472183052 0 -0.32073152669866173
vn -0.7972443011090523 0 -0.6036567935086449
vn -0.5718897660605112 0 -0.8203304794259773
vn 0 1 0
usemtl material_0_0
f 21//22 22//22 23//22
f 23//22 22//22 24//22
f 22//22 25//22 24//22
f 24//22 25//22 26//22
f 25//22 27//22 26//22
f 27//22 28//22 26//22
f 26//22 28//22 29//22
f 28//22 30//22 29//22
f 29//22 30//22 31//22
f 30//22 32//22 31//22
f 31//22 32//22 33//22
f 32//22 34//22 33//22
f 33//22 34//22 35//22
f 35//22 34//22 36//22
f 34//22 37//22 36//22
f 37//22 38//22 36//22
f 36//22 38//22 39//22
f 40//22 39//22 38//22
f 45//13 46//12 47//13
f 48//12 47//13 46//12
f 51//14 45//13 52//14
f 47//13 52//14 45//13
f 55//15 51//14 56//15
f 52//14 56//15 51//14
f 55//15 56//15 59//16
f 60//16 59//16 56//15
f 59//16 60//16 63//17
f 64//17 63//17 60//16
f 63//17 64//17 67//18
f 68//18 67//18 64//17
f 67//18 68//18 71//19
f 72//19 71//19 68//18
f 71//19 72//19 75//20
f 76//20 75//20 72//19
f 79//21 75//20 80//21
f 76//20 80//21 75//20
f 83//2 79//21 84//2
f 80//21 84//2 79//21
f 87//3 83//2 88//3
f 84//2 88//3 83//2
f 91//4 87//3 92//4
f 88//3 92//4 87//3
f 95//5 91//4 96//5
f 92//4 96//5 91//4
f 99//6 100//6 96//5
f 95//5 96//5 100//6
f 103//7 104//7 99//6
f 100//6 99//6 104//7
f 107//8 108//8 103//7
f 104//7 103//7 108//8
f 111//9 112//9 107//8
f 108//8 107//8 112//9
f 115//10 116//10 111//9
f 112//9 111//9 116//10
f 119//11 116//10 120//11
f 115//10 120//11 116//10
f 46//12 119//11 48//12
f 120//11 48//12 119//11
f 141//1 142//1 143//1
f 143//1 142//1 144//1
f 142//1 145//1 144//1
f 144//1 145//1 146//1
f 145//1 147//1 146//1
f 146//1 147//1 148//1
f 147//1 149//1 148//1
f 148//1 149//1 150//1
f 149//1 151//1 150//1
f 150//1 151//1 152//1
f 151//1 153//1 152//1
f 152//1 153//1 154//1
f 153//1 155//1 154//1
f 154//1 155//1 156//1
f 155//1 157//1 156//1
f 156//1 157//1 158//1
f 157//1 159//1 158//1
f 160//1 158//1 159//1
usemtl material_1_0
f 1//1 2//1 3//1
f 2//1 1//1 4//1
f 4//1 1//1 5//1
f 4//1 5//1 6//1
f 4//1 6//1 7//1
f 7//1 6//1 8//1
f 8//1 6//1 9//1
f 8//1 9//1 10//1
f 10//1 9//1 11//1
f 10//1 11//1 12//1
f 12//1 11//1 13//1
f 12//1 13//1 14//1
f 14//1 13//1 15//1
f 14//1 15//1 16//1
f 14//1 16//1 17//1
f 17//1 16//1 18//1
f 17//1 18//1 19//1
f 19//1 18//1 20//1
f 41//2 42//3 43//2
f 42//3 41//2 44//3
f 44//3 49//4 42//3
f 49//4 44//3 50//4
f 50//4 53//5 49//4
f 53//5 50//4 54//5
f 53//5 57//6 58//6
f 57//6 53//5 54//5
f 58//6 61//7 62//7
f 61//7 58//6 57//6
f 62//7 65//8 66//8
f 65//8 62//7 61//7
f 66//8 69//9 70//9
f 69//9 66//8 65//8
f 70//9 73//10 74//10
f 73//10 70//9 69//9
f 73//10 77//11 74//10
f 77//11 73//10 78//11
f 78//11 81//12 77//11
f 81//12 78//11 82//12
f 82//12 85//13 81//12
f 85//13 82//12 86//13
f 86//13 89//14 85//13
f 89//14 86//13 90//14
f 90//14 93//15 89//14
f 93//15 90//14 94//15
f 97//16 93//15 94//15
f 93//15 97//16 98//16
f 101//17 98//16 97//16
f 98//16 101//17 102//17
f 105//18 102//17 101//17
f 102//17 105//18 106//18
f 109//19 106//18 105//18
f 106//18 109//19 110//19
f 113//20 110//19 109//19
f 110//19 113//20 114//20
f 113//20 117//21 114//20
f 117//21 113//20 118//21
f 118//21 43//2 117//21
f 43//2 118//21 41//2
f 121//22 122//22 123//22
f 122//22 121//22 124//22
f 122//22 124//22 125//22
f 125//22 124//22 126//22
f 125//22 126//22 127//22
f 127//22 126//22 128//22
f 127//22 128//22 129//22
f 129//22 128//22 130//22
f 129//22 130//22 131//22
f 131//22 130//22 132//22
f 131//22 132//22 133//22
f 133//22 132//22 134//22
f 133//22 134//22 135//22
f 135//22 134//22 136//22
f 135//22 136//22 137//22
f 137//22 136//22 138//22
f 137//22 138//22 139//22
f 139//22 138//22 140//22
