# SSTK version 0.8.0
# 28
mtllib original-28.mtl
o instance_4/Кнопка_Ст._машина/ID134#ID134
v 0.203349 0.577911 0.476979
v 0.207687 0.577253 0.473710
v 0.203349 0.577351 0.473695
v 0.207687 0.577813 0.476994
v 0.207687 0.577813 0.476994
v 0.203349 0.577911 0.476979
v 0.207687 0.577253 0.473710
v 0.203349 0.577351 0.473695
v 0.199192 0.576669 0.477171
v 0.199192 0.576109 0.473886
v 0.199192 0.576669 0.477171
v 0.199192 0.576109 0.473886
v 0.207687 0.577813 0.476994
v 0.203584 0.576458 0.478888
v 0.207373 0.576372 0.478901
v 0.203349 0.577911 0.476979
v 0.203349 0.577911 0.476979
v 0.207687 0.577813 0.476994
v 0.203584 0.576458 0.478888
v 0.207373 0.576372 0.478901
v 0.211783 0.575824 0.473930
v 0.211783 0.576384 0.477214
v 0.211783 0.576384 0.477214
v 0.211783 0.575824 0.473930
v 0.202727 0.550059 0.477897
v 0.211222 0.551203 0.477721
v 0.207066 0.549961 0.477912
v 0.198632 0.551488 0.477677
v 0.214790 0.553665 0.477342
v 0.217419 0.557104 0.476812
v 0.195180 0.554108 0.477274
v 0.192709 0.557663 0.476726
v 0.218854 0.561185 0.476184
v 0.191462 0.561804 0.476089
v 0.218952 0.565508 0.475518
v 0.217705 0.569649 0.474881
v 0.191561 0.566127 0.475423
v 0.215235 0.573204 0.474333
v 0.192995 0.570208 0.474795
v 0.211783 0.575824 0.473930
v 0.195625 0.573648 0.474265
v 0.199192 0.576109 0.473886
v 0.207687 0.577253 0.473710
v 0.203349 0.577351 0.473695
v 0.203349 0.577351 0.473695
v 0.199192 0.576109 0.473886
v 0.207687 0.577253 0.473710
v 0.211783 0.575824 0.473930
v 0.195625 0.573648 0.474265
v 0.192995 0.570208 0.474795
v 0.215235 0.573204 0.474333
v 0.191561 0.566127 0.475423
v 0.217705 0.569649 0.474881
v 0.191462 0.561804 0.476089
v 0.218952 0.565508 0.475518
v 0.218854 0.561185 0.476184
v 0.192709 0.557663 0.476726
v 0.217419 0.557104 0.476812
v 0.195180 0.554108 0.477274
v 0.198632 0.551488 0.477677
v 0.214790 0.553665 0.477342
v 0.211222 0.551203 0.477721
v 0.202727 0.550059 0.477897
v 0.207066 0.549961 0.477912
v 0.195625 0.573648 0.474265
v 0.195625 0.574207 0.477550
v 0.195625 0.573648 0.474265
v 0.195625 0.574207 0.477550
v 0.199192 0.576669 0.477171
v 0.199954 0.575372 0.479055
v 0.199192 0.576669 0.477171
v 0.199954 0.575372 0.479055
v 0.210461 0.553619 0.482405
v 0.203041 0.552619 0.482559
v 0.206830 0.552533 0.482572
v 0.213577 0.555769 0.482074
v 0.199464 0.553867 0.482366
v 0.215874 0.558773 0.481611
v 0.196449 0.556156 0.482014
v 0.194291 0.559261 0.481536
v 0.217127 0.562337 0.481062
v 0.193202 0.562878 0.480979
v 0.217213 0.566113 0.480481
v 0.216123 0.569730 0.479924
v 0.193288 0.566654 0.480398
v 0.213966 0.572835 0.479446
v 0.194540 0.570218 0.479849
v 0.196837 0.573222 0.479386
v 0.210951 0.575124 0.479094
v 0.199954 0.575372 0.479055
v 0.207373 0.576372 0.478901
v 0.203584 0.576458 0.478888
v 0.203584 0.576458 0.478888
v 0.207373 0.576372 0.478901
v 0.199954 0.575372 0.479055
v 0.210951 0.575124 0.479094
v 0.196837 0.573222 0.479386
v 0.213966 0.572835 0.479446
v 0.194540 0.570218 0.479849
v 0.193288 0.566654 0.480398
v 0.216123 0.569730 0.479924
v 0.193202 0.562878 0.480979
v 0.217213 0.566113 0.480481
v 0.217127 0.562337 0.481062
v 0.194291 0.559261 0.481536
v 0.215874 0.558773 0.481611
v 0.196449 0.556156 0.482014
v 0.199464 0.553867 0.482366
v 0.213577 0.555769 0.482074
v 0.203041 0.552619 0.482559
v 0.210461 0.553619 0.482405
v 0.206830 0.552533 0.482572
v 0.211783 0.576384 0.477214
v 0.210951 0.575124 0.479094
v 0.211783 0.576384 0.477214
v 0.210951 0.575124 0.479094
v 0.215235 0.573204 0.474333
v 0.215235 0.573764 0.477618
v 0.215235 0.573204 0.474333
v 0.215235 0.573764 0.477618
v 0.202727 0.550059 0.477897
v 0.198632 0.552047 0.480961
v 0.198632 0.551488 0.477677
v 0.202727 0.550618 0.481181
v 0.202727 0.550618 0.481181
v 0.202727 0.550059 0.477897
v 0.198632 0.552047 0.480961
v 0.198632 0.551488 0.477677
v 0.195180 0.554108 0.477274
v 0.195180 0.554668 0.480558
v 0.195180 0.554108 0.477274
v 0.195180 0.554668 0.480558
v 0.192709 0.557663 0.476726
v 0.192709 0.558222 0.480011
v 0.192709 0.557663 0.476726
v 0.192709 0.558222 0.480011
v 0.191462 0.561804 0.476089
v 0.191462 0.562364 0.479373
v 0.191462 0.561804 0.476089
v 0.191462 0.562364 0.479373
v 0.191561 0.566127 0.475423
v 0.191561 0.566687 0.478707
v 0.191561 0.566127 0.475423
v 0.191561 0.566687 0.478707
v 0.192995 0.570768 0.478079
v 0.192995 0.570208 0.474795
v 0.192995 0.570208 0.474795
v 0.192995 0.570768 0.478079
v 0.217705 0.569649 0.474881
v 0.217705 0.570209 0.478165
v 0.217705 0.569649 0.474881
v 0.217705 0.570209 0.478165
v 0.218952 0.565508 0.475518
v 0.218952 0.566067 0.478803
v 0.218952 0.565508 0.475518
v 0.218952 0.566067 0.478803
v 0.218854 0.561185 0.476184
v 0.218854 0.561745 0.479468
v 0.218854 0.561185 0.476184
v 0.218854 0.561745 0.479468
v 0.217419 0.557664 0.480097
v 0.217419 0.557104 0.476812
v 0.217419 0.557104 0.476812
v 0.217419 0.557664 0.480097
v 0.214790 0.554224 0.480626
v 0.214790 0.553665 0.477342
v 0.214790 0.553665 0.477342
v 0.214790 0.554224 0.480626
v 0.211222 0.551203 0.477721
v 0.211222 0.551763 0.481005
v 0.211222 0.551203 0.477721
v 0.211222 0.551763 0.481005
v 0.207066 0.549961 0.477912
v 0.207066 0.550520 0.481197
v 0.207066 0.549961 0.477912
v 0.207066 0.550520 0.481197
v 0.195625 0.574207 0.477550
v 0.196837 0.573222 0.479386
v 0.195625 0.574207 0.477550
v 0.196837 0.573222 0.479386
v 0.196449 0.556156 0.482014
v 0.192709 0.558222 0.480011
v 0.195180 0.554668 0.480558
v 0.194291 0.559261 0.481536
v 0.194291 0.559261 0.481536
v 0.196449 0.556156 0.482014
v 0.192709 0.558222 0.480011
v 0.195180 0.554668 0.480558
v 0.199464 0.553867 0.482366
v 0.198632 0.552047 0.480961
v 0.199464 0.553867 0.482366
v 0.198632 0.552047 0.480961
v 0.203041 0.552619 0.482559
v 0.202727 0.550618 0.481181
v 0.203041 0.552619 0.482559
v 0.202727 0.550618 0.481181
v 0.206830 0.552533 0.482572
v 0.207066 0.550520 0.481197
v 0.206830 0.552533 0.482572
v 0.207066 0.550520 0.481197
v 0.211222 0.551763 0.481005
v 0.210461 0.553619 0.482405
v 0.210461 0.553619 0.482405
v 0.211222 0.551763 0.481005
v 0.214790 0.554224 0.480626
v 0.213577 0.555769 0.482074
v 0.213577 0.555769 0.482074
v 0.214790 0.554224 0.480626
v 0.217419 0.557664 0.480097
v 0.215874 0.558773 0.481611
v 0.215874 0.558773 0.481611
v 0.217419 0.557664 0.480097
v 0.218854 0.561745 0.479468
v 0.217127 0.562337 0.481062
v 0.217127 0.562337 0.481062
v 0.218854 0.561745 0.479468
v 0.218952 0.566067 0.478803
v 0.217213 0.566113 0.480481
v 0.217213 0.566113 0.480481
v 0.218952 0.566067 0.478803
v 0.217705 0.570209 0.478165
v 0.216123 0.569730 0.479924
v 0.216123 0.569730 0.479924
v 0.217705 0.570209 0.478165
v 0.213966 0.572835 0.479446
v 0.215235 0.573764 0.477618
v 0.215235 0.573764 0.477618
v 0.213966 0.572835 0.479446
v 0.192995 0.570768 0.478079
v 0.194540 0.570218 0.479849
v 0.192995 0.570768 0.478079
v 0.194540 0.570218 0.479849
v 0.191561 0.566687 0.478707
v 0.193288 0.566654 0.480398
v 0.191561 0.566687 0.478707
v 0.193288 0.566654 0.480398
v 0.191462 0.562364 0.479373
v 0.193202 0.562878 0.480979
v 0.191462 0.562364 0.479373
v 0.193202 0.562878 0.480979
vn -0.135039009125921 0.9767648054531862 -0.1664180904898519
vn 0.18018694417123138 0.9696592983346919 -0.16520747653573814
vn -0.13503900912598746 0.9767648054531775 -0.16641809048985043
vn -0.4364706816234246 0.88693744265152 -0.15111358941526343
vn 0.12450437995216425 0.7816789603452067 0.6111273699699301
vn -0.09330826062192754 0.7866002023205916 0.6103717639348292
vn -0.09330826062186477 0.7866002023205999 0.6103717639348277
vn 0.4770217444447325 0.8664063144195437 -0.14761556036152526
vn 0 -0.1521746866872116 -0.9883536132031132
vn -0.6937559727932018 0.7099791282819125 -0.12096399306328336
vn -0.3015848392946269 0.7243690284471839 0.6199484618370439
vn 0 0.1521746866872108 0.9883536132031132
vn 0.3295998186818527 0.7101408756237034 0.6221445943615436
vn 0.7257116545566581 0.6782255426508766 -0.11555391701089873
vn -0.18018694417123143 -0.9696592983346936 0.1652074765357291
vn -0.4770217444447325 -0.8664063144195452 0.14761556036151594
vn -0.7257116545566582 -0.6782255426508774 0.11555391701089386
vn -0.902420099289081 -0.42473665954213663 0.07236528477158295
vn -0.991123918575168 -0.13105274802772202 0.02232835109420497
vn -0.9911239185751684 -0.1310527480277194 0.02232835109420452
vn -0.9841338805832612 0.1749070012268967 -0.02980010083784807
vn -0.8820465039098608 0.4644692127567971 -0.07913479223118618
vn 0.9024200992890812 0.42473665954213885 -0.07236528477156916
vn 0.9911239185751678 0.13105274802772676 -0.022328351094186894
vn 0.9911239185751669 0.1310527480277328 -0.022328351094187928
vn 0.9841338805832612 -0.17490700122689617 0.02980010083785162
vn 0.8820465039098608 -0.4644692127567981 0.07913479223117963
vn 0.6937559727932018 -0.7099791282819129 0.12096399306328055
vn 0.4364706816234246 -0.886937442651521 0.1511135894152574
vn 0.1350390091260072 -0.976764805453177 0.1664180904898366
vn 0.135039009125939 -0.9767648054531861 0.16641809048983813
vn -0.47925011099696724 0.6017028705778408 0.6389624297623304
vn -0.4958155506356175 -0.35338913125527854 0.7932736360541293
vn -0.6185500354224917 -0.1810417797850414 0.7646042948160171
vn -0.3250084491971912 -0.48036618116098745 0.8146274240088203
vn -0.12256508959459568 -0.5496421897454199 0.826360249567057
vn 0.09184432420406392 -0.5543985707767607 0.8271679665171904
vn 0.09184432420404434 -0.5543985707767632 0.8271679665171908
vn 0.29728494079706985 -0.4941644698436743 0.8169596934484608
vn 0.47377199426751376 -0.3748770101687125 0.7968734684344497
vn 0.6042994773322838 -0.20814530966395423 0.7690888581697342
vn 0.6763590721441421 -0.009962416841601148 0.7365046882260761
vn 0.6828920252136741 0.20080864013569844 0.7023776562123956
vn 0.6828920252136726 0.2008086401357098 0.7023776562123937
vn 0.6228193473348629 0.4039858712833076 0.669993639065956
vn 0.5012908232230803 0.5796870772506655 0.6423942738076887
vn -0.6088620200785352 0.43151374074445265 0.6656447491377174
vn -0.678277704196322 0.23110555600215393 0.6975167223623402
vn -0.6814441503814598 0.020173069375580818 0.7315920428646409
vn -0.6814441503814553 0.020173069375550533 0.7315920428646456
vn -0.18018694417123138 -0.9696592983346919 0.16520747653573814
vn 0.135039009125921 -0.9767648054531862 0.1664180904898519
vn 0.13503900912598746 -0.9767648054531775 0.16641809048985043
vn 0.4364706816234246 -0.88693744265152 0.15111358941526343
vn 0.09330826062186477 -0.7866002023205999 -0.6103717639348277
vn -0.12450437995216425 -0.7816789603452067 -0.6111273699699301
vn 0.09330826062192754 -0.7866002023205916 -0.6103717639348292
vn -0.4770217444447325 -0.8664063144195437 0.14761556036152526
vn 0 0.1521746866872116 0.9883536132031132
vn 0.6937559727932018 -0.7099791282819125 0.12096399306328336
vn 0.3015848392946269 -0.7243690284471839 -0.6199484618370439
vn 0 -0.1521746866872108 -0.9883536132031132
vn -0.3295998186818527 -0.7101408756237034 -0.6221445943615436
vn -0.7257116545566581 -0.6782255426508766 0.11555391701089873
vn 0.18018694417123143 0.9696592983346936 -0.1652074765357291
vn 0.4770217444447325 0.8664063144195452 -0.14761556036151594
vn 0.7257116545566582 0.6782255426508774 -0.11555391701089386
vn 0.902420099289081 0.42473665954213663 -0.07236528477158295
vn 0.991123918575168 0.13105274802772202 -0.02232835109420497
vn 0.9911239185751684 0.1310527480277194 -0.02232835109420452
vn 0.9841338805832612 -0.1749070012268967 0.02980010083784807
vn 0.8820465039098608 -0.4644692127567971 0.07913479223118618
vn -0.9024200992890812 -0.42473665954213885 0.07236528477156916
vn -0.9911239185751678 -0.13105274802772676 0.022328351094186894
vn -0.9911239185751669 -0.1310527480277328 0.022328351094187928
vn -0.9841338805832612 0.17490700122689617 -0.02980010083785162
vn -0.8820465039098608 0.4644692127567981 -0.07913479223117963
vn -0.6937559727932018 0.7099791282819129 -0.12096399306328055
vn -0.4364706816234246 0.886937442651521 -0.1511135894152574
vn -0.1350390091260072 0.976764805453177 -0.1664180904898366
vn -0.135039009125939 0.9767648054531861 -0.16641809048983813
vn 0.47925011099696724 -0.6017028705778408 -0.6389624297623304
vn 0.6185500354224917 0.1810417797850414 -0.7646042948160171
vn 0.4958155506356175 0.35338913125527854 -0.7932736360541293
vn 0.3250084491971912 0.48036618116098745 -0.8146274240088203
vn 0.12256508959459568 0.5496421897454199 -0.826360249567057
vn -0.09184432420406392 0.5543985707767607 -0.8271679665171904
vn -0.09184432420404434 0.5543985707767632 -0.8271679665171908
vn -0.29728494079706985 0.4941644698436743 -0.8169596934484608
vn -0.47377199426751376 0.3748770101687125 -0.7968734684344497
vn -0.6042994773322838 0.20814530966395423 -0.7690888581697342
vn -0.6763590721441421 0.009962416841601148 -0.7365046882260761
vn -0.6828920252136726 -0.2008086401357098 -0.7023776562123937
vn -0.6828920252136741 -0.20080864013569844 -0.7023776562123956
vn -0.6228193473348629 -0.4039858712833076 -0.669993639065956
vn -0.5012908232230803 -0.5796870772506655 -0.6423942738076887
vn 0.6088620200785352 -0.43151374074445265 -0.6656447491377174
vn 0.678277704196322 -0.23110555600215393 -0.6975167223623402
vn 0.6814441503814598 -0.020173069375580818 -0.7315920428646409
vn 0.6814441503814553 -0.020173069375550533 -0.7315920428646456
usemtl material_0_0
f 1//1 2//2 3//3
f 2//2 1//1 4//2
f 9//4 3//3 10//4
f 3//3 9//4 1//1
f 13//5 14//6 15//5
f 14//6 13//5 16//7
f 4//2 21//8 2//2
f 21//8 4//2 22//8
f 25//9 26//9 27//9
f 26//9 25//9 28//9
f 26//9 28//9 29//9
f 29//9 28//9 30//9
f 30//9 28//9 31//9
f 30//9 31//9 32//9
f 30//9 32//9 33//9
f 33//9 32//9 34//9
f 33//9 34//9 35//9
f 35//9 34//9 36//9
f 36//9 34//9 37//9
f 36//9 37//9 38//9
f 38//9 37//9 39//9
f 38//9 39//9 40//9
f 40//9 39//9 41//9
f 40//9 41//9 42//9
f 40//9 42//9 43//9
f 43//9 42//9 44//9
f 9//4 65//10 66//10
f 65//10 9//4 10//4
f 14//6 69//11 70//11
f 69//11 14//6 16//7
f 73//12 74//12 75//12
f 74//12 73//12 76//12
f 74//12 76//12 77//12
f 77//12 76//12 78//12
f 77//12 78//12 79//12
f 79//12 78//12 80//12
f 80//12 78//12 81//12
f 80//12 81//12 82//12
f 82//12 81//12 83//12
f 82//12 83//12 84//12
f 82//12 84//12 85//12
f 85//12 84//12 86//12
f 85//12 86//12 87//12
f 87//12 86//12 88//12
f 88//12 86//12 89//12
f 88//12 89//12 90//12
f 90//12 89//12 91//12
f 90//12 91//12 92//12
f 113//13 15//5 114//13
f 15//5 113//13 13//5
f 117//14 22//8 118//14
f 22//8 117//14 21//8
f 121//15 122//16 123//16
f 122//16 121//15 124//15
f 129//17 122//16 130//17
f 122//16 129//17 123//16
f 133//18 130//17 134//18
f 130//17 133//18 129//17
f 137//19 134//18 138//20
f 134//18 137//19 133//18
f 141//21 138//20 142//21
f 138//20 141//21 137//19
f 145//22 141//21 142//21
f 141//21 145//22 146//22
f 65//10 145//22 66//10
f 145//22 65//10 146//22
f 149//23 118//14 150//23
f 118//14 149//23 117//14
f 153//24 150//23 154//25
f 150//23 153//24 149//23
f 157//26 154//25 158//26
f 154//25 157//26 153//24
f 161//27 157//26 158//26
f 157//26 161//27 162//27
f 165//28 162//27 161//27
f 162//27 165//28 166//28
f 169//29 165//28 170//29
f 165//28 169//29 166//28
f 173//30 170//29 174//31
f 170//29 173//30 169//29
f 173//30 124//15 121//15
f 124//15 173//30 174//31
f 70//11 177//32 178//32
f 177//32 70//11 69//11
f 181//33 182//34 183//33
f 182//34 181//33 184//34
f 189//35 183//33 190//35
f 183//33 189//35 181//33
f 193//36 190//35 194//36
f 190//35 193//36 189//35
f 197//37 194//36 198//38
f 194//36 197//37 193//36
f 201//39 197//37 198//38
f 197//37 201//39 202//39
f 205//40 202//39 201//39
f 202//39 205//40 206//40
f 209//41 206//40 205//40
f 206//40 209//41 210//41
f 213//42 210//41 209//41
f 210//41 213//42 214//42
f 217//43 214//42 213//42
f 214//42 217//43 218//44
f 221//45 218//44 217//43
f 218//44 221//45 222//45
f 221//45 225//46 222//45
f 225//46 221//45 226//46
f 226//46 114//13 225//46
f 114//13 226//46 113//13
f 178//32 229//47 230//47
f 229//47 178//32 177//32
f 230//47 233//48 234//48
f 233//48 230//47 229//47
f 234//48 237//49 238//50
f 237//49 234//48 233//48
f 184//34 237//49 182//34
f 237//49 184//34 238//50
usemtl material_1_0
f 5//51 6//52 7//51
f 8//53 7//51 6//52
f 6//52 11//54 8//53
f 12//54 8//53 11//54
f 17//55 18//56 19//57
f 20//56 19//57 18//56
f 23//58 5//51 24//58
f 7//51 24//58 5//51
f 45//59 46//59 47//59
f 47//59 46//59 48//59
f 46//59 49//59 48//59
f 49//59 50//59 48//59
f 48//59 50//59 51//59
f 50//59 52//59 51//59
f 51//59 52//59 53//59
f 52//59 54//59 53//59
f 53//59 54//59 55//59
f 55//59 54//59 56//59
f 54//59 57//59 56//59
f 56//59 57//59 58//59
f 57//59 59//59 58//59
f 59//59 60//59 58//59
f 58//59 60//59 61//59
f 61//59 60//59 62//59
f 60//59 63//59 62//59
f 64//59 62//59 63//59
f 12//54 11//54 67//60
f 68//60 67//60 11//54
f 17//55 19//57 71//61
f 72//61 71//61 19//57
f 93//62 94//62 95//62
f 94//62 96//62 95//62
f 95//62 96//62 97//62
f 96//62 98//62 97//62
f 97//62 98//62 99//62
f 99//62 98//62 100//62
f 98//62 101//62 100//62
f 100//62 101//62 102//62
f 101//62 103//62 102//62
f 103//62 104//62 102//62
f 102//62 104//62 105//62
f 104//62 106//62 105//62
f 105//62 106//62 107//62
f 107//62 106//62 108//62
f 106//62 109//62 108//62
f 108//62 109//62 110//62
f 109//62 111//62 110//62
f 112//62 110//62 111//62
f 18//56 115//63 20//56
f 116//63 20//56 115//63
f 24//58 119//64 23//58
f 120//64 23//58 119//64
f 125//65 126//65 127//66
f 128//66 127//66 126//65
f 128//66 131//67 127//66
f 132//67 127//66 131//67
f 131//67 135//68 132//67
f 136//68 132//67 135//68
f 135//68 139//69 136//68
f 140//70 136//68 139//69
f 139//69 143//71 140//70
f 144//71 140//70 143//71
f 147//72 148//72 143//71
f 144//71 143//71 148//72
f 147//72 67//60 148//72
f 68//60 148//72 67//60
f 119//64 151//73 120//64
f 152//73 120//64 151//73
f 151//73 155//74 152//73
f 156//75 152//73 155//74
f 155//74 159//76 156//75
f 160//76 156//75 159//76
f 163//77 164//77 159//76
f 160//76 159//76 164//77
f 167//78 168//78 163//77
f 164//77 163//77 168//78
f 167//78 171//79 168//78
f 172//79 168//78 171//79
f 171//79 175//80 172//79
f 176//81 172//79 175//80
f 176//81 175//80 125//65
f 126//65 125//65 175//80
f 71//61 72//61 179//82
f 180//82 179//82 72//61
f 185//83 186//84 187//83
f 188//84 187//83 186//84
f 186//84 191//85 188//84
f 192//85 188//84 191//85
f 191//85 195//86 192//85
f 196//86 192//85 195//86
f 195//86 199//87 196//86
f 200//88 196//86 199//87
f 203//89 204//89 199//87
f 200//88 199//87 204//89
f 207//90 208//90 203//89
f 204//89 203//89 208//90
f 211//91 212//91 207//90
f 208//90 207//90 212//91
f 215//92 216//92 211//91
f 212//91 211//91 216//92
f 219//93 220//94 215//92
f 216//92 215//92 220//94
f 223//95 224//95 219//93
f 220//94 219//93 224//95
f 227//96 224//95 228//96
f 223//95 228//96 224//95
f 115//63 227//96 116//63
f 228//96 116//63 227//96
f 179//82 180//82 231//97
f 232//97 231//97 180//82
f 231//97 232//97 235//98
f 236//98 235//98 232//97
f 235//98 236//98 239//99
f 240//100 239//99 236//98
f 240//100 185//83 239//99
f 187//83 239//99 185//83
