# SSTK version 0.8.0
# 11
mtllib original-11.mtl
o #ID56
v 0.096902 -0.211480 0.517744
v -0.100539 -0.211480 0.517744
v -0.001818 -0.224599 0.517744
v 0.188895 -0.173018 0.517744
v 0.037855 -0.187300 0.517744
v 0.125660 -0.165088 0.517744
v 0.267892 -0.111834 0.517744
v 0.204777 -0.120694 0.517744
v 0.269816 -0.057144 0.517744
v 0.328507 -0.032097 0.517744
v 0.316342 0.021232 0.517744
v 0.366612 0.060758 0.517744
v 0.341187 0.109093 0.517744
v 0.379609 0.160404 0.517744
v 0.342657 0.200450 0.517744
v 0.366612 0.260051 0.517744
v 0.342657 0.209275 0.517744
v 0.333988 0.210427 0.517744
v 0.243332 0.222474 0.517744
v 0.237530 0.230137 0.517744
v 0.230017 0.240844 0.517744
v 0.222894 0.251819 0.517744
v 0.216170 0.263047 0.517744
v 0.328507 0.352906 0.517744
v 0.209855 0.274515 0.517744
v 0.203957 0.286206 0.517744
v 0.198483 0.298107 0.517744
v 0.193441 0.310199 0.517744
v 0.188837 0.322469 0.517744
v 0.184677 0.334899 0.517744
v 0.180968 0.347474 0.517744
v 0.177949 0.359252 0.517744
v 0.267892 0.432643 0.517744
v 0.177949 0.452706 0.517744
v 0.188895 0.493827 0.517744
v 0.177949 0.456213 0.517744
v 0.169281 0.461456 0.517744
v 0.136061 0.481548 0.517744
v 0.049017 0.506626 0.517744
v 0.096902 0.532289 0.517744
v -0.041492 0.508109 0.517744
v -0.052654 -0.185817 0.517744
v -0.192532 -0.173018 0.517744
v -0.139698 -0.160739 0.517744
v -0.271528 -0.111834 0.517744
v -0.217346 -0.113776 0.517744
v -0.280306 -0.048128 0.517744
v -0.332144 -0.032097 0.517744
v -0.324288 0.031731 0.517744
v -0.370249 0.060758 0.517744
v -0.346293 0.120359 0.517744
v -0.383246 0.160404 0.517744
v -0.344824 0.211716 0.517744
v -0.370249 0.260051 0.517744
v -0.319979 0.299576 0.517744
v -0.332144 0.352906 0.517744
v -0.273452 0.377952 0.517744
v -0.271528 0.432643 0.517744
v -0.208414 0.441503 0.517744
v -0.192532 0.493827 0.517744
v -0.129297 0.485897 0.517744
v -0.100539 0.532289 0.517744
v -0.001818 0.545408 0.517744
v -0.001818 0.545408 0.517744
v 0.096902 0.532289 0.517744
v -0.100539 0.532289 0.517744
v -0.041492 0.508109 0.517744
v -0.192532 0.493827 0.517744
v -0.129297 0.485897 0.517744
v -0.208414 0.441503 0.517744
v -0.271528 0.432643 0.517744
v -0.273452 0.377952 0.517744
v -0.332144 0.352906 0.517744
v -0.319979 0.299576 0.517744
v -0.370249 0.260051 0.517744
v -0.344824 0.211716 0.517744
v -0.383246 0.160404 0.517744
v -0.346293 0.120359 0.517744
v -0.370249 0.060758 0.517744
v -0.324288 0.031731 0.517744
v -0.332144 -0.032097 0.517744
v -0.280306 -0.048128 0.517744
v -0.271528 -0.111834 0.517744
v -0.217346 -0.113776 0.517744
v -0.139698 -0.160739 0.517744
v -0.192532 -0.173018 0.517744
v -0.052654 -0.185817 0.517744
v 0.037855 -0.187300 0.517744
v -0.100539 -0.211480 0.517744
v 0.049017 0.506626 0.517744
v 0.188895 0.493827 0.517744
v 0.136061 0.481548 0.517744
v 0.169281 0.461456 0.517744
v 0.177949 0.456213 0.517744
v 0.177949 0.452706 0.517744
v 0.267892 0.432643 0.517744
v 0.177949 0.359252 0.517744
v 0.328507 0.352906 0.517744
v 0.180968 0.347474 0.517744
v 0.184677 0.334899 0.517744
v 0.188837 0.322469 0.517744
v 0.193441 0.310199 0.517744
v 0.198483 0.298107 0.517744
v 0.203957 0.286206 0.517744
v 0.209855 0.274515 0.517744
v 0.216170 0.263047 0.517744
v 0.366612 0.260051 0.517744
v 0.222894 0.251819 0.517744
v 0.230017 0.240844 0.517744
v 0.237530 0.230137 0.517744
v 0.243332 0.222474 0.517744
v 0.333988 0.210427 0.517744
v 0.342657 0.209275 0.517744
v 0.342657 0.200450 0.517744
v 0.379609 0.160404 0.517744
v 0.341187 0.109093 0.517744
v 0.366612 0.060758 0.517744
v 0.316342 0.021232 0.517744
v 0.328507 -0.032097 0.517744
v 0.269816 -0.057144 0.517744
v 0.267892 -0.111834 0.517744
v 0.204777 -0.120694 0.517744
v 0.125660 -0.165088 0.517744
v 0.188895 -0.173018 0.517744
v 0.096902 -0.211480 0.517744
v -0.001818 -0.224599 0.517744
vn 0 0 1
vn 0 0 -1
usemtl material_0_0
f 1//1 2//1 3//1
f 2//1 1//1 4//1
f 2//1 4//1 5//1
f 5//1 4//1 6//1
f 6//1 4//1 7//1
f 6//1 7//1 8//1
f 8//1 7//1 9//1
f 9//1 7//1 10//1
f 9//1 10//1 11//1
f 11//1 10//1 12//1
f 11//1 12//1 13//1
f 13//1 12//1 14//1
f 13//1 14//1 15//1
f 15//1 14//1 16//1
f 15//1 16//1 17//1
f 17//1 16//1 18//1
f 18//1 16//1 19//1
f 19//1 16//1 20//1
f 20//1 16//1 21//1
f 21//1 16//1 22//1
f 22//1 16//1 23//1
f 23//1 16//1 24//1
f 23//1 24//1 25//1
f 25//1 24//1 26//1
f 26//1 24//1 27//1
f 27//1 24//1 28//1
f 28//1 24//1 29//1
f 29//1 24//1 30//1
f 30//1 24//1 31//1
f 31//1 24//1 32//1
f 32//1 24//1 33//1
f 32//1 33//1 34//1
f 34//1 33//1 35//1
f 34//1 35//1 36//1
f 36//1 35//1 37//1
f 37//1 35//1 38//1
f 38//1 35//1 39//1
f 39//1 35//1 40//1
f 39//1 40//1 41//1
f 2//1 42//1 43//1
f 42//1 2//1 5//1
f 43//1 42//1 44//1
f 43//1 44//1 45//1
f 45//1 44//1 46//1
f 45//1 46//1 47//1
f 45//1 47//1 48//1
f 48//1 47//1 49//1
f 48//1 49//1 50//1
f 50//1 49//1 51//1
f 50//1 51//1 52//1
f 52//1 51//1 53//1
f 52//1 53//1 54//1
f 54//1 53//1 55//1
f 54//1 55//1 56//1
f 56//1 55//1 57//1
f 56//1 57//1 58//1
f 58//1 57//1 59//1
f 58//1 59//1 60//1
f 60//1 59//1 61//1
f 60//1 61//1 41//1
f 60//1 41//1 62//1
f 62//1 41//1 40//1
f 62//1 40//1 63//1
usemtl material_1_0
f 64//2 65//2 66//2
f 65//2 67//2 66//2
f 66//2 67//2 68//2
f 67//2 69//2 68//2
f 69//2 70//2 68//2
f 68//2 70//2 71//2
f 70//2 72//2 71//2
f 71//2 72//2 73//2
f 72//2 74//2 73//2
f 73//2 74//2 75//2
f 74//2 76//2 75//2
f 75//2 76//2 77//2
f 76//2 78//2 77//2
f 77//2 78//2 79//2
f 78//2 80//2 79//2
f 79//2 80//2 81//2
f 80//2 82//2 81//2
f 81//2 82//2 83//2
f 82//2 84//2 83//2
f 84//2 85//2 83//2
f 83//2 85//2 86//2
f 85//2 87//2 86//2
f 88//2 89//2 87//2
f 86//2 87//2 89//2
f 67//2 65//2 90//2
f 65//2 91//2 90//2
f 90//2 91//2 92//2
f 92//2 91//2 93//2
f 93//2 91//2 94//2
f 94//2 91//2 95//2
f 91//2 96//2 95//2
f 95//2 96//2 97//2
f 96//2 98//2 97//2
f 97//2 98//2 99//2
f 99//2 98//2 100//2
f 100//2 98//2 101//2
f 101//2 98//2 102//2
f 102//2 98//2 103//2
f 103//2 98//2 104//2
f 104//2 98//2 105//2
f 105//2 98//2 106//2
f 98//2 107//2 106//2
f 106//2 107//2 108//2
f 108//2 107//2 109//2
f 109//2 107//2 110//2
f 110//2 107//2 111//2
f 111//2 107//2 112//2
f 112//2 107//2 113//2
f 113//2 107//2 114//2
f 107//2 115//2 114//2
f 114//2 115//2 116//2
f 115//2 117//2 116//2
f 116//2 117//2 118//2
f 117//2 119//2 118//2
f 118//2 119//2 120//2
f 119//2 121//2 120//2
f 120//2 121//2 122//2
f 122//2 121//2 123//2
f 121//2 124//2 123//2
f 123//2 124//2 88//2
f 88//2 124//2 89//2
f 124//2 125//2 89//2
f 126//2 89//2 125//2
