# SSTK version 0.8.0
# 19
mtllib original-19.mtl
o #ID105
v 0.378363 0.606049 0.471397
v 0.376569 0.605975 0.471410
v 0.377471 0.605893 0.471425
v 0.375720 0.606291 0.471354
v 0.379185 0.606432 0.471328
v 0.374980 0.606817 0.471259
v 0.379880 0.607017 0.471223
v 0.374401 0.607519 0.471133
v 0.380402 0.607764 0.471089
v 0.374021 0.608349 0.470984
v 0.380714 0.608622 0.470935
v 0.373866 0.609249 0.470823
v 0.380796 0.609531 0.470772
v 0.373948 0.610159 0.470660
v 0.380641 0.610432 0.470611
v 0.374261 0.611016 0.470506
v 0.380262 0.611261 0.470462
v 0.374782 0.611763 0.470372
v 0.379682 0.611963 0.470336
v 0.375477 0.612348 0.470267
v 0.378942 0.612490 0.470241
v 0.376299 0.612731 0.470198
v 0.378092 0.612805 0.470185
v 0.377191 0.612887 0.470170
v 0.377191 0.612887 0.470170
v 0.378092 0.612805 0.470185
v 0.376299 0.612731 0.470198
v 0.378942 0.612490 0.470241
v 0.375477 0.612348 0.470267
v 0.379682 0.611963 0.470336
v 0.374782 0.611763 0.470372
v 0.380262 0.611261 0.470462
v 0.374261 0.611016 0.470506
v 0.380641 0.610432 0.470611
v 0.373948 0.610159 0.470660
v 0.380796 0.609531 0.470772
v 0.373866 0.609249 0.470823
v 0.380714 0.608622 0.470935
v 0.374021 0.608349 0.470984
v 0.380402 0.607764 0.471089
v 0.374401 0.607519 0.471133
v 0.379880 0.607017 0.471223
v 0.374980 0.606817 0.471259
v 0.379185 0.606432 0.471328
v 0.375720 0.606291 0.471354
v 0.378363 0.606049 0.471397
v 0.376569 0.605975 0.471410
v 0.377471 0.605893 0.471425
vn 0 0.17664192088322073 0.9842751809258863
vn 0 -0.17664192088322073 -0.9842751809258863
usemtl material_0_0
f 25//2 26//2 27//2
f 26//2 28//2 27//2
f 27//2 28//2 29//2
f 28//2 30//2 29//2
f 29//2 30//2 31//2
f 30//2 32//2 31//2
f 31//2 32//2 33//2
f 32//2 34//2 33//2
f 33//2 34//2 35//2
f 34//2 36//2 35//2
f 35//2 36//2 37//2
f 36//2 38//2 37//2
f 37//2 38//2 39//2
f 38//2 40//2 39//2
f 39//2 40//2 41//2
f 40//2 42//2 41//2
f 41//2 42//2 43//2
f 42//2 44//2 43//2
f 43//2 44//2 45//2
f 44//2 46//2 45//2
f 45//2 46//2 47//2
f 48//2 47//2 46//2
usemtl material_1_0
f 1//1 2//1 3//1
f 2//1 1//1 4//1
f 4//1 1//1 5//1
f 4//1 5//1 6//1
f 6//1 5//1 7//1
f 6//1 7//1 8//1
f 8//1 7//1 9//1
f 8//1 9//1 10//1
f 10//1 9//1 11//1
f 10//1 11//1 12//1
f 12//1 11//1 13//1
f 12//1 13//1 14//1
f 14//1 13//1 15//1
f 14//1 15//1 16//1
f 16//1 15//1 17//1
f 16//1 17//1 18//1
f 18//1 17//1 19//1
f 18//1 19//1 20//1
f 20//1 19//1 21//1
f 20//1 21//1 22//1
f 22//1 21//1 23//1
f 22//1 23//1 24//1
