# SSTK version 0.8.0
# 13
mtllib original-13.mtl
o #ID70
v 0.145869 0.417689 0.492865
v 0.206808 0.370339 0.459517
v 0.145869 0.417689 0.459517
v 0.169281 0.399498 0.492865
v 0.206808 0.370339 0.492865
v 0.206808 0.370339 0.492865
v 0.169281 0.399498 0.492865
v 0.206808 0.370339 0.459517
v 0.145869 0.417689 0.492865
v 0.145869 0.417689 0.459517
v 0.253530 0.308683 0.459517
v 0.253530 0.308683 0.492865
v 0.253530 0.308683 0.459517
v 0.253530 0.308683 0.492865
v 0.074865 0.447505 0.459517
v 0.074865 0.447505 0.492865
v 0.074865 0.447505 0.459517
v 0.074865 0.447505 0.492865
v 0.282850 0.236922 0.459517
v 0.282850 0.236922 0.492865
v 0.282850 0.236922 0.459517
v 0.282850 0.236922 0.492865
v -0.001365 0.457756 0.459517
v -0.001365 0.457756 0.492865
v -0.001365 0.457756 0.459517
v -0.001365 0.457756 0.492865
v 0.292771 0.159946 0.492865
v 0.286591 0.207900 0.492865
v 0.292771 0.159946 0.459517
v 0.292771 0.159946 0.459517
v 0.292771 0.159946 0.492865
v 0.286591 0.207900 0.492865
v -0.077626 0.447742 0.459517
v -0.077626 0.447742 0.492865
v -0.077626 0.447742 0.459517
v -0.077626 0.447742 0.492865
v 0.282615 0.083002 0.459517
v 0.282615 0.083002 0.492865
v 0.282615 0.083002 0.459517
v 0.282615 0.083002 0.492865
v -0.148720 0.418147 0.492865
v -0.148720 0.418147 0.459517
v -0.148720 0.418147 0.492865
v -0.148720 0.418147 0.459517
v 0.253076 0.011332 0.459517
v 0.253076 0.011332 0.492865
v 0.253076 0.011332 0.459517
v 0.253076 0.011332 0.492865
v -0.209804 0.370987 0.459517
v -0.209804 0.370987 0.492865
v -0.209804 0.370987 0.459517
v -0.209804 0.370987 0.492865
v 0.206167 -0.050179 0.459517
v 0.206167 -0.050179 0.492865
v 0.206167 -0.050179 0.459517
v 0.206167 -0.050179 0.492865
v -0.256713 0.309477 0.492865
v -0.256713 0.309477 0.459517
v -0.256713 0.309477 0.459517
v -0.256713 0.309477 0.492865
v 0.145083 -0.097338 0.459517
v 0.145083 -0.097338 0.492865
v 0.145083 -0.097338 0.459517
v 0.145083 -0.097338 0.492865
v -0.286252 0.237807 0.492865
v -0.286252 0.237807 0.459517
v -0.286252 0.237807 0.459517
v -0.286252 0.237807 0.492865
v 0.073989 -0.126933 0.492865
v 0.073989 -0.126933 0.459517
v 0.073989 -0.126933 0.492865
v 0.073989 -0.126933 0.459517
v -0.296408 0.160862 0.492865
v -0.296408 0.160862 0.459517
v -0.296408 0.160862 0.459517
v -0.296408 0.160862 0.492865
v -0.002272 -0.136947 0.459517
v -0.002272 -0.136947 0.492865
v -0.002272 -0.136947 0.459517
v -0.002272 -0.136947 0.492865
v -0.286487 0.083887 0.492865
v -0.286487 0.083887 0.459517
v -0.286487 0.083887 0.459517
v -0.286487 0.083887 0.492865
v -0.078502 -0.126696 0.492865
v -0.078502 -0.126696 0.459517
v -0.078502 -0.126696 0.492865
v -0.078502 -0.126696 0.459517
v -0.257167 0.012125 0.492865
v -0.257167 0.012125 0.459517
v -0.257167 0.012125 0.459517
v -0.257167 0.012125 0.492865
v -0.149506 -0.096880 0.459517
v -0.149506 -0.096880 0.492865
v -0.149506 -0.096880 0.459517
v -0.149506 -0.096880 0.492865
v -0.210445 -0.049531 0.492865
v -0.210445 -0.049531 0.459517
v -0.210445 -0.049531 0.459517
v -0.210445 -0.049531 0.492865
vn 0.5048397034737095 0.8632131103016085 0
vn 0.7114813755476194 0.7027049539094393 0
vn 0.6135548824282585 0.7896520792402472 0
vn 0.8687941046164315 0.495173508766102 0
vn 0.26257940515221384 0.9649103875437912 0
vn 0.9669154419543642 0.255097095456213 0
vn 0.0015546972349907919 0.9999987914575235 0
vn 0.999998835736203 -0.001525950929331457 0
vn 0.9917973168724629 0.1278205079186559 0
vn -0.2595816809990617 0.9657211558673141 0
vn 0.966131443513613 -0.25805044827378704 0
vn -0.5021657843462117 0.8647713715381389 0
vn 0.8672717744918419 -0.4978349818662522 0
vn -0.709313356893387 0.7048932981186831 0
vn 0.709313356893387 -0.7048932981186831 0
vn -0.8672717744918419 0.4978349818662522 0
vn 0.5021657843462117 -0.8647713715381389 0
vn -0.966131443513613 0.25805044827378704 0
vn 0.2595816809990617 -0.9657211558673141 0
vn -0.999998835736203 0.001525950929331457 0
vn -0.0015546972349907919 -0.9999987914575235 0
vn -0.9669154419543642 -0.255097095456213 0
vn -0.26257940515221384 -0.9649103875437912 0
vn -0.8687941046164315 -0.495173508766102 0
vn -0.5048397034737095 -0.8632131103016085 0
vn -0.7114813755476194 -0.7027049539094393 0
vn -0.6135548824282585 -0.7896520792402472 0
vn -0.9917973168724629 -0.1278205079186559 0
usemtl material_0_0
f 6//26 7//27 8//26
f 7//27 9//25 8//26
f 10//25 8//26 9//25
f 8//26 13//24 6//26
f 14//24 6//26 13//24
f 10//25 9//25 17//23
f 18//23 17//23 9//25
f 13//24 21//22 14//24
f 22//22 14//24 21//22
f 17//23 18//23 25//21
f 26//21 25//21 18//23
f 21//22 30//20 22//22
f 30//20 31//20 22//22
f 32//28 22//22 31//20
f 25//21 26//21 35//19
f 36//19 35//19 26//21
f 30//20 39//18 31//20
f 40//18 31//20 39//18
f 36//19 43//17 35//19
f 44//17 35//19 43//17
f 39//18 47//16 40//18
f 48//16 40//18 47//16
f 44//17 43//17 51//15
f 52//15 51//15 43//17
f 47//16 55//14 48//16
f 56//14 48//16 55//14
f 59//13 51//15 60//13
f 52//15 60//13 51//15
f 55//14 63//12 56//14
f 64//12 56//14 63//12
f 67//11 59//13 68//11
f 60//13 68//11 59//13
f 64//12 63//12 71//10
f 72//10 71//10 63//12
f 75//8 67//11 76//8
f 68//11 76//8 67//11
f 72//10 79//7 71//10
f 80//7 71//10 79//7
f 83//6 75//8 84//6
f 76//8 84//6 75//8
f 80//7 79//7 87//5
f 88//5 87//5 79//7
f 91//4 83//6 92//4
f 84//6 92//4 83//6
f 88//5 95//1 87//5
f 96//1 87//5 95//1
f 99//2 91//4 100//2
f 92//4 100//2 91//4
f 95//1 99//2 96//1
f 100//2 96//1 99//2
usemtl material_1_0
f 1//1 2//2 3//1
f 2//2 1//1 4//3
f 2//2 4//3 5//2
f 11//4 5//2 12//4
f 5//2 11//4 2//2
f 1//1 15//5 16//5
f 15//5 1//1 3//1
f 19//6 12//4 20//6
f 12//4 19//6 11//4
f 16//5 23//7 24//7
f 23//7 16//5 15//5
f 27//8 20//6 28//9
f 20//6 27//8 29//8
f 20//6 29//8 19//6
f 24//7 33//10 34//10
f 33//10 24//7 23//7
f 37//11 27//8 38//11
f 27//8 37//11 29//8
f 41//12 33//10 42//12
f 33//10 41//12 34//10
f 45//13 38//11 46//13
f 38//11 45//13 37//11
f 41//12 49//14 50//14
f 49//14 41//12 42//12
f 53//15 46//13 54//15
f 46//13 53//15 45//13
f 49//14 57//16 50//14
f 57//16 49//14 58//16
f 61//17 54//15 62//17
f 54//15 61//17 53//15
f 58//16 65//18 57//16
f 65//18 58//16 66//18
f 61//17 69//19 70//19
f 69//19 61//17 62//17
f 66//18 73//20 65//18
f 73//20 66//18 74//20
f 77//21 69//19 78//21
f 69//19 77//21 70//19
f 74//20 81//22 73//20
f 81//22 74//20 82//22
f 77//21 85//23 86//23
f 85//23 77//21 78//21
f 82//22 89//24 81//22
f 89//24 82//22 90//24
f 93//25 85//23 94//25
f 85//23 93//25 86//23
f 90//24 97//26 89//24
f 97//26 90//24 98//26
f 98//26 94//25 97//26
f 94//25 98//26 93//25
