# SSTK version 0.8.0
# 6
mtllib original-6.mtl
o group_3/ID29#ID29
v -0.003552 0.684229 0.453843
v -0.001819 0.683396 0.474948
v -0.003552 0.683175 0.475012
v -0.001819 0.684449 0.453780
v -0.001819 0.684449 0.453780
v -0.003552 0.684229 0.453843
v -0.001819 0.683396 0.474948
v -0.003552 0.683175 0.475012
v -0.003552 0.679798 0.475988
v -0.000085 0.675574 0.477207
v -0.003552 0.675574 0.477207
v -0.000085 0.679798 0.475988
v -0.003552 0.683175 0.475012
v -0.000085 0.683175 0.475012
v -0.001819 0.683396 0.474948
v -0.001819 0.683396 0.474948
v -0.003552 0.683175 0.475012
v -0.000085 0.683175 0.475012
v -0.000085 0.679798 0.475988
v -0.003552 0.679798 0.475988
v -0.000085 0.675574 0.477207
v -0.003552 0.675574 0.477207
v -0.003552 0.686124 0.453296
v -0.003552 0.683175 0.475012
v -0.003552 0.684983 0.476229
v -0.003552 0.684229 0.453843
v -0.003552 0.675574 0.477207
v -0.003552 0.675532 0.478958
v -0.003552 0.679798 0.475988
v -0.003552 0.683175 0.475012
v -0.003552 0.684983 0.476229
v -0.003552 0.679798 0.475988
v -0.003552 0.675574 0.477207
v -0.003552 0.675532 0.478958
v -0.003552 0.684229 0.453843
v -0.003552 0.686124 0.453296
v -0.003552 0.686124 0.453296
v -0.001819 0.684449 0.453780
v -0.003552 0.684229 0.453843
v -0.000085 0.686124 0.453296
v -0.000085 0.684229 0.453843
v -0.003552 0.686124 0.453296
v -0.001819 0.684449 0.453780
v -0.000085 0.686124 0.453296
v -0.000085 0.684229 0.453843
v -0.003552 0.684229 0.453843
v -0.001819 0.684449 0.453780
v -0.000085 0.683175 0.475012
v -0.001819 0.683396 0.474948
v -0.000085 0.684229 0.453843
v -0.000085 0.684229 0.453843
v -0.001819 0.684449 0.453780
v -0.000085 0.683175 0.475012
v -0.001819 0.683396 0.474948
v -0.000085 0.675574 0.477207
v -0.000085 0.684983 0.476229
v -0.000085 0.675532 0.478958
v -0.000085 0.679798 0.475988
v -0.000085 0.683175 0.475012
v -0.000085 0.686124 0.453296
v -0.000085 0.684229 0.453843
v -0.000085 0.684229 0.453843
v -0.000085 0.683175 0.475012
v -0.000085 0.686124 0.453296
v -0.000085 0.679798 0.475988
v -0.000085 0.684983 0.476229
v -0.000085 0.675574 0.477207
v -0.000085 0.675532 0.478958
v -0.000085 0.675574 0.477207
v -0.003552 0.675532 0.478958
v -0.003552 0.675574 0.477207
v -0.000085 0.675532 0.478958
v -0.000085 0.675532 0.478958
v -0.000085 0.675574 0.477207
v -0.003552 0.675532 0.478958
v -0.003552 0.675574 0.477207
v -0.000085 0.684983 0.476229
v -0.003552 0.675532 0.478958
v -0.000085 0.675532 0.478958
v -0.003552 0.684983 0.476229
v -0.003552 0.684983 0.476229
v -0.000085 0.684983 0.476229
v -0.003552 0.675532 0.478958
v -0.000085 0.675532 0.478958
v -0.000085 0.684983 0.476229
v -0.003552 0.686124 0.453296
v -0.003552 0.684983 0.476229
v -0.000085 0.686124 0.453296
v -0.000085 0.686124 0.453296
v -0.000085 0.684983 0.476229
v -0.003552 0.686124 0.453296
v -0.003552 0.684983 0.476229
vn 0.12419648632556217 -0.9910313063492702 -0.0493171635441824
vn -0.12419648632556217 0.9910313063492702 0.0493171635441824
vn 0 -0.27748061899789717 -0.9607312350915547
vn 0 0.27748061899789717 0.9607312350915547
vn -1 0 0
vn 1 0 0
vn 0 -0.2774806189978412 -0.9607312350915707
vn 0 0.2774806189978412 0.9607312350915707
vn -0.12419648632556217 -0.9910313063492702 -0.0493171635441824
vn 0.12419648632556217 0.9910313063492702 0.0493171635441824
vn 0 -0.9997137640294148 -0.023924673668405325
vn 0 0.9997137640294148 0.023924673668405325
vn 0 0.27748061899790477 0.9607312350915523
vn 0 -0.27748061899790477 -0.9607312350915523
vn 0 0.998764090979362 0.0497020177675798
vn 0 -0.998764090979362 -0.0497020177675798
usemtl material_0_0
f 1//1 2//1 3//1
f 2//1 1//1 4//1
f 5//2 6//2 7//2
f 8//2 7//2 6//2
f 9//3 10//3 11//3
f 10//3 9//3 12//3
f 12//3 9//3 13//3
f 12//3 13//3 14//3
f 14//3 13//3 15//3
f 16//4 17//4 18//4
f 18//4 17//4 19//4
f 17//4 20//4 19//4
f 19//4 20//4 21//4
f 22//4 21//4 20//4
f 23//5 24//5 25//5
f 24//5 23//5 26//5
f 25//5 27//5 28//5
f 27//5 25//5 29//5
f 29//5 25//5 24//5
f 30//6 31//6 32//6
f 32//6 31//6 33//6
f 34//6 33//6 31//6
f 35//6 36//6 30//6
f 31//6 30//6 36//6
f 37//7 38//7 39//7
f 38//7 40//7 41//7
f 40//7 38//7 37//7
f 42//8 43//8 44//8
f 45//8 44//8 43//8
f 46//8 43//8 42//8
f 47//9 48//9 49//9
f 48//9 47//9 50//9
f 51//10 52//10 53//10
f 54//10 53//10 52//10
f 55//6 56//6 57//6
f 56//6 55//6 58//6
f 56//6 59//6 60//6
f 59//6 56//6 58//6
f 60//6 59//6 61//6
f 62//5 63//5 64//5
f 65//5 66//5 63//5
f 64//5 63//5 66//5
f 65//5 67//5 66//5
f 68//5 66//5 67//5
f 69//11 70//11 71//11
f 70//11 69//11 72//11
f 73//12 74//12 75//12
f 76//12 75//12 74//12
f 77//13 78//13 79//13
f 78//13 77//13 80//13
f 81//14 82//14 83//14
f 84//14 83//14 82//14
f 85//15 86//15 87//15
f 86//15 85//15 88//15
f 89//16 90//16 91//16
f 92//16 91//16 90//16
