# SSTK version 0.8.0
# 42
mtllib original-42.mtl
o instance_13/Лопасть_Ст._машина/ID182#ID182
v -0.431315 0.126741 -0.170794
v -0.420600 0.058454 0.211836
v -0.431315 0.126741 0.211836
v -0.420600 0.058454 -0.170794
v -0.330085 0.096887 0.181337
v -0.431315 0.126741 0.211836
v -0.420600 0.058454 0.211836
v -0.333464 0.118422 0.181337
v -0.333464 0.118422 0.181337
v -0.431315 0.126741 -0.170794
v -0.431315 0.126741 0.211836
v -0.333464 0.118422 -0.140295
v -0.324568 0.117666 0.169796
v -0.324568 0.117666 -0.128754
v -0.431315 0.126741 -0.170794
v -0.330085 0.096887 -0.140295
v -0.420600 0.058454 -0.170794
v -0.333464 0.118422 -0.140295
v -0.330085 0.096887 -0.140295
v -0.420600 0.058454 0.211836
v -0.420600 0.058454 -0.170794
v -0.330085 0.096887 0.181337
v -0.321856 0.100381 -0.128754
v -0.321856 0.100381 0.169796
v -0.321856 0.100381 0.169796
v -0.333464 0.118422 0.181337
v -0.330085 0.096887 0.181337
v -0.324568 0.117666 0.169796
v -0.321856 0.100381 -0.128754
v -0.324568 0.117666 0.169796
v -0.321856 0.100381 0.169796
v -0.324568 0.117666 -0.128754
v -0.330085 0.096887 -0.140295
v -0.324568 0.117666 -0.128754
v -0.321856 0.100381 -0.128754
v -0.333464 0.118422 -0.140295
vn -0.987911866189361 -0.1550165947318349 0
vn 0.3008985082463763 0.04721500338705444 0.9524866566993292
vn 0.08471525391559738 0.9964052015892008 0
vn 0.3008985082463763 0.04721500338705488 -0.9524866566993292
vn 0.39083476208338874 -0.9204608567164718 0
vn 0.7898280414885337 0.12393459133914016 0.6006761872656409
vn 0.9879118661893611 0.1550165947318342 0
vn 0.7898280414885337 0.12393459133914045 -0.6006761872656409
usemtl material_0_0
f 1//1 2//1 3//1
f 2//1 1//1 4//1
f 5//2 6//2 7//2
f 6//2 5//2 8//2
f 9//3 10//3 11//3
f 10//3 9//3 12//3
f 12//3 9//3 13//3
f 12//3 13//3 14//3
f 15//4 16//4 17//4
f 16//4 15//4 18//4
f 19//5 20//5 21//5
f 20//5 19//5 22//5
f 22//5 19//5 23//5
f 22//5 23//5 24//5
f 25//6 26//6 27//6
f 26//6 25//6 28//6
f 29//7 30//7 31//7
f 30//7 29//7 32//7
f 33//8 34//8 35//8
f 34//8 33//8 36//8
