# SSTK version 0.8.0
# 12
mtllib original-12.mtl
o #ID62
v 0.196110 0.213607 0.336308
v -0.191447 0.160404 0.309867
v 0.187810 0.160404 0.309867
v -0.191569 0.160699 0.310014
v -0.199766 0.214272 0.336638
v 0.190111 0.271856 0.365256
v -0.193578 0.272553 0.365602
v 0.166728 0.330007 0.394156
v -0.169979 0.330664 0.394483
v 0.124771 0.380934 0.419465
v -0.127809 0.381457 0.419725
v 0.066535 0.416316 0.437049
v -0.069412 0.416609 0.437195
v -0.001408 0.429142 0.443424
v -0.001408 0.429142 0.443424
v 0.066535 0.416316 0.437049
v -0.069412 0.416609 0.437195
v -0.127809 0.381457 0.419725
v 0.124771 0.380934 0.419465
v -0.169979 0.330664 0.394483
v 0.166728 0.330007 0.394156
v -0.193578 0.272553 0.365602
v 0.190111 0.271856 0.365256
v -0.199766 0.214272 0.336638
v 0.196110 0.213607 0.336308
v -0.191569 0.160699 0.310014
v -0.191447 0.160404 0.309867
v 0.187810 0.160404 0.309867
v -0.199766 0.214272 0.336638
v -0.256713 0.309477 0.492865
v -0.286252 0.237807 0.492865
v -0.193578 0.272553 0.365602
v -0.193578 0.272553 0.365602
v -0.199766 0.214272 0.336638
v -0.256713 0.309477 0.492865
v -0.286252 0.237807 0.492865
v -0.191569 0.160699 0.310014
v -0.296408 0.160862 0.492865
v -0.191569 0.160699 0.310014
v -0.296408 0.160862 0.492865
v -0.185098 0.111140 0.309867
v -0.286487 0.083887 0.492865
v -0.191447 0.160404 0.309867
v -0.191447 0.160404 0.309867
v -0.185098 0.111140 0.309867
v -0.286487 0.083887 0.492865
v 0.046988 -0.024593 0.309867
v -0.051190 -0.024440 0.309867
v -0.002111 -0.031040 0.309867
v 0.092762 -0.005539 0.309867
v -0.096905 -0.005244 0.309867
v 0.132089 0.024824 0.309867
v -0.136139 0.025241 0.309867
v 0.162291 0.064427 0.309867
v -0.166220 0.064937 0.309867
v 0.181309 0.110570 0.309867
v -0.185098 0.111140 0.309867
v 0.187848 0.160109 0.309867
v -0.191447 0.160404 0.309867
v 0.187810 0.160404 0.309867
v 0.187810 0.160404 0.309867
v 0.187848 0.160109 0.309867
v -0.191447 0.160404 0.309867
v -0.185098 0.111140 0.309867
v 0.181309 0.110570 0.309867
v -0.166220 0.064937 0.309867
v 0.162291 0.064427 0.309867
v -0.136139 0.025241 0.309867
v 0.132089 0.024824 0.309867
v -0.096905 -0.005244 0.309867
v 0.092762 -0.005539 0.309867
v -0.051190 -0.024440 0.309867
v 0.046988 -0.024593 0.309867
v -0.002111 -0.031040 0.309867
v 0.282850 0.236922 0.492865
v 0.292771 0.159946 0.492865
v 0.286591 0.207900 0.492865
v 0.196110 0.213607 0.336308
v 0.187848 0.160109 0.309867
v 0.187810 0.160404 0.309867
v 0.187810 0.160404 0.309867
v 0.196110 0.213607 0.336308
v 0.187848 0.160109 0.309867
v 0.292771 0.159946 0.492865
v 0.282850 0.236922 0.492865
v 0.286591 0.207900 0.492865
v 0.190111 0.271856 0.365256
v 0.253530 0.308683 0.492865
v 0.190111 0.271856 0.365256
v 0.253530 0.308683 0.492865
v 0.166728 0.330007 0.394156
v 0.206808 0.370339 0.492865
v 0.166728 0.330007 0.394156
v 0.206808 0.370339 0.492865
v 0.145869 0.417689 0.492865
v 0.124771 0.380934 0.419465
v 0.169281 0.399498 0.492865
v 0.169281 0.399498 0.492865
v 0.145869 0.417689 0.492865
v 0.124771 0.380934 0.419465
v 0.074865 0.447505 0.492865
v 0.066535 0.416316 0.437049
v 0.074865 0.447505 0.492865
v 0.066535 0.416316 0.437049
v -0.001365 0.457756 0.492865
v -0.001408 0.429142 0.443424
v -0.001365 0.457756 0.492865
v -0.001408 0.429142 0.443424
v -0.069412 0.416609 0.437195
v -0.077626 0.447742 0.492865
v -0.069412 0.416609 0.437195
v -0.077626 0.447742 0.492865
v -0.127809 0.381457 0.419725
v -0.148720 0.418147 0.492865
v -0.127809 0.381457 0.419725
v -0.148720 0.418147 0.492865
v -0.169979 0.330664 0.394483
v -0.209804 0.370987 0.492865
v -0.169979 0.330664 0.394483
v -0.209804 0.370987 0.492865
v -0.166220 0.064937 0.309867
v -0.257167 0.012125 0.492865
v -0.166220 0.064937 0.309867
v -0.257167 0.012125 0.492865
v -0.136139 0.025241 0.309867
v -0.210445 -0.049531 0.492865
v -0.136139 0.025241 0.309867
v -0.210445 -0.049531 0.492865
v -0.149506 -0.096880 0.492865
v -0.096905 -0.005244 0.309867
v -0.096905 -0.005244 0.309867
v -0.149506 -0.096880 0.492865
v -0.078502 -0.126696 0.492865
v -0.051190 -0.024440 0.309867
v -0.051190 -0.024440 0.309867
v -0.078502 -0.126696 0.492865
v -0.002272 -0.136947 0.492865
v -0.002111 -0.031040 0.309867
v -0.002111 -0.031040 0.309867
v -0.002272 -0.136947 0.492865
v 0.073989 -0.126933 0.492865
v 0.046988 -0.024593 0.309867
v 0.046988 -0.024593 0.309867
v 0.073989 -0.126933 0.492865
v 0.092762 -0.005539 0.309867
v 0.145083 -0.097338 0.492865
v 0.145083 -0.097338 0.492865
v 0.092762 -0.005539 0.309867
v 0.132089 0.024824 0.309867
v 0.206167 -0.050179 0.492865
v 0.206167 -0.050179 0.492865
v 0.132089 0.024824 0.309867
v 0.162291 0.064427 0.309867
v 0.253076 0.011332 0.492865
v 0.162291 0.064427 0.309867
v 0.253076 0.011332 0.492865
v 0.181309 0.110570 0.309867
v 0.282615 0.083002 0.492865
v 0.181309 0.110570 0.309867
v 0.282615 0.083002 0.492865
v 0.299749 0.241464 0.492865
v 0.286591 0.207900 0.492865
v 0.304379 0.205536 0.492865
v 0.282850 0.236922 0.492865
v 0.253530 0.308683 0.492865
v 0.268688 0.317485 0.492865
v 0.206808 0.370339 0.492865
v 0.219193 0.382802 0.492865
v 0.169281 0.399498 0.492865
v 0.169281 0.421583 0.492865
v 0.169281 0.421583 0.492865
v 0.219193 0.382802 0.492865
v 0.169281 0.399498 0.492865
v 0.206808 0.370339 0.492865
v 0.268688 0.317485 0.492865
v 0.253530 0.308683 0.492865
v 0.299749 0.241464 0.492865
v 0.282850 0.236922 0.492865
v 0.286591 0.207900 0.492865
v 0.304379 0.205536 0.492865
vn 0 -0.44504536969609365 0.8955080228072038
vn 0 0.44504536969609365 -0.8955080228072038
vn 0.8473088598085499 -0.18672197479008545 0.4971947306844935
vn 0.7519417534469673 -0.431632741226309 0.49827379634550545
vn 0.8380086642423684 -0.22382930276082277 0.49763633496794163
vn 0.769844971473396 -0.39940910940944074 0.4978062707699485
vn -0.769844971473396 0.39940910940944074 -0.4978062707699485
vn -0.8473088598085499 0.18672197479008545 -0.4971947306844935
vn -0.7519417534469673 0.431632741226309 -0.49827379634550545
vn -0.8380086642423684 0.22382930276082277 -0.49763633496794163
vn 0.8669720030800205 0.036003956604174416 0.4970545855177895
vn 0.8675193366815654 -0.0013237936761497267 0.49740169687474867
vn -0.8669720030800205 -0.036003956604174416 -0.4970545855177895
vn -0.8675193366815654 0.0013237936761497267 -0.49740169687474867
vn 0.8386916580858464 0.22126830917857807 0.497631025972524
vn 0.8621910691162488 0.11111710815701058 0.4942464452183781
vn -0.8621910691162488 -0.11111710815701058 -0.4942464452183781
vn -0.8386916580858464 -0.22126830917857807 -0.497631025972524
vn 0 0 1
vn 0 0 -1
vn -0.8386916580858463 -0.22126830917857823 0.4976310259725238
vn -0.8675193366815654 0.001323793676149506 0.49740169687474867
vn -0.8621910691162488 -0.1111171081570108 0.4942464452183781
vn -0.8478783127764234 -0.18413108740574907 0.49719021447951106
vn 0.8621910691162488 0.1111171081570108 -0.4942464452183781
vn 0.8478783127764234 0.18413108740574907 -0.49719021447951106
vn 0.8675193366815654 -0.001323793676149506 -0.49740169687474867
vn 0.8386916580858463 0.22126830917857823 -0.4976310259725238
vn -0.7710853508631688 -0.3970211015547066 0.49779677239262154
vn -0.7532662631501691 -0.429327858512448 0.4982645147960021
vn 0.7710853508631688 0.3970211015547066 -0.49779677239262154
vn 0.7532662631501691 0.429327858512448 -0.4982645147960021
vn -0.6391674979989587 -0.585427145335139 0.498738375309642
vn -0.6165155148233162 -0.60891056745057 0.4991357939771162
vn 0.6391674979989587 0.585427145335139 -0.498738375309642
vn 0.6165155148233162 0.60891056745057 -0.4991357939771162
vn -0.4372001822791772 -0.7475579723250881 0.500013078457211
vn -0.4585608094998049 -0.7348134063969014 0.4997711894159825
vn -0.5326332155980417 -0.6855050355256737 0.4963715381754224
vn 0.5326332155980417 0.6855050355256737 -0.4963715381754224
vn 0.4372001822791772 0.7475579723250881 -0.500013078457211
vn 0.4585608094998049 0.7348134063969014 -0.4997711894159825
vn -0.22730035533813453 -0.8352690786727542 0.5006596794992845
vn -0.24042730579094443 -0.8316302143351606 0.5005855543610528
vn 0.22730035533813453 0.8352690786727542 -0.5006596794992845
vn 0.24042730579094443 0.8316302143351606 -0.5005855543610528
vn -0.0013455995846657677 -0.8655046963752204 0.5008990017101203
vn -0.0014277829570417072 -0.8655045729545213 0.5008989874522001
vn 0.0013455995846657677 0.8655046963752204 -0.5008990017101203
vn 0.0014277829570417072 0.8655045729545213 -0.5008989874522001
vn 0.2376984550904598 -0.8324100416053244 0.5005926158886396
vn 0.22470449697146108 -0.835967883329195 0.5006651446654821
vn -0.2376984550904598 0.8324100416053244 -0.5005926158886396
vn -0.22470449697146108 0.835967883329195 -0.5006651446654821
vn 0.45618502345075435 -0.7362829052947383 0.4997826605135217
vn 0.43488182719633445 -0.7489027566321957 0.5000224569787597
vn -0.45618502345075435 0.7362829052947383 -0.4997826605135217
vn -0.43488182719633445 0.7489027566321957 -0.5000224569787597
vn 0.6373086384791994 -0.5874398651299243 0.4987505430332137
vn 0.6146325038373236 -0.6108024145638962 0.4991465672421046
vn -0.6373086384791994 0.5874398651299243 -0.4987505430332137
vn -0.6146325038373236 0.6108024145638962 -0.4991465672421046
vn 0.7532662631501691 0.42932785851244776 0.4982645147960023
vn -0.7532662631501691 -0.42932785851244776 -0.4982645147960023
vn 0.6165155148233162 0.6089105674505698 0.49913579397711644
vn -0.6165155148233162 -0.6089105674505698 -0.49913579397711644
vn 0.4372001822791772 0.7475579723250879 0.5000130784572113
vn -0.4372001822791772 -0.7475579723250879 -0.5000130784572113
vn 0.22730035533813453 0.835269078672754 0.5006596794992848
vn -0.22730035533813453 -0.835269078672754 -0.5006596794992848
vn 0.0013455995846657677 0.8655046963752202 0.5008990017101206
vn -0.0013455995846657677 -0.8655046963752202 -0.5008990017101206
vn -0.22470449697146108 0.8359678833291948 0.5006651446654824
vn 0.22470449697146108 -0.8359678833291948 -0.5006651446654824
vn -0.43488182719633445 0.7489027566321955 0.50002245697876
vn 0.43488182719633445 -0.7489027566321955 -0.50002245697876
vn -0.6146325038373236 0.610802414563896 0.4991465672421048
vn 0.6146325038373236 -0.610802414563896 -0.4991465672421048
vn -0.7519417534469673 0.4316327412263088 0.49827379634550567
vn 0.7519417534469673 -0.4316327412263088 -0.49827379634550567
vn -0.8380086642423684 0.22382930276082255 0.49763633496794174
vn 0.8380086642423684 -0.22382930276082255 -0.49763633496794174
usemtl material_0_0
f 1//1 2//1 3//1
f 2//1 1//1 4//1
f 4//1 1//1 5//1
f 5//1 1//1 6//1
f 5//1 6//1 7//1
f 7//1 6//1 8//1
f 7//1 8//1 9//1
f 9//1 8//1 10//1
f 9//1 10//1 11//1
f 11//1 10//1 12//1
f 11//1 12//1 13//1
f 13//1 12//1 14//1
f 15//2 16//2 17//2
f 17//2 16//2 18//2
f 16//2 19//2 18//2
f 18//2 19//2 20//2
f 19//2 21//2 20//2
f 20//2 21//2 22//2
f 21//2 23//2 22//2
f 22//2 23//2 24//2
f 23//2 25//2 24//2
f 24//2 25//2 26//2
f 26//2 25//2 27//2
f 28//2 27//2 25//2
f 29//3 30//4 31//5
f 30//4 29//3 32//6
f 33//7 34//8 35//9
f 36//10 35//9 34//8
f 37//11 31//5 38//12
f 31//5 37//11 29//3
f 34//8 39//13 36//10
f 40//14 36//10 39//13
f 41//15 38//12 42//15
f 38//12 41//15 37//11
f 37//11 41//15 43//16
f 44//17 45//18 39//13
f 39//13 45//18 40//14
f 46//18 40//14 45//18
f 47//19 48//19 49//19
f 48//19 47//19 50//19
f 48//19 50//19 51//19
f 51//19 50//19 52//19
f 51//19 52//19 53//19
f 53//19 52//19 54//19
f 53//19 54//19 55//19
f 55//19 54//19 56//19
f 55//19 56//19 57//19
f 57//19 56//19 58//19
f 57//19 58//19 59//19
f 59//19 58//19 60//19
f 61//20 62//20 63//20
f 63//20 62//20 64//20
f 62//20 65//20 64//20
f 64//20 65//20 66//20
f 65//20 67//20 66//20
f 66//20 67//20 68//20
f 67//20 69//20 68//20
f 68//20 69//20 70//20
f 69//20 71//20 70//20
f 70//20 71//20 72//20
f 71//20 73//20 72//20
f 74//20 72//20 73//20
f 75//21 76//22 77//23
f 76//22 75//21 78//24
f 76//22 78//24 79//22
f 79//22 78//24 80//23
f 81//25 82//26 83//27
f 83//27 82//26 84//27
f 82//26 85//28 84//27
f 86//25 84//27 85//28
f 87//29 75//21 88//30
f 75//21 87//29 78//24
f 82//26 89//31 85//28
f 90//32 85//28 89//31
f 91//33 88//30 92//34
f 88//30 91//33 87//29
f 89//31 93//35 90//32
f 94//36 90//32 93//35
f 91//33 95//37 96//38
f 95//37 91//33 97//39
f 97//39 91//33 92//34
f 94//36 93//35 98//40
f 98//40 93//35 99//41
f 100//42 99//41 93//35
f 96//38 101//43 102//44
f 101//43 96//38 95//37
f 99//41 100//42 103//45
f 104//46 103//45 100//42
f 102//44 105//47 106//48
f 105//47 102//44 101//43
f 103//45 104//46 107//49
f 108//50 107//49 104//46
f 109//51 105//47 110//52
f 105//47 109//51 106//48
f 108//50 111//53 107//49
f 112//54 107//49 111//53
f 113//55 110//52 114//56
f 110//52 113//55 109//51
f 111//53 115//57 112//54
f 116//58 112//54 115//57
f 117//59 114//56 118//60
f 114//56 117//59 113//55
f 115//57 119//61 116//58
f 120//62 116//58 119//61
f 32//6 118//60 30//4
f 118//60 32//6 117//59
f 119//61 33//7 120//62
f 35//9 120//62 33//7
f 121//63 42//15 122//63
f 42//15 121//63 41//15
f 45//18 123//64 46//18
f 124//64 46//18 123//64
f 125//65 122//63 126//65
f 122//63 125//65 121//63
f 123//64 127//66 124//64
f 128//66 124//64 127//66
f 129//67 125//65 126//65
f 125//65 129//67 130//67
f 131//68 132//68 127//66
f 128//66 127//66 132//68
f 133//69 130//67 129//67
f 130//67 133//69 134//69
f 135//70 136//70 131//68
f 132//68 131//68 136//70
f 137//71 134//69 133//69
f 134//69 137//71 138//71
f 139//72 140//72 135//70
f 136//70 135//70 140//72
f 141//73 138//71 137//71
f 138//71 141//73 142//73
f 143//74 144//74 139//72
f 140//72 139//72 144//74
f 141//73 145//75 142//73
f 145//75 141//73 146//75
f 147//76 144//74 148//76
f 143//74 148//76 144//74
f 146//75 149//77 145//75
f 149//77 146//75 150//77
f 151//78 147//76 152//78
f 148//76 152//78 147//76
f 153//79 150//77 154//79
f 150//77 153//79 149//77
f 152//78 155//80 151//78
f 156//80 151//78 155//80
f 157//81 154//79 158//81
f 154//79 157//81 153//79
f 155//80 159//82 156//80
f 160//82 156//80 159//82
f 79//22 158//81 76//22
f 158//81 79//22 157//81
f 159//82 83//27 160//82
f 84//27 160//82 83//27
f 161//19 162//19 163//19
f 162//19 161//19 164//19
f 164//19 161//19 165//19
f 165//19 161//19 166//19
f 165//19 166//19 167//19
f 167//19 166//19 168//19
f 167//19 168//19 169//19
f 169//19 168//19 170//19
f 171//20 172//20 173//20
f 173//20 172//20 174//20
f 172//20 175//20 174//20
f 174//20 175//20 176//20
f 175//20 177//20 176//20
f 176//20 177//20 178//20
f 178//20 177//20 179//20
f 180//20 179//20 177//20
