# SSTK version 0.8.0
# 10
mtllib original-10.mtl
o #ID50
v 0.238631 0.214273 0.492865
v 0.282850 0.236922 0.492865
v 0.286591 0.207900 0.492865
v 0.230546 0.224950 0.492865
v 0.222852 0.235916 0.492865
v 0.215556 0.247157 0.492865
v 0.253530 0.308683 0.492865
v 0.208670 0.258657 0.492865
v 0.202202 0.270403 0.492865
v 0.196161 0.282378 0.492865
v 0.190554 0.294566 0.492865
v 0.185390 0.306951 0.492865
v 0.180674 0.319518 0.492865
v 0.206808 0.370339 0.492865
v 0.176414 0.332250 0.492865
v 0.172614 0.345129 0.492865
v 0.169281 0.358139 0.492865
v 0.169281 0.399498 0.492865
v 0.169281 0.399498 0.492865
v 0.169281 0.358139 0.492865
v 0.206808 0.370339 0.492865
v 0.172614 0.345129 0.492865
v 0.176414 0.332250 0.492865
v 0.180674 0.319518 0.492865
v 0.253530 0.308683 0.492865
v 0.185390 0.306951 0.492865
v 0.190554 0.294566 0.492865
v 0.196161 0.282378 0.492865
v 0.202202 0.270403 0.492865
v 0.208670 0.258657 0.492865
v 0.215556 0.247157 0.492865
v 0.282850 0.236922 0.492865
v 0.222852 0.235916 0.492865
v 0.230546 0.224950 0.492865
v 0.238631 0.214273 0.492865
v 0.286591 0.207900 0.492865
v 0.169281 0.461456 0.517744
v 0.169281 0.358139 0.492865
v 0.169281 0.358139 0.517744
v 0.169281 0.442089 0.507802
v 0.169281 0.421583 0.492865
v 0.169281 0.399498 0.492865
v 0.169281 0.399498 0.492865
v 0.169281 0.421583 0.492865
v 0.169281 0.358139 0.492865
v 0.169281 0.442089 0.507802
v 0.169281 0.461456 0.517744
v 0.169281 0.358139 0.517744
v 0.286591 0.207900 0.492865
v 0.238631 0.214273 0.517744
v 0.238631 0.214273 0.492865
v 0.342657 0.200450 0.517744
v 0.313827 0.204281 0.501410
v 0.304379 0.205536 0.492865
v 0.304379 0.205536 0.492865
v 0.286591 0.207900 0.492865
v 0.313827 0.204281 0.501410
v 0.342657 0.200450 0.517744
v 0.238631 0.214273 0.517744
v 0.238631 0.214273 0.492865
v 0.230546 0.224950 0.492865
v 0.238631 0.214273 0.517744
v 0.230546 0.224950 0.517744
v 0.238631 0.214273 0.492865
v 0.238631 0.214273 0.492865
v 0.230546 0.224950 0.492865
v 0.238631 0.214273 0.517744
v 0.230546 0.224950 0.517744
v 0.222852 0.235916 0.492865
v 0.222852 0.235916 0.517744
v 0.222852 0.235916 0.492865
v 0.222852 0.235916 0.517744
v 0.215556 0.247157 0.492865
v 0.215556 0.247157 0.517744
v 0.215556 0.247157 0.492865
v 0.215556 0.247157 0.517744
v 0.208670 0.258657 0.492865
v 0.208670 0.258657 0.517744
v 0.208670 0.258657 0.492865
v 0.208670 0.258657 0.517744
v 0.202202 0.270403 0.492865
v 0.202202 0.270403 0.517744
v 0.202202 0.270403 0.492865
v 0.202202 0.270403 0.517744
v 0.196161 0.282378 0.492865
v 0.196161 0.282378 0.517744
v 0.196161 0.282378 0.492865
v 0.196161 0.282378 0.517744
v 0.190554 0.294566 0.492865
v 0.190554 0.294566 0.517744
v 0.190554 0.294566 0.492865
v 0.190554 0.294566 0.517744
v 0.185390 0.306951 0.492865
v 0.185390 0.306951 0.517744
v 0.185390 0.306951 0.492865
v 0.185390 0.306951 0.517744
v 0.180674 0.319518 0.492865
v 0.180674 0.319518 0.517744
v 0.180674 0.319518 0.492865
v 0.180674 0.319518 0.517744
v 0.176414 0.332250 0.492865
v 0.176414 0.332250 0.517744
v 0.176414 0.332250 0.492865
v 0.176414 0.332250 0.517744
v 0.172614 0.345129 0.492865
v 0.172614 0.345129 0.517744
v 0.172614 0.345129 0.492865
v 0.172614 0.345129 0.517744
v 0.169281 0.358139 0.492865
v 0.169281 0.358139 0.517744
v 0.169281 0.358139 0.492865
v 0.169281 0.358139 0.517744
v 0.342657 0.209275 0.517744
v 0.238631 0.214273 0.517744
v 0.342657 0.200450 0.517744
v 0.333988 0.210427 0.517744
v 0.243332 0.222474 0.517744
v 0.230546 0.224950 0.517744
v 0.237530 0.230137 0.517744
v 0.222852 0.235916 0.517744
v 0.230017 0.240844 0.517744
v 0.215556 0.247157 0.517744
v 0.222894 0.251819 0.517744
v 0.208670 0.258657 0.517744
v 0.216170 0.263047 0.517744
v 0.202202 0.270403 0.517744
v 0.209855 0.274515 0.517744
v 0.196161 0.282378 0.517744
v 0.203957 0.286206 0.517744
v 0.190554 0.294566 0.517744
v 0.198483 0.298107 0.517744
v 0.185390 0.306951 0.517744
v 0.193441 0.310199 0.517744
v 0.180674 0.319518 0.517744
v 0.188837 0.322469 0.517744
v 0.176414 0.332250 0.517744
v 0.184677 0.334899 0.517744
v 0.172614 0.345129 0.517744
v 0.180968 0.347474 0.517744
v 0.169281 0.358139 0.517744
v 0.177949 0.359252 0.517744
v 0.169281 0.461456 0.517744
v 0.177949 0.452706 0.517744
v 0.177949 0.456213 0.517744
v 0.177949 0.456213 0.517744
v 0.177949 0.452706 0.517744
v 0.169281 0.461456 0.517744
v 0.177949 0.359252 0.517744
v 0.169281 0.358139 0.517744
v 0.180968 0.347474 0.517744
v 0.172614 0.345129 0.517744
v 0.184677 0.334899 0.517744
v 0.176414 0.332250 0.517744
v 0.188837 0.322469 0.517744
v 0.180674 0.319518 0.517744
v 0.193441 0.310199 0.517744
v 0.185390 0.306951 0.517744
v 0.198483 0.298107 0.517744
v 0.190554 0.294566 0.517744
v 0.203957 0.286206 0.517744
v 0.196161 0.282378 0.517744
v 0.209855 0.274515 0.517744
v 0.202202 0.270403 0.517744
v 0.216170 0.263047 0.517744
v 0.208670 0.258657 0.517744
v 0.222894 0.251819 0.517744
v 0.215556 0.247157 0.517744
v 0.230017 0.240844 0.517744
v 0.222852 0.235916 0.517744
v 0.237530 0.230137 0.517744
v 0.230546 0.224950 0.517744
v 0.243332 0.222474 0.517744
v 0.238631 0.214273 0.517744
v 0.333988 0.210427 0.517744
v 0.342657 0.209275 0.517744
v 0.342657 0.200450 0.517744
vn 0 0 -1
vn 0 0 1
vn -1 0 0
vn 1 0 0
vn -0.1317287691629147 -0.9912857970206288 0
vn 0.1317287691629147 0.9912857970206288 0
vn -0.8080400092250848 -0.5891276122297484 0
vn -0.7972389477986768 -0.6036638635141737 0
vn 0.7972389477986768 0.6036638635141737 0
vn 0.8080400092250848 0.5891276122297484 0
vn -0.8288337736764777 -0.5594949290326134 0
vn 0.8288337736764777 0.5594949290326134 0
vn -0.8485293579556298 -0.5291483050028666 0
vn 0.8485293579556298 0.5291483050028666 0
vn -0.8671034106835216 -0.49812817143884186 0
vn 0.8671034106835216 0.49812817143884186 0
vn -0.8845340774116575 -0.466475579100887 0
vn 0.8845340774116575 0.466475579100887 0
vn -0.9008010380951749 -0.43423206902145706 0
vn 0.9008010380951749 0.43423206902145706 0
vn -0.9158854131592641 -0.40143979618628256 0
vn 0.9158854131592641 0.40143979618628256 0
vn -0.9297698839506946 -0.3681412268387119 0
vn 0.9297698839506946 0.3681412268387119 0
vn -0.9424386197273724 -0.33437919798690424 0
vn 0.9424386197273724 0.33437919798690424 0
vn -0.9538772001173156 -0.3001970804260934 0
vn 0.9538772001173156 0.3001970804260934 0
vn -0.9640727318104869 -0.265638415481392 0
vn 0.9640727318104869 0.265638415481392 0
vn -0.9687007223178757 -0.24823156644719038 0
vn 0.9687007223178757 0.24823156644719038 0
usemtl material_0_0
f 1//1 2//1 3//1
f 2//1 1//1 4//1
f 2//1 4//1 5//1
f 2//1 5//1 6//1
f 2//1 6//1 7//1
f 7//1 6//1 8//1
f 7//1 8//1 9//1
f 7//1 9//1 10//1
f 7//1 10//1 11//1
f 7//1 11//1 12//1
f 7//1 12//1 13//1
f 7//1 13//1 14//1
f 14//1 13//1 15//1
f 14//1 15//1 16//1
f 14//1 16//1 17//1
f 14//1 17//1 18//1
f 19//2 20//2 21//2
f 20//2 22//2 21//2
f 22//2 23//2 21//2
f 23//2 24//2 21//2
f 21//2 24//2 25//2
f 24//2 26//2 25//2
f 26//2 27//2 25//2
f 27//2 28//2 25//2
f 28//2 29//2 25//2
f 29//2 30//2 25//2
f 30//2 31//2 25//2
f 25//2 31//2 32//2
f 31//2 33//2 32//2
f 33//2 34//2 32//2
f 34//2 35//2 32//2
f 36//2 32//2 35//2
f 37//3 38//3 39//3
f 38//3 37//3 40//3
f 38//3 40//3 41//3
f 38//3 41//3 42//3
f 43//4 44//4 45//4
f 44//4 46//4 45//4
f 46//4 47//4 45//4
f 48//4 45//4 47//4
f 49//5 50//5 51//5
f 50//5 49//5 52//5
f 52//5 49//5 53//5
f 53//5 49//5 54//5
f 55//6 56//6 57//6
f 57//6 56//6 58//6
f 58//6 56//6 59//6
f 60//6 59//6 56//6
f 61//7 62//8 63//7
f 62//8 61//7 64//8
f 65//9 66//10 67//9
f 68//10 67//9 66//10
f 69//11 63//7 70//11
f 63//7 69//11 61//7
f 66//10 71//12 68//10
f 72//12 68//10 71//12
f 73//13 70//11 74//13
f 70//11 73//13 69//11
f 71//12 75//14 72//12
f 76//14 72//12 75//14
f 77//15 74//13 78//15
f 74//13 77//15 73//13
f 75//14 79//16 76//14
f 80//16 76//14 79//16
f 81//17 78//15 82//17
f 78//15 81//17 77//15
f 79//16 83//18 80//16
f 84//18 80//16 83//18
f 85//19 82//17 86//19
f 82//17 85//19 81//17
f 83//18 87//20 84//18
f 88//20 84//18 87//20
f 89//21 86//19 90//21
f 86//19 89//21 85//19
f 87//20 91//22 88//20
f 92//22 88//20 91//22
f 93//23 90//21 94//23
f 90//21 93//23 89//21
f 91//22 95//24 92//22
f 96//24 92//22 95//24
f 97//25 94//23 98//25
f 94//23 97//25 93//23
f 95//24 99//26 96//24
f 100//26 96//24 99//26
f 101//27 98//25 102//27
f 98//25 101//27 97//25
f 99//26 103//28 100//26
f 104//28 100//26 103//28
f 105//29 102//27 106//29
f 102//27 105//29 101//27
f 103//28 107//30 104//28
f 108//30 104//28 107//30
f 109//31 106//29 110//31
f 106//29 109//31 105//29
f 107//30 111//32 108//30
f 112//32 108//30 111//32
f 113//2 114//2 115//2
f 114//2 113//2 116//2
f 114//2 116//2 117//2
f 114//2 117//2 118//2
f 118//2 117//2 119//2
f 118//2 119//2 120//2
f 120//2 119//2 121//2
f 120//2 121//2 122//2
f 122//2 121//2 123//2
f 122//2 123//2 124//2
f 124//2 123//2 125//2
f 124//2 125//2 126//2
f 126//2 125//2 127//2
f 126//2 127//2 128//2
f 128//2 127//2 129//2
f 128//2 129//2 130//2
f 130//2 129//2 131//2
f 130//2 131//2 132//2
f 132//2 131//2 133//2
f 132//2 133//2 134//2
f 134//2 133//2 135//2
f 134//2 135//2 136//2
f 136//2 135//2 137//2
f 136//2 137//2 138//2
f 138//2 137//2 139//2
f 138//2 139//2 140//2
f 140//2 139//2 141//2
f 140//2 141//2 142//2
f 142//2 141//2 143//2
f 142//2 143//2 144//2
f 145//1 146//1 147//1
f 146//1 148//1 147//1
f 147//1 148//1 149//1
f 148//1 150//1 149//1
f 149//1 150//1 151//1
f 150//1 152//1 151//1
f 151//1 152//1 153//1
f 152//1 154//1 153//1
f 153//1 154//1 155//1
f 154//1 156//1 155//1
f 155//1 156//1 157//1
f 156//1 158//1 157//1
f 157//1 158//1 159//1
f 158//1 160//1 159//1
f 159//1 160//1 161//1
f 160//1 162//1 161//1
f 161//1 162//1 163//1
f 162//1 164//1 163//1
f 163//1 164//1 165//1
f 164//1 166//1 165//1
f 165//1 166//1 167//1
f 166//1 168//1 167//1
f 167//1 168//1 169//1
f 168//1 170//1 169//1
f 169//1 170//1 171//1
f 170//1 172//1 171//1
f 171//1 172//1 173//1
f 172//1 174//1 173//1
f 174//1 175//1 173//1
f 176//1 173//1 175//1
