# SSTK version 0.8.0
# 3
mtllib original-3.mtl
o B_-_leg2/B_-_leg12/mesh5/mesh5-geometry#mesh5-geometry
v 0.573333 -0.801323 -0.194071
v 0.603279 -0.801323 -0.224017
v 0.603279 -0.801323 -0.194071
v 0.573333 -0.801323 -0.224017
v 0.603279 -0.004010 -0.179098
v 0.558360 -0.004010 -0.179098
v 0.558360 -0.004010 -0.224017
v 0.603279 -0.004010 -0.224017
v 0.603279 0.134491 -0.179098
v 0.558360 0.134491 -0.224017
v 0.603279 0.134491 -0.224017
v 0.558360 0.134491 -0.179098
vn 0 -1 0
vn 0 1 0
vn 1 0 0
vn 0.665292943869902 -0.33889197140802463 0.6652349438747953
vn -1 0 0
vn -0.665292943869902 0.33889197140802463 -0.6652349438747953
vn 0 -0.018775994656803522 0.9998237154742067
vn 0 0.018775994656803522 -0.9998237154742067
vn -0.6638437402509403 -0.3444168652364233 0.6638437402509402
vn -0.9998237154742069 -0.018775994656803307 0
vn 0.9998237154742069 0.018775994656803307 0
vn 0.6638437402509403 0.3444168652364233 -0.6638437402509402
vn -0.6652349438747954 -0.3388919714080243 -0.6652929438699021
vn 0 0 -1
vn 0 0 1
vn 0.6652349438747954 0.3388919714080243 0.6652929438699021
vn 0.6666667777776667 -0.33333288888899987 -0.6666667777776668
vn -0.6666667777776667 0.33333288888899987 0.6666667777776668
usemtl material_0_0
f 1//1 2//1 3//1
f 2//1 1//1 4//1
f 3//2 2//2 1//2
f 4//2 1//2 2//2
f 2//3 5//4 3//3
f 3//5 5//6 2//5
f 5//4 1//7 3//7
f 3//8 1//8 5//6
f 6//9 4//10 1//10
f 1//11 4//11 6//12
f 7//13 2//14 4//14
f 4//15 2//15 7//16
f 5//4 2//3 8//17
f 8//18 2//5 5//6
f 1//7 5//4 6//9
f 6//12 5//6 1//8
f 4//10 6//9 7//13
f 7//16 6//12 4//11
f 2//14 7//13 8//17
f 8//18 7//16 2//15
f 8//17 9//3 5//4
f 5//6 9//5 8//18
f 6//9 8//17 5//4
f 5//6 8//18 6//12
f 9//15 6//9 5//4
f 5//6 6//12 9//14
f 8//17 6//9 7//13
f 7//16 6//12 8//18
f 6//9 10//5 7//13
f 7//16 10//3 6//12
f 10//14 8//17 7//13
f 7//16 8//18 10//15
f 9//3 8//17 11//3
f 11//5 8//18 9//5
f 6//9 9//15 12//15
f 12//14 9//14 6//12
f 10//5 6//9 12//5
f 12//3 6//12 10//3
f 8//17 10//14 11//14
f 11//15 10//15 8//18
f 10//2 9//2 11//2
f 11//1 9//1 10//1
f 9//2 10//2 12//2
f 12//1 10//1 9//1
