# SSTK version 0.8.0
# 2
mtllib original-2.mtl
o C1_-_apron_back1/C1_-_apron_back/mesh3/mesh3-geometry#mesh3-geometry
v 0.558360 0.134491 -0.190328
v -0.549644 0.134491 -0.212787
v -0.549644 0.134491 -0.190328
v 0.556203 0.134491 -0.212787
v -0.549644 0.121389 -0.190328
v 0.558360 0.134491 -0.212787
v 0.558360 -0.000266 -0.212787
v -0.549644 0.121389 -0.197814
v 0.558360 0.121389 -0.190328
v 0.558360 0.121389 -0.197814
v -0.549644 -0.000266 -0.212787
v -0.549644 0.117646 -0.197814
v -0.549644 -0.000266 -0.190328
v 0.558360 0.117646 -0.197814
v 0.558360 -0.000266 -0.190328
v 0.558360 0.117646 -0.190328
v -0.549644 0.117646 -0.190328
vn 0 1 0
vn 0 -1 0
vn -1 0 0
vn 1 0 0
vn 0 0 1
vn 0 0 -1
usemtl material_0_0
f 1//1 2//1 3//1
f 2//1 1//1 4//1
f 3//2 2//2 1//2
f 4//2 1//2 2//2
f 2//3 5//3 3//3
f 3//4 5//4 2//4
f 5//5 1//5 3//5
f 3//6 1//6 5//6
f 4//1 1//1 6//1
f 6//2 1//2 4//2
f 7//6 2//6 4//6
f 4//5 2//5 7//5
f 5//3 2//3 8//3
f 8//4 2//4 5//4
f 1//5 5//5 9//5
f 9//6 5//6 1//6
f 1//4 10//4 6//4
f 6//3 10//3 1//3
f 6//6 7//6 4//6
f 4//5 7//5 6//5
f 2//6 7//6 11//6
f 11//5 7//5 2//5
f 8//3 2//3 12//3
f 12//4 2//4 8//4
f 10//2 5//2 8//2
f 8//1 5//1 10//1
f 5//2 10//2 9//2
f 9//1 10//1 5//1
f 10//4 1//4 9//4
f 9//3 1//3 10//3
f 6//4 10//4 7//4
f 7//3 10//3 6//3
f 7//2 13//2 11//2
f 11//1 13//1 7//1
f 11//3 12//3 2//3
f 2//4 12//4 11//4
f 12//5 10//5 8//5
f 8//6 10//6 12//6
f 14//4 7//4 10//4
f 10//3 7//3 14//3
f 13//2 7//2 15//2
f 15//1 7//1 13//1
f 13//3 12//3 11//3
f 11//4 12//4 13//4
f 10//5 12//5 14//5
f 14//6 12//6 10//6
f 16//4 7//4 14//4
f 14//3 7//3 16//3
f 7//4 16//4 15//4
f 15//3 16//3 7//3
f 16//5 13//5 15//5
f 15//6 13//6 16//6
f 12//3 13//3 17//3
f 17//4 13//4 12//4
f 12//1 16//1 14//1
f 14//2 16//2 12//2
f 13//5 16//5 17//5
f 17//6 16//6 13//6
f 16//1 12//1 17//1
f 17//2 12//2 16//2
