# SSTK version 0.8.0
# 8
mtllib original-8.mtl
o A_-_top1/A_-_top/mesh13/mesh13-geometry#mesh13-geometry
v 0.715220 0.152530 0.178043
v 0.714749 0.154910 0.171078
v 0.712511 0.154910 0.176479
v 0.717770 0.152530 0.171887
v 0.711230 0.156406 0.170135
v 0.711164 0.152530 0.183329
v 0.720088 0.149429 0.172508
v 0.715576 0.154910 0.164791
v 0.709357 0.156406 0.174658
v 0.711965 0.156406 0.164554
v 0.708952 0.154910 0.181117
v 0.717298 0.149429 0.179243
v 0.721057 0.149429 0.165150
v 0.718677 0.152530 0.164994
v 0.707455 0.156916 0.169123
v 0.708090 0.156916 0.164300
v 0.705878 0.152530 0.187385
v 0.712861 0.149429 0.185026
v 0.721545 0.145818 0.172899
v 0.722553 0.145818 0.165248
v 0.715576 0.154910 -0.224017
v 0.711965 0.156406 -0.224017
v 0.705972 0.156916 0.172703
v 0.706377 0.156406 0.178542
v 0.708090 0.156916 -0.224017
v 0.704314 0.154910 0.184676
v 0.707078 0.149429 0.189463
v 0.718605 0.145818 0.179997
v 0.721057 0.149429 -0.224017
v 0.722553 0.145818 -0.224017
v 0.718677 0.152530 -0.224017
v 0.699722 0.152530 0.189935
v 0.700344 0.149429 0.192253
v 0.707832 0.145818 0.190770
v 0.713928 0.145818 0.186093
v 0.722042 0.141943 0.173032
v 0.723063 0.141943 0.165282
v 0.723063 0.141943 -0.224017
v -0.706860 0.154910 -0.224017
v -0.703249 0.156406 -0.224017
v -0.699374 0.156916 -0.224017
v 0.703613 0.156916 0.175778
v 0.702493 0.156406 0.181522
v 0.698913 0.154910 0.186913
v 0.700734 0.145818 0.193710
v 0.719051 0.141943 0.180255
v -0.709961 0.152530 -0.224017
v -0.712341 0.149429 -0.224017
v -0.713836 0.145818 -0.224017
v -0.698739 0.156916 0.169123
v 0.700539 0.156916 0.178137
v 0.692829 0.152530 0.190842
v 0.692985 0.149429 0.193222
v 0.693083 0.145818 0.194717
v 0.708090 0.141943 0.191216
v 0.700867 0.141943 0.194207
v 0.714292 0.141943 0.186457
v 0.722042 0.134456 0.173032
v 0.723063 0.134456 0.165282
v 0.723063 0.134456 -0.224017
v -0.714347 0.141943 -0.224017
v -0.706860 0.154910 0.164791
v -0.703249 0.156406 0.164554
v -0.699374 0.156916 0.164300
v -0.697256 0.156916 0.172703
v 0.696959 0.156916 0.179620
v 0.697970 0.156406 0.183395
v 0.692626 0.154910 0.187741
v 0.693117 0.141943 0.195228
v 0.719051 0.134456 0.180255
v -0.709961 0.152530 0.164994
v -0.712341 0.149429 0.165150
v -0.713836 0.145818 0.165248
v -0.702514 0.156406 0.170135
v -0.700641 0.156406 0.174658
v -0.694897 0.156916 0.175778
v 0.692135 0.156916 0.180255
v -0.683910 0.154910 0.187741
v -0.684269 0.149429 0.193222
v -0.684367 0.145818 0.194717
v -0.684401 0.141943 0.195228
v 0.708090 0.134456 0.191216
v 0.700867 0.134456 0.194207
v 0.714292 0.134456 0.186457
v -0.714347 0.134456 -0.224017
v -0.714347 0.141943 0.165282
v -0.709054 0.152530 0.171887
v -0.706032 0.154910 0.171078
v -0.697661 0.156406 0.178542
v -0.691823 0.156916 0.178137
v -0.683419 0.156916 0.180255
v 0.692389 0.156406 0.184130
v -0.684113 0.152530 0.190842
v -0.683673 0.156406 0.184130
v -0.684401 0.134456 0.195228
v 0.693117 0.134456 0.195228
v -0.714347 0.134456 0.165282
v -0.711372 0.149429 0.172508
v -0.712829 0.145818 0.172899
v -0.703795 0.154910 0.176479
v -0.700236 0.154910 0.181117
v -0.693777 0.156406 0.181522
v -0.688243 0.156916 0.179620
v -0.690197 0.154910 0.186913
v -0.689254 0.156406 0.183395
v -0.691628 0.149429 0.192253
v -0.692018 0.145818 0.193710
v -0.692151 0.141943 0.194207
v -0.692151 0.134456 0.194207
v -0.713326 0.134456 0.173032
v -0.713326 0.141943 0.173032
v -0.706504 0.152530 0.178043
v -0.695598 0.154910 0.184676
v -0.691006 0.152530 0.189935
v -0.710335 0.134456 0.180255
v -0.708582 0.149429 0.179243
v -0.709889 0.145818 0.179997
v -0.702448 0.152530 0.183329
v -0.697162 0.152530 0.187385
v -0.698362 0.149429 0.189463
v -0.699116 0.145818 0.190770
v -0.699374 0.141943 0.191216
v -0.699374 0.134456 0.191216
v -0.705576 0.134456 0.186457
v -0.710335 0.141943 0.180255
v -0.704145 0.149429 0.185026
v -0.705212 0.145818 0.186093
v -0.705576 0.141943 0.186457
vn 0.6097360628939731 0.7101380732503908 0.35203103631182736
vn 0.47985384221904415 0.8678757146333992 0.12857695772255337
vn 0.4302249159164204 0.8678758303814963 0.248390951454229
vn 0.6800720493552107 0.7101380515372058 0.18222501322470763
vn -0.4302249159164204 -0.8678758303814963 -0.248390951454229
vn -0.47985384221904415 -0.8678757146333992 -0.12857695772255337
vn -0.6097360628939731 -0.7101380732503908 -0.35203103631182736
vn -0.6800720493552107 -0.7101380515372058 -0.18222501322470763
vn 0.24800310566893777 0.9664774117958169 0.06645202831382001
vn -0.24800310566893777 -0.9664774117958169 -0.06645202831382001
vn 0.4978471867270815 0.7101382663508993 0.49784718672708167
vn -0.4978471867270815 -0.7101382663508993 -0.49784718672708167
vn 0.8347100082114597 0.5032250049504761 0.2236600022002554
vn -0.8347100082114597 -0.5032250049504761 -0.2236600022002554
vn 0.49812783843076747 0.8664887189518301 0.03264898941020425
vn -0.49812783843076747 -0.8664887189518301 -0.03264898941020425
vn 0.2223531061164887 0.966477461244713 0.12837606126659143
vn -0.2223531061164887 -0.966477461244713 -0.12837606126659143
vn 0.25774905073365273 0.9660641901538143 0.016894003325306342
vn -0.25774905073365273 -0.9660641901538143 -0.016894003325306342
vn 0.35127778608172916 0.8678754714882991 0.3512777860817293
vn -0.35127778608172916 -0.8678754714882991 -0.3512777860817293
vn 0.7483802158669367 0.5032251451530494 0.43207812463100875
vn -0.7483802158669367 -0.5032251451530494 -0.43207812463100875
vn 0.8637073798737042 0.5008042202625086 0.05661002489808521
vn -0.8637073798737042 -0.5008042202625086 -0.05661002489808521
vn 0.7048362141994056 0.7078642151196136 0.046197014039251756
vn -0.7048362141994056 -0.7078642151196136 -0.046197014039251756
vn 0.12501797323077937 0.9915887876780568 0.03349899282709615
vn -0.12501797323077937 -0.9915887876780568 -0.03349899282709615
vn 0.1299729917174064 0.9914809368173836 0.008518999457122738
vn -0.1299729917174064 -0.9914809368173836 -0.008518999457122738
vn 0.3520310363118272 0.7101380732503908 0.6097360628939732
vn -0.3520310363118272 -0.7101380732503908 -0.6097360628939732
vn 0.6110501204914575 0.5032250992297089 0.6110501204914576
vn -0.6110501204914575 -0.5032250992297089 -0.6110501204914576
vn 0.9324715880294812 0.26090088473271006 0.24985488961288496
vn -0.9324715880294812 -0.26090088473271006 -0.24985488961288496
vn 0.963719092635093 0.2593370249281244 0.06316500607157864
vn -0.963719092635093 -0.2593370249281244 -0.06316500607157864
vn 0.5000001748438417 0.8660253028382762 0
vn -0.5000001748438417 -0.8660253028382762 0
vn 0.2588189595935754 0.965925849201117 0
vn -0.2588189595935754 -0.965925849201117 0
vn 0.11208797946206535 0.9915888183107017 0.06471398814242489
vn -0.11208797946206535 -0.9915888183107017 -0.06471398814242489
vn 0.1815510614794633 0.9664773272826218 0.1815510614794635
vn -0.1815510614794633 -0.9664773272826218 -0.1815510614794635
vn 0.1305259853353411 0.9914448886106773 0
vn -0.1305259853353411 -0.9914448886106773 0
vn 0.24839095145422885 0.8678758303814964 0.4302249159164207
vn -0.24839095145422885 -0.8678758303814964 -0.4302249159164207
vn 0.43207812463100864 0.5032251451530494 0.7483802158669368
vn -0.43207812463100864 -0.5032251451530494 -0.7483802158669368
vn 0.8360309819204123 0.26090099435788555 0.4826829895617392
vn -0.8360309819204123 -0.26090099435788555 -0.4826829895617392
vn 0.8660253028382762 0.5000001748438417 0
vn -0.8660253028382762 -0.5000001748438417 0
vn 0.965925849201117 0.2588189595935754 0
vn -0.965925849201117 -0.2588189595935754 0
vn 0.7071067811865476 0.7071067811865476 0
vn -0.7071067811865476 -0.7071067811865476 0
vn 0 1 0
vn 0 -1 0
vn 0.18222501322470747 0.7101380515372057 0.6800720493552108
vn -0.18222501322470747 -0.7101380515372057 -0.6800720493552108
vn 0.22366000220025528 0.5032250049504758 0.8347100082114598
vn -0.22366000220025528 -0.5032250049504758 -0.8347100082114598
vn 0.48268298956173905 0.2609009943578854 0.8360309819204123
vn -0.48268298956173905 -0.2609009943578854 -0.8360309819204123
vn 0.6826165668188316 0.2609008344351223 0.6826165668188318
vn -0.6826165668188316 -0.2609008344351223 -0.6826165668188318
vn 0.9638220607525978 0.06596500415797217 0.25825501627858893
vn -0.9638220607525978 -0.06596500415797217 -0.25825501627858893
vn 0.9957133027655943 0.06554301992960355 0.06526201984416015
vn -0.9957133027655943 -0.06554301992960355 -0.06526201984416015
vn 0.9978589320009053 0.06540299554311302 0
vn -0.9978589320009053 -0.06540299554311302 0
vn 0 0 -1
vn 0 0 1
vn 0.09151997411261803 0.9915887195187588 0.09151997411261825
vn -0.09151997411261803 -0.9915887195187588 -0.09151997411261825
vn 0.1283760612665912 0.966477461244713 0.22235310611648892
vn -0.1283760612665912 -0.966477461244713 -0.22235310611648892
vn 0.12857695772255318 0.8678757146333991 0.4798538422190443
vn -0.12857695772255318 -0.8678757146333991 -0.4798538422190443
vn 0.24985488961288485 0.26090088473270984 0.932471588029481
vn -0.24985488961288485 -0.26090088473270984 -0.932471588029481
vn 0.8641390957176684 0.06596500730671327 0.49891105526263446
vn -0.8641390957176684 -0.06596500730671327 -0.49891105526263446
vn 0.0461970140392516 0.7078642151196135 0.7048362141994057
vn -0.0461970140392516 -0.7078642151196135 -0.7048362141994057
vn 0.0566100248980851 0.5008042202625084 0.8637073798737043
vn -0.0566100248980851 -0.5008042202625084 -0.8637073798737043
vn 0.06316500607157859 0.25933702492812416 0.9637190926350931
vn -0.06316500607157859 -0.25933702492812416 -0.9637190926350931
vn 0.49891105526263446 0.06596500730671319 0.8641390957176684
vn -0.49891105526263446 -0.06596500730671319 -0.8641390957176684
vn 0.25825501627858893 0.06596500415797202 0.9638220607525978
vn -0.25825501627858893 -0.06596500415797202 -0.9638220607525978
vn 0.7055666598453368 0.06596496819819737 0.7055666598453368
vn -0.7055666598453368 -0.06596496819819737 -0.7055666598453368
vn 0.965925849201117 0 0.2588189595935754
vn -0.965925849201117 0 -0.2588189595935754
vn 0.9978589320009053 0 0.06540299554311302
vn -0.9978589320009053 0 -0.06540299554311302
vn 1 0 0
vn -1 0 0
vn -0.7071067811865476 0.7071067811865476 0
vn -0.49812783843076747 0.8664887189518301 0.03264898941020425
vn -0.5000001748438417 0.8660253028382762 0
vn 0.5000001748438417 -0.8660253028382762 0
vn 0.49812783843076747 -0.8664887189518301 -0.03264898941020425
vn 0.7071067811865476 -0.7071067811865476 0
vn -0.25774905073365273 0.9660641901538143 0.016894003325306342
vn -0.2588189595935754 0.965925849201117 0
vn 0.2588189595935754 -0.965925849201117 0
vn 0.25774905073365273 -0.9660641901538143 -0.016894003325306342
vn -0.1299729917174064 0.9914809368173836 0.008518999457122738
vn -0.1305259853353411 0.9914448886106773 0
vn 0.1305259853353411 -0.9914448886106773 0
vn 0.1299729917174064 -0.9914809368173836 -0.008518999457122738
vn 0.06471398814242467 0.9915888183107017 0.11208797946206557
vn -0.06471398814242467 -0.9915888183107017 -0.11208797946206557
vn 0.0664520283138198 0.9664774117958169 0.248003105668938
vn -0.0664520283138198 -0.9664774117958169 -0.248003105668938
vn 0.032648989410204055 0.86648871895183 0.49812783843076763
vn -0.032648989410204055 -0.86648871895183 -0.49812783843076763
vn 0.06526201984416014 0.06554301992960335 0.9957133027655943
vn -0.06526201984416014 -0.06554301992960335 -0.9957133027655943
vn 0.8660253028382762 0 0.5000001748438417
vn -0.8660253028382762 0 -0.5000001748438417
vn -0.8660253028382762 0.5000001748438417 0
vn -0.7048362141994056 0.7078642151196136 0.046197014039251756
vn 0.7048362141994056 -0.7078642151196136 -0.046197014039251756
vn 0.8660253028382762 -0.5000001748438417 0
vn -0.965925849201117 0.2588189595935754 0
vn -0.8637073798737042 0.5008042202625086 0.05661002489808521
vn 0.8637073798737042 -0.5008042202625086 -0.05661002489808521
vn 0.965925849201117 -0.2588189595935754 0
vn -0.9978589320009053 0.06540299554311302 0
vn -0.963719092635093 0.2593370249281244 0.06316500607157864
vn 0.963719092635093 -0.2593370249281244 -0.06316500607157864
vn 0.9978589320009053 -0.06540299554311302 0
vn -0.24800310566893777 0.9664774117958169 0.06645202831382001
vn -0.12501797323077937 0.9915887876780568 0.03349899282709615
vn 0.12501797323077937 -0.9915887876780568 -0.03349899282709615
vn 0.24800310566893777 -0.9664774117958169 -0.06645202831382001
vn -0.2223531061164887 0.966477461244713 0.12837606126659143
vn -0.11208797946206535 0.9915888183107017 0.06471398814242489
vn 0.11208797946206535 -0.9915888183107017 -0.06471398814242489
vn 0.2223531061164887 -0.966477461244713 -0.12837606126659143
vn 0.033498992827095925 0.9915887876780568 0.1250179732307796
vn -0.033498992827095925 -0.9915887876780568 -0.1250179732307796
vn -0.032648989410204055 0.86648871895183 0.49812783843076763
vn 0.032648989410204055 -0.86648871895183 -0.49812783843076763
vn -0.0566100248980851 0.5008042202625084 0.8637073798737043
vn 0.0566100248980851 -0.5008042202625084 -0.8637073798737043
vn -0.06316500607157859 0.25933702492812416 0.9637190926350931
vn 0.06316500607157859 -0.25933702492812416 -0.9637190926350931
vn -0.06526201984416014 0.06554301992960335 0.9957133027655943
vn 0.06526201984416014 -0.06554301992960335 -0.9957133027655943
vn 0.5000001748438417 0 0.8660253028382762
vn -0.5000001748438417 0 -0.8660253028382762
vn 0.2588189595935754 0 0.965925849201117
vn -0.2588189595935754 0 -0.965925849201117
vn 0.7071067811865476 0 0.7071067811865476
vn -0.7071067811865476 0 -0.7071067811865476
vn -0.9957133027655943 0.06554301992960355 0.06526201984416015
vn 0.9957133027655943 -0.06554301992960355 -0.06526201984416015
vn -0.6800720493552107 0.7101380515372058 0.18222501322470763
vn 0.6800720493552107 -0.7101380515372058 -0.18222501322470763
vn -0.47985384221904415 0.8678757146333992 0.12857695772255337
vn 0.47985384221904415 -0.8678757146333992 -0.12857695772255337
vn -0.1815510614794633 0.9664773272826218 0.1815510614794635
vn 0.1815510614794633 -0.9664773272826218 -0.1815510614794635
vn -0.09151997411261803 0.9915887195187588 0.09151997411261825
vn 0.09151997411261803 -0.9915887195187588 -0.09151997411261825
vn 0.01689400332530613 0.9660641901538144 0.257749050733653
vn 0.008518999457122518 0.9914809368173836 0.12997299171740662
vn -0.008518999457122518 -0.9914809368173836 -0.12997299171740662
vn -0.01689400332530613 -0.9660641901538144 -0.257749050733653
vn -0.0461970140392516 0.7078642151196135 0.7048362141994057
vn 0.0461970140392516 -0.7078642151196135 -0.7048362141994057
vn -0.01689400332530613 0.9660641901538144 0.257749050733653
vn 0.01689400332530613 -0.9660641901538144 -0.257749050733653
vn -0.06540299554311302 0 0.9978589320009053
vn 0.06540299554311302 0 -0.9978589320009053
vn 0.06540299554311302 0 0.9978589320009053
vn -0.06540299554311302 0 -0.9978589320009053
vn -0.9978589320009053 0 0.06540299554311302
vn 0.9978589320009053 0 -0.06540299554311302
vn -0.8347100082114597 0.5032250049504761 0.2236600022002554
vn 0.8347100082114597 -0.5032250049504761 -0.2236600022002554
vn -0.9324715880294812 0.26090088473271006 0.24985488961288496
vn 0.9324715880294812 -0.26090088473271006 -0.24985488961288496
vn -0.4302249159164204 0.8678758303814963 0.248390951454229
vn 0.4302249159164204 -0.8678758303814963 -0.248390951454229
vn -0.35127778608172916 0.8678754714882991 0.3512777860817293
vn 0.35127778608172916 -0.8678754714882991 -0.3512777860817293
vn -0.1283760612665912 0.966477461244713 0.22235310611648892
vn 0.1283760612665912 -0.966477461244713 -0.22235310611648892
vn -0.06471398814242467 0.9915888183107017 0.11208797946206557
vn 0.06471398814242467 -0.9915888183107017 -0.11208797946206557
vn -0.008518999457122518 0.9914809368173836 0.12997299171740662
vn 0.008518999457122518 -0.9914809368173836 -0.12997299171740662
vn -0.12857695772255318 0.8678757146333991 0.4798538422190443
vn 0.12857695772255318 -0.8678757146333991 -0.4798538422190443
vn -0.0664520283138198 0.9664774117958169 0.248003105668938
vn 0.0664520283138198 -0.9664774117958169 -0.248003105668938
vn -0.22366000220025528 0.5032250049504758 0.8347100082114598
vn 0.22366000220025528 -0.5032250049504758 -0.8347100082114598
vn -0.24985488961288485 0.26090088473270984 0.932471588029481
vn 0.24985488961288485 -0.26090088473270984 -0.932471588029481
vn -0.25825501627858893 0.06596500415797202 0.9638220607525978
vn 0.25825501627858893 -0.06596500415797202 -0.9638220607525978
vn -0.2588189595935754 0 0.965925849201117
vn 0.2588189595935754 0 -0.965925849201117
vn -0.965925849201117 0 0.2588189595935754
vn 0.965925849201117 0 -0.2588189595935754
vn -0.9638220607525978 0.06596500415797217 0.25825501627858893
vn 0.9638220607525978 -0.06596500415797217 -0.25825501627858893
vn -0.6097360628939731 0.7101380732503908 0.35203103631182736
vn 0.6097360628939731 -0.7101380732503908 -0.35203103631182736
vn -0.24839095145422885 0.8678758303814964 0.4302249159164207
vn 0.24839095145422885 -0.8678758303814964 -0.4302249159164207
vn -0.033498992827095925 0.9915887876780568 0.1250179732307796
vn 0.033498992827095925 -0.9915887876780568 -0.1250179732307796
vn -0.18222501322470747 0.7101380515372057 0.6800720493552108
vn 0.18222501322470747 -0.7101380515372057 -0.6800720493552108
vn -0.7483802158669367 0.5032251451530494 0.43207812463100875
vn 0.7483802158669367 -0.5032251451530494 -0.43207812463100875
vn -0.8360309819204123 0.26090099435788555 0.4826829895617392
vn 0.8360309819204123 -0.26090099435788555 -0.4826829895617392
vn -0.4978471867270815 0.7101382663508993 0.49784718672708167
vn 0.4978471867270815 -0.7101382663508993 -0.49784718672708167
vn -0.3520310363118272 0.7101380732503908 0.6097360628939732
vn 0.3520310363118272 -0.7101380732503908 -0.6097360628939732
vn -0.43207812463100864 0.5032251451530494 0.7483802158669368
vn 0.43207812463100864 -0.5032251451530494 -0.7483802158669368
vn -0.48268298956173905 0.2609009943578854 0.8360309819204123
vn 0.48268298956173905 -0.2609009943578854 -0.8360309819204123
vn -0.49891105526263446 0.06596500730671319 0.8641390957176684
vn 0.49891105526263446 -0.06596500730671319 -0.8641390957176684
vn -0.5000001748438417 0 0.8660253028382762
vn 0.5000001748438417 0 -0.8660253028382762
vn -0.8660253028382762 0 0.5000001748438417
vn 0.8660253028382762 0 -0.5000001748438417
vn -0.8641390957176684 0.06596500730671327 0.49891105526263446
vn 0.8641390957176684 -0.06596500730671327 -0.49891105526263446
vn -0.7071067811865476 0 0.7071067811865476
vn 0.7071067811865476 0 -0.7071067811865476
vn -0.6110501204914575 0.5032250992297089 0.6110501204914576
vn 0.6110501204914575 -0.5032250992297089 -0.6110501204914576
vn -0.6826165668188316 0.2609008344351223 0.6826165668188318
vn 0.6826165668188316 -0.2609008344351223 -0.6826165668188318
vn -0.7055666598453368 0.06596496819819737 0.7055666598453368
vn 0.7055666598453368 -0.06596496819819737 -0.7055666598453368
usemtl material_0_0
f 1//1 2//2 3//3
f 2//2 1//1 4//4
f 3//5 2//6 1//7
f 4//8 1//7 2//6
f 5//9 3//3 2//2
f 2//6 3//5 5//10
f 3//3 6//11 1//1
f 1//7 6//12 3//5
f 1//1 7//13 4//4
f 4//8 7//14 1//7
f 4//4 8//15 2//2
f 2//6 8//16 4//8
f 3//3 5//9 9//17
f 9//18 5//10 3//5
f 2//2 10//19 5//9
f 5//10 10//20 2//6
f 6//11 3//3 11//21
f 11//22 3//5 6//12
f 6//11 12//23 1//1
f 1//7 12//24 6//12
f 7//13 1//1 12//23
f 12//24 1//7 7//14
f 13//25 4//4 7//13
f 7//14 4//8 13//26
f 8//15 4//4 14//27
f 14//28 4//8 8//16
f 10//19 2//2 8//15
f 8//16 2//6 10//20
f 15//29 9//17 5//9
f 5//10 9//18 15//30
f 9//17 11//21 3//3
f 3//5 11//22 9//18
f 16//31 5//9 10//19
f 10//20 5//10 16//32
f 11//21 17//33 6//11
f 6//12 17//34 11//22
f 12//23 6//11 18//35
f 18//36 6//12 12//24
f 12//23 19//37 7//13
f 7//14 19//38 12//24
f 4//4 13//25 14//27
f 14//28 13//26 4//8
f 7//13 20//39 13//25
f 13//26 20//40 7//14
f 14//27 21//41 8//15
f 8//16 21//42 14//28
f 8//15 22//43 10//19
f 10//20 22//44 8//16
f 9//17 15//29 23//45
f 23//46 15//30 9//18
f 5//9 16//31 15//29
f 15//30 16//32 5//10
f 11//21 9//17 24//47
f 24//48 9//18 11//22
f 10//19 25//49 16//31
f 16//32 25//50 10//20
f 17//33 11//21 26//51
f 26//52 11//22 17//34
f 27//53 6//11 17//33
f 17//34 6//12 27//54
f 6//11 27//53 18//35
f 18//36 27//54 6//12
f 18//35 28//55 12//23
f 12//24 28//56 18//36
f 19//37 12//23 28//55
f 28//56 12//24 19//38
f 20//39 7//13 19//37
f 19//38 7//14 20//40
f 29//57 14//27 13//25
f 13//26 14//28 29//58
f 30//59 13//25 20//39
f 20//40 13//26 30//60
f 21//41 14//27 31//61
f 31//62 14//28 21//42
f 22//43 8//15 21//41
f 21//42 8//16 22//44
f 25//49 10//19 22//43
f 22//44 10//20 25//50
f 25//63 23//63 15//63
f 15//64 23//64 25//64
f 23//45 24//47 9//17
f 9//18 24//48 23//46
f 25//63 15//63 16//63
f 16//64 15//64 25//64
f 24//47 26//51 11//21
f 11//22 26//52 24//48
f 26//51 32//65 17//33
f 17//34 32//66 26//52
f 17//33 33//67 27//53
f 27//54 33//68 17//34
f 34//69 18//35 27//53
f 27//54 18//36 34//70
f 28//55 18//35 35//71
f 35//72 18//36 28//56
f 28//55 36//73 19//37
f 19//38 36//74 28//56
f 19//37 37//75 20//39
f 20//40 37//76 19//38
f 14//27 29//57 31//61
f 31//62 29//58 14//28
f 13//25 30//59 29//57
f 29//58 30//60 13//26
f 20//39 38//77 30//59
f 30//60 38//78 20//40
f 31//79 39//79 21//79
f 21//80 39//80 31//80
f 21//79 40//79 22//79
f 22//80 40//80 21//80
f 22//79 41//79 25//79
f 25//80 41//80 22//80
f 25//63 42//63 23//63
f 23//64 42//64 25//64
f 24//47 23//45 42//81
f 42//82 23//46 24//48
f 26//51 24//47 43//83
f 43//84 24//48 26//52
f 32//65 26//51 44//85
f 44//86 26//52 32//66
f 33//67 17//33 32//65
f 32//66 17//34 33//68
f 45//87 27//53 33//67
f 33//68 27//54 45//88
f 18//35 34//69 35//71
f 35//72 34//70 18//36
f 27//53 45//87 34//69
f 34//70 45//88 27//54
f 35//71 46//89 28//55
f 28//56 46//90 35//72
f 36//73 28//55 46//89
f 46//90 28//56 36//74
f 37//75 19//37 36//73
f 36//74 19//38 37//76
f 38//77 20//39 37//75
f 37//76 20//40 38//78
f 29//79 47//79 31//79
f 31//80 47//80 29//80
f 30//79 48//79 29//79
f 29//80 48//80 30//80
f 38//79 49//79 30//79
f 30//80 49//80 38//80
f 31//79 47//79 39//79
f 39//80 47//80 31//80
f 21//79 39//79 40//79
f 40//80 39//80 21//80
f 22//79 40//79 41//79
f 41//80 40//80 22//80
f 41//63 50//63 25//63
f 25//64 50//64 41//64
f 25//63 51//63 42//63
f 42//64 51//64 25//64
f 42//81 43//83 24//47
f 24//48 43//84 42//82
f 43//83 44//85 26//51
f 26//52 44//86 43//84
f 44//85 52//91 32//65
f 32//66 52//92 44//86
f 32//65 53//93 33//67
f 33//68 53//94 32//66
f 33//67 54//95 45//87
f 45//88 54//96 33//68
f 55//97 35//71 34//69
f 34//70 35//72 55//98
f 56//99 34//69 45//87
f 45//88 34//70 56//100
f 46//89 35//71 57//101
f 57//102 35//72 46//90
f 46//89 58//103 36//73
f 36//74 58//104 46//90
f 36//73 59//105 37//75
f 37//76 59//106 36//74
f 37//75 60//107 38//77
f 38//78 60//108 37//76
f 29//79 48//79 47//79
f 47//80 48//80 29//80
f 30//79 49//79 48//79
f 48//80 49//80 30//80
f 38//79 61//79 49//79
f 49//80 61//80 38//80
f 47//109 62//110 39//111
f 39//112 62//113 47//114
f 39//111 63//115 40//116
f 40//117 63//118 39//112
f 40//116 64//119 41//120
f 41//121 64//122 40//117
f 50//63 41//63 64//63
f 64//64 41//64 50//64
f 25//63 50//63 65//63
f 65//64 50//64 25//64
f 25//63 66//63 51//63
f 51//64 66//64 25//64
f 43//83 42//81 51//123
f 51//124 42//82 43//84
f 44//85 43//83 67//125
f 67//126 43//84 44//86
f 52//91 44//85 68//127
f 68//128 44//86 52//92
f 53//93 32//65 52//91
f 52//92 32//66 53//94
f 54//95 33//67 53//93
f 53//94 33//68 54//96
f 69//129 45//87 54//95
f 54//96 45//88 69//130
f 35//71 55//97 57//101
f 57//102 55//98 35//72
f 34//69 56//99 55//97
f 55//98 56//100 34//70
f 45//87 69//129 56//99
f 56//100 69//130 45//88
f 57//101 70//131 46//89
f 46//90 70//132 57//102
f 58//103 46//89 70//131
f 70//132 46//90 58//104
f 59//105 36//73 58//103
f 58//104 36//74 59//106
f 60//107 37//75 59//105
f 59//106 37//76 60//108
f 60//79 61//79 38//79
f 38//80 61//80 60//80
f 48//133 71//134 47//109
f 47//114 71//135 48//136
f 49//137 72//138 48//133
f 48//136 72//139 49//140
f 61//141 73//142 49//137
f 49//140 73//143 61//144
f 62//110 47//109 71//134
f 71//135 47//114 62//113
f 63//115 39//111 62//110
f 62//113 39//112 63//118
f 64//119 40//116 63//115
f 63//118 40//117 64//122
f 64//119 74//145 50//146
f 50//147 74//148 64//122
f 50//146 75//149 65//150
f 65//151 75//152 50//147
f 25//63 65//63 76//63
f 76//64 65//64 25//64
f 25//63 77//63 66//63
f 66//64 77//64 25//64
f 67//125 51//123 66//153
f 66//154 51//124 67//126
f 51//123 67//125 43//83
f 43//84 67//126 51//124
f 67//125 68//127 44//85
f 44//86 68//128 67//126
f 78//155 52//91 68//127
f 68//128 52//92 78//156
f 52//91 79//157 53//93
f 53//94 79//158 52//92
f 53//93 80//159 54//95
f 54//96 80//160 53//94
f 54//95 81//161 69//129
f 69//130 81//162 54//96
f 82//163 57//101 55//97
f 55//98 57//102 82//164
f 83//165 55//97 56//99
f 56//100 55//98 83//166
f 69//129 83//165 56//99
f 56//100 83//166 69//130
f 70//131 57//101 84//167
f 84//168 57//102 70//132
f 70//64 60//64 58//64
f 58//63 60//63 70//63
f 58//64 60//64 59//64
f 59//63 60//63 58//63
f 61//79 60//79 85//79
f 85//80 60//80 61//80
f 71//134 48//133 72//138
f 72//139 48//136 71//135
f 72//138 49//137 73//142
f 73//143 49//140 72//139
f 73//142 61//141 86//169
f 86//170 61//144 73//143
f 87//171 62//110 71//134
f 71//135 62//113 87//172
f 88//173 63//115 62//110
f 62//113 63//118 88//174
f 74//145 64//119 63//115
f 63//118 64//122 74//148
f 75//149 50//146 74//145
f 74//148 50//147 75//152
f 89//175 65//150 75//149
f 75//152 65//151 89//176
f 65//150 89//175 76//177
f 76//178 89//176 65//151
f 25//63 76//63 90//63
f 90//64 76//64 25//64
f 25//63 91//63 77//63
f 77//64 91//64 25//64
f 92//179 66//153 77//180
f 77//181 66//154 92//182
f 66//153 92//179 67//125
f 67//126 92//182 66//154
f 68//127 67//125 92//179
f 92//182 67//126 68//128
f 52//91 78//155 93//183
f 93//184 78//156 52//92
f 68//127 94//185 78//155
f 78//156 94//186 68//128
f 79//157 52//91 93//183
f 93//184 52//92 79//158
f 80//159 53//93 79//157
f 79//158 53//94 80//160
f 81//161 54//95 80//159
f 80//160 54//96 81//162
f 95//187 69//129 81//161
f 81//162 69//130 95//188
f 57//101 82//163 84//167
f 84//168 82//164 57//102
f 55//97 83//165 82//163
f 82//164 83//166 55//98
f 83//165 69//129 96//189
f 96//190 69//130 83//166
f 84//64 60//64 70//64
f 70//63 60//63 84//63
f 60//64 97//64 85//64
f 85//63 97//63 60//63
f 97//191 61//141 85//108
f 85//107 61//144 97//192
f 72//138 87//171 71//134
f 71//135 87//172 72//139
f 73//142 98//193 72//138
f 72//139 98//194 73//143
f 61//141 97//191 86//169
f 86//170 97//192 61//144
f 86//169 99//195 73//142
f 73//143 99//196 86//170
f 62//110 87//171 88//173
f 88//174 87//172 62//113
f 63//115 88//173 74//145
f 74//148 88//174 63//118
f 74//145 100//197 75//149
f 75//152 100//198 74//148
f 75//149 101//199 89//175
f 89//176 101//200 75//152
f 102//201 76//177 89//175
f 89//176 76//178 102//202
f 76//177 102//201 90//203
f 90//204 102//202 76//178
f 25//63 90//63 103//63
f 103//64 90//64 25//64
f 25//63 103//63 91//63
f 91//64 103//64 25//64
f 91//205 92//179 77//180
f 77//181 92//182 91//206
f 94//185 68//127 92//179
f 92//182 68//128 94//186
f 104//207 93//183 78//155
f 78//156 93//184 104//208
f 105//209 78//155 94//185
f 94//186 78//156 105//210
f 93//183 106//211 79//157
f 79//158 106//212 93//184
f 79//157 107//213 80//159
f 80//160 107//214 79//158
f 80//159 108//215 81//161
f 81//162 108//216 80//160
f 69//129 95//187 96//189
f 96//190 95//188 69//130
f 81//161 109//217 95//187
f 95//188 109//218 81//162
f 82//64 60//64 84//64
f 84//63 60//63 82//63
f 83//64 60//64 82//64
f 82//63 60//63 83//63
f 96//64 60//64 83//64
f 83//63 60//63 96//63
f 97//64 60//64 110//64
f 110//63 60//63 97//63
f 87//171 72//138 98//193
f 98//194 72//139 87//172
f 98//193 73//142 99//195
f 99//196 73//143 98//194
f 110//219 86//169 97//191
f 97//192 86//170 110//220
f 99//195 86//169 111//221
f 111//222 86//170 99//196
f 112//223 88//173 87//171
f 87//172 88//174 112//224
f 100//197 74//145 88//173
f 88//174 74//148 100//198
f 101//199 75//149 100//197
f 100//198 75//152 101//200
f 113//225 89//175 101//199
f 101//200 89//176 113//226
f 89//175 113//225 102//201
f 102//202 113//226 89//176
f 105//209 90//203 102//201
f 102//202 90//204 105//210
f 90//203 105//209 103//227
f 103//228 105//210 90//204
f 103//227 94//185 91//205
f 91//206 94//186 103//228
f 92//179 91//205 94//185
f 94//186 91//206 92//182
f 93//183 104//207 114//229
f 114//230 104//208 93//184
f 78//155 105//209 104//207
f 104//208 105//210 78//156
f 94//185 103//227 105//209
f 105//210 103//228 94//186
f 106//211 93//183 114//229
f 114//230 93//184 106//212
f 107//213 79//157 106//211
f 106//212 79//158 107//214
f 108//215 80//159 107//213
f 107//214 80//160 108//216
f 109//217 81//161 108//215
f 108//216 81//162 109//218
f 95//64 60//64 96//64
f 96//63 60//63 95//63
f 109//64 60//64 95//64
f 95//63 60//63 109//63
f 110//64 60//64 115//64
f 115//63 60//63 110//63
f 98//193 112//223 87//171
f 87//172 112//224 98//194
f 99//195 116//231 98//193
f 98//194 116//232 99//196
f 86//169 110//219 111//221
f 111//222 110//220 86//170
f 111//221 117//233 99//195
f 99//196 117//234 111//222
f 88//173 112//223 100//197
f 100//198 112//224 88//174
f 100//197 118//235 101//199
f 101//200 118//236 100//198
f 101//199 119//237 113//225
f 113//226 119//238 101//200
f 104//207 102//201 113//225
f 113//226 102//202 104//208
f 102//201 104//207 105//209
f 105//210 104//208 102//202
f 113//225 114//229 104//207
f 104//208 114//230 113//226
f 114//229 120//239 106//211
f 106//212 120//240 114//230
f 106//211 121//241 107//213
f 107//214 121//242 106//212
f 107//213 122//243 108//215
f 108//216 122//244 107//214
f 108//215 123//245 109//217
f 109//218 123//246 108//216
f 123//64 60//64 109//64
f 109//63 60//63 123//63
f 115//64 60//64 124//64
f 124//63 60//63 115//63
f 115//247 111//221 110//219
f 110//220 111//222 115//248
f 112//223 98//193 116//231
f 116//232 98//194 112//224
f 116//231 99//195 117//233
f 117//234 99//196 116//232
f 117//233 111//221 125//249
f 125//250 111//222 117//234
f 118//235 100//197 112//223
f 112//224 100//198 118//236
f 119//237 101//199 118//235
f 118//236 101//200 119//238
f 114//229 113//225 119//237
f 119//238 113//226 114//230
f 120//239 114//229 119//237
f 119//238 114//230 120//240
f 121//241 106//211 120//239
f 120//240 106//212 121//242
f 122//243 107//213 121//241
f 121//242 107//214 122//244
f 123//245 108//215 122//243
f 122//244 108//216 123//246
f 124//64 60//64 123//64
f 123//63 60//63 124//63
f 124//251 125//249 115//247
f 115//248 125//250 124//252
f 111//221 115//247 125//249
f 125//250 115//248 111//222
f 116//231 118//235 112//223
f 112//224 118//236 116//232
f 117//233 126//253 116//231
f 116//232 126//254 117//234
f 125//249 127//255 117//233
f 117//234 127//256 125//250
f 126//253 119//237 118//235
f 118//236 119//238 126//254
f 119//237 126//253 120//239
f 120//240 126//254 119//238
f 120//239 127//255 121//241
f 121//242 127//256 120//240
f 121//241 128//257 122//243
f 122//244 128//258 121//242
f 122//243 124//251 123//245
f 123//246 124//252 122//244
f 125//249 124//251 128//257
f 128//258 124//252 125//250
f 118//235 116//231 126//253
f 126//254 116//232 118//236
f 126//253 117//233 127//255
f 127//256 117//234 126//254
f 127//255 125//249 128//257
f 128//258 125//250 127//256
f 127//255 120//239 126//253
f 126//254 120//240 127//256
f 128//257 121//241 127//255
f 127//256 121//242 128//258
f 124//251 122//243 128//257
f 128//258 122//244 124//252
