# SSTK version 0.8.0
# 5
mtllib original-5.mtl
o D_-_side_apron2/D_-_side_apron/mesh7/mesh7-geometry#mesh7-geometry
v 0.592049 -0.000296 -0.179098
v 0.569589 -0.000296 0.120363
v 0.569589 -0.000296 -0.179098
v 0.592049 -0.000296 0.120363
v 0.569589 0.134476 -0.179098
v 0.592049 0.134491 0.120363
v 0.569589 0.134491 0.120363
v 0.592049 0.134491 -0.179098
vn 0 -1 0
vn 0 1 0
vn -1 0 0
vn 1 0 0
vn 0 0 -1
vn 0 0 1
vn -0.0003269999824149224 0.9999999462230043 -0.000024999998655353063
vn 0.0003269999824149224 -0.9999999462230043 0.000024999998655353063
usemtl material_0_0
f 1//1 2//1 3//1
f 2//1 1//1 4//1
f 3//2 2//2 1//2
f 4//2 1//2 2//2
f 2//3 5//3 3//3
f 3//4 5//4 2//4
f 5//5 1//5 3//5
f 3//6 1//6 5//6
f 1//4 6//4 4//4
f 4//3 6//3 1//3
f 4//6 7//6 2//6
f 2//5 7//5 4//5
f 5//3 2//3 7//3
f 7//4 2//4 5//4
f 1//5 5//5 8//5
f 8//6 5//6 1//6
f 6//4 1//4 8//4
f 8//3 1//3 6//3
f 7//6 4//6 6//6
f 6//5 4//5 7//5
f 6//7 5//7 7//7
f 7//8 5//8 6//8
f 5//7 6//7 8//7
f 8//8 6//8 5//8
