# SSTK version 0.8.0
# 6
mtllib original-6.mtl
o B_-_leg3/B_-_leg/mesh1/mesh1-geometry#mesh1-geometry
v 0.603279 -0.801322 0.135336
v 0.603279 -0.801322 0.165282
v 0.573333 -0.801322 0.135336
v 0.603279 -0.004009 0.120363
v 0.573333 -0.801322 0.165282
v 0.603279 -0.004009 0.165282
v 0.558360 -0.004009 0.120363
v 0.558360 -0.004009 0.165282
v 0.603279 0.134491 0.120363
v 0.558360 0.134491 0.165282
v 0.603279 0.134491 0.165282
v 0.558360 0.134491 0.120363
vn 0 -1 0
vn 0 1 0
vn 1 0 0
vn 0.665292943869902 -0.3388919714080243 -0.6652349438747955
vn -1 0 0
vn -0.665292943869902 0.3388919714080243 0.6652349438747955
vn 0 -0.018775994656803085 -0.9998237154742069
vn 0 0.018775994656803085 0.9998237154742069
vn 0.6666667777776667 -0.3333328888890002 0.6666667777776666
vn -0.6666667777776667 0.3333328888890002 -0.6666667777776666
vn -0.9998237154742069 -0.018775994656803307 0
vn -0.6638437402509403 -0.34441686523642295 -0.6638437402509404
vn 0.6638437402509403 0.34441686523642295 0.6638437402509404
vn 0.9998237154742069 0.018775994656803307 0
vn 0 0 1
vn -0.6652349438747954 -0.33889197140802463 0.6652929438699019
vn 0.6652349438747954 0.33889197140802463 -0.6652929438699019
vn 0 0 -1
usemtl material_0_0
f 1//1 2//1 3//1
f 3//2 2//2 1//2
f 1//3 4//4 2//3
f 2//5 4//6 1//5
f 5//1 3//1 2//1
f 2//2 3//2 5//2
f 1//7 3//7 4//4
f 4//6 3//8 1//8
f 6//9 2//3 4//4
f 4//6 2//5 6//10
f 3//11 5//11 7//12
f 7//13 5//14 3//14
f 5//15 2//15 8//16
f 8//17 2//18 5//18
f 7//12 4//4 3//7
f 3//8 4//6 7//13
f 6//9 8//16 2//15
f 2//18 8//17 6//10
f 4//4 9//3 6//9
f 6//10 9//5 4//6
f 4//4 6//9 7//12
f 7//13 6//10 4//6
f 8//16 7//12 5//11
f 5//14 7//13 8//17
f 4//4 7//12 9//18
f 9//15 7//13 4//6
f 8//16 7//12 6//9
f 6//10 7//13 8//17
f 8//16 6//9 10//15
f 10//18 6//10 8//17
f 11//3 6//9 9//3
f 9//5 6//10 11//5
f 8//16 10//5 7//12
f 7//13 10//3 8//17
f 12//18 9//18 7//12
f 7//13 9//15 12//15
f 11//15 10//15 6//9
f 6//10 10//18 11//18
f 11//2 9//2 10//2
f 10//1 9//1 11//1
f 12//5 7//12 10//5
f 10//3 7//13 12//3
f 12//2 10//2 9//2
f 9//1 10//1 12//1
