# SSTK version 0.8.0
# 7
mtllib original-7.mtl
o C2_-_apron_front1/C2_-_apron_front/mesh9/mesh9-geometry#mesh9-geometry
v 0.558360 -0.000301 0.131592
v -0.549644 -0.000301 0.154052
v -0.549644 -0.000301 0.131592
v 0.558360 -0.000301 0.154052
v -0.549644 0.117612 0.139079
v -0.482265 0.022159 0.131592
v 0.558360 0.134456 0.154052
v 0.490981 0.022159 0.154052
v -0.549644 0.117612 0.131592
v -0.549644 0.121355 0.139079
v 0.490981 0.022159 0.131592
v 0.558389 0.117612 0.139079
v -0.482265 0.022159 0.154052
v -0.549644 0.134456 0.154052
v -0.482265 0.111997 0.131592
v 0.558389 0.117612 0.131592
v -0.033075 0.022159 0.131592
v 0.558359 0.121355 0.139079
v 0.490981 0.111997 0.154052
v 0.041791 0.022159 0.154052
v -0.549644 0.134456 0.131592
v -0.033075 0.111997 0.131592
v -0.482265 0.111997 0.154052
v 0.490981 0.111997 0.131592
v -0.033075 0.022159 0.154052
v 0.041791 0.022159 0.131592
v 0.558360 0.134456 0.131592
v 0.041791 0.111997 0.154052
v -0.549644 0.121355 0.131592
v 0.558360 0.121355 0.131592
v 0.041791 0.111997 0.131592
v -0.033075 0.111997 0.154052
vn 0 -1 0
vn 0 1 0
vn -1 0 0
vn 1 0 0
vn 0 0 -1
vn 0 0 1
vn 0.999999963109502 -0.000054999997971022674 0.00026599999018712755
vn -0.999999963109502 0.000054999997971022674 -0.00026599999018712755
usemtl material_0_0
f 1//1 2//1 3//1
f 2//1 1//1 4//1
f 3//2 2//2 1//2
f 4//2 1//2 2//2
f 5//3 3//3 2//3
f 2//4 3//4 5//4
f 3//5 6//5 1//5
f 1//6 6//6 3//6
f 1//7 7//7 4//7
f 4//8 7//8 1//8
f 4//6 8//6 2//6
f 2//5 8//5 4//5
f 3//3 5//3 9//3
f 9//4 5//4 3//4
f 2//3 10//3 5//3
f 5//4 10//4 2//4
f 6//5 3//5 9//5
f 9//6 3//6 6//6
f 11//5 1//5 6//5
f 6//6 1//6 11//6
f 7//7 1//7 12//7
f 12//8 1//8 7//8
f 8//6 4//6 7//6
f 7//5 4//5 8//5
f 13//6 2//6 8//6
f 8//5 2//5 13//5
f 12//2 9//2 5//2
f 5//1 9//1 12//1
f 14//3 10//3 2//3
f 2//4 10//4 14//4
f 10//5 12//5 5//5
f 5//6 12//6 10//6
f 6//5 9//5 15//5
f 15//6 9//6 6//6
f 1//5 11//5 16//5
f 16//6 11//6 1//6
f 11//5 6//5 17//5
f 17//6 6//6 11//6
f 12//7 1//7 16//7
f 16//8 1//8 12//8
f 18//7 7//7 12//7
f 12//8 7//8 18//8
f 8//6 7//6 19//6
f 19//5 7//5 8//5
f 2//6 13//6 14//6
f 14//5 13//5 2//5
f 13//6 8//6 20//6
f 20//5 8//5 13//5
f 9//2 12//2 16//2
f 16//1 12//1 9//1
f 10//3 14//3 21//3
f 21//4 14//4 10//4
f 12//5 10//5 18//5
f 18//6 10//6 12//6
f 15//5 9//5 22//5
f 22//6 9//6 15//6
f 23//4 6//4 15//4
f 15//3 6//3 23//3
f 16//5 11//5 24//5
f 24//6 11//6 16//6
f 6//2 25//2 17//2
f 17//1 25//1 6//1
f 11//5 17//5 26//5
f 26//6 17//6 11//6
f 7//7 18//7 27//7
f 27//8 18//8 7//8
f 19//6 7//6 28//6
f 28//5 7//5 19//5
f 24//3 8//3 19//3
f 19//4 8//4 24//4
f 14//6 13//6 23//6
f 23//5 13//5 14//5
f 8//2 26//2 20//2
f 20//1 26//1 8//1
f 13//6 20//6 25//6
f 25//5 20//5 13//5
f 24//5 9//5 16//5
f 16//6 9//6 24//6
f 7//2 21//2 14//2
f 14//1 21//1 7//1
f 10//3 21//3 29//3
f 29//4 21//4 10//4
f 10//1 30//1 18//1
f 18//2 30//2 10//2
f 22//5 9//5 31//5
f 31//6 9//6 22//6
f 22//1 23//1 15//1
f 15//2 23//2 22//2
f 6//4 23//4 13//4
f 13//3 23//3 6//3
f 8//3 24//3 11//3
f 11//4 24//4 8//4
f 25//2 6//2 13//2
f 13//1 6//1 25//1
f 25//3 22//3 17//3
f 17//4 22//4 25//4
f 22//5 26//5 17//5
f 17//6 26//6 22//6
f 26//2 8//2 11//2
f 11//1 8//1 26//1
f 27//7 18//7 30//7
f 30//8 18//8 27//8
f 21//2 7//2 27//2
f 27//1 7//1 21//1
f 28//6 7//6 32//6
f 32//5 7//5 28//5
f 28//1 24//1 19//1
f 19//2 24//2 28//2
f 14//6 23//6 7//6
f 7//5 23//5 14//5
f 26//4 28//4 20//4
f 20//3 28//3 26//3
f 28//6 25//6 20//6
f 20//5 25//5 28//5
f 31//5 9//5 24//5
f 24//6 9//6 31//6
f 21//5 30//5 29//5
f 29//6 30//6 21//6
f 30//1 10//1 29//1
f 29//2 10//2 30//2
f 26//5 22//5 31//5
f 31//6 22//6 26//6
f 23//1 22//1 32//1
f 32//2 22//2 23//2
f 22//3 25//3 32//3
f 32//4 25//4 22//4
f 30//5 21//5 27//5
f 27//6 21//6 30//6
f 32//6 7//6 23//6
f 23//5 7//5 32//5
f 25//6 28//6 32//6
f 32//5 28//5 25//5
f 24//1 28//1 31//1
f 31//2 28//2 24//2
f 28//4 26//4 31//4
f 31//3 26//3 28//3
