# https://github.com/mikedh/trimesh
mtllib material.mtl
usemtl material_0
v -0.04227881 -0.19244356 -0.33361471
v -0.04291010 -0.19189030 -0.32428202
v -0.05010408 -0.19181029 -0.32347926
v -0.03146581 -0.19239990 -0.32939723
v -0.03209841 -0.19193500 -0.32124913
v -0.05782277 -0.19278048 -0.34529543
v -0.05454526 -0.19251390 -0.33925089
v -0.06598368 -0.19226120 -0.33822218
v -0.05687314 -0.19213851 -0.33206213
v -0.04917670 -0.19169571 -0.31916887
v -0.03665534 -0.19161473 -0.31070465
v -0.05929733 -0.19186173 -0.32226133
v -0.06784539 -0.19205752 -0.32719955
v -0.06590211 -0.19162388 -0.31631890
v -0.04353338 -0.19160807 -0.30830228
v -0.05746344 -0.19177671 -0.31208637
v -0.05193405 -0.19164282 -0.30779505
v -0.06196850 -0.19173932 -0.31534946
v -0.06472921 -0.19257243 -0.34523687
v -0.05816766 -0.19146487 -0.30341625
v -0.05380992 -0.19151978 -0.30276501
v -0.04962847 -0.19141354 -0.29890734
v -0.05407573 -0.19140780 -0.29819351
v -0.07386828 -0.19195461 -0.33439538
v -0.07401103 -0.19210097 -0.34505755
v -0.06995339 -0.19165681 -0.32029513
v -0.07307895 -0.19171870 -0.32549778
v -0.06202420 -0.19134922 -0.30742246
v -0.03536579 -0.19088855 -0.29464367
v -0.04248118 -0.19095927 -0.29087436
v -0.03495660 -0.19126588 -0.30472791
v -0.01551937 -0.19152859 -0.31817609
v -0.02990546 -0.19147263 -0.31052405
v -0.01374134 -0.19103791 -0.30977187
v -0.01910483 -0.19192156 -0.32618669
v -0.02043392 -0.19232947 -0.33230317
v -0.02309741 -0.19064410 -0.30099398
v -0.01253752 -0.19026953 -0.29928604
v -0.02148554 -0.19033858 -0.29271191
v -0.01680640 -0.19010991 -0.29395184
v -0.05349683 -0.19113733 -0.29458117
v -0.04524476 -0.19108450 -0.29001006
v -0.04986004 -0.19132549 -0.29378390
v -0.02924505 -0.19036372 -0.28927067
v -0.03655765 -0.19034226 -0.28648099
v -0.03108716 -0.19019820 -0.28630486
v -0.02164443 -0.19020833 -0.28993008
v -0.00691076 -0.19046463 -0.30528679
v -0.01384790 -0.19163607 -0.32540879
v -0.01463574 -0.19192320 -0.33247393
v -0.03093466 -0.19275333 -0.33398482
v -0.00587326 -0.19076116 -0.30918425
v -0.00418050 -0.19079921 -0.31561461
v -0.05763280 -0.19109985 -0.29890588
v -0.06153028 -0.19101709 -0.30336350
v -0.00615301 -0.19092081 -0.32032141
v -0.00231897 -0.19071676 -0.31732729
v -0.04836223 -0.19274713 -0.33970886
v -0.05053570 -0.19340649 -0.34794933
v -0.06987900 -0.19264942 -0.34972775
v -0.02813093 -0.19353321 -0.34210759
v -0.03372943 -0.19356732 -0.34203812
v -0.04442941 -0.19337907 -0.34438562
v -0.01971867 -0.19343600 -0.34465098
v -0.01420769 -0.19255494 -0.34006640
v -0.07403839 -0.19232199 -0.34968260
v -0.03700255 -0.19006658 -0.28539583
v -0.05658291 -0.19333704 -0.34952807
v -0.06460508 -0.19302049 -0.34994090
v -0.00149816 -0.19044197 -0.32842675
v -0.06572919 -0.19115302 -0.31175384
v -0.00416493 -0.19245785 -0.34526023
v -0.04887550 -0.19092844 -0.29090998
v -0.00151695 -0.19049372 -0.33181390
v -0.00395377 -0.19112168 -0.33678117
v -0.02540763 -0.18973482 -0.28655404
v -0.07408652 -0.19272855 -0.35325241
v -0.00396729 -0.19156289 -0.34029716
v -0.01267693 -0.19365141 -0.34874430
v -0.01678426 -0.19361380 -0.34724578
v -0.00148601 -0.19083895 -0.33939883
v -0.00835294 -0.19340065 -0.34875011
v -0.01194690 -0.19411817 -0.35254189
v -0.00405231 -0.19306034 -0.34872288
v -0.00400036 -0.19301209 -0.35175315
v -0.00805168 -0.19328617 -0.35192403
v -0.07634806 -0.19176193 -0.34556246
v -0.07661577 -0.19211318 -0.35355949
v -0.07610206 -0.19163491 -0.33626917
v -0.06915656 -0.19113967 -0.31584498
v -0.01134971 -0.18979828 -0.29740292
v -0.03252449 -0.18993427 -0.28504032
v -0.05883334 -0.19382459 -0.35230383
v -0.02191039 -0.19380780 -0.34514400
v -0.02807849 -0.19441348 -0.34509155
v -0.00194128 -0.19259308 -0.35117185
v -0.06848147 -0.19037928 -0.31207186
v -0.01761432 -0.18964037 -0.29067516
v -0.03322325 -0.19448702 -0.34535345
v -0.04064780 -0.19397180 -0.34535655
v -0.04474750 -0.19383870 -0.34650293
v -0.04785868 -0.19362316 -0.34725231
v -0.02007380 -0.18973111 -0.28908205
v -0.07532077 -0.19140078 -0.32939562
v -0.02830251 -0.18969810 -0.28548709
v -0.07632504 -0.19205840 -0.35561448
v -0.06954521 -0.19377635 -0.35322580
v -0.06482626 -0.19395065 -0.35284513
v -0.06513984 -0.19067121 -0.30788919
v -0.06961261 -0.19348346 -0.35495466
v -0.06428368 -0.19008482 -0.30445841
v -0.07135142 -0.19059791 -0.31696224
v -0.00162392 -0.19150338 -0.34488928
v -0.06657411 -0.18982399 -0.30740842
v -0.04167305 -0.18993826 -0.28633055
v -0.07352910 -0.19073436 -0.32160443
v -0.00334372 -0.19005291 -0.31439480
v -0.06224829 -0.19003418 -0.30143705
v -0.05738762 -0.19016434 -0.29641095
v -0.01139205 -0.18902218 -0.29563299
v -0.00783259 -0.18952788 -0.30171508
v -0.05466751 -0.19005932 -0.29376942
v -0.06788330 -0.19487880 -0.35392606
v -0.01243927 -0.18769956 -0.29248831
v -0.06925220 -0.18900542 -0.31036857
v -0.04924468 -0.18992136 -0.28986689
v -0.01624973 -0.18703251 -0.28868863
v -0.01366656 -0.18585233 -0.28950080
v -0.06521798 -0.18721403 -0.30266497
v -0.06425573 -0.18305810 -0.30066612
v -0.06634538 -0.18101010 -0.30424988
v -0.06899344 -0.18731529 -0.30928180
v -0.06389211 -0.17830913 -0.29983851
v -0.06782280 -0.17974015 -0.30720392
v -0.06550616 -0.17522942 -0.30301696
v -0.06366030 -0.17450263 -0.29955527
v -0.06203987 -0.17515096 -0.29648873
v -0.06765206 -0.17498016 -0.30740920
v -0.06950121 -0.17608763 -0.31130075
v -0.07242683 -0.18753484 -0.31743610
v -0.07111750 -0.17524958 -0.31517172
v -0.07276094 -0.18336004 -0.31866112
v -0.07445125 -0.18512572 -0.32327262
v -0.07324665 -0.17971060 -0.32049438
v -0.07471827 -0.17713419 -0.32444164
v -0.07331616 -0.17699377 -0.32147589
v -0.07228690 -0.17596450 -0.31853718
v -0.07544146 -0.18475327 -0.32630673
v -0.07526577 -0.17921746 -0.32572824
v -0.07507794 -0.18977925 -0.32576346
v -0.07269344 -0.18962727 -0.31816131
v -0.06925220 -0.18900542 -0.31036857
v -0.07127896 -0.17364246 -0.31616628
v -0.06202893 -0.18246268 -0.29719692
v -0.07603495 -0.18984953 -0.33040187
v -0.06048674 -0.17772816 -0.29462227
v -0.06166310 -0.18620405 -0.29760736
v -0.06556803 -0.18862063 -0.30419272
v -0.07586499 -0.18078049 -0.32891858
v -0.07352910 -0.19073436 -0.32160443
v -0.06464577 -0.17398404 -0.30204731
v -0.06356379 -0.17331234 -0.29966769
v -0.06036674 -0.17440547 -0.29446423
v -0.05866878 -0.17340793 -0.29208356
v -0.06856142 -0.17464562 -0.31002173
v -0.06752333 -0.17356837 -0.30746478
v -0.06590818 -0.17439082 -0.30555135
v -0.05897214 -0.18159425 -0.29368293
v -0.06171561 -0.18760604 -0.29835522
v -0.06217017 -0.18865758 -0.29977533
v -0.06189081 -0.17410067 -0.29784939
v -0.07532077 -0.19140078 -0.32939562
v -0.07609298 -0.18690783 -0.33315828
v -0.07595184 -0.18211898 -0.33077297
v -0.07640287 -0.19019200 -0.33543205
v -0.07610206 -0.19163491 -0.33626917
v -0.05785229 -0.18609588 -0.29385039
v -0.07656167 -0.19035110 -0.34337664
v -0.07634806 -0.19176193 -0.34556246
v -0.07636599 -0.19036341 -0.34980914
v -0.07661577 -0.19211318 -0.35355949
v -0.07617602 -0.18839656 -0.33968222
v -0.07652947 -0.19151334 -0.35556424
v -0.06984740 -0.17517558 -0.31397015
v -0.05604835 -0.17789786 -0.29059470
v -0.05567860 -0.18147215 -0.29080617
v -0.07135142 -0.19059791 -0.31696224
v -0.05455555 -0.18491875 -0.29085028
v -0.07598944 -0.18931140 -0.34815550
v -0.07632504 -0.19205840 -0.35561448
v -0.06224829 -0.19003418 -0.30143705
v -0.06657411 -0.18982399 -0.30740842
v -0.06428368 -0.19008482 -0.30445841
v -0.05466751 -0.19005932 -0.29376942
v -0.05738762 -0.19016434 -0.29641095
v -0.01840475 -0.18452284 -0.28579381
v -0.01936353 -0.18128857 -0.28417543
v -0.02304645 -0.18119106 -0.28299233
v -0.01729688 -0.18272871 -0.28538328
v -0.02543310 -0.18406713 -0.28320238
v -0.02385198 -0.18719809 -0.28529510
v -0.02919113 -0.18769468 -0.28412235
v -0.02830251 -0.18969810 -0.28548709
v -0.02954479 -0.18431459 -0.28262678
v -0.02540763 -0.18973482 -0.28655404
v -0.03256719 -0.18772370 -0.28375718
v -0.03252449 -0.18993427 -0.28504032
v -0.03288047 -0.18435173 -0.28252244
v -0.02650022 -0.18111134 -0.28228059
v -0.01624973 -0.18703251 -0.28868863
v -0.02007380 -0.18973111 -0.28908205
v -0.01366656 -0.18585233 -0.28950080
v -0.01935682 -0.17833926 -0.28353485
v -0.01684108 -0.17665391 -0.28414351
v -0.02307107 -0.17801206 -0.28255484
v -0.01324296 -0.18348597 -0.28866014
v -0.01489438 -0.17858465 -0.28590232
v -0.02659641 -0.17762119 -0.28202292
v -0.03190831 -0.18112418 -0.28195879
v -0.03598065 -0.18771987 -0.28393754
v -0.03700255 -0.19006658 -0.28539583
v -0.03613359 -0.18435726 -0.28279734
v -0.03019171 -0.17720717 -0.28181964
v -0.01926259 -0.17521417 -0.28357852
v -0.03656496 -0.18079312 -0.28236482
v -0.02272260 -0.17489450 -0.28280175
v -0.03376140 -0.17690799 -0.28188527
v -0.03964021 -0.18437432 -0.28350592
v -0.03959966 -0.18768449 -0.28465590
v -0.04167305 -0.18993826 -0.28633055
v -0.03701762 -0.17673624 -0.28225082
v -0.02807282 -0.17451371 -0.28218269
v -0.03991885 -0.18079436 -0.28309691
v -0.04403846 -0.18876590 -0.28646851
v -0.04413864 -0.18454362 -0.28492486
v -0.04345224 -0.18086524 -0.28422233
v -0.04117015 -0.17405500 -0.28294545
v -0.03597230 -0.17404868 -0.28228024
v -0.04600025 -0.18705225 -0.28653374
v -0.04374392 -0.17670894 -0.28401756
v -0.04434732 -0.17405432 -0.28384000
v -0.04669011 -0.17349564 -0.28475830
v -0.04901175 -0.17688006 -0.28627044
v -0.04887902 -0.18218338 -0.28665021
v -0.04905359 -0.18439296 -0.28716969
v -0.05142299 -0.17439987 -0.28725913
v -0.04924468 -0.18992136 -0.28986689
v -0.05261836 -0.18726838 -0.29052064
v -0.05455555 -0.18491875 -0.29085028
v -0.05567860 -0.18147215 -0.29080617
v -0.05604835 -0.17789786 -0.29059470
v -0.05473430 -0.17344753 -0.28908220
v -0.04973834 -0.17375992 -0.28652355
v -0.04039294 -0.17340216 -0.28310022
v -0.05785229 -0.18609588 -0.29385039
v -0.05466751 -0.19005932 -0.29376942
v -0.05671071 -0.17432462 -0.29086283
v -0.05866878 -0.17340793 -0.29208356
v -0.02382568 -0.17358468 -0.28316069
v -0.02036046 -0.17365381 -0.28370088
v -0.06499804 -0.18631256 -0.30624610
v -0.06415067 -0.18289492 -0.30360228
v -0.06322521 -0.18750814 -0.30494139
v -0.06141340 -0.18728745 -0.30119133
v -0.06093975 -0.18270530 -0.29837424
v -0.06688678 -0.18307026 -0.30907795
v -0.06569789 -0.18705291 -0.30925238
v -0.06803510 -0.18330511 -0.31178340
v -0.06070689 -0.18592413 -0.29865363
v -0.06265721 -0.17761397 -0.30095714
v -0.06073963 -0.17750205 -0.29770413
v -0.06336220 -0.17424148 -0.30099773
v -0.06506755 -0.17781205 -0.30549857
v -0.06417330 -0.17486437 -0.30341727
v -0.06779579 -0.17871968 -0.31113631
v -0.06738608 -0.17496966 -0.30895388
v -0.06897139 -0.17899831 -0.31387314
v -0.06808779 -0.17619666 -0.31142229
v -0.06984740 -0.17517558 -0.31397015
v -0.07127896 -0.17364246 -0.31616628
v -0.07063745 -0.17925371 -0.31714535
v -0.07217693 -0.17788650 -0.31950152
v -0.07177722 -0.18342358 -0.32007927
v -0.07041640 -0.18336684 -0.31720287
v -0.06876658 -0.18624856 -0.31424186
v -0.07266252 -0.18344806 -0.32231808
v -0.07460218 -0.17929572 -0.32529902
v -0.07246615 -0.18604463 -0.32266727
v -0.06590818 -0.17439082 -0.30555135
v -0.07471827 -0.17713419 -0.32444164
v -0.07331616 -0.17699377 -0.32147589
v -0.07466341 -0.18371129 -0.32757667
v -0.07595184 -0.18211898 -0.33077297
v -0.07228690 -0.17596450 -0.31853718
v -0.07283111 -0.18734547 -0.32530764
v -0.06189081 -0.17410067 -0.29784939
v -0.06920645 -0.18749662 -0.31743535
v -0.07091249 -0.18736716 -0.32112893
v -0.05863858 -0.18310432 -0.29536882
v -0.07381170 -0.18740353 -0.32868093
v -0.05827097 -0.18733536 -0.29731461
v -0.05705246 -0.18611664 -0.29446194
v -0.05756981 -0.17774805 -0.29387444
v -0.05975955 -0.17470117 -0.29578060
v -0.05823058 -0.17433988 -0.29328376
v -0.07489433 -0.18705644 -0.33280429
v -0.06647424 -0.18779254 -0.31287464
v -0.05540352 -0.18279564 -0.29205364
v -0.05586412 -0.17521887 -0.29173982
v -0.07232767 -0.18935385 -0.32699600
v -0.07162042 -0.18859445 -0.32416889
v -0.06752333 -0.17356837 -0.30746478
v -0.06856142 -0.17464562 -0.31002173
v -0.06838160 -0.18939419 -0.31883284
v -0.05948155 -0.18851148 -0.29997650
v -0.06069585 -0.18939796 -0.30273840
v -0.06109486 -0.18949257 -0.30546111
v -0.05362960 -0.17777970 -0.29035240
v -0.05334105 -0.18275344 -0.29058960
v -0.05429463 -0.17443493 -0.28993288
v -0.05293538 -0.18572350 -0.29087538
v -0.05443224 -0.18681619 -0.29308969
v -0.07526577 -0.17921746 -0.32572824
v -0.06886657 -0.18947312 -0.32101277
v -0.07586499 -0.18078049 -0.32891858
v -0.07297219 -0.18956232 -0.33263201
v -0.06740373 -0.18882859 -0.31631795
v -0.06356379 -0.17331234 -0.29966769
v -0.05008493 -0.17477900 -0.28753000
v -0.04860558 -0.17763190 -0.28721011
v -0.04806787 -0.18245420 -0.28749982
v -0.05044434 -0.18637574 -0.29017609
v -0.06379386 -0.18897130 -0.30941966
v -0.04973834 -0.17375992 -0.28652355
v -0.06425332 -0.18933259 -0.31176880
v -0.05684951 -0.18944852 -0.29872504
v -0.05458627 -0.18889910 -0.29610583
v -0.06464577 -0.17398404 -0.30204731
v -0.04637081 -0.18690878 -0.28891075
v -0.04486331 -0.18541788 -0.28697261
v -0.07609298 -0.18690783 -0.33315828
v -0.05473430 -0.17344753 -0.28908220
v -0.05671071 -0.17432462 -0.29086283
v -0.05866878 -0.17340793 -0.29208356
v -0.04444839 -0.18243548 -0.28649950
v -0.04624481 -0.17744783 -0.28658208
v -0.04654076 -0.17445622 -0.28611675
v -0.04218604 -0.17414032 -0.28498903
v -0.04210114 -0.17719547 -0.28556362
v -0.04221290 -0.17347117 -0.28394642
v -0.03737980 -0.18197566 -0.28506771
v -0.04171186 -0.18597001 -0.28661349
v -0.03817984 -0.17718603 -0.28491479
v -0.03682531 -0.18649220 -0.28620785
v -0.06036674 -0.17440547 -0.29446423
v -0.03723636 -0.17408234 -0.28444651
v -0.03399741 -0.17739969 -0.28472552
v -0.03308236 -0.18215647 -0.28479943
v -0.03228531 -0.18654840 -0.28607121
v -0.02972216 -0.17433864 -0.28442967
v -0.02930044 -0.17777827 -0.28480375
v -0.02805672 -0.18630435 -0.28616199
v -0.02869286 -0.18238442 -0.28493372
v -0.04669011 -0.17349564 -0.28475830
v -0.04039294 -0.17340216 -0.28310022
v -0.02647037 -0.17354858 -0.28363273
v -0.02382568 -0.17358468 -0.28316069
v -0.02036046 -0.17365381 -0.28370088
v -0.02536349 -0.17462076 -0.28467789
v -0.03597230 -0.17404868 -0.28228024
v -0.03349561 -0.19046213 -0.34079140
v -0.04502557 -0.18989028 -0.33706808
v -0.02859302 -0.18989202 -0.33488652
v -0.04641701 -0.19021122 -0.34072027
v -0.03922160 -0.18941492 -0.32826364
v -0.04871864 -0.18959498 -0.33107540
v -0.03218114 -0.18942112 -0.32732251
v -0.02366700 -0.19039014 -0.34082198
v -0.01729450 -0.18934724 -0.32907361
v -0.01892892 -0.18969400 -0.33538684
v -0.01717182 -0.19004478 -0.34076172
v -0.01449437 -0.18939245 -0.33253288
v -0.01266830 -0.18955553 -0.33990145
v -0.01215968 -0.18885799 -0.32590097
v -0.05405581 -0.18989047 -0.34058997
v -0.06265943 -0.18978158 -0.33921954
v -0.05730889 -0.19017528 -0.34472981
v -0.04767865 -0.18944444 -0.32426322
v -0.06960390 -0.18977420 -0.34489885
v -0.06624281 -0.18976015 -0.33061501
v -0.06626139 -0.18972595 -0.32392403
v -0.06190291 -0.18962084 -0.32073805
v -0.07032416 -0.18981251 -0.33512047
v -0.06617852 -0.18946876 -0.31754366
v -0.07025822 -0.18955119 -0.32544303
v -0.06463075 -0.18946022 -0.31420705
v -0.05544786 -0.18959329 -0.31874067
v -0.03668743 -0.18938649 -0.31295002
v -0.04443630 -0.18946390 -0.30730030
v -0.03445040 -0.18937077 -0.30378720
v -0.04555916 -0.18948458 -0.29460108
v -0.03591043 -0.18930462 -0.29355898
v -0.05347792 -0.18967240 -0.30196628
v -0.05379003 -0.18969208 -0.30613506
v -0.05794071 -0.18967350 -0.31134030
v -0.02180173 -0.18933173 -0.31810379
v -0.03242468 -0.18935755 -0.31692621
v -0.05058649 -0.18945841 -0.29505610
v -0.05448032 -0.18951581 -0.29827148
v -0.05818371 -0.18972504 -0.30583724
v -0.02885841 -0.18912949 -0.31107467
v -0.02800219 -0.18906924 -0.29903528
v -0.02169310 -0.18887255 -0.30662668
v -0.02781216 -0.18905924 -0.29317749
v -0.02253718 -0.18897824 -0.31037074
v -0.04124154 -0.18942145 -0.29296705
v -0.03916407 -0.18940715 -0.29106975
v -0.04256552 -0.18936712 -0.29196811
v -0.05823621 -0.18953042 -0.30139670
v -0.06173837 -0.18953699 -0.30992728
v -0.03204022 -0.18897973 -0.28911871
v -0.03718865 -0.18909205 -0.28949100
v -0.01643359 -0.18858828 -0.30978310
v -0.01679498 -0.18881856 -0.31402025
v -0.01694995 -0.18907076 -0.32032931
v -0.02026244 -0.18867356 -0.30172482
v -0.02400899 -0.18879592 -0.29739857
v -0.02372105 -0.18863237 -0.29305369
v -0.07313456 -0.18959758 -0.34092546
v -0.07317105 -0.18962479 -0.33674034
v -0.07296407 -0.18952447 -0.34516835
v -0.01614491 -0.18832107 -0.30554613
v -0.01993001 -0.18840407 -0.29716694
v -0.06735412 -0.19022265 -0.34975034
v -0.05983764 -0.19072296 -0.34965983
v -0.07412317 -0.18958135 -0.34899747
v -0.01221539 -0.18862805 -0.32161146
v -0.00798561 -0.18884857 -0.33656666
v -0.00824719 -0.18929750 -0.34207323
v -0.02772630 -0.18862978 -0.28910831
v -0.00779764 -0.18856558 -0.33261934
v -0.01213675 -0.18833008 -0.31763652
v -0.04632278 -0.18917133 -0.29252934
v -0.02333794 -0.19092909 -0.34471482
v -0.01390028 -0.19036236 -0.34454775
v -0.03064919 -0.19112468 -0.34465706
v -0.03811095 -0.19113310 -0.34457320
v -0.05286120 -0.19049846 -0.34469122
v -0.04705112 -0.19089110 -0.34458211
v -0.00790396 -0.18814786 -0.32504335
v -0.01202138 -0.18799689 -0.31352654
v -0.00832857 -0.18971601 -0.34462979
v -0.00380684 -0.18932559 -0.34606063
v -0.00396780 -0.18817209 -0.33708370
v -0.00152146 -0.18866782 -0.34052438
v -0.00217059 -0.18933898 -0.34680223
v -0.00135748 -0.18794312 -0.33309373
v -0.01973228 -0.18768530 -0.29301226
v -0.05047444 -0.18863839 -0.29326040
v -0.00788081 -0.18759528 -0.32123220
v -0.07397964 -0.19035672 -0.35337466
v -0.06857772 -0.19055036 -0.35325283
v -0.06056170 -0.19135404 -0.35290718
v -0.01593547 -0.18784070 -0.30124030
v -0.00391159 -0.18752615 -0.33254600
v -0.01312322 -0.19123115 -0.34859115
v -0.02794443 -0.19192983 -0.34833348
v -0.00813151 -0.19064991 -0.34849864
v -0.07487810 -0.18900922 -0.34327722
v -0.07598944 -0.18931140 -0.34815550
v -0.07617602 -0.18839656 -0.33968222
v -0.07503203 -0.18795621 -0.33658931
v -0.03472707 -0.19220234 -0.34829131
v -0.01155213 -0.18699172 -0.30896175
v -0.00358406 -0.18666586 -0.32857463
v -0.05090117 -0.19162995 -0.34871927
v -0.04331765 -0.19216831 -0.34861460
v -0.00147765 -0.18704447 -0.32878232
v -0.04130760 -0.18858729 -0.28947654
v -0.00387485 -0.18996593 -0.34822240
v -0.01559380 -0.18679142 -0.29705626
v -0.02298688 -0.19271131 -0.35166880
v -0.03044270 -0.19291443 -0.35092604
v -0.03922822 -0.19300839 -0.35073927
v -0.04851021 -0.19267595 -0.35124904
v -0.05490392 -0.19234461 -0.35250741
v -0.00765386 -0.18663320 -0.31748027
v -0.01232860 -0.18675762 -0.30503377
v -0.02371878 -0.18766123 -0.28909719
v -0.01628086 -0.19251136 -0.35189471
v -0.01212688 -0.19233745 -0.35192788
v -0.07652947 -0.19151334 -0.35556424
v -0.07636599 -0.19036341 -0.34980914
v -0.07274814 -0.19130093 -0.35560781
v -0.00425367 -0.18661918 -0.32482594
v -0.00863015 -0.18647990 -0.31335911
v -0.00476496 -0.19171478 -0.35174182
v -0.01293548 -0.18632787 -0.30095899
v -0.01676705 -0.18629192 -0.29299587
v -0.00479813 -0.18617791 -0.32110238
v -0.02002212 -0.18614507 -0.28920406
v -0.06545921 -0.19173418 -0.35514110
v -0.06021233 -0.19220467 -0.35461459
v -0.00920672 -0.18605369 -0.31013846
v -0.00191583 -0.19169413 -0.35118514
v -0.00178541 -0.19046511 -0.34824261
v -0.00539289 -0.18572311 -0.31883058
v -0.01339741 -0.18586197 -0.29837066
v -0.01744099 -0.18568891 -0.29058257
v -0.00192337 -0.18521315 -0.32707581
v -0.05412823 -0.19331896 -0.35354033
v -0.02402470 -0.18575549 -0.28657371
v -0.02169755 -0.18535987 -0.28696683
v -0.01412755 -0.18230568 -0.29583254
v -0.01676705 -0.18629192 -0.29299587
v -0.01541491 -0.18252072 -0.29298291
v -0.01559380 -0.18679142 -0.29705626
v -0.01702255 -0.18280964 -0.29003218
v -0.01744099 -0.18568891 -0.29058257
v -0.01449059 -0.17773081 -0.29313326
v -0.01387347 -0.17845778 -0.29535729
v -0.01307462 -0.18223621 -0.29780805
v -0.01339741 -0.18586197 -0.29837066
v -0.01659600 -0.17823248 -0.28959569
v -0.01421444 -0.17595749 -0.29195839
v -0.01603636 -0.17569625 -0.28887758
v -0.01326001 -0.17655957 -0.29454383
v -0.01238628 -0.17760685 -0.29676992
v -0.01045944 -0.17772429 -0.30055091
v -0.01174809 -0.18218116 -0.30086315
v -0.01293548 -0.18632787 -0.30095899
v -0.01035041 -0.18230473 -0.30490214
v -0.01004030 -0.17840643 -0.30359995
v -0.00939138 -0.18024020 -0.30629313
v -0.00989801 -0.18463694 -0.30715033
v -0.00870104 -0.18258791 -0.30875942
v -0.00920672 -0.18605369 -0.31013846
v -0.00700962 -0.18300344 -0.31316042
v -0.00584266 -0.18084578 -0.31479245
v -0.00610735 -0.18326335 -0.31583804
v -0.00692324 -0.17885692 -0.30900666
v -0.00863015 -0.18647990 -0.31335911
v -0.01232860 -0.18675762 -0.30503377
v -0.00765386 -0.18663320 -0.31748027
v -0.00404552 -0.18300231 -0.31794661
v -0.01813010 -0.17613451 -0.28747049
v -0.01892176 -0.18298483 -0.28807467
v -0.02002212 -0.18614507 -0.28920406
v -0.00539289 -0.18572311 -0.31883058
v -0.00479813 -0.18617791 -0.32110238
v -0.00807791 -0.17808954 -0.30505669
v -0.00285847 -0.18400010 -0.32103255
v -0.00192337 -0.18521315 -0.32707581
v -0.01155213 -0.18699172 -0.30896175
v -0.01038194 -0.17641604 -0.29751337
v -0.00425367 -0.18661918 -0.32482594
v -0.02130127 -0.18298674 -0.28663245
v -0.02169755 -0.18535987 -0.28696683
v -0.01817659 -0.17466196 -0.28524595
v -0.02093437 -0.17848167 -0.28639629
v -0.02082145 -0.17505540 -0.28559101
v -0.00810903 -0.17720127 -0.30190393
v -0.00224167 -0.18125430 -0.31669024
v -0.02451990 -0.18270037 -0.28561789
v -0.02402470 -0.18575549 -0.28657371
v -0.01219445 -0.17589848 -0.29321721
v -0.02485662 -0.17819080 -0.28528944
v -0.02536349 -0.17462076 -0.28467789
v -0.02647037 -0.17354858 -0.28363273
v -0.02869286 -0.18238442 -0.28493372
v -0.02805672 -0.18630435 -0.28616199
v -0.00181674 -0.18400687 -0.32154974
v -0.02036046 -0.17365381 -0.28370088
v -0.00201853 -0.18298773 -0.31798628
v -0.02930044 -0.17777827 -0.28480375
v -0.02972216 -0.17433864 -0.28442967
v -0.01329277 -0.17553580 -0.28926367
v -0.00400916 -0.18052116 -0.31361568
v -0.00494235 -0.17928432 -0.30973181
v -0.00201853 -0.18298773 -0.31798628
v -0.00256331 -0.18645626 -0.31537220
v -0.00193856 -0.18955904 -0.31900948
v -0.00231897 -0.19071676 -0.31732729
v -0.00239679 -0.18113549 -0.31522587
v -0.00141897 -0.18976443 -0.32324672
v -0.00224167 -0.18125430 -0.31669024
v -0.00181674 -0.18400687 -0.32154974
v -0.00100330 -0.18966243 -0.32792717
v -0.00308419 -0.18312214 -0.31316668
v -0.00375031 -0.18733758 -0.31196991
v -0.00393499 -0.18287672 -0.31072688
v -0.00510408 -0.18256879 -0.30665484
v -0.00516165 -0.18734543 -0.30732957
v -0.00660274 -0.18724218 -0.30314639
v -0.00638245 -0.18232125 -0.30234477
v -0.00657005 -0.17809169 -0.30173084
v -0.00561127 -0.17863798 -0.30576944
v -0.00828213 -0.18250811 -0.29759562
v -0.00827268 -0.17728311 -0.29676449
v -0.00953359 -0.17785293 -0.29357690
v -0.00943581 -0.18277469 -0.29483965
v -0.00883933 -0.18688583 -0.29771328
v -0.00553104 -0.18998766 -0.30785063
v -0.00334372 -0.19005291 -0.31439480
v -0.00716265 -0.17711820 -0.30018383
v -0.00783259 -0.18952788 -0.30171508
v -0.01166189 -0.18164778 -0.29031441
v -0.01136092 -0.17820716 -0.28972822
v -0.01015244 -0.18637238 -0.29481280
v -0.01166388 -0.17654292 -0.28941730
v -0.01003371 -0.17643949 -0.29321602
v -0.01236723 -0.18548164 -0.29089469
v -0.01296610 -0.17704707 -0.28718755
v -0.01324296 -0.18348597 -0.28866014
v -0.00494235 -0.17928432 -0.30973181
v -0.00400916 -0.18052116 -0.31361568
v -0.01243927 -0.18769956 -0.29248831
v -0.01366656 -0.18585233 -0.28950080
v -0.00691076 -0.19046463 -0.30528679
v -0.00147765 -0.18704447 -0.32878232
v -0.00079452 -0.18962127 -0.33543208
v -0.01139205 -0.18902218 -0.29563299
v -0.01489438 -0.17858465 -0.28590232
v -0.00149816 -0.19044197 -0.32842675
v -0.00151695 -0.19049372 -0.33181390
v -0.00148601 -0.19083895 -0.33939883
v -0.00094681 -0.18975918 -0.34075850
v -0.00162392 -0.19150338 -0.34488928
v -0.00178541 -0.19046511 -0.34824261
v -0.00194128 -0.19259308 -0.35117185
v -0.00191583 -0.19169413 -0.35118514
v -0.00192337 -0.18521315 -0.32707581
v -0.00135748 -0.18794312 -0.33309373
v -0.00152146 -0.18866782 -0.34052438
v -0.00217059 -0.18933898 -0.34680223
v -0.00587326 -0.19076116 -0.30918425
v -0.01497966 -0.17615475 -0.28602755
v -0.01684108 -0.17665391 -0.28414351
v -0.01926259 -0.17521417 -0.28357852
v -0.00889786 -0.17675930 -0.29704344
v -0.01329277 -0.17553580 -0.28926367
v -0.01817659 -0.17466196 -0.28524595
v -0.02036046 -0.17365381 -0.28370088
v -0.01219445 -0.17589848 -0.29321721
v -0.00810903 -0.17720127 -0.30190393
v -0.01603636 -0.17569625 -0.28887758
v -0.01038194 -0.17641604 -0.29751337
v -0.01194690 -0.19411817 -0.35254189
v -0.01267693 -0.19365141 -0.34874430
v -0.01170812 -0.19714287 -0.35263401
v -0.01170812 -0.19714287 -0.35263401
v -0.01267693 -0.19365141 -0.34874430
v -0.01407606 -0.19610210 -0.35060042
v -0.01701175 -0.19558357 -0.34905142
v -0.01678426 -0.19361380 -0.34724578
v -0.02191039 -0.19380780 -0.34514400
v -0.02079855 -0.19626972 -0.34912881
v -0.02770816 -0.19667883 -0.34905249
v -0.02807849 -0.19441348 -0.34509155
v -0.03322325 -0.19448702 -0.34535345
v -0.03380841 -0.19671570 -0.34924892
v -0.04052002 -0.19647615 -0.34958383
v -0.04064780 -0.19397180 -0.34535655
v -0.04474750 -0.19383870 -0.34650293
v -0.04476758 -0.19622511 -0.34978119
v -0.04785868 -0.19362316 -0.34725231
v -0.04900935 -0.19546898 -0.34963965
v -0.05053570 -0.19340649 -0.34794933
v -0.05330358 -0.19629577 -0.35133326
v -0.05658291 -0.19333704 -0.34952807
v -0.05674100 -0.19484650 -0.35183322
v -0.04229869 -0.20002341 -0.35224536
v -0.03463145 -0.20028171 -0.35196897
v -0.02846404 -0.20027027 -0.35152936
v -0.01708947 -0.20033455 -0.35218099
v -0.04926054 -0.20041417 -0.35291424
v -0.05666531 -0.19749068 -0.35306323
v -0.01529473 -0.19902645 -0.35187280
v -0.05883334 -0.19382459 -0.35230383
v -0.03823287 -0.20834133 -0.35380435
v -0.02887316 -0.20538357 -0.35343143
v -0.04733762 -0.20196557 -0.35329565
v -0.04358264 -0.20922109 -0.35391524
v -0.04889959 -0.20399480 -0.35351244
v -0.03101254 -0.21064736 -0.35390690
v -0.03228754 -0.20874141 -0.35375488
v -0.05285187 -0.20973828 -0.35398310
v -0.05595658 -0.20508429 -0.35363898
v -0.05127054 -0.20140022 -0.35338119
v -0.04494048 -0.21146023 -0.35419327
v -0.05810328 -0.20873892 -0.35409325
v -0.02109251 -0.20486629 -0.35341516
v -0.02265478 -0.21044126 -0.35402423
v -0.02123266 -0.20853892 -0.35381442
v -0.05172618 -0.21181765 -0.35427296
v -0.05989583 -0.20197459 -0.35370019
v -0.06050260 -0.19704087 -0.35318753
v -0.01744413 -0.20428683 -0.35360041
v -0.03526458 -0.20269910 -0.35311684
v -0.01825399 -0.20260704 -0.35312280
v -0.02873656 -0.20369014 -0.35293087
v -0.06503320 -0.19596027 -0.35365802
v -0.01874395 -0.20821303 -0.35418850
v -0.06482626 -0.19395065 -0.35284513
v -0.06788330 -0.19487880 -0.35392606
v -0.05246723 -0.21077670 -0.35444465
v -0.04358280 -0.21007253 -0.35434571
v -0.03762663 -0.20931494 -0.35430774
v -0.03241409 -0.20966852 -0.35423914
v -0.01508684 -0.20364161 -0.35419735
v -0.01353320 -0.20082578 -0.35325617
v -0.00923363 -0.19922480 -0.35379201
v -0.00960392 -0.20002384 -0.35388109
v -0.06124913 -0.19830313 -0.35418928
v -0.01711759 -0.20544393 -0.35447139
v -0.06954521 -0.19377635 -0.35322580
v -0.02091630 -0.20926160 -0.35446593
v -0.05978252 -0.20428288 -0.35419673
v -0.06524760 -0.19623046 -0.35403925
v -0.01289947 -0.20156506 -0.35425818
v -0.00805168 -0.19328617 -0.35192403
v -0.00476496 -0.19171478 -0.35174182
v -0.00400036 -0.19301209 -0.35175315
v -0.01212688 -0.19233745 -0.35192788
v -0.00191583 -0.19169413 -0.35118514
v -0.01194690 -0.19411817 -0.35254189
v -0.01628086 -0.19251136 -0.35189471
v -0.00194128 -0.19259308 -0.35117185
v -0.01602922 -0.19400421 -0.35348111
v -0.02298688 -0.19271131 -0.35166880
v -0.02172484 -0.19423339 -0.35336646
v -0.03044270 -0.19291443 -0.35092604
v -0.04664861 -0.20673645 -0.35451481
v -0.05363892 -0.20260181 -0.35437840
v -0.03723729 -0.19979194 -0.35390267
v -0.03452241 -0.20638821 -0.35445797
v -0.04719476 -0.19894074 -0.35385475
v -0.03227815 -0.19938748 -0.35394794
v -0.05388692 -0.19810911 -0.35409370
v -0.05799100 -0.20129552 -0.35436895
v -0.05650477 -0.20649150 -0.35453522
v -0.05268002 -0.19517969 -0.35375565
v -0.02485108 -0.20654854 -0.35491085
v -0.02395653 -0.19896790 -0.35438022
v -0.01947206 -0.19946137 -0.35467157
v -0.02021699 -0.20633288 -0.35493061
v -0.01640442 -0.20232481 -0.35465002
v -0.01597916 -0.19846715 -0.35446152
v -0.02629297 -0.19613585 -0.35391158
v -0.01997814 -0.19571799 -0.35415283
v -0.05246723 -0.21077670 -0.35444465
v -0.05724176 -0.19388856 -0.35423648
v -0.06124913 -0.19830313 -0.35418928
v -0.05978252 -0.20428288 -0.35419673
v -0.04358280 -0.21007253 -0.35434571
v -0.03762663 -0.20931494 -0.35430774
v -0.03241409 -0.20966852 -0.35423914
v -0.02514593 -0.20936555 -0.35461628
v -0.01289947 -0.20156506 -0.35425818
v -0.01217329 -0.19811940 -0.35398874
v -0.00923363 -0.19922480 -0.35379201
v -0.00960392 -0.20002384 -0.35388109
v -0.01593761 -0.19562747 -0.35401213
v -0.01327877 -0.19570524 -0.35381663
v -0.02091630 -0.20926160 -0.35446593
v -0.04494048 -0.21146023 -0.35419327
v -0.04659998 -0.19684942 -0.35340342
v -0.03824898 -0.19738717 -0.35329351
v -0.03178158 -0.19713041 -0.35347947
v -0.05810328 -0.20873892 -0.35409325
v -0.05172618 -0.21181765 -0.35427296
v -0.01711759 -0.20544393 -0.35447139
v -0.06112361 -0.19398595 -0.35482746
v -0.06021233 -0.19220467 -0.35461459
v -0.06548038 -0.19373550 -0.35503900
v -0.06545921 -0.19173418 -0.35514110
v -0.06961261 -0.19348346 -0.35495466
v -0.06524760 -0.19623046 -0.35403925
v -0.05412823 -0.19331896 -0.35354033
v -0.07274814 -0.19130093 -0.35560781
v -0.07632504 -0.19205840 -0.35561448
v -0.07652947 -0.19151334 -0.35556424
v -0.01508684 -0.20364161 -0.35419735
v -0.04956043 -0.19468078 -0.35296077
v -0.01874395 -0.20821303 -0.35418850
v -0.03101254 -0.21064736 -0.35390690
v -0.04520697 -0.19447586 -0.35220453
v -0.03869079 -0.19454329 -0.35182685
v -0.03087618 -0.19474584 -0.35232410
v -0.02265478 -0.21044126 -0.35402423
v -0.06788330 -0.19487880 -0.35392606
v -0.04851021 -0.19267595 -0.35124904
v -0.03922822 -0.19300839 -0.35073927
v -0.01170812 -0.19714287 -0.35263401
v -0.00494235 -0.17928432 -0.30973181
v -0.00807791 -0.17808954 -0.30505669
v -0.00561127 -0.17863798 -0.30576944
v -0.00692324 -0.17885692 -0.30900666
v -0.00810903 -0.17720127 -0.30190393
v -0.01603636 -0.17569625 -0.28887758
v -0.01497966 -0.17615475 -0.28602755
v -0.01329277 -0.17553580 -0.28926367
v -0.00810903 -0.17720127 -0.30190393
v -0.01038194 -0.17641604 -0.29751337
v -0.00716265 -0.17711820 -0.30018383
v -0.00889786 -0.17675930 -0.29704344
vt 0.85701305 0.26534316
vt 0.79273260 0.26669741
vt 0.78500277 0.31235394
vt 0.83145398 0.19511807
vt 0.77528065 0.19684416
vt 0.93225521 0.36785737
vt 0.89181942 0.34522158
vt 0.88116717 0.41788101
vt 0.84177464 0.35799962
vt 0.75574750 0.30520153
vt 0.70158803 0.22293594
vt 0.77382529 0.37065041
vt 0.80508351 0.42654061
vt 0.73106098 0.41113970
vt 0.68302810 0.26610434
vt 0.70465106 0.35601759
vt 0.67697603 0.31951037
vt 0.72560567 0.38572907
vt 0.92970073 0.41190916
vt 0.64502537 0.35794246
vt 0.64193517 0.33000657
vt 0.61684221 0.30226690
vt 0.61058211 0.33034754
vt 0.85240912 0.46704403
vt 0.92541522 0.47116226
vt 0.75713658 0.43805003
vt 0.79177147 0.45939222
vt 0.67114174 0.38378257
vt 0.59186006 0.21018998
vt 0.56401676 0.25449809
vt 0.66109020 0.21040247
vt 0.75907886 0.09018563
vt 0.70235527 0.17982769
vt 0.70190614 0.07651024
vt 0.81301123 0.11527364
vt 0.85467112 0.12548256
vt 0.63891733 0.13370307
vt 0.63024789 0.06590548
vt 0.58265108 0.12113731
vt 0.59248465 0.09165245
vt 0.58602041 0.32562190
vt 0.55741346 0.27186018
vt 0.58176804 0.30225188
vt 0.55673724 0.16963924
vt 0.53546125 0.21550983
vt 0.53584075 0.18057664
vt 0.56354511 0.12133802
vt 0.67302155 0.03167703
vt 0.80915004 0.08145706
vt 0.85741723 0.08839482
vt 0.86318564 0.19303691
vt 0.70009953 0.02616400
vt 0.74463868 0.01700734
vt 0.61421317 0.35330647
vt 0.64342916 0.37947032
vt 0.77637309 0.03087011
vt 0.75696731 0.00565768
vt 0.89694893 0.30590838
vt 0.95291120 0.32209805
vt 0.95896941 0.44610512
vt 0.92000425 0.17746872
vt 0.91784829 0.21317948
vt 0.93044406 0.28213695
vt 0.93986261 0.12450371
vt 0.90979064 0.08789138
vt 0.95715380 0.47277841
vt 0.52762341 0.21805017
vt 0.96183926 0.36108419
vt 0.96214002 0.41238418
vt 0.83313268 0.00308642
vt 0.69957840 0.40885592
vt 0.94846451 0.02539088
vt 0.56221008 0.29525128
vt 0.85629779 0.00406470
vt 0.88977778 0.02109276
vt 0.53891397 0.14427361
vt 0.98177928 0.47408009
vt 0.91404784 0.02233145
vt 0.97025263 0.08092368
vt 0.95862848 0.10661502
vt 0.90820587 0.00576741
vt 0.97157007 0.05332853
vt 0.99668872 0.07750532
vt 0.97241563 0.02596135
vt 0.99307370 0.02607417
vt 0.99338317 0.05198747
vt 0.92801148 0.48636341
vt 0.98257589 0.49074075
vt 0.86445415 0.48203418
vt 0.72669578 0.43198371
vt 0.61742836 0.05762336
vt 0.52649009 0.18933168
vt 0.98054153 0.37609836
vt 0.94287616 0.13874087
vt 0.94130421 0.17814274
vt 0.98937744 0.01254541
vt 0.70037222 0.42726061
vt 0.56960869 0.09565442
vt 0.94154578 0.21086015
vt 0.93878770 0.25817806
vt 0.94520772 0.28464809
vt 0.94918275 0.30474660
vt 0.55777395 0.11078157
vt 0.81755894 0.47520149
vt 0.53062236 0.16241093
vt 0.99668872 0.49003983
vt 0.98424041 0.44448358
vt 0.98298395 0.41437051
vt 0.67301118 0.40426707
vt 0.99608868 0.44620076
vt 0.64923590 0.39851004
vt 0.73314857 0.44691655
vt 0.94596893 0.00808985
vt 0.66839546 0.41444057
vt 0.53193074 0.24822682
vt 0.76426309 0.46223029
vt 0.73601407 0.01013082
vt 0.62890440 0.38481358
vt 0.59584320 0.35225421
vt 0.60424024 0.05630046
vt 0.64722866 0.03538942
vt 0.57801980 0.33428729
vt 0.98940170 0.43193060
vt 0.58002573 0.05985984
vt 0.68635881 0.43432680
vt 0.55249220 0.29833487
vt 0.55075389 0.08133903
vt 0.55464059 0.06278926
vt 0.60315490 0.78442532
vt 0.58738840 0.75806189
vt 0.61535960 0.74411112
vt 0.65519094 0.78407478
vt 0.58025742 0.72757381
vt 0.63776779 0.73533934
vt 0.60408562 0.70694405
vt 0.57693672 0.70292062
vt 0.55328912 0.70806044
vt 0.63768691 0.70431393
vt 0.66759491 0.71091586
vt 0.71591461 0.78425521
vt 0.69633597 0.70487374
vt 0.72394949 0.75702393
vt 0.75787389 0.76779503
vt 0.73637730 0.73308235
vt 0.76497328 0.71583879
vt 0.74242121 0.71523720
vt 0.72088736 0.70911932
vt 0.77969348 0.76497316
vt 0.77490109 0.72915137
vt 0.77607691 0.79757315
vt 0.72152466 0.79768455
vt 0.66292971 0.79503483
vt 0.70319164 0.69444442
vt 0.55919963 0.75508928
vt 0.80847758 0.79762852
vt 0.53744555 0.72536492
vt 0.56102282 0.77928829
vt 0.61345857 0.79386485
vt 0.79743057 0.73894227
vt 0.74586165 0.80472261
vt 0.59522527 0.69892353
vt 0.57736558 0.69512451
vt 0.53507847 0.70391679
vt 0.51464099 0.69837904
vt 0.65655553 0.70188999
vt 0.63818979 0.69515735
vt 0.62091005 0.69825035
vt 0.52715445 0.75110358
vt 0.56564260 0.78846186
vt 0.57538742 0.79570609
vt 0.56021923 0.69905806
vt 0.80097377 0.80842346
vt 0.82722807 0.77834404
vt 0.81032664 0.74746239
vt 0.84316784 0.79969460
vt 0.84887755 0.80937278
vt 0.52451140 0.78103733
vt 0.89811957 0.80055070
vt 0.91333008 0.80980748
vt 0.94276077 0.80038422
vt 0.96898603 0.81172842
vt 0.87245673 0.78764659
vt 0.98289740 0.80759901
vt 0.68470335 0.70237720
vt 0.49646917 0.72896087
vt 0.49720871 0.75233233
vt 0.71048677 0.80587023
vt 0.49337748 0.77557570
vt 0.93131250 0.79297942
vt 0.98344374 0.81140947
vt 0.58505863 0.80634582
vt 0.63612169 0.80289489
vt 0.61040980 0.80632460
vt 0.51087850 0.81140953
vt 0.53688079 0.81026602
vt 0.04481199 0.95703334
vt 0.05234519 0.93454468
vt 0.07846283 0.93199658
vt 0.03750589 0.94541317
vt 0.09508447 0.94955003
vt 0.08292721 0.97260046
vt 0.12061183 0.97308689
vt 0.11390572 0.98846436
vt 0.12305631 0.94988239
vt 0.09240737 0.99128711
vt 0.14397591 0.97211248
vt 0.14401813 0.98856127
vt 0.14549468 0.94955969
vt 0.10213199 0.93034947
vt 0.02576782 0.97880119
vt 0.05183892 0.99691355
vt 0.00595721 0.97307456
vt 0.05181581 0.91544569
vt 0.03285463 0.90606093
vt 0.07800653 0.91191995
vt 0.00331126 0.95675629
vt 0.01700067 0.92127216
vt 0.10202116 0.90867859
vt 0.13846989 0.92940038
vt 0.16742563 0.97174221
vt 0.17582598 0.98902357
vt 0.16749288 0.94942528
vt 0.12622963 0.90538478
vt 0.04959859 0.89543432
vt 0.16996993 0.92698669
vt 0.07443681 0.89217979
vt 0.15041544 0.90286779
vt 0.19170670 0.94980472
vt 0.19288169 0.97189701
vt 0.20941417 0.98841792
vt 0.17277034 0.90139687
vt 0.11119719 0.88899869
vt 0.19329602 0.92718536
vt 0.22558467 0.98011553
vt 0.22378381 0.95170057
vt 0.21860807 0.92817789
vt 0.20199132 0.88436627
vt 0.16532239 0.88421935
vt 0.23887366 0.96892256
vt 0.22088553 0.90175307
vt 0.22491702 0.88479561
vt 0.24260014 0.88158011
vt 0.26060709 0.90433311
vt 0.25897872 0.93820173
vt 0.26074702 0.95251286
vt 0.27974328 0.88929099
vt 0.26807281 0.99132681
vt 0.29214448 0.97429103
vt 0.30624187 0.95938373
vt 0.31450397 0.93724430
vt 0.31763932 0.91432762
vt 0.30647194 0.88469291
vt 0.26721388 0.88435173
vt 0.19694537 0.87962961
vt 0.33615854 0.97077847
vt 0.31452808 0.99691355
vt 0.32446238 0.89174080
vt 0.34105960 0.88699961
vt 0.08128987 0.88266784
vt 0.05643303 0.88459927
vt 0.13568306 0.21663763
vt 0.12873752 0.19025072
vt 0.15091734 0.21214281
vt 0.16570468 0.19167432
vt 0.15465716 0.16087845
vt 0.10483700 0.22220294
vt 0.12954047 0.23510100
vt 0.09483571 0.23893347
vt 0.16883658 0.17495310
vt 0.11472751 0.15337133
vt 0.13281442 0.13421766
vt 0.09426415 0.13969943
vt 0.09214652 0.18045226
vt 0.08610725 0.15607892
vt 0.07064499 0.21782190
vt 0.05737623 0.19100328
vt 0.06033688 0.23564009
vt 0.05394923 0.21027257
vt 0.03458903 0.22372210
vt 0.01454144 0.23331746
vt 0.04755679 0.25752881
vt 0.02813344 0.26883718
vt 0.06139406 0.28992438
vt 0.07266615 0.27187344
vt 0.10181600 0.26312706
vt 0.05305193 0.30370155
vt 0.01462651 0.31067333
vt 0.06798083 0.31334409
vt 0.07021481 0.16814663
vt 0.00331126 0.29889706
vt 0.01411921 0.27912012
vt 0.03616334 0.33726811
vt 0.01528607 0.35354561
vt 0.01863950 0.25702471
vt 0.06812740 0.33219305
vt 0.11071373 0.12088479
vt 0.09929331 0.28496408
vt 0.08402425 0.30692419
vt 0.17435710 0.14702573
vt 0.05837206 0.35273311
vt 0.18752871 0.17170915
vt 0.19497478 0.15411417
vt 0.16062960 0.11338037
vt 0.13024002 0.11033149
vt 0.14436710 0.09436944
vt 0.04477757 0.37833083
vt 0.12203714 0.25816345
vt 0.19684950 0.12828641
vt 0.16599365 0.08820174
vt 0.07706464 0.34633556
vt 0.08155854 0.32821926
vt 0.05350107 0.17734110
vt 0.04709815 0.19697881
vt 0.10884824 0.29787040
vt 0.18111929 0.18869661
vt 0.17371844 0.20480137
vt 0.16804390 0.21967246
vt 0.19246955 0.09279153
vt 0.21037582 0.11978679
vt 0.17764634 0.07389478
vt 0.22096197 0.13434571
vt 0.21248379 0.14868432
vt 0.01030080 0.31423727
vt 0.10366998 0.31075546
vt 0.01130453 0.33845133
vt 0.06744698 0.38118112
vt 0.11599124 0.28121477
vt 0.09298392 0.12831289
vt 0.21087982 0.05991589
vt 0.22959799 0.07363787
vt 0.24525505 0.10116412
vt 0.23704602 0.13200489
vt 0.14649852 0.24075301
vt 0.21176414 0.04950944
vt 0.14174573 0.25520146
vt 0.19886924 0.18426196
vt 0.21297041 0.16963498
vt 0.08282261 0.14482373
vt 0.26314139 0.12586471
vt 0.27129298 0.11108673
vt 0.03679851 0.38215834
vt 0.17321026 0.06518685
vt 0.15916257 0.07970771
vt 0.14141169 0.08361010
vt 0.26838049 0.09306044
vt 0.24579093 0.06633160
vt 0.23679900 0.04702238
vt 0.26868230 0.03495983
vt 0.27483544 0.05596840
vt 0.26720038 0.02617537
vt 0.31505167 0.07919636
vt 0.29140419 0.10989606
vt 0.30294251 0.04933299
vt 0.32317296 0.10759474
vt 0.12696427 0.09980900
vt 0.30532455 0.02663191
vt 0.33338210 0.04564987
vt 0.34486142 0.07635660
vt 0.35329011 0.10534248
vt 0.36150575 0.02015785
vt 0.36823604 0.04380614
vt 0.38318604 0.10340897
vt 0.37665069 0.07518433
vt 0.23373334 0.03492611
vt 0.28013873 0.01854807
vt 0.38468921 0.00896948
vt 0.40401912 0.00308642
vt 0.43056074 0.00348317
vt 0.39464128 0.01832715
vt 0.31228894 0.00704901
vt 0.33393314 0.45295033
vt 0.25673330 0.42469051
vt 0.36959791 0.41693020
vt 0.24558781 0.44752440
vt 0.29994488 0.37097719
vt 0.23433910 0.38494468
vt 0.34792995 0.36761904
vt 0.40102819 0.45649356
vt 0.44855687 0.38338992
vt 0.43532687 0.42316225
vt 0.44546604 0.45805603
vt 0.46658334 0.40627947
vt 0.47666880 0.45379761
vt 0.48471180 0.36463487
vt 0.19311287 0.44316635
vt 0.13455838 0.43001693
vt 0.16862461 0.46837974
vt 0.24476983 0.34240940
vt 0.08283366 0.46320701
vt 0.11511859 0.37298229
vt 0.11934705 0.33064678
vt 0.15083723 0.31302819
vt 0.08395308 0.39915383
vt 0.12389308 0.29030538
vt 0.09147976 0.33769774
vt 0.13689420 0.27017823
vt 0.19555672 0.30429092
vt 0.32279038 0.27600214
vt 0.27368835 0.23885901
vt 0.33978161 0.21979056
vt 0.26938304 0.16281092
vt 0.33114797 0.15722345
vt 0.21769285 0.20429726
vt 0.21366468 0.22837417
vt 0.18356659 0.25721917
vt 0.42136365 0.31244195
vt 0.34994745 0.30204192
vt 0.23799318 0.16502823
vt 0.21319489 0.18253346
vt 0.18608032 0.22408473
vt 0.37561193 0.26624399
vt 0.38325986 0.19091101
vt 0.42490473 0.23957536
vt 0.38442996 0.15419506
vt 0.41844085 0.26319715
vt 0.29683653 0.15356538
vt 0.31002462 0.14248683
vt 0.28837901 0.14772514
vt 0.18895029 0.19846612
vt 0.15988298 0.24583203
vt 0.35576823 0.12956811
vt 0.32241628 0.13283233
vt 0.46023104 0.26071858
vt 0.45665964 0.28770685
vt 0.45374224 0.32785067
vt 0.43556309 0.20858274
vt 0.41037816 0.18068165
vt 0.41228527 0.15298326
vt 0.06026946 0.43516687
vt 0.06289005 0.40776038
vt 0.05886392 0.46324152
vt 0.46320859 0.23366645
vt 0.43836454 0.17938836
vt 0.09609117 0.49623922
vt 0.14866906 0.49939007
vt 0.04863647 0.48797065
vt 0.48579028 0.33727536
vt 0.50998694 0.43382168
vt 0.50622708 0.46886808
vt 0.38457263 0.12831144
vt 0.51274288 0.40861633
vt 0.48765433 0.31192008
vt 0.26480162 0.15061225
vt 0.40182704 0.48164245
vt 0.46639994 0.48337054
vt 0.35191125 0.47894314
vt 0.30090445 0.47584257
vt 0.19943433 0.47035542
vt 0.23960273 0.47240555
vt 0.51428938 0.36030659
vt 0.48982754 0.28576216
vt 0.50461274 0.48528379
vt 0.53495306 0.49548772
vt 0.53755242 0.43827534
vt 0.55253685 0.46117237
vt 0.54571843 0.50071728
vt 0.55719203 0.41457158
vt 0.44052407 0.15232112
vt 0.23863101 0.15385208
vt 0.51624024 0.33598557
vt 0.04795812 0.51729745
vt 0.08589112 0.51875806
vt 0.14223708 0.52057821
vt 0.46590146 0.20601915
vt 0.54032362 0.40921849
vt 0.46994817 0.50995523
vt 0.36896360 0.50383770
vt 0.50414771 0.51058614
vt 0.04593598 0.44969541
vt 0.03598988 0.48128769
vt 0.03751227 0.42545402
vt 0.04543247 0.40497360
vt 0.32264096 0.50168914
vt 0.49561769 0.25623763
vt 0.54557371 0.38334009
vt 0.21141100 0.49803787
vt 0.26373348 0.50077379
vt 0.55941439 0.38768658
vt 0.29602242 0.13243993
vt 0.53341758 0.50963086
vt 0.47043306 0.17831601
vt 0.40132648 0.52744371
vt 0.35084027 0.52051884
vt 0.29098922 0.51663882
vt 0.22714029 0.51629806
vt 0.18229078 0.52166522
vt 0.52042520 0.31161472
vt 0.49165350 0.23067422
vt 0.41272289 0.12673828
vt 0.44686672 0.53105807
vt 0.47501281 0.53264862
vt 0.02867135 0.53226817
vt 0.03196177 0.49365640
vt 0.05557539 0.53380126
vt 0.54117304 0.35936081
vt 0.51521051 0.28496924
vt 0.52504027 0.53382862
vt 0.48909724 0.20395637
vt 0.46345216 0.15111905
vt 0.53933179 0.33535030
vt 0.44086674 0.12518187
vt 0.10734414 0.53395063
vt 0.14437914 0.53304970
vt 0.51295382 0.26388580
vt 0.54459208 0.53226799
vt 0.54764277 0.51234692
vt 0.53705031 0.32025129
vt 0.48730361 0.18656658
vt 0.45979041 0.13415334
vt 0.55960268 0.37257144
vt 0.18792662 0.53074300
vt 0.41300035 0.10560787
vt 0.43013641 0.10825793
vt 0.53756630 0.88018358
vt 0.51164263 0.90740079
vt 0.51596272 0.88125205
vt 0.54019797 0.91255039
vt 0.49300310 0.88317162
vt 0.49483344 0.90266323
vt 0.51972020 0.84914088
vt 0.53515863 0.85449588
vt 0.55319083 0.87925005
vt 0.55615586 0.90353703
vt 0.49140587 0.85244894
vt 0.51361740 0.83632565
vt 0.48951852 0.83487213
vt 0.53201109 0.84090310
vt 0.54842746 0.84752059
vt 0.57776505 0.84775460
vt 0.57616282 0.87869930
vt 0.57381839 0.90712333
vt 0.60535061 0.87988293
vt 0.59779406 0.85424560
vt 0.61633950 0.86566353
vt 0.62140721 0.89516336
vt 0.63439578 0.88069332
vt 0.64244324 0.90446794
vt 0.66671306 0.88295984
vt 0.67897177 0.86831611
vt 0.68630189 0.88390630
vt 0.64012086 0.85390437
vt 0.66470987 0.90830863
vt 0.60150892 0.91189718
vt 0.69392979 0.91017836
vt 0.70631903 0.87709820
vt 0.47253114 0.83880877
vt 0.47456133 0.88499773
vt 0.47541717 0.90811437
vt 0.70905936 0.89868778
vt 0.72502416 0.90259874
vt 0.61241364 0.84747171
vt 0.73020881 0.88346112
vt 0.77152318 0.89747787
vt 0.62831938 0.91666669
vt 0.55916721 0.83520591
vt 0.75041491 0.90984362
vt 0.45582342 0.88717574
vt 0.45625377 0.90322781
vt 0.46383759 0.82342643
vt 0.45347986 0.85697889
vt 0.44882581 0.83353150
vt 0.59302163 0.83676493
vt 0.70410097 0.85819697
vt 0.43286619 0.88847822
vt 0.44085801 0.90832227
vt 0.52814150 0.82967186
vt 0.42527306 0.85940295
vt 0.41691715 0.83660907
vt 0.40653238 0.82974148
vt 0.40419441 0.89110649
vt 0.41439131 0.91666669
vt 0.73699456 0.87931478
vt 0.44602874 0.81790125
vt 0.71544397 0.86653847
vt 0.39470276 0.86187875
vt 0.38741723 0.84006625
vt 0.50186288 0.82139397
vt 0.67941809 0.85412031
vt 0.65198815 0.84533644
vt 0.26804784 0.64180619
vt 0.28031075 0.66712785
vt 0.25072712 0.68095124
vt 0.26041985 0.69068658
vt 0.28921872 0.63504446
vt 0.22180027 0.67596841
vt 0.27984145 0.63262057
vt 0.24251099 0.64270842
vt 0.19032499 0.66862500
vt 0.30080637 0.64982605
vt 0.30293122 0.67801338
vt 0.31861621 0.65222842
vt 0.34738964 0.65705377
vt 0.33520320 0.68544918
vt 0.36461747 0.69168437
vt 0.37755916 0.66259956
vt 0.38925534 0.63774121
vt 0.36077625 0.63453627
vt 0.41077110 0.67206782
vt 0.42528510 0.64170980
vt 0.44626179 0.65119588
vt 0.42973667 0.67858738
vt 0.40375388 0.69892687
vt 0.32823262 0.70137537
vt 0.28224251 0.69128835
vt 0.40200174 0.63487321
vt 0.37232873 0.70898223
vt 0.46419460 0.68021500
vt 0.47249153 0.66034383
vt 0.42539695 0.70102441
vt 0.47806746 0.65135086
vt 0.45235580 0.64371413
vt 0.45615700 0.70349282
vt 0.49314022 0.65846151
vt 0.47536039 0.69519418
vt 0.33312866 0.63163370
vt 0.30452791 0.63236338
vt 0.44311130 0.71569836
vt 0.46758634 0.70956844
vt 0.34633592 0.70956850
vt 0.18883619 0.65062386
vt 0.13899763 0.65747344
vt 0.41911295 0.71913582
vt 0.50509834 0.67123681
vt 0.18568201 0.67384839
vt 0.16221710 0.66967064
vt 0.10940266 0.66061407
vt 0.10200702 0.65067500
vt 0.06962169 0.65576398
vt 0.04766759 0.64361578
vt 0.02317881 0.65287441
vt 0.02465192 0.64695126
vt 0.20337506 0.64144152
vt 0.15788017 0.64963824
vt 0.10533252 0.64291221
vt 0.05952113 0.63745737
vt 0.31883791 0.70631784
vt 0.50926703 0.65602779
vt 0.52627146 0.66358811
vt 0.54452401 0.65558279
vt 0.42659667 0.63629967
vt 0.48760349 0.64351785
vt 0.53291982 0.64751393
vt 0.55298012 0.64588088
vt 0.46158230 0.63277704
vt 0.39227262 0.62678993
vt 0.50487560 0.63646007
vt 0.43003097 0.62654322
vt 0.70110899 0.99691355
vt 0.72516555 0.97839504
vt 0.68543047 0.97839504
vt 0.02449392 0.78929979
vt 0.03139744 0.75631231
vt 0.04142524 0.77569294
vt 0.06210987 0.76602411
vt 0.05963376 0.74888802
vt 0.09524379 0.73785633
vt 0.08865886 0.76847053
vt 0.13662574 0.76762182
vt 0.13747272 0.73787475
vt 0.17248376 0.73733670
vt 0.17887492 0.76603860
vt 0.22515541 0.76319498
vt 0.22283928 0.73148149
vt 0.25153235 0.73470026
vt 0.25440523 0.76069927
vt 0.27313203 0.73561162
vt 0.28324842 0.75405991
vt 0.29169869 0.73600602
vt 0.31459022 0.76217890
vt 0.33402959 0.73733944
vt 0.33927825 0.75421196
vt 0.23952325 0.79129463
vt 0.18664446 0.79488969
vt 0.14376895 0.79592657
vt 0.06504861 0.80316913
vt 0.28816605 0.79271615
vt 0.33962092 0.77325022
vt 0.05171026 0.79557294
vt 0.35436854 0.74910128
vt 0.21432778 0.84790707
vt 0.14890495 0.83152020
vt 0.27517161 0.80379045
vt 0.25124705 0.85212946
vt 0.28656140 0.81681430
vt 0.16576952 0.86490285
vt 0.17370017 0.85224366
vt 0.31490025 0.85357744
vt 0.33532822 0.82284307
vt 0.30257216 0.79934186
vt 0.26112288 0.86635602
vt 0.35060012 0.84626442
vt 0.09522541 0.83181238
vt 0.10864848 0.86728394
vt 0.09808096 0.85560024
vt 0.30746925 0.86728394
vt 0.36199456 0.80249137
vt 0.36617470 0.77037710
vt 0.06990014 0.83022857
vt 0.19209637 0.81205404
vt 0.07445176 0.81854391
vt 0.14723143 0.82002306
vt 0.39716071 0.76298851
vt 0.08089590 0.85499996
vt 0.39504582 0.74919409
vt 0.41667530 0.75628185
vt 0.31315029 0.86113948
vt 0.25118199 0.85828859
vt 0.21052812 0.85512751
vt 0.17529590 0.85884726
vt 0.05296108 0.82886404
vt 0.04068304 0.81091630
vt 0.00993378 0.80618805
vt 0.01331408 0.81072301
vt 0.37309191 0.77978045
vt 0.06707285 0.83935010
vt 0.42715231 0.74697822
vt 0.09549607 0.86169970
vt 0.36229399 0.81763101
vt 0.39917839 0.76564533
vt 0.03610709 0.81869650
vt 0.52939105 0.60867143
vt 0.50673723 0.61892152
vt 0.50156331 0.61025351
vt 0.55721438 0.61520511
vt 0.48675495 0.61912745
vt 0.55627674 0.60276341
vt 0.58544725 0.61473364
vt 0.48685628 0.61314017
vt 0.58408713 0.60063398
vt 0.63091403 0.61429292
vt 0.62197703 0.59974265
vt 0.68156594 0.61436921
vt 0.79198784 0.51815641
vt 0.83970821 0.54538286
vt 0.72760522 0.56405634
vt 0.70931774 0.52026719
vt 0.79572713 0.56992728
vt 0.69364280 0.56637543
vt 0.84160453 0.57503790
vt 0.86939698 0.55376697
vt 0.85907447 0.51966935
vt 0.83348364 0.59451044
vt 0.64367288 0.51851285
vt 0.63712114 0.56808770
vt 0.60694164 0.56447309
vt 0.61235631 0.51962316
vt 0.58623618 0.54570019
vt 0.58339143 0.57106131
vt 0.65263325 0.58686209
vt 0.61027277 0.58895230
vt 0.83157939 0.49149832
vt 0.86483783 0.60255945
vt 0.89175069 0.57323509
vt 0.88151562 0.53404933
vt 0.77111179 0.49615520
vt 0.73056740 0.50107777
vt 0.69523400 0.49848035
vt 0.64592826 0.50005531
vt 0.56223792 0.55086654
vt 0.55701423 0.57393914
vt 0.53689158 0.56591469
vt 0.53953511 0.56068486
vt 0.58332664 0.58975214
vt 0.56553978 0.58973259
vt 0.61720371 0.50018346
vt 0.78033024 0.48694479
vt 0.79160333 0.58415914
vt 0.73443222 0.58053207
vt 0.69012845 0.58164585
vt 0.87010103 0.50472677
vt 0.82651430 0.48456791
vt 0.59099793 0.52509063
vt 0.89153588 0.60189945
vt 0.88521296 0.61358744
vt 0.92119563 0.60365158
vt 0.92103344 0.61685687
vt 0.94938689 0.60535604
vt 0.91937053 0.58597666
vt 0.84332103 0.60669583
vt 0.97081852 0.62037039
vt 0.99530071 0.61550105
vt 0.99668872 0.61912745
vt 0.57689518 0.53686875
vt 0.81178766 0.59904772
vt 0.60207903 0.50671577
vt 0.68590063 0.49142519
vt 0.78167957 0.60162514
vt 0.73730981 0.60166377
vt 0.68414533 0.59921527
vt 0.62911838 0.49184427
vt 0.93791068 0.59364629
vt 0.80349648 0.61576504
vt 0.74081057 0.61401874
vt 0.55054402 0.58376974
vt 0.18211921 0.59003413
vt 0.22077073 0.59862012
vt 0.20931895 0.58333331
vt 0.19224200 0.60185188
vt 0.24172185 0.59003413
vt 0.86423838 0.86111110
vt 0.89072847 0.86111110
vt 0.86907476 0.84259260
vt 0.97682118 0.62654322
vt 0.97682118 0.66358024
vt 0.96357614 0.63460821
vt 0.96417481 0.66126502
f 190/190 181/181 183/183
f 181/181 180/180 183/183
f 181/181 179/179 180/180
f 180/180 179/179 178/178
f 179/179 176/176 178/178
f 178/178 176/176 175/175
f 176/176 172/172 175/175
f 175/175 172/172 155/155
f 155/155 172/172 150/150
f 172/172 160/160 150/150
f 150/150 160/160 151/151
f 180/180 178/178 189/189
f 189/189 178/178 182/182
f 178/178 175/175 182/182
f 175/175 173/173 182/182
f 175/175 155/155 173/173
f 155/155 150/150 148/148
f 150/150 143/143 148/148
f 150/150 151/151 140/140
f 150/150 140/140 143/143
f 173/173 155/155 159/159
f 173/173 159/159 174/174
f 155/155 148/148 159/159
f 143/143 140/140 142/142
f 159/159 148/148 149/149
f 148/148 143/143 145/145
f 148/148 145/145 149/149
f 143/143 142/142 144/144
f 143/143 144/144 145/145
f 145/145 144/144 146/146
f 781/781 782/782 780/780
f 151/151 187/187 152/152
f 492/492 461/461 494/494
f 492/492 493/493 436/436
f 492/492 436/436 461/461
f 493/493 470/470 436/436
f 151/151 152/152 140/140
f 140/140 152/152 132/132
f 436/436 470/470 469/469
f 470/470 471/471 469/469
f 469/469 471/471 472/472
f 471/471 341/341 472/472
f 472/472 341/341 306/306
f 341/341 293/293 306/306
f 142/142 140/140 141/141
f 142/142 141/141 144/144
f 140/140 132/132 139/139
f 140/140 139/139 141/141
f 325/325 323/323 287/287
f 325/325 287/287 293/293
f 323/323 290/290 287/287
f 144/144 141/141 147/147
f 147/147 141/141 153/153
f 110/110 123/123 107/107
f 781/781 780/780 777/777
f 97/97 114/114 125/125
f 152/152 192/192 158/158
f 494/494 461/461 462/462
f 461/461 436/436 434/434
f 461/461 434/434 462/462
f 436/436 431/431 434/434
f 434/434 431/431 389/389
f 431/431 429/429 389/389
f 429/429 430/430 393/393
f 429/429 393/393 389/389
f 430/430 326/326 393/393
f 326/326 310/310 395/395
f 326/326 395/395 393/393
f 310/310 295/295 311/311
f 310/310 311/311 395/395
f 152/152 158/158 132/132
f 132/132 158/158 129/129
f 295/295 288/288 311/311
f 311/311 288/288 298/298
f 288/288 286/286 283/283
f 288/288 283/283 298/298
f 132/132 129/129 131/131
f 132/132 131/131 134/134
f 129/129 130/130 131/131
f 286/286 282/282 283/283
f 131/131 130/130 133/133
f 134/134 131/131 135/135
f 134/134 135/135 138/138
f 131/131 133/133 135/135
f 291/291 294/294 282/282
f 282/282 294/294 280/280
f 141/141 139/139 184/184
f 184/184 139/139 165/165
f 165/165 139/139 138/138
f 165/165 138/138 166/166
f 791/791 777/777 775/775
f 791/791 775/775 778/778
f 777/777 780/780 776/776
f 777/777 776/776 775/775
f 193/193 191/191 158/158
f 158/158 191/191 170/170
f 494/494 462/462 502/502
f 389/389 393/393 386/386
f 393/393 390/390 386/386
f 393/393 395/395 390/390
f 390/390 395/395 391/391
f 395/395 324/324 391/391
f 324/324 314/314 394/394
f 324/324 394/394 391/391
f 314/314 297/297 394/394
f 394/394 297/297 327/327
f 158/158 170/170 129/129
f 170/170 169/169 129/129
f 129/129 169/169 157/157
f 297/297 285/285 327/327
f 327/327 285/285 307/307
f 285/285 268/268 307/307
f 129/129 157/157 130/130
f 130/130 157/157 154/154
f 268/268 277/277 275/275
f 130/130 154/154 133/133
f 133/133 154/154 137/137
f 277/277 279/279 278/278
f 277/277 278/278 275/275
f 133/133 137/137 136/136
f 279/279 313/313 278/278
f 278/278 313/313 276/276
f 313/313 312/312 276/276
f 138/138 135/135 161/161
f 138/138 161/161 167/167
f 161/161 135/135 136/136
f 161/161 136/136 162/162
f 718/718 691/691 696/696
f 718/718 696/696 714/714
f 714/714 696/696 697/697
f 778/778 775/775 773/773
f 778/778 773/773 753/753
f 775/775 776/776 774/774
f 775/775 774/774 773/773
f 191/191 195/195 170/170
f 170/170 195/195 169/169
f 502/502 462/462 503/503
f 503/503 462/462 463/463
f 462/462 434/434 463/463
f 463/463 434/434 435/435
f 434/434 389/389 435/435
f 435/435 389/389 387/387
f 389/389 386/386 387/387
f 387/387 386/386 385/385
f 391/391 394/394 392/392
f 394/394 396/396 392/392
f 396/396 307/307 335/335
f 169/169 177/177 157/157
f 307/307 267/267 335/335
f 335/335 267/267 333/333
f 267/267 261/261 333/333
f 333/333 261/261 263/263
f 261/261 262/262 263/263
f 157/157 177/177 168/168
f 156/156 168/168 164/164
f 273/273 289/289 274/274
f 156/156 164/164 163/163
f 289/289 338/338 274/274
f 274/274 338/338 272/272
f 338/338 328/328 272/272
f 136/136 137/137 171/171
f 171/171 137/137 163/163
f 770/770 754/754 741/741
f 754/754 740/740 741/741
f 754/754 753/753 740/740
f 753/753 773/773 752/752
f 753/753 752/752 740/740
f 773/773 774/774 752/752
f 503/503 463/463 486/486
f 463/463 435/435 486/486
f 386/386 390/390 388/388
f 390/390 391/391 388/388
f 391/391 392/392 388/388
f 392/392 396/396 397/397
f 397/397 396/396 405/405
f 396/396 420/420 405/405
f 420/420 317/317 405/405
f 405/405 317/317 410/410
f 317/317 316/316 419/419
f 317/317 419/419 410/410
f 316/316 264/264 315/315
f 316/316 315/315 419/419
f 264/264 269/269 315/315
f 315/315 269/269 301/301
f 269/269 265/265 301/301
f 301/301 265/265 299/299
f 265/265 271/271 299/299
f 271/271 296/296 304/304
f 251/251 252/252 257/257
f 296/296 355/355 305/305
f 296/296 305/305 304/304
f 355/355 344/344 305/305
f 695/695 687/687 706/706
f 770/770 741/741 751/751
f 741/741 740/740 734/734
f 740/740 739/739 734/734
f 689/689 676/676 677/677
f 677/677 676/676 669/669
f 740/740 752/752 739/739
f 739/739 752/752 742/742
f 752/752 779/779 742/742
f 256/256 247/247 248/248
f 486/486 435/435 476/476
f 435/435 387/387 448/448
f 435/435 448/448 476/476
f 387/387 385/385 448/448
f 385/385 386/386 376/376
f 386/386 388/388 376/376
f 392/392 397/397 388/388
f 405/405 399/399 397/397
f 405/405 410/410 404/404
f 405/405 404/404 399/399
f 410/410 419/419 404/404
f 404/404 419/419 403/403
f 419/419 336/336 403/403
f 403/403 336/336 409/409
f 336/336 301/301 337/337
f 336/336 337/337 409/409
f 301/301 302/302 337/337
f 337/337 302/302 322/322
f 302/302 299/299 308/308
f 302/302 308/308 322/322
f 299/299 303/303 308/308
f 308/308 303/303 309/309
f 246/246 244/244 243/243
f 303/303 305/305 309/309
f 246/246 243/243 242/242
f 305/305 343/343 309/309
f 309/309 343/343 320/320
f 343/343 342/342 320/320
f 751/751 741/741 733/733
f 741/741 734/734 733/733
f 684/684 682/682 676/676
f 684/684 676/676 689/689
f 734/734 739/739 737/737
f 739/739 742/742 737/737
f 667/667 666/666 668/668
f 742/742 779/779 784/784
f 511/511 486/486 485/485
f 779/779 792/792 784/784
f 486/486 476/476 485/485
f 476/476 448/448 449/449
f 448/448 385/385 449/449
f 449/449 385/385 374/374
f 374/374 385/385 372/372
f 385/385 376/376 372/372
f 404/404 403/403 399/399
f 403/403 409/409 408/408
f 409/409 337/337 408/408
f 245/245 239/239 235/235
f 337/337 322/322 459/459
f 337/337 459/459 408/408
f 322/322 321/321 459/459
f 459/459 321/321 332/332
f 321/321 319/319 332/332
f 332/332 319/319 331/331
f 245/245 235/235 244/244
f 319/319 318/318 331/331
f 331/331 318/318 330/330
f 318/318 320/320 329/329
f 318/318 329/329 330/330
f 320/320 342/342 334/334
f 320/320 334/334 329/329
f 246/246 242/242 253/253
f 771/771 751/751 766/766
f 766/766 751/751 755/755
f 751/751 733/733 755/755
f 733/733 734/734 735/735
f 734/734 737/737 735/735
f 767/767 784/784 787/787
f 784/784 792/792 787/787
f 485/485 476/476 477/477
f 476/476 449/449 477/477
f 388/388 397/397 399/399
f 403/403 408/408 401/401
f 408/408 459/459 401/401
f 401/401 459/459 443/443
f 459/459 332/332 443/443
f 443/443 332/332 339/339
f 332/332 331/331 339/339
f 329/329 334/334 347/347
f 334/334 364/364 350/350
f 334/334 350/350 347/347
f 755/755 733/733 756/756
f 737/737 767/767 768/768
f 767/767 787/787 788/788
f 767/767 788/788 768/768
f 100/100 62/62 63/63
f 787/787 792/792 788/788
f 788/788 792/792 793/793
f 485/485 477/477 484/484
f 477/477 449/449 447/447
f 449/449 374/374 371/371
f 449/449 371/371 447/447
f 374/374 372/372 371/371
f 372/372 376/376 375/375
f 376/376 388/388 375/375
f 403/403 401/401 399/399
f 401/401 443/443 418/418
f 401/401 418/418 416/416
f 401/401 416/416 402/402
f 375/375 388/388 398/398
f 388/388 399/399 398/398
f 443/443 339/339 479/479
f 443/443 479/479 418/418
f 339/339 340/340 479/479
f 479/479 340/340 352/352
f 340/340 345/345 352/352
f 345/345 346/346 349/349
f 346/346 347/347 348/348
f 346/346 348/348 349/349
f 347/347 350/350 348/348
f 350/350 364/364 365/365
f 756/756 733/733 736/736
f 733/733 735/735 736/736
f 737/737 768/768 735/735
f 484/484 477/477 473/473
f 477/477 447/447 473/473
f 372/372 375/375 373/373
f 417/417 479/479 422/422
f 417/417 422/422 402/402
f 398/398 399/399 400/400
f 399/399 401/401 400/400
f 479/479 352/352 422/422
f 422/422 352/352 354/354
f 352/352 345/345 351/351
f 352/352 351/351 354/354
f 345/345 349/349 351/351
f 351/351 349/349 353/353
f 349/349 348/348 353/353
f 353/353 348/348 356/356
f 348/348 350/350 356/356
f 685/685 686/686 709/709
f 756/756 736/736 757/757
f 736/736 735/735 738/738
f 735/735 768/768 738/738
f 738/738 768/768 769/769
f 768/768 788/788 769/769
f 769/769 788/788 789/789
f 788/788 793/793 732/732
f 788/788 732/732 789/789
f 484/484 473/473 483/483
f 473/473 447/447 446/446
f 447/447 371/371 446/446
f 371/371 372/372 373/373
f 373/373 375/375 377/377
f 375/375 398/398 377/377
f 377/377 398/398 407/407
f 407/407 398/398 411/411
f 411/411 398/398 400/400
f 400/400 401/401 402/402
f 402/402 422/422 421/421
f 422/422 354/354 359/359
f 422/422 359/359 421/421
f 354/354 351/351 359/359
f 359/359 351/351 358/358
f 351/351 353/353 357/357
f 351/351 357/357 358/358
f 353/353 356/356 357/357
f 757/757 736/736 743/743
f 736/736 738/738 743/743
f 738/738 769/769 749/749
f 749/749 769/769 789/789
f 483/483 473/473 467/467
f 473/473 446/446 467/467
f 411/411 400/400 413/413
f 400/400 412/412 413/413
f 400/400 402/402 412/412
f 412/412 402/402 414/414
f 402/402 421/421 414/414
f 414/414 421/421 440/440
f 421/421 359/359 362/362
f 421/421 362/362 440/440
f 359/359 358/358 362/362
f 362/362 358/358 363/363
f 358/358 357/357 361/361
f 358/358 361/361 363/363
f 357/357 356/356 360/360
f 357/357 360/360 361/361
f 356/356 350/350 366/366
f 356/356 366/366 360/360
f 350/350 365/365 366/366
f 366/366 365/365 367/367
f 786/786 757/757 758/758
f 786/786 758/758 790/790
f 757/757 743/743 758/758
f 743/743 738/738 744/744
f 738/738 749/749 744/744
f 749/749 789/789 731/731
f 789/789 732/732 731/731
f 731/731 732/732 730/730
f 483/483 467/467 482/482
f 467/467 446/446 444/444
f 446/446 371/371 378/378
f 446/446 378/378 444/444
f 371/371 373/373 378/378
f 373/373 377/377 379/379
f 379/379 377/377 406/406
f 377/377 407/407 406/406
f 406/406 407/407 411/411
f 411/411 413/413 415/415
f 412/412 414/414 428/428
f 412/412 428/428 427/427
f 414/414 440/440 428/428
f 428/428 440/440 489/489
f 440/440 362/362 512/512
f 440/440 512/512 489/489
f 571/571 570/570 565/565
f 565/565 570/570 564/564
f 570/570 575/575 567/567
f 570/570 567/567 564/564
f 575/575 576/576 567/567
f 567/567 576/576 568/568
f 360/360 366/366 369/369
f 790/790 758/758 765/765
f 758/758 743/743 765/765
f 765/765 743/743 746/746
f 743/743 744/744 745/745
f 743/743 745/745 746/746
f 744/744 749/749 750/750
f 744/744 750/750 745/745
f 749/749 731/731 750/750
f 482/482 467/467 466/466
f 467/467 444/444 466/466
f 378/378 373/373 380/380
f 380/380 373/373 379/379
f 411/411 415/415 406/406
f 413/413 412/412 426/426
f 412/412 427/427 426/426
f 426/426 427/427 433/433
f 427/427 428/428 458/458
f 427/427 458/458 433/433
f 428/428 489/489 501/501
f 428/428 501/501 458/458
f 489/489 512/512 501/501
f 501/501 512/512 513/513
f 565/565 564/564 557/557
f 565/565 557/557 558/558
f 548/548 558/558 557/557
f 548/548 557/557 547/547
f 564/564 567/567 560/560
f 564/564 560/560 557/557
f 547/547 557/557 546/546
f 546/546 557/557 560/560
f 567/567 568/568 560/560
f 560/560 568/568 561/561
f 546/546 560/560 561/561
f 568/568 569/569 561/561
f 561/561 569/569 573/573
f 366/366 367/367 368/368
f 765/765 746/746 772/772
f 765/765 772/772 785/785
f 746/746 745/745 747/747
f 746/746 747/747 772/772
f 747/747 745/745 748/748
f 745/745 750/750 748/748
f 748/748 750/750 763/763
f 750/750 731/731 763/763
f 763/763 731/731 729/729
f 731/731 730/730 729/729
f 729/729 730/730 727/727
f 482/482 466/466 490/490
f 466/466 444/444 445/445
f 444/444 378/378 381/381
f 444/444 381/381 445/445
f 378/378 380/380 381/381
f 380/380 379/379 382/382
f 379/379 406/406 425/425
f 425/425 406/406 424/424
f 406/406 415/415 424/424
f 424/424 415/415 423/423
f 415/415 413/413 423/423
f 423/423 413/413 432/432
f 413/413 426/426 432/432
f 432/432 426/426 464/464
f 426/426 433/433 481/481
f 426/426 481/481 464/464
f 433/433 458/458 499/499
f 433/433 499/499 481/481
f 517/517 515/515 514/514
f 514/514 515/515 516/516
f 458/458 501/501 509/509
f 458/458 509/509 499/499
f 548/548 547/547 518/518
f 548/548 518/518 519/519
f 515/515 519/519 518/518
f 515/515 518/518 516/516
f 514/514 516/516 521/521
f 521/521 516/516 520/520
f 547/547 546/546 518/518
f 518/518 546/546 524/524
f 516/516 518/518 520/520
f 520/520 518/518 524/524
f 524/524 546/546 526/526
f 520/520 524/524 525/525
f 525/525 524/524 526/526
f 546/546 561/561 559/559
f 546/546 559/559 526/526
f 561/561 573/573 559/559
f 772/772 747/747 783/783
f 783/783 747/747 759/759
f 747/747 748/748 759/759
f 759/759 748/748 760/760
f 748/748 763/763 760/760
f 760/760 763/763 764/764
f 763/763 729/729 726/726
f 763/763 726/726 764/764
f 729/729 727/727 726/726
f 726/726 727/727 724/724
f 490/490 466/466 491/491
f 445/445 381/381 383/383
f 381/381 380/380 383/383
f 380/380 382/382 383/383
f 382/382 379/379 384/384
f 379/379 425/425 384/384
f 384/384 425/425 437/437
f 437/437 425/425 442/442
f 425/425 424/424 442/442
f 442/442 424/424 451/451
f 424/424 423/423 474/474
f 424/424 474/474 451/451
f 423/423 432/432 488/488
f 423/423 488/488 474/474
f 554/554 543/543 535/535
f 535/535 543/543 532/532
f 432/432 464/464 498/498
f 432/432 498/498 488/488
f 543/543 531/531 532/532
f 532/532 531/531 530/530
f 464/464 481/481 508/508
f 464/464 508/508 498/498
f 517/517 514/514 523/523
f 523/523 514/514 522/522
f 531/531 523/523 522/522
f 531/531 522/522 530/530
f 532/532 530/530 533/533
f 533/533 530/530 529/529
f 514/514 521/521 522/522
f 522/522 521/521 528/528
f 530/530 522/522 529/529
f 529/529 522/522 528/528
f 529/529 528/528 555/555
f 521/521 520/520 527/527
f 521/521 527/527 528/528
f 520/520 525/525 527/527
f 527/527 525/525 566/566
f 528/528 527/527 555/555
f 555/555 527/527 566/566
f 525/525 526/526 577/577
f 525/525 577/577 566/566
f 646/646 642/642 637/637
f 800/800 801/801 802/802
f 642/642 639/639 637/637
f 637/637 639/639 638/638
f 759/759 760/760 761/761
f 759/759 761/761 762/762
f 760/760 794/794 761/761
f 726/726 724/724 721/721
f 721/721 724/724 722/722
f 491/491 466/466 468/468
f 491/491 468/468 497/497
f 466/466 445/445 452/452
f 466/466 452/452 468/468
f 445/445 383/383 452/452
f 452/452 383/383 439/439
f 439/439 383/383 438/438
f 383/383 382/382 438/438
f 438/438 382/382 441/441
f 382/382 384/384 441/441
f 384/384 450/450 441/441
f 384/384 437/437 460/460
f 384/384 460/460 450/450
f 437/437 442/442 487/487
f 437/437 487/487 460/460
f 442/442 451/451 496/496
f 442/442 496/496 487/487
f 544/544 542/542 540/540
f 540/540 542/542 538/538
f 451/451 474/474 504/504
f 451/451 504/504 496/496
f 554/554 535/535 537/537
f 537/537 535/535 536/536
f 542/542 537/537 538/538
f 538/538 537/537 536/536
f 540/540 538/538 539/539
f 538/538 536/536 539/539
f 539/539 536/536 541/541
f 535/535 532/532 534/534
f 535/535 534/534 536/536
f 532/532 533/533 534/534
f 534/534 533/533 551/551
f 536/536 534/534 541/541
f 541/541 534/534 551/551
f 533/533 529/529 562/562
f 533/533 562/562 551/551
f 529/529 555/555 562/562
f 803/803 804/804 805/805
f 804/804 806/806 805/805
f 647/647 644/644 611/611
f 647/647 611/611 640/640
f 644/644 641/641 610/610
f 644/644 610/610 611/611
f 641/641 637/637 610/610
f 610/610 637/637 613/613
f 721/721 722/722 723/723
f 497/497 468/468 480/480
f 468/468 452/452 480/480
f 480/480 452/452 453/453
f 452/452 439/439 453/453
f 480/480 453/453 456/456
f 453/453 439/439 454/454
f 439/439 438/438 454/454
f 438/438 441/441 465/465
f 438/438 465/465 454/454
f 441/441 475/475 465/465
f 441/441 450/450 495/495
f 441/441 495/495 475/475
f 475/475 495/495 510/510
f 450/450 460/460 500/500
f 450/450 500/500 495/495
f 556/556 550/550 553/553
f 553/553 550/550 552/552
f 460/460 487/487 507/507
f 460/460 507/507 500/500
f 544/544 540/540 549/549
f 549/549 540/540 545/545
f 550/550 549/549 545/545
f 550/550 545/545 552/552
f 540/540 539/539 545/545
f 545/545 539/539 563/563
f 539/539 578/578 563/563
f 539/539 541/541 579/579
f 539/539 579/579 578/578
f 798/798 796/796 795/795
f 795/795 796/796 797/797
f 796/796 799/799 797/797
f 597/597 645/645 596/596
f 645/645 605/605 596/596
f 605/605 640/640 599/599
f 723/723 722/722 725/725
f 723/723 725/725 728/728
f 497/497 480/480 505/505
f 505/505 480/480 506/506
f 480/480 456/456 506/506
f 453/453 454/454 455/455
f 453/453 455/455 456/456
f 455/455 454/454 457/457
f 454/454 465/465 457/457
f 465/465 475/475 457/457
f 457/457 475/475 478/478
f 475/475 510/510 478/478
f 553/553 552/552 572/572
f 552/552 545/545 572/572
f 572/572 545/545 574/574
f 545/545 563/563 574/574
f 586/586 616/616 584/584
f 106/106 77/77 88/88
f 77/77 66/66 88/88
f 66/66 25/25 87/87
f 66/66 87/87 88/88
f 25/25 89/89 87/87
f 25/25 24/24 89/89
f 24/24 27/27 89/89
f 89/89 27/27 104/104
f 27/27 116/116 104/104
f 27/27 112/112 116/116
f 187/187 151/151 160/160
f 436/436 469/469 431/431
f 469/469 429/429 431/431
f 469/469 472/472 429/429
f 429/429 472/472 430/430
f 472/472 306/306 430/430
f 430/430 306/306 326/326
f 306/306 300/300 326/326
f 326/326 300/300 310/310
f 300/300 295/295 310/310
f 293/293 292/292 300/300
f 293/293 300/300 306/306
f 292/292 295/295 300/300
f 292/292 286/286 295/295
f 295/295 286/286 288/288
f 293/293 287/287 292/292
f 287/287 282/282 286/286
f 287/287 286/286 292/292
f 290/290 291/291 282/282
f 290/290 282/282 287/287
f 144/144 147/147 146/146
f 110/110 107/107 106/106
f 106/106 107/107 77/77
f 107/107 60/60 77/77
f 77/77 60/60 66/66
f 60/60 25/25 66/66
f 8/8 24/24 25/25
f 24/24 13/13 27/27
f 13/13 26/26 27/27
f 27/27 26/26 112/112
f 26/26 90/90 112/112
f 90/90 97/97 112/112
f 97/97 125/125 112/112
f 311/311 298/298 324/324
f 311/311 324/324 395/395
f 298/298 297/297 314/314
f 298/298 314/314 324/324
f 283/283 284/284 297/297
f 283/283 297/297 298/298
f 284/284 268/268 285/285
f 284/284 285/285 297/297
f 282/282 281/281 283/283
f 283/283 281/281 284/284
f 281/281 277/277 268/268
f 281/281 268/268 284/284
f 134/134 139/139 132/132
f 282/282 280/280 281/281
f 280/280 279/279 277/277
f 280/280 277/277 281/281
f 134/134 138/138 139/139
f 184/184 153/153 141/141
f 719/719 702/702 705/705
f 702/702 704/704 705/705
f 705/705 704/704 716/716
f 108/108 69/69 107/107
f 107/107 69/69 60/60
f 69/69 19/19 60/60
f 60/60 19/19 25/25
f 19/19 8/8 25/25
f 8/8 13/13 24/24
f 13/13 14/14 26/26
f 26/26 14/14 90/90
f 14/14 71/71 97/97
f 14/14 97/97 90/90
f 71/71 109/109 114/114
f 71/71 114/114 97/97
f 109/109 111/111 114/114
f 193/193 158/158 192/192
f 327/327 307/307 396/396
f 327/327 396/396 394/394
f 268/268 266/266 267/267
f 268/268 267/267 307/307
f 266/266 262/262 261/261
f 266/266 261/261 267/267
f 268/268 275/275 266/266
f 275/275 273/273 266/266
f 266/266 273/273 262/262
f 278/278 276/276 275/275
f 276/276 289/289 273/273
f 276/276 273/273 275/275
f 133/133 136/136 135/135
f 167/167 166/166 138/138
f 312/312 289/289 276/276
f 714/714 697/697 702/702
f 714/714 702/702 719/719
f 697/697 679/679 702/702
f 702/702 679/679 704/704
f 93/93 68/68 69/69
f 93/93 69/69 108/108
f 68/68 6/6 19/19
f 68/68 19/19 69/69
f 6/6 7/7 8/8
f 6/6 8/8 19/19
f 7/7 9/9 8/8
f 8/8 9/9 13/13
f 9/9 12/12 13/13
f 13/13 12/12 14/14
f 12/12 18/18 14/14
f 18/18 28/28 71/71
f 18/18 71/71 14/14
f 71/71 28/28 109/109
f 28/28 55/55 111/111
f 28/28 111/111 109/109
f 55/55 118/118 111/111
f 335/335 333/333 420/420
f 335/335 420/420 396/396
f 333/333 263/263 317/317
f 333/333 317/317 420/420
f 263/263 264/264 317/317
f 317/317 264/264 316/316
f 262/262 265/265 264/264
f 262/262 264/264 263/263
f 264/264 265/265 269/269
f 157/157 168/168 154/154
f 273/273 270/270 262/262
f 262/262 270/270 265/265
f 270/270 271/271 265/265
f 168/168 156/156 154/154
f 154/154 156/156 137/137
f 274/274 272/272 270/270
f 274/274 270/270 273/273
f 272/272 296/296 271/271
f 272/272 271/271 270/270
f 156/156 163/163 137/137
f 171/171 162/162 136/136
f 328/328 296/296 272/272
f 688/688 696/696 691/691
f 696/696 677/677 697/697
f 677/677 671/671 679/679
f 677/677 679/679 697/697
f 671/671 670/670 679/679
f 503/503 486/486 511/511
f 774/774 779/779 752/752
f 12/12 16/16 18/18
f 18/18 16/16 28/28
f 16/16 20/20 28/28
f 28/28 20/20 55/55
f 20/20 54/54 55/55
f 55/55 54/54 118/118
f 54/54 119/119 118/118
f 195/195 194/194 169/169
f 315/315 301/301 336/336
f 315/315 336/336 419/419
f 256/256 248/248 255/255
f 194/194 177/177 169/169
f 248/248 249/249 255/255
f 299/299 302/302 301/301
f 188/188 186/186 177/177
f 177/177 186/186 168/168
f 271/271 303/303 299/299
f 186/186 185/185 168/168
f 168/168 185/185 164/164
f 304/304 305/305 303/303
f 304/304 303/303 271/271
f 251/251 257/257 258/258
f 344/344 343/343 305/305
f 706/706 687/687 691/691
f 687/687 688/688 691/691
f 688/688 689/689 696/696
f 689/689 677/677 696/696
f 677/677 669/669 671/671
f 669/669 668/668 670/670
f 669/669 670/670 671/671
f 59/59 6/6 68/68
f 59/59 7/7 6/6
f 9/9 3/3 12/12
f 3/3 10/10 12/12
f 12/12 10/10 16/16
f 10/10 17/17 16/16
f 16/16 17/17 20/20
f 17/17 21/21 20/20
f 21/21 23/23 54/54
f 21/21 54/54 20/20
f 23/23 41/41 54/54
f 54/54 41/41 119/119
f 41/41 122/122 119/119
f 248/248 245/245 249/249
f 308/308 319/319 321/321
f 308/308 321/321 322/322
f 245/245 244/244 250/250
f 245/245 250/250 249/249
f 309/309 318/318 308/308
f 308/308 318/318 319/319
f 244/244 246/246 250/250
f 250/250 246/246 251/251
f 309/309 320/320 318/318
f 251/251 246/246 252/252
f 246/246 253/253 252/252
f 687/687 684/684 688/688
f 684/684 689/689 688/688
f 676/676 667/667 669/669
f 742/742 784/784 767/767
f 742/742 767/767 737/737
f 667/667 668/668 669/669
f 59/59 58/58 7/7
f 58/58 1/1 7/7
f 7/7 1/1 9/9
f 9/9 1/1 3/3
f 17/17 22/22 21/21
f 22/22 23/23 21/21
f 22/22 43/43 41/41
f 22/22 41/41 23/23
f 43/43 73/73 41/41
f 41/41 73/73 122/122
f 73/73 126/126 122/122
f 247/247 239/239 248/248
f 239/239 245/245 248/248
f 690/690 683/683 687/687
f 690/690 687/687 695/695
f 707/707 683/683 690/690
f 683/683 682/682 684/684
f 683/683 684/684 687/687
f 682/682 672/672 676/676
f 672/672 665/665 676/676
f 676/676 665/665 667/667
f 665/665 664/664 666/666
f 665/665 666/666 667/667
f 101/101 63/63 102/102
f 102/102 63/63 59/59
f 63/63 58/58 59/59
f 1/1 2/2 3/3
f 2/2 10/10 3/3
f 10/10 15/15 17/17
f 17/17 15/15 22/22
f 22/22 42/42 43/43
f 43/43 42/42 73/73
f 42/42 115/115 73/73
f 73/73 115/115 126/126
f 230/230 234/234 247/247
f 247/247 234/234 239/239
f 234/234 235/235 239/239
f 331/331 345/345 340/340
f 331/331 340/340 339/339
f 235/235 236/236 244/244
f 330/330 346/346 345/345
f 330/330 345/345 331/331
f 236/236 240/240 243/243
f 236/236 243/243 244/244
f 329/329 347/347 346/346
f 329/329 346/346 330/330
f 240/240 241/241 242/242
f 240/240 242/242 243/243
f 708/708 680/680 707/707
f 707/707 680/680 683/683
f 680/680 682/682 683/683
f 699/699 672/672 682/682
f 672/672 662/662 665/665
f 662/662 663/663 664/664
f 662/662 664/664 665/665
f 100/100 63/63 101/101
f 63/63 1/1 58/58
f 10/10 11/11 15/15
f 15/15 29/29 22/22
f 29/29 30/30 22/22
f 22/22 30/30 42/42
f 30/30 67/67 42/42
f 42/42 67/67 115/115
f 230/230 229/229 234/234
f 418/418 479/479 416/416
f 416/416 479/479 417/417
f 229/229 228/228 234/234
f 234/234 228/228 235/235
f 228/228 233/233 236/236
f 228/228 236/236 235/235
f 233/233 237/237 240/240
f 233/233 240/240 236/236
f 237/237 241/241 240/240
f 237/237 254/254 241/241
f 241/241 254/254 242/242
f 680/680 681/681 682/682
f 681/681 699/699 682/682
f 699/699 673/673 672/672
f 673/673 661/661 672/672
f 672/672 661/661 662/662
f 661/661 660/660 662/662
f 662/662 660/660 663/663
f 99/99 62/62 100/100
f 62/62 1/1 63/63
f 51/51 4/4 1/1
f 1/1 4/4 2/2
f 4/4 5/5 2/2
f 2/2 5/5 10/10
f 5/5 11/11 10/10
f 11/11 31/31 15/15
f 31/31 29/29 15/15
f 29/29 45/45 30/30
f 30/30 45/45 67/67
f 221/221 220/220 230/230
f 230/230 220/220 229/229
f 417/417 402/402 416/416
f 220/220 222/222 228/228
f 220/220 228/228 229/229
f 222/222 225/225 228/228
f 228/228 225/225 233/233
f 225/225 231/231 233/233
f 233/233 231/231 237/237
f 231/231 238/238 237/237
f 238/238 254/254 237/237
f 709/709 686/686 708/708
f 708/708 686/686 680/680
f 686/686 681/681 680/680
f 62/62 51/51 1/1
f 33/33 31/31 11/11
f 29/29 44/44 45/45
f 44/44 46/46 45/45
f 46/46 92/92 67/67
f 46/46 67/67 45/45
f 207/207 206/206 220/220
f 207/207 220/220 221/221
f 206/206 208/208 220/220
f 220/220 208/208 222/222
f 208/208 219/219 222/222
f 222/222 219/219 225/225
f 219/219 227/227 225/225
f 225/225 227/227 231/231
f 227/227 238/238 231/231
f 685/685 681/681 686/686
f 681/681 701/701 699/699
f 701/701 674/674 673/673
f 701/701 673/673 699/699
f 674/674 658/658 661/661
f 674/674 661/661 673/673
f 658/658 659/659 660/660
f 658/658 660/660 661/661
f 95/95 61/61 62/62
f 95/95 62/62 99/99
f 31/31 37/37 29/29
f 37/37 39/39 29/29
f 39/39 44/44 29/29
f 46/46 105/105 92/92
f 203/203 202/202 206/206
f 203/203 206/206 207/207
f 202/202 204/204 208/208
f 202/202 208/208 206/206
f 204/204 219/219 208/208
f 219/219 223/223 227/227
f 223/223 232/232 227/227
f 227/227 232/232 238/238
f 232/232 259/259 238/238
f 370/370 367/367 365/365
f 693/693 692/692 685/685
f 692/692 681/681 685/685
f 61/61 51/51 62/62
f 5/5 32/32 11/11
f 32/32 33/33 11/11
f 33/33 37/37 31/31
f 39/39 47/47 44/44
f 47/47 76/76 44/44
f 44/44 76/76 46/46
f 76/76 105/105 46/46
f 203/203 201/201 202/202
f 205/205 201/201 203/203
f 201/201 200/200 202/202
f 202/202 200/200 204/204
f 200/200 209/209 204/204
f 204/204 209/209 219/219
f 209/209 218/218 223/223
f 209/209 223/223 219/219
f 218/218 232/232 223/223
f 693/693 694/694 692/692
f 717/717 694/694 693/693
f 692/692 700/700 701/701
f 692/692 701/701 681/681
f 700/700 674/674 701/701
f 674/674 657/657 658/658
f 657/657 656/656 658/658
f 658/658 656/656 659/659
f 94/94 64/64 61/61
f 94/94 61/61 95/95
f 64/64 36/36 61/61
f 61/61 36/36 51/51
f 36/36 4/4 51/51
f 36/36 5/5 4/4
f 35/35 32/32 5/5
f 34/34 37/37 33/33
f 47/47 103/103 76/76
f 200/200 198/198 209/209
f 198/198 215/215 218/218
f 198/198 218/218 209/209
f 215/215 226/226 218/218
f 218/218 226/226 232/232
f 226/226 259/259 232/232
f 717/717 703/703 694/694
f 703/703 698/698 694/694
f 694/694 698/698 692/692
f 715/715 698/698 703/703
f 698/698 700/700 692/692
f 700/700 675/675 674/674
f 698/698 675/675 700/700
f 675/675 654/654 657/657
f 675/675 657/657 674/674
f 654/654 655/655 656/656
f 654/654 656/656 657/657
f 80/80 64/64 94/94
f 36/36 35/35 5/5
f 32/32 34/34 33/33
f 34/34 38/38 37/37
f 38/38 40/40 37/37
f 37/37 40/40 39/39
f 40/40 98/98 47/47
f 40/40 47/47 39/39
f 98/98 103/103 47/47
f 211/211 210/210 205/205
f 98/98 127/127 103/103
f 210/210 201/201 205/205
f 201/201 196/196 200/200
f 196/196 201/201 210/210
f 196/196 197/197 198/198
f 196/196 198/198 200/200
f 197/197 213/213 215/215
f 197/197 215/215 198/198
f 213/213 224/224 215/215
f 215/215 224/224 226/226
f 224/224 260/260 259/259
f 224/224 259/259 226/226
f 643/643 639/639 642/642
f 710/710 698/698 715/715
f 710/710 711/711 675/675
f 710/710 675/675 698/698
f 720/720 711/711 710/710
f 711/711 678/678 675/675
f 678/678 653/653 654/654
f 678/678 654/654 675/675
f 651/651 653/653 678/678
f 651/651 678/678 711/711
f 764/764 726/726 794/794
f 764/764 794/794 760/760
f 653/653 652/652 654/654
f 654/654 652/652 655/655
f 648/648 649/649 650/650
f 651/651 652/652 653/653
f 79/79 64/64 80/80
f 65/65 36/36 64/64
f 65/65 50/50 36/36
f 50/50 35/35 36/36
f 50/50 49/49 35/35
f 49/49 32/32 35/35
f 38/38 91/91 40/40
f 91/91 98/98 40/40
f 120/120 124/124 98/98
f 120/120 98/98 91/91
f 124/124 127/127 98/98
f 210/210 212/212 196/196
f 128/128 127/127 124/124
f 212/212 199/199 196/196
f 199/199 197/197 196/196
f 216/216 199/199 212/212
f 199/199 214/214 213/213
f 199/199 213/213 197/197
f 217/217 214/214 199/199
f 217/217 199/199 216/216
f 213/213 214/214 224/224
f 637/637 638/638 623/623
f 713/713 711/711 720/720
f 713/713 712/712 711/711
f 711/711 712/712 651/651
f 86/86 82/82 83/83
f 83/83 82/82 79/79
f 82/82 72/72 79/79
f 79/79 72/72 64/64
f 72/72 78/78 65/65
f 72/72 65/65 64/64
f 78/78 75/75 65/65
f 75/75 74/74 50/50
f 75/75 50/50 65/65
f 74/74 70/70 50/50
f 70/70 49/49 50/50
f 56/56 32/32 49/49
f 56/56 53/53 32/32
f 53/53 52/52 34/34
f 53/53 34/34 32/32
f 52/52 48/48 34/34
f 34/34 48/48 38/38
f 48/48 91/91 38/38
f 48/48 121/121 91/91
f 121/121 120/120 91/91
f 602/602 609/609 606/606
f 606/606 609/609 622/622
f 617/617 612/612 618/618
f 609/609 612/612 617/617
f 609/609 617/617 622/622
f 602/602 601/601 609/609
f 601/601 607/607 612/612
f 601/601 612/612 609/609
f 612/612 614/614 618/618
f 607/607 614/614 612/612
f 600/600 608/608 607/607
f 600/600 607/607 601/601
f 614/614 613/613 623/623
f 608/608 613/613 614/614
f 608/608 614/614 607/607
f 640/640 611/611 599/599
f 599/599 611/611 600/600
f 611/611 610/610 600/600
f 600/600 610/610 608/608
f 623/623 613/613 637/637
f 610/610 613/613 608/608
f 85/85 84/84 82/82
f 85/85 82/82 86/86
f 84/84 72/72 82/82
f 70/70 56/56 49/49
f 117/117 52/52 53/53
f 604/604 603/603 636/636
f 603/603 606/606 619/619
f 603/603 619/619 636/636
f 590/590 593/593 603/603
f 590/590 603/603 604/604
f 593/593 594/594 606/606
f 593/593 606/606 603/603
f 594/594 602/602 606/606
f 589/589 591/591 590/590
f 591/591 592/592 590/590
f 590/590 592/592 593/593
f 592/592 595/595 594/594
f 592/592 594/594 593/593
f 602/602 598/598 601/601
f 595/595 598/598 602/602
f 595/595 602/602 594/594
f 616/616 615/615 591/591
f 616/616 591/591 589/589
f 615/615 597/597 591/591
f 591/591 597/597 592/592
f 597/597 596/596 592/592
f 592/592 596/596 595/595
f 596/596 599/599 598/598
f 596/596 598/598 595/595
f 598/598 600/600 601/601
f 599/599 600/600 598/598
f 605/605 599/599 596/596
f 96/96 84/84 85/85
f 631/631 629/629 630/630
f 96/96 113/113 84/84
f 84/84 113/113 72/72
f 630/630 629/629 628/628
f 113/113 81/81 72/72
f 72/72 81/81 78/78
f 629/629 627/627 628/628
f 628/628 627/627 626/626
f 78/78 81/81 75/75
f 627/627 621/621 626/626
f 81/81 74/74 75/75
f 621/621 625/625 626/626
f 621/621 588/588 625/625
f 588/588 624/624 625/625
f 70/70 57/57 56/56
f 588/588 585/585 583/583
f 588/588 583/583 624/624
f 585/585 582/582 583/583
f 57/57 53/53 56/56
f 57/57 117/117 53/53
f 635/635 634/634 627/627
f 635/635 627/627 629/629
f 634/634 633/633 621/621
f 634/634 621/621 627/627
f 633/633 620/620 621/621
f 621/621 620/620 588/588
f 583/583 581/581 590/590
f 583/583 590/590 604/604
f 582/582 581/581 583/583
f 632/632 587/587 620/620
f 620/620 587/587 588/588
f 588/588 587/587 585/585
f 587/587 580/580 585/585
f 585/585 580/580 582/582
f 590/590 581/581 589/589
f 580/580 581/581 582/582
f 581/581 584/584 589/589
f 589/589 584/584 616/616
f 586/586 584/584 580/580
f 580/580 584/584 581/581