# SSTK version 0.8.0
# 17
mtllib original-17.mtl
o Moulding-510.92.16_2/Moulding-510.92.16_1_2/mesh21/mesh21-geometry#mesh21-geometry
v -0.292815 0.733055 0.201181
v -0.292511 0.732048 -0.220324
v -0.292511 0.732048 0.201181
v -0.292815 0.733055 -0.220324
v -0.292016 0.731121 -0.220324
v -0.292815 0.735147 0.201181
v -0.292918 0.734101 0.201181
v -0.292511 0.736153 -0.220324
v -0.292016 0.731121 0.201181
v -0.292016 0.737081 -0.220324
v -0.292511 0.736153 0.201181
v -0.292918 0.734101 -0.220324
v -0.292815 0.735147 -0.220324
v -0.291350 0.730307 -0.220324
v -0.291350 0.737894 -0.220324
v -0.292016 0.737081 0.201181
v -0.291350 0.730307 0.201181
v -0.291350 0.737894 0.201181
v -0.290538 0.729639 0.201181
v -0.290538 0.738562 -0.220324
v -0.290538 0.729639 -0.220324
v -0.290538 0.738562 0.201181
v -0.289612 0.729142 0.201181
v -0.289612 0.739060 -0.220324
v -0.289612 0.729142 -0.220324
v -0.289612 0.739060 0.201181
v -0.290538 0.728645 0.201181
v -0.280521 0.785343 -0.220324
v -0.290538 0.739557 -0.220324
v -0.290538 0.728645 -0.220324
v -0.289612 0.719224 0.201181
v -0.280521 0.709306 0.201181
v -0.289612 0.748977 -0.220324
v -0.289612 0.719224 -0.220324
v -0.290538 0.739557 0.201181
v -0.290538 0.719721 -0.220324
v -0.291350 0.727976 0.201181
v -0.290538 0.719721 0.201181
v -0.289612 0.748977 0.201181
v -0.289612 0.758895 -0.220324
v -0.289612 0.709306 -0.220324
v -0.290538 0.748480 0.201181
v -0.291350 0.740225 -0.220324
v -0.290538 0.748480 -0.220324
v -0.291350 0.720390 -0.220324
v -0.291350 0.727976 -0.220324
v -0.289612 0.709306 0.201181
v -0.289612 0.758895 0.201181
v -0.293745 0.758895 -0.220324
v -0.290538 0.749475 -0.220324
v -0.280521 0.709306 -0.220324
v -0.290538 0.709804 -0.220324
v -0.291350 0.747812 0.201181
v -0.291350 0.740225 0.201181
v -0.292016 0.727163 -0.220324
v -0.291350 0.720390 0.201181
v -0.290538 0.718727 0.201181
v -0.280521 0.785343 0.201181
v -0.290538 0.758398 0.201181
v -0.293745 0.785343 -0.220324
v -0.290538 0.758398 -0.220324
v -0.290538 0.718727 -0.220324
v -0.292016 0.741039 0.201181
v -0.291350 0.747812 -0.220324
v -0.292016 0.721203 -0.220324
v -0.292016 0.727163 0.201181
v -0.290538 0.709804 0.201181
v -0.293745 0.785343 0.201181
v -0.290538 0.749475 0.201181
v -0.293745 0.758895 0.201181
v -0.291350 0.750143 -0.220324
v -0.291350 0.710472 -0.220324
v -0.292016 0.746998 0.201181
v -0.292016 0.741039 -0.220324
v -0.292016 0.721203 0.201181
v -0.292511 0.726235 -0.220324
v -0.292511 0.722131 -0.220324
v -0.291350 0.718059 0.201181
v -0.291350 0.757730 0.201181
v -0.291350 0.757730 -0.220324
v -0.291350 0.718059 -0.220324
v -0.292016 0.746998 -0.220324
v -0.292511 0.741966 0.201181
v -0.292511 0.746071 0.201181
v -0.292511 0.722131 0.201181
v -0.292511 0.726235 0.201181
v -0.291350 0.710472 0.201181
v -0.291350 0.750143 0.201181
v -0.292016 0.750956 -0.220324
v -0.292016 0.711285 -0.220324
v -0.292511 0.746071 -0.220324
v -0.292511 0.741966 -0.220324
v -0.292815 0.725229 -0.220324
v -0.292815 0.723137 -0.220324
v -0.292815 0.723137 0.201181
v -0.292016 0.717245 0.201181
v -0.292016 0.756916 0.201181
v -0.292016 0.756916 -0.220324
v -0.292016 0.750956 0.201181
v -0.292016 0.717245 -0.220324
v -0.292016 0.711285 0.201181
v -0.292815 0.742972 0.201181
v -0.292815 0.745065 0.201181
v -0.292815 0.745065 -0.220324
v -0.292815 0.725229 0.201181
v -0.292511 0.751884 -0.220324
v -0.292511 0.751884 0.201181
v -0.292511 0.712213 -0.220324
v -0.292511 0.712213 0.201181
v -0.292815 0.742972 -0.220324
v -0.292918 0.724183 -0.220324
v -0.292918 0.724183 0.201181
v -0.292511 0.716318 0.201181
v -0.292511 0.716318 -0.220324
v -0.292511 0.755989 0.201181
v -0.292511 0.755989 -0.220324
v -0.292918 0.744019 0.201181
v -0.292918 0.744019 -0.220324
v -0.292815 0.752890 -0.220324
v -0.292815 0.752890 0.201181
v -0.292815 0.754983 0.201181
v -0.292815 0.713219 -0.220324
v -0.292815 0.713219 0.201181
v -0.292815 0.715311 0.201181
v -0.292815 0.715311 -0.220324
v -0.292815 0.754983 -0.220324
v -0.292918 0.753936 -0.220324
v -0.292918 0.753936 0.201181
v -0.292918 0.714265 -0.220324
v -0.292918 0.714265 0.201181
vt 0.278871 0.01486
vt 0 0.014164
vt 0.278871 0.014164
vt 0 0.01486
vt 0 0.012196
vt 0.278871 0.012892
vt 0 0.012892
vt 0.000615 0.017096
vt 0.000615 0.015712
vt 0.000816 0.015046
vt 0.278871 0.016272
vt 0 0.015576
vt 0.278871 0.015576
vt -0.000615 0.015712
vt -0.000816 0.017762
vt -0.000816 0.015046
vt 0.278871 0.012196
vt -0.001144 0.018376
vt -0.001144 0.014433
vt 0.000547 0.016404
vt 0.000816 0.017762
vt 0 0.016272
vt -0.000615 0.017096
vt 0 0.009748
vt 0.278871 0.010443
vt 0 0.010443
vt 0.001144 0.014433
vt -0.001584 0.018914
vt 0.278871 0.017075
vt 0 0.016379
vt 0.278871 0.016379
vt 0.278871 0.017237
vt 0 0.016541
vt 0.278871 0.016541
vt -0.000547 0.016404
vt 0 0.017237
vt 0 0.016056
vt 0.278871 0.016752
vt 0 0.016752
vt 0.278871 0.009748
vt -0.001584 0.013894
vt 0.001144 0.018376
vt 0 0.014943
vt 0.278871 0.015639
vt 0 0.015639
vt 0 0.017075
vt 0.278871 0.016056
vt 0.278871 0.014943
vt 0 0.007608
vt 0.278871 0.006913
vt 0.278871 0.007608
vt 0.001584 0.013894
vt -0.002121 0.019356
vt 0.278871 0.013245
vt 0 0.01394
vt 0 0.013245
vt 0.001584 0.018914
vt 0 0.006913
vt 0.002121 0.013452
vt -0.002121 0.013452
vt 0.278871 0.01394
vt 0 0.004495
vt 0.278871 0.0038
vt 0.278871 0.004495
vt 0.002121 0.019356
vt -0.002734 0.019685
vt 0.278871 0.011026
vt 0 0.011721
vt 0 0.011026
vt 0 0.0038
vt 0.002734 0.013123
vt -0.002734 0.013123
vt 0.278871 0.011721
vt 0 0.008617
vt 0.278871 0.007922
vt 0.278871 0.008617
vt 0.002734 0.019685
vt -0.008749 0.050306
vt 0.278871 0.006904
vt 0 0.0076
vt 0 0.006904
vt 0 0.007922
vt 0.002121 0.012794
vt 0.002734 0.006562
vt 0.008749 0
vt -0.002734 0.026247
vt -0.002734 0.006562
vt 0.278871 0.0076
vt -0.002121 0.020014
vt -0.002121 0.006891
vt -0.002121 0.012794
vt 0 0.00977
vt 0.278871 0.009074
vt 0.278871 0.00977
vt 0.002121 0.006891
vt 0.002734 0.026247
vt -0.002734 0.032808
vt -0.002734 0
vt 0.002121 0.025918
vt 0.002121 0.020014
vt 0.278871 0.011083
vt 0 0.011779
vt 0 0.011083
vt -0.002121 0.025918
vt -0.001584 0.007333
vt 0 0.009074
vt 0.001584 0.012352
vt 0 0.001391
vt 0.278871 0.000696
vt 0.278871 0.001391
vt 0.002734 0
vt 0.002734 0.032808
vt 0 0.032808
vt -0.002121 0.026576
vt -0.008749 0
vt -0.002121 0.000329
vt 0 0.000696
vt 0.001584 0.025476
vt 0.278871 0.011779
vt -0.001584 0.020456
vt 0.278871 0.01413
vt 0 0.014826
vt 0 0.01413
vt -0.001584 0.012352
vt 0.278871 0.002742
vt 0 0.003438
vt 0 0.002742
vt 0 0.009866
vt 0.278871 0.010562
vt 0 0.010562
vt 0.001584 0.007333
vt 0.002121 0.006233
vt -0.278871 0.002734
vt 0 0.008749
vt -0.278871 0.008749
vt 0.008749 0.050306
vt 0.002121 0.032479
vt 0.278871 0.014826
vt 0 0.050306
vt 0 0
vt 0 0.002734
vt -0.002121 0.032479
vt 0.278871 0.010008
vt 0 0.010704
vt 0 0.010008
vt -0.278871 0
vt -0.002121 0.006233
vt 0.278871 -0.002409
vt 0 -0.001713
vt 0 -0.002409
vt 0 0.005513
vt 0.278871 0.004817
vt 0.278871 0.005513
vt 0.001584 0.020456
vt 0 0.018111
vt 0.278871 0.017416
vt 0.278871 0.018111
vt 0.278871 0.015521
vt 0 0.014825
vt 0.278871 0.014825
vt -0.001584 0.025476
vt -0.001144 0.007871
vt 0.278871 0.003438
vt 0.278871 0.009866
vt -0.001144 0.011814
vt 0.001144 0.011814
vt 0.002121 0.000329
vt -0.278871 0.050306
vt 0.002121 0.026576
vt 0 0.01793
vt 0.278871 0.017234
vt 0.278871 0.01793
vt 0.278871 0.050306
vt 0.278871 0
vt -0.001584 0.027018
vt 0 0.017234
vt 0.278871 0.010704
vt -0.001584 0.000771
vt 0 0.004817
vt 0.278871 -0.001713
vt 0.001144 0.024937
vt 0 0.017416
vt 0 0.015521
vt 0.001144 0.020994
vt -0.001144 0.020994
vt 0 0.00467
vt 0.278871 0.005366
vt 0 0.005366
vt 0.278871 0.00467
vt 0 0.010267
vt 0.278871 0.010962
vt 0 0.010962
vt -0.000816 0.008485
vt 0.001144 0.007871
vt 0.001584 0.005791
vt 0.278871 0.008749
vt 0.001584 0.032037
vt 0.278871 0.032808
vt -0.001584 0.032037
vt 0.278871 0.015254
vt 0 0.01595
vt 0 0.015254
vt 0 0.022282
vt 0.278871 0.021586
vt 0.278871 0.022282
vt -0.001584 0.005791
vt 0.278871 -0.001429
vt 0 -0.000733
vt 0 -0.001429
vt 0 0.005599
vt 0.278871 0.004904
vt 0.278871 0.005599
vt 0.278871 0.020716
vt 0 0.020021
vt 0.278871 0.020021
vt 0 0.020716
vt 0.278871 0.018681
vt 0 0.017986
vt 0.278871 0.017986
vt 0.000816 0.024324
vt -0.001144 0.024937
vt 0.278871 0.007102
vt 0 0.006407
vt 0.278871 0.006407
vt 0.278871 0.010267
vt -0.000816 0.0112
vt 0 0.007102
vt 0.000816 0.0112
vt 0.001584 0.000771
vt 0.001584 0.027018
vt -0.001144 0.027556
vt 0 0.021586
vt 0.278871 0.01595
vt -0.001144 0.001309
vt 0 0.004904
vt 0.278871 -0.000733
vt 0 0.021846
vt 0.278871 0.022541
vt 0 0.022541
vt 0 0.018681
vt 0.000816 0.021608
vt 0.278871 0.021846
vt -0.000816 0.021608
vt 0.000816 0.008485
vt 0 0.010261
vt 0.278871 0.010956
vt 0 0.010956
vt -0.000615 0.00915
vt 0.278871 0.00858
vt 0 0.007884
vt 0.278871 0.007884
vt 0.001144 0.005252
vt 0.001144 0.031499
vt -0.001144 0.031499
vt 0 0.019902
vt 0.278871 0.020598
vt 0 0.020598
vt 0 0.025098
vt 0.278871 0.025794
vt 0 0.025794
vt 0.278871 0.019902
vt -0.001144 0.005252
vt 0 -0.000407
vt 0.278871 0.000289
vt 0 0.000289
vt 0 0.004789
vt 0.278871 0.005484
vt 0 0.005484
vt 0.278871 -0.000407
vt -0.000816 0.024324
vt 0.278871 0.02114
vt 0 0.020444
vt 0.278871 0.020444
vt 0.000615 0.023658
vt 0 0.022821
vt 0.278871 0.023517
vt 0 0.023517
vt 0.000615 0.010535
vt 0.278871 0.010261
vt -0.000615 0.010535
vt 0 0.00858
vt 0.000615 0.00915
vt 0.001144 0.001309
vt 0.278871 0.004789
vt 0.001144 0.027556
vt 0.278871 0.025098
vt -0.000816 0.02817
vt 0.278871 0.024471
vt 0 0.023775
vt 0.278871 0.023775
vt -0.000816 0.001923
vt 0.278871 0.001312
vt 0 0.000617
vt 0.278871 0.000617
vt -0.000615 0.022274
vt 0 0.02114
vt 0.000615 0.022274
vt 0.278871 0.022821
vt -0.000615 0.023658
vt 0 0.009849
vt 0.278871 0.010544
vt 0 0.010544
vt -0.000547 0.009843
vt 0.278871 0.009742
vt 0 0.009046
vt 0.278871 0.009046
vt 0.000547 0.009843
vt 0.000816 0.004639
vt 0 0.004477
vt 0.278871 0.005173
vt 0 0.005173
vt 0.000816 0.030885
vt 0 0.027635
vt 0.278871 0.028331
vt 0 0.028331
vt -0.000816 0.030885
vt 0 0.024471
vt 0.000816 0.02817
vt -0.000816 0.004639
vt 0 0.001312
vt 0.000816 0.001923
vt 0.278871 0.022802
vt 0 0.022107
vt 0.278871 0.022107
vt 0.000547 0.022966
vt 0 0.022909
vt 0.278871 0.023605
vt 0 0.023605
vt -0.000547 0.022966
vt 0.278871 0.009849
vt 0 0.009742
vt 0.278871 0.004477
vt 0.278871 0.027635
vt -0.000615 0.028835
vt 0.278871 0.02742
vt 0 0.026724
vt 0.278871 0.026724
vt 0.000615 0.03022
vt -0.000615 0.002589
vt 0.278871 0.002299
vt 0 0.001604
vt 0.278871 0.001604
vt 0.000615 0.003973
vt 0 0.022802
vt 0.278871 0.022909
vt 0 0.003981
vt 0.278871 0.004676
vt 0 0.004676
vt 0 0.029101
vt 0.278871 0.029797
vt 0 0.029797
vt -0.000615 0.03022
vt 0 0.02742
vt 0.000615 0.028835
vt 0.278871 0.029101
vt -0.000615 0.003973
vt 0 0.002299
vt 0.000615 0.002589
vt 0.278871 0.003981
vt -0.000547 0.029528
vt 0.278871 0.029332
vt 0 0.028637
vt 0.278871 0.028637
vt 0.000547 0.029528
vt 0 0.029439
vt 0.278871 0.030135
vt 0 0.030135
vt -0.000547 0.003281
vt 0.278871 0.003212
vt 0 0.002516
vt 0.278871 0.002516
vt 0.000547 0.003281
vt 0 0.003319
vt 0.278871 0.004014
vt 0 0.004014
vt 0 0.029332
vt 0.278871 0.029439
vt 0 0.003212
vt 0.278871 0.003319
vn -0.9808532986144567 -0.1947480592897898 0
vn -0.9241461724285951 -0.3820390712814296 0
vn 0.9241461724285951 0.3820390712814296 0
vn 0.9808532986144567 0.1947480592897898 0
vn -0.8320502943378437 -0.5547001962252291 0
vn 0.8320502943378437 0.5547001962252291 0
vn 0 0 1
vn 0 0 -1
vn -1 0 0
vn 1 0 0
vn -0.708092093870359 -0.7061200936089348 0
vn 0.708092093870359 0.7061200936089348 0
vn -0.9808532986144567 0.1947480592897898 0
vn 0.9808532986144567 -0.1947480592897898 0
vn -0.9241461724285951 0.3820390712814296 0
vn 0.9241461724285951 -0.3820390712814296 0
vn -0.8320502943378437 0.5547001962252291 0
vn 0.8320502943378437 -0.5547001962252291 0
vn -0.708092093870359 0.7061200936089348 0
vn 0.708092093870359 -0.7061200936089348 0
vn -0.5570188840395423 -0.8304998271061487 0
vn 0.5570188840395423 0.8304998271061487 0
vn -0.5570188840395423 0.8304998271061487 0
vn 0.5570188840395423 -0.8304998271061487 0
vn -0.47308688129660287 -0.8810157789421561 0
vn 0.47308688129660287 0.8810157789421561 0
vn -0.47308688129660287 0.8810157789421561 0
vn 0.47308688129660287 -0.8810157789421561 0
vn 0 -1 0
vn 0 1 0
usemtl material_0_0
f 1/1/1 2/2/2 3/3/2
f 2/2/2 1/1/1 4/4/1
f 3/3/3 2/2/3 1/1/4
f 4/4/4 1/1/4 2/2/3
f 5/5/5 3/6/2 2/7/2
f 2/7/3 3/6/3 5/5/6
f 6/8/7 1/9/7 3/10/7
f 3/10/8 1/9/8 6/8/8
f 7/11/9 4/12/1 1/13/1
f 1/13/4 4/12/4 7/11/10
f 4/14/8 8/15/8 2/16/8
f 2/16/7 8/15/7 4/14/7
f 3/6/2 5/5/5 9/17/5
f 9/17/6 5/5/6 3/6/3
f 2/16/8 10/18/8 5/19/8
f 5/19/7 10/18/7 2/16/7
f 1/9/7 6/8/7 7/20/7
f 7/20/8 6/8/8 1/9/8
f 6/8/7 3/10/7 11/21/7
f 11/21/8 3/10/8 6/8/8
f 4/12/1 7/11/9 12/22/9
f 12/22/10 7/11/10 4/12/4
f 4/14/8 13/23/8 8/15/8
f 8/15/7 13/23/7 4/14/7
f 2/16/8 8/15/8 10/18/8
f 10/18/7 8/15/7 2/16/7
f 14/24/11 9/25/5 5/26/5
f 5/26/6 9/25/6 14/24/12
f 11/21/7 3/10/7 9/27/7
f 9/27/8 3/10/8 11/21/8
f 5/19/8 10/18/8 15/28/8
f 15/28/7 10/18/7 5/19/7
f 6/29/13 12/30/9 7/31/9
f 7/31/10 12/30/10 6/29/14
f 11/32/15 13/33/13 6/34/13
f 6/34/14 13/33/14 11/32/16
f 13/23/8 4/14/8 12/35/8
f 12/35/7 4/14/7 13/23/7
f 13/33/13 11/32/15 8/36/15
f 8/36/16 11/32/16 13/33/14
f 8/37/15 16/38/17 10/39/17
f 10/39/18 16/38/18 8/37/16
f 9/25/5 14/24/11 17/40/11
f 17/40/12 14/24/12 9/25/6
f 5/19/8 15/28/8 14/41/8
f 14/41/7 15/28/7 5/19/7
f 11/21/7 9/27/7 16/42/7
f 16/42/8 9/27/8 11/21/8
f 10/43/17 18/44/19 15/45/19
f 15/45/20 18/44/20 10/43/18
f 12/30/9 6/29/13 13/46/13
f 13/46/14 6/29/14 12/30/10
f 16/38/17 8/37/15 11/47/15
f 11/47/16 8/37/16 16/38/18
f 18/44/19 10/43/17 16/48/17
f 16/48/18 10/43/18 18/44/20
f 14/49/11 19/50/21 17/51/11
f 17/51/12 19/50/22 14/49/12
f 16/42/7 9/27/7 17/52/7
f 17/52/8 9/27/8 16/42/8
f 14/41/8 15/28/8 20/53/8
f 20/53/7 15/28/7 14/41/7
f 18/54/19 20/55/23 15/56/19
f 15/56/20 20/55/24 18/54/20
f 16/42/7 17/52/7 18/57/7
f 18/57/8 17/52/8 16/42/8
f 19/50/21 14/49/11 21/58/21
f 21/58/22 14/49/12 19/50/22
f 18/57/7 17/52/7 19/59/7
f 19/59/8 17/52/8 18/57/8
f 14/41/8 20/53/8 21/60/8
f 21/60/7 20/53/7 14/41/7
f 20/55/23 18/54/19 22/61/23
f 22/61/24 18/54/20 20/55/24
f 21/62/21 23/63/25 19/64/21
f 19/64/22 23/63/26 21/62/22
f 18/57/7 19/59/7 22/65/7
f 22/65/8 19/59/8 18/57/8
f 21/60/8 20/53/8 24/66/8
f 24/66/7 20/53/7 21/60/7
f 22/67/23 24/68/27 20/69/23
f 20/69/24 24/68/28 22/67/24
f 23/63/25 21/62/21 25/70/25
f 25/70/26 21/62/22 23/63/26
f 22/65/7 19/59/7 23/71/7
f 23/71/8 19/59/8 22/65/8
f 21/60/8 24/66/8 25/72/8
f 25/72/7 24/66/7 21/60/7
f 24/68/27 22/67/23 26/73/27
f 26/73/28 22/67/24 24/68/28
f 25/74/27 27/75/23 23/76/27
f 23/76/28 27/75/24 25/74/28
f 22/65/7 23/71/7 26/77/7
f 26/77/8 23/71/8 22/65/8
f 24/66/8 28/78/8 25/72/8
f 25/72/7 28/78/7 24/66/7
f 26/79/25 29/80/21 24/81/25
f 24/81/26 29/80/22 26/79/26
f 27/75/23 25/74/27 30/82/23
f 30/82/24 25/74/28 27/75/24
f 27/83/7 31/84/7 23/71/7
f 23/71/8 31/84/8 27/83/8
f 23/71/7 32/85/7 26/77/7
f 26/77/8 32/85/8 23/71/8
f 33/86/8 28/78/8 24/66/8
f 24/66/7 28/78/7 33/86/7
f 25/72/8 28/78/8 34/87/8
f 34/87/7 28/78/7 25/72/7
f 29/80/21 26/79/25 35/88/21
f 35/88/22 26/79/26 29/80/22
f 29/89/8 33/86/8 24/66/8
f 24/66/7 33/86/7 29/89/7
f 36/90/8 30/91/8 25/72/8
f 25/72/7 30/91/7 36/90/7
f 30/92/23 37/93/19 27/94/23
f 27/94/24 37/93/20 30/92/24
f 27/83/7 38/95/7 31/84/7
f 31/84/8 38/95/8 27/83/8
f 31/84/7 32/85/7 23/71/7
f 23/71/8 32/85/8 31/84/8
f 26/77/7 32/85/7 39/96/7
f 39/96/8 32/85/8 26/77/8
f 40/97/8 28/78/8 33/86/8
f 33/86/7 28/78/7 40/97/7
f 34/87/8 28/78/8 41/98/8
f 41/98/7 28/78/7 34/87/7
f 36/90/8 25/72/8 34/87/8
f 34/87/7 25/72/7 36/90/7
f 42/99/7 35/100/7 26/77/7
f 26/77/8 35/100/8 42/99/8
f 35/101/21 43/102/11 29/103/21
f 29/103/22 43/102/12 35/101/22
f 29/89/8 44/104/8 33/86/8
f 33/86/7 44/104/7 29/89/7
f 45/105/8 30/91/8 36/90/8
f 36/90/7 30/91/7 45/105/7
f 37/93/19 30/92/23 46/106/19
f 46/106/20 30/92/24 37/93/20
f 37/107/7 38/95/7 27/83/7
f 27/83/8 38/95/8 37/107/8
f 36/108/21 31/109/25 38/110/21
f 38/110/22 31/109/26 36/108/22
f 31/84/7 47/111/7 32/85/7
f 32/85/8 47/111/8 31/84/8
f 39/96/7 32/85/7 48/112/7
f 48/112/8 32/85/8 39/96/8
f 42/99/7 26/77/7 39/96/7
f 39/96/8 26/77/8 42/99/8
f 49/113/8 28/78/8 40/97/8
f 40/97/7 28/78/7 49/113/7
f 50/114/8 40/97/8 33/86/8
f 33/86/7 40/97/7 50/114/7
f 41/98/8 28/78/8 51/115/8
f 51/115/7 28/78/7 41/98/7
f 52/116/8 34/87/8 41/98/8
f 41/98/7 34/87/7 52/116/7
f 31/109/25 36/108/21 34/117/25
f 34/117/26 36/108/22 31/109/26
f 53/118/7 35/100/7 42/99/7
f 42/99/8 35/100/8 53/118/8
f 43/102/11 35/101/21 54/119/11
f 54/119/12 35/101/22 43/102/12
f 43/120/8 44/104/8 29/89/8
f 29/89/7 44/104/7 43/120/7
f 42/121/23 33/122/27 44/123/23
f 44/123/24 33/122/28 42/121/24
f 45/105/8 46/124/8 30/91/8
f 30/91/7 46/124/7 45/105/7
f 38/125/21 45/126/11 36/127/21
f 36/127/22 45/126/12 38/125/22
f 55/128/17 37/129/19 46/130/19
f 46/130/20 37/129/20 55/128/18
f 37/107/7 56/131/7 38/95/7
f 38/95/8 56/131/8 37/107/8
f 57/132/7 47/111/7 31/84/7
f 31/84/8 47/111/8 57/132/8
f 47/133/29 51/134/29 32/135/29
f 32/135/30 51/134/30 47/133/30
f 58/136/7 48/112/7 32/85/7
f 32/85/8 48/112/8 58/136/8
f 59/137/7 39/96/7 48/112/7
f 48/112/8 39/96/8 59/137/8
f 33/122/27 42/121/23 39/138/27
f 39/138/28 42/121/24 33/122/28
f 28/78/8 49/113/8 60/139/8
f 60/139/7 49/113/7 28/78/7
f 48/133/29 49/140/29 40/141/29
f 40/141/30 49/140/30 48/133/30
f 50/114/8 61/142/8 40/97/8
f 40/97/7 61/142/7 50/114/7
f 39/143/25 50/144/21 33/145/25
f 33/145/26 50/144/22 39/143/26
f 28/139/10 32/146/10 51/140/10
f 51/140/9 32/146/9 28/139/9
f 51/134/29 47/133/29 41/141/29
f 41/141/30 47/133/30 51/134/30
f 52/116/8 62/147/8 34/87/8
f 34/87/7 62/147/7 52/116/7
f 47/148/25 52/149/21 41/150/25
f 41/150/26 52/149/22 47/148/26
f 34/151/27 57/152/23 31/153/27
f 31/153/28 57/152/24 34/151/28
f 53/118/7 54/154/7 35/100/7
f 35/100/8 54/154/8 53/118/8
f 44/155/23 53/156/19 42/157/23
f 42/157/24 53/156/20 44/155/24
f 63/158/5 43/159/11 54/160/11
f 54/160/12 43/159/12 63/158/6
f 43/120/8 64/161/8 44/104/8
f 44/104/7 64/161/7 43/120/7
f 65/162/8 46/124/8 45/105/8
f 45/105/7 46/124/7 65/162/7
f 45/126/11 38/125/21 56/163/11
f 56/163/12 38/125/22 45/126/12
f 37/129/19 55/128/17 66/164/17
f 66/164/18 55/128/18 37/129/20
f 65/162/8 55/165/8 46/124/8
f 46/124/7 55/165/7 65/162/7
f 66/166/7 56/131/7 37/107/7
f 37/107/8 56/131/8 66/166/8
f 57/132/7 67/167/7 47/111/7
f 47/111/8 67/167/8 57/132/8
f 68/139/7 48/112/7 58/136/7
f 58/136/8 48/112/8 68/139/8
f 32/146/10 28/139/10 58/168/10
f 58/168/9 28/139/9 32/146/9
f 59/137/7 69/169/7 39/96/7
f 39/96/8 69/169/8 59/137/8
f 40/170/27 59/171/23 48/172/27
f 48/172/28 59/171/24 40/170/28
f 49/113/9 68/173/9 60/139/9
f 60/139/10 68/173/10 49/113/10
f 68/174/30 28/134/30 60/140/30
f 60/140/29 28/134/29 68/174/29
f 49/140/29 48/133/29 70/146/29
f 70/146/30 48/133/30 49/140/30
f 71/175/8 61/142/8 50/114/8
f 50/114/7 61/142/7 71/175/7
f 59/171/23 40/170/27 61/176/23
f 61/176/24 40/170/28 59/171/24
f 50/144/21 39/143/25 69/177/21
f 69/177/22 39/143/26 50/144/22
f 72/178/8 62/147/8 52/116/8
f 52/116/7 62/147/7 72/178/7
f 57/152/23 34/151/27 62/179/23
f 62/179/24 34/151/28 57/152/24
f 52/149/21 47/148/25 67/180/21
f 67/180/22 47/148/26 52/149/22
f 73/181/7 54/154/7 53/118/7
f 53/118/8 54/154/8 73/181/8
f 53/156/19 44/155/23 64/182/19
f 64/182/20 44/155/24 53/156/20
f 43/159/11 63/158/5 74/183/5
f 74/183/6 63/158/6 43/159/12
f 73/181/7 63/184/7 54/154/7
f 54/154/8 63/184/8 73/181/8
f 74/185/8 64/161/8 43/120/8
f 43/120/7 64/161/7 74/185/7
f 45/186/11 75/187/5 65/188/5
f 65/188/6 75/187/6 45/186/12
f 75/187/5 45/186/11 56/189/11
f 56/189/12 45/186/12 75/187/6
f 76/190/15 66/191/17 55/192/17
f 55/192/18 66/191/18 76/190/16
f 77/193/8 55/165/8 65/162/8
f 65/162/7 55/165/7 77/193/7
f 66/166/7 75/194/7 56/131/7
f 56/131/8 75/194/8 66/166/8
f 78/195/7 67/167/7 57/132/7
f 57/132/8 67/167/8 78/195/8
f 48/112/7 68/139/7 70/113/7
f 70/113/8 68/139/8 48/112/8
f 28/134/30 68/174/30 58/196/30
f 58/196/29 68/174/29 28/134/29
f 79/197/7 69/169/7 59/137/7
f 59/137/8 69/169/8 79/197/8
f 68/173/9 49/113/9 70/198/9
f 70/198/10 49/113/10 68/173/10
f 71/175/8 80/199/8 61/142/8
f 61/142/7 80/199/7 71/175/7
f 69/200/21 71/201/11 50/202/21
f 50/202/22 71/201/12 69/200/22
f 61/203/23 79/204/19 59/205/23
f 59/205/24 79/204/20 61/203/24
f 72/178/8 81/206/8 62/147/8
f 62/147/7 81/206/7 72/178/7
f 67/207/21 72/208/11 52/209/21
f 52/209/22 72/208/12 67/207/22
f 62/210/23 78/211/19 57/212/23
f 57/212/24 78/211/20 62/210/24
f 53/213/19 82/214/17 73/215/17
f 73/215/18 82/214/18 53/213/20
f 82/214/17 53/213/19 64/216/19
f 64/216/20 53/213/20 82/214/18
f 83/217/2 74/218/5 63/219/5
f 63/219/6 74/218/6 83/217/3
f 84/220/7 63/184/7 73/181/7
f 73/181/8 63/184/8 84/220/8
f 74/185/8 82/221/8 64/161/8
f 64/161/7 82/221/7 74/185/7
f 85/222/2 65/223/5 75/224/5
f 75/224/6 65/223/6 85/222/3
f 66/191/17 76/190/15 86/225/15
f 86/225/16 76/190/16 66/191/18
f 77/193/8 76/226/8 55/165/8
f 55/165/7 76/226/7 77/193/7
f 65/223/5 85/222/2 77/227/2
f 77/227/3 85/222/3 65/223/6
f 86/228/7 75/194/7 66/166/7
f 66/166/8 75/194/8 86/228/8
f 78/195/7 87/229/7 67/167/7
f 67/167/8 87/229/8 78/195/8
f 79/197/7 88/230/7 69/169/7
f 69/169/8 88/230/8 79/197/8
f 89/231/8 80/199/8 71/175/8
f 71/175/7 80/199/7 89/231/7
f 79/204/19 61/203/23 80/232/19
f 80/232/20 61/203/24 79/204/20
f 71/201/11 69/200/21 88/233/11
f 88/233/12 69/200/22 71/201/12
f 90/234/8 81/206/8 72/178/8
f 72/178/7 81/206/7 90/234/7
f 78/211/19 62/210/23 81/235/19
f 81/235/20 62/210/24 78/211/20
f 72/208/11 67/207/21 87/236/11
f 87/236/12 67/207/22 72/208/12
f 91/237/15 73/238/17 82/239/17
f 82/239/18 73/238/18 91/237/16
f 74/218/5 83/217/2 92/240/2
f 92/240/3 83/217/3 74/218/6
f 84/220/7 83/241/7 63/184/7
f 63/184/8 83/241/8 84/220/8
f 73/238/17 91/237/15 84/242/15
f 84/242/16 91/237/16 73/238/18
f 92/243/8 82/221/8 74/185/8
f 74/185/7 82/221/7 92/243/7
f 86/228/7 85/244/7 75/194/7
f 75/194/8 85/244/8 86/228/8
f 93/245/13 86/246/15 76/247/15
f 76/247/16 86/246/16 93/245/14
f 94/248/8 76/226/8 77/193/8
f 77/193/7 76/226/7 94/248/7
f 95/249/1 77/250/2 85/251/2
f 85/251/3 77/250/3 95/249/4
f 96/252/7 87/229/7 78/195/7
f 78/195/8 87/229/8 96/252/8
f 97/253/7 88/230/7 79/197/7
f 79/197/8 88/230/8 97/253/8
f 89/231/8 98/254/8 80/199/8
f 80/199/7 98/254/7 89/231/7
f 71/255/11 99/256/5 89/257/5
f 89/257/6 99/256/6 71/255/12
f 98/258/17 79/259/19 80/260/19
f 80/260/20 79/259/20 98/258/18
f 99/256/5 71/255/11 88/261/11
f 88/261/12 71/255/12 99/256/6
f 90/234/8 100/262/8 81/206/8
f 81/206/7 100/262/7 90/234/7
f 72/263/11 101/264/5 90/265/5
f 90/265/6 101/264/6 72/263/12
f 100/266/17 78/267/19 81/268/19
f 81/268/20 78/267/20 100/266/18
f 101/264/5 72/263/11 87/269/11
f 87/269/12 72/263/12 101/264/6
f 92/243/8 91/270/8 82/221/8
f 82/221/7 91/270/7 92/243/7
f 102/271/1 92/272/2 83/273/2
f 83/273/3 92/272/3 102/271/4
f 103/274/7 83/241/7 84/220/7
f 84/220/8 83/241/8 103/274/8
f 104/275/13 84/276/15 91/277/15
f 91/277/16 84/276/16 104/275/14
f 105/278/7 85/244/7 86/228/7
f 86/228/8 85/244/8 105/278/8
f 86/246/15 93/245/13 105/279/13
f 105/279/14 93/245/14 86/246/16
f 94/248/8 93/280/8 76/226/8
f 76/226/7 93/280/7 94/248/7
f 77/250/2 95/249/1 94/281/1
f 94/281/4 95/249/4 77/250/3
f 105/278/7 95/282/7 85/244/7
f 85/244/8 95/282/8 105/278/8
f 96/252/7 101/283/7 87/229/7
f 87/229/8 101/283/8 96/252/8
f 78/267/19 100/266/17 96/284/17
f 96/284/18 100/266/18 78/267/20
f 97/253/7 99/285/7 88/230/7
f 88/230/8 99/285/8 97/253/8
f 79/259/19 98/258/17 97/286/17
f 97/286/18 98/258/18 79/259/20
f 106/287/8 98/254/8 89/231/8
f 89/231/7 98/254/7 106/287/7
f 107/288/2 89/289/5 99/290/5
f 99/290/6 89/289/6 107/288/3
f 108/291/8 100/262/8 90/234/8
f 90/234/7 100/262/7 108/291/7
f 109/292/2 90/293/5 101/294/5
f 101/294/6 90/293/6 109/292/3
f 110/295/8 91/270/8 92/243/8
f 92/243/7 91/270/7 110/295/7
f 92/272/2 102/271/1 110/296/1
f 110/296/4 102/271/4 92/272/3
f 103/274/7 102/297/7 83/241/7
f 83/241/8 102/297/8 103/274/8
f 84/276/15 104/275/13 103/298/13
f 103/298/14 104/275/14 84/276/16
f 110/295/8 104/299/8 91/270/8
f 91/270/7 104/299/7 110/295/7
f 111/300/9 105/301/13 93/302/13
f 93/302/14 105/301/14 111/300/10
f 93/280/8 94/248/8 111/303/8
f 111/303/7 94/248/7 93/280/7
f 112/304/9 94/305/1 95/306/1
f 95/306/4 94/305/4 112/304/10
f 95/282/7 105/278/7 112/307/7
f 112/307/8 105/278/8 95/282/8
f 113/308/7 101/283/7 96/252/7
f 96/252/8 101/283/8 113/308/8
f 114/309/15 96/310/17 100/311/17
f 100/311/18 96/310/18 114/309/16
f 115/312/7 99/285/7 97/253/7
f 97/253/8 99/285/8 115/312/8
f 116/313/15 97/314/17 98/315/17
f 98/315/18 97/314/18 116/313/16
f 106/287/8 116/316/8 98/254/8
f 98/254/7 116/316/7 106/287/7
f 89/289/5 107/288/2 106/317/2
f 106/317/3 107/288/3 89/289/6
f 115/312/7 107/318/7 99/285/7
f 99/285/8 107/318/8 115/312/8
f 108/291/8 114/319/8 100/262/8
f 100/262/7 114/319/7 108/291/7
f 90/293/5 109/292/2 108/320/2
f 108/320/3 109/292/3 90/293/6
f 113/308/7 109/321/7 101/283/7
f 101/283/8 109/321/8 113/308/8
f 117/322/9 110/323/1 102/324/1
f 102/324/4 110/323/4 117/322/10
f 102/297/7 103/274/7 117/325/7
f 117/325/8 103/274/8 102/297/8
f 118/326/9 103/327/13 104/328/13
f 104/328/14 103/327/14 118/326/10
f 104/299/8 110/295/8 118/329/8
f 118/329/7 110/295/7 104/299/7
f 105/301/13 111/300/9 112/330/9
f 112/330/10 111/300/10 105/301/14
f 94/305/1 112/304/9 111/331/9
f 111/331/10 112/304/10 94/305/4
f 96/310/17 114/309/15 113/332/15
f 113/332/16 114/309/16 96/310/18
f 97/314/17 116/313/15 115/333/15
f 115/333/16 116/313/16 97/314/18
f 119/334/8 116/316/8 106/287/8
f 106/287/7 116/316/7 119/334/7
f 120/335/1 106/336/2 107/337/2
f 107/337/3 106/336/3 120/335/4
f 121/338/7 107/318/7 115/312/7
f 115/312/8 107/318/8 121/338/8
f 122/339/8 114/319/8 108/291/8
f 108/291/7 114/319/7 122/339/7
f 123/340/1 108/341/2 109/342/2
f 109/342/3 108/341/3 123/340/4
f 124/343/7 109/321/7 113/308/7
f 113/308/8 109/321/8 124/343/8
f 110/323/1 117/322/9 118/344/9
f 118/344/10 117/322/10 110/323/4
f 103/327/13 118/326/9 117/345/9
f 117/345/10 118/326/10 103/327/14
f 125/346/13 113/347/15 114/348/15
f 114/348/16 113/347/16 125/346/14
f 126/349/13 115/350/15 116/351/15
f 116/351/16 115/350/16 126/349/14
f 119/334/8 126/352/8 116/316/8
f 116/316/7 126/352/7 119/334/7
f 106/336/2 120/335/1 119/353/1
f 119/353/4 120/335/4 106/336/3
f 121/338/7 120/354/7 107/318/7
f 107/318/8 120/354/8 121/338/8
f 115/350/15 126/349/13 121/355/13
f 121/355/14 126/349/14 115/350/16
f 122/339/8 125/356/8 114/319/8
f 114/319/7 125/356/7 122/339/7
f 108/341/2 123/340/1 122/357/1
f 122/357/4 123/340/4 108/341/3
f 124/343/7 123/358/7 109/321/7
f 109/321/8 123/358/8 124/343/8
f 113/347/15 125/346/13 124/359/13
f 124/359/14 125/346/14 113/347/16
f 126/352/8 119/334/8 127/360/8
f 127/360/7 119/334/7 126/352/7
f 128/361/9 119/362/1 120/363/1
f 120/363/4 119/362/4 128/361/10
f 120/354/7 121/338/7 128/364/7
f 128/364/8 121/338/8 120/354/8
f 127/365/9 121/366/13 126/367/13
f 126/367/14 121/366/14 127/365/10
f 125/356/8 122/339/8 129/368/8
f 129/368/7 122/339/7 125/356/7
f 130/369/9 122/370/1 123/371/1
f 123/371/4 122/370/4 130/369/10
f 123/358/7 124/343/7 130/372/7
f 130/372/8 124/343/8 123/358/8
f 129/373/9 124/374/13 125/375/13
f 125/375/14 124/374/14 129/373/10
f 119/362/1 128/361/9 127/376/9
f 127/376/10 128/361/10 119/362/4
f 121/366/13 127/365/9 128/377/9
f 128/377/10 127/365/10 121/366/14
f 122/370/1 130/369/9 129/378/9
f 129/378/10 130/369/10 122/370/4
f 124/374/13 129/373/9 130/379/9
f 130/379/10 129/373/10 124/374/14
