# SSTK version 0.8.0
# 52
mtllib original-52.mtl
o Moulding-510.80.16_2/Moulding-510.80.16_1_2/mesh61/mesh61-geometry#mesh61-geometry
v -0.284551 -0.890152 0.201181
v -0.284246 -0.891158 -0.220324
v -0.284246 -0.891158 0.201181
v -0.284551 -0.890152 -0.220324
v -0.283751 -0.892086 -0.220324
v -0.284551 -0.888059 0.201181
v -0.284653 -0.889106 0.201181
v -0.284246 -0.887053 -0.220324
v -0.283751 -0.892086 0.201181
v -0.283751 -0.886126 -0.220324
v -0.284246 -0.887053 0.201181
v -0.284653 -0.889106 -0.220324
v -0.284551 -0.888059 -0.220324
v -0.283085 -0.892899 -0.220324
v -0.283085 -0.885312 -0.220324
v -0.283751 -0.886126 0.201181
v -0.283085 -0.892899 0.201181
v -0.283085 -0.885312 0.201181
v -0.282274 -0.893567 0.201181
v -0.282274 -0.884644 -0.220324
v -0.282274 -0.893567 -0.220324
v -0.282274 -0.884644 0.201181
v -0.281347 -0.894065 0.201181
v -0.281347 -0.884147 -0.220324
v -0.281347 -0.894065 -0.220324
v -0.281347 -0.884147 0.201181
v -0.282274 -0.894562 0.201181
v -0.272256 -0.837864 -0.220324
v -0.282274 -0.883649 -0.220324
v -0.282274 -0.894562 -0.220324
v -0.281347 -0.903982 0.201181
v -0.272256 -0.903982 0.201181
v -0.281347 -0.874229 -0.220324
v -0.281347 -0.903982 -0.220324
v -0.282274 -0.883649 0.201181
v -0.282274 -0.903485 -0.220324
v -0.283085 -0.895230 0.201181
v -0.282274 -0.903485 0.201181
v -0.281347 -0.874229 0.201181
v -0.281347 -0.864311 -0.220324
v -0.272256 -0.903982 -0.220324
v -0.282274 -0.874726 0.201181
v -0.283085 -0.882981 -0.220324
v -0.282274 -0.874726 -0.220324
v -0.283085 -0.902817 -0.220324
v -0.283085 -0.895230 -0.220324
v -0.281347 -0.864311 0.201181
v -0.285480 -0.864311 -0.220324
v -0.282274 -0.873732 -0.220324
v -0.283085 -0.875395 0.201181
v -0.283085 -0.882981 0.201181
v -0.283751 -0.896044 -0.220324
v -0.283085 -0.902817 0.201181
v -0.272256 -0.837864 0.201181
v -0.282274 -0.864809 0.201181
v -0.285480 -0.837864 -0.220324
v -0.282274 -0.864809 -0.220324
v -0.283751 -0.882168 0.201181
v -0.283085 -0.875395 -0.220324
v -0.283751 -0.902003 -0.220324
v -0.283751 -0.896044 0.201181
v -0.285480 -0.837864 0.201181
v -0.282274 -0.873732 0.201181
v -0.285480 -0.864311 0.201181
v -0.283085 -0.873064 -0.220324
v -0.283751 -0.876208 0.201181
v -0.283751 -0.882168 -0.220324
v -0.283751 -0.902003 0.201181
v -0.284246 -0.896971 -0.220324
v -0.284246 -0.901076 -0.220324
v -0.283085 -0.865477 0.201181
v -0.283085 -0.865477 -0.220324
v -0.283751 -0.876208 -0.220324
v -0.284246 -0.881240 0.201181
v -0.284246 -0.877136 0.201181
v -0.284246 -0.901076 0.201181
v -0.284246 -0.896971 0.201181
v -0.283085 -0.873064 0.201181
v -0.283751 -0.872250 -0.220324
v -0.284246 -0.877136 -0.220324
v -0.284246 -0.881240 -0.220324
v -0.284551 -0.897977 -0.220324
v -0.284551 -0.900070 -0.220324
v -0.284551 -0.900070 0.201181
v -0.283751 -0.866290 0.201181
v -0.283751 -0.866290 -0.220324
v -0.283751 -0.872250 0.201181
v -0.284551 -0.880234 0.201181
v -0.284551 -0.878142 0.201181
v -0.284551 -0.878142 -0.220324
v -0.284551 -0.897977 0.201181
v -0.284246 -0.871323 -0.220324
v -0.284246 -0.871323 0.201181
v -0.284551 -0.880234 -0.220324
v -0.284653 -0.899023 -0.220324
v -0.284653 -0.899023 0.201181
v -0.284246 -0.867218 0.201181
v -0.284246 -0.867218 -0.220324
v -0.284653 -0.879188 0.201181
v -0.284653 -0.879188 -0.220324
v -0.284551 -0.870316 -0.220324
v -0.284551 -0.870316 0.201181
v -0.284551 -0.868224 0.201181
v -0.284551 -0.868224 -0.220324
v -0.284653 -0.869270 -0.220324
v -0.284653 -0.869270 0.201181
vt -0.254265 0.112386
vt -0.533136 0.11169
vt -0.254265 0.11169
vt -0.533136 0.112386
vt -0.533136 0.160295
vt -0.254265 0.160991
vt -0.533136 0.160991
vt -0.285365 0.032407
vt -0.285365 0.031023
vt -0.285163 0.030357
vt -0.254265 0.05949
vt -0.533136 0.058795
vt -0.254265 0.058795
vt 0.285365 0.031023
vt 0.285163 0.033073
vt 0.285163 0.030357
vt -0.254265 0.160295
vt 0.284836 0.033686
vt 0.284836 0.029743
vt -0.285433 0.031715
vt -0.285163 0.033073
vt -0.533136 0.05949
vt 0.285365 0.032407
vt -0.533136 0.202749
vt -0.254265 0.203444
vt -0.533136 0.203444
vt -0.284836 0.029743
vt 0.284396 0.034225
vt -0.254265 0.00433
vt -0.533136 0.003635
vt -0.254265 0.003635
vt -0.254265 -0.050982
vt -0.533136 -0.051678
vt -0.254265 -0.051678
vt 0.285433 0.031715
vt -0.533136 -0.050982
vt -0.533136 -0.105025
vt -0.254265 -0.104329
vt -0.533136 -0.104329
vt -0.254265 0.202749
vt 0.284396 0.029205
vt -0.284836 0.033686
vt -0.533136 -0.154363
vt -0.254265 -0.153668
vt -0.533136 -0.153668
vt -0.533136 0.00433
vt -0.254265 -0.105025
vt -0.254265 -0.154363
vt -0.533136 0.23812
vt -0.254265 0.237425
vt -0.254265 0.23812
vt -0.284396 0.029205
vt 0.283859 0.034667
vt -0.254265 -0.197804
vt -0.533136 -0.197109
vt -0.533136 -0.197804
vt -0.284396 0.034225
vt -0.533136 0.237425
vt -0.283859 0.028763
vt 0.283859 0.028763
vt -0.254265 -0.197109
vt -0.533136 0.263691
vt -0.254265 0.262996
vt -0.254265 0.263691
vt -0.283859 0.034667
vt 0.283246 0.034996
vt -0.254265 -0.233684
vt -0.533136 -0.232988
vt -0.533136 -0.233684
vt -0.533136 0.262996
vt -0.283246 0.028434
vt 0.283246 0.028434
vt -0.254265 -0.232988
vt -0.533136 -0.236092
vt -0.254265 -0.236788
vt -0.254265 -0.236092
vt -0.283246 0.034996
vt 0.277231 0.065617
vt -0.254265 0.2661
vt -0.533136 0.266796
vt -0.533136 0.2661
vt -0.533136 -0.236788
vt -0.283859 0.028105
vt -0.283246 0.021872
vt -0.277231 0.021872
vt 0.283246 0.041557
vt 0.283246 0.021872
vt -0.254265 0.266796
vt 0.283859 0.035325
vt 0.283859 0.022201
vt 0.283859 0.028105
vt -0.533136 -0.201279
vt -0.254265 -0.201975
vt -0.254265 -0.201279
vt -0.283859 0.022201
vt -0.283246 0.041557
vt 0.283246 0.048119
vt 0.277231 0.021872
vt -0.283859 0.041228
vt -0.283859 0.035325
vt -0.254265 0.241595
vt -0.533136 0.242291
vt -0.533136 0.241595
vt 0.283859 0.041228
vt 0.284396 0.022643
vt -0.533136 -0.201975
vt -0.284396 0.027663
vt -0.533136 0.260587
vt -0.254265 0.259892
vt -0.254265 0.260587
vt 0.254265 -0.283246
vt 0.533136 -0.277231
vt 0.254265 -0.277231
vt -0.283246 0.048119
vt 0.28598 0.048119
vt 0.283859 0.041886
vt 0.533136 0.065617
vt 0.254265 0.021872
vt 0.533136 0.021872
vt 0.533136 -0.283246
vt -0.533136 0.259892
vt -0.284396 0.040786
vt -0.254265 0.242291
vt 0.284396 0.035767
vt -0.254265 -0.230579
vt -0.533136 -0.229884
vt -0.533136 -0.230579
vt 0.284396 0.027663
vt -0.254265 0.233254
vt -0.533136 0.23395
vt -0.533136 0.233254
vt -0.533136 -0.159441
vt -0.254265 -0.158745
vt -0.533136 -0.158745
vt -0.284396 0.022643
vt -0.277231 0.065617
vt -0.283859 0.04779
vt -0.254265 -0.229884
vt 0.28598 0.065617
vt 0.533136 -0.28598
vt 0.283859 0.04779
vt -0.254265 0.269204
vt -0.533136 0.2699
vt -0.533136 0.269204
vt 0.254265 0.065617
vt -0.284396 0.035767
vt -0.533136 -0.192938
vt -0.254265 -0.193633
vt -0.254265 -0.192938
vt -0.254265 0.208521
vt -0.533136 0.207826
vt -0.254265 0.207826
vt 0.284396 0.040786
vt 0.284836 0.023182
vt -0.254265 0.23395
vt -0.254265 -0.159441
vt 0.284836 0.027125
vt -0.284836 0.027125
vt -0.28598 0.065617
vt -0.283859 0.041886
vt -0.533136 -0.22678
vt -0.254265 -0.227475
vt -0.254265 -0.22678
vt -0.533136 0.048119
vt -0.254265 0.065617
vt -0.533136 0.065617
vt -0.254265 -0.28598
vt -0.533136 -0.277231
vt -0.533136 -0.28598
vt 0.254265 -0.28598
vt 0.284396 0.042328
vt -0.533136 -0.227475
vt -0.254265 0.2699
vt -0.254265 -0.277231
vt -0.284836 0.040248
vt -0.533136 -0.193633
vt -0.533136 0.208521
vt -0.284836 0.036305
vt 0.284836 0.036305
vt -0.533136 0.197671
vt -0.254265 0.198367
vt -0.533136 0.198367
vt -0.254265 0.197671
vt -0.533136 -0.110814
vt -0.254265 -0.110119
vt -0.533136 -0.110119
vt 0.285163 0.023795
vt -0.284836 0.023182
vt -0.28598 0.048119
vt -0.284396 0.047348
vt -0.254265 0.048119
vt 0.284396 0.047348
vt -0.254265 0.245766
vt -0.533136 0.246462
vt -0.533136 0.245766
vt -0.533136 -0.188767
vt -0.254265 -0.189463
vt -0.254265 -0.188767
vt -0.254265 -0.148591
vt -0.533136 -0.149286
vt -0.254265 -0.149286
vt -0.533136 -0.148591
vt -0.254265 0.16678
vt -0.533136 0.166085
vt -0.254265 0.166085
vt -0.285163 0.039634
vt 0.284836 0.040248
vt -0.254265 0.155201
vt -0.533136 0.154506
vt -0.254265 0.154506
vt -0.254265 -0.110814
vt 0.285163 0.026511
vt -0.533136 0.155201
vt -0.285163 0.026511
vt -0.284396 0.042328
vt 0.284836 0.042867
vt -0.533136 -0.189463
vt -0.254265 0.246462
vt -0.533136 -0.099235
vt -0.254265 -0.09854
vt -0.533136 -0.09854
vt -0.533136 0.16678
vt -0.285163 0.036919
vt -0.254265 -0.099235
vt 0.285163 0.036919
vt -0.285163 0.023795
vt -0.533136 -0.057958
vt -0.254265 -0.057262
vt -0.533136 -0.057262
vt 0.285365 0.024461
vt -0.254265 0.106106
vt -0.533136 0.10541
vt -0.254265 0.10541
vt -0.284836 0.04681
vt 0.284836 0.04681
vt -0.533136 0.212903
vt -0.254265 0.213599
vt -0.533136 0.213599
vt -0.533136 -0.144209
vt -0.254265 -0.143513
vt -0.533136 -0.143513
vt -0.254265 0.212903
vt 0.285163 0.039634
vt -0.254265 0.118666
vt -0.533136 0.11797
vt -0.254265 0.11797
vt -0.285365 0.038969
vt -0.533136 -0.045398
vt -0.254265 -0.044702
vt -0.533136 -0.044702
vt -0.285365 0.025845
vt -0.254265 -0.057958
vt 0.285365 0.025845
vt -0.533136 0.106106
vt -0.285365 0.024461
vt -0.284836 0.042867
vt -0.254265 -0.144209
vt 0.285163 0.04348
vt -0.254265 0.17257
vt -0.533136 0.171874
vt -0.254265 0.171874
vt 0.285365 0.037584
vt -0.533136 0.118666
vt -0.285365 0.037584
vt -0.254265 -0.045398
vt 0.285365 0.038969
vt -0.533136 -0.002895
vt -0.254265 -0.0022
vt -0.533136 -0.0022
vt 0.285433 0.025153
vt -0.254265 0.05296
vt -0.533136 0.052265
vt -0.254265 0.052265
vt -0.285433 0.025153
vt -0.285163 0.046196
vt -0.533136 -0.093446
vt -0.254265 -0.09275
vt -0.533136 -0.09275
vt 0.285163 0.046196
vt -0.533136 0.17257
vt -0.285163 0.04348
vt -0.254265 0.066021
vt -0.533136 0.065325
vt -0.254265 0.065325
vt -0.285433 0.038276
vt -0.533136 0.010165
vt -0.254265 0.010861
vt -0.533136 0.010861
vt 0.285433 0.038276
vt -0.254265 -0.002895
vt -0.533136 0.05296
vt -0.254265 -0.093446
vt 0.285365 0.044146
vt -0.254265 0.124946
vt -0.533136 0.12425
vt -0.254265 0.12425
vt -0.285365 0.04553
vt -0.533136 0.066021
vt -0.254265 0.010165
vt -0.533136 -0.039118
vt -0.254265 -0.038422
vt -0.533136 -0.038422
vt 0.285365 0.04553
vt -0.533136 0.124946
vt -0.285365 0.044146
vt -0.254265 -0.039118
vt 0.285433 0.044838
vt -0.254265 0.072551
vt -0.533136 0.071855
vt -0.254265 0.071855
vt -0.285433 0.044838
vt -0.533136 0.016695
vt -0.254265 0.017391
vt -0.533136 0.017391
vt -0.533136 0.072551
vt -0.254265 0.016695
vn -0.9808532986144567 -0.1947480592897898 0
vn -0.9241461724285951 -0.3820390712814296 0
vn 0.9241461724285951 0.3820390712814296 0
vn 0.9808532986144567 0.1947480592897898 0
vn -0.8320502943378437 -0.5547001962252291 0
vn 0.8320502943378437 0.5547001962252291 0
vn 0 0 1
vn 0 0 -1
vn -1 0 0
vn 1 0 0
vn -0.708092093870359 -0.7061200936089348 0
vn 0.708092093870359 0.7061200936089348 0
vn -0.9808532986144567 0.1947480592897898 0
vn 0.9808532986144567 -0.1947480592897898 0
vn -0.9241461724285951 0.3820390712814296 0
vn 0.9241461724285951 -0.3820390712814296 0
vn -0.8320502943378437 0.5547001962252291 0
vn 0.8320502943378437 -0.5547001962252291 0
vn -0.708092093870359 0.7061200936089348 0
vn 0.708092093870359 -0.7061200936089348 0
vn -0.5570188840395423 -0.8304998271061487 0
vn 0.5570188840395423 0.8304998271061487 0
vn -0.5570188840395423 0.8304998271061487 0
vn 0.5570188840395423 -0.8304998271061487 0
vn -0.47308688129660287 -0.8810157789421561 0
vn 0.47308688129660287 0.8810157789421561 0
vn -0.47308688129660287 0.8810157789421561 0
vn 0.47308688129660287 -0.8810157789421561 0
vn 0 -1 0
vn 0 1 0
usemtl material_0_0
f 1/1/1 2/2/2 3/3/2
f 2/2/2 1/1/1 4/4/1
f 3/3/3 2/2/3 1/1/4
f 4/4/4 1/1/4 2/2/3
f 5/5/5 3/6/2 2/7/2
f 2/7/3 3/6/3 5/5/6
f 6/8/7 1/9/7 3/10/7
f 3/10/8 1/9/8 6/8/8
f 7/11/9 4/12/1 1/13/1
f 1/13/4 4/12/4 7/11/10
f 4/14/8 8/15/8 2/16/8
f 2/16/7 8/15/7 4/14/7
f 3/6/2 5/5/5 9/17/5
f 9/17/6 5/5/6 3/6/3
f 2/16/8 10/18/8 5/19/8
f 5/19/7 10/18/7 2/16/7
f 1/9/7 6/8/7 7/20/7
f 7/20/8 6/8/8 1/9/8
f 6/8/7 3/10/7 11/21/7
f 11/21/8 3/10/8 6/8/8
f 4/12/1 7/11/9 12/22/9
f 12/22/10 7/11/10 4/12/4
f 4/14/8 13/23/8 8/15/8
f 8/15/7 13/23/7 4/14/7
f 2/16/8 8/15/8 10/18/8
f 10/18/7 8/15/7 2/16/7
f 14/24/11 9/25/5 5/26/5
f 5/26/6 9/25/6 14/24/12
f 11/21/7 3/10/7 9/27/7
f 9/27/8 3/10/8 11/21/8
f 5/19/8 10/18/8 15/28/8
f 15/28/7 10/18/7 5/19/7
f 6/29/13 12/30/9 7/31/9
f 7/31/10 12/30/10 6/29/14
f 11/32/15 13/33/13 6/34/13
f 6/34/14 13/33/14 11/32/16
f 13/23/8 4/14/8 12/35/8
f 12/35/7 4/14/7 13/23/7
f 13/33/13 11/32/15 8/36/15
f 8/36/16 11/32/16 13/33/14
f 8/37/15 16/38/17 10/39/17
f 10/39/18 16/38/18 8/37/16
f 9/25/5 14/24/11 17/40/11
f 17/40/12 14/24/12 9/25/6
f 5/19/8 15/28/8 14/41/8
f 14/41/7 15/28/7 5/19/7
f 11/21/7 9/27/7 16/42/7
f 16/42/8 9/27/8 11/21/8
f 10/43/17 18/44/19 15/45/19
f 15/45/20 18/44/20 10/43/18
f 12/30/9 6/29/13 13/46/13
f 13/46/14 6/29/14 12/30/10
f 16/38/17 8/37/15 11/47/15
f 11/47/16 8/37/16 16/38/18
f 18/44/19 10/43/17 16/48/17
f 16/48/18 10/43/18 18/44/20
f 14/49/11 19/50/21 17/51/11
f 17/51/12 19/50/22 14/49/12
f 16/42/7 9/27/7 17/52/7
f 17/52/8 9/27/8 16/42/8
f 14/41/8 15/28/8 20/53/8
f 20/53/7 15/28/7 14/41/7
f 18/54/19 20/55/23 15/56/19
f 15/56/20 20/55/24 18/54/20
f 16/42/7 17/52/7 18/57/7
f 18/57/8 17/52/8 16/42/8
f 19/50/21 14/49/11 21/58/21
f 21/58/22 14/49/12 19/50/22
f 18/57/7 17/52/7 19/59/7
f 19/59/8 17/52/8 18/57/8
f 14/41/8 20/53/8 21/60/8
f 21/60/7 20/53/7 14/41/7
f 20/55/23 18/54/19 22/61/23
f 22/61/24 18/54/20 20/55/24
f 21/62/21 23/63/25 19/64/21
f 19/64/22 23/63/26 21/62/22
f 18/57/7 19/59/7 22/65/7
f 22/65/8 19/59/8 18/57/8
f 21/60/8 20/53/8 24/66/8
f 24/66/7 20/53/7 21/60/7
f 22/67/23 24/68/27 20/69/23
f 20/69/24 24/68/28 22/67/24
f 23/63/25 21/62/21 25/70/25
f 25/70/26 21/62/22 23/63/26
f 22/65/7 19/59/7 23/71/7
f 23/71/8 19/59/8 22/65/8
f 21/60/8 24/66/8 25/72/8
f 25/72/7 24/66/7 21/60/7
f 24/68/27 22/67/23 26/73/27
f 26/73/28 22/67/24 24/68/28
f 25/74/27 27/75/23 23/76/27
f 23/76/28 27/75/24 25/74/28
f 22/65/7 23/71/7 26/77/7
f 26/77/8 23/71/8 22/65/8
f 24/66/8 28/78/8 25/72/8
f 25/72/7 28/78/7 24/66/7
f 26/79/25 29/80/21 24/81/25
f 24/81/26 29/80/22 26/79/26
f 27/75/23 25/74/27 30/82/23
f 30/82/24 25/74/28 27/75/24
f 27/83/7 31/84/7 23/71/7
f 23/71/8 31/84/8 27/83/8
f 23/71/7 32/85/7 26/77/7
f 26/77/8 32/85/8 23/71/8
f 33/86/8 28/78/8 24/66/8
f 24/66/7 28/78/7 33/86/7
f 25/72/8 28/78/8 34/87/8
f 34/87/7 28/78/7 25/72/7
f 29/80/21 26/79/25 35/88/21
f 35/88/22 26/79/26 29/80/22
f 29/89/8 33/86/8 24/66/8
f 24/66/7 33/86/7 29/89/7
f 36/90/8 30/91/8 25/72/8
f 25/72/7 30/91/7 36/90/7
f 30/92/23 37/93/19 27/94/23
f 27/94/24 37/93/20 30/92/24
f 27/83/7 38/95/7 31/84/7
f 31/84/8 38/95/8 27/83/8
f 23/71/7 31/84/7 32/85/7
f 32/85/8 31/84/8 23/71/8
f 26/77/7 32/85/7 39/96/7
f 39/96/8 32/85/8 26/77/8
f 40/97/8 28/78/8 33/86/8
f 33/86/7 28/78/7 40/97/7
f 34/87/8 28/78/8 41/98/8
f 41/98/7 28/78/7 34/87/7
f 36/90/8 25/72/8 34/87/8
f 34/87/7 25/72/7 36/90/7
f 42/99/7 35/100/7 26/77/7
f 26/77/8 35/100/8 42/99/8
f 35/101/21 43/102/11 29/103/21
f 29/103/22 43/102/12 35/101/22
f 29/89/8 44/104/8 33/86/8
f 33/86/7 44/104/7 29/89/7
f 45/105/8 30/91/8 36/90/8
f 36/90/7 30/91/7 45/105/7
f 37/93/19 30/92/23 46/106/19
f 46/106/20 30/92/24 37/93/20
f 37/107/7 38/95/7 27/83/7
f 27/83/8 38/95/8 37/107/8
f 36/108/21 31/109/25 38/110/21
f 38/110/22 31/109/26 36/108/22
f 31/111/29 41/112/29 32/113/29
f 32/113/30 41/112/30 31/111/30
f 39/96/7 32/85/7 47/114/7
f 47/114/8 32/85/8 39/96/8
f 42/99/7 26/77/7 39/96/7
f 39/96/8 26/77/8 42/99/8
f 48/115/8 28/78/8 40/97/8
f 40/97/7 28/78/7 48/115/7
f 49/116/8 40/97/8 33/86/8
f 33/86/7 40/97/7 49/116/7
f 28/117/10 32/118/10 41/119/10
f 41/119/9 32/118/9 28/117/9
f 41/112/29 31/111/29 34/120/29
f 34/120/30 31/111/30 41/112/30
f 31/109/25 36/108/21 34/121/25
f 34/121/26 36/108/22 31/109/26
f 50/122/7 35/100/7 42/99/7
f 42/99/8 35/100/8 50/122/8
f 43/102/11 35/101/21 51/123/11
f 51/123/12 35/101/22 43/102/12
f 43/124/8 44/104/8 29/89/8
f 29/89/7 44/104/7 43/124/7
f 42/125/23 33/126/27 44/127/23
f 44/127/24 33/126/28 42/125/24
f 45/105/8 46/128/8 30/91/8
f 30/91/7 46/128/7 45/105/7
f 38/129/21 45/130/11 36/131/21
f 36/131/22 45/130/12 38/129/22
f 52/132/17 37/133/19 46/134/19
f 46/134/20 37/133/20 52/132/18
f 37/107/7 53/135/7 38/95/7
f 38/95/8 53/135/8 37/107/8
f 54/136/7 47/114/7 32/85/7
f 32/85/8 47/114/8 54/136/8
f 55/137/7 39/96/7 47/114/7
f 47/114/8 39/96/8 55/137/8
f 33/126/27 42/125/23 39/138/27
f 39/138/28 42/125/24 33/126/28
f 28/78/8 48/115/8 56/139/8
f 56/139/7 48/115/7 28/78/7
f 47/111/29 48/140/29 40/120/29
f 40/120/30 48/140/30 47/111/30
f 49/116/8 57/141/8 40/97/8
f 40/97/7 57/141/7 49/116/7
f 39/142/25 49/143/21 33/144/25
f 33/144/26 49/143/22 39/142/26
f 32/118/10 28/117/10 54/145/10
f 54/145/9 28/117/9 32/118/9
f 50/122/7 51/146/7 35/100/7
f 35/100/8 51/146/8 50/122/8
f 44/147/23 50/148/19 42/149/23
f 42/149/24 50/148/20 44/147/24
f 58/150/5 43/151/11 51/152/11
f 51/152/12 43/151/12 58/150/6
f 43/124/8 59/153/8 44/104/8
f 44/104/7 59/153/7 43/124/7
f 60/154/8 46/128/8 45/105/8
f 45/105/7 46/128/7 60/154/7
f 45/130/11 38/129/21 53/155/11
f 53/155/12 38/129/22 45/130/12
f 37/133/19 52/132/17 61/156/17
f 61/156/18 52/132/18 37/133/20
f 60/154/8 52/157/8 46/128/8
f 46/128/7 52/157/7 60/154/7
f 61/158/7 53/135/7 37/107/7
f 37/107/8 53/135/8 61/158/8
f 62/159/7 47/114/7 54/136/7
f 54/136/8 47/114/8 62/159/8
f 55/137/7 63/160/7 39/96/7
f 39/96/8 63/160/8 55/137/8
f 40/161/27 55/162/23 47/163/27
f 47/163/28 55/162/24 40/161/28
f 48/164/9 62/165/9 56/166/9
f 56/166/10 62/165/10 48/164/10
f 62/167/30 28/168/30 56/169/30
f 56/169/29 28/168/29 62/167/29
f 48/140/29 47/111/29 64/170/29
f 64/170/30 47/111/30 48/140/30
f 65/171/8 57/141/8 49/116/8
f 49/116/7 57/141/7 65/171/7
f 55/162/23 40/161/27 57/172/23
f 57/172/24 40/161/28 55/162/24
f 49/143/21 39/142/25 63/173/21
f 63/173/22 39/142/26 49/143/22
f 28/168/30 62/167/30 54/174/30
f 54/174/29 62/167/29 28/168/29
f 66/175/7 51/146/7 50/122/7
f 50/122/8 51/146/8 66/175/8
f 50/148/19 44/147/23 59/176/19
f 59/176/20 44/147/24 50/148/20
f 43/151/11 58/150/5 67/177/5
f 67/177/6 58/150/6 43/151/12
f 66/175/7 58/178/7 51/146/7
f 51/146/8 58/178/8 66/175/8
f 67/179/8 59/153/8 43/124/8
f 43/124/7 59/153/7 67/179/7
f 45/180/11 68/181/5 60/182/5
f 60/182/6 68/181/6 45/180/12
f 68/181/5 45/180/11 53/183/11
f 53/183/12 45/180/12 68/181/6
f 69/184/15 61/185/17 52/186/17
f 52/186/18 61/185/18 69/184/16
f 70/187/8 52/157/8 60/154/8
f 60/154/7 52/157/7 70/187/7
f 61/158/7 68/188/7 53/135/7
f 53/135/8 68/188/8 61/158/8
f 47/114/7 62/159/7 64/189/7
f 64/189/8 62/159/8 47/114/8
f 71/190/7 63/160/7 55/137/7
f 55/137/8 63/160/8 71/190/8
f 62/165/9 48/164/9 64/191/9
f 64/191/10 48/164/10 62/165/10
f 65/171/8 72/192/8 57/141/8
f 57/141/7 72/192/7 65/171/7
f 63/193/21 65/194/11 49/195/21
f 49/195/22 65/194/12 63/193/22
f 57/196/23 71/197/19 55/198/23
f 55/198/24 71/197/20 57/196/24
f 50/199/19 73/200/17 66/201/17
f 66/201/18 73/200/18 50/199/20
f 73/200/17 50/199/19 59/202/19
f 59/202/20 50/199/20 73/200/18
f 74/203/2 67/204/5 58/205/5
f 58/205/6 67/204/6 74/203/3
f 75/206/7 58/178/7 66/175/7
f 66/175/8 58/178/8 75/206/8
f 67/179/8 73/207/8 59/153/8
f 59/153/7 73/207/7 67/179/7
f 76/208/2 60/209/5 68/210/5
f 68/210/6 60/209/6 76/208/3
f 61/185/17 69/184/15 77/211/15
f 77/211/16 69/184/16 61/185/18
f 70/187/8 69/212/8 52/157/8
f 52/157/7 69/212/7 70/187/7
f 60/209/5 76/208/2 70/213/2
f 70/213/3 76/208/3 60/209/6
f 77/214/7 68/188/7 61/158/7
f 61/158/8 68/188/8 77/214/8
f 71/190/7 78/215/7 63/160/7
f 63/160/8 78/215/8 71/190/8
f 79/216/8 72/192/8 65/171/8
f 65/171/7 72/192/7 79/216/7
f 71/197/19 57/196/23 72/217/19
f 72/217/20 57/196/24 71/197/20
f 65/194/11 63/193/21 78/218/11
f 78/218/12 63/193/22 65/194/12
f 80/219/15 66/220/17 73/221/17
f 73/221/18 66/220/18 80/219/16
f 67/204/5 74/203/2 81/222/2
f 81/222/3 74/203/3 67/204/6
f 75/206/7 74/223/7 58/178/7
f 58/178/8 74/223/8 75/206/8
f 66/220/17 80/219/15 75/224/15
f 75/224/16 80/219/16 66/220/18
f 81/225/8 73/207/8 67/179/8
f 67/179/7 73/207/7 81/225/7
f 77/214/7 76/226/7 68/188/7
f 68/188/8 76/226/8 77/214/8
f 82/227/13 77/228/15 69/229/15
f 69/229/16 77/228/16 82/227/14
f 83/230/8 69/212/8 70/187/8
f 70/187/7 69/212/7 83/230/7
f 84/231/1 70/232/2 76/233/2
f 76/233/3 70/232/3 84/231/4
f 85/234/7 78/215/7 71/190/7
f 71/190/8 78/215/8 85/234/8
f 79/216/8 86/235/8 72/192/8
f 72/192/7 86/235/7 79/216/7
f 65/236/11 87/237/5 79/238/5
f 79/238/6 87/237/6 65/236/12
f 86/239/17 71/240/19 72/241/19
f 72/241/20 71/240/20 86/239/18
f 87/237/5 65/236/11 78/242/11
f 78/242/12 65/236/12 87/237/6
f 81/225/8 80/243/8 73/207/8
f 73/207/7 80/243/7 81/225/7
f 88/244/1 81/245/2 74/246/2
f 74/246/3 81/245/3 88/244/4
f 89/247/7 74/223/7 75/206/7
f 75/206/8 74/223/8 89/247/8
f 90/248/13 75/249/15 80/250/15
f 80/250/16 75/249/16 90/248/14
f 91/251/7 76/226/7 77/214/7
f 77/214/8 76/226/8 91/251/8
f 77/228/15 82/227/13 91/252/13
f 91/252/14 82/227/14 77/228/16
f 83/230/8 82/253/8 69/212/8
f 69/212/7 82/253/7 83/230/7
f 70/232/2 84/231/1 83/254/1
f 83/254/4 84/231/4 70/232/3
f 91/251/7 84/255/7 76/226/7
f 76/226/8 84/255/8 91/251/8
f 85/234/7 87/256/7 78/215/7
f 78/215/8 87/256/8 85/234/8
f 71/240/19 86/239/17 85/257/17
f 85/257/18 86/239/18 71/240/20
f 92/258/8 86/235/8 79/216/8
f 79/216/7 86/235/7 92/258/7
f 93/259/2 79/260/5 87/261/5
f 87/261/6 79/260/6 93/259/3
f 94/262/8 80/243/8 81/225/8
f 81/225/7 80/243/7 94/262/7
f 81/245/2 88/244/1 94/263/1
f 94/263/4 88/244/4 81/245/3
f 89/247/7 88/264/7 74/223/7
f 74/223/8 88/264/8 89/247/8
f 75/249/15 90/248/13 89/265/13
f 89/265/14 90/248/14 75/249/16
f 94/262/8 90/266/8 80/243/8
f 80/243/7 90/266/7 94/262/7
f 95/267/9 91/268/13 82/269/13
f 82/269/14 91/268/14 95/267/10
f 82/253/8 83/230/8 95/270/8
f 95/270/7 83/230/7 82/253/7
f 96/271/9 83/272/1 84/273/1
f 84/273/4 83/272/4 96/271/10
f 84/255/7 91/251/7 96/274/7
f 96/274/8 91/251/8 84/255/8
f 97/275/7 87/256/7 85/234/7
f 85/234/8 87/256/8 97/275/8
f 98/276/15 85/277/17 86/278/17
f 86/278/18 85/277/18 98/276/16
f 92/258/8 98/279/8 86/235/8
f 86/235/7 98/279/7 92/258/7
f 79/260/5 93/259/2 92/280/2
f 92/280/3 93/259/3 79/260/6
f 97/275/7 93/281/7 87/256/7
f 87/256/8 93/281/8 97/275/8
f 99/282/9 94/283/1 88/284/1
f 88/284/4 94/283/4 99/282/10
f 88/264/7 89/247/7 99/285/7
f 99/285/8 89/247/8 88/264/8
f 100/286/9 89/287/13 90/288/13
f 90/288/14 89/287/14 100/286/10
f 90/266/8 94/262/8 100/289/8
f 100/289/7 94/262/7 90/266/7
f 91/268/13 95/267/9 96/290/9
f 96/290/10 95/267/10 91/268/14
f 83/272/1 96/271/9 95/291/9
f 95/291/10 96/271/10 83/272/4
f 85/277/17 98/276/15 97/292/15
f 97/292/16 98/276/16 85/277/18
f 101/293/8 98/279/8 92/258/8
f 92/258/7 98/279/7 101/293/7
f 102/294/1 92/295/2 93/296/2
f 93/296/3 92/295/3 102/294/4
f 103/297/7 93/281/7 97/275/7
f 97/275/8 93/281/8 103/297/8
f 94/283/1 99/282/9 100/298/9
f 100/298/10 99/282/10 94/283/4
f 89/287/13 100/286/9 99/299/9
f 99/299/10 100/286/10 89/287/14
f 104/300/13 97/301/15 98/302/15
f 98/302/16 97/301/16 104/300/14
f 101/293/8 104/303/8 98/279/8
f 98/279/7 104/303/7 101/293/7
f 92/295/2 102/294/1 101/304/1
f 101/304/4 102/294/4 92/295/3
f 103/297/7 102/305/7 93/281/7
f 93/281/8 102/305/8 103/297/8
f 97/301/15 104/300/13 103/306/13
f 103/306/14 104/300/14 97/301/16
f 104/303/8 101/293/8 105/307/8
f 105/307/7 101/293/7 104/303/7
f 106/308/9 101/309/1 102/310/1
f 102/310/4 101/309/4 106/308/10
f 102/305/7 103/297/7 106/311/7
f 106/311/8 103/297/8 102/305/8
f 105/312/9 103/313/13 104/314/13
f 104/314/14 103/313/14 105/312/10
f 101/309/1 106/308/9 105/315/9
f 105/315/10 106/308/10 101/309/4
f 103/313/13 105/312/9 106/316/9
f 106/316/10 105/312/10 103/313/14
