# SSTK version 0.8.0
# 51
mtllib original-51.mtl
o Moulding-510.80.16_1/Moulding-510.80.16/mesh60/mesh60-geometry#mesh60-geometry
v 0.288516 -0.891158 0.201181
v 0.288516 -0.891158 -0.220324
v 0.288821 -0.890152 0.201181
v 0.288021 -0.892086 -0.220324
v 0.288821 -0.890152 -0.220324
v 0.288821 -0.888059 0.201181
v 0.288021 -0.892086 0.201181
v 0.288021 -0.886126 -0.220324
v 0.288924 -0.889106 0.201181
v 0.288516 -0.887053 -0.220324
v 0.288516 -0.887053 0.201181
v 0.287355 -0.892899 -0.220324
v 0.287355 -0.885312 -0.220324
v 0.288924 -0.889106 -0.220324
v 0.288821 -0.888059 -0.220324
v 0.287355 -0.892899 0.201181
v 0.288021 -0.886126 0.201181
v 0.287355 -0.885312 0.201181
v 0.286544 -0.893567 0.201181
v 0.286544 -0.884644 -0.220324
v 0.286544 -0.893567 -0.220324
v 0.286544 -0.884644 0.201181
v 0.285618 -0.894065 0.201181
v 0.285618 -0.884147 -0.220324
v 0.285618 -0.894065 -0.220324
v 0.285618 -0.884147 0.201181
v 0.286544 -0.894562 0.201181
v 0.276526 -0.837864 -0.220324
v 0.286544 -0.883649 -0.220324
v 0.276526 -0.903982 0.201181
v 0.285618 -0.903982 0.201181
v 0.286544 -0.894562 -0.220324
v 0.285618 -0.903982 -0.220324
v 0.285618 -0.874229 -0.220324
v 0.286544 -0.883649 0.201181
v 0.285618 -0.874229 0.201181
v 0.286544 -0.903485 0.201181
v 0.286544 -0.903485 -0.220324
v 0.287355 -0.895230 0.201181
v 0.276526 -0.903982 -0.220324
v 0.285618 -0.864311 -0.220324
v 0.286544 -0.874726 -0.220324
v 0.286544 -0.874726 0.201181
v 0.287355 -0.882981 -0.220324
v 0.285618 -0.864311 0.201181
v 0.287355 -0.902817 -0.220324
v 0.287355 -0.895230 -0.220324
v 0.289750 -0.864311 -0.220324
v 0.286544 -0.873732 -0.220324
v 0.287355 -0.875395 0.201181
v 0.287355 -0.882981 0.201181
v 0.276526 -0.837864 0.201181
v 0.286544 -0.864809 0.201181
v 0.287355 -0.902817 0.201181
v 0.288021 -0.896044 -0.220324
v 0.289750 -0.837864 -0.220324
v 0.286544 -0.864809 -0.220324
v 0.287355 -0.875395 -0.220324
v 0.288021 -0.882168 0.201181
v 0.289750 -0.837864 0.201181
v 0.286544 -0.873732 0.201181
v 0.288021 -0.896044 0.201181
v 0.288021 -0.902003 -0.220324
v 0.289750 -0.864311 0.201181
v 0.287355 -0.873064 -0.220324
v 0.288021 -0.882168 -0.220324
v 0.288021 -0.876208 0.201181
v 0.287355 -0.865477 0.201181
v 0.288021 -0.902003 0.201181
v 0.288516 -0.896971 -0.220324
v 0.288516 -0.901076 -0.220324
v 0.287355 -0.865477 -0.220324
v 0.288021 -0.876208 -0.220324
v 0.288516 -0.881240 0.201181
v 0.288516 -0.877136 0.201181
v 0.287355 -0.873064 0.201181
v 0.288516 -0.896971 0.201181
v 0.288516 -0.901076 0.201181
v 0.288021 -0.872250 -0.220324
v 0.288516 -0.881240 -0.220324
v 0.288516 -0.877136 -0.220324
v 0.288021 -0.866290 0.201181
v 0.288821 -0.897977 -0.220324
v 0.288821 -0.900070 -0.220324
v 0.288821 -0.900070 0.201181
v 0.288021 -0.866290 -0.220324
v 0.288021 -0.872250 0.201181
v 0.288821 -0.880234 0.201181
v 0.288821 -0.878142 0.201181
v 0.288821 -0.878142 -0.220324
v 0.288821 -0.897977 0.201181
v 0.288516 -0.871323 -0.220324
v 0.288516 -0.871323 0.201181
v 0.288821 -0.880234 -0.220324
v 0.288516 -0.867218 0.201181
v 0.288516 -0.867218 -0.220324
v 0.288924 -0.899023 -0.220324
v 0.288924 -0.899023 0.201181
v 0.288924 -0.879188 0.201181
v 0.288924 -0.879188 -0.220324
v 0.288821 -0.870316 -0.220324
v 0.288821 -0.870316 0.201181
v 0.288821 -0.868224 0.201181
v 0.288821 -0.868224 -0.220324
v 0.288924 -0.869270 -0.220324
v 0.288924 -0.869270 0.201181
vt -0.254265 0.11169
vt -0.533136 0.11169
vt -0.254265 0.112386
vt -0.533136 0.160991
vt -0.254265 0.160991
vt -0.533136 0.160295
vt -0.533136 0.112386
vt -0.285163 0.030357
vt -0.285365 0.031023
vt -0.285365 0.032407
vt -0.254265 0.160295
vt 0.284836 0.029743
vt 0.284836 0.033686
vt 0.285163 0.030357
vt -0.254265 0.058795
vt -0.533136 0.058795
vt -0.254265 0.05949
vt 0.285163 0.033073
vt 0.285365 0.031023
vt -0.285433 0.031715
vt -0.285163 0.033073
vt -0.533136 0.203444
vt -0.254265 0.203444
vt -0.533136 0.202749
vt -0.284836 0.029743
vt 0.284396 0.034225
vt -0.533136 0.05949
vt 0.285365 0.032407
vt -0.254265 0.003635
vt -0.533136 0.003635
vt -0.254265 0.00433
vt -0.254265 -0.051678
vt -0.533136 -0.051678
vt -0.254265 -0.050982
vt -0.254265 0.202749
vt 0.284396 0.029205
vt -0.284836 0.033686
vt -0.533136 -0.153668
vt -0.254265 -0.153668
vt -0.533136 -0.154363
vt -0.533136 -0.104329
vt -0.254265 -0.104329
vt -0.533136 -0.105025
vt 0.285433 0.031715
vt -0.533136 -0.050982
vt -0.533136 0.00433
vt -0.254265 0.23812
vt -0.254265 0.237425
vt -0.533136 0.23812
vt -0.284396 0.029205
vt 0.283859 0.034667
vt -0.254265 -0.105025
vt -0.533136 -0.197804
vt -0.533136 -0.197109
vt -0.254265 -0.197804
vt -0.254265 -0.154363
vt -0.283859 0.028763
vt -0.284396 0.034225
vt -0.533136 0.237425
vt 0.283859 0.028763
vt -0.254265 -0.197109
vt -0.283859 0.034667
vt -0.254265 0.263691
vt -0.254265 0.262996
vt -0.533136 0.263691
vt 0.283246 0.034996
vt -0.533136 -0.233684
vt -0.533136 -0.232988
vt -0.254265 -0.233684
vt -0.283246 0.028434
vt -0.533136 0.262996
vt 0.283246 0.028434
vt -0.254265 -0.232988
vt -0.283246 0.034996
vt -0.254265 -0.236092
vt -0.254265 -0.236788
vt -0.533136 -0.236092
vt 0.277231 0.065617
vt -0.533136 0.2661
vt -0.533136 0.266796
vt -0.254265 0.2661
vt -0.277231 0.021872
vt -0.283246 0.021872
vt -0.283859 0.028105
vt -0.533136 -0.236788
vt 0.283246 0.021872
vt 0.283246 0.041557
vt 0.283859 0.035325
vt -0.254265 0.266796
vt -0.283246 0.041557
vt -0.283859 0.022201
vt 0.283859 0.028105
vt 0.283859 0.022201
vt -0.254265 -0.201279
vt -0.254265 -0.201975
vt -0.533136 -0.201279
vt 0.277231 0.021872
vt 0.283246 0.048119
vt 0.283859 0.041228
vt -0.283859 0.035325
vt -0.283859 0.041228
vt -0.533136 0.241595
vt -0.533136 0.242291
vt -0.254265 0.241595
vt -0.283246 0.048119
vt 0.254265 -0.277231
vt 0.533136 -0.277231
vt 0.254265 -0.283246
vt -0.254265 0.260587
vt -0.254265 0.259892
vt -0.533136 0.260587
vt -0.284396 0.027663
vt 0.284396 0.022643
vt -0.533136 -0.201975
vt 0.533136 0.021872
vt 0.254265 0.021872
vt 0.533136 0.065617
vt 0.533136 -0.283246
vt -0.533136 0.259892
vt 0.28598 0.048119
vt 0.283859 0.041886
vt -0.533136 -0.230579
vt -0.533136 -0.229884
vt -0.254265 -0.230579
vt 0.284396 0.035767
vt -0.284396 0.040786
vt -0.254265 0.242291
vt -0.277231 0.065617
vt -0.283859 0.04779
vt -0.254265 -0.229884
vt -0.533136 0.233254
vt -0.533136 0.23395
vt -0.254265 0.233254
vt -0.284396 0.022643
vt 0.284396 0.027663
vt -0.533136 -0.158745
vt -0.254265 -0.158745
vt -0.533136 -0.159441
vt 0.254265 0.065617
vt 0.28598 0.065617
vt 0.533136 -0.28598
vt 0.283859 0.04779
vt -0.533136 0.269204
vt -0.533136 0.2699
vt -0.254265 0.269204
vt -0.254265 -0.192938
vt -0.254265 -0.193633
vt -0.533136 -0.192938
vt 0.284396 0.040786
vt -0.284396 0.035767
vt -0.254265 0.207826
vt -0.533136 0.207826
vt -0.254265 0.208521
vt -0.28598 0.065617
vt -0.283859 0.041886
vt -0.254265 -0.22678
vt -0.254265 -0.227475
vt -0.533136 -0.22678
vt -0.254265 0.23395
vt -0.284836 0.027125
vt 0.284836 0.023182
vt -0.254265 -0.159441
vt 0.284836 0.027125
vt -0.254265 -0.277231
vt -0.254265 -0.28598
vt -0.533136 -0.277231
vt -0.533136 0.065617
vt -0.254265 0.065617
vt -0.533136 0.048119
vt -0.533136 -0.28598
vt 0.254265 -0.28598
vt -0.533136 -0.227475
vt 0.284396 0.042328
vt -0.254265 0.2699
vt -0.533136 -0.193633
vt 0.284836 0.036305
vt -0.284836 0.040248
vt -0.533136 0.208521
vt -0.284836 0.036305
vt -0.28598 0.048119
vt -0.284396 0.047348
vt -0.254265 0.197671
vt -0.533136 0.197671
vt -0.254265 0.198367
vt -0.284836 0.023182
vt -0.533136 0.198367
vt -0.533136 -0.110119
vt -0.254265 -0.110119
vt -0.533136 -0.110814
vt 0.285163 0.023795
vt -0.254265 0.048119
vt -0.254265 -0.188767
vt -0.254265 -0.189463
vt -0.533136 -0.188767
vt 0.284396 0.047348
vt -0.533136 0.245766
vt -0.533136 0.246462
vt -0.254265 0.245766
vt -0.533136 -0.148591
vt -0.254265 -0.148591
vt -0.533136 -0.149286
vt 0.284836 0.040248
vt -0.254265 -0.149286
vt -0.254265 0.166085
vt -0.533136 0.166085
vt -0.254265 0.16678
vt -0.285163 0.039634
vt -0.284396 0.042328
vt -0.285163 0.026511
vt -0.254265 0.154506
vt -0.533136 0.154506
vt -0.254265 0.155201
vt -0.254265 -0.110814
vt 0.285163 0.026511
vt -0.533136 0.155201
vt -0.533136 -0.189463
vt 0.284836 0.042867
vt -0.254265 0.246462
vt 0.285163 0.036919
vt -0.533136 -0.09854
vt -0.254265 -0.09854
vt -0.533136 -0.099235
vt -0.533136 0.16678
vt -0.285163 0.036919
vt -0.254265 -0.099235
vt -0.284836 0.04681
vt -0.285163 0.023795
vt -0.533136 -0.057262
vt -0.254265 -0.057262
vt -0.533136 -0.057958
vt 0.285365 0.024461
vt -0.254265 0.10541
vt -0.533136 0.10541
vt -0.254265 0.106106
vt -0.533136 -0.143513
vt -0.254265 -0.143513
vt -0.533136 -0.144209
vt 0.284836 0.04681
vt -0.533136 0.213599
vt -0.254265 0.213599
vt -0.533136 0.212903
vt -0.254265 0.212903
vt 0.285163 0.039634
vt -0.254265 0.11797
vt -0.533136 0.11797
vt -0.254265 0.118666
vt -0.285365 0.038969
vt -0.533136 -0.044702
vt -0.254265 -0.044702
vt -0.533136 -0.045398
vt -0.284836 0.042867
vt -0.254265 -0.144209
vt -0.285365 0.025845
vt -0.254265 -0.057958
vt 0.285365 0.025845
vt -0.533136 0.106106
vt -0.285365 0.024461
vt 0.285163 0.04348
vt -0.254265 0.171874
vt -0.533136 0.171874
vt -0.254265 0.17257
vt 0.285365 0.037584
vt -0.533136 0.118666
vt -0.285365 0.037584
vt -0.254265 -0.045398
vt 0.285365 0.038969
vt -0.285163 0.046196
vt -0.533136 -0.09275
vt -0.254265 -0.09275
vt -0.533136 -0.093446
vt -0.533136 -0.0022
vt -0.254265 -0.0022
vt -0.533136 -0.002895
vt 0.285433 0.025153
vt -0.254265 0.052265
vt -0.533136 0.052265
vt -0.254265 0.05296
vt -0.285433 0.025153
vt 0.285163 0.046196
vt -0.533136 0.17257
vt -0.285163 0.04348
vt -0.254265 0.065325
vt -0.533136 0.065325
vt -0.254265 0.066021
vt -0.285433 0.038276
vt -0.533136 0.010861
vt -0.254265 0.010861
vt -0.533136 0.010165
vt 0.285433 0.038276
vt -0.254265 -0.093446
vt -0.254265 -0.002895
vt -0.533136 0.05296
vt 0.285365 0.044146
vt -0.254265 0.12425
vt -0.533136 0.12425
vt -0.254265 0.124946
vt -0.285365 0.04553
vt -0.533136 0.066021
vt -0.254265 0.010165
vt -0.533136 -0.038422
vt -0.254265 -0.038422
vt -0.533136 -0.039118
vt 0.285365 0.04553
vt -0.533136 0.124946
vt -0.285365 0.044146
vt -0.254265 -0.039118
vt 0.285433 0.044838
vt -0.254265 0.071855
vt -0.533136 0.071855
vt -0.254265 0.072551
vt -0.285433 0.044838
vt -0.533136 0.017391
vt -0.254265 0.017391
vt -0.533136 0.016695
vt -0.533136 0.072551
vt -0.254265 0.016695
vn 0.9241461724285951 -0.3820390712814296 0
vn 0.9808532986144567 -0.1947480592897898 0
vn -0.9808532986144567 0.1947480592897898 0
vn -0.9241461724285951 0.3820390712814296 0
vn 0.8320502943378437 -0.5547001962252291 0
vn -0.8320502943378437 0.5547001962252291 0
vn 0 0 1
vn 0 0 -1
vn 1 0 0
vn -1 0 0
vn 0.708092093870359 -0.7061200936089348 0
vn -0.708092093870359 0.7061200936089348 0
vn 0.9808532986144567 0.1947480592897898 0
vn -0.9808532986144567 -0.1947480592897898 0
vn 0.9241461724285951 0.3820390712814296 0
vn -0.9241461724285951 -0.3820390712814296 0
vn 0.708092093870359 0.7061200936089348 0
vn 0.8320502943378437 0.5547001962252291 0
vn -0.8320502943378437 -0.5547001962252291 0
vn -0.708092093870359 -0.7061200936089348 0
vn 0.5570188840395423 -0.8304998271061487 0
vn -0.5570188840395423 0.8304998271061487 0
vn 0.5570188840395423 0.8304998271061487 0
vn -0.5570188840395423 -0.8304998271061487 0
vn 0.47308688129660287 -0.8810157789421561 0
vn -0.47308688129660287 0.8810157789421561 0
vn 0.47308688129660287 0.8810157789421561 0
vn -0.47308688129660287 -0.8810157789421561 0
vn 0 -1 0
vn 0 1 0
usemtl material_0_0
f 1/1/1 2/2/1 3/3/2
f 3/3/3 2/2/4 1/1/4
f 2/4/1 1/5/1 4/6/5
f 4/6/6 1/5/4 2/4/4
f 5/7/2 3/3/2 2/2/1
f 2/2/4 3/3/3 5/7/3
f 1/8/7 3/9/7 6/10/7
f 6/10/8 3/9/8 1/8/8
f 7/11/5 4/6/5 1/5/1
f 1/5/4 4/6/6 7/11/6
f 4/12/8 8/13/8 2/14/8
f 2/14/7 8/13/7 4/12/7
f 3/15/2 5/16/2 9/17/9
f 9/17/10 5/16/3 3/15/3
f 2/14/8 10/18/8 5/19/8
f 5/19/7 10/18/7 2/14/7
f 9/20/7 6/10/7 3/9/7
f 3/9/8 6/10/8 9/20/8
f 11/21/7 1/8/7 6/10/7
f 6/10/8 1/8/8 11/21/8
f 4/22/5 7/23/5 12/24/11
f 12/24/12 7/23/6 4/22/6
f 7/25/7 1/8/7 11/21/7
f 11/21/8 1/8/8 7/25/8
f 13/26/8 8/13/8 4/12/8
f 4/12/7 8/13/7 13/26/7
f 8/13/8 10/18/8 2/14/8
f 2/14/7 10/18/7 8/13/7
f 14/27/9 9/17/9 5/16/2
f 5/16/3 9/17/10 14/27/10
f 10/18/8 15/28/8 5/19/8
f 5/19/7 15/28/7 10/18/7
f 9/29/9 14/30/9 6/31/13
f 6/31/14 14/30/10 9/29/10
f 6/32/13 15/33/13 11/34/15
f 11/34/16 15/33/14 6/32/14
f 16/35/11 12/24/11 7/23/5
f 7/23/6 12/24/12 16/35/12
f 12/36/8 13/26/8 4/12/8
f 4/12/7 13/26/7 12/36/7
f 17/37/7 7/25/7 11/21/7
f 11/21/8 7/25/8 17/37/8
f 13/38/17 18/39/17 8/40/18
f 8/40/19 18/39/20 13/38/20
f 8/41/18 17/42/18 10/43/15
f 10/43/16 17/42/19 8/41/19
f 14/44/8 5/19/8 15/28/8
f 15/28/7 5/19/7 14/44/7
f 10/45/15 11/34/15 15/33/13
f 15/33/14 11/34/16 10/45/16
f 15/46/13 6/31/13 14/30/9
f 14/30/10 6/31/14 15/46/14
f 16/47/11 19/48/21 12/49/11
f 12/49/12 19/48/22 16/47/12
f 16/50/7 7/25/7 17/37/7
f 17/37/8 7/25/8 16/50/8
f 20/51/8 13/26/8 12/36/8
f 12/36/7 13/26/7 20/51/7
f 11/52/15 10/43/15 17/42/18
f 17/42/19 10/43/16 11/52/16
f 13/53/17 20/54/23 18/55/17
f 18/55/20 20/54/24 13/53/20
f 17/56/18 8/40/18 18/39/17
f 18/39/20 8/40/19 17/56/19
f 19/57/7 16/50/7 18/58/7
f 18/58/8 16/50/8 19/57/8
f 21/59/21 12/49/11 19/48/21
f 19/48/22 12/49/12 21/59/22
f 18/58/7 16/50/7 17/37/7
f 17/37/8 16/50/8 18/58/8
f 21/60/8 20/51/8 12/36/8
f 12/36/7 20/51/7 21/60/7
f 22/61/23 18/55/17 20/54/23
f 20/54/24 18/55/20 22/61/24
f 22/62/7 19/57/7 18/58/7
f 18/58/8 19/57/8 22/62/8
f 19/63/21 23/64/25 21/65/21
f 21/65/22 23/64/26 19/63/22
f 24/66/8 20/51/8 21/60/8
f 21/60/7 20/51/7 24/66/7
f 20/67/23 24/68/27 22/69/23
f 22/69/24 24/68/28 20/67/24
f 23/70/7 19/57/7 22/62/7
f 22/62/8 19/57/8 23/70/8
f 25/71/25 21/65/21 23/64/25
f 23/64/26 21/65/22 25/71/26
f 25/72/8 24/66/8 21/60/8
f 21/60/7 24/66/7 25/72/7
f 26/73/27 22/69/23 24/68/27
f 24/68/28 22/69/24 26/73/28
f 26/74/7 23/70/7 22/62/7
f 22/62/8 23/70/8 26/74/8
f 23/75/27 27/76/23 25/77/27
f 25/77/28 27/76/24 23/75/28
f 25/72/8 28/78/8 24/66/8
f 24/66/7 28/78/7 25/72/7
f 24/79/25 29/80/21 26/81/25
f 26/81/26 29/80/22 24/79/26
f 26/74/7 30/82/7 23/70/7
f 23/70/8 30/82/8 26/74/8
f 23/70/7 31/83/7 27/84/7
f 27/84/8 31/83/8 23/70/8
f 32/85/23 25/77/27 27/76/23
f 27/76/24 25/77/28 32/85/24
f 33/86/8 28/78/8 25/72/8
f 25/72/7 28/78/7 33/86/7
f 24/66/8 28/78/8 34/87/8
f 34/87/7 28/78/7 24/66/7
f 24/66/8 34/87/8 29/88/8
f 29/88/7 34/87/7 24/66/7
f 35/89/21 26/81/25 29/80/21
f 29/80/22 26/81/26 35/89/22
f 36/90/7 30/82/7 26/74/7
f 26/74/8 30/82/8 36/90/8
f 30/82/7 31/83/7 23/70/7
f 23/70/8 31/83/8 30/82/8
f 31/83/7 37/91/7 27/84/7
f 27/84/8 37/91/8 31/83/8
f 25/72/8 32/92/8 38/93/8
f 38/93/7 32/92/7 25/72/7
f 27/94/23 39/95/17 32/96/23
f 32/96/24 39/95/20 27/94/24
f 40/97/8 28/78/8 33/86/8
f 33/86/7 28/78/7 40/97/7
f 33/86/8 25/72/8 38/93/8
f 38/93/7 25/72/7 33/86/7
f 34/87/8 28/78/8 41/98/8
f 41/98/7 28/78/7 34/87/7
f 34/87/8 42/99/8 29/88/8
f 29/88/7 42/99/7 34/87/7
f 26/74/7 35/100/7 43/101/7
f 43/101/8 35/100/8 26/74/8
f 29/102/21 44/103/11 35/104/21
f 35/104/22 44/103/12 29/102/22
f 45/105/7 30/82/7 36/90/7
f 36/90/8 30/82/8 45/105/8
f 36/90/7 26/74/7 43/101/7
f 43/101/8 26/74/8 36/90/8
f 30/106/29 40/107/29 31/108/29
f 31/108/30 40/107/30 30/106/30
f 37/109/21 31/110/25 38/111/21
f 38/111/22 31/110/26 37/109/22
f 27/84/7 37/91/7 39/112/7
f 39/112/8 37/91/8 27/84/8
f 38/93/8 32/92/8 46/113/8
f 46/113/7 32/92/7 38/93/7
f 47/114/17 32/96/23 39/95/17
f 39/95/20 32/96/24 47/114/20
f 40/115/10 30/116/10 28/117/10
f 28/117/9 30/116/9 40/115/9
f 33/118/29 31/108/29 40/107/29
f 40/107/30 31/108/30 33/118/30
f 33/119/25 38/111/21 31/110/25
f 31/110/26 38/111/22 33/119/26
f 41/98/8 28/78/8 48/120/8
f 48/120/7 28/78/7 41/98/7
f 34/87/8 41/98/8 49/121/8
f 49/121/7 41/98/7 34/87/7
f 42/122/23 34/123/27 43/124/23
f 43/124/24 34/123/28 42/122/24
f 29/88/8 42/99/8 44/125/8
f 44/125/7 42/99/7 29/88/7
f 43/101/7 35/100/7 50/126/7
f 50/126/8 35/100/8 43/101/8
f 51/127/11 35/104/21 44/103/11
f 44/103/12 35/104/22 51/127/12
f 30/82/7 45/105/7 52/128/7
f 52/128/8 45/105/8 30/82/8
f 45/105/7 36/90/7 53/129/7
f 53/129/8 36/90/8 45/105/8
f 36/130/27 43/124/23 34/123/27
f 34/123/28 43/124/24 36/130/28
f 38/131/21 46/132/11 37/133/21
f 37/133/22 46/132/12 38/131/22
f 37/91/7 54/134/7 39/112/7
f 39/112/8 54/134/8 37/91/8
f 32/92/8 47/135/8 46/113/8
f 46/113/7 47/135/7 32/92/7
f 47/136/17 39/137/17 55/138/18
f 55/138/19 39/137/20 47/136/20
f 52/139/10 28/117/10 30/116/10
f 30/116/9 28/117/9 52/139/9
f 56/140/8 48/120/8 28/78/8
f 28/78/7 48/120/7 56/140/7
f 41/118/29 48/141/29 45/108/29
f 45/108/30 48/141/30 41/118/30
f 41/98/8 57/142/8 49/121/8
f 49/121/7 57/142/7 41/98/7
f 34/143/25 49/144/21 36/145/25
f 36/145/26 49/144/22 34/143/26
f 43/146/23 50/147/17 42/148/23
f 42/148/24 50/147/20 43/146/24
f 42/99/8 58/149/8 44/125/8
f 44/125/7 58/149/7 42/99/7
f 35/100/7 51/150/7 50/126/7
f 50/126/8 51/150/8 35/100/8
f 51/151/11 44/152/11 59/153/5
f 59/153/6 44/152/12 51/151/12
f 52/128/7 45/105/7 60/154/7
f 60/154/8 45/105/8 52/128/8
f 36/90/7 61/155/7 53/129/7
f 53/129/8 61/155/8 36/90/8
f 45/156/27 53/157/23 41/158/27
f 41/158/28 53/157/24 45/156/28
f 54/159/11 37/133/21 46/132/11
f 46/132/12 37/133/22 54/159/12
f 39/112/7 54/134/7 62/160/7
f 62/160/8 54/134/8 39/112/8
f 46/113/8 47/135/8 63/161/8
f 63/161/7 47/135/7 46/113/7
f 62/162/18 55/138/18 39/137/17
f 39/137/20 55/138/19 62/162/19
f 47/135/8 55/163/8 63/161/8
f 63/161/7 55/163/7 47/135/7
f 52/164/30 60/165/30 28/166/30
f 28/166/29 60/165/29 52/164/29
f 56/167/9 60/168/9 48/169/9
f 48/169/10 60/168/10 56/167/10
f 56/170/30 28/166/30 60/165/30
f 60/165/29 28/166/29 56/170/29
f 64/171/29 45/108/29 48/141/29
f 48/141/30 45/108/30 64/171/30
f 57/172/23 41/158/27 53/157/23
f 53/157/24 41/158/28 57/172/24
f 49/121/8 57/142/8 65/173/8
f 65/173/7 57/142/7 49/121/7
f 61/174/21 36/145/25 49/144/21
f 49/144/22 36/145/26 61/174/22
f 58/175/17 42/148/23 50/147/17
f 50/147/20 42/148/24 58/175/20
f 44/125/8 58/149/8 66/176/8
f 66/176/7 58/149/7 44/125/7
f 50/126/7 51/150/7 67/177/7
f 67/177/8 51/150/8 50/126/8
f 66/178/5 59/153/5 44/152/11
f 44/152/12 59/153/6 66/178/6
f 51/150/7 59/179/7 67/177/7
f 67/177/8 59/179/8 51/150/8
f 64/180/7 60/154/7 45/105/7
f 45/105/8 60/154/8 64/180/8
f 53/129/7 61/155/7 68/181/7
f 68/181/8 61/155/8 53/129/8
f 54/182/11 46/183/11 69/184/5
f 69/184/6 46/183/12 54/182/12
f 54/134/7 69/185/7 62/160/7
f 62/160/8 69/185/8 54/134/8
f 63/186/5 69/184/5 46/183/11
f 46/183/12 69/184/6 63/186/6
f 55/187/18 62/188/18 70/189/15
f 70/189/16 62/188/19 55/187/19
f 63/161/8 55/163/8 71/190/8
f 71/190/7 55/163/7 63/161/7
f 64/191/9 48/169/9 60/168/9
f 60/168/10 48/169/10 64/191/10
f 53/192/23 68/193/17 57/194/23
f 57/194/24 68/193/20 53/192/24
f 57/142/8 72/195/8 65/173/8
f 65/173/7 72/195/7 57/142/7
f 49/196/21 65/197/11 61/198/21
f 61/198/22 65/197/12 49/196/22
f 58/199/17 50/200/17 73/201/18
f 73/201/19 50/200/20 58/199/20
f 58/149/8 73/202/8 66/176/8
f 66/176/7 73/202/7 58/149/7
f 67/203/18 73/201/18 50/200/17
f 50/200/20 73/201/19 67/203/19
f 59/204/5 66/205/5 74/206/1
f 74/206/4 66/205/6 59/204/6
f 67/177/7 59/179/7 75/207/7
f 75/207/8 59/179/8 67/177/8
f 61/155/7 76/208/7 68/181/7
f 68/181/8 76/208/8 61/155/8
f 62/160/7 69/185/7 77/209/7
f 77/209/8 69/185/8 62/160/8
f 69/210/5 63/211/5 78/212/1
f 78/212/4 63/211/6 69/210/6
f 77/213/15 70/189/15 62/188/18
f 62/188/19 70/189/16 77/213/16
f 55/163/8 70/214/8 71/190/8
f 71/190/7 70/214/7 55/163/7
f 71/215/1 78/212/1 63/211/5
f 63/211/6 78/212/4 71/215/4
f 72/216/17 57/194/23 68/193/17
f 68/193/20 57/194/24 72/216/20
f 65/173/8 72/195/8 79/217/8
f 79/217/7 72/195/7 65/173/7
f 76/218/11 61/198/21 65/197/11
f 65/197/12 61/198/22 76/218/12
f 66/176/8 73/202/8 80/219/8
f 80/219/7 73/202/7 66/176/7
f 73/220/18 67/221/18 81/222/15
f 81/222/16 67/221/19 73/220/19
f 80/223/1 74/206/1 66/205/5
f 66/205/6 74/206/4 80/223/4
f 59/179/7 74/224/7 75/207/7
f 75/207/8 74/224/8 59/179/8
f 75/225/15 81/222/15 67/221/18
f 67/221/19 81/222/16 75/225/16
f 68/181/7 76/208/7 82/226/7
f 82/226/8 76/208/8 68/181/8
f 69/185/7 78/227/7 77/209/7
f 77/209/8 78/227/8 69/185/8
f 70/228/15 77/229/15 83/230/13
f 83/230/14 77/229/16 70/228/16
f 71/190/8 70/214/8 84/231/8
f 84/231/7 70/214/7 71/190/7
f 78/232/1 71/233/1 85/234/2
f 85/234/3 71/233/4 78/232/4
f 72/235/17 68/236/17 86/237/18
f 86/237/19 68/236/20 72/235/20
f 72/195/8 86/238/8 79/217/8
f 79/217/7 86/238/7 72/195/7
f 79/239/5 87/240/5 65/241/11
f 65/241/12 87/240/6 79/239/6
f 76/242/11 65/241/11 87/240/5
f 87/240/6 65/241/12 76/242/12
f 73/202/8 81/243/8 80/219/8
f 80/219/7 81/243/7 73/202/7
f 74/244/1 80/245/1 88/246/2
f 88/246/3 80/245/4 74/244/4
f 75/207/7 74/224/7 89/247/7
f 89/247/8 74/224/8 75/207/8
f 81/248/15 75/249/15 90/250/13
f 90/250/14 75/249/16 81/248/16
f 76/208/7 87/251/7 82/226/7
f 82/226/8 87/251/8 76/208/8
f 82/252/18 86/237/18 68/236/17
f 68/236/20 86/237/19 82/252/19
f 77/209/7 78/227/7 91/253/7
f 91/253/8 78/227/8 77/209/8
f 91/254/13 83/230/13 77/229/15
f 77/229/16 83/230/14 91/254/14
f 70/214/8 83/255/8 84/231/8
f 84/231/7 83/255/7 70/214/7
f 84/256/2 85/234/2 71/233/1
f 71/233/4 85/234/3 84/256/3
f 78/227/7 85/257/7 91/253/7
f 91/253/8 85/257/8 78/227/8
f 79/217/8 86/238/8 92/258/8
f 92/258/7 86/238/7 79/217/7
f 87/259/5 79/260/5 93/261/1
f 93/261/4 79/260/6 87/259/6
f 80/219/8 81/243/8 94/262/8
f 94/262/7 81/243/7 80/219/7
f 94/263/2 88/246/2 80/245/1
f 80/245/4 88/246/3 94/263/3
f 74/224/7 88/264/7 89/247/7
f 89/247/8 88/264/8 74/224/8
f 89/265/13 90/250/13 75/249/15
f 75/249/16 90/250/14 89/265/14
f 81/243/8 90/266/8 94/262/8
f 94/262/7 90/266/7 81/243/7
f 82/226/7 87/251/7 95/267/7
f 95/267/8 87/251/8 82/226/8
f 86/268/18 82/269/18 96/270/15
f 96/270/16 82/269/19 86/268/19
f 83/271/13 91/272/13 97/273/9
f 97/273/10 91/272/14 83/271/14
f 97/274/8 84/231/8 83/255/8
f 83/255/7 84/231/7 97/274/7
f 85/275/2 84/276/2 98/277/9
f 98/277/10 84/276/3 85/275/3
f 98/278/7 91/253/7 85/257/7
f 85/257/8 91/253/8 98/278/8
f 86/238/8 96/279/8 92/258/8
f 92/258/7 96/279/7 86/238/7
f 92/280/1 93/261/1 79/260/5
f 79/260/6 93/261/4 92/280/4
f 87/251/7 93/281/7 95/267/7
f 95/267/8 93/281/8 87/251/8
f 88/282/2 94/283/2 99/284/9
f 99/284/10 94/283/3 88/282/3
f 99/285/7 89/247/7 88/264/7
f 88/264/8 89/247/8 99/285/8
f 90/286/13 89/287/13 100/288/9
f 100/288/10 89/287/14 90/286/14
f 100/289/8 94/262/8 90/266/8
f 90/266/7 94/262/7 100/289/7
f 95/290/15 96/270/15 82/269/18
f 82/269/19 96/270/16 95/290/16
f 98/291/9 97/273/9 91/272/13
f 91/272/14 97/273/10 98/291/10
f 97/292/9 98/277/9 84/276/2
f 84/276/3 98/277/10 97/292/10
f 92/258/8 96/279/8 101/293/8
f 101/293/7 96/279/7 92/258/7
f 93/294/1 92/295/1 102/296/2
f 102/296/3 92/295/4 93/294/4
f 95/267/7 93/281/7 103/297/7
f 103/297/8 93/281/8 95/267/8
f 100/298/9 99/284/9 94/283/2
f 94/283/3 99/284/10 100/298/10
f 99/299/9 100/288/9 89/287/13
f 89/287/14 100/288/10 99/299/10
f 96/300/15 95/301/15 104/302/13
f 104/302/14 95/301/16 96/300/16
f 96/279/8 104/303/8 101/293/8
f 101/293/7 104/303/7 96/279/7
f 101/304/2 102/296/2 92/295/1
f 92/295/4 102/296/3 101/304/3
f 93/281/7 102/305/7 103/297/7
f 103/297/8 102/305/8 93/281/8
f 103/306/13 104/302/13 95/301/15
f 95/301/16 104/302/14 103/306/14
f 105/307/8 101/293/8 104/303/8
f 104/303/7 101/293/7 105/307/7
f 102/308/2 101/309/2 106/310/9
f 106/310/10 101/309/3 102/308/3
f 106/311/7 103/297/7 102/305/7
f 102/305/8 103/297/8 106/311/8
f 104/312/13 103/313/13 105/314/9
f 105/314/10 103/313/14 104/312/14
f 105/315/9 106/310/9 101/309/2
f 101/309/3 106/310/10 105/315/10
f 106/316/9 105/314/9 103/313/13
f 103/313/14 105/314/10 106/316/10
