# SSTK version 0.8.0
# 20
mtllib original-20.mtl
o Moulding-506.50.22_2/Moulding-506.50.22_1_2/mesh25/mesh25-geometry#mesh25-geometry
v 0.206556 -0.443352 0.235066
v 0.205731 -0.444178 0.233073
v 0.206556 -0.781118 0.235066
v 0.246773 -0.403136 0.222669
v 0.205731 -0.444460 0.233073
v 0.207870 -0.782431 0.236778
v 0.207870 -0.442039 0.236778
v 0.205449 -0.444460 0.230934
v 0.205731 -0.780292 0.233073
v 0.246773 -0.821334 0.222669
v 0.209582 -0.440327 0.238092
v 0.205449 -0.444460 0.222669
v 0.209582 -0.784143 0.238092
v 0.211575 -0.438334 0.238917
v 0.205449 -0.780010 0.230934
v 0.205449 -0.780010 0.222669
v 0.211575 -0.786136 0.238917
v 0.213714 -0.436195 0.239199
v 0.246773 -0.403136 0.240852
v 0.213714 -0.788275 0.239199
v 0.246773 -0.821334 0.240852
v 0.213714 -0.436195 0.240852
v 0.213714 -0.788275 0.240852
vt 0.026608 0.013719
vt 0.027154 0.015146
vt 0.250076 0.013719
vt -0.005146 0.038402
vt -0.003828 0.037629
vt -0.01203 0
vt 0.02734 0.015146
vt 0.250076 0.019234
vt 0.250945 0.017807
vt 0.026608 0.019234
vt -0.002695 0.0364
vt -0.006562 0.038665
vt 0.24953 0.015146
vt 0.002695 -0.159245
vt 0.003828 -0.158016
vt 0.01203 -0.195645
vt 0.025739 0.017807
vt -0.001826 0.034799
vt -0.01203 0.038665
vt 0.005146 -0.157244
vt 0.02734 0.008647
vt 0.02734 0.010074
vt 0.24953 0.008647
vt 0.001826 -0.160847
vt 0.025739 0.022061
vt 0.250945 0.022061
vt 0.024606 0.020633
vt -0.00128 0.032934
vt 0.02734 0.006562
vt 0.02734 0.01203
vt 0.249344 0.006562
vt 0 0
vt -0.276684 0
vt -0.02734 0.02734
vt 0.01203 -0.15698
vt 0.249344 0.010074
vt 0.252078 0.020633
vt 0.00128 -0.162712
vt 0.023288 0.022005
vt 0.024606 0.023432
vt 0.253397 0.022005
vt -0.001094 0.030932
vt 0.249344 0.01203
vt 0 0.01203
vt -0.276684 0.01203
vt -0.249344 0.02734
vt 0.006562 -0.15698
vt 0.252078 0.023432
vt 0.001094 -0.164713
vt 0.023288 0.023255
vt 0.253397 0.023255
vt 0.021872 0.021828
vt 0.254812 0.021828
vt 0 -0.195645
vt 0 0.030932
vt 0.021872 0.021872
vt 0.276684 0
vt 0.254812 0.001094
vt 0.254812 0
vt 0.021872 0.001094
vt 0 -0.164713
vt 0.021872 0
vt 0.254812 0.021872
vn -0.8660253028382762 0 0.5000001748438417
vn -0.9238797538373538 0 0.38268289803626016
vn 0.8660253028382762 0 -0.5000001748438417
vn 0.9238797538373538 0 -0.38268289803626016
vn -0.7071067811865474 0.7071067811865477 0
vn 0.7071067811865474 -0.7071067811865477 0
vn -0.965925849201117 0 0.2588189595935754
vn 0.965925849201117 0 -0.2588189595935754
vn -0.7071067811865475 0 0.7071067811865475
vn 0.7071067811865475 0 -0.7071067811865475
vn -0.7071067811865477 -0.7071067811865474 0
vn 0.7071067811865477 0.7071067811865474 0
vn -0.9978589320009054 0 0.06540299554311302
vn 0.9978589320009054 0 -0.06540299554311302
vn -0.5000001748438417 0 0.8660253028382762
vn 0.5000001748438417 0 -0.8660253028382762
vn -1 0 0
vn 1 0 0
vn 0 0 -1
vn 0 0 1
vn -0.2588189595935754 0 0.965925849201117
vn 0.2588189595935754 0 -0.965925849201117
vn -0.13052598533534113 0 0.9914448886106773
vn 0.13052598533534113 0 -0.9914448886106773
usemtl material_0_0
f 1/1/1 2/2/2 3/3/1
f 3/3/3 2/2/4 1/1/3
f 2/4/5 1/5/5 4/6/5
f 4/6/6 1/5/6 2/4/6
f 5/7/7 3/3/1 2/2/2
f 2/2/4 3/3/3 5/7/8
f 3/8/1 6/9/9 1/10/1
f 1/10/3 6/9/10 3/8/3
f 1/5/5 7/11/5 4/6/5
f 4/6/6 7/11/6 1/5/6
f 8/12/5 2/4/5 4/6/5
f 4/6/6 2/4/6 8/12/6
f 9/13/7 3/3/1 5/7/7
f 5/7/8 3/3/3 9/13/8
f 6/14/11 3/15/11 10/16/11
f 10/16/12 3/15/12 6/14/12
f 7/17/9 1/10/1 6/9/9
f 6/9/10 1/10/3 7/17/10
f 7/11/5 11/18/5 4/6/5
f 4/6/6 11/18/6 7/11/6
f 12/19/5 8/12/5 4/6/5
f 4/6/6 8/12/6 12/19/6
f 3/15/11 9/20/11 10/16/11
f 10/16/12 9/20/12 3/15/12
f 5/21/7 8/22/13 9/23/7
f 9/23/8 8/22/14 5/21/8
f 13/24/11 6/14/11 10/16/11
f 10/16/12 6/14/12 13/24/12
f 7/25/9 6/26/9 11/27/15
f 11/27/16 6/26/10 7/25/10
f 11/18/5 14/28/5 4/6/5
f 4/6/6 14/28/6 11/18/6
f 8/29/13 12/30/17 15/31/13
f 15/31/14 12/30/18 8/29/14
f 4/32/19 10/33/19 12/34/19
f 12/34/20 10/33/20 4/32/20
f 10/16/11 9/20/11 16/35/11
f 16/35/12 9/20/12 10/16/12
f 15/36/13 9/23/7 8/22/13
f 8/22/14 9/23/8 15/36/14
f 13/37/15 11/27/15 6/26/9
f 6/26/10 11/27/16 13/37/16
f 17/38/11 13/24/11 10/16/11
f 10/16/12 13/24/12 17/38/12
f 14/39/21 11/40/15 17/41/21
f 17/41/22 11/40/16 14/39/22
f 14/28/5 18/42/5 4/6/5
f 4/6/6 18/42/6 14/28/6
f 16/43/17 15/31/13 12/30/17
f 12/30/18 15/31/14 16/43/18
f 4/44/18 19/32/18 10/45/18
f 10/45/17 19/32/17 4/44/17
f 16/46/19 12/34/19 10/33/19
f 10/33/20 12/34/20 16/46/20
f 15/47/11 16/35/11 9/20/11
f 9/20/12 16/35/12 15/47/12
f 13/48/15 17/41/21 11/40/15
f 11/40/16 17/41/22 13/48/16
f 20/49/11 17/38/11 10/16/11
f 10/16/12 17/38/12 20/49/12
f 14/50/21 17/51/21 18/52/23
f 18/52/24 17/51/22 14/50/22
f 4/6/5 18/42/5 19/32/5
f 19/32/6 18/42/6 4/6/6
f 21/33/18 10/45/18 19/32/18
f 19/32/17 10/45/17 21/33/17
f 20/53/23 18/52/23 17/51/21
f 17/51/22 18/52/24 20/53/24
f 21/54/11 20/49/11 10/16/11
f 10/16/12 20/49/12 21/54/12
f 22/55/5 19/32/5 18/42/5
f 18/42/6 19/32/6 22/55/6
f 19/32/20 22/56/20 21/57/20
f 21/57/19 22/56/19 19/32/19
f 20/58/17 23/59/17 18/60/17
f 18/60/18 23/59/18 20/58/18
f 23/61/11 20/49/11 21/54/11
f 21/54/12 20/49/12 23/61/12
f 22/62/17 18/60/17 23/59/17
f 23/59/18 18/60/18 22/62/18
f 23/63/20 21/57/20 22/56/20
f 22/56/19 21/57/19 23/63/19
