# SSTK version 0.8.0
# 43
mtllib original-43.mtl
o Beam-92.50.50_4/Beam-92.50.50_1_2/mesh15/mesh15-geometry#mesh15-geometry
v 0.291403 0.785343 -0.220324
v 0.291403 0.785343 -0.261648
v 0.250079 0.785343 -0.220324
v 0.291403 0.709306 -0.220324
v 0.250079 0.785343 -0.261648
v 0.291403 0.709306 -0.261648
v 0.250079 0.709306 -0.261648
v 0.250079 0.709306 -0.220324
vt 0 0
vt 0 0.02734
vt 0.02734 0
vt 0 0.050306
vt -0.02734 0.050306
vt 0.02734 0.02734
vt 0.02734 0.050306
vt -0.02734 0
vt -0.02734 0.02734
vn 0 1 0
vn 0 -1 0
vn 1 0 0
vn -1 0 0
vn 0 0 1
vn 0 0 -1
usemtl material_0_0
f 1/1/1 2/2/1 3/3/1
f 3/3/2 2/2/2 1/1/2
f 1/4/3 4/1/3 2/5/3
f 2/5/4 4/1/4 1/4/4
f 5/6/1 3/3/1 2/2/1
f 2/2/2 3/3/2 5/6/2
f 1/4/5 3/7/5 4/1/5
f 4/1/6 3/7/6 1/4/6
f 6/8/3 2/5/3 4/1/3
f 4/1/4 2/5/4 6/8/4
f 5/7/4 7/3/4 3/4/4
f 3/4/3 7/3/3 5/7/3
f 5/5/6 2/4/6 7/8/6
f 7/8/5 2/4/5 5/5/5
f 8/3/5 4/1/5 3/7/5
f 3/7/6 4/1/6 8/3/6
f 6/1/6 7/8/6 2/4/6
f 2/4/5 7/8/5 6/1/5
f 6/2/2 4/1/2 7/9/2
f 7/9/1 4/1/1 6/2/1
f 8/1/4 3/4/4 7/3/4
f 7/3/3 3/4/3 8/1/3
f 8/8/2 7/9/2 4/1/2
f 4/1/1 7/9/1 8/8/1
