# SSTK version 0.8.0
# 21
mtllib original-21.mtl
o Moulding-592.50.22_1/Moulding-592.50.22/mesh27/mesh27-geometry#mesh27-geometry
v 0.206556 -0.781118 0.235066
v -0.201461 -0.780292 0.233073
v -0.202286 -0.781118 0.235066
v -0.201179 -0.780292 0.233073
v -0.242503 -0.821334 0.222669
v 0.207870 -0.782431 0.236778
v 0.205731 -0.780292 0.233073
v -0.203600 -0.782431 0.236778
v -0.201179 -0.780010 0.230934
v 0.246773 -0.821334 0.222669
v 0.205449 -0.780010 0.230934
v -0.205311 -0.784143 0.238092
v -0.201179 -0.780010 0.222669
v 0.209582 -0.784143 0.238092
v -0.207305 -0.786136 0.238917
v 0.211575 -0.786136 0.238917
v 0.205449 -0.780010 0.222669
v -0.209444 -0.788275 0.239199
v -0.242503 -0.821334 0.240852
v 0.213714 -0.788275 0.239199
v 0.246773 -0.821334 0.240852
v 0.213714 -0.788275 0.240852
v -0.209444 -0.788275 0.240852
vt 0.297102 0.013719
vt 0.027154 0.015146
vt 0.026608 0.013719
vt 0.02734 0.015146
vt -0.01203 0
vt -0.003828 0.037629
vt -0.005146 0.038402
vt 0.026608 0.019234
vt 0.297971 0.017807
vt 0.297102 0.019234
vt 0.296556 0.015146
vt -0.002695 0.0364
vt -0.006562 0.038665
vt 0.025739 0.017807
vt 0.002695 -0.192497
vt 0.01203 -0.228897
vt 0.003828 -0.191268
vt 0.005146 -0.190496
vt 0.296369 0.010074
vt 0.02734 0.008647
vt 0.296556 0.008647
vt -0.001826 0.034799
vt -0.01203 0.038665
vt 0.024606 0.020633
vt 0.297971 0.022061
vt 0.025739 0.022061
vt 0.001826 -0.194099
vt 0.006562 -0.190232
vt 0.02734 0.010074
vt -0.00128 0.032934
vt 0.296369 0.006562
vt 0.02734 0.01203
vt 0.02734 0.006562
vt -0.02734 0.02734
vt -0.32371 0
vt 0 0
vt 0.299103 0.020633
vt 0.00128 -0.195964
vt 0.01203 -0.190232
vt -0.001094 0.030932
vt 0.023288 0.022005
vt 0.299103 0.023432
vt 0.024606 0.023432
vt 0.296369 0.01203
vt -0.296369 0.02734
vt -0.32371 0.01203
vt 0 0.01203
vt 0.001094 -0.197965
vt 0.300422 0.022005
vt 0.021872 0.021828
vt 0.300422 0.023255
vt 0.023288 0.023255
vt 0 -0.197965
vt 0.301837 0.021828
vt 0 0.030932
vt 0 -0.228897
vt 0.301837 0.021872
vt 0.32371 0
vt 0.021872 0.001094
vt 0.301837 0
vt 0.301837 0.001094
vt 0.021872 0.021872
vt 0.021872 0
vn 0 0.866025302838276 0.5000001748438418
vn 0 0.9238797538373537 0.3826828980362603
vn 0 0.965925849201117 0.25881895959357565
vn 0 -0.866025302838276 -0.5000001748438418
vn 0 -0.9238797538373537 -0.3826828980362603
vn 0 -0.965925849201117 -0.25881895959357565
vn -0.7071067811865475 0.7071067811865475 0
vn 0.7071067811865475 -0.7071067811865475 0
vn 0 0.7071067811865474 0.7071067811865477
vn 0 -0.7071067811865474 -0.7071067811865477
vn 0.7071067811865475 0.7071067811865475 0
vn -0.7071067811865475 -0.7071067811865475 0
vn 0 0.9978589320009053 0.06540299554311324
vn 0 -0.9978589320009053 -0.06540299554311324
vn 0 0.5000001748438414 0.8660253028382762
vn 0 -0.5000001748438414 -0.8660253028382762
vn 0 1 0
vn 0 -1 0
vn 0 0 -1
vn 0 0 1
vn 0 0.2588189595935752 0.965925849201117
vn 0 -0.2588189595935752 -0.965925849201117
vn 0 0.1305259853353409 0.9914448886106773
vn 0 -0.1305259853353409 -0.9914448886106773
usemtl material_0_0
f 1/1/1 2/2/2 3/3/1
f 2/2/2 1/1/1 4/4/3
f 3/3/4 2/2/5 1/1/4
f 4/4/6 1/1/4 2/2/5
f 5/5/7 3/6/7 2/7/7
f 2/7/8 3/6/8 5/5/8
f 3/8/1 6/9/9 1/10/1
f 1/10/4 6/9/10 3/8/4
f 4/4/3 1/1/1 7/11/3
f 7/11/6 1/1/4 4/4/6
f 5/5/7 8/12/7 3/6/7
f 3/6/8 8/12/8 5/5/8
f 5/5/7 2/7/7 9/13/7
f 9/13/8 2/7/8 5/5/8
f 6/9/9 3/8/1 8/14/9
f 8/14/10 3/8/4 6/9/10
f 6/15/11 10/16/11 1/17/11
f 1/17/12 10/16/12 6/15/12
f 1/17/11 10/16/11 7/18/11
f 7/18/12 10/16/12 1/17/12
f 11/19/13 4/20/3 7/21/3
f 7/21/6 4/20/6 11/19/14
f 5/5/7 12/22/7 8/12/7
f 8/12/8 12/22/8 5/5/8
f 5/5/7 9/13/7 13/23/7
f 13/23/8 9/13/8 5/5/8
f 12/24/15 6/25/9 8/26/9
f 8/26/10 6/25/10 12/24/16
f 14/27/11 10/16/11 6/15/11
f 6/15/12 10/16/12 14/27/12
f 7/18/11 10/16/11 11/28/11
f 11/28/12 10/16/12 7/18/12
f 4/20/3 11/19/13 9/29/13
f 9/29/14 11/19/14 4/20/6
f 5/5/7 15/30/7 12/22/7
f 12/22/8 15/30/8 5/5/8
f 11/31/13 13/32/17 9/33/13
f 9/33/14 13/32/18 11/31/14
f 13/34/19 10/35/19 5/36/19
f 5/36/20 10/35/20 13/34/20
f 6/25/9 12/24/15 14/37/15
f 14/37/16 12/24/16 6/25/10
f 16/38/11 10/16/11 14/27/11
f 14/27/12 10/16/12 16/38/12
f 11/28/11 10/16/11 17/39/11
f 17/39/12 10/16/12 11/28/12
f 5/5/7 18/40/7 15/30/7
f 15/30/8 18/40/8 5/5/8
f 15/41/21 14/42/15 12/43/15
f 12/43/16 14/42/16 15/41/22
f 13/32/17 11/31/13 17/44/17
f 17/44/18 11/31/14 13/32/18
f 10/35/19 13/34/19 17/45/19
f 17/45/20 13/34/20 10/35/20
f 10/46/18 19/36/18 5/47/18
f 5/47/17 19/36/17 10/46/17
f 20/48/11 10/16/11 16/38/11
f 16/38/12 10/16/12 20/48/12
f 14/42/15 15/41/21 16/49/21
f 16/49/22 15/41/22 14/42/16
f 19/36/7 18/40/7 5/5/7
f 5/5/8 18/40/8 19/36/8
f 18/50/23 16/51/21 15/52/21
f 15/52/22 16/51/22 18/50/24
f 19/36/18 10/46/18 21/35/18
f 21/35/17 10/46/17 19/36/17
f 22/53/11 10/16/11 20/48/11
f 20/48/12 10/16/12 22/53/12
f 16/51/21 18/50/23 20/54/23
f 20/54/24 18/50/24 16/51/22
f 18/40/7 19/36/7 23/55/7
f 23/55/8 19/36/8 18/40/8
f 10/16/11 22/53/11 21/56/11
f 21/56/12 22/53/12 10/16/12
f 22/57/20 19/36/20 21/58/20
f 21/58/19 19/36/19 22/57/19
f 18/59/17 22/60/17 20/61/17
f 20/61/18 22/60/18 18/59/18
f 19/36/20 22/57/20 23/62/20
f 23/62/19 22/57/19 19/36/19
f 22/60/17 18/59/17 23/63/17
f 23/63/18 18/59/18 22/60/18
