# SSTK version 0.8.0
# 48
mtllib original-48.mtl
o Back-1844.600.4_1/Back-1844.600.4/mesh54/mesh54-geometry#mesh54-geometry
v 0.250079 -0.824640 -0.248424
v 0.250079 0.699389 -0.245118
v 0.250079 -0.824640 -0.245118
v 0.250079 0.699389 -0.248424
v -0.245809 -0.824640 -0.245118
v -0.245809 0.699389 -0.248424
v -0.245809 0.699389 -0.245118
v -0.245809 -0.824640 -0.248424
vt 0 0.002187
vt -1.008311 0
vt 0 0
vt -1.008311 0.002187
vt -1.008311 0.328084
vt 0 0.328084
vt -0.328084 0.002187
vt -0.328084 0
vt 1.008311 0
vt 1.008311 0.328084
vt 0.328084 0
vt 0.328084 0.002187
vt 1.008311 0.002187
vn 1 0 0
vn -1 0 0
vn 0 0 1
vn 0 0 -1
vn 0 -1 0
vn 0 1 0
usemtl material_0_0
f 1/1/1 2/2/1 3/3/1
f 2/2/1 1/1/1 4/4/1
f 3/3/2 2/2/2 1/1/2
f 4/4/2 1/1/2 2/2/2
f 2/5/3 5/3/3 3/6/3
f 3/6/4 5/3/4 2/5/4
f 5/3/5 1/7/5 3/8/5
f 3/8/6 1/7/6 5/3/6
f 1/6/4 6/9/4 4/10/4
f 4/10/3 6/9/3 1/6/3
f 6/1/6 2/11/6 4/12/6
f 4/12/5 2/11/5 6/1/5
f 5/3/3 2/5/3 7/2/3
f 7/2/4 2/5/4 5/3/4
f 1/7/5 5/3/5 8/1/5
f 8/1/6 5/3/6 1/7/6
f 6/9/4 1/6/4 8/3/4
f 8/3/3 1/6/3 6/9/3
f 2/11/6 6/1/6 7/3/6
f 7/3/5 6/1/5 2/11/5
f 7/9/2 8/1/2 5/3/2
f 5/3/1 8/1/1 7/9/1
f 8/1/2 7/9/2 6/13/2
f 6/13/1 7/9/1 8/1/1
