# SSTK version 0.8.0
# 1
mtllib original-1.mtl
o Moulding-92.50.18_1/Moulding-92.50.18/mesh1/mesh1-geometry#mesh1-geometry
v -0.292191 0.719721 0.201181
v -0.291265 0.719224 0.201181
v -0.292191 0.719721 0.242505
v -0.287133 0.785343 0.201181
v -0.291265 0.719224 0.242505
v -0.293003 0.720390 0.242505
v -0.293003 0.720390 0.201181
v -0.291265 0.709306 0.201181
v -0.287133 0.785343 0.242505
v -0.292191 0.718727 0.242505
v -0.293669 0.721203 0.201181
v -0.287133 0.709306 0.201181
v -0.292191 0.709804 0.201181
v -0.287133 0.709306 0.242505
v -0.292191 0.718727 0.201181
v -0.293003 0.718059 0.242505
v -0.293669 0.721203 0.242505
v -0.294164 0.722131 0.201181
v -0.291265 0.709306 0.242505
v -0.293003 0.710472 0.201181
v -0.292191 0.709804 0.242505
v -0.293003 0.718059 0.201181
v -0.293669 0.717245 0.242505
v -0.294164 0.722131 0.242505
v -0.294468 0.723137 0.201181
v -0.293669 0.711285 0.201181
v -0.293003 0.710472 0.242505
v -0.295398 0.785343 0.242505
v -0.293669 0.717245 0.201181
v -0.294164 0.716318 0.242505
v -0.294468 0.723137 0.242505
v -0.294571 0.724183 0.201181
v -0.294164 0.712213 0.201181
v -0.293669 0.711285 0.242505
v -0.295398 0.785343 0.201181
v -0.297315 0.783658 0.242505
v -0.294164 0.716318 0.201181
v -0.294468 0.715311 0.242505
v -0.294571 0.724183 0.242505
v -0.294571 0.729142 0.201181
v -0.294468 0.713219 0.201181
v -0.294164 0.712213 0.242505
v -0.297315 0.783658 0.201181
v -0.298950 0.781699 0.242505
v -0.294468 0.715311 0.201181
v -0.294571 0.714265 0.242505
v -0.294571 0.729142 0.242505
v -0.295398 0.729142 0.201181
v -0.294571 0.714265 0.201181
v -0.294468 0.713219 0.242505
v -0.298950 0.781699 0.201181
v -0.300264 0.779511 0.242505
v -0.295398 0.758895 0.242505
v -0.295398 0.758895 0.201181
v -0.295398 0.729142 0.242505
v -0.300264 0.779511 0.201181
v -0.301226 0.777147 0.242505
v -0.297315 0.760579 0.242505
v -0.297315 0.760579 0.201181
v -0.301226 0.777147 0.201181
v -0.301812 0.774663 0.242505
v -0.298950 0.762539 0.242505
v -0.298950 0.762539 0.201181
v -0.301812 0.774663 0.201181
v -0.302009 0.772119 0.242505
v -0.300264 0.764727 0.242505
v -0.300264 0.764727 0.201181
v -0.302009 0.772119 0.201181
v -0.301812 0.769574 0.242505
v -0.301226 0.767091 0.242505
v -0.301226 0.767091 0.201181
v -0.301812 0.769574 0.201181
vt 0 -0.002463
vt 0 -0.003158
vt -0.02734 -0.002463
vt 0.006496 0.006891
vt 0.009843 0.050306
vt 0.007108 0.006562
vt -0.02734 -0.003158
vt -0.02734 -0.000635
vt -0.02734 0.000061
vt 0 -0.000635
vt 0.005959 0.007333
vt 0.007108 0
vt -0.006496 0.006891
vt -0.007108 0.006562
vt -0.009843 0.050306
vt -0.02734 0.009367
vt 0 0.009367
vt -0.02734 0.008671
vt -0.005959 0.007333
vt 0 0.000061
vt 0.005518 0.007871
vt 0.009843 0
vt 0.006496 0.000329
vt -0.009843 0
vt 0 0.008671
vt -0.006496 0.006233
vt -0.005959 0.005791
vt -0.005518 0.007871
vt -0.02734 0.001899
vt -0.02734 0.002595
vt 0 0.001899
vt 0.005191 0.008485
vt 0 0.002595
vt -0.007108 0
vt -0.007108 0.02734
vt 0 0
vt 0 0.050306
vt 0.02734 0
vt 0.005959 0.000771
vt 0 -0.005567
vt 0 -0.006263
vt -0.02734 -0.005567
vt -0.006496 0.000329
vt 0.02734 0.050306
vt -0.02734 0.008976
vt 0 0.008976
vt -0.02734 0.008281
vt 0.006496 0.006233
vt 0.005959 0.005791
vt -0.005518 0.005252
vt -0.005191 0.008485
vt 0.004989 0.00915
vt 0 0.005043
vt 0 0.004348
vt -0.02734 0.005043
vt -0.02734 0.004348
vt -0.009843 0.02734
vt -0.02734 -0.006263
vt 0.005518 0.001309
vt 0 -0.00411
vt 0 -0.004806
vt -0.02734 -0.00411
vt -0.02734 -0.004806
vt -0.005959 0.000771
vt 0.009843 0.02734
vt 0.004374 0.02734
vt 0 0.008281
vt 0.005518 0.005252
vt -0.02734 0.00756
vt -0.02734 0.008255
vt 0 0.00756
vt -0.005191 0.004639
vt -0.004989 0.00915
vt 0.004921 0.009843
vt 0 0.007312
vt 0 0.006616
vt -0.02734 0.007312
vt -0.02734 0.006616
vt 0.005191 0.001923
vt 0 -0.002482
vt 0 -0.003178
vt -0.02734 -0.002482
vt -0.02734 -0.003178
vt -0.005518 0.001309
vt 0.004374 0
vt -0.004374 0.050306
vt -0.003106 0.049192
vt 0 0.008255
vt 0.005191 0.004639
vt 0 0.007231
vt 0 0.006536
vt -0.02734 0.007231
vt -0.02734 0.006536
vt -0.004989 0.003973
vt -0.004921 0.009843
vt 0.004921 0.013123
vt 0 0.009314
vt 0 0.008618
vt -0.02734 0.009314
vt -0.02734 0.008618
vt 0.004989 0.002589
vt 0 -0.000746
vt 0 -0.001442
vt -0.02734 -0.000746
vt -0.02734 -0.001442
vt -0.005191 0.001923
vt 0 0.036487
vt 0 0.034798
vt -0.02734 0.036487
vt 0.004374 0.050306
vt 0.003106 0.049192
vt -0.02734 0.034798
vt -0.002024 0.047896
vt 0.004989 0.003973
vt 0 0.005944
vt 0 0.005248
vt -0.02734 0.005944
vt -0.02734 0.005248
vt -0.004921 0.003281
vt -0.004921 0.013123
vt 0.004374 0.013123
vt 0 0.013123
vt 0 0.009843
vt -0.02734 0.013123
vt -0.02734 0.009843
vt 0.004921 0.003281
vt 0 0.001032
vt 0 0.000336
vt -0.02734 0.001032
vt -0.02734 0.000336
vt -0.004989 0.002589
vt 0.002024 0.047896
vt 0 0.039757
vt 0 0.038069
vt -0.02734 0.039757
vt -0.02734 0.038069
vt -0.001155 0.046448
vt 0 0.004442
vt 0 0.003747
vt -0.02734 0.004442
vt -0.02734 0.003747
vt -0.004374 0.032808
vt 0.004374 0.032808
vt -0.004374 0
vt -0.004921 0
vt -0.004374 0.02734
vt -0.004921 0.02734
vt 0 0.002784
vt 0 0.002088
vt -0.02734 0.002784
vt -0.02734 0.002088
vt 0.001155 0.046448
vt 0 0.0421
vt 0 0.040411
vt -0.02734 0.0421
vt -0.02734 0.040411
vt -0.000518 0.044884
vt -0.004374 0.013123
vt -0.003106 0.033923
vt 0.003106 0.033923
vt 0 0.032808
vt -0.02734 0.032808
vt 0.000518 0.044884
vt 0 0.043459
vt 0 0.041771
vt -0.02734 0.043459
vt -0.02734 0.041771
vt -0.00013 0.043241
vt -0.02734 0.020054
vt 0 0.020054
vt -0.02734 0.018366
vt -0.002024 0.035219
vt 0.002024 0.035219
vt 0 0.018366
vt 0.00013 0.043241
vt 0 0.043802
vt 0 0.042114
vt -0.02734 0.043802
vt -0.02734 0.042114
vt 0 0.041557
vt -0.02734 0.024054
vt -0.02734 0.025743
vt 0 0.024054
vt -0.001155 0.036667
vt 0.001155 0.036667
vt 0 0.025743
vt 0 0.043122
vt 0 0.041433
vt -0.02734 0.043122
vt -0.02734 0.041433
vt -0.00013 0.039874
vt -0.02734 0.029149
vt -0.02734 0.030837
vt 0 0.029149
vt -0.000518 0.038231
vt 0.000518 0.038231
vt 0 0.030837
vt 0.00013 0.039874
vt 0 0.039745
vt -0.02734 0.039745
vt -0.02734 0.033528
vt -0.02734 0.035217
vt 0 0.033528
vt 0 0.035217
vt 0 0.038777
vt 0 0.037089
vt -0.02734 0.038777
vt -0.02734 0.037089
vn -0.5570188840395423 -0.8304998271061487 0
vn -0.47308688129660287 -0.8810157789421561 0
vn 0.5570188840395423 0.8304998271061487 0
vn 0.47308688129660287 0.8810157789421561 0
vn 0 0 -1
vn 0 0 1
vn -0.708092093870359 -0.7061200936089348 0
vn 0.708092093870359 0.7061200936089348 0
vn -0.47308688129660287 0.8810157789421561 0
vn -0.5570188840395423 0.8304998271061487 0
vn 0.5570188840395423 -0.8304998271061487 0
vn 0.47308688129660287 -0.8810157789421561 0
vn -0.8320502943378437 -0.5547001962252291 0
vn 0.8320502943378437 0.5547001962252291 0
vn 0 -1 0
vn 0 1 0
vn 1 0 0
vn -1 0 0
vn -0.708092093870359 0.7061200936089348 0
vn 0.708092093870359 -0.7061200936089348 0
vn -0.9241461724285951 -0.3820390712814296 0
vn 0.9241461724285951 0.3820390712814296 0
vn -0.8320502943378437 0.5547001962252291 0
vn 0.8320502943378437 -0.5547001962252291 0
vn -0.9808532986144567 -0.1947480592897898 0
vn 0.9808532986144567 0.1947480592897898 0
vn -0.9241461724285951 0.3820390712814296 0
vn 0.9241461724285951 -0.3820390712814296 0
vn -0.9987997111666419 -0.04898098583565607 0
vn 0.9987997111666419 0.04898098583565607 0
vn -0.6599678563052144 0.7512938364208108 0
vn -0.715996190873154 0.6981041861034312 0
vn 0.6599678563052144 -0.7512938364208108 0
vn 0.715996190873154 -0.6981041861034312 0
vn -0.9808532986144567 0.1947480592897898 0
vn 0.9808532986144567 -0.1947480592897898 0
vn -0.8149247298060461 0.5795668078405998 0
vn 0.8149247298060461 -0.5795668078405998 0
vn -0.8944269909998285 0.4472139954999092 0
vn 0.8944269909998285 -0.4472139954999092 0
vn -0.9526081706769159 0.30420005450292026 0
vn 0.9526081706769159 -0.30420005450292026 0
vn -0.715996190873154 -0.6981041861034312 0
vn -0.6599678563052144 -0.7512938364208108 0
vn 0.6599678563052144 0.7512938364208108 0
vn 0.715996190873154 0.6981041861034312 0
vn -0.9880809768858221 0.1539349963989987 0
vn 0.9880809768858221 -0.1539349963989987 0
vn -0.8149247298060461 -0.5795668078405998 0
vn 0.8149247298060461 0.5795668078405998 0
vn -0.8944269909998285 -0.4472139954999092 0
vn 0.8944269909998285 0.4472139954999092 0
vn -0.9880809768858221 -0.1539349963989987 0
vn 0.9880809768858221 0.1539349963989987 0
vn -0.9526081706769159 -0.30420005450292026 0
vn 0.9526081706769159 0.30420005450292026 0
usemtl material_0_0
f 1/1/1 2/2/2 3/3/1
f 3/3/3 2/2/4 1/1/3
f 1/4/5 4/5/5 2/6/5
f 2/6/6 4/5/6 1/4/6
f 5/7/2 3/3/1 2/2/2
f 2/2/4 3/3/3 5/7/4
f 3/8/1 6/9/7 1/10/1
f 1/10/3 6/9/8 3/8/3
f 7/11/5 4/5/5 1/4/5
f 1/4/6 4/5/6 7/11/6
f 2/6/5 4/5/5 8/12/5
f 8/12/6 4/5/6 2/6/6
f 3/13/6 5/14/6 9/15/6
f 9/15/5 5/14/5 3/13/5
f 5/16/9 2/17/9 10/18/10
f 10/18/11 2/17/12 5/16/12
f 6/19/6 3/13/6 9/15/6
f 9/15/5 3/13/5 6/19/5
f 7/20/7 1/10/1 6/9/7
f 6/9/8 1/10/3 7/20/8
f 11/21/5 4/5/5 7/11/5
f 7/11/6 4/5/6 11/21/6
f 12/22/5 8/12/5 4/5/5
f 4/5/6 8/12/6 12/22/6
f 13/23/5 2/6/5 8/12/5
f 8/12/6 2/6/6 13/23/6
f 9/15/6 5/14/6 14/24/6
f 14/24/5 5/14/5 9/15/5
f 15/25/10 10/18/10 2/17/9
f 2/17/12 10/18/11 15/25/11
f 10/26/6 16/27/6 5/14/6
f 5/14/5 16/27/5 10/26/5
f 17/28/6 6/19/6 9/15/6
f 9/15/5 6/19/5 17/28/5
f 6/29/7 17/30/13 7/31/7
f 7/31/8 17/30/14 6/29/8
f 18/32/5 4/5/5 11/21/5
f 11/21/6 4/5/6 18/32/6
f 11/33/13 7/31/7 17/30/13
f 17/30/14 7/31/8 11/33/14
f 8/34/15 12/24/15 19/35/15
f 19/35/16 12/24/16 8/34/16
f 12/36/17 4/37/17 14/38/17
f 14/38/18 4/37/18 12/36/18
f 20/39/5 2/6/5 13/23/5
f 13/23/6 2/6/6 20/39/6
f 13/40/1 8/41/2 21/42/1
f 21/42/3 8/41/4 13/40/3
f 5/14/6 21/43/6 14/24/6
f 14/24/5 21/43/5 5/14/5
f 9/44/17 14/38/17 4/37/17
f 4/37/18 14/38/18 9/44/18
f 10/45/10 15/46/10 16/47/19
f 16/47/20 15/46/11 10/45/11
f 15/48/5 2/6/5 22/49/5
f 22/49/6 2/6/6 15/48/6
f 16/27/6 23/50/6 5/14/6
f 5/14/5 23/50/5 16/27/5
f 24/51/6 17/28/6 9/15/6
f 9/15/5 17/28/5 24/51/5
f 25/52/5 4/5/5 18/32/5
f 18/32/6 4/5/6 25/52/6
f 18/53/21 11/54/13 24/55/21
f 24/55/22 11/54/14 18/53/22
f 17/56/13 24/55/21 11/54/13
f 11/54/14 24/55/22 17/56/14
f 14/57/15 19/35/15 12/24/15
f 12/24/16 19/35/16 14/57/16
f 19/58/2 21/42/1 8/41/2
f 8/41/4 21/42/3 19/58/4
f 26/59/5 2/6/5 20/39/5
f 20/39/6 2/6/6 26/59/6
f 20/60/7 13/61/1 27/62/7
f 27/62/8 13/61/3 20/60/8
f 21/63/1 27/62/7 13/61/1
f 13/61/3 27/62/8 21/63/3
f 27/64/6 21/43/6 5/14/6
f 5/14/5 21/43/5 27/64/5
f 19/34/6 14/24/6 21/43/6
f 21/43/5 14/24/5 19/34/5
f 9/65/16 4/22/16 28/66/16
f 28/66/15 4/22/15 9/65/15
f 22/67/19 16/47/19 15/46/10
f 15/46/11 16/47/20 22/67/20
f 22/49/5 2/6/5 29/68/5
f 29/68/6 2/6/6 22/49/6
f 23/69/23 16/70/19 29/71/23
f 29/71/24 16/70/20 23/69/24
f 23/50/6 30/72/6 5/14/6
f 5/14/5 30/72/5 23/50/5
f 31/73/6 24/51/6 9/15/6
f 9/15/5 24/51/5 31/73/5
f 32/74/5 4/5/5 25/52/5
f 25/52/6 4/5/6 32/74/6
f 25/75/25 18/76/21 31/77/25
f 31/77/26 18/76/22 25/75/26
f 24/78/21 31/77/25 18/76/21
f 18/76/22 31/77/26 24/78/22
f 33/79/5 2/6/5 26/59/5
f 26/59/6 2/6/6 33/79/6
f 26/80/13 20/81/7 34/82/13
f 34/82/14 20/81/8 26/80/14
f 27/83/7 34/82/13 20/81/7
f 20/81/8 34/82/14 27/83/8
f 34/84/6 27/64/6 5/14/6
f 5/14/5 27/64/5 34/84/5
f 35/85/16 28/66/16 4/22/16
f 4/22/15 28/66/15 35/85/15
f 28/86/6 36/87/6 9/15/6
f 9/15/5 36/87/5 28/86/5
f 22/88/19 29/71/23 16/70/19
f 16/70/20 29/71/24 22/88/20
f 29/68/5 2/6/5 37/89/5
f 37/89/6 2/6/6 29/68/6
f 29/90/23 37/91/27 23/92/23
f 23/92/24 37/91/28 29/90/24
f 30/93/27 23/92/23 37/91/27
f 37/91/28 23/92/24 30/93/28
f 30/72/6 38/94/6 5/14/6
f 5/14/5 38/94/5 30/72/5
f 39/95/6 31/73/6 9/15/6
f 9/15/5 31/73/5 39/95/5
f 40/96/5 4/5/5 32/74/5
f 32/74/6 4/5/6 40/96/6
f 32/97/29 25/98/25 39/99/29
f 39/99/30 25/98/26 32/97/30
f 31/100/25 39/99/29 25/98/25
f 25/98/26 39/99/30 31/100/26
f 41/101/5 2/6/5 33/79/5
f 33/79/6 2/6/6 41/101/6
f 33/102/21 26/103/13 42/104/21
f 42/104/22 26/103/14 33/102/22
f 34/105/13 42/104/21 26/103/13
f 26/103/14 42/104/22 34/105/14
f 42/106/6 34/84/6 5/14/6
f 5/14/5 34/84/5 42/106/5
f 35/107/31 43/108/32 28/109/31
f 28/109/33 43/108/34 35/107/33
f 35/110/5 4/5/5 43/111/5
f 43/111/6 4/5/6 35/110/6
f 36/112/32 28/109/31 43/108/32
f 43/108/34 28/109/33 36/112/34
f 36/87/6 44/113/6 9/15/6
f 9/15/5 44/113/5 36/87/5
f 37/89/5 2/6/5 45/114/5
f 45/114/6 2/6/6 37/89/6
f 37/115/27 45/116/35 30/117/27
f 30/117/28 45/116/36 37/115/28
f 38/118/35 30/117/27 45/116/35
f 45/116/36 30/117/28 38/118/36
f 38/94/6 46/119/6 5/14/6
f 5/14/5 46/119/5 38/94/5
f 47/120/6 39/95/6 9/15/6
f 9/15/5 39/95/5 47/120/5
f 48/121/5 4/5/5 40/96/5
f 40/96/6 4/5/6 48/121/6
f 40/122/18 32/123/29 47/124/18
f 47/124/17 32/123/30 40/122/17
f 39/125/29 47/124/18 32/123/29
f 32/123/30 47/124/17 39/125/30
f 49/126/5 2/6/5 41/101/5
f 41/101/6 2/6/6 49/126/6
f 41/127/25 33/128/21 50/129/25
f 50/129/26 33/128/22 41/127/26
f 42/130/21 50/129/25 33/128/21
f 33/128/22 50/129/26 42/130/22
f 50/131/6 42/106/6 5/14/6
f 5/14/5 42/106/5 50/131/5
f 43/111/5 4/5/5 51/132/5
f 51/132/6 4/5/6 43/111/6
f 43/133/32 51/134/37 36/135/32
f 36/135/34 51/134/38 43/133/34
f 44/136/37 36/135/32 51/134/37
f 51/134/38 36/135/34 44/136/38
f 44/113/6 52/137/6 9/15/6
f 9/15/5 52/137/5 44/113/5
f 45/114/5 2/6/5 49/126/5
f 49/126/6 2/6/6 45/114/6
f 45/138/35 49/139/18 38/140/35
f 38/140/36 49/139/17 45/138/36
f 46/141/18 38/140/35 49/139/18
f 49/139/17 38/140/36 46/141/17
f 46/119/6 50/131/6 5/14/6
f 5/14/5 50/131/5 46/119/5
f 53/142/6 47/120/6 9/15/6
f 9/15/5 47/120/5 53/142/5
f 54/143/5 4/5/5 48/121/5
f 48/121/6 4/5/6 54/143/6
f 48/144/15 40/145/15 55/146/15
f 55/146/16 40/145/16 48/144/16
f 47/147/15 55/146/15 40/145/15
f 40/145/16 55/146/16 47/147/16
f 49/148/18 41/149/25 46/150/18
f 46/150/17 41/149/26 49/148/17
f 50/151/25 46/150/18 41/149/25
f 41/149/26 46/150/17 50/151/26
f 51/132/5 4/5/5 56/152/5
f 56/152/6 4/5/6 51/132/6
f 51/153/37 56/154/39 44/155/37
f 44/155/38 56/154/40 51/153/38
f 52/156/39 44/155/37 56/154/39
f 56/154/40 44/155/38 52/156/40
f 52/137/6 57/157/6 9/15/6
f 9/15/5 57/157/5 52/137/5
f 55/158/6 47/120/6 53/142/6
f 53/142/5 47/120/5 55/158/5
f 58/159/6 53/142/6 9/15/6
f 9/15/5 53/142/5 58/159/5
f 59/160/5 4/5/5 54/143/5
f 54/143/6 4/5/6 59/160/6
f 54/161/18 48/122/18 53/162/18
f 53/162/17 48/122/17 54/161/17
f 55/124/18 53/162/18 48/122/18
f 48/122/17 53/162/17 55/124/17
f 56/152/5 4/5/5 60/163/5
f 60/163/6 4/5/6 56/152/6
f 56/164/39 60/165/41 52/166/39
f 52/166/40 60/165/42 56/164/40
f 57/167/41 52/166/39 60/165/41
f 60/165/42 52/166/40 57/167/42
f 57/157/6 61/168/6 9/15/6
f 9/15/5 61/168/5 57/157/5
f 58/169/43 59/170/43 53/171/44
f 53/171/45 59/170/46 58/169/46
f 62/172/6 58/159/6 9/15/6
f 9/15/5 58/159/5 62/172/5
f 63/173/5 4/5/5 59/160/5
f 59/160/6 4/5/6 63/173/6
f 54/174/44 53/171/44 59/170/43
f 59/170/46 53/171/45 54/174/45
f 60/163/5 4/5/5 64/175/5
f 64/175/6 4/5/6 60/163/6
f 60/176/41 64/177/47 57/178/41
f 57/178/42 64/177/48 60/176/42
f 61/179/47 57/178/41 64/177/47
f 64/177/48 57/178/42 61/179/48
f 61/168/6 65/180/6 9/15/6
f 9/15/5 65/180/5 61/168/5
f 58/181/43 62/182/49 59/183/43
f 59/183/46 62/182/50 58/181/46
f 66/184/6 62/172/6 9/15/6
f 9/15/5 62/172/5 66/184/5
f 67/185/5 4/5/5 63/173/5
f 63/173/6 4/5/6 67/185/6
f 63/186/49 59/183/43 62/182/49
f 62/182/50 59/183/46 63/186/50
f 64/175/5 4/5/5 68/180/5
f 68/180/6 4/5/6 64/175/6
f 64/187/47 68/188/18 61/189/47
f 61/189/48 68/188/17 64/187/48
f 65/190/18 61/189/47 68/188/18
f 68/188/17 61/189/48 65/190/17
f 65/180/6 69/191/6 9/15/6
f 9/15/5 69/191/5 65/180/5
f 62/192/49 66/193/51 63/194/49
f 63/194/50 66/193/52 62/192/50
f 70/195/6 66/184/6 9/15/6
f 9/15/5 66/184/5 70/195/5
f 71/196/5 4/5/5 67/185/5
f 67/185/6 4/5/6 71/196/6
f 67/197/51 63/194/49 66/193/51
f 66/193/52 63/194/50 67/197/52
f 68/180/5 4/5/5 72/198/5
f 72/198/6 4/5/6 68/180/6
f 68/188/18 72/199/53 65/190/18
f 65/190/17 72/199/54 68/188/17
f 69/200/53 65/190/18 72/199/53
f 72/199/54 65/190/17 69/200/54
f 69/191/6 70/195/6 9/15/6
f 9/15/5 70/195/5 69/191/5
f 66/201/51 70/202/55 67/203/51
f 67/203/52 70/202/56 66/201/52
f 72/198/5 4/5/5 71/196/5
f 71/196/6 4/5/6 72/198/6
f 71/204/55 67/203/51 70/202/55
f 70/202/56 67/203/52 71/204/56
f 72/205/53 71/206/55 69/207/53
f 69/207/54 71/206/56 72/205/54
f 70/208/55 69/207/53 71/206/55
f 71/206/56 69/207/54 70/208/56
