# SSTK version 0.8.0
# 35
mtllib original-35.mtl
o CoatRack1/CoatRack/mesh48/mesh48-geometry#mesh48-geometry
v 0.276526 0.398599 0.001375
v -0.272256 0.397104 0.000755
v 0.276526 0.397104 0.000755
v -0.272256 0.398599 0.001375
v -0.272256 0.395820 -0.000230
v 0.276526 0.414204 0.001375
v 0.276526 0.400203 0.001586
v -0.272256 0.415699 0.000755
v 0.276526 0.395820 -0.000230
v -0.272256 0.416983 -0.000230
v 0.276526 0.412600 0.001586
v 0.276526 0.415699 0.000755
v -0.272256 0.400203 0.001586
v -0.272256 0.414204 0.001375
v 0.276526 0.394835 -0.001513
v -0.272256 0.417968 -0.001513
v -0.272256 0.412600 0.001586
v 0.276526 0.416983 -0.000230
v -0.272256 0.394835 -0.001513
v 0.276526 0.394216 -0.003008
v 0.276526 0.417968 -0.001513
v -0.272256 0.418587 -0.003008
v -0.272256 0.394216 -0.003008
v 0.276526 0.394004 -0.004613
v 0.276526 0.418587 -0.003008
v -0.272256 0.418799 -0.004613
v -0.272256 0.394004 -0.004613
v 0.276526 0.394216 -0.006217
v 0.276526 0.418799 -0.004613
v -0.272256 0.418587 -0.006217
v -0.272256 0.394216 -0.006217
v 0.276526 0.394835 -0.007712
v 0.276526 0.418587 -0.006217
v -0.272256 0.417968 -0.007712
v -0.272256 0.394835 -0.007712
v 0.276526 0.395820 -0.008996
v 0.276526 0.417968 -0.007712
v -0.272256 0.416983 -0.008996
v -0.272256 0.395820 -0.008996
v -0.272256 0.397104 -0.009981
v 0.276526 0.416983 -0.008996
v -0.272256 0.415699 -0.009981
v 0.276526 0.397104 -0.009981
v 0.276526 0.415699 -0.009981
v -0.272256 0.398599 -0.010600
v 0.276526 0.414204 -0.010600
v 0.276526 0.398599 -0.010600
v -0.272256 0.414204 -0.010600
v -0.272256 0.400203 -0.010811
v -0.272256 0.412600 -0.010811
v 0.276526 0.412600 -0.010811
v 0.276526 0.400203 -0.010811
vn 0 -0.25881895959357565 0.965925849201117
vn 0 -0.5000001748438418 0.866025302838276
vn 0 0.5000001748438418 -0.866025302838276
vn 0 0.25881895959357565 -0.965925849201117
vn 0 -0.7071067811865477 0.7071067811865474
vn 0 0.7071067811865477 -0.7071067811865474
vn 1 0 0
vn -1 0 0
vn 0 -0.13052598533534135 0.9914448886106773
vn 0 0.13052598533534135 -0.9914448886106773
vn 0 -0.8660253028382762 0.5000001748438414
vn 0 0.8660253028382762 -0.5000001748438414
vn 0 0.2588189595935752 0.965925849201117
vn 0 0.1305259853353409 0.9914448886106773
vn 0 -0.1305259853353409 -0.9914448886106773
vn 0 -0.2588189595935752 -0.965925849201117
vn 0 0.5000001748438414 0.8660253028382762
vn 0 -0.5000001748438414 -0.8660253028382762
vn 0 0 1
vn 0 0 -1
vn 0 0.7071067811865474 0.7071067811865477
vn 0 -0.7071067811865474 -0.7071067811865477
vn 0 0.866025302838276 0.5000001748438418
vn 0 -0.866025302838276 -0.5000001748438418
vn 0 -0.965925849201117 0.2588189595935752
vn 0 0.965925849201117 -0.2588189595935752
vn 0 0.965925849201117 0.25881895959357565
vn 0 -0.965925849201117 -0.25881895959357565
vn 0 -1 0
vn 0 1 0
usemtl material_0_0
f 1//1 2//2 3//2
f 2//2 1//1 4//1
f 3//3 2//3 1//4
f 4//4 1//4 2//3
f 5//5 3//2 2//2
f 2//3 3//3 5//6
f 6//7 1//7 3//7
f 3//8 1//8 6//8
f 7//9 4//1 1//1
f 1//4 4//4 7//10
f 4//8 8//8 2//8
f 2//7 8//7 4//7
f 3//2 5//5 9//5
f 9//6 5//6 3//3
f 2//8 10//8 5//8
f 5//7 10//7 2//7
f 11//7 1//7 6//7
f 6//8 1//8 11//8
f 6//7 3//7 12//7
f 12//8 3//8 6//8
f 4//1 7//9 13//9
f 13//10 7//10 4//4
f 1//7 11//7 7//7
f 7//8 11//8 1//8
f 4//8 14//8 8//8
f 8//7 14//7 4//7
f 2//8 8//8 10//8
f 10//7 8//7 2//7
f 5//5 15//11 9//5
f 9//6 15//12 5//6
f 12//7 3//7 9//7
f 9//8 3//8 12//8
f 5//8 10//8 16//8
f 16//7 10//7 5//7
f 6//13 17//14 11//14
f 11//15 17//15 6//16
f 12//17 14//13 6//13
f 6//16 14//16 12//18
f 11//19 13//19 7//19
f 7//20 13//20 11//20
f 13//8 14//8 4//8
f 4//7 14//7 13//7
f 14//13 12//17 8//17
f 8//18 12//18 14//16
f 8//17 18//21 10//21
f 10//22 18//22 8//18
f 15//11 5//5 19//11
f 19//12 5//6 15//12
f 18//7 9//7 15//7
f 15//8 9//8 18//8
f 12//7 9//7 18//7
f 18//8 9//8 12//8
f 18//21 16//23 10//21
f 10//22 16//24 18//22
f 5//8 16//8 19//8
f 19//7 16//7 5//7
f 17//14 6//13 14//13
f 14//16 6//16 17//15
f 13//19 11//19 17//19
f 17//20 11//20 13//20
f 14//8 13//8 17//8
f 17//7 13//7 14//7
f 18//21 8//17 12//17
f 12//18 8//18 18//22
f 19//11 20//25 15//11
f 15//12 20//26 19//12
f 18//7 15//7 21//7
f 21//8 15//8 18//8
f 16//23 18//21 21//23
f 21//24 18//22 16//24
f 19//8 16//8 22//8
f 22//7 16//7 19//7
f 20//25 19//11 23//25
f 23//26 19//12 20//26
f 21//7 15//7 20//7
f 20//8 15//8 21//8
f 21//23 22//27 16//23
f 16//24 22//28 21//24
f 19//8 22//8 23//8
f 23//7 22//7 19//7
f 23//25 24//29 20//25
f 20//26 24//30 23//26
f 21//7 20//7 25//7
f 25//8 20//8 21//8
f 22//27 21//23 25//27
f 25//28 21//24 22//28
f 23//8 22//8 26//8
f 26//7 22//7 23//7
f 24//29 23//25 27//29
f 27//30 23//26 24//30
f 25//7 20//7 24//7
f 24//8 20//8 25//8
f 25//27 26//30 22//27
f 22//28 26//29 25//28
f 23//8 26//8 27//8
f 27//7 26//7 23//7
f 27//29 28//28 24//29
f 24//30 28//27 27//30
f 25//7 24//7 29//7
f 29//8 24//8 25//8
f 26//30 25//27 29//30
f 29//29 25//28 26//29
f 27//8 26//8 30//8
f 30//7 26//7 27//7
f 28//28 27//29 31//28
f 31//27 27//30 28//27
f 29//7 24//7 28//7
f 28//8 24//8 29//8
f 29//30 30//26 26//30
f 26//29 30//25 29//29
f 27//8 30//8 31//8
f 31//7 30//7 27//7
f 31//28 32//24 28//28
f 28//27 32//23 31//27
f 29//7 28//7 33//7
f 33//8 28//8 29//8
f 30//26 29//30 33//26
f 33//25 29//29 30//25
f 31//8 30//8 34//8
f 34//7 30//7 31//7
f 32//24 31//28 35//24
f 35//23 31//27 32//23
f 33//7 28//7 32//7
f 32//8 28//8 33//8
f 33//26 34//12 30//26
f 30//25 34//11 33//25
f 31//8 34//8 35//8
f 35//7 34//7 31//7
f 35//24 36//22 32//24
f 32//23 36//21 35//23
f 33//7 32//7 37//7
f 37//8 32//8 33//8
f 34//12 33//26 37//12
f 37//11 33//25 34//11
f 35//8 34//8 38//8
f 38//7 34//7 35//7
f 36//22 35//24 39//22
f 39//21 35//23 36//21
f 37//7 32//7 36//7
f 36//8 32//8 37//8
f 37//12 38//6 34//12
f 34//11 38//5 37//11
f 35//8 38//8 39//8
f 39//7 38//7 35//7
f 40//18 36//22 39//22
f 39//21 36//21 40//17
f 37//7 36//7 41//7
f 41//8 36//8 37//8
f 38//6 37//12 41//6
f 41//5 37//11 38//5
f 39//8 38//8 42//8
f 42//7 38//7 39//7
f 36//22 40//18 43//18
f 43//17 40//17 36//21
f 39//8 42//8 40//8
f 40//7 42//7 39//7
f 41//7 36//7 43//7
f 43//8 36//8 41//8
f 44//3 38//6 41//6
f 41//5 38//5 44//2
f 38//6 44//3 42//3
f 42//2 44//2 38//5
f 45//16 43//18 40//18
f 40//17 43//17 45//13
f 40//8 42//8 45//8
f 45//7 42//7 40//7
f 41//7 43//7 44//7
f 44//8 43//8 41//8
f 46//4 42//3 44//3
f 44//2 42//2 46//1
f 43//18 45//16 47//16
f 47//13 45//13 43//17
f 45//8 42//8 48//8
f 48//7 42//7 45//7
f 44//7 43//7 47//7
f 47//8 43//8 44//8
f 42//3 46//4 48//4
f 48//1 46//1 42//2
f 44//7 47//7 46//7
f 46//8 47//8 44//8
f 49//15 47//16 45//16
f 45//13 47//13 49//14
f 45//8 48//8 50//8
f 50//7 48//7 45//7
f 51//10 48//4 46//4
f 46//1 48//1 51//9
f 46//7 47//7 52//7
f 52//8 47//8 46//8
f 47//16 49//15 52//15
f 52//14 49//14 47//13
f 45//8 50//8 49//8
f 49//7 50//7 45//7
f 48//4 51//10 50//10
f 50//9 51//9 48//1
f 46//7 52//7 51//7
f 51//8 52//8 46//8
f 50//20 52//20 49//20
f 49//19 52//19 50//19
f 52//20 50//20 51//20
f 51//19 50//19 52//19
