# SSTK version 0.8.0
# 11
mtllib original-11.mtl
o Shelf-664.380.16_1/Shelf-664.380.16/mesh13/mesh13-geometry#mesh13-geometry
v -0.272256 0.474586 -0.220324
v -0.272256 0.461362 0.068944
v -0.272256 0.474586 0.068944
v -0.272256 0.461362 -0.220324
v 0.276526 0.474586 0.068944
v -0.245809 0.461362 -0.220324
v 0.276526 0.461362 0.068944
v -0.245809 0.474586 -0.220324
v 0.276526 0.461362 -0.220324
v 0.250079 0.474586 -0.220324
v -0.245809 0.474586 -0.245118
v 0.250079 0.461362 -0.220324
v 0.276526 0.474586 -0.220324
v 0.250079 0.474586 -0.245118
v -0.245809 0.461362 -0.245118
v 0.250079 0.461362 -0.245118
vt -0.191382 0.008749
vt 0 0
vt 0 0.008749
vt -0.191382 0
vt 0.36308 0.008749
vt 0.36308 0
vt 0 0.191382
vt -0.017498 0
vt -0.017498 0.191382
vt 0.017498 0.191382
vt -0.017498 0.008749
vt -0.36308 0
vt 0.191382 0
vt 0.345582 0.191382
vt -0.207787 0.008749
vt -0.345582 0.191382
vt 0.191382 0.008749
vt -0.36308 0.191382
vt 0.36308 0.191382
vt 0.345582 0.207787
vt -0.207787 0
vt 0.017498 0.207787
vt -0.345582 0.207787
vt -0.345582 0.008749
vt -0.36308 0.008749
vt -0.345582 0
vt 0.207787 0
vt 0.207787 0.008749
vt -0.017498 0.207787
vn -1 0 0
vn 1 0 0
vn 0 0 1
vn 0 0 -1
vn 0 1 0
vn 0 -1 0
usemtl material_0_0
f 1/1/1 2/2/1 3/3/1
f 2/2/1 1/1/1 4/4/1
f 3/3/2 2/2/2 1/1/2
f 4/4/2 1/1/2 2/2/2
f 2/2/3 5/5/3 3/3/3
f 3/3/4 5/5/4 2/2/4
f 5/6/5 1/7/5 3/2/5
f 3/2/6 1/7/6 5/6/6
f 1/3/4 6/8/4 4/2/4
f 4/2/3 6/8/3 1/3/3
f 6/9/6 2/2/6 4/7/6
f 4/7/5 2/2/5 6/9/5
f 5/5/3 2/2/3 7/6/3
f 7/6/4 2/2/4 5/5/4
f 1/7/5 5/6/5 8/10/5
f 8/10/6 5/6/6 1/7/6
f 6/8/4 1/3/4 8/11/4
f 8/11/3 1/3/3 6/8/3
f 2/2/6 6/9/6 7/12/6
f 7/12/5 6/9/5 2/2/5
f 9/13/2 5/3/2 7/2/2
f 7/2/1 5/3/1 9/13/1
f 8/10/5 5/6/5 10/14/5
f 10/14/6 5/6/6 8/10/6
f 11/15/1 6/4/1 8/1/1
f 8/1/2 6/4/2 11/15/2
f 7/12/6 6/9/6 12/16/6
f 12/16/5 6/9/5 7/12/5
f 5/3/2 9/13/2 13/17/2
f 13/17/1 9/13/1 5/3/1
f 7/12/6 12/16/6 9/18/6
f 9/18/5 12/16/5 7/12/5
f 10/14/5 5/6/5 13/19/5
f 13/19/6 5/6/6 10/14/6
f 8/10/5 10/14/5 14/20/5
f 14/20/6 10/14/6 8/10/6
f 6/4/1 11/15/1 15/21/1
f 15/21/2 11/15/2 6/4/2
f 14/20/5 11/22/5 8/10/5
f 8/10/6 11/22/6 14/20/6
f 12/16/6 6/9/6 16/23/6
f 16/23/5 6/9/5 12/16/5
f 9/12/4 10/24/4 13/25/4
f 13/25/3 10/24/3 9/12/3
f 10/24/4 9/12/4 12/26/4
f 12/26/3 9/12/3 10/24/3
f 10/17/2 16/27/2 14/28/2
f 14/28/1 16/27/1 10/17/1
f 11/11/4 16/26/4 15/8/4
f 15/8/3 16/26/3 11/11/3
f 16/23/6 6/9/6 15/29/6
f 15/29/5 6/9/5 16/23/5
f 16/26/4 11/11/4 14/24/4
f 14/24/3 11/11/3 16/26/3
f 16/27/2 10/17/2 12/13/2
f 12/13/1 10/17/1 16/27/1
