# SSTK version 0.8.0
# 42
mtllib original-42.mtl
o mesh34/mesh34-geometry#mesh34-geometry
v 0.291403 -0.903982 -0.261648
v 0.250079 -0.903982 -0.220324
v 0.250079 -0.903982 -0.261648
v 0.291403 -0.903982 -0.220324
v 0.250079 -0.837864 -0.261648
v 0.291403 -0.837864 -0.220324
v 0.250079 -0.837864 -0.220324
v 0.291403 -0.837864 -0.261648
vt -0.02734 0.02734
vt 0 0
vt 0 0.02734
vt -0.02734 0
vt 0 0.021872
vt -0.02734 0.065617
vt -0.02734 0.021872
vt 0 0.065617
vt 0.02734 0.021872
vt 0.02734 0.065617
vt 0.02734 0
vt 0.02734 0.02734
vn 0 -1 0
vn 0 1 0
vn -1 0 0
vn 1 0 0
vn 0 0 -1
vn 0 0 1
usemtl material_0_0
f 1/1/1 2/2/1 3/3/1
f 2/2/1 1/1/1 4/4/1
f 3/3/2 2/2/2 1/1/2
f 4/4/2 1/1/2 2/2/2
f 2/5/3 5/6/3 3/7/3
f 3/7/4 5/6/4 2/5/4
f 5/8/5 1/7/5 3/5/5
f 3/5/6 1/7/6 5/8/6
f 1/9/4 6/8/4 4/5/4
f 4/5/3 6/8/3 1/9/3
f 6/10/6 2/5/6 4/9/6
f 4/9/5 2/5/5 6/10/5
f 5/6/3 2/5/3 7/8/3
f 7/8/4 2/5/4 5/6/4
f 1/7/5 5/8/5 8/6/5
f 8/6/6 5/8/6 1/7/6
f 6/8/4 1/9/4 8/10/4
f 8/10/3 1/9/3 6/8/3
f 2/5/6 6/10/6 7/8/6
f 7/8/5 6/10/5 2/5/5
f 6/11/2 5/3/2 7/2/2
f 7/2/1 5/3/1 6/11/1
f 5/3/2 6/11/2 8/12/2
f 8/12/1 6/11/1 5/3/1
