# SSTK version 0.8.0
# 34
mtllib original-34.mtl
o Moulding-1246.50.22_1_2/Moulding-1246.50.22_1_1_2/mesh46/mesh46-geometry#mesh46-geometry
v 0.206556 0.655866 0.235066
v 0.205731 0.655040 0.233073
v 0.206556 -0.293495 0.235066
v 0.246773 0.696083 0.222669
v 0.205731 0.654759 0.233073
v 0.207870 -0.294808 0.236778
v 0.207870 0.657179 0.236778
v 0.205449 0.654759 0.230934
v 0.205731 -0.292669 0.233073
v 0.246773 -0.333711 0.222669
v 0.209582 0.658891 0.238092
v 0.205449 0.654759 0.222669
v 0.209582 -0.296520 0.238092
v 0.211575 0.660884 0.238917
v 0.205449 -0.292387 0.230934
v 0.205449 -0.292387 0.222669
v 0.211575 -0.298513 0.238917
v 0.213714 0.663024 0.239199
v 0.246773 0.696083 0.240852
v 0.213714 -0.300652 0.239199
v 0.246773 -0.333711 0.240852
v 0.213714 -0.300652 0.240852
v 0.213714 0.663024 0.240852
vt 0.026608 0.013719
vt 0.027154 0.015146
vt 0.654713 0.013719
vt -0.005146 0.038402
vt -0.003828 0.037629
vt -0.01203 0
vt 0.02734 0.015146
vt 0.654713 0.019234
vt 0.655582 0.017807
vt 0.026608 0.019234
vt -0.002695 0.0364
vt -0.006562 0.038665
vt 0.654167 0.015146
vt 0.002695 -0.445367
vt 0.003828 -0.444138
vt 0.01203 -0.481767
vt 0.025739 0.017807
vt -0.001826 0.034799
vt -0.01203 0.038665
vt 0.005146 -0.443365
vt 0.02734 0.008647
vt 0.02734 0.010074
vt 0.654167 0.008647
vt 0.001826 -0.446968
vt 0.655582 0.022061
vt 0.656715 0.020633
vt 0.025739 0.022061
vt 0.024606 0.020633
vt -0.00128 0.032934
vt 0.02734 0.006562
vt 0.02734 0.01203
vt 0.653981 0.006562
vt 0 0
vt -0.681321 0
vt -0.02734 0.02734
vt 0.01203 -0.443102
vt 0.653981 0.010074
vt 0.00128 -0.448833
vt 0.656715 0.023432
vt 0.658034 0.022005
vt 0.024606 0.023432
vt 0.023288 0.022005
vt -0.001094 0.030932
vt 0.653981 0.01203
vt 0 0.01203
vt -0.681321 0.01203
vt -0.653981 0.02734
vt 0.006562 -0.443102
vt 0.001094 -0.450835
vt 0.658034 0.023255
vt 0.659449 0.021828
vt 0.023288 0.023255
vt 0.021872 0.021828
vt 0 -0.481767
vt 0.659449 0.001094
vt 0.659449 0
vt 0.021872 0.001094
vt 0 0.030932
vt 0.021872 0.021872
vt 0.681321 0
vt 0 -0.450835
vt 0.021872 0
vt 0.659449 0.021872
vn -0.8660253028382762 0 0.5000001748438417
vn -0.9238797538373538 0 0.38268289803626016
vn 0.8660253028382762 0 -0.5000001748438417
vn 0.9238797538373538 0 -0.38268289803626016
vn -0.7071067811865474 0.7071067811865477 0
vn 0.7071067811865474 -0.7071067811865477 0
vn -0.965925849201117 0 0.2588189595935754
vn 0.965925849201117 0 -0.2588189595935754
vn -0.7071067811865475 0 0.7071067811865475
vn 0.7071067811865475 0 -0.7071067811865475
vn -0.7071067811865477 -0.7071067811865474 0
vn 0.7071067811865477 0.7071067811865474 0
vn -0.9978589320009054 0 0.06540299554311302
vn 0.9978589320009054 0 -0.06540299554311302
vn -0.5000001748438417 0 0.8660253028382762
vn 0.5000001748438417 0 -0.8660253028382762
vn -1 0 0
vn 1 0 0
vn 0 0 -1
vn 0 0 1
vn -0.2588189595935754 0 0.965925849201117
vn 0.2588189595935754 0 -0.965925849201117
vn -0.13052598533534113 0 0.9914448886106773
vn 0.13052598533534113 0 -0.9914448886106773
usemtl material_0_0
f 1/1/1 2/2/2 3/3/1
f 3/3/3 2/2/4 1/1/3
f 2/4/5 1/5/5 4/6/5
f 4/6/6 1/5/6 2/4/6
f 5/7/7 3/3/1 2/2/2
f 2/2/4 3/3/3 5/7/8
f 3/8/1 6/9/9 1/10/1
f 1/10/3 6/9/10 3/8/3
f 1/5/5 7/11/5 4/6/5
f 4/6/6 7/11/6 1/5/6
f 8/12/5 2/4/5 4/6/5
f 4/6/6 2/4/6 8/12/6
f 9/13/7 3/3/1 5/7/7
f 5/7/8 3/3/3 9/13/8
f 6/14/11 3/15/11 10/16/11
f 10/16/12 3/15/12 6/14/12
f 7/17/9 1/10/1 6/9/9
f 6/9/10 1/10/3 7/17/10
f 7/11/5 11/18/5 4/6/5
f 4/6/6 11/18/6 7/11/6
f 12/19/5 8/12/5 4/6/5
f 4/6/6 8/12/6 12/19/6
f 3/15/11 9/20/11 10/16/11
f 10/16/12 9/20/12 3/15/12
f 5/21/7 8/22/13 9/23/7
f 9/23/8 8/22/14 5/21/8
f 13/24/11 6/14/11 10/16/11
f 10/16/12 6/14/12 13/24/12
f 6/25/9 13/26/15 7/27/9
f 7/27/10 13/26/16 6/25/10
f 11/28/15 7/27/9 13/26/15
f 13/26/16 7/27/10 11/28/16
f 11/18/5 14/29/5 4/6/5
f 4/6/6 14/29/6 11/18/6
f 8/30/13 12/31/17 15/32/13
f 15/32/14 12/31/18 8/30/14
f 4/33/19 10/34/19 12/35/19
f 12/35/20 10/34/20 4/33/20
f 10/16/11 9/20/11 16/36/11
f 16/36/12 9/20/12 10/16/12
f 15/37/13 9/23/7 8/22/13
f 8/22/14 9/23/8 15/37/14
f 17/38/11 13/24/11 10/16/11
f 10/16/12 13/24/12 17/38/12
f 13/39/15 17/40/21 11/41/15
f 11/41/16 17/40/22 13/39/16
f 14/42/21 11/41/15 17/40/21
f 17/40/22 11/41/16 14/42/22
f 14/29/5 18/43/5 4/6/5
f 4/6/6 18/43/6 14/29/6
f 16/44/17 15/32/13 12/31/17
f 12/31/18 15/32/14 16/44/18
f 4/45/18 19/33/18 10/46/18
f 10/46/17 19/33/17 4/45/17
f 16/47/19 12/35/19 10/34/19
f 10/34/20 12/35/20 16/47/20
f 15/48/11 16/36/11 9/20/11
f 9/20/12 16/36/12 15/48/12
f 20/49/11 17/38/11 10/16/11
f 10/16/12 17/38/12 20/49/12
f 17/50/21 20/51/23 14/52/21
f 14/52/22 20/51/24 17/50/22
f 18/53/23 14/52/21 20/51/23
f 20/51/24 14/52/22 18/53/24
f 4/6/5 18/43/5 19/33/5
f 19/33/6 18/43/6 4/6/6
f 21/34/18 10/46/18 19/33/18
f 19/33/17 10/46/17 21/34/17
f 21/54/11 20/49/11 10/16/11
f 10/16/12 20/49/12 21/54/12
f 20/55/17 22/56/17 18/57/17
f 18/57/18 22/56/18 20/55/18
f 23/58/5 19/33/5 18/43/5
f 18/43/6 19/33/6 23/58/6
f 19/33/20 23/59/20 21/60/20
f 21/60/19 23/59/19 19/33/19
f 22/61/11 20/49/11 21/54/11
f 21/54/12 20/49/12 22/61/12
f 23/62/17 18/57/17 22/56/17
f 22/56/18 18/57/18 23/62/18
f 22/63/20 21/60/20 23/59/20
f 23/59/19 21/60/19 22/63/19
