# SSTK version 0.8.0
# 4
mtllib original-4.mtl
o Beam-92.50.50_1/Beam-92.50.50/mesh7/mesh7-geometry#mesh7-geometry
v -0.245809 0.785343 0.242505
v -0.287133 0.785343 0.201181
v -0.287133 0.785343 0.242505
v -0.245809 0.785343 0.201181
v -0.287133 0.709306 0.242505
v -0.245809 0.709306 0.201181
v -0.287133 0.709306 0.201181
v -0.245809 0.709306 0.242505
vt 0.02734 0
vt 0 0.02734
vt 0 0
vt 0.02734 0.02734
vt -0.02734 0.050306
vt 0 0.050306
vt 0.02734 0.050306
vt -0.02734 0
vt -0.02734 0.02734
vn 0 1 0
vn 0 -1 0
vn -1 0 0
vn 1 0 0
vn 0 0 1
vn 0 0 -1
usemtl material_0_0
f 1/1/1 2/2/1 3/3/1
f 2/2/1 1/1/1 4/4/1
f 3/3/2 2/2/2 1/1/2
f 4/4/2 1/1/2 2/2/2
f 2/5/3 5/3/3 3/6/3
f 3/6/4 5/3/4 2/5/4
f 5/3/5 1/7/5 3/6/5
f 3/6/6 1/7/6 5/3/6
f 1/6/4 6/1/4 4/7/4
f 4/7/3 6/1/3 1/6/3
f 6/8/6 2/6/6 4/5/6
f 4/5/5 2/6/5 6/8/5
f 5/3/3 2/5/3 7/8/3
f 7/8/4 2/5/4 5/3/4
f 1/7/5 5/3/5 8/1/5
f 8/1/6 5/3/6 1/7/6
f 6/1/4 1/6/4 8/3/4
f 8/3/3 1/6/3 6/1/3
f 2/6/6 6/8/6 7/3/6
f 7/3/5 6/8/5 2/6/5
f 6/9/2 5/3/2 7/2/2
f 7/2/1 5/3/1 6/9/1
f 5/3/2 6/9/2 8/8/2
f 8/8/1 6/9/1 5/3/1
