# SSTK version 0.8.0
# 10
mtllib original-10.mtl
o Top-734.627.16_1/Top-734.627.16/mesh11/mesh11-geometry#mesh11-geometry
v 0.301860 -0.837829 0.252962
v 0.301860 -0.837829 -0.261648
v 0.302390 -0.837723 0.253492
v 0.301321 -0.837864 -0.261648
v 0.302390 -0.837723 -0.261648
v -0.297590 -0.837829 0.252962
v 0.301321 -0.837864 0.252423
v -0.297051 -0.837864 -0.261648
v 0.302902 -0.837549 0.254004
v -0.297590 -0.837829 -0.261648
v -0.298120 -0.837723 0.253492
v -0.297051 -0.837864 0.252423
v 0.302902 -0.837549 -0.261648
v -0.298120 -0.837723 -0.261648
v 0.303387 -0.837310 0.254489
v -0.298632 -0.837549 0.254004
v -0.298632 -0.837549 -0.261648
v 0.303387 -0.837310 -0.261648
v 0.303836 -0.837010 0.254938
v -0.299117 -0.837310 0.254489
v -0.299117 -0.837310 -0.261648
v 0.303836 -0.837010 -0.261648
v 0.304243 -0.836654 0.255345
v -0.299566 -0.837010 0.254938
v -0.299566 -0.837010 -0.261648
v 0.304243 -0.836654 -0.261648
v 0.304599 -0.836247 -0.261648
v -0.299973 -0.836654 0.255345
v -0.299973 -0.836654 -0.261648
v 0.304599 -0.836247 0.255701
v -0.300329 -0.836247 0.255701
v -0.300329 -0.836247 -0.261648
v 0.304900 -0.835798 -0.261648
v -0.300629 -0.835798 0.256001
v 0.304900 -0.835798 0.256001
v -0.300629 -0.835798 -0.261648
v 0.305139 -0.835313 -0.261648
v -0.300868 -0.835313 0.256240
v -0.300868 -0.835313 -0.261648
v 0.305139 -0.835313 0.256240
v 0.305312 -0.834801 -0.261648
v -0.301042 -0.834801 0.256414
v -0.301042 -0.834801 -0.261648
v 0.305312 -0.834801 0.256414
v 0.305418 -0.834271 -0.261648
v -0.301148 -0.834271 0.256520
v -0.301148 -0.834271 -0.261648
v 0.305418 -0.834271 0.256520
v 0.305453 -0.833732 -0.261648
v -0.301183 -0.833732 0.256555
v -0.301183 -0.833732 -0.261648
v 0.305453 -0.833732 0.256555
v 0.305418 -0.833192 0.256520
v 0.305418 -0.833192 -0.261648
v -0.301148 -0.833192 0.256520
v -0.301148 -0.833192 -0.261648
v 0.305312 -0.832662 0.256414
v -0.301042 -0.832662 0.256414
v 0.305312 -0.832662 -0.261648
v -0.301042 -0.832662 -0.261648
v 0.305139 -0.832150 0.256240
v -0.300868 -0.832150 0.256240
v 0.305139 -0.832150 -0.261648
v -0.300868 -0.832150 -0.261648
v 0.304900 -0.831665 0.256001
v -0.300629 -0.831665 0.256001
v 0.304900 -0.831665 -0.261648
v -0.300629 -0.831665 -0.261648
v 0.304599 -0.831216 0.255701
v -0.300329 -0.831216 0.255701
v 0.304599 -0.831216 -0.261648
v -0.300329 -0.831216 -0.261648
v 0.304243 -0.830810 0.255345
v -0.299973 -0.830810 0.255345
v 0.304243 -0.830810 -0.261648
v -0.299973 -0.830810 -0.261648
v 0.303836 -0.830453 -0.261648
v -0.299566 -0.830453 0.254938
v 0.303836 -0.830453 0.254938
v -0.299566 -0.830453 -0.261648
v 0.303387 -0.830153 -0.261648
v -0.299117 -0.830153 0.254489
v 0.303387 -0.830153 0.254489
v -0.299117 -0.830153 -0.261648
v 0.302902 -0.829914 -0.261648
v -0.298632 -0.829914 0.254004
v 0.302902 -0.829914 0.254004
v -0.298632 -0.829914 -0.261648
v 0.302390 -0.829740 -0.261648
v -0.298120 -0.829740 0.253492
v 0.302390 -0.829740 0.253492
v -0.298120 -0.829740 -0.261648
v 0.301860 -0.829635 -0.261648
v -0.297590 -0.829635 0.252962
v 0.301860 -0.829635 0.252962
v -0.297590 -0.829635 -0.261648
v 0.301321 -0.829599 -0.261648
v -0.297051 -0.829599 0.252423
v 0.301321 -0.829599 0.252423
v -0.297051 -0.829599 -0.261648
v 0.301321 -0.828773 -0.261648
v -0.297051 -0.828773 0.252423
v 0.301321 -0.828773 0.252423
v -0.297051 -0.828773 -0.261648
v 0.300523 -0.828742 -0.261648
v -0.296253 -0.828742 0.251625
v 0.300523 -0.828742 0.251625
v -0.296253 -0.828742 -0.261648
v 0.299731 -0.828650 -0.261648
v -0.295460 -0.828650 0.250832
v 0.299731 -0.828650 0.250832
v -0.295460 -0.828650 -0.261648
v 0.298947 -0.828496 -0.261648
v -0.294677 -0.828496 0.250049
v 0.298947 -0.828496 0.250049
v -0.294677 -0.828496 -0.261648
v 0.298178 -0.828283 -0.261648
v -0.293908 -0.828283 0.249280
v 0.298178 -0.828283 0.249280
v -0.293908 -0.828283 -0.261648
v 0.297428 -0.828011 -0.261648
v -0.293158 -0.828011 0.248529
v 0.297428 -0.828011 0.248529
v -0.293158 -0.828011 -0.261648
v 0.296701 -0.827682 -0.261648
v -0.292430 -0.827682 0.247802
v 0.296701 -0.827682 0.247802
v -0.292430 -0.827682 -0.261648
v 0.296001 -0.827298 -0.261648
v -0.291731 -0.827298 0.247103
v 0.296001 -0.827298 0.247103
v -0.291731 -0.827298 -0.261648
v 0.295333 -0.826861 -0.261648
v -0.291063 -0.826861 0.246435
v 0.295333 -0.826861 0.246435
v -0.291063 -0.826861 -0.261648
v 0.294701 -0.826373 -0.261648
v -0.290431 -0.826373 0.245803
v 0.294701 -0.826373 0.245803
v -0.290431 -0.826373 -0.261648
v 0.294109 -0.825839 -0.261648
v -0.289838 -0.825839 0.245210
v 0.294109 -0.825839 0.245210
v -0.289838 -0.825839 -0.261648
v 0.293559 -0.825260 0.244661
v -0.289289 -0.825260 0.244661
v 0.293559 -0.825260 -0.261648
v -0.289289 -0.825260 -0.261648
v 0.293056 -0.824640 0.244158
v -0.288786 -0.824640 0.244158
v 0.293056 -0.824640 -0.261648
v -0.288786 -0.824640 -0.261648
vt 0.002377 -0.38961
vt 0.342848 -0.38961
vt 0.002026 -0.389968
vt 0.342848 -0.397554
vt 0.002377 -0.397554
vt 0.342848 -0.397196
vt 0.342848 -0.389968
vt 0.398979 0.004034
vt 0.39933 0.003676
vt 0.002377 0.004034
vt 0.002734 -0.397196
vt -0.398622 0.008749
vt -0.002734 0.008749
vt -0.398979 0.008726
vt 0.002026 -0.375355
vt 0.342848 -0.375355
vt 0.001688 -0.375713
vt -0.002377 0.008726
vt -0.39933 0.008656
vt 0.002026 0.003676
vt 0.002377 0.002943
vt 0.002734 0.0033
vt 0.398979 0.002943
vt 0.398622 0.342848
vt 0.398622 0.002734
vt 0.002734 0.342848
vt 0.398622 0.0033
vt 0.342848 -0.375713
vt 0.39933 0.004701
vt 0.399668 0.004344
vt 0.002026 0.004701
vt -0.002026 0.008656
vt -0.002026 0.003676
vt -0.342848 0.003676
vt -0.002377 0.004034
vt -0.002377 0.002943
vt -0.342848 0.002943
vt -0.002734 0.0033
vt 0.002734 0.002734
vt -0.342848 0.0033
vt 0.001688 -0.354674
vt 0.342848 -0.354674
vt 0.001367 -0.355032
vt -0.399668 0.008541
vt 0.001688 0.004344
vt -0.342848 0.004034
vt -0.342848 0.004701
vt -0.002026 0.004701
vt -0.342848 0.004344
vt 0.342848 -0.355032
vt 0.399668 0.005291
vt 0.399989 0.004934
vt 0.001688 0.005291
vt -0.001688 0.008541
vt -0.001688 0.004344
vt 0.001367 -0.327922
vt 0.342848 -0.327922
vt 0.00107 -0.328279
vt -0.399989 0.008383
vt 0.001367 0.004934
vt -0.342848 0.005291
vt -0.001688 0.005291
vt -0.342848 0.004934
vt 0.342848 -0.328279
vt 0.399989 0.005794
vt 0.400286 0.005436
vt 0.001367 0.005794
vt -0.001367 0.008383
vt -0.001367 0.004934
vt 0.00107 -0.295555
vt 0.342848 -0.295555
vt 0.000801 -0.295913
vt -0.400286 0.008184
vt 0.00107 0.005436
vt -0.342848 0.005794
vt -0.001367 0.005794
vt -0.342848 0.005436
vt 0.342848 -0.295913
vt 0.400286 0.0062
vt 0.400555 0.005843
vt 0.00107 0.0062
vt -0.00107 0.008184
vt -0.00107 0.005436
vt 0.342848 -0.258129
vt 0.342848 -0.258486
vt 0.000801 -0.258129
vt -0.400555 0.007948
vt 0.000801 0.005843
vt -0.342848 0.0062
vt -0.00107 0.0062
vt -0.342848 0.005843
vt -0.000801 0.007948
vt -0.400791 0.007679
vt 0.000565 -0.258486
vt -0.000801 0.005843
vt 0.000801 0.006504
vt 0.400555 0.006504
vt 0.000565 0.006146
vt -0.000565 0.007679
vt 0.400791 0.006146
vt 0.342848 -0.216283
vt 0.342848 -0.21664
vt 0.000565 -0.216283
vt -0.342848 0.006504
vt -0.000801 0.006504
vt -0.342848 0.006146
vt -0.000565 0.006146
vt -0.40099 0.007382
vt 0.000565 0.006699
vt 0.400791 0.006699
vt 0.000366 0.006341
vt 0.000366 -0.21664
vt -0.342848 0.006699
vt -0.000565 0.006699
vt -0.342848 0.006341
vt -0.000366 0.007382
vt 0.40099 0.006341
vt -0.000366 0.006341
vt 0.342848 -0.170733
vt 0.342848 -0.17109
vt 0.000366 -0.170733
vt -0.401148 0.007061
vt 0.000366 0.006783
vt 0.40099 0.006783
vt 0.000208 0.006425
vt -0.342848 0.006783
vt -0.000366 0.006783
vt -0.342848 0.006425
vt 0.000208 -0.17109
vt -0.000208 0.007061
vt 0.401148 0.006425
vt -0.000208 0.006425
vt 0.342848 -0.122258
vt 0.342848 -0.122616
vt 0.000208 -0.122258
vt -0.401263 0.006722
vt 0.000208 0.006753
vt 0.401148 0.006753
vt 0.000093 0.006396
vt -0.342848 0.006753
vt -0.000208 0.006753
vt -0.342848 0.006396
vt 0.000093 -0.122616
vt -0.000093 0.006722
vt 0.401263 0.006396
vt -0.000093 0.006396
vt 0.342848 -0.071689
vt 0.342848 -0.072047
vt 0.000093 -0.071689
vt -0.401333 0.006372
vt 0.000093 0.006611
vt 0.401263 0.006611
vt 0.000023 0.006254
vt -0.342848 0.006611
vt -0.000093 0.006611
vt -0.342848 0.006254
vt 0.000023 -0.072047
vt -0.000023 0.006372
vt 0.401333 0.006254
vt -0.000023 0.006254
vt 0.342848 -0.01989
vt 0.342848 -0.020248
vt 0.000023 -0.01989
vt -0.401356 0.006015
vt 0.000023 0.00636
vt 0.401333 0.00636
vt 0 0.006002
vt -0.342848 0.00636
vt -0.000023 0.00636
vt -0.342848 0.006002
vt 0 -0.020248
vt 0 0.006015
vt 0.401356 0.006002
vt 0 0.032252
vt 0.342848 0.032252
vt 0.000023 0.031894
vt -0.401333 0.005658
vt 0.000023 0.005644
vt -0.000023 0.005644
vt 0.342848 0.031894
vt 0.401333 0.005644
vt -0.000023 0.005658
vt -0.342848 0.005644
vt 0.000023 0.083845
vt 0.342848 0.083845
vt 0.000093 0.083488
vt 0.000023 0.005545
vt 0.401333 0.005545
vt 0.000093 0.005187
vt -0.401263 0.005307
vt -0.000023 0.005545
vt -0.000093 0.005187
vt -0.342848 0.005545
vt 0.342848 0.083488
vt 0.401263 0.005187
vt -0.000093 0.005307
vt -0.342848 0.005187
vt 0.000093 0.134007
vt 0.342848 0.134007
vt 0.000208 0.13365
vt 0.000093 0.004996
vt 0.401263 0.004996
vt 0.000208 0.004638
vt -0.401148 0.004969
vt -0.000093 0.004996
vt -0.000208 0.004638
vt -0.342848 0.004996
vt 0.342848 0.13365
vt 0.401148 0.004638
vt -0.000208 0.004969
vt -0.342848 0.004638
vt 0.000208 0.181879
vt 0.342848 0.181879
vt 0.000366 0.181522
vt 0.000208 0.004364
vt 0.401148 0.004364
vt 0.000366 0.004007
vt -0.40099 0.004648
vt -0.000208 0.004364
vt -0.000366 0.004007
vt -0.342848 0.004364
vt 0.342848 0.181522
vt 0.40099 0.004007
vt -0.000366 0.004648
vt -0.342848 0.004007
vt 0.000366 0.226643
vt 0.342848 0.226643
vt 0.000565 0.226285
vt 0.000366 0.003661
vt 0.40099 0.003661
vt 0.000565 0.003303
vt -0.400791 0.00435
vt -0.000366 0.003661
vt -0.000565 0.003303
vt -0.342848 0.003661
vt 0.342848 0.226285
vt 0.400791 0.003303
vt -0.000565 0.00435
vt -0.342848 0.003303
vt 0.000565 0.267531
vt 0.342848 0.267531
vt 0.000801 0.267173
vt 0.000565 0.002898
vt 0.400791 0.002898
vt 0.000801 0.002541
vt -0.400555 0.004082
vt -0.000565 0.002898
vt -0.000801 0.002541
vt -0.342848 0.002898
vt 0.342848 0.267173
vt 0.400555 0.002541
vt -0.000801 0.004082
vt -0.342848 0.002541
vt 0.342848 0.303845
vt 0.342848 0.303487
vt 0.000801 0.303845
vt 0.000801 0.002089
vt 0.400555 0.002089
vt 0.00107 0.001732
vt -0.400286 0.003846
vt -0.000801 0.002089
vt -0.00107 0.001732
vt -0.342848 0.002089
vt 0.00107 0.303487
vt 0.400286 0.001732
vt -0.00107 0.003846
vt -0.342848 0.001732
vt 0.342848 0.334963
vt 0.342848 0.334605
vt 0.00107 0.334963
vt 0.00107 0.001247
vt 0.400286 0.001247
vt 0.001367 0.00089
vt -0.399989 0.003647
vt -0.00107 0.001247
vt -0.001367 0.00089
vt -0.342848 0.001247
vt 0.001367 0.334605
vt 0.399989 0.00089
vt -0.001367 0.003647
vt -0.342848 0.00089
vt 0.342848 0.360352
vt 0.342848 0.359995
vt 0.001367 0.360352
vt 0.001367 0.000387
vt 0.399989 0.000387
vt 0.001688 0.000029
vt -0.399668 0.003489
vt -0.001367 0.000387
vt -0.001688 0.000029
vt -0.342848 0.000387
vt 0.001688 0.359995
vt 0.399668 0.000029
vt -0.001688 0.003489
vt -0.342848 0.000029
vt 0.342848 0.379579
vt 0.342848 0.379222
vt 0.001688 0.379579
vt 0.001688 -0.000477
vt 0.399668 -0.000477
vt 0.002026 -0.000834
vt -0.39933 0.003374
vt -0.001688 -0.000477
vt -0.002026 -0.000834
vt -0.342848 -0.000477
vt 0.002026 0.379222
vt 0.39933 -0.000834
vt -0.002026 0.003374
vt -0.342848 -0.000834
vt 0.342848 0.392315
vt 0.342848 0.391957
vt 0.002026 0.392315
vt 0.002026 -0.001329
vt 0.39933 -0.001329
vt 0.002377 -0.001687
vt -0.398979 0.003304
vt -0.002026 -0.001329
vt -0.002377 -0.001687
vt -0.342848 -0.001329
vt 0.002377 0.391957
vt 0.398979 -0.001687
vt -0.002377 0.003304
vt -0.342848 -0.001687
vt 0.342848 0.398341
vt 0.342848 0.397983
vt 0.002377 0.398341
vt 0.002377 -0.002156
vt 0.398979 -0.002156
vt 0.002734 -0.002514
vt -0.398622 0.003281
vt -0.002377 -0.002156
vt -0.002734 -0.002514
vt -0.342848 -0.002156
vt 0.002734 0.397983
vt 0.398622 -0.002514
vt -0.002734 0.003281
vt -0.342848 -0.002514
vt 0.342848 0.003281
vt 0.342848 0.002734
vt 0.002734 0.003281
vt 0.398622 0.003281
vt -0.398622 0.002734
vt -0.002734 0.002734
vt -0.342848 0.003281
vt -0.342848 0.002734
vt 0.342848 0.39843
vt 0.342848 0.397902
vt 0.002734 0.39843
vt 0.002734 -0.002626
vt 0.398622 -0.002626
vt 0.003262 -0.003154
vt -0.398094 0.002714
vt -0.002734 -0.002626
vt -0.003262 -0.003154
vt -0.342848 -0.002626
vt 0.003262 0.397902
vt 0.398094 -0.003154
vt -0.003262 0.002714
vt -0.342848 -0.003154
vt 0.342848 0.395737
vt 0.342848 0.395209
vt 0.003262 0.395737
vt 0.003262 -0.002926
vt 0.398094 -0.002926
vt 0.003786 -0.003454
vt -0.39757 0.002653
vt -0.003262 -0.002926
vt -0.003786 -0.003454
vt -0.342848 -0.002926
vt 0.003786 0.395209
vt 0.39757 -0.003454
vt -0.003786 0.002653
vt -0.342848 -0.003454
vt 0.342848 0.390683
vt 0.342848 0.390155
vt 0.003786 0.390683
vt 0.003786 -0.003206
vt 0.39757 -0.003206
vt 0.004304 -0.003735
vt -0.397052 0.002551
vt -0.003786 -0.003206
vt -0.004304 -0.003735
vt -0.342848 -0.003206
vt 0.004304 0.390155
vt 0.397052 -0.003735
vt -0.004304 0.002551
vt -0.342848 -0.003735
vt 0.342848 0.3833
vt 0.342848 0.382772
vt 0.004304 0.3833
vt 0.004304 -0.003466
vt 0.397052 -0.003466
vt 0.004813 -0.003994
vt -0.396543 0.00241
vt -0.004304 -0.003466
vt -0.004813 -0.003994
vt -0.342848 -0.003466
vt 0.004813 0.382772
vt 0.396543 -0.003994
vt -0.004813 0.00241
vt -0.342848 -0.003994
vt 0.342848 0.37363
vt 0.342848 0.373102
vt 0.004813 0.37363
vt 0.004813 -0.003704
vt 0.396543 -0.003704
vt 0.00531 -0.004232
vt -0.396046 0.00223
vt -0.004813 -0.003704
vt -0.00531 -0.004232
vt -0.342848 -0.003704
vt 0.00531 0.373102
vt 0.396046 -0.004232
vt -0.00531 0.00223
vt -0.342848 -0.004232
vt 0.342848 0.361731
vt 0.342848 0.361203
vt 0.00531 0.361731
vt 0.00531 -0.003918
vt 0.396046 -0.003918
vt 0.005791 -0.004446
vt -0.395565 0.002012
vt -0.00531 -0.003918
vt -0.005791 -0.004446
vt -0.342848 -0.003918
vt 0.005791 0.361203
vt 0.395565 -0.004446
vt -0.005791 0.002012
vt -0.342848 -0.004446
vt 0.342848 0.347676
vt 0.342848 0.347148
vt 0.005791 0.347676
vt 0.005791 -0.004107
vt 0.395565 -0.004107
vt 0.006254 -0.004635
vt -0.395102 0.001758
vt -0.005791 -0.004107
vt -0.006254 -0.004635
vt -0.342848 -0.004107
vt 0.006254 0.347148
vt 0.395102 -0.004635
vt -0.006254 0.001758
vt -0.342848 -0.004635
vt 0.342848 0.331547
vt 0.342848 0.331019
vt 0.006254 0.331547
vt 0.006254 -0.00427
vt 0.395102 -0.00427
vt 0.006695 -0.004798
vt -0.394661 0.001469
vt -0.006254 -0.00427
vt -0.006695 -0.004798
vt -0.342848 -0.00427
vt 0.006695 0.331019
vt 0.394661 -0.004798
vt -0.006695 0.001469
vt -0.342848 -0.004798
vt 0.342848 0.31344
vt 0.342848 0.312912
vt 0.006695 0.31344
vt 0.006695 -0.004405
vt 0.394661 -0.004405
vt 0.007114 -0.004933
vt -0.394242 0.001147
vt -0.006695 -0.004405
vt -0.007114 -0.004933
vt -0.342848 -0.004405
vt 0.007114 0.312912
vt 0.394242 -0.004933
vt -0.007114 0.001147
vt -0.342848 -0.004933
vt 0.342848 0.293465
vt 0.342848 0.292937
vt 0.007114 0.293465
vt 0.007114 -0.004513
vt 0.394242 -0.004513
vt 0.007506 -0.005041
vt -0.39385 0.000793
vt -0.007114 -0.004513
vt -0.007506 -0.005041
vt -0.342848 -0.004513
vt 0.007506 0.292937
vt 0.39385 -0.005041
vt -0.007506 0.000793
vt -0.342848 -0.005041
vt 0.007506 0.271739
vt 0.342848 0.271739
vt 0.007869 0.271211
vt 0.007506 -0.004593
vt 0.39385 -0.004593
vt 0.007869 -0.005121
vt -0.393487 0.00041
vt -0.007506 -0.004593
vt -0.007869 -0.005121
vt -0.342848 -0.004593
vt 0.342848 0.271211
vt 0.393487 -0.005121
vt -0.007869 0.00041
vt -0.342848 -0.005121
vt 0.007869 0.248394
vt 0.342848 0.248394
vt 0.008202 0.247866
vt 0.007869 -0.004643
vt 0.393487 -0.004643
vt 0.008202 -0.005171
vt -0.393154 0
vt -0.007869 -0.004643
vt -0.008202 -0.005171
vt -0.342848 -0.004643
vt 0.342848 0.247866
vt 0.393154 -0.005171
vt -0.008202 0
vt -0.342848 -0.005171
vt -0.393154 0.342848
vt -0.008202 0.342848
vt -0.393154 0.008202
vt -0.008202 0.008202
vn 0.13052598533534113 -0.9914448886106773 0
vn 0.2588189595935754 -0.965925849201117 0
vn -0.2588189595935754 0.965925849201117 0
vn -0.13052598533534113 0.9914448886106773 0
vn 0.06540299554311302 -0.9978589320009054 0
vn -0.06540299554311302 0.9978589320009054 0
vn 0 -0.9914448886106773 0.1305259853353409
vn 0 -0.965925849201117 0.2588189595935752
vn 0 0.9914448886106773 -0.1305259853353409
vn 0 0.965925849201117 -0.2588189595935752
vn 0 0 -1
vn 0 0 1
vn 0.38268289803626016 -0.9238797538373538 0
vn -0.38268289803626016 0.9238797538373538 0
vn 0 -0.9978589320009054 0.06540299554311281
vn 0 0.9978589320009054 -0.06540299554311281
vn 0 -1 0
vn 0 1 0
vn 0 -0.9238797538373538 0.38268289803625993
vn 0 0.9238797538373538 -0.38268289803625993
vn -0.2588189595935754 -0.965925849201117 0
vn -0.13052598533534113 -0.9914448886106773 0
vn 0.13052598533534113 0.9914448886106773 0
vn 0.2588189595935754 0.965925849201117 0
vn -0.06540299554311302 -0.9978589320009054 0
vn 0.06540299554311302 0.9978589320009054 0
vn 0.5000001748438417 -0.8660253028382762 0
vn -0.5000001748438417 0.8660253028382762 0
vn -0.38268289803626016 -0.9238797538373538 0
vn 0.38268289803626016 0.9238797538373538 0
vn 0 -0.8660253028382762 0.5000001748438414
vn 0 0.8660253028382762 -0.5000001748438414
vn 0.6087613233345314 -0.7933534213778813 0
vn -0.6087613233345314 0.7933534213778813 0
vn -0.5000001748438417 -0.8660253028382762 0
vn 0.5000001748438417 0.8660253028382762 0
vn 0 -0.7933534213778816 0.6087613233345311
vn 0 0.7933534213778816 -0.6087613233345311
vn 0.7071067811865475 -0.7071067811865475 0
vn -0.7071067811865475 0.7071067811865475 0
vn -0.6087613233345314 -0.7933534213778813 0
vn 0.6087613233345314 0.7933534213778813 0
vn 0 -0.7071067811865477 0.7071067811865474
vn 0 0.7071067811865477 -0.7071067811865474
vn 0.7933534213778813 -0.6087613233345314 0
vn -0.7933534213778813 0.6087613233345314 0
vn -0.7071067811865475 -0.7071067811865475 0
vn 0.7071067811865475 0.7071067811865475 0
vn 0 -0.6087613233345316 0.7933534213778812
vn 0 0.6087613233345316 -0.7933534213778812
vn 0.8660253028382762 -0.5000001748438417 0
vn -0.8660253028382762 0.5000001748438417 0
vn -0.7933534213778813 -0.6087613233345314 0
vn 0.7933534213778813 0.6087613233345314 0
vn 0 -0.5000001748438418 0.866025302838276
vn 0 0.5000001748438418 -0.866025302838276
vn -0.8660253028382762 -0.5000001748438417 0
vn 0.8660253028382762 0.5000001748438417 0
vn 0.9238797538373538 -0.38268289803626016 0
vn -0.9238797538373538 0.38268289803626016 0
vn 0 -0.3826828980362603 0.9238797538373537
vn 0 0.3826828980362603 -0.9238797538373537
vn -0.9238797538373538 -0.38268289803626016 0
vn 0.9238797538373538 0.38268289803626016 0
vn 0.965925849201117 -0.2588189595935754 0
vn -0.965925849201117 0.2588189595935754 0
vn 0 -0.25881895959357565 0.965925849201117
vn 0 0.25881895959357565 -0.965925849201117
vn -0.965925849201117 -0.2588189595935754 0
vn 0.965925849201117 0.2588189595935754 0
vn 0.9914448886106773 -0.13052598533534113 0
vn -0.9914448886106773 0.13052598533534113 0
vn 0 -0.13052598533534135 0.9914448886106773
vn 0 0.13052598533534135 -0.9914448886106773
vn -0.9914448886106773 -0.13052598533534113 0
vn 0.9914448886106773 0.13052598533534113 0
vn 1 0 0
vn -1 0 0
vn 0 0.1305259853353409 0.9914448886106773
vn 0 -0.1305259853353409 -0.9914448886106773
vn 0 0.2588189595935752 0.965925849201117
vn 0 -0.2588189595935752 -0.965925849201117
vn 0 0.38268289803625993 0.9238797538373538
vn 0 -0.38268289803625993 -0.9238797538373538
vn 0 0.5000001748438414 0.8660253028382762
vn 0 -0.5000001748438414 -0.8660253028382762
vn 0 0.6087613233345311 0.7933534213778816
vn 0 -0.6087613233345311 -0.7933534213778816
vn 0 0.7071067811865474 0.7071067811865477
vn 0 -0.7071067811865474 -0.7071067811865477
vn 0 0.7933534213778812 0.6087613233345316
vn 0 -0.7933534213778812 -0.6087613233345316
vn 0 0.866025302838276 0.5000001748438418
vn 0 -0.866025302838276 -0.5000001748438418
vn 0 0.9238797538373537 0.3826828980362603
vn 0 -0.9238797538373537 -0.3826828980362603
vn 0 0.965925849201117 0.25881895959357565
vn 0 -0.965925849201117 -0.25881895959357565
vn 0 0.9914448886106773 0.13052598533534135
vn 0 -0.9914448886106773 -0.13052598533534135
vn 0 0.9978589320009053 0.06540299554311324
vn 0 -0.9978589320009053 -0.06540299554311324
vn 0.03862798688773208 0.9992536608034024 0
vn 0.07719798319168496 0.9970157829197773 0
vn -0.03862798688773208 -0.9992536608034024 0
vn -0.07719798319168496 -0.9970157829197773 0
vn 0 0.9992536608034024 0.0386279868877323
vn 0 0.997015782919777 0.07719798319168515
vn 0 -0.997015782919777 -0.07719798319168515
vn 0 -0.9992536608034024 -0.0386279868877323
vn -0.03862798688773208 0.9992536608034024 0
vn -0.07719798319168496 0.9970157829197773 0
vn 0.03862798688773208 -0.9992536608034024 0
vn 0.07719798319168496 -0.9970157829197773 0
vn 0.1539349963989987 0.9880809768858221 0
vn -0.1539349963989987 -0.9880809768858221 0
vn 0 0.9880809768858221 0.15393499639899894
vn 0 -0.9880809768858221 -0.15393499639899894
vn -0.1539349963989987 0.9880809768858221 0
vn 0.1539349963989987 -0.9880809768858221 0
vn 0.22975299345089106 0.9732489722575385 0
vn -0.22975299345089106 -0.9732489722575385 0
vn 0 0.9732489722575384 0.22975299345089126
vn 0 -0.9732489722575384 -0.22975299345089126
vn -0.22975299345089106 0.9732489722575385 0
vn 0.22975299345089106 -0.9732489722575385 0
vn 0.30420005450292026 0.9526081706769159 0
vn -0.30420005450292026 -0.9526081706769159 0
vn 0 0.9526081706769159 0.3042000545029205
vn 0 -0.9526081706769159 -0.3042000545029205
vn -0.30420005450292026 0.9526081706769159 0
vn 0.30420005450292026 -0.9526081706769159 0
vn 0.376831010158422 0.926282024970248 0
vn -0.376831010158422 -0.926282024970248 0
vn 0 0.926282024970248 0.37683101015842224
vn 0 -0.926282024970248 -0.37683101015842224
vn -0.376831010158422 0.926282024970248 0
vn 0.376831010158422 -0.926282024970248 0
vn 0.4472139954999092 0.8944269909998285 0
vn -0.4472139954999092 -0.8944269909998285 0
vn 0 0.8944269909998285 0.4472139954999094
vn 0 -0.8944269909998285 -0.4472139954999094
vn -0.4472139954999092 0.8944269909998285 0
vn 0.4472139954999092 -0.8944269909998285 0
vn 0.5149270138811451 0.8572340231088864 0
vn -0.5149270138811451 -0.8572340231088864 0
vn 0 0.8572340231088865 0.5149270138811455
vn 0 -0.8572340231088865 -0.5149270138811455
vn -0.5149270138811451 0.8572340231088864 0
vn 0.5149270138811451 -0.8572340231088864 0
vn 0.5795668078405998 0.8149247298060461 0
vn -0.5795668078405998 -0.8149247298060461 0
vn 0 0.814924729806046 0.5795668078406
vn 0 -0.814924729806046 -0.5795668078406
vn -0.5795668078405998 0.8149247298060461 0
vn 0.5795668078405998 -0.8149247298060461 0
vn 0.6407470475713052 0.767752057000602 0
vn -0.6407470475713052 -0.767752057000602 0
vn 0 0.7677520570006018 0.6407470475713054
vn 0 -0.7677520570006018 -0.6407470475713054
vn -0.6407470475713052 0.767752057000602 0
vn 0.6407470475713052 -0.767752057000602 0
vn 0.6981041861034312 0.715996190873154 0
vn -0.6981041861034312 -0.715996190873154 0
vn 0 0.7159961908731539 0.6981041861034314
vn 0 -0.7159961908731539 -0.6981041861034314
vn -0.6981041861034312 0.715996190873154 0
vn 0.6981041861034312 -0.715996190873154 0
vn 0.7512938364208108 0.6599678563052144 0
vn -0.7512938364208108 -0.6599678563052144 0
vn 0 0.6599678563052142 0.751293836420811
vn 0 -0.6599678563052142 -0.751293836420811
vn -0.7512938364208108 0.6599678563052144 0
vn 0.7512938364208108 -0.6599678563052144 0
vn 0.7762263690212085 0.6304542997205671 0
vn -0.7762263690212085 -0.6304542997205671 0
vn 0 0.6304542997205669 0.7762263690212086
vn 0 -0.6304542997205669 -0.7762263690212086
vn -0.7762263690212085 0.6304542997205671 0
vn 0.7762263690212085 -0.6304542997205671 0
usemtl material_0_0
f 1/1/1 2/2/1 3/3/2
f 3/3/3 2/2/4 1/1/4
f 2/4/1 1/5/1 4/6/5
f 4/6/6 1/5/4 2/4/4
f 5/7/2 3/3/2 2/2/1
f 2/2/4 3/3/3 5/7/3
f 1/8/7 3/9/8 6/10/7
f 6/10/9 3/9/10 1/8/9
f 7/11/5 4/6/5 1/5/1
f 1/5/4 4/6/6 7/11/6
f 4/12/11 8/13/11 2/14/11
f 2/14/12 8/13/12 4/12/12
f 3/15/2 5/16/2 9/17/13
f 9/17/14 5/16/3 3/15/3
f 2/14/11 10/18/11 5/19/11
f 5/19/12 10/18/12 2/14/12
f 11/20/8 6/10/7 3/9/8
f 3/9/10 6/10/9 11/20/10
f 6/21/7 12/22/15 1/23/7
f 1/23/9 12/22/16 6/21/9
f 4/24/17 7/25/17 8/26/17
f 8/26/18 7/25/18 4/24/18
f 7/27/15 1/23/7 12/22/15
f 12/22/16 1/23/9 7/27/16
f 8/13/11 10/18/11 2/14/11
f 2/14/12 10/18/12 8/13/12
f 13/28/13 9/17/13 5/16/2
f 5/16/3 9/17/14 13/28/14
f 3/29/8 9/30/19 11/31/8
f 11/31/10 9/30/20 3/29/10
f 10/18/11 14/32/11 5/19/11
f 5/19/12 14/32/12 10/18/12
f 11/33/21 14/34/21 6/35/22
f 6/35/23 14/34/24 11/33/24
f 6/36/22 10/37/22 12/38/25
f 12/38/26 10/37/23 6/36/23
f 12/39/17 8/26/17 7/25/17
f 7/25/18 8/26/18 12/39/18
f 8/40/25 12/38/25 10/37/22
f 10/37/23 12/38/26 8/40/26
f 9/41/13 13/42/13 15/43/27
f 15/43/28 13/42/14 9/41/14
f 5/19/11 14/32/11 13/44/11
f 13/44/12 14/32/12 5/19/12
f 16/45/19 11/31/8 9/30/19
f 9/30/20 11/31/10 16/45/20
f 10/46/22 6/35/22 14/34/21
f 14/34/24 6/35/23 10/46/23
f 14/47/21 11/48/21 17/49/29
f 17/49/30 11/48/24 14/47/24
f 18/50/27 15/43/27 13/42/13
f 13/42/14 15/43/28 18/50/28
f 9/51/19 15/52/31 16/53/19
f 16/53/20 15/52/32 9/51/20
f 14/32/11 17/54/11 13/44/11
f 13/44/12 17/54/12 14/32/12
f 16/55/29 17/49/29 11/48/21
f 11/48/24 17/49/30 16/55/30
f 15/56/27 18/57/27 19/58/33
f 19/58/34 18/57/28 15/56/28
f 13/44/11 17/54/11 18/59/11
f 18/59/12 17/54/12 13/44/12
f 20/60/31 16/53/19 15/52/31
f 15/52/32 16/53/20 20/60/32
f 17/61/29 16/62/29 21/63/35
f 21/63/36 16/62/30 17/61/30
f 22/64/33 19/58/33 18/57/27
f 18/57/28 19/58/34 22/64/34
f 15/65/31 19/66/37 20/67/31
f 20/67/32 19/66/38 15/65/32
f 17/54/11 21/68/11 18/59/11
f 18/59/12 21/68/12 17/54/12
f 20/69/35 21/63/35 16/62/29
f 16/62/30 21/63/36 20/69/36
f 19/70/33 22/71/33 23/72/39
f 23/72/40 22/71/34 19/70/34
f 18/59/11 21/68/11 22/73/11
f 22/73/12 21/68/12 18/59/12
f 24/74/37 20/67/31 19/66/37
f 19/66/38 20/67/32 24/74/38
f 21/75/35 20/76/35 25/77/41
f 25/77/42 20/76/36 21/75/36
f 26/78/39 23/72/39 22/71/33
f 22/71/34 23/72/40 26/78/40
f 19/79/37 23/80/43 24/81/37
f 24/81/38 23/80/44 19/79/38
f 21/68/11 25/82/11 22/73/11
f 22/73/12 25/82/12 21/68/12
f 24/83/41 25/77/41 20/76/35
f 20/76/36 25/77/42 24/83/42
f 26/84/39 27/85/45 23/86/39
f 23/86/40 27/85/46 26/84/40
f 22/73/11 25/82/11 26/87/11
f 26/87/12 25/82/12 22/73/12
f 28/88/43 24/81/37 23/80/43
f 23/80/44 24/81/38 28/88/44
f 25/89/41 24/90/41 29/91/47
f 29/91/48 24/90/42 25/89/42
f 26/87/11 29/92/11 27/93/11
f 27/93/12 29/92/12 26/87/12
f 30/94/45 23/86/39 27/85/45
f 27/85/46 23/86/40 30/94/46
f 25/82/11 29/92/11 26/87/11
f 26/87/12 29/92/12 25/82/12
f 28/95/47 29/91/47 24/90/41
f 24/90/42 29/91/48 28/95/48
f 28/96/43 23/97/43 31/98/49
f 31/98/50 23/97/44 28/96/44
f 29/92/11 32/99/11 27/93/11
f 27/93/12 32/99/12 29/92/12
f 30/100/49 31/98/49 23/97/43
f 23/97/44 31/98/50 30/100/50
f 27/101/45 33/102/51 30/103/45
f 30/103/46 33/102/52 27/101/46
f 29/104/47 28/105/47 32/106/53
f 32/106/54 28/105/48 29/104/48
f 31/107/53 32/106/53 28/105/47
f 28/105/48 32/106/54 31/107/54
f 27/93/11 32/99/11 33/108/11
f 33/108/12 32/99/12 27/93/12
f 31/109/49 30/110/49 34/111/55
f 34/111/56 30/110/50 31/109/50
f 35/112/51 30/103/45 33/102/51
f 33/102/52 30/103/46 35/112/52
f 32/113/53 31/114/53 36/115/57
f 36/115/58 31/114/54 32/113/54
f 32/99/11 36/116/11 33/108/11
f 33/108/12 36/116/12 32/99/12
f 35/117/55 34/111/55 30/110/49
f 30/110/50 34/111/56 35/117/56
f 34/118/57 36/115/57 31/114/53
f 31/114/54 36/115/58 34/118/58
f 33/119/51 37/120/59 35/121/51
f 35/121/52 37/120/60 33/119/52
f 33/108/11 36/116/11 37/122/11
f 37/122/12 36/116/12 33/108/12
f 34/123/55 35/124/55 38/125/61
f 38/125/62 35/124/56 34/123/56
f 36/126/57 34/127/57 39/128/63
f 39/128/64 34/127/58 36/126/58
f 40/129/59 35/121/51 37/120/59
f 37/120/60 35/121/52 40/129/60
f 36/116/11 39/130/11 37/122/11
f 37/122/12 39/130/12 36/116/12
f 40/131/61 38/125/61 35/124/55
f 35/124/56 38/125/62 40/131/62
f 38/132/63 39/128/63 34/127/57
f 34/127/58 39/128/64 38/132/64
f 37/133/59 41/134/65 40/135/59
f 40/135/60 41/134/66 37/133/60
f 37/122/11 39/130/11 41/136/11
f 41/136/12 39/130/12 37/122/12
f 38/137/61 40/138/61 42/139/67
f 42/139/68 40/138/62 38/137/62
f 39/140/63 38/141/63 43/142/69
f 43/142/70 38/141/64 39/140/64
f 44/143/65 40/135/59 41/134/65
f 41/134/66 40/135/60 44/143/66
f 39/130/11 43/144/11 41/136/11
f 41/136/12 43/144/12 39/130/12
f 44/145/67 42/139/67 40/138/61
f 40/138/62 42/139/68 44/145/68
f 42/146/69 43/142/69 38/141/63
f 38/141/64 43/142/70 42/146/70
f 41/147/65 45/148/71 44/149/65
f 44/149/66 45/148/72 41/147/66
f 41/136/11 43/144/11 45/150/11
f 45/150/12 43/144/12 41/136/12
f 42/151/67 44/152/67 46/153/73
f 46/153/74 44/152/68 42/151/68
f 43/154/69 42/155/69 47/156/75
f 47/156/76 42/155/70 43/154/70
f 48/157/71 44/149/65 45/148/71
f 45/148/72 44/149/66 48/157/72
f 43/144/11 47/158/11 45/150/11
f 45/150/12 47/158/12 43/144/12
f 48/159/73 46/153/73 44/152/67
f 44/152/68 46/153/74 48/159/74
f 46/160/75 47/156/75 42/155/69
f 42/155/70 47/156/76 46/160/76
f 45/161/71 49/162/77 48/163/71
f 48/163/72 49/162/78 45/161/72
f 45/150/11 47/158/11 49/164/11
f 49/164/12 47/158/12 45/150/12
f 46/165/73 48/166/73 50/167/12
f 50/167/11 48/166/74 46/165/74
f 47/168/75 46/169/75 51/170/78
f 51/170/77 46/169/76 47/168/76
f 52/171/77 48/163/71 49/162/77
f 49/162/78 48/163/72 52/171/78
f 47/158/11 51/172/11 49/164/11
f 49/164/12 51/172/12 47/158/12
f 52/173/12 50/167/12 48/166/73
f 48/166/74 50/167/11 52/173/11
f 50/167/78 51/170/78 46/169/75
f 46/169/76 51/170/77 50/167/77
f 52/174/77 49/175/77 53/176/76
f 53/176/75 49/175/78 52/174/78
f 49/164/11 51/172/11 54/177/11
f 54/177/12 51/172/12 49/164/12
f 50/167/12 52/173/12 55/178/79
f 55/178/80 52/173/11 50/167/11
f 50/167/78 55/179/72 51/170/78
f 51/170/77 55/179/71 50/167/77
f 54/180/76 53/176/76 49/175/77
f 49/175/78 53/176/75 54/180/75
f 53/181/79 55/178/79 52/173/12
f 52/173/11 55/178/80 53/181/80
f 51/172/11 56/182/11 54/177/11
f 54/177/12 56/182/12 51/172/12
f 56/183/72 51/170/78 55/179/72
f 55/179/71 51/170/77 56/183/71
f 53/184/76 54/185/76 57/186/70
f 57/186/69 54/185/75 53/184/75
f 55/187/79 53/188/79 58/189/81
f 58/189/82 53/188/80 55/187/80
f 54/177/11 56/182/11 59/190/11
f 59/190/12 56/182/12 54/177/12
f 55/191/72 58/192/66 56/193/72
f 56/193/71 58/192/65 55/191/71
f 59/194/70 57/186/70 54/185/76
f 54/185/75 57/186/69 59/194/69
f 57/195/81 58/189/81 53/188/79
f 53/188/80 58/189/82 57/195/82
f 56/182/11 60/196/11 59/190/11
f 59/190/12 60/196/12 56/182/12
f 60/197/66 56/193/72 58/192/66
f 58/192/65 56/193/71 60/197/65
f 57/198/70 59/199/70 61/200/64
f 61/200/63 59/199/69 57/198/69
f 58/201/81 57/202/81 62/203/83
f 62/203/84 57/202/82 58/201/82
f 59/190/11 60/196/11 63/204/11
f 63/204/12 60/196/12 59/190/12
f 58/205/66 62/206/60 60/207/66
f 60/207/65 62/206/59 58/205/65
f 63/208/64 61/200/64 59/199/70
f 59/199/69 61/200/63 63/208/63
f 61/209/83 62/203/83 57/202/81
f 57/202/82 62/203/84 61/209/84
f 60/196/11 64/210/11 63/204/11
f 63/204/12 64/210/12 60/196/12
f 64/211/60 60/207/66 62/206/60
f 62/206/59 60/207/65 64/211/59
f 61/212/64 63/213/64 65/214/58
f 65/214/57 63/213/63 61/212/63
f 62/215/83 61/216/83 66/217/85
f 66/217/86 61/216/84 62/215/84
f 63/204/11 64/210/11 67/218/11
f 67/218/12 64/210/12 63/204/12
f 62/219/60 66/220/52 64/221/60
f 64/221/59 66/220/51 62/219/59
f 67/222/58 65/214/58 63/213/64
f 63/213/63 65/214/57 67/222/57
f 65/223/85 66/217/85 61/216/83
f 61/216/84 66/217/86 65/223/86
f 64/210/11 68/224/11 67/218/11
f 67/218/12 68/224/12 64/210/12
f 68/225/52 64/221/60 66/220/52
f 66/220/51 64/221/59 68/225/51
f 65/226/58 67/227/58 69/228/54
f 69/228/53 67/227/57 65/226/57
f 66/229/85 65/230/85 70/231/87
f 70/231/88 65/230/86 66/229/86
f 67/218/11 68/224/11 71/232/11
f 71/232/12 68/224/12 67/218/12
f 66/233/52 70/234/46 68/235/52
f 68/235/51 70/234/45 66/233/51
f 71/236/54 69/228/54 67/227/58
f 67/227/57 69/228/53 71/236/53
f 69/237/87 70/231/87 65/230/85
f 65/230/86 70/231/88 69/237/88
f 68/224/11 72/238/11 71/232/11
f 71/232/12 72/238/12 68/224/12
f 72/239/46 68/235/52 70/234/46
f 70/234/45 68/235/51 72/239/45
f 69/240/54 71/241/54 73/242/48
f 73/242/47 71/241/53 69/240/53
f 70/243/87 69/244/87 74/245/89
f 74/245/90 69/244/88 70/243/88
f 71/232/11 72/238/11 75/246/11
f 75/246/12 72/238/12 71/232/12
f 70/247/46 74/248/40 72/249/46
f 72/249/45 74/248/39 70/247/45
f 75/250/48 73/242/48 71/241/54
f 71/241/53 73/242/47 75/250/47
f 73/251/89 74/245/89 69/244/87
f 69/244/88 74/245/90 73/251/90
f 72/238/11 76/252/11 75/246/11
f 75/246/12 76/252/12 72/238/12
f 76/253/40 72/249/46 74/248/40
f 74/248/39 72/249/45 76/253/39
f 75/254/48 77/255/42 73/256/48
f 73/256/47 77/255/41 75/254/47
f 74/257/89 73/258/89 78/259/91
f 78/259/92 73/258/90 74/257/90
f 75/246/11 76/252/11 77/260/11
f 77/260/12 76/252/12 75/246/12
f 74/261/40 78/262/34 76/263/40
f 76/263/39 78/262/33 74/261/39
f 79/264/42 73/256/48 77/255/42
f 77/255/41 73/256/47 79/264/41
f 79/265/91 78/259/91 73/258/89
f 73/258/90 78/259/92 79/265/92
f 76/252/11 80/266/11 77/260/11
f 77/260/12 80/266/12 76/252/12
f 80/267/34 76/263/40 78/262/34
f 78/262/33 76/263/39 80/267/33
f 77/268/42 81/269/36 79/270/42
f 79/270/41 81/269/35 77/268/41
f 78/271/91 79/272/91 82/273/93
f 82/273/94 79/272/92 78/271/92
f 77/260/11 80/266/11 81/274/11
f 81/274/12 80/266/12 77/260/12
f 78/275/34 82/276/28 80/277/34
f 80/277/33 82/276/27 78/275/33
f 83/278/36 79/270/42 81/269/36
f 81/269/35 79/270/41 83/278/35
f 83/279/93 82/273/93 79/272/91
f 79/272/92 82/273/94 83/279/94
f 80/266/11 84/280/11 81/274/11
f 81/274/12 84/280/12 80/266/12
f 84/281/28 80/277/34 82/276/28
f 82/276/27 80/277/33 84/281/27
f 81/282/36 85/283/30 83/284/36
f 83/284/35 85/283/29 81/282/35
f 82/285/93 83/286/93 86/287/95
f 86/287/96 83/286/94 82/285/94
f 81/274/11 84/280/11 85/288/11
f 85/288/12 84/280/12 81/274/12
f 82/289/28 86/290/14 84/291/28
f 84/291/27 86/290/13 82/289/27
f 87/292/30 83/284/36 85/283/30
f 85/283/29 83/284/35 87/292/29
f 87/293/95 86/287/95 83/286/93
f 83/286/94 86/287/96 87/293/96
f 84/280/11 88/294/11 85/288/11
f 85/288/12 88/294/12 84/280/12
f 88/295/14 84/291/28 86/290/14
f 86/290/13 84/291/27 88/295/13
f 85/296/30 89/297/24 87/298/30
f 87/298/29 89/297/21 85/296/29
f 86/299/95 87/300/95 90/301/97
f 90/301/98 87/300/96 86/299/96
f 85/288/11 88/294/11 89/302/11
f 89/302/12 88/294/12 85/288/12
f 86/303/14 90/304/3 88/305/14
f 88/305/13 90/304/2 86/303/13
f 91/306/24 87/298/30 89/297/24
f 89/297/21 87/298/29 91/306/21
f 91/307/97 90/301/97 87/300/95
f 87/300/96 90/301/98 91/307/98
f 88/294/11 92/308/11 89/302/11
f 89/302/12 92/308/12 88/294/12
f 92/309/3 88/305/14 90/304/3
f 90/304/2 88/305/13 92/309/2
f 89/310/24 93/311/23 91/312/24
f 91/312/21 93/311/22 89/310/21
f 90/313/97 91/314/97 94/315/99
f 94/315/100 91/314/98 90/313/98
f 89/302/11 92/308/11 93/316/11
f 93/316/12 92/308/12 89/302/12
f 90/317/3 94/318/4 92/319/3
f 92/319/2 94/318/1 90/317/2
f 95/320/23 91/312/24 93/311/23
f 93/311/22 91/312/21 95/320/22
f 95/321/99 94/315/99 91/314/97
f 91/314/98 94/315/100 95/321/100
f 92/308/11 96/322/11 93/316/11
f 93/316/12 96/322/12 92/308/12
f 96/323/4 92/319/3 94/318/4
f 94/318/1 92/319/2 96/323/1
f 93/324/23 97/325/26 95/326/23
f 95/326/22 97/325/25 93/324/22
f 94/327/99 95/328/99 98/329/101
f 98/329/102 95/328/100 94/327/100
f 93/316/11 96/322/11 97/330/11
f 97/330/12 96/322/12 93/316/12
f 94/331/4 98/332/6 96/333/4
f 96/333/1 98/332/5 94/331/1
f 99/334/26 95/326/23 97/325/26
f 97/325/25 95/326/22 99/334/25
f 99/335/101 98/329/101 95/328/99
f 95/328/100 98/329/102 99/335/102
f 96/322/11 100/336/11 97/330/11
f 97/330/12 100/336/12 96/322/12
f 100/337/6 96/333/4 98/332/6
f 98/332/5 96/333/1 100/337/5
f 97/338/77 101/339/77 99/340/77
f 99/340/78 101/339/78 97/338/78
f 98/340/12 99/341/12 102/39/12
f 102/39/11 99/341/11 98/340/11
f 97/330/11 100/336/11 101/342/11
f 101/342/12 100/336/12 97/330/12
f 98/336/78 102/343/78 100/344/78
f 100/344/77 102/343/77 98/336/77
f 103/39/77 99/340/77 101/339/77
f 101/339/78 99/340/78 103/39/78
f 103/25/12 102/39/12 99/341/12
f 99/341/11 102/39/11 103/25/11
f 100/336/11 104/343/11 101/342/11
f 101/342/12 104/343/12 100/336/12
f 104/345/78 100/344/78 102/343/78
f 102/343/77 100/344/77 104/345/77
f 101/346/103 105/347/104 103/348/103
f 103/348/105 105/347/106 101/346/105
f 102/349/107 103/350/107 106/351/108
f 106/351/109 103/350/110 102/349/110
f 101/342/11 104/343/11 105/352/11
f 105/352/12 104/343/12 101/342/12
f 102/353/111 106/354/112 104/355/111
f 104/355/113 106/354/114 102/353/113
f 107/356/104 103/348/103 105/347/104
f 105/347/106 103/348/105 107/356/106
f 107/357/108 106/351/108 103/350/107
f 103/350/110 106/351/109 107/357/109
f 104/343/11 108/358/11 105/352/11
f 105/352/12 108/358/12 104/343/12
f 108/359/112 104/355/111 106/354/112
f 106/354/114 104/355/113 108/359/114
f 105/360/104 109/361/115 107/362/104
f 107/362/106 109/361/116 105/360/106
f 106/363/108 107/364/108 110/365/117
f 110/365/118 107/364/109 106/363/109
f 105/352/11 108/358/11 109/366/11
f 109/366/12 108/358/12 105/352/12
f 106/367/112 110/368/119 108/369/112
f 108/369/114 110/368/120 106/367/114
f 111/370/115 107/362/104 109/361/115
f 109/361/116 107/362/106 111/370/116
f 111/371/117 110/365/117 107/364/108
f 107/364/109 110/365/118 111/371/118
f 108/358/11 112/372/11 109/366/11
f 109/366/12 112/372/12 108/358/12
f 112/373/119 108/369/112 110/368/119
f 110/368/120 108/369/114 112/373/120
f 109/374/115 113/375/121 111/376/115
f 111/376/116 113/375/122 109/374/116
f 110/377/117 111/378/117 114/379/123
f 114/379/124 111/378/118 110/377/118
f 109/366/11 112/372/11 113/380/11
f 113/380/12 112/372/12 109/366/12
f 110/381/119 114/382/125 112/383/119
f 112/383/120 114/382/126 110/381/120
f 115/384/121 111/376/115 113/375/121
f 113/375/122 111/376/116 115/384/122
f 115/385/123 114/379/123 111/378/117
f 111/378/118 114/379/124 115/385/124
f 112/372/11 116/386/11 113/380/11
f 113/380/12 116/386/12 112/372/12
f 116/387/125 112/383/119 114/382/125
f 114/382/126 112/383/120 116/387/126
f 113/388/121 117/389/127 115/390/121
f 115/390/122 117/389/128 113/388/122
f 114/391/123 115/392/123 118/393/129
f 118/393/130 115/392/124 114/391/124
f 113/380/11 116/386/11 117/394/11
f 117/394/12 116/386/12 113/380/12
f 114/395/125 118/396/131 116/397/125
f 116/397/126 118/396/132 114/395/126
f 119/398/127 115/390/121 117/389/127
f 117/389/128 115/390/122 119/398/128
f 119/399/129 118/393/129 115/392/123
f 115/392/124 118/393/130 119/399/130
f 116/386/11 120/400/11 117/394/11
f 117/394/12 120/400/12 116/386/12
f 120/401/131 116/397/125 118/396/131
f 118/396/132 116/397/126 120/401/132
f 117/402/127 121/403/133 119/404/127
f 119/404/128 121/403/134 117/402/128
f 118/405/129 119/406/129 122/407/135
f 122/407/136 119/406/130 118/405/130
f 117/394/11 120/400/11 121/408/11
f 121/408/12 120/400/12 117/394/12
f 118/409/131 122/410/137 120/411/131
f 120/411/132 122/410/138 118/409/132
f 123/412/133 119/404/127 121/403/133
f 121/403/134 119/404/128 123/412/134
f 123/413/135 122/407/135 119/406/129
f 119/406/130 122/407/136 123/413/136
f 120/400/11 124/414/11 121/408/11
f 121/408/12 124/414/12 120/400/12
f 124/415/137 120/411/131 122/410/137
f 122/410/138 120/411/132 124/415/138
f 121/416/133 125/417/139 123/418/133
f 123/418/134 125/417/140 121/416/134
f 122/419/135 123/420/135 126/421/141
f 126/421/142 123/420/136 122/419/136
f 121/408/11 124/414/11 125/422/11
f 125/422/12 124/414/12 121/408/12
f 122/423/137 126/424/143 124/425/137
f 124/425/138 126/424/144 122/423/138
f 127/426/139 123/418/133 125/417/139
f 125/417/140 123/418/134 127/426/140
f 127/427/141 126/421/141 123/420/135
f 123/420/136 126/421/142 127/427/142
f 124/414/11 128/428/11 125/422/11
f 125/422/12 128/428/12 124/414/12
f 128/429/143 124/425/137 126/424/143
f 126/424/144 124/425/138 128/429/144
f 125/430/139 129/431/145 127/432/139
f 127/432/140 129/431/146 125/430/140
f 126/433/141 127/434/141 130/435/147
f 130/435/148 127/434/142 126/433/142
f 125/422/11 128/428/11 129/436/11
f 129/436/12 128/428/12 125/422/12
f 126/437/143 130/438/149 128/439/143
f 128/439/144 130/438/150 126/437/144
f 131/440/145 127/432/139 129/431/145
f 129/431/146 127/432/140 131/440/146
f 131/441/147 130/435/147 127/434/141
f 127/434/142 130/435/148 131/441/148
f 128/428/11 132/442/11 129/436/11
f 129/436/12 132/442/12 128/428/12
f 132/443/149 128/439/143 130/438/149
f 130/438/150 128/439/144 132/443/150
f 129/444/145 133/445/151 131/446/145
f 131/446/146 133/445/152 129/444/146
f 130/447/147 131/448/147 134/449/153
f 134/449/154 131/448/148 130/447/148
f 129/436/11 132/442/11 133/450/11
f 133/450/12 132/442/12 129/436/12
f 130/451/149 134/452/155 132/453/149
f 132/453/150 134/452/156 130/451/150
f 135/454/151 131/446/145 133/445/151
f 133/445/152 131/446/146 135/454/152
f 135/455/153 134/449/153 131/448/147
f 131/448/148 134/449/154 135/455/154
f 132/442/11 136/456/11 133/450/11
f 133/450/12 136/456/12 132/442/12
f 136/457/155 132/453/149 134/452/155
f 134/452/156 132/453/150 136/457/156
f 133/458/151 137/459/157 135/460/151
f 135/460/152 137/459/158 133/458/152
f 134/461/153 135/462/153 138/463/159
f 138/463/160 135/462/154 134/461/154
f 133/450/11 136/456/11 137/464/11
f 137/464/12 136/456/12 133/450/12
f 134/465/155 138/466/161 136/467/155
f 136/467/156 138/466/162 134/465/156
f 139/468/157 135/460/151 137/459/157
f 137/459/158 135/460/152 139/468/158
f 139/469/159 138/463/159 135/462/153
f 135/462/154 138/463/160 139/469/160
f 136/456/11 140/470/11 137/464/11
f 137/464/12 140/470/12 136/456/12
f 140/471/161 136/467/155 138/466/161
f 138/466/162 136/467/156 140/471/162
f 137/472/157 141/473/163 139/474/157
f 139/474/158 141/473/164 137/472/158
f 138/475/159 139/476/159 142/477/165
f 142/477/166 139/476/160 138/475/160
f 137/464/11 140/470/11 141/478/11
f 141/478/12 140/470/12 137/464/12
f 138/479/161 142/480/167 140/481/161
f 140/481/162 142/480/168 138/479/162
f 143/482/163 139/474/157 141/473/163
f 141/473/164 139/474/158 143/482/164
f 143/483/165 142/477/165 139/476/159
f 139/476/160 142/477/166 143/483/166
f 140/470/11 144/484/11 141/478/11
f 141/478/12 144/484/12 140/470/12
f 144/485/167 140/481/161 142/480/167
f 142/480/168 140/481/162 144/485/168
f 143/486/163 141/487/163 145/488/169
f 145/488/170 141/487/164 143/486/164
f 142/489/165 143/490/165 146/491/171
f 146/491/172 143/490/166 142/489/166
f 141/478/11 144/484/11 147/492/11
f 147/492/12 144/484/12 141/478/12
f 142/493/167 146/494/173 144/495/167
f 144/495/168 146/494/174 142/493/168
f 147/496/169 145/488/169 141/487/163
f 141/487/164 145/488/170 147/496/170
f 145/497/171 146/491/171 143/490/165
f 143/490/166 146/491/172 145/497/172
f 144/484/11 148/498/11 147/492/11
f 147/492/12 148/498/12 144/484/12
f 148/499/173 144/495/167 146/494/173
f 146/494/174 144/495/168 148/499/174
f 145/500/169 147/501/169 149/502/175
f 149/502/176 147/501/170 145/500/170
f 146/503/171 145/504/171 150/505/177
f 150/505/178 145/504/172 146/503/172
f 147/492/11 148/498/11 151/506/11
f 151/506/12 148/498/12 147/492/12
f 146/507/173 150/508/179 148/509/173
f 148/509/174 150/508/180 146/507/174
f 151/510/175 149/502/175 147/501/169
f 147/501/170 149/502/176 151/510/176
f 149/511/177 150/505/177 145/504/171
f 145/504/172 150/505/178 149/511/178
f 152/512/11 151/506/11 148/498/11
f 148/498/12 151/506/12 152/512/12
f 152/513/179 148/509/173 150/508/179
f 150/508/180 148/509/174 152/513/180
f 151/514/18 152/515/18 149/516/18
f 149/516/17 152/515/17 151/514/17
f 150/517/18 149/516/18 152/515/18
f 152/515/17 149/516/17 150/517/17
