# SSTK version 0.8.0
# 15
mtllib original-15.mtl
o Moulding-510.92.16_1/Moulding-510.92.16/mesh19/mesh19-geometry#mesh19-geometry
v 0.296781 0.732048 0.201181
v 0.296781 0.732048 -0.220324
v 0.297086 0.733055 0.201181
v 0.296286 0.731121 -0.220324
v 0.297086 0.733055 -0.220324
v 0.297086 0.735147 0.201181
v 0.296286 0.731121 0.201181
v 0.296286 0.737081 -0.220324
v 0.297188 0.734101 0.201181
v 0.296781 0.736153 -0.220324
v 0.296781 0.736153 0.201181
v 0.295620 0.730307 -0.220324
v 0.295620 0.737894 -0.220324
v 0.297188 0.734101 -0.220324
v 0.297086 0.735147 -0.220324
v 0.295620 0.730307 0.201181
v 0.296286 0.737081 0.201181
v 0.295620 0.737894 0.201181
v 0.294809 0.729639 0.201181
v 0.294809 0.738562 -0.220324
v 0.294809 0.729639 -0.220324
v 0.294809 0.738562 0.201181
v 0.293883 0.729142 0.201181
v 0.293883 0.739060 -0.220324
v 0.293883 0.729142 -0.220324
v 0.293883 0.739060 0.201181
v 0.294809 0.728645 0.201181
v 0.284791 0.785343 -0.220324
v 0.294809 0.739557 -0.220324
v 0.284791 0.709306 0.201181
v 0.293883 0.719224 0.201181
v 0.294809 0.728645 -0.220324
v 0.293883 0.719224 -0.220324
v 0.293883 0.748977 -0.220324
v 0.294809 0.739557 0.201181
v 0.293883 0.748977 0.201181
v 0.294809 0.719721 0.201181
v 0.294809 0.719721 -0.220324
v 0.295620 0.727976 0.201181
v 0.293883 0.709306 -0.220324
v 0.293883 0.758895 -0.220324
v 0.294809 0.748480 -0.220324
v 0.294809 0.748480 0.201181
v 0.295620 0.740225 -0.220324
v 0.293883 0.758895 0.201181
v 0.293883 0.709306 0.201181
v 0.295620 0.720390 -0.220324
v 0.295620 0.727976 -0.220324
v 0.284791 0.709306 -0.220324
v 0.294809 0.709804 -0.220324
v 0.298015 0.758895 -0.220324
v 0.294809 0.749475 -0.220324
v 0.295620 0.747812 0.201181
v 0.295620 0.740225 0.201181
v 0.284791 0.785343 0.201181
v 0.294809 0.758398 0.201181
v 0.294809 0.718727 0.201181
v 0.295620 0.720390 0.201181
v 0.296286 0.727163 -0.220324
v 0.294809 0.718727 -0.220324
v 0.298015 0.785343 -0.220324
v 0.294809 0.758398 -0.220324
v 0.295620 0.747812 -0.220324
v 0.296286 0.741039 0.201181
v 0.298015 0.785343 0.201181
v 0.294809 0.749475 0.201181
v 0.294809 0.709804 0.201181
v 0.296286 0.727163 0.201181
v 0.296286 0.721203 -0.220324
v 0.295620 0.710472 -0.220324
v 0.298015 0.758895 0.201181
v 0.295620 0.750143 -0.220324
v 0.296286 0.741039 -0.220324
v 0.296286 0.746998 0.201181
v 0.295620 0.757730 0.201181
v 0.295620 0.718059 0.201181
v 0.296286 0.721203 0.201181
v 0.296781 0.726235 -0.220324
v 0.296781 0.722131 -0.220324
v 0.295620 0.718059 -0.220324
v 0.295620 0.757730 -0.220324
v 0.296286 0.746998 -0.220324
v 0.296781 0.741966 0.201181
v 0.296781 0.746071 0.201181
v 0.295620 0.750143 0.201181
v 0.295620 0.710472 0.201181
v 0.296781 0.726235 0.201181
v 0.296781 0.722131 0.201181
v 0.296286 0.711285 -0.220324
v 0.296286 0.750956 -0.220324
v 0.296781 0.741966 -0.220324
v 0.296781 0.746071 -0.220324
v 0.296286 0.756916 0.201181
v 0.296286 0.717245 0.201181
v 0.297086 0.725229 -0.220324
v 0.297086 0.723137 -0.220324
v 0.297086 0.723137 0.201181
v 0.296286 0.717245 -0.220324
v 0.296286 0.711285 0.201181
v 0.296286 0.756916 -0.220324
v 0.296286 0.750956 0.201181
v 0.297086 0.742972 0.201181
v 0.297086 0.745065 0.201181
v 0.297086 0.745065 -0.220324
v 0.297086 0.725229 0.201181
v 0.296781 0.712213 -0.220324
v 0.296781 0.712213 0.201181
v 0.296781 0.751884 -0.220324
v 0.296781 0.751884 0.201181
v 0.297086 0.742972 -0.220324
v 0.296781 0.755989 0.201181
v 0.296781 0.755989 -0.220324
v 0.296781 0.716318 0.201181
v 0.296781 0.716318 -0.220324
v 0.297188 0.724183 -0.220324
v 0.297188 0.724183 0.201181
v 0.297188 0.744019 0.201181
v 0.297188 0.744019 -0.220324
v 0.297086 0.713219 -0.220324
v 0.297086 0.713219 0.201181
v 0.297086 0.715311 0.201181
v 0.297086 0.752890 -0.220324
v 0.297086 0.752890 0.201181
v 0.297086 0.754983 0.201181
v 0.297086 0.754983 -0.220324
v 0.297086 0.715311 -0.220324
v 0.297188 0.714265 -0.220324
v 0.297188 0.714265 0.201181
v 0.297188 0.753936 -0.220324
v 0.297188 0.753936 0.201181
vt 0.278871 0.014164
vt 0 0.014164
vt 0.278871 0.01486
vt 0 0.012892
vt 0.278871 0.012892
vt 0 0.012196
vt 0 0.01486
vt 0.000816 0.015046
vt 0.000615 0.015712
vt 0.000615 0.017096
vt 0.278871 0.012196
vt -0.001144 0.014433
vt -0.001144 0.018376
vt -0.000816 0.015046
vt 0.278871 0.015576
vt 0 0.015576
vt 0.278871 0.016272
vt -0.000816 0.017762
vt -0.000615 0.015712
vt 0.000547 0.016404
vt 0.000816 0.017762
vt 0 0.010443
vt 0.278871 0.010443
vt 0 0.009748
vt 0.001144 0.014433
vt -0.001584 0.018914
vt 0 0.016272
vt -0.000615 0.017096
vt 0.278871 0.016379
vt 0 0.016379
vt 0.278871 0.017075
vt 0.278871 0.016541
vt 0 0.016541
vt 0.278871 0.017237
vt 0.278871 0.009748
vt -0.001584 0.013894
vt 0.001144 0.018376
vt 0 0.015639
vt 0.278871 0.015639
vt 0 0.014943
vt 0 0.016752
vt 0.278871 0.016752
vt 0 0.016056
vt -0.000547 0.016404
vt 0 0.017237
vt 0 0.017075
vt 0.278871 0.007608
vt 0.278871 0.006913
vt 0 0.007608
vt 0.001584 0.013894
vt -0.002121 0.019356
vt 0.278871 0.016056
vt 0 0.013245
vt 0 0.01394
vt 0.278871 0.013245
vt 0.278871 0.014943
vt 0.002121 0.013452
vt 0.001584 0.018914
vt 0 0.006913
vt -0.002121 0.013452
vt 0.278871 0.01394
vt 0.002121 0.019356
vt 0.278871 0.004495
vt 0.278871 0.0038
vt 0 0.004495
vt -0.002734 0.019685
vt 0 0.011026
vt 0 0.011721
vt 0.278871 0.011026
vt 0.002734 0.013123
vt 0 0.0038
vt -0.002734 0.013123
vt 0.278871 0.011721
vt 0.002734 0.019685
vt 0.278871 0.008617
vt 0.278871 0.007922
vt 0 0.008617
vt -0.008749 0.050306
vt 0 0.006904
vt 0 0.0076
vt 0.278871 0.006904
vt 0.008749 0
vt 0.002734 0.006562
vt 0.002121 0.012794
vt 0 0.007922
vt -0.002734 0.006562
vt -0.002734 0.026247
vt -0.002121 0.020014
vt 0.278871 0.0076
vt 0.002734 0.026247
vt 0.002121 0.006891
vt -0.002121 0.012794
vt -0.002121 0.006891
vt 0.278871 0.00977
vt 0.278871 0.009074
vt 0 0.00977
vt -0.002734 0
vt -0.002734 0.032808
vt -0.002121 0.025918
vt 0.002121 0.020014
vt 0.002121 0.025918
vt 0 0.011083
vt 0 0.011779
vt 0.278871 0.011083
vt 0.002734 0.032808
vt 0.002734 0
vt 0.278871 0.001391
vt 0.278871 0.000696
vt 0 0.001391
vt 0.001584 0.012352
vt -0.001584 0.007333
vt 0 0.009074
vt -0.008749 0
vt -0.002121 0.000329
vt 0 0.000696
vt 0 0.032808
vt -0.002121 0.026576
vt 0 0.01413
vt 0 0.014826
vt 0.278871 0.01413
vt -0.001584 0.020456
vt 0.001584 0.025476
vt 0.278871 0.011779
vt 0.008749 0.050306
vt 0.002121 0.032479
vt 0.278871 0.014826
vt -0.278871 0.008749
vt 0 0.008749
vt -0.278871 0.002734
vt 0.002121 0.006233
vt 0 0.002742
vt 0 0.003438
vt 0.278871 0.002742
vt 0.001584 0.007333
vt -0.001584 0.012352
vt 0 0.010562
vt 0.278871 0.010562
vt 0 0.009866
vt 0 0
vt -0.278871 0
vt 0 0.050306
vt 0 0.002734
vt -0.002121 0.006233
vt 0 -0.002409
vt 0 -0.001713
vt 0.278871 -0.002409
vt 0.278871 0.005513
vt 0.278871 0.004817
vt 0 0.005513
vt -0.002121 0.032479
vt 0 0.010008
vt 0 0.010704
vt 0.278871 0.010008
vt 0.278871 0.018111
vt 0.278871 0.017416
vt 0 0.018111
vt -0.001584 0.025476
vt 0.001584 0.020456
vt 0.278871 0.014825
vt 0 0.014825
vt 0.278871 0.015521
vt -0.278871 0.050306
vt 0.002121 0.026576
vt 0.278871 0.01793
vt 0.278871 0.017234
vt 0 0.01793
vt 0.002121 0.000329
vt 0.278871 0.003438
vt 0.001144 0.011814
vt -0.001144 0.007871
vt 0.278871 0.009866
vt -0.001144 0.011814
vt 0 0.004817
vt -0.001584 0.000771
vt 0.278871 -0.001713
vt 0.278871 0.050306
vt 0.278871 0
vt 0 0.017234
vt -0.001584 0.027018
vt 0.278871 0.010704
vt 0 0.017416
vt -0.001144 0.020994
vt 0.001144 0.024937
vt 0 0.015521
vt 0.001144 0.020994
vt 0.278871 0.008749
vt 0.001584 0.032037
vt 0.001584 0.005791
vt 0.278871 0.00467
vt 0 0.00467
vt 0.278871 0.005366
vt 0.001144 0.007871
vt 0 0.005366
vt 0 0.010962
vt 0.278871 0.010962
vt 0 0.010267
vt -0.000816 0.008485
vt 0.278871 0.005599
vt 0.278871 0.004904
vt 0 0.005599
vt -0.001584 0.005791
vt 0 -0.001429
vt 0 -0.000733
vt 0.278871 -0.001429
vt 0.278871 0.032808
vt 0.278871 0.022282
vt 0.278871 0.021586
vt 0 0.022282
vt -0.001584 0.032037
vt 0 0.015254
vt 0 0.01595
vt 0.278871 0.015254
vt 0 0.020716
vt 0.278871 0.020716
vt 0 0.020021
vt -0.001144 0.024937
vt 0.278871 0.020021
vt 0.278871 0.017986
vt 0 0.017986
vt 0.278871 0.018681
vt 0.000816 0.024324
vt 0.001584 0.027018
vt 0.001584 0.000771
vt 0.000816 0.0112
vt 0.278871 0.006407
vt 0 0.006407
vt 0.278871 0.007102
vt 0.278871 0.010267
vt -0.000816 0.0112
vt 0 0.007102
vt 0 0.004904
vt -0.001144 0.001309
vt 0.278871 -0.000733
vt 0 0.021586
vt -0.001144 0.027556
vt 0.278871 0.01595
vt -0.000816 0.021608
vt 0 0.022541
vt 0.278871 0.022541
vt 0 0.021846
vt 0 0.018681
vt 0.000816 0.021608
vt 0.278871 0.021846
vt 0.001144 0.031499
vt 0.001144 0.005252
vt 0.000816 0.008485
vt 0 0.010956
vt 0.278871 0.010956
vt 0 0.010261
vt -0.000615 0.00915
vt 0.278871 0.007884
vt 0 0.007884
vt 0.278871 0.00858
vt 0 0.005484
vt 0.278871 0.005484
vt 0 0.004789
vt -0.001144 0.005252
vt 0 0.000289
vt 0.278871 0.000289
vt 0 -0.000407
vt 0.278871 -0.000407
vt 0 0.025794
vt 0.278871 0.025794
vt 0 0.025098
vt -0.001144 0.031499
vt 0 0.020598
vt 0.278871 0.020598
vt 0 0.019902
vt 0.278871 0.019902
vt -0.000816 0.024324
vt 0.278871 0.020444
vt 0 0.020444
vt 0.278871 0.02114
vt 0.000615 0.023658
vt 0 0.023517
vt 0.278871 0.023517
vt 0 0.022821
vt 0.001144 0.027556
vt 0.278871 0.025098
vt 0.001144 0.001309
vt 0.278871 0.004789
vt 0.000615 0.010535
vt 0.278871 0.010261
vt -0.000615 0.010535
vt 0 0.00858
vt 0.000615 0.00915
vt -0.000816 0.001923
vt 0.278871 0.000617
vt 0 0.000617
vt 0.278871 0.001312
vt -0.000816 0.02817
vt 0.278871 0.023775
vt 0 0.023775
vt 0.278871 0.024471
vt -0.000615 0.022274
vt 0 0.02114
vt 0.000615 0.022274
vt 0.278871 0.022821
vt -0.000615 0.023658
vt 0.000816 0.030885
vt 0 0.028331
vt 0.278871 0.028331
vt 0 0.027635
vt 0.000816 0.004639
vt 0 0.005173
vt 0.278871 0.005173
vt 0 0.004477
vt 0 0.010544
vt 0.278871 0.010544
vt 0 0.009849
vt -0.000547 0.009843
vt 0.278871 0.009046
vt 0 0.009046
vt 0.278871 0.009742
vt 0.000547 0.009843
vt -0.000816 0.004639
vt 0 0.001312
vt 0.000816 0.001923
vt -0.000816 0.030885
vt 0 0.024471
vt 0.000816 0.02817
vt 0.278871 0.022107
vt 0 0.022107
vt 0.278871 0.022802
vt 0.000547 0.022966
vt 0 0.023605
vt 0.278871 0.023605
vt 0 0.022909
vt -0.000547 0.022966
vt 0.278871 0.027635
vt 0.278871 0.004477
vt 0.278871 0.009849
vt 0 0.009742
vt -0.000615 0.002589
vt 0.278871 0.001604
vt 0 0.001604
vt 0.278871 0.002299
vt 0.000615 0.003973
vt -0.000615 0.028835
vt 0.278871 0.026724
vt 0 0.026724
vt 0.278871 0.02742
vt 0.000615 0.03022
vt 0 0.022802
vt 0.278871 0.022909
vt 0 0.029797
vt 0.278871 0.029797
vt 0 0.029101
vt 0 0.004676
vt 0.278871 0.004676
vt 0 0.003981
vt -0.000615 0.003973
vt 0 0.002299
vt 0.000615 0.002589
vt 0.278871 0.003981
vt -0.000615 0.03022
vt 0 0.02742
vt 0.000615 0.028835
vt 0.278871 0.029101
vt -0.000547 0.003281
vt 0.278871 0.002516
vt 0 0.002516
vt 0.278871 0.003212
vt 0.000547 0.003281
vt 0 0.004014
vt 0.278871 0.004014
vt 0 0.003319
vt -0.000547 0.029528
vt 0.278871 0.028637
vt 0 0.028637
vt 0.278871 0.029332
vt 0.000547 0.029528
vt 0 0.030135
vt 0.278871 0.030135
vt 0 0.029439
vt 0 0.003212
vt 0.278871 0.003319
vt 0 0.029332
vt 0.278871 0.029439
vn 0.9241461724285951 -0.3820390712814296 0
vn 0.9808532986144567 -0.1947480592897898 0
vn -0.9808532986144567 0.1947480592897898 0
vn -0.9241461724285951 0.3820390712814296 0
vn 0.8320502943378437 -0.5547001962252291 0
vn -0.8320502943378437 0.5547001962252291 0
vn 0 0 1
vn 0 0 -1
vn 1 0 0
vn -1 0 0
vn 0.708092093870359 -0.7061200936089348 0
vn -0.708092093870359 0.7061200936089348 0
vn 0.9808532986144567 0.1947480592897898 0
vn -0.9808532986144567 -0.1947480592897898 0
vn 0.9241461724285951 0.3820390712814296 0
vn -0.9241461724285951 -0.3820390712814296 0
vn 0.708092093870359 0.7061200936089348 0
vn 0.8320502943378437 0.5547001962252291 0
vn -0.8320502943378437 -0.5547001962252291 0
vn -0.708092093870359 -0.7061200936089348 0
vn 0.5570188840395423 -0.8304998271061487 0
vn -0.5570188840395423 0.8304998271061487 0
vn 0.5570188840395423 0.8304998271061487 0
vn -0.5570188840395423 -0.8304998271061487 0
vn 0.47308688129660287 -0.8810157789421561 0
vn -0.47308688129660287 0.8810157789421561 0
vn 0.47308688129660287 0.8810157789421561 0
vn -0.47308688129660287 -0.8810157789421561 0
vn 0 -1 0
vn 0 1 0
usemtl material_0_0
f 1/1/1 2/2/1 3/3/2
f 3/3/3 2/2/4 1/1/4
f 2/4/1 1/5/1 4/6/5
f 4/6/6 1/5/4 2/4/4
f 5/7/2 3/3/2 2/2/1
f 2/2/4 3/3/3 5/7/3
f 1/8/7 3/9/7 6/10/7
f 6/10/8 3/9/8 1/8/8
f 7/11/5 4/6/5 1/5/1
f 1/5/4 4/6/6 7/11/6
f 4/12/8 8/13/8 2/14/8
f 2/14/7 8/13/7 4/12/7
f 3/15/2 5/16/2 9/17/9
f 9/17/10 5/16/3 3/15/3
f 2/14/8 10/18/8 5/19/8
f 5/19/7 10/18/7 2/14/7
f 9/20/7 6/10/7 3/9/7
f 3/9/8 6/10/8 9/20/8
f 11/21/7 1/8/7 6/10/7
f 6/10/8 1/8/8 11/21/8
f 4/22/5 7/23/5 12/24/11
f 12/24/12 7/23/6 4/22/6
f 7/25/7 1/8/7 11/21/7
f 11/21/8 1/8/8 7/25/8
f 13/26/8 8/13/8 4/12/8
f 4/12/7 8/13/7 13/26/7
f 8/13/8 10/18/8 2/14/8
f 2/14/7 10/18/7 8/13/7
f 14/27/9 9/17/9 5/16/2
f 5/16/3 9/17/10 14/27/10
f 10/18/8 15/28/8 5/19/8
f 5/19/7 15/28/7 10/18/7
f 9/29/9 14/30/9 6/31/13
f 6/31/14 14/30/10 9/29/10
f 6/32/13 15/33/13 11/34/15
f 11/34/16 15/33/14 6/32/14
f 16/35/11 12/24/11 7/23/5
f 7/23/6 12/24/12 16/35/12
f 12/36/8 13/26/8 4/12/8
f 4/12/7 13/26/7 12/36/7
f 17/37/7 7/25/7 11/21/7
f 11/21/8 7/25/8 17/37/8
f 13/38/17 18/39/17 8/40/18
f 8/40/19 18/39/20 13/38/20
f 8/41/18 17/42/18 10/43/15
f 10/43/16 17/42/19 8/41/19
f 14/44/8 5/19/8 15/28/8
f 15/28/7 5/19/7 14/44/7
f 10/45/15 11/34/15 15/33/13
f 15/33/14 11/34/16 10/45/16
f 15/46/13 6/31/13 14/30/9
f 14/30/10 6/31/14 15/46/14
f 16/47/11 19/48/21 12/49/11
f 12/49/12 19/48/22 16/47/12
f 16/50/7 7/25/7 17/37/7
f 17/37/8 7/25/8 16/50/8
f 20/51/8 13/26/8 12/36/8
f 12/36/7 13/26/7 20/51/7
f 11/52/15 10/43/15 17/42/18
f 17/42/19 10/43/16 11/52/16
f 13/53/17 20/54/23 18/55/17
f 18/55/20 20/54/24 13/53/20
f 17/56/18 8/40/18 18/39/17
f 18/39/20 8/40/19 17/56/19
f 19/57/7 16/50/7 18/58/7
f 18/58/8 16/50/8 19/57/8
f 21/59/21 12/49/11 19/48/21
f 19/48/22 12/49/12 21/59/22
f 18/58/7 16/50/7 17/37/7
f 17/37/8 16/50/8 18/58/8
f 21/60/8 20/51/8 12/36/8
f 12/36/7 20/51/7 21/60/7
f 22/61/23 18/55/17 20/54/23
f 20/54/24 18/55/20 22/61/24
f 22/62/7 19/57/7 18/58/7
f 18/58/8 19/57/8 22/62/8
f 19/63/21 23/64/25 21/65/21
f 21/65/22 23/64/26 19/63/22
f 24/66/8 20/51/8 21/60/8
f 21/60/7 20/51/7 24/66/7
f 20/67/23 24/68/27 22/69/23
f 22/69/24 24/68/28 20/67/24
f 23/70/7 19/57/7 22/62/7
f 22/62/8 19/57/8 23/70/8
f 25/71/25 21/65/21 23/64/25
f 23/64/26 21/65/22 25/71/26
f 25/72/8 24/66/8 21/60/8
f 21/60/7 24/66/7 25/72/7
f 26/73/27 22/69/23 24/68/27
f 24/68/28 22/69/24 26/73/28
f 26/74/7 23/70/7 22/62/7
f 22/62/8 23/70/8 26/74/8
f 23/75/27 27/76/23 25/77/27
f 25/77/28 27/76/24 23/75/28
f 25/72/8 28/78/8 24/66/8
f 24/66/7 28/78/7 25/72/7
f 24/79/25 29/80/21 26/81/25
f 26/81/26 29/80/22 24/79/26
f 26/74/7 30/82/7 23/70/7
f 23/70/8 30/82/8 26/74/8
f 23/70/7 31/83/7 27/84/7
f 27/84/8 31/83/8 23/70/8
f 32/85/23 25/77/27 27/76/23
f 27/76/24 25/77/28 32/85/24
f 33/86/8 28/78/8 25/72/8
f 25/72/7 28/78/7 33/86/7
f 24/66/8 28/78/8 34/87/8
f 34/87/7 28/78/7 24/66/7
f 24/66/8 34/87/8 29/88/8
f 29/88/7 34/87/7 24/66/7
f 35/89/21 26/81/25 29/80/21
f 29/80/22 26/81/26 35/89/22
f 36/90/7 30/82/7 26/74/7
f 26/74/8 30/82/8 36/90/8
f 23/70/7 30/82/7 31/83/7
f 31/83/8 30/82/8 23/70/8
f 31/83/7 37/91/7 27/84/7
f 27/84/8 37/91/8 31/83/8
f 25/72/8 32/92/8 38/93/8
f 38/93/7 32/92/7 25/72/7
f 27/94/23 39/95/17 32/96/23
f 32/96/24 39/95/20 27/94/24
f 40/97/8 28/78/8 33/86/8
f 33/86/7 28/78/7 40/97/7
f 33/86/8 25/72/8 38/93/8
f 38/93/7 25/72/7 33/86/7
f 34/87/8 28/78/8 41/98/8
f 41/98/7 28/78/7 34/87/7
f 34/87/8 42/99/8 29/88/8
f 29/88/7 42/99/7 34/87/7
f 26/74/7 35/100/7 43/101/7
f 43/101/8 35/100/8 26/74/8
f 29/102/21 44/103/11 35/104/21
f 35/104/22 44/103/12 29/102/22
f 45/105/7 30/82/7 36/90/7
f 36/90/8 30/82/8 45/105/8
f 36/90/7 26/74/7 43/101/7
f 43/101/8 26/74/8 36/90/8
f 30/82/7 46/106/7 31/83/7
f 31/83/8 46/106/8 30/82/8
f 37/107/21 31/108/25 38/109/21
f 38/109/22 31/108/26 37/107/22
f 27/84/7 37/91/7 39/110/7
f 39/110/8 37/91/8 27/84/8
f 38/93/8 32/92/8 47/111/8
f 47/111/7 32/92/7 38/93/7
f 48/112/17 32/96/23 39/95/17
f 39/95/20 32/96/24 48/112/20
f 49/113/8 28/78/8 40/97/8
f 40/97/7 28/78/7 49/113/7
f 40/97/8 33/86/8 50/114/8
f 50/114/7 33/86/7 40/97/7
f 33/115/25 38/109/21 31/108/25
f 31/108/26 38/109/22 33/115/26
f 41/98/8 28/78/8 51/116/8
f 51/116/7 28/78/7 41/98/7
f 34/87/8 41/98/8 52/117/8
f 52/117/7 41/98/7 34/87/7
f 42/118/23 34/119/27 43/120/23
f 43/120/24 34/119/28 42/118/24
f 29/88/8 42/99/8 44/121/8
f 44/121/7 42/99/7 29/88/7
f 43/101/7 35/100/7 53/122/7
f 53/122/8 35/100/8 43/101/8
f 54/123/11 35/104/21 44/103/11
f 44/103/12 35/104/22 54/123/12
f 30/82/7 45/105/7 55/124/7
f 55/124/8 45/105/8 30/82/8
f 45/105/7 36/90/7 56/125/7
f 56/125/8 36/90/8 45/105/8
f 36/126/27 43/120/23 34/119/27
f 34/119/28 43/120/24 36/126/28
f 30/127/29 49/128/29 46/129/29
f 46/129/30 49/128/30 30/127/30
f 31/83/7 46/106/7 57/130/7
f 57/130/8 46/106/8 31/83/8
f 38/131/21 47/132/11 37/133/21
f 37/133/22 47/132/12 38/131/22
f 37/91/7 58/134/7 39/110/7
f 39/110/8 58/134/8 37/91/8
f 32/92/8 48/135/8 47/111/8
f 47/111/7 48/135/7 32/92/7
f 48/136/17 39/137/17 59/138/18
f 59/138/19 39/137/20 48/136/20
f 49/139/10 30/140/10 28/141/10
f 28/141/9 30/140/9 49/139/9
f 40/142/29 46/129/29 49/128/29
f 49/128/30 46/129/30 40/142/30
f 33/86/8 60/143/8 50/114/8
f 50/114/7 60/143/7 33/86/7
f 40/144/25 50/145/21 46/146/25
f 46/146/26 50/145/22 40/144/26
f 31/147/27 57/148/23 33/149/27
f 33/149/28 57/148/24 31/147/28
f 61/141/8 51/116/8 28/78/8
f 28/78/7 51/116/7 61/141/7
f 41/142/29 51/139/29 45/129/29
f 45/129/30 51/139/30 41/142/30
f 41/98/8 62/150/8 52/117/8
f 52/117/7 62/150/7 41/98/7
f 34/151/25 52/152/21 36/153/25
f 36/153/26 52/152/22 34/151/26
f 43/154/23 53/155/17 42/156/23
f 42/156/24 53/155/20 43/154/24
f 42/99/8 63/157/8 44/121/8
f 44/121/7 63/157/7 42/99/7
f 35/100/7 54/158/7 53/122/7
f 53/122/8 54/158/8 35/100/8
f 54/159/11 44/160/11 64/161/5
f 64/161/6 44/160/12 54/159/12
f 55/124/7 45/105/7 65/141/7
f 65/141/8 45/105/8 55/124/8
f 55/162/10 28/141/10 30/140/10
f 30/140/9 28/141/9 55/162/9
f 36/90/7 66/163/7 56/125/7
f 56/125/8 66/163/8 36/90/8
f 45/164/27 56/165/23 41/166/27
f 41/166/28 56/165/24 45/164/28
f 46/106/7 67/167/7 57/130/7
f 57/130/8 67/167/8 46/106/8
f 58/168/11 37/133/21 47/132/11
f 47/132/12 37/133/22 58/168/12
f 39/110/7 58/134/7 68/169/7
f 68/169/8 58/134/8 39/110/8
f 47/111/8 48/135/8 69/170/8
f 69/170/7 48/135/7 47/111/7
f 68/171/18 59/138/18 39/137/17
f 39/137/20 59/138/19 68/171/19
f 48/135/8 59/172/8 69/170/8
f 69/170/7 59/172/7 48/135/7
f 60/173/23 33/149/27 57/148/23
f 57/148/24 33/149/28 60/173/24
f 50/114/8 60/143/8 70/174/8
f 70/174/7 60/143/7 50/114/7
f 67/175/21 46/146/25 50/145/21
f 50/145/22 46/146/26 67/175/22
f 61/141/9 65/176/9 51/116/9
f 51/116/10 65/176/10 61/141/10
f 61/139/30 28/128/30 65/177/30
f 65/177/29 28/128/29 61/139/29
f 71/140/29 45/129/29 51/139/29
f 51/139/30 45/129/30 71/140/30
f 62/178/23 41/166/27 56/165/23
f 56/165/24 41/166/28 62/178/24
f 52/117/8 62/150/8 72/179/8
f 72/179/7 62/150/7 52/117/7
f 66/180/21 36/153/25 52/152/21
f 52/152/22 36/153/26 66/180/22
f 63/181/17 42/156/23 53/155/17
f 53/155/20 42/156/24 63/181/20
f 44/121/8 63/157/8 73/182/8
f 73/182/7 63/157/7 44/121/7
f 53/122/7 54/158/7 74/183/7
f 74/183/8 54/158/8 53/122/8
f 73/184/5 64/161/5 44/160/11
f 44/160/12 64/161/6 73/184/6
f 54/158/7 64/185/7 74/183/7
f 74/183/8 64/185/8 54/158/8
f 71/116/7 65/141/7 45/105/7
f 45/105/8 65/141/8 71/116/8
f 55/186/30 65/177/30 28/128/30
f 28/128/29 65/177/29 55/186/29
f 56/125/7 66/163/7 75/187/7
f 75/187/8 66/163/8 56/125/8
f 57/130/7 67/167/7 76/188/7
f 76/188/8 67/167/8 57/130/8
f 58/189/11 47/190/11 77/191/5
f 77/191/6 47/190/12 58/189/12
f 58/134/7 77/192/7 68/169/7
f 68/169/8 77/192/8 58/134/8
f 69/193/5 77/191/5 47/190/11
f 47/190/12 77/191/6 69/193/6
f 59/194/18 68/195/18 78/196/15
f 78/196/16 68/195/19 59/194/19
f 69/170/8 59/172/8 79/197/8
f 79/197/7 59/172/7 69/170/7
f 57/198/23 76/199/17 60/200/23
f 60/200/24 76/199/20 57/198/24
f 60/143/8 80/201/8 70/174/8
f 70/174/7 80/201/7 60/143/7
f 50/202/21 70/203/11 67/204/21
f 67/204/22 70/203/12 50/202/22
f 71/205/9 51/116/9 65/176/9
f 65/176/10 51/116/10 71/205/10
f 56/206/23 75/207/17 62/208/23
f 62/208/24 75/207/20 56/206/24
f 62/150/8 81/209/8 72/179/8
f 72/179/7 81/209/7 62/150/7
f 52/210/21 72/211/11 66/212/21
f 66/212/22 72/211/12 52/210/22
f 63/213/17 53/214/17 82/215/18
f 82/215/19 53/214/20 63/213/20
f 63/157/8 82/216/8 73/182/8
f 73/182/7 82/216/7 63/157/7
f 74/217/18 82/215/18 53/214/17
f 53/214/20 82/215/19 74/217/19
f 64/218/5 73/219/5 83/220/1
f 83/220/4 73/219/6 64/218/6
f 74/183/7 64/185/7 84/221/7
f 84/221/8 64/185/8 74/183/8
f 66/163/7 85/222/7 75/187/7
f 75/187/8 85/222/8 66/163/8
f 67/167/7 86/223/7 76/188/7
f 76/188/8 86/223/8 67/167/8
f 68/169/7 77/192/7 87/224/7
f 87/224/8 77/192/8 68/169/8
f 77/225/5 69/226/5 88/227/1
f 88/227/4 69/226/6 77/225/6
f 87/228/15 78/196/15 68/195/18
f 68/195/19 78/196/16 87/228/16
f 59/172/8 78/229/8 79/197/8
f 79/197/7 78/229/7 59/172/7
f 79/230/1 88/227/1 69/226/5
f 69/226/6 88/227/4 79/230/4
f 80/231/17 60/200/23 76/199/17
f 76/199/20 60/200/24 80/231/20
f 70/174/8 80/201/8 89/232/8
f 89/232/7 80/201/7 70/174/7
f 86/233/11 67/204/21 70/203/11
f 70/203/12 67/204/22 86/233/12
f 81/234/17 62/208/23 75/207/17
f 75/207/20 62/208/24 81/234/20
f 72/179/8 81/209/8 90/235/8
f 90/235/7 81/209/7 72/179/7
f 85/236/11 66/212/21 72/211/11
f 72/211/12 66/212/22 85/236/12
f 73/182/8 82/216/8 91/237/8
f 91/237/7 82/216/7 73/182/7
f 82/238/18 74/239/18 92/240/15
f 92/240/16 74/239/19 82/238/19
f 91/241/1 83/220/1 73/219/5
f 73/219/6 83/220/4 91/241/4
f 64/185/7 83/242/7 84/221/7
f 84/221/8 83/242/8 64/185/8
f 84/243/15 92/240/15 74/239/18
f 74/239/19 92/240/16 84/243/16
f 75/187/7 85/222/7 93/244/7
f 93/244/8 85/222/8 75/187/8
f 76/188/7 86/223/7 94/245/7
f 94/245/8 86/223/8 76/188/8
f 77/192/7 88/246/7 87/224/7
f 87/224/8 88/246/8 77/192/8
f 78/247/15 87/248/15 95/249/13
f 95/249/14 87/248/16 78/247/16
f 79/197/8 78/229/8 96/250/8
f 96/250/7 78/229/7 79/197/7
f 88/251/1 79/252/1 97/253/2
f 97/253/3 79/252/4 88/251/4
f 80/254/17 76/255/17 98/256/18
f 98/256/19 76/255/20 80/254/20
f 80/201/8 98/257/8 89/232/8
f 89/232/7 98/257/7 80/201/7
f 89/258/5 99/259/5 70/260/11
f 70/260/12 99/259/6 89/258/6
f 86/261/11 70/260/11 99/259/5
f 99/259/6 70/260/12 86/261/12
f 81/262/17 75/263/17 100/264/18
f 100/264/19 75/263/20 81/262/20
f 81/209/8 100/265/8 90/235/8
f 90/235/7 100/265/7 81/209/7
f 90/266/5 101/267/5 72/268/11
f 72/268/12 101/267/6 90/266/6
f 85/269/11 72/268/11 101/267/5
f 101/267/6 72/268/12 85/269/12
f 82/216/8 92/270/8 91/237/8
f 91/237/7 92/270/7 82/216/7
f 83/271/1 91/272/1 102/273/2
f 102/273/3 91/272/4 83/271/4
f 84/221/7 83/242/7 103/274/7
f 103/274/8 83/242/8 84/221/8
f 92/275/15 84/276/15 104/277/13
f 104/277/14 84/276/16 92/275/16
f 85/222/7 101/278/7 93/244/7
f 93/244/8 101/278/8 85/222/8
f 93/279/18 100/264/18 75/263/17
f 75/263/20 100/264/19 93/279/19
f 86/223/7 99/280/7 94/245/7
f 94/245/8 99/280/8 86/223/8
f 94/281/18 98/256/18 76/255/17
f 76/255/20 98/256/19 94/281/19
f 87/224/7 88/246/7 105/282/7
f 105/282/8 88/246/8 87/224/8
f 105/283/13 95/249/13 87/248/15
f 87/248/16 95/249/14 105/283/14
f 78/229/8 95/284/8 96/250/8
f 96/250/7 95/284/7 78/229/7
f 96/285/2 97/253/2 79/252/1
f 79/252/4 97/253/3 96/285/3
f 88/246/7 97/286/7 105/282/7
f 105/282/8 97/286/8 88/246/8
f 89/232/8 98/257/8 106/287/8
f 106/287/7 98/257/7 89/232/7
f 99/288/5 89/289/5 107/290/1
f 107/290/4 89/289/6 99/288/6
f 90/235/8 100/265/8 108/291/8
f 108/291/7 100/265/7 90/235/7
f 101/292/5 90/293/5 109/294/1
f 109/294/4 90/293/6 101/292/6
f 91/237/8 92/270/8 110/295/8
f 110/295/7 92/270/7 91/237/7
f 110/296/2 102/273/2 91/272/1
f 91/272/4 102/273/3 110/296/3
f 83/242/7 102/297/7 103/274/7
f 103/274/8 102/297/8 83/242/8
f 103/298/13 104/277/13 84/276/15
f 84/276/16 104/277/14 103/298/14
f 92/270/8 104/299/8 110/295/8
f 110/295/7 104/299/7 92/270/7
f 93/244/7 101/278/7 111/300/7
f 111/300/8 101/278/8 93/244/8
f 100/301/18 93/302/18 112/303/15
f 112/303/16 93/302/19 100/301/19
f 94/245/7 99/280/7 113/304/7
f 113/304/8 99/280/8 94/245/8
f 98/305/18 94/306/18 114/307/15
f 114/307/16 94/306/19 98/305/19
f 95/308/13 105/309/13 115/310/9
f 115/310/10 105/309/14 95/308/14
f 115/311/8 96/250/8 95/284/8
f 95/284/7 96/250/7 115/311/7
f 97/312/2 96/313/2 116/314/9
f 116/314/10 96/313/3 97/312/3
f 116/315/7 105/282/7 97/286/7
f 97/286/8 105/282/8 116/315/8
f 98/257/8 114/316/8 106/287/8
f 106/287/7 114/316/7 98/257/7
f 106/317/1 107/290/1 89/289/5
f 89/289/6 107/290/4 106/317/4
f 99/280/7 107/318/7 113/304/7
f 113/304/8 107/318/8 99/280/8
f 100/265/8 112/319/8 108/291/8
f 108/291/7 112/319/7 100/265/7
f 108/320/1 109/294/1 90/293/5
f 90/293/6 109/294/4 108/320/4
f 101/278/7 109/321/7 111/300/7
f 111/300/8 109/321/8 101/278/8
f 102/322/2 110/323/2 117/324/9
f 117/324/10 110/323/3 102/322/3
f 117/325/7 103/274/7 102/297/7
f 102/297/8 103/274/8 117/325/8
f 104/326/13 103/327/13 118/328/9
f 118/328/10 103/327/14 104/326/14
f 118/329/8 110/295/8 104/299/8
f 104/299/7 110/295/7 118/329/7
f 111/330/15 112/303/15 93/302/18
f 93/302/19 112/303/16 111/330/16
f 113/331/15 114/307/15 94/306/18
f 94/306/19 114/307/16 113/331/16
f 116/332/9 115/310/9 105/309/13
f 105/309/14 115/310/10 116/332/10
f 115/333/9 116/314/9 96/313/2
f 96/313/3 116/314/10 115/333/10
f 106/287/8 114/316/8 119/334/8
f 119/334/7 114/316/7 106/287/7
f 107/335/1 106/336/1 120/337/2
f 120/337/3 106/336/4 107/335/4
f 113/304/7 107/318/7 121/338/7
f 121/338/8 107/318/8 113/304/8
f 108/291/8 112/319/8 122/339/8
f 122/339/7 112/319/7 108/291/7
f 109/340/1 108/341/1 123/342/2
f 123/342/3 108/341/4 109/340/4
f 111/300/7 109/321/7 124/343/7
f 124/343/8 109/321/8 111/300/8
f 118/344/9 117/324/9 110/323/2
f 110/323/3 117/324/10 118/344/10
f 117/345/9 118/328/9 103/327/13
f 103/327/14 118/328/10 117/345/10
f 112/346/15 111/347/15 125/348/13
f 125/348/14 111/347/16 112/346/16
f 114/349/15 113/350/15 126/351/13
f 126/351/14 113/350/16 114/349/16
f 114/316/8 126/352/8 119/334/8
f 119/334/7 126/352/7 114/316/7
f 119/353/2 120/337/2 106/336/1
f 106/336/4 120/337/3 119/353/3
f 107/318/7 120/354/7 121/338/7
f 121/338/8 120/354/8 107/318/8
f 121/355/13 126/351/13 113/350/15
f 113/350/16 126/351/14 121/355/14
f 112/319/8 125/356/8 122/339/8
f 122/339/7 125/356/7 112/319/7
f 122/357/2 123/342/2 108/341/1
f 108/341/4 123/342/3 122/357/3
f 109/321/7 123/358/7 124/343/7
f 124/343/8 123/358/8 109/321/8
f 124/359/13 125/348/13 111/347/15
f 111/347/16 125/348/14 124/359/14
f 127/360/8 119/334/8 126/352/8
f 126/352/7 119/334/7 127/360/7
f 120/361/2 119/362/2 128/363/9
f 128/363/10 119/362/3 120/361/3
f 128/364/7 121/338/7 120/354/7
f 120/354/8 121/338/8 128/364/8
f 126/365/13 121/366/13 127/367/9
f 127/367/10 121/366/14 126/365/14
f 129/368/8 122/339/8 125/356/8
f 125/356/7 122/339/7 129/368/7
f 123/369/2 122/370/2 130/371/9
f 130/371/10 122/370/3 123/369/3
f 130/372/7 124/343/7 123/358/7
f 123/358/8 124/343/8 130/372/8
f 125/373/13 124/374/13 129/375/9
f 129/375/10 124/374/14 125/373/14
f 127/376/9 128/363/9 119/362/2
f 119/362/3 128/363/10 127/376/10
f 128/377/9 127/367/9 121/366/13
f 121/366/14 127/367/10 128/377/10
f 129/378/9 130/371/9 122/370/2
f 122/370/3 130/371/10 129/378/10
f 130/379/9 129/375/9 124/374/13
f 124/374/14 129/375/10 130/379/10
