# SSTK version 0.8.0
# 53
mtllib original-53.mtl
o Moulding-92.50.18_6/Moulding-92.50.18_1_2/mesh3/mesh3-geometry#mesh3-geometry
v 0.296462 0.719721 -0.220324
v 0.295536 0.719224 -0.261648
v 0.296462 0.719721 -0.261648
v 0.295536 0.719224 -0.220324
v 0.291403 0.785343 -0.261648
v 0.297273 0.720390 -0.220324
v 0.291403 0.785343 -0.220324
v 0.296462 0.718727 -0.220324
v 0.295536 0.709306 -0.261648
v 0.297273 0.720390 -0.261648
v 0.291403 0.709306 -0.220324
v 0.296462 0.718727 -0.261648
v 0.297273 0.718059 -0.220324
v 0.291403 0.709306 -0.261648
v 0.296462 0.709804 -0.261648
v 0.297939 0.721203 -0.261648
v 0.297939 0.721203 -0.220324
v 0.296462 0.709804 -0.220324
v 0.297273 0.718059 -0.261648
v 0.297939 0.717245 -0.220324
v 0.295536 0.709306 -0.220324
v 0.297273 0.710472 -0.261648
v 0.298434 0.722131 -0.261648
v 0.298434 0.722131 -0.220324
v 0.297273 0.710472 -0.220324
v 0.299668 0.785343 -0.220324
v 0.297939 0.717245 -0.261648
v 0.298434 0.716318 -0.220324
v 0.297939 0.711285 -0.261648
v 0.298739 0.723137 -0.261648
v 0.298739 0.723137 -0.220324
v 0.297939 0.711285 -0.220324
v 0.299668 0.785343 -0.261648
v 0.301585 0.783658 -0.220324
v 0.298434 0.716318 -0.261648
v 0.298739 0.715311 -0.220324
v 0.298434 0.712213 -0.261648
v 0.298841 0.724183 -0.261648
v 0.298841 0.724183 -0.220324
v 0.298434 0.712213 -0.220324
v 0.301585 0.783658 -0.261648
v 0.303221 0.781699 -0.220324
v 0.298739 0.715311 -0.261648
v 0.298841 0.714265 -0.220324
v 0.298739 0.713219 -0.261648
v 0.298841 0.729142 -0.261648
v 0.298841 0.729142 -0.220324
v 0.298739 0.713219 -0.220324
v 0.303221 0.781699 -0.261648
v 0.304535 0.779511 -0.220324
v 0.298841 0.714265 -0.261648
v 0.299668 0.729142 -0.261648
v 0.299668 0.758895 -0.220324
v 0.304535 0.779511 -0.261648
v 0.305496 0.777147 -0.220324
v 0.299668 0.758895 -0.261648
v 0.299668 0.729142 -0.220324
v 0.301585 0.760579 -0.220324
v 0.305496 0.777147 -0.261648
v 0.306083 0.774663 -0.220324
v 0.301585 0.760579 -0.261648
v 0.303221 0.762539 -0.220324
v 0.306083 0.774663 -0.261648
v 0.306280 0.772119 -0.220324
v 0.303221 0.762539 -0.261648
v 0.304535 0.764727 -0.220324
v 0.306280 0.772119 -0.261648
v 0.306083 0.769574 -0.220324
v 0.304535 0.764727 -0.261648
v 0.305496 0.767091 -0.220324
v 0.306083 0.769574 -0.261648
v 0.305496 0.767091 -0.261648
vt -0.02734 -0.002463
vt 0 -0.003158
vt 0 -0.002463
vt -0.02734 -0.003158
vt 0.007108 0.006562
vt 0.009843 0.050306
vt 0.006496 0.006891
vt 0 -0.000635
vt -0.02734 0.000061
vt -0.02734 -0.000635
vt -0.009843 0.050306
vt -0.007108 0.006562
vt -0.006496 0.006891
vt -0.02734 0.008671
vt 0 0.009367
vt -0.02734 0.009367
vt 0.007108 0
vt 0.005959 0.007333
vt 0 0.000061
vt -0.005959 0.007333
vt -0.009843 0
vt 0 0.008671
vt -0.005959 0.005791
vt -0.006496 0.006233
vt 0.009843 0
vt 0.006496 0.000329
vt 0.005518 0.007871
vt 0 0.001899
vt -0.02734 0.002595
vt -0.02734 0.001899
vt -0.005518 0.007871
vt -0.006496 0.000329
vt 0 0.050306
vt 0.02734 0
vt 0.02734 0.050306
vt -0.02734 0.008281
vt 0 0.008976
vt -0.02734 0.008976
vt 0.005959 0.005791
vt 0.006496 0.006233
vt -0.005518 0.005252
vt -0.007108 0.02734
vt -0.007108 0
vt 0 0
vt 0.005959 0.000771
vt -0.02734 -0.005567
vt 0 -0.006263
vt 0 -0.005567
vt 0.005191 0.008485
vt 0 0.002595
vt -0.005191 0.008485
vt -0.005959 0.000771
vt 0.004374 0.02734
vt 0.009843 0.02734
vt 0 0.008281
vt 0.005518 0.005252
vt -0.005191 0.004639
vt 0 0.00756
vt -0.02734 0.008255
vt -0.02734 0.00756
vt -0.009843 0.02734
vt -0.02734 -0.006263
vt 0.005518 0.001309
vt -0.02734 -0.00411
vt 0 -0.004806
vt 0 -0.00411
vt -0.02734 -0.004806
vt 0.004989 0.00915
vt -0.02734 0.005043
vt 0 0.004348
vt 0 0.005043
vt -0.02734 0.004348
vt -0.004989 0.00915
vt -0.005518 0.001309
vt 0.004374 0
vt -0.003106 0.049192
vt -0.004374 0.050306
vt 0 0.008255
vt 0.005191 0.004639
vt -0.004989 0.003973
vt 0 0.006536
vt -0.02734 0.007231
vt -0.02734 0.006536
vt 0 0.007231
vt 0.005191 0.001923
vt -0.02734 -0.002482
vt 0 -0.003178
vt 0 -0.002482
vt -0.02734 -0.003178
vt 0.004921 0.009843
vt -0.02734 0.007312
vt 0 0.006616
vt 0 0.007312
vt -0.02734 0.006616
vt -0.004921 0.009843
vt -0.005191 0.001923
vt -0.02734 0.036487
vt 0 0.034798
vt 0 0.036487
vt 0.003106 0.049192
vt 0.004374 0.050306
vt -0.002024 0.047896
vt -0.02734 0.034798
vt 0.004989 0.003973
vt -0.004921 0.003281
vt 0 0.005248
vt -0.02734 0.005944
vt -0.02734 0.005248
vt 0 0.005944
vt 0.004989 0.002589
vt -0.02734 -0.000746
vt 0 -0.001442
vt 0 -0.000746
vt -0.02734 -0.001442
vt 0.004921 0.013123
vt -0.02734 0.009314
vt 0 0.008618
vt 0 0.009314
vt -0.02734 0.008618
vt -0.004921 0.013123
vt -0.004989 0.002589
vt 0.002024 0.047896
vt -0.001155 0.046448
vt 0 0.038069
vt -0.02734 0.039757
vt -0.02734 0.038069
vt 0 0.039757
vt 0.004921 0.003281
vt 0 0.003747
vt -0.02734 0.004442
vt -0.02734 0.003747
vt 0 0.004442
vt -0.02734 0.001032
vt 0 0.000336
vt 0 0.001032
vt -0.02734 0.000336
vt 0.004374 0.013123
vt -0.02734 0.013123
vt 0 0.009843
vt 0 0.013123
vt -0.02734 0.009843
vt -0.004374 0.032808
vt 0.001155 0.046448
vt -0.000518 0.044884
vt 0 0.040411
vt -0.02734 0.0421
vt -0.02734 0.040411
vt 0 0.0421
vt 0 0.002088
vt -0.02734 0.002784
vt -0.02734 0.002088
vt 0 0.002784
vt 0.004374 0.032808
vt -0.004374 0.02734
vt -0.004921 0
vt -0.004374 0
vt -0.004921 0.02734
vt -0.004374 0.013123
vt -0.003106 0.033923
vt 0.000518 0.044884
vt -0.00013 0.043241
vt 0 0.041771
vt -0.02734 0.043459
vt -0.02734 0.041771
vt 0 0.043459
vt 0.003106 0.033923
vt -0.02734 0.032808
vt 0 0.032808
vt -0.02734 0.018366
vt 0 0.020054
vt -0.02734 0.020054
vt -0.002024 0.035219
vt 0.00013 0.043241
vt 0 0.041557
vt 0 0.042114
vt -0.02734 0.043802
vt -0.02734 0.042114
vt 0 0.043802
vt 0.002024 0.035219
vt 0 0.018366
vt 0 0.024054
vt -0.02734 0.025743
vt -0.02734 0.024054
vt -0.001155 0.036667
vt -0.00013 0.039874
vt 0 0.041433
vt -0.02734 0.043122
vt -0.02734 0.041433
vt 0 0.043122
vt 0.001155 0.036667
vt 0 0.025743
vt 0 0.029149
vt -0.02734 0.030837
vt -0.02734 0.029149
vt -0.000518 0.038231
vt 0.00013 0.039874
vt 0 0.039745
vt -0.02734 0.039745
vt 0.000518 0.038231
vt 0 0.030837
vt 0 0.033528
vt -0.02734 0.035217
vt -0.02734 0.033528
vt 0 0.037089
vt -0.02734 0.038777
vt -0.02734 0.037089
vt 0 0.038777
vt 0 0.035217
vn 0.5570188840395423 -0.8304998271061487 0
vn 0.47308688129660287 -0.8810157789421561 0
vn -0.5570188840395423 0.8304998271061487 0
vn -0.47308688129660287 0.8810157789421561 0
vn 0 0 -1
vn 0 0 1
vn 0.708092093870359 -0.7061200936089348 0
vn -0.708092093870359 0.7061200936089348 0
vn 0.5570188840395423 0.8304998271061487 0
vn 0.47308688129660287 0.8810157789421561 0
vn -0.47308688129660287 -0.8810157789421561 0
vn -0.5570188840395423 -0.8304998271061487 0
vn 0.8320502943378437 -0.5547001962252291 0
vn -0.8320502943378437 0.5547001962252291 0
vn -1 0 0
vn 1 0 0
vn 0.708092093870359 0.7061200936089348 0
vn -0.708092093870359 -0.7061200936089348 0
vn 0 -1 0
vn 0 1 0
vn 0.8320502943378437 0.5547001962252291 0
vn -0.8320502943378437 -0.5547001962252291 0
vn 0.9241461724285951 -0.3820390712814296 0
vn -0.9241461724285951 0.3820390712814296 0
vn 0.9241461724285951 0.3820390712814296 0
vn -0.9241461724285951 -0.3820390712814296 0
vn 0.9808532986144567 -0.1947480592897898 0
vn -0.9808532986144567 0.1947480592897898 0
vn 0.6599678563052144 0.7512938364208108 0
vn 0.715996190873154 0.6981041861034312 0
vn -0.6599678563052144 -0.7512938364208108 0
vn -0.715996190873154 -0.6981041861034312 0
vn 0.9808532986144567 0.1947480592897898 0
vn -0.9808532986144567 -0.1947480592897898 0
vn 0.9987997111666419 -0.04898098583565607 0
vn -0.9987997111666419 0.04898098583565607 0
vn 0.8149247298060461 0.5795668078405998 0
vn -0.8149247298060461 -0.5795668078405998 0
vn 0.8944269909998285 0.4472139954999092 0
vn -0.8944269909998285 -0.4472139954999092 0
vn 0.9526081706769159 0.30420005450292026 0
vn -0.9526081706769159 -0.30420005450292026 0
vn 0.6599678563052144 -0.7512938364208108 0
vn 0.715996190873154 -0.6981041861034312 0
vn -0.715996190873154 0.6981041861034312 0
vn -0.6599678563052144 0.7512938364208108 0
vn 0.9880809768858221 0.1539349963989987 0
vn -0.9880809768858221 -0.1539349963989987 0
vn 0.8149247298060461 -0.5795668078405998 0
vn -0.8149247298060461 0.5795668078405998 0
vn 0.8944269909998285 -0.4472139954999092 0
vn -0.8944269909998285 0.4472139954999092 0
vn 0.9880809768858221 -0.1539349963989987 0
vn -0.9880809768858221 0.1539349963989987 0
vn 0.9526081706769159 -0.30420005450292026 0
vn -0.9526081706769159 0.30420005450292026 0
usemtl material_0_0
f 1/1/1 2/2/2 3/3/1
f 2/2/2 1/1/1 4/4/2
f 3/3/3 2/2/4 1/1/3
f 4/4/4 1/1/3 2/2/4
f 2/5/5 5/6/5 3/7/5
f 3/7/6 5/6/6 2/5/6
f 3/8/1 6/9/7 1/10/1
f 1/10/3 6/9/8 3/8/3
f 7/11/6 4/12/6 1/13/6
f 1/13/5 4/12/5 7/11/5
f 8/14/9 2/15/10 4/16/10
f 4/16/11 2/15/11 8/14/12
f 9/17/5 5/6/5 2/5/5
f 2/5/6 5/6/6 9/17/6
f 3/7/5 5/6/5 10/18/5
f 10/18/6 5/6/6 3/7/6
f 6/9/7 3/8/1 10/19/7
f 10/19/8 3/8/3 6/9/8
f 7/11/6 1/13/6 6/20/6
f 6/20/5 1/13/5 7/11/5
f 11/21/6 4/12/6 7/11/6
f 7/11/5 4/12/5 11/21/5
f 2/15/10 8/14/9 12/22/9
f 12/22/12 8/14/12 2/15/11
f 4/12/6 13/23/6 8/24/6
f 8/24/5 13/23/5 4/12/5
f 5/6/5 9/17/5 14/25/5
f 14/25/6 9/17/6 5/6/6
f 9/17/5 2/5/5 15/26/5
f 15/26/6 2/5/6 9/17/6
f 10/18/5 5/6/5 16/27/5
f 16/27/6 5/6/6 10/18/6
f 10/28/7 17/29/13 6/30/7
f 6/30/8 17/29/14 10/28/8
f 7/11/6 6/20/6 17/31/6
f 17/31/5 6/20/5 7/11/5
f 11/21/6 18/32/6 4/12/6
f 4/12/5 18/32/5 11/21/5
f 5/33/15 11/34/15 7/35/15
f 7/35/16 11/34/16 5/33/16
f 13/36/17 12/37/9 8/38/9
f 8/38/12 12/37/12 13/36/18
f 19/39/5 2/5/5 12/40/5
f 12/40/6 2/5/6 19/39/6
f 4/12/6 20/41/6 13/23/6
f 13/23/5 20/41/5 4/12/5
f 21/42/19 14/21/19 9/43/19
f 9/43/20 14/21/20 21/42/20
f 11/34/15 5/33/15 14/44/15
f 14/44/16 5/33/16 11/34/16
f 15/26/5 2/5/5 22/45/5
f 22/45/6 2/5/6 15/26/6
f 18/46/1 9/47/2 15/48/1
f 15/48/3 9/47/4 18/46/3
f 16/27/5 5/6/5 23/49/5
f 23/49/6 5/6/6 16/27/6
f 17/29/13 10/28/7 16/50/13
f 16/50/14 10/28/8 17/29/14
f 7/11/6 17/31/6 24/51/6
f 24/51/5 17/31/5 7/11/5
f 18/32/6 11/21/6 21/43/6
f 21/43/5 11/21/5 18/32/5
f 4/12/6 18/32/6 25/52/6
f 25/52/5 18/32/5 4/12/5
f 26/53/20 5/25/20 7/54/20
f 7/54/19 5/25/19 26/53/19
f 12/37/9 13/36/17 19/55/17
f 19/55/18 13/36/18 12/37/12
f 27/56/5 2/5/5 19/39/5
f 19/39/6 2/5/6 27/56/6
f 4/12/6 28/57/6 20/41/6
f 20/41/5 28/57/5 4/12/5
f 27/58/21 13/59/17 20/60/21
f 20/60/22 13/59/18 27/58/22
f 14/21/19 21/42/19 11/61/19
f 11/61/20 21/42/20 14/21/20
f 9/47/2 18/46/1 21/62/2
f 21/62/4 18/46/3 9/47/4
f 22/45/5 2/5/5 29/63/5
f 29/63/6 2/5/6 22/45/6
f 25/64/7 15/65/1 22/66/7
f 22/66/8 15/65/3 25/64/8
f 15/65/1 25/64/7 18/67/1
f 18/67/3 25/64/8 15/65/3
f 23/49/5 5/6/5 30/68/5
f 30/68/6 5/6/6 23/49/6
f 24/69/23 16/70/13 23/71/23
f 23/71/24 16/70/14 24/69/24
f 16/70/13 24/69/23 17/72/13
f 17/72/14 24/69/24 16/70/14
f 7/11/6 24/51/6 31/73/6
f 31/73/5 24/51/5 7/11/5
f 4/12/6 25/52/6 32/74/6
f 32/74/5 25/52/5 4/12/5
f 5/25/20 26/53/20 33/75/20
f 33/75/19 26/53/19 5/25/19
f 7/11/6 34/76/6 26/77/6
f 26/77/5 34/76/5 7/11/5
f 13/59/17 27/58/21 19/78/17
f 19/78/18 27/58/22 13/59/18
f 35/79/5 2/5/5 27/56/5
f 27/56/6 2/5/6 35/79/6
f 4/12/6 36/80/6 28/57/6
f 28/57/5 36/80/5 4/12/5
f 35/81/25 20/82/21 28/83/25
f 28/83/26 20/82/22 35/81/26
f 20/82/21 35/81/25 27/84/21
f 27/84/22 35/81/26 20/82/22
f 29/63/5 2/5/5 37/85/5
f 37/85/6 2/5/6 29/63/6
f 32/86/13 22/87/7 29/88/13
f 29/88/14 22/87/8 32/86/14
f 22/87/7 32/86/13 25/89/7
f 25/89/8 32/86/14 22/87/8
f 30/68/5 5/6/5 38/90/5
f 38/90/6 5/6/6 30/68/6
f 31/91/27 23/92/23 30/93/27
f 30/93/28 23/92/24 31/91/28
f 23/92/23 31/91/27 24/94/23
f 24/94/24 31/91/28 23/92/24
f 7/11/6 31/73/6 39/95/6
f 39/95/5 31/73/5 7/11/5
f 4/12/6 32/74/6 40/96/6
f 40/96/5 32/74/5 4/12/5
f 26/97/29 41/98/30 33/99/29
f 33/99/31 41/98/32 26/97/31
f 41/100/5 5/6/5 33/101/5
f 33/101/6 5/6/6 41/100/6
f 7/11/6 42/102/6 34/76/6
f 34/76/5 42/102/5 7/11/5
f 41/98/30 26/97/29 34/103/30
f 34/103/32 26/97/31 41/98/32
f 43/104/5 2/5/5 35/79/5
f 35/79/6 2/5/6 43/104/6
f 4/12/6 44/105/6 36/80/6
f 36/80/5 44/105/5 4/12/5
f 43/106/33 28/107/25 36/108/33
f 36/108/34 28/107/26 43/106/34
f 28/107/25 43/106/33 35/109/25
f 35/109/26 43/106/34 28/107/26
f 37/85/5 2/5/5 45/110/5
f 45/110/6 2/5/6 37/85/6
f 40/111/23 29/112/13 37/113/23
f 37/113/24 29/112/14 40/111/24
f 29/112/13 40/111/23 32/114/13
f 32/114/14 40/111/24 29/112/14
f 38/90/5 5/6/5 46/115/5
f 46/115/6 5/6/6 38/90/6
f 39/116/35 30/117/27 38/118/35
f 38/118/36 30/117/28 39/116/36
f 30/117/27 39/116/35 31/119/27
f 31/119/28 39/116/36 30/117/28
f 7/11/6 39/95/6 47/120/6
f 47/120/5 39/95/5 7/11/5
f 4/12/6 40/96/6 48/121/6
f 48/121/5 40/96/5 4/12/5
f 49/122/5 5/6/5 41/100/5
f 41/100/6 5/6/6 49/122/6
f 7/11/6 50/123/6 42/102/6
f 42/102/5 50/123/5 7/11/5
f 49/124/37 34/125/30 42/126/37
f 42/126/38 34/125/32 49/124/38
f 34/125/30 49/124/37 41/127/30
f 41/127/32 49/124/38 34/125/32
f 51/128/5 2/5/5 43/104/5
f 43/104/6 2/5/6 51/128/6
f 4/12/6 48/121/6 44/105/6
f 44/105/5 48/121/5 4/12/5
f 51/129/16 36/130/33 44/131/16
f 44/131/15 36/130/34 51/129/15
f 36/130/33 51/129/16 43/132/33
f 43/132/34 51/129/15 36/130/34
f 45/110/5 2/5/5 51/128/5
f 51/128/6 2/5/6 45/110/6
f 48/133/27 37/134/23 45/135/27
f 45/135/28 37/134/24 48/133/28
f 37/134/23 48/133/27 40/136/23
f 40/136/24 48/133/28 37/134/24
f 46/115/5 5/6/5 52/137/5
f 52/137/6 5/6/6 46/115/6
f 47/138/16 38/139/35 46/140/16
f 46/140/15 38/139/36 47/138/15
f 38/139/35 47/138/16 39/141/35
f 39/141/36 47/138/15 38/139/36
f 7/11/6 47/120/6 53/142/6
f 53/142/5 47/120/5 7/11/5
f 54/143/5 5/6/5 49/122/5
f 49/122/6 5/6/6 54/143/6
f 7/11/6 55/144/6 50/123/6
f 50/123/5 55/144/5 7/11/5
f 54/145/39 42/146/37 50/147/39
f 50/147/40 42/146/38 54/145/40
f 42/146/37 54/145/39 49/148/37
f 49/148/38 54/145/40 42/146/38
f 45/149/27 44/150/16 48/151/27
f 48/151/28 44/150/15 45/149/28
f 44/150/16 45/149/27 51/152/16
f 51/152/15 45/149/28 44/150/15
f 52/137/5 5/6/5 56/153/5
f 56/153/6 5/6/6 52/137/6
f 57/154/19 46/155/19 52/156/19
f 52/156/20 46/155/20 57/154/20
f 46/155/19 57/154/19 47/157/19
f 47/157/20 57/154/20 46/155/20
f 53/142/6 47/120/6 57/158/6
f 57/158/5 47/120/5 53/142/5
f 7/11/6 53/142/6 58/159/6
f 58/159/5 53/142/5 7/11/5
f 59/160/5 5/6/5 54/143/5
f 54/143/6 5/6/6 59/160/6
f 7/11/6 60/161/6 55/144/6
f 55/144/5 60/161/5 7/11/5
f 59/162/41 50/163/39 55/164/41
f 55/164/42 50/163/40 59/162/42
f 50/163/39 59/162/41 54/165/39
f 54/165/40 59/162/42 50/163/40
f 56/153/5 5/6/5 61/166/5
f 61/166/6 5/6/6 56/153/6
f 53/167/16 52/140/16 56/168/16
f 56/168/15 52/140/15 53/167/15
f 52/140/16 53/167/16 57/138/16
f 57/138/15 53/167/15 52/140/15
f 53/169/43 61/170/44 58/171/44
f 58/171/45 61/170/45 53/169/46
f 7/11/6 58/159/6 62/172/6
f 62/172/5 58/159/5 7/11/5
f 63/173/5 5/6/5 59/160/5
f 59/160/6 5/6/6 63/173/6
f 7/11/6 64/174/6 60/161/6
f 60/161/5 64/174/5 7/11/5
f 63/175/47 55/176/41 60/177/47
f 60/177/48 55/176/42 63/175/48
f 55/176/41 63/175/47 59/178/41
f 59/178/42 63/175/48 55/176/42
f 61/166/5 5/6/5 65/179/5
f 65/179/6 5/6/6 61/166/6
f 61/170/44 53/169/43 56/180/43
f 56/180/46 53/169/46 61/170/45
f 61/181/44 62/182/49 58/183/44
f 58/183/45 62/182/50 61/181/45
f 7/11/6 62/172/6 66/184/6
f 66/184/5 62/172/5 7/11/5
f 67/174/5 5/6/5 63/173/5
f 63/173/6 5/6/6 67/174/6
f 7/11/6 68/185/6 64/174/6
f 64/174/5 68/185/5 7/11/5
f 67/186/16 60/187/47 64/188/16
f 64/188/15 60/187/48 67/186/15
f 60/187/47 67/186/16 63/189/47
f 63/189/48 67/186/15 60/187/48
f 65/179/5 5/6/5 69/190/5
f 69/190/6 5/6/6 65/179/6
f 62/182/49 61/181/44 65/191/49
f 65/191/50 61/181/45 62/182/50
f 65/192/49 66/193/51 62/194/49
f 62/194/50 66/193/52 65/192/50
f 7/11/6 66/184/6 70/195/6
f 70/195/5 66/184/5 7/11/5
f 71/196/5 5/6/5 67/174/5
f 67/174/6 5/6/6 71/196/6
f 7/11/6 70/195/6 68/185/6
f 68/185/5 70/195/5 7/11/5
f 71/197/53 64/188/16 68/198/53
f 68/198/54 64/188/15 71/197/54
f 64/188/16 71/197/53 67/186/16
f 67/186/15 71/197/54 64/188/15
f 69/190/5 5/6/5 72/199/5
f 72/199/6 5/6/6 69/190/6
f 66/193/51 65/192/49 69/200/51
f 69/200/52 65/192/50 66/193/52
f 69/201/51 70/202/55 66/203/51
f 66/203/52 70/202/56 69/201/52
f 72/199/5 5/6/5 71/196/5
f 71/196/6 5/6/6 72/199/6
f 72/204/55 68/205/53 70/206/55
f 70/206/56 68/205/54 72/204/56
f 68/205/53 72/204/55 71/207/53
f 71/207/54 72/204/56 68/205/54
f 70/202/55 69/201/51 72/208/55
f 72/208/56 69/201/52 70/202/56
