# SSTK version 0.8.0
# 32
mtllib original-32.mtl
o Front-1146.492.10_1/Front-1146.492.10/mesh42/mesh42-geometry#mesh42-geometry
v 0.205449 0.654759 0.230934
v -0.184649 0.638229 0.232587
v 0.188920 0.638229 0.232587
v -0.201179 0.654759 0.230934
v -0.184649 -0.275858 0.232587
v 0.188920 -0.275858 0.232587
v -0.201179 0.654759 0.224322
v 0.205449 -0.292387 0.230934
v 0.205449 0.654759 0.224322
v -0.201179 -0.292387 0.230934
v 0.205449 -0.292387 0.224322
v -0.201179 -0.292387 0.224322
vt 0.269029 0.623531
vt 0.010936 0.61254
vt 0.258093 0.61254
vt 0 0.623531
vt -0.010936 0.010936
vt -0.615704 0.258093
vt -0.615704 0.010936
vt -0.010936 0.256703
vt -0.62664 0.267694
vt -0.615704 0.256703
vt 0.269029 0
vt 0 0.004374
vt 0 0
vt 0.62664 0
vt 0.010936 -0.010991
vt 0.615704 -0.010991
vt -0.010936 0.258093
vt 0 0.267694
vt 0.269029 0.004374
vt 0.62664 0.004374
vt -0.258093 -0.010991
vt -0.010936 -0.010991
vt -0.269029 0
vt -0.62664 0
vt -0.62664 0.004374
vt 0 0.269029
vt 0.62664 0.269029
vt -0.269029 0.004374
vn 0 0.09950401605074514 0.9950371605069698
vn 0 -0.09950401605074514 -0.9950371605069698
vn 0 0 1
vn 0 0 -1
vn 0.09950401605074537 0 0.9950371605069698
vn -0.09950401605074537 0 -0.9950371605069698
vn 0 1 0
vn 0 -1 0
vn -0.09950401605074537 0 0.9950371605069698
vn 0.09950401605074537 0 -0.9950371605069698
vn -1 0 0
vn 1 0 0
vn 0 -0.09950401605074559 0.9950371605069698
vn 0 0.09950401605074559 -0.9950371605069698
usemtl material_0_0
f 1/1/1 2/2/1 3/3/1
f 2/2/1 1/1/1 4/4/1
f 3/3/2 2/2/2 1/1/2
f 4/4/2 1/1/2 2/2/2
f 5/5/3 3/6/3 2/7/3
f 2/7/4 3/6/4 5/5/4
f 6/8/5 1/9/5 3/10/5
f 3/10/6 1/9/6 6/8/6
f 1/11/7 7/12/7 4/13/7
f 4/13/8 7/12/8 1/11/8
f 4/14/9 5/15/9 2/16/9
f 2/16/10 5/15/10 4/14/10
f 3/6/3 5/5/3 6/17/3
f 6/17/4 5/5/4 3/6/4
f 1/9/5 6/8/5 8/18/5
f 8/18/6 6/8/6 1/9/6
f 7/12/7 1/11/7 9/19/7
f 9/19/8 1/11/8 7/12/8
f 7/20/11 10/13/11 4/14/11
f 4/14/12 10/13/12 7/20/12
f 5/15/9 4/14/9 10/13/9
f 10/13/10 4/14/10 5/15/10
f 10/13/13 6/21/13 5/22/13
f 5/22/14 6/21/14 10/13/14
f 6/21/13 10/13/13 8/23/13
f 8/23/14 10/13/14 6/21/14
f 11/12/12 1/24/12 8/13/12
f 8/13/11 1/24/11 11/12/11
f 1/24/12 11/12/12 9/25/12
f 9/25/11 11/12/11 1/24/11
f 11/26/4 7/14/4 9/27/4
f 9/27/3 7/14/3 11/26/3
f 10/13/11 7/20/11 12/12/11
f 12/12/12 7/20/12 10/13/12
f 10/13/8 11/28/8 8/23/8
f 8/23/7 11/28/7 10/13/7
f 7/14/4 11/26/4 12/13/4
f 12/13/3 11/26/3 7/14/3
f 11/28/8 10/13/8 12/12/8
f 12/12/7 10/13/7 11/28/7
