# SSTK version 0.8.0
# 22
mtllib original-22.mtl
o Moulding-592.50.22_2/Moulding-592.50.22_1_2/mesh29/mesh29-geometry#mesh29-geometry
v -0.202286 -0.443352 0.235066
v -0.201461 -0.444178 0.233073
v 0.206556 -0.443352 0.235066
v -0.242503 -0.403136 0.222669
v -0.201179 -0.444178 0.233073
v 0.207870 -0.442039 0.236778
v -0.203600 -0.442039 0.236778
v -0.201179 -0.444460 0.230934
v 0.205731 -0.444178 0.233073
v 0.246773 -0.403136 0.222669
v -0.205311 -0.440327 0.238092
v -0.201179 -0.444460 0.222669
v 0.205449 -0.444460 0.230934
v 0.209582 -0.440327 0.238092
v -0.207305 -0.438334 0.238917
v 0.211575 -0.438334 0.238917
v -0.209444 -0.436195 0.239199
v 0.205449 -0.444460 0.222669
v -0.242503 -0.403136 0.240852
v 0.213714 -0.436195 0.239199
v 0.246773 -0.403136 0.240852
v 0.213714 -0.436195 0.240852
v -0.209444 -0.436195 0.240852
vt 0.026608 0.013719
vt 0.027154 0.015146
vt 0.297102 0.013719
vt -0.005146 0.038402
vt -0.003828 0.037629
vt -0.01203 0
vt 0.02734 0.015146
vt 0.297102 0.019234
vt 0.297971 0.017807
vt 0.026608 0.019234
vt -0.002695 0.0364
vt -0.006562 0.038665
vt 0.296556 0.015146
vt 0.003828 -0.191268
vt 0.01203 -0.228897
vt 0.002695 -0.192497
vt 0.025739 0.017807
vt -0.001826 0.034799
vt -0.01203 0.038665
vt 0.005146 -0.190496
vt 0.296556 0.008647
vt 0.02734 0.008647
vt 0.296369 0.010074
vt 0.001826 -0.194099
vt 0.025739 0.022061
vt 0.297971 0.022061
vt 0.024606 0.020633
vt -0.00128 0.032934
vt 0.02734 0.006562
vt 0.02734 0.01203
vt 0.296369 0.006562
vt 0 0
vt -0.32371 0
vt -0.02734 0.02734
vt 0.006562 -0.190232
vt 0.02734 0.010074
vt 0.00128 -0.195964
vt 0.299103 0.020633
vt 0.024606 0.023432
vt 0.299103 0.023432
vt 0.023288 0.022005
vt -0.001094 0.030932
vt 0.296369 0.01203
vt 0 0.01203
vt -0.32371 0.01203
vt -0.296369 0.02734
vt 0.01203 -0.190232
vt 0.001094 -0.197965
vt 0.300422 0.022005
vt 0.023288 0.023255
vt 0.300422 0.023255
vt 0.021872 0.021828
vt 0 -0.197965
vt 0.301837 0.021828
vt 0 0.030932
vt 0 -0.228897
vt 0.32371 0
vt 0.301837 0.021872
vt 0.301837 0.001094
vt 0.301837 0
vt 0.021872 0.001094
vt 0.021872 0.021872
vt 0.021872 0
vn 0 -0.8660253028382762 0.5000001748438414
vn 0 -0.9238797538373538 0.38268289803625993
vn 0 0.8660253028382762 -0.5000001748438414
vn 0 0.9238797538373538 -0.38268289803625993
vn -0.7071067811865475 -0.7071067811865475 0
vn 0.7071067811865475 0.7071067811865475 0
vn 0 -0.965925849201117 0.2588189595935752
vn 0 0.965925849201117 -0.2588189595935752
vn 0 -0.7071067811865477 0.7071067811865474
vn 0 0.7071067811865477 -0.7071067811865474
vn 0.7071067811865475 -0.7071067811865475 0
vn -0.7071067811865475 0.7071067811865475 0
vn 0 -0.9978589320009054 0.06540299554311281
vn 0 0.9978589320009054 -0.06540299554311281
vn 0 -0.5000001748438418 0.866025302838276
vn 0 0.5000001748438418 -0.866025302838276
vn 0 -1 0
vn 0 1 0
vn 0 0 -1
vn 0 0 1
vn 0 -0.25881895959357565 0.965925849201117
vn 0 0.25881895959357565 -0.965925849201117
vn 0 -0.13052598533534135 0.9914448886106773
vn 0 0.13052598533534135 -0.9914448886106773
usemtl material_0_0
f 1/1/1 2/2/2 3/3/1
f 3/3/3 2/2/4 1/1/3
f 2/4/5 1/5/5 4/6/5
f 4/6/6 1/5/6 2/4/6
f 5/7/7 3/3/1 2/2/2
f 2/2/4 3/3/3 5/7/8
f 3/8/1 6/9/9 1/10/1
f 1/10/3 6/9/10 3/8/3
f 1/5/5 7/11/5 4/6/5
f 4/6/6 7/11/6 1/5/6
f 8/12/5 2/4/5 4/6/5
f 4/6/6 2/4/6 8/12/6
f 9/13/7 3/3/1 5/7/7
f 5/7/8 3/3/3 9/13/8
f 3/14/11 10/15/11 6/16/11
f 6/16/12 10/15/12 3/14/12
f 7/17/9 1/10/1 6/9/9
f 6/9/10 1/10/3 7/17/10
f 7/11/5 11/18/5 4/6/5
f 4/6/6 11/18/6 7/11/6
f 12/19/5 8/12/5 4/6/5
f 4/6/6 8/12/6 12/19/6
f 9/20/11 10/15/11 3/14/11
f 3/14/12 10/15/12 9/20/12
f 9/21/7 5/22/7 13/23/13
f 13/23/14 5/22/8 9/21/8
f 6/16/11 10/15/11 14/24/11
f 14/24/12 10/15/12 6/16/12
f 7/25/9 6/26/9 11/27/15
f 11/27/16 6/26/10 7/25/10
f 11/18/5 15/28/5 4/6/5
f 4/6/6 15/28/6 11/18/6
f 8/29/13 12/30/17 13/31/13
f 13/31/14 12/30/18 8/29/14
f 4/32/19 10/33/19 12/34/19
f 12/34/20 10/33/20 4/32/20
f 13/35/11 10/15/11 9/20/11
f 9/20/12 10/15/12 13/35/12
f 8/36/13 13/23/13 5/22/7
f 5/22/8 13/23/14 8/36/14
f 14/24/11 10/15/11 16/37/11
f 16/37/12 10/15/12 14/24/12
f 14/38/15 11/27/15 6/26/9
f 6/26/10 11/27/16 14/38/16
f 11/39/15 14/40/15 15/41/21
f 15/41/22 14/40/16 11/39/16
f 15/28/5 17/42/5 4/6/5
f 4/6/6 17/42/6 15/28/6
f 18/43/17 13/31/13 12/30/17
f 12/30/18 13/31/14 18/43/18
f 4/44/18 19/32/18 10/45/18
f 10/45/17 19/32/17 4/44/17
f 18/46/19 12/34/19 10/33/19
f 10/33/20 12/34/20 18/46/20
f 18/47/11 10/15/11 13/35/11
f 13/35/12 10/15/12 18/47/12
f 16/37/11 10/15/11 20/48/11
f 20/48/12 10/15/12 16/37/12
f 16/49/21 15/41/21 14/40/15
f 14/40/16 15/41/22 16/49/22
f 15/50/21 16/51/21 17/52/23
f 17/52/24 16/51/22 15/50/22
f 4/6/5 17/42/5 19/32/5
f 19/32/6 17/42/6 4/6/6
f 21/33/18 10/45/18 19/32/18
f 19/32/17 10/45/17 21/33/17
f 20/48/11 10/15/11 22/53/11
f 22/53/12 10/15/12 20/48/12
f 20/54/23 17/52/23 16/51/21
f 16/51/22 17/52/24 20/54/24
f 23/55/5 19/32/5 17/42/5
f 17/42/6 19/32/6 23/55/6
f 21/56/11 22/53/11 10/15/11
f 10/15/12 22/53/12 21/56/12
f 21/57/20 19/32/20 22/58/20
f 22/58/19 19/32/19 21/57/19
f 20/59/17 22/60/17 17/61/17
f 17/61/18 22/60/18 20/59/18
f 23/62/20 22/58/20 19/32/20
f 19/32/19 22/58/19 23/62/19
f 23/63/17 17/61/17 22/60/17
f 22/60/18 17/61/18 23/63/18
