# SSTK version 0.8.0
# 23
mtllib original-23.mtl
o Front-492.406.10_1/Front-492.406.10/mesh31/mesh31-geometry#mesh31-geometry
v -0.201179 -0.444460 0.230934
v 0.188920 -0.460989 0.232587
v 0.205449 -0.444460 0.230934
v -0.184649 -0.460989 0.232587
v 0.205449 -0.780010 0.230934
v -0.201179 -0.444460 0.224322
v -0.201179 -0.780010 0.230934
v 0.188920 -0.763481 0.232587
v 0.205449 -0.780010 0.224322
v 0.205449 -0.444460 0.224322
v -0.184649 -0.763481 0.232587
v -0.201179 -0.780010 0.224322
vt 0 -0.220902
vt -0.258093 -0.209911
vt -0.269029 -0.220902
vt -0.010936 -0.209911
vt 0.211067 -0.256703
vt 0 -0.267694
vt 0.222003 -0.267694
vt -0.269029 0
vt 0 -0.004374
vt 0 0
vt -0.211067 0.010991
vt -0.222003 0
vt -0.211067 0.010936
vt -0.010936 0.258093
vt -0.211067 0.258093
vt 0.010936 -0.256703
vt 0.222003 0
vt -0.269029 -0.004374
vt -0.222003 -0.004374
vt -0.010936 0.010991
vt -0.010936 0.010936
vt 0.258093 0.010991
vt 0.269029 0
vt 0.222003 -0.004374
vt 0.269029 -0.004374
vt 0 0.269029
vt 0.222003 0.269029
vt 0.010936 0.010991
vn 0 0.09950401605074514 0.9950371605069698
vn 0 -0.09950401605074514 -0.9950371605069698
vn 0.09950401605074537 0 0.9950371605069698
vn -0.09950401605074537 0 -0.9950371605069698
vn 0 1 0
vn 0 -1 0
vn -0.09950401605074537 0 0.9950371605069698
vn 0.09950401605074537 0 -0.9950371605069698
vn 0 0 1
vn 0 0 -1
vn 1 0 0
vn -1 0 0
vn 0 -0.09950401605074559 0.9950371605069698
vn 0 0.09950401605074559 -0.9950371605069698
usemtl material_0_0
f 1/1/1 2/2/1 3/3/1
f 2/2/1 1/1/1 4/4/1
f 3/3/2 2/2/2 1/1/2
f 4/4/2 1/1/2 2/2/2
f 2/5/3 5/6/3 3/7/3
f 3/7/4 5/6/4 2/5/4
f 3/8/5 6/9/5 1/10/5
f 1/10/6 6/9/6 3/8/6
f 7/10/7 4/11/7 1/12/7
f 1/12/8 4/11/8 7/10/8
f 4/13/9 8/14/9 2/15/9
f 2/15/10 8/14/10 4/13/10
f 5/6/3 2/5/3 8/16/3
f 8/16/4 2/5/4 5/6/4
f 9/9/11 3/17/11 5/10/11
f 5/10/12 3/17/12 9/9/12
f 6/9/5 3/8/5 10/18/5
f 10/18/6 3/8/6 6/9/6
f 6/19/12 7/10/12 1/12/12
f 1/12/11 7/10/11 6/19/11
f 4/11/7 7/10/7 11/20/7
f 11/20/8 7/10/8 4/11/8
f 8/14/9 4/13/9 11/21/9
f 11/21/10 4/13/10 8/14/10
f 8/22/13 7/10/13 5/23/13
f 5/23/14 7/10/14 8/22/14
f 3/17/11 9/9/11 10/24/11
f 10/24/12 9/9/12 3/17/12
f 7/10/6 9/25/6 5/23/6
f 5/23/5 9/25/5 7/10/5
f 9/26/10 6/17/10 10/27/10
f 10/27/9 6/17/9 9/26/9
f 7/10/12 6/19/12 12/9/12
f 12/9/11 6/19/11 7/10/11
f 7/10/13 8/22/13 11/28/13
f 11/28/14 8/22/14 7/10/14
f 9/25/6 7/10/6 12/9/6
f 12/9/5 7/10/5 9/25/5
f 6/17/10 9/26/10 12/10/10
f 12/10/9 9/26/9 6/17/9
