# SSTK version 0.8.0
# 50
mtllib original-50.mtl
o Moulding-592.84.16_1/Moulding-592.84.16/mesh58/mesh58-geometry#mesh58-geometry
v 0.246773 -0.379387 0.240749
v -0.242503 -0.380394 0.240444
v 0.246773 -0.380394 0.240444
v -0.242503 -0.379387 0.240749
v -0.242503 -0.381321 0.239950
v 0.246773 -0.377295 0.240749
v 0.246773 -0.378341 0.240852
v -0.242503 -0.376289 0.240444
v 0.246773 -0.381321 0.239950
v -0.242503 -0.375361 0.239950
v 0.246773 -0.376289 0.240444
v -0.242503 -0.378341 0.240852
v -0.242503 -0.377295 0.240749
v -0.242503 -0.382135 0.239284
v -0.242503 -0.374548 0.239284
v 0.246773 -0.375361 0.239950
v 0.246773 -0.382135 0.239284
v 0.246773 -0.374548 0.239284
v 0.246773 -0.382803 0.238472
v -0.242503 -0.373880 0.238472
v -0.242503 -0.382803 0.238472
v 0.246773 -0.373880 0.238472
v 0.246773 -0.383300 0.237546
v -0.242503 -0.373382 0.237546
v -0.242503 -0.383300 0.237546
v 0.246773 -0.373382 0.237546
v 0.246773 -0.383797 0.238472
v -0.242503 -0.333711 0.228455
v -0.242503 -0.372885 0.238472
v -0.242503 -0.383797 0.238472
v 0.246773 -0.393218 0.237546
v 0.246773 -0.403136 0.228455
v -0.242503 -0.363464 0.237546
v -0.242503 -0.393218 0.237546
v 0.246773 -0.372885 0.238472
v -0.242503 -0.392720 0.238472
v 0.246773 -0.384466 0.239284
v 0.246773 -0.392720 0.238472
v 0.246773 -0.363464 0.237546
v -0.242503 -0.353547 0.237546
v -0.242503 -0.403136 0.237546
v 0.246773 -0.363962 0.238472
v -0.242503 -0.372217 0.239284
v -0.242503 -0.363962 0.238472
v -0.242503 -0.392052 0.239284
v -0.242503 -0.384466 0.239284
v 0.246773 -0.403136 0.237546
v 0.246773 -0.353547 0.237546
v -0.242503 -0.343629 0.237546
v -0.242503 -0.362967 0.238472
v -0.242503 -0.403136 0.228455
v -0.242503 -0.402638 0.238472
v 0.246773 -0.364630 0.239284
v 0.246773 -0.372217 0.239284
v -0.242503 -0.385279 0.239950
v 0.246773 -0.392052 0.239284
v 0.246773 -0.393715 0.238472
v 0.246773 -0.343629 0.237546
v 0.246773 -0.354044 0.238472
v -0.242503 -0.333711 0.237546
v -0.242503 -0.353049 0.238472
v -0.242503 -0.354044 0.238472
v -0.242503 -0.393715 0.238472
v 0.246773 -0.371403 0.239950
v -0.242503 -0.364630 0.239284
v -0.242503 -0.391239 0.239950
v 0.246773 -0.385279 0.239950
v 0.246773 -0.402638 0.238472
v 0.246773 -0.333711 0.237546
v 0.246773 -0.344126 0.238472
v 0.246773 -0.362967 0.238472
v -0.242503 -0.343132 0.238472
v -0.242503 -0.344126 0.238472
v -0.242503 -0.362299 0.239284
v 0.246773 -0.333711 0.228455
v -0.242503 -0.401970 0.239284
v 0.246773 -0.365443 0.239950
v -0.242503 -0.371403 0.239950
v 0.246773 -0.391239 0.239950
v -0.242503 -0.386207 0.240444
v -0.242503 -0.390311 0.240444
v 0.246773 -0.394383 0.239284
v 0.246773 -0.334209 0.238472
v 0.246773 -0.353049 0.238472
v 0.246773 -0.354712 0.239284
v -0.242503 -0.334209 0.238472
v -0.242503 -0.352381 0.239284
v -0.242503 -0.354712 0.239284
v -0.242503 -0.394383 0.239284
v -0.242503 -0.365443 0.239950
v 0.246773 -0.370476 0.240444
v 0.246773 -0.366371 0.240444
v 0.246773 -0.390311 0.240444
v 0.246773 -0.386207 0.240444
v 0.246773 -0.401970 0.239284
v 0.246773 -0.343132 0.238472
v 0.246773 -0.344795 0.239284
v 0.246773 -0.362299 0.239284
v -0.242503 -0.342463 0.239284
v -0.242503 -0.344795 0.239284
v -0.242503 -0.361486 0.239950
v -0.242503 -0.401157 0.239950
v -0.242503 -0.366371 0.240444
v -0.242503 -0.370476 0.240444
v -0.242503 -0.387213 0.240749
v -0.242503 -0.389305 0.240749
v 0.246773 -0.389305 0.240749
v 0.246773 -0.395197 0.239950
v 0.246773 -0.334877 0.239284
v 0.246773 -0.352381 0.239284
v 0.246773 -0.355526 0.239950
v -0.242503 -0.334877 0.239284
v -0.242503 -0.351568 0.239950
v -0.242503 -0.355526 0.239950
v 0.246773 -0.361486 0.239950
v -0.242503 -0.395197 0.239950
v 0.246773 -0.401157 0.239950
v 0.246773 -0.369470 0.240749
v 0.246773 -0.367377 0.240749
v -0.242503 -0.367377 0.240749
v 0.246773 -0.387213 0.240749
v 0.246773 -0.342463 0.239284
v 0.246773 -0.345608 0.239950
v -0.242503 -0.341650 0.239950
v -0.242503 -0.345608 0.239950
v 0.246773 -0.351568 0.239950
v -0.242503 -0.360558 0.240444
v 0.246773 -0.360558 0.240444
v -0.242503 -0.400229 0.240444
v 0.246773 -0.400229 0.240444
v -0.242503 -0.369470 0.240749
v -0.242503 -0.388259 0.240852
v 0.246773 -0.388259 0.240852
v 0.246773 -0.396124 0.240444
v -0.242503 -0.396124 0.240444
v 0.246773 -0.335690 0.239950
v 0.246773 -0.356453 0.240444
v -0.242503 -0.356453 0.240444
v -0.242503 -0.335690 0.239950
v 0.246773 -0.341650 0.239950
v -0.242503 -0.350640 0.240444
v 0.246773 -0.350640 0.240444
v 0.246773 -0.368423 0.240852
v -0.242503 -0.368423 0.240852
v 0.246773 -0.346536 0.240444
v -0.242503 -0.346536 0.240444
v -0.242503 -0.340722 0.240444
v 0.246773 -0.340722 0.240444
v -0.242503 -0.359552 0.240749
v 0.246773 -0.359552 0.240749
v 0.246773 -0.357459 0.240749
v -0.242503 -0.399223 0.240749
v 0.246773 -0.399223 0.240749
v 0.246773 -0.397130 0.240749
v -0.242503 -0.397130 0.240749
v 0.246773 -0.336618 0.240444
v -0.242503 -0.336618 0.240444
v -0.242503 -0.357459 0.240749
v -0.242503 -0.349634 0.240749
v 0.246773 -0.349634 0.240749
v 0.246773 -0.347542 0.240749
v -0.242503 -0.347542 0.240749
v -0.242503 -0.339716 0.240749
v 0.246773 -0.339716 0.240749
v 0.246773 -0.337624 0.240749
v -0.242503 -0.358506 0.240852
v 0.246773 -0.358506 0.240852
v -0.242503 -0.398177 0.240852
v 0.246773 -0.398177 0.240852
v -0.242503 -0.337624 0.240749
v -0.242503 -0.348588 0.240852
v 0.246773 -0.348588 0.240852
v -0.242503 -0.338670 0.240852
v 0.246773 -0.338670 0.240852
vt 0.32371 0.01486
vt 0 0.014164
vt 0.32371 0.014164
vt 0 0.01486
vt 0 0.012196
vt 0.32371 0.012892
vt 0 0.012892
vt 0.000615 0.017096
vt 0.000615 0.015712
vt 0.000816 0.015046
vt 0.32371 0.016272
vt 0 0.015576
vt 0.32371 0.015576
vt -0.000615 0.015712
vt -0.000816 0.017762
vt -0.000816 0.015046
vt 0.32371 0.012196
vt -0.001144 0.018376
vt -0.001144 0.014433
vt 0.000547 0.016404
vt 0.000816 0.017762
vt 0 0.016272
vt -0.000615 0.017096
vt 0 0.009748
vt 0.32371 0.010443
vt 0 0.010443
vt 0.001144 0.014433
vt -0.001584 0.018914
vt 0.32371 0.017075
vt 0 0.016379
vt 0.32371 0.016379
vt 0.32371 0.017237
vt 0 0.016541
vt 0.32371 0.016541
vt -0.000547 0.016404
vt 0 0.017237
vt 0 0.016056
vt 0.32371 0.016752
vt 0 0.016752
vt 0.32371 0.009748
vt -0.001584 0.013894
vt 0.001144 0.018376
vt 0 0.014943
vt 0.32371 0.015639
vt 0 0.015639
vt 0 0.017075
vt 0.32371 0.016056
vt 0.32371 0.014943
vt 0 0.007608
vt 0.32371 0.006913
vt 0.32371 0.007608
vt 0.001584 0.013894
vt -0.002121 0.019356
vt 0.32371 0.013245
vt 0 0.01394
vt 0 0.013245
vt 0.001584 0.018914
vt 0 0.006913
vt 0.002121 0.013452
vt -0.002121 0.013452
vt 0.32371 0.01394
vt 0 0.004495
vt 0.32371 0.0038
vt 0.32371 0.004495
vt 0.002121 0.019356
vt -0.002734 0.019685
vt 0.32371 0.011026
vt 0 0.011721
vt 0 0.011026
vt 0 0.0038
vt 0.002734 0.013123
vt -0.002734 0.013123
vt 0.32371 0.011721
vt 0 0.008617
vt 0.32371 0.007922
vt 0.32371 0.008617
vt 0.002734 0.019685
vt -0.008749 0.045932
vt 0.32371 0.006904
vt 0 0.0076
vt 0 0.006904
vt 0 0.007922
vt 0.002121 0.012794
vt 0.002734 0.006562
vt 0.008749 0
vt -0.002734 0.026247
vt -0.002734 0.006562
vt 0.32371 0.0076
vt -0.002121 0.020014
vt -0.002121 0.006891
vt -0.002121 0.012794
vt 0 0.00977
vt 0.32371 0.009074
vt 0.32371 0.00977
vt 0.002121 0.006891
vt 0.002734 0.026247
vt -0.002734 0.032808
vt -0.002734 0
vt 0.002121 0.025918
vt 0.002121 0.020014
vt 0.32371 0.011083
vt 0 0.011779
vt 0 0.011083
vt -0.002121 0.025918
vt -0.001584 0.007333
vt 0 0.009074
vt 0.001584 0.012352
vt 0 0.001391
vt 0.32371 0.000696
vt 0.32371 0.001391
vt 0.002734 0
vt 0.002734 0.032808
vt -0.002734 0.03937
vt -0.002121 0.026576
vt -0.008749 0
vt -0.002121 0.000329
vt 0 0.000696
vt 0.001584 0.025476
vt 0.32371 0.011779
vt -0.001584 0.020456
vt 0.32371 0.01413
vt 0 0.014826
vt 0 0.01413
vt -0.001584 0.012352
vt 0.32371 0.002742
vt 0 0.003438
vt 0 0.002742
vt 0 0.009866
vt 0.32371 0.010562
vt 0 0.010562
vt 0.001584 0.007333
vt 0.002121 0.006233
vt 0 0.002734
vt -0.32371 0.008749
vt -0.32371 0.002734
vt 0.002734 0.03937
vt 0.002121 0.032479
vt 0.32371 0.014826
vt -0.002734 0.045932
vt -0.002121 0.033137
vt -0.002121 0.032479
vt 0.32371 0.010008
vt 0 0.010704
vt 0 0.010008
vt 0 0.045932
vt -0.32371 0
vt 0 0
vt 0 0.008749
vt -0.002121 0.006233
vt 0.32371 -0.002409
vt 0 -0.001713
vt 0 -0.002409
vt 0 0.005513
vt 0.32371 0.004817
vt 0.32371 0.005513
vt 0.001584 0.020456
vt 0 0.018111
vt 0.32371 0.017416
vt 0.32371 0.018111
vt 0.32371 0.015521
vt 0 0.014825
vt 0.32371 0.014825
vt -0.001584 0.025476
vt -0.001144 0.007871
vt 0.32371 0.003438
vt 0.32371 0.009866
vt -0.001144 0.011814
vt 0.001144 0.011814
vt 0.002121 0.000329
vt 0.002734 0.045932
vt 0.002121 0.039041
vt 0.002121 0.026576
vt 0 0.01793
vt 0.32371 0.017234
vt 0.32371 0.01793
vt -0.002121 0.039699
vt 0.32371 0.002734
vt -0.002121 0.039041
vt 0.32371 0.013113
vt 0 0.013808
vt 0 0.013113
vt -0.001584 0.027018
vt 0 0.017234
vt 0.32371 0.010704
vt -0.32371 0.045932
vt -0.001584 0.000771
vt 0 0.004817
vt 0.32371 -0.001713
vt 0.001144 0.024937
vt 0 0.017416
vt 0 0.015521
vt 0.001144 0.020994
vt -0.001144 0.020994
vt 0 0.00467
vt 0.32371 0.005366
vt 0 0.005366
vt 0.32371 0.00467
vt 0 0.010267
vt 0.32371 0.010962
vt 0 0.010962
vt -0.000816 0.008485
vt 0.001144 0.007871
vt 0.001584 0.005791
vt 0.008749 0.045932
vt 0.002121 0.045603
vt 0.002121 0.033137
vt 0 0.021034
vt 0.32371 0.020339
vt 0.32371 0.021034
vt 0.001584 0.032037
vt -0.002121 0.045603
vt 0.32371 0.016217
vt 0 0.016912
vt 0 0.016217
vt 0.32371 0.008749
vt 0 0.024138
vt 0.32371 0.023443
vt 0.32371 0.024138
vt -0.001584 0.03358
vt 0 0.020339
vt 0.32371 0.013808
vt -0.001584 0.032037
vt 0.32371 0.015254
vt 0 0.01595
vt 0 0.015254
vt 0 0.022282
vt 0.32371 0.021586
vt 0.32371 0.022282
vt -0.001584 0.005791
vt 0.32371 -0.001429
vt 0 -0.000733
vt 0 -0.001429
vt 0 0.005599
vt 0.32371 0.004904
vt 0.32371 0.005599
vt 0.32371 0.020716
vt 0 0.020021
vt 0.32371 0.020021
vt 0 0.020716
vt 0.32371 0.018681
vt 0 0.017986
vt 0.32371 0.017986
vt 0.000816 0.024324
vt -0.001144 0.024937
vt 0.32371 0.007102
vt 0 0.006407
vt 0.32371 0.006407
vt 0.32371 0.010267
vt -0.000816 0.0112
vt 0 0.007102
vt 0.000816 0.0112
vt 0.001584 0.000771
vt 0.002121 0.039699
vt 0.001584 0.038599
vt 0.001584 0.027018
vt -0.001584 0.040141
vt 0 0.023443
vt 0.32371 0.016912
vt -0.001584 0.038599
vt 0.32371 0.019425
vt 0 0.02012
vt 0 0.019425
vt 0 0.026452
vt 0.32371 0.025757
vt 0.32371 0.026452
vt -0.001144 0.027556
vt 0 0.021586
vt 0.32371 0.01595
vt -0.001144 0.001309
vt 0 0.004904
vt 0.32371 -0.000733
vt 0 0.021846
vt 0.32371 0.022541
vt 0 0.022541
vt 0 0.018681
vt 0.000816 0.021608
vt 0.32371 0.021846
vt -0.000816 0.021608
vt 0.000816 0.008485
vt 0 0.010261
vt 0.32371 0.010956
vt 0 0.010956
vt -0.000615 0.00915
vt 0.32371 0.00858
vt 0 0.007884
vt 0.32371 0.007884
vt 0.001144 0.005252
vt 0.001584 0.045161
vt 0.001584 0.03358
vt 0.001144 0.031499
vt -0.001584 0.045161
vt 0.32371 0.023595
vt 0 0.024291
vt 0 0.023595
vt 0 0.030623
vt 0.32371 0.029927
vt 0.32371 0.030623
vt -0.001144 0.034118
vt 0 0.025757
vt 0.32371 0.02012
vt -0.001144 0.031499
vt 0 0.019902
vt 0.32371 0.020598
vt 0 0.020598
vt 0 0.025098
vt 0.32371 0.025794
vt 0 0.025794
vt 0.32371 0.019902
vt -0.001144 0.005252
vt 0 -0.000407
vt 0.32371 0.000289
vt 0 0.000289
vt 0 0.004789
vt 0.32371 0.005484
vt 0 0.005484
vt 0.32371 -0.000407
vt -0.000816 0.024324
vt 0.32371 0.02114
vt 0 0.020444
vt 0.32371 0.020444
vt 0.000615 0.023658
vt 0 0.022821
vt 0.32371 0.023517
vt 0 0.023517
vt 0.000615 0.010535
vt 0.32371 0.010261
vt -0.000615 0.010535
vt 0 0.00858
vt 0.000615 0.00915
vt 0.001144 0.001309
vt 0.32371 0.004789
vt 0.001584 0.040141
vt 0.001144 0.038061
vt 0.001144 0.027556
vt 0.32371 0.025098
vt -0.001144 0.040679
vt 0 0.029927
vt 0.32371 0.024291
vt -0.001144 0.038061
vt 0 0.02498
vt 0.32371 0.025675
vt 0 0.025675
vt 0 0.030175
vt 0.32371 0.030871
vt 0 0.030871
vt 0.32371 0.02498
vt -0.000816 0.02817
vt 0.32371 0.024471
vt 0 0.023775
vt 0.32371 0.023775
vt -0.000816 0.001923
vt 0.32371 0.001312
vt 0 0.000617
vt 0.32371 0.000617
vt -0.000615 0.022274
vt 0 0.02114
vt 0.000615 0.022274
vt 0.32371 0.022821
vt -0.000615 0.023658
vt 0 0.009849
vt 0.32371 0.010544
vt 0 0.010544
vt -0.000547 0.009843
vt 0.32371 0.009742
vt 0 0.009046
vt 0.32371 0.009046
vt 0.000547 0.009843
vt 0.000816 0.004639
vt 0 0.004477
vt 0.32371 0.005173
vt 0 0.005173
vt 0.001144 0.044622
vt 0.001144 0.034118
vt 0.32371 0.030175
vt 0.000816 0.030885
vt 0 0.027635
vt 0.32371 0.028331
vt 0 0.028331
vt -0.001144 0.044622
vt 0 0.030057
vt 0.32371 0.030753
vt 0 0.030753
vt 0 0.035253
vt 0.32371 0.035948
vt 0 0.035948
vt 0.32371 0.030057
vt -0.000816 0.034731
vt 0.32371 0.03026
vt 0 0.029565
vt 0.32371 0.029565
vt -0.000816 0.030885
vt 0 0.024471
vt 0.000816 0.02817
vt -0.000816 0.004639
vt 0 0.001312
vt 0.000816 0.001923
vt 0.32371 0.022802
vt 0 0.022107
vt 0.32371 0.022107
vt 0.000547 0.022966
vt 0 0.022909
vt 0.32371 0.023605
vt 0 0.023605
vt -0.000547 0.022966
vt 0.32371 0.009849
vt 0 0.009742
vt 0.32371 0.004477
vt 0.001144 0.040679
vt 0.32371 0.035253
vt 0.000816 0.037447
vt 0 0.033425
vt 0.32371 0.034121
vt 0 0.034121
vt 0.32371 0.027635
vt -0.000816 0.041293
vt 0.32371 0.03605
vt 0 0.035354
vt 0.32371 0.035354
vt -0.000816 0.037447
vt 0 0.03026
vt 0.000816 0.034731
vt -0.000615 0.028835
vt 0.32371 0.02742
vt 0 0.026724
vt 0.32371 0.026724
vt 0.000615 0.03022
vt -0.000615 0.002589
vt 0.32371 0.002299
vt 0 0.001604
vt 0.32371 0.001604
vt 0.000615 0.003973
vt 0 0.022802
vt 0.32371 0.022909
vt 0 0.003981
vt 0.32371 0.004676
vt 0 0.004676
vt 0.000816 0.044009
vt 0 0.039215
vt 0.32371 0.03991
vt 0 0.03991
vt 0.32371 0.033425
vt 0 0.029101
vt 0.32371 0.029797
vt 0 0.029797
vt -0.000816 0.044009
vt 0 0.03605
vt 0.000816 0.041293
vt -0.000615 0.035397
vt 0.32371 0.0337
vt 0 0.033005
vt 0.32371 0.033005
vt 0.000615 0.036781
vt -0.000615 0.03022
vt 0 0.02742
vt 0.000615 0.028835
vt 0.32371 0.029101
vt -0.000615 0.003973
vt 0 0.002299
vt 0.000615 0.002589
vt 0.32371 0.003981
vt 0.32371 0.039215
vt 0 0.035381
vt 0.32371 0.036077
vt 0 0.036077
vt -0.000615 0.041959
vt 0.32371 0.03998
vt 0 0.039285
vt 0.32371 0.039285
vt 0.000615 0.043343
vt -0.000615 0.036781
vt 0 0.0337
vt 0.000615 0.035397
vt 0.32371 0.035381
vt -0.000547 0.029528
vt 0.32371 0.029332
vt 0 0.028637
vt 0.32371 0.028637
vt 0.000547 0.029528
vt 0 0.029439
vt 0.32371 0.030135
vt 0 0.030135
vt -0.000547 0.003281
vt 0.32371 0.003212
vt 0 0.002516
vt 0.32371 0.002516
vt 0.000547 0.003281
vt 0 0.003319
vt 0.32371 0.004014
vt 0 0.004014
vt 0 0.041662
vt 0.32371 0.042357
vt 0 0.042357
vt -0.000615 0.043343
vt 0 0.03998
vt 0.000615 0.041959
vt 0.32371 0.041662
vt -0.000547 0.036089
vt 0.32371 0.035863
vt 0 0.035167
vt 0.32371 0.035167
vt 0.000547 0.036089
vt 0 0.03597
vt 0.32371 0.036665
vt 0 0.036665
vt 0 0.029332
vt 0.32371 0.029439
vt 0 0.003212
vt 0.32371 0.003319
vt -0.000547 0.042651
vt 0.32371 0.042393
vt 0 0.041697
vt 0.32371 0.041697
vt 0.000547 0.042651
vt 0 0.0425
vt 0.32371 0.043195
vt 0 0.043195
vt 0 0.035863
vt 0.32371 0.03597
vt 0 0.042393
vt 0.32371 0.0425
vn 0 -0.19474805928979003 0.9808532986144567
vn 0 -0.3820390712814298 0.924146172428595
vn 0 0.3820390712814298 -0.924146172428595
vn 0 0.19474805928979003 -0.9808532986144567
vn 0 -0.5547001962252294 0.8320502943378435
vn 0 0.5547001962252294 -0.8320502943378435
vn 1 0 0
vn -1 0 0
vn 0 0 1
vn 0 0 -1
vn 0 -0.7061200936089349 0.7080920938703589
vn 0 0.7061200936089349 -0.7080920938703589
vn 0 0.1947480592897896 0.9808532986144567
vn 0 -0.1947480592897896 -0.9808532986144567
vn 0 0.3820390712814295 0.9241461724285953
vn 0 -0.3820390712814295 -0.9241461724285953
vn 0 0.5547001962252288 0.8320502943378436
vn 0 -0.5547001962252288 -0.8320502943378436
vn 0 0.7061200936089346 0.7080920938703592
vn 0 -0.7061200936089346 -0.7080920938703592
vn 0 -0.8304998271061488 0.5570188840395421
vn 0 0.8304998271061488 -0.5570188840395421
vn 0 0.8304998271061484 0.5570188840395425
vn 0 -0.8304998271061484 -0.5570188840395425
vn 0 -0.8810157789421562 0.4730868812966026
vn 0 0.8810157789421562 -0.4730868812966026
vn 0 0.881015778942156 0.47308688129660303
vn 0 -0.881015778942156 -0.47308688129660303
vn 0 -1 0
vn 0 1 0
usemtl material_0_0
f 1/1/1 2/2/2 3/3/2
f 2/2/2 1/1/1 4/4/1
f 3/3/3 2/2/3 1/1/4
f 4/4/4 1/1/4 2/2/3
f 5/5/5 3/6/2 2/7/2
f 2/7/3 3/6/3 5/5/6
f 6/8/7 1/9/7 3/10/7
f 3/10/8 1/9/8 6/8/8
f 7/11/9 4/12/1 1/13/1
f 1/13/4 4/12/4 7/11/10
f 4/14/8 8/15/8 2/16/8
f 2/16/7 8/15/7 4/14/7
f 3/6/2 5/5/5 9/17/5
f 9/17/6 5/5/6 3/6/3
f 2/16/8 10/18/8 5/19/8
f 5/19/7 10/18/7 2/16/7
f 1/9/7 6/8/7 7/20/7
f 7/20/8 6/8/8 1/9/8
f 6/8/7 3/10/7 11/21/7
f 11/21/8 3/10/8 6/8/8
f 4/12/1 7/11/9 12/22/9
f 12/22/10 7/11/10 4/12/4
f 4/14/8 13/23/8 8/15/8
f 8/15/7 13/23/7 4/14/7
f 2/16/8 8/15/8 10/18/8
f 10/18/7 8/15/7 2/16/7
f 14/24/11 9/25/5 5/26/5
f 5/26/6 9/25/6 14/24/12
f 11/21/7 3/10/7 9/27/7
f 9/27/8 3/10/8 11/21/8
f 5/19/8 10/18/8 15/28/8
f 15/28/7 10/18/7 5/19/7
f 6/29/13 12/30/9 7/31/9
f 7/31/10 12/30/10 6/29/14
f 11/32/15 13/33/13 6/34/13
f 6/34/14 13/33/14 11/32/16
f 13/23/8 4/14/8 12/35/8
f 12/35/7 4/14/7 13/23/7
f 13/33/13 11/32/15 8/36/15
f 8/36/16 11/32/16 13/33/14
f 8/37/15 16/38/17 10/39/17
f 10/39/18 16/38/18 8/37/16
f 9/25/5 14/24/11 17/40/11
f 17/40/12 14/24/12 9/25/6
f 5/19/8 15/28/8 14/41/8
f 14/41/7 15/28/7 5/19/7
f 11/21/7 9/27/7 16/42/7
f 16/42/8 9/27/8 11/21/8
f 10/43/17 18/44/19 15/45/19
f 15/45/20 18/44/20 10/43/18
f 12/30/9 6/29/13 13/46/13
f 13/46/14 6/29/14 12/30/10
f 16/38/17 8/37/15 11/47/15
f 11/47/16 8/37/16 16/38/18
f 18/44/19 10/43/17 16/48/17
f 16/48/18 10/43/18 18/44/20
f 14/49/11 19/50/21 17/51/11
f 17/51/12 19/50/22 14/49/12
f 16/42/7 9/27/7 17/52/7
f 17/52/8 9/27/8 16/42/8
f 14/41/8 15/28/8 20/53/8
f 20/53/7 15/28/7 14/41/7
f 18/54/19 20/55/23 15/56/19
f 15/56/20 20/55/24 18/54/20
f 16/42/7 17/52/7 18/57/7
f 18/57/8 17/52/8 16/42/8
f 19/50/21 14/49/11 21/58/21
f 21/58/22 14/49/12 19/50/22
f 18/57/7 17/52/7 19/59/7
f 19/59/8 17/52/8 18/57/8
f 14/41/8 20/53/8 21/60/8
f 21/60/7 20/53/7 14/41/7
f 20/55/23 18/54/19 22/61/23
f 22/61/24 18/54/20 20/55/24
f 21/62/21 23/63/25 19/64/21
f 19/64/22 23/63/26 21/62/22
f 18/57/7 19/59/7 22/65/7
f 22/65/8 19/59/8 18/57/8
f 21/60/8 20/53/8 24/66/8
f 24/66/7 20/53/7 21/60/7
f 22/67/23 24/68/27 20/69/23
f 20/69/24 24/68/28 22/67/24
f 23/63/25 21/62/21 25/70/25
f 25/70/26 21/62/22 23/63/26
f 22/65/7 19/59/7 23/71/7
f 23/71/8 19/59/8 22/65/8
f 21/60/8 24/66/8 25/72/8
f 25/72/7 24/66/7 21/60/7
f 24/68/27 22/67/23 26/73/27
f 26/73/28 22/67/24 24/68/28
f 25/74/27 27/75/23 23/76/27
f 23/76/28 27/75/24 25/74/28
f 22/65/7 23/71/7 26/77/7
f 26/77/8 23/71/8 22/65/8
f 24/66/8 28/78/8 25/72/8
f 25/72/7 28/78/7 24/66/7
f 26/79/25 29/80/21 24/81/25
f 24/81/26 29/80/22 26/79/26
f 27/75/23 25/74/27 30/82/23
f 30/82/24 25/74/28 27/75/24
f 27/83/7 31/84/7 23/71/7
f 23/71/8 31/84/8 27/83/8
f 23/71/7 32/85/7 26/77/7
f 26/77/8 32/85/8 23/71/8
f 33/86/8 28/78/8 24/66/8
f 24/66/7 28/78/7 33/86/7
f 25/72/8 28/78/8 34/87/8
f 34/87/7 28/78/7 25/72/7
f 29/80/21 26/79/25 35/88/21
f 35/88/22 26/79/26 29/80/22
f 29/89/8 33/86/8 24/66/8
f 24/66/7 33/86/7 29/89/7
f 36/90/8 30/91/8 25/72/8
f 25/72/7 30/91/7 36/90/7
f 30/92/23 37/93/19 27/94/23
f 27/94/24 37/93/20 30/92/24
f 27/83/7 38/95/7 31/84/7
f 31/84/8 38/95/8 27/83/8
f 31/84/7 32/85/7 23/71/7
f 23/71/8 32/85/8 31/84/8
f 26/77/7 32/85/7 39/96/7
f 39/96/8 32/85/8 26/77/8
f 40/97/8 28/78/8 33/86/8
f 33/86/7 28/78/7 40/97/7
f 34/87/8 28/78/8 41/98/8
f 41/98/7 28/78/7 34/87/7
f 36/90/8 25/72/8 34/87/8
f 34/87/7 25/72/7 36/90/7
f 42/99/7 35/100/7 26/77/7
f 26/77/8 35/100/8 42/99/8
f 35/101/21 43/102/11 29/103/21
f 29/103/22 43/102/12 35/101/22
f 29/89/8 44/104/8 33/86/8
f 33/86/7 44/104/7 29/89/7
f 45/105/8 30/91/8 36/90/8
f 36/90/7 30/91/7 45/105/7
f 37/93/19 30/92/23 46/106/19
f 46/106/20 30/92/24 37/93/20
f 37/107/7 38/95/7 27/83/7
f 27/83/8 38/95/8 37/107/8
f 36/108/21 31/109/25 38/110/21
f 38/110/22 31/109/26 36/108/22
f 31/84/7 47/111/7 32/85/7
f 32/85/8 47/111/8 31/84/8
f 39/96/7 32/85/7 48/112/7
f 48/112/8 32/85/8 39/96/8
f 42/99/7 26/77/7 39/96/7
f 39/96/8 26/77/8 42/99/8
f 49/113/8 28/78/8 40/97/8
f 40/97/7 28/78/7 49/113/7
f 50/114/8 40/97/8 33/86/8
f 33/86/7 40/97/7 50/114/7
f 41/98/8 28/78/8 51/115/8
f 51/115/7 28/78/7 41/98/7
f 52/116/8 34/87/8 41/98/8
f 41/98/7 34/87/7 52/116/7
f 31/109/25 36/108/21 34/117/25
f 34/117/26 36/108/22 31/109/26
f 53/118/7 35/100/7 42/99/7
f 42/99/8 35/100/8 53/118/8
f 43/102/11 35/101/21 54/119/11
f 54/119/12 35/101/22 43/102/12
f 43/120/8 44/104/8 29/89/8
f 29/89/7 44/104/7 43/120/7
f 42/121/23 33/122/27 44/123/23
f 44/123/24 33/122/28 42/121/24
f 45/105/8 46/124/8 30/91/8
f 30/91/7 46/124/7 45/105/7
f 38/125/21 45/126/11 36/127/21
f 36/127/22 45/126/12 38/125/22
f 55/128/17 37/129/19 46/130/19
f 46/130/20 37/129/20 55/128/18
f 37/107/7 56/131/7 38/95/7
f 38/95/8 56/131/8 37/107/8
f 57/132/7 47/111/7 31/84/7
f 31/84/8 47/111/8 57/132/8
f 41/133/29 32/134/29 47/135/29
f 47/135/30 32/134/30 41/133/30
f 48/112/7 32/85/7 58/136/7
f 58/136/8 32/85/8 48/112/8
f 59/137/7 39/96/7 48/112/7
f 48/112/8 39/96/8 59/137/8
f 33/122/27 42/121/23 39/138/27
f 39/138/28 42/121/24 33/122/28
f 49/113/8 60/139/8 28/78/8
f 28/78/7 60/139/7 49/113/7
f 61/140/8 49/113/8 40/97/8
f 40/97/7 49/113/7 61/140/7
f 50/114/8 62/141/8 40/97/8
f 40/97/7 62/141/7 50/114/7
f 39/142/25 50/143/21 33/144/25
f 33/144/26 50/143/22 39/142/26
f 28/145/10 32/146/10 51/147/10
f 51/147/9 32/146/9 28/145/9
f 32/134/29 41/133/29 51/148/29
f 51/148/30 41/133/30 32/134/30
f 52/116/8 63/149/8 34/87/8
f 34/87/7 63/149/7 52/116/7
f 47/150/25 52/151/21 41/152/25
f 41/152/26 52/151/22 47/150/26
f 34/153/27 57/154/23 31/155/27
f 31/155/28 57/154/24 34/153/28
f 53/118/7 54/156/7 35/100/7
f 35/100/8 54/156/8 53/118/8
f 44/157/23 53/158/19 42/159/23
f 42/159/24 53/158/20 44/157/24
f 64/160/5 43/161/11 54/162/11
f 54/162/12 43/161/12 64/160/6
f 43/120/8 65/163/8 44/104/8
f 44/104/7 65/163/7 43/120/7
f 66/164/8 46/124/8 45/105/8
f 45/105/7 46/124/7 66/164/7
f 45/126/11 38/125/21 56/165/11
f 56/165/12 38/125/22 45/126/12
f 37/129/19 55/128/17 67/166/17
f 67/166/18 55/128/18 37/129/20
f 66/164/8 55/167/8 46/124/8
f 46/124/7 55/167/7 66/164/7
f 67/168/7 56/131/7 37/107/7
f 37/107/8 56/131/8 67/168/8
f 57/132/7 68/169/7 47/111/7
f 47/111/8 68/169/8 57/132/8
f 58/136/7 32/85/7 69/170/7
f 69/170/8 32/85/8 58/136/8
f 70/171/7 48/112/7 58/136/7
f 58/136/8 48/112/8 70/171/8
f 59/137/7 71/172/7 39/96/7
f 39/96/8 71/172/8 59/137/8
f 40/173/27 59/174/23 48/175/27
f 48/175/28 59/174/24 40/173/28
f 72/176/8 60/139/8 49/113/8
f 49/113/7 60/139/7 72/176/7
f 69/177/30 28/148/30 60/133/30
f 60/133/29 28/148/29 69/177/29
f 61/140/8 73/178/8 49/113/8
f 49/113/7 73/178/7 61/140/7
f 48/179/25 61/180/21 40/181/25
f 40/181/26 61/180/22 48/179/26
f 74/182/8 62/141/8 50/114/8
f 50/114/7 62/141/7 74/182/7
f 59/174/23 40/173/27 62/183/23
f 62/183/24 40/173/28 59/174/24
f 50/143/21 39/142/25 71/184/21
f 71/184/22 39/142/26 50/143/22
f 32/146/10 28/145/10 75/185/10
f 75/185/9 28/145/9 32/146/9
f 76/186/8 63/149/8 52/116/8
f 52/116/7 63/149/7 76/186/7
f 57/154/23 34/153/27 63/187/23
f 63/187/24 34/153/28 57/154/24
f 52/151/21 47/150/25 68/188/21
f 68/188/22 47/150/26 52/151/22
f 77/189/7 54/156/7 53/118/7
f 53/118/8 54/156/8 77/189/8
f 53/158/19 44/157/23 65/190/19
f 65/190/20 44/157/24 53/158/20
f 43/161/11 64/160/5 78/191/5
f 78/191/6 64/160/6 43/161/12
f 77/189/7 64/192/7 54/156/7
f 54/156/8 64/192/8 77/189/8
f 78/193/8 65/163/8 43/120/8
f 43/120/7 65/163/7 78/193/7
f 45/194/11 79/195/5 66/196/5
f 66/196/6 79/195/6 45/194/12
f 79/195/5 45/194/11 56/197/11
f 56/197/12 45/194/12 79/195/6
f 80/198/15 67/199/17 55/200/17
f 55/200/18 67/199/18 80/198/16
f 81/201/8 55/167/8 66/164/8
f 66/164/7 55/167/7 81/201/7
f 67/168/7 79/202/7 56/131/7
f 56/131/8 79/202/8 67/168/8
f 82/203/7 68/169/7 57/132/7
f 57/132/8 68/169/8 82/203/8
f 69/170/7 32/85/7 75/204/7
f 75/204/8 32/85/8 69/170/8
f 83/205/7 58/136/7 69/170/7
f 69/170/8 58/136/8 83/205/8
f 70/171/7 84/206/7 48/112/7
f 48/112/8 84/206/8 70/171/8
f 49/207/27 70/208/23 58/209/27
f 58/209/28 70/208/24 49/207/28
f 85/210/7 71/172/7 59/137/7
f 59/137/8 71/172/8 85/210/8
f 72/176/8 86/211/8 60/139/8
f 60/139/7 86/211/7 72/176/7
f 58/212/25 72/213/21 49/214/25
f 49/214/26 72/213/22 58/212/26
f 28/148/30 69/177/30 75/215/30
f 75/215/29 69/177/29 28/148/29
f 60/216/27 83/217/23 69/218/27
f 69/218/28 83/217/24 60/216/28
f 87/219/8 73/178/8 61/140/8
f 61/140/7 73/178/7 87/219/7
f 70/208/23 49/207/27 73/220/23
f 73/220/24 49/207/28 70/208/24
f 61/180/21 48/179/25 84/221/21
f 84/221/22 48/179/26 61/180/22
f 74/182/8 88/222/8 62/141/8
f 62/141/7 88/222/7 74/182/7
f 71/223/21 74/224/11 50/225/21
f 50/225/22 74/224/12 71/223/22
f 62/226/23 85/227/19 59/228/23
f 59/228/24 85/227/20 62/226/24
f 76/186/8 89/229/8 63/149/8
f 63/149/7 89/229/7 76/186/7
f 68/230/21 76/231/11 52/232/21
f 52/232/22 76/231/12 68/230/22
f 63/233/23 82/234/19 57/235/23
f 57/235/24 82/234/20 63/233/24
f 53/236/19 90/237/17 77/238/17
f 77/238/18 90/237/18 53/236/20
f 90/237/17 53/236/19 65/239/19
f 65/239/20 53/236/20 90/237/18
f 91/240/2 78/241/5 64/242/5
f 64/242/6 78/241/6 91/240/3
f 92/243/7 64/192/7 77/189/7
f 77/189/8 64/192/8 92/243/8
f 78/193/8 90/244/8 65/163/8
f 65/163/7 90/244/7 78/193/7
f 93/245/2 66/246/5 79/247/5
f 79/247/6 66/246/6 93/245/3
f 67/199/17 80/198/15 94/248/15
f 94/248/16 80/198/16 67/199/18
f 81/201/8 80/249/8 55/167/8
f 55/167/7 80/249/7 81/201/7
f 66/246/5 93/245/2 81/250/2
f 81/250/3 93/245/3 66/246/6
f 94/251/7 79/202/7 67/168/7
f 67/168/8 79/202/8 94/251/8
f 82/203/7 95/252/7 68/169/7
f 68/169/8 95/252/8 82/203/8
f 83/205/7 96/253/7 58/136/7
f 58/136/8 96/253/8 83/205/8
f 97/254/7 84/206/7 70/171/7
f 70/171/8 84/206/8 97/254/8
f 85/210/7 98/255/7 71/172/7
f 71/172/8 98/255/8 85/210/8
f 99/256/8 86/211/8 72/176/8
f 72/176/7 86/211/7 99/256/7
f 83/217/23 60/216/27 86/257/23
f 86/257/24 60/216/28 83/217/24
f 72/213/21 58/212/25 96/258/21
f 96/258/22 58/212/26 72/213/22
f 87/219/8 100/259/8 73/178/8
f 73/178/7 100/259/7 87/219/7
f 84/260/21 87/261/11 61/262/21
f 61/262/22 87/261/12 84/260/22
f 73/263/23 97/264/19 70/265/23
f 70/265/24 97/264/20 73/263/24
f 101/266/8 88/222/8 74/182/8
f 74/182/7 88/222/7 101/266/7
f 85/227/19 62/226/23 88/267/19
f 88/267/20 62/226/24 85/227/20
f 74/224/11 71/223/21 98/268/11
f 98/268/12 71/223/22 74/224/12
f 102/269/8 89/229/8 76/186/8
f 76/186/7 89/229/7 102/269/7
f 82/234/19 63/233/23 89/270/19
f 89/270/20 63/233/24 82/234/20
f 76/231/11 68/230/21 95/271/11
f 95/271/12 68/230/22 76/231/12
f 103/272/15 77/273/17 90/274/17
f 90/274/18 77/273/18 103/272/16
f 78/241/5 91/240/2 104/275/2
f 104/275/3 91/240/3 78/241/6
f 92/243/7 91/276/7 64/192/7
f 64/192/8 91/276/8 92/243/8
f 77/273/17 103/272/15 92/277/15
f 92/277/16 103/272/16 77/273/18
f 104/278/8 90/244/8 78/193/8
f 78/193/7 90/244/7 104/278/7
f 94/251/7 93/279/7 79/202/7
f 79/202/8 93/279/8 94/251/8
f 105/280/13 94/281/15 80/282/15
f 80/282/16 94/281/16 105/280/14
f 106/283/8 80/249/8 81/201/8
f 81/201/7 80/249/7 106/283/7
f 107/284/1 81/285/2 93/286/2
f 93/286/3 81/285/3 107/284/4
f 108/287/7 95/252/7 82/203/7
f 82/203/8 95/252/8 108/287/8
f 109/288/7 96/253/7 83/205/7
f 83/205/8 96/253/8 109/288/8
f 97/254/7 110/289/7 84/206/7
f 84/206/8 110/289/8 97/254/8
f 111/290/7 98/255/7 85/210/7
f 85/210/8 98/255/8 111/290/8
f 99/256/8 112/291/8 86/211/8
f 86/211/7 112/291/7 99/256/7
f 96/292/21 99/293/11 72/294/21
f 72/294/22 99/293/12 96/292/22
f 86/295/23 109/296/19 83/297/23
f 83/297/24 109/296/20 86/295/24
f 113/298/8 100/259/8 87/219/8
f 87/219/7 100/259/7 113/298/7
f 97/264/19 73/263/23 100/299/19
f 100/299/20 73/263/24 97/264/20
f 87/261/11 84/260/21 110/300/11
f 110/300/12 84/260/22 87/261/12
f 101/266/8 114/301/8 88/222/8
f 88/222/7 114/301/7 101/266/7
f 74/302/11 115/303/5 101/304/5
f 101/304/6 115/303/6 74/302/12
f 114/305/17 85/306/19 88/307/19
f 88/307/20 85/306/20 114/305/18
f 115/303/5 74/302/11 98/308/11
f 98/308/12 74/302/12 115/303/6
f 102/269/8 116/309/8 89/229/8
f 89/229/7 116/309/7 102/269/7
f 76/310/11 117/311/5 102/312/5
f 102/312/6 117/311/6 76/310/12
f 116/313/17 82/314/19 89/315/19
f 89/315/20 82/314/20 116/313/18
f 117/311/5 76/310/11 95/316/11
f 95/316/12 76/310/12 117/311/6
f 104/278/8 103/317/8 90/244/8
f 90/244/7 103/317/7 104/278/7
f 118/318/1 104/319/2 91/320/2
f 91/320/3 104/319/3 118/318/4
f 119/321/7 91/276/7 92/243/7
f 92/243/8 91/276/8 119/321/8
f 120/322/13 92/323/15 103/324/15
f 103/324/16 92/323/16 120/322/14
f 121/325/7 93/279/7 94/251/7
f 94/251/8 93/279/8 121/325/8
f 94/281/15 105/280/13 121/326/13
f 121/326/14 105/280/14 94/281/16
f 106/283/8 105/327/8 80/249/8
f 80/249/7 105/327/7 106/283/7
f 81/285/2 107/284/1 106/328/1
f 106/328/4 107/284/4 81/285/3
f 121/325/7 107/329/7 93/279/7
f 93/279/8 107/329/8 121/325/8
f 108/287/7 117/330/7 95/252/7
f 95/252/8 117/330/8 108/287/8
f 82/314/19 116/313/17 108/331/17
f 108/331/18 116/313/18 82/314/20
f 109/288/7 122/332/7 96/253/7
f 96/253/8 122/332/8 109/288/8
f 123/333/7 110/289/7 97/254/7
f 97/254/8 110/289/8 123/333/8
f 111/290/7 115/334/7 98/255/7
f 98/255/8 115/334/8 111/290/8
f 85/306/19 114/305/17 111/335/17
f 111/335/18 114/305/18 85/306/20
f 124/336/8 112/291/8 99/256/8
f 99/256/7 112/291/7 124/336/7
f 109/296/19 86/295/23 112/337/19
f 112/337/20 86/295/24 109/296/20
f 99/293/11 96/292/21 122/338/11
f 122/338/12 96/292/22 99/293/12
f 113/298/8 125/339/8 100/259/8
f 100/259/7 125/339/7 113/298/7
f 87/340/11 126/341/5 113/342/5
f 113/342/6 126/341/6 87/340/12
f 125/343/17 97/344/19 100/345/19
f 100/345/20 97/344/20 125/343/18
f 126/341/5 87/340/11 110/346/11
f 110/346/12 87/340/12 126/341/6
f 127/347/8 114/301/8 101/266/8
f 101/266/7 114/301/7 127/347/7
f 128/348/2 101/349/5 115/350/5
f 115/350/6 101/349/6 128/348/3
f 129/351/8 116/309/8 102/269/8
f 102/269/7 116/309/7 129/351/7
f 130/352/2 102/353/5 117/354/5
f 117/354/6 102/353/6 130/352/3
f 131/355/8 103/317/8 104/278/8
f 104/278/7 103/317/7 131/355/7
f 104/319/2 118/318/1 131/356/1
f 131/356/4 118/318/4 104/319/3
f 119/321/7 118/357/7 91/276/7
f 91/276/8 118/357/8 119/321/8
f 92/323/15 120/322/13 119/358/13
f 119/358/14 120/322/14 92/323/16
f 131/355/8 120/359/8 103/317/8
f 103/317/7 120/359/7 131/355/7
f 132/360/9 121/361/13 105/362/13
f 105/362/14 121/361/14 132/360/10
f 105/327/8 106/283/8 132/363/8
f 132/363/7 106/283/7 105/327/7
f 133/364/9 106/365/1 107/366/1
f 107/366/4 106/365/4 133/364/10
f 107/329/7 121/325/7 133/367/7
f 133/367/8 121/325/8 107/329/8
f 134/368/7 117/330/7 108/287/7
f 108/287/8 117/330/8 134/368/8
f 135/369/15 108/370/17 116/371/17
f 116/371/18 108/370/18 135/369/16
f 136/372/7 122/332/7 109/288/7
f 109/288/8 122/332/8 136/372/8
f 123/333/7 126/373/7 110/289/7
f 110/289/8 126/373/8 123/333/8
f 97/344/19 125/343/17 123/374/17
f 123/374/18 125/343/18 97/344/20
f 137/375/7 115/334/7 111/290/7
f 111/290/8 115/334/8 137/375/8
f 138/376/15 111/377/17 114/378/17
f 114/378/18 111/377/18 138/376/16
f 124/336/8 139/379/8 112/291/8
f 112/291/7 139/379/7 124/336/7
f 99/380/11 140/381/5 124/382/5
f 124/382/6 140/381/6 99/380/12
f 139/383/17 109/384/19 112/385/19
f 112/385/20 109/384/20 139/383/18
f 140/381/5 99/380/11 122/386/11
f 122/386/12 99/380/12 140/381/6
f 141/387/8 125/339/8 113/298/8
f 113/298/7 125/339/7 141/387/7
f 142/388/2 113/389/5 126/390/5
f 126/390/6 113/389/6 142/388/3
f 127/347/8 138/391/8 114/301/8
f 114/301/7 138/391/7 127/347/7
f 101/349/5 128/348/2 127/392/2
f 127/392/3 128/348/3 101/349/6
f 137/375/7 128/393/7 115/334/7
f 115/334/8 128/393/8 137/375/8
f 129/351/8 135/394/8 116/309/8
f 116/309/7 135/394/7 129/351/7
f 102/353/5 130/352/2 129/395/2
f 129/395/3 130/352/3 102/353/6
f 134/368/7 130/396/7 117/330/7
f 117/330/8 130/396/8 134/368/8
f 143/397/9 131/398/1 118/399/1
f 118/399/4 131/398/4 143/397/10
f 118/357/7 119/321/7 143/400/7
f 143/400/8 119/321/8 118/357/8
f 144/401/9 119/402/13 120/403/13
f 120/403/14 119/402/14 144/401/10
f 120/359/8 131/355/8 144/404/8
f 144/404/7 131/355/7 120/359/7
f 121/361/13 132/360/9 133/405/9
f 133/405/10 132/360/10 121/361/14
f 106/365/1 133/364/9 132/406/9
f 132/406/10 133/364/10 106/365/4
f 108/370/17 135/369/15 134/407/15
f 134/407/16 135/369/16 108/370/18
f 136/372/7 140/408/7 122/332/7
f 122/332/8 140/408/8 136/372/8
f 109/384/19 139/383/17 136/409/17
f 136/409/18 139/383/18 109/384/20
f 145/410/7 126/373/7 123/333/7
f 123/333/8 126/373/8 145/410/8
f 146/411/15 123/412/17 125/413/17
f 125/413/18 123/412/18 146/411/16
f 111/377/17 138/376/15 137/414/15
f 137/414/16 138/376/16 111/377/18
f 147/415/8 139/379/8 124/336/8
f 124/336/7 139/379/7 147/415/7
f 148/416/2 124/417/5 140/418/5
f 140/418/6 124/417/6 148/416/3
f 141/387/8 146/419/8 125/339/8
f 125/339/7 146/419/7 141/387/7
f 113/389/5 142/388/2 141/420/2
f 141/420/3 142/388/3 113/389/6
f 145/410/7 142/421/7 126/373/7
f 126/373/8 142/421/8 145/410/8
f 149/422/8 138/391/8 127/347/8
f 127/347/7 138/391/7 149/422/7
f 150/423/1 127/424/2 128/425/2
f 128/425/3 127/424/3 150/423/4
f 151/426/7 128/393/7 137/375/7
f 137/375/8 128/393/8 151/426/8
f 152/427/8 135/394/8 129/351/8
f 129/351/7 135/394/7 152/427/7
f 153/428/1 129/429/2 130/430/2
f 130/430/3 129/429/3 153/428/4
f 154/431/7 130/396/7 134/368/7
f 134/368/8 130/396/8 154/431/8
f 131/398/1 143/397/9 144/432/9
f 144/432/10 143/397/10 131/398/4
f 119/402/13 144/401/9 143/433/9
f 143/433/10 144/401/10 119/402/14
f 155/434/13 134/435/15 135/436/15
f 135/436/16 134/435/16 155/434/14
f 156/437/7 140/408/7 136/372/7
f 136/372/8 140/408/8 156/437/8
f 157/438/15 136/439/17 139/440/17
f 139/440/18 136/439/18 157/438/16
f 123/412/17 146/411/15 145/441/15
f 145/441/16 146/411/16 123/412/18
f 158/442/13 137/443/15 138/444/15
f 138/444/16 137/443/16 158/442/14
f 147/415/8 157/445/8 139/379/8
f 139/379/7 157/445/7 147/415/7
f 124/417/5 148/416/2 147/446/2
f 147/446/3 148/416/3 124/417/6
f 156/437/7 148/447/7 140/408/7
f 140/408/8 148/447/8 156/437/8
f 159/448/8 146/419/8 141/387/8
f 141/387/7 146/419/7 159/448/7
f 160/449/1 141/450/2 142/451/2
f 142/451/3 141/450/3 160/449/4
f 161/452/7 142/421/7 145/410/7
f 145/410/8 142/421/8 161/452/8
f 149/422/8 158/453/8 138/391/8
f 138/391/7 158/453/7 149/422/7
f 127/424/2 150/423/1 149/454/1
f 149/454/4 150/423/4 127/424/3
f 151/426/7 150/455/7 128/393/7
f 128/393/8 150/455/8 151/426/8
f 137/443/15 158/442/13 151/456/13
f 151/456/14 158/442/14 137/443/16
f 152/427/8 155/457/8 135/394/8
f 135/394/7 155/457/7 152/427/7
f 129/429/2 153/428/1 152/458/1
f 152/458/4 153/428/4 129/429/3
f 154/431/7 153/459/7 130/396/7
f 130/396/8 153/459/8 154/431/8
f 134/435/15 155/434/13 154/460/13
f 154/460/14 155/434/14 134/435/16
f 136/439/17 157/438/15 156/461/15
f 156/461/16 157/438/16 136/439/18
f 162/462/13 145/463/15 146/464/15
f 146/464/16 145/463/16 162/462/14
f 163/465/8 157/445/8 147/415/8
f 147/415/7 157/445/7 163/465/7
f 164/466/1 147/467/2 148/468/2
f 148/468/3 147/467/3 164/466/4
f 165/469/7 148/447/7 156/437/7
f 156/437/8 148/447/8 165/469/8
f 159/448/8 162/470/8 146/419/8
f 146/419/7 162/470/7 159/448/7
f 141/450/2 160/449/1 159/471/1
f 159/471/4 160/449/4 141/450/3
f 161/452/7 160/472/7 142/421/7
f 142/421/8 160/472/8 161/452/8
f 145/463/15 162/462/13 161/473/13
f 161/473/14 162/462/14 145/463/16
f 158/453/8 149/422/8 166/474/8
f 166/474/7 149/422/7 158/453/7
f 167/475/9 149/476/1 150/477/1
f 150/477/4 149/476/4 167/475/10
f 150/455/7 151/426/7 167/478/7
f 167/478/8 151/426/8 150/455/8
f 166/479/9 151/480/13 158/481/13
f 158/481/14 151/480/14 166/479/10
f 155/457/8 152/427/8 168/482/8
f 168/482/7 152/427/7 155/457/7
f 169/483/9 152/484/1 153/485/1
f 153/485/4 152/484/4 169/483/10
f 153/459/7 154/431/7 169/486/7
f 169/486/8 154/431/8 153/459/8
f 168/487/9 154/488/13 155/489/13
f 155/489/14 154/488/14 168/487/10
f 170/490/13 156/491/15 157/492/15
f 157/492/16 156/491/16 170/490/14
f 163/465/8 170/493/8 157/445/8
f 157/445/7 170/493/7 163/465/7
f 147/467/2 164/466/1 163/494/1
f 163/494/4 164/466/4 147/467/3
f 165/469/7 164/495/7 148/447/7
f 148/447/8 164/495/8 165/469/8
f 156/491/15 170/490/13 165/496/13
f 165/496/14 170/490/14 156/491/16
f 162/470/8 159/448/8 171/497/8
f 171/497/7 159/448/7 162/470/7
f 172/498/9 159/499/1 160/500/1
f 160/500/4 159/499/4 172/498/10
f 160/472/7 161/452/7 172/501/7
f 172/501/8 161/452/8 160/472/8
f 171/502/9 161/503/13 162/504/13
f 162/504/14 161/503/14 171/502/10
f 149/476/1 167/475/9 166/505/9
f 166/505/10 167/475/10 149/476/4
f 151/480/13 166/479/9 167/506/9
f 167/506/10 166/479/10 151/480/14
f 152/484/1 169/483/9 168/507/9
f 168/507/10 169/483/10 152/484/4
f 154/488/13 168/487/9 169/508/9
f 169/508/10 168/487/10 154/488/14
f 170/493/8 163/465/8 173/509/8
f 173/509/7 163/465/7 170/493/7
f 174/510/9 163/511/1 164/512/1
f 164/512/4 163/511/4 174/510/10
f 164/495/7 165/469/7 174/513/7
f 174/513/8 165/469/8 164/495/8
f 173/514/9 165/515/13 170/516/13
f 170/516/14 165/515/14 173/514/10
f 159/499/1 172/498/9 171/517/9
f 171/517/10 172/498/10 159/499/4
f 161/503/13 171/502/9 172/518/9
f 172/518/10 171/502/10 161/503/14
f 163/511/1 174/510/9 173/519/9
f 173/519/10 174/510/10 163/511/4
f 165/515/13 173/514/9 174/520/9
f 174/520/10 173/514/10 165/515/14
