# SSTK version 0.8.0
# 47
mtllib original-47.mtl
o Moulding-726.623.12_1/Moulding-726.623.12/mesh52/mesh52-geometry#mesh52-geometry
v -0.294571 0.709306 0.249943
v -0.295497 0.708809 -0.261648
v -0.295497 0.708809 0.250869
v -0.294571 0.709306 -0.261648
v -0.296309 0.708141 -0.261648
v 0.299768 0.708809 0.250869
v 0.298841 0.709306 0.249943
v 0.299768 0.708809 -0.261648
v -0.296309 0.708141 0.251681
v 0.300579 0.708141 -0.261648
v 0.300579 0.708141 0.251681
v 0.298841 0.709306 -0.261648
v -0.296975 0.707327 -0.261648
v 0.301245 0.707327 -0.261648
v -0.296975 0.707327 0.252347
v -0.297470 0.706400 -0.261648
v 0.301740 0.706400 -0.261648
v 0.301245 0.707327 0.252347
v -0.297470 0.706400 0.252842
v -0.297774 0.705394 -0.261648
v 0.302044 0.705394 -0.261648
v 0.301740 0.706400 0.252842
v -0.297774 0.705394 0.253146
v -0.297877 0.704347 -0.261648
v 0.302147 0.704347 -0.261648
v 0.302044 0.705394 0.253146
v -0.297877 0.704347 0.253249
v -0.297774 0.703301 0.253146
v 0.302044 0.703301 -0.261648
v 0.302147 0.704347 0.253249
v -0.297774 0.703301 -0.261648
v 0.302044 0.703301 0.253146
v -0.297470 0.702295 0.252842
v 0.301740 0.702295 -0.261648
v 0.301740 0.702295 0.252842
v -0.297470 0.702295 -0.261648
v -0.296975 0.701368 0.252347
v 0.301245 0.701368 -0.261648
v 0.301245 0.701368 0.252347
v -0.296975 0.701368 -0.261648
v -0.296309 0.700554 0.251681
v 0.300579 0.700554 -0.261648
v 0.300579 0.700554 0.251681
v -0.296309 0.700554 -0.261648
v -0.295497 0.699886 -0.261648
v 0.299768 0.699886 -0.261648
v 0.299768 0.699886 0.250869
v -0.295497 0.699886 0.250869
v -0.294571 0.699389 -0.261648
v 0.298841 0.699389 -0.261648
v 0.298841 0.699389 0.249943
v -0.294571 0.699389 0.249943
vt -0.002187 0.005031
vt -0.340661 0.004336
vt -0.001574 0.004336
vt -0.340661 0.005031
vt -0.340661 0.004481
vt -0.001574 0.005177
vt -0.340661 0.005177
vt 0.395407 0.004336
vt 0.002187 0.005031
vt 0.001574 0.004336
vt 0.394794 0.002187
vt 0.002187 0.340661
vt 0.002187 0.002187
vt -0.395407 0.006233
vt -0.001574 0.006233
vt -0.002187 0.006562
vt -0.001038 0.004481
vt -0.395944 0.005791
vt -0.001038 0.005791
vt 0.394794 0.005031
vt 0.001574 0.005177
vt 0.395944 0.004481
vt 0.395407 0.005177
vt 0.394794 0.340661
vt -0.394794 0.006562
vt -0.340661 0.004442
vt -0.001038 0.005138
vt -0.340661 0.005138
vt 0.001038 0.004481
vt -0.396385 0.005252
vt 0.001574 -0.345411
vt 0.340661 -0.344716
vt 0.002187 -0.344716
vt 0.001038 -0.301994
vt 0.340661 -0.301298
vt 0.001574 -0.301298
vt 0.340661 -0.301994
vt 0.340661 -0.345411
vt -0.000597 0.004442
vt -0.000597 0.005252
vt 0.000597 0.004442
vt 0.395944 0.005138
vt 0.001038 0.005138
vt 0.001038 -0.24633
vt 0.340661 -0.247025
vt 0.340661 -0.24633
vt -0.340661 0.00422
vt -0.000597 0.004915
vt -0.340661 0.004915
vt -0.396712 0.004639
vt 0.396385 0.004442
vt 0.000597 -0.247025
vt -0.00027 0.00422
vt -0.00027 0.004639
vt 0.000597 -0.181915
vt 0.340661 -0.182611
vt 0.340661 -0.181915
vt 0.00027 0.00422
vt 0.396385 0.004915
vt 0.000597 0.004915
vt -0.340661 0.003822
vt -0.00027 0.004518
vt -0.340661 0.004518
vt -0.396914 0.003973
vt 0.00027 -0.182611
vt 0.396712 0.00422
vt -0.000068 0.003822
vt -0.000068 0.003973
vt 0.00027 -0.110521
vt 0.340661 -0.111217
vt 0.340661 -0.110521
vt 0.000068 0.003822
vt 0.396712 0.004518
vt 0.00027 0.004518
vt -0.340661 0.003265
vt -0.000068 0.003961
vt -0.340661 0.003961
vt -0.396982 0.003281
vt 0.000068 -0.111217
vt 0.396914 0.003822
vt 0 0.003265
vt 0 0.003281
vt 0.000068 -0.034882
vt 0.340661 -0.035577
vt 0.340661 -0.034882
vt 0.396914 0.003961
vt 0.000068 0.003961
vt -0.000068 0.00257
vt -0.396914 0.002589
vt 0 -0.035577
vt 0.396982 0.003265
vt -0.340661 0.00257
vt 0.000068 0.00257
vt -0.000068 0.002589
vt 0.340661 0.042107
vt 0.000068 0.041412
vt 0.340661 0.041412
vt 0 0.042107
vt -0.340661 0.002458
vt -0.00027 0.001762
vt -0.000068 0.002458
vt 0.396914 0.00257
vt -0.396712 0.001923
vt 0.00027 0.116801
vt 0.340661 0.117497
vt 0.000068 0.117497
vt -0.340661 0.001762
vt 0.00027 0.001762
vt 0.396914 0.002458
vt 0.000068 0.002458
vt -0.00027 0.001923
vt 0.340661 0.116801
vt 0.396712 0.001762
vt -0.340661 0.00157
vt -0.000597 0.000874
vt -0.00027 0.00157
vt -0.396385 0.001309
vt 0.000597 0.187705
vt 0.340661 0.1884
vt 0.00027 0.1884
vt 0.000597 0.000874
vt 0.396712 0.00157
vt 0.00027 0.00157
vt -0.340661 0.000874
vt -0.000597 0.001309
vt 0.340661 0.187705
vt 0.396385 0.000874
vt -0.340661 0.000635
vt -0.001038 -0.000061
vt -0.000597 0.000635
vt -0.395944 0.000771
vt 0.001038 0.251407
vt 0.340661 0.252103
vt 0.000597 0.252103
vt 0.001038 -0.000061
vt 0.396385 0.000635
vt 0.000597 0.000635
vt -0.340661 -0.000061
vt -0.001038 0.000771
vt 0.340661 0.251407
vt 0.395944 -0.000061
vt -0.340661 -0.001006
vt -0.001038 -0.000311
vt -0.340661 -0.000311
vt -0.395407 0.000329
vt 0.001574 0.305469
vt 0.340661 0.306165
vt 0.001038 0.306165
vt 0.001574 -0.001006
vt 0.395944 -0.000311
vt 0.001038 -0.000311
vt -0.001574 -0.001006
vt -0.001574 0.000329
vt 0.340661 0.305469
vt 0.395407 -0.001006
vt -0.340661 -0.001927
vt -0.001574 -0.001231
vt -0.340661 -0.001231
vt -0.394794 0
vt 0.002187 0.34782
vt 0.340661 0.348516
vt 0.001574 0.348516
vt 0.002187 -0.001927
vt 0.395407 -0.001231
vt 0.001574 -0.001231
vt -0.002187 -0.001927
vt -0.002187 0
vt 0.340661 0.34782
vt 0.394794 -0.001927
vt -0.394794 0.340661
vt -0.002187 0.002187
vt -0.002187 0.340661
vt -0.394794 0.002187
vn -0.47308688129660287 0.8810157789421561 0
vn -0.5570188840395423 0.8304998271061487 0
vn 0.5570188840395423 -0.8304998271061487 0
vn 0.47308688129660287 -0.8810157789421561 0
vn -0.708092093870359 0.7061200936089348 0
vn 0.708092093870359 -0.7061200936089348 0
vn 0 0.8304998271061484 0.5570188840395425
vn 0 0.881015778942156 0.47308688129660303
vn 0 -0.8304998271061484 -0.5570188840395425
vn 0 -0.881015778942156 -0.47308688129660303
vn 0 1 0
vn 0 -1 0
vn 0 0 -1
vn 0 0 1
vn 0 0.7061200936089346 0.7080920938703592
vn 0 -0.7061200936089346 -0.7080920938703592
vn -0.8320502943378437 0.5547001962252291 0
vn 0.8320502943378437 -0.5547001962252291 0
vn 0.5570188840395423 0.8304998271061487 0
vn 0.47308688129660287 0.8810157789421561 0
vn -0.47308688129660287 -0.8810157789421561 0
vn -0.5570188840395423 -0.8304998271061487 0
vn 0.708092093870359 0.7061200936089348 0
vn -0.708092093870359 -0.7061200936089348 0
vn 0 0.5547001962252288 0.8320502943378436
vn 0 -0.5547001962252288 -0.8320502943378436
vn 0.8320502943378437 0.5547001962252291 0
vn -0.8320502943378437 -0.5547001962252291 0
vn -0.9241461724285951 0.3820390712814296 0
vn 0.9241461724285951 -0.3820390712814296 0
vn 0.9241461724285951 0.3820390712814296 0
vn -0.9241461724285951 -0.3820390712814296 0
vn 0 0.3820390712814295 0.9241461724285953
vn 0 -0.3820390712814295 -0.9241461724285953
vn -0.9808532986144567 0.1947480592897898 0
vn 0.9808532986144567 -0.1947480592897898 0
vn 0.9808532986144567 0.1947480592897898 0
vn -0.9808532986144567 -0.1947480592897898 0
vn 0 0.1947480592897896 0.9808532986144567
vn 0 -0.1947480592897896 -0.9808532986144567
vn -1 0 0
vn 1 0 0
vn 0 -0.19474805928979003 0.9808532986144567
vn 0 0.19474805928979003 -0.9808532986144567
vn 0 -0.3820390712814298 0.924146172428595
vn 0 0.3820390712814298 -0.924146172428595
vn 0 -0.5547001962252294 0.8320502943378435
vn 0 0.5547001962252294 -0.8320502943378435
vn 0 -0.7061200936089349 0.7080920938703589
vn 0 0.7061200936089349 -0.7080920938703589
vn 0 -0.8304998271061488 0.5570188840395421
vn 0 0.8304998271061488 -0.5570188840395421
vn 0 -0.8810157789421562 0.4730868812966026
vn 0 0.8810157789421562 -0.4730868812966026
usemtl material_0_0
f 1/1/1 2/2/2 3/3/2
f 2/2/2 1/1/1 4/4/1
f 3/3/3 2/2/3 1/1/4
f 4/4/4 1/1/4 2/2/3
f 5/5/5 3/6/2 2/7/2
f 2/7/3 3/6/3 5/5/6
f 6/8/7 1/9/8 3/10/7
f 3/10/9 1/9/10 6/8/9
f 7/11/11 4/12/11 1/13/11
f 1/13/12 4/12/12 7/11/12
f 8/14/13 2/15/13 4/16/13
f 4/16/14 2/15/14 8/14/14
f 3/6/2 5/5/5 9/17/5
f 9/17/6 5/5/6 3/6/3
f 10/18/13 5/19/13 2/15/13
f 2/15/14 5/19/14 10/18/14
f 1/9/8 6/8/7 7/20/8
f 7/20/10 6/8/9 1/9/10
f 3/21/7 11/22/15 6/23/7
f 6/23/9 11/22/16 3/21/9
f 4/12/11 7/11/11 12/24/11
f 12/24/12 7/11/12 4/12/12
f 10/18/13 2/15/13 8/14/13
f 8/14/14 2/15/14 10/18/14
f 8/14/13 4/16/13 12/25/13
f 12/25/14 4/16/14 8/14/14
f 13/26/17 9/27/5 5/28/5
f 5/28/6 9/27/6 13/26/18
f 11/22/15 3/21/7 9/29/15
f 9/29/16 3/21/9 11/22/16
f 14/30/13 5/19/13 10/18/13
f 10/18/14 5/19/14 14/30/14
f 6/31/19 12/32/20 7/33/20
f 7/33/21 12/32/21 6/31/22
f 11/34/23 8/35/19 6/36/19
f 6/36/22 8/35/22 11/34/24
f 8/35/19 11/34/23 10/37/23
f 10/37/24 11/34/24 8/35/22
f 12/32/20 6/31/19 8/38/19
f 8/38/22 6/31/22 12/32/21
f 9/27/5 13/26/17 15/39/17
f 15/39/18 13/26/18 9/27/6
f 14/30/13 13/40/13 5/19/13
f 5/19/14 13/40/14 14/30/14
f 15/41/25 11/42/15 9/43/15
f 9/43/16 11/42/16 15/41/26
f 11/44/23 14/45/27 10/46/23
f 10/46/24 14/45/28 11/44/24
f 16/47/29 15/48/17 13/49/17
f 13/49/18 15/48/18 16/47/30
f 17/50/13 13/40/13 14/30/13
f 14/30/14 13/40/14 17/50/14
f 11/42/15 15/41/25 18/51/25
f 18/51/26 15/41/26 11/42/16
f 14/45/27 11/44/23 18/52/27
f 18/52/28 11/44/24 14/45/28
f 15/48/17 16/47/29 19/53/29
f 19/53/30 16/47/30 15/48/18
f 17/50/13 16/54/13 13/40/13
f 13/40/14 16/54/14 17/50/14
f 18/55/27 17/56/31 14/57/27
f 14/57/28 17/56/32 18/55/28
f 19/58/33 18/59/25 15/60/25
f 15/60/26 18/59/26 19/58/34
f 20/61/35 19/62/29 16/63/29
f 16/63/30 19/62/30 20/61/36
f 21/64/13 16/54/13 17/50/13
f 17/50/14 16/54/14 21/64/14
f 17/56/31 18/55/27 22/65/31
f 22/65/32 18/55/28 17/56/32
f 18/59/25 19/58/33 22/66/33
f 22/66/34 19/58/34 18/59/26
f 19/62/29 20/61/35 23/67/35
f 23/67/36 20/61/36 19/62/30
f 21/64/13 20/68/13 16/54/13
f 16/54/14 20/68/14 21/64/14
f 22/69/31 21/70/37 17/71/31
f 17/71/32 21/70/38 22/69/32
f 23/72/39 22/73/33 19/74/33
f 19/74/34 22/73/34 23/72/40
f 24/75/41 23/76/35 20/77/35
f 20/77/36 23/76/36 24/75/42
f 25/78/13 20/68/13 21/64/13
f 21/64/14 20/68/14 25/78/14
f 21/70/37 22/69/31 26/79/37
f 26/79/38 22/69/32 21/70/38
f 22/73/33 23/72/39 26/80/39
f 26/80/40 23/72/40 22/73/34
f 23/76/35 24/75/41 27/81/41
f 27/81/42 24/75/42 23/76/36
f 25/78/13 24/82/13 20/68/13
f 20/68/14 24/82/14 25/78/14
f 26/83/37 25/84/42 21/85/37
f 21/85/38 25/84/41 26/83/38
f 27/81/14 26/86/39 23/87/39
f 23/87/40 26/86/40 27/81/13
f 24/75/41 28/88/38 27/81/41
f 27/81/42 28/88/37 24/75/42
f 29/89/13 24/82/13 25/78/13
f 25/78/14 24/82/14 29/89/14
f 25/84/42 26/83/37 30/90/42
f 30/90/41 26/83/38 25/84/41
f 26/86/39 27/81/14 30/91/14
f 30/91/13 27/81/13 26/86/40
f 28/88/38 24/75/41 31/92/38
f 31/92/37 24/75/42 28/88/37
f 28/93/43 30/91/14 27/81/14
f 27/81/13 30/91/13 28/93/44
f 29/89/13 31/94/13 24/82/13
f 24/82/14 31/94/14 29/89/14
f 25/95/42 32/96/36 29/97/36
f 29/97/35 32/96/35 25/95/41
f 32/96/36 25/95/42 30/98/42
f 30/98/41 25/95/41 32/96/35
f 31/99/38 33/100/32 28/101/38
f 28/101/37 33/100/31 31/99/37
f 30/91/14 28/93/43 32/102/43
f 32/102/44 28/93/44 30/91/13
f 34/103/13 31/94/13 29/89/13
f 29/89/14 31/94/14 34/103/14
f 35/104/30 29/105/36 32/106/36
f 32/106/35 29/105/35 35/104/29
f 33/100/32 31/99/38 36/107/32
f 36/107/31 31/99/37 33/100/31
f 33/108/45 32/109/43 28/110/43
f 28/110/44 32/109/44 33/108/46
f 34/103/13 36/111/13 31/94/13
f 31/94/14 36/111/14 34/103/14
f 29/105/36 35/104/30 34/112/30
f 34/112/29 35/104/29 29/105/35
f 32/109/43 33/108/45 35/113/45
f 35/113/46 33/108/46 32/109/44
f 36/114/32 37/115/28 33/116/32
f 33/116/31 37/115/27 36/114/31
f 38/117/13 36/111/13 34/103/13
f 34/103/14 36/111/14 38/117/14
f 39/118/18 34/119/30 35/120/30
f 35/120/29 34/119/29 39/118/17
f 37/121/47 35/122/45 33/123/45
f 33/123/46 35/122/46 37/121/48
f 37/115/28 36/114/32 40/124/28
f 40/124/27 36/114/31 37/115/27
f 38/117/13 40/125/13 36/111/13
f 36/111/14 40/125/14 38/117/14
f 34/119/30 39/118/18 38/126/18
f 38/126/17 39/118/17 34/119/29
f 35/122/45 37/121/47 39/127/47
f 39/127/48 37/121/48 35/122/46
f 40/128/28 41/129/24 37/130/28
f 37/130/27 41/129/23 40/128/27
f 42/131/13 40/125/13 38/117/13
f 38/117/14 40/125/14 42/131/14
f 43/132/6 38/133/18 39/134/18
f 39/134/17 38/133/17 43/132/5
f 41/135/49 39/136/47 37/137/47
f 37/137/48 39/136/48 41/135/50
f 41/129/24 40/128/28 44/138/24
f 44/138/23 40/128/27 41/129/23
f 42/131/13 44/139/13 40/125/13
f 40/125/14 44/139/14 42/131/14
f 38/133/18 43/132/6 42/140/6
f 42/140/5 43/132/5 38/133/17
f 39/136/47 41/135/49 43/141/49
f 43/141/50 41/135/50 39/136/48
f 45/142/22 41/143/24 44/144/24
f 44/144/23 41/143/23 45/142/19
f 46/145/13 44/139/13 42/131/13
f 42/131/14 44/139/14 46/145/14
f 47/146/3 42/147/6 43/148/6
f 43/148/5 42/147/5 47/146/2
f 48/149/51 43/150/49 41/151/49
f 41/151/50 43/150/50 48/149/52
f 41/143/24 45/142/22 48/152/22
f 48/152/19 45/142/19 41/143/23
f 46/145/13 45/153/13 44/139/13
f 44/139/14 45/153/14 46/145/14
f 42/147/6 47/146/3 46/154/3
f 46/154/2 47/146/2 42/147/5
f 43/150/49 48/149/51 47/155/51
f 47/155/52 48/149/52 43/150/50
f 49/156/21 48/157/22 45/158/22
f 45/158/19 48/157/19 49/156/20
f 50/159/13 45/153/13 46/145/13
f 46/145/14 45/153/14 50/159/14
f 51/160/4 46/161/3 47/162/3
f 47/162/2 46/161/2 51/160/1
f 52/163/53 47/164/51 48/165/51
f 48/165/52 47/164/52 52/163/54
f 48/157/22 49/156/21 52/166/21
f 52/166/20 49/156/20 48/157/19
f 45/153/13 50/159/13 49/167/13
f 49/167/14 50/159/14 45/153/14
f 46/161/3 51/160/4 50/168/4
f 50/168/1 51/160/1 46/161/2
f 47/164/51 52/163/53 51/169/53
f 51/169/54 52/163/54 47/164/52
f 50/170/12 52/171/12 49/172/12
f 49/172/11 52/171/11 50/170/11
f 52/171/12 50/170/12 51/173/12
f 51/173/11 50/170/11 52/171/11
