# SSTK version 0.8.0
# 13
mtllib original-13.mtl
o Top-750.635.16_1/Top-750.635.16/mesh17/mesh17-geometry#mesh17-geometry
v 0.308472 0.798531 0.259574
v 0.309002 0.798425 -0.261648
v 0.308472 0.798531 -0.261648
v 0.309002 0.798425 0.260104
v -0.304202 0.798531 -0.261648
v 0.307933 0.798566 0.259034
v -0.304202 0.798531 0.259574
v 0.309514 0.798252 -0.261648
v -0.304732 0.798425 -0.261648
v -0.303662 0.798566 -0.261648
v 0.307933 0.798566 -0.261648
v -0.303662 0.798566 0.259034
v -0.304732 0.798425 0.260104
v 0.309514 0.798252 0.260616
v 0.309999 0.798013 -0.261648
v -0.305244 0.798252 -0.261648
v -0.305244 0.798252 0.260616
v 0.309999 0.798013 0.261101
v 0.310448 0.797712 -0.261648
v -0.305729 0.798013 -0.261648
v -0.305729 0.798013 0.261101
v 0.310448 0.797712 0.261550
v 0.310855 0.797356 -0.261648
v -0.306178 0.797712 -0.261648
v -0.306178 0.797712 0.261550
v 0.310855 0.797356 0.261956
v 0.311211 0.796949 -0.261648
v -0.306584 0.797356 -0.261648
v -0.306584 0.797356 0.261956
v 0.311211 0.796949 0.262313
v -0.306941 0.796949 0.262313
v 0.311511 0.796500 -0.261648
v -0.306941 0.796949 -0.261648
v -0.307241 0.796500 0.262613
v 0.311511 0.796500 0.262613
v -0.307241 0.796500 -0.261648
v 0.311751 0.796015 -0.261648
v -0.307480 0.796015 0.262852
v -0.307480 0.796015 -0.261648
v 0.311751 0.796015 0.262852
v 0.311924 0.795503 -0.261648
v -0.307654 0.795503 0.263026
v -0.307654 0.795503 -0.261648
v 0.311924 0.795503 0.263026
v 0.312030 0.794973 -0.261648
v -0.307759 0.794973 0.263131
v -0.307759 0.794973 -0.261648
v 0.312030 0.794973 0.263131
v 0.312065 0.794434 -0.261648
v -0.307795 0.794434 0.263167
v -0.307795 0.794434 -0.261648
v 0.312065 0.794434 0.263167
v 0.312030 0.793894 0.263131
v -0.307759 0.793894 0.263131
v 0.312030 0.793894 -0.261648
v -0.307759 0.793894 -0.261648
v 0.311924 0.793364 0.263026
v -0.307654 0.793364 0.263026
v 0.311924 0.793364 -0.261648
v -0.307654 0.793364 -0.261648
v 0.311751 0.792852 0.262852
v -0.307480 0.792852 0.262852
v 0.311751 0.792852 -0.261648
v -0.307480 0.792852 -0.261648
v 0.311511 0.792368 0.262613
v -0.307241 0.792368 0.262613
v 0.311511 0.792368 -0.261648
v -0.307241 0.792368 -0.261648
v 0.311211 0.791918 0.262313
v -0.306941 0.791918 0.262313
v 0.311211 0.791918 -0.261648
v -0.306941 0.791918 -0.261648
v 0.310855 0.791512 0.261956
v -0.306584 0.791512 0.261956
v 0.310855 0.791512 -0.261648
v -0.306584 0.791512 -0.261648
v 0.310448 0.791155 0.261550
v -0.306178 0.791155 0.261550
v -0.306178 0.791155 -0.261648
v 0.310448 0.791155 -0.261648
v 0.309999 0.790855 0.261101
v -0.305729 0.790855 0.261101
v -0.305729 0.790855 -0.261648
v 0.309999 0.790855 -0.261648
v 0.309514 0.790616 0.260616
v -0.305244 0.790616 0.260616
v -0.305244 0.790616 -0.261648
v 0.309514 0.790616 -0.261648
v 0.309002 0.790442 0.260104
v -0.304732 0.790442 0.260104
v -0.304732 0.790442 -0.261648
v 0.309002 0.790442 -0.261648
v 0.308472 0.790337 0.259574
v -0.304202 0.790337 0.259574
v -0.304202 0.790337 -0.261648
v 0.308472 0.790337 -0.261648
v 0.307933 0.790301 0.259034
v -0.303662 0.790301 0.259034
v -0.303662 0.790301 -0.261648
v 0.307933 0.790301 -0.261648
v 0.307933 0.789475 -0.261648
v -0.303662 0.789475 0.259034
v 0.307933 0.789475 0.259034
v -0.303662 0.789475 -0.261648
v 0.307135 0.789444 0.258237
v -0.302865 0.789444 0.258237
v -0.302865 0.789444 -0.261648
v 0.307135 0.789444 -0.261648
v 0.306342 0.789352 0.257444
v -0.302072 0.789352 0.257444
v -0.302072 0.789352 -0.261648
v 0.306342 0.789352 -0.261648
v 0.305559 0.789199 0.256661
v -0.301289 0.789199 0.256661
v -0.301289 0.789199 -0.261648
v 0.305559 0.789199 -0.261648
v 0.304790 0.788985 0.255892
v -0.300520 0.788985 0.255892
v -0.300520 0.788985 -0.261648
v 0.304790 0.788985 -0.261648
v 0.304040 0.788713 0.255141
v -0.299769 0.788713 0.255141
v -0.299769 0.788713 -0.261648
v 0.304040 0.788713 -0.261648
v 0.303313 0.788384 0.254414
v -0.299042 0.788384 0.254414
v -0.299042 0.788384 -0.261648
v 0.303313 0.788384 -0.261648
v 0.302613 0.788000 0.253715
v -0.298343 0.788000 0.253715
v -0.298343 0.788000 -0.261648
v 0.302613 0.788000 -0.261648
v 0.301945 0.787563 0.253047
v -0.297675 0.787563 0.253047
v -0.297675 0.787563 -0.261648
v 0.301945 0.787563 -0.261648
v 0.301313 0.787076 0.252415
v -0.297043 0.787076 0.252415
v -0.297043 0.787076 -0.261648
v 0.301313 0.787076 -0.261648
v 0.300721 0.786541 0.251822
v -0.296450 0.786541 0.251822
v -0.296450 0.786541 -0.261648
v 0.300721 0.786541 -0.261648
v 0.300171 0.785962 0.251273
v -0.295901 0.785962 0.251273
v 0.300171 0.785962 -0.261648
v -0.295901 0.785962 -0.261648
v 0.299668 0.785343 0.250770
v -0.295398 0.785343 0.250770
v 0.299668 0.785343 -0.261648
v -0.295398 0.785343 -0.261648
vt 0.002377 -0.398191
vt 0.347222 -0.398549
vt 0.347222 -0.398191
vt 0.002026 -0.398549
vt -0.408079 0.008656
vt -0.002377 0.008726
vt -0.407728 0.008726
vt 0.347222 -0.406284
vt 0.002734 -0.405927
vt 0.002377 -0.406284
vt 0.002377 0.004034
vt 0.408079 0.003676
vt 0.407728 0.004034
vt 0.002026 -0.38364
vt 0.347222 -0.383997
vt 0.347222 -0.38364
vt -0.002026 0.008656
vt -0.002734 0.008749
vt 0.347222 -0.405927
vt 0.002734 0.0033
vt 0.407728 0.002943
vt 0.407371 0.0033
vt 0.002026 0.003676
vt 0.002377 0.002943
vt 0.001688 -0.383997
vt -0.408417 0.008541
vt -0.347222 0.003676
vt -0.002377 0.004034
vt -0.347222 0.004034
vt -0.347222 0.002943
vt -0.002734 0.0033
vt -0.347222 0.0033
vt -0.407371 0.008749
vt 0.002734 0.347222
vt 0.407371 0.002734
vt 0.407371 0.347222
vt 0.002734 0.002734
vt -0.002026 0.003676
vt 0.002026 0.004701
vt 0.408417 0.004344
vt 0.408079 0.004701
vt -0.002377 0.002943
vt 0.001688 -0.362521
vt 0.347222 -0.362878
vt 0.347222 -0.362521
vt -0.001688 0.008541
vt -0.347222 0.004344
vt -0.002026 0.004701
vt -0.347222 0.004701
vt 0.001688 0.004344
vt 0.001367 -0.362878
vt -0.408738 0.008383
vt -0.001688 0.004344
vt 0.001688 0.005291
vt 0.408738 0.004934
vt 0.408417 0.005291
vt 0.001367 -0.335196
vt 0.347222 -0.335554
vt 0.347222 -0.335196
vt -0.001367 0.008383
vt -0.347222 0.004934
vt -0.001688 0.005291
vt -0.347222 0.005291
vt 0.001367 0.004934
vt 0.00107 -0.335554
vt -0.409035 0.008184
vt -0.001367 0.004934
vt 0.001367 0.005794
vt 0.409035 0.005436
vt 0.408738 0.005794
vt 0.00107 -0.302133
vt 0.347222 -0.302491
vt 0.347222 -0.302133
vt -0.00107 0.008184
vt -0.347222 0.005436
vt -0.001367 0.005794
vt -0.347222 0.005794
vt 0.00107 0.005436
vt 0.000801 -0.302491
vt -0.409304 0.007948
vt -0.00107 0.005436
vt 0.00107 0.0062
vt 0.409304 0.005843
vt 0.409035 0.0062
vt 0.000801 -0.263897
vt 0.347222 -0.264255
vt 0.347222 -0.263897
vt -0.000801 0.007948
vt -0.347222 0.005843
vt -0.00107 0.0062
vt -0.347222 0.0062
vt 0.000801 0.005843
vt 0.000565 -0.264255
vt -0.40954 0.007679
vt -0.000801 0.005843
vt 0.000565 0.006146
vt 0.409304 0.006504
vt 0.000801 0.006504
vt 0.40954 0.006146
vt 0.000565 -0.221143
vt 0.347222 -0.221501
vt 0.347222 -0.221143
vt -0.000565 0.007679
vt -0.347222 0.006146
vt -0.000801 0.006504
vt -0.347222 0.006504
vt -0.000565 0.006146
vt 0.000366 0.006341
vt 0.40954 0.006699
vt 0.000565 0.006699
vt 0.000366 -0.221501
vt -0.409739 0.007382
vt -0.347222 0.006341
vt -0.000565 0.006699
vt -0.347222 0.006699
vt 0.409739 0.006341
vt -0.000366 0.006341
vt 0.000366 -0.174602
vt 0.347222 -0.17496
vt 0.347222 -0.174602
vt -0.000366 0.007382
vt 0.000208 0.006425
vt 0.409739 0.006783
vt 0.000366 0.006783
vt -0.347222 0.006425
vt -0.000366 0.006783
vt -0.347222 0.006783
vt 0.000208 -0.17496
vt -0.409897 0.007061
vt 0.409897 0.006425
vt -0.000208 0.006425
vt -0.000208 0.007061
vt 0.000208 -0.125071
vt 0.347222 -0.125428
vt 0.347222 -0.125071
vt 0.000093 0.006396
vt 0.409897 0.006753
vt 0.000208 0.006753
vt -0.347222 0.006396
vt -0.000208 0.006753
vt -0.347222 0.006753
vt -0.410012 0.006722
vt 0.000093 -0.125428
vt 0.410012 0.006396
vt -0.000093 0.006396
vt -0.000093 0.006722
vt 0.000093 -0.073396
vt 0.347222 -0.073754
vt 0.347222 -0.073396
vt 0.000023 0.006254
vt 0.410012 0.006611
vt 0.000093 0.006611
vt -0.347222 0.006254
vt -0.000093 0.006611
vt -0.347222 0.006611
vt -0.410082 0.006372
vt 0.000023 -0.073754
vt 0.410082 0.006254
vt -0.000023 0.006254
vt -0.000023 0.006372
vt 0.000023 -0.020463
vt 0.347222 -0.02082
vt 0.347222 -0.020463
vt 0 0.006002
vt 0.410082 0.00636
vt 0.000023 0.00636
vt -0.347222 0.006002
vt -0.000023 0.00636
vt -0.347222 0.00636
vt -0.410105 0.006015
vt 0 -0.02082
vt 0.410105 0.006002
vt 0 0.006015
vt 0.000023 0.032467
vt 0.347222 0.032824
vt 0 0.032824
vt 0.000023 0.005644
vt -0.000023 0.005644
vt -0.410082 0.005658
vt 0.347222 0.032467
vt 0.410082 0.005644
vt -0.347222 0.005644
vt -0.000023 0.005658
vt 0.000093 0.085195
vt 0.347222 0.085552
vt 0.000023 0.085552
vt 0.000093 0.005187
vt 0.410082 0.005545
vt 0.000023 0.005545
vt -0.347222 0.005545
vt -0.000093 0.005187
vt -0.000023 0.005545
vt -0.410012 0.005307
vt 0.347222 0.085195
vt 0.410012 0.005187
vt -0.347222 0.005187
vt -0.000093 0.005307
vt 0.000208 0.136462
vt 0.347222 0.13682
vt 0.000093 0.13682
vt 0.000208 0.004638
vt 0.410012 0.004996
vt 0.000093 0.004996
vt -0.347222 0.004996
vt -0.000208 0.004638
vt -0.000093 0.004996
vt -0.409897 0.004969
vt 0.347222 0.136462
vt 0.409897 0.004638
vt -0.347222 0.004638
vt -0.000208 0.004969
vt 0.000366 0.185391
vt 0.347222 0.185749
vt 0.000208 0.185749
vt 0.000366 0.004007
vt 0.409897 0.004364
vt 0.000208 0.004364
vt -0.347222 0.004364
vt -0.000366 0.004007
vt -0.000208 0.004364
vt -0.409739 0.004648
vt 0.347222 0.185391
vt 0.409739 0.004007
vt -0.347222 0.004007
vt -0.000366 0.004648
vt 0.000565 0.231146
vt 0.347222 0.231503
vt 0.000366 0.231503
vt 0.000565 0.003303
vt 0.409739 0.003661
vt 0.000366 0.003661
vt -0.347222 0.003661
vt -0.000565 0.003303
vt -0.000366 0.003661
vt -0.40954 0.00435
vt 0.347222 0.231146
vt 0.40954 0.003303
vt -0.347222 0.003303
vt -0.000565 0.00435
vt 0.000801 0.272942
vt 0.347222 0.273299
vt 0.000565 0.273299
vt 0.000801 0.002541
vt 0.40954 0.002898
vt 0.000565 0.002898
vt -0.347222 0.002898
vt -0.000801 0.002541
vt -0.000565 0.002898
vt -0.409304 0.004082
vt 0.347222 0.272942
vt 0.409304 0.002541
vt -0.347222 0.002541
vt -0.000801 0.004082
vt 0.00107 0.310065
vt 0.347222 0.310422
vt 0.000801 0.310422
vt 0.00107 0.001732
vt 0.409304 0.002089
vt 0.000801 0.002089
vt -0.347222 0.001732
vt -0.000801 0.002089
vt -0.347222 0.002089
vt -0.409035 0.003846
vt 0.347222 0.310065
vt 0.409035 0.001732
vt -0.00107 0.001732
vt -0.00107 0.003846
vt 0.001367 0.341879
vt 0.347222 0.342237
vt 0.00107 0.342237
vt 0.001367 0.00089
vt 0.409035 0.001247
vt 0.00107 0.001247
vt -0.347222 0.00089
vt -0.00107 0.001247
vt -0.347222 0.001247
vt -0.408738 0.003647
vt 0.347222 0.341879
vt 0.408738 0.00089
vt -0.001367 0.00089
vt -0.001367 0.003647
vt 0.001688 0.367841
vt 0.347222 0.368199
vt 0.001367 0.368199
vt 0.001688 0.000029
vt 0.408738 0.000387
vt 0.001367 0.000387
vt -0.347222 0.000029
vt -0.001367 0.000387
vt -0.347222 0.000387
vt -0.408417 0.003489
vt 0.347222 0.367841
vt 0.408417 0.000029
vt -0.001688 0.000029
vt -0.001688 0.003489
vt 0.002026 0.387506
vt 0.347222 0.387864
vt 0.001688 0.387864
vt 0.002026 -0.000834
vt 0.408417 -0.000477
vt 0.001688 -0.000477
vt -0.347222 -0.000834
vt -0.001688 -0.000477
vt -0.347222 -0.000477
vt -0.408079 0.003374
vt 0.347222 0.387506
vt 0.408079 -0.000834
vt -0.002026 -0.000834
vt -0.002026 0.003374
vt 0.002377 0.400538
vt 0.347222 0.400896
vt 0.002026 0.400896
vt 0.002377 -0.001687
vt 0.408079 -0.001329
vt 0.002026 -0.001329
vt -0.347222 -0.001687
vt -0.002026 -0.001329
vt -0.347222 -0.001329
vt -0.407728 0.003304
vt 0.347222 0.400538
vt 0.407728 -0.001687
vt -0.002377 -0.001687
vt -0.002377 0.003304
vt 0.002734 0.406713
vt 0.347222 0.407071
vt 0.002377 0.407071
vt 0.002734 -0.002514
vt 0.407728 -0.002156
vt 0.002377 -0.002156
vt -0.347222 -0.002514
vt -0.002377 -0.002156
vt -0.347222 -0.002156
vt -0.407371 0.003281
vt 0.347222 0.406713
vt 0.407371 -0.002514
vt -0.002734 -0.002514
vt -0.002734 0.003281
vt 0.002734 0.003281
vt 0.347222 0.002734
vt 0.347222 0.003281
vt 0.407371 0.003281
vt -0.347222 0.003281
vt -0.002734 0.002734
vt -0.407371 0.002734
vt -0.347222 0.002734
vt 0.003262 0.406644
vt 0.347222 0.407173
vt 0.002734 0.407173
vt 0.003262 -0.003154
vt 0.407371 -0.002626
vt 0.002734 -0.002626
vt -0.347222 -0.003154
vt -0.002734 -0.002626
vt -0.347222 -0.002626
vt -0.406843 0.002714
vt 0.347222 0.406644
vt 0.406843 -0.003154
vt -0.003262 -0.003154
vt -0.003262 0.002714
vt 0.003786 0.403899
vt 0.347222 0.404427
vt 0.003262 0.404427
vt 0.003786 -0.003454
vt 0.406843 -0.002926
vt 0.003262 -0.002926
vt -0.347222 -0.003454
vt -0.003262 -0.002926
vt -0.347222 -0.002926
vt -0.406319 0.002653
vt 0.347222 0.403899
vt 0.406319 -0.003454
vt -0.003786 -0.003454
vt -0.003786 0.002653
vt 0.004304 0.398741
vt 0.347222 0.399269
vt 0.003786 0.399269
vt 0.004304 -0.003735
vt 0.406319 -0.003206
vt 0.003786 -0.003206
vt -0.347222 -0.003735
vt -0.003786 -0.003206
vt -0.347222 -0.003206
vt -0.405801 0.002551
vt 0.347222 0.398741
vt 0.405801 -0.003735
vt -0.004304 -0.003735
vt -0.004304 0.002551
vt 0.004813 0.391202
vt 0.347222 0.39173
vt 0.004304 0.39173
vt 0.004813 -0.003994
vt 0.405801 -0.003466
vt 0.004304 -0.003466
vt -0.347222 -0.003994
vt -0.004304 -0.003466
vt -0.347222 -0.003466
vt -0.405292 0.00241
vt 0.347222 0.391202
vt 0.405292 -0.003994
vt -0.004813 -0.003994
vt -0.004813 0.00241
vt 0.00531 0.381327
vt 0.347222 0.381855
vt 0.004813 0.381855
vt 0.00531 -0.004232
vt 0.405292 -0.003704
vt 0.004813 -0.003704
vt -0.347222 -0.004232
vt -0.004813 -0.003704
vt -0.347222 -0.003704
vt -0.404795 0.00223
vt 0.347222 0.381327
vt 0.404795 -0.004232
vt -0.00531 -0.004232
vt -0.00531 0.00223
vt 0.005791 0.369174
vt 0.347222 0.369702
vt 0.00531 0.369702
vt 0.005791 -0.004446
vt 0.404795 -0.003918
vt 0.00531 -0.003918
vt -0.347222 -0.004446
vt -0.00531 -0.003918
vt -0.347222 -0.003918
vt -0.404314 0.002012
vt 0.347222 0.369174
vt 0.404314 -0.004446
vt -0.005791 -0.004446
vt -0.005791 0.002012
vt 0.006254 0.354816
vt 0.347222 0.355344
vt 0.005791 0.355344
vt 0.006254 -0.004635
vt 0.404314 -0.004107
vt 0.005791 -0.004107
vt -0.347222 -0.004635
vt -0.005791 -0.004107
vt -0.347222 -0.004107
vt -0.403851 0.001758
vt 0.347222 0.354816
vt 0.403851 -0.004635
vt -0.006254 -0.004635
vt -0.006254 0.001758
vt 0.006695 0.338339
vt 0.347222 0.338867
vt 0.006254 0.338867
vt 0.006695 -0.004798
vt 0.403851 -0.00427
vt 0.006254 -0.00427
vt -0.347222 -0.004798
vt -0.006254 -0.00427
vt -0.347222 -0.00427
vt -0.40341 0.001469
vt 0.347222 0.338339
vt 0.40341 -0.004798
vt -0.006695 -0.004798
vt -0.006695 0.001469
vt 0.007114 0.319841
vt 0.347222 0.320369
vt 0.006695 0.320369
vt 0.007114 -0.004933
vt 0.40341 -0.004405
vt 0.006695 -0.004405
vt -0.347222 -0.004933
vt -0.006695 -0.004405
vt -0.347222 -0.004405
vt -0.402991 0.001147
vt 0.347222 0.319841
vt 0.402991 -0.004933
vt -0.007114 -0.004933
vt -0.007114 0.001147
vt 0.007506 0.299432
vt 0.347222 0.29996
vt 0.007114 0.29996
vt 0.007506 -0.005041
vt 0.402991 -0.004513
vt 0.007114 -0.004513
vt -0.347222 -0.005041
vt -0.007114 -0.004513
vt -0.347222 -0.004513
vt -0.402599 0.000793
vt 0.347222 0.299432
vt 0.402599 -0.005041
vt -0.007506 -0.005041
vt -0.007506 0.000793
vt 0.007869 0.277235
vt 0.347222 0.277763
vt 0.007506 0.277763
vt 0.007869 -0.005121
vt 0.402599 -0.004593
vt 0.007506 -0.004593
vt -0.347222 -0.004593
vt -0.007869 -0.005121
vt -0.007506 -0.004593
vt -0.402236 0.00041
vt 0.347222 0.277235
vt 0.402236 -0.005121
vt -0.347222 -0.005121
vt -0.007869 0.00041
vt 0.008202 0.253381
vt 0.347222 0.253909
vt 0.007869 0.253909
vt 0.008202 -0.005171
vt 0.402236 -0.004643
vt 0.007869 -0.004643
vt -0.347222 -0.004643
vt -0.008202 -0.005171
vt -0.007869 -0.004643
vt -0.401903 0
vt 0.347222 0.253381
vt 0.401903 -0.005171
vt -0.347222 -0.005171
vt -0.008202 0
vt -0.008202 0.008202
vt -0.401903 0.347222
vt -0.401903 0.008202
vt -0.008202 0.347222
vn 0.13052598533534113 0.9914448886106773 0
vn 0.2588189595935754 0.965925849201117 0
vn -0.13052598533534113 -0.9914448886106773 0
vn -0.2588189595935754 -0.965925849201117 0
vn 0 0 -1
vn 0 0 1
vn 0.06540299554311302 0.9978589320009054 0
vn -0.06540299554311302 -0.9978589320009054 0
vn 0 0.9914448886106773 0.13052598533534135
vn 0 0.965925849201117 0.25881895959357565
vn 0 -0.9914448886106773 -0.13052598533534135
vn 0 -0.965925849201117 -0.25881895959357565
vn 0.38268289803626016 0.9238797538373538 0
vn -0.38268289803626016 -0.9238797538373538 0
vn 0 0.9978589320009053 0.06540299554311324
vn 0 -0.9978589320009053 -0.06540299554311324
vn -0.2588189595935754 0.965925849201117 0
vn -0.13052598533534113 0.9914448886106773 0
vn 0.13052598533534113 -0.9914448886106773 0
vn 0.2588189595935754 -0.965925849201117 0
vn -0.06540299554311302 0.9978589320009054 0
vn 0.06540299554311302 -0.9978589320009054 0
vn 0 1 0
vn 0 -1 0
vn 0 0.9238797538373537 0.3826828980362603
vn 0 -0.9238797538373537 -0.3826828980362603
vn 0.5000001748438417 0.8660253028382762 0
vn -0.5000001748438417 -0.8660253028382762 0
vn -0.38268289803626016 0.9238797538373538 0
vn 0.38268289803626016 -0.9238797538373538 0
vn 0 0.866025302838276 0.5000001748438418
vn 0 -0.866025302838276 -0.5000001748438418
vn 0.6087613233345314 0.7933534213778813 0
vn -0.6087613233345314 -0.7933534213778813 0
vn -0.5000001748438417 0.8660253028382762 0
vn 0.5000001748438417 -0.8660253028382762 0
vn 0 0.7933534213778812 0.6087613233345316
vn 0 -0.7933534213778812 -0.6087613233345316
vn 0.7071067811865475 0.7071067811865475 0
vn -0.7071067811865475 -0.7071067811865475 0
vn -0.6087613233345314 0.7933534213778813 0
vn 0.6087613233345314 -0.7933534213778813 0
vn 0 0.7071067811865474 0.7071067811865477
vn 0 -0.7071067811865474 -0.7071067811865477
vn 0.7933534213778813 0.6087613233345314 0
vn -0.7933534213778813 -0.6087613233345314 0
vn -0.7071067811865475 0.7071067811865475 0
vn 0.7071067811865475 -0.7071067811865475 0
vn 0 0.6087613233345311 0.7933534213778816
vn 0 -0.6087613233345311 -0.7933534213778816
vn 0.8660253028382762 0.5000001748438417 0
vn -0.8660253028382762 -0.5000001748438417 0
vn -0.7933534213778813 0.6087613233345314 0
vn 0.7933534213778813 -0.6087613233345314 0
vn 0 0.5000001748438414 0.8660253028382762
vn 0 -0.5000001748438414 -0.8660253028382762
vn -0.8660253028382762 0.5000001748438417 0
vn 0.8660253028382762 -0.5000001748438417 0
vn 0.9238797538373538 0.38268289803626016 0
vn -0.9238797538373538 -0.38268289803626016 0
vn 0 0.38268289803625993 0.9238797538373538
vn 0 -0.38268289803625993 -0.9238797538373538
vn -0.9238797538373538 0.38268289803626016 0
vn 0.9238797538373538 -0.38268289803626016 0
vn 0.965925849201117 0.2588189595935754 0
vn -0.965925849201117 -0.2588189595935754 0
vn 0 0.2588189595935752 0.965925849201117
vn 0 -0.2588189595935752 -0.965925849201117
vn -0.965925849201117 0.2588189595935754 0
vn 0.965925849201117 -0.2588189595935754 0
vn 0.9914448886106773 0.13052598533534113 0
vn -0.9914448886106773 -0.13052598533534113 0
vn 0 0.1305259853353409 0.9914448886106773
vn 0 -0.1305259853353409 -0.9914448886106773
vn -0.9914448886106773 0.13052598533534113 0
vn 0.9914448886106773 -0.13052598533534113 0
vn 1 0 0
vn -1 0 0
vn 0 -0.13052598533534135 0.9914448886106773
vn 0 0.13052598533534135 -0.9914448886106773
vn 0 -0.25881895959357565 0.965925849201117
vn 0 0.25881895959357565 -0.965925849201117
vn 0 -0.3826828980362603 0.9238797538373537
vn 0 0.3826828980362603 -0.9238797538373537
vn 0 -0.5000001748438418 0.866025302838276
vn 0 0.5000001748438418 -0.866025302838276
vn 0 -0.6087613233345316 0.7933534213778812
vn 0 0.6087613233345316 -0.7933534213778812
vn 0 -0.7071067811865477 0.7071067811865474
vn 0 0.7071067811865477 -0.7071067811865474
vn 0 -0.7933534213778816 0.6087613233345311
vn 0 0.7933534213778816 -0.6087613233345311
vn 0 -0.8660253028382762 0.5000001748438414
vn 0 0.8660253028382762 -0.5000001748438414
vn 0 -0.9238797538373538 0.38268289803625993
vn 0 0.9238797538373538 -0.38268289803625993
vn 0 -0.965925849201117 0.2588189595935752
vn 0 0.965925849201117 -0.2588189595935752
vn 0 -0.9914448886106773 0.1305259853353409
vn 0 0.9914448886106773 -0.1305259853353409
vn 0 -0.9978589320009054 0.06540299554311281
vn 0 0.9978589320009054 -0.06540299554311281
vn 0.07719798319168496 -0.9970157829197773 0
vn 0.03862798688773208 -0.9992536608034024 0
vn -0.03862798688773208 0.9992536608034024 0
vn -0.07719798319168496 0.9970157829197773 0
vn 0 -0.9970157829197773 0.07719798319168474
vn 0 -0.9992536608034024 0.038627986887731856
vn 0 0.9992536608034024 -0.038627986887731856
vn 0 0.9970157829197773 -0.07719798319168474
vn -0.07719798319168496 -0.9970157829197773 0
vn -0.03862798688773208 -0.9992536608034024 0
vn 0.03862798688773208 0.9992536608034024 0
vn 0.07719798319168496 0.9970157829197773 0
vn 0.1539349963989987 -0.9880809768858221 0
vn -0.1539349963989987 0.9880809768858221 0
vn 0 -0.9880809768858221 0.1539349963989985
vn 0 0.9880809768858221 -0.1539349963989985
vn -0.1539349963989987 -0.9880809768858221 0
vn 0.1539349963989987 0.9880809768858221 0
vn 0.22975299345089106 -0.9732489722575385 0
vn -0.22975299345089106 0.9732489722575385 0
vn 0 -0.9732489722575385 0.22975299345089084
vn 0 0.9732489722575385 -0.22975299345089084
vn -0.22975299345089106 -0.9732489722575385 0
vn 0.22975299345089106 0.9732489722575385 0
vn 0.30420005450292026 -0.9526081706769159 0
vn -0.30420005450292026 0.9526081706769159 0
vn 0 -0.952608170676916 0.3042000545029201
vn 0 0.952608170676916 -0.3042000545029201
vn -0.30420005450292026 -0.9526081706769159 0
vn 0.30420005450292026 0.9526081706769159 0
vn 0.376831010158422 -0.926282024970248 0
vn -0.376831010158422 0.926282024970248 0
vn 0 -0.9262820249702483 0.3768310101584219
vn 0 0.9262820249702483 -0.3768310101584219
vn -0.376831010158422 -0.926282024970248 0
vn 0.376831010158422 0.926282024970248 0
vn 0.4472139954999092 -0.8944269909998285 0
vn -0.4472139954999092 0.8944269909998285 0
vn 0 -0.8944269909998286 0.447213995499909
vn 0 0.8944269909998286 -0.447213995499909
vn -0.4472139954999092 -0.8944269909998285 0
vn 0.4472139954999092 0.8944269909998285 0
vn 0.5149270138811451 -0.8572340231088864 0
vn -0.5149270138811451 0.8572340231088864 0
vn 0 -0.8572340231088866 0.5149270138811449
vn 0 0.8572340231088866 -0.5149270138811449
vn -0.5149270138811451 -0.8572340231088864 0
vn 0.5149270138811451 0.8572340231088864 0
vn 0.5795668078405998 -0.8149247298060461 0
vn -0.5795668078405998 0.8149247298060461 0
vn 0 -0.8149247298060462 0.5795668078405996
vn 0 0.8149247298060462 -0.5795668078405996
vn -0.5795668078405998 -0.8149247298060461 0
vn 0.5795668078405998 0.8149247298060461 0
vn 0.6407470475713052 -0.767752057000602 0
vn -0.6407470475713052 0.767752057000602 0
vn 0 -0.7677520570006022 0.6407470475713051
vn 0 0.7677520570006022 -0.6407470475713051
vn -0.6407470475713052 -0.767752057000602 0
vn 0.6407470475713052 0.767752057000602 0
vn 0.6981041861034312 -0.715996190873154 0
vn -0.6981041861034312 0.715996190873154 0
vn 0 -0.7159961908731542 0.6981041861034311
vn 0 0.7159961908731542 -0.6981041861034311
vn -0.6981041861034312 -0.715996190873154 0
vn 0.6981041861034312 0.715996190873154 0
vn 0.7512938364208108 -0.6599678563052144 0
vn -0.7512938364208108 0.6599678563052144 0
vn 0 -0.6599678563052145 0.7512938364208107
vn 0 0.6599678563052145 -0.7512938364208107
vn -0.7512938364208108 -0.6599678563052144 0
vn 0.7512938364208108 0.6599678563052144 0
vn 0.7762263690212085 -0.6304542997205671 0
vn -0.7762263690212085 0.6304542997205671 0
vn 0 -0.6304542997205673 0.7762263690212082
vn 0 0.6304542997205673 -0.7762263690212082
vn -0.7762263690212085 -0.6304542997205671 0
vn 0.7762263690212085 0.6304542997205671 0
usemtl material_0_0
f 1/1/1 2/2/2 3/3/1
f 2/2/2 1/1/1 4/4/2
f 3/3/3 2/2/4 1/1/3
f 4/4/4 1/1/3 2/2/4
f 2/5/5 5/6/5 3/7/5
f 3/7/6 5/6/6 2/5/6
f 3/8/1 6/9/7 1/10/1
f 1/10/3 6/9/8 3/8/3
f 7/11/9 4/12/10 1/13/9
f 1/13/11 4/12/12 7/11/11
f 4/14/2 8/15/13 2/16/2
f 2/16/4 8/15/14 4/14/4
f 2/5/5 9/17/5 5/6/5
f 5/6/6 9/17/6 2/5/6
f 3/7/5 5/6/5 10/18/5
f 10/18/6 5/6/6 3/7/6
f 6/9/7 3/8/1 11/19/7
f 11/19/8 3/8/3 6/9/8
f 12/20/15 1/21/9 6/22/15
f 6/22/16 1/21/11 12/20/16
f 4/12/10 7/11/9 13/23/10
f 13/23/12 7/11/11 4/12/12
f 1/21/9 12/20/15 7/24/9
f 7/24/11 12/20/16 1/21/11
f 8/15/13 4/14/2 14/25/13
f 14/25/14 4/14/4 8/15/14
f 8/26/5 9/17/5 2/5/5
f 2/5/6 9/17/6 8/26/6
f 9/27/17 7/28/18 5/29/18
f 5/29/19 7/28/19 9/27/20
f 5/30/18 12/31/21 10/32/21
f 10/32/22 12/31/22 5/30/19
f 3/7/5 10/18/5 11/33/5
f 11/33/6 10/18/6 3/7/6
f 10/34/23 6/35/23 11/36/23
f 11/36/24 6/35/24 10/34/24
f 6/35/23 10/34/23 12/37/23
f 12/37/24 10/34/24 6/35/24
f 7/28/18 9/27/17 13/38/17
f 13/38/20 9/27/20 7/28/19
f 13/39/10 14/40/25 4/41/10
f 4/41/12 14/40/26 13/39/12
f 12/31/21 5/30/18 7/42/18
f 7/42/19 5/30/19 12/31/22
f 14/43/13 15/44/27 8/45/13
f 8/45/14 15/44/28 14/43/14
f 8/26/5 16/46/5 9/17/5
f 9/17/6 16/46/6 8/26/6
f 16/47/29 13/48/17 9/49/17
f 9/49/20 13/48/20 16/47/30
f 14/40/25 13/39/10 17/50/25
f 17/50/26 13/39/12 14/40/26
f 15/44/27 14/43/13 18/51/27
f 18/51/28 14/43/14 15/44/28
f 15/52/5 16/46/5 8/26/5
f 8/26/6 16/46/6 15/52/6
f 13/48/17 16/47/29 17/53/29
f 17/53/30 16/47/30 13/48/20
f 17/54/25 18/55/31 14/56/25
f 14/56/26 18/55/32 17/54/26
f 18/57/27 19/58/33 15/59/27
f 15/59/28 19/58/34 18/57/28
f 15/52/5 20/60/5 16/46/5
f 16/46/6 20/60/6 15/52/6
f 20/61/35 17/62/29 16/63/29
f 16/63/30 17/62/30 20/61/36
f 18/55/31 17/54/25 21/64/31
f 21/64/32 17/54/26 18/55/32
f 19/58/33 18/57/27 22/65/33
f 22/65/34 18/57/28 19/58/34
f 19/66/5 20/60/5 15/52/5
f 15/52/6 20/60/6 19/66/6
f 17/62/29 20/61/35 21/67/35
f 21/67/36 20/61/36 17/62/30
f 21/68/31 22/69/37 18/70/31
f 18/70/32 22/69/38 21/68/32
f 22/71/33 23/72/39 19/73/33
f 19/73/34 23/72/40 22/71/34
f 19/66/5 24/74/5 20/60/5
f 20/60/6 24/74/6 19/66/6
f 24/75/41 21/76/35 20/77/35
f 20/77/36 21/76/36 24/75/42
f 22/69/37 21/68/31 25/78/37
f 25/78/38 21/68/32 22/69/38
f 23/72/39 22/71/33 26/79/39
f 26/79/40 22/71/34 23/72/40
f 23/80/5 24/74/5 19/66/5
f 19/66/6 24/74/6 23/80/6
f 21/76/35 24/75/41 25/81/41
f 25/81/42 24/75/42 21/76/36
f 25/82/37 26/83/43 22/84/37
f 22/84/38 26/83/44 25/82/38
f 26/85/39 27/86/45 23/87/39
f 23/87/40 27/86/46 26/85/40
f 23/80/5 28/88/5 24/74/5
f 24/74/6 28/88/6 23/80/6
f 28/89/47 25/90/41 24/91/41
f 24/91/42 25/90/42 28/89/48
f 26/83/43 25/82/37 29/92/43
f 29/92/44 25/82/38 26/83/44
f 27/86/45 26/85/39 30/93/45
f 30/93/46 26/85/40 27/86/46
f 27/94/5 28/88/5 23/80/5
f 23/80/6 28/88/6 27/94/6
f 25/90/41 28/89/47 29/95/47
f 29/95/48 28/89/48 25/90/42
f 31/96/49 26/97/43 29/98/43
f 29/98/44 26/97/44 31/96/50
f 26/97/43 31/96/49 30/99/49
f 30/99/50 31/96/50 26/97/44
f 30/100/45 32/101/51 27/102/45
f 27/102/46 32/101/52 30/100/46
f 27/94/5 33/103/5 28/88/5
f 28/88/6 33/103/6 27/94/6
f 33/104/53 29/105/47 28/106/47
f 28/106/48 29/105/48 33/104/54
f 29/105/47 33/104/53 31/107/53
f 31/107/54 33/104/54 29/105/48
f 34/108/55 30/109/49 31/110/49
f 31/110/50 30/109/50 34/108/56
f 32/101/51 30/100/45 35/111/51
f 35/111/52 30/100/46 32/101/52
f 32/112/5 33/103/5 27/94/5
f 27/94/6 33/103/6 32/112/6
f 36/113/57 31/114/53 33/115/53
f 33/115/54 31/114/54 36/113/58
f 30/109/49 34/108/55 35/116/55
f 35/116/56 34/108/56 30/109/50
f 31/114/53 36/113/57 34/117/57
f 34/117/58 36/113/58 31/114/54
f 35/118/51 37/119/59 32/120/51
f 32/120/52 37/119/60 35/118/52
f 32/112/5 36/121/5 33/103/5
f 33/103/6 36/121/6 32/112/6
f 38/122/61 35/123/55 34/124/55
f 34/124/56 35/123/56 38/122/62
f 39/125/63 34/126/57 36/127/57
f 36/127/58 34/126/58 39/125/64
f 37/119/59 35/118/51 40/128/59
f 40/128/60 35/118/52 37/119/60
f 37/129/5 36/121/5 32/112/5
f 32/112/6 36/121/6 37/129/6
f 35/123/55 38/122/61 40/130/61
f 40/130/62 38/122/62 35/123/56
f 34/126/57 39/125/63 38/131/63
f 38/131/64 39/125/64 34/126/58
f 37/129/5 39/132/5 36/121/5
f 36/121/6 39/132/6 37/129/6
f 40/133/59 41/134/65 37/135/59
f 37/135/60 41/134/66 40/133/60
f 42/136/67 40/137/61 38/138/61
f 38/138/62 40/137/62 42/136/68
f 43/139/69 38/140/63 39/141/63
f 39/141/64 38/140/64 43/139/70
f 41/142/5 39/132/5 37/129/5
f 37/129/6 39/132/6 41/142/6
f 41/134/65 40/133/59 44/143/65
f 44/143/66 40/133/60 41/134/66
f 40/137/61 42/136/67 44/144/67
f 44/144/68 42/136/68 40/137/62
f 38/140/63 43/139/69 42/145/69
f 42/145/70 43/139/70 38/140/64
f 41/142/5 43/146/5 39/132/5
f 39/132/6 43/146/6 41/142/6
f 44/147/65 45/148/71 41/149/65
f 41/149/66 45/148/72 44/147/66
f 46/150/73 44/151/67 42/152/67
f 42/152/68 44/151/68 46/150/74
f 47/153/75 42/154/69 43/155/69
f 43/155/70 42/154/70 47/153/76
f 45/156/5 43/146/5 41/142/5
f 41/142/6 43/146/6 45/156/6
f 45/148/71 44/147/65 48/157/71
f 48/157/72 44/147/66 45/148/72
f 44/151/67 46/150/73 48/158/73
f 48/158/74 46/150/74 44/151/68
f 42/154/69 47/153/75 46/159/75
f 46/159/76 47/153/76 42/154/70
f 45/156/5 47/160/5 43/146/5
f 43/146/6 47/160/6 45/156/6
f 48/161/71 49/162/77 45/163/71
f 45/163/72 49/162/78 48/161/72
f 50/164/6 48/165/73 46/166/73
f 46/166/74 48/165/74 50/164/5
f 51/167/78 46/168/75 47/169/75
f 47/169/76 46/168/76 51/167/77
f 49/170/5 47/160/5 45/156/5
f 45/156/6 47/160/6 49/170/6
f 49/162/77 48/161/71 52/171/77
f 52/171/78 48/161/72 49/162/78
f 48/165/73 50/164/6 52/172/6
f 52/172/5 50/164/5 48/165/74
f 46/168/75 51/167/78 50/164/78
f 50/164/77 51/167/77 46/168/76
f 49/170/5 51/173/5 47/160/5
f 47/160/6 51/173/6 49/170/6
f 53/174/76 49/175/77 52/176/77
f 52/176/78 49/175/78 53/174/75
f 54/177/79 52/172/6 50/164/6
f 50/164/5 52/172/5 54/177/80
f 51/167/78 54/178/72 50/164/78
f 50/164/77 54/178/71 51/167/77
f 55/179/5 51/173/5 49/170/5
f 49/170/6 51/173/6 55/179/6
f 49/175/77 53/174/76 55/180/76
f 55/180/75 53/174/75 49/175/78
f 52/172/6 54/177/79 53/181/79
f 53/181/80 54/177/80 52/172/5
f 54/178/72 51/167/78 56/182/72
f 56/182/71 51/167/77 54/178/71
f 55/179/5 56/183/5 51/173/5
f 51/173/6 56/183/6 55/179/6
f 57/184/70 55/185/76 53/186/76
f 53/186/75 55/185/75 57/184/69
f 58/187/81 53/188/79 54/189/79
f 54/189/80 53/188/80 58/187/82
f 56/190/72 58/191/66 54/192/72
f 54/192/71 58/191/65 56/190/71
f 59/193/5 56/183/5 55/179/5
f 55/179/6 56/183/6 59/193/6
f 55/185/76 57/184/70 59/194/70
f 59/194/69 57/184/69 55/185/75
f 53/188/79 58/187/81 57/195/81
f 57/195/82 58/187/82 53/188/80
f 58/191/66 56/190/72 60/196/66
f 60/196/65 56/190/71 58/191/65
f 59/193/5 60/197/5 56/183/5
f 56/183/6 60/197/6 59/193/6
f 61/198/64 59/199/70 57/200/70
f 57/200/69 59/199/69 61/198/63
f 62/201/83 57/202/81 58/203/81
f 58/203/82 57/202/82 62/201/84
f 60/204/66 62/205/60 58/206/66
f 58/206/65 62/205/59 60/204/65
f 63/207/5 60/197/5 59/193/5
f 59/193/6 60/197/6 63/207/6
f 59/199/70 61/198/64 63/208/64
f 63/208/63 61/198/63 59/199/69
f 57/202/81 62/201/83 61/209/83
f 61/209/84 62/201/84 57/202/82
f 62/205/60 60/204/66 64/210/60
f 64/210/59 60/204/65 62/205/59
f 63/207/5 64/211/5 60/197/5
f 60/197/6 64/211/6 63/207/6
f 65/212/58 63/213/64 61/214/64
f 61/214/63 63/213/63 65/212/57
f 66/215/85 61/216/83 62/217/83
f 62/217/84 61/216/84 66/215/86
f 64/218/60 66/219/52 62/220/60
f 62/220/59 66/219/51 64/218/59
f 67/221/5 64/211/5 63/207/5
f 63/207/6 64/211/6 67/221/6
f 63/213/64 65/212/58 67/222/58
f 67/222/57 65/212/57 63/213/63
f 61/216/83 66/215/85 65/223/85
f 65/223/86 66/215/86 61/216/84
f 66/219/52 64/218/60 68/224/52
f 68/224/51 64/218/59 66/219/51
f 67/221/5 68/225/5 64/211/5
f 64/211/6 68/225/6 67/221/6
f 69/226/54 67/227/58 65/228/58
f 65/228/57 67/227/57 69/226/53
f 70/229/87 65/230/85 66/231/85
f 66/231/86 65/230/86 70/229/88
f 68/232/52 70/233/46 66/234/52
f 66/234/51 70/233/45 68/232/51
f 71/235/5 68/225/5 67/221/5
f 67/221/6 68/225/6 71/235/6
f 67/227/58 69/226/54 71/236/54
f 71/236/53 69/226/53 67/227/57
f 65/230/85 70/229/87 69/237/87
f 69/237/88 70/229/88 65/230/86
f 70/233/46 68/232/52 72/238/46
f 72/238/45 68/232/51 70/233/45
f 71/235/5 72/239/5 68/225/5
f 68/225/6 72/239/6 71/235/6
f 73/240/48 71/241/54 69/242/54
f 69/242/53 71/241/53 73/240/47
f 74/243/89 69/244/87 70/245/87
f 70/245/88 69/244/88 74/243/90
f 72/246/46 74/247/40 70/248/46
f 70/248/45 74/247/39 72/246/45
f 75/249/5 72/239/5 71/235/5
f 71/235/6 72/239/6 75/249/6
f 71/241/54 73/240/48 75/250/48
f 75/250/47 73/240/47 71/241/53
f 69/244/87 74/243/89 73/251/89
f 73/251/90 74/243/90 69/244/88
f 74/247/40 72/246/46 76/252/40
f 76/252/39 72/246/45 74/247/39
f 75/249/5 76/253/5 72/239/5
f 72/239/6 76/253/6 75/249/6
f 77/254/42 75/255/48 73/256/48
f 73/256/47 75/255/47 77/254/41
f 78/257/91 73/258/89 74/259/89
f 74/259/90 73/258/90 78/257/92
f 79/260/34 74/261/40 76/262/40
f 76/262/39 74/261/39 79/260/33
f 80/263/5 76/253/5 75/249/5
f 75/249/6 76/253/6 80/263/6
f 75/255/48 77/254/42 80/264/42
f 80/264/41 77/254/41 75/255/47
f 73/258/89 78/257/91 77/265/91
f 77/265/92 78/257/92 73/258/90
f 74/261/40 79/260/34 78/266/34
f 78/266/33 79/260/33 74/261/39
f 80/263/5 79/267/5 76/253/5
f 76/253/6 79/267/6 80/263/6
f 81/268/36 80/269/42 77/270/42
f 77/270/41 80/269/41 81/268/35
f 82/271/93 77/272/91 78/273/91
f 78/273/92 77/272/92 82/271/94
f 83/274/28 78/275/34 79/276/34
f 79/276/33 78/275/33 83/274/27
f 84/277/5 79/267/5 80/263/5
f 80/263/6 79/267/6 84/277/6
f 80/269/42 81/268/36 84/278/36
f 84/278/35 81/268/35 80/269/41
f 77/272/91 82/271/93 81/279/93
f 81/279/94 82/271/94 77/272/92
f 78/275/34 83/274/28 82/280/28
f 82/280/27 83/274/27 78/275/33
f 84/277/5 83/281/5 79/267/5
f 79/267/6 83/281/6 84/277/6
f 85/282/30 84/283/36 81/284/36
f 81/284/35 84/283/35 85/282/29
f 86/285/95 81/286/93 82/287/93
f 82/287/94 81/286/94 86/285/96
f 87/288/14 82/289/28 83/290/28
f 83/290/27 82/289/27 87/288/13
f 88/291/5 83/281/5 84/277/5
f 84/277/6 83/281/6 88/291/6
f 84/283/36 85/282/30 88/292/30
f 88/292/29 85/282/29 84/283/35
f 81/286/93 86/285/95 85/293/95
f 85/293/96 86/285/96 81/286/94
f 82/289/28 87/288/14 86/294/14
f 86/294/13 87/288/13 82/289/27
f 88/291/5 87/295/5 83/281/5
f 83/281/6 87/295/6 88/291/6
f 89/296/20 88/297/30 85/298/30
f 85/298/29 88/297/29 89/296/17
f 90/299/97 85/300/95 86/301/95
f 86/301/96 85/300/96 90/299/98
f 91/302/4 86/303/14 87/304/14
f 87/304/13 86/303/13 91/302/2
f 92/305/5 87/295/5 88/291/5
f 88/291/6 87/295/6 92/305/6
f 88/297/30 89/296/20 92/306/20
f 92/306/17 89/296/17 88/297/29
f 85/300/95 90/299/97 89/307/97
f 89/307/98 90/299/98 85/300/96
f 86/303/14 91/302/4 90/308/4
f 90/308/2 91/302/2 86/303/13
f 92/305/5 91/309/5 87/295/5
f 87/295/6 91/309/6 92/305/6
f 93/310/19 92/311/20 89/312/20
f 89/312/17 92/311/17 93/310/18
f 94/313/99 89/314/97 90/315/97
f 90/315/98 89/314/98 94/313/100
f 95/316/3 90/317/4 91/318/4
f 91/318/2 90/317/2 95/316/1
f 96/319/5 91/309/5 92/305/5
f 92/305/6 91/309/6 96/319/6
f 92/311/20 93/310/19 96/320/19
f 96/320/18 93/310/18 92/311/17
f 89/314/97 94/313/99 93/321/99
f 93/321/100 94/313/100 89/314/98
f 90/317/4 95/316/3 94/322/3
f 94/322/1 95/316/1 90/317/2
f 96/319/5 95/323/5 91/309/5
f 91/309/6 95/323/6 96/319/6
f 97/324/22 96/325/19 93/326/19
f 93/326/18 96/325/18 97/324/21
f 98/327/101 93/328/99 94/329/99
f 94/329/100 93/328/100 98/327/102
f 99/330/8 94/331/3 95/332/3
f 95/332/1 94/331/1 99/330/7
f 100/333/5 95/323/5 96/319/5
f 96/319/6 95/323/6 100/333/6
f 96/325/19 97/324/22 100/334/22
f 100/334/21 97/324/21 96/325/18
f 93/328/99 98/327/101 97/335/101
f 97/335/102 98/327/102 93/328/100
f 94/331/3 99/330/8 98/336/8
f 98/336/7 99/330/7 94/331/1
f 100/333/5 99/337/5 95/323/5
f 95/323/6 99/337/6 100/333/6
f 97/338/77 101/339/77 100/340/77
f 100/340/78 101/339/78 97/338/78
f 102/37/6 97/341/6 98/338/6
f 98/338/5 97/341/5 102/37/5
f 99/342/78 102/343/78 98/337/78
f 98/337/77 102/343/77 99/342/77
f 101/344/5 99/337/5 100/333/5
f 100/333/6 99/337/6 101/344/6
f 101/339/77 97/338/77 103/37/77
f 103/37/78 97/338/78 101/339/78
f 97/341/6 102/37/6 103/35/6
f 103/35/5 102/37/5 97/341/5
f 102/343/78 99/342/78 104/345/78
f 104/345/77 99/342/77 102/343/77
f 101/344/5 104/343/5 99/337/5
f 99/337/6 104/343/6 101/344/6
f 105/346/103 101/347/104 103/348/104
f 103/348/105 101/347/105 105/346/106
f 106/349/107 103/350/108 102/351/108
f 102/351/109 103/350/109 106/349/110
f 107/352/111 102/353/112 104/354/112
f 104/354/113 102/353/113 107/352/114
f 108/355/5 104/343/5 101/344/5
f 101/344/6 104/343/6 108/355/6
f 101/347/104 105/346/103 108/356/103
f 108/356/106 105/346/106 101/347/105
f 103/350/108 106/349/107 105/357/107
f 105/357/110 106/349/110 103/350/109
f 102/353/112 107/352/111 106/358/111
f 106/358/114 107/352/114 102/353/113
f 108/355/5 107/359/5 104/343/5
f 104/343/6 107/359/6 108/355/6
f 109/360/115 108/361/103 105/362/103
f 105/362/106 108/361/106 109/360/116
f 110/363/117 105/364/107 106/365/107
f 106/365/110 105/364/110 110/363/118
f 111/366/119 106/367/111 107/368/111
f 107/368/114 106/367/114 111/366/120
f 112/369/5 107/359/5 108/355/5
f 108/355/6 107/359/6 112/369/6
f 108/361/103 109/360/115 112/370/115
f 112/370/116 109/360/116 108/361/106
f 105/364/107 110/363/117 109/371/117
f 109/371/118 110/363/118 105/364/110
f 106/367/111 111/366/119 110/372/119
f 110/372/120 111/366/120 106/367/114
f 112/369/5 111/373/5 107/359/5
f 107/359/6 111/373/6 112/369/6
f 113/374/121 112/375/115 109/376/115
f 109/376/116 112/375/116 113/374/122
f 114/377/123 109/378/117 110/379/117
f 110/379/118 109/378/118 114/377/124
f 115/380/125 110/381/119 111/382/119
f 111/382/120 110/381/120 115/380/126
f 116/383/5 111/373/5 112/369/5
f 112/369/6 111/373/6 116/383/6
f 112/375/115 113/374/121 116/384/121
f 116/384/122 113/374/122 112/375/116
f 109/378/117 114/377/123 113/385/123
f 113/385/124 114/377/124 109/378/118
f 110/381/119 115/380/125 114/386/125
f 114/386/126 115/380/126 110/381/120
f 116/383/5 115/387/5 111/373/5
f 111/373/6 115/387/6 116/383/6
f 117/388/127 116/389/121 113/390/121
f 113/390/122 116/389/122 117/388/128
f 118/391/129 113/392/123 114/393/123
f 114/393/124 113/392/124 118/391/130
f 119/394/131 114/395/125 115/396/125
f 115/396/126 114/395/126 119/394/132
f 120/397/5 115/387/5 116/383/5
f 116/383/6 115/387/6 120/397/6
f 116/389/121 117/388/127 120/398/127
f 120/398/128 117/388/128 116/389/122
f 113/392/123 118/391/129 117/399/129
f 117/399/130 118/391/130 113/392/124
f 114/395/125 119/394/131 118/400/131
f 118/400/132 119/394/132 114/395/126
f 120/397/5 119/401/5 115/387/5
f 115/387/6 119/401/6 120/397/6
f 121/402/133 120/403/127 117/404/127
f 117/404/128 120/403/128 121/402/134
f 122/405/135 117/406/129 118/407/129
f 118/407/130 117/406/130 122/405/136
f 123/408/137 118/409/131 119/410/131
f 119/410/132 118/409/132 123/408/138
f 124/411/5 119/401/5 120/397/5
f 120/397/6 119/401/6 124/411/6
f 120/403/127 121/402/133 124/412/133
f 124/412/134 121/402/134 120/403/128
f 117/406/129 122/405/135 121/413/135
f 121/413/136 122/405/136 117/406/130
f 118/409/131 123/408/137 122/414/137
f 122/414/138 123/408/138 118/409/132
f 124/411/5 123/415/5 119/401/5
f 119/401/6 123/415/6 124/411/6
f 125/416/139 124/417/133 121/418/133
f 121/418/134 124/417/134 125/416/140
f 126/419/141 121/420/135 122/421/135
f 122/421/136 121/420/136 126/419/142
f 127/422/143 122/423/137 123/424/137
f 123/424/138 122/423/138 127/422/144
f 128/425/5 123/415/5 124/411/5
f 124/411/6 123/415/6 128/425/6
f 124/417/133 125/416/139 128/426/139
f 128/426/140 125/416/140 124/417/134
f 121/420/135 126/419/141 125/427/141
f 125/427/142 126/419/142 121/420/136
f 122/423/137 127/422/143 126/428/143
f 126/428/144 127/422/144 122/423/138
f 128/425/5 127/429/5 123/415/5
f 123/415/6 127/429/6 128/425/6
f 129/430/145 128/431/139 125/432/139
f 125/432/140 128/431/140 129/430/146
f 130/433/147 125/434/141 126/435/141
f 126/435/142 125/434/142 130/433/148
f 131/436/149 126/437/143 127/438/143
f 127/438/144 126/437/144 131/436/150
f 132/439/5 127/429/5 128/425/5
f 128/425/6 127/429/6 132/439/6
f 128/431/139 129/430/145 132/440/145
f 132/440/146 129/430/146 128/431/140
f 125/434/141 130/433/147 129/441/147
f 129/441/148 130/433/148 125/434/142
f 126/437/143 131/436/149 130/442/149
f 130/442/150 131/436/150 126/437/144
f 132/439/5 131/443/5 127/429/5
f 127/429/6 131/443/6 132/439/6
f 133/444/151 132/445/145 129/446/145
f 129/446/146 132/445/146 133/444/152
f 134/447/153 129/448/147 130/449/147
f 130/449/148 129/448/148 134/447/154
f 135/450/155 130/451/149 131/452/149
f 131/452/150 130/451/150 135/450/156
f 136/453/5 131/443/5 132/439/5
f 132/439/6 131/443/6 136/453/6
f 132/445/145 133/444/151 136/454/151
f 136/454/152 133/444/152 132/445/146
f 129/448/147 134/447/153 133/455/153
f 133/455/154 134/447/154 129/448/148
f 130/451/149 135/450/155 134/456/155
f 134/456/156 135/450/156 130/451/150
f 136/453/5 135/457/5 131/443/5
f 131/443/6 135/457/6 136/453/6
f 137/458/157 136/459/151 133/460/151
f 133/460/152 136/459/152 137/458/158
f 138/461/159 133/462/153 134/463/153
f 134/463/154 133/462/154 138/461/160
f 139/464/161 134/465/155 135/466/155
f 135/466/156 134/465/156 139/464/162
f 140/467/5 135/457/5 136/453/5
f 136/453/6 135/457/6 140/467/6
f 136/459/151 137/458/157 140/468/157
f 140/468/158 137/458/158 136/459/152
f 133/462/153 138/461/159 137/469/159
f 137/469/160 138/461/160 133/462/154
f 134/465/155 139/464/161 138/470/161
f 138/470/162 139/464/162 134/465/156
f 140/467/5 139/471/5 135/457/5
f 135/457/6 139/471/6 140/467/6
f 141/472/163 140/473/157 137/474/157
f 137/474/158 140/473/158 141/472/164
f 142/475/165 137/476/159 138/477/159
f 138/477/160 137/476/160 142/475/166
f 143/478/167 138/479/161 139/480/161
f 139/480/162 138/479/162 143/478/168
f 144/481/5 139/471/5 140/467/5
f 140/467/6 139/471/6 144/481/6
f 140/473/157 141/472/163 144/482/163
f 144/482/164 141/472/164 140/473/158
f 137/476/159 142/475/165 141/483/165
f 141/483/166 142/475/166 137/476/160
f 138/479/161 143/478/167 142/484/167
f 142/484/168 143/478/168 138/479/162
f 144/481/5 143/485/5 139/471/5
f 139/471/6 143/485/6 144/481/6
f 145/486/169 144/487/163 141/488/163
f 141/488/164 144/487/164 145/486/170
f 146/489/171 141/490/165 142/491/165
f 142/491/166 141/490/166 146/489/172
f 143/492/167 146/493/173 142/494/167
f 142/494/168 146/493/174 143/492/168
f 147/495/5 143/485/5 144/481/5
f 144/481/6 143/485/6 147/495/6
f 144/487/163 145/486/169 147/496/169
f 147/496/170 145/486/170 144/487/164
f 141/490/165 146/489/171 145/497/171
f 145/497/172 146/489/172 141/490/166
f 146/493/173 143/492/167 148/498/173
f 148/498/174 143/492/168 146/493/174
f 147/495/5 148/499/5 143/485/5
f 143/485/6 148/499/6 147/495/6
f 149/500/175 147/501/169 145/502/169
f 145/502/170 147/501/170 149/500/176
f 150/503/177 145/504/171 146/505/171
f 146/505/172 145/504/172 150/503/178
f 148/506/173 150/507/179 146/508/173
f 146/508/174 150/507/180 148/506/174
f 151/509/5 148/499/5 147/495/5
f 147/495/6 148/499/6 151/509/6
f 147/501/169 149/500/175 151/510/175
f 151/510/176 149/500/176 147/501/170
f 145/504/171 150/503/177 149/511/177
f 149/511/178 150/503/178 145/504/172
f 150/507/179 148/506/173 152/512/179
f 152/512/180 148/506/174 150/507/180
f 148/499/5 151/509/5 152/513/5
f 152/513/6 151/509/6 148/499/6
f 150/514/24 151/515/24 149/516/24
f 149/516/23 151/515/23 150/514/23
f 151/515/24 150/514/24 152/517/24
f 152/517/23 150/514/23 151/515/23
