# SSTK version 0.8.0
# 6
mtllib original-6.mtl
o Beam-1844.50.50_1/Beam-1844.50.50/mesh9/mesh9-geometry#mesh9-geometry
v 0.291403 -0.824640 -0.261648
v 0.250079 -0.824640 -0.220324
v 0.250079 -0.824640 -0.261648
v 0.291403 -0.824640 -0.220324
v 0.250079 0.699389 -0.261648
v 0.291403 0.699389 -0.220324
v 0.250079 0.699389 -0.220324
v 0.291403 0.699389 -0.261648
vt -0.02734 0.02734
vt 0 0
vt 0 0.02734
vt -0.02734 0
vt 1.008311 0.02734
vt 1.008311 0
vt -1.008311 0
vt -1.008311 0.02734
vt 0.02734 0
vt 0.02734 0.02734
vn 0 -1 0
vn 0 1 0
vn -1 0 0
vn 1 0 0
vn 0 0 -1
vn 0 0 1
usemtl material_0_0
f 1/1/1 2/2/1 3/3/1
f 2/2/1 1/1/1 4/4/1
f 3/3/2 2/2/2 1/1/2
f 4/4/2 1/1/2 2/2/2
f 2/2/3 5/5/3 3/3/3
f 3/3/4 5/5/4 2/2/4
f 5/6/5 1/3/5 3/2/5
f 3/2/6 1/3/6 5/6/6
f 1/3/4 6/7/4 4/2/4
f 4/2/3 6/7/3 1/3/3
f 6/8/6 2/2/6 4/3/6
f 4/3/5 2/2/5 6/8/5
f 5/5/3 2/2/3 7/6/3
f 7/6/4 2/2/4 5/5/4
f 1/3/5 5/6/5 8/5/5
f 8/5/6 5/6/6 1/3/6
f 6/7/4 1/3/4 8/8/4
f 8/8/3 1/3/3 6/7/3
f 2/2/6 6/8/6 7/7/6
f 7/7/5 6/8/5 2/2/5
f 6/9/2 5/3/2 7/2/2
f 7/2/1 5/3/1 6/9/1
f 5/3/2 6/9/2 8/10/2
f 8/10/1 6/9/1 5/3/1
