# SSTK version 0.8.0
# 33
mtllib original-33.mtl
o Moulding-1246.50.22_1_1/Moulding-1246.50.22_1/mesh44/mesh44-geometry#mesh44-geometry
v -0.202286 -0.293495 0.235066
v -0.201461 0.655040 0.233073
v -0.202286 0.655866 0.235066
v -0.201461 0.654759 0.233073
v -0.242503 0.696083 0.222669
v -0.203600 -0.294808 0.236778
v -0.201461 -0.292669 0.233073
v -0.203600 0.657179 0.236778
v -0.201179 0.654759 0.230934
v -0.242503 -0.333711 0.222669
v -0.205311 0.658891 0.238092
v -0.201179 0.654759 0.222669
v -0.205311 -0.296520 0.238092
v -0.201179 -0.292387 0.222669
v -0.201179 -0.292387 0.230934
v -0.207305 0.660884 0.238917
v -0.207305 -0.298513 0.238917
v -0.209444 0.663024 0.239199
v -0.242503 0.696083 0.240852
v -0.209444 -0.300652 0.239199
v -0.242503 -0.333711 0.240852
v -0.209444 0.663024 0.240852
v -0.209444 -0.300652 0.240852
vt 0.654713 0.013719
vt 0.027154 0.015146
vt 0.026608 0.013719
vt 0.02734 0.015146
vt -0.01203 0
vt -0.003828 0.037629
vt -0.005146 0.038402
vt 0.026608 0.019234
vt 0.655582 0.017807
vt 0.654713 0.019234
vt 0.654167 0.015146
vt -0.002695 0.0364
vt -0.006562 0.038665
vt 0.025739 0.017807
vt 0.01203 -0.481767
vt 0.003828 -0.444138
vt 0.002695 -0.445367
vt 0.005146 -0.443365
vt 0.654167 0.008647
vt 0.02734 0.010074
vt 0.02734 0.008647
vt -0.001826 0.034799
vt -0.01203 0.038665
vt 0.025739 0.022061
vt 0.656715 0.020633
vt 0.655582 0.022061
vt 0.001826 -0.446968
vt 0.01203 -0.443102
vt 0.653981 0.010074
vt -0.00128 0.032934
vt 0.024606 0.020633
vt 0.653981 0.006562
vt 0.02734 0.01203
vt 0.02734 0.006562
vt -0.02734 0.02734
vt -0.681321 0
vt 0 0
vt 0.00128 -0.448833
vt 0.006562 -0.443102
vt -0.653981 0.02734
vt -0.001094 0.030932
vt 0.658034 0.022005
vt 0.024606 0.023432
vt 0.023288 0.022005
vt 0.656715 0.023432
vt 0.653981 0.01203
vt -0.681321 0.01203
vt 0 0.01203
vt 0.001094 -0.450835
vt 0.659449 0.021828
vt 0.023288 0.023255
vt 0.021872 0.021828
vt 0.658034 0.023255
vt 0 -0.481767
vt 0 0.030932
vt 0.021872 0.001094
vt 0.659449 0
vt 0.659449 0.001094
vt 0.681321 0
vt 0.021872 0.021872
vt 0 -0.450835
vt 0.021872 0
vt 0.659449 0.021872
vn 0.8660253028382762 0 0.5000001748438417
vn 0.9238797538373538 0 0.38268289803626016
vn 0.965925849201117 0 0.2588189595935754
vn -0.8660253028382762 0 -0.5000001748438417
vn -0.9238797538373538 0 -0.38268289803626016
vn -0.965925849201117 0 -0.2588189595935754
vn 0.7071067811865474 0.7071067811865477 0
vn -0.7071067811865474 -0.7071067811865477 0
vn 0.7071067811865475 0 0.7071067811865475
vn -0.7071067811865475 0 -0.7071067811865475
vn 0.7071067811865477 -0.7071067811865474 0
vn -0.7071067811865477 0.7071067811865474 0
vn 0.9978589320009054 0 0.06540299554311302
vn -0.9978589320009054 0 -0.06540299554311302
vn 0.5000001748438417 0 0.8660253028382762
vn -0.5000001748438417 0 -0.8660253028382762
vn 1 0 0
vn -1 0 0
vn 0 0 -1
vn 0 0 1
vn 0.2588189595935754 0 0.965925849201117
vn -0.2588189595935754 0 -0.965925849201117
vn 0.13052598533534113 0 0.9914448886106773
vn -0.13052598533534113 0 -0.9914448886106773
usemtl material_0_0
f 1/1/1 2/2/2 3/3/1
f 2/2/2 1/1/1 4/4/3
f 3/3/4 2/2/5 1/1/4
f 4/4/6 1/1/4 2/2/5
f 5/5/7 3/6/7 2/7/7
f 2/7/8 3/6/8 5/5/8
f 3/8/1 6/9/9 1/10/1
f 1/10/4 6/9/10 3/8/4
f 4/4/3 1/1/1 7/11/3
f 7/11/6 1/1/4 4/4/6
f 5/5/7 8/12/7 3/6/7
f 3/6/8 8/12/8 5/5/8
f 5/5/7 2/7/7 9/13/7
f 9/13/8 2/7/8 5/5/8
f 6/9/9 3/8/1 8/14/9
f 8/14/10 3/8/4 6/9/10
f 10/15/11 1/16/11 6/17/11
f 6/17/12 1/16/12 10/15/12
f 10/15/11 7/18/11 1/16/11
f 1/16/12 7/18/12 10/15/12
f 7/19/3 9/20/13 4/21/3
f 4/21/6 9/20/14 7/19/6
f 5/5/7 11/22/7 8/12/7
f 8/12/8 11/22/8 5/5/8
f 5/5/7 9/13/7 12/23/7
f 12/23/8 9/13/8 5/5/8
f 8/24/9 13/25/15 6/26/9
f 6/26/10 13/25/16 8/24/10
f 10/15/11 6/17/11 13/27/11
f 13/27/12 6/17/12 10/15/12
f 14/28/11 7/18/11 10/15/11
f 10/15/12 7/18/12 14/28/12
f 9/20/13 7/19/3 15/29/13
f 15/29/14 7/19/6 9/20/14
f 5/5/7 16/30/7 11/22/7
f 11/22/8 16/30/8 5/5/8
f 13/25/15 8/24/9 11/31/15
f 11/31/16 8/24/10 13/25/16
f 15/32/13 12/33/17 9/34/13
f 9/34/14 12/33/18 15/32/14
f 12/35/19 10/36/19 5/37/19
f 5/37/20 10/36/20 12/35/20
f 10/15/11 13/27/11 17/38/11
f 17/38/12 13/27/12 10/15/12
f 7/18/11 14/28/11 15/39/11
f 15/39/12 14/28/12 7/18/12
f 10/36/19 12/35/19 14/40/19
f 14/40/20 12/35/20 10/36/20
f 5/5/7 18/41/7 16/30/7
f 16/30/8 18/41/8 5/5/8
f 17/42/21 11/43/15 16/44/21
f 16/44/22 11/43/16 17/42/22
f 11/43/15 17/42/21 13/45/15
f 13/45/16 17/42/22 11/43/16
f 12/33/17 15/32/13 14/46/17
f 14/46/18 15/32/14 12/33/18
f 10/47/18 19/37/18 5/48/18
f 5/48/17 19/37/17 10/47/17
f 10/15/11 17/38/11 20/49/11
f 20/49/12 17/38/12 10/15/12
f 19/37/7 18/41/7 5/5/7
f 5/5/8 18/41/8 19/37/8
f 20/50/23 16/51/21 18/52/23
f 18/52/24 16/51/22 20/50/24
f 16/51/21 20/50/23 17/53/21
f 17/53/22 20/50/24 16/51/22
f 19/37/18 10/47/18 21/36/18
f 21/36/17 10/47/17 19/37/17
f 10/15/11 20/49/11 21/54/11
f 21/54/12 20/49/12 10/15/12
f 18/41/7 19/37/7 22/55/7
f 22/55/8 19/37/8 18/41/8
f 18/56/17 23/57/17 20/58/17
f 20/58/18 23/57/18 18/56/18
f 21/59/20 22/60/20 19/37/20
f 19/37/19 22/60/19 21/59/19
f 21/54/11 20/49/11 23/61/11
f 23/61/12 20/49/12 21/54/12
f 23/57/17 18/56/17 22/62/17
f 22/62/18 18/56/18 23/57/18
f 22/60/20 21/59/20 23/63/20
f 23/63/19 21/59/19 22/60/19
