# https://github.com/mikedh/trimesh
mtllib material.mtl

o geometry_0
usemtl material_0
v -0.00617395 -0.25260094 0.13249727
v -0.00598506 -0.25255531 0.12823275
v -0.00595912 -0.25663799 0.12853843
v -0.00620647 -0.24871024 0.12762094
v -0.00666915 -0.24874769 0.13225491
v -0.00547802 -0.24898802 0.12331241
v -0.00515320 -0.25601596 0.12358650
v -0.00554580 -0.26059014 0.12409379
v -0.00578114 -0.26065031 0.12857543
v -0.00580279 -0.26480827 0.12843876
v -0.00516185 -0.25207472 0.12472436
v -0.00465585 -0.26038116 0.12055437
v -0.00455696 -0.25742915 0.12088777
v -0.00600264 -0.26496133 0.12425181
v -0.00479836 -0.26512712 0.11927147
v -0.00657342 -0.26940036 0.12434086
v -0.00580614 -0.26916727 0.12811728
v -0.00589146 -0.26935235 0.11953236
v -0.00682445 -0.27338281 0.12433938
v -0.00642944 -0.24901511 0.13639539
v -0.00689187 -0.27335149 0.11980294
v -0.00749318 -0.27650011 0.12006480
v -0.00501548 -0.27350107 0.11470535
v -0.00740604 -0.24422991 0.13179490
v -0.00716139 -0.24438608 0.12716950
v -0.00542289 -0.25636968 0.13235784
v -0.00744898 -0.24444579 0.13612588
v -0.00811063 -0.24119395 0.13582529
v -0.00812633 -0.24105531 0.13955465
v -0.00742732 -0.24459901 0.13972065
v -0.00805806 -0.24082740 0.14324768
v -0.00680694 -0.27722061 0.12400411
v -0.00809380 -0.24122573 0.13147111
v -0.00798391 -0.24134484 0.12707391
v -0.00588910 -0.24919474 0.13969429
v -0.00608325 -0.24849215 0.14336605
v -0.00774989 -0.24147718 0.12341604
v -0.00685203 -0.24482691 0.12308860
v -0.00748112 -0.24156317 0.11948206
v -0.00660197 -0.24516073 0.11899905
v -0.00725116 -0.24163157 0.11528131
v -0.00646443 -0.24529488 0.11484613
v -0.00713603 -0.24160928 0.11150225
v -0.00641320 -0.24531214 0.11116424
v -0.00647152 -0.24523892 0.10729603
v -0.00656154 -0.24512978 0.10343017
v -0.00727577 -0.24142881 0.10362547
v -0.00662812 -0.24500993 0.09632378
v -0.00731187 -0.24139333 0.09989666
v -0.00736397 -0.24147595 0.09601883
v -0.00672154 -0.24499956 0.09199291
v -0.00718921 -0.24151719 0.10752577
v -0.00745466 -0.24166055 0.09209367
v -0.00756851 -0.24186666 0.08805960
v -0.00685262 -0.24503426 0.08798588
v -0.00773740 -0.24216634 0.08385190
v -0.00703209 -0.24511224 0.08380952
v -0.00785738 -0.24239551 0.08149063
v -0.00732141 -0.24483521 0.07982399
v -0.00795395 -0.24285692 0.07856780
v -0.00722288 -0.24597161 0.07501362
v -0.00773825 -0.27846801 0.12020724
v -0.00794328 -0.27895427 0.11748322
v -0.00805714 -0.28121722 0.12034144
v -0.00813703 -0.28135356 0.11572047
v -0.00852942 -0.28514570 0.11569387
v -0.00836628 -0.28514472 0.12049408
v -0.00861642 -0.28906110 0.11601978
v -0.00835042 -0.28906032 0.12041718
v -0.00809600 -0.29295498 0.12010157
v -0.00852007 -0.29296368 0.11633606
v -0.00742449 -0.27849910 0.12278020
v -0.00801938 -0.28512663 0.11247700
v -0.00796447 -0.28900221 0.11201480
v -0.00796560 -0.28275666 0.11274209
v -0.00784231 -0.29290542 0.11245667
v -0.00759785 -0.29157555 0.11094014
v -0.00739480 -0.28121001 0.12307528
v -0.00798009 -0.29529679 0.11639851
v -0.00769117 -0.29506007 0.11359216
v -0.00761998 -0.29027328 0.11092648
v -0.00749017 -0.29520527 0.11986199
v -0.00746796 -0.28012240 0.11413939
v -0.00521964 -0.25202188 0.13650157
v -0.00536223 -0.24848875 0.11860443
v -0.00524227 -0.24855557 0.11450554
v -0.00522533 -0.24856173 0.11095394
v -0.00440485 -0.26010737 0.13218120
v -0.00528747 -0.24848665 0.10715886
v -0.00544440 -0.24845026 0.09181625
v -0.00539018 -0.24844977 0.09566961
v -0.00534781 -0.24845031 0.10321537
v -0.00554617 -0.24845442 0.08783101
v -0.00731949 -0.28512469 0.12319025
v -0.00567448 -0.24845450 0.08368031
v -0.00537976 -0.27314273 0.12770517
v -0.00449067 -0.26927793 0.11606645
v -0.00580944 -0.24843913 0.07943939
v -0.00679424 -0.27746168 0.11545020
v -0.00407883 -0.26693195 0.11664083
v -0.00717409 -0.28904769 0.12267765
v -0.00731252 -0.28764766 0.11106712
v -0.00501415 -0.25089863 0.13852625
v -0.00432250 -0.26420075 0.13120782
v -0.00909670 -0.24178275 0.07495081
v -0.00400481 -0.27493176 0.11244185
v -0.00470116 -0.27716690 0.11231165
v -0.00415783 -0.26862642 0.13037558
v -0.00674046 -0.29414770 0.11149315
v -0.00433628 -0.25559753 0.13492961
v -0.00370075 -0.25844070 0.13387963
v -0.00670469 -0.29493457 0.12110880
v -0.00691389 -0.29293567 0.12168637
v -0.00437938 -0.27683139 0.12742499
v -0.00425548 -0.28091091 0.12629306
v -0.00620633 -0.28116733 0.12450008
v -0.00875531 -0.24178365 0.07975014
v 0.00210473 -0.29608309 0.12010670
v -0.00256840 -0.29617941 0.11594905
v 0.00206909 -0.29629123 0.11587849
v 0.00646024 -0.29614678 0.11992029
v 0.00661703 -0.29638216 0.11591974
v -0.00224441 -0.29599756 0.12008011
v -0.00616811 -0.29589477 0.11615039
v -0.00571256 -0.29573029 0.11988871
v 0.00212153 -0.29568517 0.11196280
v -0.00246697 -0.29555720 0.11211475
v 0.00663521 -0.29570124 0.11197999
v -0.00591656 -0.29520169 0.11240467
v 0.00967133 -0.29541263 0.11972806
v 0.00992602 -0.29553938 0.11651671
v 0.00930425 -0.29525670 0.11209621
v 0.00891581 -0.29489091 0.11064029
v -0.00749017 -0.29520527 0.11986199
v -0.00798009 -0.29529679 0.11639851
v -0.00769117 -0.29506007 0.11359216
v -0.00233339 -0.29499775 0.11088601
v -0.00470642 -0.29490352 0.11096282
v 0.00216508 -0.29504943 0.11075217
v 0.00665708 -0.29500213 0.11065292
v -0.00180977 -0.29519358 0.12195856
v 0.00220303 -0.29521945 0.12208225
v -0.00519006 -0.29506645 0.12145377
v 0.01079159 -0.29494020 0.11859471
v 0.01075898 -0.29493281 0.11895343
v -0.00670469 -0.29493457 0.12110880
v 0.00625276 -0.29518256 0.12181737
v 0.00876592 -0.29502562 0.12140761
v -0.00674046 -0.29414770 0.11149315
v 0.00408473 -0.27469015 0.12911740
v 0.00191663 -0.27545846 0.12918563
v 0.00196719 -0.27756533 0.12848654
v 0.00183979 -0.27211764 0.13025305
v 0.00551147 -0.27195081 0.12958996
v 0.00175524 -0.26771855 0.13155065
v 0.00554077 -0.26335743 0.13197602
v 0.00200691 -0.26320422 0.13276446
v 0.00559832 -0.26789889 0.13072829
v 0.00593250 -0.25937277 0.13326897
v 0.00339050 -0.26096234 0.13325700
v 0.00773451 -0.27055025 0.12940787
v 0.00100773 -0.26171184 0.13327977
v 0.00562435 -0.27629948 0.12812895
v 0.00684009 -0.27320984 0.12877385
v 0.00577695 -0.28057313 0.12690507
v 0.00201850 -0.28044453 0.12755772
v 0.00572244 -0.28461063 0.12590967
v 0.00811456 -0.28483564 0.12527631
v 0.00789538 -0.28757870 0.12467372
v 0.00570156 -0.28806582 0.12487956
v 0.00570804 -0.29016140 0.12416843
v 0.00205313 -0.28452855 0.12632607
v 0.00197041 -0.25926980 0.13403070
v 0.00476879 -0.25813702 0.13406900
v 0.00163180 -0.25451174 0.13566738
v 0.00532717 -0.25443041 0.13491106
v 0.00206071 -0.28816548 0.12512405
v -0.00196694 -0.25491923 0.13575920
v 0.00206033 -0.29032221 0.12431249
v 0.00214343 -0.29283345 0.12329917
v 0.00593459 -0.29274654 0.12312344
v 0.00165652 -0.25085691 0.13642490
v -0.00239571 -0.25135511 0.13730250
v -0.00069468 -0.26180893 0.13325320
v -0.00146221 -0.27570248 0.12910089
v -0.00153279 -0.27236006 0.13014360
v -0.00161299 -0.26800585 0.13139789
v -0.00144714 -0.27776933 0.12836735
v -0.00179167 -0.25932086 0.13393967
v -0.00171397 -0.26349437 0.13258110
v -0.00144154 -0.28055939 0.12738802
v -0.00134958 -0.28786439 0.12505046
v -0.00138775 -0.28464976 0.12610613
v -0.00138170 -0.28996643 0.12426330
v -0.00154342 -0.29287079 0.12309756
v 0.00220303 -0.29521945 0.12208225
v 0.00625276 -0.29518256 0.12181737
v 0.00876592 -0.29502562 0.12140761
v -0.00180977 -0.29519358 0.12195856
v 0.00895617 -0.29279125 0.12217961
v 0.00499100 -0.25061315 0.13550590
v 0.00831323 -0.28084984 0.12600087
v 0.00791227 -0.26815799 0.12989226
v 0.00888498 -0.28897658 0.12342814
v -0.00339811 -0.28743535 0.12489289
v -0.00331560 -0.27518943 0.12895353
v -0.00284026 -0.26097700 0.13308316
v -0.00519006 -0.29506645 0.12145377
v -0.00521964 -0.25202188 0.13650157
v -0.00495689 -0.29290202 0.12240346
v -0.00370075 -0.25844070 0.13387963
v -0.00433628 -0.25559753 0.13492961
v -0.00466598 -0.28889695 0.12389120
v -0.00384014 -0.28490674 0.12545507
v -0.00373431 -0.27276179 0.12948519
v -0.00670469 -0.29493457 0.12110880
v 0.00815339 -0.26365867 0.13075192
v 0.00852303 -0.27681345 0.12667443
v 0.00153594 -0.24929009 0.13752455
v -0.00128195 -0.24965726 0.13780260
v -0.00425548 -0.28091091 0.12629306
v -0.00415783 -0.26862642 0.13037558
v -0.00691389 -0.29293567 0.12168637
v 0.00590223 -0.24897221 0.13657637
v -0.00432250 -0.26420075 0.13120782
v -0.00437938 -0.27683139 0.12742499
v -0.00414421 -0.25073138 0.13856499
v -0.00717409 -0.28904769 0.12267765
v -0.00562968 -0.28508219 0.12441399
v 0.00836157 -0.25930873 0.13169576
v 0.00847736 -0.27239901 0.12784308
v 0.00851321 -0.25586054 0.13169733
v -0.00440485 -0.26010737 0.13218120
v -0.00731949 -0.28512469 0.12319025
v -0.00620633 -0.28116733 0.12450008
v 0.00771704 -0.25421995 0.13273840
v -0.00537976 -0.27314273 0.12770517
v 0.00271407 -0.27221775 0.11261330
v 0.00276033 -0.27415693 0.11202852
v -0.00164980 -0.27426311 0.11218652
v -0.00166799 -0.27231830 0.11287202
v 0.00265788 -0.27705601 0.11155245
v -0.00172701 -0.27710095 0.11173999
v -0.00189128 -0.28104499 0.11115892
v 0.00246874 -0.28100365 0.11095362
v 0.00237579 -0.28378037 0.11058995
v -0.00199229 -0.28385743 0.11078501
v 0.00694974 -0.28412572 0.11065025
v 0.00694668 -0.28612429 0.11043069
v 0.00939574 -0.28657699 0.11047067
v 0.00240262 -0.28579330 0.11049164
v -0.00198121 -0.28586188 0.11066578
v -0.00494309 -0.28635824 0.11080835
v 0.00630768 -0.27706775 0.11194443
v 0.00753459 -0.28063062 0.11151938
v 0.00533779 -0.27476561 0.11213016
v 0.00693066 -0.28897867 0.11040775
v 0.00243554 -0.28899416 0.11047560
v 0.00951192 -0.28896576 0.11047199
v -0.00197225 -0.28900418 0.11063607
v -0.00598487 -0.28897771 0.11083825
v -0.00731252 -0.28764766 0.11106712
v -0.00761998 -0.29027328 0.11092648
v -0.00400481 -0.27493176 0.11244185
v -0.00575655 -0.29287830 0.11090855
v -0.00215701 -0.29290980 0.11076434
v -0.00759785 -0.29157555 0.11094014
v 0.00231424 -0.29290149 0.11062445
v 0.00680056 -0.29287228 0.11053583
v 0.00927135 -0.29284537 0.11056298
v 0.00891581 -0.29489091 0.11064029
v 0.00665708 -0.29500213 0.11065292
v -0.00233339 -0.29499775 0.11088601
v -0.00470642 -0.29490352 0.11096282
v 0.00216508 -0.29504943 0.11075217
v -0.00470116 -0.27716690 0.11231165
v -0.00609500 -0.28128496 0.11215866
v -0.00608743 -0.28505909 0.11132210
v 0.00949225 -0.27907276 0.11231913
v 0.00983646 -0.28175792 0.11194126
v 0.01001085 -0.28520277 0.11142424
v -0.00179133 -0.26925245 0.11445639
v 0.00252781 -0.26922649 0.11411531
v 0.00232554 -0.26618320 0.11577906
v -0.00195577 -0.26618701 0.11608719
v 0.00219998 -0.26361510 0.11729070
v -0.00205793 -0.26367524 0.11751364
v -0.00214356 -0.26016080 0.11934916
v 0.00206135 -0.25950849 0.11978905
v 0.00058266 -0.25749844 0.12084323
v -0.00220808 -0.25721350 0.12070880
v -0.00455696 -0.25742915 0.12088777
v 0.00343936 -0.25759813 0.12116265
v 0.00484448 -0.26690596 0.11600674
v 0.00542926 -0.26067445 0.12028290
v 0.00581343 -0.26920807 0.11532633
v -0.00219001 -0.25457454 0.12262554
v -0.00407883 -0.26693195 0.11664083
v -0.00465585 -0.26038116 0.12055437
v 0.00719096 -0.27338207 0.11418130
v 0.00860671 -0.27708498 0.11302056
v -0.00449067 -0.26927793 0.11606645
v -0.00801938 -0.28512663 0.11247700
v -0.00796560 -0.28275666 0.11274209
v 0.00664673 -0.26481527 0.11884748
v -0.00674046 -0.29414770 0.11149315
v -0.00501548 -0.27350107 0.11470535
v 0.00206812 -0.25488850 0.12366363
v -0.00479836 -0.26512712 0.11927147
v 0.00073201 -0.25233254 0.12611505
v 0.00350753 -0.25233412 0.12647845
v 0.00214961 -0.25109300 0.12759566
v -0.00114712 -0.25064138 0.12698990
v 0.00648014 -0.25606650 0.12500331
v 0.00671118 -0.25936303 0.12241542
v -0.00252945 -0.25168574 0.12490300
v -0.00516185 -0.25207472 0.12472436
v -0.00515320 -0.25601596 0.12358650
v -0.00746796 -0.28012240 0.11413939
v 0.00543732 -0.25069168 0.12934539
v 0.00676452 -0.25335008 0.12819034
v 0.00902922 -0.27200881 0.11652831
v 0.00801660 -0.26919061 0.11735050
v 0.00844013 -0.26272631 0.12168678
v -0.00124970 -0.24964328 0.12660493
v 0.00217538 -0.24928974 0.12720625
v 0.00951465 -0.27458110 0.11576638
v 0.00913322 -0.26617157 0.12072681
v 0.00875074 -0.25740755 0.12623690
v -0.00275625 -0.24963887 0.12319050
v -0.00547802 -0.24898802 0.12331241
v 0.00979528 -0.27317640 0.12402626
v 0.00973057 -0.27710161 0.12405749
v 0.00972532 -0.27327520 0.11863478
v 0.00943791 -0.26918784 0.12003645
v 0.00964364 -0.26912254 0.12394708
v 0.00913322 -0.26617157 0.12072681
v 0.00920635 -0.26442835 0.12364499
v 0.01018261 -0.27712521 0.11917105
v 0.01052536 -0.28113136 0.11954710
v 0.00975962 -0.27707610 0.11500291
v 0.01018589 -0.28070322 0.11408494
v 0.01073138 -0.28512317 0.12002911
v 0.00951465 -0.27458110 0.11576638
v 0.01093368 -0.28512397 0.11502617
v 0.01072294 -0.28932822 0.12015163
v 0.01102800 -0.28933266 0.11609353
v 0.01099505 -0.29082125 0.11844710
v 0.01079159 -0.29494020 0.11859471
v 0.01081356 -0.29295138 0.11572557
v 0.01091190 -0.29084280 0.11908127
v 0.01075898 -0.29493281 0.11895343
v 0.00888590 -0.26864818 0.12804371
v 0.00909144 -0.26411685 0.12832431
v 0.00912341 -0.25968930 0.12850292
v 0.00892744 -0.25980276 0.12536649
v 0.00875074 -0.25740755 0.12623690
v 0.00887081 -0.25631467 0.12855971
v 0.01044794 -0.28900766 0.11170439
v 0.01001085 -0.28520277 0.11142424
v 0.00983646 -0.28175792 0.11194126
v 0.00962596 -0.28108287 0.12401183
v 0.01016154 -0.29289588 0.11199186
v 0.00836157 -0.25930873 0.13169576
v 0.00851321 -0.25586054 0.13169733
v 0.00844013 -0.26272631 0.12168678
v 0.00902922 -0.27200881 0.11652831
v 0.00949225 -0.27907276 0.11231913
v 0.00847736 -0.27239901 0.12784308
v 0.01036202 -0.29291606 0.12042618
v 0.00950295 -0.28504264 0.12377682
v 0.00771704 -0.25421995 0.13273840
v 0.00852303 -0.27681345 0.12667443
v 0.00815339 -0.26365867 0.13075192
v 0.00791227 -0.26815799 0.12989226
v 0.00831323 -0.28084984 0.12600087
v 0.00930425 -0.29525670 0.11209621
v 0.00992602 -0.29553938 0.11651671
v 0.00888498 -0.28897658 0.12342814
v 0.00773451 -0.27055025 0.12940787
v 0.00801660 -0.26919061 0.11735050
v 0.00676452 -0.25335008 0.12819034
v 0.00543732 -0.25069168 0.12934539
v 0.00646199 -0.25061733 0.13259278
v 0.00499100 -0.25061315 0.13550590
v 0.00709861 -0.24893315 0.13253318
v 0.00590223 -0.24897221 0.13657637
v 0.00860671 -0.27708498 0.11302056
v 0.00927135 -0.29284537 0.11056298
v 0.00891581 -0.29489091 0.11064029
v 0.00939574 -0.28657699 0.11047067
v 0.00671118 -0.25936303 0.12241542
v 0.00635148 -0.24905053 0.12811436
v 0.00951192 -0.28896576 0.11047199
v 0.00895617 -0.29279125 0.12217961
v 0.00811456 -0.28483564 0.12527631
v 0.00876592 -0.29502562 0.12140761
v 0.00967133 -0.29541263 0.11972806
v 0.00098056 -0.23538274 0.14494120
v 0.00643516 -0.23530634 0.13865842
v 0.00104977 -0.23521188 0.13895927
v 0.01074086 -0.23561013 0.14291358
v 0.01514826 -0.23579580 0.14066792
v 0.01002617 -0.23546322 0.13889262
v 0.01519668 -0.23576957 0.13844448
v 0.01035655 -0.23543113 0.13678367
v 0.01519470 -0.23572898 0.13531183
v 0.01936102 -0.23603240 0.13533790
v 0.01936993 -0.23598039 0.13130878
v 0.01489123 -0.23557603 0.12888993
v 0.01752580 -0.23571981 0.12543853
v 0.01074652 -0.23533505 0.13122439
v 0.01154229 -0.23530664 0.12691310
v 0.00511976 -0.23498024 0.13085057
v 0.00531952 -0.23489901 0.12624194
v 0.01068481 -0.23522235 0.12298755
v 0.00620633 -0.23492506 0.12265661
v 0.00459213 -0.23482046 0.12373913
v 0.01442455 -0.23543587 0.11898873
v 0.01758438 -0.23562525 0.11821767
v 0.01755811 -0.23559156 0.11409518
v 0.00520158 -0.23511484 0.13516881
v 0.00122134 -0.23494507 0.13109691
v 0.00129816 -0.23487118 0.12699398
v 0.00113260 -0.23506540 0.13514440
v 0.00180463 -0.23480117 0.12273376
v 0.01447653 -0.23544313 0.11500510
v 0.01061444 -0.23524025 0.11891373
v 0.01399897 -0.23541477 0.11123247
v 0.01234439 -0.23530519 0.10515439
v 0.01044652 -0.23529905 0.11114721
v 0.01035430 -0.23525272 0.10515466
v 0.01052807 -0.23528953 0.11492233
v 0.00610390 -0.23496436 0.11893614
v 0.00606208 -0.23505551 0.11492357
v 0.00599645 -0.23509711 0.11112633
v 0.00642185 -0.23509927 0.10701287
v 0.00257525 -0.23492053 0.11117743
v 0.00301824 -0.23493700 0.10838591
v 0.00269728 -0.23485804 0.11498661
v 0.00029226 -0.23490858 0.11125100
v 0.00136637 -0.23495805 0.10717153
v 0.00042274 -0.23485605 0.11506640
v 0.00332104 -0.23477252 0.11899121
v 0.00362702 -0.23473702 0.12115470
v 0.00105243 -0.23481308 0.11908545
v -0.00325857 -0.23512247 0.12703809
v -0.00360657 -0.23506491 0.12337815
v -0.00284671 -0.23498096 0.11934044
v -0.00372280 -0.23525287 0.13142568
v -0.00374942 -0.23534359 0.13486111
v -0.00336864 -0.23544094 0.13899364
v 0.00471535 -0.23501493 0.10571264
v 0.00116914 -0.23501757 0.10333616
v 0.00617148 -0.23511685 0.10336436
v 0.01039689 -0.23528902 0.10216796
v 0.01445962 -0.23544879 0.10348543
v 0.01499650 -0.23552297 0.09910379
v 0.01836329 -0.23573589 0.09737962
v 0.01487501 -0.23556848 0.09196286
v 0.01912467 -0.23585442 0.08414076
v 0.01798064 -0.23562552 0.10697433
v 0.01032599 -0.23537178 0.08988900
v 0.01510704 -0.23562311 0.08436265
v 0.01028810 -0.23541002 0.08395090
v 0.01030169 -0.23548032 0.07565141
v 0.01488363 -0.23568517 0.07990628
v 0.01029032 -0.23545632 0.07989483
v 0.00581461 -0.23518033 0.09350903
v 0.00564370 -0.23524483 0.08660168
v 0.00574352 -0.23530041 0.07980843
v 0.00592389 -0.23514652 0.09948616
v 0.00114058 -0.23508199 0.09416917
v 0.00115812 -0.23505582 0.09952209
v 0.00105098 -0.23524633 0.07550061
v -0.00283688 -0.23524015 0.07555382
v -0.00496809 -0.23522693 0.07567075
v -0.00320184 -0.23526126 0.07987867
v -0.00547558 -0.23527205 0.08244498
v -0.00549169 -0.23528254 0.08450105
v 0.00106138 -0.23524579 0.07976367
v 0.00108617 -0.23519953 0.08384587
v 0.00110889 -0.23515815 0.08784200
v -0.00328055 -0.23524641 0.08399282
v -0.00327946 -0.23523317 0.08865088
v -0.00295535 -0.23520255 0.09588417
v -0.00215546 -0.23502512 0.11004061
v -0.00235220 -0.23497449 0.11523931
v -0.00288181 -0.23517027 0.10353994
v -0.00303807 -0.23521343 0.09973504
v -0.00548766 -0.23531945 0.08812137
v -0.00509829 -0.23533022 0.09211355
v -0.00509992 -0.23513578 0.11943945
v -0.00555154 -0.23517777 0.12229993
v -0.00518558 -0.23539378 0.10083276
v -0.00434877 -0.23521085 0.11161622
v -0.03270831 -0.23944506 0.14620517
v -0.03681260 -0.23952477 0.14391495
v -0.03255540 -0.23938583 0.13936681
v -0.02025464 -0.23896469 0.14393590
v -0.02667263 -0.23915139 0.14051905
v -0.03673127 -0.23947835 0.13313986
v -0.02902859 -0.23906475 0.10895738
v -0.02533651 -0.23876756 0.10295203
v -0.03310227 -0.23913383 0.10301406
v -0.03261246 -0.23937866 0.12218229
v -0.02518175 -0.23899965 0.11545109
v -0.03281501 -0.23934874 0.11501898
v -0.02484762 -0.23887263 0.10900240
v -0.02023898 -0.23867780 0.10743230
v -0.02042532 -0.23883906 0.12206263
v -0.02040616 -0.23881078 0.11489422
v -0.01592517 -0.23858418 0.11492882
v -0.01591921 -0.23852910 0.11102324
v -0.02033894 -0.23861124 0.10314999
v -0.02908491 -0.23882115 0.09912354
v -0.03702137 -0.23940909 0.10934536
v -0.03703065 -0.23927385 0.10297959
v -0.03312318 -0.23901427 0.09910233
v -0.02907360 -0.23867054 0.09518788
v -0.03312007 -0.23885766 0.09518576
v -0.03294036 -0.23866372 0.09114561
v -0.02481347 -0.23831092 0.09126577
v -0.02480845 -0.23809263 0.08734571
v -0.02042339 -0.23763350 0.08341161
v -0.02481473 -0.23782516 0.08335460
v -0.02898506 -0.23804726 0.08330183
v -0.03282692 -0.23846164 0.08726485
v -0.03298796 -0.23822860 0.08330186
v -0.03697813 -0.23880148 0.09124751
v -0.03691157 -0.23859008 0.08732185
v -0.03684582 -0.23833676 0.08331065
v -0.03702061 -0.23899271 0.09517974
v -0.03703685 -0.23915556 0.09907613
v -0.02473118 -0.23850730 0.09572206
v -0.02482863 -0.23863880 0.09918040
v -0.02033529 -0.23851171 0.09922659
v -0.01594718 -0.23824364 0.09531470
v -0.01597869 -0.23808257 0.09136591
v -0.02036492 -0.23818783 0.09130655
v -0.02039095 -0.23794550 0.08739341
v -0.01601935 -0.23781462 0.08745905
v -0.01592568 -0.23836960 0.09928139
v -0.01591768 -0.23843858 0.10320119
v -0.01591836 -0.23847559 0.10711198
v -0.03303545 -0.23927827 0.10982749
v -0.03689993 -0.23948225 0.11475422
v -0.03671635 -0.23950243 0.12143929
v -0.03260686 -0.23936521 0.13051699
v -0.03251615 -0.23936531 0.13515894
v -0.02025794 -0.23884216 0.13554494
v -0.02054258 -0.23882736 0.13040587
v -0.02678241 -0.23911305 0.12688832
v -0.02485559 -0.23902327 0.12290292
v -0.04662618 -0.23794937 0.07910711
v -0.04687684 -0.23831581 0.08330661
v -0.04071809 -0.23834717 0.08333673
v -0.04068502 -0.23797370 0.07914198
v -0.03680558 -0.23796551 0.07912750
v -0.04701065 -0.23857798 0.08729842
v -0.04078256 -0.23860921 0.08734580
v -0.04080717 -0.23882751 0.09128837
v -0.04091300 -0.23902798 0.09519949
v -0.04746736 -0.23902139 0.09545203
v -0.04766081 -0.23918964 0.09925459
v -0.04675911 -0.23931730 0.10300359
v -0.04097080 -0.23931748 0.10297463
v -0.04095136 -0.23919474 0.09908143
v -0.04122689 -0.23947020 0.10968197
v -0.04112120 -0.23954792 0.11539152
v -0.04497589 -0.23950489 0.11087551
v -0.04616562 -0.23956923 0.11483285
v -0.05069498 -0.23951277 0.11092789
v -0.05186738 -0.23958170 0.11879545
v -0.04516425 -0.23955959 0.12552181
v -0.04511800 -0.23957971 0.11872174
v -0.04099902 -0.23954661 0.12457736
v -0.04101169 -0.23952785 0.13240249
v -0.04106369 -0.23953347 0.13825691
v -0.04519491 -0.23953424 0.13622321
v -0.04112277 -0.23954645 0.14415878
v -0.04900538 -0.23951738 0.13514128
v -0.04965535 -0.23942280 0.10697439
v -0.03296018 -0.23786502 0.07913870
v -0.02898612 -0.23768669 0.07916959
v -0.02485335 -0.23744664 0.07925402
v -0.01178653 -0.23847333 0.10732390
v -0.01179381 -0.23847972 0.10340763
v -0.01178052 -0.23848386 0.11126793
v -0.01177934 -0.23846254 0.11514607
v -0.01180611 -0.23845443 0.09951969
v -0.02047458 -0.23722906 0.07932910
v -0.01185157 -0.23824644 0.09161265
v -0.01182615 -0.23836653 0.09555905
v -0.01178716 -0.23834719 0.11922649
v -0.01594328 -0.23858187 0.11900158
v -0.01598259 -0.23852699 0.12681834
v -0.01597218 -0.23850276 0.13082235
v -0.01588209 -0.23865442 0.14268574
v -0.01595318 -0.23854105 0.13482212
v -0.01180195 -0.23817039 0.12311868
v -0.01188595 -0.23800439 0.08767775
v -0.00555886 -0.23545139 0.13321181
v -0.01606279 -0.23740321 0.08347017
v -0.01192689 -0.23759285 0.08363586
v -0.03678922 -0.23738787 0.07486807
v -0.04067276 -0.23740380 0.07486708
v -0.02901087 -0.23711839 0.07493383
v -0.01182205 -0.23802403 0.12681347
v -0.00846116 -0.23804350 0.11546624
v -0.00840932 -0.23804599 0.11161482
v -0.00842481 -0.23799565 0.10403854
v -0.00845113 -0.23795097 0.09986212
v -0.00847760 -0.23783419 0.09593613
v -0.00851288 -0.23768149 0.09199117
v -0.01581392 -0.23677723 0.07915509
v -0.01183231 -0.23802286 0.13894834
v -0.01184550 -0.23793060 0.13488390
v -0.01181302 -0.23809983 0.14285769
v -0.01184209 -0.23791431 0.13081624
v -0.02072771 -0.23658828 0.07476504
v -0.01376282 -0.23631065 0.07771838
v -0.00855425 -0.23787442 0.11955843
v -0.00865295 -0.23760706 0.12340248
v -0.00872518 -0.23744082 0.12696944
v -0.01222515 -0.23688208 0.07927668
v -0.01104699 -0.23659293 0.07534790
v -0.00869707 -0.23679045 0.07982668
v -0.00865124 -0.23636515 0.07564238
v -0.00862057 -0.23718557 0.08395295
v -0.00855908 -0.23748033 0.08802620
v -0.00653292 -0.23560755 0.07578100
v -0.00865769 -0.23741373 0.13908894
v -0.00563726 -0.23545909 0.11082469
v -0.00551481 -0.23545638 0.10028433
v -0.00557443 -0.23542607 0.09233517
v -0.00560790 -0.23523876 0.11950845
v -0.00868453 -0.23726594 0.13507953
v -0.00872758 -0.23728570 0.13097773
v -0.00638414 -0.23607567 0.13143040
v -0.00650899 -0.23641825 0.13909179
v -0.00649652 -0.23656178 0.14298753
v -0.00634323 -0.23611173 0.13488267
v -0.00688978 -0.23586331 0.07999594
v -0.00659059 -0.23623531 0.12708658
v -0.00635437 -0.23603630 0.12354485
v -0.00653179 -0.23589802 0.08415295
v -0.00650675 -0.23637874 0.11965488
v -0.00642813 -0.23602863 0.08820115
v -0.00644684 -0.23617919 0.09216326
v -0.00633949 -0.23637283 0.09998445
v -0.00639429 -0.23629247 0.09610014
v -0.00644301 -0.23653549 0.11173867
v -0.00636669 -0.23644961 0.10594067
v -0.00646647 -0.23651586 0.11558146
v -0.03276601 -0.24127398 0.14563204
v -0.02701394 -0.24121973 0.13905302
v -0.02121165 -0.24109960 0.14199664
v -0.03265341 -0.24131149 0.13688016
v -0.03669114 -0.24134022 0.13821489
v -0.04097148 -0.24132478 0.14356947
v -0.04090274 -0.24135286 0.13471848
v -0.04502770 -0.24134319 0.13561651
v -0.04087400 -0.24140793 0.12103131
v -0.04688839 -0.24137962 0.11912076
v -0.04677217 -0.24140567 0.11286373
v -0.04695912 -0.24136423 0.12585668
v -0.04858095 -0.24141201 0.10754614
v -0.04086183 -0.24146748 0.10941126
v -0.02704276 -0.24124765 0.13318309
v -0.02088845 -0.24116060 0.13435122
v -0.02522282 -0.24122515 0.13025959
v -0.02905084 -0.24130909 0.12414224
v -0.02916024 -0.24134992 0.11333118
v -0.02529050 -0.24130222 0.11621103
v -0.03274432 -0.24136132 0.12407026
v -0.03295978 -0.24141164 0.11234461
v -0.03669614 -0.24140459 0.12299998
v -0.03690203 -0.24147515 0.10793847
v -0.04085925 -0.24152109 0.09777476
v -0.03699175 -0.24153489 0.09289397
v -0.03311884 -0.24148607 0.08894445
v -0.03690350 -0.24155343 0.08342703
v -0.03306427 -0.24151105 0.08079188
v -0.02715417 -0.24137813 0.08288488
v -0.03690876 -0.24160184 0.07490467
v -0.04082642 -0.24155042 0.08898083
v -0.04073786 -0.24158308 0.08080673
v -0.04456295 -0.24156865 0.08082898
v -0.04645277 -0.24160643 0.07441828
v -0.04467323 -0.24149689 0.09782168
v -0.04461519 -0.24153228 0.08902226
v -0.05910920 -0.24146369 0.08303544
v -0.05028838 -0.24149290 0.08905205
v -0.03114119 -0.24150082 0.07446066
v -0.02718732 -0.24140266 0.07872768
v -0.02448215 -0.24136215 0.07453281
v -0.02714742 -0.24136406 0.08890432
v -0.02665177 -0.24133289 0.09774990
v -0.02717288 -0.24133083 0.10358774
v -0.03309623 -0.24144976 0.10068357
v -0.02077010 -0.24127474 0.10841041
v -0.02519231 -0.24130619 0.10845172
v -0.02075441 -0.24129590 0.11679500
v -0.02097082 -0.24125870 0.12219179
v -0.02530457 -0.24125993 0.12419280
v -0.02099789 -0.24119373 0.12823676
v -0.01692786 -0.24095710 0.14608264
v -0.01779209 -0.24111970 0.13696329
v -0.01553670 -0.24105129 0.13723433
v -0.01511851 -0.24095033 0.14239974
v -0.01194513 -0.24093562 0.13886775
v -0.01196652 -0.24100094 0.13485661
v -0.00906156 -0.24090259 0.13543309
v -0.00903986 -0.24080658 0.13930523
v -0.01196561 -0.24101987 0.13066046
v -0.01792820 -0.24116477 0.13095179
v -0.01192874 -0.24104574 0.12648721
v -0.01769066 -0.24121949 0.12590320
v -0.01751752 -0.24128255 0.12094789
v -0.01187851 -0.24106182 0.12275334
v -0.01522336 -0.24122465 0.11842007
v -0.01751469 -0.24130584 0.11672375
v -0.01512584 -0.24121615 0.11437871
v -0.01184141 -0.24105574 0.11886190
v -0.01181978 -0.24102627 0.11470383
v -0.01504619 -0.24116179 0.10959780
v -0.01751198 -0.24125011 0.10742544
v -0.01770048 -0.24120517 0.10235293
v -0.01575956 -0.24107046 0.09929273
v -0.01809798 -0.24118911 0.09792251
v -0.01836227 -0.24118716 0.09216601
v -0.01611052 -0.24105357 0.09246046
v -0.01931827 -0.24122149 0.08367546
v -0.01621424 -0.24105428 0.08707893
v -0.01623346 -0.24107856 0.08306205
v -0.01951141 -0.24126232 0.07860894
v -0.01623564 -0.24113461 0.07893290
v -0.01961944 -0.24128234 0.07457989
v -0.01200495 -0.24096753 0.07480546
v -0.01201142 -0.24089989 0.07916791
v -0.01199182 -0.24081749 0.08338173
v -0.01195390 -0.24076693 0.08748039
v -0.01191601 -0.24074878 0.09143777
v -0.01188290 -0.24075069 0.09536987
v -0.01185532 -0.24076703 0.09931296
v -0.01178968 -0.24082726 0.10387984
v -0.00856705 -0.24058166 0.10357092
v -0.00852752 -0.24060497 0.10747711
v -0.00850638 -0.24066859 0.11144856
v -0.00857811 -0.24073863 0.11525509
v -0.00872047 -0.24076650 0.11940469
v -0.00858764 -0.24059211 0.09978760
v -0.00862009 -0.24070820 0.09587168
v -0.00908725 -0.24087200 0.13113967
v -0.00867123 -0.24090677 0.09192904
v -0.00903786 -0.24086052 0.12686928
v -0.00889077 -0.24082536 0.12326882
v -0.00898505 -0.24059422 0.14308642
v -0.00873734 -0.24108982 0.08791488
v -0.00883397 -0.24134082 0.08373301
v -0.00812633 -0.24105531 0.13955465
v -0.00875531 -0.24178365 0.07975014
v -0.00811063 -0.24119395 0.13582529
v -0.00809380 -0.24122573 0.13147111
v -0.00798391 -0.24134484 0.12707391
v -0.00774989 -0.24147718 0.12341604
v -0.00748112 -0.24156317 0.11948206
v -0.00736397 -0.24147595 0.09601883
v -0.00731187 -0.24139333 0.09989666
v -0.00745466 -0.24166055 0.09209367
v -0.00756851 -0.24186666 0.08805960
v -0.00725116 -0.24163157 0.11528131
v -0.00713603 -0.24160928 0.11150225
v -0.00727577 -0.24142881 0.10362547
v -0.00718921 -0.24151719 0.10752577
v -0.00773740 -0.24216634 0.08385190
v -0.00785738 -0.24239551 0.08149063
v 0.01071214 -0.24905685 0.14327475
v 0.00568202 -0.24916320 0.14335540
v 0.00573531 -0.24901235 0.13998859
v 0.00122863 -0.24908650 0.14002110
v 0.00590223 -0.24897221 0.13657637
v 0.00153594 -0.24929009 0.13752455
v -0.00128195 -0.24965726 0.13780260
v -0.00301305 -0.24959132 0.13979158
v -0.00414421 -0.25073138 0.13856499
v 0.01078505 -0.24864362 0.13644248
v 0.00709861 -0.24893315 0.13253318
v 0.01102452 -0.24864544 0.13234869
v 0.00635148 -0.24905053 0.12811436
v 0.01112936 -0.24871171 0.12761346
v 0.01544828 -0.24866946 0.12700784
v 0.01542202 -0.24858892 0.13192186
v 0.01930788 -0.24873164 0.12650073
v 0.01932198 -0.24875508 0.12215155
v 0.01533414 -0.24872136 0.11809734
v 0.00658010 -0.24897464 0.12272029
v 0.00209342 -0.24913087 0.12263037
v 0.00638664 -0.24900067 0.11817719
v 0.00194590 -0.24914721 0.11811945
v 0.00613274 -0.24908149 0.11412756
v 0.01069782 -0.24886681 0.11412691
v 0.01051300 -0.24897110 0.11049750
v 0.01522000 -0.24892607 0.11039960
v 0.01526647 -0.24879725 0.11405172
v 0.01934015 -0.24904859 0.11044674
v 0.01519261 -0.24912579 0.10656995
v 0.01933394 -0.24924439 0.10659910
v 0.01517372 -0.24931392 0.10256779
v 0.01932751 -0.24938509 0.10261681
v 0.01516110 -0.24938928 0.09879201
v 0.01032795 -0.24932605 0.10260404
v 0.01032131 -0.24939834 0.09880533
v 0.00556787 -0.24936903 0.10259854
v 0.00552768 -0.24941444 0.09895152
v 0.00110400 -0.24932177 0.10259696
v 0.00116874 -0.24928585 0.10660968
v -0.00289385 -0.24914360 0.10688799
v 0.00140067 -0.24926721 0.11046223
v -0.00296679 -0.24911241 0.10204440
v 0.00109545 -0.24934296 0.09895482
v -0.00272658 -0.24923122 0.11071148
v -0.00522533 -0.24856173 0.11095394
v -0.00528747 -0.24848665 0.10715886
v -0.00257940 -0.24922648 0.11426400
v -0.00534781 -0.24845031 0.10321537
v 0.00111924 -0.24937868 0.08830469
v -0.00300040 -0.24913730 0.09030633
v -0.00310438 -0.24914172 0.08343955
v -0.00554617 -0.24845442 0.08783101
v 0.00100173 -0.24938098 0.08329398
v 0.00546548 -0.24946491 0.08291794
v 0.00549498 -0.24946368 0.08733769
v 0.01510671 -0.24939300 0.08720589
v 0.01508358 -0.24937242 0.08319576
v 0.01932025 -0.24934278 0.08323345
v 0.01932105 -0.24940720 0.08934575
v 0.01507643 -0.24931987 0.07910622
v 0.01932749 -0.24917042 0.07511758
v 0.00518741 -0.24935240 0.07491297
v -0.00320282 -0.24908279 0.07492040
v 0.01005837 -0.24938384 0.07917550
v -0.00567448 -0.24845450 0.08368031
v -0.00580944 -0.24843913 0.07943939
v -0.00544440 -0.24845026 0.09181625
v 0.00563655 -0.24925610 0.10663275
v 0.00567185 -0.24943385 0.09252296
v 0.01517197 -0.24939166 0.09179647
v 0.01932308 -0.24945208 0.09877331
v 0.01039054 -0.24914080 0.10663598
v -0.00275625 -0.24963887 0.12319050
v -0.00256058 -0.24917649 0.11834341
v -0.00536223 -0.24848875 0.11860443
v -0.00547802 -0.24898802 0.12331241
v -0.00124970 -0.24964328 0.12660493
v 0.00217538 -0.24928974 0.12720625
v 0.01538505 -0.24858350 0.13613202
v 0.01537070 -0.24875620 0.13963495
v -0.00501415 -0.25089863 0.13852625
v -0.00521964 -0.25202188 0.13650157
v -0.00588910 -0.24919474 0.13969429
v -0.00608325 -0.24849215 0.14336605
v 0.01068628 -0.24882421 0.13987109
v 0.01928878 -0.24868956 0.13546835
v 0.01091353 -0.24876975 0.11851244
v 0.00583443 -0.24915422 0.11050609
v 0.00543732 -0.25069168 0.12934539
v -0.00337512 -0.24902190 0.14336729
v -0.00524227 -0.24855557 0.11450554
v 0.00527798 -0.24942523 0.07919753
v 0.00171968 -0.24922755 0.11406924
v -0.00539018 -0.24844977 0.09566961
v -0.00317265 -0.24910732 0.07925640
v 0.00092626 -0.24934386 0.07915796
v 0.01537829 -0.24895151 0.14315538
v 0.01537070 -0.24875620 0.13963495
v 0.01068628 -0.24882421 0.13987109
v 0.01533414 -0.24872136 0.11809734
v 0.01526647 -0.24879725 0.11405172
v 0.01934485 -0.24888004 0.11413947
v 0.01091353 -0.24876975 0.11851244
v -0.00256058 -0.24917649 0.11834341
v -0.00257940 -0.24922648 0.11426400
v 0.00171968 -0.24922755 0.11406924
v -0.00524227 -0.24855557 0.11450554
v -0.00317265 -0.24910732 0.07925640
v -0.00580944 -0.24843913 0.07943939
v -0.00590038 -0.24843371 0.07500015
vt 0.98095977 0.61001068
vt 0.98099643 0.60855716
vt 0.97957820 0.60864013
vt 0.98233747 0.60837179
vt 0.98231107 0.60995620
vt 0.98224407 0.60689133
vt 0.97982293 0.60694891
vt 0.97824442 0.60709959
vt 0.97818428 0.60862005
vt 0.97675288 0.60852534
vt 0.98116732 0.60733837
vt 0.97836649 0.60587710
vt 0.97937137 0.60600972
vt 0.97673100 0.60711390
vt 0.97676414 0.60539615
vt 0.97520095 0.60709822
vt 0.97526914 0.60838288
vt 0.97527832 0.60547757
vt 0.97383875 0.60706604
vt 0.98217773 0.61136293
vt 0.97387397 0.60554653
vt 0.97277671 0.60560197
vt 0.97399938 0.60374337
vt 0.98390031 0.60983771
vt 0.98387599 0.60826689
vt 0.97962844 0.60995275
vt 0.98379862 0.61130339
vt 0.98494387 0.61122251
vt 0.98497224 0.61247963
vt 0.98372954 0.61251736
vt 0.98502636 0.61372674
vt 0.97251540 0.60695565
vt 0.98496521 0.60975552
vt 0.98496360 0.60827219
vt 0.98206359 0.61248928
vt 0.98229831 0.61373025
vt 0.98494893 0.60703456
vt 0.98375773 0.60687697
vt 0.98495370 0.60569966
vt 0.98368073 0.60548556
vt 0.98497266 0.60427171
vt 0.98368061 0.60407311
vt 0.98502624 0.60298616
vt 0.98372054 0.60281926
vt 0.98380309 0.60150087
vt 0.98390067 0.60018194
vt 0.98521173 0.60030085
vt 0.98404378 0.59775120
vt 0.98527879 0.59902561
vt 0.98530966 0.59769684
vt 0.98411518 0.59626544
vt 0.98511893 0.60163200
vt 0.98531020 0.59634823
vt 0.98530781 0.59495968
vt 0.98417079 0.59488785
vt 0.98528123 0.59350735
vt 0.98421919 0.59344935
vt 0.98524803 0.59268987
vt 0.98439550 0.59207904
vt 0.98514390 0.59167325
vt 0.98406738 0.59040415
vt 0.97209704 0.60563409
vt 0.97194135 0.60473299
vt 0.97116482 0.60565192
vt 0.97115040 0.60413927
vt 0.96988511 0.60410893
vt 0.96985531 0.60566568
vt 0.96859133 0.60419255
vt 0.96856481 0.60561496
vt 0.96728379 0.60549366
vt 0.96730679 0.60427547
vt 0.97207075 0.60649574
vt 0.96991706 0.60304868
vt 0.96862882 0.60287499
vt 0.97070611 0.60315174
vt 0.96732789 0.60300034
vt 0.96777254 0.60249996
vt 0.97115481 0.60657430
vt 0.96651417 0.60428393
vt 0.96659917 0.60335791
vt 0.96820748 0.60249937
vt 0.96650946 0.60543615
vt 0.97160298 0.60360754
vt 0.98106307 0.61141247
vt 0.98245931 0.60530233
vt 0.98247874 0.60391027
vt 0.98252147 0.60270232
vt 0.97829878 0.60992932
vt 0.98260176 0.60140973
vt 0.98282963 0.59615904
vt 0.98277485 0.59748012
vt 0.98267084 0.60006297
vt 0.98288941 0.59479064
vt 0.96984643 0.60660714
vt 0.98295462 0.59336334
vt 0.97390908 0.60829091
vt 0.97542655 0.60424018
vt 0.98302603 0.59190315
vt 0.97253466 0.60402703
vt 0.97623104 0.60444117
vt 0.96853304 0.60644335
vt 0.96909076 0.60251170
vt 0.98139900 0.61211663
vt 0.97691166 0.60958445
vt 0.98570132 0.59042639
vt 0.97365057 0.60285944
vt 0.97286063 0.60281396
vt 0.97540480 0.60932130
vt 0.96685010 0.60258204
vt 0.97979301 0.61091530
vt 0.97879261 0.61059493
vt 0.96654159 0.60593563
vt 0.96722168 0.60613298
vt 0.97261286 0.60836607
vt 0.97121215 0.60805947
vt 0.97116065 0.60718250
vt 0.98561436 0.59208262
vt 0.64945555 0.20279920
vt 0.65120459 0.20433521
vt 0.65114564 0.20274401
vt 0.64946240 0.20130694
vt 0.65104085 0.20119476
vt 0.64954954 0.20429528
vt 0.65119320 0.20557475
vt 0.64969307 0.20548707
vt 0.65272868 0.20266187
vt 0.65275598 0.20424849
vt 0.65262651 0.20110786
vt 0.65271467 0.20545161
vt 0.64945030 0.20017165
vt 0.65074754 0.20003247
vt 0.65254730 0.20017284
vt 0.65316731 0.20027113
vt 0.64971983 0.20612979
vt 0.65113962 0.20623839
vt 0.65227759 0.20609522
vt 0.65329939 0.20419347
vt 0.65330189 0.20502239
vt 0.65327924 0.20262682
vt 0.65322751 0.20106256
vt 0.64871675 0.20419383
vt 0.64858490 0.20279914
vt 0.64899057 0.20536637
vt 0.64987475 0.19972068
vt 0.64973009 0.19973868
vt 0.64916575 0.20589638
vt 0.64861250 0.20138115
vt 0.64875025 0.20049399
vt 0.65322751 0.20580208
vt 0.42866030 0.74616265
vt 0.42892092 0.74533689
vt 0.42969587 0.74536711
vt 0.42770344 0.74528509
vt 0.42768940 0.74669963
vt 0.42611203 0.74521792
vt 0.42458606 0.74665111
vt 0.42448243 0.74527901
vt 0.42622468 0.74670225
vt 0.42312872 0.74675345
vt 0.42367554 0.74578905
vt 0.42722130 0.74755788
vt 0.42393839 0.74488699
vt 0.42929351 0.74678546
vt 0.42818299 0.74724191
vt 0.43085274 0.74685311
vt 0.43075562 0.74539948
vt 0.43230778 0.74683094
vt 0.43244222 0.74776673
vt 0.43341646 0.74766141
vt 0.43356195 0.74682742
vt 0.43433163 0.74684101
vt 0.43224707 0.74542874
vt 0.42304441 0.74523199
vt 0.42265138 0.74628043
vt 0.42131215 0.74508131
vt 0.42135632 0.74648005
vt 0.43357977 0.74544644
vt 0.42143884 0.74372631
vt 0.43438086 0.74545598
vt 0.43532339 0.74549866
vt 0.43530214 0.74693960
vt 0.42002723 0.74511170
vt 0.42008710 0.74352598
vt 0.42398283 0.74424076
vt 0.42902437 0.74406153
vt 0.42781615 0.74401528
vt 0.42624757 0.74394619
vt 0.42978895 0.74406523
vt 0.42308921 0.74381143
vt 0.42462361 0.74386376
vt 0.43082547 0.74407738
vt 0.43350255 0.74415261
vt 0.43232501 0.74412060
vt 0.43428355 0.74414808
vt 0.43537495 0.74409729
vt 0.43625998 0.74553323
vt 0.43626603 0.74708450
vt 0.43625888 0.74806130
vt 0.43628046 0.74399865
vt 0.43542853 0.74813783
vt 0.42003554 0.74641347
vt 0.43102530 0.74786866
vt 0.42637396 0.74762368
vt 0.43402126 0.74811912
vt 0.43338811 0.74336886
vt 0.42887431 0.74336106
vt 0.42373633 0.74340296
vt 0.43631485 0.74269164
vt 0.42045727 0.74246359
vt 0.43548596 0.74277669
vt 0.42281592 0.74308115
vt 0.42178386 0.74282700
vt 0.43399099 0.74286669
vt 0.43249306 0.74316895
vt 0.42803016 0.74317080
vt 0.43632075 0.74209481
vt 0.42478591 0.74772716
vt 0.42959714 0.74799418
vt 0.41937622 0.74501747
vt 0.41948912 0.74396968
vt 0.43107307 0.74294925
vt 0.42657351 0.74294424
vt 0.43559259 0.74198943
vt 0.41933963 0.74668562
vt 0.42501631 0.74279708
vt 0.42959586 0.74285781
vt 0.41963246 0.74284029
vt 0.43419111 0.74182504
vt 0.43266910 0.74240071
vt 0.42324769 0.74783415
vt 0.42800367 0.74799788
vt 0.42207727 0.74806130
vt 0.42357200 0.74266732
vt 0.43281552 0.74162012
vt 0.43133855 0.74197489
vt 0.42144552 0.74767947
vt 0.42835620 0.74231541
vt 0.97558469 0.41312027
vt 0.97561389 0.41241729
vt 0.97392786 0.41237867
vt 0.97392207 0.41311646
vt 0.97561485 0.41137159
vt 0.97389781 0.41133404
vt 0.97386003 0.40985411
vt 0.97560042 0.40990484
vt 0.97560620 0.40886259
vt 0.97384804 0.40879065
vt 0.97745419 0.40881300
vt 0.97748905 0.40805435
vt 0.97849077 0.40792620
vt 0.97564626 0.40810865
vt 0.97387373 0.40803552
vt 0.97267526 0.40782374
vt 0.97704166 0.41146219
vt 0.97761959 0.41017044
vt 0.97659212 0.41224647
vt 0.97753251 0.40697420
vt 0.97570455 0.40690202
vt 0.97858483 0.40702152
vt 0.97391093 0.40684843
vt 0.97227311 0.40682322
vt 0.97171527 0.40732056
vt 0.97161520 0.40631807
vt 0.97298950 0.41217238
vt 0.97240025 0.40533960
vt 0.97387648 0.40536165
vt 0.97163594 0.40582359
vt 0.97570825 0.40541464
vt 0.97754377 0.40549207
vt 0.97855455 0.40554130
vt 0.97844422 0.40475547
vt 0.97752017 0.40467674
vt 0.97382545 0.40456235
vt 0.97285211 0.40457714
vt 0.97567612 0.40458894
vt 0.97268921 0.41134071
vt 0.97210753 0.40979230
vt 0.97217441 0.40832508
vt 0.97838342 0.41084409
vt 0.97860247 0.40984333
vt 0.97877359 0.40854383
vt 0.97388637 0.41434455
vt 0.97550958 0.41428494
vt 0.97544473 0.41547847
vt 0.97385716 0.41556215
vt 0.97542423 0.41649646
vt 0.97384888 0.41656709
vt 0.97391057 0.41792679
vt 0.97542608 0.41810751
vt 0.97495174 0.41887116
vt 0.97399580 0.41899955
vt 0.97319669 0.41904211
vt 0.97593004 0.41883743
vt 0.97638482 0.41529256
vt 0.97665876 0.41784567
vt 0.97679108 0.41449511
vt 0.97408873 0.42005217
vt 0.97300082 0.41545010
vt 0.97292757 0.41810882
vt 0.97742587 0.41301358
vt 0.97802216 0.41163301
vt 0.97272408 0.41461992
vt 0.97126007 0.40836167
vt 0.97129399 0.40925628
vt 0.97719890 0.41640544
vt 0.97197658 0.40482032
vt 0.97237802 0.41304511
vt 0.97560722 0.42003524
vt 0.97253281 0.41648364
vt 0.97530782 0.42118168
vt 0.97622496 0.42116010
vt 0.97584081 0.42171752
vt 0.97479522 0.42175674
vt 0.97721040 0.41991079
vt 0.97724277 0.41858566
vt 0.97410142 0.42128408
vt 0.97324944 0.42114109
vt 0.97294474 0.41995943
vt 0.97122639 0.41038311
vt 0.97702312 0.42205822
vt 0.97748667 0.42118621
vt 0.97830755 0.41384310
vt 0.97783631 0.41485763
vt 0.97800648 0.41751373
vt 0.97469127 0.42201370
vt 0.97571564 0.42225325
vt 0.97859633 0.41290522
vt 0.97844422 0.41635036
vt 0.97818291 0.41980010
vt 0.97371894 0.42196012
vt 0.97297269 0.42195225
vt 0.90228188 0.39080274
vt 0.90271968 0.38951659
vt 0.90035951 0.39024580
vt 0.90043086 0.39173257
vt 0.90182835 0.39212382
vt 0.90037137 0.39279342
vt 0.90123338 0.39363527
vt 0.90096003 0.38901699
vt 0.90152115 0.38772571
vt 0.89943677 0.38863969
vt 0.89950305 0.38733876
vt 0.90211582 0.38645411
vt 0.89945453 0.38954496
vt 0.90032703 0.38596070
vt 0.90261167 0.38508046
vt 0.90115029 0.38468164
vt 0.90215272 0.38441640
vt 0.90264368 0.38305879
vt 0.90139401 0.38344812
vt 0.90238315 0.38447201
vt 0.90277916 0.38309801
vt 0.90324825 0.39270169
vt 0.90284967 0.39419258
vt 0.90244484 0.39562190
vt 0.90135801 0.39530313
vt 0.90144062 0.39615524
vt 0.90214115 0.39667499
vt 0.89952743 0.38436091
vt 0.89899403 0.38559163
vt 0.89882028 0.38678885
vt 0.90315038 0.38820094
vt 0.90002483 0.38310158
vt 0.90352583 0.39606476
vt 0.90313041 0.39713299
vt 0.90032917 0.39402211
vt 0.89943826 0.39047861
vt 0.89866126 0.38772130
vt 0.90363282 0.39146376
vt 0.90312213 0.38392025
vt 0.90352041 0.38687629
vt 0.90326166 0.39778709
vt 0.90372366 0.38990134
vt 0.90371358 0.39458919
vt 0.90394175 0.39305496
vt 0.90398633 0.38850892
vt 0.90025753 0.38225889
vt 0.90191972 0.38258481
vt 0.90394068 0.38554895
vt 0.90406746 0.39223045
vt 0.89931744 0.39153290
vt 0.90164191 0.39773130
vt 0.90173888 0.39872223
vt 0.90289688 0.39896470
vt 0.90396613 0.39927578
vt 0.90269744 0.39949608
vt 0.90396959 0.39990687
vt 0.89858490 0.38850278
vt 0.89942235 0.38291597
vt 0.89966238 0.38221598
vt 0.89870286 0.38502741
vt 0.89999551 0.39527833
vt 0.90129489 0.39923823
vt 0.89896494 0.38421822
vt 0.90393651 0.38415098
vt 0.90424526 0.38712287
vt 0.90396959 0.38332200
vt 0.90331280 0.38300347
vt 0.62019289 0.91764712
vt 0.62205386 0.91975266
vt 0.62022465 0.91966110
vt 0.62351048 0.91831410
vt 0.62501067 0.91906178
vt 0.62327278 0.91966742
vt 0.62503022 0.91980851
vt 0.62338859 0.92037535
vt 0.62503421 0.92086035
vt 0.62644953 0.92084438
vt 0.62645811 0.92219663
vt 0.62493998 0.92301601
vt 0.62583870 0.92416877
vt 0.62352991 0.92224091
vt 0.62380707 0.92368507
vt 0.62162119 0.92237908
vt 0.62169927 0.92392397
vt 0.62352383 0.92500192
vt 0.62200844 0.92512190
vt 0.62145984 0.92476374
vt 0.62479657 0.92633486
vt 0.62586808 0.92658877
vt 0.62586343 0.92797023
vt 0.62164068 0.92092866
vt 0.62029946 0.92230552
vt 0.62033617 0.92368305
vt 0.62026042 0.92094517
vt 0.62052208 0.92510808
vt 0.62481928 0.92766857
vt 0.62350768 0.92636544
vt 0.62466091 0.92893201
vt 0.62410349 0.93096793
vt 0.62346047 0.92896295
vt 0.62343061 0.93096763
vt 0.62348467 0.92770052
vt 0.62198317 0.92636532
vt 0.62197661 0.92770487
vt 0.62195790 0.92897207
vt 0.62210178 0.93034583
vt 0.62080479 0.92895603
vt 0.62095398 0.92988658
vt 0.62084258 0.92768741
vt 0.62003791 0.92893201
vt 0.62039775 0.93029106
vt 0.62007904 0.92766434
vt 0.62104446 0.92635196
vt 0.62114078 0.92563033
vt 0.62028223 0.92632657
vt 0.61878747 0.92368281
vt 0.61869043 0.92491651
vt 0.61897433 0.92625350
vt 0.61861706 0.92220461
vt 0.61860037 0.92104894
vt 0.61871988 0.91965485
vt 0.62152529 0.93077970
vt 0.62032807 0.93157065
vt 0.62201619 0.93156558
vt 0.62344468 0.93196768
vt 0.62482035 0.93152726
vt 0.62500244 0.93299758
vt 0.62614536 0.93357694
vt 0.62495834 0.93539560
vt 0.62640011 0.93803173
vt 0.62601221 0.93035603
vt 0.62341112 0.93608862
vt 0.62503171 0.93795395
vt 0.62339079 0.93808752
vt 0.62338668 0.94088906
vt 0.62495291 0.93945616
vt 0.62338680 0.93945533
vt 0.62188530 0.93486685
vt 0.62181550 0.93718690
vt 0.62183583 0.93947691
vt 0.62192965 0.93286330
vt 0.62030441 0.93463707
vt 0.62031978 0.93284523
vt 0.62022281 0.94092518
vt 0.61889106 0.94089419
vt 0.61816084 0.94084466
vt 0.61878461 0.93942767
vt 0.61802173 0.93855023
vt 0.61802763 0.93785828
vt 0.62023878 0.93948168
vt 0.62025976 0.93810433
vt 0.62027895 0.93675977
vt 0.61877608 0.93803942
vt 0.61879468 0.93647516
vt 0.61892372 0.93405432
vt 0.61921585 0.92933398
vt 0.61914861 0.92761147
vt 0.61896330 0.93149835
vt 0.61890411 0.93276727
vt 0.61804557 0.93664455
vt 0.61818981 0.93530977
vt 0.61822546 0.92623007
vt 0.61806291 0.92530066
vt 0.61818111 0.93239683
vt 0.61847836 0.92881149
vt 0.60857326 0.91722083
vt 0.60718310 0.91799206
vt 0.60862851 0.91951722
vt 0.61280352 0.91797727
vt 0.61062455 0.91912901
vt 0.60721517 0.92160863
vt 0.60982323 0.92970628
vt 0.61107486 0.93171042
vt 0.60845286 0.93169516
vt 0.60861009 0.92528206
vt 0.61112082 0.92753625
vt 0.60854179 0.92767984
vt 0.61123437 0.92969000
vt 0.61278766 0.93021208
vt 0.61273324 0.92532969
vt 0.61273080 0.92772496
vt 0.61423963 0.92771792
vt 0.61423975 0.92901641
vt 0.61275822 0.93163925
vt 0.60981494 0.93299329
vt 0.60712320 0.92957950
vt 0.60712570 0.93170965
vt 0.60845059 0.93300396
vt 0.60982567 0.93431002
vt 0.60845786 0.93431526
vt 0.60852611 0.93566871
vt 0.61127388 0.93561691
vt 0.61128587 0.93693084
vt 0.61278278 0.93824279
vt 0.61129534 0.93827099
vt 0.60988235 0.93829447
vt 0.60857242 0.93696970
vt 0.60852677 0.93830007
vt 0.60716045 0.93563974
vt 0.60719037 0.93695647
vt 0.60722101 0.93830323
vt 0.60713941 0.93432158
vt 0.60712820 0.93301636
vt 0.61129147 0.93412560
vt 0.61125177 0.93296957
vt 0.61276567 0.93294740
vt 0.61425239 0.93424356
vt 0.61425406 0.93556160
vt 0.61277550 0.93559331
vt 0.61277944 0.93690473
vt 0.61425614 0.93686950
vt 0.61424959 0.93292183
vt 0.61424547 0.93161738
vt 0.61424124 0.93031675
vt 0.60846937 0.92941648
vt 0.60716140 0.92776936
vt 0.60722190 0.92553109
vt 0.60861260 0.92248797
vt 0.60864311 0.92093015
vt 0.61280537 0.92080188
vt 0.61270612 0.92253029
vt 0.61058581 0.92370647
vt 0.61123526 0.92504346
vt 0.60391653 0.93974048
vt 0.60382384 0.93832487
vt 0.60591030 0.93830252
vt 0.60593069 0.93971545
vt 0.60724467 0.93971127
vt 0.60377210 0.93698221
vt 0.60588068 0.93695539
vt 0.60586554 0.93563205
vt 0.60582376 0.93432021
vt 0.60360634 0.93424433
vt 0.60353661 0.93296885
vt 0.60383785 0.93171102
vt 0.60579455 0.93171507
vt 0.60580552 0.93301910
vt 0.60570216 0.92946941
vt 0.60573453 0.92755771
vt 0.60443425 0.92907220
vt 0.60402960 0.92774737
vt 0.60250050 0.92905861
vt 0.60209906 0.92642301
vt 0.60436308 0.92416567
vt 0.60438180 0.92644411
vt 0.60577255 0.92448062
vt 0.60576588 0.92185718
vt 0.60574573 0.91989326
vt 0.60434788 0.92057765
vt 0.60572249 0.91791284
vt 0.60305852 0.92094260
vt 0.60285509 0.93038279
vt 0.60854685 0.93970096
vt 0.60989368 0.93968540
vt 0.61129570 0.93965244
vt 0.61562616 0.93024331
vt 0.61562830 0.93154252
vt 0.61562550 0.92893577
vt 0.61562836 0.92765254
vt 0.61563152 0.93283290
vt 0.61278087 0.93961906
vt 0.61564136 0.93546069
vt 0.61563605 0.93414861
vt 0.61564088 0.92629963
vt 0.61424184 0.92636168
vt 0.61425078 0.92374367
vt 0.61426300 0.92239577
vt 0.61429405 0.91839641
vt 0.61427248 0.92104733
vt 0.61566055 0.92499882
vt 0.61564821 0.93677169
vt 0.61800283 0.92160624
vt 0.61426079 0.93821251
vt 0.61565894 0.93812680
vt 0.60726213 0.94115365
vt 0.60594541 0.94116372
vt 0.60990036 0.94112003
vt 0.61567473 0.92375630
vt 0.61674064 0.92755246
vt 0.61675960 0.92881948
vt 0.61676699 0.93132836
vt 0.61676705 0.93271345
vt 0.61677241 0.93401730
vt 0.61677700 0.93532968
vt 0.61436850 0.93967515
vt 0.61568898 0.91965729
vt 0.61568755 0.92103046
vt 0.61569172 0.91833740
vt 0.61568379 0.92240506
vt 0.61271590 0.94116813
vt 0.61506808 0.94016576
vt 0.61673427 0.92620379
vt 0.61674649 0.92491889
vt 0.61674947 0.92371374
vt 0.61558908 0.93961245
vt 0.61601180 0.94093829
vt 0.61678958 0.93940979
vt 0.61683458 0.94083452
vt 0.61678362 0.93801486
vt 0.61677963 0.93665099
vt 0.61760896 0.94079971
vt 0.61679155 0.91961086
vt 0.61803913 0.92907327
vt 0.61806720 0.93257904
vt 0.61802685 0.93523383
vt 0.61805600 0.92620951
vt 0.61679077 0.92096776
vt 0.61676913 0.92235655
vt 0.61766922 0.92220461
vt 0.61759919 0.91961759
vt 0.61759526 0.91830200
vt 0.61768049 0.92104024
vt 0.61748445 0.93936855
vt 0.61758763 0.92367250
vt 0.61769342 0.92487061
vt 0.61761558 0.93796724
vt 0.61757731 0.92616647
vt 0.61764896 0.93660980
vt 0.61763704 0.93528503
vt 0.61765140 0.93267649
vt 0.61764306 0.93397117
vt 0.61758715 0.92877483
vt 0.61762887 0.93069714
vt 0.61757183 0.92750788
vt 0.21928023 0.84214139
vt 0.22126712 0.84003478
vt 0.22317430 0.84106129
vt 0.21940702 0.83926338
vt 0.21804608 0.83966196
vt 0.21656324 0.84137988
vt 0.21667635 0.83846974
vt 0.21529108 0.83872390
vt 0.21682464 0.83396733
vt 0.21483645 0.83327788
vt 0.21494022 0.83121973
vt 0.21474442 0.83549416
vt 0.21439229 0.82945120
vt 0.21694909 0.83014482
vt 0.22131690 0.83810353
vt 0.22335903 0.83854908
vt 0.22195382 0.83716005
vt 0.22073837 0.83510977
vt 0.22081250 0.83155364
vt 0.22207367 0.83253968
vt 0.21950661 0.83504891
vt 0.21955514 0.83119053
vt 0.21819878 0.83465707
vt 0.21828566 0.82970119
vt 0.21707295 0.82631814
vt 0.21841460 0.82475424
vt 0.21974795 0.82349694
vt 0.21854518 0.82164443
vt 0.21985269 0.82081908
vt 0.22180070 0.82156831
vt 0.21863429 0.81884605
vt 0.21717797 0.82342786
vt 0.21729565 0.82074320
vt 0.21602100 0.82070965
vt 0.21546194 0.81858385
vt 0.21580017 0.82629347
vt 0.21591426 0.82340133
vt 0.21114717 0.82127666
vt 0.21402234 0.82335025
vt 0.22055978 0.81875980
vt 0.22183329 0.82020193
vt 0.22277901 0.81885099
vt 0.22173931 0.82354617
vt 0.22181132 0.82645804
vt 0.22157653 0.82837111
vt 0.21963140 0.82735533
vt 0.22366102 0.83002150
vt 0.22218628 0.82999015
vt 0.22358039 0.83277720
vt 0.22345369 0.83454919
vt 0.22198780 0.83516401
vt 0.22338392 0.83653682
vt 0.22456375 0.84244865
vt 0.22436619 0.83943903
vt 0.22511654 0.83955061
vt 0.22520483 0.84125465
vt 0.22629949 0.84012383
vt 0.22633207 0.83880365
vt 0.22729653 0.83902186
vt 0.22726598 0.84029686
vt 0.22637400 0.83742338
vt 0.22438096 0.83746022
vt 0.22642791 0.83605123
vt 0.22451065 0.83580202
vt 0.22461782 0.83417439
vt 0.22648172 0.83482379
vt 0.22540842 0.83336639
vt 0.22466123 0.83278620
vt 0.22548181 0.83203942
vt 0.22653277 0.83354509
vt 0.22658230 0.83217895
vt 0.22555743 0.83046943
vt 0.22475724 0.82973099
vt 0.22474718 0.82806265
vt 0.22542678 0.82707715
vt 0.22466099 0.82660317
vt 0.22463362 0.82470936
vt 0.22538213 0.82482958
vt 0.22440483 0.82190979
vt 0.22540453 0.82306063
vt 0.22544068 0.82174081
vt 0.22439423 0.82024246
vt 0.22548404 0.82038373
vt 0.22440103 0.81891650
vt 0.22694187 0.81907266
vt 0.22689232 0.82050699
vt 0.22685269 0.82189149
vt 0.22682279 0.82323730
vt 0.22679427 0.82453740
vt 0.22676347 0.82582897
vt 0.22673091 0.82712352
vt 0.22670513 0.82862353
vt 0.22778478 0.82855397
vt 0.22775827 0.82983702
vt 0.22772451 0.83114153
vt 0.22766218 0.83239186
vt 0.22757196 0.83375418
vt 0.22781487 0.82731241
vt 0.22784439 0.82602757
vt 0.22733065 0.83760941
vt 0.22787170 0.82473135
vt 0.22739071 0.83620560
vt 0.22747645 0.83502257
vt 0.22724816 0.84154326
vt 0.22789447 0.82341194
vt 0.22791402 0.82203770
vt 0.22758055 0.84038436
vt 0.22801067 0.82072699
vt 0.22762491 0.83915931
vt 0.22767863 0.83772928
vt 0.22777508 0.83628619
vt 0.22791250 0.83508879
vt 0.22806154 0.83380020
vt 0.22833458 0.82608092
vt 0.22831619 0.82735837
vt 0.22834873 0.82478827
vt 0.22836168 0.82346070
vt 0.22819525 0.83242267
vt 0.22827767 0.83118165
vt 0.22829951 0.82858688
vt 0.22829765 0.82987201
vt 0.22837107 0.82207400
vt 0.22837868 0.82129407
vt 0.45462444 0.97266537
vt 0.45462653 0.97091728
vt 0.45576680 0.97095704
vt 0.45578238 0.96939129
vt 0.45692068 0.97103590
vt 0.45662892 0.96950889
vt 0.45655838 0.96851975
vt 0.45589232 0.96790951
vt 0.45639861 0.96743745
vt 0.45693794 0.97273660
vt 0.45828229 0.97147530
vt 0.45832208 0.97284365
vt 0.45978233 0.97123963
vt 0.45992434 0.97290629
vt 0.46010581 0.97440988
vt 0.45844257 0.97437364
vt 0.46025702 0.97575349
vt 0.46172896 0.97578210
vt 0.46312165 0.97441834
vt 0.46160671 0.97135246
vt 0.46166357 0.96979362
vt 0.46314546 0.97131246
vt 0.46319115 0.96976954
vt 0.46451777 0.97124779
vt 0.46449071 0.97283524
vt 0.46572062 0.97279161
vt 0.46572730 0.97442728
vt 0.46449018 0.97442275
vt 0.46569017 0.97585881
vt 0.46702534 0.97444004
vt 0.46699408 0.97587907
vt 0.46838152 0.97445661
vt 0.46834281 0.97589940
vt 0.46965978 0.97447330
vt 0.46839565 0.97277319
vt 0.46968165 0.97279209
vt 0.46842369 0.97111970
vt 0.46965837 0.97112614
vt 0.46844840 0.96956915
vt 0.46708983 0.96956915
vt 0.46701732 0.96815568
vt 0.46578461 0.96962833
vt 0.46865711 0.96815622
vt 0.46968117 0.96958643
vt 0.46572199 0.96819341
vt 0.46565723 0.96729320
vt 0.46694231 0.96729165
vt 0.46451876 0.96822160
vt 0.46827602 0.96729320
vt 0.47328568 0.96965361
vt 0.47263017 0.96820921
vt 0.47495484 0.96821082
vt 0.47348148 0.96730661
vt 0.47498226 0.96964031
vt 0.47508565 0.97119325
vt 0.47358960 0.97117913
vt 0.47358280 0.97451866
vt 0.47494024 0.97453278
vt 0.47490481 0.97600418
vt 0.47283590 0.97597080
vt 0.47632453 0.97455287
vt 0.47765231 0.97605181
vt 0.47780651 0.97114104
vt 0.47785705 0.96822113
vt 0.47633037 0.97280812
vt 0.47488701 0.96728539
vt 0.47632313 0.96726108
vt 0.47213209 0.96731949
vt 0.46705756 0.97112107
vt 0.47183353 0.97121209
vt 0.47202793 0.97451639
vt 0.46964410 0.97592169
vt 0.46702975 0.97277182
vt 0.46150285 0.96809655
vt 0.46314910 0.96820259
vt 0.46310651 0.96719730
vt 0.46150509 0.96712339
vt 0.46033716 0.96859622
vt 0.46011347 0.96979034
vt 0.45701730 0.97433680
vt 0.45583004 0.97431099
vt 0.45640254 0.96712947
vt 0.45717296 0.96696544
vt 0.45566931 0.96692669
vt 0.45442373 0.96716547
vt 0.45577782 0.97267944
vt 0.45722011 0.97569746
vt 0.46300519 0.97288358
vt 0.46574593 0.97116673
vt 0.45913661 0.97082609
vt 0.45467466 0.96781856
vt 0.46447200 0.96728730
vt 0.47634974 0.97114569
vt 0.46456328 0.96971756
vt 0.47082552 0.96732038
vt 0.47637755 0.96820158
vt 0.47638839 0.96963406
vt 0.77310050 0.76241940
vt 0.77216840 0.76154786
vt 0.77122641 0.76303536
vt 0.99811250 0.03125739
vt 0.99692082 0.03305399
vt 0.99575472 0.03119183
vt 0.99952829 0.03305399
vt 0.73726416 0.42597765
vt 0.73613989 0.42466903
vt 0.73443395 0.42559880
vt 0.73726416 0.42411542
vt 0.43632075 0.71461827
vt 0.43537736 0.71461827
vt 0.43544957 0.71275604
f 859/859 858/858 865/865
f 865/865 858/858 794/794
f 794/794 793/793 795/795
f 796/796 793/793 797/797
f 879/879 880/880 881/881
f 806/806 805/805 807/807
f 807/807 805/805 808/808
f 809/809 808/808 810/810
f 811/811 810/810 812/812
f 850/850 812/812 849/849
f 838/838 849/849 835/835
f 835/835 836/836 837/837
f 837/837 836/836 839/839
f 405/405 406/406 404/404
f 405/405 404/404 403/403
f 410/410 411/411 413/413
f 413/413 420/420 419/419
f 419/419 421/421 427/427
f 427/427 421/421 429/429
f 429/429 421/421 430/430
f 430/430 462/462 457/457
f 876/876 878/878 877/877
f 859/859 864/864 788/788
f 859/859 788/788 858/858
f 858/858 788/788 790/790
f 858/858 790/790 794/794
f 790/790 792/792 793/793
f 794/794 790/790 793/793
f 792/792 866/866 793/793
f 793/793 866/866 797/797
f 866/866 803/803 806/806
f 879/879 882/882 880/880
f 803/803 804/804 805/805
f 806/806 803/803 805/805
f 805/805 804/804 851/851
f 805/805 851/851 808/808
f 851/851 813/813 810/810
f 808/808 851/851 810/810
f 813/813 814/814 812/812
f 810/810 813/813 812/812
f 812/812 814/814 849/849
f 849/849 814/814 848/848
f 848/848 834/834 835/835
f 849/849 848/848 835/835
f 835/835 834/834 833/833
f 835/835 833/833 836/836
f 836/836 833/833 843/843
f 836/836 843/843 839/839
f 839/839 843/843 840/840
f 351/351 349/349 348/348
f 351/351 346/346 370/370
f 351/351 352/352 349/349
f 370/370 398/398 352/352
f 351/351 370/370 352/352
f 130/130 131/131 144/144
f 145/145 130/130 144/144
f 779/779 781/781 864/864
f 781/781 783/783 788/788
f 864/864 781/781 788/788
f 788/788 783/783 789/789
f 788/788 789/789 790/790
f 790/790 789/789 791/791
f 790/790 791/791 792/792
f 792/792 791/791 798/798
f 792/792 798/798 866/866
f 866/866 798/798 800/800
f 800/800 802/802 803/803
f 866/866 800/800 803/803
f 802/802 867/867 804/804
f 803/803 802/802 804/804
f 867/867 847/847 851/851
f 804/804 867/867 851/851
f 847/847 815/815 813/813
f 851/851 847/847 813/813
f 815/815 816/816 814/814
f 813/813 815/815 814/814
f 814/814 816/816 848/848
f 833/833 871/871 843/843
f 843/843 871/871 841/841
f 364/364 355/355 358/358
f 365/365 364/364 358/358
f 232/232 236/236 159/159
f 232/232 159/159 230/230
f 355/355 356/356 357/357
f 358/358 355/355 357/357
f 364/364 374/374 354/354
f 364/364 354/354 355/355
f 159/159 156/156 217/217
f 230/230 159/159 217/217
f 355/355 354/354 338/338
f 355/355 338/338 356/356
f 375/375 353/353 354/354
f 374/374 375/375 354/354
f 156/156 158/158 203/203
f 217/217 156/156 203/203
f 353/353 336/336 338/338
f 354/354 353/353 338/338
f 336/336 335/335 337/337
f 338/338 336/336 337/337
f 380/380 369/369 353/353
f 375/375 380/380 353/353
f 158/158 154/154 161/161
f 203/203 158/158 161/161
f 161/161 154/154 164/164
f 161/161 164/164 231/231
f 369/369 332/332 336/336
f 353/353 369/369 336/336
f 332/332 334/334 335/335
f 336/336 332/332 335/335
f 373/373 333/333 332/332
f 369/369 373/373 332/332
f 164/164 163/163 218/218
f 231/231 164/164 218/218
f 333/333 339/339 334/334
f 332/332 333/333 334/334
f 339/339 341/341 344/344
f 334/334 339/339 344/344
f 376/376 362/362 333/333
f 373/373 376/376 333/333
f 163/163 165/165 202/202
f 218/218 163/163 202/202
f 333/333 362/362 340/340
f 333/333 340/340 339/339
f 340/340 342/342 341/341
f 339/339 340/340 341/341
f 376/376 396/396 371/371
f 376/376 371/371 362/362
f 165/165 167/167 168/168
f 202/202 165/165 168/168
f 362/362 371/371 343/343
f 362/362 343/343 340/340
f 343/343 345/345 342/342
f 340/340 343/343 342/342
f 342/342 345/345 360/360
f 342/342 360/360 361/361
f 168/168 169/169 204/204
f 396/396 379/379 371/371
f 167/167 170/170 169/169
f 168/168 167/167 169/169
f 169/169 170/170 171/171
f 169/169 171/171 204/204
f 371/371 379/379 346/346
f 371/371 346/346 343/343
f 346/346 347/347 345/345
f 343/343 346/346 345/345
f 347/347 359/359 360/360
f 345/345 347/347 360/360
f 359/359 394/394 391/391
f 360/360 359/359 391/391
f 379/379 395/395 370/370
f 379/379 370/370 346/346
f 171/171 181/181 200/200
f 204/204 171/171 200/200
f 350/350 363/363 359/359
f 347/347 350/350 359/359
f 359/359 363/363 389/389
f 359/359 389/389 394/394
f 397/397 398/398 370/370
f 395/395 397/397 370/370
f 181/181 197/197 198/198
f 200/200 181/181 198/198
f 147/147 121/121 130/130
f 148/148 147/147 130/130
f 130/130 121/121 122/122
f 130/130 122/122 131/131
f 350/350 378/378 377/377
f 350/350 377/377 363/363
f 131/131 122/122 128/128
f 131/131 128/128 132/132
f 377/377 390/390 389/389
f 363/363 377/377 389/389
f 128/128 140/140 133/133
f 132/132 128/128 133/133
f 417/417 445/445 426/426
f 417/417 426/426 418/418
f 780/780 782/782 781/781
f 782/782 784/784 783/783
f 781/781 782/782 783/783
f 791/791 857/857 799/799
f 791/791 799/799 798/798
f 799/799 801/801 800/800
f 798/798 799/799 800/800
f 801/801 872/872 802/802
f 800/800 801/801 802/802
f 872/872 820/820 867/867
f 802/802 872/872 867/867
f 820/820 818/818 847/847
f 867/867 820/820 847/847
f 818/818 817/817 815/815
f 847/847 818/818 815/815
f 817/817 822/822 816/816
f 815/815 817/817 816/816
f 816/816 822/822 828/828
f 816/816 828/828 848/848
f 848/848 828/828 834/834
f 828/828 832/832 833/833
f 834/834 828/828 833/833
f 833/833 832/832 875/875
f 833/833 875/875 871/871
f 871/871 875/875 841/841
f 387/387 385/385 384/384
f 387/387 384/384 386/386
f 219/219 182/182 201/201
f 224/224 219/219 201/201
f 386/386 384/384 383/383
f 386/386 383/383 393/393
f 201/201 176/176 236/236
f 385/385 372/372 384/384
f 201/201 182/182 175/175
f 201/201 175/175 176/176
f 372/372 382/382 383/383
f 384/384 372/372 383/383
f 176/176 174/174 159/159
f 176/176 159/159 236/236
f 175/175 173/173 174/174
f 176/176 175/175 174/174
f 174/174 173/173 160/160
f 174/174 160/160 159/159
f 159/159 160/160 157/157
f 159/159 157/157 156/156
f 324/324 305/305 295/295
f 315/315 324/324 295/295
f 157/157 155/155 158/158
f 156/156 157/157 158/158
f 323/323 296/296 294/294
f 305/305 323/323 294/294
f 155/155 153/153 154/154
f 158/158 155/155 154/154
f 322/322 300/300 296/296
f 323/323 322/322 296/296
f 150/150 163/163 164/164
f 154/154 150/150 164/164
f 153/153 151/151 150/150
f 154/154 153/153 150/150
f 150/150 151/151 152/152
f 150/150 152/152 163/163
f 301/301 254/254 256/256
f 300/300 301/301 256/256
f 152/152 166/166 165/165
f 163/163 152/152 165/165
f 279/279 255/255 254/254
f 301/301 279/279 254/254
f 166/166 172/172 167/167
f 165/165 166/166 167/167
f 172/172 177/177 170/170
f 167/167 172/172 170/170
f 177/177 179/179 171/171
f 170/170 177/177 171/171
f 171/171 179/179 180/180
f 171/171 180/180 181/181
f 181/181 180/180 196/196
f 181/181 196/196 197/197
f 142/142 118/118 121/121
f 147/147 142/142 121/121
f 121/121 118/118 120/120
f 121/121 120/120 122/122
f 122/122 120/120 126/126
f 122/122 126/126 128/128
f 128/128 126/126 139/139
f 128/128 139/139 140/140
f 869/869 786/786 782/782
f 782/782 786/786 785/785
f 782/782 785/785 784/784
f 856/856 852/852 799/799
f 857/857 856/856 799/799
f 852/852 853/853 801/801
f 799/799 852/852 801/801
f 883/883 884/884 885/885
f 801/801 853/853 872/872
f 826/826 823/823 820/820
f 872/872 826/826 820/820
f 820/820 823/823 819/819
f 820/820 819/819 818/818
f 819/819 821/821 817/817
f 818/818 819/819 817/817
f 817/817 821/821 822/822
f 821/821 829/829 828/828
f 822/822 821/821 828/828
f 828/828 829/829 830/830
f 828/828 830/830 832/832
f 830/830 874/874 875/875
f 832/832 830/830 875/875
f 875/875 874/874 842/842
f 219/219 220/220 183/183
f 219/219 183/183 182/182
f 182/182 183/183 178/178
f 182/182 178/178 175/175
f 311/311 308/308 310/310
f 312/312 311/311 310/310
f 178/178 189/189 173/173
f 175/175 178/178 173/173
f 293/293 289/289 290/290
f 308/308 293/293 290/290
f 162/162 157/157 160/160
f 173/173 162/162 160/160
f 173/173 189/189 184/184
f 173/173 184/184 162/162
f 184/184 190/190 157/157
f 162/162 184/184 157/157
f 157/157 190/190 187/187
f 157/157 187/187 155/155
f 155/155 187/187 186/186
f 155/155 186/186 153/153
f 153/153 186/186 185/185
f 153/153 185/185 151/151
f 185/185 188/188 152/152
f 151/151 185/185 152/152
f 188/188 191/191 166/166
f 152/152 188/188 166/166
f 191/191 193/193 172/172
f 166/166 191/191 172/172
f 172/172 193/193 192/192
f 172/172 192/192 177/177
f 192/192 194/194 179/179
f 177/177 192/192 179/179
f 179/179 194/194 195/195
f 179/179 195/195 180/180
f 180/180 195/195 199/199
f 180/180 199/199 196/196
f 141/141 123/123 118/118
f 142/142 141/141 118/118
f 118/118 123/123 119/119
f 118/118 119/119 120/120
f 119/119 127/127 126/126
f 120/120 119/119 126/126
f 127/127 137/137 139/139
f 126/126 127/127 139/139
f 603/603 451/451 450/450
f 603/603 643/643 451/451
f 448/448 449/449 493/493
f 494/494 448/448 493/493
f 494/494 646/646 448/448
f 493/493 449/449 488/488
f 493/493 488/488 487/487
f 493/493 487/487 496/496
f 487/487 489/489 495/495
f 496/496 487/487 495/495
f 489/489 490/490 495/495
f 495/495 490/490 486/486
f 486/486 485/485 492/492
f 495/495 486/486 492/492
f 492/492 485/485 491/491
f 491/491 485/485 484/484
f 491/491 484/484 480/480
f 480/480 484/484 478/478
f 480/480 478/478 479/479
f 479/479 478/478 477/477
f 863/863 862/862 786/786
f 852/852 855/855 854/854
f 852/852 854/854 853/853
f 853/853 854/854 870/870
f 883/883 886/886 884/884
f 826/826 870/870 824/824
f 826/826 824/824 823/823
f 824/824 825/825 819/819
f 823/823 824/824 819/819
f 819/819 825/825 827/827
f 819/819 827/827 821/821
f 821/821 827/827 873/873
f 821/821 873/873 846/846
f 821/821 846/846 829/829
f 829/829 846/846 831/831
f 831/831 844/844 830/830
f 829/829 831/831 830/830
f 830/830 844/844 845/845
f 830/830 845/845 874/874
f 887/887 888/888 889/889
f 227/227 183/183 220/220
f 786/786 787/787 785/785
f 786/786 862/862 860/860
f 786/786 860/860 787/787
f 787/787 860/860 861/861
f 227/227 209/209 183/183
f 313/313 316/316 330/330
f 325/325 313/313 330/330
f 209/209 212/212 178/178
f 183/183 209/209 178/178
f 178/178 212/212 211/211
f 178/178 211/211 189/189
f 211/211 233/233 207/207
f 189/189 211/211 207/207
f 207/207 233/233 225/225
f 207/207 225/225 190/190
f 190/190 225/225 222/222
f 190/190 222/222 187/187
f 187/187 222/222 215/215
f 187/187 215/215 186/186
f 186/186 215/215 206/206
f 186/186 206/206 185/185
f 206/206 226/226 188/188
f 185/185 206/206 188/188
f 188/188 226/226 221/221
f 188/188 221/221 191/191
f 191/191 221/221 214/214
f 191/191 214/214 193/193
f 193/193 214/214 205/205
f 193/193 205/205 192/192
f 205/205 213/213 194/194
f 192/192 205/205 194/194
f 194/194 213/213 210/210
f 194/194 210/210 195/195
f 195/195 210/210 208/208
f 195/195 208/208 199/199
f 141/141 143/143 125/125
f 141/141 125/125 123/123
f 123/123 125/125 124/124
f 123/123 124/124 119/119
f 124/124 129/129 127/127
f 119/119 124/124 127/127
f 129/129 138/138 137/137
f 127/127 129/129 137/137
f 759/759 715/715 762/762
f 762/762 715/715 714/714
f 762/762 714/714 764/764
f 764/764 714/714 755/755
f 764/764 755/755 765/765
f 765/765 755/755 757/757
f 765/765 757/757 766/766
f 766/766 757/757 758/758
f 766/766 758/758 767/767
f 758/758 752/752 768/768
f 767/767 758/758 768/768
f 752/752 751/751 773/773
f 768/768 752/752 773/773
f 751/751 750/750 774/774
f 773/773 751/751 774/774
f 774/774 750/750 749/749
f 774/774 749/749 776/776
f 749/749 748/748 775/775
f 776/776 749/749 775/775
f 748/748 753/753 770/770
f 775/775 748/748 770/770
f 753/753 754/754 769/769
f 770/770 753/753 769/769
f 754/754 756/756 771/771
f 769/769 754/754 771/771
f 756/756 760/760 772/772
f 771/771 756/756 772/772
f 760/760 761/761 777/777
f 772/772 760/760 777/777
f 761/761 763/763 778/778
f 777/777 761/761 778/778
f 58/58 117/117 60/60
f 58/58 60/60 59/59
f 59/59 60/60 61/61
f 32/32 72/72 78/78
f 32/32 78/78 116/116
f 116/116 78/78 94/94
f 235/235 234/234 229/229
f 229/229 234/234 228/228
f 229/229 228/228 213/213
f 213/213 228/228 223/223
f 213/213 223/223 210/210
f 109/109 76/76 77/77
f 306/306 267/267 265/265
f 210/210 223/223 216/216
f 210/210 216/216 208/208
f 146/146 134/134 125/125
f 143/143 146/146 125/125
f 134/134 135/135 124/124
f 125/125 134/134 124/124
f 135/135 136/136 129/129
f 124/124 135/135 129/129
f 759/759 712/712 715/715
f 712/712 713/713 714/714
f 715/715 712/712 714/714
f 714/714 713/713 716/716
f 714/714 716/716 755/755
f 755/755 716/716 718/718
f 755/755 718/718 757/757
f 718/718 721/721 758/758
f 757/757 718/718 758/758
f 721/721 725/725 752/752
f 758/758 721/721 752/752
f 725/725 726/726 751/751
f 752/752 725/725 751/751
f 751/751 726/726 750/750
f 750/750 726/726 747/747
f 750/750 747/747 749/749
f 749/749 747/747 748/748
f 748/748 747/747 746/746
f 748/748 746/746 753/753
f 753/753 746/746 745/745
f 753/753 745/745 754/754
f 754/754 745/745 744/744
f 754/754 744/744 756/756
f 756/756 744/744 743/743
f 756/756 743/743 760/760
f 743/743 742/742 761/761
f 760/760 743/743 761/761
f 761/761 742/742 741/741
f 761/761 741/741 763/763
f 763/763 741/741 740/740
f 622/622 616/616 626/626
f 711/711 710/710 712/712
f 712/712 710/710 713/713
f 710/710 717/717 716/716
f 713/713 710/710 716/716
f 717/717 719/719 718/718
f 716/716 717/717 718/718
f 718/718 719/719 720/720
f 718/718 720/720 721/721
f 721/721 720/720 722/722
f 721/721 722/722 725/725
f 725/725 722/722 724/724
f 725/725 724/724 726/726
f 726/726 724/724 727/727
f 726/726 727/727 747/747
f 727/727 730/730 747/747
f 747/747 730/730 746/746
f 730/730 733/733 745/745
f 746/746 730/730 745/745
f 745/745 733/733 744/744
f 744/744 733/733 735/735
f 744/744 735/735 743/743
f 743/743 735/735 736/736
f 743/743 736/736 742/742
f 736/736 738/738 741/741
f 742/742 736/736 741/741
f 741/741 738/738 740/740
f 733/733 732/732 734/734
f 733/733 734/734 735/735
f 735/735 734/734 736/736
f 736/736 734/734 737/737
f 736/736 737/737 738/738
f 738/738 737/737 739/739
f 708/708 709/709 710/710
f 658/658 671/671 709/709
f 710/710 709/709 717/717
f 671/671 707/707 717/717
f 709/709 671/671 717/717
f 717/717 707/707 719/719
f 719/719 707/707 705/705
f 719/719 705/705 720/720
f 720/720 723/723 722/722
f 720/720 705/705 704/704
f 720/720 704/704 723/723
f 722/722 723/723 724/724
f 724/724 723/723 728/728
f 724/724 728/728 727/727
f 723/723 704/704 702/702
f 723/723 702/702 728/728
f 727/727 728/728 729/729
f 727/727 729/729 730/730
f 728/728 702/702 729/729
f 730/730 729/729 731/731
f 730/730 731/731 732/732
f 730/730 732/732 733/733
f 657/657 670/670 671/671
f 658/658 657/657 671/671
f 671/671 670/670 672/672
f 671/671 672/672 707/707
f 672/672 706/706 707/707
f 707/707 706/706 705/705
f 706/706 675/675 704/704
f 705/705 706/706 704/704
f 704/704 675/675 703/703
f 704/704 703/703 702/702
f 702/702 703/703 700/700
f 702/702 700/700 729/729
f 700/700 699/699 731/731
f 729/729 700/700 731/731
f 731/731 699/699 732/732
f 699/699 698/698 732/732
f 732/732 698/698 734/734
f 698/698 685/685 734/734
f 734/734 685/685 696/696
f 734/734 696/696 737/737
f 737/737 696/696 697/697
f 672/672 670/670 673/673
f 672/672 673/673 706/706
f 673/673 674/674 675/675
f 706/706 673/673 675/675
f 675/675 674/674 703/703
f 674/674 700/700 703/703
f 656/656 659/659 657/657
f 657/657 659/659 670/670
f 670/670 659/659 676/676
f 670/670 676/676 673/673
f 673/673 676/676 674/674
f 674/674 676/676 677/677
f 677/677 701/701 700/700
f 674/674 677/677 700/700
f 700/700 701/701 699/699
f 699/699 701/701 682/682
f 699/699 682/682 698/698
f 682/682 684/684 685/685
f 698/698 682/682 685/685
f 685/685 684/684 696/696
f 696/696 684/684 695/695
f 656/656 660/660 659/659
f 659/659 660/660 676/676
f 676/676 660/660 678/678
f 678/678 679/679 677/677
f 676/676 678/678 677/677
f 677/677 679/679 701/701
f 679/679 681/681 701/701
f 701/701 681/681 682/682
f 681/681 683/683 682/682
f 682/682 683/683 684/684
f 683/683 686/686 684/684
f 660/660 661/661 662/662
f 660/660 662/662 664/664
f 660/660 664/664 678/678
f 664/664 669/669 679/679
f 678/678 664/664 679/679
f 669/669 680/680 679/679
f 679/679 680/680 681/681
f 681/681 680/680 687/687
f 681/681 687/687 683/683
f 687/687 688/688 683/683
f 683/683 688/688 686/686
f 661/661 663/663 662/662
f 662/662 663/663 667/667
f 662/662 667/667 664/664
f 664/664 665/665 666/666
f 664/664 666/666 669/669
f 669/669 666/666 691/691
f 669/669 691/691 680/680
f 691/691 692/692 687/687
f 680/680 691/691 687/687
f 687/687 692/692 689/689
f 687/687 689/689 688/688
f 688/688 689/689 690/690
f 666/666 668/668 691/691
f 691/691 694/694 692/692
f 692/692 693/693 689/689
f 405/405 408/408 407/407
f 407/407 409/409 410/410
f 457/457 462/462 458/458
f 458/458 459/459 460/460
f 460/460 461/461 464/464
f 464/464 461/461 467/467
f 406/406 405/405 407/407
f 406/406 407/407 410/410
f 406/406 410/410 412/412
f 412/412 410/410 413/413
f 416/416 413/413 419/419
f 416/416 419/419 428/428
f 428/428 419/419 427/427
f 428/428 427/427 433/433
f 433/433 427/427 429/429
f 433/433 429/429 431/431
f 431/431 429/429 430/430
f 431/431 430/430 432/432
f 430/430 457/457 456/456
f 432/432 430/430 456/456
f 456/456 457/457 458/458
f 458/458 460/460 463/463
f 456/456 458/458 463/463
f 463/463 460/460 464/464
f 463/463 464/464 465/465
f 465/465 464/464 467/467
f 465/465 467/467 468/468
f 468/468 467/467 466/466
f 346/346 351/351 348/348
f 346/346 348/348 347/347
f 347/347 348/348 349/349
f 347/347 349/349 350/350
f 350/350 349/349 378/378
f 404/404 406/406 412/412
f 404/404 412/412 414/414
f 414/414 412/412 413/413
f 414/414 413/413 415/415
f 415/415 413/413 416/416
f 415/415 416/416 417/417
f 417/417 416/416 428/428
f 417/417 428/428 434/434
f 434/434 428/428 433/433
f 434/434 433/433 435/435
f 435/435 433/433 431/431
f 435/435 431/431 436/436
f 436/436 431/431 432/432
f 436/436 432/432 437/437
f 402/402 404/404 400/400
f 437/437 432/432 456/456
f 437/437 456/456 455/455
f 455/455 456/456 472/472
f 472/472 456/456 469/469
f 469/469 456/456 463/463
f 469/469 463/463 470/470
f 463/463 465/465 470/470
f 465/465 468/468 471/471
f 470/470 465/465 471/471
f 471/471 468/468 466/466
f 372/372 365/365 358/358
f 372/372 358/358 382/382
f 382/382 358/358 357/357
f 321/321 329/329 314/314
f 357/357 356/356 392/392
f 314/314 329/329 315/315
f 356/356 338/338 366/366
f 392/392 356/356 366/366
f 366/366 338/338 337/337
f 324/324 328/328 305/305
f 337/337 335/335 381/381
f 305/305 328/328 323/323
f 335/335 334/334 367/367
f 381/381 335/335 367/367
f 367/367 334/334 344/344
f 322/322 327/327 300/300
f 344/344 341/341 388/388
f 300/300 327/327 301/301
f 341/341 342/342 368/368
f 388/388 341/341 368/368
f 368/368 342/342 361/361
f 279/279 280/280 255/255
f 255/255 280/280 281/281
f 255/255 281/281 248/248
f 248/248 281/281 250/250
f 248/248 250/250 249/249
f 249/249 250/250 259/259
f 249/249 259/259 257/257
f 257/257 259/259 270/270
f 257/257 270/270 269/269
f 269/269 270/270 271/271
f 269/269 271/271 272/272
f 445/445 417/417 434/434
f 445/445 434/434 444/444
f 444/444 434/434 435/435
f 444/444 435/435 440/440
f 440/440 435/435 436/436
f 440/440 436/436 438/438
f 438/438 436/436 437/437
f 438/438 437/437 439/439
f 399/399 400/400 401/401
f 400/400 404/404 422/422
f 401/401 400/400 422/422
f 401/401 422/422 425/425
f 422/422 404/404 414/414
f 425/425 422/422 414/414
f 425/425 414/414 423/423
f 423/423 414/414 415/415
f 423/423 415/415 424/424
f 415/415 417/417 418/418
f 424/424 415/415 418/418
f 424/424 418/418 426/426
f 453/453 437/437 455/455
f 437/437 453/453 442/442
f 439/439 437/437 442/442
f 453/453 455/455 454/454
f 442/442 453/453 454/454
f 454/454 455/455 472/472
f 454/454 472/472 474/474
f 472/472 469/469 473/473
f 474/474 472/472 473/473
f 469/469 470/470 483/483
f 473/473 469/469 483/483
f 483/483 470/470 482/482
f 482/482 470/470 471/471
f 482/482 471/471 481/481
f 481/481 471/471 475/475
f 857/857 791/791 868/868
f 326/326 320/320 312/312
f 320/320 321/321 311/311
f 312/312 320/320 311/311
f 311/311 321/321 314/314
f 311/311 314/314 308/308
f 314/314 315/315 293/293
f 308/308 314/314 293/293
f 293/293 315/315 295/295
f 293/293 295/295 289/289
f 295/295 305/305 286/286
f 289/289 295/295 286/286
f 286/286 305/305 294/294
f 286/286 294/294 284/284
f 294/294 296/296 283/283
f 284/284 294/294 283/283
f 296/296 300/300 238/238
f 283/283 296/296 238/238
f 238/238 300/300 256/256
f 238/238 256/256 239/239
f 239/239 256/256 254/254
f 239/239 254/254 242/242
f 254/254 255/255 245/245
f 242/242 254/254 245/245
f 245/245 255/255 248/248
f 245/245 248/248 246/246
f 246/246 248/248 249/249
f 246/246 249/249 251/251
f 251/251 249/249 257/257
f 251/251 257/257 258/258
f 258/258 257/257 269/269
f 258/258 269/269 268/268
f 268/268 269/269 272/272
f 268/268 272/272 275/275
f 399/399 401/401 452/452
f 401/401 425/425 451/451
f 452/452 401/401 451/451
f 425/425 423/423 450/450
f 451/451 425/425 450/450
f 423/423 424/424 447/447
f 450/450 423/423 447/447
f 447/447 424/424 426/426
f 447/447 426/426 448/448
f 426/426 445/445 444/444
f 426/426 444/444 446/446
f 448/448 426/426 446/446
f 448/448 446/446 449/449
f 444/444 440/440 443/443
f 446/446 444/444 443/443
f 446/446 443/443 488/488
f 449/449 446/446 488/488
f 440/440 438/438 441/441
f 443/443 440/440 441/441
f 443/443 441/441 487/487
f 488/488 443/443 487/487
f 441/441 438/438 439/439
f 441/441 439/439 442/442
f 441/441 442/442 487/487
f 487/487 442/442 454/454
f 487/487 454/454 489/489
f 489/489 454/454 474/474
f 489/489 474/474 490/490
f 474/474 473/473 486/486
f 490/490 474/474 486/486
f 486/486 473/473 485/485
f 473/473 483/483 485/485
f 483/483 482/482 484/484
f 485/485 483/483 484/484
f 482/482 481/481 478/478
f 484/484 482/482 478/478
f 478/478 481/481 476/476
f 325/325 326/326 312/312
f 325/325 312/312 313/313
f 313/313 312/312 310/310
f 313/313 310/310 316/316
f 310/310 308/308 297/297
f 316/316 310/310 297/297
f 297/297 308/308 290/290
f 297/297 290/290 291/291
f 290/290 289/289 288/288
f 291/291 290/290 288/288
f 288/288 289/289 286/286
f 288/288 286/286 287/287
f 286/286 284/284 285/285
f 287/287 286/286 285/285
f 284/284 283/283 282/282
f 285/285 284/284 282/282
f 282/282 283/283 238/238
f 282/282 238/238 241/241
f 238/238 239/239 240/240
f 241/241 238/238 240/240
f 240/240 239/239 242/242
f 240/240 242/242 243/243
f 242/242 245/245 244/244
f 243/243 242/242 244/244
f 244/244 245/245 246/246
f 244/244 246/246 247/247
f 246/246 251/251 252/252
f 247/247 246/246 252/252
f 252/252 251/251 258/258
f 252/252 258/258 260/260
f 260/260 258/258 268/268
f 260/260 268/268 266/266
f 266/266 268/268 275/275
f 266/266 275/275 273/273
f 494/494 493/493 637/637
f 637/637 493/493 496/496
f 637/637 496/496 634/634
f 634/634 496/496 495/495
f 634/634 495/495 635/635
f 635/635 495/495 636/636
f 636/636 495/495 492/492
f 636/636 492/492 491/491
f 642/642 452/452 641/641
f 641/641 452/452 451/451
f 641/641 451/451 643/643
f 603/603 450/450 640/640
f 640/640 450/450 447/447
f 640/640 447/447 645/645
f 447/447 448/448 646/646
f 645/645 447/447 646/646
f 330/330 316/316 317/317
f 331/331 330/330 317/317
f 317/317 316/316 297/297
f 317/317 297/297 318/318
f 297/297 291/291 292/292
f 318/318 297/297 292/292
f 292/292 291/291 288/288
f 292/292 288/288 299/299
f 184/184 189/189 207/207
f 184/184 207/207 190/190
f 299/299 288/288 287/287
f 299/299 287/287 309/309
f 287/287 285/285 298/298
f 309/309 287/287 298/298
f 298/298 285/285 282/282
f 298/298 282/282 302/302
f 302/302 282/282 241/241
f 302/302 241/241 307/307
f 241/241 240/240 264/264
f 307/307 241/241 264/264
f 264/264 240/240 243/243
f 264/264 243/243 276/276
f 276/276 243/243 244/244
f 276/276 244/244 277/277
f 277/277 244/244 247/247
f 277/277 247/247 278/278
f 247/247 252/252 253/253
f 278/278 247/247 253/253
f 253/253 252/252 260/260
f 253/253 260/260 261/261
f 261/261 260/260 266/266
f 261/261 266/266 265/265
f 265/265 266/266 273/273
f 265/265 273/273 274/274
f 642/642 641/641 633/633
f 641/641 643/643 638/638
f 633/633 641/641 638/638
f 643/643 603/603 640/640
f 643/643 640/640 639/639
f 638/638 643/643 639/639
f 640/640 645/645 625/625
f 639/639 640/640 625/625
f 645/645 646/646 624/624
f 625/625 645/645 624/624
f 646/646 494/494 637/637
f 646/646 637/637 648/648
f 624/624 646/646 648/648
f 624/624 648/648 623/623
f 648/648 637/637 655/655
f 623/623 648/648 655/655
f 623/623 655/655 610/610
f 637/637 634/634 653/653
f 655/655 637/637 653/653
f 610/610 655/655 653/653
f 610/610 653/653 611/611
f 653/653 634/634 654/654
f 653/653 654/654 612/612
f 611/611 653/653 612/612
f 654/654 634/634 635/635
f 654/654 635/635 651/651
f 612/612 654/654 651/651
f 612/612 651/651 613/613
f 635/635 636/636 652/652
f 651/651 635/635 652/652
f 651/651 652/652 614/614
f 613/613 651/651 614/614
f 652/652 636/636 650/650
f 614/614 652/652 650/650
f 614/614 650/650 615/615
f 636/636 491/491 649/649
f 650/650 636/636 649/649
f 650/650 649/649 631/631
f 615/615 650/650 631/631
f 491/491 480/480 647/647
f 649/649 491/491 647/647
f 631/631 649/649 647/647
f 631/631 647/647 630/630
f 480/480 479/479 644/644
f 647/647 480/480 644/644
f 647/647 644/644 628/628
f 630/630 647/647 628/628
f 644/644 479/479 632/632
f 628/628 644/644 629/629
f 31/31 29/29 30/30
f 29/29 28/28 27/27
f 30/30 29/29 27/27
f 28/28 33/33 24/24
f 27/27 28/28 24/24
f 24/24 33/33 34/34
f 24/24 34/34 25/25
f 25/25 34/34 37/37
f 25/25 37/37 38/38
f 38/38 37/37 39/39
f 38/38 39/39 40/40
f 40/40 39/39 41/41
f 40/40 41/41 42/42
f 42/42 41/41 43/43
f 42/42 43/43 44/44
f 43/43 52/52 45/45
f 44/44 43/43 45/45
f 45/45 52/52 47/47
f 45/45 47/47 46/46
f 47/47 49/49 48/48
f 46/46 47/47 48/48
f 49/49 50/50 48/48
f 50/50 53/53 51/51
f 48/48 50/50 51/51
f 53/53 54/54 55/55
f 51/51 53/53 55/55
f 55/55 54/54 56/56
f 55/55 56/56 57/57
f 57/57 56/56 58/58
f 57/57 58/58 59/59
f 36/36 30/30 35/35
f 35/35 30/30 27/27
f 35/35 27/27 20/20
f 20/20 27/27 24/24
f 20/20 24/24 5/5
f 5/5 24/24 25/25
f 5/5 25/25 4/4
f 25/25 38/38 6/6
f 4/4 25/25 6/6
f 38/38 40/40 85/85
f 6/6 38/38 85/85
f 85/85 40/40 42/42
f 85/85 42/42 86/86
f 42/42 44/44 87/87
f 86/86 42/42 87/87
f 44/44 45/45 89/89
f 87/87 44/44 89/89
f 45/45 46/46 92/92
f 89/89 45/45 92/92
f 92/92 46/46 48/48
f 92/92 48/48 91/91
f 48/48 51/51 90/90
f 91/91 48/48 90/90
f 90/90 51/51 55/55
f 90/90 55/55 93/93
f 93/93 55/55 57/57
f 93/93 57/57 95/95
f 95/95 57/57 59/59
f 95/95 59/59 98/98
f 98/98 59/59 61/61
f 103/103 35/35 20/20
f 103/103 20/20 84/84
f 20/20 5/5 1/1
f 84/84 20/20 1/1
f 1/1 5/5 4/4
f 1/1 4/4 2/2
f 2/2 4/4 6/6
f 2/2 6/6 11/11
f 84/84 1/1 26/26
f 110/110 84/84 26/26
f 1/1 2/2 3/3
f 26/26 1/1 3/3
f 2/2 11/11 7/7
f 3/3 2/2 7/7
f 111/111 110/110 26/26
f 111/111 26/26 88/88
f 26/26 3/3 9/9
f 88/88 26/26 9/9
f 3/3 7/7 8/8
f 9/9 3/3 8/8
f 7/7 13/13 12/12
f 8/8 7/7 12/12
f 88/88 9/9 10/10
f 104/104 88/88 10/10
f 10/10 9/9 8/8
f 10/10 8/8 14/14
f 14/14 8/8 12/12
f 14/14 12/12 15/15
f 104/104 10/10 17/17
f 108/108 104/104 17/17
f 17/17 10/10 14/14
f 17/17 14/14 16/16
f 16/16 14/14 15/15
f 16/16 15/15 18/18
f 18/18 15/15 100/100
f 18/18 100/100 97/97
f 108/108 17/17 96/96
f 215/215 222/222 237/237
f 17/17 16/16 19/19
f 96/96 17/17 19/19
f 19/19 16/16 18/18
f 19/19 18/18 21/21
f 21/21 18/18 97/97
f 21/21 97/97 23/23
f 206/206 215/215 237/237
f 206/206 237/237 226/226
f 96/96 19/19 32/32
f 114/114 96/96 32/32
f 19/19 21/21 22/22
f 32/32 19/19 22/22
f 32/32 22/22 62/62
f 72/72 32/32 62/62
f 22/22 21/21 23/23
f 22/22 23/23 99/99
f 22/22 99/99 63/63
f 62/62 22/22 63/63
f 99/99 23/23 106/106
f 99/99 106/106 107/107
f 115/115 114/114 32/32
f 115/115 32/32 116/116
f 83/83 99/99 107/107
f 319/319 276/276 277/277
f 63/63 99/99 83/83
f 63/63 83/83 65/65
f 319/319 277/277 304/304
f 65/65 83/83 75/75
f 221/221 235/235 229/229
f 214/214 221/221 229/229
f 277/277 278/278 303/303
f 304/304 277/277 303/303
f 205/205 214/214 229/229
f 205/205 229/229 213/213
f 262/262 278/278 253/253
f 262/262 253/253 261/261
f 303/303 278/278 262/262
f 73/73 102/102 74/74
f 262/262 261/261 263/263
f 74/74 102/102 81/81
f 263/263 261/261 265/265
f 263/263 265/265 267/267
f 306/306 265/265 274/274
f 129/129 149/149 138/138
f 149/149 129/129 136/136
f 76/76 109/109 80/80
f 619/619 633/633 617/617
f 617/617 633/633 638/638
f 617/617 638/638 618/618
f 618/618 638/638 639/639
f 618/618 639/639 620/620
f 620/620 639/639 625/625
f 620/620 625/625 609/609
f 609/609 625/625 624/624
f 609/609 624/624 601/601
f 624/624 623/623 595/595
f 601/601 624/624 595/595
f 595/595 623/623 610/610
f 595/595 610/610 590/590
f 590/590 610/610 611/611
f 590/590 611/611 589/589
f 611/611 612/612 587/587
f 589/589 611/611 587/587
f 587/587 612/612 588/588
f 612/612 613/613 591/591
f 588/588 612/612 591/591
f 613/613 614/614 594/594
f 591/591 613/613 594/594
f 614/614 615/615 593/593
f 594/594 614/614 593/593
f 615/615 631/631 602/602
f 593/593 615/615 602/602
f 631/631 630/630 605/605
f 602/602 631/631 605/605
f 630/630 628/628 626/626
f 605/605 630/630 626/626
f 626/626 628/628 627/627
f 60/60 117/117 105/105
f 72/72 62/62 64/64
f 78/78 72/72 64/64
f 64/64 62/62 63/63
f 64/64 63/63 65/65
f 78/78 64/64 67/67
f 94/94 78/78 67/67
f 64/64 65/65 66/66
f 67/67 64/64 66/66
f 65/65 75/75 73/73
f 66/66 65/65 73/73
f 94/94 67/67 69/69
f 101/101 94/94 69/69
f 67/67 66/66 68/68
f 69/69 67/67 68/68
f 68/68 66/66 73/73
f 68/68 73/73 74/74
f 101/101 69/69 70/70
f 113/113 101/101 70/70
f 70/70 69/69 68/68
f 70/70 68/68 71/71
f 71/71 68/68 74/74
f 71/71 74/74 76/76
f 74/74 81/81 77/77
f 76/76 74/74 77/77
f 112/112 113/113 70/70
f 112/112 70/70 82/82
f 70/70 71/71 79/79
f 82/82 70/70 79/79
f 79/79 71/71 76/76
f 79/79 76/76 80/80
f 617/617 618/618 600/600
f 599/599 617/617 600/600
f 600/600 618/618 620/620
f 600/600 620/620 598/598
f 598/598 620/620 609/609
f 598/598 609/609 597/597
f 597/597 609/609 601/601
f 601/601 595/595 596/596
f 597/597 601/601 596/596
f 595/595 590/590 513/513
f 596/596 595/595 513/513
f 590/590 589/589 514/514
f 513/513 590/590 514/514
f 514/514 589/589 587/587
f 514/514 587/587 545/545
f 545/545 587/587 588/588
f 545/545 588/588 544/544
f 588/588 591/591 543/543
f 544/544 588/588 543/543
f 591/591 594/594 538/538
f 543/543 591/591 538/538
f 538/538 594/594 593/593
f 538/538 593/593 539/539
f 593/593 602/602 542/542
f 539/539 593/593 542/542
f 602/602 605/605 604/604
f 542/542 602/602 604/604
f 605/605 626/626 616/616
f 604/604 605/605 616/616
f 599/599 600/600 551/551
f 600/600 598/598 552/552
f 551/551 600/600 552/552
f 598/598 597/597 552/552
f 552/552 597/597 511/511
f 511/511 597/597 596/596
f 596/596 513/513 512/512
f 511/511 596/596 512/512
f 512/512 513/513 514/514
f 512/512 514/514 510/510
f 510/510 514/514 545/545
f 510/510 545/545 544/544
f 510/510 544/544 515/515
f 515/515 544/544 543/543
f 515/515 543/543 537/537
f 537/537 543/543 538/538
f 537/537 538/538 535/535
f 535/535 538/538 539/539
f 535/535 539/539 540/540
f 540/540 539/539 542/542
f 540/540 542/542 541/541
f 541/541 542/542 604/604
f 541/541 604/604 525/525
f 525/525 604/604 616/616
f 525/525 616/616 592/592
f 592/592 616/616 621/621
f 500/500 551/551 501/501
f 552/552 511/511 554/554
f 553/553 552/552 554/554
f 554/554 511/511 507/507
f 507/507 511/511 512/512
f 507/507 512/512 510/510
f 507/507 510/510 509/509
f 510/510 515/515 504/504
f 509/509 510/510 504/504
f 515/515 537/537 536/536
f 504/504 515/515 536/536
f 536/536 537/537 535/535
f 535/535 540/540 523/523
f 540/540 541/541 524/524
f 523/523 540/540 524/524
f 524/524 541/541 525/525
f 524/524 525/525 526/526
f 525/525 592/592 586/586
f 526/526 525/525 586/586
f 586/586 592/592 621/621
f 499/499 501/501 551/551
f 499/499 551/551 550/550
f 550/550 551/551 552/552
f 550/550 552/552 549/549
f 549/549 552/552 553/553
f 553/553 554/554 506/506
f 506/506 554/554 507/507
f 506/506 507/507 508/508
f 507/507 509/509 503/503
f 503/503 509/509 504/504
f 504/504 536/536 516/516
f 516/516 536/536 535/535
f 516/516 535/535 520/520
f 520/520 535/535 523/523
f 520/520 523/523 522/522
f 522/522 523/523 524/524
f 522/522 524/524 528/528
f 524/524 526/526 527/527
f 528/528 524/524 527/527
f 526/526 586/586 585/585
f 527/527 526/526 585/585
f 585/585 586/586 608/608
f 497/497 501/501 499/499
f 549/549 553/553 506/506
f 508/508 507/507 503/503
f 508/508 503/503 546/546
f 503/503 504/504 505/505
f 546/546 503/503 505/505
f 505/505 504/504 516/516
f 505/505 516/516 519/519
f 519/519 516/516 520/520
f 519/519 520/520 521/521
f 521/521 520/520 522/522
f 528/528 527/527 529/529
f 529/529 527/527 585/585
f 529/529 585/585 584/584
f 584/584 585/585 608/608
f 498/498 499/499 502/502
f 502/502 499/499 550/550
f 550/550 549/549 502/502
f 502/502 549/549 548/548
f 548/548 549/549 506/506
f 548/548 506/506 508/508
f 548/548 508/508 547/547
f 547/547 508/508 546/546
f 547/547 546/546 517/517
f 517/517 546/546 505/505
f 517/517 505/505 518/518
f 518/518 505/505 519/519
f 518/518 519/519 534/534
f 519/519 521/521 533/533
f 534/534 519/519 533/533
f 521/521 522/522 530/530
f 533/533 521/521 530/530
f 530/530 522/522 528/528
f 530/530 528/528 531/531
f 528/528 529/529 532/532
f 531/531 528/528 532/532
f 532/532 529/529 584/584
f 532/532 584/584 559/559
f 559/559 584/584 606/606
f 498/498 502/502 579/579
f 579/579 502/502 578/578
f 502/502 548/548 577/577
f 578/578 502/502 577/577
f 577/577 548/548 570/570
f 570/570 548/548 547/547
f 547/547 517/517 569/569
f 570/570 547/547 569/569
f 517/517 518/518 567/567
f 569/569 517/517 567/567
f 567/567 518/518 534/534
f 567/567 534/534 568/568
f 568/568 534/534 533/533
f 568/568 533/533 563/563
f 533/533 530/530 562/562
f 563/563 533/533 562/562
f 530/530 531/531 561/561
f 562/562 530/530 561/561
f 561/561 531/531 532/532
f 561/561 532/532 557/557
f 532/532 559/559 558/558
f 557/557 532/532 558/558
f 558/558 559/559 607/607
f 581/581 579/579 580/580
f 579/579 578/578 580/580
f 580/580 578/578 575/575
f 575/575 578/578 577/577
f 577/577 570/570 576/576
f 575/575 577/577 576/576
f 576/576 570/570 572/572
f 570/570 569/569 571/571
f 572/572 570/570 571/571
f 571/571 569/569 583/583
f 569/569 567/567 566/566
f 583/583 569/569 566/566
f 567/567 568/568 565/565
f 566/566 567/567 565/565
f 565/565 568/568 563/563
f 564/564 563/563 562/562
f 562/562 561/561 560/560
f 561/561 557/557 556/556
f 557/557 558/558 555/555
f 556/556 557/557 555/555
f 555/555 558/558 607/607
f 580/580 575/575 582/582
f 575/575 576/576 574/574
f 574/574 576/576 572/572
f 572/572 571/571 573/573

