# SSTK version 0.8.0
# 14
mtllib original-14.mtl
o #ID311
v 0.409788 -0.69163 -0.248176
v 0.394815 -0.684142 -0.253611
v 0.394805 -0.687397 -0.245753
v 0.409797 -0.688863 -0.254856
v 0.409817 -0.742364 -0.269191
v 0.409797 -0.742364 -0.254856
v 0.409807 -0.743307 -0.262023
v 0.409826 -0.739597 -0.27587
v 0.409788 -0.739597 -0.248176
v 0.409834 -0.735196 -0.281606
v 0.40978 -0.735196 -0.242441
v 0.40984 -0.72946 -0.286007
v 0.409774 -0.72946 -0.23804
v 0.409844 -0.722781 -0.288773
v 0.409771 -0.722781 -0.235273
v 0.409769 -0.715613 -0.234329
v 0.409845 -0.715613 -0.289717
v 0.409771 -0.708446 -0.235273
v 0.409844 -0.708446 -0.288773
v 0.40984 -0.701766 -0.286007
v 0.409774 -0.701766 -0.23804
v 0.409834 -0.696031 -0.281606
v 0.40978 -0.696031 -0.242441
v 0.409826 -0.69163 -0.27587
v 0.409788 -0.69163 -0.248176
v 0.409817 -0.688863 -0.269191
v 0.409797 -0.688863 -0.254856
v 0.409807 -0.687919 -0.262023
v 0.394827 -0.683032 -0.262044
v 0.409807 -0.687919 -0.262023
v 0.40978 -0.696031 -0.242441
v 0.394795 -0.692575 -0.239006
v 0.394838 -0.747084 -0.270476
v 0.409826 -0.739597 -0.27587
v 0.409817 -0.742364 -0.269191
v 0.394849 -0.743829 -0.278334
v 0.409834 -0.735196 -0.281606
v 0.394858 -0.738652 -0.285082
v 0.40984 -0.72946 -0.286007
v 0.394866 -0.731904 -0.29026
v 0.409844 -0.722781 -0.288773
v 0.39487 -0.724046 -0.293515
v 0.394872 -0.715613 -0.294625
v 0.409845 -0.715613 -0.289717
v 0.409844 -0.708446 -0.288773
v 0.39487 -0.707181 -0.293515
v 0.40984 -0.701766 -0.286007
v 0.394866 -0.699323 -0.29026
v 0.394858 -0.692575 -0.285082
v 0.409834 -0.696031 -0.281606
v 0.394849 -0.687397 -0.278334
v 0.409826 -0.69163 -0.27587
v 0.394838 -0.684142 -0.270476
v 0.409817 -0.688863 -0.269191
v 0.409774 -0.701766 -0.23804
v 0.394788 -0.699323 -0.233828
v 0.394784 -0.707181 -0.230573
v 0.409771 -0.708446 -0.235273
v 0.409769 -0.715613 -0.234329
v 0.394782 -0.715613 -0.229463
v 0.409771 -0.722781 -0.235273
v 0.394784 -0.724046 -0.230573
v 0.394788 -0.731904 -0.233828
v 0.409774 -0.72946 -0.23804
v 0.394795 -0.738652 -0.239006
v 0.40978 -0.735196 -0.242441
v 0.394805 -0.743829 -0.245753
v 0.409788 -0.739597 -0.248176
v 0.394815 -0.747084 -0.253611
v 0.409797 -0.742364 -0.254856
v 0.394827 -0.748194 -0.262044
v 0.409807 -0.743307 -0.262023
vn 0.3094977291188771 0.8233196887615764 0.47576868935208344
vn 0.30981208885053624 0.9182938171983887 0.24648110454410052
vn 0.9999990601968755 0.0 0.0013709870042905954
vn 0.31014943012759816 0.9506877248496028 0.0004252197220343759
vn 0.3101494301275982 0.9506877248496028 0.00042521972196817254
vn 0.3092278028025779 0.6722377153742317 0.672662337285449
vn 0.31048676942716696 -0.9182938168341451 -0.24563068207139474
vn 0.3108011107728934 -0.8233196883973329 -0.47491826690458455
vn 0.31107106205158214 -0.6722377150099883 -0.671811914803727
vn 0.31127817447298906 -0.47534387853960175 -0.8228937326482029
vn 0.31140838713147867 -0.2460560879964963 -0.9178677562612337
vn 0.31145279844833185 8.666349059840505e-09 -0.9502616241534237
vn 0.31145279844833185 8.666383258397984e-09 -0.9502616241534237
vn 0.31140838683648675 0.24605610475107936 -0.9178677518698556
vn 0.31127817390310836 0.47534389359902146 -0.8228937241647116
vn 0.31107106124564926 0.6722377273727933 -0.6718119028062597
vn 0.3108011097858312 0.8233196972458415 -0.47491825221074807
vn 0.31048676832624206 0.9182938215901674 -0.24563066568254927
vn 0.30902065264826556 0.47534387890384516 0.8237441550781934
vn 0.3088904490270388 0.24605608836073975 0.9187181787036143
vn 0.3088460374055898 -8.302069494479087e-09 0.9511120465953866
vn 0.3088460374055898 -8.30211783186835e-09 0.9511120465953866
vn 0.30889044932203075 -0.24605610438683592 0.9187181743122361
vn 0.3090206532181462 -0.47534389323477805 0.8237441465947022
vn 0.30922780360851077 -0.6722377270085498 0.6726623252879816
vn 0.3094977301059393 -0.8233196968815981 0.475768674658247
vn 0.3098120899514611 -0.9182938212259237 0.24648108815525496
vn 0.31014943126735967 -0.9506877244853595 0.0004252027549728701
vn 0.31014943126735955 -0.9506877244853595 0.0004252027550510794
usemtl material_0_0
f 1//1 2//2 3//1
f 2//2 1//1 4//2
f 5//3 6//3 7//3
f 6//3 5//3 8//3
f 6//3 8//3 9//3
f 9//3 8//3 10//3
f 9//3 10//3 11//3
f 11//3 10//3 12//3
f 11//3 12//3 13//3
f 13//3 12//3 14//3
f 13//3 14//3 15//3
f 15//3 14//3 16//3
f 16//3 14//3 17//3
f 16//3 17//3 18//3
f 18//3 17//3 19//3
f 18//3 19//3 20//3
f 18//3 20//3 21//3
f 21//3 20//3 22//3
f 21//3 22//3 23//3
f 23//3 22//3 24//3
f 23//3 24//3 25//3
f 25//3 24//3 26//3
f 25//3 26//3 27//3
f 27//3 26//3 28//3
f 4//2 29//4 2//2
f 29//4 4//2 30//5
f 31//6 3//1 32//6
f 3//1 31//6 1//1
f 33//7 34//8 35//7
f 34//8 33//7 36//8
f 36//8 37//9 34//8
f 37//9 36//8 38//9
f 38//9 39//10 37//9
f 39//10 38//9 40//10
f 40//10 41//11 39//10
f 41//11 40//10 42//11
f 41//11 43//12 44//13
f 43//12 41//11 42//11
f 43//12 45//14 44//13
f 45//14 43//12 46//14
f 46//14 47//15 45//14
f 47//15 46//14 48//15
f 47//15 49//16 50//16
f 49//16 47//15 48//15
f 50//16 51//17 52//17
f 51//17 50//16 49//16
f 52//17 53//18 54//18
f 53//18 52//17 51//17
f 54//18 29//4 30//5
f 29//4 54//18 53//18
f 32//6 55//19 31//6
f 55//19 32//6 56//19
f 55//19 57//20 58//20
f 57//20 55//19 56//19
f 57//20 59//21 58//20
f 59//21 57//20 60//22
f 60//22 61//23 59//21
f 61//23 60//22 62//23
f 61//23 63//24 64//24
f 63//24 61//23 62//23
f 64//24 65//25 66//25
f 65//25 64//24 63//24
f 67//26 66//25 65//25
f 66//25 67//26 68//26
f 69//27 68//26 67//26
f 68//26 69//27 70//27
f 71//28 70//27 69//27
f 70//27 71//28 72//29
f 71//28 35//7 72//29
f 35//7 71//28 33//7
