# SSTK version 0.8.0
# 22
mtllib original-22.mtl
o #ID364
v -0.351184 0.64971 0.414242
v -0.350068 0.637737 0.422207
v -0.353221 0.637585 0.416916
v -0.347054 0.649909 0.421173
v -0.3586 0.649619 0.411061
v -0.358882 0.637516 0.414488
v -0.350629 0.637914 0.428339
v -0.347789 0.65014 0.429206
v -0.366358 0.638017 0.431905
v -0.354689 0.638047 0.432971
v -0.360697 0.638087 0.434333
v -0.350629 0.637914 0.428339
v -0.369511 0.637865 0.426614
v -0.350068 0.637737 0.422207
v -0.36895 0.637689 0.420481
v -0.353221 0.637585 0.416916
v -0.36489 0.637555 0.41585
v -0.358882 0.637516 0.414488
v -0.366471 0.64967 0.412845
v -0.36489 0.637555 0.41585
v -0.354689 0.638047 0.432971
v -0.353107 0.650315 0.435274
v -0.360978 0.650367 0.437058
v -0.360697 0.638087 0.434333
v -0.366358 0.638017 0.431905
v -0.368394 0.650275 0.433877
v -0.372524 0.650076 0.426946
v -0.369511 0.637865 0.426614
v -0.371789 0.649845 0.418913
v -0.36895 0.637689 0.420481
vn 0.6387942865027485 -0.2664800682199793 -0.7217549672658442
vn 0.9453578399445569 -0.2516954940014597 -0.2072388302290926
vn 0.08822932646061958 -0.2732491809333009 -0.9578885483560107
vn 0.8908231322562774 -0.23454258967460007 0.3891322662872449
vn -3.9410618809452834e-05 -0.9995867312918413 0.02874656626616807
vn -0.49603990754971156 -0.26941728895029954 -0.8254445678134568
vn 0.496020528222421 -0.2215732945350207 0.8395647150344322
vn -0.0882486878987863 -0.21774140842716505 0.9720086667001984
vn -0.6388136706917174 -0.22451049506499768 0.735875078897936
vn -0.9453772172317165 -0.23929510397240877 0.2213589174938516
vn -0.8908425021315417 -0.25644798601247715 -0.3750120889600205
usemtl material_0_0
f 1//1 2//2 3//1
f 2//2 1//1 4//2
f 3//1 5//3 1//1
f 5//3 3//1 6//3
f 4//2 7//4 2//2
f 7//4 4//2 8//4
f 9//5 10//5 11//5
f 10//5 9//5 12//5
f 12//5 9//5 13//5
f 12//5 13//5 14//5
f 14//5 13//5 15//5
f 14//5 15//5 16//5
f 16//5 15//5 17//5
f 16//5 17//5 18//5
f 6//3 19//6 5//3
f 19//6 6//3 20//6
f 8//4 21//7 7//4
f 21//7 8//4 22//7
f 23//8 21//7 22//7
f 21//7 23//8 24//8
f 23//8 25//9 24//8
f 25//9 23//8 26//9
f 25//9 27//10 28//10
f 27//10 25//9 26//9
f 28//10 29//11 30//11
f 29//11 28//10 27//10
f 30//11 19//6 20//6
f 19//6 30//11 29//11
