# SSTK version 0.8.0
# 15
mtllib original-15.mtl
o #ID317
v 0.325017 -0.737054 -0.249761
v 0.381494 -0.739527 -0.255654
v 0.381486 -0.737054 -0.249684
v 0.325025 -0.739527 -0.255732
v 0.381479 -0.733119 -0.244556
v 0.32501 -0.733119 -0.244634
v 0.325025 -0.739527 -0.255732
v 0.325043 -0.739527 -0.268547
v 0.325034 -0.74037 -0.262139
v 0.325017 -0.737054 -0.249761
v 0.325051 -0.737054 -0.274518
v 0.325058 -0.733119 -0.279645
v 0.32501 -0.733119 -0.244634
v 0.325064 -0.727992 -0.28358
v 0.325005 -0.727992 -0.240699
v 0.325067 -0.722021 -0.286053
v 0.325001 -0.722021 -0.238226
v 0.325 -0.715613 -0.237382
v 0.325068 -0.715613 -0.286896
v 0.325001 -0.709206 -0.238226
v 0.325067 -0.709206 -0.286053
v 0.325064 -0.703235 -0.28358
v 0.325005 -0.703235 -0.240699
v 0.325058 -0.698107 -0.279645
v 0.32501 -0.698107 -0.244634
v 0.325017 -0.694173 -0.249761
v 0.325051 -0.694173 -0.274518
v 0.325025 -0.6917 -0.255732
v 0.325043 -0.6917 -0.268547
v 0.325034 -0.690856 -0.262139
v 0.325034 -0.74037 -0.262139
v 0.381503 -0.74037 -0.262062
v 0.381474 -0.727992 -0.240622
v 0.325005 -0.727992 -0.240699
v 0.325001 -0.722021 -0.238226
v 0.38147 -0.722021 -0.238149
v 0.325 -0.715613 -0.237382
v 0.381469 -0.715613 -0.237305
v 0.325001 -0.709206 -0.238226
v 0.38147 -0.709206 -0.238149
v 0.381474 -0.703235 -0.240622
v 0.325005 -0.703235 -0.240699
v 0.32501 -0.698107 -0.244634
v 0.381479 -0.698107 -0.244556
v 0.381486 -0.694173 -0.249684
v 0.325017 -0.694173 -0.249761
v 0.381494 -0.6917 -0.255654
v 0.325025 -0.6917 -0.255732
v 0.381503 -0.690856 -0.262062
v 0.325034 -0.690856 -0.262139
v 0.381512 -0.6917 -0.26847
v 0.325043 -0.6917 -0.268547
v 0.325051 -0.694173 -0.274518
v 0.38152 -0.694173 -0.274441
v 0.381527 -0.698107 -0.279568
v 0.325058 -0.698107 -0.279645
v 0.325064 -0.703235 -0.28358
v 0.381532 -0.703235 -0.283502
v 0.325067 -0.709206 -0.286053
v 0.381536 -0.709206 -0.285975
v 0.325068 -0.715613 -0.286896
v 0.381537 -0.715613 -0.286819
v 0.381536 -0.722021 -0.285975
v 0.325067 -0.722021 -0.286053
v 0.325064 -0.727992 -0.28358
v 0.381532 -0.727992 -0.283502
v 0.325058 -0.733119 -0.279645
v 0.381527 -0.733119 -0.279568
v 0.325051 -0.737054 -0.274518
v 0.38152 -0.737054 -0.274441
v 0.381512 -0.739527 -0.26847
v 0.325043 -0.739527 -0.268547
vn -0.0006854930086822622 -0.8660253974369699 0.4999995410932628
vn -0.0003548369346829223 -0.9659258351656551 0.25881876873650683
vn -0.0009694338058653242 -0.7071067713899332 0.7071061264425594
vn -0.9999990601968755 0.0 -0.0013709870042907064
vn 0.0 -1.0 -8.923580257876965e-09
vn 0.0 -1.0 -8.923578555858488e-09
vn -0.0011873092864779665 -0.49999999228328224 0.8660245943467056
vn -0.001324271616888718 -0.25881900721247825 0.9659249286617628
vn -0.0013709870042892727 -8.924397707418596e-09 0.9999990601968753
vn -0.0013709870042892727 -8.924325429411888e-09 0.9999990601968753
vn -0.0013242719271820838 0.25881898997196984 0.9659249332809214
vn -0.00118730988591896 0.4999999768258652 0.8660246032702357
vn -0.0009694346536030454 0.7071067587690049 0.7071061390623367
vn -0.0006854940469445691 0.8660253885126259 0.4999995565492705
vn -0.000354838092714057 0.9659258305460754 0.2588187859754438
vn 0.0 1.0 8.923539863894266e-09
vn 0.00035483693468288727 0.9659258351656551 -0.25881876873650683
vn 0.0006854930086822342 0.8660253974369699 -0.4999995410932628
vn 0.0009694338058653522 0.7071067713899332 -0.7071061264425594
vn 0.0011873092864780224 0.49999999228328224 -0.8660245943467056
vn 0.001324271616888774 0.25881900721247825 -0.9659249286617628
vn 0.0013709870042892727 8.92434383084882e-09 -0.9999990601968753
vn 0.0013709870042892727 8.924379938669405e-09 -0.9999990601968753
vn 0.0013242719271821957 -0.25881898997196984 -0.9659249332809214
vn 0.001187309885918904 -0.4999999768258652 -0.8660246032702357
vn 0.0009694346536028913 -0.7071067587690049 -0.7071061390623367
vn 0.0006854940469445341 -0.8660253885126259 -0.4999995565492705
vn 0.0003548380927140185 -0.9659258305460754 -0.2588187859754438
usemtl material_0_0
f 1//1 2//2 3//1
f 2//2 1//1 4//2
f 1//1 5//3 6//3
f 5//3 1//1 3//1
f 7//4 8//4 9//4
f 8//4 7//4 10//4
f 8//4 10//4 11//4
f 11//4 10//4 12//4
f 12//4 10//4 13//4
f 12//4 13//4 14//4
f 14//4 13//4 15//4
f 14//4 15//4 16//4
f 16//4 15//4 17//4
f 16//4 17//4 18//4
f 16//4 18//4 19//4
f 19//4 18//4 20//4
f 19//4 20//4 21//4
f 21//4 20//4 22//4
f 22//4 20//4 23//4
f 22//4 23//4 24//4
f 24//4 23//4 25//4
f 24//4 25//4 26//4
f 24//4 26//4 27//4
f 27//4 26//4 28//4
f 27//4 28//4 29//4
f 29//4 28//4 30//4
f 31//5 2//2 4//2
f 2//2 31//5 32//6
f 33//7 6//3 5//3
f 6//3 33//7 34//7
f 35//8 33//7 36//8
f 33//7 35//8 34//7
f 37//9 36//8 38//10
f 36//8 37//9 35//8
f 39//11 38//10 40//11
f 38//10 39//11 37//9
f 41//12 39//11 40//11
f 39//11 41//12 42//12
f 43//13 41//12 44//13
f 41//12 43//13 42//12
f 45//14 43//13 44//13
f 43//13 45//14 46//14
f 47//15 46//14 45//14
f 46//14 47//15 48//15
f 49//16 48//15 47//15
f 48//15 49//16 50//16
f 51//17 50//16 49//16
f 50//16 51//17 52//17
f 51//17 53//18 52//17
f 53//18 51//17 54//18
f 55//19 53//18 54//18
f 53//18 55//19 56//19
f 57//20 55//19 58//20
f 55//19 57//20 56//19
f 59//21 58//20 60//21
f 58//20 59//21 57//20
f 61//22 60//21 62//23
f 60//21 61//22 59//21
f 63//24 61//22 62//23
f 61//22 63//24 64//24
f 65//25 63//24 66//25
f 63//24 65//25 64//24
f 67//26 66//25 68//26
f 66//25 67//26 65//25
f 69//27 68//26 70//27
f 68//26 69//27 67//26
f 69//27 71//28 72//28
f 71//28 69//27 70//27
f 72//28 32//6 31//5
f 32//6 72//28 71//28
