# SSTK version 0.8.0
# 17
mtllib original-17.mtl
o #ID324
v 0.223788 -0.801271 -0.307359
v 0.272252 -0.666397 -0.3157
v 0.272237 -0.801271 -0.304518
v 0.223803 -0.666397 -0.318541
v 0.223788 -0.801271 -0.307359
v 0.272237 -0.801271 -0.304518
v 0.271961 -0.838832 -0.103256
v 0.223508 -0.759889 -0.103322
v 0.223788 -0.801271 -0.307359
v 0.223508 -0.838832 -0.103322
v 0.223803 -0.666397 -0.318541
v 0.223513 -0.735262 -0.106564
v 0.223525 -0.712879 -0.115835
v 0.223546 -0.693659 -0.130584
v 0.223572 -0.67891 -0.149804
v 0.223603 -0.669639 -0.172187
v 0.223636 -0.666397 -0.196814
v 0.272237 -0.801271 -0.304518
v 0.271961 -0.759889 -0.103256
v 0.271961 -0.838832 -0.103256
v 0.272252 -0.666397 -0.3157
v 0.271966 -0.735262 -0.106498
v 0.271978 -0.712879 -0.115769
v 0.271999 -0.693659 -0.130517
v 0.272025 -0.67891 -0.149738
v 0.272056 -0.669639 -0.17212
v 0.272089 -0.666397 -0.196747
v 0.223508 -0.838832 -0.103322
vn 0.058332657787835966 -0.08248860840039325 -0.9948833753358098
vn 0.009163582618983042 -0.9830566656967934 -0.18307271993032703
vn 0.010755165175732714 -0.9829733702371818 -0.18343303908129352
vn 0.0017829712610890674 -0.9834086016224608 -0.18139554368406724
vn -0.9999990601968753 0.0 -0.0013709870042900919
vn 0.9999990601968753 0.0 0.0013709870042922013
vn 0.00024821176589738433 -0.9834746994631653 -0.18104544707546685
usemtl material_0_0
f 1//1 2//1 3//1
f 2//1 1//1 4//1
f 5//2 6//3 7//4
f 8//5 9//5 10//5
f 9//5 8//5 11//5
f 11//5 8//5 12//5
f 11//5 12//5 13//5
f 11//5 13//5 14//5
f 11//5 14//5 15//5
f 11//5 15//5 16//5
f 11//5 16//5 17//5
f 18//6 19//6 20//6
f 19//6 18//6 21//6
f 19//6 21//6 22//6
f 22//6 21//6 23//6
f 23//6 21//6 24//6
f 24//6 21//6 25//6
f 25//6 21//6 26//6
f 26//6 21//6 27//6
f 5//2 7//4 28//7
