# SSTK version 0.8.0
# 4
mtllib original-4.mtl
o #ID251
v -0.308076 -0.727992 -0.241567
v -0.36454 -0.733119 -0.245579
v -0.308071 -0.733119 -0.245502
v -0.364545 -0.727992 -0.241645
v -0.364533 -0.737054 -0.250706
v -0.308064 -0.737054 -0.250629
v -0.308038 -0.739527 -0.269415
v -0.308056 -0.739527 -0.2566
v -0.308047 -0.74037 -0.263007
v -0.30803 -0.737054 -0.275386
v -0.308064 -0.737054 -0.250629
v -0.308023 -0.733119 -0.280513
v -0.308071 -0.733119 -0.245502
v -0.308017 -0.727992 -0.284448
v -0.308076 -0.727992 -0.241567
v -0.308014 -0.722021 -0.286921
v -0.30808 -0.722021 -0.239094
v -0.308081 -0.715613 -0.23825
v -0.308013 -0.715613 -0.287764
v -0.30808 -0.709206 -0.239094
v -0.308014 -0.709206 -0.286921
v -0.308017 -0.703235 -0.284448
v -0.308076 -0.703235 -0.241567
v -0.308023 -0.698107 -0.280513
v -0.308071 -0.698107 -0.245502
v -0.308064 -0.694173 -0.250629
v -0.30803 -0.694173 -0.275386
v -0.308056 -0.6917 -0.2566
v -0.308038 -0.6917 -0.269415
v -0.308047 -0.690856 -0.263007
v -0.30808 -0.722021 -0.239094
v -0.364549 -0.722021 -0.239171
v -0.364525 -0.739527 -0.256677
v -0.308056 -0.739527 -0.2566
v -0.308047 -0.74037 -0.263007
v -0.364516 -0.74037 -0.263085
v -0.364507 -0.739527 -0.269492
v -0.308038 -0.739527 -0.269415
v -0.30803 -0.737054 -0.275386
v -0.364499 -0.737054 -0.275463
v -0.364492 -0.733119 -0.280591
v -0.308023 -0.733119 -0.280513
v -0.364486 -0.727992 -0.284525
v -0.308017 -0.727992 -0.284448
v -0.308014 -0.722021 -0.286921
v -0.364483 -0.722021 -0.286998
v -0.364482 -0.715613 -0.287842
v -0.308013 -0.715613 -0.287764
v -0.308014 -0.709206 -0.286921
v -0.364483 -0.709206 -0.286998
v -0.308017 -0.703235 -0.284448
v -0.364486 -0.703235 -0.284525
v -0.308023 -0.698107 -0.280513
v -0.364492 -0.698107 -0.280591
v -0.30803 -0.694173 -0.275386
v -0.364499 -0.694173 -0.275463
v -0.364507 -0.6917 -0.269492
v -0.308038 -0.6917 -0.269415
v -0.364516 -0.690856 -0.263085
v -0.308047 -0.690856 -0.263007
v -0.364525 -0.6917 -0.256677
v -0.308056 -0.6917 -0.2566
v -0.364533 -0.694173 -0.250706
v -0.308064 -0.694173 -0.250629
v -0.308071 -0.698107 -0.245502
v -0.36454 -0.698107 -0.245579
v -0.364545 -0.703235 -0.241645
v -0.308076 -0.703235 -0.241567
v -0.364549 -0.709206 -0.239171
v -0.30808 -0.709206 -0.239094
v -0.308081 -0.715613 -0.23825
v -0.36455 -0.715613 -0.238328
vn -0.0011873092864809899 -0.49999999228328224 0.8660245943467056
vn -0.0009694338058681378 -0.7071067713899332 0.7071061264425594
vn -0.0006854930086846627 -0.8660253974369699 0.4999995410932628
vn 0.9999990601968755 0.0 0.00137098700429326
vn -0.0013242716168917134 -0.25881900721247825 0.9659249286617628
vn -0.0003548369346847769 -0.9659258351656551 0.25881876873650683
vn 0.0 -1.0 -8.923551993483836e-09
vn 0.0 -1.0 -8.923570270147491e-09
vn 0.0003548380927136546 -0.9659258305460754 -0.2588187859754438
vn 0.0006854940469449191 -0.8660253885126259 -0.4999995565492705
vn 0.0009694346536041652 -0.7071067587690049 -0.7071061390623367
vn 0.0011873098859208917 -0.4999999768258652 -0.8660246032702357
vn 0.0013242719271845192 -0.2588189899719698 -0.9659249332809212
vn 0.001370987004292044 8.9242703320144e-09 -0.9999990601968753
vn 0.001370987004292044 8.924343786293275e-09 -0.9999990601968753
vn 0.0013242716168917414 0.25881900721247825 -0.9659249286617628
vn 0.001187309286480906 0.49999999228328224 -0.8660245943467056
vn 0.0009694338058680957 0.7071067713899332 -0.7071061264425594
vn 0.0006854930086846767 0.8660253974369699 -0.4999995410932628
vn 0.0003548369346847769 0.9659258351656551 -0.25881876873650683
vn 0.0 1.0 8.923576436627179e-09
vn 0.0 1.0 8.923466749875267e-09
vn -0.0003548380927136161 0.9659258305460754 0.2588187859754438
vn -0.0006854940469448491 0.8660253885126259 0.4999995565492705
vn -0.0009694346536039692 0.7071067587690049 0.7071061390623367
vn -0.0011873098859207518 0.4999999768258652 0.8660246032702357
vn -0.0013242719271845471 0.2588189899719698 0.9659249332809212
vn -0.0013709870042919881 -8.924269779524425e-09 0.9999990601968753
vn -0.0013709870042919881 -8.924343679359959e-09 0.9999990601968753
usemtl material_0_0
f 1//1 2//2 3//2
f 2//2 1//1 4//1
f 5//3 3//2 2//2
f 3//2 5//3 6//3
f 7//4 8//4 9//4
f 8//4 7//4 10//4
f 8//4 10//4 11//4
f 11//4 10//4 12//4
f 11//4 12//4 13//4
f 13//4 12//4 14//4
f 13//4 14//4 15//4
f 15//4 14//4 16//4
f 15//4 16//4 17//4
f 17//4 16//4 18//4
f 18//4 16//4 19//4
f 18//4 19//4 20//4
f 20//4 19//4 21//4
f 20//4 21//4 22//4
f 20//4 22//4 23//4
f 23//4 22//4 24//4
f 23//4 24//4 25//4
f 25//4 24//4 26//4
f 26//4 24//4 27//4
f 26//4 27//4 28//4
f 28//4 27//4 29//4
f 28//4 29//4 30//4
f 31//5 4//1 1//1
f 4//1 31//5 32//5
f 33//6 6//3 5//3
f 6//3 33//6 34//6
f 33//6 35//7 34//6
f 35//7 33//6 36//8
f 37//9 35//7 36//8
f 35//7 37//9 38//9
f 37//9 39//10 38//9
f 39//10 37//9 40//10
f 41//11 39//10 40//10
f 39//10 41//11 42//11
f 42//11 43//12 44//12
f 43//12 42//11 41//11
f 43//12 45//13 44//12
f 45//13 43//12 46//13
f 45//13 47//14 48//15
f 47//14 45//13 46//13
f 47//14 49//16 48//15
f 49//16 47//14 50//16
f 50//16 51//17 49//16
f 51//17 50//16 52//17
f 52//17 53//18 51//17
f 53//18 52//17 54//18
f 55//19 54//18 56//19
f 54//18 55//19 53//18
f 55//19 57//20 58//20
f 57//20 55//19 56//19
f 58//20 59//21 60//22
f 59//21 58//20 57//20
f 60//22 61//23 62//23
f 61//23 60//22 59//21
f 62//23 63//24 64//24
f 63//24 62//23 61//23
f 65//25 63//24 66//25
f 63//24 65//25 64//24
f 65//25 67//26 68//26
f 67//26 65//25 66//25
f 68//26 69//27 70//27
f 69//27 68//26 67//26
f 69//27 71//28 70//27
f 71//28 69//27 72//29
f 72//29 31//5 71//28
f 31//5 72//29 32//5
