# SSTK version 0.8.0
# 12
mtllib original-12.mtl
o #ID299
v 0.357256 -0.784529 -0.331011
v 0.360539 -0.764344 -0.346495
v 0.360517 -0.784529 -0.331007
v 0.357277 -0.764344 -0.3465
v 0.36049 -0.800018 -0.310822
v 0.357228 -0.800018 -0.310826
v 0.357095 -0.800018 -0.213364
v 0.357161 -0.804349 -0.262095
v 0.357127 -0.809754 -0.23687
v 0.35713 -0.801325 -0.239129
v 0.357101 -0.792461 -0.217728
v 0.357067 -0.784529 -0.193179
v 0.357075 -0.778359 -0.19935
v 0.357046 -0.764344 -0.177691
v 0.357056 -0.759981 -0.185248
v 0.357032 -0.740838 -0.167954
v 0.357044 -0.73858 -0.176383
v 0.357028 -0.715613 -0.164634
v 0.35704 -0.715613 -0.17336
v 0.357044 -0.692647 -0.176383
v 0.357032 -0.690388 -0.167954
v 0.357056 -0.671245 -0.185248
v 0.357046 -0.666882 -0.177691
v 0.357075 -0.652868 -0.19935
v 0.357067 -0.646697 -0.193179
v 0.357101 -0.638766 -0.217728
v 0.357095 -0.631209 -0.213364
v 0.35713 -0.629901 -0.239129
v 0.357127 -0.621472 -0.23687
v 0.357161 -0.626878 -0.262095
v 0.357196 -0.621472 -0.28732
v 0.357161 -0.618151 -0.262095
v 0.357196 -0.809754 -0.28732
v 0.357161 -0.813075 -0.262095
v 0.357228 -0.800018 -0.310826
v 0.357193 -0.801325 -0.285062
v 0.357222 -0.792461 -0.306463
v 0.357256 -0.784529 -0.331011
v 0.357247 -0.778359 -0.324841
v 0.357277 -0.764344 -0.3465
v 0.357267 -0.759981 -0.338943
v 0.357291 -0.740838 -0.356236
v 0.357279 -0.73858 -0.347807
v 0.357295 -0.715613 -0.359557
v 0.357283 -0.715613 -0.350831
v 0.357291 -0.690388 -0.356236
v 0.357279 -0.692647 -0.347807
v 0.357267 -0.671245 -0.338943
v 0.357277 -0.666882 -0.3465
v 0.357247 -0.652868 -0.324841
v 0.357256 -0.646697 -0.331011
v 0.357222 -0.638766 -0.306463
v 0.357228 -0.631209 -0.310826
v 0.357193 -0.629901 -0.285062
v 0.360552 -0.740838 -0.356232
v 0.357291 -0.740838 -0.356236
v 0.360458 -0.809754 -0.287316
v 0.357196 -0.809754 -0.28732
v 0.360517 -0.646697 -0.331007
v 0.357228 -0.631209 -0.310826
v 0.36049 -0.631209 -0.310822
v 0.357256 -0.646697 -0.331011
v 0.357277 -0.666882 -0.3465
v 0.360539 -0.666882 -0.346495
v 0.360552 -0.690388 -0.356232
v 0.357291 -0.690388 -0.356236
v 0.357295 -0.715613 -0.359557
v 0.360557 -0.715613 -0.359553
v 0.360423 -0.813075 -0.262091
v 0.357161 -0.813075 -0.262095
v 0.360388 -0.809754 -0.236866
v 0.357127 -0.809754 -0.23687
v 0.360356 -0.800018 -0.21336
v 0.357095 -0.800018 -0.213364
v 0.360329 -0.784529 -0.193175
v 0.357067 -0.784529 -0.193179
v 0.360307 -0.764344 -0.177687
v 0.357046 -0.764344 -0.177691
v 0.357032 -0.740838 -0.167954
v 0.360294 -0.740838 -0.16795
v 0.357028 -0.715613 -0.164634
v 0.360289 -0.715613 -0.164629
v 0.357032 -0.690388 -0.167954
v 0.360294 -0.690388 -0.16795
v 0.357046 -0.666882 -0.177691
v 0.360307 -0.666882 -0.177687
v 0.360329 -0.646697 -0.193175
v 0.357067 -0.646697 -0.193179
v 0.357095 -0.631209 -0.213364
v 0.360356 -0.631209 -0.21336
v 0.360388 -0.621472 -0.236866
v 0.357127 -0.621472 -0.23687
v 0.360423 -0.618151 -0.262091
v 0.357161 -0.618151 -0.262095
v 0.360458 -0.621472 -0.287316
v 0.357196 -0.621472 -0.28732
vn 0.0009694346536024994 -0.7071067587690049 -0.7071061390623367
vn 0.001187309885918596 -0.4999999768258652 -0.8660246032702357
vn 0.0006854940469441002 -0.8660253885126259 -0.4999995565492705
vn -0.9999990601968755 0.0 -0.0013709870042904844
vn 0.001324271927181804 -0.25881898997196984 -0.9659249332809214
vn 0.00035483809271369307 -0.9659258305460754 -0.2588187859754438
vn 0.0009694338058653242 0.7071067713899332 -0.7071061264425594
vn 0.0006854930086823671 0.8660253974369699 -0.4999995410932628
vn 0.0011873092864778825 0.49999999228328224 -0.8660245943467056
vn 0.00132427161688855 0.25881900721247825 -0.9659249286617628
vn 0.0013709870042889368 8.924323246181988e-09 -0.9999990601968753
vn 0.0013709870042889368 8.924313960812411e-09 -0.9999990601968753
vn 0.0 -1.0 -8.92353255717361e-09
vn 0.0 -1.0 -8.923513968613232e-09
vn -0.00035483693468313225 -0.9659258351656551 0.25881876873650683
vn -0.0006854930086823882 -0.8660253974369699 0.4999995410932628
vn -0.0009694338058653242 -0.7071067713899332 0.7071061264425594
vn -0.0011873092864778825 -0.49999999228328224 0.8660245943467056
vn -0.00132427161688855 -0.25881900721247825 0.9659249286617628
vn -0.0013709870042888808 -8.924309327032623e-09 0.9999990601968753
vn -0.0013709870042888808 -8.924323255101988e-09 0.9999990601968753
vn -0.001324271927181776 0.25881898997196984 0.9659249332809214
vn -0.0011873098859186521 0.4999999768258652 0.8660246032702357
vn -0.0009694346536025974 0.7071067587690049 0.7071061390623367
vn -0.0006854940469441352 0.8660253885126259 0.4999995565492705
vn -0.00035483809271365805 0.9659258305460754 0.2588187859754438
vn 0.0 1.0 8.923522353972328e-09
vn 0.0 1.0 8.923513068603633e-09
vn 0.0003548369346831182 0.9659258351656551 -0.25881876873650683
usemtl material_0_0
f 1//1 2//2 3//1
f 2//2 1//1 4//2
f 1//1 5//3 6//3
f 5//3 1//1 3//1
f 7//4 8//4 9//4
f 8//4 7//4 10//4
f 10//4 7//4 11//4
f 11//4 7//4 12//4
f 11//4 12//4 13//4
f 13//4 12//4 14//4
f 13//4 14//4 15//4
f 15//4 14//4 16//4
f 15//4 16//4 17//4
f 17//4 16//4 18//4
f 17//4 18//4 19//4
f 19//4 18//4 20//4
f 20//4 18//4 21//4
f 20//4 21//4 22//4
f 22//4 21//4 23//4
f 22//4 23//4 24//4
f 24//4 23//4 25//4
f 24//4 25//4 26//4
f 26//4 25//4 27//4
f 26//4 27//4 28//4
f 28//4 27//4 29//4
f 28//4 29//4 30//4
f 30//4 29//4 31//4
f 31//4 29//4 32//4
f 9//4 33//4 34//4
f 33//4 9//4 35//4
f 35//4 9//4 8//4
f 35//4 8//4 36//4
f 35//4 36//4 37//4
f 35//4 37//4 38//4
f 38//4 37//4 39//4
f 38//4 39//4 40//4
f 40//4 39//4 41//4
f 40//4 41//4 42//4
f 42//4 41//4 43//4
f 42//4 43//4 44//4
f 44//4 43//4 45//4
f 44//4 45//4 46//4
f 46//4 45//4 47//4
f 46//4 47//4 48//4
f 46//4 48//4 49//4
f 49//4 48//4 50//4
f 49//4 50//4 51//4
f 51//4 50//4 52//4
f 51//4 52//4 53//4
f 53//4 52//4 54//4
f 53//4 54//4 31//4
f 31//4 54//4 30//4
f 4//2 55//5 2//2
f 55//5 4//2 56//5
f 6//3 57//6 58//6
f 57//6 6//3 5//3
f 59//7 60//8 61//8
f 60//8 59//7 62//7
f 63//9 59//7 64//9
f 59//7 63//9 62//7
f 65//10 63//9 64//9
f 63//9 65//10 66//10
f 67//11 65//10 68//12
f 65//10 67//11 66//10
f 55//5 67//11 68//12
f 67//11 55//5 56//5
f 58//6 69//13 70//14
f 69//13 58//6 57//6
f 70//14 71//15 72//15
f 71//15 70//14 69//13
f 72//15 73//16 74//16
f 73//16 72//15 71//15
f 74//16 75//17 76//17
f 75//17 74//16 73//16
f 77//18 76//17 75//17
f 76//17 77//18 78//18
f 79//19 77//18 80//19
f 77//18 79//19 78//18
f 81//20 80//19 82//21
f 80//19 81//20 79//19
f 83//22 82//21 84//22
f 82//21 83//22 81//20
f 85//23 84//22 86//23
f 84//22 85//23 83//22
f 87//24 85//23 86//23
f 85//23 87//24 88//24
f 87//24 89//25 88//24
f 89//25 87//24 90//25
f 91//26 89//25 90//25
f 89//25 91//26 92//26
f 93//27 92//26 91//26
f 92//26 93//27 94//28
f 95//29 94//28 93//27
f 94//28 95//29 96//29
f 61//8 96//29 95//29
f 96//29 61//8 60//8
