# SSTK version 0.8.0
# 8
mtllib original-8.mtl
o #ID275
v -0.345997 -0.629979 -0.411382
v -0.343341 -0.646697 -0.331972
v -0.34332 -0.666882 -0.34746
v -0.346035 -0.594509 -0.384164
v -0.386547 -0.629979 -0.411437
v -0.346035 -0.594509 -0.384164
v -0.345997 -0.629979 -0.411382
v -0.386585 -0.594509 -0.38422
v -0.343369 -0.631209 -0.311787
v -0.346083 -0.567291 -0.348693
v -0.345974 -0.671286 -0.428491
v -0.343307 -0.690388 -0.357197
v -0.386524 -0.671286 -0.428547
v -0.345974 -0.671286 -0.428491
v -0.38942 -0.646251 -0.332481
v -0.386547 -0.629979 -0.411437
v -0.389399 -0.666567 -0.34807
v -0.386585 -0.594509 -0.38422
v -0.386633 -0.567291 -0.348749
v -0.346083 -0.567291 -0.348693
v -0.343401 -0.621472 -0.288281
v -0.34614 -0.550181 -0.307387
v -0.345966 -0.715613 -0.434327
v -0.343302 -0.715613 -0.360518
v -0.386516 -0.715613 -0.434383
v -0.345966 -0.715613 -0.434327
v -0.386524 -0.671286 -0.428547
v -0.389385 -0.690225 -0.35787
v -0.389448 -0.630662 -0.312166
v -0.386633 -0.567291 -0.348749
v -0.38669 -0.550181 -0.307443
v -0.34614 -0.550181 -0.307387
v -0.343436 -0.618151 -0.263056
v -0.346201 -0.544346 -0.26306
v -0.343307 -0.740838 -0.357197
v -0.345974 -0.759941 -0.428491
v -0.345974 -0.759941 -0.428491
v -0.386524 -0.759941 -0.428547
v -0.389381 -0.715613 -0.361212
v -0.386516 -0.715613 -0.434383
v -0.38948 -0.620862 -0.288507
v -0.38669 -0.550181 -0.307443
v -0.386751 -0.544346 -0.263115
v -0.346201 -0.544346 -0.26306
v -0.346261 -0.550181 -0.218732
v -0.34347 -0.621472 -0.237831
v -0.34332 -0.764344 -0.34746
v -0.345997 -0.801247 -0.411382
v -0.386547 -0.801247 -0.411437
v -0.345997 -0.801247 -0.411382
v -0.389385 -0.741002 -0.35787
v -0.386524 -0.759941 -0.428547
v -0.389515 -0.61752 -0.263119
v -0.386751 -0.544346 -0.263115
v -0.386812 -0.550181 -0.218788
v -0.346261 -0.550181 -0.218732
v -0.346318 -0.567291 -0.177426
v -0.343503 -0.631209 -0.214325
v -0.343341 -0.784529 -0.331972
v -0.346035 -0.836718 -0.384164
v -0.386585 -0.836718 -0.38422
v -0.346035 -0.836718 -0.384164
v -0.389399 -0.76466 -0.34807
v -0.386547 -0.801247 -0.411437
v -0.386812 -0.550181 -0.218788
v -0.38955 -0.620862 -0.237731
v -0.346318 -0.567291 -0.177426
v -0.386868 -0.567291 -0.177482
v -0.346367 -0.594509 -0.141955
v -0.34353 -0.646697 -0.19414
v -0.343369 -0.800018 -0.311787
v -0.346083 -0.863935 -0.348693
v -0.346083 -0.863935 -0.348693
v -0.386633 -0.863935 -0.348749
v -0.38942 -0.784976 -0.332481
v -0.386585 -0.836718 -0.38422
v -0.386868 -0.567291 -0.177482
v -0.389582 -0.630662 -0.214072
v -0.386917 -0.594509 -0.142011
v -0.346367 -0.594509 -0.141955
v -0.346404 -0.629979 -0.114738
v -0.343552 -0.666882 -0.178651
v -0.343401 -0.809754 -0.288281
v -0.34614 -0.881045 -0.307387
v -0.34614 -0.881045 -0.307387
v -0.38669 -0.881045 -0.307443
v -0.389448 -0.800565 -0.312166
v -0.386633 -0.863935 -0.348749
v -0.386917 -0.594509 -0.142011
v -0.38961 -0.646251 -0.193757
v -0.346404 -0.629979 -0.114738
v -0.386954 -0.629979 -0.114793
v -0.346427 -0.671286 -0.097628
v -0.343565 -0.690388 -0.168915
v -0.343436 -0.813075 -0.263056
v -0.346201 -0.886881 -0.26306
v -0.346201 -0.886881 -0.26306
v -0.386751 -0.886881 -0.263115
v -0.38948 -0.810364 -0.288507
v -0.38669 -0.881045 -0.307443
v -0.386954 -0.629979 -0.114793
v -0.389632 -0.666567 -0.178168
v -0.346427 -0.671286 -0.097628
v -0.386978 -0.671286 -0.097684
v -0.346435 -0.715613 -0.091792
v -0.343569 -0.715613 -0.165594
v -0.346261 -0.881045 -0.218732
v -0.34347 -0.809754 -0.237831
v -0.346261 -0.881045 -0.218732
v -0.386812 -0.881045 -0.218788
v -0.389515 -0.813707 -0.263119
v -0.386751 -0.886881 -0.263115
v -0.386978 -0.671286 -0.097684
v -0.389645 -0.690225 -0.168368
v -0.386986 -0.715613 -0.091848
v -0.346435 -0.715613 -0.091792
v -0.343565 -0.740838 -0.168915
v -0.346427 -0.759941 -0.097628
v -0.346318 -0.863935 -0.177426
v -0.343503 -0.800018 -0.214325
v -0.346318 -0.863935 -0.177426
v -0.386868 -0.863935 -0.177482
v -0.386812 -0.881045 -0.218788
v -0.38955 -0.810364 -0.237731
v -0.386986 -0.715613 -0.091848
v -0.38965 -0.715613 -0.165026
v -0.346427 -0.759941 -0.097628
v -0.386978 -0.759941 -0.097684
v -0.343552 -0.764344 -0.178651
v -0.346404 -0.801247 -0.114738
v -0.346367 -0.836718 -0.141955
v -0.34353 -0.784529 -0.19414
v -0.346367 -0.836718 -0.141955
v -0.386917 -0.836718 -0.142011
v -0.386868 -0.863935 -0.177482
v -0.389582 -0.800565 -0.214072
v -0.389645 -0.741002 -0.168368
v -0.386978 -0.759941 -0.097684
v -0.346404 -0.801247 -0.114738
v -0.386954 -0.801247 -0.114793
v -0.386917 -0.836718 -0.142011
v -0.38961 -0.784976 -0.193757
v -0.389632 -0.76466 -0.178168
v -0.386954 -0.801247 -0.114793
vn 0.9993426198236616 0.018716850278052928 -0.03104847370885468
vn 0.9993344639542516 0.02646961997760173 -0.02509956914988527
vn 0.001187309286486169 0.49999999228328224 -0.8660245943467056
vn 0.0009694338058569397 0.7071067713899332 -0.7071061264425594
vn 0.9993238350218737 0.032418529719002394 -0.017346806277612713
vn 0.9993477465800606 0.009688554597379228 -0.034788120316688896
vn 0.0013242716169087905 0.25881900721247825 -0.9659249286617628
vn -0.9992494368146483 0.0266977078512734 -0.028067693547852945
vn -0.9992412107835622 0.018878128434515137 -0.03406785785180301
vn 0.0006854930086711551 0.8660253974369699 -0.4999995410932628
vn 0.9993114571057031 0.03615817951047264 -0.008318518603970256
vn 0.999349495384825 0.0 -0.03606363922422797
vn 0.0013709870042941997 8.924309968632597e-09 -0.9999990601968753
vn 0.0013709870042941997 8.924317899522235e-09 -0.9999990601968753
vn -0.9992360394504436 0.009772038079621079 -0.037839724300819874
vn -0.999260157521535 0.03269787738217064 -0.02024812101746162
vn 0.00035483693467407585 0.9659258351656551 -0.25881876873650683
vn 0.9992981743092689 0.03743369938621663 0.0013700264320134243
vn 0.9992981743092689 0.03743369938621663 0.0013700264320141123
vn 0.999347746591676 -0.009688552778414624 -0.0347881204896011
vn 0.0013242719271669384 -0.25881898997196984 -0.9659249332809214
vn -0.9992342757727399 0.0 -0.03912623315536444
vn -0.9992726417366739 0.03646974704282607 -0.011142038738100855
vn 0.0 1.0 8.92350896325164e-09
vn 0.0 1.0 8.923511592029288e-09
vn 0.9992848913420985 0.03615817933754467 0.011058571445004406
vn 0.999342619846101 -0.018716848525836167 -0.03104847404289543
vn 0.0011873098859000353 -0.4999999768258652 -0.8660246032702357
vn -0.9992360394387281 -0.009772038602258209 -0.03783972447522204
vn -0.9992860392009342 0.03775625687365718 -0.0013700091239053297
vn -0.9992860392009342 0.03775625687365718 -0.0013700091239041005
vn -0.00035483809272499257 0.9659258305460754 0.2588187859754438
vn 0.9992725139049513 0.032418529384931186 0.02008685905255569
vn 0.9993344639859856 -0.026469618331565203 -0.02509956962229017
vn 0.0009694346535929952 -0.7071067587690049 -0.7071061390623367
vn -0.9992412107609296 -0.0188781290244752 -0.03406785818872212
vn -0.9992994364130378 0.036469746868408 0.008402020467675632
vn -0.00068549404695077 0.8660253885126259 0.4999995565492705
vn 0.9992618849432061 0.026469619505153745 0.027839621818607652
vn 0.9993238350607397 -0.03241852821134264 -0.01734680685618817
vn 0.0006854940469435193 -0.8660253885126259 -0.4999995565492705
vn -0.999249436782641 -0.026697708548328616 -0.028067694024328564
vn -0.9993119208622018 0.0326978770452208 0.017508102679392564
vn -0.000969434653605369 0.7071067587690049 0.7071061390623367
vn 0.9992537290557957 0.018716849699424706 0.03378852623917549
vn 0.9993114571490525 -0.03615817816395612 -0.008318519249287466
vn 0.00035483809271486184 -0.9659258305460754 -0.2588187859754438
vn -0.9992601574823341 -0.032697878218795086 -0.02024812160102263
vn -0.999322641239956 0.02669770737475433 0.025327675103139873
vn -0.0011873098859210035 0.4999999768258652 0.8660246032702357
vn 0.9992486017889798 0.009688553952003161 0.037528172685166554
vn 0.9992981743541475 -0.03743369821262809 0.0013700257639282921
vn 0.9992981743541475 -0.03743369821262809 0.0013700257639281718
vn 0.0 -1.0 -8.923539469728252e-09
vn 0.0 -1.0 -8.923528901160703e-09
vn -0.999272641692951 -0.03646974804198229 -0.01114203938897865
vn -0.9993308675187086 0.018878127850900907 0.03132783926718103
vn -0.0013242719271798161 0.25881898997196984 0.9659249332809214
vn 0.9992468531510023 0.0 0.03880369142000616
vn 0.9992848913854478 -0.0361581783368841 0.011058570799687197
vn -0.0003548369346822189 -0.9659258351656551 0.25881876873650683
vn -0.9992860391556688 -0.03775625804723146 -0.0013700097977450843
vn -0.9992860391556688 -0.03775625804723146 -0.0013700097977451659
vn -0.9993360385548545 0.00977203742868392 0.03509970555407313
vn -0.0013709870042840657 -8.924323941251952e-09 0.9999990601968753
vn -0.0013709870042840657 -8.92431874607219e-09 0.9999990601968753
vn 0.9992486018005954 -0.009688553423790689 0.037528172512254356
vn 0.9992725139438173 -0.032418528545413855 0.02008685847398024
vn -0.0006854930086796446 -0.8660253974369699 0.4999995410932628
vn -0.999299436369315 -0.03646974821640035 0.008402019816797834
vn -0.9993378024540677 0.0 0.03638621423389578
vn -0.0013242716168952967 -0.25881900721247825 0.9659249286617628
vn 0.9992537290782348 -0.018716849104464382 0.033788525905134745
vn 0.9992618849749401 -0.026469618804013183 0.027839621346202752
vn -0.0009694338058658422 -0.7071067713899332 0.7071061264425594
vn -0.9993119208230009 -0.03269787855574493 0.017508102095831556
vn -0.999336038543139 -0.009772039253195367 0.03509970537967096
vn -0.0011873092864892764 -0.49999999228328224 0.8660245943467056
vn -0.9993226412079484 -0.026697709024847683 0.02532767462666425
vn -0.999330867496076 -0.018878129608089426 0.03132783893026192
usemtl material_0_0
f 1//1 2//2 3//1
f 2//2 1//1 4//2
f 5//3 6//4 7//3
f 6//4 5//3 8//4
f 4//2 9//5 2//2
f 9//5 4//2 10//5
f 11//6 3//1 12//6
f 3//1 11//6 1//1
f 13//7 7//3 14//7
f 7//3 13//7 5//3
f 15//8 16//9 17//9
f 16//9 15//8 18//8
f 6//4 19//10 20//10
f 19//10 6//4 8//4
f 10//5 21//11 9//5
f 21//11 10//5 22//11
f 23//12 12//6 24//12
f 12//6 23//12 11//6
f 25//13 14//7 26//14
f 14//7 25//13 13//7
f 17//9 27//15 28//15
f 27//15 17//9 16//9
f 29//16 18//8 15//8
f 18//8 29//16 30//16
f 20//10 31//17 32//17
f 31//17 20//10 19//10
f 22//11 33//18 21//11
f 33//18 22//11 34//19
f 23//12 35//20 36//20
f 35//20 23//12 24//12
f 37//21 25//13 26//14
f 25//13 37//21 38//21
f 39//22 27//15 40//22
f 27//15 39//22 28//15
f 41//23 30//16 29//16
f 30//16 41//23 42//23
f 32//17 43//24 44//25
f 43//24 32//17 31//17
f 33//18 45//26 46//26
f 45//26 33//18 34//19
f 36//20 47//27 48//27
f 47//27 36//20 35//20
f 49//28 37//21 50//28
f 37//21 49//28 38//21
f 51//29 40//22 52//29
f 40//22 51//29 39//22
f 53//30 42//23 41//23
f 42//23 53//30 54//31
f 44//25 55//32 56//32
f 55//32 44//25 43//24
f 46//26 57//33 58//33
f 57//33 46//26 45//26
f 48//27 59//34 60//34
f 59//34 48//27 47//27
f 61//35 50//28 62//35
f 50//28 61//35 49//28
f 63//36 52//29 64//36
f 52//29 63//36 51//29
f 65//37 53//30 66//37
f 53//30 65//37 54//31
f 67//38 55//32 68//38
f 55//32 67//38 56//32
f 58//33 69//39 70//39
f 69//39 58//33 57//33
f 60//34 71//40 72//40
f 71//40 60//34 59//34
f 61//35 73//41 74//41
f 73//41 61//35 62//35
f 75//42 64//36 76//42
f 64//36 75//42 63//36
f 77//43 66//37 78//43
f 66//37 77//43 65//37
f 67//38 79//44 80//44
f 79//44 67//38 68//38
f 70//39 81//45 82//45
f 81//45 70//39 69//39
f 72//40 83//46 84//46
f 83//46 72//40 71//40
f 74//41 85//47 86//47
f 85//47 74//41 73//41
f 87//48 76//42 88//48
f 76//42 87//48 75//42
f 89//49 78//43 90//49
f 78//43 89//49 77//43
f 79//44 91//50 80//44
f 91//50 79//44 92//50
f 82//45 93//51 94//51
f 93//51 82//45 81//45
f 84//46 95//52 96//53
f 95//52 84//46 83//46
f 86//47 97//54 98//55
f 97//54 86//47 85//47
f 99//56 88//48 100//56
f 88//48 99//56 87//48
f 101//57 90//49 102//57
f 90//49 101//57 89//49
f 92//50 103//58 91//50
f 103//58 92//50 104//58
f 94//51 105//59 106//59
f 105//59 94//51 93//51
f 95//52 107//60 96//53
f 107//60 95//52 108//60
f 98//55 109//61 110//61
f 109//61 98//55 97//54
f 111//62 100//56 112//63
f 100//56 111//62 99//56
f 113//64 102//57 114//64
f 102//57 113//64 101//57
f 103//58 115//65 116//66
f 115//65 103//58 104//58
f 117//67 105//59 118//67
f 105//59 117//67 106//59
f 108//60 119//68 107//60
f 119//68 108//60 120//68
f 110//61 121//69 122//69
f 121//69 110//61 109//61
f 123//70 111//62 112//63
f 111//62 123//70 124//70
f 125//71 114//64 126//71
f 114//64 125//71 113//64
f 115//65 127//72 116//66
f 127//72 115//65 128//72
f 129//73 118//67 130//73
f 118//67 129//73 117//67
f 120//68 131//74 119//68
f 131//74 120//68 132//74
f 122//69 133//75 134//75
f 133//75 122//69 121//69
f 135//76 124//70 123//70
f 124//70 135//76 136//76
f 125//71 137//77 138//77
f 137//77 125//71 126//71
f 128//72 139//78 127//72
f 139//78 128//72 140//78
f 132//74 130//73 131//74
f 130//73 132//74 129//73
f 139//78 134//75 133//75
f 134//75 139//78 140//78
f 141//79 136//76 135//76
f 136//76 141//79 142//79
f 138//77 143//80 144//80
f 143//80 138//77 137//77
f 144//80 142//79 141//79
f 142//79 144//80 143//80
