# SSTK version 0.8.0
# 21
mtllib original-21.mtl
o #ID358
v 0.36572 0.637914 0.429321
v 0.362165 0.649909 0.422145
v 0.365176 0.637737 0.423187
v 0.362878 0.65014 0.430181
v 0.369767 0.638047 0.433964
v 0.38144 0.638017 0.43293
v 0.375772 0.638087 0.435342
v 0.36572 0.637914 0.429321
v 0.384607 0.637865 0.427648
v 0.365176 0.637737 0.423187
v 0.384063 0.637689 0.421514
v 0.368343 0.637585 0.417905
v 0.380016 0.637555 0.416871
v 0.374011 0.637516 0.415492
v 0.369767 0.638047 0.433964
v 0.368179 0.650315 0.436263
v 0.366314 0.64971 0.415226
v 0.368343 0.637585 0.417905
v 0.373739 0.649619 0.412065
v 0.374011 0.637516 0.415492
v 0.380016 0.637555 0.416871
v 0.381605 0.649671 0.413871
v 0.384063 0.637689 0.421514
v 0.386906 0.649845 0.419953
v 0.384607 0.637865 0.427648
v 0.387619 0.650076 0.427989
v 0.38144 0.638017 0.43293
v 0.38347 0.650275 0.434908
v 0.376045 0.650367 0.438069
v 0.375772 0.638087 0.435342
vn -0.8918867727462492 -0.2345425907214187 0.3866881918781146
vn -0.9447860428976051 -0.25169549511136424 -0.20983019536408473
vn -3.941061887844272e-05 -0.9995867312918413 0.028746566266167974
vn -0.4983207257801715 -0.22157329511890422 0.8382014848161948
vn -0.6368128533265462 -0.26648006896902393 -0.7235038097207
vn -0.08560249143276721 -0.27324918103537604 -0.9581268697432501
vn 0.4983013885709448 -0.269417288366416 -0.8240813375374761
vn 0.8918674260024814 -0.25644798496565857 -0.37256801451917726
vn 0.9447667038126534 -0.23929510286250424 0.22395028268121858
vn 0.6367935210765634 -0.22451049431595296 0.7376239214239996
vn 0.08558313641366319 -0.2177414083250899 0.9722469880962383
usemtl material_0_0
f 1//1 2//2 3//2
f 2//2 1//1 4//1
f 5//3 6//3 7//3
f 6//3 5//3 8//3
f 6//3 8//3 9//3
f 9//3 8//3 10//3
f 9//3 10//3 11//3
f 11//3 10//3 12//3
f 11//3 12//3 13//3
f 13//3 12//3 14//3
f 15//4 4//1 1//1
f 4//1 15//4 16//4
f 3//2 17//5 18//5
f 17//5 3//2 2//2
f 18//5 19//6 20//6
f 19//6 18//5 17//5
f 21//7 19//6 22//7
f 19//6 21//7 20//6
f 22//7 23//8 21//7
f 23//8 22//7 24//8
f 24//8 25//9 23//8
f 25//9 24//8 26//9
f 26//9 27//10 25//9
f 27//10 26//9 28//10
f 29//11 27//10 28//10
f 27//10 29//11 30//11
f 16//4 30//11 29//11
f 30//11 16//4 15//4
