# SSTK version 0.8.0
# 3
mtllib original-3.mtl
o #ID245
v -0.377883 -0.724046 -0.231632
v -0.392853 -0.72946 -0.23914
v -0.377878 -0.731904 -0.234887
v -0.392857 -0.722781 -0.236373
v -0.392858 -0.715613 -0.23543
v -0.377884 -0.715613 -0.230522
v -0.39283 -0.742364 -0.255956
v -0.39281 -0.742364 -0.270291
v -0.39282 -0.743307 -0.263124
v -0.392839 -0.739597 -0.249277
v -0.392801 -0.739597 -0.276971
v -0.392793 -0.735196 -0.282706
v -0.392847 -0.735196 -0.243541
v -0.392787 -0.72946 -0.287107
v -0.392853 -0.72946 -0.23914
v -0.392783 -0.722781 -0.289874
v -0.392857 -0.722781 -0.236373
v -0.392858 -0.715613 -0.23543
v -0.392782 -0.715613 -0.290817
v -0.392857 -0.708446 -0.236373
v -0.392783 -0.708446 -0.289874
v -0.392787 -0.701766 -0.287107
v -0.392853 -0.701766 -0.23914
v -0.392793 -0.696031 -0.282706
v -0.392847 -0.696031 -0.243541
v -0.392801 -0.69163 -0.276971
v -0.392839 -0.69163 -0.249277
v -0.39281 -0.688863 -0.270291
v -0.39283 -0.688863 -0.255956
v -0.39282 -0.687919 -0.263124
v -0.377871 -0.738652 -0.240065
v -0.392847 -0.735196 -0.243541
v -0.377883 -0.707181 -0.231632
v -0.392857 -0.708446 -0.236373
v -0.392801 -0.739597 -0.276971
v -0.377828 -0.747084 -0.271536
v -0.39281 -0.742364 -0.270291
v -0.377817 -0.743829 -0.279394
v -0.37784 -0.748194 -0.263103
v -0.39282 -0.743307 -0.263124
v -0.39283 -0.742364 -0.255956
v -0.377851 -0.747084 -0.25467
v -0.392839 -0.739597 -0.249277
v -0.377862 -0.743829 -0.246813
v -0.392853 -0.701766 -0.23914
v -0.377878 -0.699323 -0.234887
v -0.392847 -0.696031 -0.243541
v -0.377871 -0.692575 -0.240065
v -0.377862 -0.687397 -0.246813
v -0.392839 -0.69163 -0.249277
v -0.377851 -0.684142 -0.25467
v -0.39283 -0.688863 -0.255956
v -0.37784 -0.683032 -0.263103
v -0.39282 -0.687919 -0.263124
v -0.39281 -0.688863 -0.270291
v -0.377828 -0.684142 -0.271536
v -0.392801 -0.69163 -0.276971
v -0.377817 -0.687397 -0.279394
v -0.392793 -0.696031 -0.282706
v -0.377808 -0.692575 -0.286141
v -0.392787 -0.701766 -0.287107
v -0.377801 -0.699323 -0.291319
v -0.392783 -0.708446 -0.289874
v -0.377796 -0.707181 -0.294574
v -0.392782 -0.715613 -0.290817
v -0.377795 -0.715613 -0.295684
v -0.377796 -0.724046 -0.294574
v -0.392783 -0.722781 -0.289874
v -0.377801 -0.731904 -0.291319
v -0.392787 -0.72946 -0.287107
v -0.392793 -0.735196 -0.282706
v -0.377808 -0.738652 -0.286141
vn -0.31140838683648675 -0.24605610475107936 0.9178677518698556
vn -0.31127817390310836 -0.47534389359902146 0.8228937241647116
vn -0.31145279844833185 -8.66641363853952e-09 0.9502616241534237
vn -0.31145279844833185 -8.666374412570118e-09 0.9502616241534237
vn -0.9999990601968755 0.0 -0.001370987004293371
vn -0.31107106124564926 -0.6722377273727933 0.6718119028062597
vn -0.31140838713147867 0.2460560879964963 0.9178677562612337
vn -0.3094977291188771 -0.8233196887615764 -0.47576868935208344
vn -0.30981208885053624 -0.9182938171983887 -0.24648110454410052
vn -0.3101494301275982 -0.9506877248496028 -0.00042521972197848845
vn -0.3101494301275983 -0.9506877248496028 -0.0004252197219138616
vn -0.31048676832624206 -0.9182938215901674 0.24563066568254927
vn -0.3108011097858312 -0.8233196972458415 0.47491825221074807
vn -0.31127817447298906 0.47534387853960175 0.8228937326482029
vn -0.31107106205158214 0.6722377150099883 0.671811914803727
vn -0.3108011107728934 0.8233196883973329 0.47491826690458455
vn -0.31048676942716696 0.9182938168341451 0.24563068207139474
vn -0.31014943126735955 0.9506877244853595 -0.00042520275505231897
vn -0.3101494312673597 0.9506877244853595 -0.00042520275491028057
vn -0.3098120899514611 0.9182938212259237 -0.24648108815525496
vn -0.3094977301059393 0.8233196968815981 -0.475768674658247
vn -0.30922780360851077 0.6722377270085498 -0.6726623252879816
vn -0.3090206532181462 0.47534389323477805 -0.8237441465947022
vn -0.30889044932203075 0.24605610438683592 -0.9187181743122361
vn -0.3088460374055898 8.30214496743994e-09 -0.9511120465953866
vn -0.3088460374055898 8.302122182228284e-09 -0.9511120465953866
vn -0.3088904490270388 -0.24605608836073975 -0.9187181787036143
vn -0.30902065264826556 -0.47534387890384516 -0.8237441550781934
vn -0.3092278028025779 -0.6722377153742317 -0.672662337285449
usemtl material_0_0
f 1//1 2//2 3//2
f 2//2 1//1 4//1
f 5//3 1//1 6//4
f 1//1 5//3 4//1
f 7//5 8//5 9//5
f 8//5 7//5 10//5
f 8//5 10//5 11//5
f 11//5 10//5 12//5
f 12//5 10//5 13//5
f 12//5 13//5 14//5
f 14//5 13//5 15//5
f 14//5 15//5 16//5
f 16//5 15//5 17//5
f 16//5 17//5 18//5
f 16//5 18//5 19//5
f 19//5 18//5 20//5
f 19//5 20//5 21//5
f 21//5 20//5 22//5
f 22//5 20//5 23//5
f 22//5 23//5 24//5
f 24//5 23//5 25//5
f 24//5 25//5 26//5
f 26//5 25//5 27//5
f 26//5 27//5 28//5
f 28//5 27//5 29//5
f 28//5 29//5 30//5
f 2//2 31//6 3//2
f 31//6 2//2 32//6
f 33//7 5//3 6//4
f 5//3 33//7 34//7
f 35//8 36//9 37//9
f 36//9 35//8 38//8
f 37//9 39//10 40//11
f 39//10 37//9 36//9
f 41//12 39//10 42//12
f 39//10 41//12 40//11
f 43//13 42//12 44//13
f 42//12 43//13 41//12
f 32//6 44//13 31//6
f 44//13 32//6 43//13
f 45//14 33//7 46//14
f 33//7 45//14 34//7
f 47//15 46//14 48//15
f 46//14 47//15 45//14
f 49//16 47//15 48//15
f 47//15 49//16 50//16
f 51//17 50//16 49//16
f 50//16 51//17 52//17
f 53//18 52//17 51//17
f 52//17 53//18 54//19
f 53//18 55//20 54//19
f 55//20 53//18 56//20
f 56//20 57//21 55//20
f 57//21 56//20 58//21
f 58//21 59//22 57//21
f 59//22 58//21 60//22
f 61//23 60//22 62//23
f 60//22 61//23 59//22
f 63//24 62//23 64//24
f 62//23 63//24 61//23
f 65//25 64//24 66//26
f 64//24 65//25 63//24
f 67//27 65//25 66//26
f 65//25 67//27 68//27
f 69//28 68//27 67//27
f 68//27 69//28 70//28
f 71//29 69//28 72//29
f 69//28 71//29 70//28
f 71//29 38//8 35//8
f 38//8 71//29 72//29
