# SSTK version 0.8.0
# 10
mtllib original-10.mtl
o #ID287
v 0.403855 -0.567291 -0.347665
v 0.363249 -0.550181 -0.306414
v 0.403798 -0.550181 -0.306359
v 0.363305 -0.567291 -0.347721
v 0.403855 -0.567291 -0.347665
v 0.406537 -0.620862 -0.287416
v 0.40657 -0.630662 -0.311074
v 0.403798 -0.550181 -0.306359
v 0.363354 -0.594509 -0.383192
v 0.403904 -0.594509 -0.383136
v 0.360458 -0.621472 -0.287316
v 0.363305 -0.567291 -0.347721
v 0.36049 -0.631209 -0.310822
v 0.363249 -0.550181 -0.306414
v 0.363188 -0.544346 -0.262087
v 0.403738 -0.544346 -0.262032
v 0.406502 -0.61752 -0.262028
v 0.403738 -0.544346 -0.262032
v 0.403904 -0.594509 -0.383136
v 0.406597 -0.646251 -0.33139
v 0.403941 -0.629979 -0.410354
v 0.363391 -0.629979 -0.410409
v 0.363354 -0.594509 -0.383192
v 0.360517 -0.646697 -0.331007
v 0.360423 -0.618151 -0.262091
v 0.363188 -0.544346 -0.262087
v 0.363127 -0.550181 -0.21776
v 0.403677 -0.550181 -0.217704
v 0.403677 -0.550181 -0.217704
v 0.406467 -0.620862 -0.236639
v 0.403941 -0.629979 -0.410354
v 0.406619 -0.666567 -0.346979
v 0.363415 -0.671286 -0.427519
v 0.403964 -0.671286 -0.427463
v 0.363391 -0.629979 -0.410409
v 0.360539 -0.666882 -0.346495
v 0.363127 -0.550181 -0.21776
v 0.360388 -0.621472 -0.236866
v 0.36307 -0.567291 -0.176453
v 0.40362 -0.567291 -0.176398
v 0.40362 -0.567291 -0.176398
v 0.406435 -0.630662 -0.212981
v 0.403964 -0.671286 -0.427463
v 0.406632 -0.690225 -0.356779
v 0.403972 -0.715613 -0.433299
v 0.363423 -0.715613 -0.433355
v 0.363415 -0.671286 -0.427519
v 0.360552 -0.690388 -0.356232
v 0.36307 -0.567291 -0.176453
v 0.360356 -0.631209 -0.21336
v 0.363022 -0.594509 -0.140983
v 0.403572 -0.594509 -0.140927
v 0.403572 -0.594509 -0.140927
v 0.406407 -0.646251 -0.192665
v 0.406637 -0.715613 -0.360121
v 0.403972 -0.715613 -0.433299
v 0.363415 -0.759941 -0.427519
v 0.403964 -0.759941 -0.427463
v 0.363423 -0.715613 -0.433355
v 0.360557 -0.715613 -0.359553
v 0.363022 -0.594509 -0.140983
v 0.360329 -0.646697 -0.193175
v 0.403534 -0.629979 -0.11371
v 0.362984 -0.629979 -0.113765
v 0.403534 -0.629979 -0.11371
v 0.406386 -0.666567 -0.177077
v 0.406632 -0.741002 -0.356779
v 0.403964 -0.759941 -0.427463
v 0.403941 -0.801247 -0.410354
v 0.363391 -0.801247 -0.410409
v 0.360552 -0.740838 -0.356232
v 0.363415 -0.759941 -0.427519
v 0.362984 -0.629979 -0.113765
v 0.360307 -0.666882 -0.177687
v 0.362961 -0.671286 -0.096655
v 0.403511 -0.671286 -0.0966
v 0.403511 -0.671286 -0.0966
v 0.406372 -0.690225 -0.167277
v 0.406619 -0.76466 -0.346979
v 0.403941 -0.801247 -0.410354
v 0.363354 -0.836718 -0.383192
v 0.403904 -0.836718 -0.383136
v 0.360539 -0.764344 -0.346495
v 0.363391 -0.801247 -0.410409
v 0.362961 -0.671286 -0.096655
v 0.360294 -0.690388 -0.16795
v 0.403503 -0.715613 -0.090764
v 0.362953 -0.715613 -0.09082
v 0.403503 -0.715613 -0.090764
v 0.406368 -0.715613 -0.163935
v 0.406597 -0.784976 -0.33139
v 0.403904 -0.836718 -0.383136
v 0.403855 -0.863935 -0.347665
v 0.363305 -0.863935 -0.347721
v 0.360517 -0.784529 -0.331007
v 0.363354 -0.836718 -0.383192
v 0.362953 -0.715613 -0.09082
v 0.360289 -0.715613 -0.164629
v 0.403511 -0.759941 -0.0966
v 0.362961 -0.759941 -0.096655
v 0.406372 -0.741002 -0.167277
v 0.403511 -0.759941 -0.0966
v 0.40657 -0.800565 -0.311074
v 0.403855 -0.863935 -0.347665
v 0.363249 -0.881045 -0.306414
v 0.403798 -0.881045 -0.306359
v 0.36049 -0.800018 -0.310822
v 0.363305 -0.863935 -0.347721
v 0.360294 -0.740838 -0.16795
v 0.362961 -0.759941 -0.096655
v 0.362984 -0.801247 -0.113765
v 0.403534 -0.801247 -0.11371
v 0.406386 -0.76466 -0.177077
v 0.403534 -0.801247 -0.11371
v 0.406537 -0.810364 -0.287416
v 0.403798 -0.881045 -0.306359
v 0.403738 -0.886881 -0.262032
v 0.363188 -0.886881 -0.262087
v 0.360458 -0.809754 -0.287316
v 0.363249 -0.881045 -0.306414
v 0.360307 -0.764344 -0.177687
v 0.362984 -0.801247 -0.113765
v 0.403572 -0.836718 -0.140927
v 0.363022 -0.836718 -0.140983
v 0.406407 -0.784976 -0.192665
v 0.403572 -0.836718 -0.140927
v 0.406502 -0.813707 -0.262028
v 0.403738 -0.886881 -0.262032
v 0.403677 -0.881045 -0.217704
v 0.363127 -0.881045 -0.21776
v 0.360423 -0.813075 -0.262091
v 0.363188 -0.886881 -0.262087
v 0.360329 -0.784529 -0.193175
v 0.363022 -0.836718 -0.140983
v 0.36307 -0.863935 -0.176453
v 0.40362 -0.863935 -0.176398
v 0.406435 -0.800565 -0.212981
v 0.40362 -0.863935 -0.176398
v 0.403677 -0.881045 -0.217704
v 0.406467 -0.810364 -0.236639
v 0.363127 -0.881045 -0.21776
v 0.360388 -0.809754 -0.236866
v 0.360356 -0.800018 -0.21336
v 0.36307 -0.863935 -0.176453
vn 0.0006854930086957068 0.8660253974369699 -0.4999995410932628
vn 0.00035483693469356037 0.9659258351656551 -0.25881876873650683
vn 0.9993119208230009 0.03269787855574493 -0.017508102095831556
vn 0.999299436369315 0.03646974821640035 -0.008402019816797834
vn 0.0009694338058766062 0.7071067713899332 -0.7071061264425594
vn -0.9992848913854478 0.0361581783368841 -0.011058570799687197
vn -0.9992725139438173 0.032418528545413855 -0.02008685847398024
vn 0.0 1.0 8.923497436621297e-09
vn 0.0 1.0 8.923520543109635e-09
vn 0.9992860391556688 0.03775625804723146 0.0013700097977412434
vn 0.9992860391556688 0.03775625804723146 0.0013700097977414605
vn 0.9993226412079484 0.026697709024847683 -0.02532767462666425
vn 0.0011873092864728993 0.49999999228328224 -0.8660245943467056
vn -0.9992618849749401 0.026469618804013183 -0.027839621346202752
vn -0.9992981743541475 0.03743369821262809 -0.0013700257639387397
vn -0.9992981743541475 0.03743369821262809 -0.001370025763938945
vn -0.0003548380927026805 0.9659258305460754 0.2588187859754438
vn 0.999272641692951 0.03646974804198229 0.01114203938897865
vn 0.999330867496076 0.018878129608089426 -0.03132783893026192
vn 0.0013242716168716969 0.25881900721247825 -0.9659249286617628
vn -0.9992537290782348 0.018716849104464382 -0.033788525905134745
vn -0.9993114571490525 0.03615817816395612 0.008318519249287466
vn -0.0006854940469387042 0.8660253885126259 0.4999995565492705
vn 0.9992601574823341 0.032697878218795086 0.02024812160102263
vn 0.999336038543139 0.009772039253195367 -0.03509970537967096
vn 0.001370987004287089 8.92431262414247e-09 -0.9999990601968753
vn 0.001370987004287089 8.924307330942712e-09 -0.9999990601968753
vn -0.9992486018005954 0.009688553423790689 -0.037528172512254356
vn -0.9993238350607397 0.03241852821134264 0.01734680685618817
vn -0.0009694346536017576 0.7071067587690049 0.7071061390623367
vn 0.999249436782641 0.026697708548328616 0.028067694024328564
vn 0.9993378024540677 0.0 -0.03638621423389578
vn 0.0013242719271997206 -0.2588189899719698 -0.9659249332809212
vn -0.9992468531510023 0.0 -0.03880369142000616
vn -0.9993344639859856 0.026469618331565203 0.02509956962229017
vn -0.001187309885918792 0.4999999768258652 0.8660246032702357
vn 0.9992412107609296 0.0188781290244752 0.03406785818872212
vn 0.9993360385548545 -0.00977203742868392 -0.03509970555407313
vn 0.0011873098859397602 -0.4999999768258652 -0.8660246032702357
vn -0.9992486017889798 -0.009688553952003161 -0.037528172685166554
vn -0.999342619846101 0.018716848525836167 0.03104847404289543
vn -0.0013242719271866748 0.2588189899719698 0.9659249332809212
vn 0.9992360394387281 0.009772038602258209 0.03783972447522204
vn 0.9993308675187086 -0.018878127850900907 -0.03132783926718103
vn 0.0009694346536140894 -0.7071067587690049 -0.7071061390623367
vn -0.9992537290557957 -0.018716849699424706 -0.03378852623917549
vn -0.999347746591676 0.009688552778414624 0.0347881204896011
vn -0.0013709870042970273 -8.924316019272321e-09 0.9999990601968753
vn -0.0013709870042970273 -8.92432394125196e-09 0.9999990601968753
vn 0.9992342757727399 0.0 0.03912623315536444
vn 0.999322641239956 -0.02669770737475433 -0.025327675103139873
vn 0.00068549404694592 -0.8660253885126259 -0.4999995565492705
vn -0.9992618849432061 -0.026469619505153745 -0.027839621818607652
vn -0.999349495384825 0.0 0.03606363922422797
vn -0.0013242716168851906 -0.25881900721247825 0.9659249286617628
vn 0.9992360394504436 -0.009772038079621079 0.037839724300819874
vn 0.9993119208622018 -0.0326978770452208 -0.017508102679392564
vn 0.0003548380927128252 -0.9659258305460754 -0.2588187859754438
vn -0.9992725139049513 -0.032418529384931186 -0.02008685905255569
vn -0.9993477465800606 -0.009688554597379228 0.034788120316688896
vn -0.001187309286469736 -0.49999999228328224 0.8660245943467056
vn 0.9992412107835622 -0.018878128434515137 0.03406785785180301
vn 0.9992994364130378 -0.036469746868408 -0.008402020467675632
vn 0.0 -1.0 -8.923523586923426e-09
vn 0.0 -1.0 -8.923528871206701e-09
vn -0.9992848913420985 -0.03615817933754467 -0.011058571445004406
vn -0.9993426198236616 -0.018716850278052928 0.03104847370885468
vn -0.0009694338058676478 -0.7071067713899332 0.7071061264425594
vn 0.9992494368146483 -0.0266977078512734 0.028067693547852945
vn 0.9992860392009342 -0.03775625687365718 0.0013700091239008522
vn 0.9992860392009342 -0.03775625687365718 0.0013700091239009773
vn -0.0003548369346854663 -0.9659258351656551 0.25881876873650683
vn -0.9992981743092687 -0.037433699386216615 -0.001370026432023929
vn -0.9992981743092687 -0.037433699386216615 -0.0013700264320249613
vn -0.9993344639542516 -0.02646961997760173 0.02509956914988527
vn -0.0006854930086872943 -0.8660253974369699 0.4999995410932628
vn 0.999260157521535 -0.03269787738217064 0.02024812101746162
vn 0.9992726417366739 -0.03646974704282607 0.011142038738100855
vn -0.9993114571057031 -0.03615817951047264 0.008318518603970256
vn -0.9993238350218737 -0.032418529719002394 0.017346806277612713
usemtl material_0_0
f 1//1 2//2 3//2
f 2//2 1//1 4//1
f 5//3 6//4 7//3
f 6//4 5//3 8//4
f 1//1 9//5 4//1
f 9//5 1//1 10//5
f 11//6 12//7 13//7
f 12//7 11//6 14//6
f 3//2 15//8 16//9
f 15//8 3//2 2//2
f 8//4 17//10 6//4
f 17//10 8//4 18//11
f 19//12 7//3 20//12
f 7//3 19//12 5//3
f 21//13 9//5 10//5
f 9//5 21//13 22//13
f 13//7 23//14 24//14
f 23//14 13//7 12//7
f 25//15 14//6 11//6
f 14//6 25//15 26//16
f 16//9 27//17 28//17
f 27//17 16//9 15//8
f 17//10 29//18 30//18
f 29//18 17//10 18//11
f 31//19 20//12 32//19
f 20//12 31//19 19//12
f 33//20 21//13 34//20
f 21//13 33//20 22//13
f 24//14 35//21 36//21
f 35//21 24//14 23//14
f 37//22 25//15 38//22
f 25//15 37//22 26//16
f 28//17 39//23 40//23
f 39//23 28//17 27//17
f 30//18 41//24 42//24
f 41//24 30//18 29//18
f 43//25 32//19 44//25
f 32//19 43//25 31//19
f 45//26 33//20 34//20
f 33//20 45//26 46//27
f 36//21 47//28 48//28
f 47//28 36//21 35//21
f 49//29 38//22 50//29
f 38//22 49//29 37//22
f 40//23 51//30 52//30
f 51//30 40//23 39//23
f 42//24 53//31 54//31
f 53//31 42//24 41//24
f 43//25 55//32 56//32
f 55//32 43//25 44//25
f 57//33 45//26 58//33
f 45//26 57//33 46//27
f 48//28 59//34 60//34
f 59//34 48//28 47//28
f 61//35 50//29 62//35
f 50//29 61//35 49//29
f 51//30 63//36 52//30
f 63//36 51//30 64//36
f 54//31 65//37 66//37
f 65//37 54//31 53//31
f 56//32 67//38 68//38
f 67//38 56//32 55//32
f 69//39 57//33 58//33
f 57//33 69//39 70//39
f 71//40 59//34 72//40
f 59//34 71//40 60//34
f 73//41 62//35 74//41
f 62//35 73//41 61//35
f 63//36 75//42 76//42
f 75//42 63//36 64//36
f 66//37 77//43 78//43
f 77//43 66//37 65//37
f 68//38 79//44 80//44
f 79//44 68//38 67//38
f 81//45 69//39 82//45
f 69//39 81//45 70//39
f 83//46 72//40 84//46
f 72//40 83//46 71//40
f 85//47 74//41 86//47
f 74//41 85//47 73//41
f 75//42 87//48 76//42
f 87//48 75//42 88//49
f 78//43 89//50 90//50
f 89//50 78//43 77//43
f 80//44 91//51 92//51
f 91//51 80//44 79//44
f 81//45 93//52 94//52
f 93//52 81//45 82//45
f 95//53 84//46 96//53
f 84//46 95//53 83//46
f 97//54 86//47 98//54
f 86//47 97//54 85//47
f 88//49 99//55 87//48
f 99//55 88//49 100//55
f 101//56 89//50 102//56
f 89//50 101//56 90//50
f 92//51 103//57 104//57
f 103//57 92//51 91//51
f 105//58 93//52 106//58
f 93//52 105//58 94//52
f 107//59 96//53 108//59
f 96//53 107//59 95//53
f 97//54 109//60 110//60
f 109//60 97//54 98//54
f 99//55 111//61 112//61
f 111//61 99//55 100//55
f 113//62 102//56 114//62
f 102//56 113//62 101//56
f 104//57 115//63 116//63
f 115//63 104//57 103//57
f 105//58 117//64 118//65
f 117//64 105//58 106//58
f 119//66 108//59 120//66
f 108//59 119//66 107//59
f 110//60 121//67 122//67
f 121//67 110//60 109//60
f 111//61 123//68 112//61
f 123//68 111//61 124//68
f 125//69 114//62 126//69
f 114//62 125//69 113//62
f 116//63 127//70 128//71
f 127//70 116//63 115//63
f 118//65 129//72 130//72
f 129//72 118//65 117//64
f 131//73 120//66 132//74
f 120//66 131//73 119//66
f 122//67 133//75 134//75
f 133//75 122//67 121//67
f 135//76 123//68 124//68
f 123//68 135//76 136//76
f 137//77 126//69 138//77
f 126//69 137//77 125//69
f 127//70 139//78 128//71
f 139//78 127//70 140//78
f 135//76 129//72 136//76
f 129//72 135//76 130//72
f 141//79 131//73 132//74
f 131//73 141//79 142//79
f 134//75 143//80 144//80
f 143//80 134//75 133//75
f 140//78 138//77 139//78
f 138//77 140//78 137//77
f 144//80 142//79 141//79
f 142//79 144//80 143//80
