# SSTK version 0.8.0
# 7
mtllib original-7.mtl
o #ID269
v -0.394023 -0.784976 -0.332488
v -0.389399 -0.76466 -0.34807
v -0.38942 -0.784976 -0.332481
v -0.394001 -0.76466 -0.348077
v -0.389448 -0.800565 -0.312166
v -0.39405 -0.800565 -0.312172
v -0.394153 -0.810364 -0.237737
v -0.394083 -0.810364 -0.288514
v -0.394118 -0.813707 -0.263125
v -0.394185 -0.800565 -0.214079
v -0.394118 -0.804046 -0.263125
v -0.394149 -0.801033 -0.240237
v -0.394178 -0.792198 -0.218909
v -0.394213 -0.784976 -0.193763
v -0.394203 -0.778145 -0.200594
v -0.394234 -0.76466 -0.178174
v -0.394223 -0.75983 -0.186541
v -0.394248 -0.741002 -0.168375
v -0.394235 -0.738501 -0.177706
v -0.394252 -0.715613 -0.165032
v -0.394239 -0.715613 -0.174693
v -0.394235 -0.692725 -0.177706
v -0.394248 -0.690225 -0.168375
v -0.394223 -0.671397 -0.186541
v -0.394234 -0.666567 -0.178174
v -0.394203 -0.653082 -0.200594
v -0.394213 -0.646251 -0.193763
v -0.394178 -0.639028 -0.218909
v -0.394185 -0.630662 -0.214079
v -0.394149 -0.630194 -0.240237
v -0.394153 -0.620862 -0.237737
v -0.394118 -0.627181 -0.263125
v -0.394083 -0.620862 -0.288514
v -0.394118 -0.61752 -0.263125
v -0.39405 -0.800565 -0.312172
v -0.394086 -0.801033 -0.286013
v -0.394057 -0.792198 -0.307342
v -0.394023 -0.784976 -0.332488
v -0.394032 -0.778145 -0.325657
v -0.394001 -0.76466 -0.348077
v -0.394013 -0.75983 -0.33971
v -0.393988 -0.741002 -0.357876
v -0.394001 -0.738501 -0.348545
v -0.393983 -0.715613 -0.361219
v -0.393996 -0.715613 -0.351558
v -0.393988 -0.690225 -0.357876
v -0.394001 -0.692725 -0.348545
v -0.394013 -0.671397 -0.33971
v -0.394001 -0.666567 -0.348077
v -0.394032 -0.653082 -0.325657
v -0.394023 -0.646251 -0.332488
v -0.394057 -0.639028 -0.307342
v -0.39405 -0.630662 -0.312172
v -0.394086 -0.630194 -0.286013
v -0.389385 -0.741002 -0.35787
v -0.393988 -0.741002 -0.357876
v -0.394083 -0.810364 -0.288514
v -0.38948 -0.810364 -0.288507
v -0.394118 -0.813707 -0.263125
v -0.389515 -0.813707 -0.263119
v -0.394153 -0.810364 -0.237737
v -0.38955 -0.810364 -0.237731
v -0.389582 -0.800565 -0.214072
v -0.394185 -0.800565 -0.214079
v -0.38961 -0.784976 -0.193757
v -0.394213 -0.784976 -0.193763
v -0.394234 -0.76466 -0.178174
v -0.389632 -0.76466 -0.178168
v -0.394248 -0.741002 -0.168375
v -0.389645 -0.741002 -0.168368
v -0.394252 -0.715613 -0.165032
v -0.38965 -0.715613 -0.165026
v -0.394248 -0.690225 -0.168375
v -0.389645 -0.690225 -0.168368
v -0.389632 -0.666567 -0.178168
v -0.394234 -0.666567 -0.178174
v -0.394213 -0.646251 -0.193763
v -0.38961 -0.646251 -0.193757
v -0.394185 -0.630662 -0.214079
v -0.389582 -0.630662 -0.214072
v -0.394153 -0.620862 -0.237737
v -0.38955 -0.620862 -0.237731
v -0.389515 -0.61752 -0.263119
v -0.394118 -0.61752 -0.263125
v -0.38948 -0.620862 -0.288507
v -0.394083 -0.620862 -0.288514
v -0.389448 -0.630662 -0.312166
v -0.39405 -0.630662 -0.312172
v -0.38942 -0.646251 -0.332481
v -0.394023 -0.646251 -0.332488
v -0.394001 -0.666567 -0.348077
v -0.389399 -0.666567 -0.34807
v -0.393988 -0.690225 -0.357876
v -0.389385 -0.690225 -0.35787
v -0.393983 -0.715613 -0.361219
v -0.389381 -0.715613 -0.361212
vn 0.0009694346536041372 -0.7071067587690049 -0.7071061390623367
vn 0.0011873098859208077 -0.4999999768258652 -0.8660246032702357
vn 0.0006854940469450171 -0.8660253885126259 -0.4999995565492705
vn -0.9999990601968755 0.0 -0.0013709870042932044
vn 0.0013242719271844632 -0.2588189899719698 -0.9659249332809212
vn 0.00035483809271379455 -0.9659258305460754 -0.2588187859754438
vn 0.0 -1.0 -8.923640988396799e-09
vn 0.0 -1.0 -8.923432753733013e-09
vn -0.000354836934684546 -0.9659258351656551 0.25881876873650683
vn -0.0006854930086844388 -0.8660253974369699 0.4999995410932628
vn -0.0009694338058679138 -0.7071067713899332 0.7071061264425594
vn -0.0011873092864807381 -0.49999999228328224 0.8660245943467056
vn -0.0013242716168914335 -0.25881900721247825 0.9659249286617628
vn -0.0013709870042917921 -8.92433049092166e-09 0.9999990601968753
vn -0.0013709870042917921 -8.92432126792208e-09 0.9999990601968753
vn -0.0013242719271844353 0.2588189899719698 0.9659249332809212
vn -0.0011873098859208357 0.4999999768258652 0.8660246032702357
vn -0.0009694346536042632 0.7071067587690049 0.7071061390623367
vn -0.0006854940469450941 0.8660253885126259 0.4999995565492705
vn -0.000354838092713798 0.9659258305460754 0.2588187859754438
vn 0.0 1.0 8.923507731750762e-09
vn 0.0 1.0 8.92350311579489e-09
vn 0.00035483693468452496 0.9659258351656551 -0.25881876873650683
vn 0.0006854930086844038 0.8660253974369699 -0.4999995410932628
vn 0.0009694338058678998 0.7071067713899332 -0.7071061264425594
vn 0.00118730928648071 0.49999999228328224 -0.8660245943467056
vn 0.0013242716168914614 0.25881900721247825 -0.9659249286617628
vn 0.0013709870042918483 8.924316954942277e-09 -0.9999990601968753
vn 0.0013709870042918483 8.924330802811645e-09 -0.9999990601968753
usemtl material_0_0
f 1//1 2//2 3//1
f 2//2 1//1 4//2
f 1//1 5//3 6//3
f 5//3 1//1 3//1
f 7//4 8//4 9//4
f 8//4 7//4 10//4
f 8//4 10//4 11//4
f 11//4 10//4 12//4
f 12//4 10//4 13//4
f 13//4 10//4 14//4
f 13//4 14//4 15//4
f 15//4 14//4 16//4
f 15//4 16//4 17//4
f 17//4 16//4 18//4
f 17//4 18//4 19//4
f 19//4 18//4 20//4
f 19//4 20//4 21//4
f 21//4 20//4 22//4
f 22//4 20//4 23//4
f 22//4 23//4 24//4
f 24//4 23//4 25//4
f 24//4 25//4 26//4
f 26//4 25//4 27//4
f 26//4 27//4 28//4
f 28//4 27//4 29//4
f 28//4 29//4 30//4
f 30//4 29//4 31//4
f 30//4 31//4 32//4
f 32//4 31//4 33//4
f 33//4 31//4 34//4
f 11//4 35//4 8//4
f 35//4 11//4 36//4
f 35//4 36//4 37//4
f 35//4 37//4 38//4
f 38//4 37//4 39//4
f 38//4 39//4 40//4
f 40//4 39//4 41//4
f 40//4 41//4 42//4
f 42//4 41//4 43//4
f 42//4 43//4 44//4
f 44//4 43//4 45//4
f 44//4 45//4 46//4
f 46//4 45//4 47//4
f 46//4 47//4 48//4
f 46//4 48//4 49//4
f 49//4 48//4 50//4
f 49//4 50//4 51//4
f 51//4 50//4 52//4
f 51//4 52//4 53//4
f 53//4 52//4 54//4
f 53//4 54//4 33//4
f 33//4 54//4 32//4
f 4//2 55//5 2//2
f 55//5 4//2 56//5
f 57//6 5//3 58//6
f 5//3 57//6 6//3
f 59//7 58//6 60//8
f 58//6 59//7 57//6
f 61//9 60//8 62//9
f 60//8 61//9 59//7
f 61//9 63//10 64//10
f 63//10 61//9 62//9
f 64//10 65//11 66//11
f 65//11 64//10 63//10
f 67//12 65//11 68//12
f 65//11 67//12 66//11
f 69//13 68//12 70//13
f 68//12 69//13 67//12
f 71//14 70//13 72//15
f 70//13 71//14 69//13
f 73//16 72//15 74//16
f 72//15 73//16 71//14
f 75//17 73//16 74//16
f 73//16 75//17 76//17
f 77//18 75//17 78//18
f 75//17 77//18 76//17
f 78//18 79//19 77//18
f 79//19 78//18 80//19
f 80//19 81//20 79//19
f 81//20 80//19 82//20
f 83//21 81//20 82//20
f 81//20 83//21 84//22
f 85//23 84//22 83//21
f 84//22 85//23 86//23
f 87//24 86//23 85//23
f 86//23 87//24 88//24
f 89//25 88//24 87//24
f 88//24 89//25 90//25
f 91//26 89//25 92//26
f 89//25 91//26 90//25
f 93//27 92//26 94//27
f 92//26 93//27 91//26
f 95//28 94//27 96//29
f 94//27 95//28 93//27
f 55//5 95//28 96//29
f 95//28 55//5 56//5
