# SSTK version 0.8.0
# 23
mtllib original-23.mtl
o group_15/ID371#ID371
v 0.292085 -0.879024 0.344745
v 0.327195 0.652934 0.388585
v 0.314816 -0.879024 0.328571
v 0.26492 -0.879024 0.351474
v 0.007641 -0.879024 0.359585
v 0.116824 -0.879024 0.359735
v 0.008263 -0.879024 -0.09435
v 0.292085 -0.879024 0.344745
v 0.314816 -0.879024 0.328571
v 0.329898 -0.879024 0.305241
v 0.335201 -0.879024 0.278052
v 0.33571 -0.879024 -0.093901
v 0.296673 0.652934 0.396232
v 0.352735 0.652934 0.370206
v 0.008263 -0.759286 -0.09435
v 0.33571 -0.879024 -0.093901
v 0.338875 -0.759281 -0.093896
v 0.008263 -0.879024 -0.09435
v 0.008263 -0.879024 -0.09435
v -0.101543 -0.879024 0.359435
v 0.007641 -0.879024 0.359585
v -0.249616 -0.879024 0.350769
v -0.276762 -0.879024 0.343965
v -0.299448 -0.879024 0.327729
v -0.314467 -0.879024 0.304358
v -0.319695 -0.879024 0.277155
v -0.319185 -0.879024 -0.094798
v 0.116824 -0.879024 0.359735
v 0.007578 0.652934 0.405454
v 0.130272 0.652934 0.405622
v 0.007641 -0.879024 0.359585
v 0.26492 -0.879024 0.351474
v 0.329898 -0.879024 0.305241
v 0.369682 0.652934 0.343694
v 0.335201 -0.879024 0.278052
v 0.37564 0.652934 0.312798
v 0.33571 -0.879024 -0.093901
v 0.338875 -0.759281 -0.093896
v 0.339579 -0.732842 -0.097376
v 0.340244 -0.708205 -0.10758
v 0.340825 -0.687049 -0.123813
v 0.341283 -0.670815 -0.144969
v 0.341587 -0.66061 -0.169606
v 0.341715 -0.657129 -0.196045
v 0.376433 0.652934 -0.265409
v 0.341769 -0.657129 -0.235787
v 0.297585 0.652934 0.402231
v 0.013479 0.652934 0.411503
v 0.130438 0.652934 0.411664
v 0.130272 0.652934 0.405622
v 0.007578 0.652934 0.405454
v 0.296673 0.652934 0.396232
v 0.329785 0.652934 0.394164
v 0.327195 0.652934 0.388585
v 0.357202 0.652934 0.374434
v 0.352735 0.652934 0.370206
v 0.375395 0.652934 0.345973
v 0.369682 0.652934 0.343694
v 0.38168 0.652934 0.313379
v 0.37564 0.652934 0.312798
v 0.382475 0.652934 -0.265974
v 0.376433 0.652934 -0.265409
v 0.37056 0.652934 -0.296322
v 0.376278 0.652934 -0.298586
v 0.353685 0.652934 -0.32288
v 0.358164 0.652934 -0.327096
v 0.328195 0.652934 -0.341329
v 0.330801 0.652934 -0.346901
v 0.297694 0.652934 -0.349016
v 0.298855 0.652934 -0.354998
v 0.13132 0.652934 -0.358862
v 0.298051 0.652934 -0.355046
v 0.131503 0.652934 -0.364902
v 0.008626 0.652934 -0.35903
v 0.008634 0.652934 -0.36507
v 0.014661 0.652934 -0.365062
v 0.007569 0.652934 0.411495
v 0.008268 -0.732842 -0.09783
v 0.339579 -0.732842 -0.097376
v -0.322349 -0.759281 -0.094803
v 0.008263 -0.879024 -0.09435
v -0.319185 -0.879024 -0.094798
v -0.359437 0.652934 -0.266418
v -0.324909 -0.657129 -0.196959
v -0.324855 -0.657129 -0.236701
v -0.360229 0.652934 0.311789
v -0.319185 -0.879024 -0.094798
v -0.319695 -0.879024 0.277155
v -0.322349 -0.759281 -0.094803
v -0.323043 -0.732842 -0.098284
v -0.32368 -0.708205 -0.10849
v -0.324217 -0.687049 -0.124725
v -0.324617 -0.670815 -0.145882
v -0.324853 -0.66061 -0.170519
v -0.354356 0.652934 0.342701
v -0.314467 -0.879024 0.304358
v -0.337481 0.652934 0.36926
v -0.299448 -0.879024 0.327729
v -0.311992 0.652934 0.387709
v -0.276762 -0.879024 0.343965
v -0.281491 0.652934 0.39544
v -0.249616 -0.879024 0.350769
v -0.115117 0.652934 0.405286
v -0.101543 -0.879024 0.359435
v 0.007641 -0.879024 0.359585
v 0.007578 0.652934 0.405454
v 0.336448 -0.657129 -0.263528
v 0.341769 -0.657129 -0.235787
v 0.008403 -0.657129 -0.196502
v 0.341715 -0.657129 -0.196045
v 0.008572 -0.657129 -0.319805
v 0.336448 -0.657129 -0.263528
v 0.321161 -0.657129 -0.287361
v 0.298068 -0.657129 -0.303917
v 0.270613 -0.657129 -0.310804
v 0.119712 -0.657129 -0.319652
v 0.008367 -0.66061 -0.170062
v 0.341587 -0.66061 -0.169606
v 0.008333 -0.670815 -0.145425
v 0.341283 -0.670815 -0.144969
v 0.340825 -0.687049 -0.123813
v 0.008304 -0.687049 -0.124269
v 0.340244 -0.708205 -0.10758
v 0.008282 -0.708205 -0.108035
v 0.008626 0.652934 -0.35903
v 0.119712 -0.657129 -0.319652
v 0.13132 0.652934 -0.358862
v 0.008572 -0.657129 -0.319805
v 0.270613 -0.657129 -0.310804
v 0.297694 0.652934 -0.349016
v 0.328195 0.652934 -0.341329
v 0.298068 -0.657129 -0.303917
v 0.353685 0.652934 -0.32288
v 0.321161 -0.657129 -0.287361
v 0.37056 0.652934 -0.296322
v 0.008634 0.652934 -0.36507
v -0.114068 0.652934 -0.359198
v 0.008626 0.652934 -0.35903
v 0.007578 0.652934 0.405454
v 0.00166 0.652934 0.411487
v 0.007569 0.652934 0.411495
v -0.115299 0.652934 0.411327
v -0.115117 0.652934 0.405286
v -0.282419 0.652934 0.401436
v -0.281491 0.652934 0.39544
v -0.314597 0.652934 0.39328
v -0.311992 0.652934 0.387709
v -0.34196 0.652934 0.373475
v -0.337481 0.652934 0.36926
v -0.360075 0.652934 0.344965
v -0.354356 0.652934 0.342701
v -0.366271 0.652934 0.312353
v -0.360229 0.652934 0.311789
v -0.365477 0.652934 -0.267
v -0.359437 0.652934 -0.266418
v -0.353479 0.652934 -0.297315
v -0.359191 0.652934 -0.299594
v -0.336531 0.652934 -0.323827
v -0.340999 0.652934 -0.328055
v -0.310991 0.652934 -0.342206
v -0.313581 0.652934 -0.347784
v -0.280469 0.652934 -0.349808
v -0.281613 0.652934 -0.355794
v -0.280809 0.652934 -0.355839
v -0.114234 0.652934 -0.365239
v 0.002607 0.652934 -0.365079
v 0.013479 0.652934 0.411503
v 0.130438 0.637923 0.411664
v 0.130438 0.652934 0.411664
v 0.013479 0.637923 0.411503
v 0.007569 0.652934 0.411495
v 0.007569 0.637923 0.411495
v 0.297585 0.652934 0.402231
v 0.297585 0.637923 0.402231
v 0.329785 0.637923 0.394164
v 0.329785 0.652934 0.394164
v 0.357202 0.637923 0.374434
v 0.357202 0.652934 0.374434
v 0.375395 0.637923 0.345973
v 0.375395 0.652934 0.345973
v 0.38168 0.637923 0.313379
v 0.38168 0.652934 0.313379
v 0.382475 0.652934 -0.265974
v 0.382475 0.637923 -0.265974
v 0.376278 0.637923 -0.298586
v 0.376278 0.652934 -0.298586
v 0.358164 0.637923 -0.327096
v 0.358164 0.652934 -0.327096
v 0.330801 0.652934 -0.346901
v 0.330801 0.637923 -0.346901
v 0.298855 0.637923 -0.354998
v 0.298855 0.652934 -0.354998
v 0.298051 0.652934 -0.355046
v 0.298051 0.637923 -0.355046
v 0.131503 0.652934 -0.364902
v 0.131503 0.637923 -0.364902
v 0.014661 0.637923 -0.365062
v 0.014661 0.652934 -0.365062
v 0.008634 0.637923 -0.36507
v 0.008634 0.652934 -0.36507
v -0.323043 -0.732842 -0.098284
v -0.32368 -0.708205 -0.10849
v -0.324217 -0.687049 -0.124725
v -0.324617 -0.670815 -0.145882
v -0.324853 -0.66061 -0.170519
v -0.324909 -0.657129 -0.196959
v 0.008572 -0.657129 -0.319805
v -0.324855 -0.657129 -0.236701
v -0.319457 -0.657129 -0.264427
v -0.304104 -0.657129 -0.288218
v -0.280967 -0.657129 -0.304711
v -0.253493 -0.657129 -0.311523
v -0.102568 -0.657129 -0.319957
v -0.319457 -0.657129 -0.264427
v -0.114068 0.652934 -0.359198
v 0.008572 -0.657129 -0.319805
v 0.008626 0.652934 -0.35903
v -0.102568 -0.657129 -0.319957
v 0.008634 0.637923 -0.36507
v 0.002607 0.652934 -0.365079
v 0.008634 0.652934 -0.36507
v 0.002607 0.637923 -0.365079
v -0.114234 0.652934 -0.365239
v -0.114234 0.637923 -0.365239
v -0.280809 0.652934 -0.355839
v -0.280809 0.637923 -0.355839
v -0.281613 0.652934 -0.355794
v -0.281613 0.637923 -0.355794
v -0.313581 0.637923 -0.347784
v -0.313581 0.652934 -0.347784
v -0.340999 0.652934 -0.328055
v -0.340999 0.637923 -0.328055
v -0.359191 0.652934 -0.299594
v -0.359191 0.637923 -0.299594
v -0.365477 0.652934 -0.267
v -0.365477 0.637923 -0.267
v -0.366271 0.637923 0.312353
v -0.366271 0.652934 0.312353
v -0.360075 0.652934 0.344965
v -0.360075 0.637923 0.344965
v -0.34196 0.652934 0.373475
v -0.34196 0.637923 0.373475
v -0.314597 0.637923 0.39328
v -0.314597 0.652934 0.39328
v -0.282419 0.652934 0.401436
v -0.282419 0.637923 0.401436
v -0.115299 0.637923 0.411327
v -0.115299 0.652934 0.411327
v 0.00166 0.652934 0.411487
v 0.007569 0.637923 0.411495
v 0.007569 0.652934 0.411495
v 0.00166 0.637923 0.411487
v -0.353479 0.652934 -0.297315
v -0.336531 0.652934 -0.323827
v -0.304104 -0.657129 -0.288218
v -0.280967 -0.657129 -0.304711
v -0.310991 0.652934 -0.342206
v -0.253493 -0.657129 -0.311523
v -0.280469 0.652934 -0.349808
v 0.486269 0.637923 0.455513
v 0.130438 0.637923 0.411664
v 0.013479 0.637923 0.411503
v 0.297585 0.637923 0.402231
v 0.329785 0.637923 0.394164
v 0.357202 0.637923 0.374434
v 0.375395 0.637923 0.345973
v 0.38168 0.637923 0.313379
v 0.487352 0.637923 -0.33413
v 0.382475 0.637923 -0.265974
v 0.376278 0.637923 -0.298586
v 0.358164 0.637923 -0.327096
v 0.330801 0.637923 -0.346901
v 0.481486 0.637923 -0.371495
v 0.298855 0.637923 -0.354998
v 0.298051 0.637923 -0.355046
v 0.131503 0.637923 -0.364902
v 0.014661 0.637923 -0.365062
v 0.008758 0.637923 -0.455678
v 0.008634 0.637923 -0.36507
v 0.464361 0.637923 -0.40522
v 0.437652 0.637923 -0.432002
v 0.403975 0.637923 -0.449219
v 0.366626 0.637923 -0.455187
v 0.457044 0.637923 0.499122
v 0.007445 0.637923 0.502102
v 0.438959 0.637923 0.502694
v 0.007569 0.637923 0.411495
v 0.472385 0.637923 0.488902
v 0.482648 0.637923 0.473588
v 0.007445 0.637923 0.502102
v -0.442144 0.637923 0.49789
v -0.424069 0.637923 0.501511
v 0.007569 0.637923 0.411495
v -0.457457 0.637923 0.487627
v -0.467678 0.637923 0.472286
v -0.471249 0.637923 0.454201
v -0.115299 0.637923 0.411327
v 0.00166 0.637923 0.411487
v 0.008758 0.637923 -0.455678
v 0.002607 0.637923 -0.365079
v 0.008634 0.637923 -0.36507
v -0.114234 0.637923 -0.365239
v -0.464198 0.637923 -0.372792
v -0.446981 0.637923 -0.406469
v -0.420199 0.637923 -0.433178
v -0.386475 0.637923 -0.450303
v -0.349109 0.637923 -0.456169
v -0.366271 0.637923 0.312353
v -0.470167 0.637923 -0.335442
v -0.360075 0.637923 0.344965
v -0.34196 0.637923 0.373475
v -0.314597 0.637923 0.39328
v -0.282419 0.637923 0.401436
v -0.365477 0.637923 -0.267
v -0.359191 0.637923 -0.299594
v -0.340999 0.637923 -0.328055
v -0.313581 0.637923 -0.347784
v -0.281613 0.637923 -0.355794
v -0.280809 0.637923 -0.355839
v 0.007445 0.637923 0.502102
v 0.438959 0.536246 0.502694
v 0.438959 0.637923 0.502694
v 0.007445 0.536246 0.502102
v 0.457044 0.536246 0.499122
v 0.457044 0.637923 0.499122
v 0.472385 0.536246 0.488902
v 0.472385 0.637923 0.488902
v 0.482648 0.637923 0.473588
v 0.482648 0.536246 0.473588
v 0.486269 0.637923 0.455513
v 0.486269 0.536246 0.455513
v 0.487352 0.637923 -0.33413
v 0.486448 0.580449 0.324925
v 0.487352 0.580449 -0.33413
v 0.486272 0.536246 0.453279
v 0.481486 0.580449 -0.371495
v 0.481486 0.637923 -0.371495
v 0.464361 0.580449 -0.40522
v 0.464361 0.637923 -0.40522
v 0.437652 0.637923 -0.432002
v 0.437652 0.580449 -0.432002
v 0.403975 0.637923 -0.449219
v 0.403975 0.580449 -0.449219
v 0.366626 0.637923 -0.455187
v 0.366626 0.580449 -0.455187
v 0.008758 0.637923 -0.455678
v 0.008758 0.580449 -0.455678
v 0.008758 0.580449 -0.455678
v -0.349109 0.637923 -0.456169
v 0.008758 0.637923 -0.455678
v -0.349109 0.580449 -0.456169
v -0.386475 0.637923 -0.450303
v -0.386475 0.580449 -0.450303
v -0.420199 0.637923 -0.433178
v -0.420199 0.580449 -0.433178
v -0.446981 0.580449 -0.406469
v -0.446981 0.637923 -0.406469
v -0.464198 0.637923 -0.372792
v -0.464198 0.580449 -0.372792
v -0.470167 0.637923 -0.335442
v -0.470167 0.580449 -0.335442
v -0.471249 0.637923 0.454201
v -0.471246 0.536246 0.451966
v -0.471249 0.536246 0.454201
v -0.47107 0.580449 0.323613
v -0.467678 0.536246 0.472286
v -0.467678 0.637923 0.472286
v -0.457457 0.536246 0.487627
v -0.457457 0.637923 0.487627
v -0.442144 0.637923 0.49789
v -0.442144 0.536246 0.49789
v -0.424069 0.637923 0.501511
v -0.424069 0.536246 0.501511
v 0.007445 0.637923 0.502102
v 0.007445 0.536246 0.502102
v 0.007457 0.536246 0.49367
v 0.438959 0.536246 0.502694
v 0.007445 0.536246 0.502102
v 0.457044 0.536246 0.499122
v 0.43814 0.536246 0.494261
v 0.472385 0.536246 0.488902
v 0.453765 0.536246 0.491175
v 0.466315 0.536246 0.482814
v 0.482648 0.536246 0.473588
v 0.47471 0.536246 0.470287
v 0.486269 0.536246 0.455513
v 0.477838 0.536246 0.454671
v 0.486272 0.536246 0.453279
v 0.47784 0.536246 0.453267
v 0.478016 0.580449 0.324914
v 0.486448 0.580449 0.324925
v 0.487352 0.580449 -0.33413
v 0.478919 0.580449 -0.333478
v 0.47892 0.580449 -0.334141
v 0.473363 0.580449 -0.368869
v 0.47892 0.580449 -0.334141
v 0.478919 0.580449 -0.333478
v 0.008758 0.580449 -0.455678
v 0.365951 0.580449 -0.446756
v 0.008747 0.580449 -0.447246
v 0.403975 0.580449 -0.449219
v 0.366626 0.580449 -0.455187
v 0.481486 0.580449 -0.371495
v 0.487352 0.580449 -0.33413
v 0.457447 0.580449 -0.400211
v 0.464361 0.580449 -0.40522
v 0.432625 0.580449 -0.425102
v 0.437652 0.580449 -0.432002
v 0.401326 0.580449 -0.441104
v -0.464198 0.580449 -0.372792
v -0.461734 0.580449 -0.335431
v -0.470167 0.580449 -0.335442
v -0.456083 0.580449 -0.370143
v -0.440081 0.580449 -0.401442
v -0.446981 0.580449 -0.406469
v -0.415191 0.580449 -0.426264
v -0.420199 0.580449 -0.433178
v -0.383848 0.580449 -0.44218
v -0.386475 0.580449 -0.450303
v -0.348457 0.580449 -0.447736
v 0.008747 0.580449 -0.447246
v 0.008758 0.580449 -0.455678
v -0.349109 0.580449 -0.456169
v -0.461735 0.580449 -0.334768
v -0.470167 0.580449 -0.335442
v -0.462638 0.580449 0.323624
v -0.47107 0.580449 0.323613
v -0.461735 0.580449 -0.334768
v -0.461734 0.580449 -0.335431
v -0.471246 0.536246 0.451966
v -0.462814 0.536246 0.451978
v -0.457457 0.536246 0.487627
v -0.423227 0.536246 0.49308
v -0.442144 0.536246 0.49789
v -0.438843 0.536246 0.489951
v -0.451369 0.536246 0.481556
v -0.467678 0.536246 0.472286
v -0.45973 0.536246 0.469006
v -0.471249 0.536246 0.454201
v -0.462816 0.536246 0.453382
v -0.424069 0.536246 0.501511
v 0.007457 0.536246 0.49367
v 0.007445 0.536246 0.502102
v 0.43814 0.536246 0.494261
v 0.007457 0.625492 0.49367
v 0.43814 0.625492 0.494261
v 0.007457 0.536246 0.49367
v 0.453765 0.536246 0.491175
v 0.453765 0.625492 0.491175
v 0.466315 0.536246 0.482814
v 0.466315 0.625492 0.482814
v 0.47471 0.536246 0.470287
v 0.47471 0.625492 0.470287
v 0.477838 0.625492 0.454671
v 0.477838 0.536246 0.454671
v 0.47784 0.536246 0.453267
v 0.478016 0.580449 0.324914
v 0.478919 0.625492 -0.333478
v 0.478919 0.580449 -0.333478
v 0.008747 0.625492 -0.447246
v 0.365951 0.580449 -0.446756
v 0.365951 0.625492 -0.446756
v 0.008747 0.580449 -0.447246
v 0.473363 0.625492 -0.368869
v 0.473363 0.580449 -0.368869
v 0.457447 0.580449 -0.400211
v 0.457447 0.625492 -0.400211
v 0.432625 0.625492 -0.425102
v 0.432625 0.580449 -0.425102
v 0.401326 0.625492 -0.441104
v 0.401326 0.580449 -0.441104
v -0.348457 0.625492 -0.447736
v 0.008747 0.580449 -0.447246
v 0.008747 0.625492 -0.447246
v -0.348457 0.580449 -0.447736
v -0.383848 0.625492 -0.44218
v -0.383848 0.580449 -0.44218
v -0.415191 0.625492 -0.426264
v -0.415191 0.580449 -0.426264
v -0.440081 0.580449 -0.401442
v -0.440081 0.625492 -0.401442
v -0.456083 0.625492 -0.370143
v -0.456083 0.580449 -0.370143
v -0.461735 0.580449 -0.334768
v -0.461735 0.625492 -0.334768
v -0.462638 0.580449 0.323624
v -0.462816 0.625492 0.453382
v -0.462814 0.536246 0.451978
v -0.462816 0.536246 0.453382
v -0.45973 0.536246 0.469006
v -0.45973 0.625492 0.469006
v -0.451369 0.625492 0.481556
v -0.451369 0.536246 0.481556
v -0.438843 0.536246 0.489951
v -0.438843 0.625492 0.489951
v -0.423227 0.536246 0.49308
v -0.423227 0.625492 0.49308
v 0.007457 0.625492 0.49367
v 0.007457 0.536246 0.49367
v 0.019828 0.625492 0.417869
v 0.130613 0.625492 0.418021
v 0.007561 0.625492 0.417852
v 0.008643 0.625492 -0.371428
v 0.131695 0.625492 -0.371259
v 0.021028 0.625492 -0.371411
v 0.008747 0.625492 -0.447246
v 0.457447 0.625492 -0.400211
v 0.432625 0.625492 -0.425102
v 0.401326 0.625492 -0.441104
v 0.365951 0.625492 -0.446756
v 0.43814 0.625492 0.494261
v 0.007457 0.625492 0.49367
v 0.453765 0.625492 0.491175
v 0.466315 0.625492 0.482814
v 0.47471 0.625492 0.470287
v 0.477838 0.625492 0.454671
v 0.298545 0.625492 0.408545
v 0.33251 0.625492 0.400035
v 0.361903 0.625492 0.378883
v 0.381407 0.625492 0.348372
v 0.388037 0.625492 0.313991
v 0.478919 0.625492 -0.333478
v 0.388833 0.625492 -0.266569
v 0.382297 0.625492 -0.300968
v 0.362877 0.625492 -0.331532
v 0.333542 0.625492 -0.352764
v 0.473363 0.625492 -0.368869
v 0.299833 0.625492 -0.361309
v -0.462816 0.625492 0.453382
v -0.283397 0.625492 0.407747
v -0.115492 0.625492 0.417684
v -0.317339 0.625492 0.399144
v -0.346673 0.625492 0.377912
v -0.366093 0.625492 0.347347
v -0.372629 0.625492 0.312948
v -0.461735 0.625492 -0.334768
v -0.371833 0.625492 -0.267611
v -0.365203 0.625492 -0.301993
v -0.345699 0.625492 -0.332504
v -0.316307 0.625492 -0.353655
v -0.456083 0.625492 -0.370143
v -0.282574 0.625492 -0.362107
v -0.11441 0.625492 -0.371597
v -0.440081 0.625492 -0.401442
v 0.008643 0.625492 -0.371428
v 0.008747 0.625492 -0.447246
v -0.415191 0.625492 -0.426264
v -0.383848 0.625492 -0.44218
v -0.348457 0.625492 -0.447736
v -0.003743 0.625492 -0.371445
v -0.438843 0.625492 0.489951
v 0.007457 0.625492 0.49367
v -0.423227 0.625492 0.49308
v 0.007561 0.625492 0.417852
v -0.451369 0.625492 0.481556
v -0.45973 0.625492 0.469006
v -0.004706 0.625492 0.417836
v 0.127732 0.187591 -0.357481
v 0.021028 0.625492 -0.371411
v 0.131695 0.625492 -0.371259
v 0.008624 0.187591 -0.357644
v 0.008643 0.625492 -0.371428
v 0.019828 0.625492 0.417869
v 0.117057 -0.886881 0.370398
v 0.130613 0.625492 0.418021
v 0.007626 -0.886881 0.370248
v 0.007561 0.625492 0.417852
v 0.26642 -0.886881 0.362067
v 0.298545 0.625492 0.408545
v 0.29663 -0.886881 0.354584
v 0.33251 0.625492 0.400035
v 0.322772 -0.886881 0.335985
v 0.361903 0.625492 0.378883
v 0.381407 0.625492 0.348372
v 0.340119 -0.886881 0.309154
v 0.346015 -0.886881 0.27892
v 0.388037 0.625492 0.313991
v 0.376395 0.183702 -0.158024
v 0.388833 0.625492 -0.266569
v 0.382297 0.625492 -0.300968
v 0.376638 0.187591 -0.256446
v 0.362877 0.625492 -0.331532
v 0.370311 0.187591 -0.289644
v 0.333542 0.625492 -0.352764
v 0.351513 0.187591 -0.319141
v 0.299833 0.625492 -0.361309
v 0.323117 0.187591 -0.339632
v 0.290487 0.187591 -0.347878
v 0.008624 0.187591 -0.357644
v -0.003743 0.625492 -0.371445
v 0.008643 0.625492 -0.371428
v -0.110485 0.187591 -0.357808
v -0.11441 0.625492 -0.371597
v -0.282574 0.625492 -0.362107
v -0.273265 0.187591 -0.34865
v -0.316307 0.625492 -0.353655
v -0.305917 0.187591 -0.340494
v -0.345699 0.625492 -0.332504
v -0.334369 0.187591 -0.320081
v -0.353248 0.187591 -0.290636
v -0.365203 0.625492 -0.301993
v -0.359666 0.187591 -0.257455
v -0.371833 0.625492 -0.267611
v -0.372629 0.625492 0.312948
v -0.359693 0.183702 -0.159033
v -0.366093 0.625492 0.347347
v -0.330512 -0.886881 0.277993
v -0.324698 -0.886881 0.308243
v -0.346673 0.625492 0.377912
v -0.307425 -0.886881 0.335121
v -0.317339 0.625492 0.399144
v -0.281333 -0.886881 0.353792
v -0.283397 0.625492 0.407747
v -0.251145 -0.886881 0.361358
v -0.115492 0.625492 0.417684
v -0.004706 0.625492 0.417836
v 0.007626 -0.886881 0.370248
v 0.007561 0.625492 0.417852
v -0.101805 -0.886881 0.370098
v 0.008624 0.187591 -0.357644
v 0.127724 0.187591 -0.351497
v 0.008616 0.187591 -0.35166
v 0.290487 0.187591 -0.347878
v 0.290479 0.187591 -0.341894
v 0.127732 0.187591 -0.357481
v 0.008276 -0.886881 -0.103617
v 0.117057 -0.886881 0.370398
v 0.007626 -0.886881 0.370248
v 0.26642 -0.886881 0.362067
v 0.29663 -0.886881 0.354584
v 0.322772 -0.886881 0.335985
v 0.340119 -0.886881 0.309154
v 0.346015 -0.886881 0.27892
v 0.346539 -0.886881 -0.103154
v 0.374217 0.108124 -0.103116
v 0.37605 0.172414 -0.135871
v 0.376395 0.183702 -0.158024
v 0.376395 0.183702 -0.158024
v 0.376536 0.187591 -0.18258
v 0.376536 0.187591 -0.18258
v -0.273265 0.187591 -0.34865
v -0.110493 0.187591 -0.351824
v -0.273273 0.187591 -0.342666
v -0.110485 0.187591 -0.357808
v 0.008624 0.187591 -0.357644
v 0.008616 0.187591 -0.35166
v -0.359767 0.187591 -0.18359
v -0.359767 0.187591 -0.18359
v -0.359693 0.183702 -0.159033
v -0.359693 0.183702 -0.159033
v -0.359409 0.172414 -0.136879
v -0.357666 0.108124 -0.104119
v -0.101805 -0.886881 0.370098
v 0.008276 -0.886881 -0.103617
v 0.007626 -0.886881 0.370248
v -0.251145 -0.886881 0.361358
v -0.281333 -0.886881 0.353792
v -0.307425 -0.886881 0.335121
v -0.324698 -0.886881 0.308243
v -0.330512 -0.886881 0.277993
v -0.329988 -0.886881 -0.104081
v 0.290479 0.187591 -0.341894
v 0.323117 0.187591 -0.339632
v 0.320412 0.187591 -0.334544
v 0.290487 0.187591 -0.347878
v 0.127724 0.187591 -0.351497
v 0.290479 0.187591 -0.341894
v 0.272252 -0.666397 -0.3157
v 0.119996 -0.666397 -0.324627
v 0.008616 0.187591 -0.35166
v 0.008579 -0.666397 -0.32478
v 0.008276 -0.886881 -0.103617
v 0.344088 -0.759889 -0.103157
v 0.346539 -0.886881 -0.103154
v 0.008276 -0.759889 -0.103617
v 0.374217 0.108124 -0.103116
v 0.346539 -0.886881 -0.103154
v 0.374217 0.108124 -0.103116
v 0.374905 0.13268 -0.107004
v 0.370411 0.183702 -0.158032
v 0.37605 0.172414 -0.135871
v 0.370066 0.172414 -0.135879
v 0.376395 0.183702 -0.158024
v 0.375537 0.154834 -0.118291
v 0.37605 0.172414 -0.135871
v 0.370553 0.187591 -0.182589
v 0.376536 0.187591 -0.18258
v 0.370654 0.187591 -0.256454
v 0.370311 0.187591 -0.289644
v 0.376638 0.187591 -0.256446
v 0.364715 0.187591 -0.287618
v 0.370654 0.187591 -0.256454
v 0.376638 0.187591 -0.256446
v 0.347068 0.187591 -0.315308
v 0.370311 0.187591 -0.289644
v 0.364715 0.187591 -0.287618
v 0.351513 0.187591 -0.319141
v 0.320412 0.187591 -0.334544
v 0.351513 0.187591 -0.319141
v 0.347068 0.187591 -0.315308
v 0.323117 0.187591 -0.339632
v -0.102838 -0.666397 -0.324932
v 0.008616 0.187591 -0.35166
v 0.008579 -0.666397 -0.32478
v -0.110493 0.187591 -0.351824
v -0.273273 0.187591 -0.342666
v -0.255119 -0.666397 -0.316423
v -0.305917 0.187591 -0.340494
v -0.273273 0.187591 -0.342666
v -0.303226 0.187591 -0.335399
v -0.273265 0.187591 -0.34865
v -0.334369 0.187591 -0.320081
v -0.303226 0.187591 -0.335399
v -0.329935 0.187591 -0.316236
v -0.305917 0.187591 -0.340494
v -0.353248 0.187591 -0.290636
v -0.329935 0.187591 -0.316236
v -0.347658 0.187591 -0.288595
v -0.334369 0.187591 -0.320081
v -0.359666 0.187591 -0.257455
v -0.347658 0.187591 -0.288595
v -0.353682 0.187591 -0.257447
v -0.353248 0.187591 -0.290636
v -0.359666 0.187591 -0.257455
v -0.353783 0.187591 -0.183582
v -0.359767 0.187591 -0.18359
v -0.353682 0.187591 -0.257447
v -0.353709 0.183702 -0.159025
v -0.359693 0.183702 -0.159033
v -0.353425 0.172414 -0.136871
v -0.359409 0.172414 -0.136879
v -0.359409 0.172414 -0.136879
v -0.358944 0.154834 -0.119298
v -0.358344 0.13268 -0.108009
v -0.357666 0.108124 -0.104119
v -0.357666 0.108124 -0.104119
v -0.329988 -0.886881 -0.104081
v 0.008276 -0.886881 -0.103617
v -0.327536 -0.759889 -0.104078
v -0.329988 -0.886881 -0.104081
v 0.320412 0.187591 -0.334544
v 0.300307 -0.666397 -0.308616
v 0.008579 -0.666397 -0.32478
v 0.346816 -0.666397 -0.196645
v 0.008404 -0.666397 -0.197109
v 0.346871 -0.666397 -0.236713
v 0.341367 -0.666397 -0.265408
v 0.325012 -0.666397 -0.290904
v 0.300307 -0.666397 -0.308616
v 0.272252 -0.666397 -0.3157
v 0.119996 -0.666397 -0.324627
v 0.00828 -0.735262 -0.106859
v 0.344777 -0.735262 -0.106398
v 0.346539 -0.886881 -0.103154
v 0.368233 0.108124 -0.103124
v 0.374217 0.108124 -0.103116
v 0.368921 0.13268 -0.107012
v 0.374905 0.13268 -0.107004
v 0.374905 0.13268 -0.107004
v 0.375537 0.154834 -0.118291
v 0.375537 0.154834 -0.118291
v 0.369553 0.154834 -0.118299
v 0.370411 0.183702 -0.158032
v 0.370066 0.172414 -0.135879
v 0.369553 0.154834 -0.118299
v 0.370553 0.187591 -0.182589
v 0.370411 0.183702 -0.158032
v 0.368921 0.13268 -0.107012
v 0.364715 0.187591 -0.287618
v 0.370654 0.187591 -0.256454
v 0.346871 -0.666397 -0.236713
v 0.370553 0.187591 -0.182589
v 0.368921 0.13268 -0.107012
v 0.341367 -0.666397 -0.265408
v 0.347068 0.187591 -0.315308
v 0.325012 -0.666397 -0.290904
v -0.329954 -0.666397 -0.237641
v -0.330009 -0.666397 -0.197573
v 0.008579 -0.666397 -0.32478
v -0.324371 -0.666397 -0.266321
v -0.307946 -0.666397 -0.291772
v -0.283192 -0.666397 -0.309416
v -0.255119 -0.666397 -0.316423
v -0.102838 -0.666397 -0.324932
v -0.283192 -0.666397 -0.309416
v -0.303226 0.187591 -0.335399
v -0.329935 0.187591 -0.316236
v -0.307946 -0.666397 -0.291772
v -0.347658 0.187591 -0.288595
v -0.324371 -0.666397 -0.266321
v -0.329954 -0.666397 -0.237641
v -0.353682 0.187591 -0.257447
v -0.353783 0.187591 -0.183582
v -0.35236 0.13268 -0.108001
v -0.353783 0.187591 -0.183582
v -0.35236 0.13268 -0.108001
v -0.353709 0.183702 -0.159025
v -0.353709 0.183702 -0.159025
v -0.35296 0.154834 -0.119289
v -0.353425 0.172414 -0.136871
v -0.358944 0.154834 -0.119298
v -0.35296 0.154834 -0.119289
v -0.358944 0.154834 -0.119298
v -0.358344 0.13268 -0.108009
v -0.357666 0.108124 -0.104119
v -0.35236 0.13268 -0.108001
v -0.351682 0.108124 -0.104111
v -0.358344 0.13268 -0.108009
v -0.329988 -0.886881 -0.104081
v -0.328217 -0.735262 -0.107321
v 0.346816 -0.666397 -0.196645
v 0.346692 -0.669639 -0.172018
v 0.00837 -0.669639 -0.172482
v 0.008293 -0.712879 -0.116131
v 0.345412 -0.712879 -0.115668
v 0.368233 0.108124 -0.103124
v 0.344088 -0.759889 -0.103157
v 0.344777 -0.735262 -0.106398
v 0.368921 0.13268 -0.107012
v 0.370411 0.183702 -0.158032
v 0.369553 0.154834 -0.118299
v 0.368921 0.13268 -0.107012
v -0.329952 -0.669639 -0.172946
v -0.330009 -0.666397 -0.197573
v -0.351682 0.108124 -0.104111
v -0.35236 0.13268 -0.108001
v -0.353709 0.183702 -0.159025
v -0.35236 0.13268 -0.108001
v -0.35296 0.154834 -0.119289
v -0.328217 -0.735262 -0.107321
v -0.327536 -0.759889 -0.104078
v -0.328827 -0.712879 -0.116593
v 0.346692 -0.669639 -0.172018
v 0.346816 -0.666397 -0.196645
v 0.346404 -0.67891 -0.149636
v 0.008339 -0.67891 -0.150099
v 0.008313 -0.693659 -0.130879
v 0.346635 -0.693659 -0.130415
v 0.344777 -0.735262 -0.106398
v 0.345412 -0.712879 -0.115668
v 0.346404 -0.67891 -0.149636
v -0.329725 -0.67891 -0.150563
v -0.330009 -0.666397 -0.197573
v -0.329952 -0.669639 -0.172946
v -0.329725 -0.67891 -0.150563
v -0.328827 -0.712879 -0.116593
v -0.328217 -0.735262 -0.107321
v -0.330009 -0.693659 -0.131343
v 0.346692 -0.669639 -0.172018
v 0.346635 -0.693659 -0.130415
v -0.329952 -0.669639 -0.172946
v -0.330009 -0.693659 -0.131343
vn -0.4162270622225819 0.03556738637081002 -0.9085647988450293
vn -0.42172545100181136 0.03554386666621915 -0.9060266428310664
vn -0.7224161530152761 0.036702024988329925 -0.6904837892553056
vn 0.0 1.0 8.923529713620166e-09
vn -0.15122423667059667 0.0319753783737815 -0.9879821888178192
vn -0.7255531549748496 0.03658838430433345 -0.6871927745836975
vn -0.001368052249633873 0.06539650528355404 0.9978584195815259
vn -0.0013709870043044521 -8.924326434701852e-09 0.9999990601968753
vn -0.0013684462159581012 0.06649311694418765 0.9977859453580216
vn 0.0 1.0 8.923530776606974e-09
vn -0.027015502116515808 0.030166136630531082 -0.9991797470156111
vn 0.0013703728592611875 0.029928086202567223 -0.9995511151184207
vn -0.027609473844496215 0.030141316584665543 -0.999164259763415
vn -0.1477208037737421 0.03197591773102478 -0.9885120660961596
vn -0.9275604588242214 0.033482252226753356 -0.3721700337367639
vn -0.9276729749646737 0.03340689009102763 -0.37189626405039056
vn -0.9950161376807011 0.02845440967362986 -0.09556794611743544
vn -0.9948825865031111 0.02846107793547741 -0.09694640847205493
vn -0.99965001156806 0.026419236915126543 -0.0013705082269371263
vn -0.9951429608791639 0.028480668329412838 0.09423024431763453
vn -0.9952893870576194 0.028430606711188328 0.0926862266601779
vn 0.0 1.0 8.923530864365402e-09
vn -0.001324274062200029 0.25881317849379876 0.9659264904412475
vn -0.0013239985296632241 0.2608624717942005 0.9653750658875097
vn -0.0013674595638020087 0.06649311694418822 0.9977859467107101
vn -0.0013709870042538817 -8.924326312201828e-09 0.9999990601968756
vn 0.9948808432556995 0.028480669497967525 0.09695854365539992
vn 0.9996500115363864 0.026419238089128286 0.001370508698462148
vn 0.9950315025360736 0.028430607879917462 0.09541493329862928
vn 0.9951446707788232 0.02846107910403412 -0.09421810440006533
vn 0.9952744417499783 0.0284544108423412 -0.09283928103386271
vn 0.9286892165388078 0.03340689118109536 -0.36935121321873304
vn 0.9285774514898976 0.033482253316689393 -0.36962529039199127
vn 0.7274346903806307 0.03658838515753719 -0.6852007452582051
vn 0.7243067240817859 0.036702025837854826 -0.68850034912795
vn 0.4242081647762004 0.03554386716295677 -0.90486687774739
vn 0.4187167562178249 0.03556738686109436 -0.9074201006448424
vn 0.15393268708600696 0.03197537855297159 -0.9875638222478968
vn 0.15043072026765378 0.03197591790610126 -0.9881033038472329
vn 0.030349049875083193 0.030141316618699156 -0.9990847993059304
vn 0.029755122845541614 0.030166136663867162 -0.9991019151534161
vn 0.0013703728593012113 0.02992808620256723 -0.9995511151184208
vn -0.9287877949919087 0.033402114114649765 0.3691036854960132
vn 0.0 1.0 8.923537916971173e-09
vn -8.966744557279312e-05 0.9978589223108163 0.06540308191855496
vn -8.956887248901185e-05 0.9978636322430989 0.06533118263147143
vn -0.0003548380927181793 0.9659258305460754 0.2588187859754438
vn -0.0003540837612291097 0.9660730910897406 0.2582685758992057
vn -0.0006854940469488524 0.8660253885126259 0.4999995565492705
vn -0.0006841875061938558 0.8665749006543113 0.4990465644039914
vn -0.000967925944768459 0.7082055038670827 0.7060056851129012
vn -0.0009694346536072936 0.7071067587690049 0.7071061390623367
vn -0.001186002795886197 0.5016476801686557 0.8650712100045719
vn -0.0011873098859218436 0.4999999768258652 0.8660246032702357
vn -0.001370372895136086 0.02992806836187492 0.9995511156525488
vn -0.029806541533869052 0.030166529564767473 0.9991003706213943
vn -0.030349049609346777 0.030141628451752604 0.999084789906285
vn -0.1505985883215075 0.03195261049439703 0.988078486699393
vn -0.15324772801334358 0.03197572980227899 0.9876703329362283
vn -0.4236053284534828 0.03560198883356176 0.9051469627065607
vn -0.4192163279394576 0.03549417877193516 0.9071922804247526
vn -0.7274308838935903 0.0366863818063098 0.6851995465174736
vn -0.7248906039414602 0.03659540341204798 0.6878912623129434
vn -0.9286805371654941 0.03347438343622897 0.36936692535143645
vn 0.0 1.0 8.923530934233883e-09
vn -0.0013709870043123902 -8.9243693913799e-09 0.9999990601968753
vn 0.02749601652270758 -8.903687052001451e-09 0.9996219130628254
vn 0.15036344327261023 -8.73194289244514e-09 0.9886307879725397
vn 0.4210782606360713 -7.841447598711414e-09 0.9070243097181578
vn 0.7262820834500839 -5.6986431750661805e-09 0.6873967815311658
vn 0.9288000221430736 -2.7501334021308414e-09 0.37058132557783613
vn 0.9954015795949486 0.0 0.09578984987920948
vn 0.9956604907024608 1.4272640317604038e-09 -0.0930601270906905
vn 0.9298126539959067 3.841522636398791e-09 -0.3680331893580903
vn 0.7281641755398609 6.5527033077994154e-09 -0.6854027527376546
vn 0.42356371245923113 8.33742675998672e-09 -0.9058663154614778
vn 0.1530736754018293 8.91013528438365e-09 -0.9882147792352508
vn 0.0590775153344319 8.94338217513758e-09 -0.9982533982821747
vn 0.030236847887475403 8.937616685027221e-09 -0.9995427619816121
vn 0.0013709870042889645 8.924402173388392e-09 -0.9999990601968753
vn -0.001323037605794691 0.26086247179420113 0.9653750672049249
vn -0.0011860027958814053 0.5016476801686557 0.8650712100045719
vn -0.0009679259447737345 0.7082055038670827 0.7060056851129012
vn -0.0006841875062006896 0.8665749006543111 0.4990465644039913
vn -0.0003540837612340413 0.9660730910897406 0.2582685758992057
vn -8.95688725004075e-05 0.9978636322430989 0.06533118263147142
vn 0.0 1.0 8.923533688291875e-09
vn 0.9277722316826806 0.03340211520483367 0.3716490075573741
vn 0.027609473533737442 0.030141628485786224 0.9991642503629795
vn -0.0013703728951516847 0.02992806836187492 0.9995511156525488
vn 0.027066924775756923 0.030166529598163933 0.999178343477873
vn 0.001370987004321272 8.924487078264543e-09 -0.9999990601968753
vn -0.02749601652270758 8.903692817841055e-09 -0.9996219130628254
vn -0.056340110949946384 8.875477800900347e-09 -0.9984116344965877
vn -0.15036344327261023 8.731708941752864e-09 -0.9886307879725397
vn -0.4210782606360713 7.841463615380114e-09 -0.9070243097181578
vn -0.7262820834500839 5.698845686960649e-09 -0.6873967815311658
vn -0.9288000221430736 2.7503415755240246e-09 -0.37058132557783613
vn -0.9954015795949486 0.0 -0.09578984987920948
vn -0.9956604907024608 -1.425451532896121e-09 0.0930601270906905
vn -0.9298126539959067 -3.840819408722087e-09 0.3680331893580903
vn -0.7281641755398609 -6.551624112829307e-09 0.6854027527376546
vn -0.42356371245923113 -8.336419356072063e-09 0.9058663154614778
vn -0.1530736754018293 -8.909417640887251e-09 0.9882147792352508
vn -0.030236847887475403 -8.936868800278552e-09 0.9995427619816121
vn -0.0013709870043155544 -8.924018703785877e-09 0.9999990601968753
vn 0.9276642524632226 0.03347438452628649 0.3719119523253274
vn 0.7255493517029769 0.036686382659509076 0.6871915654100758
vn 0.7230017006925877 0.03659540426225958 0.6898763057117615
vn 0.4167272566592989 0.035494179262806576 0.908338349292638
vn 0.4211218488767716 0.03560198932959095 0.9063050737772491
vn 0.14788873916937642 0.0319526106696707 0.9884877093309177
vn 0.15053898804846935 0.03197572998066449 0.9880868209674424
vn 0.0 1.0 8.923532404305117e-09
vn 0.0 1.0 8.923532546462448e-09
vn -0.0013709870042902413 -8.92430896981264e-09 0.9999990601968753
vn 0.0966526651612627 -8.823796890359786e-09 0.9953181713990881
vn 0.38141642974539736 -8.020304673414153e-09 0.9244033249184439
vn 0.7061366824377315 -5.8952467683905015e-09 0.7080755508530389
vn 0.9233540169376134 -2.872690904644834e-09 0.38394968342892727
vn 0.9950494109416699 0.0 0.09938143581492359
vn 0.9970239626953414 1.2855937985673774e-09 -0.07709226816794469
vn 0.9999990601968755 0.0 0.0013709870042942591
vn 0.9514792775769952 3.316241063401806e-09 -0.3077128277169463
vn 0.8098220592967482 5.720657395879607e-09 -0.5866755766830372
vn 0.58889388019724 7.565096533903886e-09 -0.8082103673340492
vn 0.31032059995652306 8.669011854057066e-09 -0.9506319609831261
vn 0.0798257895842626 8.942937400435095e-09 -0.9968088298752418
vn 0.001370987004288354 8.924409101278076e-09 -0.9999990601968753
vn 0.0013709870042929058 8.92434123273917e-09 -0.9999990601968753
vn -0.07709226816794477 8.850768158564832e-09 -0.9970239626953414
vn -0.3077128277169465 8.30628404488176e-09 -0.9514792775769954
vn -0.5866755766830372 6.875138506410786e-09 -0.8098220592967482
vn -0.8082103673340493 4.770775462974952e-09 -0.5888938801972399
vn -0.950631960983126 2.1996306028646323e-09 -0.31032059995652295
vn -0.996808829875242 0.0 -0.07982578958426266
vn -0.9953181713990883 -1.4592851971560256e-09 0.09665266516126264
vn -0.9999990601968755 0.0 -0.001370987004306527
vn -0.9244033249184441 -3.957695171199475e-09 0.3814164297453973
vn -0.7080755508530389 -6.725599355926901e-09 0.7061366824377315
vn -0.38394968342892727 -8.469768868273921e-09 0.9233540169376134
vn -0.09938143581492356 -8.938976710388848e-09 0.9950494109416699
vn -0.0013709870042920732 -8.924357144570446e-09 0.9999990601968753
vn 0.0 -1.0 -8.923556636150849e-09
vn 0.00022631559562620018 -0.9862810979102361 -0.16507436108078793
vn 0.00022631559562751827 -0.9862810979102361 -0.16507436108078793
vn 0.0 -1.0 -8.923530302197166e-09
vn 0.0 -1.0 -8.923526567479084e-09
vn 0.0 -1.0 -8.923517482332765e-09
vn 0.0 -1.0 -8.923526071437466e-09
vn 0.00022631559614936505 -0.9862810979102361 -0.1650743610807872
vn 0.00022631559588493817 -0.9862810979102361 -0.16507436108078757
vn 0.0 -1.0 -8.923570348072784e-09
vn -0.0966526651612627 8.823799153469743e-09 -0.9953181713990881
vn 0.0013709870042930168 8.924313482862434e-09 -0.9999990601968753
vn -0.38141642974539736 8.020304660133871e-09 -0.9244033249184439
vn -0.7061366824377315 5.895246747506961e-09 -0.7080755508530389
vn -0.9233540169376134 2.872690879337356e-09 -0.38394968342892727
vn -0.9950494109416699 0.0 -0.09938143581492359
vn -0.9999990601968755 0.0 -0.0013709870042954249
vn -0.9970239626953414 -1.2856012405902861e-09 0.07709226816794469
vn -0.9970239626953414 -1.2855986481543179e-09 0.07709226816794469
vn -0.0013709870042986235 -8.924317651012248e-09 0.9999990601968753
vn -0.0798257895842626 -8.942891534125657e-09 0.9968088298752418
vn -0.9514792775769952 -3.3162403942469277e-09 0.3077128277169463
vn -0.9514792775769952 -3.316237777586911e-09 0.3077128277169463
vn -0.8098220592967482 -5.720657414667324e-09 0.5866755766830372
vn -0.58889388019724 -7.565096546157791e-09 0.8082103673340492
vn -0.31032059995652306 -8.669011858577654e-09 0.9506319609831261
vn 0.07709226816794477 -8.850767241823843e-09 0.9970239626953414
vn -0.0013709870042777513 -8.924337175743348e-09 0.9999990601968753
vn 0.3077128277169465 -8.305990587591092e-09 0.9514792775769954
vn 0.5866755766830372 -6.874552956256548e-09 0.8098220592967482
vn 0.8082103673340493 -4.770029895333218e-09 0.5888938801972399
vn 0.950631960983126 -2.1988134135906176e-09 0.31032059995652295
vn 0.950631960983126 -2.1982537753084134e-09 0.31032059995652295
vn 0.996808829875242 0.0 0.07982578958426266
vn 0.9999990601968755 0.0 0.0013709870043149648
vn 0.9953181713990883 1.459207775477495e-09 -0.09665266516126264
vn 0.9244033249184441 3.957646280609628e-09 -0.3814164297453973
vn 0.7080755508530389 6.7256147209957925e-09 -0.7061366824377315
vn 0.38394968342892727 8.469815731383775e-09 -0.9233540169376134
vn 0.09938143581492356 8.938993620878526e-09 -0.9950494109416699
vn 0.0013709870042855228 8.92436180342023e-09 -0.9999990601968753
vn 0.0 -1.0 -8.92353018847685e-09
vn 0.0 -1.0 -8.923530181379849e-09
vn 0.029986858905209007 -0.03170549941325947 -0.9990473210013404
vn 0.0013703083612782965 -0.0314608991152106 -0.999504044054779
vn 0.03035040578207405 -0.03168339009975131 -0.9990370441883777
vn -0.0013703083236805782 -0.03146091695506273 0.999504043493294
vn 0.027009728948543504 -0.03170358851405948 0.9991323020588702
vn 0.027610220066317345 -0.03167813757061384 0.9991166955606071
vn 0.1476874706470311 -0.03354820819656084 0.9884649355139932
vn 0.15123079870404912 -0.03354523599948717 0.9879291283614803
vn 0.41616802209721665 -0.037208106918638004 0.9085261329005466
vn 0.42170901274059114 -0.03717380507989027 0.9059688829034019
vn 0.7223613865218974 -0.03833951443132788 0.6904521047077284
vn 0.7254982651802516 -0.03820824260384351 0.6871625698607071
vn 0.9276113856226365 -0.03494662099740513 0.3719083905266409
vn 0.92751778582267 -0.035032721340053086 0.372133666063851
vn 0.9949763404667512 -0.029885088809251104 0.0955456088904925
vn 0.994838915966022 -0.02989032944674767 0.09696442381159724
vn 0.999612392617915 -0.02780622903751691 0.0013704566394083292
vn 0.9951010197373285 -0.029890676827598994 -0.09423644707074315
vn 0.9286274611252746 -0.03494874438173347 -0.36936380942123526
vn 0.9953059932608243 -0.029866865808633868 -0.09205406077872387
vn 0.727379450352587 -0.03821277205508409 -0.6851707227083148
vn 0.9295210048720549 -0.03498935586917903 -0.36710549774895135
vn 0.42419139519031696 -0.037179211305312515 -0.9048090221108582
vn 0.7269258753565104 -0.038323850686077826 -0.6856457206209066
vn 0.15394030661199945 -0.03354793910668345 -0.9875104646442476
vn 0.4213479835659095 -0.03723422900091873 -0.9061343658286277
vn 0.15159620033254323 -0.033561398979563374 -0.9878725750537212
vn 0.0013703083615921562 -0.0314608991152106 -0.9995040440547786
vn -0.027247386927981152 -0.03170549944686779 -0.999125788482322
vn -0.027610960616950384 -0.03168339013378659 -0.9991165085431426
vn -0.15123200239601936 -0.03354793928588259 -0.9879288523071694
vn -0.1488869120321389 -0.033561399156008975 -0.9882845338829426
vn -0.421708840032064 -0.03717921180203053 -0.9059687414301835
vn -0.41886180504196424 -0.03723422949429528 -0.907286283612264
vn -0.7254979973875917 -0.038212772908223 -0.687162600679969
vn -0.7250431216657621 -0.03832385153868328 -0.6876363531172619
vn -0.9285109177783899 -0.03498935696022723 -0.36965283776246327
vn -0.9276111851645873 -0.03494874547172866 -0.3719086908738512
vn -0.9950498420559525 -0.029866866977383524 -0.09478281532735248
vn -0.9948388852621018 -0.029890677996104415 -0.09696463138377608
vn -0.9951010498017689 -0.029890330615253126 0.09423623941525161
vn -0.9996123925845786 -0.027806230211474475 -0.0013704571356523525
vn -0.9286276606769408 -0.03494662208740055 0.3693635085256162
vn -0.9952345834359158 -0.02988508997791567 0.09281705301371612
vn -0.9285346789278219 -0.03503272242993895 0.3695890398639458
vn -0.7273797179699851 -0.03820824345698274 0.685170691155012
vn -0.7242518709142387 -0.03833951528078843 0.6884688148676447
vn -0.42419156819878945 -0.0371738055766085 0.9048091631101026
vn -0.4186576102915619 -0.03720810740885295 0.907381596732053
vn -0.15393910360269228 -0.033545236178684885 0.9875107439981176
vn -0.15039725803369272 -0.03354820837159809 0.988056264840724
vn -0.030349665672608987 -0.031678137604648264 0.9990372332358097
vn -0.001370308323739975 -0.03146091695506273 0.999504043493294
vn -0.029749219604750295 -0.031703588547388695 0.9990544862048947
vn 0.0 -1.0 -8.923411515025511e-09
vn 0.0 -1.0 -8.920809151516082e-09
vn 0.999612392617915 -0.02780622903751691 0.0013704566394168779
vn 0.9996123926179151 -0.02780622903751691 0.001370456639355427
vn 0.9996123926179151 -0.02780622903751691 0.0013704566393618108
vn 0.999612392617915 -0.02780622903751691 0.0013704566394205416
vn 0.0 -1.0 -8.923236127426433e-09
vn -0.9996123925845786 -0.027806230211474475 -0.001370457135698371
vn -0.9996123925845792 -0.027806230211474475 -0.0013704571351576928
vn -0.9996123925845783 -0.027806230211474475 -0.0013704571358064512
vn -0.9996123925845783 -0.027806230211474475 -0.0013704571358015107
vn 0.0 -1.0 -8.920819860387867e-09
vn 0.0 -1.0 -8.923332225062302e-09
vn 0.03026218033310962 -0.03167803090364553 -0.9990398904946459
vn 0.15022319060449354 -0.03362298052915546 -0.9880802033159769
vn 0.15132126244239058 -0.03356271001649564 -0.9879146825658529
vn 0.029801347664956162 -0.0317040008154826 -0.9990529195241084
vn 0.0013703083608285456 -0.0314608991152106 -0.9995040440547796
vn 0.001370987004236562 8.924293796343298e-09 -0.9999990601968755
vn 0.0013702285212020275 -0.033259591111397896 -0.999445807471772
vn 0.0013680516551414104 -0.06540311964122361 -0.9978579860761072
vn 0.999612392617915 -0.02780622903751691 0.0013704566394218184
vn 0.999612392617915 -0.02780622903751691 0.0013704566393970049
vn 0.00042477199449596816 -0.9507923192168107 -0.30982863858441306
vn 0.0008040354280734969 -0.8099750667682836 -0.5864637625128643
vn 0.0008076471623336734 -0.8080610740177969 -0.5890981653029193
vn 0.0004225396015563532 -0.951321385551515 -0.30820032909234624
vn 0.9996123926179151 -0.02780622903751691 0.00137045663936714
vn 0.00010771578699015555 -0.9969087858443811 -0.0785675575768463
vn 0.00010741780358494291 -0.9969258915949274 -0.07835020822610807
vn 0.0 -1.0 -8.923529465573196e-09
vn 0.0 -1.0 -8.923528815783504e-09
vn 0.0 -1.0 -8.923412339312153e-09
vn 0.0 -1.0 -8.923339317947687e-09
vn -0.027061861034116418 -0.03170400084887304 -0.9991308783175229
vn 0.0013703083620449604 -0.0314608991152106 -0.9995040440547779
vn -0.027522727695159833 -0.03167803093757719 -0.9991191129270505
vn -0.1475133381546863 -0.03362298070398825 -0.9884883966112301
vn -0.14861185971793883 -0.033562710192618285 -0.988325887364943
vn 0.0 -1.0 -8.92330378566029e-09
vn 0.0 -1.0 -8.923303200954853e-09
vn 0.0 -1.0 -8.923326752170162e-09
vn 0.0 -1.0 -8.923500273482433e-09
vn 0.0 -1.0 -8.923524197367317e-09
vn 0.00010771578715491645 -0.9969087858443811 -0.07856755757684608
vn 0.00010741780374960315 -0.9969258915949274 -0.07835020822610785
vn 0.0004247719946656707 -0.9507923192168107 -0.30982863858441284
vn 0.00042253960172641304 -0.951321385551515 -0.308200329092346
vn 0.000807647162459896 -0.8080610740177969 -0.589098165302919
vn 0.0008040354281999353 -0.8099750667682836 -0.586463762512864
vn -0.9996123925845797 -0.027806230211474475 -0.001370457134880193
vn -0.9996123925845816 -0.027806230211474475 -0.0013704571334830337
vn -0.9996123925845787 -0.027806230211474475 -0.0013704571356294819
vn 0.0013709870043531354 8.924287709203645e-09 -0.9999990601968752
vn 0.0013702285209072301 -0.033259591111397896 -0.9994458074717725
vn 0.42015084303813516 -0.037364239525890686 -0.9066847206714119
vn 0.4198230596404405 -0.03729767997459792 -0.906839281054064
vn 0.0 -1.0 -8.934546241790367e-09
vn 8.95636916271455e-05 -0.997863879940906 -0.06532739921063821
vn 8.96674455717373e-05 -0.9978589223108163 -0.06540308191855496
vn 0.0013242719271747772 -0.25881898997196984 -0.9659249332809214
vn 0.0013234760787648792 -0.2609757912117167 -0.9653444384324632
vn 0.001370987004619533 8.924317712862435e-09 -0.9999990601968749
vn 0.001366908384775482 -0.0770786487502871 -0.9970240786802982
vn 0.0013666104745002313 -0.07983966887596423 -0.9968067815026076
vn 0.001304996795878677 -0.3065128801268828 -0.9518656161978358
vn 0.0013027648847514712 -0.3115231925643705 -0.9502376562198309
vn 0.9996123926179149 -0.02780622903751691 0.0013704566394853231
vn 0.0011073406612126 -0.5895995658000324 -0.8076949460068903
vn 0.0011109521537842012 -0.5859738874521656 -0.8103291732435088
vn 0.9996123926179148 -0.02780622903751691 0.001370456639555156
vn 0.9996123926179151 -0.02780622903751691 0.0013704566393551495
vn 0.9282645055837684 -0.034988084395580536 -0.3702713081291202
vn 0.995074281810139 -0.029896406166049706 -0.09451655187526964
vn 0.9952503604468755 -0.029879897334390424 -0.09264940240309592
vn 0.999612392617915 -0.02780622903751691 0.0013704566393913428
vn 0.9287578590607959 -0.03504564287349815 -0.3690266144174298
vn 0.7264002644635561 -0.03831817204181183 -0.6862028661253534
vn 0.7248609019524955 -0.03843565302583523 -0.6878221960631193
vn 0.0 -1.0 -8.934554179960045e-09
vn 8.956367930914074e-05 -0.997863879940906 -0.0653273992106551
vn -0.41733495399152126 -0.03729768046618246 -0.9079870148899363
vn -0.4176631599570846 -0.03736424001786042 -0.9078333538610214
vn -0.7245159850716401 -0.038318172893799116 -0.6881920553172289
vn -0.7229721881908018 -0.03843565387601207 -0.689807158279564
vn -0.9272457426519298 -0.034988085485148 -0.3728151909565314
vn -0.9277425071888687 -0.03504564396364702 -0.3715718546850466
vn -0.9949925770413979 -0.02987989850307379 -0.09537800217012339
vn -0.9948113793960474 -0.029896407334523277 -0.09724466182069706
vn -0.9996123925845796 -0.027806230211474475 -0.0013704571349491934
vn -0.9996123925845796 -0.027806230211474475 -0.0013704571349812786
vn -0.9996123925845712 -0.027806230211474475 -0.001370457141054859
vn 0.0011073406618306383 -0.5895995658000324 -0.8076949460068895
vn 0.001110952154416654 -0.5859738874521656 -0.810329173243508
vn -0.9996123925845773 -0.027806230211474475 -0.0013704571365467473
vn 0.0013666104759294435 -0.07983966887596423 -0.9968067815026057
vn 0.0013049967977146243 -0.3065128801268828 -0.9518656161978334
vn 0.0013669083861666594 -0.0770786487502871 -0.9970240786802963
vn 0.001302764886564474 -0.3115231925643704 -0.9502376562198283
vn 0.0013709870049478812 8.92434579003335e-09 -0.9999990601968745
vn 0.0013234760748350948 -0.2609757912117167 -0.9653444384324685
vn 0.9996123926179151 -0.02780622903751691 0.0013704566393559822
vn 0.00035404415581026446 -0.9660808150090248 -0.258239682319031
vn 0.0003548380927156195 -0.9659258305460754 -0.2588187859754438
vn 0.0011873098859156847 -0.4999999768258652 -0.8660246032702357
vn 0.0011851572960510702 -0.5027096731166909 -0.8644544984885515
vn 0.9996127307986773 -0.0277940473355825 0.001370896756966665
vn 0.9996123926179182 -0.02780622903751691 0.001370456637099623
vn 0.9996123926179151 -0.02780622903751691 0.001370456639333056
vn 0.9996123926179151 -0.02780622903751691 0.0013704566393554826
vn 0.0003540441411365593 -0.9660808150090248 -0.2582396823190511
vn -0.9996123925845792 -0.027806230211474475 -0.0013704571351615233
vn -0.9996127319708744 -0.02779404850954047 -0.001370017946660764
vn -0.999612392584579 -0.027806230211474475 -0.0013704571353367718
vn -0.9996123925845776 -0.027806230211474475 -0.0013704571364207925
vn -0.9996123925845806 -0.027806230211474475 -0.001370457134232212
vn 0.0011851572884147873 -0.502709673116691 -0.8644544984885622
vn 0.999612392617915 -0.02780622903751691 0.0013704566394420244
vn 0.0006854940535227909 -0.8660253885126259 -0.4999995565492615
vn 0.0006854940469490343 -0.8660253885126259 -0.4999995565492705
vn 0.0009694346536084554 -0.7071067587690049 -0.7071061390623367
vn 0.0009678195277041768 -0.7082828790661736 -0.7059280604616123
vn 0.9996123926179152 -0.02780622903751691 0.0013704566392783223
vn 0.9995586410423801 -0.027938099530621097 0.010098797558492323
vn 0.9994517264693565 -0.026551827193654395 -0.01977996284377519
vn 0.0006854940403752778 -0.8660253885126259 -0.49999955654927947
vn -0.9996123925845767 -0.027806230211474475 -0.0013704571370436824
vn -0.9993937331954806 -0.026551828367389216 -0.022520356567994847
vn -0.9995825740723984 -0.027938100704529588 0.007357998357013282
vn -0.9996123925845773 -0.027806230211474475 -0.0013704571365454705
vn 0.0009678195169549958 -0.7082828790661737 -0.705928060461627
vn 0.9996123926179151 -0.02780622903751691 0.0013704566393218428
vn 0.9993253777317935 -0.027738159427493417 0.02407039535992077
vn -0.9996123925845789 -0.027806230211474475 -0.0013704571354280876
vn -0.9993876213609589 -0.027738160601150457 0.021330183237594693
usemtl material_0_0
f 1//1 2//2 3//3
f 4//4 5//4 6//4
f 5//4 4//4 7//4
f 7//4 4//4 8//4
f 7//4 8//4 9//4
f 7//4 9//4 10//4
f 7//4 10//4 11//4
f 7//4 11//4 12//4
f 1//1 13//5 2//2
f 3//3 2//2 14//6
f 15//7 16//8 17//9
f 16//8 15//7 18//8
f 19//10 20//10 21//10
f 20//10 19//10 22//10
f 22//10 19//10 23//10
f 23//10 19//10 24//10
f 24//10 19//10 25//10
f 25//10 19//10 26//10
f 26//10 19//10 27//10
f 28//11 29//12 30//13
f 29//12 28//11 31//12
f 28//11 30//13 32//14
f 32//14 13//5 1//1
f 14//6 33//15 3//3
f 34//16 35//17 33//15
f 36//18 37//19 35//17
f 37//19 36//18 38//19
f 38//19 36//18 39//19
f 39//19 36//18 40//19
f 40//19 36//18 41//19
f 41//19 36//18 42//19
f 42//19 36//18 43//19
f 43//19 36//18 44//19
f 44//19 45//20 46//21
f 45//20 44//19 36//18
f 47//22 48//22 49//22
f 48//22 47//22 50//22
f 48//22 50//22 51//22
f 50//22 47//22 52//22
f 52//22 47//22 53//22
f 52//22 53//22 54//22
f 54//22 53//22 55//22
f 54//22 55//22 56//22
f 56//22 55//22 57//22
f 56//22 57//22 58//22
f 58//22 57//22 59//22
f 58//22 59//22 60//22
f 60//22 59//22 61//22
f 60//22 61//22 62//22
f 62//22 61//22 63//22
f 63//22 61//22 64//22
f 63//22 64//22 65//22
f 65//22 64//22 66//22
f 65//22 66//22 67//22
f 67//22 66//22 68//22
f 67//22 68//22 69//22
f 69//22 68//22 70//22
f 69//22 70//22 71//22
f 71//22 70//22 72//22
f 71//22 72//22 73//22
f 71//22 73//22 74//22
f 74//22 73//22 75//22
f 75//22 73//22 76//22
f 51//22 77//22 48//22
f 78//23 17//9 79//24
f 17//9 78//23 15//7
f 80//25 81//26 15//7
f 81//26 80//25 82//26
f 83//27 84//28 85//29
f 84//28 83//27 86//30
f 87//28 86//30 88//31
f 86//30 87//28 89//28
f 86//30 89//28 90//28
f 86//30 90//28 91//28
f 86//30 91//28 92//28
f 86//30 92//28 93//28
f 86//30 93//28 94//28
f 86//30 94//28 84//28
f 95//32 96//33 88//31
f 97//34 98//35 96//33
f 99//36 100//37 98//35
f 101//38 102//39 100//37
f 102//39 103//40 104//41
f 105//42 103//40 106//42
f 103//40 105//42 104//41
f 30//13 13//5 32//14
f 14//6 34//16 33//15
f 34//16 36//18 35//17
f 45//20 107//43 46//21
f 108//44 109//45 110//46
f 109//45 108//44 111//44
f 111//44 108//44 112//44
f 111//44 112//44 113//44
f 111//44 113//44 114//44
f 111//44 114//44 115//44
f 111//44 115//44 116//44
f 110//46 117//47 118//48
f 117//47 110//46 109//45
f 118//48 119//49 120//50
f 119//49 118//48 117//47
f 121//51 119//49 122//52
f 119//49 121//51 120//50
f 122//52 123//53 121//51
f 123//53 122//52 124//54
f 124//54 79//24 123//53
f 79//24 124//54 78//23
f 125//55 126//56 127//57
f 126//56 125//55 128//55
f 127//57 129//58 130//59
f 129//58 131//60 130//59
f 132//61 133//62 131//60
f 133//62 134//63 135//64
f 45//20 135//64 107//43
f 136//65 137//65 138//65
f 139//65 140//65 141//65
f 140//65 139//65 142//65
f 142//65 139//65 143//65
f 142//65 143//65 144//65
f 144//65 143//65 145//65
f 144//65 145//65 146//65
f 146//65 145//65 147//65
f 146//65 147//65 148//65
f 148//65 147//65 149//65
f 148//65 149//65 150//65
f 150//65 149//65 151//65
f 150//65 151//65 152//65
f 152//65 151//65 153//65
f 152//65 153//65 154//65
f 154//65 153//65 155//65
f 154//65 155//65 156//65
f 154//65 156//65 157//65
f 157//65 156//65 158//65
f 157//65 158//65 159//65
f 159//65 158//65 160//65
f 159//65 160//65 161//65
f 161//65 160//65 162//65
f 161//65 162//65 163//65
f 163//65 162//65 137//65
f 163//65 137//65 164//65
f 164//65 137//65 165//65
f 165//65 137//65 136//65
f 165//65 136//65 166//65
f 167//66 168//67 169//67
f 168//67 167//66 170//66
f 170//66 167//66 171//66
f 170//66 171//66 172//66
f 173//68 168//67 174//68
f 168//67 173//68 169//67
f 173//68 175//69 176//69
f 175//69 173//68 174//68
f 176//69 177//70 178//70
f 177//70 176//69 175//69
f 179//71 178//70 177//70
f 178//70 179//71 180//71
f 181//72 180//71 179//71
f 180//71 181//72 182//72
f 183//73 181//72 184//73
f 181//72 183//73 182//72
f 185//74 183//73 184//73
f 183//73 185//74 186//74
f 187//75 186//74 185//74
f 186//74 187//75 188//75
f 187//75 189//76 188//75
f 189//76 187//75 190//76
f 191//77 189//76 190//76
f 189//76 191//77 192//77
f 191//77 193//78 192//77
f 193//78 191//77 194//78
f 193//78 194//78 195//79
f 195//79 194//78 196//79
f 197//80 195//79 196//79
f 195//79 197//80 198//80
f 198//80 197//80 199//80
f 198//80 199//80 200//80
f 201//81 15//7 78//23
f 15//7 201//81 80//25
f 124//54 201//81 78//23
f 201//81 124//54 202//82
f 203//83 124//54 122//52
f 124//54 203//83 202//82
f 119//49 203//83 122//52
f 203//83 119//49 204//84
f 117//47 204//84 119//49
f 204//84 117//47 205//85
f 109//45 205//85 117//47
f 205//85 109//45 206//86
f 207//87 206//86 109//45
f 206//86 207//87 208//87
f 208//87 207//87 209//87
f 209//87 207//87 210//87
f 210//87 207//87 211//87
f 211//87 207//87 212//87
f 212//87 207//87 213//87
f 83//27 85//29 214//88
f 95//32 88//31 86//30
f 97//34 96//33 95//32
f 97//34 99//36 98//35
f 99//36 101//38 100//37
f 101//38 103//40 102//39
f 135//64 134//63 107//43
f 132//61 134//63 133//62
f 129//58 132//61 131//60
f 126//56 129//58 127//57
f 215//89 216//90 217//90
f 216//90 215//89 218//91
f 219//92 220//92 221//92
f 220//92 219//92 222//92
f 220//92 222//92 223//93
f 223//93 222//92 224//93
f 224//93 225//94 223//93
f 225//94 224//93 226//94
f 225//94 226//94 227//95
f 227//95 226//94 228//95
f 229//96 227//95 228//95
f 227//95 229//96 230//96
f 229//96 231//97 230//96
f 231//97 229//96 232//97
f 233//98 232//97 234//98
f 232//97 233//98 231//97
f 235//99 234//98 236//99
f 234//98 235//99 233//98
f 237//100 235//99 236//99
f 235//99 237//100 238//100
f 239//101 237//100 240//101
f 237//100 239//101 238//100
f 241//102 240//101 242//102
f 240//101 241//102 239//101
f 241//102 243//103 244//103
f 243//103 241//102 242//102
f 245//104 243//103 246//104
f 243//103 245//104 244//103
f 245//104 247//105 248//105
f 247//105 245//104 246//104
f 249//106 250//106 251//106
f 250//106 249//106 252//106
f 252//106 249//106 248//105
f 252//106 248//105 247//105
f 83//27 214//88 253//107
f 254//108 253//107 255//109
f 254//108 256//110 257//111
f 257//111 258//112 259//113
f 259//113 258//112 215//89
f 260//114 261//114 262//114
f 261//114 260//114 263//114
f 263//114 260//114 264//114
f 264//114 260//114 265//114
f 265//114 260//114 266//114
f 266//114 260//114 267//114
f 267//114 260//114 268//114
f 267//114 268//114 269//114
f 269//114 268//114 270//114
f 270//114 268//114 271//114
f 271//114 268//114 272//114
f 272//114 268//114 273//114
f 272//114 273//114 274//114
f 274//114 273//114 275//114
f 275//114 273//114 276//114
f 277//114 278//114 279//114
f 278//114 277//114 276//114
f 278//114 276//114 273//114
f 278//114 273//114 280//114
f 278//114 280//114 281//114
f 278//114 281//114 282//114
f 278//114 282//114 283//114
f 284//114 285//114 286//114
f 285//114 284//114 287//114
f 287//114 284//114 288//114
f 287//114 288//114 289//114
f 287//114 289//114 260//114
f 287//114 260//114 262//114
f 258//112 218//91 215//89
f 257//111 256//110 258//112
f 254//108 255//109 256//110
f 253//107 214//88 255//109
f 290//115 291//115 292//115
f 291//115 290//115 293//115
f 291//115 293//115 294//115
f 294//115 293//115 295//115
f 295//115 293//115 296//115
f 296//115 293//115 297//115
f 297//115 293//115 298//115
f 299//115 300//115 301//115
f 300//115 299//115 302//115
f 302//115 299//115 303//115
f 303//115 299//115 304//115
f 304//115 299//115 305//115
f 305//115 299//115 306//115
f 306//115 299//115 307//115
f 296//115 308//115 309//115
f 308//115 296//115 310//115
f 310//115 296//115 311//115
f 311//115 296//115 312//115
f 312//115 296//115 313//115
f 313//115 296//115 297//115
f 309//115 308//115 314//115
f 309//115 314//115 315//115
f 309//115 315//115 316//115
f 309//115 316//115 317//115
f 309//115 317//115 303//115
f 303//115 317//115 318//115
f 303//115 318//115 319//115
f 303//115 319//115 302//115
f 320//116 321//117 322//117
f 321//117 320//116 323//116
f 322//117 324//118 325//118
f 324//118 322//117 321//117
f 325//118 326//119 327//119
f 326//119 325//118 324//118
f 328//120 326//119 329//120
f 326//119 328//120 327//119
f 330//121 329//120 331//121
f 329//120 330//121 328//120
f 332//122 333//123 334//122
f 333//123 331//121 335//123
f 331//121 333//123 330//121
f 330//121 333//123 332//122
f 336//124 332//122 334//122
f 332//122 336//124 337//124
f 338//125 337//124 336//124
f 337//124 338//125 339//125
f 338//125 340//126 339//125
f 340//126 338//125 341//126
f 341//126 342//127 340//126
f 342//127 341//126 343//127
f 343//127 344//128 342//127
f 344//128 343//127 345//128
f 345//128 346//129 344//128
f 346//129 345//128 347//129
f 348//130 349//131 350//130
f 349//131 348//130 351//131
f 351//131 352//132 349//131
f 352//132 351//131 353//132
f 353//132 354//133 352//132
f 354//133 353//132 355//133
f 356//134 354//133 355//133
f 354//133 356//134 357//134
f 358//135 356//134 359//135
f 356//134 358//135 357//134
f 360//136 359//135 361//136
f 359//135 360//136 358//135
f 362//137 363//138 364//137
f 363//138 362//137 365//138
f 365//138 362//137 360//136
f 360//136 361//136 365//138
f 366//139 362//137 364//137
f 362//137 366//139 367//139
f 368//140 367//139 366//139
f 367//139 368//140 369//140
f 370//141 368//140 371//141
f 368//140 370//141 369//140
f 372//142 371//141 373//142
f 371//141 372//142 370//141
f 374//143 373//142 375//143
f 373//142 374//143 372//142
f 376//144 377//144 378//144
f 377//144 376//144 379//144
f 379//144 376//144 380//144
f 379//144 380//144 381//144
f 381//144 380//144 382//144
f 381//144 382//144 383//144
f 381//144 383//144 384//144
f 384//144 383//144 385//144
f 384//144 385//144 386//144
f 386//144 385//144 387//144
f 386//144 387//144 388//145
f 388//145 387//144 389//145
f 390//146 388//145 389//145
f 388//145 390//146 391//146
f 390//146 392//147 391//146
f 392//147 390//146 393//147
f 392//147 393//147 394//147
f 395//148 396//148 397//148
f 398//148 399//148 400//148
f 399//148 398//148 401//148
f 401//148 398//148 402//148
f 396//148 403//148 404//148
f 403//148 396//148 395//148
f 403//148 395//148 405//148
f 403//148 405//148 406//148
f 406//148 405//148 407//148
f 406//148 407//148 408//148
f 408//148 407//148 409//148
f 408//148 409//148 401//148
f 401//148 409//148 399//148
f 410//149 411//149 412//149
f 411//149 410//149 413//149
f 413//149 410//149 414//149
f 414//149 410//149 415//149
f 414//149 415//149 416//149
f 416//149 415//149 417//149
f 416//149 417//149 418//149
f 418//149 417//149 419//149
f 418//149 419//149 420//149
f 420//149 419//149 421//149
f 421//149 419//149 422//149
f 422//149 419//149 423//149
f 413//149 424//149 411//149
f 425//150 426//151 427//151
f 426//151 425//150 428//150
f 428//150 425//150 429//150
f 430//152 426//151 431//152
f 426//151 430//152 427//151
f 432//153 433//153 434//153
f 433//153 432//153 435//153
f 435//153 432//153 436//153
f 436//153 432//153 437//153
f 436//153 437//153 438//153
f 438//153 437//153 439//153
f 438//153 439//153 440//153
f 440//153 439//153 430//152
f 440//153 430//152 431//152
f 441//153 442//153 443//153
f 442//153 441//153 434//153
f 442//153 434//153 433//153
f 444//154 445//155 446//154
f 445//155 444//154 447//155
f 448//156 446//154 449//156
f 446//154 448//156 444//154
f 450//157 449//156 451//157
f 449//156 450//157 448//156
f 451//157 452//158 450//157
f 452//158 451//157 453//158
f 452//158 454//159 455//159
f 454//159 452//158 453//158
f 454//159 456//160 455//159
f 456//160 454//159 457//160
f 457//160 458//161 459//162
f 458//161 457//160 454//159
f 460//163 461//164 462//164
f 461//164 460//163 463//163
f 464//165 465//166 459//162
f 464//165 466//167 465//166
f 466//167 464//165 467//167
f 468//168 466//167 467//167
f 466//167 468//168 469//168
f 470//169 469//168 468//168
f 469//168 470//169 471//169
f 462//164 471//169 470//169
f 471//169 462//164 461//164
f 472//170 473//171 474//171
f 473//171 472//170 475//170
f 476//172 475//170 472//170
f 475//170 476//172 477//172
f 478//173 477//172 476//172
f 477//172 478//173 479//173
f 478//173 480//174 479//173
f 480//174 478//173 481//174
f 480//174 482//175 483//176
f 482//175 480//174 481//174
f 482//175 484//177 483//176
f 485//177 486//178 484//177
f 486//178 485//177 487//179
f 488//178 487//179 489//179
f 487//179 488//178 486//178
f 487//179 490//180 489//179
f 490//180 487//179 491//180
f 490//180 492//181 493//181
f 492//181 490//180 491//180
f 494//182 492//181 495//182
f 492//181 494//182 493//181
f 496//183 495//182 497//183
f 495//182 496//183 494//182
f 496//183 498//184 499//184
f 498//184 496//183 497//183
f 500//185 501//185 502//185
f 503//185 504//185 505//185
f 504//185 503//185 506//185
f 504//185 506//185 507//185
f 507//185 506//185 508//185
f 508//185 506//185 509//185
f 509//185 506//185 510//185
f 502//185 511//185 512//185
f 511//185 502//185 513//185
f 513//185 502//185 514//185
f 514//185 502//185 515//185
f 515//185 502//185 516//185
f 516//185 502//185 501//185
f 516//185 501//185 517//185
f 516//185 517//185 518//185
f 516//185 518//185 519//185
f 516//185 519//185 520//185
f 516//185 520//185 521//185
f 516//185 521//185 522//185
f 522//185 521//185 523//185
f 522//185 523//185 524//185
f 522//185 524//185 525//185
f 522//185 525//185 526//185
f 522//185 526//185 527//185
f 527//185 526//185 528//185
f 527//185 528//185 504//185
f 527//185 504//185 507//185
f 464//165 459//162 458//161
f 529//186 530//186 531//186
f 530//186 529//186 532//186
f 532//186 529//186 533//186
f 533//186 529//186 534//186
f 534//186 529//186 535//186
f 535//186 529//186 536//186
f 535//186 536//186 537//186
f 537//186 536//186 538//186
f 538//186 536//186 539//186
f 539//186 536//186 540//186
f 540//186 536//186 541//186
f 540//186 541//186 542//186
f 542//186 541//186 543//186
f 543//186 541//186 544//186
f 543//186 544//186 545//186
f 545//186 544//186 546//186
f 546//186 544//186 547//186
f 546//186 547//186 548//186
f 546//186 548//186 549//186
f 545//186 550//186 543//186
f 551//186 552//186 553//186
f 552//186 551//186 554//186
f 554//186 551//186 555//186
f 554//186 555//186 556//186
f 554//186 556//186 529//186
f 554//186 529//186 531//186
f 554//186 531//186 557//186
f 482//175 485//177 484//177
f 558//187 559//188 560//189
f 559//188 558//187 561//188
f 559//188 561//188 562//188
f 563//190 564//191 565//192
f 564//191 563//190 566//190
f 566//190 563//190 567//190
f 565//192 568//193 569//194
f 570//195 571//196 569//194
f 572//197 573//198 571//196
f 574//199 573//198 575//200
f 574//199 576//201 577//202
f 577//202 578//203 579//204
f 580//205 579//204 581//206
f 582//207 580//205 583//208
f 584//209 582//207 585//210
f 586//211 584//209 587//212
f 560//189 586//211 588//213
f 589//214 590//214 591//214
f 590//214 589//214 592//215
f 590//214 592//215 593//216
f 594//217 593//216 595//218
f 596//219 594//217 597//220
f 598//221 596//219 599//222
f 598//221 600//223 601//224
f 601//224 602//225 603//226
f 604//227 603//226 605//228
f 606//229 604//227 607//230
f 606//229 608//231 609//232
f 609//232 610//233 611//234
f 611//234 612//235 613//236
f 613//236 614//237 615//238
f 616//239 617//239 618//239
f 617//239 616//239 619//240
f 619//240 616//239 615//238
f 558//187 560//189 588//213
f 620//241 621//241 622//241
f 621//241 623//241 624//241
f 623//241 621//241 625//241
f 625//241 621//241 620//241
f 626//242 627//242 628//242
f 627//242 626//242 629//242
f 629//242 626//242 630//242
f 630//242 626//242 631//242
f 631//242 626//242 632//242
f 632//242 626//242 633//242
f 633//242 626//242 634//242
f 564//191 568//193 565//192
f 568//193 570//195 569//194
f 570//195 572//197 571//196
f 573//198 572//197 575//200
f 574//199 575//200 576//201
f 577//202 576//201 635//243
f 577//202 636//244 637//244
f 579//204 638//245 639//245
f 580//205 581//206 583//208
f 579//204 640//246 581//206
f 582//207 583//208 585//210
f 587//212 584//209 585//210
f 588//213 586//211 587//212
f 595//218 593//216 592//215
f 641//247 642//247 643//247
f 642//247 641//247 644//247
f 642//247 644//247 645//247
f 645//247 646//247 642//247
f 597//220 594//217 595//218
f 599//222 596//219 597//220
f 598//221 599//222 600//223
f 601//224 600//223 602//225
f 603//226 602//225 647//248
f 603//226 648//249 649//249
f 604//227 650//250 651//250
f 606//229 607//230 608//231
f 604//227 652//251 607//230
f 609//232 608//231 610//233
f 611//234 610//233 612//235
f 613//236 612//235 614//237
f 614//237 619//240 615//238
f 653//252 654//252 655//252
f 654//252 653//252 656//252
f 654//252 656//252 657//252
f 654//252 657//252 658//252
f 654//252 658//252 659//252
f 654//252 659//252 660//252
f 654//252 660//252 661//252
f 662//253 663//253 664//253
f 663//253 662//253 665//253
f 666//254 667//255 668//256
f 669//257 670//258 666//254
f 670//258 669//257 671//258
f 672//259 673//260 674//259
f 673//260 672//259 675//261
f 676//262 576//201 677//262
f 577//202 678//263 679//263
f 680//264 681//265 682//266
f 681//265 680//264 683//267
f 577//202 684//268 685//268
f 686//269 683//267 680//264
f 683//267 686//269 687//270
f 688//271 689//271 690//271
f 689//271 688//271 691//271
f 692//272 687//270 686//269
f 687//270 692//272 693//272
f 694//273 695//273 696//273
f 695//273 694//273 697//273
f 698//274 699//274 700//274
f 699//274 698//274 701//274
f 702//275 703//276 704//276
f 703//276 702//275 705//277
f 706//278 705//277 707//279
f 708//280 709//280 710//280
f 709//280 708//280 711//280
f 712//281 713//281 714//281
f 713//281 712//281 715//281
f 716//282 717//282 718//282
f 717//282 716//282 719//282
f 720//283 721//283 722//283
f 721//283 720//283 723//283
f 724//284 725//285 726//286
f 725//285 724//284 727//284
f 726//286 728//287 729//288
f 728//287 726//286 725//285
f 729//288 730//289 731//290
f 730//289 729//288 728//287
f 604//227 732//291 733//291
f 604//227 734//292 735//292
f 736//293 737//293 607//230
f 738//294 739//295 675//261
f 739//295 738//294 740//294
f 667//255 741//296 742//297
f 669//257 666//254 668//256
f 668//256 667//255 742//297
f 743//298 744//299 745//300
f 744//299 743//298 746//298
f 746//298 743//298 747//298
f 747//298 743//298 748//298
f 748//298 743//298 749//298
f 749//298 743//298 750//298
f 750//298 743//298 751//298
f 673//260 752//301 753//302
f 752//301 673//260 675//261
f 754//303 755//304 756//305
f 755//304 754//303 673//260
f 756//305 757//306 758//307
f 757//306 756//305 755//304
f 577//202 759//308 760//308
f 761//309 682//266 681//265
f 682//266 761//309 762//310
f 763//311 764//311 765//311
f 766//312 767//312 768//312
f 769//313 770//314 771//315
f 772//316 773//316 770//314
f 769//313 774//317 775//318
f 741//296 775//318 776//319
f 707//279 705//277 702//275
f 777//320 745//300 778//321
f 745//300 777//320 779//320
f 779//320 777//320 780//320
f 779//320 780//320 781//320
f 779//320 781//320 782//320
f 779//320 782//320 783//320
f 779//320 783//320 784//320
f 785//322 706//278 707//279
f 786//323 706//278 785//322
f 787//324 786//323 788//325
f 789//326 787//324 790//327
f 789//326 791//328 792//329
f 793//330 792//329 794//330
f 795//331 796//331 797//331
f 798//332 799//332 800//332
f 801//333 730//289 802//334
f 730//289 801//333 731//290
f 604//227 803//335 804//335
f 805//336 806//337 807//338
f 806//337 805//336 808//339
f 809//340 807//338 739//295
f 807//338 809//340 805//336
f 675//261 810//341 752//301
f 810//341 675//261 739//295
f 742//297 741//296 776//319
f 775//318 774//317 776//319
f 769//313 771//315 774//317
f 770//314 811//342 771//315
f 745//300 812//343 813//344
f 812//343 745//300 744//299
f 753//302 814//345 815//346
f 814//345 753//302 752//301
f 816//347 817//348 818//348
f 758//307 762//310 761//309
f 762//310 758//307 757//306
f 770//314 819//349 816//347
f 820//350 821//350 822//350
f 778//321 813//344 823//351
f 813//344 778//321 745//300
f 792//329 791//328 824//352
f 789//326 790//327 791//328
f 787//324 788//325 790//327
f 788//325 786//323 785//322
f 792//329 825//353 826//354
f 827//355 828//355 829//355
f 808//339 802//334 806//337
f 802//334 808//339 801//333
f 825//353 830//356 831//356
f 810//341 814//345 752//301
f 814//345 810//341 832//357
f 770//314 833//358 834//358
f 813//344 835//359 836//360
f 835//359 813//344 812//343
f 815//346 837//361 838//362
f 837//361 815//346 814//345
f 816//347 839//363 840//364
f 770//314 816//347 841//365
f 842//366 813//344 836//360
f 813//344 842//366 823//351
f 792//329 843//367 844//367
f 792//329 845//368 825//353
f 825//353 846//369 847//370
f 832//357 837//361 814//345
f 837//361 832//357 848//371
f 770//314 841//365 849//372
f 836//360 838//362 837//361
f 838//362 836//360 835//359
f 816//347 840//364 850//373
f 816//347 850//373 841//365
f 848//371 836//360 837//361
f 836//360 848//371 842//366
f 792//329 851//374 845//368
f 825//353 845//368 852//375
f 825//353 852//375 846//369
