# SSTK version 0.8.0
# 27
mtllib original-27.mtl
o #ID422
v -0.361245 0.625492 0.354979
v -0.379617 0.474738 0.373302
v -0.357202 0.474738 0.350948
v -0.462339 0.625492 0.455797
v -0.462339 0.538321 0.455797
v -0.462812 0.536619 0.450893
v -0.379617 0.474738 0.373302
v -0.462339 0.538321 0.455797
v -0.382305 0.474738 0.370606
v -0.382305 0.474738 0.370606
v -0.357202 0.474738 0.350948
v -0.379617 0.474738 0.373302
v -0.359293 0.474738 0.347657
v -0.382305 0.474738 0.370606
v -0.363335 0.625492 0.351688
v -0.359293 0.474738 0.347657
v -0.462812 0.625492 0.450893
v -0.462812 0.536619 0.450893
vn 0.7061366824377315 -5.895246491678611e-09 0.7080755508530389
vn -0.33848690221877886 -0.8783392481085329 0.33756004244944615
vn 0.0 -1.0 -8.923418776032089e-09
vn -0.7061366824377315 5.8952493396864045e-09 -0.7080755508530389
usemtl material_0_0
f 1//1 2//1 3//1
f 2//1 1//1 4//1
f 2//1 4//1 5//1
f 6//2 7//2 8//2
f 7//2 6//2 9//2
f 10//3 11//3 12//3
f 11//3 10//3 13//3
f 14//4 15//4 16//4
f 15//4 14//4 17//4
f 17//4 14//4 18//4
