# SSTK version 0.8.0
# 18
mtllib original-18.mtl
o #ID330
v -0.255134 -0.801271 -0.305241
v -0.206662 -0.666397 -0.319131
v -0.206677 -0.801271 -0.307949
v -0.255119 -0.666397 -0.316423
v -0.206677 -0.801271 -0.307949
v -0.25541 -0.838832 -0.103979
v -0.255134 -0.801271 -0.305241
v -0.25541 -0.759889 -0.103979
v -0.255134 -0.801271 -0.305241
v -0.25541 -0.838832 -0.103979
v -0.255119 -0.666397 -0.316423
v -0.255406 -0.735262 -0.107221
v -0.255393 -0.712879 -0.116492
v -0.255373 -0.693659 -0.13124
v -0.255346 -0.67891 -0.150461
v -0.255316 -0.669639 -0.172843
v -0.255282 -0.666397 -0.19747
v -0.206677 -0.801271 -0.307949
v -0.206957 -0.759889 -0.103912
v -0.206957 -0.838832 -0.103912
v -0.206662 -0.666397 -0.319131
v -0.206953 -0.735262 -0.107154
v -0.20694 -0.712879 -0.116426
v -0.20692 -0.693659 -0.131174
v -0.206893 -0.67891 -0.150394
v -0.206863 -0.669639 -0.172777
v -0.206829 -0.666397 -0.197404
v -0.206957 -0.838832 -0.103912
vn -0.055604496613195546 -0.08248860846729789 -0.995039581840603
vn -0.008661566848666155 -0.9830566657072606 -0.1830971580015637
vn -0.0012855820049854035 -0.9834086016242627 -0.18139975063467068
vn -0.01025215543760119 -0.9829733702495173 -0.1834618398719164
vn -0.9999990601968753 0.0 -0.0013709870042913686
vn 0.9999990601968753 0.0 0.001370987004293478
vn 0.0002482117658999656 -0.9834746994631653 -0.18104544707546685
usemtl material_0_0
f 1//1 2//1 3//1
f 2//1 1//1 4//1
f 5//2 6//3 7//4
f 8//5 9//5 10//5
f 9//5 8//5 11//5
f 11//5 8//5 12//5
f 11//5 12//5 13//5
f 11//5 13//5 14//5
f 11//5 14//5 15//5
f 11//5 15//5 16//5
f 11//5 16//5 17//5
f 18//6 19//6 20//6
f 19//6 18//6 21//6
f 19//6 21//6 22//6
f 22//6 21//6 23//6
f 23//6 21//6 24//6
f 24//6 21//6 25//6
f 25//6 21//6 26//6
f 26//6 21//6 27//6
f 5//2 28//7 6//3
