# SSTK version 0.8.0
# 19
mtllib original-19.mtl
o group_13/ID345#ID345
v -0.357503 0.672976 0.441786
v 0.372557 0.650502 0.442787
v 0.372557 0.672976 0.442787
v -0.357503 0.650502 0.441786
v 0.361247 0.674677 0.4168
v -0.357503 0.672976 0.441786
v 0.372557 0.672976 0.442787
v -0.346121 0.674677 0.415831
v -0.367317 0.650437 0.4395
v -0.382943 0.649743 0.415361
v 0.372557 0.650502 0.442787
v -0.357503 0.650502 0.441786
v 0.398069 0.649743 0.416432
v -0.382621 0.642987 0.180419
v 0.398392 0.642987 0.18149
v 0.382377 0.650437 0.440528
v 0.361247 0.674677 0.4168
v 0.372557 0.672976 0.442787
v 0.382309 0.673102 0.440865
v -0.346121 0.720794 0.415831
v -0.196457 0.715319 0.416036
v -0.196457 0.720794 0.416036
v 0.361247 0.720794 0.4168
v -0.346121 0.674677 0.415831
v 0.361247 0.674677 0.4168
v 0.211583 0.715319 0.416595
v 0.211583 0.720794 0.416595
v -0.346121 0.674677 0.415831
v -0.367249 0.673102 0.439838
v -0.357503 0.672976 0.441786
v -0.367249 0.673102 0.439838
v -0.367317 0.650437 0.4395
v -0.382943 0.649743 0.415361
v -0.357503 0.650502 0.441786
v -0.37556 0.650271 0.433708
v -0.381035 0.650028 0.425251
v -0.382778 0.682586 0.295067
v -0.382621 0.642987 0.180419
v -0.382943 0.649743 0.415361
v -0.382027 0.639591 -0.252352
v 0.398985 0.639591 -0.251281
v 0.398234 0.682586 0.296138
v 0.398069 0.649743 0.416432
v 0.398392 0.642987 0.18149
v 0.398069 0.649743 0.416432
v 0.382377 0.650437 0.440528
v 0.372557 0.650502 0.442787
v 0.390637 0.650271 0.434758
v 0.396134 0.650028 0.426317
v 0.382309 0.673102 0.440865
v 0.361247 0.674677 0.4168
v 0.382309 0.673102 0.440865
v 0.390582 0.673464 0.435366
v -0.196457 0.715319 0.416036
v 0.211547 0.713651 0.442566
v -0.196493 0.713651 0.442007
v 0.211583 0.715319 0.416595
v -0.196493 0.719125 0.442007
v -0.196457 0.715319 0.416036
v -0.196493 0.713651 0.442007
v -0.196457 0.720794 0.416036
v -0.346121 0.720794 0.415831
v -0.196493 0.719125 0.442007
v -0.359237 0.719125 0.441784
v -0.196457 0.720794 0.416036
v -0.346121 0.720794 0.415831
v -0.345956 0.682586 0.295117
v -0.346121 0.674677 0.415831
v -0.345699 0.69028 0.107888
v -0.345287 0.696215 -0.192729
v -0.345283 0.70804 -0.195946
v -0.345282 0.718855 -0.196704
v -0.345438 0.728718 -0.082673
v -0.345956 0.728549 0.295117
v -0.345699 0.73553 0.107888
v -0.345442 0.684192 -0.079342
v -0.345312 0.680397 -0.174622
v -0.345328 0.678797 -0.162472
v -0.345297 0.686511 -0.185243
v 0.362056 0.680397 -0.173652
v 0.361926 0.684192 -0.078372
v 0.36204 0.678797 -0.161502
v 0.362071 0.686511 -0.184273
v 0.361669 0.69028 0.108858
v 0.362081 0.696215 -0.191759
v 0.361412 0.682586 0.296087
v 0.361247 0.720794 0.4168
v 0.361247 0.674677 0.4168
v 0.362086 0.70804 -0.194976
v 0.362087 0.718855 -0.195734
v 0.36193 0.728718 -0.081703
v 0.361412 0.728549 0.296087
v 0.361669 0.73553 0.108858
v 0.211583 0.720794 0.416595
v 0.374291 0.719125 0.442789
v 0.211547 0.719125 0.442566
v 0.361247 0.720794 0.4168
v 0.211583 0.715319 0.416595
v 0.211547 0.719125 0.442566
v 0.211547 0.713651 0.442566
v 0.211583 0.720794 0.416595
v -0.346121 0.674677 0.415831
v -0.375507 0.673464 0.434316
v -0.367249 0.673102 0.439838
v -0.37556 0.650271 0.433708
v -0.381018 0.674004 0.426061
v -0.381035 0.650028 0.425251
v -0.375507 0.673464 0.434316
v -0.382778 0.682586 0.295067
v -0.382944 0.674641 0.41633
v -0.382521 0.69028 0.107837
v -0.382621 0.642987 0.180419
v -0.382778 0.682586 0.295067
v -0.382264 0.684192 -0.079392
v -0.382027 0.639591 -0.252352
v -0.382621 0.642987 0.180419
v -0.302456 0.639591 -0.456105
v -0.381674 0.639591 -0.509798
v -0.302382 0.639591 -0.509689
v 0.319972 0.639591 -0.455251
v 0.399338 0.639591 -0.508727
v 0.320046 0.639591 -0.508836
v 0.398748 0.684192 -0.078321
v 0.398392 0.642987 0.18149
v 0.398985 0.639591 -0.251281
v 0.398491 0.69028 0.108908
v 0.398234 0.682586 0.296138
v 0.398392 0.642987 0.18149
v 0.398234 0.682586 0.296138
v 0.398068 0.674641 0.4174
v 0.396116 0.674004 0.427126
v 0.396134 0.650028 0.426317
v 0.390582 0.673464 0.435366
v 0.390637 0.650271 0.434758
v 0.361247 0.674677 0.4168
v 0.390582 0.673464 0.435366
v 0.396116 0.674004 0.427126
v 0.204256 0.72095 0.442556
v -0.196493 0.713651 0.442007
v 0.211547 0.713651 0.442566
v -0.189201 0.72095 0.442017
v -0.196493 0.713651 0.442007
v -0.189201 0.72095 0.442017
v -0.196493 0.719125 0.442007
v -0.359237 0.726425 0.441784
v -0.196493 0.719125 0.442007
v -0.189201 0.726425 0.442017
v -0.359237 0.719125 0.441784
v -0.346121 0.720794 0.415831
v -0.359237 0.719125 0.441784
v -0.36832 0.719244 0.439932
v -0.382778 0.728549 0.295067
v -0.346121 0.720794 0.415831
v -0.382946 0.720678 0.417591
v -0.345956 0.728549 0.295117
v -0.382521 0.73553 0.107837
v -0.345699 0.73553 0.107888
v -0.38226 0.728718 -0.082723
v -0.345438 0.728718 -0.082673
v -0.382103 0.718855 -0.196754
v -0.345282 0.718855 -0.196704
v -0.382103 0.718855 -0.196754
v -0.345283 0.70804 -0.195946
v -0.345282 0.718855 -0.196704
v -0.382105 0.70804 -0.195996
v -0.345287 0.696215 -0.192729
v -0.382109 0.696215 -0.192779
v -0.382119 0.686511 -0.185294
v -0.345297 0.686511 -0.185243
v -0.345312 0.680397 -0.174622
v -0.382134 0.680397 -0.174672
v -0.345328 0.678797 -0.162472
v -0.38215 0.678797 -0.162522
v -0.345442 0.684192 -0.079342
v -0.382264 0.684192 -0.079392
v -0.345699 0.69028 0.107888
v -0.382521 0.69028 0.107837
v -0.345956 0.682586 0.295117
v -0.382778 0.682586 0.295067
v -0.346121 0.674677 0.415831
v -0.382944 0.674641 0.41633
v 0.398234 0.682586 0.296138
v 0.361247 0.674677 0.4168
v 0.398068 0.674641 0.4174
v 0.361412 0.682586 0.296087
v 0.361669 0.69028 0.108858
v 0.398491 0.69028 0.108908
v 0.398748 0.684192 -0.078321
v 0.361926 0.684192 -0.078372
v 0.398862 0.678797 -0.161451
v 0.36204 0.678797 -0.161502
v 0.398878 0.680397 -0.173601
v 0.362056 0.680397 -0.173652
v 0.362071 0.686511 -0.184273
v 0.398893 0.686511 -0.184223
v 0.398903 0.696215 -0.191708
v 0.362081 0.696215 -0.191759
v 0.362086 0.70804 -0.194976
v 0.398908 0.70804 -0.194926
v 0.398909 0.718855 -0.195684
v 0.362087 0.718855 -0.195734
v 0.362087 0.718855 -0.195734
v 0.398752 0.728718 -0.081653
v 0.36193 0.728718 -0.081703
v 0.398909 0.718855 -0.195684
v 0.361669 0.73553 0.108858
v 0.398491 0.73553 0.108908
v 0.361412 0.728549 0.296087
v 0.398234 0.728549 0.296138
v 0.361247 0.720794 0.4168
v 0.398066 0.720678 0.418662
v 0.361247 0.720794 0.4168
v 0.38338 0.719244 0.440963
v 0.374291 0.719125 0.442789
v 0.374291 0.726425 0.442789
v 0.211547 0.719125 0.442566
v 0.374291 0.719125 0.442789
v 0.204256 0.726425 0.442556
v 0.204256 0.72095 0.442556
v 0.211547 0.713651 0.442566
v 0.211547 0.719125 0.442566
v -0.346121 0.674677 0.415831
v -0.381018 0.674004 0.426061
v -0.375507 0.673464 0.434316
v -0.382521 0.69028 0.107837
v -0.382264 0.684192 -0.079392
v -0.382621 0.642987 0.180419
v -0.382264 0.684192 -0.079392
v -0.38215 0.678797 -0.162522
v -0.382027 0.639591 -0.252352
v -0.302456 0.678925 -0.456105
v -0.302456 0.639591 -0.456105
v -0.302382 0.639591 -0.509689
v -0.302456 0.639591 -0.456105
v 0.205487 0.663801 -0.455408
v 0.319972 0.639591 -0.455251
v 0.319972 0.678925 -0.455251
v 0.320046 0.639591 -0.508836
v 0.319972 0.639591 -0.455251
v 0.320046 0.639591 -0.508836
v 0.399342 0.630089 -0.511883
v 0.399338 0.639591 -0.508727
v 0.32005 0.630089 -0.511992
v 0.398903 0.696215 -0.191708
v 0.398985 0.639591 -0.251281
v 0.399338 0.639591 -0.508727
v -0.382109 0.696215 -0.192779
v -0.381674 0.639591 -0.509798
v -0.382027 0.639591 -0.252352
v -0.381674 0.639591 -0.509798
v -0.302378 0.630089 -0.512846
v -0.302382 0.639591 -0.509689
v -0.38167 0.630089 -0.512954
v 0.398748 0.684192 -0.078321
v 0.398985 0.639591 -0.251281
v 0.398862 0.678797 -0.161451
v 0.398491 0.69028 0.108908
v 0.398392 0.642987 0.18149
v 0.398748 0.684192 -0.078321
v 0.361247 0.674677 0.4168
v 0.396116 0.674004 0.427126
v 0.398068 0.674641 0.4174
v 0.204457 0.730388 0.295649
v -0.189201 0.72095 0.442017
v 0.204256 0.72095 0.442556
v -0.189 0.730388 0.29511
v -0.196493 0.719125 0.442007
v -0.189201 0.72095 0.442017
v -0.189201 0.726425 0.442017
v -0.189 0.735849 0.295333
v -0.359237 0.726425 0.441784
v -0.189201 0.726425 0.442017
v -0.36832 0.719244 0.439932
v -0.346121 0.720794 0.415831
v -0.36832 0.719244 0.439932
v -0.376015 0.71958 0.434684
v -0.346121 0.720794 0.415831
v -0.381151 0.720084 0.426839
v -0.382946 0.720678 0.417591
v -0.382946 0.727947 0.418058
v -0.382778 0.728549 0.295067
v -0.382946 0.720678 0.417591
v -0.382778 0.735849 0.295067
v -0.382778 0.735849 0.295067
v -0.382521 0.73553 0.107837
v -0.382778 0.728549 0.295067
v -0.382521 0.74283 0.107837
v -0.382521 0.73553 0.107837
v -0.38226 0.736017 -0.082723
v -0.38226 0.728718 -0.082723
v -0.382521 0.74283 0.107837
v -0.38226 0.728718 -0.082723
v -0.382103 0.726154 -0.196754
v -0.382103 0.718855 -0.196754
v -0.38226 0.736017 -0.082723
v -0.382103 0.718855 -0.196754
v -0.381876 0.707311 -0.36249
v -0.382105 0.70804 -0.195996
v -0.382105 0.70804 -0.195996
v -0.381674 0.639591 -0.509798
v -0.382109 0.696215 -0.192779
v -0.382109 0.696215 -0.192779
v -0.382027 0.639591 -0.252352
v -0.382119 0.686511 -0.185294
v -0.382119 0.686511 -0.185294
v -0.382027 0.639591 -0.252352
v -0.382134 0.680397 -0.174672
v -0.382134 0.680397 -0.174672
v -0.382027 0.639591 -0.252352
v -0.38215 0.678797 -0.162522
v -0.346121 0.674677 0.415831
v -0.382944 0.674641 0.41633
v -0.381018 0.674004 0.426061
v 0.398878 0.680397 -0.173601
v 0.398862 0.678797 -0.161451
v 0.398985 0.639591 -0.251281
v 0.398893 0.686511 -0.184223
v 0.398878 0.680397 -0.173601
v 0.398985 0.639591 -0.251281
v 0.398903 0.696215 -0.191708
v 0.398893 0.686511 -0.184223
v 0.398985 0.639591 -0.251281
v 0.398908 0.70804 -0.194926
v 0.398903 0.696215 -0.191708
v 0.399338 0.639591 -0.508727
v 0.398909 0.718855 -0.195684
v 0.398908 0.70804 -0.194926
v 0.399136 0.707311 -0.361419
v 0.398909 0.726154 -0.195684
v 0.398752 0.728718 -0.081653
v 0.398909 0.718855 -0.195684
v 0.398752 0.736017 -0.081653
v 0.398752 0.736017 -0.081653
v 0.398491 0.73553 0.108908
v 0.398752 0.728718 -0.081653
v 0.398491 0.74283 0.108908
v 0.398491 0.73553 0.108908
v 0.398234 0.735849 0.296138
v 0.398234 0.728549 0.296138
v 0.398491 0.74283 0.108908
v 0.398234 0.728549 0.296138
v 0.398066 0.727947 0.419129
v 0.398066 0.720678 0.418662
v 0.398234 0.735849 0.296138
v 0.361247 0.720794 0.4168
v 0.398066 0.720678 0.418662
v 0.396246 0.720084 0.427905
v 0.361247 0.720794 0.4168
v 0.391089 0.71958 0.435736
v 0.38338 0.719244 0.440963
v 0.38338 0.719244 0.440963
v 0.204457 0.735849 0.295872
v 0.204256 0.726425 0.442556
v 0.374291 0.726425 0.442789
v 0.204256 0.726425 0.442556
v 0.204256 0.72095 0.442556
v 0.211547 0.719125 0.442566
v -0.302344 0.682501 -0.537702
v -0.302456 0.678925 -0.456105
v -0.302382 0.639591 -0.509689
v -0.302456 0.678997 -0.456087
v -0.301913 0.678925 -0.456095
v -0.18797 0.663801 -0.455948
v -0.302456 0.678925 -0.456105
v 0.205487 0.663801 -0.455408
v 0.205487 0.663801 -0.455408
v 0.319972 0.678925 -0.455251
v 0.319972 0.639591 -0.455251
v 0.320084 0.682501 -0.536849
v 0.320046 0.639591 -0.508836
v 0.319972 0.678925 -0.455251
v 0.320106 0.630089 -0.552776
v 0.399342 0.630089 -0.511883
v 0.32005 0.630089 -0.511992
v 0.399398 0.630089 -0.552668
v 0.399398 0.630089 -0.552668
v 0.399338 0.639591 -0.508727
v 0.399342 0.630089 -0.511883
v 0.399403 0.654676 -0.556147
v 0.399397 0.672418 -0.551921
v 0.320046 0.639591 -0.508836
v 0.320106 0.630089 -0.552776
v 0.32005 0.630089 -0.511992
v 0.320111 0.654676 -0.556256
v 0.320084 0.682501 -0.536849
v -0.38167 0.630089 -0.512954
v -0.302322 0.630089 -0.55363
v -0.302378 0.630089 -0.512846
v -0.381614 0.630089 -0.553738
v -0.302322 0.630089 -0.55363
v -0.302382 0.639591 -0.509689
v -0.302378 0.630089 -0.512846
v -0.302317 0.654676 -0.557109
v -0.302344 0.682501 -0.537702
v -0.381674 0.639591 -0.509798
v -0.381614 0.630089 -0.553738
v -0.38167 0.630089 -0.512954
v -0.381609 0.654676 -0.557218
v -0.381615 0.672418 -0.552992
v 0.204713 0.737366 0.108639
v -0.188743 0.737366 0.1081
v -0.189 0.730388 0.29511
v -0.189201 0.726425 0.442017
v -0.189201 0.72095 0.442017
v -0.189 0.735849 0.295333
v 0.204256 0.726425 0.442556
v 0.204457 0.730388 0.295649
v 0.204256 0.72095 0.442556
v 0.204457 0.735849 0.295872
v -0.382946 0.727947 0.418058
v -0.359237 0.726425 0.441784
v -0.36832 0.726541 0.439968
v -0.376015 0.71958 0.434684
v -0.346121 0.720794 0.415831
v -0.376015 0.71958 0.434684
v -0.381151 0.720084 0.426839
v -0.381151 0.720084 0.426839
v -0.382778 0.735849 0.295067
v -0.382946 0.727947 0.418058
v -0.188743 0.74283 0.108103
v -0.382521 0.74283 0.107837
v -0.188482 0.736017 -0.082458
v -0.38226 0.736017 -0.082723
v -0.188326 0.726154 -0.196489
v -0.382103 0.726154 -0.196754
v -0.382103 0.726154 -0.196754
v -0.381876 0.707311 -0.36249
v -0.382103 0.718855 -0.196754
v -0.382105 0.70804 -0.195996
v -0.381876 0.707311 -0.36249
v -0.381674 0.639591 -0.509798
v 0.398908 0.70804 -0.194926
v 0.399338 0.639591 -0.508727
v 0.399136 0.707311 -0.361419
v 0.398909 0.726154 -0.195684
v 0.398909 0.718855 -0.195684
v 0.399136 0.707311 -0.361419
v 0.398909 0.726154 -0.195684
v 0.204975 0.736017 -0.081918
v 0.398752 0.736017 -0.081653
v 0.205131 0.726154 -0.195949
v 0.204713 0.74283 0.108642
v 0.398491 0.74283 0.108908
v 0.398234 0.735849 0.296138
v 0.398066 0.727947 0.419129
v 0.396246 0.720084 0.427905
v 0.361247 0.720794 0.4168
v 0.396246 0.720084 0.427905
v 0.391089 0.71958 0.435736
v 0.391089 0.71958 0.435736
v 0.383379 0.726541 0.440998
v 0.374291 0.726425 0.442789
v 0.398066 0.727947 0.419129
v -0.302458 0.686916 -0.454163
v -0.302456 0.678997 -0.456087
v -0.302344 0.682501 -0.537702
v -0.302456 0.678925 -0.456105
v -0.302456 0.678997 -0.456087
v -0.18797 0.678925 -0.455948
v -0.302458 0.686916 -0.454163
v -0.187973 0.686916 -0.454006
v -0.302456 0.678925 -0.456105
v -0.302456 0.678997 -0.456087
v -0.301913 0.678925 -0.456095
v 0.205366 0.676258 -0.367382
v -0.18797 0.663801 -0.455948
v -0.188091 0.676258 -0.367921
v 0.205487 0.663801 -0.455408
v 0.205487 0.678925 -0.455408
v 0.205487 0.663801 -0.455408
v 0.31997 0.686916 -0.453309
v 0.320084 0.682501 -0.536849
v 0.319972 0.678925 -0.455251
v 0.399398 0.630089 -0.552668
v 0.320111 0.654676 -0.556256
v 0.399403 0.654676 -0.556147
v 0.320106 0.630089 -0.552776
v 0.399397 0.672418 -0.551921
v 0.399403 0.654676 -0.556147
v 0.399402 0.663947 -0.555714
v 0.399376 0.682501 -0.53674
v 0.399338 0.639591 -0.508727
v 0.399397 0.672418 -0.551921
v 0.320084 0.682501 -0.536849
v 0.320096 0.678914 -0.545401
v 0.320111 0.654676 -0.556256
v -0.381614 0.630089 -0.553738
v -0.302317 0.654676 -0.557109
v -0.302322 0.630089 -0.55363
v -0.381609 0.654676 -0.557218
v -0.302344 0.682501 -0.537702
v -0.302317 0.654676 -0.557109
v -0.302332 0.678914 -0.546254
v -0.381636 0.682501 -0.537811
v -0.381615 0.672418 -0.552992
v -0.381674 0.639591 -0.509798
v -0.381615 0.672418 -0.552992
v -0.38161 0.663947 -0.556785
v -0.381609 0.654676 -0.557218
v -0.188743 0.737366 0.1081
v -0.189 0.735849 0.295333
v -0.189 0.730388 0.29511
v -0.188743 0.74283 0.108103
v 0.204457 0.735849 0.295872
v 0.204713 0.737366 0.108639
v 0.204457 0.730388 0.295649
v 0.204713 0.74283 0.108642
v -0.188482 0.730558 -0.082178
v 0.204974 0.730558 -0.081638
v -0.382946 0.727947 0.418058
v -0.381152 0.727364 0.427128
v -0.359237 0.726425 0.441784
v -0.381152 0.727364 0.427128
v -0.36832 0.726541 0.439968
v -0.359237 0.726425 0.441784
v -0.376016 0.726871 0.434821
v -0.381152 0.727364 0.427128
v -0.188482 0.736017 -0.082458
v -0.188743 0.737366 0.1081
v -0.188482 0.730558 -0.082178
v -0.188743 0.74283 0.108103
v -0.188326 0.726154 -0.196489
v -0.188482 0.730558 -0.082178
v -0.188326 0.720718 -0.195944
v -0.188482 0.736017 -0.082458
v -0.381876 0.707311 -0.36249
v -0.188098 0.707311 -0.362224
v -0.381876 0.707311 -0.36249
v -0.381636 0.682501 -0.537811
v -0.381674 0.639591 -0.509798
v 0.399136 0.707311 -0.361419
v 0.399338 0.639591 -0.508727
v 0.399376 0.682501 -0.53674
v 0.205358 0.707311 -0.361685
v 0.399136 0.707311 -0.361419
v 0.204974 0.730558 -0.081638
v 0.205131 0.726154 -0.195949
v 0.20513 0.720718 -0.195405
v 0.204975 0.736017 -0.081918
v 0.204713 0.737366 0.108639
v 0.204975 0.736017 -0.081918
v 0.204974 0.730558 -0.081638
v 0.204713 0.74283 0.108642
v 0.396246 0.727364 0.428193
v 0.391089 0.726871 0.435873
v 0.398066 0.727947 0.419129
v 0.374291 0.726425 0.442789
v 0.383379 0.726541 0.440998
v -0.302466 0.693125 -0.44877
v -0.302458 0.686916 -0.454163
v -0.302344 0.682501 -0.537702
v -0.18798 0.693125 -0.448613
v -0.18797 0.678925 -0.455948
v -0.187973 0.686916 -0.454006
v -0.302466 0.693125 -0.44877
v -0.18798 0.693125 -0.448613
v -0.18799 0.696167 -0.440973
v -0.18797 0.663801 -0.455948
v -0.18797 0.678925 -0.455948
v -0.18799 0.696167 -0.440973
v -0.188091 0.676258 -0.367921
v -0.18797 0.663801 -0.455948
v -0.18811 0.682942 -0.353728
v 0.205347 0.682942 -0.353188
v 0.205466 0.696167 -0.440434
v 0.205487 0.663801 -0.455408
v 0.205366 0.676258 -0.367382
v 0.205484 0.686916 -0.453466
v 0.31997 0.686916 -0.453309
v 0.205477 0.693125 -0.448074
v 0.205487 0.678925 -0.455408
v 0.205487 0.663801 -0.455408
v 0.319962 0.693125 -0.447917
v 0.320084 0.682501 -0.536849
v 0.31997 0.686916 -0.453309
v 0.399402 0.663947 -0.555714
v 0.32011 0.663947 -0.555823
v 0.399397 0.672418 -0.551921
v 0.320105 0.672418 -0.55203
v 0.399376 0.682501 -0.53674
v 0.399397 0.672418 -0.551921
v 0.399388 0.678914 -0.545292
v 0.399388 0.678914 -0.545292
v 0.320084 0.682501 -0.536849
v 0.399376 0.682501 -0.53674
v 0.320096 0.678914 -0.545401
v 0.320096 0.678914 -0.545401
v 0.32011 0.663947 -0.555823
v 0.320111 0.654676 -0.556256
v -0.38161 0.663947 -0.556785
v -0.302318 0.663947 -0.556676
v -0.302332 0.678914 -0.546254
v -0.302317 0.654676 -0.557109
v -0.302318 0.663947 -0.556676
v -0.302332 0.678914 -0.546254
v -0.381636 0.682501 -0.537811
v -0.302344 0.682501 -0.537702
v -0.381624 0.678914 -0.546363
v -0.381636 0.682501 -0.537811
v -0.381624 0.678914 -0.546363
v -0.381615 0.672418 -0.552992
v -0.302323 0.672418 -0.552883
v -0.381615 0.672418 -0.552992
v 0.20513 0.720718 -0.195405
v -0.188326 0.720718 -0.195944
v -0.381152 0.727364 0.427128
v -0.376016 0.726871 0.434821
v -0.36832 0.726541 0.439968
v -0.188326 0.726154 -0.196489
v -0.188326 0.720718 -0.195944
v -0.188134 0.704803 -0.335917
v -0.188326 0.726154 -0.196489
v -0.188134 0.704803 -0.335917
v -0.188098 0.707311 -0.362224
v -0.302476 0.696167 -0.44113
v 0.319952 0.696167 -0.440277
v 0.205131 0.726154 -0.195949
v 0.205358 0.707311 -0.361685
v 0.205322 0.704803 -0.335378
v 0.205131 0.726154 -0.195949
v 0.205322 0.704803 -0.335378
v 0.20513 0.720718 -0.195405
v 0.398066 0.727947 0.419129
v 0.383379 0.726541 0.440998
v 0.396246 0.727364 0.428193
v 0.396246 0.727364 0.428193
v 0.383379 0.726541 0.440998
v 0.391089 0.726871 0.435873
v -0.302476 0.696167 -0.44113
v -0.302466 0.693125 -0.44877
v -0.302344 0.682501 -0.537702
v -0.18799 0.696167 -0.440973
v -0.18797 0.678925 -0.455948
v -0.18798 0.693125 -0.448613
v -0.18799 0.696167 -0.440973
v -0.188098 0.707311 -0.362224
v -0.188091 0.676258 -0.367921
v -0.18799 0.696167 -0.440973
v -0.188098 0.707311 -0.362224
v -0.18811 0.682942 -0.353728
v -0.188091 0.676258 -0.367921
v 0.205331 0.693619 -0.341692
v -0.188126 0.693618 -0.342232
v 0.205358 0.707311 -0.361685
v 0.205366 0.676258 -0.367382
v 0.205347 0.682942 -0.353188
v 0.205358 0.707311 -0.361685
v 0.205466 0.696167 -0.440434
v 0.205366 0.676258 -0.367382
v 0.205466 0.696167 -0.440434
v 0.205477 0.693125 -0.448074
v 0.205487 0.663801 -0.455408
v 0.205477 0.693125 -0.448074
v 0.205484 0.686916 -0.453466
v 0.205487 0.678925 -0.455408
v 0.319962 0.693125 -0.447917
v 0.205477 0.693125 -0.448074
v 0.319952 0.696167 -0.440277
v 0.320084 0.682501 -0.536849
v 0.319962 0.693125 -0.447917
v 0.320096 0.678914 -0.545401
v 0.320105 0.672418 -0.55203
v 0.32011 0.663947 -0.555823
v -0.302332 0.678914 -0.546254
v -0.302318 0.663947 -0.556676
v -0.302323 0.672418 -0.552883
v -0.188134 0.704803 -0.335917
v 0.205322 0.704803 -0.335378
v -0.188098 0.707311 -0.362224
v -0.188134 0.704803 -0.335917
v -0.188126 0.693618 -0.342232
v 0.205466 0.696167 -0.440434
v 0.205358 0.707311 -0.361685
v 0.205331 0.693619 -0.341692
v 0.205322 0.704803 -0.335378
v -0.188098 0.707311 -0.362224
v -0.188126 0.693618 -0.342232
v -0.18811 0.682942 -0.353728
v -0.188134 0.704803 -0.335917
v 0.205322 0.704803 -0.335378
v 0.205358 0.707311 -0.361685
v 0.205347 0.682942 -0.353188
v 0.205331 0.693619 -0.341692
vn -0.10381385652136699 -0.005192240616254673 0.9945831910059327
vn 0.1123528991731489 -8.799669310817348e-09 0.9936683682433431
vn 0.10108634757314515 -0.005192240495935966 0.9948641067869288
vn -0.11507708709320061 -8.933217651333561e-09 0.9933565643947513
vn -8.963270122869067e-05 0.9978605830281357 0.06537773936691244
vn -0.40677706853692225 -0.007279525915598669 0.9134984537561912
vn -3.941061884469891e-05 -0.9995867312918413 0.028746566266168023
vn -2.508565291881819e-05 -0.9998325786531644 0.0182979243214479
vn 0.40427075272167684 -0.007279525439346209 0.9146103908239983
vn -8.963270112298371e-05 0.9978605830281357 0.06537773936691257
vn -0.0013709870042870216 -8.924362803700185e-09 0.9999990601968753
vn -8.96327013447436e-05 0.9978605830281357 0.06537773936691228
vn -0.3882396966454538 -0.016289127062117024 0.921414457390484
vn -3.9410618736915406e-05 -0.9995867312918413 0.02874656626616817
vn -0.9999990601968755 0.0 -0.0013709870042797707
vn -0.9958497544286203 -0.0029828682987490867 0.0909635591936089
vn -5.378713740162577e-06 -0.9999923023762044 0.003923666576992325
vn 0.9999990601968756 0.0 0.0013709870042506829
vn 0.9955965913424074 -0.0029828671293590735 0.0936938088193034
vn -3.941061891736815e-05 -0.9995867312918413 0.028746566266167922
vn 0.38571174507085854 -0.016289126607647798 0.9224755357562351
vn -8.963270106605707e-05 0.9978605830281357 0.06537773936691266
vn 8.790008862916791e-05 -0.9979425790548966 -0.06411397026261693
vn -0.9999990601968755 0.0 -0.0013709870043113566
vn 8.790008863880255e-05 -0.9979425790548966 -0.06411397026261692
vn -0.9999990601968755 0.0 -0.0013709870043085255
vn 0.9999990601968755 0.0 0.0013709870042920387
vn 8.790008863263736e-05 -0.9979425790548966 -0.06411397026261693
vn 0.9999990601968755 0.0 0.0013709870042900403
vn -8.96327013603665e-05 0.9978605830281357 0.06537773936691225
vn -0.7216567138776225 -0.012953246640030466 0.6921299016202334
vn -0.9259057447955265 -0.012786902992567158 0.3775381396183701
vn -0.929604167430807 -0.009818928216683197 0.3684286641182414
vn -0.7113001720263353 -0.018920325885341597 0.7026336787713056
vn -0.9999990601968753 0.0 -0.0013709870044118872
vn -0.9954728899110031 -0.0037470244577991734 0.09497202356456785
vn -0.9999990601968756 0.0 -0.0013709870042457424
vn -0.9999990601968755 0.0 -0.0013709870043326728
vn 0.0 -1.0 -8.923531556802234e-09
vn 0.9999990601968753 0.0 0.0013709870043452739
vn 0.9999990601968753 0.0 0.0013709870043530454
vn 0.9999990601968755 0.0 0.0013709870043010315
vn 0.9952087371476107 -0.0037470232888582073 0.0977012247698604
vn 0.924867065342532 -0.012786901905781542 0.3800755274736119
vn 0.9285904519927557 -0.009818927125539447 0.37097622718712464
vn 0.7093708966471962 -0.018920325051114472 0.7045814021743074
vn 0.7197562006159252 -0.0129532457936236 0.6941060618510246
vn -8.963270124628075e-05 0.9978605830281357 0.06537773936691241
vn -0.001370987004284246 -8.927063287347154e-09 0.9999990601968753
vn -0.0013709870031009715 -8.927900888308302e-09 0.999999060196877
vn -0.10066788038970634 -0.0010225549330843415 0.9949195606878238
vn -0.0013709870043505264 -8.923879993392219e-09 0.9999990601968752
vn -0.10065088562696334 -8.938303815910122e-09 0.9949218055819802
vn 8.790008879321015e-05 -0.9979425790548968 -0.06411397026261673
vn 6.949841761826997e-05 -0.9987143430617428 -0.05069177578978417
vn 8.790008863286634e-05 -0.9979425790548966 -0.06411397026261693
vn 1.0525782786010282e-06 -0.9999997056070008 -0.0007673231416673781
vn -8.358780008052227e-05 -0.9981396298110088 0.0609694383590839
vn -0.00011814179649298129 -0.9962801684493404 0.0861731512541449
vn -0.0013676341283813428 0.0698946662774773 0.9975534397729532
vn -0.0013517299654711246 0.16701818590324186 0.9859528885315415
vn -0.0012276456247203226 0.44516936462461265 0.895445548141225
vn -0.0009019669666433375 0.7531090101711877 0.6578951324144032
vn -0.00043985943691944585 0.9471355313308083 0.32083343313062523
vn -4.5304591248088654e-05 0.9994538711548256 0.033044778424541586
vn 6.667465733358405e-05 0.9988167144067773 -0.04863297827750411
vn -5.8719285246283004e-06 0.9999908297754059 0.004282561221471742
vn -7.296563849491718e-05 0.9985827679044288 0.05322076963315404
vn -8.96327012472869e-05 0.9978605830281357 0.06537773936691241
vn -7.296563843482629e-05 0.9985827679044288 0.053220769633154114
vn -8.963270118701572e-05 0.9978605830281357 0.06537773936691249
vn -5.8719284678566795e-06 0.9999908297754059 0.00428256122147182
vn 6.667465736503867e-05 0.9988167144067773 -0.04863297827750407
vn -4.530459123704637e-05 0.9994538711548256 0.0330447784245416
vn -0.0004398594369036498 0.9471355313308083 0.32083343313062523
vn -0.0009019669666230635 0.7531090101711877 0.6578951324144032
vn -0.0012276456246996385 0.44516936462461265 0.895445548141225
vn -0.0013517299654518537 0.1670181859032419 0.9859528885315417
vn -0.001367634128362136 0.0698946662774773 0.9975534397729532
vn -0.00011814179650197755 -0.9962801684493404 0.08617315125414489
vn -8.358780010536796e-05 -0.9981396298110088 0.06096943835908387
vn 1.0525782166779131e-06 -0.9999997056070008 -0.000767323141667463
vn 6.94984175423404e-05 -0.9987143430617428 -0.050691775789784274
vn 8.790008856410545e-05 -0.9979425790548968 -0.06411397026261705
vn 8.790008844004506e-05 -0.9979425790548968 -0.06411397026261721
vn 0.09793946094691657 -0.001022554816460842 0.9951918490276509
vn -0.0013709870043277668 -8.925104819036405e-09 0.9999990601968753
vn 0.09792246009142395 -8.822318265177172e-09 0.9951940473142127
vn -0.0013709870035913008 -8.926714709362627e-09 0.9999990601968763
vn -8.963270122602267e-05 0.9978605830281357 0.06537773936691244
vn -0.9999990601968752 0.0 -0.0013709870044221566
vn -0.9999990601968758 0.0 -0.0013709870040877579
vn 0.9999990601968756 0.0 0.0013709870042133794
vn 0.0013508789066190559 9.612626948960882e-05 -0.9999990829425395
vn 0.0013709870042496626 8.92380071549577e-09 -0.9999990601968755
vn -0.9999990601968755 0.0 -0.001370987004285988
vn -0.0013010912505323064 -0.31522168382844684 0.9490171743471856
vn 0.9999990601968755 0.0 0.0013709870043002543
vn -0.9999990601968755 0.0 -0.0013709870043118006
vn -0.0013010912505814337 -0.31522168382844684 0.9490171743471856
vn 0.9999990601968757 0.0 0.001370987004160755
vn 0.9999990601968755 0.0 0.0013709870043295087
vn -8.963270118918065e-05 0.9978605830281357 0.06537773936691249
vn -6.951426018001627e-05 0.9987137564659716 0.05070333138360343
vn -8.790008862817912e-05 0.9979425790548966 0.06411397026261693
vn -0.0013709870039706083 -8.924426968597076e-09 0.9999990601968758
vn -6.949841759971919e-05 0.9987143430617428 0.0506917757897842
vn -8.79000886421471e-05 0.9979425790548966 0.06411397026261692
vn -0.3856145252542486 -0.0034485034585441934 0.9226535350481442
vn 8.79000887422198e-05 -0.9979425790548968 -0.0641139702626168
vn 8.790008864013135e-05 -0.9979425790548966 -0.06411397026261692
vn -0.9954209407039408 -0.005209447469928375 0.0954463852911134
vn -0.9999990601968752 0.0 -0.0013709870044486356
vn -0.9954950736508217 -0.006166176318034882 0.09461256051159406
vn -0.9999990601968755 0.0 -0.0013709870043234025
vn -0.9999990601968755 0.0 -0.001370987004288153
vn -0.9999990601968753 0.0 -0.001370987004348216
vn -0.9999990601968752 0.0 -0.0013709870044569066
vn -0.9999990601968755 0.0 -0.0013709870043014756
vn -0.9999990601968757 0.0 -0.0013709870041016912
vn -0.9999990601968742 0.0 -0.0013709870051994786
vn -0.9999990601968772 0.0 -0.0013709870029856956
vn -8.963270125663011e-05 0.9978605830281357 0.0653777393669124
vn 0.9999990601968755 0.0 0.0013709870043150758
vn 0.9999990601968762 0.0 0.001370987003727824
vn 0.9999990601968757 0.0 0.0013709870041601444
vn 0.999999060196875 0.0 0.001370987004605843
vn 0.9999990601968755 0.0 0.0013709870043300083
vn 0.9999990601968752 0.0 0.0013709870044313717
vn 0.9999990601968755 0.0 0.001370987004320516
vn 0.9999990601968752 0.0 0.0013709870044467483
vn 0.9999990601968751 0.0 0.0013709870045470012
vn 0.9951554874512515 -0.0052094463010491825 0.09817544226994095
vn 0.995231906444299 -0.006166175149067284 0.0973418238953687
vn 8.79000885688239e-05 -0.9979425790548968 -0.06411397026261703
vn 8.790008857009719e-05 -0.9979425790548968 -0.06411397026261703
vn 0.38308318601760677 -0.0034485030071599878 0.9237074106109625
vn -6.949841759897911e-05 0.9987143430617428 0.0506917757897842
vn -8.790008862841157e-05 0.9979425790548966 0.06411397026261693
vn -0.0013709870024796364 -8.922272312564363e-09 0.999999060196878
vn 0.9999990601968752 0.0 0.0013709870044873822
vn 0.0013411188103145003 0.11892309968856822 -0.9929025620677991
vn 0.0013459933473130034 8.013048961683048e-06 -0.9999990941184398
vn 0.001347803017375672 0.0001108291185711039 -0.9999990855715484
vn 0.0013709870042479973 8.923830437294414e-09 -0.9999990601968755
vn 0.0013709870043819455 8.924427652767286e-09 -0.9999990601968752
vn 0.001361260965039871 0.11890309915428238 -0.9929049299807571
vn -0.9999990601968753 0.0 -0.0013709870044066692
vn 0.0 -1.0 -8.923546684827142e-09
vn 0.9999990601968755 0.0 0.001370987004259176
vn -0.9999990601968762 0.0 -0.001370987003693518
vn 0.0 -1.0 -8.923546697935923e-09
vn 0.9999990601968763 0.0 0.0013709870036615437
vn -0.9999990601968761 0.0 -0.0013709870037838345
vn -1.048645027359346e-06 0.9999997078042605 0.0007644542458964981
vn 0.9999990601968752 0.0 0.0013709870044827748
vn -0.9999990601968753 0.0 -0.0013709870043722523
vn -8.790008862713481e-05 0.9979425790548966 0.06411397026261693
vn -0.3885179052102365 -0.007011735005085653 0.9214144957093241
vn -0.7093285889181935 -0.01070760555044143 0.7047966374257901
vn 8.790008860139155e-05 -0.9979425790548966 -0.06411397026261698
vn -0.9243060850398113 -0.01365520350470143 0.3814076514382246
vn -6.949841759571654e-05 0.9987143430617428 0.0506917757897842
vn -8.790008862744013e-05 0.9979425790548966 0.06411397026261693
vn -1.0525782454353426e-06 0.9999997056070008 0.0007673231416674235
vn 8.358780009769282e-05 0.9981396298110088 -0.06096943835908388
vn 0.00013652154347545685 0.9950296144997068 -0.09957935343449872
vn -0.9999990601968752 0.0 -0.001370987004483774
vn -0.9999990601968752 0.0 -0.0013709870044551304
vn 0.9999990601968755 0.0 0.0013709870043318402
vn 0.9999990601968752 0.0 0.0013709870044671764
vn 0.00013652154346740873 0.9950296144997068 -0.09957935343449872
vn 8.358780008733236e-05 0.9981396298110088 -0.060969438359083895
vn -1.0525782545504395e-06 0.9999997056070008 0.0007673231416674111
vn -6.9498417599234e-05 0.9987143430617428 0.0506917757897842
vn -8.790008863053487e-05 0.9979425790548966 0.06411397026261693
vn 0.9232568015104302 -0.013655202419800703 0.3839406385258068
vn 8.79000885793606e-05 -0.9979425790548968 -0.06411397026261702
vn 0.707393390170167 -0.010707604718533235 0.7067389466732037
vn 0.385989952473832 -0.007011734550289693 0.9224763369148529
vn -8.790008863751192e-05 0.9979425790548966 0.06411397026261692
vn 0.9999990601968752 0.0 0.0013709870044843846
vn 0.0013177075151079329 0.23591579849871067 -0.9717726069742965
vn 0.0013154763625383853 0.11879850146067919 -0.9929175119679562
vn 0.0012106784436931492 0.4587923084058186 -0.8885427125385511
vn 0.01692562397239946 0.2360903919197955 -0.9715836814687154
vn 0.00039249096239957 0.9581448329118335 -0.2862836445122203
vn 0.00019209292413781325 0.9901354779892196 -0.1401131625771411
vn 0.001361260965034235 0.11890309915428236 -0.992904929980757
vn 0.0013709870043697333 8.924520604263046e-09 -0.9999990601968752
vn -0.9999990601968755 0.0 -0.0013709870043206824
vn 0.0013574629574947062 -0.14011328173940554 -0.9901345492277971
vn 0.0013694748455311716 -0.04695492935018814 -0.9988960702437297
vn 0.9999990601968638 0.0 0.0013709870128109385
vn 0.9999990601968775 0.0 0.0013709870028211608
vn -0.9999990601968748 0.0 -0.001370987004789085
vn 0.001357462957548663 -0.14011328173940554 -0.9901345492277971
vn 0.0013694748455860904 -0.04695492935018814 -0.9988960702437297
vn 0.9999990601968761 0.0 0.0013709870038055394
vn -0.9999990601968761 0.0 -0.0013709870037689575
vn -0.9999990601968795 0.0 -0.0013709870013714333
vn 0.9999990601968753 0.0 0.001370987004360706
vn -0.9999990601968756 0.0 -0.0013709870042386925
vn 8.360757131807369e-05 0.998138748816669 -0.060983859507813244
vn -8.7900088737366e-05 0.9979425790548968 0.0641139702626168
vn -8.79000885082682e-05 0.9979425790548968 0.06411397026261711
vn -0.7124734295469757 -0.015703635543067442 0.7015233481647644
vn -0.9254366056972989 -0.015042062843161896 0.3786037838966808
vn 0.9999990601968755 0.0 0.0013709870043046952
vn 0.9999990601968753 0.0 0.0013709870043707535
vn 0.00017350097808211816 0.9919599361939122 -0.12655218245285274
vn 0.0001735009780817212 0.9919599361939122 -0.12655218245285274
vn -0.9999990601968755 0.0 -0.0013709870043271217
vn 0.9999990601968753 0.0 0.0013709870043617052
vn 0.00017350097807485455 0.9919599361939122 -0.12655218245285274
vn 0.00017350097808699507 0.9919599361939122 -0.12655218245285274
vn -0.9999990601968756 0.0 -0.0013709870042469636
vn -0.9999990601968755 0.0 -0.001370987004281658
vn 0.9243950060443781 -0.015042061756928956 0.3811398813799399
vn 0.7105471942483392 -0.015703634707460643 0.7034742927803316
vn -8.79000887362523e-05 0.9979425790548968 0.06411397026261681
vn 0.999999060196875 0.0 0.0013709870046019572
vn 0.9999990601968726 0.0 0.0013709870063772574
vn 0.0007935934667299416 0.8154350167953316 -0.5788480833460594
vn 0.9999990601968773 0.0 0.0013709870029105337
vn 0.9999990601968753 0.0 0.001370987004383743
vn 0.0007676532672724828 0.8285413961758308 -0.5599272859322595
vn -0.9999990601968755 0.0 -0.0013709870043246237
vn 0.001218115537486899 0.4588852978326056 -0.8884946818229236
vn -0.9999990601968776 0.0 -0.001370987002741725
vn -0.9999990601968756 0.0 -0.0013709870042159884
vn 0.00133367422011996 0.23171339811814673 -0.9727831836774401
vn 0.0011250965946418543 0.5714348897728195 -0.8206466358354112
vn 0.9999990601968738 0.0 0.0013709870055166134
vn 0.000758472693046444 0.8330275621024302 -0.5532309693942083
vn 0.0003641762402230281 0.9640747433937039 -0.26563086516071527
vn 0.0003641762402260563 0.9640747433937039 -0.26563086516071527
vn -0.9999990601968708 0.0 -0.0013709870076555673
vn 0.001333674220180865 0.2317133981181467 -0.9727831836774399
vn 0.9999990601968753 0.0 0.0013709870043817447
vn 0.0007584726930967244 0.8330275621024302 -0.5532309693942083
vn 0.00036417624023612544 0.9640747433937039 -0.26563086516071527
vn 0.00036417624024250256 0.9640747433937039 -0.2656308651607152
vn -0.9999990601968728 0.0 -0.0013709870062352048
vn 0.001125096594700782 0.5714348897728195 -0.8206466358354112
vn 0.00013652154347021923 0.9950296144997068 -0.09957935343449872
vn -8.790008936951252e-05 0.9979425790548968 0.06411397026261594
vn 0.9999990601968753 0.0 0.0013709870043423318
vn 0.9999990601968749 0.0 0.0013709870046601327
vn 0.00027231336864545855 0.9800753191242305 -0.1986260171502386
vn 0.00027231336865462646 0.9800753191242305 -0.19862601715023856
vn -0.9999990601968751 0.0 -0.0013709870045396737
vn -0.9999990601968755 0.0 -0.0013709870043066936
vn -8.790008823665245e-05 0.9979425790548968 0.06411397026261749
vn -8.790008791840385e-05 0.9979425790548968 0.06411397026261792
vn 0.9999990601968756 0.0 0.0013709870042277568
vn 0.999999060196874 0.0 0.0013709870053206597
vn 0.0003521367667540743 0.9664514118488499 -0.2568492642291625
vn 0.9999990601968756 0.0 0.0013709870042139347
vn 0.9999990601968751 0.0 0.0013709870045274612
vn 0.0010761963663023012 0.6195217044233247 -0.7849787892356073
vn -0.9999990601968755 0.0 -0.001370987004298922
vn -0.9999990601968755 0.0 -0.0013709870043046952
vn -0.9999990601968792 0.0 -0.0013709870015314162
vn -0.999999060196868 0.0 -0.0013709870097493905
vn 0.0007935934667185377 0.8154350167953316 -0.5788480833460594
vn -0.9999990601968746 0.0 -0.0013709870049224227
vn -0.9999990601968773 0.0 -0.0013709870029430078
vn 0.9999990601968782 0.0 0.0013709870022945822
vn 0.0001548765185865658 0.9935986729617353 -0.11296748692408087
vn 0.9999990601968746 0.0 0.0013709870049115982
vn 0.00035213676675033544 0.9664514118488499 -0.2568492642291625
vn -0.9999990601968748 0.0 -0.0013709870048104014
vn 0.9999990601968746 0.0 0.0013709870049513997
vn 0.0011938673819309018 0.49162168188170446 -0.870808071037745
vn -0.9999990601968733 0.0 -0.0013709870058283642
usemtl material_0_0
f 1//1 2//2 3//3
f 2//2 1//1 4//4
f 5//5 6//5 7//5
f 6//5 5//5 8//5
f 9//6 4//4 1//1
f 10//7 11//7 12//7
f 11//7 10//7 13//7
f 13//7 10//7 14//8
f 13//7 14//8 15//8
f 2//2 16//9 3//3
f 17//10 18//10 19//10
f 20//11 21//11 22//11
f 23//11 24//11 25//11
f 24//11 23//11 26//11
f 26//11 23//11 27//11
f 24//11 26//11 21//11
f 24//11 21//11 20//11
f 28//12 29//12 30//12
f 9//6 1//1 31//13
f 32//14 33//14 34//14
f 33//14 32//14 35//14
f 33//14 35//14 36//14
f 37//15 38//15 39//16
f 40//17 15//8 14//8
f 15//8 40//17 41//17
f 42//18 43//19 44//18
f 45//20 46//20 47//20
f 46//20 45//20 48//20
f 48//20 45//20 49//20
f 3//3 16//9 50//21
f 51//22 52//22 53//22
f 54//23 55//23 56//23
f 55//23 54//23 57//23
f 58//24 59//24 60//24
f 59//24 58//24 61//24
f 62//25 63//25 64//25
f 63//25 62//25 65//25
f 66//26 67//26 68//26
f 67//26 66//26 69//26
f 69//26 66//26 70//26
f 70//26 66//26 71//26
f 71//26 66//26 72//26
f 72//26 66//26 73//26
f 73//26 66//26 74//26
f 73//26 74//26 75//26
f 76//26 77//26 78//26
f 77//26 76//26 79//26
f 79//26 76//26 69//26
f 79//26 69//26 70//26
f 80//27 81//27 82//27
f 81//27 80//27 83//27
f 81//27 83//27 84//27
f 84//27 83//27 85//27
f 86//27 87//27 88//27
f 87//27 86//27 84//27
f 87//27 84//27 85//27
f 87//27 85//27 89//27
f 87//27 89//27 90//27
f 87//27 90//27 91//27
f 87//27 91//27 92//27
f 92//27 91//27 93//27
f 94//28 95//28 96//28
f 95//28 94//28 97//28
f 98//29 99//29 100//29
f 99//29 98//29 101//29
f 102//30 103//30 104//30
f 105//31 9//6 31//13
f 106//32 39//16 107//33
f 108//34 107//33 105//31
f 109//35 39//16 110//36
f 111//37 112//37 113//37
f 114//38 115//38 116//38
f 40//17 117//39 41//17
f 117//39 40//17 118//39
f 117//39 118//39 119//39
f 41//17 120//39 121//39
f 120//39 41//17 117//39
f 121//39 120//39 122//39
f 123//40 124//40 125//40
f 126//41 127//41 128//41
f 129//42 130//43 43//19
f 131//44 132//45 43//19
f 133//46 134//47 132//45
f 50//21 16//9 134//47
f 50//21 134//47 133//46
f 135//48 136//48 137//48
f 138//49 139//49 140//49
f 139//49 138//49 141//49
f 142//50 143//50 144//50
f 145//51 146//52 147//52
f 146//52 145//51 148//53
f 149//54 150//54 151//54
f 152//55 153//56 154//56
f 153//56 152//55 155//55
f 156//57 155//55 152//55
f 155//55 156//57 157//57
f 158//58 157//57 156//57
f 157//57 158//58 159//58
f 160//59 159//58 158//58
f 159//58 160//59 161//59
f 162//60 163//61 164//60
f 163//61 162//60 165//61
f 165//61 166//62 163//61
f 166//62 165//61 167//62
f 166//62 168//63 169//63
f 168//63 166//62 167//62
f 170//64 168//63 171//64
f 168//63 170//64 169//63
f 172//65 171//64 173//65
f 171//64 172//65 170//64
f 174//66 173//65 175//66
f 173//65 174//66 172//65
f 176//67 175//66 177//67
f 175//66 176//67 174//66
f 178//68 177//67 179//68
f 177//67 178//68 176//67
f 180//69 179//68 181//69
f 179//68 180//69 178//68
f 182//70 183//71 184//71
f 183//71 182//70 185//70
f 182//70 186//72 185//70
f 186//72 182//70 187//72
f 188//73 186//72 187//72
f 186//72 188//73 189//73
f 190//74 189//73 188//73
f 189//73 190//74 191//74
f 192//75 191//74 190//74
f 191//74 192//75 193//75
f 192//75 194//76 193//75
f 194//76 192//75 195//76
f 196//77 194//76 195//76
f 194//76 196//77 197//77
f 198//78 196//77 199//78
f 196//77 198//78 197//77
f 200//79 198//78 199//78
f 198//78 200//79 201//79
f 202//80 203//81 204//81
f 203//81 202//80 205//80
f 206//82 203//81 207//82
f 203//81 206//82 204//81
f 208//83 207//82 209//83
f 207//82 208//83 206//82
f 210//84 209//83 211//84
f 209//83 210//84 208//83
f 212//85 213//85 214//85
f 215//86 216//87 217//88
f 216//87 215//86 218//87
f 219//89 220//89 221//89
f 105//31 31//13 108//34
f 222//90 223//90 224//90
f 110//36 39//16 106//32
f 106//32 107//33 108//34
f 225//91 226//91 227//91
f 228//92 229//92 230//92
f 231//93 232//93 233//93
f 234//94 235//95 236//95
f 237//96 238//96 239//96
f 240//97 241//97 242//97
f 241//97 240//97 243//97
f 244//98 245//98 246//98
f 247//99 248//99 249//99
f 250//100 251//100 252//100
f 251//100 250//100 253//100
f 254//101 255//101 256//101
f 257//102 258//102 259//102
f 130//43 131//44 43//19
f 131//44 133//46 132//45
f 260//103 261//103 262//103
f 263//104 264//105 265//105
f 264//105 263//104 266//104
f 267//106 268//106 269//106
f 270//107 271//108 272//108
f 273//109 148//53 145//51
f 274//110 275//110 276//110
f 277//111 278//111 279//111
f 280//112 281//113 282//114
f 281//113 280//112 283//113
f 284//115 285//115 286//115
f 285//115 284//115 287//115
f 288//116 289//116 290//116
f 289//116 288//116 291//116
f 292//117 293//117 294//117
f 293//117 292//117 295//117
f 296//118 297//118 298//118
f 299//119 300//119 301//119
f 302//120 303//120 304//120
f 305//121 306//121 307//121
f 308//122 309//122 310//122
f 311//123 312//123 313//123
f 314//124 315//124 316//124
f 317//125 318//125 319//125
f 320//126 321//126 322//126
f 323//127 324//127 325//127
f 326//128 327//128 328//128
f 329//129 330//129 331//129
f 330//129 329//129 332//129
f 333//130 334//130 335//130
f 334//130 333//130 336//130
f 337//131 338//131 339//131
f 338//131 337//131 340//131
f 341//132 342//133 343//134
f 342//133 341//132 344//132
f 345//135 346//135 347//135
f 348//136 349//136 350//136
f 215//86 217//88 351//137
f 352//138 353//139 354//139
f 355//140 356//140 357//140
f 358//141 359//141 360//141
f 359//141 358//141 361//141
f 234//94 362//142 363//143
f 362//142 234//94 364//144
f 234//94 363//143 365//145
f 366//146 367//147 368//146
f 369//148 370//148 371//148
f 372//149 373//149 374//149
f 373//149 372//149 375//149
f 376//150 377//150 378//150
f 377//150 376//150 379//150
f 377//150 379//150 380//150
f 381//151 382//151 383//151
f 382//151 381//151 384//151
f 384//151 381//151 385//151
f 386//152 387//152 388//152
f 387//152 386//152 389//152
f 390//153 391//153 392//153
f 391//153 390//153 393//153
f 391//153 393//153 394//153
f 395//154 396//154 397//154
f 396//154 395//154 398//154
f 398//154 395//154 399//154
f 400//155 266//104 263//104
f 266//104 400//155 401//155
f 402//156 403//156 404//156
f 403//156 402//156 405//156
f 406//157 407//157 408//157
f 407//157 406//157 409//157
f 270//107 410//158 411//158
f 273//109 145//51 412//159
f 413//160 273//109 412//159
f 414//161 415//161 416//161
f 280//112 282//114 417//162
f 418//163 419//164 270//107
f 420//165 418//163 270//107
f 418//163 420//165 421//165
f 422//166 421//165 420//165
f 421//165 422//166 423//166
f 424//167 423//166 422//166
f 423//166 424//167 425//167
f 426//168 427//168 428//168
f 429//169 430//169 431//169
f 432//170 433//170 434//170
f 435//171 436//171 437//171
f 438//172 439//173 440//173
f 439//173 438//172 441//172
f 440//173 442//174 443//174
f 442//174 440//173 439//173
f 443//174 352//138 444//175
f 352//138 443//174 442//174
f 352//138 445//176 444//175
f 342//133 446//177 343//134
f 447//178 448//178 449//178
f 351//137 450//179 451//180
f 215//86 351//137 451//180
f 352//138 452//181 453//181
f 454//182 455//182 456//182
f 457//183 458//183 362//142
f 459//184 460//185 461//185
f 460//185 459//184 362//142
f 460//185 362//142 458//183
f 462//186 463//186 464//186
f 362//142 459//184 363//143
f 465//187 466//188 467//187
f 466//188 465//187 468//188
f 469//189 367//147 470//190
f 471//191 472//191 473//191
f 474//192 475//193 476//193
f 475//193 474//192 477//192
f 478//194 479//194 480//194
f 481//195 482//195 483//195
f 484//196 485//196 486//196
f 487//197 488//198 489//197
f 488//198 487//197 490//198
f 491//199 492//199 493//199
f 494//200 495//200 496//200
f 497//201 498//201 499//201
f 500//202 501//202 502//202
f 501//202 500//202 503//202
f 504//203 505//203 506//203
f 505//203 504//203 507//203
f 400//155 508//204 401//155
f 508//204 400//155 509//204
f 510//205 511//205 512//205
f 513//206 514//206 515//206
f 516//207 413//160 412//159
f 516//207 417//162 413//160
f 280//112 417//162 517//208
f 518//209 519//209 520//209
f 519//209 518//209 521//209
f 522//210 523//210 524//210
f 523//210 522//210 525//210
f 424//167 526//211 425//167
f 526//211 424//167 527//212
f 528//213 529//213 530//213
f 531//214 532//214 533//214
f 438//172 534//215 441//172
f 534//215 438//172 535//216
f 536//217 537//217 538//217
f 537//217 536//217 539//217
f 540//218 541//218 542//218
f 541//218 540//218 543//218
f 342//133 544//219 446//177
f 545//220 450//179 446//177
f 451//180 450//179 545//220
f 546//221 547//221 548//221
f 549//222 550//222 551//222
f 552//223 553//223 554//223
f 461//185 555//224 556//224
f 555//224 461//185 460//185
f 557//225 558//225 559//225
f 560//226 561//226 562//226
f 465//187 563//227 564//227
f 563//227 465//187 467//187
f 565//228 566//228 567//228
f 367//147 568//229 569//229
f 568//229 367//147 469//189
f 570//230 571//230 572//230
f 573//231 574//231 575//231
f 475//193 576//232 476//193
f 576//232 475//193 577//232
f 577//232 578//233 576//232
f 578//233 577//232 579//233
f 580//234 581//234 582//234
f 583//235 584//236 585//237
f 584//236 583//235 586//235
f 587//238 588//238 589//238
f 488//198 590//239 591//239
f 590//239 488//198 490//198
f 592//240 593//240 594//240
f 595//241 596//242 597//243
f 596//242 595//241 598//241
f 599//244 600//244 601//244
f 590//239 602//245 591//239
f 602//245 590//239 603//245
f 604//246 508//204 509//204
f 508//204 604//246 605//246
f 606//247 607//247 608//247
f 517//208 417//162 516//207
f 609//248 610//248 611//248
f 612//249 613//249 614//249
f 615//250 526//211 527//212
f 596//242 526//211 615//250
f 585//237 616//251 535//216
f 616//251 534//215 535//216
f 617//252 618//252 619//252
f 620//253 621//253 622//253
f 623//254 624//254 625//254
f 544//219 545//220 446//177
f 626//255 627//255 628//255
f 629//256 630//256 631//256
f 632//257 633//257 634//257
f 635//258 555//224 615//250
f 555//224 635//258 556//224
f 636//259 637//259 638//259
f 639//260 640//260 641//260
f 642//261 563//227 643//261
f 563//227 642//261 564//227
f 644//262 645//262 646//262
f 647//263 648//263 649//263
f 650//264 651//264 652//264
f 653//265 654//265 655//265
f 568//229 656//266 569//229
f 656//266 568//229 657//266
f 658//267 659//267 660//267
f 578//233 586//235 583//235
f 586//235 578//233 579//233
f 661//268 662//268 663//268
f 584//236 616//251 585//237
f 664//269 665//269 666//269
f 596//242 615//250 597//243
f 602//245 598//241 595//241
f 598//241 602//245 603//245
f 604//246 667//270 605//246
f 667//270 604//246 668//270
f 669//271 670//271 671//271
f 635//258 615//250 527//212
f 672//272 534//215 616//251
f 673//273 674//273 675//273
f 676//274 677//274 678//274
f 642//261 679//275 680//275
f 679//275 642//261 643//261
f 681//276 682//276 683//276
f 656//266 672//272 616//251
f 672//272 656//266 657//266
