# SSTK version 0.8.0
# 6
mtllib original-6.mtl
o #ID263
v -0.394086 -0.630194 -0.286013
v -0.37784 -0.631704 -0.263103
v -0.394118 -0.627181 -0.263125
v -0.37781 -0.634564 -0.28482
v -0.377782 -0.642946 -0.305057
v -0.394057 -0.639028 -0.307342
v -0.377939 -0.757568 -0.190436
v -0.377851 -0.747084 -0.25467
v -0.37784 -0.748194 -0.263103
v -0.377951 -0.73733 -0.182053
v -0.377862 -0.743829 -0.246813
v -0.377871 -0.738652 -0.240065
v -0.377878 -0.731904 -0.234887
v -0.377955 -0.715613 -0.179194
v -0.377883 -0.724046 -0.231632
v -0.377884 -0.715613 -0.230522
v -0.377883 -0.707181 -0.231632
v -0.377951 -0.693896 -0.182053
v -0.377878 -0.699323 -0.234887
v -0.377871 -0.692575 -0.240065
v -0.377939 -0.673659 -0.190436
v -0.377862 -0.687397 -0.246813
v -0.377851 -0.684142 -0.25467
v -0.37784 -0.683032 -0.263103
v -0.37774 -0.673659 -0.33577
v -0.377758 -0.656281 -0.322436
v -0.377921 -0.656281 -0.203771
v -0.377782 -0.642946 -0.305057
v -0.377897 -0.642946 -0.221149
v -0.37781 -0.634564 -0.28482
v -0.377869 -0.634564 -0.241386
v -0.37784 -0.631704 -0.263103
v -0.377869 -0.796663 -0.241386
v -0.37781 -0.796663 -0.28482
v -0.37784 -0.799522 -0.263103
v -0.377897 -0.78828 -0.221149
v -0.377782 -0.78828 -0.305057
v -0.377758 -0.774946 -0.322436
v -0.377921 -0.774946 -0.203771
v -0.37774 -0.757568 -0.33577
v -0.377828 -0.747084 -0.271536
v -0.377729 -0.73733 -0.344153
v -0.377817 -0.743829 -0.279394
v -0.377808 -0.738652 -0.286141
v -0.377801 -0.731904 -0.291319
v -0.377725 -0.715613 -0.347012
v -0.377796 -0.724046 -0.294574
v -0.377795 -0.715613 -0.295684
v -0.377729 -0.693896 -0.344153
v -0.377796 -0.707181 -0.294574
v -0.377801 -0.699323 -0.291319
v -0.377808 -0.692575 -0.286141
v -0.377817 -0.687397 -0.279394
v -0.377828 -0.684142 -0.271536
v -0.377869 -0.634564 -0.241386
v -0.394149 -0.630194 -0.240237
v -0.377758 -0.656281 -0.322436
v -0.394032 -0.653082 -0.325657
v -0.377897 -0.642946 -0.221149
v -0.394178 -0.639028 -0.218909
v -0.394013 -0.671397 -0.33971
v -0.37774 -0.673659 -0.33577
v -0.394001 -0.692725 -0.348545
v -0.377729 -0.693896 -0.344153
v -0.377725 -0.715613 -0.347012
v -0.393996 -0.715613 -0.351558
v -0.377729 -0.73733 -0.344153
v -0.394001 -0.738501 -0.348545
v -0.394013 -0.75983 -0.33971
v -0.37774 -0.757568 -0.33577
v -0.394032 -0.778145 -0.325657
v -0.377758 -0.774946 -0.322436
v -0.394057 -0.792198 -0.307342
v -0.377782 -0.78828 -0.305057
v -0.394086 -0.801033 -0.286013
v -0.37781 -0.796663 -0.28482
v -0.394118 -0.804046 -0.263125
v -0.37784 -0.799522 -0.263103
v -0.377869 -0.796663 -0.241386
v -0.394149 -0.801033 -0.240237
v -0.377897 -0.78828 -0.221149
v -0.394178 -0.792198 -0.218909
v -0.377921 -0.774946 -0.203771
v -0.394203 -0.778145 -0.200594
v -0.377939 -0.757568 -0.190436
v -0.394223 -0.75983 -0.186541
v -0.377951 -0.73733 -0.182053
v -0.394235 -0.738501 -0.177706
v -0.394239 -0.715613 -0.174693
v -0.377955 -0.715613 -0.179194
v -0.377951 -0.693896 -0.182053
v -0.394235 -0.692725 -0.177706
v -0.377939 -0.673659 -0.190436
v -0.394223 -0.671397 -0.186541
v -0.394203 -0.653082 -0.200594
v -0.377921 -0.656281 -0.203771
vn -0.2680971301546699 -0.930656863337145 0.24900146892397348
vn -0.2677552572007652 -0.963486890144577 -0.00036709792143743843
vn -0.2677552572007652 -0.963486890144577 -0.0003670979214586638
vn -0.26841573195001067 -0.8344041290719285 0.4813758866306627
vn -0.9999990601968755 0.0 -0.0013709870042934265
vn -0.26741336738405447 -0.9306568588862391 -0.24973566415776363
vn -0.2686892963848991 -0.6812881038502699 0.6809203929684379
vn -0.26709480396925694 -0.8344041204734404 -0.4821100801990855
vn -0.26889921974824443 -0.4817434116286432 0.8340362671797799
vn -0.2690311578442949 -0.24936878886724262 0.9302889031090518
vn -0.26907617446383225 -8.755722514834464e-09 0.9631188983380553
vn -0.26907617446383225 -8.755695101860908e-09 0.9631188983380553
vn -0.26903115814325834 0.2493687719417838 0.9302889075595516
vn -0.26889922032579744 0.4817433964211691 0.8340362757774835
vn -0.2686892972016824 0.6812880913757157 0.6809204051274279
vn -0.2684157329503618 0.8344041201589851 0.48137590152232373
vn -0.26809713127041657 0.930656858571784 0.24900148553346296
vn -0.2677552583558712 0.9634868898301219 -0.0003670807260180602
vn -0.26775525835587116 0.9634868898301217 -0.00036708072604951575
vn -0.2674133684998012 0.9306568630226898 -0.2497356475482742
vn -0.2670948049696081 0.8344041287574733 -0.4821100653074245
vn -0.2668212228605645 0.6812881035358147 -0.6816545716209685
vn -0.2666113058475938 0.481743411314188 -0.8347704458410168
vn -0.2664793211968171 0.24936878855278746 -0.9310230817064626
vn -0.26643431844524634 8.44125748107489e-09 -0.963853076954479
vn -0.26643431844524634 8.441240073923808e-09 -0.963853076954479
vn -0.26647932089785364 -0.24936877225623896 -0.9310230861569625
vn -0.2666113052700408 -0.4817433967356243 -0.8347704544387204
vn -0.26682122204378117 -0.6812880916901709 -0.6816545837799585
usemtl material_0_0
f 1//1 2//2 3//3
f 2//2 1//1 4//1
f 1//1 5//4 4//1
f 5//4 1//1 6//4
f 7//5 8//5 9//5
f 8//5 7//5 10//5
f 8//5 10//5 11//5
f 11//5 10//5 12//5
f 12//5 10//5 13//5
f 13//5 10//5 14//5
f 13//5 14//5 15//5
f 15//5 14//5 16//5
f 16//5 14//5 17//5
f 17//5 14//5 18//5
f 17//5 18//5 19//5
f 19//5 18//5 20//5
f 20//5 18//5 21//5
f 20//5 21//5 22//5
f 22//5 21//5 23//5
f 23//5 21//5 24//5
f 24//5 21//5 25//5
f 25//5 21//5 26//5
f 26//5 21//5 27//5
f 26//5 27//5 28//5
f 28//5 27//5 29//5
f 28//5 29//5 30//5
f 30//5 29//5 31//5
f 30//5 31//5 32//5
f 33//5 34//5 35//5
f 34//5 33//5 36//5
f 34//5 36//5 37//5
f 37//5 36//5 38//5
f 38//5 36//5 39//5
f 38//5 39//5 40//5
f 40//5 39//5 7//5
f 40//5 7//5 9//5
f 40//5 9//5 41//5
f 40//5 41//5 42//5
f 42//5 41//5 43//5
f 42//5 43//5 44//5
f 42//5 44//5 45//5
f 42//5 45//5 46//5
f 46//5 45//5 47//5
f 46//5 47//5 48//5
f 46//5 48//5 49//5
f 49//5 48//5 50//5
f 49//5 50//5 51//5
f 49//5 51//5 52//5
f 49//5 52//5 25//5
f 25//5 52//5 53//5
f 25//5 53//5 54//5
f 25//5 54//5 24//5
f 3//3 55//6 56//6
f 55//6 3//3 2//2
f 6//4 57//7 5//4
f 57//7 6//4 58//7
f 56//6 59//8 60//8
f 59//8 56//6 55//6
f 57//7 61//9 62//9
f 61//9 57//7 58//7
f 62//9 63//10 64//10
f 63//10 62//9 61//9
f 63//10 65//11 64//10
f 65//11 63//10 66//12
f 66//12 67//13 65//11
f 67//13 66//12 68//13
f 67//13 69//14 70//14
f 69//14 67//13 68//13
f 70//14 71//15 72//15
f 71//15 70//14 69//14
f 72//15 73//16 74//16
f 73//16 72//15 71//15
f 74//16 75//17 76//17
f 75//17 74//16 73//16
f 76//17 77//18 78//19
f 77//18 76//17 75//17
f 79//20 77//18 80//20
f 77//18 79//20 78//19
f 81//21 80//20 82//21
f 80//20 81//21 79//20
f 83//22 82//21 84//22
f 82//21 83//22 81//21
f 84//22 85//23 83//22
f 85//23 84//22 86//23
f 86//23 87//24 85//23
f 87//24 86//23 88//24
f 87//24 89//25 90//26
f 89//25 87//24 88//24
f 89//25 91//27 90//26
f 91//27 89//25 92//27
f 92//27 93//28 91//27
f 93//28 92//27 94//28
f 93//28 95//29 96//29
f 95//29 93//28 94//28
f 60//8 96//29 95//29
f 96//29 60//8 59//8
