# SSTK version 0.8.0
# 5
mtllib original-5.mtl
o #ID257
v -0.364467 -0.653584 -0.298897
v -0.340143 -0.629901 -0.286018
v -0.36449 -0.646428 -0.281623
v -0.340114 -0.638766 -0.307419
v -0.340174 -0.626878 -0.263051
v -0.364516 -0.643988 -0.263085
v -0.36449 -0.784798 -0.281623
v -0.364541 -0.784798 -0.244547
v -0.364516 -0.787239 -0.263085
v -0.364467 -0.777643 -0.298897
v -0.364565 -0.777643 -0.227272
v -0.364446 -0.76626 -0.313732
v -0.364585 -0.76626 -0.212438
v -0.364431 -0.751426 -0.325114
v -0.364601 -0.751426 -0.201055
v -0.364421 -0.734151 -0.33227
v -0.364516 -0.74037 -0.263085
v -0.364507 -0.739527 -0.269492
v -0.364499 -0.737054 -0.275463
v -0.364492 -0.733119 -0.280591
v -0.364418 -0.715613 -0.33471
v -0.364486 -0.727992 -0.284525
v -0.364483 -0.722021 -0.286998
v -0.364482 -0.715613 -0.287842
v -0.364421 -0.697075 -0.33227
v -0.364483 -0.709206 -0.286998
v -0.364486 -0.703235 -0.284525
v -0.364492 -0.698107 -0.280591
v -0.364499 -0.694173 -0.275463
v -0.364431 -0.679801 -0.325114
v -0.364507 -0.6917 -0.269492
v -0.364516 -0.690856 -0.263085
v -0.364611 -0.734151 -0.1939
v -0.364525 -0.739527 -0.256677
v -0.364533 -0.737054 -0.250706
v -0.36454 -0.733119 -0.245579
v -0.364614 -0.715613 -0.191459
v -0.364545 -0.727992 -0.241645
v -0.364549 -0.722021 -0.239171
v -0.36455 -0.715613 -0.238328
v -0.364549 -0.709206 -0.239171
v -0.364611 -0.697075 -0.1939
v -0.364545 -0.703235 -0.241645
v -0.36454 -0.698107 -0.245579
v -0.364533 -0.694173 -0.250706
v -0.364601 -0.679801 -0.201055
v -0.364525 -0.6917 -0.256677
v -0.364446 -0.664966 -0.313732
v -0.364585 -0.664966 -0.212438
v -0.364565 -0.653584 -0.227272
v -0.364467 -0.653584 -0.298897
v -0.364541 -0.646428 -0.244547
v -0.36449 -0.646428 -0.281623
v -0.364516 -0.643988 -0.263085
v -0.364446 -0.664966 -0.313732
v -0.340088 -0.652868 -0.325797
v -0.364541 -0.646428 -0.244547
v -0.340206 -0.629901 -0.240085
v -0.340206 -0.801325 -0.240085
v -0.364565 -0.777643 -0.227272
v -0.340235 -0.792461 -0.218684
v -0.364541 -0.784798 -0.244547
v -0.340174 -0.804349 -0.263051
v -0.364516 -0.787239 -0.263085
v -0.340143 -0.801325 -0.286018
v -0.36449 -0.784798 -0.281623
v -0.364467 -0.777643 -0.298897
v -0.340114 -0.792461 -0.307419
v -0.364446 -0.76626 -0.313732
v -0.340088 -0.778359 -0.325797
v -0.340069 -0.759981 -0.339899
v -0.364431 -0.751426 -0.325114
v -0.364421 -0.734151 -0.33227
v -0.340057 -0.73858 -0.348764
v -0.364418 -0.715613 -0.33471
v -0.340053 -0.715613 -0.351787
v -0.340057 -0.692647 -0.348764
v -0.364421 -0.697075 -0.33227
v -0.364431 -0.679801 -0.325114
v -0.340069 -0.671245 -0.339899
v -0.364565 -0.653584 -0.227272
v -0.340235 -0.638766 -0.218684
v -0.364585 -0.664966 -0.212438
v -0.34026 -0.652868 -0.200306
v -0.364601 -0.679801 -0.201055
v -0.34028 -0.671245 -0.186204
v -0.364611 -0.697075 -0.1939
v -0.340292 -0.692647 -0.177339
v -0.364614 -0.715613 -0.191459
v -0.340296 -0.715613 -0.174316
v -0.340292 -0.73858 -0.177339
v -0.364611 -0.734151 -0.1939
v -0.364601 -0.751426 -0.201055
v -0.34028 -0.759981 -0.186204
v -0.364585 -0.76626 -0.212438
v -0.34026 -0.778359 -0.200306
vn 0.5745052648104354 -0.7085010853326812 0.40984132635387555
vn 0.574775773737092 -0.7902302775047394 0.2125298060030867
vn 0.5750660765983977 -0.8181065859462995 0.0007884015575164391
vn 0.5750660765983977 -0.8181065859462995 0.0007884015575139922
vn 0.9999990601968755 0.0 0.001370987004293371
vn 0.5742729835272334 -0.5784887027670802 0.5792765843373878
vn 0.5753563637096107 -0.7902302737254296 -0.21095300241211676
vn 0.5753563627622188 0.7902302781801042 -0.21095298830882905
vn 0.575626877500387 0.7085010860080462 -0.4082645086516505
vn 0.5750660756175855 0.8181065866216646 0.0007884161582694875
vn 0.5750660756175854 0.8181065866216644 0.0007884161583248131
vn 0.5747757727897002 0.7902302744007946 0.21252982010637436
vn 0.5745052639610272 0.7085010787069815 0.4098413389985374
vn 0.5742729828336943 0.5784886931171805 0.5792765946617107
vn 0.5740947163374196 0.4090532773975562 0.7092888501335516
vn 0.5739826574777229 0.21174158125058673 0.7910179591414546
vn 0.5739444450584338 -6.963381715048127e-09 0.8188942385843038
vn 0.5739444450584338 -6.963372095802981e-09 0.8188942385843038
vn 0.5739826577315759 -0.2117415946797954 0.7910179553624896
vn 0.5740947168278256 -0.40905328936800606 0.7092888428331529
vn 0.5756268783497953 -0.7085010780316167 -0.40826452129631224
vn 0.5758591845735143 -0.5784886924418157 -0.5776997769250787
vn 0.5760374084386647 -0.4090532767221913 -0.7077120324553664
vn 0.5761494486505315 -0.21174158057522185 -0.7894411414888355
vn 0.5761876720880726 7.638735751280911e-09 -0.8173174209165786
vn 0.5761876720880726 7.638712560742007e-09 -0.8173174209165786
vn 0.5761494483966785 0.2117415953551603 -0.7894411377098703
vn 0.5760374079482584 0.40905329004337093 -0.7077120251549676
vn 0.5758591838799753 0.5784887034424452 -0.5776997666007558
usemtl material_0_0
f 1//1 2//2 3//2
f 2//2 1//1 4//1
f 3//2 5//3 6//4
f 5//3 3//2 2//2
f 7//5 8//5 9//5
f 8//5 7//5 10//5
f 8//5 10//5 11//5
f 11//5 10//5 12//5
f 11//5 12//5 13//5
f 13//5 12//5 14//5
f 13//5 14//5 15//5
f 15//5 14//5 16//5
f 15//5 16//5 17//5
f 17//5 16//5 18//5
f 18//5 16//5 19//5
f 19//5 16//5 20//5
f 20//5 16//5 21//5
f 20//5 21//5 22//5
f 22//5 21//5 23//5
f 23//5 21//5 24//5
f 24//5 21//5 25//5
f 24//5 25//5 26//5
f 26//5 25//5 27//5
f 27//5 25//5 28//5
f 28//5 25//5 29//5
f 29//5 25//5 30//5
f 29//5 30//5 31//5
f 31//5 30//5 32//5
f 17//5 33//5 15//5
f 33//5 17//5 34//5
f 33//5 34//5 35//5
f 33//5 35//5 36//5
f 33//5 36//5 37//5
f 37//5 36//5 38//5
f 37//5 38//5 39//5
f 37//5 39//5 40//5
f 37//5 40//5 41//5
f 37//5 41//5 42//5
f 42//5 41//5 43//5
f 42//5 43//5 44//5
f 42//5 44//5 45//5
f 42//5 45//5 46//5
f 46//5 45//5 47//5
f 46//5 47//5 32//5
f 46//5 32//5 30//5
f 46//5 30//5 48//5
f 46//5 48//5 49//5
f 49//5 48//5 50//5
f 50//5 48//5 51//5
f 50//5 51//5 52//5
f 52//5 51//5 53//5
f 52//5 53//5 54//5
f 55//6 4//1 1//1
f 4//1 55//6 56//6
f 57//7 5//3 58//7
f 5//3 57//7 6//4
f 59//8 60//9 61//9
f 60//9 59//8 62//8
f 63//10 62//8 59//8
f 62//8 63//10 64//11
f 65//12 64//11 63//10
f 64//11 65//12 66//12
f 65//12 67//13 66//12
f 67//13 65//12 68//13
f 68//13 69//14 67//13
f 69//14 68//13 70//14
f 71//15 69//14 70//14
f 69//14 71//15 72//15
f 73//16 71//15 74//16
f 71//15 73//16 72//15
f 75//17 74//16 76//18
f 74//16 75//17 73//16
f 77//19 75//17 76//18
f 75//17 77//19 78//19
f 79//20 77//19 80//20
f 77//19 79//20 78//19
f 55//6 80//20 56//6
f 80//20 55//6 79//20
f 81//21 58//7 82//21
f 58//7 81//21 57//7
f 83//22 82//21 84//22
f 82//21 83//22 81//21
f 85//23 84//22 86//23
f 84//22 85//23 83//22
f 87//24 86//23 88//24
f 86//23 87//24 85//23
f 89//25 88//24 90//26
f 88//24 89//25 87//24
f 91//27 89//25 90//26
f 89//25 91//27 92//27
f 93//28 91//27 94//28
f 91//27 93//28 92//27
f 95//29 94//28 96//29
f 94//28 95//29 93//28
f 61//9 95//29 96//29
f 95//29 61//9 60//9
