# SSTK version 0.8.0
# 2
mtllib original-2.mtl
o #ID239
v -0.340209 -0.621472 -0.237826
v -0.343503 -0.631209 -0.214325
v -0.340241 -0.631209 -0.214321
v -0.34347 -0.621472 -0.237831
v -0.34353 -0.646697 -0.19414
v -0.340269 -0.646697 -0.194136
v -0.34014 -0.809754 -0.288276
v -0.340209 -0.809754 -0.237826
v -0.340174 -0.813075 -0.263051
v -0.340108 -0.800018 -0.311782
v -0.340174 -0.804349 -0.263051
v -0.340143 -0.801325 -0.286018
v -0.340114 -0.792461 -0.307419
v -0.34008 -0.784529 -0.331967
v -0.340088 -0.778359 -0.325797
v -0.340059 -0.764344 -0.347456
v -0.340069 -0.759981 -0.339899
v -0.340045 -0.740838 -0.357192
v -0.340057 -0.73858 -0.348764
v -0.340041 -0.715613 -0.360513
v -0.340053 -0.715613 -0.351787
v -0.340045 -0.690388 -0.357192
v -0.340057 -0.692647 -0.348764
v -0.340069 -0.671245 -0.339899
v -0.340059 -0.666882 -0.347456
v -0.340088 -0.652868 -0.325797
v -0.34008 -0.646697 -0.331967
v -0.340114 -0.638766 -0.307419
v -0.340108 -0.631209 -0.311782
v -0.340143 -0.629901 -0.286018
v -0.34014 -0.621472 -0.288276
v -0.340174 -0.626878 -0.263051
v -0.340241 -0.800018 -0.214321
v -0.340206 -0.801325 -0.240085
v -0.340235 -0.792461 -0.218684
v -0.340269 -0.784529 -0.194136
v -0.34026 -0.778359 -0.200306
v -0.34029 -0.764344 -0.178647
v -0.34028 -0.759981 -0.186204
v -0.340303 -0.740838 -0.168911
v -0.340292 -0.73858 -0.177339
v -0.340308 -0.715613 -0.16559
v -0.340296 -0.715613 -0.174316
v -0.340292 -0.692647 -0.177339
v -0.340303 -0.690388 -0.168911
v -0.34028 -0.671245 -0.186204
v -0.34029 -0.666882 -0.178647
v -0.34026 -0.652868 -0.200306
v -0.340269 -0.646697 -0.194136
v -0.340235 -0.638766 -0.218684
v -0.340241 -0.631209 -0.214321
v -0.340206 -0.629901 -0.240085
v -0.340209 -0.621472 -0.237826
v -0.340174 -0.618151 -0.263051
v -0.343436 -0.618151 -0.263056
v -0.340174 -0.618151 -0.263051
v -0.343552 -0.666882 -0.178651
v -0.34029 -0.666882 -0.178647
v -0.34008 -0.646697 -0.331967
v -0.343369 -0.631209 -0.311787
v -0.340108 -0.631209 -0.311782
v -0.343341 -0.646697 -0.331972
v -0.343401 -0.621472 -0.288281
v -0.34014 -0.621472 -0.288276
v -0.343565 -0.690388 -0.168915
v -0.340303 -0.690388 -0.168911
v -0.340308 -0.715613 -0.16559
v -0.343569 -0.715613 -0.165594
v -0.340303 -0.740838 -0.168911
v -0.343565 -0.740838 -0.168915
v -0.34029 -0.764344 -0.178647
v -0.343552 -0.764344 -0.178651
v -0.34353 -0.784529 -0.19414
v -0.340269 -0.784529 -0.194136
v -0.343503 -0.800018 -0.214325
v -0.340241 -0.800018 -0.214321
v -0.34347 -0.809754 -0.237831
v -0.340209 -0.809754 -0.237826
v -0.343436 -0.813075 -0.263056
v -0.340174 -0.813075 -0.263051
v -0.343401 -0.809754 -0.288281
v -0.34014 -0.809754 -0.288276
v -0.343369 -0.800018 -0.311787
v -0.340108 -0.800018 -0.311782
v -0.34008 -0.784529 -0.331967
v -0.343341 -0.784529 -0.331972
v -0.340059 -0.764344 -0.347456
v -0.34332 -0.764344 -0.34746
v -0.343307 -0.740838 -0.357197
v -0.340045 -0.740838 -0.357192
v -0.340041 -0.715613 -0.360513
v -0.343302 -0.715613 -0.360518
v -0.340045 -0.690388 -0.357192
v -0.343307 -0.690388 -0.357197
v -0.34332 -0.666882 -0.34746
v -0.340059 -0.666882 -0.347456
vn -0.000354838092714036 0.9659258305460754 0.2588187859754438
vn -0.000685494046945353 0.8660253885126259 0.4999995565492705
vn -0.0009694346536044731 0.7071067587690049 0.7071061390623367
vn 0.9999990601968755 0.0 0.0013709870042935375
vn 0.0 1.0 8.923661412434606e-09
vn 0.0 1.0 8.923355503208164e-09
vn -0.0011873098859210877 0.4999999768258652 0.8660246032702357
vn 0.0009694338058681097 0.7071067713899332 -0.7071061264425594
vn 0.0006854930086844808 0.8660253974369699 -0.4999995410932628
vn 0.0003548369346845005 0.9659258351656551 -0.25881876873650683
vn -0.0013242719271847991 0.2588189899719698 0.9659249332809212
vn -0.001370987004292324 -8.924313461792437e-09 0.9999990601968753
vn -0.001370987004292324 -8.924333164251538e-09 0.9999990601968753
vn -0.0013242716168918815 -0.25881900721247825 0.9659249286617628
vn -0.001187309286481046 -0.49999999228328224 0.8660245943467056
vn -0.0009694338058681657 -0.7071067713899332 0.7071061264425594
vn -0.0006854930086845367 -0.8660253974369699 0.4999995410932628
vn -0.00035483693468452496 -0.9659258351656551 0.25881876873650683
vn 0.0 -1.0 -8.923532549001449e-09
vn 0.0 -1.0 -8.92353720059729e-09
vn 0.000354838092713987 -0.9659258305460754 -0.2588187859754438
vn 0.000685494046945269 -0.8660253885126259 -0.4999995565492705
vn 0.0009694346536045291 -0.7071067587690049 -0.7071061390623367
vn 0.0011873098859211996 -0.4999999768258652 -0.8660246032702357
vn 0.001324271927184827 -0.2588189899719698 -0.9659249332809212
vn 0.001370987004292268 8.924319209452175e-09 -0.9999990601968753
vn 0.001370987004292268 8.92433202363159e-09 -0.9999990601968753
vn 0.0013242716168918253 0.25881900721247825 -0.9659249286617628
vn 0.001187309286481018 0.49999999228328224 -0.8660245943467056
usemtl material_0_0
f 1//1 2//2 3//2
f 2//2 1//1 4//1
f 3//2 5//3 6//3
f 5//3 3//2 2//2
f 7//4 8//4 9//4
f 8//4 7//4 10//4
f 8//4 10//4 11//4
f 11//4 10//4 12//4
f 12//4 10//4 13//4
f 13//4 10//4 14//4
f 13//4 14//4 15//4
f 15//4 14//4 16//4
f 15//4 16//4 17//4
f 17//4 16//4 18//4
f 17//4 18//4 19//4
f 19//4 18//4 20//4
f 19//4 20//4 21//4
f 21//4 20//4 22//4
f 21//4 22//4 23//4
f 23//4 22//4 24//4
f 24//4 22//4 25//4
f 24//4 25//4 26//4
f 26//4 25//4 27//4
f 26//4 27//4 28//4
f 28//4 27//4 29//4
f 28//4 29//4 30//4
f 30//4 29//4 31//4
f 30//4 31//4 32//4
f 11//4 33//4 8//4
f 33//4 11//4 34//4
f 33//4 34//4 35//4
f 33//4 35//4 36//4
f 36//4 35//4 37//4
f 36//4 37//4 38//4
f 38//4 37//4 39//4
f 38//4 39//4 40//4
f 40//4 39//4 41//4
f 40//4 41//4 42//4
f 42//4 41//4 43//4
f 42//4 43//4 44//4
f 42//4 44//4 45//4
f 45//4 44//4 46//4
f 45//4 46//4 47//4
f 47//4 46//4 48//4
f 47//4 48//4 49//4
f 49//4 48//4 50//4
f 49//4 50//4 51//4
f 51//4 50//4 52//4
f 51//4 52//4 53//4
f 53//4 52//4 32//4
f 53//4 32//4 31//4
f 53//4 31//4 54//4
f 1//1 55//5 4//1
f 55//5 1//1 56//6
f 6//3 57//7 58//7
f 57//7 6//3 5//3
f 59//8 60//9 61//9
f 60//9 59//8 62//8
f 61//9 63//10 64//10
f 63//10 61//9 60//9
f 56//6 63//10 55//5
f 63//10 56//6 64//10
f 58//7 65//11 66//11
f 65//11 58//7 57//7
f 65//11 67//12 66//11
f 67//12 65//11 68//13
f 68//13 69//14 67//12
f 69//14 68//13 70//14
f 70//14 71//15 69//14
f 71//15 70//14 72//15
f 71//15 73//16 74//16
f 73//16 71//15 72//15
f 75//17 74//16 73//16
f 74//16 75//17 76//17
f 77//18 76//17 75//17
f 76//17 77//18 78//18
f 79//19 78//18 77//18
f 78//18 79//19 80//20
f 81//21 80//20 79//19
f 80//20 81//21 82//21
f 83//22 82//21 81//21
f 82//21 83//22 84//22
f 83//22 85//23 84//22
f 85//23 83//22 86//23
f 86//23 87//24 85//23
f 87//24 86//23 88//24
f 87//24 89//25 90//25
f 89//25 87//24 88//24
f 89//25 91//26 90//25
f 91//26 89//25 92//27
f 92//27 93//28 91//26
f 93//28 92//27 94//28
f 93//28 95//29 96//29
f 95//29 93//28 94//28
f 95//29 59//8 96//29
f 59//8 95//29 62//8
