# SSTK version 0.8.0
# 13
mtllib original-13.mtl
o #ID305
v 0.411136 -0.801033 -0.284909
v 0.394884 -0.78828 -0.303998
v 0.394857 -0.796663 -0.283761
v 0.411166 -0.792198 -0.306238
v 0.394908 -0.774946 -0.321376
v 0.411191 -0.778145 -0.324553
v 0.394857 -0.796663 -0.283761
v 0.394797 -0.796663 -0.240327
v 0.394827 -0.799522 -0.262044
v 0.394769 -0.78828 -0.220089
v 0.394884 -0.78828 -0.303998
v 0.394908 -0.774946 -0.321376
v 0.394746 -0.774946 -0.202711
v 0.394926 -0.757568 -0.334711
v 0.394727 -0.757568 -0.189377
v 0.394827 -0.748194 -0.262044
v 0.394838 -0.747084 -0.270476
v 0.394938 -0.73733 -0.343093
v 0.394849 -0.743829 -0.278334
v 0.394858 -0.738652 -0.285082
v 0.394866 -0.731904 -0.29026
v 0.394942 -0.715613 -0.345953
v 0.39487 -0.724046 -0.293515
v 0.394872 -0.715613 -0.294625
v 0.394938 -0.693896 -0.343093
v 0.39487 -0.707181 -0.293515
v 0.394866 -0.699323 -0.29026
v 0.394858 -0.692575 -0.285082
v 0.394926 -0.673659 -0.334711
v 0.394849 -0.687397 -0.278334
v 0.394838 -0.684142 -0.270476
v 0.394827 -0.683032 -0.262044
v 0.394815 -0.747084 -0.253611
v 0.394716 -0.73733 -0.180994
v 0.394805 -0.743829 -0.245753
v 0.394795 -0.738652 -0.239006
v 0.394788 -0.731904 -0.233828
v 0.394712 -0.715613 -0.178135
v 0.394784 -0.724046 -0.230573
v 0.394782 -0.715613 -0.229463
v 0.394784 -0.707181 -0.230573
v 0.394716 -0.693896 -0.180994
v 0.394788 -0.699323 -0.233828
v 0.394795 -0.692575 -0.239006
v 0.394727 -0.673659 -0.189377
v 0.394805 -0.687397 -0.245753
v 0.394815 -0.684142 -0.253611
v 0.394908 -0.656281 -0.321376
v 0.394746 -0.656281 -0.202711
v 0.394884 -0.642946 -0.303998
v 0.394769 -0.642946 -0.220089
v 0.394857 -0.634564 -0.283761
v 0.394797 -0.634564 -0.240327
v 0.394827 -0.631704 -0.262044
v 0.411105 -0.804046 -0.262021
v 0.394827 -0.799522 -0.262044
v 0.41121 -0.75983 -0.338606
v 0.394926 -0.757568 -0.334711
v 0.394769 -0.642946 -0.220089
v 0.411074 -0.630194 -0.239133
v 0.411044 -0.639028 -0.217805
v 0.394797 -0.634564 -0.240327
v 0.394746 -0.656281 -0.202711
v 0.411019 -0.653082 -0.19949
v 0.394727 -0.673659 -0.189377
v 0.411 -0.671397 -0.185437
v 0.410988 -0.692725 -0.176602
v 0.394716 -0.693896 -0.180994
v 0.410984 -0.715613 -0.173589
v 0.394712 -0.715613 -0.178135
v 0.410988 -0.738501 -0.176602
v 0.394716 -0.73733 -0.180994
v 0.394727 -0.757568 -0.189377
v 0.411 -0.75983 -0.185437
v 0.394746 -0.774946 -0.202711
v 0.411019 -0.778145 -0.19949
v 0.411044 -0.792198 -0.217805
v 0.394769 -0.78828 -0.220089
v 0.411074 -0.801033 -0.239133
v 0.394797 -0.796663 -0.240327
v 0.411222 -0.738501 -0.347441
v 0.394938 -0.73733 -0.343093
v 0.394942 -0.715613 -0.345953
v 0.411226 -0.715613 -0.350454
v 0.394938 -0.693896 -0.343093
v 0.411222 -0.692725 -0.347441
v 0.394926 -0.673659 -0.334711
v 0.41121 -0.671397 -0.338606
v 0.394908 -0.656281 -0.321376
v 0.411191 -0.653082 -0.324553
v 0.411166 -0.639028 -0.306238
v 0.394884 -0.642946 -0.303998
v 0.411136 -0.630194 -0.284909
v 0.394857 -0.634564 -0.283761
v 0.411105 -0.627181 -0.262021
v 0.394827 -0.631704 -0.262044
vn 0.26741336738405447 0.9306568588862391 0.24973566415776363
vn 0.26709480396925694 0.8344041204734404 0.4821100801990855
vn 0.26682122204378117 0.6812880916901709 0.6816545837799585
vn 0.9999990601968755 0.0 0.0013709870042905954
vn 0.2677552572007651 0.963486890144577 0.0003670979215069199
vn 0.26775525720076526 0.963486890144577 0.00036709792140221666
vn 0.2666113052700408 0.4817433967356243 0.8347704544387204
vn 0.2684157329503618 -0.8344041201589851 -0.48137590152232373
vn 0.26809713127041657 -0.930656858571784 -0.24900148553346296
vn 0.2686892972016824 -0.6812880913757157 -0.6809204051274279
vn 0.26889922032579744 -0.4817433964211691 -0.8340362757774835
vn 0.26903115814325834 -0.2493687719417838 -0.9302889075595516
vn 0.26907617446383225 8.755673751862033e-09 -0.9631188983380553
vn 0.26907617446383225 8.755702355740525e-09 -0.9631188983380553
vn 0.2690311578442949 0.24936878886724262 -0.9302889031090518
vn 0.26889921974824443 0.4817434116286432 -0.8340362671797799
vn 0.2686892963848991 0.6812881038502699 -0.6809203929684379
vn 0.26841573195001067 0.8344041290719285 -0.4813758866306627
vn 0.2680971301546699 0.930656863337145 -0.24900146892397348
vn 0.26647932089785364 0.24936877225623896 0.9310230861569625
vn 0.26643431844524634 -8.44124096252376e-09 0.963853076954479
vn 0.26643431844524634 -8.441244528983574e-09 0.963853076954479
vn 0.2664793211968171 -0.24936878855278746 0.9310230817064626
vn 0.2666113058475938 -0.481743411314188 0.8347704458410168
vn 0.2668212228605645 -0.6812881035358147 0.6816545716209685
vn 0.2670948049696081 -0.8344041287574733 0.4821100653074245
vn 0.2674133684998012 -0.9306568630226898 0.2497356475482742
vn 0.2677552583558711 -0.9634868898301217 0.00036708072605837373
vn 0.26775525835587116 -0.9634868898301217 0.00036708072604494204
usemtl material_0_0
f 1//1 2//2 3//1
f 2//2 1//1 4//2
f 4//2 5//3 2//2
f 5//3 4//2 6//3
f 7//4 8//4 9//4
f 8//4 7//4 10//4
f 10//4 7//4 11//4
f 10//4 11//4 12//4
f 10//4 12//4 13//4
f 13//4 12//4 14//4
f 13//4 14//4 15//4
f 15//4 14//4 16//4
f 16//4 14//4 17//4
f 17//4 14//4 18//4
f 17//4 18//4 19//4
f 19//4 18//4 20//4
f 20//4 18//4 21//4
f 21//4 18//4 22//4
f 21//4 22//4 23//4
f 23//4 22//4 24//4
f 24//4 22//4 25//4
f 24//4 25//4 26//4
f 26//4 25//4 27//4
f 27//4 25//4 28//4
f 28//4 25//4 29//4
f 28//4 29//4 30//4
f 30//4 29//4 31//4
f 31//4 29//4 32//4
f 15//4 33//4 34//4
f 33//4 15//4 16//4
f 34//4 33//4 35//4
f 34//4 35//4 36//4
f 34//4 36//4 37//4
f 34//4 37//4 38//4
f 38//4 37//4 39//4
f 38//4 39//4 40//4
f 38//4 40//4 41//4
f 38//4 41//4 42//4
f 42//4 41//4 43//4
f 42//4 43//4 44//4
f 42//4 44//4 45//4
f 45//4 44//4 46//4
f 45//4 46//4 47//4
f 45//4 47//4 32//4
f 45//4 32//4 29//4
f 45//4 29//4 48//4
f 45//4 48//4 49//4
f 49//4 48//4 50//4
f 49//4 50//4 51//4
f 51//4 50//4 52//4
f 51//4 52//4 53//4
f 53//4 52//4 54//4
f 55//5 3//1 56//6
f 3//1 55//5 1//1
f 57//7 5//3 6//3
f 5//3 57//7 58//7
f 59//8 60//9 61//8
f 60//9 59//8 62//9
f 63//10 61//8 64//10
f 61//8 63//10 59//8
f 65//11 64//10 66//11
f 64//10 65//11 63//10
f 67//12 65//11 66//11
f 65//11 67//12 68//12
f 69//13 68//12 67//12
f 68//12 69//13 70//14
f 71//15 70//14 69//13
f 70//14 71//15 72//15
f 73//16 71//15 74//16
f 71//15 73//16 72//15
f 75//17 74//16 76//17
f 74//16 75//17 73//16
f 77//18 75//17 76//17
f 75//17 77//18 78//18
f 79//19 78//18 77//18
f 78//18 79//19 80//19
f 55//5 80//19 79//19
f 80//19 55//5 56//6
f 81//20 58//7 57//7
f 58//7 81//20 82//20
f 83//21 81//20 84//22
f 81//20 83//21 82//20
f 85//23 84//22 86//23
f 84//22 85//23 83//21
f 87//24 86//23 88//24
f 86//23 87//24 85//23
f 89//25 88//24 90//25
f 88//24 89//25 87//24
f 89//25 91//26 92//26
f 91//26 89//25 90//25
f 92//26 93//27 94//27
f 93//27 92//26 91//26
f 94//27 95//28 96//29
f 95//28 94//27 93//27
f 62//9 95//28 60//9
f 95//28 62//9 96//29
