# SSTK version 0.8.0
# 29
mtllib original-29.mtl
o group_17/ID435#ID435
v -0.296081 0.65321 -0.553903
v 0.313865 0.665544 -0.55277
v 0.313866 0.65321 -0.553067
v -0.296082 0.665544 -0.553606
v -0.296089 0.642381 -0.547993
v 0.313858 0.642381 -0.547156
v -0.29609 0.676077 -0.547182
v 0.313856 0.676077 -0.546346
v 0.313843 0.635957 -0.536623
v -0.296104 0.635957 -0.53746
v 0.313842 0.681987 -0.535516
v -0.296105 0.681987 -0.536353
v 0.313826 0.63566 -0.524289
v -0.296121 0.63566 -0.525126
v -0.296122 0.681691 -0.524019
v 0.313825 0.681691 -0.523183
v 0.313811 0.64157 -0.51346
v -0.296135 0.64157 -0.514296
v 0.31381 0.675267 -0.512649
v -0.296137 0.675267 -0.513486
v 0.313803 0.652103 -0.507036
v -0.296144 0.652103 -0.507872
v 0.313802 0.664437 -0.506739
v -0.296145 0.664437 -0.507576
vn 0.0013324195369033198 -0.23552318734176939 -0.9718678165689775
vn 0.001315358498207967 0.28196529765573747 -0.9594237024119908
vn 0.0009924598090245294 -0.6899034507719523 -0.723900713935606
vn 0.0009458482852968516 0.7239013628668693 -0.6899028353402458
vn 0.0003865713545446016 -0.9594245971318582 -0.281965056311876
vn 0.00032289868615366694 0.9718687250223412 -0.2355229862664953
vn -0.0003228986861536813 -0.9718687250223412 0.2355229862664953
vn -0.000386571354544616 0.9594245971318582 0.281965056311876
vn -0.0009458482852968659 -0.7239013628668693 0.6899028353402458
vn -0.0009924598090245151 0.6899034507719523 0.723900713935606
vn -0.0013153584982079959 -0.28196529765573747 0.9594237024119908
vn -0.0013324195369033198 0.23552318734176939 0.9718678165689775
usemtl material_0_0
f 1//1 2//2 3//1
f 2//2 1//1 4//2
f 5//3 3//1 6//3
f 3//1 5//3 1//1
f 2//2 7//4 8//4
f 7//4 2//2 4//2
f 5//3 9//5 10//5
f 9//5 5//3 6//3
f 11//6 7//4 12//6
f 7//4 11//6 8//4
f 10//5 13//7 14//7
f 13//7 10//5 9//5
f 11//6 15//8 16//8
f 15//8 11//6 12//6
f 14//7 17//9 18//9
f 17//9 14//7 13//7
f 19//10 15//8 20//10
f 15//8 19//10 16//8
f 21//11 18//9 17//9
f 18//9 21//11 22//11
f 20//10 23//12 19//10
f 23//12 20//10 24//12
f 24//12 21//11 23//12
f 21//11 24//12 22//11
