# SSTK version 0.8.0
# 30
mtllib original-30.mtl
o group_18/ID442#ID442
v 0.325021 -0.69799 -0.252842
v -0.30807 -0.705438 -0.246262
v 0.325011 -0.705438 -0.245394
v -0.30806 -0.69799 -0.25371
v 0.325035 -0.695263 -0.263017
v -0.308046 -0.695263 -0.263885
v 0.325007 -0.715613 -0.242667
v -0.308074 -0.715613 -0.243535
v 0.325049 -0.69799 -0.273192
v -0.308032 -0.69799 -0.27406
v -0.30807 -0.725788 -0.246262
v 0.325011 -0.725788 -0.245394
v 0.32506 -0.705438 -0.280641
v -0.308022 -0.705438 -0.281509
v 0.325021 -0.733237 -0.252842
v -0.30806 -0.733237 -0.25371
v -0.308018 -0.715613 -0.284235
v 0.325063 -0.715613 -0.283367
v -0.308046 -0.735963 -0.263885
v 0.325035 -0.735963 -0.263017
v 0.32506 -0.725788 -0.280641
v -0.308022 -0.725788 -0.281509
v 0.325049 -0.733237 -0.273192
v -0.308032 -0.733237 -0.27406
vn -0.0006854940469501349 0.8660253885126259 0.4999995565492705
vn -0.0011873098859290455 0.4999999768258652 0.8660246032702357
vn 0.0 1.0 8.923483645622105e-09
vn 0.0 1.0 8.923432114088186e-09
vn -0.0013709870043008908 -8.924366250650036e-09 0.9999990601968753
vn -0.0013709870043008908 -8.924320957012098e-09 0.9999990601968753
vn 0.0006854930086883936 0.8660253974369699 -0.4999995410932628
vn -0.0011873092864882477 -0.49999999228328224 0.8660245943467056
vn 0.0011873092864881616 0.49999999228328224 -0.8660245943467056
vn -0.0006854930086884653 -0.8660253974369699 0.4999995410932628
vn 0.0013709870043007184 8.924480070164851e-09 -0.9999990601968753
vn 0.0013709870043007184 8.924388952349001e-09 -0.9999990601968753
vn 0.0 -1.0 -8.923621483690205e-09
vn 0.0 -1.0 -8.923641386502407e-09
vn 0.001187309885928715 -0.4999999768258652 -0.8660246032702357
vn 0.0006854940469500271 -0.8660253885126259 -0.4999995565492705
usemtl material_0_0
f 1//1 2//2 3//2
f 2//2 1//1 4//1
f 5//3 4//1 1//1
f 4//1 5//3 6//4
f 2//2 7//5 3//2
f 7//5 2//2 8//6
f 9//7 6//4 5//3
f 6//4 9//7 10//7
f 7//5 11//8 12//8
f 11//8 7//5 8//6
f 13//9 10//7 9//7
f 10//7 13//9 14//9
f 11//8 15//10 12//8
f 15//10 11//8 16//10
f 17//11 13//9 18//12
f 13//9 17//11 14//9
f 19//13 15//10 16//10
f 15//10 19//13 20//14
f 21//15 17//11 18//12
f 17//11 21//15 22//15
f 19//13 23//16 20//14
f 23//16 19//13 24//16
f 24//16 21//15 23//16
f 21//15 24//16 22//15
