# SSTK version 0.8.0
# 28
mtllib original-28.mtl
o #ID428
v 0.376537 0.625492 0.35599
v 0.477355 0.538321 0.457085
v 0.477355 0.625492 0.457085
v 0.394859 0.474738 0.374363
v 0.372506 0.474738 0.351948
v 0.372506 0.474738 0.351948
v 0.397555 0.474738 0.371676
v 0.394859 0.474738 0.374363
v 0.374606 0.474738 0.348664
v 0.394859 0.474738 0.374363
v 0.477841 0.536619 0.452183
v 0.477355 0.538321 0.457085
v 0.397555 0.474738 0.371676
v 0.397555 0.474738 0.371676
v 0.477841 0.625492 0.452183
v 0.477841 0.536619 0.452183
v 0.378636 0.625492 0.352706
v 0.374606 0.474738 0.348664
vn -0.7080755508530389 -6.7256809475490136e-09 0.7061366824377315
vn 0.0 -1.0 -8.923419134519433e-09
vn 0.3375600508138452 -0.8783392477115538 0.33848689490740413
vn 0.7080755508530389 6.725683795556807e-09 -0.7061366824377315
usemtl material_0_0
f 1//1 2//1 3//1
f 2//1 1//1 4//1
f 4//1 1//1 5//1
f 6//2 7//2 8//2
f 7//2 6//2 9//2
f 10//3 11//3 12//3
f 11//3 10//3 13//3
f 14//4 15//4 16//4
f 15//4 14//4 17//4
f 17//4 14//4 18//4
