# SSTK version 0.8.0
# 25
mtllib original-25.mtl
o #ID410
v -0.302326 0.639801 -0.550708
v -0.296078 0.648887 -0.55646
v -0.296085 0.639801 -0.5507
v -0.302318 0.648887 -0.556469
v -0.296301 0.474738 -0.393389
v -0.296349 0.625492 -0.358656
v -0.296356 0.474476 -0.353209
v -0.296227 0.580449 -0.447664
v -0.296215 0.580449 -0.456096
v -0.296227 0.625492 -0.447664
v -0.296085 0.639801 -0.5507
v -0.296192 0.637923 -0.47273
v -0.29614 0.677847 -0.510779
v -0.296078 0.648887 -0.55646
v -0.296075 0.659487 -0.558305
v -0.296078 0.669985 -0.555953
v -0.296087 0.678784 -0.549762
v -0.296128 0.684037 -0.519578
v -0.296099 0.684544 -0.540676
v -0.296114 0.686389 -0.530077
v -0.296215 0.637923 -0.456096
v -0.302542 0.474738 -0.393398
v -0.296301 0.474738 -0.393389
v -0.302591 0.625492 -0.357092
v -0.302542 0.474738 -0.393398
v -0.302599 0.474466 -0.351644
v -0.302467 0.580449 -0.447673
v -0.302467 0.625492 -0.447673
v -0.302456 0.580449 -0.456105
v -0.302326 0.639801 -0.550708
v -0.302433 0.637923 -0.472739
v -0.302456 0.637923 -0.456105
v -0.302381 0.677847 -0.510787
v -0.302318 0.648887 -0.556469
v -0.302315 0.659487 -0.558313
v -0.302319 0.669985 -0.555961
v -0.302327 0.678784 -0.549771
v -0.302369 0.684037 -0.519587
v -0.30234 0.684544 -0.540684
v -0.302354 0.686389 -0.530085
v -0.302315 0.659487 -0.558313
v -0.296075 0.659487 -0.558305
v -0.302542 0.474738 -0.393398
v -0.296356 0.474476 -0.353209
v -0.302599 0.474466 -0.351644
v -0.296301 0.474738 -0.393389
v -0.296078 0.669985 -0.555953
v -0.302319 0.669985 -0.555961
v -0.302327 0.678784 -0.549771
v -0.296087 0.678784 -0.549762
v -0.296099 0.684544 -0.540676
v -0.30234 0.684544 -0.540684
v -0.302354 0.686389 -0.530085
v -0.296114 0.686389 -0.530077
v -0.302369 0.684037 -0.519587
v -0.296128 0.684037 -0.519578
v -0.302381 0.677847 -0.510787
v -0.29614 0.677847 -0.510779
v -0.302433 0.637923 -0.472739
v -0.296192 0.637923 -0.47273
v -0.296192 0.637923 -0.47273
v -0.302456 0.637923 -0.456105
v -0.296215 0.637923 -0.456096
v -0.302433 0.637923 -0.472739
vn 0.0010803902445470498 -0.6156265755282464 -0.7880372784711925
vn 0.0012788737704074842 -0.3603625790998528 -0.9328114365006369
vn 0.9999990601968755 0.0 0.0013709870043073598
vn 0.0009924598090464394 -0.6899034507719523 -0.723900713935606
vn -0.9999990601968755 0.0 -0.0013709870043069712
vn 0.00137059076557639 0.024040177667380213 -0.9997100536348899
vn 8.954429491785289e-06 -0.9999786731444503 -0.006530939908064177
vn 0.0012536477301090519 0.40478310408171775 -0.9144118694643776
vn 0.0009458482853160542 0.7239013628668693 -0.6899028353402458
vn 0.0004940519042002917 0.9328123021234878 -0.36036226900134155
vn -3.295936120146235e-05 0.9997109931137425 0.02404015726270288
vn -0.0005549529544874617 0.9144127151805411 0.40478275450341134
vn -0.0008949712208645195 0.7575362996684767 0.6527924277372599
vn -0.000992459342618633 0.6899038077506818 0.7239003737224919
vn 0.0 1.0 8.923529326101979e-09
usemtl material_0_0
f 1//1 2//2 3//1
f 2//2 1//1 4//2
f 5//3 6//3 7//3
f 6//3 5//3 8//3
f 8//3 5//3 9//3
f 6//3 8//3 10//3
f 11//3 9//3 5//3
f 9//3 11//3 12//3
f 12//3 11//3 13//3
f 13//3 11//3 14//3
f 13//3 14//3 15//3
f 13//3 15//3 16//3
f 13//3 16//3 17//3
f 13//3 17//3 18//3
f 18//3 17//3 19//3
f 18//3 19//3 20//3
f 21//3 9//3 12//3
f 22//4 3//1 23//4
f 3//1 22//4 1//1
f 24//5 25//5 26//5
f 25//5 24//5 27//5
f 27//5 24//5 28//5
f 25//5 29//5 30//5
f 29//5 25//5 27//5
f 30//5 29//5 31//5
f 31//5 29//5 32//5
f 30//5 31//5 33//5
f 30//5 33//5 34//5
f 34//5 33//5 35//5
f 35//5 33//5 36//5
f 36//5 33//5 37//5
f 37//5 33//5 38//5
f 37//5 38//5 39//5
f 39//5 38//5 40//5
f 2//2 41//6 42//6
f 41//6 2//2 4//2
f 43//7 44//7 45//7
f 44//7 43//7 46//7
f 41//6 47//8 42//6
f 47//8 41//6 48//8
f 47//8 49//9 50//9
f 49//9 47//8 48//8
f 51//10 49//9 52//10
f 49//9 51//10 50//9
f 51//10 53//11 54//11
f 53//11 51//10 52//10
f 54//11 55//12 56//12
f 55//12 54//11 53//11
f 56//12 57//13 58//13
f 57//13 56//12 55//12
f 58//13 59//14 60//14
f 59//14 58//13 57//13
f 61//15 62//15 63//15
f 62//15 61//15 64//15
