# SSTK version 0.8.0
# 11
mtllib original-11.mtl
o #ID293
v 0.411172 -0.800565 -0.311068
v 0.411105 -0.804046 -0.262021
v 0.41114 -0.810364 -0.28741
v 0.411136 -0.801033 -0.284909
v 0.411166 -0.792198 -0.306238
v 0.4112 -0.784976 -0.331384
v 0.411191 -0.778145 -0.324553
v 0.411221 -0.76466 -0.346973
v 0.41121 -0.75983 -0.338606
v 0.411235 -0.741002 -0.356772
v 0.411222 -0.738501 -0.347441
v 0.411239 -0.715613 -0.360115
v 0.411226 -0.715613 -0.350454
v 0.411235 -0.690225 -0.356772
v 0.411222 -0.692725 -0.347441
v 0.41121 -0.671397 -0.338606
v 0.411221 -0.666567 -0.346973
v 0.411191 -0.653082 -0.324553
v 0.4112 -0.646251 -0.331384
v 0.411166 -0.639028 -0.306238
v 0.411172 -0.630662 -0.311068
v 0.411136 -0.630194 -0.284909
v 0.41114 -0.620862 -0.28741
v 0.411105 -0.627181 -0.262021
v 0.41107 -0.810364 -0.236633
v 0.411105 -0.813707 -0.262021
v 0.411038 -0.800565 -0.212975
v 0.411074 -0.801033 -0.239133
v 0.411044 -0.792198 -0.217805
v 0.41101 -0.784976 -0.192659
v 0.411019 -0.778145 -0.19949
v 0.410988 -0.76466 -0.17707
v 0.411 -0.75983 -0.185437
v 0.410975 -0.741002 -0.167271
v 0.410988 -0.738501 -0.176602
v 0.41097 -0.715613 -0.163928
v 0.410984 -0.715613 -0.173589
v 0.410988 -0.692725 -0.176602
v 0.410975 -0.690225 -0.167271
v 0.411 -0.671397 -0.185437
v 0.410988 -0.666567 -0.17707
v 0.411019 -0.653082 -0.19949
v 0.41101 -0.646251 -0.192659
v 0.411044 -0.639028 -0.217805
v 0.411038 -0.630662 -0.212975
v 0.411074 -0.630194 -0.239133
v 0.41107 -0.620862 -0.236633
v 0.411105 -0.61752 -0.262021
v 0.406597 -0.784976 -0.33139
v 0.411172 -0.800565 -0.311068
v 0.40657 -0.800565 -0.311074
v 0.4112 -0.784976 -0.331384
v 0.411221 -0.76466 -0.346973
v 0.406619 -0.76466 -0.346979
v 0.411235 -0.741002 -0.356772
v 0.406632 -0.741002 -0.356779
v 0.406637 -0.715613 -0.360121
v 0.411239 -0.715613 -0.360115
v 0.406632 -0.690225 -0.356779
v 0.411235 -0.690225 -0.356772
v 0.411221 -0.666567 -0.346973
v 0.406619 -0.666567 -0.346979
v 0.406597 -0.646251 -0.33139
v 0.4112 -0.646251 -0.331384
v 0.40657 -0.630662 -0.311074
v 0.411172 -0.630662 -0.311068
v 0.406537 -0.620862 -0.287416
v 0.41114 -0.620862 -0.28741
v 0.411105 -0.61752 -0.262021
v 0.406502 -0.61752 -0.262028
v 0.406467 -0.620862 -0.236639
v 0.41107 -0.620862 -0.236633
v 0.406435 -0.630662 -0.212981
v 0.411038 -0.630662 -0.212975
v 0.41101 -0.646251 -0.192659
v 0.406407 -0.646251 -0.192665
v 0.406386 -0.666567 -0.177077
v 0.410988 -0.666567 -0.17707
v 0.410975 -0.690225 -0.167271
v 0.406372 -0.690225 -0.167277
v 0.41097 -0.715613 -0.163928
v 0.406368 -0.715613 -0.163935
v 0.406372 -0.741002 -0.167277
v 0.410975 -0.741002 -0.167271
v 0.406386 -0.76466 -0.177077
v 0.410988 -0.76466 -0.17707
v 0.41101 -0.784976 -0.192659
v 0.406407 -0.784976 -0.192665
v 0.406435 -0.800565 -0.212981
v 0.411038 -0.800565 -0.212975
v 0.406467 -0.810364 -0.236639
v 0.41107 -0.810364 -0.236633
v 0.411105 -0.813707 -0.262021
v 0.406502 -0.813707 -0.262028
v 0.406537 -0.810364 -0.287416
v 0.41114 -0.810364 -0.28741
vn 0.9999990601968755 0.0 0.0013709870042908174
vn 0.0009694346536028634 -0.7071067587690049 -0.7071061390623367
vn 0.0006854940469443802 -0.8660253885126259 -0.4999995565492705
vn 0.00118730988591896 -0.4999999768258652 -0.8660246032702357
vn 0.0013242719271821957 -0.25881898997196984 -0.9659249332809214
vn 0.0013709870042893286 8.924330820631644e-09 -0.9999990601968753
vn 0.0013709870042893286 8.924353891490591e-09 -0.9999990601968753
vn 0.00132427161688897 0.25881900721247825 -0.9659249286617628
vn 0.0011873092864782744 0.49999999228328224 -0.8660245943467056
vn 0.0009694338058655341 0.7071067713899332 -0.7071061264425594
vn 0.0006854930086824651 0.8660253974369699 -0.4999995410932628
vn 0.0003548369346831112 0.9659258351656551 -0.25881876873650683
vn 0.0 1.0 8.923304129866546e-09
vn 0.0 1.0 8.923715974298256e-09
vn -0.00035483809271389603 0.9659258305460754 0.2588187859754438
vn -0.0006854940469443732 0.8660253885126259 0.4999995565492705
vn -0.0009694346536028074 0.7071067587690049 0.7071061390623367
vn -0.00118730988591896 0.4999999768258652 0.8660246032702357
vn -0.0013242719271821678 0.25881898997196984 0.9659249332809214
vn -0.0013709870042893006 -8.92433549005043e-09 0.9999990601968753
vn -0.0013709870042893006 -8.924307019052727e-09 0.9999990601968753
vn -0.001324271616888914 -0.25881900721247825 0.9659249286617628
vn -0.0011873092864781905 -0.49999999228328224 0.8660245943467056
vn -0.0009694338058655202 -0.7071067713899332 0.7071061264425594
vn -0.0006854930086824441 -0.8660253974369699 0.4999995410932628
vn -0.00035483693468310075 -0.9659258351656551 0.25881876873650683
vn 0.0 -1.0 -8.923617925395935e-09
vn 0.0 -1.0 -8.923428154555638e-09
vn 0.0003548380927138715 -0.9659258305460754 -0.2588187859754438
usemtl material_0_0
f 1//1 2//1 3//1
f 2//1 1//1 4//1
f 4//1 1//1 5//1
f 5//1 1//1 6//1
f 5//1 6//1 7//1
f 7//1 6//1 8//1
f 7//1 8//1 9//1
f 9//1 8//1 10//1
f 9//1 10//1 11//1
f 11//1 10//1 12//1
f 11//1 12//1 13//1
f 13//1 12//1 14//1
f 13//1 14//1 15//1
f 15//1 14//1 16//1
f 16//1 14//1 17//1
f 16//1 17//1 18//1
f 18//1 17//1 19//1
f 18//1 19//1 20//1
f 20//1 19//1 21//1
f 20//1 21//1 22//1
f 22//1 21//1 23//1
f 22//1 23//1 24//1
f 3//1 25//1 26//1
f 25//1 3//1 27//1
f 27//1 3//1 2//1
f 27//1 2//1 28//1
f 27//1 28//1 29//1
f 27//1 29//1 30//1
f 30//1 29//1 31//1
f 30//1 31//1 32//1
f 32//1 31//1 33//1
f 32//1 33//1 34//1
f 34//1 33//1 35//1
f 34//1 35//1 36//1
f 36//1 35//1 37//1
f 36//1 37//1 38//1
f 36//1 38//1 39//1
f 39//1 38//1 40//1
f 39//1 40//1 41//1
f 41//1 40//1 42//1
f 41//1 42//1 43//1
f 43//1 42//1 44//1
f 43//1 44//1 45//1
f 45//1 44//1 46//1
f 45//1 46//1 47//1
f 47//1 46//1 24//1
f 47//1 24//1 23//1
f 47//1 23//1 48//1
f 49//2 50//3 51//3
f 50//3 49//2 52//2
f 49//2 53//4 52//2
f 53//4 49//2 54//4
f 54//4 55//5 53//4
f 55//5 54//4 56//5
f 55//5 57//6 58//7
f 57//6 55//5 56//5
f 58//7 59//8 60//8
f 59//8 58//7 57//6
f 59//8 61//9 60//8
f 61//9 59//8 62//9
f 61//9 63//10 64//10
f 63//10 61//9 62//9
f 64//10 65//11 66//11
f 65//11 64//10 63//10
f 66//11 67//12 68//12
f 67//12 66//11 65//11
f 69//13 67//12 70//14
f 67//12 69//13 68//12
f 69//13 71//15 72//15
f 71//15 69//13 70//14
f 72//15 73//16 74//16
f 73//16 72//15 71//15
f 75//17 73//16 76//17
f 73//16 75//17 74//16
f 75//17 77//18 78//18
f 77//18 75//17 76//17
f 77//18 79//19 78//18
f 79//19 77//18 80//19
f 80//19 81//20 79//19
f 81//20 80//19 82//21
f 81//20 83//22 84//22
f 83//22 81//20 82//21
f 84//22 85//23 86//23
f 85//23 84//22 83//22
f 85//23 87//24 86//23
f 87//24 85//23 88//24
f 89//25 87//24 88//24
f 87//24 89//25 90//25
f 91//26 90//25 89//25
f 90//25 91//26 92//26
f 91//26 93//27 92//26
f 93//27 91//26 94//28
f 95//29 93//27 94//28
f 93//27 95//29 96//29
f 51//3 96//29 95//29
f 96//29 51//3 50//3
