# SSTK version 0.8.0
# 9
mtllib original-9.mtl
o #ID281
v 0.381408 -0.734151 -0.192877
v 0.381503 -0.74037 -0.262062
v 0.381418 -0.751426 -0.200033
v 0.381494 -0.739527 -0.255654
v 0.381486 -0.737054 -0.249684
v 0.381479 -0.733119 -0.244556
v 0.381405 -0.715613 -0.190437
v 0.381474 -0.727992 -0.240622
v 0.38147 -0.722021 -0.238149
v 0.381469 -0.715613 -0.237305
v 0.38147 -0.709206 -0.238149
v 0.381408 -0.697075 -0.192877
v 0.381474 -0.703235 -0.240622
v 0.381479 -0.698107 -0.244556
v 0.381486 -0.694173 -0.249684
v 0.381418 -0.679801 -0.200033
v 0.381494 -0.6917 -0.255654
v 0.381503 -0.690856 -0.262062
v 0.381588 -0.679801 -0.324091
v 0.381572 -0.664966 -0.312709
v 0.381434 -0.664966 -0.211415
v 0.381454 -0.653584 -0.226249
v 0.381552 -0.653584 -0.297875
v 0.381478 -0.646428 -0.243524
v 0.381528 -0.646428 -0.2806
v 0.381503 -0.643988 -0.262062
v 0.381478 -0.784798 -0.243524
v 0.381528 -0.784798 -0.2806
v 0.381503 -0.787239 -0.262062
v 0.381552 -0.777643 -0.297875
v 0.381454 -0.777643 -0.226249
v 0.381572 -0.76626 -0.312709
v 0.381434 -0.76626 -0.211415
v 0.381588 -0.751426 -0.324091
v 0.381598 -0.734151 -0.331247
v 0.381512 -0.739527 -0.26847
v 0.38152 -0.737054 -0.274441
v 0.381527 -0.733119 -0.279568
v 0.381601 -0.715613 -0.333687
v 0.381532 -0.727992 -0.283502
v 0.381536 -0.722021 -0.285975
v 0.381537 -0.715613 -0.286819
v 0.381598 -0.697075 -0.331247
v 0.381536 -0.709206 -0.285975
v 0.381532 -0.703235 -0.283502
v 0.381527 -0.698107 -0.279568
v 0.38152 -0.694173 -0.274441
v 0.381512 -0.6917 -0.26847
v 0.381454 -0.777643 -0.226249
v 0.35713 -0.801325 -0.239129
v 0.357101 -0.792461 -0.217728
v 0.381478 -0.784798 -0.243524
v 0.381434 -0.76626 -0.211415
v 0.357075 -0.778359 -0.19935
v 0.357056 -0.759981 -0.185248
v 0.381418 -0.751426 -0.200033
v 0.357044 -0.73858 -0.176383
v 0.381408 -0.734151 -0.192877
v 0.381405 -0.715613 -0.190437
v 0.35704 -0.715613 -0.17336
v 0.381408 -0.697075 -0.192877
v 0.357044 -0.692647 -0.176383
v 0.357056 -0.671245 -0.185248
v 0.381418 -0.679801 -0.200033
v 0.381434 -0.664966 -0.211415
v 0.357075 -0.652868 -0.19935
v 0.357101 -0.638766 -0.217728
v 0.381454 -0.653584 -0.226249
v 0.35713 -0.629901 -0.239129
v 0.381478 -0.646428 -0.243524
v 0.357161 -0.626878 -0.262095
v 0.381503 -0.643988 -0.262062
v 0.357193 -0.629901 -0.285062
v 0.381528 -0.646428 -0.2806
v 0.381552 -0.653584 -0.297875
v 0.357222 -0.638766 -0.306463
v 0.381572 -0.664966 -0.312709
v 0.357247 -0.652868 -0.324841
v 0.357267 -0.671245 -0.338943
v 0.381588 -0.679801 -0.324091
v 0.381598 -0.697075 -0.331247
v 0.357279 -0.692647 -0.347807
v 0.357283 -0.715613 -0.350831
v 0.381601 -0.715613 -0.333687
v 0.357279 -0.73858 -0.347807
v 0.381598 -0.734151 -0.331247
v 0.381588 -0.751426 -0.324091
v 0.357267 -0.759981 -0.338943
v 0.357247 -0.778359 -0.324841
v 0.381572 -0.76626 -0.312709
v 0.357222 -0.792461 -0.306463
v 0.381552 -0.777643 -0.297875
v 0.357193 -0.801325 -0.285062
v 0.381528 -0.784798 -0.2806
v 0.357161 -0.804349 -0.262095
v 0.381503 -0.787239 -0.262062
vn -0.9999990601968755 0.0 -0.001370987004290651
vn -0.5745052648104354 0.7085010853326812 -0.40984132635387555
vn -0.574775773737092 0.7902302775047394 -0.2125298060030867
vn -0.5742729835272334 0.5784887027670802 -0.5792765843373878
vn -0.5740947168278256 0.40905328936800606 -0.7092888428331529
vn -0.5739826577315759 0.2117415946797954 -0.7910179553624896
vn -0.5739444450584338 6.963388516290205e-09 -0.8188942385843038
vn -0.5739444450584338 6.963369286763114e-09 -0.8188942385843038
vn -0.5739826574777229 -0.21174158125058673 -0.7910179591414546
vn -0.5740947163374196 -0.4090532773975562 -0.7092888501335516
vn -0.5742729828336943 -0.5784886931171805 -0.5792765946617107
vn -0.5745052639610272 -0.7085010787069815 -0.4098413389985374
vn -0.5747757727897002 -0.7902302744007946 -0.21252982010637436
vn -0.5750660756175855 -0.8181065866216646 -0.000788416158276776
vn -0.5750660756175855 -0.8181065866216646 -0.0007884161583091415
vn -0.5753563627622188 -0.7902302781801042 0.21095298830882905
vn -0.575626877500387 -0.7085010860080462 0.4082645086516505
vn -0.5758591838799753 -0.5784887034424452 0.5776997666007558
vn -0.5760374079482584 -0.40905329004337093 0.7077120251549676
vn -0.5761494483966785 -0.2117415953551603 0.7894411377098703
vn -0.5761876720880726 -7.638721314481594e-09 0.8173174209165786
vn -0.5761876720880726 -7.638734428350975e-09 0.8173174209165786
vn -0.5761494486505315 0.21174158057522185 0.7894411414888355
vn -0.5760374084386647 0.4090532767221913 0.7077120324553664
vn -0.5758591845735143 0.5784886924418157 0.5776997769250787
vn -0.5756268783497953 0.7085010780316167 0.40826452129631224
vn -0.5753563637096107 0.7902302737254296 0.21095300241211676
vn -0.5750660765983977 0.8181065859462995 -0.000788401557510793
vn -0.5750660765983977 0.8181065859462995 -0.0007884015575060886
usemtl material_0_0
f 1//1 2//1 3//1
f 2//1 1//1 4//1
f 4//1 1//1 5//1
f 5//1 1//1 6//1
f 6//1 1//1 7//1
f 6//1 7//1 8//1
f 8//1 7//1 9//1
f 9//1 7//1 10//1
f 10//1 7//1 11//1
f 11//1 7//1 12//1
f 11//1 12//1 13//1
f 13//1 12//1 14//1
f 14//1 12//1 15//1
f 15//1 12//1 16//1
f 15//1 16//1 17//1
f 17//1 16//1 18//1
f 18//1 16//1 19//1
f 19//1 16//1 20//1
f 20//1 16//1 21//1
f 20//1 21//1 22//1
f 20//1 22//1 23//1
f 23//1 22//1 24//1
f 23//1 24//1 25//1
f 25//1 24//1 26//1
f 27//1 28//1 29//1
f 28//1 27//1 30//1
f 30//1 27//1 31//1
f 30//1 31//1 32//1
f 32//1 31//1 33//1
f 32//1 33//1 34//1
f 34//1 33//1 3//1
f 34//1 3//1 35//1
f 35//1 3//1 2//1
f 35//1 2//1 36//1
f 35//1 36//1 37//1
f 35//1 37//1 38//1
f 35//1 38//1 39//1
f 39//1 38//1 40//1
f 39//1 40//1 41//1
f 39//1 41//1 42//1
f 39//1 42//1 43//1
f 43//1 42//1 44//1
f 43//1 44//1 45//1
f 43//1 45//1 46//1
f 43//1 46//1 47//1
f 43//1 47//1 19//1
f 19//1 47//1 48//1
f 19//1 48//1 18//1
f 49//2 50//3 51//2
f 50//3 49//2 52//3
f 53//4 51//2 54//4
f 51//2 53//4 49//2
f 53//4 55//5 56//5
f 55//5 53//4 54//4
f 56//5 57//6 58//6
f 57//6 56//5 55//5
f 57//6 59//7 58//6
f 59//7 57//6 60//8
f 60//8 61//9 59//7
f 61//9 60//8 62//9
f 61//9 63//10 64//10
f 63//10 61//9 62//9
f 63//10 65//11 64//10
f 65//11 63//10 66//11
f 67//12 65//11 66//11
f 65//11 67//12 68//12
f 69//13 68//12 67//12
f 68//12 69//13 70//13
f 71//14 70//13 69//13
f 70//13 71//14 72//15
f 73//16 72//15 71//14
f 72//15 73//16 74//16
f 73//16 75//17 74//16
f 75//17 73//16 76//17
f 76//17 77//18 75//17
f 77//18 76//17 78//18
f 77//18 79//19 80//19
f 79//19 77//18 78//18
f 79//19 81//20 80//19
f 81//20 79//19 82//20
f 81//20 83//21 84//22
f 83//21 81//20 82//20
f 84//22 85//23 86//23
f 85//23 84//22 83//21
f 85//23 87//24 86//23
f 87//24 85//23 88//24
f 87//24 89//25 90//25
f 89//25 87//24 88//24
f 90//25 91//26 92//26
f 91//26 90//25 89//25
f 92//26 93//27 94//27
f 93//27 92//26 91//26
f 94//27 95//28 96//29
f 95//28 94//27 93//27
f 52//3 95//28 50//3
f 95//28 52//3 96//29
