# SSTK version 0.8.0
# 26
mtllib original-26.mtl
o #ID416
v 0.313598 0.625492 -0.357819
v 0.313646 0.474738 -0.392553
v 0.313591 0.474476 -0.352373
v 0.31372 0.580449 -0.446828
v 0.31372 0.625492 -0.446828
v 0.313732 0.580449 -0.45526
v 0.313861 0.639801 -0.549864
v 0.313754 0.637923 -0.471894
v 0.313732 0.637923 -0.45526
v 0.313807 0.677847 -0.509943
v 0.313869 0.648887 -0.555624
v 0.313872 0.659487 -0.557468
v 0.313868 0.669985 -0.555117
v 0.31386 0.678784 -0.548926
v 0.313819 0.684037 -0.518742
v 0.313848 0.684544 -0.53984
v 0.313833 0.686389 -0.52924
v 0.319995 0.637923 -0.471885
v 0.313732 0.637923 -0.45526
v 0.319972 0.637923 -0.455251
v 0.313754 0.637923 -0.471894
v 0.320047 0.677847 -0.509934
v 0.313754 0.637923 -0.471894
v 0.319995 0.637923 -0.471885
v 0.313807 0.677847 -0.509943
v 0.320059 0.684037 -0.518734
v 0.313819 0.684037 -0.518742
v 0.313833 0.686389 -0.52924
v 0.320074 0.686389 -0.529232
v 0.313848 0.684544 -0.53984
v 0.320088 0.684544 -0.539831
v 0.320101 0.678784 -0.548918
v 0.31386 0.678784 -0.548926
v 0.313868 0.669985 -0.555117
v 0.320109 0.669985 -0.555108
v 0.313872 0.659487 -0.557468
v 0.320112 0.659487 -0.55746
v 0.313869 0.648887 -0.555624
v 0.32011 0.648887 -0.555615
v 0.320102 0.639801 -0.549855
v 0.313861 0.639801 -0.549864
v 0.313646 0.474738 -0.392553
v 0.319886 0.474738 -0.392545
v 0.313591 0.474476 -0.352373
v 0.319886 0.474738 -0.392545
v 0.319829 0.474466 -0.350791
v 0.313646 0.474738 -0.392553
v 0.319886 0.474738 -0.392545
v 0.319837 0.625492 -0.356239
v 0.319829 0.474466 -0.350791
v 0.319961 0.580449 -0.446819
v 0.319961 0.625492 -0.446819
v 0.319972 0.580449 -0.455251
v 0.320102 0.639801 -0.549855
v 0.319995 0.637923 -0.471885
v 0.320047 0.677847 -0.509934
v 0.32011 0.648887 -0.555615
v 0.320112 0.659487 -0.55746
v 0.320109 0.669985 -0.555108
v 0.320101 0.678784 -0.548918
v 0.320059 0.684037 -0.518734
v 0.320088 0.684544 -0.539831
v 0.320074 0.686389 -0.529232
v 0.319972 0.637923 -0.455251
vn -0.9999990601968755 0.0 -0.0013709870042806034
vn 0.0 1.0 8.92352932990414e-09
vn -0.0008949712208450943 0.7575362996684767 0.6527924277372599
vn -0.0009924593425973444 0.6899038077506818 0.7239003737224919
vn -0.0005549529544742742 0.9144127151805411 0.40478275450341134
vn -3.2959361198048746e-05 0.9997109931137425 0.024040157262702887
vn 0.0004940519041934326 0.9328123021234878 -0.36036226900134155
vn 0.0009458482853000934 0.7239013628668693 -0.6899028353402458
vn 0.0012536477300861297 0.4047831040817178 -0.9144118694643778
vn 0.0013705907655496188 0.024040177667380213 -0.9997100536348899
vn 0.0012788737703813922 -0.3603625790998528 -0.9328114365006369
vn 0.0010803902445243893 -0.6156265755282464 -0.7880372784711925
vn 0.0009924598090253174 -0.6899034507719523 -0.723900713935606
vn 8.954429205180553e-06 -0.9999786731444503 -0.006530939908064571
vn 0.9999990601968755 0.0 0.0013709870042819356
usemtl material_0_0
f 1//1 2//1 3//1
f 2//1 1//1 4//1
f 4//1 1//1 5//1
f 2//1 6//1 7//1
f 6//1 2//1 4//1
f 7//1 6//1 8//1
f 8//1 6//1 9//1
f 7//1 8//1 10//1
f 7//1 10//1 11//1
f 11//1 10//1 12//1
f 12//1 10//1 13//1
f 13//1 10//1 14//1
f 14//1 10//1 15//1
f 14//1 15//1 16//1
f 16//1 15//1 17//1
f 18//2 19//2 20//2
f 19//2 18//2 21//2
f 22//3 23//4 24//4
f 23//4 22//3 25//3
f 26//5 25//3 22//3
f 25//3 26//5 27//5
f 26//5 28//6 27//5
f 28//6 26//5 29//6
f 29//6 30//7 28//6
f 30//7 29//6 31//7
f 32//8 30//7 31//7
f 30//7 32//8 33//8
f 34//9 32//8 35//9
f 32//8 34//9 33//8
f 36//10 35//9 37//10
f 35//9 36//10 34//9
f 38//11 37//10 39//11
f 37//10 38//11 36//10
f 40//12 38//11 39//11
f 38//11 40//12 41//12
f 42//13 40//12 43//13
f 40//12 42//13 41//12
f 44//14 45//14 46//14
f 45//14 44//14 47//14
f 48//15 49//15 50//15
f 49//15 48//15 51//15
f 49//15 51//15 52//15
f 48//15 53//15 51//15
f 53//15 48//15 54//15
f 53//15 54//15 55//15
f 55//15 54//15 56//15
f 56//15 54//15 57//15
f 56//15 57//15 58//15
f 56//15 58//15 59//15
f 56//15 59//15 60//15
f 56//15 60//15 61//15
f 61//15 60//15 62//15
f 61//15 62//15 63//15
f 64//15 53//15 55//15
