####
#
# OBJ File Generated by Meshlab
#
####
# Object original-157.obj
#
# Vertices: 101
# Faces: 102
#
####
mtllib ./original-157.obj.mtl

vn -1.517905 0.270508 -2.715107
v 0.152917 0.229919 -0.263530
vn -0.791050 0.140974 -3.007135
v 0.113439 0.006327 -0.263680
vn -1.533156 0.273220 -2.696857
v 0.113082 0.006391 -0.263530
vn -0.772961 0.137750 -3.023729
v 0.153280 0.229886 -0.263680
vn 0.250849 2.870007 -0.023250
v 0.153280 0.229886 -0.263680
vn 0.253513 2.869799 -0.002848
v 0.154058 0.229818 -0.263680
vn 0.250927 2.870903 0.000000
v 0.153669 0.229852 -0.263731
vn 0.253436 2.868935 0.003841
v 0.152917 0.229919 -0.263530
vn 0.253483 2.867613 0.005087
v 0.154421 0.229786 -0.263530
vn 0.253432 2.867032 0.002447
v 0.152605 0.229946 -0.263291
vn 0.253335 2.868447 0.000764
v 0.154732 0.229758 -0.263291
vn 0.253301 2.868067 0.001583
v 0.152366 0.229967 -0.262979
vn 0.253073 2.870436 -0.001732
v 0.154971 0.229737 -0.262979
vn 0.252882 2.868263 -0.001618
v 0.152216 0.229980 -0.262616
vn 0.252996 2.865905 0.000828
v 0.155122 0.229724 -0.262616
vn 0.253223 2.868488 0.000269
v 0.152165 0.229985 -0.262227
vn 0.253223 2.868488 0.000269
v 0.155173 0.229719 -0.262227
vn 0.253201 2.868235 0.001111
v 0.152216 0.229980 -0.261838
vn 0.252677 2.865933 -0.001335
v 0.155122 0.229724 -0.261838
vn 0.252732 2.866560 -0.001256
v 0.152366 0.229967 -0.261475
vn 0.253371 2.868851 0.002062
v 0.154971 0.229737 -0.261475
vn 0.253348 2.868598 -0.002199
v 0.152605 0.229946 -0.261164
vn 0.253692 2.869974 -0.000510
v 0.154732 0.229758 -0.261164
vn 0.253599 2.868921 -0.003611
v 0.152917 0.229919 -0.260925
vn 0.253320 2.867628 -0.004858
v 0.154421 0.229786 -0.260925
vn 0.253734 2.872337 0.015422
v 0.153280 0.229886 -0.260775
vn 0.251070 2.872536 -0.004979
v 0.154058 0.229818 -0.260775
vn 0.250489 2.865888 0.000000
v 0.153669 0.229852 -0.260723
vn 0.000279 -0.000049 -3.115442
v 0.113823 0.006259 -0.263731
vn 0.022636 -0.004034 -3.114927
v 0.153669 0.229852 -0.263731
vn -0.502782 -2.835541 -0.012835
v 0.114206 0.006191 -0.263680
vn -0.505088 -2.834825 0.005399
v 0.113439 0.006327 -0.263680
vn -0.503028 -2.836931 -0.004932
v 0.113823 0.006259 -0.263731
vn -0.505161 -2.835241 -0.003705
v 0.114563 0.006127 -0.263530
vn -0.505910 -2.833555 0.004147
v 0.113082 0.006391 -0.263530
vn -0.505740 -2.832607 0.006416
v 0.114870 0.006072 -0.263291
vn -0.505511 -2.834573 0.002093
v 0.112776 0.006446 -0.263291
vn -0.505936 -2.836953 -0.000845
v 0.115105 0.006031 -0.262979
vn -0.505970 -2.838519 -0.002679
v 0.112541 0.006488 -0.262979
vn -0.505145 -2.833896 -0.002337
v 0.115253 0.006004 -0.262616
vn -0.504922 -2.832005 -0.001483
v 0.112392 0.006514 -0.262616
vn -0.505834 -2.837122 0.000046
v 0.115303 0.005995 -0.262227
vn -0.505834 -2.837122 0.000046
v 0.112342 0.006523 -0.262227
vn -0.505256 -2.833876 0.002278
v 0.115253 0.006004 -0.261838
vn -0.504812 -2.832025 0.001424
v 0.112392 0.006514 -0.261838
vn -0.505426 -2.835470 0.000698
v 0.115105 0.006031 -0.261475
vn -0.505935 -2.836951 0.002536
v 0.112541 0.006488 -0.261475
vn -0.505451 -2.834236 -0.005431
v 0.114870 0.006072 -0.261164
vn -0.506346 -2.835999 -0.001083
v 0.112776 0.006446 -0.261164
vn -0.506179 -2.835060 0.002319
v 0.114563 0.006127 -0.260925
vn -0.504893 -2.833734 -0.005529
v 0.113082 0.006391 -0.260925
vn -0.505586 -2.837633 0.005844
v 0.114206 0.006191 -0.260775
vn -0.503165 -2.837702 -0.012390
v 0.113439 0.006327 -0.260775
vn -0.502147 -2.831962 0.004828
v 0.113823 0.006259 -0.260723
vn -2.168885 0.386511 -2.225912
v 0.152605 0.229946 -0.263291
vn -2.171122 0.386906 -2.200624
v 0.112776 0.006446 -0.263291
vn -3.067258 0.546618 0.000000
v 0.112342 0.006523 -0.262227
vn -2.983840 0.531747 -0.816063
v 0.152216 0.229980 -0.262616
vn -2.959410 0.527390 -0.807006
v 0.112392 0.006514 -0.262616
vn -6.184284 1.103314 0.000000
v 0.112689 0.008468 -0.262227
vn -3.086562 0.550049 0.000000
v 0.152165 0.229985 -0.262227
vn -2.983840 0.531747 0.816063
v 0.152216 0.229980 -0.261838
vn -2.959410 0.527390 0.807006
v 0.112392 0.006514 -0.261838
vn -2.666462 0.475184 1.576686
v 0.152366 0.229967 -0.261475
vn -2.655678 0.473256 1.561328
v 0.112541 0.006488 -0.261475
vn -2.167391 0.386245 2.227711
v 0.152605 0.229946 -0.261164
vn -2.169663 0.386647 2.202555
v 0.112776 0.006446 -0.261164
vn -1.533156 0.273220 2.696857
v 0.113082 0.006391 -0.260925
vn -1.517905 0.270508 2.715107
v 0.152917 0.229919 -0.260925
vn -0.794912 0.141662 3.006618
v 0.113439 0.006327 -0.260775
vn -0.777049 0.138479 3.023149
v 0.153280 0.229886 -0.260775
vn 0.000284 -0.000050 3.114402
v 0.113823 0.006259 -0.260723
vn 0.023064 -0.004110 3.113885
v 0.153669 0.229852 -0.260723
vn 0.796361 -0.141917 3.010011
v 0.114206 0.006191 -0.260775
vn 0.814750 -0.145195 2.996615
v 0.154058 0.229818 -0.260775
vn 1.531707 -0.272963 2.698065
v 0.114563 0.006127 -0.260925
vn 1.543214 -0.275011 2.676282
v 0.154421 0.229786 -0.260925
vn 2.163380 -0.389195 2.202862
v 0.114870 0.006072 -0.261164
vn 2.169402 -0.386544 2.181256
v 0.154732 0.229758 -0.261164
vn 5.484599 -0.979186 2.344698
v 0.115655 0.009118 -0.261462
vn 2.659599 -0.477939 1.557367
v 0.115105 0.006031 -0.261475
vn 2.643543 -0.471009 1.540560
v 0.154971 0.229737 -0.261475
vn 2.939554 -0.523819 0.795571
v 0.155122 0.229724 -0.261838
vn 2.960766 -0.527797 0.804356
v 0.115253 0.006004 -0.261838
vn 6.133058 -1.093004 0.000000
v 0.115744 0.008468 -0.262227
vn 3.066348 -0.546809 0.000000
v 0.115303 0.005995 -0.262227
vn 6.140722 -1.094225 0.000000
v 0.115878 0.009220 -0.262227
vn 3.046505 -0.542916 0.000000
v 0.155173 0.229719 -0.262227
vn 2.960766 -0.527797 -0.804356
v 0.115253 0.006004 -0.262616
vn 2.939554 -0.523819 -0.795571
v 0.155122 0.229724 -0.262616
vn 2.661050 -0.478189 -1.555431
v 0.115105 0.006031 -0.262979
vn 5.487753 -0.979748 -2.340688
v 0.115655 0.009118 -0.262992
vn 2.645037 -0.471275 -1.538761
v 0.154971 0.229737 -0.262979
vn 2.164846 -0.389448 -2.200934
v 0.114870 0.006072 -0.263291
vn 2.170827 -0.386798 -2.179191
v 0.154732 0.229758 -0.263291
vn 1.543214 -0.275011 -2.676282
v 0.154421 0.229786 -0.263530
vn 1.531707 -0.272963 -2.698065
v 0.114563 0.006127 -0.263530
vn 0.811091 -0.144543 -2.997077
v 0.154058 0.229818 -0.263680
vn 0.792486 -0.141227 -3.010533
v 0.114206 0.006191 -0.263680
vn -2.657135 0.473515 -1.559394
v 0.112541 0.006488 -0.262979
vn -2.667886 0.475438 -1.574621
v 0.152366 0.229967 -0.262979
# 101 vertices, 0 vertices normals


usemtl material_0
f 1//1 2//2 3//3
f 2//2 1//1 4//4
f 5//5 6//6 7//7
f 6//6 5//5 8//8
f 6//6 8//8 9//9
f 9//9 8//8 10//10
f 9//9 10//10 11//11
f 11//11 10//10 12//12
f 11//11 12//12 13//13
f 13//13 12//12 14//14
f 13//13 14//14 15//15
f 15//15 14//14 16//16
f 15//15 16//16 17//17
f 17//17 16//16 18//18
f 17//17 18//18 19//19
f 19//19 18//18 20//20
f 19//19 20//20 21//21
f 21//21 20//20 22//22
f 21//21 22//22 23//23
f 23//23 22//22 24//24
f 23//23 24//24 25//25
f 25//25 24//24 26//26
f 25//25 26//26 27//27
f 27//27 26//26 28//28
f 4//4 29//29 2//2
f 29//29 4//4 30//30
f 31//31 32//32 33//33
f 32//32 31//31 34//34
f 32//32 34//34 35//35
f 35//35 34//34 36//36
f 35//35 36//36 37//37
f 37//37 36//36 38//38
f 37//37 38//38 39//39
f 39//39 38//38 40//40
f 39//39 40//40 41//41
f 41//41 40//40 42//42
f 41//41 42//42 43//43
f 43//43 42//42 44//44
f 43//43 44//44 45//45
f 45//45 44//44 46//46
f 45//45 46//46 47//47
f 47//47 46//46 48//48
f 47//47 48//48 49//49
f 49//49 48//48 50//50
f 49//49 50//50 51//51
f 51//51 50//50 52//52
f 51//51 52//52 53//53
f 53//53 52//52 54//54
f 55//55 3//3 56//56
f 3//3 55//55 1//1
f 57//57 58//58 59//59
f 58//58 57//57 60//60
f 58//58 60//60 61//61
f 62//62 57//57 63//63
f 57//57 62//62 60//60
f 60//60 62//62 61//61
f 64//64 63//63 65//65
f 63//63 64//64 62//62
f 66//66 65//65 67//67
f 65//65 66//66 64//64
f 68//68 66//66 67//67
f 66//66 68//68 69//69
f 70//70 69//69 68//68
f 69//69 70//70 71//71
f 72//72 71//71 70//70
f 71//71 72//72 73//73
f 74//74 73//73 72//72
f 73//73 74//74 75//75
f 76//76 75//75 74//74
f 75//75 76//76 77//77
f 78//78 77//77 76//76
f 77//77 78//78 79//79
f 80//80 78//78 81//81
f 78//78 80//80 79//79
f 79//79 80//80 82//82
f 83//83 81//81 84//84
f 81//81 83//83 80//80
f 80//80 83//83 82//82
f 85//85 84//84 86//86
f 84//84 85//85 83//83
f 83//83 85//85 87//87
f 83//83 87//87 88//88
f 89//89 85//85 86//86
f 85//85 89//89 90//90
f 85//85 90//90 87//87
f 87//87 90//90 88//88
f 91//91 90//90 89//89
f 90//90 91//91 92//92
f 90//90 92//92 93//93
f 94//94 92//92 91//91
f 92//92 94//94 95//95
f 92//92 95//95 93//93
f 96//96 94//94 97//97
f 94//94 96//96 95//95
f 98//98 97//97 99//99
f 97//97 98//98 96//96
f 30//30 99//99 29//29
f 99//99 30//30 98//98
f 100//100 55//55 56//56
f 55//55 100//100 101//101
f 59//59 101//101 100//100
f 101//101 59//59 58//58
# 102 faces, 0 coords texture

# End of File
