####
#
# OBJ File Generated by Meshlab
#
####
# Object original-108.obj
#
# Vertices: 432
# Faces: 428
#
####
mtllib ./original-108.obj.mtl

vn 0.000000 1.556074 -2.697974
v 0.381510 0.228348 -0.109232
vn 0.000000 2.202424 -2.202424
v 0.379254 0.227725 -0.109710
vn 0.000000 1.556074 -2.697974
v 0.379254 0.228348 -0.109232
vn 0.000000 2.202424 -2.202424
v 0.381510 0.227725 -0.109710
vn 0.000000 -2.202424 2.202424
v 0.381510 0.227725 -0.109710
vn 0.000000 -1.556074 2.697974
v 0.381510 0.228348 -0.109232
vn 0.000000 -2.202424 2.202424
v 0.379254 0.227725 -0.109710
vn 0.000000 -1.556074 2.697974
v 0.379254 0.228348 -0.109232
vn 0.000000 0.806050 -3.008943
v 0.381510 0.229074 -0.108932
vn 0.000000 0.806050 -3.008943
v 0.379254 0.229074 -0.108932
vn 0.000000 -0.806050 3.008943
v 0.381510 0.229074 -0.108932
vn 0.000000 -0.806050 3.008943
v 0.379254 0.229074 -0.108932
vn 2.880711 0.000000 0.000000
v 0.381510 0.226947 -0.112616
vn 2.881365 0.000000 0.000000
v 0.381510 0.226947 -0.111059
vn 2.878509 0.000000 0.000000
v 0.381510 0.226844 -0.111837
vn 2.879480 0.000000 0.000000
v 0.381510 0.227247 -0.113341
vn 2.878993 0.000000 0.000000
v 0.381510 0.227247 -0.110333
vn 2.879703 0.000000 0.000000
v 0.381510 0.227725 -0.109710
vn 2.879703 0.000000 0.000000
v 0.381510 0.227725 -0.113964
vn 2.878993 0.000000 0.000000
v 0.381510 0.228348 -0.109232
vn 2.878993 0.000000 0.000000
v 0.381510 0.228348 -0.114442
vn 2.881365 0.000000 0.000000
v 0.381510 0.229074 -0.108932
vn 2.881365 0.000000 0.000000
v 0.381510 0.229074 -0.114742
vn 2.878509 0.000000 0.000000
v 0.381510 0.229852 -0.108829
vn 2.878509 0.000000 0.000000
v 0.381510 0.229852 -0.114845
vn 2.880711 0.000000 0.000000
v 0.381510 0.230631 -0.108932
vn 2.880711 0.000000 0.000000
v 0.381510 0.230631 -0.114742
vn 2.879480 0.000000 0.000000
v 0.381510 0.231356 -0.109232
vn 2.879480 0.000000 0.000000
v 0.381510 0.231356 -0.114442
vn 2.879703 0.000000 0.000000
v 0.381510 0.231979 -0.109710
vn 2.879703 0.000000 0.000000
v 0.381510 0.231979 -0.113964
vn 2.878993 0.000000 0.000000
v 0.381510 0.232457 -0.110333
vn 2.879480 0.000000 0.000000
v 0.381510 0.232457 -0.113341
vn 2.881365 0.000000 0.000000
v 0.381510 0.232757 -0.111059
vn 2.880711 0.000000 0.000000
v 0.381510 0.232757 -0.112616
vn 2.878509 0.000000 0.000000
v 0.381510 0.232860 -0.111837
vn -2.878509 0.000000 0.000000
v 0.381510 0.232860 -0.111837
vn -2.880711 0.000000 0.000000
v 0.381510 0.232757 -0.112616
vn -2.881365 0.000000 0.000000
v 0.381510 0.232757 -0.111059
vn -2.879480 0.000000 0.000000
v 0.381510 0.232457 -0.113341
vn -2.878993 0.000000 0.000000
v 0.381510 0.232457 -0.110333
vn -2.879703 0.000000 0.000000
v 0.381510 0.231979 -0.113964
vn -2.879703 0.000000 0.000000
v 0.381510 0.231979 -0.109710
vn -2.879480 0.000000 0.000000
v 0.381510 0.231356 -0.114442
vn -2.879480 0.000000 0.000000
v 0.381510 0.231356 -0.109232
vn -2.880711 0.000000 0.000000
v 0.381510 0.230631 -0.114742
vn -2.880711 0.000000 0.000000
v 0.381510 0.230631 -0.108932
vn -2.878509 0.000000 0.000000
v 0.381510 0.229852 -0.114845
vn -2.878509 0.000000 0.000000
v 0.381510 0.229852 -0.108829
vn -2.881365 0.000000 0.000000
v 0.381510 0.229074 -0.114742
vn -2.881365 0.000000 0.000000
v 0.381510 0.229074 -0.108932
vn -2.878993 0.000000 0.000000
v 0.381510 0.228348 -0.114442
vn -2.878993 0.000000 0.000000
v 0.381510 0.228348 -0.109232
vn -2.879703 0.000000 0.000000
v 0.381510 0.227725 -0.113964
vn -2.879703 0.000000 0.000000
v 0.381510 0.227725 -0.109710
vn -2.879480 0.000000 0.000000
v 0.381510 0.227247 -0.113341
vn -2.878993 0.000000 0.000000
v 0.381510 0.227247 -0.110333
vn -2.881365 0.000000 0.000000
v 0.381510 0.226947 -0.111059
vn -2.880711 0.000000 0.000000
v 0.381510 0.226947 -0.112616
vn -2.878509 0.000000 0.000000
v 0.381510 0.226844 -0.111837
vn 0.000000 1.556074 -2.697974
v 0.383766 0.228348 -0.109232
vn 0.000000 2.202424 -2.202424
v 0.381510 0.227725 -0.109710
vn 0.000000 1.556074 -2.697974
v 0.381510 0.228348 -0.109232
vn 0.000000 2.202424 -2.202424
v 0.383766 0.227725 -0.109710
vn 0.000000 -2.202424 2.202424
v 0.383766 0.227725 -0.109710
vn 0.000000 -1.556074 2.697974
v 0.383766 0.228348 -0.109232
vn 0.000000 -2.202424 2.202424
v 0.381510 0.227725 -0.109710
vn 0.000000 -1.556074 2.697974
v 0.381510 0.228348 -0.109232
vn 0.000000 2.697974 -1.556074
v 0.381510 0.227247 -0.110333
vn 0.000000 2.697974 -1.556074
v 0.379254 0.227247 -0.110333
vn 0.000000 -2.697974 1.556074
v 0.381510 0.227247 -0.110333
vn 0.000000 -2.697974 1.556074
v 0.379254 0.227247 -0.110333
vn 0.000000 1.556074 -2.697974
v 0.379254 0.228348 -0.109232
vn 0.000000 2.202424 -2.202424
v 0.371734 0.227725 -0.109710
vn 0.000000 1.556074 -2.697974
v 0.371734 0.228348 -0.109232
vn 0.000000 2.202424 -2.202424
v 0.379254 0.227725 -0.109710
vn 0.000000 -2.202424 2.202424
v 0.379254 0.227725 -0.109710
vn 0.000000 -1.556074 2.697974
v 0.379254 0.228348 -0.109232
vn 0.000000 -2.202424 2.202424
v 0.371734 0.227725 -0.109710
vn 0.000000 -1.556074 2.697974
v 0.371734 0.228348 -0.109232
vn 0.000000 0.000260 -3.114452
v 0.381510 0.229852 -0.108829
vn 0.000000 0.000260 -3.114452
v 0.379254 0.229852 -0.108829
vn 0.000000 -0.000260 3.114452
v 0.381510 0.229852 -0.108829
vn 0.000000 -0.000260 3.114452
v 0.379254 0.229852 -0.108829
vn 0.000000 0.806050 -3.008943
v 0.383766 0.229074 -0.108932
vn 0.000000 0.806050 -3.008943
v 0.381510 0.229074 -0.108932
vn 0.000000 -0.806050 3.008943
v 0.383766 0.229074 -0.108932
vn 0.000000 -0.806050 3.008943
v 0.381510 0.229074 -0.108932
vn 0.000000 0.806050 -3.008943
v 0.379254 0.229074 -0.108932
vn 0.000000 0.806050 -3.008943
v 0.371734 0.229074 -0.108932
vn 0.000000 -0.806050 3.008943
v 0.379254 0.229074 -0.108932
vn 0.000000 -0.806050 3.008943
v 0.371734 0.229074 -0.108932
vn 0.000000 -0.806497 -3.008685
v 0.381510 0.230631 -0.108932
vn 0.000000 -0.806497 -3.008685
v 0.379254 0.230631 -0.108932
vn 0.000000 0.806497 3.008685
v 0.381510 0.230631 -0.108932
vn 0.000000 0.806497 3.008685
v 0.379254 0.230631 -0.108932
vn 0.000000 -0.806497 -3.008685
v 0.383766 0.230631 -0.108932
vn 0.000000 0.000260 -3.114452
v 0.381510 0.229852 -0.108829
vn 0.000000 -0.806497 -3.008685
v 0.381510 0.230631 -0.108932
vn 0.000000 0.000260 -3.114452
v 0.383766 0.229852 -0.108829
vn 0.000000 -0.000260 3.114452
v 0.383766 0.229852 -0.108829
vn 0.000000 0.806497 3.008685
v 0.383766 0.230631 -0.108932
vn 0.000000 -0.000260 3.114452
v 0.381510 0.229852 -0.108829
vn 0.000000 0.806497 3.008685
v 0.381510 0.230631 -0.108932
vn 0.000000 2.697974 -1.556074
v 0.383766 0.227247 -0.110333
vn 0.000000 2.697974 -1.556074
v 0.381510 0.227247 -0.110333
vn 0.000000 -2.697974 1.556074
v 0.383766 0.227247 -0.110333
vn 0.000000 -2.697974 1.556074
v 0.381510 0.227247 -0.110333
vn 0.000000 3.008943 -0.806050
v 0.381510 0.226947 -0.111059
vn 0.000000 3.008943 -0.806050
v 0.379254 0.226947 -0.111059
vn 0.000000 -3.008943 0.806050
v 0.381510 0.226947 -0.111059
vn 0.000000 -3.008943 0.806050
v 0.379254 0.226947 -0.111059
vn 0.000000 3.008943 -0.806050
v 0.383766 0.226947 -0.111059
vn 0.000000 3.008943 -0.806050
v 0.381510 0.226947 -0.111059
vn 0.000000 -3.008943 0.806050
v 0.383766 0.226947 -0.111059
vn 0.000000 -3.008943 0.806050
v 0.381510 0.226947 -0.111059
vn 0.000000 3.114452 -0.000260
v 0.381510 0.226844 -0.111837
vn 0.000000 3.114452 -0.000260
v 0.379254 0.226844 -0.111837
vn 0.000000 -3.114452 0.000260
v 0.381510 0.226844 -0.111837
vn 0.000000 -3.114452 0.000260
v 0.379254 0.226844 -0.111837
vn 0.000000 3.114452 -0.000260
v 0.383766 0.226844 -0.111837
vn 0.000000 3.114452 -0.000260
v 0.381510 0.226844 -0.111837
vn 0.000000 -3.114452 0.000260
v 0.383766 0.226844 -0.111837
vn 0.000000 -3.114452 0.000260
v 0.381510 0.226844 -0.111837
vn 0.000000 3.008685 0.806497
v 0.381510 0.226947 -0.112616
vn 0.000000 3.008685 0.806497
v 0.379254 0.226947 -0.112616
vn 0.000000 -3.008685 -0.806497
v 0.381510 0.226947 -0.112616
vn 0.000000 -3.008685 -0.806497
v 0.379254 0.226947 -0.112616
vn 0.000000 3.008685 0.806497
v 0.383766 0.226947 -0.112616
vn 0.000000 3.008685 0.806497
v 0.381510 0.226947 -0.112616
vn 0.000000 -3.008685 -0.806497
v 0.383766 0.226947 -0.112616
vn 0.000000 -3.008685 -0.806497
v 0.381510 0.226947 -0.112616
vn 0.000000 2.697682 1.556781
v 0.381510 0.227247 -0.113341
vn 0.000000 2.697682 1.556781
v 0.379254 0.227247 -0.113341
vn 0.000000 -2.697682 -1.556781
v 0.381510 0.227247 -0.113341
vn 0.000000 -2.697682 -1.556781
v 0.379254 0.227247 -0.113341
vn 0.000000 2.697682 1.556781
v 0.383766 0.227247 -0.113341
vn 0.000000 2.697682 1.556781
v 0.381510 0.227247 -0.113341
vn 0.000000 -2.697682 -1.556781
v 0.383766 0.227247 -0.113341
vn 0.000000 -2.697682 -1.556781
v 0.381510 0.227247 -0.113341
vn 0.000000 2.202424 2.202424
v 0.381510 0.227725 -0.113964
vn 0.000000 2.202424 2.202424
v 0.379254 0.227725 -0.113964
vn 0.000000 -2.202424 -2.202424
v 0.381510 0.227725 -0.113964
vn 0.000000 -2.202424 -2.202424
v 0.379254 0.227725 -0.113964
vn 0.000000 2.202424 2.202424
v 0.383766 0.227725 -0.113964
vn 0.000000 2.202424 2.202424
v 0.381510 0.227725 -0.113964
vn 0.000000 -2.202424 -2.202424
v 0.383766 0.227725 -0.113964
vn 0.000000 -2.202424 -2.202424
v 0.381510 0.227725 -0.113964
vn 0.000000 1.556074 2.697974
v 0.379254 0.228348 -0.114442
vn 0.000000 1.556074 2.697974
v 0.381510 0.228348 -0.114442
vn 0.000000 -1.556074 -2.697974
v 0.381510 0.228348 -0.114442
vn 0.000000 -1.556074 -2.697974
v 0.379254 0.228348 -0.114442
vn 0.000000 1.556074 2.697974
v 0.381510 0.228348 -0.114442
vn 0.000000 1.556074 2.697974
v 0.383766 0.228348 -0.114442
vn 0.000000 -1.556074 -2.697974
v 0.383766 0.228348 -0.114442
vn 0.000000 -1.556074 -2.697974
v 0.381510 0.228348 -0.114442
vn 0.000000 0.806050 3.008943
v 0.379254 0.229074 -0.114742
vn 0.000000 0.806050 3.008943
v 0.381510 0.229074 -0.114742
vn 0.000000 -0.806050 -3.008943
v 0.381510 0.229074 -0.114742
vn 0.000000 -0.806050 -3.008943
v 0.379254 0.229074 -0.114742
vn 0.000000 0.806050 3.008943
v 0.381510 0.229074 -0.114742
vn 0.000000 0.806050 3.008943
v 0.383766 0.229074 -0.114742
vn 0.000000 -0.806050 -3.008943
v 0.383766 0.229074 -0.114742
vn 0.000000 -0.806050 -3.008943
v 0.381510 0.229074 -0.114742
vn 0.000000 0.000260 3.114452
v 0.379254 0.229852 -0.114845
vn 0.000000 0.000260 3.114452
v 0.381510 0.229852 -0.114845
vn 0.000000 -0.000260 -3.114452
v 0.381510 0.229852 -0.114845
vn 0.000000 -0.000260 -3.114452
v 0.379254 0.229852 -0.114845
vn 0.000000 0.000260 3.114452
v 0.381510 0.229852 -0.114845
vn 0.000000 0.000260 3.114452
v 0.383766 0.229852 -0.114845
vn 0.000000 -0.000260 -3.114452
v 0.383766 0.229852 -0.114845
vn 0.000000 -0.000260 -3.114452
v 0.381510 0.229852 -0.114845
vn 0.000000 -0.806497 3.008685
v 0.379254 0.230631 -0.114742
vn 0.000000 -0.806497 3.008685
v 0.381510 0.230631 -0.114742
vn 0.000000 0.806497 -3.008685
v 0.381510 0.230631 -0.114742
vn 0.000000 0.806497 -3.008685
v 0.379254 0.230631 -0.114742
vn 0.000000 -0.806497 3.008685
v 0.381510 0.230631 -0.114742
vn 0.000000 -0.806497 3.008685
v 0.383766 0.230631 -0.114742
vn 0.000000 0.806497 -3.008685
v 0.383766 0.230631 -0.114742
vn 0.000000 0.806497 -3.008685
v 0.381510 0.230631 -0.114742
vn 0.000000 -1.556781 2.697682
v 0.379254 0.231356 -0.114442
vn 0.000000 -1.556781 2.697682
v 0.381510 0.231356 -0.114442
vn 0.000000 1.556781 -2.697682
v 0.381510 0.231356 -0.114442
vn 0.000000 1.556781 -2.697682
v 0.379254 0.231356 -0.114442
vn 0.000000 -1.556781 2.697682
v 0.381510 0.231356 -0.114442
vn 0.000000 -1.556781 2.697682
v 0.383766 0.231356 -0.114442
vn 0.000000 1.556781 -2.697682
v 0.383766 0.231356 -0.114442
vn 0.000000 1.556781 -2.697682
v 0.381510 0.231356 -0.114442
vn 0.000000 -2.202424 2.202424
v 0.379254 0.231979 -0.113964
vn 0.000000 -2.202424 2.202424
v 0.381510 0.231979 -0.113964
vn 0.000000 2.202424 -2.202424
v 0.381510 0.231979 -0.113964
vn 0.000000 2.202424 -2.202424
v 0.379254 0.231979 -0.113964
vn 0.000000 -2.202424 2.202424
v 0.381510 0.231979 -0.113964
vn 0.000000 -2.202424 2.202424
v 0.383766 0.231979 -0.113964
vn 0.000000 2.202424 -2.202424
v 0.383766 0.231979 -0.113964
vn 0.000000 2.202424 -2.202424
v 0.381510 0.231979 -0.113964
vn 0.000000 -2.697682 1.556781
v 0.381510 0.232457 -0.113341
vn 0.000000 -2.697682 1.556781
v 0.379254 0.232457 -0.113341
vn 0.000000 2.697682 -1.556781
v 0.379254 0.232457 -0.113341
vn 0.000000 2.697682 -1.556781
v 0.381510 0.232457 -0.113341
vn 0.000000 -2.697682 1.556781
v 0.383766 0.232457 -0.113341
vn 0.000000 -2.697682 1.556781
v 0.381510 0.232457 -0.113341
vn 0.000000 2.697682 -1.556781
v 0.381510 0.232457 -0.113341
vn 0.000000 2.697682 -1.556781
v 0.383766 0.232457 -0.113341
vn 0.000000 -3.008685 0.806497
v 0.381510 0.232757 -0.112616
vn 0.000000 -3.008685 0.806497
v 0.379254 0.232757 -0.112616
vn 0.000000 3.008685 -0.806497
v 0.379254 0.232757 -0.112616
vn 0.000000 3.008685 -0.806497
v 0.381510 0.232757 -0.112616
vn 0.000000 -3.008685 0.806497
v 0.383766 0.232757 -0.112616
vn 0.000000 -3.008685 0.806497
v 0.381510 0.232757 -0.112616
vn 0.000000 3.008685 -0.806497
v 0.381510 0.232757 -0.112616
vn 0.000000 3.008685 -0.806497
v 0.383766 0.232757 -0.112616
vn 0.000000 -3.114452 -0.000260
v 0.381510 0.232860 -0.111837
vn 0.000000 -3.114452 -0.000260
v 0.379254 0.232860 -0.111837
vn 0.000000 3.114452 0.000260
v 0.379254 0.232860 -0.111837
vn 0.000000 3.114452 0.000260
v 0.381510 0.232860 -0.111837
vn 0.000000 -3.114452 -0.000260
v 0.383766 0.232860 -0.111837
vn 0.000000 -3.114452 -0.000260
v 0.381510 0.232860 -0.111837
vn 0.000000 3.114452 0.000260
v 0.381510 0.232860 -0.111837
vn 0.000000 3.114452 0.000260
v 0.383766 0.232860 -0.111837
vn 0.000000 -3.008943 -0.806050
v 0.381510 0.232757 -0.111059
vn 0.000000 -3.008943 -0.806050
v 0.379254 0.232757 -0.111059
vn 0.000000 3.008943 0.806050
v 0.379254 0.232757 -0.111059
vn 0.000000 3.008943 0.806050
v 0.381510 0.232757 -0.111059
vn 0.000000 -3.008943 -0.806050
v 0.383766 0.232757 -0.111059
vn 0.000000 -3.008943 -0.806050
v 0.381510 0.232757 -0.111059
vn 0.000000 3.008943 0.806050
v 0.381510 0.232757 -0.111059
vn 0.000000 3.008943 0.806050
v 0.383766 0.232757 -0.111059
vn 0.000000 -2.697974 -1.556074
v 0.381510 0.232457 -0.110333
vn 0.000000 -2.697974 -1.556074
v 0.379254 0.232457 -0.110333
vn 0.000000 2.697974 1.556074
v 0.379254 0.232457 -0.110333
vn 0.000000 2.697974 1.556074
v 0.381510 0.232457 -0.110333
vn 0.000000 -2.697974 -1.556074
v 0.383766 0.232457 -0.110333
vn 0.000000 -2.697974 -1.556074
v 0.381510 0.232457 -0.110333
vn 0.000000 2.697974 1.556074
v 0.381510 0.232457 -0.110333
vn 0.000000 2.697974 1.556074
v 0.383766 0.232457 -0.110333
vn 0.000000 -2.202424 -2.202424
v 0.381510 0.231979 -0.109710
vn 0.000000 -2.202424 -2.202424
v 0.379254 0.231979 -0.109710
vn 0.000000 2.202424 2.202424
v 0.379254 0.231979 -0.109710
vn 0.000000 2.202424 2.202424
v 0.381510 0.231979 -0.109710
vn 0.000000 -2.202424 -2.202424
v 0.383766 0.231979 -0.109710
vn 0.000000 -2.202424 -2.202424
v 0.381510 0.231979 -0.109710
vn 0.000000 2.202424 2.202424
v 0.381510 0.231979 -0.109710
vn 0.000000 2.202424 2.202424
v 0.383766 0.231979 -0.109710
vn 0.000000 -1.556781 -2.697682
v 0.379254 0.231356 -0.109232
vn 0.000000 -1.556781 -2.697682
v 0.381510 0.231356 -0.109232
vn 0.000000 1.556781 2.697682
v 0.381510 0.231356 -0.109232
vn 0.000000 1.556781 2.697682
v 0.379254 0.231356 -0.109232
vn 0.000000 -1.556781 -2.697682
v 0.381510 0.231356 -0.109232
vn 0.000000 -1.556781 -2.697682
v 0.383766 0.231356 -0.109232
vn 0.000000 1.556781 2.697682
v 0.383766 0.231356 -0.109232
vn 0.000000 1.556781 2.697682
v 0.381510 0.231356 -0.109232
vn 0.000000 1.556074 -2.697974
v 0.391285 0.228348 -0.109232
vn 0.000000 2.202424 -2.202424
v 0.383766 0.227725 -0.109710
vn 0.000000 1.556074 -2.697974
v 0.383766 0.228348 -0.109232
vn 0.000000 2.202424 -2.202424
v 0.391285 0.227725 -0.109710
vn 0.000000 -2.202424 2.202424
v 0.391285 0.227725 -0.109710
vn 0.000000 -1.556074 2.697974
v 0.391285 0.228348 -0.109232
vn 0.000000 -2.202424 2.202424
v 0.383766 0.227725 -0.109710
vn 0.000000 -1.556074 2.697974
v 0.383766 0.228348 -0.109232
vn 0.000000 2.697974 -1.556074
v 0.379254 0.227247 -0.110333
vn 0.000000 2.697974 -1.556074
v 0.371734 0.227247 -0.110333
vn 0.000000 -2.697974 1.556074
v 0.379254 0.227247 -0.110333
vn 0.000000 -2.697974 1.556074
v 0.371734 0.227247 -0.110333
vn 0.000000 0.000260 -3.114452
v 0.379254 0.229852 -0.108829
vn 0.000000 0.000260 -3.114452
v 0.371734 0.229852 -0.108829
vn 0.000000 -0.000260 3.114452
v 0.379254 0.229852 -0.108829
vn 0.000000 -0.000260 3.114452
v 0.371734 0.229852 -0.108829
vn 0.000000 0.806050 -3.008943
v 0.391285 0.229074 -0.108932
vn 0.000000 0.806050 -3.008943
v 0.383766 0.229074 -0.108932
vn 0.000000 -0.806050 3.008943
v 0.391285 0.229074 -0.108932
vn 0.000000 -0.806050 3.008943
v 0.383766 0.229074 -0.108932
vn 0.000000 -0.806497 -3.008685
v 0.379254 0.230631 -0.108932
vn 0.000000 -0.806497 -3.008685
v 0.371734 0.230631 -0.108932
vn 0.000000 0.806497 3.008685
v 0.379254 0.230631 -0.108932
vn 0.000000 0.806497 3.008685
v 0.371734 0.230631 -0.108932
vn 0.000000 -0.806497 -3.008685
v 0.391285 0.230631 -0.108932
vn 0.000000 0.000260 -3.114452
v 0.383766 0.229852 -0.108829
vn 0.000000 -0.806497 -3.008685
v 0.383766 0.230631 -0.108932
vn 0.000000 0.000260 -3.114452
v 0.391285 0.229852 -0.108829
vn 0.000000 -0.000260 3.114452
v 0.391285 0.229852 -0.108829
vn 0.000000 0.806497 3.008685
v 0.391285 0.230631 -0.108932
vn 0.000000 -0.000260 3.114452
v 0.383766 0.229852 -0.108829
vn 0.000000 0.806497 3.008685
v 0.383766 0.230631 -0.108932
vn 0.000000 2.697974 -1.556074
v 0.391285 0.227247 -0.110333
vn 0.000000 2.697974 -1.556074
v 0.383766 0.227247 -0.110333
vn 0.000000 -2.697974 1.556074
v 0.391285 0.227247 -0.110333
vn 0.000000 -2.697974 1.556074
v 0.383766 0.227247 -0.110333
vn 0.000000 3.008943 -0.806050
v 0.379254 0.226947 -0.111059
vn 0.000000 3.008943 -0.806050
v 0.371734 0.226947 -0.111059
vn 0.000000 -3.008943 0.806050
v 0.379254 0.226947 -0.111059
vn 0.000000 -3.008943 0.806050
v 0.371734 0.226947 -0.111059
vn 0.000000 3.008943 -0.806050
v 0.391285 0.226947 -0.111059
vn 0.000000 3.008943 -0.806050
v 0.383766 0.226947 -0.111059
vn 0.000000 -3.008943 0.806050
v 0.391285 0.226947 -0.111059
vn 0.000000 -3.008943 0.806050
v 0.383766 0.226947 -0.111059
vn 0.000000 3.114452 -0.000260
v 0.379254 0.226844 -0.111837
vn 0.000000 3.114452 -0.000260
v 0.371734 0.226844 -0.111837
vn 0.000000 -3.114452 0.000260
v 0.379254 0.226844 -0.111837
vn 0.000000 -3.114452 0.000260
v 0.371734 0.226844 -0.111837
vn 0.000000 3.114452 -0.000260
v 0.391285 0.226844 -0.111837
vn 0.000000 3.114452 -0.000260
v 0.383766 0.226844 -0.111837
vn 0.000000 -3.114452 0.000260
v 0.391285 0.226844 -0.111837
vn 0.000000 -3.114452 0.000260
v 0.383766 0.226844 -0.111837
vn 0.000000 3.008685 0.806497
v 0.379254 0.226947 -0.112616
vn 0.000000 3.008685 0.806497
v 0.371734 0.226947 -0.112616
vn 0.000000 -3.008685 -0.806497
v 0.379254 0.226947 -0.112616
vn 0.000000 -3.008685 -0.806497
v 0.371734 0.226947 -0.112616
vn 0.000000 3.008685 0.806497
v 0.391285 0.226947 -0.112616
vn 0.000000 3.008685 0.806497
v 0.383766 0.226947 -0.112616
vn 0.000000 -3.008685 -0.806497
v 0.391285 0.226947 -0.112616
vn 0.000000 -3.008685 -0.806497
v 0.383766 0.226947 -0.112616
vn 0.000000 2.697682 1.556781
v 0.379254 0.227247 -0.113341
vn 0.000000 2.697682 1.556781
v 0.371734 0.227247 -0.113341
vn 0.000000 -2.697682 -1.556781
v 0.379254 0.227247 -0.113341
vn 0.000000 -2.697682 -1.556781
v 0.371734 0.227247 -0.113341
vn 0.000000 2.697682 1.556781
v 0.391285 0.227247 -0.113341
vn 0.000000 2.697682 1.556781
v 0.383766 0.227247 -0.113341
vn 0.000000 -2.697682 -1.556781
v 0.391285 0.227247 -0.113341
vn 0.000000 -2.697682 -1.556781
v 0.383766 0.227247 -0.113341
vn 0.000000 2.202424 2.202424
v 0.379254 0.227725 -0.113964
vn 0.000000 2.202424 2.202424
v 0.371734 0.227725 -0.113964
vn 0.000000 -2.202424 -2.202424
v 0.379254 0.227725 -0.113964
vn 0.000000 -2.202424 -2.202424
v 0.371734 0.227725 -0.113964
vn 0.000000 2.202424 2.202424
v 0.391285 0.227725 -0.113964
vn 0.000000 2.202424 2.202424
v 0.383766 0.227725 -0.113964
vn 0.000000 -2.202424 -2.202424
v 0.391285 0.227725 -0.113964
vn 0.000000 -2.202424 -2.202424
v 0.383766 0.227725 -0.113964
vn 0.000000 1.556074 2.697974
v 0.371734 0.228348 -0.114442
vn 0.000000 1.556074 2.697974
v 0.379254 0.228348 -0.114442
vn 0.000000 -1.556074 -2.697974
v 0.379254 0.228348 -0.114442
vn 0.000000 -1.556074 -2.697974
v 0.371734 0.228348 -0.114442
vn 0.000000 1.556074 2.697974
v 0.383766 0.228348 -0.114442
vn 0.000000 1.556074 2.697974
v 0.391285 0.228348 -0.114442
vn 0.000000 -1.556074 -2.697974
v 0.391285 0.228348 -0.114442
vn 0.000000 -1.556074 -2.697974
v 0.383766 0.228348 -0.114442
vn 0.000000 0.806050 3.008943
v 0.371734 0.229074 -0.114742
vn 0.000000 0.806050 3.008943
v 0.379254 0.229074 -0.114742
vn 0.000000 -0.806050 -3.008943
v 0.379254 0.229074 -0.114742
vn 0.000000 -0.806050 -3.008943
v 0.371734 0.229074 -0.114742
vn 0.000000 0.806050 3.008943
v 0.383766 0.229074 -0.114742
vn 0.000000 0.806050 3.008943
v 0.391285 0.229074 -0.114742
vn 0.000000 -0.806050 -3.008943
v 0.391285 0.229074 -0.114742
vn 0.000000 -0.806050 -3.008943
v 0.383766 0.229074 -0.114742
vn 0.000000 0.000260 3.114452
v 0.371734 0.229852 -0.114845
vn 0.000000 0.000260 3.114452
v 0.379254 0.229852 -0.114845
vn 0.000000 -0.000260 -3.114452
v 0.379254 0.229852 -0.114845
vn 0.000000 -0.000260 -3.114452
v 0.371734 0.229852 -0.114845
vn 0.000000 0.000260 3.114452
v 0.383766 0.229852 -0.114845
vn 0.000000 0.000260 3.114452
v 0.391285 0.229852 -0.114845
vn 0.000000 -0.000260 -3.114452
v 0.391285 0.229852 -0.114845
vn 0.000000 -0.000260 -3.114452
v 0.383766 0.229852 -0.114845
vn 0.000000 -0.806497 3.008685
v 0.371734 0.230631 -0.114742
vn 0.000000 -0.806497 3.008685
v 0.379254 0.230631 -0.114742
vn 0.000000 0.806497 -3.008685
v 0.379254 0.230631 -0.114742
vn 0.000000 0.806497 -3.008685
v 0.371734 0.230631 -0.114742
vn 0.000000 -0.806497 3.008685
v 0.383766 0.230631 -0.114742
vn 0.000000 -0.806497 3.008685
v 0.391285 0.230631 -0.114742
vn 0.000000 0.806497 -3.008685
v 0.391285 0.230631 -0.114742
vn 0.000000 0.806497 -3.008685
v 0.383766 0.230631 -0.114742
vn 0.000000 -1.556781 2.697682
v 0.371734 0.231356 -0.114442
vn 0.000000 -1.556781 2.697682
v 0.379254 0.231356 -0.114442
vn 0.000000 1.556781 -2.697682
v 0.379254 0.231356 -0.114442
vn 0.000000 1.556781 -2.697682
v 0.371734 0.231356 -0.114442
vn 0.000000 -1.556781 2.697682
v 0.383766 0.231356 -0.114442
vn 0.000000 -1.556781 2.697682
v 0.391285 0.231356 -0.114442
vn 0.000000 1.556781 -2.697682
v 0.391285 0.231356 -0.114442
vn 0.000000 1.556781 -2.697682
v 0.383766 0.231356 -0.114442
vn 0.000000 -2.202424 2.202424
v 0.371734 0.231979 -0.113964
vn 0.000000 -2.202424 2.202424
v 0.379254 0.231979 -0.113964
vn 0.000000 2.202424 -2.202424
v 0.379254 0.231979 -0.113964
vn 0.000000 2.202424 -2.202424
v 0.371734 0.231979 -0.113964
vn 0.000000 -2.202424 2.202424
v 0.383766 0.231979 -0.113964
vn 0.000000 -2.202424 2.202424
v 0.391285 0.231979 -0.113964
vn 0.000000 2.202424 -2.202424
v 0.391285 0.231979 -0.113964
vn 0.000000 2.202424 -2.202424
v 0.383766 0.231979 -0.113964
vn 0.000000 -2.697682 1.556781
v 0.379254 0.232457 -0.113341
vn 0.000000 -2.697682 1.556781
v 0.371734 0.232457 -0.113341
vn 0.000000 2.697682 -1.556781
v 0.371734 0.232457 -0.113341
vn 0.000000 2.697682 -1.556781
v 0.379254 0.232457 -0.113341
vn 0.000000 -2.697682 1.556781
v 0.391285 0.232457 -0.113341
vn 0.000000 -2.697682 1.556781
v 0.383766 0.232457 -0.113341
vn 0.000000 2.697682 -1.556781
v 0.383766 0.232457 -0.113341
vn 0.000000 2.697682 -1.556781
v 0.391285 0.232457 -0.113341
vn 0.000000 -3.008685 0.806497
v 0.379254 0.232757 -0.112616
vn 0.000000 -3.008685 0.806497
v 0.371734 0.232757 -0.112616
vn 0.000000 3.008685 -0.806497
v 0.371734 0.232757 -0.112616
vn 0.000000 3.008685 -0.806497
v 0.379254 0.232757 -0.112616
vn 0.000000 -3.008685 0.806497
v 0.391285 0.232757 -0.112616
vn 0.000000 -3.008685 0.806497
v 0.383766 0.232757 -0.112616
vn 0.000000 3.008685 -0.806497
v 0.383766 0.232757 -0.112616
vn 0.000000 3.008685 -0.806497
v 0.391285 0.232757 -0.112616
vn 0.000000 -3.114452 -0.000260
v 0.379254 0.232860 -0.111837
vn 0.000000 -3.114452 -0.000260
v 0.371734 0.232860 -0.111837
vn 0.000000 3.114452 0.000260
v 0.371734 0.232860 -0.111837
vn 0.000000 3.114452 0.000260
v 0.379254 0.232860 -0.111837
vn 0.000000 -3.114452 -0.000260
v 0.391285 0.232860 -0.111837
vn 0.000000 -3.114452 -0.000260
v 0.383766 0.232860 -0.111837
vn 0.000000 3.114452 0.000260
v 0.383766 0.232860 -0.111837
vn 0.000000 3.114452 0.000260
v 0.391285 0.232860 -0.111837
vn 0.000000 -3.008943 -0.806050
v 0.379254 0.232757 -0.111059
vn 0.000000 -3.008943 -0.806050
v 0.371734 0.232757 -0.111059
vn 0.000000 3.008943 0.806050
v 0.371734 0.232757 -0.111059
vn 0.000000 3.008943 0.806050
v 0.379254 0.232757 -0.111059
vn 0.000000 -3.008943 -0.806050
v 0.391285 0.232757 -0.111059
vn 0.000000 -3.008943 -0.806050
v 0.383766 0.232757 -0.111059
vn 0.000000 3.008943 0.806050
v 0.383766 0.232757 -0.111059
vn 0.000000 3.008943 0.806050
v 0.391285 0.232757 -0.111059
vn 0.000000 -2.697974 -1.556074
v 0.379254 0.232457 -0.110333
vn 0.000000 -2.697974 -1.556074
v 0.371734 0.232457 -0.110333
vn 0.000000 2.697974 1.556074
v 0.371734 0.232457 -0.110333
vn 0.000000 2.697974 1.556074
v 0.379254 0.232457 -0.110333
vn 0.000000 -2.697974 -1.556074
v 0.391285 0.232457 -0.110333
vn 0.000000 -2.697974 -1.556074
v 0.383766 0.232457 -0.110333
vn 0.000000 2.697974 1.556074
v 0.383766 0.232457 -0.110333
vn 0.000000 2.697974 1.556074
v 0.391285 0.232457 -0.110333
vn 0.000000 -2.202424 -2.202424
v 0.379254 0.231979 -0.109710
vn 0.000000 -2.202424 -2.202424
v 0.371734 0.231979 -0.109710
vn 0.000000 2.202424 2.202424
v 0.371734 0.231979 -0.109710
vn 0.000000 2.202424 2.202424
v 0.379254 0.231979 -0.109710
vn 0.000000 -2.202424 -2.202424
v 0.391285 0.231979 -0.109710
vn 0.000000 -2.202424 -2.202424
v 0.383766 0.231979 -0.109710
vn 0.000000 2.202424 2.202424
v 0.383766 0.231979 -0.109710
vn 0.000000 2.202424 2.202424
v 0.391285 0.231979 -0.109710
vn 0.000000 -1.556781 -2.697682
v 0.371734 0.231356 -0.109232
vn 0.000000 -1.556781 -2.697682
v 0.379254 0.231356 -0.109232
vn 0.000000 1.556781 2.697682
v 0.379254 0.231356 -0.109232
vn 0.000000 1.556781 2.697682
v 0.371734 0.231356 -0.109232
vn 0.000000 -1.556781 -2.697682
v 0.383766 0.231356 -0.109232
vn 0.000000 -1.556781 -2.697682
v 0.391285 0.231356 -0.109232
vn 0.000000 1.556781 2.697682
v 0.391285 0.231356 -0.109232
vn 0.000000 1.556781 2.697682
v 0.383766 0.231356 -0.109232
# 432 vertices, 0 vertices normals


usemtl material_0
vt -0.021325 0.060658
vt -0.016404 0.058945
vt -0.016404 0.060658
f 1/1/1 2/2/2 3/3/3
vt -0.021325 0.058945
f 2/2/2 1/1/1 4/4/4
f 5/4/5 6/1/6 7/2/7
f 8/3/8 7/2/7 6/1/6
vt -0.021325 0.056583
vt -0.016404 0.054870
vt -0.016404 0.056583
f 9/5/9 3/6/3 10/7/10
vt -0.021325 0.054870
f 3/6/3 9/5/9 1/8/1
f 6/8/6 11/5/11 8/6/8
f 12/7/12 8/6/8 11/5/11
vt -0.040953 0.036313
vt -0.044349 0.036313
vt -0.042651 0.036089
f 13/9/13 14/10/14 15/11/15
vt -0.039370 0.036968
f 14/10/14 13/9/13 16/12/16
vt -0.045932 0.036968
f 14/10/14 16/12/16 17/13/17
vt -0.047291 0.038011
f 17/13/17 16/12/16 18/14/18
vt -0.038011 0.038011
f 18/14/18 16/12/16 19/15/19
vt -0.048333 0.039370
f 18/14/18 19/15/19 20/16/20
vt -0.036968 0.039370
f 20/16/20 19/15/19 21/17/21
vt -0.048989 0.040953
f 20/16/20 21/17/21 22/18/22
vt -0.036313 0.040953
f 22/18/22 21/17/21 23/19/23
vt -0.049213 0.042651
f 22/18/22 23/19/23 24/20/24
vt -0.036089 0.042651
f 24/20/24 23/19/23 25/21/25
vt -0.048989 0.044349
f 24/20/24 25/21/25 26/22/26
vt -0.036313 0.044349
f 26/22/26 25/21/25 27/23/27
vt -0.048333 0.045932
f 26/22/26 27/23/27 28/24/28
vt -0.036968 0.045932
f 28/24/28 27/23/27 29/25/29
vt -0.047291 0.047291
f 28/24/28 29/25/29 30/26/30
vt -0.038011 0.047291
f 30/26/30 29/25/29 31/27/31
vt -0.045932 0.048333
f 30/26/30 31/27/31 32/28/32
vt -0.039370 0.048333
f 32/28/32 31/27/31 33/29/33
vt -0.044349 0.048989
f 32/28/32 33/29/33 34/30/34
vt -0.040953 0.048989
f 34/30/34 33/29/33 35/31/35
vt -0.042651 0.049213
f 34/30/34 35/31/35 36/32/36
f 37/32/37 38/31/38 39/30/39
f 38/31/38 40/29/40 39/30/39
f 39/30/39 40/29/40 41/28/41
f 40/29/40 42/27/42 41/28/41
f 41/28/41 42/27/42 43/26/43
f 42/27/42 44/25/44 43/26/43
f 43/26/43 44/25/44 45/24/45
f 44/25/44 46/23/46 45/24/45
f 45/24/45 46/23/46 47/22/47
f 46/23/46 48/21/48 47/22/47
f 47/22/47 48/21/48 49/20/49
f 48/21/48 50/19/50 49/20/49
f 49/20/49 50/19/50 51/18/51
f 50/19/50 52/17/52 51/18/51
f 51/18/51 52/17/52 53/16/53
f 52/17/52 54/15/54 53/16/53
f 53/16/53 54/15/54 55/14/55
f 54/15/54 56/12/56 55/14/55
f 55/14/55 56/12/56 57/13/57
f 57/13/57 56/12/56 58/10/58
f 56/12/56 59/9/59 58/10/58
f 60/11/60 58/10/58 59/9/59
vt -0.026247 0.060658
f 61/33/61 62/4/62 63/1/63
vt -0.026247 0.058945
f 62/4/62 61/33/61 64/34/64
f 65/34/65 66/33/66 67/4/67
f 68/1/68 67/4/67 66/33/66
f 2/3/2 69/4/69 70/2/70
f 69/4/69 2/3/2 4/1/4
f 5/1/5 7/3/7 71/4/71
f 72/2/72 71/4/71 7/3/7
vt 0.000000 0.058945
vt 0.000000 0.060658
f 73/3/73 74/35/74 75/36/75
f 74/35/74 73/3/73 76/2/76
f 77/2/77 78/3/78 79/35/79
f 80/36/80 79/35/79 78/3/78
vt -0.021325 0.048710
vt -0.016404 0.046997
vt -0.016404 0.048710
f 81/37/81 10/38/10 82/39/82
vt -0.021325 0.046997
f 10/38/10 81/37/81 9/40/9
f 11/40/11 83/37/83 12/38/12
f 84/39/84 12/38/12 83/37/83
vt -0.026247 0.056583
f 85/41/85 63/8/63 86/5/86
vt -0.026247 0.054870
f 63/8/63 85/41/85 61/42/61
f 66/42/66 87/41/87 68/8/68
f 88/5/88 68/8/68 87/41/87
vt 0.000000 0.054870
vt 0.000000 0.056583
f 89/7/89 75/43/75 90/44/90
f 75/43/75 89/7/89 73/6/73
f 78/6/78 91/7/91 80/43/80
f 92/44/92 80/43/80 91/7/91
vt -0.021325 0.037575
vt -0.016404 0.035863
vt -0.016404 0.037575
f 93/45/93 82/46/82 94/47/94
vt -0.021325 0.035863
f 82/46/82 93/45/93 81/48/81
f 83/48/83 95/45/95 84/46/84
f 96/47/96 84/46/84 95/45/95
vt -0.026247 0.037575
f 97/49/97 98/48/98 99/45/99
vt -0.026247 0.035863
f 98/48/98 97/49/97 100/50/100
f 101/50/101 102/49/102 103/48/103
f 104/45/104 103/48/103 102/49/102
vt -0.026247 0.048710
f 100/51/100 86/40/86 98/37/98
vt -0.026247 0.046997
f 86/40/86 100/51/100 85/52/85
f 87/52/87 101/51/101 88/40/88
f 103/37/103 88/40/88 101/51/101
f 62/1/62 105/34/105 106/4/106
f 105/34/105 62/1/62 64/33/64
f 65/33/65 67/1/67 107/34/107
f 108/4/108 107/34/107 67/1/67
f 70/7/70 109/8/109 110/6/110
f 109/8/109 70/7/70 69/5/69
f 71/5/71 72/7/72 111/8/111
f 112/6/112 111/8/111 72/7/72
f 106/5/106 113/42/113 114/8/114
f 113/42/113 106/5/106 105/41/105
f 107/41/107 108/5/108 115/42/115
f 116/8/116 115/42/115 108/5/108
f 110/39/110 117/40/117 118/38/118
f 117/40/117 110/39/110 109/37/109
f 111/37/111 112/39/112 119/40/119
f 120/38/120 119/40/119 112/39/112
f 114/37/114 121/52/121 122/40/122
f 121/52/121 114/37/114 113/51/113
f 115/51/115 116/37/116 123/52/123
f 124/40/124 123/52/123 116/37/116
vt 0.016404 -0.037575
vt 0.021325 -0.035863
vt 0.016404 -0.035863
f 118/53/118 125/54/125 126/55/126
vt 0.021325 -0.037575
f 125/54/125 118/53/118 117/56/117
f 119/56/119 120/53/120 127/54/127
f 128/55/128 127/54/127 120/53/120
vt 0.026247 -0.035863
f 122/56/122 129/57/129 130/54/130
vt 0.026247 -0.037575
f 129/57/129 122/56/122 121/58/121
f 123/58/123 124/56/124 131/57/131
f 132/54/132 131/57/131 124/56/124
vt 0.016404 -0.023939
vt 0.021325 -0.022226
vt 0.016404 -0.022226
f 126/59/126 133/60/133 134/61/134
vt 0.021325 -0.023939
f 133/60/133 126/59/126 125/62/125
f 127/62/127 128/59/128 135/60/135
f 136/61/136 135/60/135 128/59/128
vt 0.026247 -0.022226
f 130/62/130 137/63/137 138/60/138
vt 0.026247 -0.023939
f 137/63/137 130/62/130 129/64/129
f 131/64/131 132/62/132 139/63/139
f 140/60/140 139/63/139 132/62/132
vt 0.016404 -0.008729
vt 0.021325 -0.007017
vt 0.016404 -0.007017
f 134/65/134 141/66/141 142/67/142
vt 0.021325 -0.008729
f 141/66/141 134/65/134 133/68/133
f 135/68/135 136/65/136 143/66/143
f 144/67/144 143/66/143 136/65/136
vt 0.026247 -0.007017
f 138/68/138 145/69/145 146/66/146
vt 0.026247 -0.008729
f 145/69/145 138/68/138 137/70/137
f 139/70/139 140/68/140 147/69/147
f 148/66/148 147/69/147 140/68/140
vt 0.021325 0.007017
vt 0.016404 0.008729
vt 0.016404 0.007017
f 141/71/141 149/72/149 142/73/142
vt 0.021325 0.008729
f 149/72/149 141/71/141 150/74/150
f 151/74/151 143/71/143 152/72/152
f 144/73/144 152/72/152 143/71/143
vt 0.026247 0.007017
f 145/75/145 153/74/153 146/71/146
vt 0.026247 0.008729
f 153/74/153 145/75/145 154/76/154
f 155/76/155 147/75/147 156/74/156
f 148/71/148 156/74/156 147/75/147
vt 0.021325 0.022226
vt 0.016404 0.023939
vt 0.016404 0.022226
f 150/77/150 157/78/157 149/79/149
vt 0.021325 0.023939
f 157/78/157 150/77/150 158/80/158
f 159/80/159 151/77/151 160/78/160
f 152/79/152 160/78/160 151/77/151
vt 0.026247 0.022226
f 154/81/154 161/80/161 153/77/153
vt 0.026247 0.023939
f 161/80/161 154/81/154 162/82/162
f 163/82/163 155/81/155 164/80/164
f 156/77/156 164/80/164 155/81/155
vt 0.021325 0.035863
vt 0.016404 0.037575
vt 0.016404 0.035863
f 158/83/158 165/84/165 157/85/157
vt 0.021325 0.037575
f 165/84/165 158/83/158 166/86/166
f 167/86/167 159/83/159 168/84/168
f 160/85/160 168/84/168 159/83/159
vt 0.026247 0.035863
f 162/87/162 169/86/169 161/83/161
vt 0.026247 0.037575
f 169/86/169 162/87/162 170/88/170
f 171/88/171 163/87/163 172/86/172
f 164/83/164 172/86/172 163/87/163
vt 0.021325 0.046997
vt 0.016404 0.048710
vt 0.016404 0.046997
f 166/89/166 173/90/173 165/91/165
vt 0.021325 0.048710
f 173/90/173 166/89/166 174/92/174
f 175/92/175 167/89/167 176/90/176
f 168/91/168 176/90/176 167/89/167
vt 0.026247 0.046997
f 170/93/170 177/92/177 169/89/169
vt 0.026247 0.048710
f 177/92/177 170/93/170 178/94/178
f 179/94/179 171/93/171 180/92/180
f 172/89/172 180/92/180 171/93/171
vt 0.021325 0.054870
vt 0.016404 0.056583
vt 0.016404 0.054870
f 174/95/174 181/96/181 173/97/173
vt 0.021325 0.056583
f 181/96/181 174/95/174 182/98/182
f 183/98/183 175/95/175 184/96/184
f 176/97/176 184/96/184 175/95/175
vt 0.026247 0.054870
f 178/99/178 185/98/185 177/95/177
vt 0.026247 0.056583
f 185/98/185 178/99/178 186/100/186
f 187/100/187 179/99/179 188/98/188
f 180/95/180 188/98/188 179/99/179
vt 0.021325 0.058945
vt 0.016404 0.060658
vt 0.016404 0.058945
f 182/101/182 189/102/189 181/103/181
vt 0.021325 0.060658
f 189/102/189 182/101/182 190/104/190
f 191/104/191 183/101/183 192/102/192
f 184/103/184 192/102/192 183/101/183
vt 0.026247 0.058945
f 186/105/186 193/104/193 185/101/185
vt 0.026247 0.060658
f 193/104/193 186/105/186 194/106/194
f 195/106/195 187/105/187 196/104/196
f 188/101/188 196/104/196 187/105/187
f 197/104/197 189/103/189 190/101/190
f 189/103/189 197/104/197 198/102/198
f 199/102/199 200/104/200 192/103/192
f 191/101/191 192/103/192 200/104/200
f 201/106/201 193/101/193 194/105/194
f 193/101/193 201/106/201 202/104/202
f 203/104/203 204/106/204 196/101/196
f 195/105/195 196/101/196 204/106/204
f 205/98/205 198/97/198 197/95/197
f 198/97/198 205/98/205 206/96/206
f 207/96/207 208/98/208 199/97/199
f 200/95/200 199/97/199 208/98/208
f 209/100/209 202/95/202 201/99/201
f 202/95/202 209/100/209 210/98/210
f 211/98/211 212/100/212 203/95/203
f 204/99/204 203/95/203 212/100/212
f 213/92/213 206/91/206 205/89/205
f 206/91/206 213/92/213 214/90/214
f 215/90/215 216/92/216 207/91/207
f 208/89/208 207/91/207 216/92/216
f 217/94/217 210/89/210 209/93/209
f 210/89/210 217/94/217 218/92/218
f 219/92/219 220/94/220 211/89/211
f 212/93/212 211/89/211 220/94/220
vt -0.021325 -0.037575
vt -0.016404 -0.035863
vt -0.021325 -0.035863
f 221/107/221 214/108/214 213/109/213
vt -0.016404 -0.037575
f 214/108/214 221/107/221 222/110/222
f 223/110/223 224/107/224 215/108/215
f 216/109/216 215/108/215 224/107/224
vt -0.026247 -0.037575
vt -0.026247 -0.035863
f 225/111/225 218/109/218 217/112/217
f 218/109/218 225/111/225 226/107/226
f 227/107/227 228/111/228 219/109/219
f 220/112/220 219/109/219 228/111/228
vt -0.021325 -0.023939
vt -0.016404 -0.022226
vt -0.021325 -0.022226
f 229/113/229 222/114/222 221/115/221
vt -0.016404 -0.023939
f 222/114/222 229/113/229 230/116/230
f 231/116/231 232/113/232 223/114/223
f 224/115/224 223/114/223 232/113/232
vt -0.026247 -0.023939
vt -0.026247 -0.022226
f 233/117/233 226/115/226 225/118/225
f 226/115/226 233/117/233 234/113/234
f 235/113/235 236/117/236 227/115/227
f 228/118/228 227/115/227 236/117/236
vt -0.021325 -0.008729
vt -0.016404 -0.007017
vt -0.021325 -0.007017
f 237/119/237 230/120/230 229/121/229
vt -0.016404 -0.008729
f 230/120/230 237/119/237 238/122/238
f 239/122/239 240/119/240 231/120/231
f 232/121/232 231/120/231 240/119/240
vt -0.026247 -0.008729
vt -0.026247 -0.007017
f 241/123/241 234/121/234 233/124/233
f 234/121/234 241/123/241 242/119/242
f 243/119/243 244/123/244 235/121/235
f 236/124/236 235/121/235 244/123/244
vt -0.021325 0.008729
vt -0.016404 0.007017
vt -0.016404 0.008729
f 237/125/237 245/126/245 238/127/238
vt -0.021325 0.007017
f 245/126/245 237/125/237 246/128/246
f 247/128/247 240/125/240 248/126/248
f 239/127/239 248/126/248 240/125/240
vt -0.026247 0.008729
f 241/129/241 249/128/249 242/125/242
vt -0.026247 0.007017
f 249/128/249 241/129/241 250/130/250
f 251/130/251 244/129/244 252/128/252
f 243/125/243 252/128/252 244/129/244
vt -0.021325 0.023939
vt -0.016404 0.022226
vt -0.016404 0.023939
f 246/131/246 94/132/94 245/133/245
vt -0.021325 0.022226
f 94/132/94 246/131/246 93/134/93
f 95/134/95 247/131/247 96/132/96
f 248/133/248 96/132/96 247/131/247
vt -0.026247 0.023939
f 250/135/250 99/134/99 249/131/249
vt -0.026247 0.022226
f 99/134/99 250/135/250 97/136/97
f 102/136/102 251/135/251 104/134/104
f 252/131/252 104/134/104 251/135/251
vt -0.042651 0.060658
f 253/137/253 254/34/254 255/33/255
vt -0.042651 0.058945
f 254/34/254 253/137/253 256/138/256
f 257/138/257 258/137/258 259/34/259
f 260/33/260 259/34/259 258/137/258
f 74/36/74 261/2/261 262/35/262
f 261/2/261 74/36/74 76/3/76
f 77/3/77 79/36/79 263/2/263
f 264/35/264 263/2/263 79/36/79
vt 0.000000 0.046997
vt 0.000000 0.048710
f 265/39/265 90/139/90 266/140/266
f 90/139/90 265/39/265 89/38/89
f 91/38/91 267/39/267 92/139/92
f 268/140/268 92/139/92 267/39/267
vt -0.042651 0.056583
f 269/141/269 255/42/255 270/41/270
vt -0.042651 0.054870
f 255/42/255 269/141/269 253/142/253
f 258/142/258 271/141/271 260/42/260
f 272/41/272 260/42/260 271/141/271
vt 0.000000 0.035863
vt 0.000000 0.037575
f 273/47/273 266/143/266 274/144/274
f 266/143/266 273/47/273 265/46/265
f 267/46/267 275/47/275 268/143/268
f 276/144/276 268/143/268 275/47/275
vt -0.042651 0.037575
f 277/145/277 278/50/278 279/49/279
vt -0.042651 0.035863
f 278/50/278 277/145/277 280/146/280
f 281/146/281 282/145/282 283/50/283
f 284/49/284 283/50/283 282/145/282
vt -0.042651 0.048710
f 280/147/280 270/52/270 278/51/278
vt -0.042651 0.046997
f 270/52/270 280/147/280 269/148/269
f 271/148/271 281/147/281 272/52/272
f 283/51/283 272/52/272 281/147/281
f 254/33/254 285/138/285 286/34/286
f 285/138/285 254/33/254 256/137/256
f 257/137/257 259/33/259 287/138/287
f 288/34/288 287/138/287 259/33/259
f 262/44/262 289/6/289 290/43/290
f 289/6/289 262/44/262 261/7/261
f 263/7/263 264/44/264 291/6/291
f 292/43/292 291/6/291 264/44/264
f 286/41/286 293/142/293 294/42/294
f 293/142/293 286/41/286 285/141/285
f 287/141/287 288/41/288 295/142/295
f 296/42/296 295/142/295 288/41/288
f 290/140/290 297/38/297 298/139/298
f 297/38/297 290/140/290 289/39/289
f 291/39/291 292/140/292 299/38/299
f 300/139/300 299/38/299 292/140/292
f 294/51/294 301/148/301 302/52/302
f 301/148/301 294/51/294 293/147/293
f 295/147/295 296/51/296 303/148/303
f 304/52/304 303/148/303 296/51/296
vt 0.000000 -0.037575
vt 0.000000 -0.035863
f 298/149/298 305/55/305 306/150/306
f 305/55/305 298/149/298 297/53/297
f 299/53/299 300/149/300 307/55/307
f 308/150/308 307/55/307 300/149/300
vt 0.042651 -0.035863
f 302/58/302 309/151/309 310/57/310
vt 0.042651 -0.037575
f 309/151/309 302/58/302 301/152/301
f 303/152/303 304/58/304 311/151/311
f 312/57/312 311/151/311 304/58/304
vt 0.000000 -0.023939
vt 0.000000 -0.022226
f 306/153/306 313/61/313 314/154/314
f 313/61/313 306/153/306 305/59/305
f 307/59/307 308/153/308 315/61/315
f 316/154/316 315/61/315 308/153/308
vt 0.042651 -0.022226
f 310/64/310 317/155/317 318/63/318
vt 0.042651 -0.023939
f 317/155/317 310/64/310 309/156/309
f 311/156/311 312/64/312 319/155/319
f 320/63/320 319/155/319 312/64/312
vt 0.000000 -0.008729
vt 0.000000 -0.007017
f 314/157/314 321/67/321 322/158/322
f 321/67/321 314/157/314 313/65/313
f 315/65/315 316/157/316 323/67/323
f 324/158/324 323/67/323 316/157/316
vt 0.042651 -0.007017
f 318/70/318 325/159/325 326/69/326
vt 0.042651 -0.008729
f 325/159/325 318/70/318 317/160/317
f 319/160/319 320/70/320 327/159/327
f 328/69/328 327/159/327 320/70/320
vt 0.000000 0.008729
vt 0.000000 0.007017
f 321/73/321 329/161/329 322/162/322
f 329/161/329 321/73/321 330/72/330
f 331/72/331 323/73/323 332/161/332
f 324/162/324 332/161/332 323/73/323
vt 0.042651 0.007017
f 325/163/325 333/76/333 326/75/326
vt 0.042651 0.008729
f 333/76/333 325/163/325 334/164/334
f 335/164/335 327/163/327 336/76/336
f 328/75/328 336/76/336 327/163/327
vt 0.000000 0.023939
vt 0.000000 0.022226
f 330/79/330 337/165/337 329/166/329
f 337/165/337 330/79/330 338/78/338
f 339/78/339 331/79/331 340/165/340
f 332/166/332 340/165/340 331/79/331
vt 0.042651 0.022226
f 334/167/334 341/82/341 333/81/333
vt 0.042651 0.023939
f 341/82/341 334/167/334 342/168/342
f 343/168/343 335/167/335 344/82/344
f 336/81/336 344/82/344 335/167/335
f 338/85/338 345/144/345 337/143/337
f 345/144/345 338/85/338 346/84/346
f 347/84/347 339/85/339 348/144/348
f 340/143/340 348/144/348 339/85/339
vt 0.042651 0.035863
f 342/169/342 349/88/349 341/87/341
vt 0.042651 0.037575
f 349/88/349 342/169/342 350/170/350
f 351/170/351 343/169/343 352/88/352
f 344/87/344 352/88/352 343/169/343
f 346/91/346 353/140/353 345/139/345
f 353/140/353 346/91/346 354/90/354
f 355/90/355 347/91/347 356/140/356
f 348/139/348 356/140/356 347/91/347
vt 0.042651 0.046997
f 350/171/350 357/94/357 349/93/349
vt 0.042651 0.048710
f 357/94/357 350/171/350 358/172/358
f 359/172/359 351/171/351 360/94/360
f 352/93/352 360/94/360 351/171/351
f 354/97/354 361/44/361 353/43/353
f 361/44/361 354/97/354 362/96/362
f 363/96/363 355/97/355 364/44/364
f 356/43/356 364/44/364 355/97/355
vt 0.042651 0.054870
f 358/173/358 365/100/365 357/99/357
vt 0.042651 0.056583
f 365/100/365 358/173/358 366/174/366
f 367/174/367 359/173/359 368/100/368
f 360/99/360 368/100/368 359/173/359
f 362/103/362 369/36/369 361/35/361
f 369/36/369 362/103/362 370/102/370
f 371/102/371 363/103/363 372/36/372
f 364/35/364 372/36/372 363/103/363
vt 0.042651 0.058945
f 366/175/366 373/106/373 365/105/365
vt 0.042651 0.060658
f 373/106/373 366/175/366 374/176/374
f 375/176/375 367/175/367 376/106/376
f 368/105/368 376/106/376 367/175/367
f 377/102/377 369/35/369 370/103/370
f 369/35/369 377/102/377 378/36/378
f 379/36/379 380/102/380 372/35/372
f 371/103/371 372/35/372 380/102/380
f 381/176/381 373/105/373 374/175/374
f 373/105/373 381/176/381 382/106/382
f 383/106/383 384/176/384 376/105/376
f 375/175/375 376/105/376 384/176/384
f 385/96/385 378/43/378 377/97/377
f 378/43/378 385/96/385 386/44/386
f 387/44/387 388/96/388 379/43/379
f 380/97/380 379/43/379 388/96/388
f 389/174/389 382/99/382 381/173/381
f 382/99/382 389/174/389 390/100/390
f 391/100/391 392/174/392 383/99/383
f 384/173/384 383/99/383 392/174/392
f 393/90/393 386/139/386 385/91/385
f 386/139/386 393/90/393 394/140/394
f 395/140/395 396/90/396 387/139/387
f 388/91/388 387/139/387 396/90/396
f 397/172/397 390/93/390 389/171/389
f 390/93/390 397/172/397 398/94/398
f 399/94/399 400/172/400 391/93/391
f 392/171/392 391/93/391 400/172/400
f 401/110/401 394/150/394 393/108/393
f 394/150/394 401/110/401 402/149/402
f 403/149/403 404/110/404 395/150/395
f 396/108/396 395/150/395 404/110/404
vt -0.042651 -0.037575
vt -0.042651 -0.035863
f 405/177/405 398/112/398 397/178/397
f 398/112/398 405/177/405 406/111/406
f 407/111/407 408/177/408 399/112/399
f 400/178/400 399/112/399 408/177/408
f 409/116/409 402/154/402 401/114/401
f 402/154/402 409/116/409 410/153/410
f 411/153/411 412/116/412 403/154/403
f 404/114/404 403/154/403 412/116/412
vt -0.042651 -0.023939
vt -0.042651 -0.022226
f 413/179/413 406/118/406 405/180/405
f 406/118/406 413/179/413 414/117/414
f 415/117/415 416/179/416 407/118/407
f 408/180/408 407/118/407 416/179/416
f 417/122/417 410/158/410 409/120/409
f 410/158/410 417/122/417 418/157/418
f 419/157/419 420/122/420 411/158/411
f 412/120/412 411/158/411 420/122/420
vt -0.042651 -0.008729
vt -0.042651 -0.007017
f 421/181/421 414/124/414 413/182/413
f 414/124/414 421/181/421 422/123/422
f 423/123/423 424/181/424 415/124/415
f 416/182/416 415/124/415 424/181/424
f 417/127/417 425/162/425 418/161/418
f 425/162/425 417/127/417 426/126/426
f 427/126/427 420/127/420 428/162/428
f 419/161/419 428/162/428 420/127/420
vt -0.042651 0.008729
f 421/183/421 429/130/429 422/129/422
vt -0.042651 0.007017
f 429/130/429 421/183/421 430/184/430
f 431/184/431 424/183/424 432/130/432
f 423/129/423 432/130/432 424/183/424
f 426/133/426 274/166/274 425/165/425
f 274/166/274 426/133/426 273/132/273
f 275/132/275 427/133/427 276/166/276
f 428/165/428 276/166/276 427/133/427
vt -0.042651 0.023939
f 430/185/430 279/136/279 429/135/429
vt -0.042651 0.022226
f 279/136/279 430/185/430 277/186/277
f 282/186/282 431/185/431 284/136/284
f 432/135/432 284/136/284 431/185/431
# 428 faces, 186 coords texture

# End of File
