####
#
# OBJ File Generated by Meshlab
#
####
# Object original-155.obj
#
# Vertices: 101
# Faces: 102
#
####
mtllib ./original-155.obj.mtl

vn -0.773866 0.137906 -3.023715
v 0.273591 0.229886 -0.263680
vn -0.000162 0.000028 -3.114935
v 0.234135 0.006259 -0.263731
vn -0.791606 0.141068 -3.007510
v 0.233752 0.006327 -0.263680
vn 0.023135 -0.004123 -3.114767
v 0.273981 0.229852 -0.263731
vn 0.250415 2.868726 -0.025469
v 0.273591 0.229886 -0.263680
vn 0.253484 2.869802 -0.002848
v 0.274370 0.229818 -0.263680
vn 0.250636 2.871255 0.002457
v 0.273981 0.229852 -0.263731
vn 0.253491 2.869898 0.003611
v 0.273229 0.229919 -0.263530
vn 0.253483 2.867613 0.005087
v 0.274733 0.229786 -0.263530
vn 0.253255 2.865031 0.001818
v 0.272917 0.229946 -0.263291
vn 0.253405 2.868441 0.000673
v 0.275044 0.229758 -0.263291
vn 0.253754 2.872392 0.001864
v 0.272679 0.229967 -0.262979
vn 0.252958 2.868098 -0.001300
v 0.275283 0.229737 -0.262979
vn 0.252766 2.865925 -0.001315
v 0.272528 0.229980 -0.262616
vn 0.253462 2.870739 0.000743
v 0.275433 0.229724 -0.262616
vn 0.253262 2.868484 0.000245
v 0.272477 0.229985 -0.262227
vn 0.252820 2.863472 0.000244
v 0.275485 0.229719 -0.262227
vn 0.253035 2.865902 0.000843
v 0.272528 0.229980 -0.261838
vn 0.253193 2.870762 -0.001217
v 0.275433 0.229724 -0.261838
vn 0.253204 2.870885 -0.001519
v 0.272679 0.229967 -0.261475
vn 0.253235 2.866515 0.001645
v 0.275283 0.229737 -0.261475
vn 0.253241 2.866588 -0.001660
v 0.272917 0.229946 -0.261164
vn 0.253692 2.869974 -0.000510
v 0.275044 0.229758 -0.261164
vn 0.253684 2.869881 -0.003375
v 0.273229 0.229919 -0.260925
vn 0.253291 2.867630 -0.004853
v 0.274733 0.229786 -0.260925
vn 0.253591 2.871036 0.016810
v 0.273591 0.229886 -0.260775
vn 0.250750 2.872563 -0.005834
v 0.274370 0.229818 -0.260775
vn 0.250199 2.866246 -0.002406
v 0.273981 0.229852 -0.260723
vn 0.792486 -0.141227 -3.010533
v 0.234518 0.006191 -0.263680
vn 0.811091 -0.144543 -2.997077
v 0.274370 0.229818 -0.263680
vn -0.503419 -2.835435 -0.011120
v 0.234518 0.006191 -0.263680
vn -0.505504 -2.835083 0.004952
v 0.233752 0.006327 -0.263680
vn -0.503609 -2.836502 -0.000000
v 0.234135 0.006259 -0.263731
vn -0.505520 -2.835177 -0.003221
v 0.234875 0.006127 -0.263530
vn -0.506239 -2.835050 0.002324
v 0.233395 0.006391 -0.263530
vn -0.505800 -2.832597 0.006400
v 0.235182 0.006072 -0.263291
vn -0.505243 -2.833070 0.001610
v 0.233088 0.006446 -0.263291
vn -0.505936 -2.836953 -0.000845
v 0.235417 0.006031 -0.262979
vn -0.505673 -2.836224 -0.001836
v 0.232853 0.006488 -0.262979
vn -0.505254 -2.833876 -0.002263
v 0.235565 0.006004 -0.262616
vn -0.505843 -2.836718 -0.001654
v 0.232705 0.006514 -0.262616
vn -0.505912 -2.837108 -0.000003
v 0.235615 0.005995 -0.262227
vn -0.505039 -2.832210 -0.000003
v 0.232654 0.006523 -0.262227
vn -0.505334 -2.833862 0.002309
v 0.235565 0.006004 -0.261838
vn -0.505764 -2.836732 0.001700
v 0.232705 0.006514 -0.261838
vn -0.505535 -2.835451 0.000589
v 0.235417 0.006031 -0.261475
vn -0.505529 -2.834675 0.001583
v 0.232853 0.006488 -0.261475
vn -0.505451 -2.834236 -0.005431
v 0.235182 0.006072 -0.261164
vn -0.506138 -2.834485 -0.000617
v 0.233088 0.006446 -0.261164
vn -0.506239 -2.835050 0.002324
v 0.234875 0.006127 -0.260925
vn -0.505520 -2.835177 -0.003221
v 0.233395 0.006391 -0.260925
vn -0.505945 -2.837571 0.004952
v 0.234518 0.006191 -0.260775
vn -0.503861 -2.837923 -0.011120
v 0.233752 0.006327 -0.260775
vn -0.502725 -2.831527 0.000000
v 0.234135 0.006259 -0.260723
vn -1.519245 0.270737 -2.714261
v 0.273229 0.229919 -0.263530
vn -1.531554 0.272932 -2.698671
v 0.233395 0.006391 -0.263530
vn -3.065383 0.546270 0.000000
v 0.232654 0.006523 -0.262227
vn -2.982814 0.531558 -0.819658
v 0.272528 0.229980 -0.262616
vn -2.961117 0.527693 -0.807764
v 0.232705 0.006514 -0.262616
vn -6.184284 1.103314 -0.000000
v 0.233001 0.008468 -0.262227
vn -3.086562 0.550049 0.000000
v 0.272477 0.229985 -0.262227
vn -2.982814 0.531558 0.819658
v 0.272528 0.229980 -0.261838
vn -2.961117 0.527693 0.807764
v 0.232705 0.006514 -0.261838
vn -2.666406 0.475174 1.577014
v 0.272679 0.229967 -0.261475
vn -2.656646 0.473435 1.557795
v 0.232853 0.006488 -0.261475
vn -2.169482 0.386618 2.225537
v 0.272917 0.229946 -0.261164
vn -2.167520 0.386265 2.203661
v 0.233088 0.006446 -0.261164
vn -1.531554 0.272932 2.698671
v 0.233395 0.006391 -0.260925
vn -1.519245 0.270737 2.714261
v 0.273229 0.229919 -0.260925
vn -0.795478 0.141758 3.006990
v 0.233752 0.006327 -0.260775
vn -0.777944 0.138633 3.023139
v 0.273591 0.229886 -0.260775
vn -0.000166 0.000029 3.113893
v 0.234135 0.006259 -0.260723
vn 0.023573 -0.004201 3.113727
v 0.273981 0.229852 -0.260723
vn 0.796361 -0.141917 3.010011
v 0.234518 0.006191 -0.260775
vn 0.814750 -0.145195 2.996615
v 0.274370 0.229818 -0.260775
vn 1.531707 -0.272963 2.698065
v 0.234875 0.006127 -0.260925
vn 1.543214 -0.275011 2.676282
v 0.274733 0.229786 -0.260925
vn 2.163380 -0.389195 2.202862
v 0.235182 0.006072 -0.261164
vn 2.169402 -0.386544 2.181256
v 0.275044 0.229758 -0.261164
vn 5.484880 -0.979226 2.342380
v 0.235967 0.009118 -0.261462
vn 2.659601 -0.477933 1.557363
v 0.235417 0.006031 -0.261475
vn 2.644569 -0.471192 1.536969
v 0.275283 0.229737 -0.261475
vn 2.941194 -0.524112 0.796401
v 0.275433 0.229724 -0.261838
vn 2.960766 -0.527790 0.804359
v 0.235565 0.006004 -0.261838
vn 6.133040 -1.092974 0.000000
v 0.236056 0.008468 -0.262227
vn 3.066348 -0.546809 0.000000
v 0.235615 0.005995 -0.262227
vn 6.138846 -1.093890 0.000000
v 0.236190 0.009220 -0.262227
vn 3.044635 -0.542583 0.000000
v 0.275485 0.229719 -0.262227
vn 2.960766 -0.527790 -0.804359
v 0.235565 0.006004 -0.262616
vn 2.941194 -0.524112 -0.796401
v 0.275433 0.229724 -0.262616
vn 2.661052 -0.478183 -1.555427
v 0.235417 0.006031 -0.262979
vn 5.488033 -0.979788 -2.338370
v 0.235967 0.009118 -0.262992
vn 2.646063 -0.471458 -1.535170
v 0.275283 0.229737 -0.262979
vn 2.164846 -0.389448 -2.200934
v 0.235182 0.006072 -0.263291
vn 2.170827 -0.386798 -2.179191
v 0.275044 0.229758 -0.263291
vn 1.543214 -0.275011 -2.676282
v 0.274733 0.229786 -0.263530
vn 1.531707 -0.272963 -2.698065
v 0.234875 0.006127 -0.263530
vn -2.170972 0.386884 -2.223736
v 0.272917 0.229946 -0.263291
vn -2.168978 0.386525 -2.201729
v 0.233088 0.006446 -0.263291
vn -2.658104 0.473694 -1.555862
v 0.232853 0.006488 -0.262979
vn -2.667824 0.475426 -1.574949
v 0.272679 0.229967 -0.262979
# 101 vertices, 0 vertices normals


usemtl material_0
f 1//1 2//2 3//3
f 2//2 1//1 4//4
f 5//5 6//6 7//7
f 6//6 5//5 8//8
f 6//6 8//8 9//9
f 9//9 8//8 10//10
f 9//9 10//10 11//11
f 11//11 10//10 12//12
f 11//11 12//12 13//13
f 13//13 12//12 14//14
f 13//13 14//14 15//15
f 15//15 14//14 16//16
f 15//15 16//16 17//17
f 17//17 16//16 18//18
f 17//17 18//18 19//19
f 19//19 18//18 20//20
f 19//19 20//20 21//21
f 21//21 20//20 22//22
f 21//21 22//22 23//23
f 23//23 22//22 24//24
f 23//23 24//24 25//25
f 25//25 24//24 26//26
f 25//25 26//26 27//27
f 27//27 26//26 28//28
f 4//4 29//29 2//2
f 29//29 4//4 30//30
f 31//31 32//32 33//33
f 32//32 31//31 34//34
f 32//32 34//34 35//35
f 35//35 34//34 36//36
f 35//35 36//36 37//37
f 37//37 36//36 38//38
f 37//37 38//38 39//39
f 39//39 38//38 40//40
f 39//39 40//40 41//41
f 41//41 40//40 42//42
f 41//41 42//42 43//43
f 43//43 42//42 44//44
f 43//43 44//44 45//45
f 45//45 44//44 46//46
f 45//45 46//46 47//47
f 47//47 46//46 48//48
f 47//47 48//48 49//49
f 49//49 48//48 50//50
f 49//49 50//50 51//51
f 51//51 50//50 52//52
f 51//51 52//52 53//53
f 53//53 52//52 54//54
f 55//55 3//3 56//56
f 3//3 55//55 1//1
f 57//57 58//58 59//59
f 58//58 57//57 60//60
f 58//58 60//60 61//61
f 62//62 57//57 63//63
f 57//57 62//62 60//60
f 60//60 62//62 61//61
f 64//64 63//63 65//65
f 63//63 64//64 62//62
f 66//66 65//65 67//67
f 65//65 66//66 64//64
f 68//68 66//66 67//67
f 66//66 68//68 69//69
f 70//70 69//69 68//68
f 69//69 70//70 71//71
f 72//72 71//71 70//70
f 71//71 72//72 73//73
f 74//74 73//73 72//72
f 73//73 74//74 75//75
f 76//76 75//75 74//74
f 75//75 76//76 77//77
f 78//78 77//77 76//76
f 77//77 78//78 79//79
f 80//80 78//78 81//81
f 78//78 80//80 79//79
f 79//79 80//80 82//82
f 83//83 81//81 84//84
f 81//81 83//83 80//80
f 80//80 83//83 82//82
f 85//85 84//84 86//86
f 84//84 85//85 83//83
f 83//83 85//85 87//87
f 83//83 87//87 88//88
f 89//89 85//85 86//86
f 85//85 89//89 90//90
f 85//85 90//90 87//87
f 87//87 90//90 88//88
f 91//91 90//90 89//89
f 90//90 91//91 92//92
f 90//90 92//92 93//93
f 94//94 92//92 91//91
f 92//92 94//94 95//95
f 92//92 95//95 93//93
f 96//96 94//94 97//97
f 94//94 96//96 95//95
f 30//30 97//97 29//29
f 97//97 30//30 96//96
f 98//98 56//56 99//99
f 56//56 98//98 55//55
f 100//100 98//98 99//99
f 98//98 100//100 101//101
f 59//59 101//101 100//100
f 101//101 59//59 58//58
# 102 faces, 0 coords texture

# End of File
