####
#
# OBJ File Generated by Meshlab
#
####
# Object original-153.obj
#
# Vertices: 101
# Faces: 102
#
####
mtllib ./original-153.obj.mtl

vn -2.960766 -0.527790 0.804359
v -0.204946 0.006004 -0.261838
vn -6.133040 -1.092974 0.000000
v -0.205437 0.008468 -0.262227
vn -3.066348 -0.546809 -0.000000
v -0.204996 0.005995 -0.262227
vn -2.941270 -0.524118 0.792448
v -0.244814 0.229724 -0.261838
vn -6.138846 -1.093890 0.000000
v -0.205571 0.009220 -0.262227
vn -3.046508 -0.542903 -0.000000
v -0.244865 0.229719 -0.262227
vn -0.250418 2.868764 0.007205
v -0.243751 0.229818 -0.263680
vn -0.253486 2.869832 -0.015422
v -0.242972 0.229886 -0.263680
vn -0.250636 2.871255 -0.002457
v -0.243361 0.229852 -0.263731
vn -0.253511 2.870124 0.004167
v -0.244113 0.229786 -0.263530
vn -0.253464 2.867392 0.002691
v -0.242609 0.229919 -0.263530
vn -0.253420 2.866897 0.000270
v -0.244425 0.229758 -0.263291
vn -0.253347 2.868583 0.001959
v -0.242298 0.229946 -0.263291
vn -0.253301 2.868067 -0.001583
v -0.244664 0.229737 -0.262979
vn -0.252923 2.868101 0.001310
v -0.242059 0.229967 -0.262979
vn -0.252937 2.868258 0.001582
v -0.244814 0.229724 -0.262616
vn -0.253286 2.868228 -0.001091
v -0.241909 0.229980 -0.262616
vn -0.253308 2.868480 -0.000269
v -0.244865 0.229719 -0.262227
vn -0.253308 2.868480 -0.000269
v -0.241858 0.229985 -0.262227
vn -0.253286 2.868228 -0.001091
v -0.244814 0.229724 -0.261838
vn -0.252937 2.868258 0.001582
v -0.241909 0.229980 -0.261838
vn -0.252787 2.866555 0.001310
v -0.244664 0.229737 -0.261475
vn -0.253165 2.866522 -0.001584
v -0.242059 0.229967 -0.261475
vn -0.253336 2.868463 -0.000518
v -0.244425 0.229758 -0.261164
vn -0.253704 2.870109 -0.002213
v -0.242298 0.229946 -0.261164
vn -0.253704 2.870106 -0.004403
v -0.244113 0.229786 -0.260925
vn -0.253272 2.867409 -0.002925
v -0.242609 0.229919 -0.260925
vn -0.253589 2.871018 0.001453
v -0.243751 0.229818 -0.260775
vn -0.250748 2.872536 0.024105
v -0.242972 0.229886 -0.260775
vn -0.250199 2.866246 0.002406
v -0.243361 0.229852 -0.260723
vn -2.960766 -0.527790 -0.804359
v -0.204946 0.006004 -0.262616
vn -2.941270 -0.524118 -0.792448
v -0.244814 0.229724 -0.262616
vn 0.502782 -2.835541 0.012835
v -0.203132 0.006327 -0.263680
vn 0.505088 -2.834825 -0.005399
v -0.203899 0.006191 -0.263680
vn 0.503028 -2.836931 0.004932
v -0.203515 0.006259 -0.263731
vn 0.505161 -2.835241 0.003705
v -0.202775 0.006391 -0.263530
vn 0.505910 -2.833555 -0.004147
v -0.204256 0.006127 -0.263530
vn 0.505805 -2.832970 0.000600
v -0.202468 0.006446 -0.263291
vn 0.505657 -2.836191 0.005999
v -0.204562 0.006072 -0.263291
vn 0.505663 -2.836226 -0.001462
v -0.202233 0.006488 -0.262979
vn 0.505280 -2.835050 -0.000173
v -0.204798 0.006031 -0.262979
vn 0.505149 -2.834315 -0.000892
v -0.202085 0.006514 -0.262616
vn 0.505256 -2.833876 -0.002278
v -0.204946 0.006004 -0.262616
vn 0.505834 -2.837122 -0.000046
v -0.202035 0.006523 -0.262227
vn 0.505834 -2.837122 -0.000046
v -0.204996 0.005995 -0.262227
vn 0.505328 -2.834283 0.000917
v -0.202085 0.006514 -0.261838
vn 0.505076 -2.833908 0.002303
v -0.204946 0.006004 -0.261838
vn 0.505223 -2.834730 0.001746
v -0.202233 0.006488 -0.261475
vn 0.505175 -2.833493 0.000452
v -0.204798 0.006031 -0.261475
vn 0.505376 -2.834620 -0.001795
v -0.202468 0.006446 -0.261164
vn 0.506630 -2.837590 -0.007225
v -0.204562 0.006072 -0.261164
vn 0.506179 -2.835060 -0.002319
v -0.202775 0.006391 -0.260925
vn 0.504893 -2.833734 0.005529
v -0.204256 0.006127 -0.260925
vn 0.505586 -2.837633 -0.005844
v -0.203132 0.006327 -0.260775
vn 0.503165 -2.837702 0.012390
v -0.203899 0.006191 -0.260775
vn 0.502147 -2.831962 -0.004828
v -0.203515 0.006259 -0.260723
vn -2.658076 -0.477673 1.560112
v -0.204798 0.006031 -0.261475
vn -5.481041 -0.978554 2.347242
v -0.205348 0.009118 -0.261462
vn -2.644569 -0.471192 1.536969
v -0.244664 0.229737 -0.261475
vn -1.542843 -0.274947 -2.677737
v -0.244113 0.229786 -0.263530
vn -2.164226 -0.389342 -2.201327
v -0.204562 0.006072 -0.263291
vn -2.168850 -0.386449 -2.180343
v -0.244425 0.229758 -0.263291
vn -1.533854 -0.273341 -2.696958
v -0.204256 0.006127 -0.263530
vn -5.484205 -0.979118 -2.343234
v -0.205348 0.009118 -0.262992
vn -2.659532 -0.477924 -1.558176
v -0.204798 0.006031 -0.262979
vn -2.646063 -0.471458 -1.535170
v -0.244664 0.229737 -0.262979
vn -2.162755 -0.389088 2.203253
v -0.204562 0.006072 -0.261164
vn -2.167425 -0.386195 2.182408
v -0.244425 0.229758 -0.261164
vn -1.542843 -0.274947 2.677737
v -0.244113 0.229786 -0.260925
vn -1.533854 -0.273341 2.696958
v -0.204256 0.006127 -0.260925
vn -0.815586 -0.145342 2.995615
v -0.243751 0.229818 -0.260775
vn -0.795910 -0.141837 3.010521
v -0.203899 0.006191 -0.260775
vn -0.022556 -0.004020 3.114180
v -0.243361 0.229852 -0.260723
vn 0.000732 0.000130 3.113521
v -0.203515 0.006259 -0.260723
vn 0.777051 0.138477 3.023149
v -0.242972 0.229886 -0.260775
vn 0.795477 0.141759 3.006990
v -0.203132 0.006327 -0.260775
vn 1.519876 0.270852 2.713953
v -0.242609 0.229919 -0.260925
vn 1.531556 0.272936 2.698670
v -0.202775 0.006391 -0.260925
vn 2.169163 0.386561 2.225948
v -0.242298 0.229946 -0.261164
vn 2.167518 0.386274 2.203659
v -0.202468 0.006446 -0.261164
vn 2.656643 0.473440 1.557798
v -0.202233 0.006488 -0.261475
vn 2.666463 0.475190 1.576683
v -0.242059 0.229967 -0.261475
vn 2.961183 0.527712 0.803827
v -0.202085 0.006514 -0.261838
vn 2.983840 0.531747 0.816063
v -0.241909 0.229980 -0.261838
vn 3.067258 0.546618 -0.000000
v -0.202035 0.006523 -0.262227
vn 6.184284 1.103314 0.000000
v -0.202382 0.008468 -0.262227
vn 3.086562 0.550049 0.000000
v -0.241858 0.229985 -0.262227
vn 2.983840 0.531747 -0.816063
v -0.241909 0.229980 -0.262616
vn 2.961183 0.527712 -0.803827
v -0.202085 0.006514 -0.262616
vn 2.667887 0.475444 -1.574618
v -0.242059 0.229967 -0.262979
vn 2.658101 0.473699 -1.555865
v -0.202233 0.006488 -0.262979
vn 2.170658 0.386828 -2.224149
v -0.242298 0.229946 -0.263291
vn 2.168976 0.386534 -2.201728
v -0.202468 0.006446 -0.263291
vn 1.531556 0.272936 -2.698670
v -0.202775 0.006391 -0.263530
vn 1.519876 0.270852 -2.713953
v -0.242609 0.229919 -0.263530
vn 0.791605 0.141069 -3.007510
v -0.203132 0.006327 -0.263680
vn 0.772963 0.137748 -3.023728
v -0.242972 0.229886 -0.263680
vn 0.000718 0.000128 -3.114560
v -0.203515 0.006259 -0.263731
vn -0.022137 -0.003945 -3.115219
v -0.243361 0.229852 -0.263731
vn -0.792043 -0.141148 -3.011040
v -0.203899 0.006191 -0.263680
vn -0.811936 -0.144691 -2.996075
v -0.243751 0.229818 -0.263680
# 101 vertices, 0 vertices normals


usemtl material_0
f 1//1 2//2 3//3
f 2//2 1//1 4//4
f 2//2 4//4 5//5
f 5//5 4//4 6//6
f 7//7 8//8 9//9
f 8//8 7//7 10//10
f 8//8 10//10 11//11
f 11//11 10//10 12//12
f 11//11 12//12 13//13
f 13//13 12//12 14//14
f 13//13 14//14 15//15
f 15//15 14//14 16//16
f 15//15 16//16 17//17
f 17//17 16//16 18//18
f 17//17 18//18 19//19
f 19//19 18//18 20//20
f 19//19 20//20 21//21
f 21//21 20//20 22//22
f 21//21 22//22 23//23
f 23//23 22//22 24//24
f 23//23 24//24 25//25
f 25//25 24//24 26//26
f 25//25 26//26 27//27
f 27//27 26//26 28//28
f 27//27 28//28 29//29
f 29//29 28//28 30//30
f 2//2 31//31 3//3
f 31//31 2//2 32//32
f 32//32 2//2 5//5
f 32//32 5//5 6//6
f 33//33 34//34 35//35
f 34//34 33//33 36//36
f 34//34 36//36 37//37
f 37//37 36//36 38//38
f 37//37 38//38 39//39
f 39//39 38//38 40//40
f 39//39 40//40 41//41
f 41//41 40//40 42//42
f 41//41 42//42 43//43
f 43//43 42//42 44//44
f 43//43 44//44 45//45
f 45//45 44//44 46//46
f 45//45 46//46 47//47
f 47//47 46//46 48//48
f 47//47 48//48 49//49
f 49//49 48//48 50//50
f 49//49 50//50 51//51
f 51//51 50//50 52//52
f 51//51 52//52 53//53
f 53//53 52//52 54//54
f 53//53 54//54 55//55
f 55//55 54//54 56//56
f 57//57 4//4 1//1
f 4//4 57//57 58//58
f 4//4 58//58 59//59
f 60//60 61//61 62//62
f 61//61 60//60 63//63
f 64//64 61//61 65//65
f 61//61 64//64 62//62
f 62//62 64//64 66//66
f 32//32 65//65 31//31
f 65//65 32//32 64//64
f 64//64 32//32 66//66
f 67//67 58//58 57//57
f 58//58 67//67 68//68
f 58//58 68//68 59//59
f 67//67 69//69 68//68
f 69//69 67//67 70//70
f 70//70 71//71 69//69
f 71//71 70//70 72//72
f 72//72 73//73 71//71
f 73//73 72//72 74//74
f 74//74 75//75 73//73
f 75//75 74//74 76//76
f 76//76 77//77 75//75
f 77//77 76//76 78//78
f 78//78 79//79 77//77
f 79//79 78//78 80//80
f 81//81 79//79 80//80
f 79//79 81//81 82//82
f 83//83 82//82 81//81
f 82//82 83//83 84//84
f 85//85 84//84 83//83
f 84//84 85//85 86//86
f 84//84 86//86 87//87
f 88//88 85//85 89//89
f 85//85 88//88 86//86
f 86//86 88//88 87//87
f 90//90 89//89 91//91
f 89//89 90//90 88//88
f 92//92 91//91 93//93
f 91//91 92//92 90//90
f 92//92 94//94 95//95
f 94//94 92//92 93//93
f 95//95 96//96 97//97
f 96//96 95//95 94//94
f 97//97 98//98 99//99
f 98//98 97//97 96//96
f 99//99 100//100 101//101
f 100//100 99//99 98//98
f 101//101 63//63 60//60
f 63//63 101//101 100//100
# 102 faces, 0 coords texture

# End of File
