####
#
# OBJ File Generated by Meshlab
#
####
# Object original-24.obj
#
# Vertices: 96
# Faces: 96
#
####
mtllib ./original-24.obj.mtl

vn 1.558489 -1.623079 -2.153899
v 0.286012 -0.601021 0.276636
vn 0.806240 -1.810402 -2.402484
v 0.285287 -0.604178 0.278639
vn 0.806240 -1.810402 -2.402484
v 0.285287 -0.601202 0.276396
vn 1.558489 -1.623079 -2.153899
v 0.286012 -0.603997 0.278879
vn -1.558489 1.623079 2.153899
v 0.286012 -0.603997 0.278879
vn -1.558489 1.623079 2.153899
v 0.286012 -0.601021 0.276636
vn -0.806240 1.810402 2.402484
v 0.285287 -0.604178 0.278639
vn -0.806240 1.810402 2.402484
v 0.285287 -0.601202 0.276396
vn -0.000258 -1.874636 -2.487725
v 0.284508 -0.604240 0.278557
vn -0.000258 -1.874636 -2.487725
v 0.284508 -0.601263 0.276314
vn 0.000258 1.874636 2.487725
v 0.284508 -0.604240 0.278557
vn 0.000258 1.874636 2.487725
v 0.284508 -0.601263 0.276314
vn 2.201681 -1.326033 -1.759706
v 0.286635 -0.600733 0.277018
vn 2.201681 -1.326033 -1.759706
v 0.286635 -0.603710 0.279261
vn -2.201681 1.326033 1.759706
v 0.286635 -0.603710 0.279261
vn -2.201681 1.326033 1.759706
v 0.286635 -0.600733 0.277018
vn -0.805789 -1.810558 -2.402692
v 0.283730 -0.604178 0.278639
vn -0.805789 -1.810558 -2.402692
v 0.283730 -0.601202 0.276396
vn 0.805789 1.810558 2.402692
v 0.283730 -0.604178 0.278639
vn 0.805789 1.810558 2.402692
v 0.283730 -0.601202 0.276396
vn 2.696525 -0.938078 -1.244871
v 0.287113 -0.603335 0.279758
vn 2.696525 -0.938078 -1.244871
v 0.287113 -0.600359 0.277515
vn -2.696525 0.938078 1.244871
v 0.287113 -0.600359 0.277515
vn -2.696525 0.938078 1.244871
v 0.287113 -0.603335 0.279758
vn -1.557781 -1.623256 -2.154134
v 0.283004 -0.603997 0.278879
vn -1.557781 -1.623256 -2.154134
v 0.283004 -0.601021 0.276636
vn 1.557781 1.623256 2.154134
v 0.283004 -0.603997 0.278879
vn 1.557781 1.623256 2.154134
v 0.283004 -0.601021 0.276636
vn 3.008496 -0.484936 -0.643532
v 0.287414 -0.602898 0.280337
vn 3.008496 -0.484936 -0.643532
v 0.287414 -0.599922 0.278094
vn -3.008496 0.484936 0.643532
v 0.287414 -0.599922 0.278094
vn -3.008496 0.484936 0.643532
v 0.287414 -0.602898 0.280337
vn -2.201681 -1.326033 -1.759706
v 0.282381 -0.603710 0.279261
vn -2.201681 -1.326033 -1.759706
v 0.282381 -0.600733 0.277018
vn 2.201681 1.326033 1.759706
v 0.282381 -0.603710 0.279261
vn 2.201681 1.326033 1.759706
v 0.282381 -0.600733 0.277018
vn 3.114970 -0.000155 -0.000206
v 0.287516 -0.602430 0.280959
vn 3.114970 -0.000155 -0.000206
v 0.287516 -0.599454 0.278716
vn -3.114970 0.000155 0.000206
v 0.287516 -0.599454 0.278716
vn -3.114970 0.000155 0.000206
v 0.287516 -0.602430 0.280959
vn -2.697232 -0.937051 -1.243508
v 0.281903 -0.603335 0.279758
vn -2.697232 -0.937051 -1.243508
v 0.281903 -0.600359 0.277515
vn 2.697232 0.937051 1.243508
v 0.281903 -0.600359 0.277515
vn 2.697232 0.937051 1.243508
v 0.281903 -0.603335 0.279758
vn 3.008236 0.485207 0.643892
v 0.287414 -0.601961 0.281581
vn 3.008236 0.485207 0.643892
v 0.287414 -0.598985 0.279338
vn -3.008236 -0.485207 -0.643892
v 0.287414 -0.598985 0.279338
vn -3.008236 -0.485207 -0.643892
v 0.287414 -0.601961 0.281581
vn -3.008943 -0.485093 -0.643740
v 0.281603 -0.602898 0.280337
vn -3.008943 -0.485093 -0.643740
v 0.281603 -0.599922 0.278094
vn 3.008943 0.485093 0.643740
v 0.281603 -0.599922 0.278094
vn 3.008943 0.485093 0.643740
v 0.281603 -0.602898 0.280337
vn 2.696974 0.937922 1.244664
v 0.287113 -0.601525 0.282160
vn 2.696974 0.937922 1.244664
v 0.287113 -0.598548 0.279917
vn -2.696974 -0.937922 -1.244664
v 0.287113 -0.598548 0.279917
vn -2.696974 -0.937922 -1.244664
v 0.287113 -0.601525 0.282160
vn -3.114452 -0.000157 -0.000208
v 0.281500 -0.602430 0.280959
vn -3.114452 -0.000157 -0.000208
v 0.281500 -0.599454 0.278716
vn 3.114452 0.000157 0.000208
v 0.281500 -0.599454 0.278716
vn 3.114452 0.000157 0.000208
v 0.281500 -0.602430 0.280959
vn 2.202424 1.325452 1.758934
v 0.286635 -0.601150 0.282657
vn 2.202424 1.325452 1.758934
v 0.286635 -0.598174 0.280415
vn -2.202424 -1.325452 -1.758934
v 0.286635 -0.598174 0.280415
vn -2.202424 -1.325452 -1.758934
v 0.286635 -0.601150 0.282657
vn -3.008685 0.485362 0.644097
v 0.281603 -0.601961 0.281581
vn -3.008685 0.485362 0.644097
v 0.281603 -0.598985 0.279338
vn 3.008685 -0.485362 -0.644097
v 0.281603 -0.598985 0.279338
vn 3.008685 -0.485362 -0.644097
v 0.281603 -0.601961 0.281581
vn 1.558489 1.623079 2.153899
v 0.286012 -0.597886 0.280796
vn 1.558489 1.623079 2.153899
v 0.286012 -0.600862 0.283039
vn -1.558489 -1.623079 -2.153899
v 0.286012 -0.597886 0.280796
vn -1.558489 -1.623079 -2.153899
v 0.286012 -0.600862 0.283039
vn -2.697682 0.936894 1.243300
v 0.281903 -0.601525 0.282160
vn -2.697682 0.936894 1.243300
v 0.281903 -0.598548 0.279917
vn 2.697682 -0.936894 -1.243300
v 0.281903 -0.598548 0.279917
vn 2.697682 -0.936894 -1.243300
v 0.281903 -0.601525 0.282160
vn 0.806240 1.810402 2.402484
v 0.285287 -0.597705 0.281037
vn 0.806240 1.810402 2.402484
v 0.285287 -0.600681 0.283280
vn -0.806240 -1.810402 -2.402484
v 0.285287 -0.597705 0.281037
vn -0.806240 -1.810402 -2.402484
v 0.285287 -0.600681 0.283280
vn -2.202424 1.325452 1.758934
v 0.282381 -0.601150 0.282657
vn -2.202424 1.325452 1.758934
v 0.282381 -0.598174 0.280415
vn 2.202424 -1.325452 -1.758934
v 0.282381 -0.598174 0.280415
vn 2.202424 -1.325452 -1.758934
v 0.282381 -0.601150 0.282657
vn -0.000258 1.874636 2.487725
v 0.284508 -0.597643 0.281118
vn -0.000258 1.874636 2.487725
v 0.284508 -0.600620 0.283361
vn 0.000258 -1.874636 -2.487725
v 0.284508 -0.597643 0.281118
vn 0.000258 -1.874636 -2.487725
v 0.284508 -0.600620 0.283361
vn -1.557781 1.623256 2.154134
v 0.283004 -0.600862 0.283039
vn -1.557781 1.623256 2.154134
v 0.283004 -0.597886 0.280796
vn 1.557781 -1.623256 -2.154134
v 0.283004 -0.597886 0.280796
vn 1.557781 -1.623256 -2.154134
v 0.283004 -0.600862 0.283039
vn -0.805789 1.810558 2.402692
v 0.283730 -0.597705 0.281037
vn -0.805789 1.810558 2.402692
v 0.283730 -0.600681 0.283280
vn 0.805789 -1.810558 -2.402692
v 0.283730 -0.597705 0.281037
vn 0.805789 -1.810558 -2.402692
v 0.283730 -0.600681 0.283280
# 96 vertices, 0 vertices normals


usemtl material_0
vt -0.048381 0.002479
vt -0.047859 0.000000
vt -0.047859 0.002479
f 1/1/1 2/2/2 3/3/3
vt -0.048381 0.000000
f 2/2/2 1/1/1 4/4/4
f 5/4/5 6/1/6 7/2/7
f 8/3/8 7/2/7 6/1/6
vt -0.047109 0.002479
vt -0.046586 0.000000
vt -0.046586 0.002479
f 3/5/3 9/6/9 10/7/10
vt -0.047109 0.000000
f 9/6/9 3/5/3 2/8/2
f 7/8/7 8/5/8 11/6/11
f 12/7/12 11/6/11 8/5/8
vt -0.046374 0.002479
vt -0.045852 0.000000
vt -0.045852 0.002479
f 13/9/13 4/10/4 1/11/1
vt -0.046374 0.000000
f 4/10/4 13/9/13 14/12/14
f 15/12/15 16/9/16 5/10/5
f 6/11/6 5/10/5 16/9/16
vt -0.042644 0.002479
vt -0.042121 -0.000000
vt -0.042121 0.002479
f 10/13/10 17/14/17 18/15/18
vt -0.042644 -0.000000
f 17/14/17 10/13/10 9/16/9
f 11/16/11 12/13/12 19/14/19
f 20/15/20 19/14/19 12/13/12
vt -0.040702 0.002479
vt -0.041225 0.000000
vt -0.040702 0.000000
f 13/17/13 21/18/21 14/19/14
vt -0.041225 0.002479
f 21/18/21 13/17/13 22/20/22
f 23/20/23 16/17/16 24/18/24
f 15/19/15 24/18/24 16/17/16
vt -0.035290 0.002479
vt -0.034768 -0.000000
vt -0.034768 0.002479
f 18/21/18 25/22/25 26/23/26
vt -0.035290 -0.000000
f 25/22/25 18/21/18 17/24/17
f 19/24/19 20/21/20 27/22/27
f 28/23/28 27/22/27 20/21/20
vt -0.032761 0.002479
vt -0.033283 0.000000
vt -0.032761 0.000000
f 22/25/22 29/26/29 21/27/21
vt -0.033283 0.002479
f 29/26/29 22/25/22 30/28/30
f 31/28/31 23/25/23 32/26/32
f 24/27/24 32/26/32 23/25/23
vt -0.025550 0.002479
vt -0.025028 -0.000000
vt -0.025028 0.002479
f 26/29/26 33/30/33 34/31/34
vt -0.025550 -0.000000
f 33/30/33 26/29/26 25/32/25
f 27/32/27 28/29/28 35/30/35
f 36/31/36 35/30/35 28/29/28
vt -0.022570 0.002479
vt -0.023092 0.000000
vt -0.022570 0.000000
f 30/33/30 37/34/37 29/35/29
vt -0.023092 0.002479
f 37/34/37 30/33/30 38/36/38
f 39/36/39 31/33/31 40/34/40
f 32/35/32 40/34/40 31/33/31
vt -0.013564 -0.000000
vt -0.014086 0.002479
vt -0.014086 -0.000000
f 41/37/41 34/38/34 33/39/33
vt -0.013564 0.002479
f 34/38/34 41/37/41 42/40/42
f 43/40/43 44/37/44 36/38/36
f 35/39/35 36/38/36 44/37/44
vt -0.010823 0.002479
vt -0.011345 0.000000
vt -0.010823 0.000000
f 38/41/38 45/42/45 37/43/37
vt -0.011345 0.002479
f 45/42/45 38/41/38 46/44/46
f 47/44/47 39/41/39 48/42/48
f 40/43/40 48/42/48 39/41/39
vt -0.001158 0.000000
vt -0.001680 0.002479
vt -0.001680 0.000000
f 49/45/49 42/46/42 41/47/41
vt -0.001158 0.002479
f 42/46/42 49/45/49 50/48/50
f 51/48/51 52/45/52 43/46/43
f 44/47/44 43/46/43 52/45/52
vt 0.001680 0.002479
vt 0.001158 0.000000
vt 0.001680 0.000000
f 46/49/46 53/50/53 45/51/45
vt 0.001158 0.002479
f 53/50/53 46/49/46 54/52/54
f 55/52/55 47/49/47 56/50/56
f 48/51/48 56/50/56 47/49/47
vt 0.011345 0.000000
vt 0.010823 0.002479
vt 0.010823 0.000000
f 57/53/57 50/54/50 49/55/49
vt 0.011345 0.002479
f 50/54/50 57/53/57 58/56/58
f 59/56/59 60/53/60 51/54/51
f 52/55/52 51/54/51 60/53/60
vt 0.014086 0.002479
vt 0.013564 -0.000000
vt 0.014086 -0.000000
f 54/57/54 61/58/61 53/59/53
vt 0.013564 0.002479
f 61/58/61 54/57/54 62/60/62
f 63/60/63 55/57/55 64/58/64
f 56/59/56 64/58/64 55/57/55
vt 0.023092 0.000000
vt 0.022570 0.002479
vt 0.022570 0.000000
f 65/61/65 58/62/58 57/63/57
vt 0.023092 0.002479
f 58/62/58 65/61/65 66/64/66
f 67/64/67 68/61/68 59/62/59
f 60/63/60 59/62/59 68/61/68
vt 0.025550 -0.000000
vt 0.025028 0.002479
vt 0.025028 -0.000000
f 61/65/61 69/66/69 70/67/70
vt 0.025550 0.002479
f 69/66/69 61/65/61 62/68/62
f 63/68/63 64/65/64 71/66/71
f 72/67/72 71/66/71 64/65/64
vt 0.033283 0.000000
vt 0.032761 0.002479
vt 0.032761 0.000000
f 73/69/73 66/70/66 65/71/65
vt 0.033283 0.002479
f 66/70/66 73/69/73 74/72/74
f 75/72/75 76/69/76 67/70/67
f 68/71/68 67/70/67 76/69/76
vt 0.035290 -0.000000
vt 0.034768 0.002479
vt 0.034768 -0.000000
f 70/73/70 77/74/77 78/75/78
vt 0.035290 0.002479
f 77/74/77 70/73/70 69/76/69
f 71/76/71 72/73/72 79/74/79
f 80/75/80 79/74/79 72/73/72
vt 0.041225 0.000000
vt 0.040702 0.002479
vt 0.040702 0.000000
f 81/77/81 74/78/74 73/79/73
vt 0.041225 0.002479
f 74/78/74 81/77/81 82/80/82
f 83/80/83 84/77/84 75/78/75
f 76/79/76 75/78/75 84/77/84
vt 0.042644 -0.000000
vt 0.042121 0.002479
vt 0.042121 -0.000000
f 78/81/78 85/82/85 86/83/86
vt 0.042644 0.002479
f 85/82/85 78/81/78 77/84/77
f 79/84/79 80/81/80 87/82/87
f 88/83/88 87/82/87 80/81/80
vt 0.046374 0.000000
vt 0.045852 0.002479
vt 0.045852 0.000000
f 89/85/89 82/86/82 81/87/81
vt 0.046374 0.002479
f 82/86/82 89/85/89 90/88/90
f 91/88/91 92/85/92 83/86/83
f 84/87/84 83/86/83 92/85/92
vt 0.047109 0.000000
vt 0.046586 0.002479
vt 0.046586 0.000000
f 86/89/86 93/90/93 94/91/94
vt 0.047109 0.002479
f 93/90/93 86/89/86 85/92/85
f 87/92/87 88/89/88 95/90/95
f 96/91/96 95/90/95 88/89/88
vt 0.048381 0.000000
vt 0.047859 0.002479
vt 0.047859 0.000000
f 94/93/94 90/94/90 89/95/89
vt 0.048381 0.002479
f 90/94/90 94/93/94 93/96/93
f 95/96/95 96/93/96 91/94/91
f 92/95/92 91/94/91 96/93/96
# 96 faces, 96 coords texture

# End of File
