####
#
# OBJ File Generated by Meshlab
#
####
# Object original-174.obj
#
# Vertices: 101
# Faces: 102
#
####
mtllib ./original-174.obj.mtl

vn 2.941270 -0.524118 0.792448
v 0.094965 0.229724 -0.337033
vn 2.659601 -0.477933 1.557363
v 0.054949 0.006031 -0.336670
vn 2.960766 -0.527790 0.804359
v 0.055097 0.006004 -0.337033
vn 5.484880 -0.979226 2.342380
v 0.055499 0.009118 -0.336657
vn 2.644569 -0.471192 1.536969
v 0.094815 0.229737 -0.336670
vn 0.250444 2.869051 -0.025690
v 0.093123 0.229886 -0.338875
vn 0.253455 2.869476 -0.003069
v 0.093902 0.229818 -0.338875
vn 0.250636 2.871255 -0.002457
v 0.093512 0.229852 -0.338926
vn 0.253491 2.869898 0.003611
v 0.092761 0.229919 -0.338725
vn 0.253483 2.867613 0.005087
v 0.094265 0.229786 -0.338725
vn 0.253432 2.867032 0.002447
v 0.092449 0.229946 -0.338486
vn 0.253335 2.868447 0.000764
v 0.094576 0.229758 -0.338486
vn 0.253387 2.869041 0.001588
v 0.092210 0.229967 -0.338174
vn 0.253009 2.869074 -0.001314
v 0.094815 0.229737 -0.338174
vn 0.252822 2.866954 -0.001574
v 0.092060 0.229980 -0.337812
vn 0.253171 2.866924 0.001083
v 0.094965 0.229724 -0.337812
vn 0.253337 2.868811 0.000273
v 0.092009 0.229985 -0.337422
vn 0.253337 2.868811 0.000264
v 0.095016 0.229719 -0.337422
vn 0.253286 2.868228 0.001091
v 0.092060 0.229980 -0.337033
vn 0.252937 2.868258 -0.001582
v 0.094965 0.229724 -0.337033
vn 0.252787 2.866555 -0.001310
v 0.092210 0.229967 -0.336670
vn 0.253165 2.866522 0.001584
v 0.094815 0.229737 -0.336670
vn 0.253348 2.868598 -0.002199
v 0.092449 0.229946 -0.336359
vn 0.253692 2.869974 -0.000510
v 0.094576 0.229758 -0.336359
vn 0.253684 2.869881 -0.003375
v 0.092761 0.229919 -0.336120
vn 0.253291 2.867630 -0.004853
v 0.094265 0.229786 -0.336120
vn 0.253620 2.871368 0.017031
v 0.093123 0.229886 -0.335970
vn 0.250721 2.872231 -0.005613
v 0.093902 0.229818 -0.335970
vn 0.250199 2.866246 0.002406
v 0.093512 0.229852 -0.335918
vn 2.163380 -0.389195 2.202862
v 0.054714 0.006072 -0.336359
vn 2.169402 -0.386544 2.181256
v 0.094576 0.229758 -0.336359
vn -0.502782 -2.835541 -0.012835
v 0.054050 0.006191 -0.338875
vn -0.505088 -2.834825 0.005399
v 0.053283 0.006327 -0.338875
vn -0.503028 -2.836931 -0.004932
v 0.053667 0.006259 -0.338926
vn -0.505161 -2.835241 -0.003705
v 0.054407 0.006127 -0.338725
vn -0.505910 -2.833555 0.004147
v 0.052926 0.006391 -0.338725
vn -0.505740 -2.832607 0.006416
v 0.054714 0.006072 -0.338486
vn -0.505721 -2.836554 0.001024
v 0.052620 0.006446 -0.338486
vn -0.505968 -2.837939 -0.000978
v 0.054949 0.006031 -0.338174
vn -0.505317 -2.835260 -0.002268
v 0.052384 0.006488 -0.338174
vn -0.504847 -2.832622 -0.002305
v 0.055097 0.006004 -0.337812
vn -0.505099 -2.832998 -0.000920
v 0.052236 0.006514 -0.337812
vn -0.505892 -2.837446 0.000047
v 0.055147 0.005995 -0.337422
vn -0.505892 -2.837446 0.000045
v 0.052186 0.006523 -0.337422
vn -0.505256 -2.833876 0.002278
v 0.055097 0.006004 -0.337033
vn -0.505149 -2.834315 0.000892
v 0.052236 0.006514 -0.337033
vn -0.505357 -2.835482 0.000679
v 0.054949 0.006031 -0.336670
vn -0.505041 -2.832742 0.001978
v 0.052384 0.006488 -0.336670
vn -0.505312 -2.834261 -0.005249
v 0.054714 0.006072 -0.336359
vn -0.506695 -2.837956 0.000176
v 0.052620 0.006446 -0.336359
vn -0.506179 -2.835060 0.002319
v 0.054407 0.006127 -0.336120
vn -0.504893 -2.833734 -0.005529
v 0.052926 0.006391 -0.336120
vn -0.505586 -2.837633 0.005844
v 0.054050 0.006191 -0.335970
vn -0.503165 -2.837702 -0.012390
v 0.053283 0.006327 -0.335970
vn -0.502147 -2.831962 0.004828
v 0.053667 0.006259 -0.335918
vn 6.133173 -1.092998 0.001031
v 0.055588 0.008468 -0.337422
vn 3.066415 -0.546821 0.000513
v 0.055147 0.005995 -0.337422
vn 6.138964 -1.093911 0.000975
v 0.055722 0.009220 -0.337422
vn 3.046600 -0.542919 0.000509
v 0.095016 0.229719 -0.337422
vn 0.022136 -0.003946 -3.115219
v 0.093512 0.229852 -0.338926
vn 0.792485 -0.141226 -3.010533
v 0.054050 0.006191 -0.338875
vn 0.000280 -0.000049 -3.115442
v 0.053667 0.006259 -0.338926
vn 0.810591 -0.144454 -2.996917
v 0.093902 0.229818 -0.338875
vn -0.774362 0.137996 -3.023424
v 0.093123 0.229886 -0.338875
vn -0.791051 0.140973 -3.007135
v 0.053283 0.006327 -0.338875
vn -1.519244 0.270744 -2.714262
v 0.092761 0.229919 -0.338725
vn -1.533156 0.273220 -2.696857
v 0.052926 0.006391 -0.338725
vn -2.168882 0.386516 -2.225914
v 0.092449 0.229946 -0.338486
vn -2.169601 0.386635 -2.203372
v 0.052620 0.006446 -0.338486
vn -2.655309 0.473196 -1.559485
v 0.052384 0.006488 -0.338174
vn -2.667250 0.475330 -1.575970
v 0.092210 0.229967 -0.338174
vn -2.960670 0.527621 -0.804729
v 0.052236 0.006514 -0.337812
vn -2.983417 0.531672 -0.817031
v 0.092060 0.229980 -0.337812
vn -3.067323 0.546630 0.000513
v 0.052186 0.006523 -0.337422
vn -6.184287 1.103314 0.000161
v 0.052533 0.008468 -0.337422
vn -3.086604 0.550056 0.000522
v 0.092009 0.229985 -0.337422
vn -2.983840 0.531747 0.816063
v 0.092060 0.229980 -0.337033
vn -2.961183 0.527712 0.803827
v 0.052236 0.006514 -0.337033
vn -2.666463 0.475190 1.576683
v 0.092210 0.229967 -0.336670
vn -2.654422 0.473038 1.559999
v 0.052384 0.006488 -0.336670
vn -2.167388 0.386250 2.227714
v 0.092449 0.229946 -0.336359
vn -2.168137 0.386375 2.205304
v 0.052620 0.006446 -0.336359
vn -1.533156 0.273220 2.696857
v 0.052926 0.006391 -0.336120
vn -1.519244 0.270744 2.714262
v 0.092761 0.229919 -0.336120
vn -0.794912 0.141661 3.006618
v 0.053283 0.006327 -0.335970
vn -0.778450 0.138725 3.022844
v 0.093123 0.229886 -0.335970
vn 0.000285 -0.000050 3.114402
v 0.053667 0.006259 -0.335918
vn 0.022556 -0.004020 3.114180
v 0.093512 0.229852 -0.335918
vn 0.796360 -0.141916 3.010011
v 0.054050 0.006191 -0.335970
vn 0.814241 -0.145105 2.996457
v 0.093902 0.229818 -0.335970
vn 1.531707 -0.272963 2.698065
v 0.054407 0.006127 -0.336120
vn 1.543214 -0.275011 2.676282
v 0.094265 0.229786 -0.336120
vn 2.960249 -0.527698 -0.805260
v 0.055097 0.006004 -0.337812
vn 2.940676 -0.524010 -0.793277
v 0.094965 0.229724 -0.337812
vn 2.660538 -0.478400 -1.556692
v 0.054949 0.006031 -0.338174
vn 5.487139 -0.979688 -2.322935
v 0.055499 0.009118 -0.338188
vn 2.645550 -0.471360 -1.536646
v 0.094815 0.229737 -0.338174
vn 2.164681 -0.389704 -2.201086
v 0.054714 0.006072 -0.338486
vn 2.170826 -0.386793 -2.179193
v 0.094576 0.229758 -0.338486
vn 1.543214 -0.275011 -2.676282
v 0.094265 0.229786 -0.338725
vn 1.531707 -0.272963 -2.698065
v 0.054407 0.006127 -0.338725
# 101 vertices, 0 vertices normals


usemtl material_0
f 1//1 2//2 3//3
f 2//2 1//1 4//4
f 4//4 1//1 5//5
f 6//6 7//7 8//8
f 7//7 6//6 9//9
f 7//7 9//9 10//10
f 10//10 9//9 11//11
f 10//10 11//11 12//12
f 12//12 11//11 13//13
f 12//12 13//13 14//14
f 14//14 13//13 15//15
f 14//14 15//15 16//16
f 16//16 15//15 17//17
f 16//16 17//17 18//18
f 18//18 17//17 19//19
f 18//18 19//19 20//20
f 20//20 19//19 21//21
f 20//20 21//21 22//22
f 22//22 21//21 23//23
f 22//22 23//23 24//24
f 24//24 23//23 25//25
f 24//24 25//25 26//26
f 26//26 25//25 27//27
f 26//26 27//27 28//28
f 28//28 27//27 29//29
f 4//4 30//30 2//2
f 30//30 4//4 31//31
f 31//31 4//4 5//5
f 32//32 33//33 34//34
f 33//33 32//32 35//35
f 33//33 35//35 36//36
f 36//36 35//35 37//37
f 36//36 37//37 38//38
f 38//38 37//37 39//39
f 38//38 39//39 40//40
f 40//40 39//39 41//41
f 40//40 41//41 42//42
f 42//42 41//41 43//43
f 42//42 43//43 44//44
f 44//44 43//43 45//45
f 44//44 45//45 46//46
f 46//46 45//45 47//47
f 46//46 47//47 48//48
f 48//48 47//47 49//49
f 48//48 49//49 50//50
f 50//50 49//49 51//51
f 50//50 51//51 52//52
f 52//52 51//51 53//53
f 52//52 53//53 54//54
f 54//54 53//53 55//55
f 56//56 3//3 57//57
f 3//3 56//56 1//1
f 1//1 56//56 58//58
f 1//1 58//58 59//59
f 60//60 61//61 62//62
f 61//61 60//60 63//63
f 64//64 62//62 65//65
f 62//62 64//64 60//60
f 66//66 65//65 67//67
f 65//65 66//66 64//64
f 68//68 67//67 69//69
f 67//67 68//68 66//66
f 70//70 68//68 69//69
f 68//68 70//70 71//71
f 72//72 71//71 70//70
f 71//71 72//72 73//73
f 74//74 73//73 72//72
f 73//73 74//74 75//75
f 73//73 75//75 76//76
f 77//77 74//74 78//78
f 74//74 77//77 75//75
f 75//75 77//77 76//76
f 79//79 78//78 80//80
f 78//78 79//79 77//77
f 81//81 80//80 82//82
f 80//80 81//81 79//79
f 83//83 81//81 82//82
f 81//81 83//83 84//84
f 85//85 84//84 83//83
f 84//84 85//85 86//86
f 87//87 86//86 85//85
f 86//86 87//87 88//88
f 89//89 88//88 87//87
f 88//88 89//89 90//90
f 91//91 90//90 89//89
f 90//90 91//91 92//92
f 30//30 92//92 91//91
f 92//92 30//30 31//31
f 93//93 56//56 57//57
f 56//56 93//93 94//94
f 56//56 94//94 58//58
f 58//58 94//94 59//59
f 95//95 94//94 93//93
f 94//94 95//95 96//96
f 94//94 96//96 97//97
f 98//98 96//96 95//95
f 96//96 98//98 99//99
f 96//96 99//99 97//97
f 100//100 98//98 101//101
f 98//98 100//100 99//99
f 63//63 101//101 61//61
f 101//101 63//63 100//100
# 102 faces, 0 coords texture

# End of File
