####
#
# OBJ File Generated by Meshlab
#
####
# Object original-130.obj
#
# Vertices: 120
# Faces: 140
#
####
mtllib ./original-130.obj.mtl

vn 0.000000 0.807969 -3.007914
v 0.309322 0.006796 0.036374
vn 0.000000 -0.000346 -3.114591
v -0.341868 0.006212 0.036297
vn 0.000000 0.807969 -3.007914
v -0.341868 0.006796 0.036374
vn 0.000000 -0.000346 -3.114591
v 0.309322 0.006212 0.036297
vn -2.877256 0.000000 0.000000
v -0.341868 0.004033 0.039137
vn -2.877256 0.000000 0.000000
v -0.341868 0.004033 0.037969
vn -2.882773 0.000000 0.000000
v -0.341868 0.003957 0.038553
vn -2.881301 0.000000 0.000000
v -0.341868 0.004259 0.039681
vn -2.881301 0.000000 0.000000
v -0.341868 0.004259 0.037425
vn -2.880219 0.000000 0.000000
v -0.341868 0.004617 0.040148
vn -2.878872 0.000000 0.000000
v -0.341868 0.004617 0.036958
vn -2.877737 0.000000 0.000000
v -0.341868 0.005084 0.040507
vn -2.880651 0.000000 0.000000
v -0.341868 0.005084 0.036600
vn -2.881379 0.000000 0.000000
v -0.341868 0.005629 0.040732
vn -2.879812 0.000000 0.000000
v -0.341868 0.005629 0.036374
vn -2.879184 0.000000 0.000000
v -0.341868 0.006212 0.040809
vn -2.879184 0.000000 0.000000
v -0.341868 0.006212 0.036297
vn -2.880508 0.000000 0.000000
v -0.341868 0.006796 0.040732
vn -2.878939 0.000000 0.000000
v -0.341868 0.006796 0.036374
vn -2.879419 0.000000 0.000000
v -0.341868 0.007340 0.040507
vn -2.882334 0.000000 0.000000
v -0.341868 0.007340 0.036600
vn -2.879186 0.000000 0.000000
v -0.341868 0.007808 0.040148
vn -2.877839 0.000000 0.000000
v -0.341868 0.007808 0.036958
vn -2.879733 0.000000 0.000000
v -0.341868 0.008166 0.039681
vn -2.879733 0.000000 0.000000
v -0.341868 0.008166 0.037425
vn -2.880508 0.000000 0.000000
v -0.341868 0.008391 0.039137
vn -2.880508 0.000000 0.000000
v -0.341868 0.008391 0.037969
vn -2.879406 0.000000 0.000000
v -0.341868 0.008468 0.038553
vn 0.000000 1.557016 -2.698219
v 0.309322 0.007340 0.036600
vn 0.000000 1.557016 -2.698219
v -0.341868 0.007340 0.036600
vn 2.877256 0.000000 0.000000
v 0.309322 0.004033 0.037969
vn 2.877256 0.000000 0.000000
v 0.309322 0.004033 0.039137
vn 2.882773 0.000000 0.000000
v 0.309322 0.003957 0.038553
vn 2.881301 0.000000 0.000000
v 0.309322 0.004259 0.037425
vn 2.881301 0.000000 0.000000
v 0.309322 0.004259 0.039681
vn 2.878872 0.000000 0.000000
v 0.309322 0.004617 0.036958
vn 2.880219 0.000000 0.000000
v 0.309322 0.004617 0.040148
vn 2.880651 0.000000 0.000000
v 0.309322 0.005084 0.036600
vn 2.877737 0.000000 0.000000
v 0.309322 0.005084 0.040507
vn 2.879812 0.000000 0.000000
v 0.309322 0.005629 0.036374
vn 2.881379 0.000000 0.000000
v 0.309322 0.005629 0.040732
vn 2.879184 0.000000 0.000000
v 0.309322 0.006212 0.036297
vn 2.879184 0.000000 0.000000
v 0.309322 0.006212 0.040809
vn 2.878939 0.000000 0.000000
v 0.309322 0.006796 0.036374
vn 2.880508 0.000000 0.000000
v 0.309322 0.006796 0.040732
vn 2.882334 0.000000 0.000000
v 0.309322 0.007340 0.036600
vn 2.879419 0.000000 0.000000
v 0.309322 0.007340 0.040507
vn 2.877839 0.000000 0.000000
v 0.309322 0.007808 0.036958
vn 2.879186 0.000000 0.000000
v 0.309322 0.007808 0.040148
vn 2.879733 0.000000 0.000000
v 0.309322 0.008166 0.037425
vn 2.879733 0.000000 0.000000
v 0.309322 0.008166 0.039681
vn 2.880508 0.000000 0.000000
v 0.309322 0.008391 0.037969
vn 2.880508 0.000000 0.000000
v 0.309322 0.008391 0.039137
vn 2.879406 0.000000 0.000000
v 0.309322 0.008468 0.038553
vn 0.000000 -0.807372 -3.008260
v -0.341868 0.005629 0.036374
vn 0.000000 -0.807372 -3.008260
v 0.309322 0.005629 0.036374
vn 0.000000 -0.805098 3.009201
v 0.309322 0.005629 0.040732
vn 0.000000 -0.000346 3.114591
v -0.341868 0.006212 0.040809
vn 0.000000 -0.805098 3.009201
v -0.341868 0.005629 0.040732
vn 0.000000 -0.000346 3.114591
v 0.309322 0.006212 0.040809
vn 0.000000 0.805692 3.008858
v -0.341868 0.006796 0.040732
vn 0.000000 0.805692 3.008858
v 0.309322 0.006796 0.040732
vn 0.000000 1.556419 2.697876
v -0.341868 0.007340 0.040507
vn 0.000000 1.556419 2.697876
v 0.309322 0.007340 0.040507
vn 0.000000 2.202694 2.202003
v -0.341868 0.007808 0.040148
vn 0.000000 2.202694 2.202003
v 0.309322 0.007808 0.040148
vn 0.000000 2.698177 1.556027
v 0.309322 0.008166 0.039681
vn 0.000000 2.698177 1.556027
v -0.341868 0.008166 0.039681
vn 0.000000 3.008858 0.805692
v 0.309322 0.008391 0.039137
vn 0.000000 3.008858 0.805692
v -0.341868 0.008391 0.039137
vn 0.000000 3.114637 0.000000
v -0.341868 0.008468 0.038553
vn 0.000000 0.000000 0.000000
v -0.322694 0.008468 0.038553
vn 0.000000 3.114637 -0.410663
v -0.325749 0.008468 0.038553
vn 0.000000 0.000000 0.000000
v -0.265593 0.008468 0.038553
vn 0.000000 0.000000 0.000000
v -0.262538 0.008468 0.038553
vn 0.000000 0.000000 0.000000
v -0.205437 0.008468 0.038553
vn 0.000000 0.000000 0.000000
v -0.202382 0.008468 0.038553
vn 0.000000 3.114637 0.410663
v 0.115744 0.008468 0.038553
vn 0.000000 0.000000 0.000000
v 0.175900 0.008468 0.038553
vn 0.000000 0.000000 0.000000
v 0.172845 0.008468 0.038553
vn 0.000000 0.000000 0.000000
v 0.233001 0.008468 0.038553
vn 0.000000 0.000000 0.000000
v 0.236056 0.008468 0.038553
vn 0.000000 0.000000 0.000000
v 0.293157 0.008468 0.038553
vn 0.000000 3.114637 0.410663
v 0.296212 0.008468 0.038553
vn 0.000000 3.114637 -0.410663
v -0.142225 0.008468 0.038553
vn 0.000000 0.000000 0.000000
v -0.145281 0.008468 0.038553
vn 0.000000 3.114637 0.410663
v -0.085125 0.008468 0.038553
vn 0.000000 3.114637 0.410663
v -0.082069 0.008468 0.038553
vn 0.000000 3.114637 0.410663
v -0.024968 0.008468 0.038553
vn 0.000000 3.114637 0.410663
v -0.021913 0.008468 0.038553
vn 0.000000 3.114637 0.410663
v -0.007623 0.008468 0.038553
vn 0.000000 3.114637 0.410663
v -0.004568 0.008468 0.038553
vn 0.000000 3.114637 0.410663
v 0.052533 0.008468 0.038553
vn 0.000000 3.114637 0.410663
v 0.055588 0.008468 0.038553
vn 0.000000 3.114637 0.410663
v 0.112689 0.008468 0.038553
vn 0.000000 3.114637 0.000000
v 0.309322 0.008468 0.038553
vn 0.000000 3.008858 -0.805692
v 0.309322 0.008391 0.037969
vn 0.000000 3.008858 -0.805692
v -0.341868 0.008391 0.037969
vn 0.000000 2.698177 -1.556027
v 0.309322 0.008166 0.037425
vn 0.000000 2.698177 -1.556027
v -0.341868 0.008166 0.037425
vn 0.000000 2.201015 -2.203289
v 0.309322 0.007808 0.036958
vn 0.000000 2.201015 -2.203289
v -0.341868 0.007808 0.036958
vn 0.000000 -1.557360 -2.697625
v -0.341868 0.005084 0.036600
vn 0.000000 -1.557360 -2.697625
v 0.309322 0.005084 0.036600
vn 0.000000 -2.202303 -2.202303
v -0.341868 0.004617 0.036958
vn 0.000000 -2.202303 -2.202303
v 0.309322 0.004617 0.036958
vn 0.000000 -2.697233 -1.558303
v 0.309322 0.004259 0.037425
vn 0.000000 -2.697233 -1.558303
v -0.341868 0.004259 0.037425
vn 0.000000 -3.008258 -0.805347
v 0.309322 0.004033 0.037969
vn 0.000000 -3.008258 -0.805347
v -0.341868 0.004033 0.037969
vn 0.000000 -3.115323 -0.000000
v 0.309322 0.003957 0.038553
vn 0.000000 -3.115323 0.000000
v -0.341868 0.003957 0.038553
vn 0.000000 -3.008258 0.805347
v 0.309322 0.004033 0.039137
vn 0.000000 -3.008258 0.805347
v -0.341868 0.004033 0.039137
vn 0.000000 -2.697233 1.558303
v 0.309322 0.004259 0.039681
vn 0.000000 -2.697233 1.558303
v -0.341868 0.004259 0.039681
vn 0.000000 -2.203982 2.201014
v 0.309322 0.004617 0.040148
vn 0.000000 -2.203982 2.201014
v -0.341868 0.004617 0.040148
vn 0.000000 -1.556765 2.697277
v -0.341868 0.005084 0.040507
vn 0.000000 -1.556765 2.697277
v 0.309322 0.005084 0.040507
# 120 vertices, 0 vertices normals


usemtl material_0
f 1//1 2//2 3//3
f 2//2 1//1 4//4
f 5//5 6//6 7//7
f 6//6 5//5 8//8
f 6//6 8//8 9//9
f 9//9 8//8 10//10
f 9//9 10//10 11//11
f 11//11 10//10 12//12
f 11//11 12//12 13//13
f 13//13 12//12 14//14
f 13//13 14//14 15//15
f 15//15 14//14 16//16
f 15//15 16//16 17//17
f 17//17 16//16 18//18
f 17//17 18//18 19//19
f 19//19 18//18 20//20
f 19//19 20//20 21//21
f 21//21 20//20 22//22
f 21//21 22//22 23//23
f 23//23 22//22 24//24
f 23//23 24//24 25//25
f 25//25 24//24 26//26
f 25//25 26//26 27//27
f 27//27 26//26 28//28
f 29//29 3//3 30//30
f 3//3 29//29 1//1
f 31//31 32//32 33//33
f 32//32 31//31 34//34
f 32//32 34//34 35//35
f 35//35 34//34 36//36
f 35//35 36//36 37//37
f 37//37 36//36 38//38
f 37//37 38//38 39//39
f 39//39 38//38 40//40
f 39//39 40//40 41//41
f 41//41 40//40 42//42
f 41//41 42//42 43//43
f 43//43 42//42 44//44
f 43//43 44//44 45//45
f 45//45 44//44 46//46
f 45//45 46//46 47//47
f 47//47 46//46 48//48
f 47//47 48//48 49//49
f 49//49 48//48 50//50
f 49//49 50//50 51//51
f 51//51 50//50 52//52
f 51//51 52//52 53//53
f 53//53 52//52 54//54
f 4//4 55//55 2//2
f 55//55 4//4 56//56
f 57//57 58//58 59//59
f 58//58 57//57 60//60
f 60//60 61//61 58//58
f 61//61 60//60 62//62
f 62//62 63//63 61//61
f 63//63 62//62 64//64
f 64//64 65//65 63//63
f 65//65 64//64 66//66
f 65//65 67//67 68//68
f 67//67 65//65 66//66
f 68//68 69//69 70//70
f 69//69 68//68 67//67
f 71//71 72//72 73//73
f 72//72 71//71 74//74
f 74//74 71//71 75//75
f 75//75 71//71 76//76
f 76//76 71//71 77//77
f 78//78 79//79 80//80
f 79//79 78//78 81//81
f 81//81 78//78 82//82
f 82//82 78//78 83//83
f 83//83 78//78 84//84
f 77//77 85//85 86//86
f 85//85 77//77 87//87
f 87//87 77//77 71//71
f 87//87 71//71 70//70
f 87//87 70//70 88//88
f 88//88 70//70 89//89
f 89//89 70//70 90//90
f 90//90 70//70 91//91
f 91//91 70//70 92//92
f 92//92 70//70 93//93
f 93//93 70//70 94//94
f 94//94 70//70 95//95
f 95//95 70//70 78//78
f 84//84 69//69 96//96
f 69//69 84//84 78//78
f 69//69 78//78 70//70
f 71//71 97//97 98//98
f 97//97 71//71 73//73
f 74//74 86//86 72//72
f 86//86 74//74 77//77
f 77//77 74//74 75//75
f 77//77 75//75 76//76
f 95//95 80//80 94//94
f 80//80 95//95 78//78
f 97//97 85//85 96//96
f 85//85 97//97 73//73
f 85//85 73//73 72//72
f 85//85 72//72 86//86
f 96//96 85//85 87//87
f 96//96 87//87 88//88
f 96//96 88//88 89//89
f 96//96 89//89 90//90
f 96//96 90//90 91//91
f 96//96 91//91 94//94
f 96//96 94//94 84//84
f 94//94 91//91 92//92
f 94//94 92//92 93//93
f 84//84 94//94 80//80
f 84//84 80//80 79//79
f 84//84 79//79 81//81
f 84//84 81//81 82//82
f 84//84 82//82 83//83
f 98//98 99//99 100//100
f 99//99 98//98 97//97
f 100//100 101//101 102//102
f 101//101 100//100 99//99
f 101//101 30//30 102//102
f 30//30 101//101 29//29
f 56//56 103//103 55//55
f 103//103 56//56 104//104
f 104//104 105//105 103//103
f 105//105 104//104 106//106
f 107//107 105//105 106//106
f 105//105 107//107 108//108
f 109//109 108//108 107//107
f 108//108 109//109 110//110
f 111//111 110//110 109//109
f 110//110 111//111 112//112
f 113//113 112//112 111//111
f 112//112 113//113 114//114
f 115//115 114//114 113//113
f 114//114 115//115 116//116
f 117//117 116//116 115//115
f 116//116 117//117 118//118
f 117//117 119//119 118//118
f 119//119 117//117 120//120
f 120//120 59//59 119//119
f 59//59 120//120 57//57
# 140 faces, 0 coords texture

# End of File
