####
#
# OBJ File Generated by Meshlab
#
####
# Object original-163.obj
#
# Vertices: 101
# Faces: 102
#
####
mtllib ./original-163.obj.mtl

vn 0.503419 -2.835435 0.011120
v -0.082820 0.006327 -0.263680
vn 0.505371 -2.836083 -0.002629
v -0.083586 0.006191 -0.263680
vn 0.503609 -2.836502 0.000000
v -0.083203 0.006259 -0.263731
vn 0.505219 -2.835230 0.003716
v -0.082463 0.006391 -0.263530
vn 0.505742 -2.832614 -0.003687
v -0.083944 0.006127 -0.263530
vn 0.505805 -2.832970 0.000600
v -0.082156 0.006446 -0.263291
vn 0.505447 -2.834213 0.004924
v -0.084250 0.006072 -0.263291
vn 0.505802 -2.836201 -0.001583
v -0.081921 0.006488 -0.262979
vn 0.505807 -2.836976 -0.000593
v -0.084485 0.006031 -0.262979
vn 0.505327 -2.834283 -0.000932
v -0.081773 0.006514 -0.262616
vn 0.505770 -2.836311 -0.001541
v -0.084633 0.006004 -0.262616
vn 0.505912 -2.837108 0.000003
v -0.081723 0.006523 -0.262227
vn 0.505039 -2.832210 0.000003
v -0.084684 0.005995 -0.262227
vn 0.505406 -2.834269 0.000886
v -0.081773 0.006514 -0.261838
vn 0.505691 -2.836325 0.001495
v -0.084633 0.006004 -0.261838
vn 0.505401 -2.834698 0.001835
v -0.081921 0.006488 -0.261475
vn 0.505663 -2.835428 0.000841
v -0.084485 0.006031 -0.261475
vn 0.505515 -2.834596 -0.001613
v -0.082156 0.006446 -0.261164
vn 0.506281 -2.835636 -0.005960
v -0.084250 0.006072 -0.261164
vn 0.506179 -2.835060 -0.002319
v -0.082463 0.006391 -0.260925
vn 0.504783 -2.832782 0.005080
v -0.083944 0.006127 -0.260925
vn 0.505644 -2.837623 -0.005844
v -0.082820 0.006327 -0.260775
vn 0.504030 -2.838877 0.007919
v -0.083586 0.006191 -0.260775
vn 0.502725 -2.831527 -0.000000
v -0.083203 0.006259 -0.260723
vn 0.772963 0.137748 -3.023728
v -0.122660 0.229886 -0.263680
vn 0.000163 0.000029 -3.114935
v -0.083203 0.006259 -0.263731
vn -0.022636 -0.004034 -3.114927
v -0.123049 0.229852 -0.263731
vn 0.791605 0.141069 -3.007510
v -0.082820 0.006327 -0.263680
vn 1.519876 0.270852 -2.713953
v -0.122297 0.229919 -0.263530
vn 1.531556 0.272936 -2.698670
v -0.082463 0.006391 -0.263530
vn 2.170658 0.386828 -2.224149
v -0.121986 0.229946 -0.263291
vn 2.168976 0.386534 -2.201728
v -0.082156 0.006446 -0.263291
vn 2.658101 0.473699 -1.555865
v -0.081921 0.006488 -0.262979
vn 2.667887 0.475444 -1.574618
v -0.121747 0.229967 -0.262979
vn 2.961183 0.527712 -0.803827
v -0.081773 0.006514 -0.262616
vn 2.982905 0.531581 -0.819852
v -0.121597 0.229980 -0.262616
vn 3.067258 0.546617 -0.000000
v -0.081723 0.006523 -0.262227
vn 5.907409 1.050882 -0.000000
v -0.082069 0.008468 -0.262227
vn 3.086410 0.550022 -0.000000
v -0.121545 0.229985 -0.262227
vn 2.982905 0.531581 0.819852
v -0.121597 0.229980 -0.261838
vn 2.961183 0.527712 0.803827
v -0.081773 0.006514 -0.261838
vn 2.666463 0.475190 1.576683
v -0.121747 0.229967 -0.261475
vn 2.656643 0.473440 1.557798
v -0.081921 0.006488 -0.261475
vn 2.169163 0.386561 2.225948
v -0.121986 0.229946 -0.261164
vn 2.167518 0.386274 2.203659
v -0.082156 0.006446 -0.261164
vn 1.531556 0.272936 2.698670
v -0.082463 0.006391 -0.260925
vn 1.519876 0.270852 2.713953
v -0.122297 0.229919 -0.260925
vn 0.795477 0.141759 3.006990
v -0.082820 0.006327 -0.260775
vn 0.777051 0.138477 3.023149
v -0.122660 0.229886 -0.260775
vn 0.000166 0.000030 3.113893
v -0.083203 0.006259 -0.260723
vn -0.023064 -0.004110 3.113885
v -0.123049 0.229852 -0.260723
vn -0.794824 -0.141644 3.010171
v -0.083586 0.006191 -0.260775
vn -0.814749 -0.145192 2.996615
v -0.123438 0.229818 -0.260775
vn -1.532656 -0.273128 2.697946
v -0.083944 0.006127 -0.260925
vn -1.541447 -0.274698 2.678047
v -0.123801 0.229786 -0.260925
vn -2.164770 -0.389805 2.201244
v -0.084250 0.006072 -0.261164
vn -2.167425 -0.386195 2.182408
v -0.124113 0.229758 -0.261164
vn -5.496561 -0.981645 2.180202
v -0.085036 0.009118 -0.261462
vn -2.659679 -0.478351 1.557168
v -0.084485 0.006031 -0.261475
vn -2.644569 -0.471192 1.536969
v -0.124352 0.229737 -0.261475
vn -2.941270 -0.524118 0.792448
v -0.124502 0.229724 -0.261838
vn -2.959827 -0.527630 0.808171
v -0.084633 0.006004 -0.261838
vn -6.131036 -1.092643 0.000000
v -0.085125 0.008468 -0.262227
vn -3.066216 -0.546786 -0.000000
v -0.084684 0.005995 -0.262227
vn -6.138846 -1.093890 0.000000
v -0.085259 0.009220 -0.262227
vn -3.046508 -0.542903 -0.000000
v -0.124553 0.229719 -0.262227
vn -2.959827 -0.527630 -0.808171
v -0.084633 0.006004 -0.262616
vn -2.941270 -0.524118 -0.792448
v -0.124502 0.229724 -0.262616
vn -2.661130 -0.478602 -1.555231
v -0.084485 0.006031 -0.262979
vn -5.499725 -0.982209 -2.176195
v -0.085036 0.009118 -0.262992
vn -2.646063 -0.471458 -1.535170
v -0.124352 0.229737 -0.262979
vn -2.166236 -0.390058 -2.199315
v -0.084250 0.006072 -0.263291
vn -2.168850 -0.386449 -2.180343
v -0.124113 0.229758 -0.263291
vn -1.541447 -0.274698 -2.678047
v -0.123801 0.229786 -0.263530
vn -1.532656 -0.273128 -2.697946
v -0.083944 0.006127 -0.263530
vn -0.811090 -0.144540 -2.997078
v -0.123438 0.229818 -0.263680
vn -0.790950 -0.140953 -3.010692
v -0.083586 0.006191 -0.263680
vn -0.250851 2.870029 0.004979
v -0.123438 0.229818 -0.263680
vn -0.253515 2.869830 -0.015422
v -0.122660 0.229886 -0.263680
vn -0.250927 2.870903 0.000000
v -0.123049 0.229852 -0.263731
vn -0.253456 2.869160 0.003943
v -0.123801 0.229786 -0.263530
vn -0.253464 2.867392 0.002691
v -0.122297 0.229919 -0.263530
vn -0.253420 2.866897 0.000270
v -0.124113 0.229758 -0.263291
vn -0.253347 2.868583 0.001959
v -0.121986 0.229946 -0.263291
vn -0.253301 2.868067 -0.001583
v -0.124352 0.229737 -0.262979
vn -0.252923 2.868101 0.001310
v -0.121747 0.229967 -0.262979
vn -0.252937 2.868258 0.001582
v -0.124502 0.229724 -0.262616
vn -0.253462 2.870739 -0.000743
v -0.121597 0.229980 -0.262616
vn -0.253262 2.868484 -0.000245
v -0.124553 0.229719 -0.262227
vn -0.252820 2.863472 -0.000244
v -0.121545 0.229985 -0.262227
vn -0.253240 2.868232 -0.001126
v -0.124502 0.229724 -0.261838
vn -0.253158 2.870765 0.001200
v -0.121597 0.229980 -0.261838
vn -0.252787 2.866555 0.001310
v -0.124352 0.229737 -0.261475
vn -0.253165 2.866522 -0.001584
v -0.121747 0.229967 -0.261475
vn -0.253336 2.868463 -0.000518
v -0.124113 0.229758 -0.261164
vn -0.253704 2.870109 -0.002213
v -0.121986 0.229946 -0.261164
vn -0.253619 2.869146 -0.004173
v -0.123801 0.229786 -0.260925
vn -0.253301 2.867407 -0.002920
v -0.122297 0.229919 -0.260925
vn -0.253732 2.872307 0.002848
v -0.123438 0.229818 -0.260775
vn -0.251068 2.872515 0.023250
v -0.122660 0.229886 -0.260775
vn -0.250489 2.865888 0.000000
v -0.123049 0.229852 -0.260723
# 101 vertices, 0 vertices normals


usemtl material_0
f 1//1 2//2 3//3
f 2//2 1//1 4//4
f 2//2 4//4 5//5
f 5//5 4//4 6//6
f 5//5 6//6 7//7
f 7//7 6//6 8//8
f 7//7 8//8 9//9
f 9//9 8//8 10//10
f 9//9 10//10 11//11
f 11//11 10//10 12//12
f 11//11 12//12 13//13
f 13//13 12//12 14//14
f 13//13 14//14 15//15
f 15//15 14//14 16//16
f 15//15 16//16 17//17
f 17//17 16//16 18//18
f 17//17 18//18 19//19
f 19//19 18//18 20//20
f 19//19 20//20 21//21
f 21//21 20//20 22//22
f 21//21 22//22 23//23
f 23//23 22//22 24//24
f 25//25 26//26 27//27
f 26//26 25//25 28//28
f 29//29 28//28 25//25
f 28//28 29//29 30//30
f 31//31 30//30 29//29
f 30//30 31//31 32//32
f 31//31 33//33 32//32
f 33//33 31//31 34//34
f 34//34 35//35 33//33
f 35//35 34//34 36//36
f 36//36 37//37 35//35
f 37//37 36//36 38//38
f 38//38 36//36 39//39
f 37//37 40//40 41//41
f 40//40 37//37 38//38
f 40//40 38//38 39//39
f 41//41 42//42 43//43
f 42//42 41//41 40//40
f 43//43 44//44 45//45
f 44//44 43//43 42//42
f 46//46 44//44 47//47
f 44//44 46//46 45//45
f 48//48 47//47 49//49
f 47//47 48//48 46//46
f 50//50 49//49 51//51
f 49//49 50//50 48//48
f 52//52 51//51 53//53
f 51//51 52//52 50//50
f 54//54 53//53 55//55
f 53//53 54//54 52//52
f 56//56 55//55 57//57
f 55//55 56//56 54//54
f 56//56 58//58 59//59
f 58//58 56//56 57//57
f 58//58 57//57 60//60
f 59//59 61//61 62//62
f 61//61 59//59 58//58
f 61//61 58//58 60//60
f 62//62 63//63 64//64
f 63//63 62//62 61//61
f 63//63 61//61 65//65
f 65//65 61//61 66//66
f 63//63 67//67 64//64
f 67//67 63//63 68//68
f 68//68 63//63 65//65
f 68//68 65//65 66//66
f 68//68 69//69 67//67
f 69//69 68//68 70//70
f 70//70 68//68 71//71
f 70//70 72//72 69//69
f 72//72 70//70 73//73
f 73//73 70//70 71//71
f 74//74 72//72 73//73
f 72//72 74//74 75//75
f 76//76 75//75 74//74
f 75//75 76//76 77//77
f 27//27 77//77 76//76
f 77//77 27//27 26//26
f 78//78 79//79 80//80
f 79//79 78//78 81//81
f 79//79 81//81 82//82
f 82//82 81//81 83//83
f 82//82 83//83 84//84
f 84//84 83//83 85//85
f 84//84 85//85 86//86
f 86//86 85//85 87//87
f 86//86 87//87 88//88
f 88//88 87//87 89//89
f 88//88 89//89 90//90
f 90//90 89//89 91//91
f 90//90 91//91 92//92
f 92//92 91//91 93//93
f 92//92 93//93 94//94
f 94//94 93//93 95//95
f 94//94 95//95 96//96
f 96//96 95//95 97//97
f 96//96 97//97 98//98
f 98//98 97//97 99//99
f 98//98 99//99 100//100
f 100//100 99//99 101//101
# 102 faces, 0 coords texture

# End of File
