####
#
# OBJ File Generated by Meshlab
#
####
# Object original-185.obj
#
# Vertices: 96
# Faces: 96
#
####
mtllib ./original-185.obj.mtl

vn 0.806843 -0.017406 3.007061
v -0.347909 -0.591081 0.301032
vn 0.804776 -0.017906 3.008297
v -0.347909 -0.594809 0.301010
vn 1.558880 -0.016104 2.697067
v -0.348635 -0.591084 0.301333
vn 1.557923 -0.016310 2.697254
v -0.348635 -0.594811 0.301311
vn -0.804776 0.017906 -3.008297
v -0.347909 -0.594809 0.301010
vn -1.558880 0.016104 -2.697067
v -0.348635 -0.591084 0.301333
vn -1.557923 0.016310 -2.697254
v -0.348635 -0.594811 0.301311
vn -0.806843 0.017406 -3.007061
v -0.347909 -0.591081 0.301032
vn 0.000467 -0.017956 3.115583
v -0.347131 -0.591081 0.300929
vn 0.000465 -0.017955 3.115368
v -0.347131 -0.594809 0.300908
vn -0.000465 0.017955 -3.115368
v -0.347131 -0.594809 0.300908
vn -0.000467 0.017956 -3.115583
v -0.347131 -0.591081 0.300929
vn 2.203490 -0.013185 2.202776
v -0.349257 -0.591087 0.301811
vn 2.203484 -0.013315 2.201941
v -0.349257 -0.594814 0.301789
vn -2.203490 0.013185 -2.202776
v -0.349257 -0.591087 0.301811
vn -2.203484 0.013315 -2.201941
v -0.349257 -0.594814 0.301789
vn -0.807360 -0.017897 3.006828
v -0.346352 -0.591081 0.301032
vn -0.805295 -0.017412 3.008070
v -0.346352 -0.594809 0.301010
vn 0.805295 0.017412 -3.008070
v -0.346352 -0.594809 0.301010
vn 0.807360 0.017897 -3.006828
v -0.346352 -0.591081 0.301032
vn 2.696235 -0.009170 1.558467
v -0.349735 -0.591090 0.302433
vn 2.696504 -0.009302 1.557962
v -0.349735 -0.594818 0.302411
vn -2.696504 0.009302 -1.557962
v -0.349735 -0.594818 0.302411
vn -2.696235 0.009170 -1.558467
v -0.349735 -0.591090 0.302433
vn -1.558758 -0.016311 2.697458
v -0.345627 -0.591084 0.301333
vn -1.557800 -0.016107 2.697648
v -0.345627 -0.594811 0.301311
vn 1.557800 0.016107 -2.697648
v -0.345627 -0.594811 0.301311
vn 1.558758 0.016311 -2.697458
v -0.345627 -0.591084 0.301333
vn 3.008449 -0.004742 0.805900
v -0.350036 -0.591094 0.303159
vn 3.008351 -0.004742 0.805965
v -0.350036 -0.594822 0.303137
vn -3.008449 0.004742 -0.805900
v -0.350036 -0.591094 0.303159
vn -3.008351 0.004742 -0.805965
v -0.350036 -0.594822 0.303137
vn -2.202523 -0.013189 2.203519
v -0.345004 -0.591087 0.301811
vn -2.202517 -0.013319 2.202684
v -0.345004 -0.594814 0.301789
vn 2.202517 0.013319 -2.202684
v -0.345004 -0.594814 0.301789
vn 2.202523 0.013189 -2.203519
v -0.345004 -0.591087 0.301811
vn 3.113979 0.000027 0.000218
v -0.350138 -0.591099 0.303937
vn 3.114965 -0.000000 0.000049
v -0.350138 -0.594826 0.303915
vn -3.114965 0.000000 -0.000049
v -0.350138 -0.594826 0.303915
vn -3.113979 -0.000027 -0.000218
v -0.350138 -0.591099 0.303937
vn -2.696235 -0.009170 1.558467
v -0.344526 -0.591090 0.302433
vn -2.696504 -0.009302 1.557962
v -0.344526 -0.594818 0.302411
vn 2.696504 0.009302 -1.557962
v -0.344526 -0.594818 0.302411
vn 2.696235 0.009170 -1.558467
v -0.344526 -0.591090 0.302433
vn 3.009354 0.004874 -0.805976
v -0.350036 -0.591104 0.304716
vn 3.008472 0.004844 -0.805842
v -0.350036 -0.594831 0.304694
vn -3.008472 -0.004844 0.805842
v -0.350036 -0.594831 0.304694
vn -3.009354 -0.004874 0.805976
v -0.350036 -0.591104 0.304716
vn -3.008449 -0.004742 0.805900
v -0.344225 -0.591094 0.303159
vn -3.008351 -0.004742 0.805965
v -0.344225 -0.594822 0.303137
vn 3.008449 0.004742 -0.805900
v -0.344225 -0.591094 0.303159
vn 3.008351 0.004742 -0.805965
v -0.344225 -0.594822 0.303137
vn 2.696940 0.009292 -1.559031
v -0.349735 -0.591108 0.305442
vn 2.697525 0.009424 -1.558475
v -0.349735 -0.594835 0.305419
vn -2.697525 -0.009424 1.558475
v -0.349735 -0.594835 0.305419
vn -2.696940 -0.009292 1.559031
v -0.349735 -0.591108 0.305442
vn -3.113982 -0.000001 0.000239
v -0.344123 -0.591099 0.303937
vn -3.114967 0.000028 0.000070
v -0.344123 -0.594826 0.303915
vn 3.113982 0.000001 -0.000239
v -0.344123 -0.591099 0.303937
vn 3.114967 -0.000028 -0.000070
v -0.344123 -0.594826 0.303915
vn 2.202272 0.012956 -2.201913
v -0.349257 -0.591111 0.306064
vn 2.202976 0.013090 -2.201728
v -0.349257 -0.594839 0.306042
vn -2.202976 -0.013090 2.201728
v -0.349257 -0.594839 0.306042
vn -2.202272 -0.012956 2.201913
v -0.349257 -0.591111 0.306064
vn -3.009351 0.004845 -0.805997
v -0.344225 -0.591104 0.304716
vn -3.008470 0.004873 -0.805862
v -0.344225 -0.594831 0.304694
vn 3.009351 -0.004845 0.805997
v -0.344225 -0.591104 0.304716
vn 3.008470 -0.004873 0.805862
v -0.344225 -0.594831 0.304694
vn 1.557695 0.016071 -2.696426
v -0.348635 -0.594842 0.306520
vn 1.558607 0.015863 -2.695914
v -0.348635 -0.591114 0.306542
vn -1.558607 -0.015863 2.695914
v -0.348635 -0.591114 0.306542
vn -1.557695 -0.016071 2.696426
v -0.348635 -0.594842 0.306520
vn -2.696881 0.009428 -1.559108
v -0.344526 -0.591108 0.305442
vn -2.697465 0.009289 -1.558553
v -0.344526 -0.594835 0.305419
vn 2.696881 -0.009428 1.559108
v -0.344526 -0.591108 0.305442
vn 2.697465 -0.009289 1.558553
v -0.344526 -0.594835 0.305419
vn 0.806216 0.017903 -3.008458
v -0.347909 -0.594843 0.306821
vn 0.805903 0.017989 -3.008879
v -0.347909 -0.591116 0.306843
vn -0.805903 -0.017989 3.008879
v -0.347909 -0.591116 0.306843
vn -0.806216 -0.017903 3.008458
v -0.347909 -0.594843 0.306821
vn -2.201365 0.013095 -2.202577
v -0.345004 -0.591111 0.306064
vn -2.202068 0.012959 -2.202394
v -0.345004 -0.594839 0.306042
vn 2.201365 -0.013095 2.202577
v -0.345004 -0.591111 0.306064
vn 2.202068 -0.012959 2.202394
v -0.345004 -0.594839 0.306042
vn 0.000467 0.018463 -3.115622
v -0.347131 -0.594844 0.306923
vn 0.000465 0.018462 -3.115323
v -0.347131 -0.591117 0.306945
vn -0.000465 -0.018462 3.115323
v -0.347131 -0.591117 0.306945
vn -0.000467 -0.018463 3.115622
v -0.347131 -0.594844 0.306923
vn -1.557298 0.015869 -2.696933
v -0.345627 -0.594842 0.306520
vn -1.558210 0.016071 -2.696418
v -0.345627 -0.591114 0.306542
vn 1.557298 -0.015869 2.696933
v -0.345627 -0.594842 0.306520
vn 1.558210 -0.016071 2.696418
v -0.345627 -0.591114 0.306542
vn -0.807007 0.017985 -3.008116
v -0.346352 -0.594843 0.306821
vn -0.806698 0.017904 -3.008537
v -0.346352 -0.591116 0.306843
vn 0.806698 -0.017904 3.008537
v -0.346352 -0.591116 0.306843
vn 0.807007 -0.017985 3.008116
v -0.346352 -0.594843 0.306821
# 96 vertices, 0 vertices normals


usemtl material_0
vt 0.038620 0.002479
vt 0.039142 0.000000
vt 0.039142 0.002479
f 3/1/3 2/2/2 1/3/1
vt 0.038620 0.000000
f 2/2/2 3/1/3 4/4/4
f 7/4/7 6/1/6 5/2/5
f 8/3/8 5/2/5 6/1/6
vt 0.036672 0.002479
vt 0.037194 0.000000
vt 0.037194 0.002479
f 1/5/1 10/6/10 9/7/9
vt 0.036672 0.000000
f 10/6/10 1/5/1 2/8/2
f 5/8/5 8/5/8 11/6/11
f 12/7/12 11/6/11 8/5/8
vt 0.037918 0.002479
vt 0.038440 0.000000
vt 0.038440 0.002479
f 13/9/13 4/10/4 3/11/3
vt 0.037918 0.000000
f 4/10/4 13/9/13 14/12/14
f 16/12/16 15/9/15 7/10/7
f 6/11/6 7/10/7 15/9/15
vt 0.032207 0.002479
vt 0.032729 0.000000
vt 0.032729 0.002479
f 9/13/9 18/14/18 17/15/17
vt 0.032207 0.000000
f 18/14/18 9/13/9 10/16/10
f 11/16/11 12/13/12 19/14/19
f 20/15/20 19/14/19 12/13/12
vt 0.034615 0.000000
vt 0.035137 0.002479
vt 0.034615 0.002479
f 22/17/22 13/18/13 21/19/21
vt 0.035137 0.000000
f 13/18/13 22/17/22 14/20/14
f 16/20/16 23/17/23 15/18/15
f 24/19/24 15/18/15 23/17/23
vt 0.025529 0.002479
vt 0.026052 -0.000000
vt 0.026052 0.002479
f 17/21/17 26/22/26 25/23/25
vt 0.025529 0.000000
f 26/22/26 17/21/17 18/24/18
f 19/24/19 20/21/20 27/22/27
f 28/23/28 27/22/27 20/21/20
vt 0.028935 0.002479
vt 0.029457 0.000000
vt 0.029457 0.002479
f 29/25/29 22/26/22 21/27/21
vt 0.028935 0.000000
f 22/26/22 29/25/29 30/28/30
f 32/28/32 31/25/31 23/26/23
f 24/27/24 23/26/23 31/25/31
vt 0.017094 0.002479
vt 0.017616 -0.000000
vt 0.017616 0.002479
f 25/29/25 34/30/34 33/31/33
vt 0.017094 -0.000000
f 34/30/34 25/29/25 26/32/26
f 27/32/27 28/29/28 35/30/35
f 36/31/36 35/30/35 28/29/28
vt 0.021265 0.000000
vt 0.021787 0.002479
vt 0.021265 0.002479
f 38/33/38 29/34/29 37/35/37
vt 0.021787 0.000000
f 29/34/29 38/33/38 30/36/30
f 32/36/32 39/33/39 31/34/31
f 40/35/40 31/34/31 39/33/39
vt 0.007476 0.002479
vt 0.007999 0.000000
vt 0.007999 0.002479
f 33/37/33 42/38/42 41/39/41
vt 0.007476 -0.000000
f 42/38/42 33/37/33 34/40/34
f 35/40/35 36/37/36 43/38/43
f 44/39/44 43/38/43 36/37/36
vt 0.012128 0.000000
vt 0.012650 0.002479
vt 0.012128 0.002479
f 46/41/46 37/42/37 45/43/45
vt 0.012650 0.000000
f 37/42/37 46/41/46 38/44/38
f 39/44/39 47/41/47 40/42/40
f 48/43/48 40/42/40 47/41/47
vt -0.002669 0.000000
vt -0.002147 0.002479
vt -0.002669 0.002479
f 42/45/42 49/46/49 41/47/41
vt -0.002147 0.000000
f 49/46/49 42/45/42 50/48/50
f 52/48/52 43/45/43 51/46/51
f 44/47/44 51/46/51 43/45/43
vt 0.002147 0.000000
vt 0.002669 0.002479
vt 0.002147 0.002479
f 54/49/54 45/50/45 53/51/53
vt 0.002669 0.000000
f 45/50/45 54/49/54 46/52/46
f 47/52/47 55/49/55 48/50/48
f 56/51/56 48/50/48 55/49/55
vt -0.012650 0.000000
vt -0.012128 0.002479
vt -0.012650 0.002479
f 50/53/50 57/54/57 49/55/49
vt -0.012128 0.000000
f 57/54/57 50/53/50 58/56/58
f 60/56/60 52/53/52 59/54/59
f 51/55/51 59/54/59 52/53/52
vt -0.007999 -0.000000
vt -0.007476 0.002479
vt -0.007999 0.002479
f 62/57/62 53/58/53 61/59/61
vt -0.007476 -0.000000
f 53/58/53 62/57/62 54/60/54
f 55/60/55 63/57/63 56/58/56
f 64/59/64 56/58/56 63/57/63
vt -0.021787 0.000000
vt -0.021265 0.002479
vt -0.021787 0.002479
f 58/61/58 65/62/65 57/63/57
vt -0.021265 0.000000
f 65/62/65 58/61/58 66/64/66
f 68/64/68 60/61/60 67/62/67
f 59/63/59 67/62/67 60/61/60
vt -0.017094 -0.000000
vt -0.017616 0.002479
vt -0.017616 -0.000000
f 62/65/62 70/66/70 69/67/69
vt -0.017094 0.002479
f 70/66/70 62/65/62 61/68/61
f 64/68/64 63/65/63 71/66/71
f 72/67/72 71/66/71 63/65/63
vt -0.029457 0.000000
vt -0.028935 0.002479
vt -0.029457 0.002479
f 66/69/66 73/70/73 65/71/65
vt -0.028935 0.000000
f 73/70/73 66/69/66 74/72/74
f 76/72/76 68/69/68 75/70/75
f 67/71/67 75/70/75 68/69/68
vt -0.025529 -0.000000
vt -0.026052 0.002479
vt -0.026052 -0.000000
f 69/73/69 78/74/78 77/75/77
vt -0.025529 0.002479
f 78/74/78 69/73/69 70/76/70
f 71/76/71 72/73/72 79/74/79
f 80/75/80 79/74/79 72/73/72
vt -0.035137 0.000000
vt -0.034615 0.002479
vt -0.035137 0.002479
f 74/77/74 81/78/81 73/79/73
vt -0.034615 0.000000
f 81/78/81 74/77/74 82/80/82
f 84/80/84 76/77/76 83/78/83
f 75/79/75 83/78/83 76/77/76
vt -0.032207 0.000000
vt -0.032729 0.002479
vt -0.032729 0.000000
f 77/81/77 86/82/86 85/83/85
vt -0.032207 0.002479
f 86/82/86 77/81/77 78/84/78
f 79/84/79 80/81/80 87/82/87
f 88/83/88 87/82/87 80/81/80
vt -0.037918 0.000000
vt -0.038440 0.002479
vt -0.038440 0.000000
f 89/85/89 81/86/81 82/87/82
vt -0.037918 0.002479
f 81/86/81 89/85/89 90/88/90
f 92/88/92 91/85/91 83/86/83
f 84/87/84 83/86/83 91/85/91
vt -0.036672 0.000000
vt -0.037194 0.002479
vt -0.037194 0.000000
f 85/89/85 94/90/94 93/91/93
vt -0.036672 0.002479
f 94/90/94 85/89/85 86/92/86
f 87/92/87 88/89/88 95/90/95
f 96/91/96 95/90/95 88/89/88
vt -0.038620 0.000000
vt -0.039142 0.002479
vt -0.039142 0.000000
f 93/93/93 90/94/90 89/95/89
vt -0.038620 0.002479
f 90/94/90 93/93/93 94/96/94
f 95/96/95 96/93/96 92/94/92
f 91/95/91 92/94/92 96/93/96
# 96 faces, 96 coords texture

# End of File
