####
#
# OBJ File Generated by Meshlab
#
####
# Object original-162.obj
#
# Vertices: 101
# Faces: 102
#
####
mtllib ./original-162.obj.mtl

vn 0.502782 -2.835541 0.012835
v -0.142976 0.006327 -0.263680
vn 0.505088 -2.834825 -0.005399
v -0.143743 0.006191 -0.263680
vn 0.503028 -2.836931 0.004932
v -0.143359 0.006259 -0.263731
vn 0.505161 -2.835241 0.003705
v -0.142619 0.006391 -0.263530
vn 0.505910 -2.833555 -0.004147
v -0.144100 0.006127 -0.263530
vn 0.505805 -2.832970 0.000600
v -0.142312 0.006446 -0.263291
vn 0.505657 -2.836191 0.005999
v -0.144406 0.006072 -0.263291
vn 0.505663 -2.836226 -0.001462
v -0.142077 0.006488 -0.262979
vn 0.504982 -2.832748 -0.001008
v -0.144642 0.006031 -0.262979
vn 0.505257 -2.834295 -0.000966
v -0.141929 0.006514 -0.262616
vn 0.506177 -2.838591 -0.002115
v -0.144789 0.006004 -0.262616
vn 0.505912 -2.837108 0.000003
v -0.141879 0.006523 -0.262227
vn 0.505039 -2.832210 0.000003
v -0.144840 0.005995 -0.262227
vn 0.505406 -2.834269 0.000886
v -0.141929 0.006514 -0.261838
vn 0.506028 -2.838618 0.002035
v -0.144789 0.006004 -0.261838
vn 0.505332 -2.834711 0.001855
v -0.142077 0.006488 -0.261475
vn 0.504768 -2.831210 0.001396
v -0.144642 0.006031 -0.261475
vn 0.505376 -2.834620 -0.001795
v -0.142312 0.006446 -0.261164
vn 0.506630 -2.837590 -0.007225
v -0.144406 0.006072 -0.261164
vn 0.506179 -2.835060 -0.002319
v -0.142619 0.006391 -0.260925
vn 0.504893 -2.833734 0.005529
v -0.144100 0.006127 -0.260925
vn 0.505586 -2.837633 -0.005844
v -0.142976 0.006327 -0.260775
vn 0.503165 -2.837702 0.012390
v -0.143743 0.006191 -0.260775
vn 0.502147 -2.831962 -0.004828
v -0.143359 0.006259 -0.260723
vn -2.960785 -0.527801 0.804640
v -0.144789 0.006004 -0.261838
vn -6.131036 -1.092643 0.000000
v -0.145281 0.008468 -0.262227
vn -3.066216 -0.546786 -0.000000
v -0.144840 0.005995 -0.262227
vn -2.941270 -0.524118 0.792448
v -0.184658 0.229724 -0.261838
vn -6.138846 -1.093890 0.000000
v -0.145415 0.009220 -0.262227
vn -3.046508 -0.542903 -0.000000
v -0.184709 0.229719 -0.262227
vn -2.960785 -0.527801 -0.804640
v -0.144789 0.006004 -0.262616
vn -2.941270 -0.524118 -0.792448
v -0.184658 0.229724 -0.262616
vn -2.661307 -0.478247 -1.554983
v -0.144642 0.006031 -0.262979
vn -5.484205 -0.979118 -2.343234
v -0.145192 0.009118 -0.262992
vn -2.646063 -0.471458 -1.535170
v -0.184508 0.229737 -0.262979
vn -2.164226 -0.389342 -2.201327
v -0.144406 0.006072 -0.263291
vn -2.168850 -0.386449 -2.180343
v -0.184269 0.229758 -0.263291
vn -1.542843 -0.274947 -2.677737
v -0.183957 0.229786 -0.263530
vn -1.533854 -0.273341 -2.696958
v -0.144100 0.006127 -0.263530
vn -0.811936 -0.144691 -2.996075
v -0.183595 0.229818 -0.263680
vn -0.792043 -0.141148 -3.011040
v -0.143743 0.006191 -0.263680
vn -0.022137 -0.003945 -3.115219
v -0.183205 0.229852 -0.263731
vn 0.000718 0.000128 -3.114560
v -0.143359 0.006259 -0.263731
vn 0.772963 0.137748 -3.023728
v -0.182816 0.229886 -0.263680
vn 0.791605 0.141069 -3.007510
v -0.142976 0.006327 -0.263680
vn 1.519876 0.270852 -2.713953
v -0.182453 0.229919 -0.263530
vn 1.531556 0.272936 -2.698670
v -0.142619 0.006391 -0.263530
vn 2.170658 0.386828 -2.224149
v -0.182142 0.229946 -0.263291
vn 2.168976 0.386534 -2.201728
v -0.142312 0.006446 -0.263291
vn 2.658101 0.473699 -1.555865
v -0.142077 0.006488 -0.262979
vn 2.667887 0.475444 -1.574618
v -0.181903 0.229967 -0.262979
vn 2.961183 0.527712 -0.803827
v -0.141929 0.006514 -0.262616
vn 2.982905 0.531581 -0.819852
v -0.181753 0.229980 -0.262616
vn 3.067258 0.546617 -0.000000
v -0.141879 0.006523 -0.262227
vn 5.907409 1.050882 0.000000
v -0.142225 0.008468 -0.262227
vn 3.086410 0.550022 0.000000
v -0.181701 0.229985 -0.262227
vn 2.982905 0.531581 0.819852
v -0.181753 0.229980 -0.261838
vn 2.961183 0.527712 0.803827
v -0.141929 0.006514 -0.261838
vn 2.666463 0.475190 1.576683
v -0.181903 0.229967 -0.261475
vn 2.656643 0.473440 1.557798
v -0.142077 0.006488 -0.261475
vn 2.169163 0.386561 2.225948
v -0.182142 0.229946 -0.261164
vn 2.167518 0.386274 2.203659
v -0.142312 0.006446 -0.261164
vn 1.531556 0.272936 2.698670
v -0.142619 0.006391 -0.260925
vn 1.519876 0.270852 2.713953
v -0.182453 0.229919 -0.260925
vn 0.795477 0.141759 3.006990
v -0.142976 0.006327 -0.260775
vn 0.777051 0.138477 3.023149
v -0.182816 0.229886 -0.260775
vn 0.000732 0.000130 3.113521
v -0.143359 0.006259 -0.260723
vn -0.022556 -0.004020 3.114180
v -0.183205 0.229852 -0.260723
vn -0.795910 -0.141837 3.010521
v -0.143743 0.006191 -0.260775
vn -0.815586 -0.145342 2.995615
v -0.183595 0.229818 -0.260775
vn -1.533854 -0.273341 2.696958
v -0.144100 0.006127 -0.260925
vn -1.542843 -0.274947 2.677737
v -0.183957 0.229786 -0.260925
vn -2.162755 -0.389088 2.203253
v -0.144406 0.006072 -0.261164
vn -2.167425 -0.386195 2.182408
v -0.184269 0.229758 -0.261164
vn -5.481041 -0.978554 2.347242
v -0.145192 0.009118 -0.261462
vn -2.659851 -0.477995 1.556920
v -0.144642 0.006031 -0.261475
vn -2.644569 -0.471192 1.536969
v -0.184508 0.229737 -0.261475
vn -0.250418 2.868764 0.007205
v -0.183595 0.229818 -0.263680
vn -0.253486 2.869832 -0.015422
v -0.182816 0.229886 -0.263680
vn -0.250636 2.871255 -0.002457
v -0.183205 0.229852 -0.263731
vn -0.253511 2.870124 0.004167
v -0.183957 0.229786 -0.263530
vn -0.253464 2.867392 0.002691
v -0.182453 0.229919 -0.263530
vn -0.253420 2.866897 0.000270
v -0.184269 0.229758 -0.263291
vn -0.253347 2.868583 0.001959
v -0.182142 0.229946 -0.263291
vn -0.253301 2.868067 -0.001583
v -0.184508 0.229737 -0.262979
vn -0.252923 2.868101 0.001310
v -0.181903 0.229967 -0.262979
vn -0.252937 2.868258 0.001582
v -0.184658 0.229724 -0.262616
vn -0.253462 2.870739 -0.000743
v -0.181753 0.229980 -0.262616
vn -0.253262 2.868484 -0.000245
v -0.184709 0.229719 -0.262227
vn -0.252820 2.863472 -0.000244
v -0.181701 0.229985 -0.262227
vn -0.253240 2.868232 -0.001126
v -0.184658 0.229724 -0.261838
vn -0.253158 2.870765 0.001200
v -0.181753 0.229980 -0.261838
vn -0.252787 2.866555 0.001310
v -0.184508 0.229737 -0.261475
vn -0.253165 2.866522 -0.001584
v -0.181903 0.229967 -0.261475
vn -0.253336 2.868463 -0.000518
v -0.184269 0.229758 -0.261164
vn -0.253704 2.870109 -0.002213
v -0.182142 0.229946 -0.261164
vn -0.253704 2.870106 -0.004403
v -0.183957 0.229786 -0.260925
vn -0.253272 2.867409 -0.002925
v -0.182453 0.229919 -0.260925
vn -0.253589 2.871018 0.001453
v -0.183595 0.229818 -0.260775
vn -0.250748 2.872536 0.024105
v -0.182816 0.229886 -0.260775
vn -0.250199 2.866246 0.002406
v -0.183205 0.229852 -0.260723
# 101 vertices, 0 vertices normals


usemtl material_0
f 1//1 2//2 3//3
f 2//2 1//1 4//4
f 2//2 4//4 5//5
f 5//5 4//4 6//6
f 5//5 6//6 7//7
f 7//7 6//6 8//8
f 7//7 8//8 9//9
f 9//9 8//8 10//10
f 9//9 10//10 11//11
f 11//11 10//10 12//12
f 11//11 12//12 13//13
f 13//13 12//12 14//14
f 13//13 14//14 15//15
f 15//15 14//14 16//16
f 15//15 16//16 17//17
f 17//17 16//16 18//18
f 17//17 18//18 19//19
f 19//19 18//18 20//20
f 19//19 20//20 21//21
f 21//21 20//20 22//22
f 21//21 22//22 23//23
f 23//23 22//22 24//24
f 25//25 26//26 27//27
f 26//26 25//25 28//28
f 26//26 28//28 29//29
f 29//29 28//28 30//30
f 26//26 31//31 27//27
f 31//31 26//26 32//32
f 32//32 26//26 29//29
f 32//32 29//29 30//30
f 32//32 33//33 31//31
f 33//33 32//32 34//34
f 34//34 32//32 35//35
f 34//34 36//36 33//33
f 36//36 34//34 37//37
f 37//37 34//34 35//35
f 38//38 36//36 37//37
f 36//36 38//38 39//39
f 40//40 39//39 38//38
f 39//39 40//40 41//41
f 42//42 41//41 40//40
f 41//41 42//42 43//43
f 44//44 43//43 42//42
f 43//43 44//44 45//45
f 46//46 45//45 44//44
f 45//45 46//46 47//47
f 48//48 47//47 46//46
f 47//47 48//48 49//49
f 48//48 50//50 49//49
f 50//50 48//48 51//51
f 51//51 52//52 50//50
f 52//52 51//51 53//53
f 53//53 54//54 52//52
f 54//54 53//53 55//55
f 55//55 53//53 56//56
f 54//54 57//57 58//58
f 57//57 54//54 55//55
f 57//57 55//55 56//56
f 58//58 59//59 60//60
f 59//59 58//58 57//57
f 60//60 61//61 62//62
f 61//61 60//60 59//59
f 63//63 61//61 64//64
f 61//61 63//63 62//62
f 65//65 64//64 66//66
f 64//64 65//65 63//63
f 67//67 66//66 68//68
f 66//66 67//67 65//65
f 69//69 68//68 70//70
f 68//68 69//69 67//67
f 71//71 70//70 72//72
f 70//70 71//71 69//69
f 73//73 72//72 74//74
f 72//72 73//73 71//71
f 73//73 75//75 76//76
f 75//75 73//73 74//74
f 75//75 74//74 77//77
f 76//76 28//28 25//25
f 28//28 76//76 75//75
f 28//28 75//75 77//77
f 78//78 79//79 80//80
f 79//79 78//78 81//81
f 79//79 81//81 82//82
f 82//82 81//81 83//83
f 82//82 83//83 84//84
f 84//84 83//83 85//85
f 84//84 85//85 86//86
f 86//86 85//85 87//87
f 86//86 87//87 88//88
f 88//88 87//87 89//89
f 88//88 89//89 90//90
f 90//90 89//89 91//91
f 90//90 91//91 92//92
f 92//92 91//91 93//93
f 92//92 93//93 94//94
f 94//94 93//93 95//95
f 94//94 95//95 96//96
f 96//96 95//95 97//97
f 96//96 97//97 98//98
f 98//98 97//97 99//99
f 98//98 99//99 100//100
f 100//100 99//99 101//101
# 102 faces, 0 coords texture

# End of File
