####
#
# OBJ File Generated by Meshlab
#
####
# Object original-142.obj
#
# Vertices: 101
# Faces: 102
#
####
mtllib ./original-142.obj.mtl

vn -6.133040 -1.092974 -0.000000
v -0.325749 0.008468 -0.036642
vn -2.960766 -0.527790 -0.804359
v -0.325258 0.006004 -0.037031
vn -3.066348 -0.546809 -0.000000
v -0.325308 0.005995 -0.036642
vn -2.941270 -0.524118 -0.792448
v -0.365126 0.229724 -0.037031
vn -6.138846 -1.093890 -0.000000
v -0.325883 0.009220 -0.036642
vn -3.046508 -0.542903 -0.000000
v -0.365177 0.229719 -0.036642
vn -0.250531 2.870055 0.005834
v -0.364063 0.229818 -0.038095
vn -0.253372 2.868535 -0.016810
v -0.363284 0.229886 -0.038095
vn -0.250636 2.871255 0.002457
v -0.363674 0.229852 -0.038146
vn -0.253291 2.867630 0.004853
v -0.364426 0.229786 -0.037945
vn -0.253684 2.869881 0.003375
v -0.362922 0.229919 -0.037945
vn -0.253556 2.868428 0.000513
v -0.364737 0.229758 -0.037706
vn -0.253212 2.867052 0.002196
v -0.362610 0.229946 -0.037706
vn -0.253301 2.868067 -0.001583
v -0.364976 0.229737 -0.037394
vn -0.252923 2.868101 0.001310
v -0.362371 0.229967 -0.037394
vn -0.252937 2.868258 0.001582
v -0.365126 0.229724 -0.037031
vn -0.253286 2.868228 -0.001091
v -0.362221 0.229980 -0.037031
vn -0.253308 2.868480 -0.000269
v -0.365177 0.229719 -0.036642
vn -0.253308 2.868480 -0.000269
v -0.362170 0.229985 -0.036642
vn -0.253286 2.868228 -0.001091
v -0.365126 0.229724 -0.036253
vn -0.252937 2.868258 0.001582
v -0.362221 0.229980 -0.036253
vn -0.252787 2.866555 0.001310
v -0.364976 0.229737 -0.035890
vn -0.253165 2.866522 -0.001584
v -0.362371 0.229967 -0.035890
vn -0.253471 2.869993 -0.000761
v -0.364737 0.229758 -0.035579
vn -0.253569 2.868578 -0.002450
v -0.362610 0.229946 -0.035579
vn -0.253690 2.869948 -0.005088
v -0.364426 0.229786 -0.035340
vn -0.253696 2.872238 -0.003613
v -0.362922 0.229919 -0.035340
vn -0.253276 2.867467 0.002834
v -0.364063 0.229818 -0.035189
vn -0.250211 2.866388 0.025278
v -0.363284 0.229886 -0.035189
vn -0.250636 2.871255 -0.002457
v -0.363674 0.229852 -0.035138
vn -2.661052 -0.478183 -1.555427
v -0.325110 0.006031 -0.037394
vn -5.488033 -0.979788 -2.338370
v -0.325660 0.009118 -0.037407
vn -2.646063 -0.471458 -1.535170
v -0.364976 0.229737 -0.037394
vn 0.502725 -2.835220 0.012390
v -0.323444 0.006327 -0.038095
vn 0.505145 -2.835145 -0.005844
v -0.324211 0.006191 -0.038095
vn 0.503028 -2.836931 -0.004932
v -0.323828 0.006259 -0.038146
vn 0.504893 -2.833734 0.005529
v -0.323087 0.006391 -0.037945
vn 0.506179 -2.835060 -0.002319
v -0.324568 0.006127 -0.037945
vn 0.506422 -2.836429 -0.000172
v -0.322781 0.006446 -0.037706
vn 0.505040 -2.832736 0.005225
v -0.324875 0.006072 -0.037706
vn 0.505313 -2.834270 -0.001978
v -0.322545 0.006488 -0.037394
vn 0.505628 -2.837008 -0.000682
v -0.325110 0.006031 -0.037394
vn 0.505149 -2.834315 -0.000892
v -0.322397 0.006514 -0.037031
vn 0.505256 -2.833876 -0.002278
v -0.325258 0.006004 -0.037031
vn 0.505834 -2.837122 -0.000046
v -0.322347 0.006523 -0.036642
vn 0.505834 -2.837122 -0.000046
v -0.325308 0.005995 -0.036642
vn 0.505328 -2.834283 0.000917
v -0.322397 0.006514 -0.036253
vn 0.505076 -2.833908 0.002303
v -0.325258 0.006004 -0.036253
vn 0.504874 -2.832772 0.002262
v -0.322545 0.006488 -0.035890
vn 0.505525 -2.835452 0.000963
v -0.325110 0.006031 -0.035890
vn 0.505993 -2.838082 -0.001023
v -0.322781 0.006446 -0.035579
vn 0.506013 -2.834133 -0.006443
v -0.324875 0.006072 -0.035579
vn 0.506322 -2.835871 -0.004146
v -0.323087 0.006391 -0.035340
vn 0.505573 -2.837557 0.003704
v -0.324568 0.006127 -0.035340
vn 0.504674 -2.832509 -0.005350
v -0.323444 0.006327 -0.035189
vn 0.502371 -2.833225 0.012741
v -0.324211 0.006191 -0.035189
vn 0.503028 -2.836931 0.004932
v -0.323828 0.006259 -0.035138
vn -2.960766 -0.527790 0.804359
v -0.325258 0.006004 -0.036253
vn -2.941270 -0.524118 0.792448
v -0.365126 0.229724 -0.036253
vn 1.536517 0.273819 2.695439
v -0.323087 0.006391 -0.035340
vn 2.167388 0.386250 2.227714
v -0.362610 0.229946 -0.035579
vn 1.522746 0.271368 2.712700
v -0.362922 0.229919 -0.035340
vn 2.168137 0.386375 2.205304
v -0.322781 0.006446 -0.035579
vn 2.654422 0.473038 1.559999
v -0.322545 0.006488 -0.035890
vn 2.666463 0.475190 1.576683
v -0.362371 0.229967 -0.035890
vn 2.961183 0.527712 0.803827
v -0.322397 0.006514 -0.036253
vn 2.983840 0.531747 0.816063
v -0.362221 0.229980 -0.036253
vn 3.067258 0.546618 -0.000000
v -0.322347 0.006523 -0.036642
vn 6.184284 1.103314 0.000000
v -0.322694 0.008468 -0.036642
vn 3.086562 0.550049 -0.000000
v -0.362170 0.229985 -0.036642
vn 2.983840 0.531747 -0.816063
v -0.362221 0.229980 -0.037031
vn 2.961183 0.527712 -0.803827
v -0.322397 0.006514 -0.037031
vn 2.667887 0.475444 -1.574618
v -0.362371 0.229967 -0.037394
vn 2.655885 0.473299 -1.558068
v -0.322545 0.006488 -0.037394
vn 2.168882 0.386516 -2.225914
v -0.362610 0.229946 -0.037706
vn 2.169601 0.386635 -2.203372
v -0.322781 0.006446 -0.037706
vn 1.533156 0.273220 -2.696857
v -0.323087 0.006391 -0.037945
vn 1.519244 0.270744 -2.714262
v -0.362922 0.229919 -0.037945
vn 0.791051 0.140973 -3.007135
v -0.323444 0.006327 -0.038095
vn 0.773864 0.137909 -3.023716
v -0.363284 0.229886 -0.038095
vn -0.000280 -0.000050 -3.115442
v -0.323828 0.006259 -0.038146
vn -0.023135 -0.004123 -3.114767
v -0.363674 0.229852 -0.038146
vn -0.792486 -0.141227 -3.010533
v -0.324211 0.006191 -0.038095
vn -0.811091 -0.144543 -2.997077
v -0.364063 0.229818 -0.038095
vn -1.531707 -0.272963 -2.698065
v -0.324568 0.006127 -0.037945
vn -1.543214 -0.275011 -2.676282
v -0.364426 0.229786 -0.037945
vn -2.164846 -0.389448 -2.200934
v -0.324875 0.006072 -0.037706
vn -2.170827 -0.386798 -2.179191
v -0.364737 0.229758 -0.037706
vn -2.659601 -0.477933 1.557363
v -0.325110 0.006031 -0.035890
vn -5.484880 -0.979226 2.342380
v -0.325660 0.009118 -0.035877
vn -2.644569 -0.471192 1.536969
v -0.364976 0.229737 -0.035890
vn -2.163380 -0.389195 2.202862
v -0.324875 0.006072 -0.035579
vn -2.169402 -0.386544 2.181256
v -0.364737 0.229758 -0.035579
vn -1.546427 -0.275583 2.675015
v -0.364426 0.229786 -0.035340
vn -1.535065 -0.273561 2.696651
v -0.324568 0.006127 -0.035340
vn -0.814594 -0.145168 2.995516
v -0.364063 0.229818 -0.035189
vn -0.795847 -0.141826 3.009115
v -0.324211 0.006191 -0.035189
vn -0.023135 -0.004123 3.114767
v -0.363674 0.229852 -0.035138
vn -0.000280 -0.000050 3.115442
v -0.323828 0.006259 -0.035138
vn 0.777086 0.138483 3.022439
v -0.363284 0.229886 -0.035189
vn 0.794409 0.141571 3.005721
v -0.323444 0.006327 -0.035189
# 101 vertices, 0 vertices normals


usemtl material_0
f 1//1 2//2 3//3
f 2//2 1//1 4//4
f 4//4 1//1 5//5
f 4//4 5//5 6//6
f 7//7 8//8 9//9
f 8//8 7//7 10//10
f 8//8 10//10 11//11
f 11//11 10//10 12//12
f 11//11 12//12 13//13
f 13//13 12//12 14//14
f 13//13 14//14 15//15
f 15//15 14//14 16//16
f 15//15 16//16 17//17
f 17//17 16//16 18//18
f 17//17 18//18 19//19
f 19//19 18//18 20//20
f 19//19 20//20 21//21
f 21//21 20//20 22//22
f 21//21 22//22 23//23
f 23//23 22//22 24//24
f 23//23 24//24 25//25
f 25//25 24//24 26//26
f 25//25 26//26 27//27
f 27//27 26//26 28//28
f 27//27 28//28 29//29
f 29//29 28//28 30//30
f 4//4 31//31 2//2
f 31//31 4//4 32//32
f 32//32 4//4 33//33
f 34//34 35//35 36//36
f 35//35 34//34 37//37
f 35//35 37//37 38//38
f 38//38 37//37 39//39
f 38//38 39//39 40//40
f 40//40 39//39 41//41
f 40//40 41//41 42//42
f 42//42 41//41 43//43
f 42//42 43//43 44//44
f 44//44 43//43 45//45
f 44//44 45//45 46//46
f 46//46 45//45 47//47
f 46//46 47//47 48//48
f 48//48 47//47 49//49
f 48//48 49//49 50//50
f 50//50 49//49 51//51
f 50//50 51//51 52//52
f 52//52 51//51 53//53
f 52//52 53//53 54//54
f 54//54 53//53 55//55
f 54//54 55//55 56//56
f 56//56 55//55 57//57
f 58//58 1//1 3//3
f 1//1 58//58 59//59
f 1//1 59//59 5//5
f 5//5 59//59 6//6
f 60//60 61//61 62//62
f 61//61 60//60 63//63
f 64//64 61//61 63//63
f 61//61 64//64 65//65
f 66//66 65//65 64//64
f 65//65 66//66 67//67
f 68//68 67//67 66//66
f 67//67 68//68 69//69
f 67//67 69//69 70//70
f 71//71 68//68 72//72
f 68//68 71//71 69//69
f 69//69 71//71 70//70
f 73//73 72//72 74//74
f 72//72 73//73 71//71
f 75//75 74//74 76//76
f 74//74 75//75 73//73
f 75//75 77//77 78//78
f 77//77 75//75 76//76
f 78//78 79//79 80//80
f 79//79 78//78 77//77
f 80//80 81//81 82//82
f 81//81 80//80 79//79
f 82//82 83//83 84//84
f 83//83 82//82 81//81
f 84//84 85//85 86//86
f 85//85 84//84 83//83
f 86//86 87//87 88//88
f 87//87 86//86 85//85
f 32//32 87//87 31//31
f 87//87 32//32 88//88
f 88//88 32//32 33//33
f 89//89 59//59 58//58
f 59//59 89//89 90//90
f 59//59 90//90 91//91
f 92//92 90//90 89//89
f 90//90 92//92 93//93
f 90//90 93//93 91//91
f 92//92 94//94 93//93
f 94//94 92//92 95//95
f 95//95 96//96 94//94
f 96//96 95//95 97//97
f 97//97 98//98 96//96
f 98//98 97//97 99//99
f 99//99 100//100 98//98
f 100//100 99//99 101//101
f 101//101 62//62 100//100
f 62//62 101//101 60//60
# 102 faces, 0 coords texture

# End of File
