####
#
# OBJ File Generated by Meshlab
#
####
# Object original-184.obj
#
# Vertices: 96
# Faces: 96
#
####
mtllib ./original-184.obj.mtl

vn 2.202517 0.013319 -2.202684
v -0.341738 -0.591174 0.316748
vn 2.697211 0.009292 -1.556255
v -0.342216 -0.591170 0.316125
vn 2.202523 0.013189 -2.203519
v -0.341738 -0.594901 0.316725
vn 2.696942 0.009160 -1.556759
v -0.342216 -0.594898 0.316103
vn -2.697211 -0.009292 1.556255
v -0.342216 -0.591170 0.316125
vn -2.202523 -0.013189 2.203519
v -0.341738 -0.594901 0.316725
vn -2.696942 -0.009160 1.556759
v -0.342216 -0.594898 0.316103
vn -2.202517 -0.013319 2.202684
v -0.341738 -0.591174 0.316748
vn 3.008799 0.004744 -0.806224
v -0.342516 -0.591166 0.315399
vn 3.007911 0.004771 -0.805890
v -0.342516 -0.594894 0.315377
vn -3.007911 -0.004771 0.805890
v -0.342516 -0.594894 0.315377
vn -3.008799 -0.004744 0.806224
v -0.342516 -0.591166 0.315399
vn 1.558621 0.016106 -2.697516
v -0.341115 -0.594904 0.317203
vn 1.557663 0.016313 -2.697704
v -0.341115 -0.591177 0.317226
vn -1.557663 -0.016313 2.697704
v -0.341115 -0.591177 0.317226
vn -1.558621 -0.016106 2.697516
v -0.341115 -0.594904 0.317203
vn 3.114450 -0.000029 -0.000071
v -0.342619 -0.591162 0.314621
vn 3.115471 -0.000001 0.000117
v -0.342619 -0.594889 0.314598
vn -3.114450 0.000029 0.000071
v -0.342619 -0.591162 0.314621
vn -3.115471 0.000001 -0.000117
v -0.342619 -0.594889 0.314598
vn 0.807497 0.017692 -3.006772
v -0.340390 -0.594907 0.317504
vn 0.806889 0.017908 -3.008598
v -0.340390 -0.591179 0.317526
vn -0.806889 -0.017908 3.008598
v -0.340390 -0.591179 0.317526
vn -0.807497 -0.017692 3.006772
v -0.340390 -0.594907 0.317504
vn 3.008917 -0.004875 0.806122
v -0.342516 -0.591157 0.313842
vn 3.007862 -0.004765 0.806453
v -0.342516 -0.594884 0.313820
vn -3.008917 0.004875 -0.806122
v -0.342516 -0.591157 0.313842
vn -3.007862 0.004765 -0.806453
v -0.342516 -0.594884 0.313820
vn -0.000260 0.018333 -3.115609
v -0.339611 -0.594907 0.317607
vn -0.000259 0.018320 -3.113395
v -0.339611 -0.591179 0.317629
vn 0.000259 -0.018320 3.113395
v -0.339611 -0.591179 0.317629
vn 0.000260 -0.018333 3.115609
v -0.339611 -0.594907 0.317607
vn 2.698153 -0.009193 1.556871
v -0.342216 -0.591153 0.313117
vn 2.699301 -0.009130 1.557958
v -0.342216 -0.594880 0.313095
vn -2.698153 0.009193 -1.556871
v -0.342216 -0.591153 0.313117
vn -2.699301 0.009130 -1.557958
v -0.342216 -0.594880 0.313095
vn -0.806912 0.017899 -3.007087
v -0.338833 -0.594907 0.317504
vn -0.806305 0.017705 -3.008915
v -0.338833 -0.591179 0.317526
vn 0.806305 -0.017705 3.008915
v -0.338833 -0.591179 0.317526
vn 0.806912 -0.017899 3.007087
v -0.338833 -0.594907 0.317504
vn 2.202087 -0.012917 2.202370
v -0.341738 -0.591149 0.312494
vn 2.201283 -0.012953 2.201417
v -0.341738 -0.594877 0.312472
vn -2.202087 0.012917 -2.202370
v -0.341738 -0.591149 0.312494
vn -2.201283 0.012953 -2.201417
v -0.341738 -0.594877 0.312472
vn -1.558050 0.016313 -2.697751
v -0.338107 -0.594904 0.317203
vn -1.557093 0.016109 -2.697941
v -0.338107 -0.591177 0.317226
vn 1.557093 -0.016109 2.697941
v -0.338107 -0.591177 0.317226
vn 1.558050 -0.016313 2.697751
v -0.338107 -0.594904 0.317203
vn 1.557435 -0.016074 2.696876
v -0.341115 -0.591146 0.312016
vn 1.558347 -0.015866 2.696362
v -0.341115 -0.594874 0.311994
vn -1.558347 0.015866 -2.696362
v -0.341115 -0.594874 0.311994
vn -1.557435 0.016074 -2.696876
v -0.341115 -0.591146 0.312016
vn -2.202464 0.013325 -2.203595
v -0.337484 -0.594901 0.316725
vn -2.202458 0.013185 -2.202762
v -0.337484 -0.591174 0.316748
vn 2.202458 -0.013185 2.202762
v -0.337484 -0.591174 0.316748
vn 2.202464 -0.013325 2.203595
v -0.337484 -0.594901 0.316725
vn 0.806575 -0.017981 3.010011
v -0.340390 -0.591145 0.311715
vn 0.806354 -0.017988 3.008620
v -0.340390 -0.594872 0.311693
vn -0.806354 0.017988 -3.008620
v -0.340390 -0.594872 0.311693
vn -0.806575 0.017981 -3.010011
v -0.340390 -0.591145 0.311715
vn -2.697271 0.009157 -1.556178
v -0.337006 -0.591170 0.316125
vn -2.697001 0.009295 -1.556681
v -0.337006 -0.594898 0.316103
vn 2.697001 -0.009295 1.556681
v -0.337006 -0.594898 0.316103
vn 2.697271 -0.009157 1.556178
v -0.337006 -0.591170 0.316125
vn -0.000101 -0.018532 3.112187
v -0.339611 -0.591143 0.311613
vn -0.000100 -0.018551 3.115316
v -0.339611 -0.594871 0.311591
vn 0.000100 0.018551 -3.115316
v -0.339611 -0.594871 0.311591
vn 0.000101 0.018532 -3.112187
v -0.339611 -0.591143 0.311613
vn -3.008799 0.004744 -0.806224
v -0.336706 -0.591166 0.315399
vn -3.007911 0.004771 -0.805890
v -0.336706 -0.594894 0.315377
vn 3.007911 -0.004771 0.805890
v -0.336706 -0.594894 0.315377
vn 3.008799 -0.004744 0.806224
v -0.336706 -0.591166 0.315399
vn -0.806422 -0.017997 3.010193
v -0.338833 -0.591145 0.311715
vn -0.806198 -0.017974 3.008802
v -0.338833 -0.594872 0.311693
vn 0.806198 0.017974 -3.008802
v -0.338833 -0.594872 0.311693
vn 0.806422 0.017997 -3.010193
v -0.338833 -0.591145 0.311715
vn -3.114450 -0.000029 -0.000071
v -0.336603 -0.591162 0.314621
vn -3.115471 -0.000001 0.000117
v -0.336603 -0.594889 0.314598
vn 3.114450 0.000029 0.000071
v -0.336603 -0.591162 0.314621
vn 3.115471 0.000001 -0.000117
v -0.336603 -0.594889 0.314598
vn -1.556591 -0.015871 2.697227
v -0.338107 -0.591146 0.312016
vn -1.557503 -0.016073 2.696712
v -0.338107 -0.594874 0.311994
vn 1.557503 0.016073 -2.696712
v -0.338107 -0.594874 0.311994
vn 1.556591 0.015871 -2.697227
v -0.338107 -0.591146 0.312016
vn -3.008887 -0.004764 0.806197
v -0.336706 -0.591157 0.313842
vn -3.007831 -0.004877 0.806526
v -0.336706 -0.594884 0.313820
vn 3.007831 0.004877 -0.806526
v -0.336706 -0.594884 0.313820
vn 3.008887 0.004764 -0.806197
v -0.336706 -0.591157 0.313842
vn -2.202068 -0.012959 2.202394
v -0.337484 -0.591149 0.312494
vn -2.201264 -0.012912 2.201442
v -0.337484 -0.594877 0.312472
vn 2.201264 0.012912 -2.201442
v -0.337484 -0.594877 0.312472
vn 2.202068 0.012959 -2.202394
v -0.337484 -0.591149 0.312494
vn -2.698203 -0.009123 1.556773
v -0.337006 -0.591153 0.313117
vn -2.699351 -0.009199 1.557859
v -0.337006 -0.594880 0.313095
vn 2.699351 0.009199 -1.557859
v -0.337006 -0.594880 0.313095
vn 2.698203 0.009123 -1.556773
v -0.337006 -0.591153 0.313117
# 96 vertices, 0 vertices normals


usemtl material_0
vt -0.016678 -0.000000
vt -0.016156 0.002479
vt -0.016678 0.002479
f 3/1/3 2/2/2 1/3/1
vt -0.016156 -0.000000
f 2/2/2 3/1/3 4/4/4
f 7/4/7 6/1/6 5/2/5
f 8/3/8 5/2/5 6/1/6
vt -0.006330 0.002479
vt -0.005807 -0.000000
vt -0.005807 0.002479
f 2/5/2 10/6/10 9/7/9
vt -0.006330 -0.000000
f 10/6/10 2/5/2 4/8/4
f 7/8/7 5/5/5 11/6/11
f 12/7/12 11/6/11 5/5/5
vt -0.025385 -0.000000
vt -0.025908 0.002479
vt -0.025908 -0.000000
f 3/9/3 14/10/14 13/11/13
vt -0.025385 0.002479
f 14/10/14 3/9/3 1/12/1
f 8/12/8 6/9/6 15/10/15
f 16/11/16 15/10/15 6/9/6
vt 0.004432 0.000000
vt 0.004954 0.002479
vt 0.004432 0.002479
f 10/13/10 17/14/17 9/15/9
vt 0.004954 -0.000000
f 17/14/17 10/13/10 18/16/18
f 20/16/20 11/13/11 19/14/19
f 12/15/12 19/14/19 11/13/11
vt -0.032867 -0.000000
vt -0.033389 0.002479
vt -0.033389 -0.000000
f 13/17/13 22/18/22 21/19/21
vt -0.032867 0.002479
f 22/18/22 13/17/13 14/20/14
f 15/20/15 16/17/16 23/18/23
f 24/19/24 23/18/23 16/17/16
vt 0.014874 0.000000
vt 0.015397 0.002479
vt 0.014874 0.002479
f 18/21/18 25/22/25 17/23/17
vt 0.015397 0.000000
f 25/22/25 18/21/18 26/24/26
f 28/24/28 20/21/20 27/22/27
f 19/23/19 27/22/27 20/21/20
vt -0.038091 -0.000000
vt -0.038614 0.002479
vt -0.038614 -0.000000
f 21/25/21 30/26/30 29/27/29
vt -0.038091 0.002479
f 30/26/30 21/25/21 22/28/22
f 23/28/23 24/25/24 31/26/31
f 32/27/32 31/26/31 24/25/24
vt 0.024285 0.000000
vt 0.024807 0.002479
vt 0.024285 0.002479
f 26/29/26 33/30/33 25/31/25
vt 0.024807 0.000000
f 33/30/33 26/29/26 34/32/34
f 36/32/36 28/29/28 35/30/35
f 27/31/27 35/30/35 28/29/28
vt -0.040702 -0.000000
vt -0.041224 0.002479
vt -0.041224 0.000000
f 29/33/29 38/34/38 37/35/37
vt -0.040702 0.002479
f 38/34/38 29/33/29 30/36/30
f 31/36/31 32/33/32 39/34/39
f 40/35/40 39/34/39 32/33/32
vt 0.032023 0.000000
vt 0.032545 0.002479
vt 0.032023 0.002479
f 34/37/34 41/38/41 33/39/33
vt 0.032545 0.000000
f 41/38/41 34/37/34 42/40/42
f 44/40/44 36/37/36 43/38/43
f 35/39/35 43/38/43 36/37/36
vt -0.040521 0.000000
vt -0.041043 0.002479
vt -0.041043 0.000000
f 37/41/37 46/42/46 45/43/45
vt -0.040521 0.002479
f 46/42/46 37/41/37 38/44/38
f 39/44/39 40/41/40 47/42/47
f 48/43/48 47/42/47 40/41/40
vt 0.037561 0.002479
vt 0.038083 0.000000
vt 0.038083 0.002479
f 41/45/41 50/46/50 49/47/49
vt 0.037561 0.000000
f 50/46/50 41/45/41 42/48/42
f 44/48/44 43/45/43 51/46/51
f 52/47/52 51/46/51 43/45/43
vt -0.037561 0.000000
vt -0.038083 0.002479
vt -0.038083 0.000000
f 45/49/45 54/50/54 53/51/53
vt -0.037561 0.002479
f 54/50/54 45/49/45 46/52/46
f 47/52/47 48/49/48 55/50/55
f 56/51/56 55/50/55 48/49/48
vt 0.040521 0.002479
vt 0.041043 0.000000
vt 0.041043 0.002479
f 49/53/49 58/54/58 57/55/57
vt 0.040521 0.000000
f 58/54/58 49/53/49 50/56/50
f 51/56/51 52/53/52 59/54/59
f 60/55/60 59/54/59 52/53/52
vt -0.032545 0.000000
vt -0.032023 0.002479
vt -0.032545 0.002479
f 62/57/62 54/58/54 61/59/61
vt -0.032023 0.000000
f 54/58/54 62/57/62 53/60/53
f 56/60/56 63/57/63 55/58/55
f 64/59/64 55/58/55 63/57/63
vt 0.040702 0.002479
vt 0.041224 0.000000
vt 0.041224 0.002479
f 57/61/57 66/62/66 65/63/65
vt 0.040702 0.000000
f 66/62/66 57/61/57 58/64/58
f 59/64/59 60/61/60 67/62/67
f 68/63/68 67/62/67 60/61/60
vt -0.024807 0.000000
vt -0.024285 0.002479
vt -0.024807 0.002479
f 70/65/70 61/66/61 69/67/69
vt -0.024285 0.000000
f 61/66/61 70/65/70 62/68/62
f 63/68/63 71/65/71 64/66/64
f 72/67/72 64/66/64 71/65/71
vt 0.038091 0.002479
vt 0.038614 -0.000000
vt 0.038614 0.002479
f 65/69/65 74/70/74 73/71/73
vt 0.038091 -0.000000
f 74/70/74 65/69/65 66/72/66
f 67/72/67 68/69/68 75/70/75
f 76/71/76 75/70/75 68/69/68
vt -0.015397 0.002479
vt -0.014874 0.000000
vt -0.014874 0.002479
f 77/73/77 70/74/70 69/75/69
vt -0.015397 0.000000
f 70/74/70 77/73/77 78/76/78
f 80/76/80 79/73/79 71/74/71
f 72/75/72 71/74/71 79/73/79
vt 0.032867 0.002479
vt 0.033389 -0.000000
vt 0.033389 0.002479
f 73/77/73 82/78/82 81/79/81
vt 0.032867 -0.000000
f 82/78/82 73/77/73 74/80/74
f 75/80/75 76/77/76 83/78/83
f 84/79/84 83/78/83 76/77/76
vt -0.004954 -0.000000
vt -0.004432 0.002479
vt -0.004954 0.002479
f 86/81/86 77/82/77 85/83/85
vt -0.004432 -0.000000
f 77/82/77 86/81/86 78/84/78
f 80/84/80 87/81/87 79/82/79
f 88/83/88 79/82/79 87/81/87
vt 0.025385 0.002479
vt 0.025908 -0.000000
vt 0.025908 0.002479
f 81/85/81 90/86/90 89/87/89
vt 0.025385 -0.000000
f 90/86/90 81/85/81 82/88/82
f 83/88/83 84/85/84 91/86/91
f 92/87/92 91/86/91 84/85/84
vt 0.005807 -0.000000
vt 0.006330 0.002479
vt 0.005807 0.002479
f 94/89/94 85/90/85 93/91/93
vt 0.006330 -0.000000
f 85/90/85 94/89/94 86/92/86
f 87/92/87 95/89/95 88/90/88
f 96/91/96 88/90/88 95/89/95
vt 0.016156 -0.000000
vt 0.016678 0.002479
vt 0.016156 0.002479
f 90/93/90 93/94/93 89/95/89
vt 0.016678 -0.000000
f 93/94/93 90/93/90 94/96/94
f 95/96/95 91/93/91 96/94/96
f 92/95/92 96/94/96 91/93/91
# 96 faces, 96 coords texture

# End of File
