####
#
# OBJ File Generated by Meshlab
#
####
# Object original-97.obj
#
# Vertices: 96
# Faces: 92
#
####
mtllib ./original-97.obj.mtl

vn 2.880711 0.000000 0.000000
v 0.391285 0.226947 -0.338201
vn 2.881365 0.000000 0.000000
v 0.391285 0.226947 -0.336644
vn 2.878509 0.000000 0.000000
v 0.391285 0.226844 -0.337422
vn 2.879480 0.000000 0.000000
v 0.391285 0.227247 -0.338926
vn 2.878217 0.000000 0.000000
v 0.391285 0.227247 -0.335918
vn 2.879703 0.000000 0.000000
v 0.391285 0.227725 -0.339549
vn 2.880479 0.000000 0.000000
v 0.391285 0.227725 -0.335296
vn 2.880169 0.000000 0.000000
v 0.391285 0.228348 -0.340027
vn 2.880169 0.000000 0.000000
v 0.391285 0.228348 -0.334818
vn 2.878925 0.000000 0.000000
v 0.391285 0.229074 -0.334517
vn 2.878925 0.000000 0.000000
v 0.391285 0.229074 -0.340328
vn 2.881034 0.000000 0.000000
v 0.391285 0.229852 -0.340430
vn 2.881034 0.000000 0.000000
v 0.391285 0.229852 -0.334415
vn 2.878272 0.000000 0.000000
v 0.391285 0.230631 -0.340328
vn 2.878272 0.000000 0.000000
v 0.391285 0.230631 -0.334517
vn 2.880657 0.000000 0.000000
v 0.391285 0.231356 -0.340027
vn 2.880657 0.000000 0.000000
v 0.391285 0.231356 -0.334818
vn 2.880479 0.000000 0.000000
v 0.391285 0.231979 -0.335296
vn 2.879703 0.000000 0.000000
v 0.391285 0.231979 -0.339549
vn 2.879480 0.000000 0.000000
v 0.391285 0.232457 -0.338926
vn 2.878217 0.000000 0.000000
v 0.391285 0.232457 -0.335918
vn 2.880711 0.000000 0.000000
v 0.391285 0.232757 -0.338201
vn 2.881365 0.000000 0.000000
v 0.391285 0.232757 -0.336644
vn 2.878509 0.000000 0.000000
v 0.391285 0.232860 -0.337422
vn 0.000000 -0.000258 -3.114970
v 0.391285 0.229852 -0.340430
vn 0.000000 -0.805789 -3.008496
v 0.349176 0.229074 -0.340328
vn 0.000000 -0.000258 -3.114970
v 0.349176 0.229852 -0.340430
vn 0.000000 -0.805789 -3.008496
v 0.391285 0.229074 -0.340328
vn 0.000000 0.806240 -3.008236
v 0.391285 0.230631 -0.340328
vn 0.000000 0.806240 -3.008236
v 0.349176 0.230631 -0.340328
vn 0.000000 1.558489 -2.696974
v 0.391285 0.231356 -0.340027
vn 0.000000 1.558489 -2.696974
v 0.349176 0.231356 -0.340027
vn 0.000000 2.202424 -2.202424
v 0.391285 0.231979 -0.339549
vn 0.000000 2.202424 -2.202424
v 0.349176 0.231979 -0.339549
vn 0.000000 2.697682 -1.556781
v 0.349176 0.232457 -0.338926
vn 0.000000 2.697682 -1.556781
v 0.391285 0.232457 -0.338926
vn 0.000000 3.008685 -0.806497
v 0.349176 0.232757 -0.338201
vn 0.000000 3.008685 -0.806497
v 0.391285 0.232757 -0.338201
vn 0.000000 3.114452 0.000260
v 0.349176 0.232860 -0.337422
vn 0.000000 3.114452 0.000260
v 0.391285 0.232860 -0.337422
vn 0.000000 3.008943 0.806050
v 0.349176 0.232757 -0.336644
vn 0.000000 3.008943 0.806050
v 0.391285 0.232757 -0.336644
vn 0.000000 2.697232 1.557041
v 0.349176 0.232457 -0.335918
vn 0.000000 2.697232 1.557041
v 0.391285 0.232457 -0.335918
vn 0.000000 2.201681 2.203390
v 0.349176 0.231979 -0.335296
vn 0.000000 2.201681 2.203390
v 0.391285 0.231979 -0.335296
vn 0.000000 1.558489 2.696974
v 0.391285 0.231356 -0.334818
vn 0.000000 1.558489 2.696974
v 0.349176 0.231356 -0.334818
vn 0.000000 0.806240 3.008236
v 0.391285 0.230631 -0.334517
vn 0.000000 0.806240 3.008236
v 0.349176 0.230631 -0.334517
vn 0.000000 -0.000258 3.114970
v 0.391285 0.229852 -0.334415
vn 0.000000 -0.000258 3.114970
v 0.349176 0.229852 -0.334415
vn 0.000000 -0.805789 3.008496
v 0.391285 0.229074 -0.334517
vn 0.000000 -0.805789 3.008496
v 0.349176 0.229074 -0.334517
vn 0.000000 -1.557781 2.697268
v 0.391285 0.228348 -0.334818
vn 0.000000 -1.557781 2.697268
v 0.349176 0.228348 -0.334818
vn 0.000000 -2.201681 2.203390
v 0.391285 0.227725 -0.335296
vn 0.000000 -2.201681 2.203390
v 0.349176 0.227725 -0.335296
vn 0.000000 -2.697232 1.557041
v 0.349176 0.227247 -0.335918
vn 0.000000 -2.697232 1.557041
v 0.391285 0.227247 -0.335918
vn 0.000000 -3.008943 0.806050
v 0.349176 0.226947 -0.336644
vn 0.000000 -3.008943 0.806050
v 0.391285 0.226947 -0.336644
vn 0.000000 -3.114452 0.000260
v 0.349176 0.226844 -0.337422
vn 0.000000 -3.114452 0.000260
v 0.391285 0.226844 -0.337422
vn 0.000000 -3.008685 -0.806497
v 0.349176 0.226947 -0.338201
vn 0.000000 -3.008685 -0.806497
v 0.391285 0.226947 -0.338201
vn 0.000000 -2.697682 -1.556781
v 0.349176 0.227247 -0.338926
vn 0.000000 -2.697682 -1.556781
v 0.391285 0.227247 -0.338926
vn 0.000000 -2.202424 -2.202424
v 0.349176 0.227725 -0.339549
vn 0.000000 -2.202424 -2.202424
v 0.391285 0.227725 -0.339549
vn 0.000000 -1.557781 -2.697268
v 0.391285 0.228348 -0.340027
vn 0.000000 -1.557781 -2.697268
v 0.349176 0.228348 -0.340027
vn -2.881365 0.000000 0.000000
v 0.349176 0.226947 -0.336644
vn -2.880711 0.000000 0.000000
v 0.349176 0.226947 -0.338201
vn -2.878509 0.000000 0.000000
v 0.349176 0.226844 -0.337422
vn -2.878217 0.000000 0.000000
v 0.349176 0.227247 -0.335918
vn -2.879480 0.000000 0.000000
v 0.349176 0.227247 -0.338926
vn -2.880479 0.000000 0.000000
v 0.349176 0.227725 -0.335296
vn -2.879703 0.000000 0.000000
v 0.349176 0.227725 -0.339549
vn -2.880169 0.000000 0.000000
v 0.349176 0.228348 -0.334818
vn -2.880169 0.000000 0.000000
v 0.349176 0.228348 -0.340027
vn -2.878925 0.000000 0.000000
v 0.349176 0.229074 -0.334517
vn -2.878925 0.000000 0.000000
v 0.349176 0.229074 -0.340328
vn -2.881034 0.000000 0.000000
v 0.349176 0.229852 -0.334415
vn -2.881034 0.000000 0.000000
v 0.349176 0.229852 -0.340430
vn -2.878272 0.000000 0.000000
v 0.349176 0.230631 -0.334517
vn -2.878272 0.000000 0.000000
v 0.349176 0.230631 -0.340328
vn -2.880657 0.000000 0.000000
v 0.349176 0.231356 -0.334818
vn -2.880657 0.000000 0.000000
v 0.349176 0.231356 -0.340027
vn -2.880479 0.000000 0.000000
v 0.349176 0.231979 -0.335296
vn -2.879703 0.000000 0.000000
v 0.349176 0.231979 -0.339549
vn -2.878217 0.000000 0.000000
v 0.349176 0.232457 -0.335918
vn -2.879480 0.000000 0.000000
v 0.349176 0.232457 -0.338926
vn -2.881365 0.000000 0.000000
v 0.349176 0.232757 -0.336644
vn -2.880711 0.000000 0.000000
v 0.349176 0.232757 -0.338201
vn -2.878509 0.000000 0.000000
v 0.349176 0.232860 -0.337422
# 96 vertices, 0 vertices normals


usemtl material_0
f 1//1 2//2 3//3
f 2//2 1//1 4//4
f 2//2 4//4 5//5
f 5//5 4//4 6//6
f 5//5 6//6 7//7
f 7//7 6//6 8//8
f 7//7 8//8 9//9
f 9//9 8//8 10//10
f 10//10 8//8 11//11
f 10//10 11//11 12//12
f 10//10 12//12 13//13
f 13//13 12//12 14//14
f 13//13 14//14 15//15
f 15//15 14//14 16//16
f 15//15 16//16 17//17
f 17//17 16//16 18//18
f 18//18 16//16 19//19
f 18//18 19//19 20//20
f 18//18 20//20 21//21
f 21//21 20//20 22//22
f 21//21 22//22 23//23
f 23//23 22//22 24//24
f 25//25 26//26 27//27
f 26//26 25//25 28//28
f 29//29 27//27 30//30
f 27//27 29//29 25//25
f 31//31 30//30 32//32
f 30//30 31//31 29//29
f 33//33 32//32 34//34
f 32//32 33//33 31//31
f 35//35 33//33 34//34
f 33//33 35//35 36//36
f 37//37 36//36 35//35
f 36//36 37//37 38//38
f 39//39 38//38 37//37
f 38//38 39//39 40//40
f 41//41 40//40 39//39
f 40//40 41//41 42//42
f 43//43 42//42 41//41
f 42//42 43//43 44//44
f 45//45 44//44 43//43
f 44//44 45//45 46//46
f 47//47 45//45 48//48
f 45//45 47//47 46//46
f 49//49 48//48 50//50
f 48//48 49//49 47//47
f 51//51 50//50 52//52
f 50//50 51//51 49//49
f 53//53 52//52 54//54
f 52//52 53//53 51//51
f 55//55 54//54 56//56
f 54//54 55//55 53//53
f 57//57 56//56 58//58
f 56//56 57//57 55//55
f 57//57 59//59 60//60
f 59//59 57//57 58//58
f 60//60 61//61 62//62
f 61//61 60//60 59//59
f 62//62 63//63 64//64
f 63//63 62//62 61//61
f 64//64 65//65 66//66
f 65//65 64//64 63//63
f 66//66 67//67 68//68
f 67//67 66//66 65//65
f 68//68 69//69 70//70
f 69//69 68//68 67//67
f 71//71 69//69 72//72
f 69//69 71//71 70//70
f 28//28 72//72 26//26
f 72//72 28//28 71//71
f 73//73 74//74 75//75
f 74//74 73//73 76//76
f 74//74 76//76 77//77
f 77//77 76//76 78//78
f 77//77 78//78 79//79
f 79//79 78//78 80//80
f 79//79 80//80 81//81
f 81//81 80//80 82//82
f 81//81 82//82 83//83
f 83//83 82//82 84//84
f 83//83 84//84 85//85
f 85//85 84//84 86//86
f 85//85 86//86 87//87
f 87//87 86//86 88//88
f 87//87 88//88 89//89
f 89//89 88//88 90//90
f 89//89 90//90 91//91
f 91//91 90//90 92//92
f 91//91 92//92 93//93
f 93//93 92//92 94//94
f 93//93 94//94 95//95
f 95//95 94//94 96//96
# 92 faces, 0 coords texture

# End of File
