####
#
# OBJ File Generated by Meshlab
#
####
# Object original-164.obj
#
# Vertices: 77
# Faces: 80
#
####
mtllib ./original-164.obj.mtl

vn 5.481041 -0.978554 2.347242
v -0.004657 0.009118 -0.261462
vn 2.162756 -0.389093 2.203252
v -0.005443 0.006072 -0.261164
vn 2.658076 -0.477673 1.560112
v -0.005207 0.006031 -0.261475
vn 2.169400 -0.386547 2.181257
v 0.034420 0.229758 -0.261164
vn 2.644569 -0.471192 1.536969
v 0.034659 0.229737 -0.261475
vn 0.250415 2.868726 -0.025469
v 0.032967 0.229886 -0.263680
vn 0.253484 2.869802 -0.002848
v 0.033746 0.229818 -0.263680
vn 0.250636 2.871255 0.002457
v 0.033357 0.229852 -0.263731
vn 0.253491 2.869898 0.003611
v 0.032605 0.229919 -0.263530
vn 0.253483 2.867613 0.005087
v 0.034109 0.229786 -0.263530
vn 0.253432 2.867032 0.002447
v 0.032293 0.229946 -0.263291
vn 0.253335 2.868447 0.000764
v 0.034420 0.229758 -0.263291
vn 0.253301 2.868067 0.001583
v 0.032054 0.229967 -0.262979
vn 0.252923 2.868101 -0.001310
v 0.034659 0.229737 -0.262979
vn 0.252937 2.868258 -0.001582
v 0.031904 0.229980 -0.262616
vn 0.253286 2.868228 0.001091
v 0.034809 0.229724 -0.262616
vn 0.253308 2.868480 0.000269
v 0.031853 0.229985 -0.262227
vn 0.253308 2.868480 0.000269
v 0.034860 0.229719 -0.262227
vn 0.253286 2.868228 0.001091
v 0.031904 0.229980 -0.261838
vn 0.252937 2.868258 -0.001582
v 0.034809 0.229724 -0.261838
vn 0.252787 2.866555 -0.001310
v 0.032054 0.229967 -0.261475
vn 0.253165 2.866522 0.001584
v 0.034659 0.229737 -0.261475
vn 0.253348 2.868598 -0.002199
v 0.032293 0.229946 -0.261164
vn 0.253692 2.869974 -0.000510
v 0.034420 0.229758 -0.261164
vn 0.253684 2.869881 -0.003375
v 0.032605 0.229919 -0.260925
vn 0.253291 2.867630 -0.004853
v 0.034109 0.229786 -0.260925
vn 0.253591 2.871036 0.016810
v 0.032967 0.229886 -0.260775
vn 0.250750 2.872563 -0.005834
v 0.033746 0.229818 -0.260775
vn 0.250199 2.866246 -0.002406
v 0.033357 0.229852 -0.260723
vn 1.543215 -0.275015 2.676280
v 0.034109 0.229786 -0.260925
vn 1.533851 -0.273345 2.696960
v -0.005749 0.006127 -0.260925
vn 2.941270 -0.524118 0.792448
v 0.034809 0.229724 -0.261838
vn 2.960766 -0.527790 0.804359
v -0.005059 0.006004 -0.261838
vn -2.655885 0.473299 -1.558068
v -0.007772 0.006488 -0.262979
vn -2.168882 0.386516 -2.225914
v 0.032293 0.229946 -0.263291
vn -2.169601 0.386635 -2.203372
v -0.007536 0.006446 -0.263291
vn -2.667887 0.475444 -1.574618
v 0.032054 0.229967 -0.262979
vn -2.961183 0.527712 -0.803827
v -0.007920 0.006514 -0.262616
vn -2.983840 0.531747 -0.816063
v 0.031904 0.229980 -0.262616
vn -3.067258 0.546618 -0.000000
v -0.007970 0.006523 -0.262227
vn -6.184284 1.103314 0.000000
v -0.007623 0.008468 -0.262227
vn -3.086562 0.550049 0.000000
v 0.031853 0.229985 -0.262227
vn -2.983840 0.531747 0.816063
v 0.031904 0.229980 -0.261838
vn -2.961183 0.527712 0.803827
v -0.007920 0.006514 -0.261838
vn -2.666463 0.475190 1.576683
v 0.032054 0.229967 -0.261475
vn -2.654422 0.473038 1.559999
v -0.007772 0.006488 -0.261475
vn -2.167388 0.386250 2.227714
v 0.032293 0.229946 -0.261164
vn -2.168137 0.386375 2.205304
v -0.007536 0.006446 -0.261164
vn -1.533156 0.273220 2.696857
v -0.007230 0.006391 -0.260925
vn -1.519244 0.270744 2.714262
v 0.032605 0.229919 -0.260925
vn -0.794912 0.141661 3.006618
v -0.006873 0.006327 -0.260775
vn -0.777943 0.138636 3.023139
v 0.032967 0.229886 -0.260775
vn 0.000285 -0.000051 3.114402
v -0.006489 0.006259 -0.260723
vn 0.023573 -0.004201 3.113727
v 0.033357 0.229852 -0.260723
vn 0.796361 -0.141917 3.010011
v -0.006106 0.006191 -0.260775
vn 0.814750 -0.145195 2.996615
v 0.033746 0.229818 -0.260775
vn 6.133040 -1.092974 0.000000
v -0.004568 0.008468 -0.262227
vn 3.066348 -0.546809 0.000000
v -0.005009 0.005995 -0.262227
vn 6.138846 -1.093890 0.000000
v -0.004434 0.009220 -0.262227
vn 3.046508 -0.542903 0.000000
v 0.034860 0.229719 -0.262227
vn 2.960766 -0.527790 -0.804359
v -0.005059 0.006004 -0.262616
vn 2.941270 -0.524118 -0.792448
v 0.034809 0.229724 -0.262616
vn 2.659532 -0.477924 -1.558176
v -0.005207 0.006031 -0.262979
vn 5.484205 -0.979118 -2.343234
v -0.004657 0.009118 -0.262992
vn 2.646063 -0.471458 -1.535170
v 0.034659 0.229737 -0.262979
vn 2.164228 -0.389347 -2.201325
v -0.005443 0.006072 -0.263291
vn 2.170824 -0.386801 -2.179192
v 0.034420 0.229758 -0.263291
vn 1.543215 -0.275015 -2.676280
v 0.034109 0.229786 -0.263530
vn 1.533851 -0.273345 -2.696960
v -0.005749 0.006127 -0.263530
vn 0.811091 -0.144543 -2.997077
v 0.033746 0.229818 -0.263680
vn 0.792486 -0.141227 -3.010533
v -0.006106 0.006191 -0.263680
vn 0.023135 -0.004123 -3.114767
v 0.033357 0.229852 -0.263731
vn 0.000280 -0.000050 -3.115442
v -0.006489 0.006259 -0.263731
vn -0.773864 0.137909 -3.023716
v 0.032967 0.229886 -0.263680
vn -0.791051 0.140973 -3.007135
v -0.006873 0.006327 -0.263680
vn -1.519244 0.270744 -2.714262
v 0.032605 0.229919 -0.263530
vn -1.533156 0.273220 -2.696857
v -0.007230 0.006391 -0.263530
# 77 vertices, 0 vertices normals


usemtl material_0
f 1//1 2//2 3//3
f 2//2 1//1 4//4
f 4//4 1//1 5//5
f 6//6 7//7 8//8
f 7//7 6//6 9//9
f 7//7 9//9 10//10
f 10//10 9//9 11//11
f 10//10 11//11 12//12
f 12//12 11//11 13//13
f 12//12 13//13 14//14
f 14//14 13//13 15//15
f 14//14 15//15 16//16
f 16//16 15//15 17//17
f 16//16 17//17 18//18
f 18//18 17//17 19//19
f 18//18 19//19 20//20
f 20//20 19//19 21//21
f 20//20 21//21 22//22
f 22//22 21//21 23//23
f 22//22 23//23 24//24
f 24//24 23//23 25//25
f 24//24 25//25 26//26
f 26//26 25//25 27//27
f 26//26 27//27 28//28
f 28//28 27//27 29//29
f 2//2 30//30 31//31
f 30//30 2//2 4//4
f 32//32 3//3 33//33
f 3//3 32//32 1//1
f 1//1 32//32 5//5
f 34//34 35//35 36//36
f 35//35 34//34 37//37
f 38//38 37//37 34//34
f 37//37 38//38 39//39
f 40//40 39//39 38//38
f 39//39 40//40 41//41
f 39//39 41//41 42//42
f 43//43 40//40 44//44
f 40//40 43//43 41//41
f 41//41 43//43 42//42
f 45//45 44//44 46//46
f 44//44 45//45 43//43
f 47//47 46//46 48//48
f 46//46 47//47 45//45
f 49//49 47//47 48//48
f 47//47 49//49 50//50
f 51//51 50//50 49//49
f 50//50 51//51 52//52
f 53//53 52//52 51//51
f 52//52 53//53 54//54
f 55//55 54//54 53//53
f 54//54 55//55 56//56
f 31//31 56//56 55//55
f 56//56 31//31 30//30
f 57//57 33//33 58//58
f 33//33 57//57 32//32
f 32//32 57//57 59//59
f 32//32 59//59 60//60
f 61//61 57//57 58//58
f 57//57 61//61 62//62
f 57//57 62//62 59//59
f 59//59 62//62 60//60
f 63//63 62//62 61//61
f 62//62 63//63 64//64
f 62//62 64//64 65//65
f 66//66 64//64 63//63
f 64//64 66//66 67//67
f 64//64 67//67 65//65
f 68//68 66//66 69//69
f 66//66 68//68 67//67
f 70//70 69//69 71//71
f 69//69 70//70 68//68
f 72//72 71//71 73//73
f 71//71 72//72 70//70
f 74//74 73//73 75//75
f 73//73 74//74 72//72
f 76//76 75//75 77//77
f 75//75 76//76 74//74
f 35//35 77//77 36//36
f 77//77 35//35 76//76
# 80 faces, 0 coords texture

# End of File
