####
#
# OBJ File Generated by Meshlab
#
####
# Object original-122.obj
#
# Vertices: 432
# Faces: 764
#
####
mtllib ./original-122.obj.mtl

vn -5.115697 -2.953679 1.580254
v -0.340290 -0.005184 0.114527
vn -5.890259 -1.722768 -0.000509
v -0.344770 0.005363 0.113748
vn -5.289454 -3.053704 -0.000509
v -0.340380 -0.005236 0.113748
vn -5.694861 -1.665608 1.584601
v -0.344671 0.005392 0.114527
vn -6.136431 -0.542502 -0.000508
v -0.384728 0.229586 0.113748
vn -5.930231 -0.524356 1.589576
v -0.384626 0.229595 0.114527
vn -5.116255 -2.954001 -1.579462
v -0.340290 -0.005184 0.112970
vn -5.695459 -1.665783 -1.583789
v -0.344671 0.005392 0.112970
vn -4.176629 -4.176461 1.578927
v -0.333281 -0.014319 0.114527
vn -4.319454 -4.319696 -0.000514
v -0.333354 -0.014392 0.113748
vn -4.602653 -2.656966 3.056589
v -0.340028 -0.005032 0.115252
vn -5.119957 -1.497322 3.067659
v -0.344381 0.005477 0.115252
vn -3.114970 0.000000 -0.000258
v -0.384728 0.276473 0.113748
vn -3.008236 0.000000 0.806240
v -0.384626 0.276473 0.114527
vn -5.930836 -0.524410 -1.588744
v -0.384626 0.229595 0.112970
vn -5.329586 -0.471047 3.077579
v -0.384325 0.229622 0.115252
vn -4.601758 -2.656449 -3.056821
v -0.340028 -0.005032 0.112244
vn -5.118985 -1.497038 -3.067941
v -0.344381 0.005477 0.112244
vn -4.177106 -4.176913 -1.578104
v -0.333281 -0.014319 0.112970
vn -3.053850 -5.290374 -0.000510
v -0.324197 -0.021418 0.113748
vn -2.954011 -5.115612 1.578347
v -0.324146 -0.021328 0.114527
vn -3.758555 -3.759142 3.056028
v -0.333066 -0.014105 0.115252
vn -3.782122 -2.183486 4.337799
v -0.339610 -0.004791 0.115875
vn -4.202976 -1.229261 4.349664
v -0.343919 0.005612 0.115875
vn 0.000000 2.878272 0.000000
v -0.382499 0.276473 0.110843
vn 0.000000 2.878437 0.000000
v -0.380942 0.276473 0.110843
vn 0.000000 2.881034 0.000000
v -0.381720 0.276473 0.110741
vn 0.000000 2.880657 0.000000
v -0.383224 0.276473 0.111144
vn 0.000000 2.880657 0.000000
v -0.380217 0.276473 0.111144
vn 0.000000 2.880479 0.000000
v -0.383847 0.276473 0.111622
vn 0.000000 2.880479 0.000000
v -0.379594 0.276473 0.111622
vn 0.000000 2.879393 0.000000
v -0.384325 0.276473 0.112244
vn 0.000000 2.879393 0.000000
v -0.379116 0.276473 0.112244
vn 0.000000 2.878925 0.000000
v -0.384626 0.276473 0.112970
vn 0.000000 2.878925 0.000000
v -0.378815 0.276473 0.112970
vn 0.000000 2.881034 0.000000
v -0.384728 0.276473 0.113748
vn 0.000000 2.881034 0.000000
v -0.378713 0.276473 0.113748
vn 0.000000 2.878272 0.000000
v -0.384626 0.276473 0.114527
vn 0.000000 2.878272 0.000000
v -0.378815 0.276473 0.114527
vn 0.000000 2.880657 0.000000
v -0.384325 0.276473 0.115252
vn 0.000000 2.880657 0.000000
v -0.379116 0.276473 0.115252
vn 0.000000 2.879703 0.000000
v -0.383847 0.276473 0.115875
vn 0.000000 2.879703 0.000000
v -0.379594 0.276473 0.115875
vn 0.000000 2.880657 0.000000
v -0.383224 0.276473 0.116353
vn 0.000000 2.880657 0.000000
v -0.380217 0.276473 0.116353
vn 0.000000 2.878272 0.000000
v -0.382499 0.276473 0.116654
vn 0.000000 2.878437 0.000000
v -0.380942 0.276473 0.116654
vn 0.000000 2.881034 0.000000
v -0.381720 0.276473 0.116756
vn -3.008496 0.000000 -0.805789
v -0.384626 0.276473 0.112970
vn -2.696974 0.000000 1.558489
v -0.384325 0.276473 0.115252
vn -5.328600 -0.470960 -3.077904
v -0.384325 0.229622 0.112244
vn -4.370795 -0.386453 4.359117
v -0.383847 0.229664 0.115875
vn -3.780891 -2.182776 -4.339929
v -0.339610 -0.004791 0.111622
vn -4.201599 -1.228858 -4.351760
v -0.343919 0.005612 0.111622
vn -3.757764 -3.758411 -3.056322
v -0.333066 -0.014105 0.112244
vn -2.954413 -5.116172 -1.577482
v -0.324146 -0.021328 0.112970
vn -1.528872 -5.704977 1.580594
v -0.313508 -0.025735 0.114527
vn -1.581119 -5.900008 -0.000556
v -0.313535 -0.025835 0.113748
vn -2.656925 -4.602696 3.056558
v -0.323994 -0.021066 0.115252
vn -3.087753 -3.087606 4.336679
v -0.332726 -0.013764 0.115875
vn -3.001483 -0.877801 5.345064
v -0.343318 0.005788 0.116353
vn -2.704928 -1.561663 5.335595
v -0.339066 -0.004477 0.116353
vn 6.226820 0.550515 -0.000523
v -0.378713 0.230118 0.113748
vn 3.008236 0.000000 0.806240
v -0.378815 0.276473 0.114527
vn 6.009300 0.531184 1.635603
v -0.378815 0.230109 0.114527
vn 3.114970 0.000000 -0.000258
v -0.378713 0.276473 0.113748
vn 3.008496 0.000000 -0.805789
v -0.378815 0.276473 0.112970
vn 6.009727 0.531222 -1.634634
v -0.378815 0.230109 0.112970
vn 2.696525 0.000000 -1.558748
v -0.379116 0.276473 0.112244
vn 5.373843 0.475219 -3.157206
v -0.379116 0.230082 0.112244
vn 2.201681 0.000000 -2.203390
v -0.379594 0.276473 0.111622
vn 4.369181 0.386245 -4.452245
v -0.379594 0.230040 0.111622
vn 3.070228 0.271432 -5.433305
v -0.380217 0.229985 0.111144
vn 1.558489 0.000000 -2.696974
v -0.380217 0.276473 0.111144
vn 1.561051 0.137993 -6.039300
v -0.380942 0.229921 0.110843
vn 0.806497 0.000000 -3.008202
v -0.380942 0.276473 0.110843
vn -0.044575 -0.003931 -6.229949
v -0.381720 0.229852 0.110741
vn 0.000258 0.000000 -3.114970
v -0.381720 0.276473 0.110741
vn -1.639445 -0.144951 -5.993561
v -0.382499 0.229783 0.110843
vn -0.806240 0.000000 -3.008236
v -0.382499 0.276473 0.110843
vn -3.115429 -0.275432 -5.354562
v -0.383224 0.229719 0.111144
vn -1.558489 0.000000 -2.696974
v -0.383224 0.276473 0.111144
vn -4.369357 -0.386326 -4.361183
v -0.383847 0.229664 0.111622
vn -2.201681 0.000000 -2.203390
v -0.383847 0.276473 0.111622
vn -2.696525 0.000000 -1.558748
v -0.384325 0.276473 0.112244
vn -2.202424 0.000000 2.202424
v -0.383847 0.276473 0.115875
vn -3.115429 -0.275432 5.354562
v -0.383224 0.229719 0.116353
vn -1.558489 0.000000 2.696974
v -0.383224 0.276473 0.116353
vn -1.639445 -0.144951 5.993561
v -0.382499 0.229783 0.116654
vn -0.806240 0.000000 3.008236
v -0.382499 0.276473 0.116654
vn -0.044575 -0.003931 6.229949
v -0.381720 0.229852 0.116756
vn 0.000258 0.000000 3.114970
v -0.381720 0.276473 0.116756
vn 1.561051 0.137993 6.039300
v -0.380942 0.229921 0.116654
vn 0.806497 0.000000 3.008202
v -0.380942 0.276473 0.116654
vn 3.070228 0.271432 5.433305
v -0.380217 0.229985 0.116353
vn 1.558489 0.000000 2.696974
v -0.380217 0.276473 0.116353
vn 4.370689 0.386378 4.450443
v -0.379594 0.230040 0.115875
vn 2.202424 0.000000 2.202424
v -0.379594 0.276473 0.115875
vn 5.374638 0.475290 3.156495
v -0.379116 0.230082 0.115252
vn 2.696974 0.000000 1.558489
v -0.379116 0.276473 0.115252
vn -3.001483 -0.877801 -5.345064
v -0.343318 0.005788 0.111144
vn -2.704928 -1.561663 -5.335595
v -0.339066 -0.004477 0.111144
vn -3.086702 -3.086690 -4.338757
v -0.332726 -0.013764 0.111622
vn -2.656449 -4.601686 -3.056930
v -0.323994 -0.021066 0.112244
vn -1.528895 -5.705673 -1.579694
v -0.313508 -0.025735 0.112970
vn -0.390505 -5.961400 1.595398
v -0.302282 -0.027213 0.114527
vn -0.404412 -6.169646 -0.000564
v -0.302289 -0.027315 0.113748
vn -1.375178 -5.133359 3.057959
v -0.313429 -0.025442 0.115252
vn -2.183571 -3.782011 4.337843
v -0.323753 -0.020648 0.115875
vn -2.207706 -2.207807 5.337093
v -0.332281 -0.013319 0.116353
vn -1.585138 -0.463551 5.988473
v -0.342618 0.005993 0.116654
vn -1.434510 -0.828264 5.983057
v -0.338432 -0.004111 0.116654
vn 5.997660 1.753986 -0.000527
v -0.338962 0.007062 0.113748
vn 5.787792 1.692522 1.640893
v -0.339061 0.007033 0.114527
vn 5.788181 1.692636 -1.639913
v -0.339061 0.007033 0.112970
vn 5.172664 1.512772 -3.165682
v -0.339351 0.006948 0.112244
vn 4.201333 1.228635 -4.463108
v -0.339813 0.006813 0.111622
vn 2.946699 0.861887 -5.442359
v -0.340414 0.006637 0.111144
vn 1.491128 0.436147 -6.045034
v -0.341115 0.006432 0.110843
vn -0.052867 -0.015499 -6.229921
v -0.341866 0.006212 0.110741
vn -1.585138 -0.463551 -5.988473
v -0.342618 0.005993 0.110843
vn -0.052867 -0.015499 6.229921
v -0.341866 0.006212 0.116756
vn 1.491128 0.436147 6.045034
v -0.341115 0.006432 0.116654
vn 2.946699 0.861887 5.442359
v -0.340414 0.006637 0.116353
vn 4.202792 1.229062 4.461337
v -0.339813 0.006813 0.115875
vn 5.173411 1.512991 3.164925
v -0.339351 0.006948 0.115252
vn -1.434510 -0.828264 -5.983057
v -0.338432 -0.004111 0.110843
vn -2.207706 -2.207807 -5.337093
v -0.332281 -0.013319 0.111144
vn -2.182921 -3.780793 -4.339894
v -0.323753 -0.020648 0.111622
vn -1.374855 -5.132335 -3.058281
v -0.313429 -0.025442 0.112244
vn -0.390615 -5.961984 -1.594487
v -0.302282 -0.027213 0.112970
vn 0.390702 -5.961298 1.595542
v 0.269738 -0.027213 0.114527
vn 0.404430 -6.169642 -0.000467
v 0.269745 -0.027315 0.113748
vn -0.351128 -5.354050 3.087629
v -0.302263 -0.026912 0.115252
vn -1.131092 -4.219727 4.336280
v -0.313305 -0.024976 0.115875
vn -1.562407 -2.705852 5.335126
v -0.323439 -0.020104 0.116353
vn -1.172303 -1.172206 5.982431
v -0.331764 -0.012802 0.116654
vn -0.058110 -0.033553 6.229925
v -0.337752 -0.003719 0.116756
vn 5.407108 3.121544 -0.000532
v -0.335125 -0.002202 0.113748
vn 5.217195 3.012108 1.646516
v -0.335215 -0.002254 0.114527
vn 5.217522 3.012298 -1.645522
v -0.335215 -0.002254 0.112970
vn 4.660720 2.690821 -3.173718
v -0.335477 -0.002405 0.112244
vn 3.780447 2.182556 -4.474753
v -0.335895 -0.002646 0.111622
vn 2.647703 1.528524 -5.451941
v -0.336439 -0.002960 0.111144
vn 1.333975 0.770189 -6.050333
v -0.337072 -0.003326 0.110843
vn -0.058110 -0.033553 -6.229925
v -0.337752 -0.003719 0.110741
vn 1.333975 0.770189 6.050333
v -0.337072 -0.003326 0.116654
vn 2.647703 1.528524 5.451941
v -0.336439 -0.002960 0.116353
vn 3.781767 2.183319 4.473017
v -0.335895 -0.002646 0.115875
vn 4.661373 2.691197 3.172911
v -0.335477 -0.002405 0.115252
vn -1.172303 -1.172206 -5.982431
v -0.331764 -0.012802 0.110843
vn -1.562407 -2.705852 -5.335126
v -0.323439 -0.020104 0.111144
vn -1.130764 -4.218363 -4.338376
v -0.313305 -0.024976 0.111622
vn -0.351062 -5.353078 -3.088017
v -0.302263 -0.026912 0.112244
vn 0.390701 -5.961874 -1.594753
v 0.269738 -0.027213 0.112970
vn 1.529123 -5.704993 1.579435
v 0.280964 -0.025735 0.114527
vn 1.580650 -5.900581 -0.000405
v 0.280990 -0.025835 0.113748
vn 0.350841 -5.354095 3.087733
v 0.269718 -0.026912 0.115252
vn -0.287250 -4.386095 4.370977
v -0.302231 -0.026434 0.115875
vn -0.808638 -3.018384 5.334461
v -0.313142 -0.024370 0.116353
vn -0.828835 -1.435640 5.982479
v -0.323073 -0.019471 0.116654
vn -0.047532 -0.047557 6.229934
v -0.331209 -0.012247 0.116756
vn 4.414388 4.415213 -0.000480
v -0.329063 -0.010102 0.113748
vn 4.259738 4.259523 1.647263
v -0.329137 -0.010175 0.114527
vn 4.259974 4.259792 -1.646349
v -0.329137 -0.010175 0.112970
vn 3.805491 3.805491 -3.173805
v -0.329351 -0.010389 0.112244
vn 3.087320 3.087292 -4.473874
v -0.329692 -0.010730 0.111622
vn 2.161469 2.161286 -5.452117
v -0.330136 -0.011174 0.111144
vn 1.088461 1.088591 -6.050669
v -0.330653 -0.011692 0.110843
vn -0.047532 -0.047557 -6.229934
v -0.331209 -0.012247 0.110741
vn 1.088461 1.088591 6.050669
v -0.330653 -0.011692 0.116654
vn 2.161469 2.161286 5.452117
v -0.330136 -0.011174 0.116353
vn 3.088373 3.088377 4.472149
v -0.329692 -0.010730 0.115875
vn 3.805966 3.806066 3.173009
v -0.329351 -0.010389 0.115252
vn -0.828835 -1.435640 -5.982479
v -0.323073 -0.019471 0.110843
vn -0.808638 -3.018384 -5.334461
v -0.313142 -0.024370 0.111144
vn -0.287167 -4.384646 -4.373002
v -0.302231 -0.026434 0.111622
vn 0.350771 -5.353154 -3.088070
v 0.269718 -0.026912 0.112244
vn 1.529343 -5.705550 -1.578836
v 0.280964 -0.025735 0.112970
vn 2.953996 -5.116489 1.578648
v 0.291601 -0.021328 0.114527
vn 3.053973 -5.289329 -0.000508
v 0.291653 -0.021418 0.113748
vn 1.375160 -5.132808 3.058618
v 0.280885 -0.025442 0.115252
vn 0.287501 -4.386094 4.370876
v 0.269687 -0.026434 0.115875
vn -0.204571 -3.120494 5.364665
v -0.302191 -0.025811 0.116353
vn -0.428730 -1.599906 5.982937
v -0.312953 -0.023663 0.116654
vn -0.033601 -0.058135 6.229926
v -0.322681 -0.018791 0.116756
vn 3.122298 5.406920 -0.000483
v -0.321164 -0.016163 0.113748
vn 3.011610 5.217329 1.646318
v -0.321215 -0.016253 0.114527
vn 3.011854 5.217596 -1.645425
v -0.321215 -0.016253 0.112970
vn 2.690654 4.659983 -3.175176
v -0.321367 -0.016515 0.112244
vn 2.182498 3.780444 -4.474783
v -0.321608 -0.016933 0.111622
vn 1.527984 2.646571 -5.452505
v -0.321922 -0.017477 0.111144
vn 0.769583 1.333037 -6.050762
v -0.322288 -0.018111 0.110843
vn -0.033601 -0.058135 -6.229926
v -0.322681 -0.018791 0.110741
vn 0.769583 1.333037 6.050762
v -0.322288 -0.018111 0.116654
vn 1.527984 2.646571 5.452505
v -0.321922 -0.017477 0.116353
vn 2.183389 3.781740 4.473005
v -0.321608 -0.016933 0.115875
vn 2.691134 4.660503 3.174474
v -0.321367 -0.016515 0.115252
vn -0.428730 -1.599906 -5.982937
v -0.312953 -0.023663 0.110843
vn -0.204571 -3.120494 -5.364665
v -0.302191 -0.025811 0.111144
vn 0.287364 -4.384630 -4.372930
v 0.269687 -0.026434 0.111622
vn 1.375040 -5.131816 -3.058722
v 0.280885 -0.025442 0.112244
vn 2.954328 -5.116997 -1.577915
v 0.291601 -0.021328 0.112970
vn 4.177307 -4.177445 1.576684
v 0.300736 -0.014319 0.114527
vn 4.319526 -4.319650 -0.000564
v 0.300809 -0.014392 0.113748
vn 2.657566 -4.602923 3.054893
v 0.291450 -0.021066 0.115252
vn 1.130647 -4.219868 4.336639
v 0.280760 -0.024976 0.115875
vn 0.204395 -3.120458 5.364739
v 0.269646 -0.025811 0.116353
vn -0.107114 -1.634924 5.999475
v -0.302143 -0.025086 0.116654
vn -0.017098 -0.063989 6.229968
v -0.312749 -0.022904 0.116756
vn 1.615939 6.030877 -0.000473
v -0.311964 -0.019974 0.113748
vn 1.559400 5.818324 1.647889
v -0.311991 -0.020074 0.114527
vn 1.559385 5.818694 -1.646995
v -0.311991 -0.020074 0.112970
vn 1.392985 5.198850 -3.173551
v -0.312069 -0.020367 0.112244
vn 1.130181 4.217627 -4.473185
v -0.312194 -0.020832 0.111622
vn 0.790906 2.951470 -5.452852
v -0.312357 -0.021439 0.111144
vn 0.398516 1.487451 -6.050592
v -0.312546 -0.022146 0.110843
vn -0.017098 -0.063989 -6.229968
v -0.312749 -0.022904 0.110741
vn 0.398516 1.487451 6.050592
v -0.312546 -0.022146 0.116654
vn 0.790906 2.951470 5.452852
v -0.312357 -0.021439 0.116353
vn 1.130406 4.219156 4.471435
v -0.312194 -0.020832 0.115875
vn 1.392967 5.199592 3.172804
v -0.312069 -0.020367 0.115252
vn -0.107114 -1.634924 -5.999475
v -0.302143 -0.025086 0.110843
vn 0.204395 -3.120458 -5.364739
v 0.269646 -0.025811 0.111144
vn 1.130312 -4.218471 -4.338795
v 0.280760 -0.024976 0.111622
vn 2.656921 -4.602106 -3.055070
v 0.291450 -0.021066 0.112244
vn 4.177724 -4.177949 -1.575810
v 0.300736 -0.014319 0.112970
vn 5.290319 -3.055081 -0.000505
v 0.307835 -0.005236 0.113748
vn 5.114748 -2.952943 1.579507
v 0.307746 -0.005184 0.114527
vn 3.758389 -3.758443 3.055169
v 0.300522 -0.014105 0.115252
vn 2.183576 -3.782026 4.337788
v 0.291209 -0.020648 0.115875
vn 0.808989 -3.018468 5.334159
v 0.280598 -0.024370 0.116353
vn 0.107198 -1.635018 5.999432
v 0.269599 -0.025086 0.116654
vn -0.002168 -0.033068 6.229945
v -0.302092 -0.024307 0.116756
vn 0.408711 6.236906 -0.000460
v -0.301895 -0.021300 0.113748
vn 0.394712 6.020193 1.629429
v -0.301902 -0.021402 0.114527
vn 0.394799 6.020621 -1.628558
v -0.301902 -0.021402 0.112970
vn 0.352839 5.386857 -3.146858
v -0.301921 -0.021703 0.112244
vn 0.287748 4.386458 -4.438986
v -0.301953 -0.022181 0.111622
vn 0.202282 3.087285 -5.422411
v -0.301993 -0.022803 0.111144
vn 0.103254 1.575341 -6.033969
v -0.302041 -0.023529 0.110843
vn -0.002168 -0.033068 -6.229945
v -0.302092 -0.024307 0.110741
vn 0.103254 1.575341 6.033969
v -0.302041 -0.023529 0.116654
vn 0.202282 3.087285 5.422411
v -0.301993 -0.022803 0.116353
vn 0.287925 4.387919 4.437194
v -0.301953 -0.022181 0.115875
vn 0.353015 5.387694 3.146167
v -0.301921 -0.021703 0.115252
vn 0.107198 -1.635018 -5.999432
v 0.269599 -0.025086 0.110843
vn 0.808989 -3.018468 -5.334159
v 0.280598 -0.024370 0.111144
vn 2.182894 -3.780785 -4.339908
v 0.291209 -0.020648 0.111622
vn 3.757657 -3.757691 -3.055434
v 0.300522 -0.014105 0.112244
vn 5.115309 -2.953266 -1.578709
v 0.307746 -0.005184 0.112970
vn 5.890255 -1.722778 -0.000509
v 0.312226 0.005363 0.113748
vn 5.693425 -1.665113 1.587690
v 0.312127 0.005392 0.114527
vn 4.603077 -2.657493 3.057869
v 0.307483 -0.005032 0.115252
vn 3.087659 -3.087791 4.337658
v 0.300181 -0.013764 0.115875
vn 1.562397 -2.705852 5.335118
v 0.290895 -0.020104 0.116353
vn 0.428461 -1.599695 5.983100
v 0.280408 -0.023663 0.116654
vn 0.002168 -0.033068 6.229945
v 0.269548 -0.024307 0.116756
vn -0.408671 6.236908 -0.000582
v 0.269350 -0.021300 0.113748
vn -0.394566 6.020096 1.629738
v 0.269357 -0.021402 0.114527
vn -0.394557 6.020574 -1.628695
v 0.269357 -0.021402 0.112970
vn -0.353233 5.386873 -3.146879
v 0.269377 -0.021703 0.112244
vn -0.287566 4.386433 -4.438974
v 0.269408 -0.022181 0.111622
vn -0.202366 3.087166 -5.422496
v 0.269449 -0.022803 0.111144
vn -0.103261 1.575336 -6.033971
v 0.269497 -0.023529 0.110843
vn 0.002168 -0.033068 -6.229945
v 0.269548 -0.024307 0.110741
vn -0.103261 1.575336 6.033971
v 0.269497 -0.023529 0.116654
vn -0.202366 3.087166 5.422496
v 0.269449 -0.022803 0.116353
vn -0.287600 4.387973 4.437103
v 0.269408 -0.022181 0.115875
vn -0.353164 5.387692 3.146229
v 0.269377 -0.021703 0.115252
vn 0.428461 -1.599695 -5.983100
v 0.280408 -0.023663 0.110843
vn 1.562397 -2.705852 -5.335118
v 0.290895 -0.020104 0.111144
vn 3.086642 -3.086809 -4.339775
v 0.300181 -0.013764 0.111622
vn 4.602186 -2.656978 -3.058099
v 0.307483 -0.005032 0.112244
vn 5.694026 -1.665288 -1.586876
v 0.312127 0.005392 0.112970
vn 6.134993 -0.542324 -0.000512
v 0.352184 0.229586 0.113748
vn 5.931468 -0.524502 1.590297
v 0.352081 0.229595 0.114527
vn 5.120608 -1.497647 3.068882
v 0.311836 0.005477 0.115252
vn 3.783484 -2.184280 4.335389
v 0.307066 -0.004791 0.115875
vn 2.208216 -2.207948 5.336282
v 0.299737 -0.013319 0.116353
vn 0.828780 -1.435420 5.982497
v 0.290529 -0.019471 0.116654
vn 0.017194 -0.064113 6.229948
v 0.280205 -0.022904 0.116756
vn -1.615960 6.030866 -0.000626
v 0.279420 -0.019974 0.113748
vn -1.559316 5.818300 1.648042
v 0.279447 -0.020074 0.114527
vn -1.559460 5.818701 -1.646891
v 0.279447 -0.020074 0.112970
vn -1.392756 5.198868 -3.173620
v 0.279525 -0.020367 0.112244
vn -1.130373 4.218106 -4.472747
v 0.279650 -0.020832 0.111622
vn -0.790613 2.951641 -5.452698
v 0.279812 -0.021439 0.111144
vn -0.398512 1.487117 -6.050715
v 0.280002 -0.022146 0.110843
vn 0.017194 -0.064113 -6.229948
v 0.280205 -0.022904 0.110741
vn -0.398512 1.487117 6.050715
v 0.280002 -0.022146 0.116654
vn -0.790613 2.951641 5.452698
v 0.279812 -0.021439 0.116353
vn -1.130920 4.219514 4.471030
v 0.279650 -0.020832 0.115875
vn -1.393164 5.199581 3.172736
v 0.279525 -0.020367 0.115252
vn 0.828780 -1.435420 -5.982497
v 0.290529 -0.019471 0.110843
vn 2.208216 -2.207948 -5.336282
v 0.299737 -0.013319 0.111144
vn 3.782256 -2.183571 -4.337519
v 0.307066 -0.004791 0.111622
vn 5.119641 -1.497364 -3.069162
v 0.311836 0.005477 0.112244
vn 5.932068 -0.524555 -1.589473
v 0.352081 0.229595 0.112970
vn 3.114452 0.000000 -0.000260
v 0.352184 0.276473 0.113748
vn 3.008685 0.000000 0.806497
v 0.352081 0.276473 0.114527
vn 5.330837 -0.471145 3.074040
v 0.351781 0.229622 0.115252
vn 4.204700 -1.229701 4.347063
v 0.311375 0.005612 0.115875
vn 2.704912 -1.561691 5.335574
v 0.306522 -0.004477 0.116353
vn 1.171444 -1.171573 5.982917
v 0.299219 -0.012802 0.116654
vn 0.033323 -0.057711 6.229936
v 0.290136 -0.018791 0.116756
vn -3.121746 5.407019 -0.000636
v 0.288619 -0.016163 0.113748
vn -3.011760 5.216737 1.648305
v 0.288671 -0.016253 0.114527
vn -3.011919 5.217135 -1.647157
v 0.288671 -0.016253 0.112970
vn -2.690753 4.659831 -3.175317
v 0.288823 -0.016515 0.112244
vn -2.182660 3.780461 -4.474689
v 0.289064 -0.016933 0.111622
vn -1.527972 2.646520 -5.452536
v 0.289378 -0.017477 0.111144
vn -0.769764 1.333244 -6.050723
v 0.289744 -0.018111 0.110843
vn 0.033323 -0.057711 -6.229936
v 0.290136 -0.018791 0.110741
vn -0.769764 1.333244 6.050723
v 0.289744 -0.018111 0.116654
vn -1.527972 2.646520 5.452536
v 0.289378 -0.017477 0.116353
vn -2.183358 3.781703 4.473049
v 0.289064 -0.016933 0.115875
vn -2.691166 4.660571 3.174339
v 0.288823 -0.016515 0.115252
vn 1.171444 -1.171573 -5.982917
v 0.299219 -0.012802 0.110843
vn 2.704912 -1.561691 -5.335574
v 0.306522 -0.004477 0.111144
vn 4.203325 -1.229299 -4.349159
v 0.311375 0.005612 0.111622
vn 5.329849 -0.471057 -3.074367
v 0.351781 0.229622 0.112244
vn 3.008943 0.000000 -0.806050
v 0.352081 0.276473 0.112970
vn 0.000000 2.878925 0.000000
v 0.348398 0.276473 0.110843
vn 0.000000 2.878272 0.000000
v 0.349955 0.276473 0.110843
vn 0.000000 2.881034 0.000000
v 0.349176 0.276473 0.110741
vn 0.000000 2.880169 0.000000
v 0.347672 0.276473 0.111144
vn 0.000000 2.880657 0.000000
v 0.350680 0.276473 0.111144
vn 0.000000 2.880479 0.000000
v 0.347049 0.276473 0.111622
vn 0.000000 2.880479 0.000000
v 0.351303 0.276473 0.111622
vn 0.000000 2.878217 0.000000
v 0.346571 0.276473 0.112244
vn 0.000000 2.878217 0.000000
v 0.351781 0.276473 0.112244
vn 0.000000 2.881365 0.000000
v 0.346271 0.276473 0.112970
vn 0.000000 2.881365 0.000000
v 0.352081 0.276473 0.112970
vn 0.000000 2.878509 0.000000
v 0.346168 0.276473 0.113748
vn 0.000000 2.878509 0.000000
v 0.352184 0.276473 0.113748
vn 0.000000 2.880711 0.000000
v 0.346271 0.276473 0.114527
vn 0.000000 2.880711 0.000000
v 0.352081 0.276473 0.114527
vn 0.000000 2.879480 0.000000
v 0.346571 0.276473 0.115252
vn 0.000000 2.879480 0.000000
v 0.351781 0.276473 0.115252
vn 0.000000 2.879703 0.000000
v 0.347049 0.276473 0.115875
vn 0.000000 2.879703 0.000000
v 0.351303 0.276473 0.115875
vn 0.000000 2.880169 0.000000
v 0.347672 0.276473 0.116353
vn 0.000000 2.880657 0.000000
v 0.350680 0.276473 0.116353
vn 0.000000 2.878925 0.000000
v 0.348398 0.276473 0.116654
vn 0.000000 2.878272 0.000000
v 0.349955 0.276473 0.116654
vn 0.000000 2.881034 0.000000
v 0.349176 0.276473 0.116756
vn 2.697682 0.000000 1.556781
v 0.351781 0.276473 0.115252
vn 4.370795 -0.386453 4.359117
v 0.351303 0.229664 0.115875
vn 3.000271 -0.877423 5.345553
v 0.310774 0.005788 0.116353
vn 1.434549 -0.828234 5.983043
v 0.305888 -0.004111 0.116654
vn 0.047302 -0.047298 6.229897
v 0.298664 -0.012247 0.116756
vn -4.259225 4.259642 1.647231
v 0.296592 -0.010175 0.114527
vn -4.414910 4.415078 -0.000600
v 0.296519 -0.010102 0.113748
vn -4.259559 4.259888 -1.646139
v 0.296592 -0.010175 0.112970
vn -3.805935 3.805247 -3.174142
v 0.296807 -0.010389 0.112244
vn -3.087169 3.087509 -4.473431
v 0.297147 -0.010730 0.111622
vn -2.160689 2.160255 -5.453006
v 0.297592 -0.011174 0.111144
vn -1.088768 1.088793 -6.050623
v 0.298109 -0.011692 0.110843
vn 0.047302 -0.047298 -6.229897
v 0.298664 -0.012247 0.110741
vn -1.088768 1.088793 6.050623
v 0.298109 -0.011692 0.116654
vn -2.160689 2.160255 5.453006
v 0.297592 -0.011174 0.116353
vn -3.088153 3.088613 4.471739
v 0.297147 -0.010730 0.115875
vn -3.806444 3.805857 3.173257
v 0.296807 -0.010389 0.115252
vn 1.434549 -0.828234 -5.983043
v 0.305888 -0.004111 0.110843
vn 3.000271 -0.877423 -5.345553
v 0.310774 0.005788 0.111144
vn 4.369357 -0.386326 -4.361183
v 0.351303 0.229664 0.111622
vn 2.697232 0.000000 -1.557041
v 0.351781 0.276473 0.112244
vn -2.697682 0.000000 1.556781
v 0.346571 0.276473 0.115252
vn -6.009833 0.531186 1.635906
v 0.346271 0.230109 0.114527
vn -5.376174 0.475437 3.153254
v 0.346571 0.230082 0.115252
vn -3.008685 0.000000 0.806497
v 0.346271 0.276473 0.114527
vn -2.202424 0.000000 2.202424
v 0.347049 0.276473 0.115875
vn -4.370690 0.386369 4.450443
v 0.347049 0.230040 0.115875
vn -3.068777 0.271311 5.433946
v 0.347672 0.229985 0.116353
vn -1.557781 0.000000 2.697268
v 0.347672 0.276473 0.116353
vn -1.559716 0.137870 6.039824
v 0.348398 0.229921 0.116654
vn -0.805789 0.000000 3.008496
v 0.348398 0.276473 0.116654
vn 0.044575 -0.003932 6.229949
v 0.349176 0.229852 0.116756
vn -0.000258 0.000000 3.114970
v 0.349176 0.276473 0.116756
vn 1.639444 -0.144952 5.993561
v 0.349955 0.229783 0.116654
vn 0.806240 0.000000 3.008236
v 0.349955 0.276473 0.116654
vn 3.115429 -0.275432 5.354562
v 0.350680 0.229719 0.116353
vn 1.558489 0.000000 2.696974
v 0.350680 0.276473 0.116353
vn 2.202424 0.000000 2.202424
v 0.351303 0.276473 0.115875
vn 2.201681 0.000000 -2.203390
v 0.351303 0.276473 0.111622
vn 3.115429 -0.275432 -5.354562
v 0.350680 0.229719 0.111144
vn 1.558489 0.000000 -2.696974
v 0.350680 0.276473 0.111144
vn 1.639444 -0.144952 -5.993561
v 0.349955 0.229783 0.110843
vn 0.806240 0.000000 -3.008236
v 0.349955 0.276473 0.110843
vn 0.044575 -0.003932 -6.229949
v 0.349176 0.229852 0.110741
vn -0.000258 0.000000 -3.114970
v 0.349176 0.276473 0.110741
vn -1.559716 0.137870 -6.039824
v 0.348398 0.229921 0.110843
vn -0.805789 0.000000 -3.008496
v 0.348398 0.276473 0.110843
vn -3.068777 0.271311 -5.433946
v 0.347672 0.229985 0.111144
vn -1.557781 0.000000 -2.697268
v 0.347672 0.276473 0.111144
vn -4.369182 0.386235 -4.452244
v 0.347049 0.230040 0.111622
vn -2.201681 0.000000 -2.203390
v 0.347049 0.276473 0.111622
vn -5.375376 0.475366 -3.153968
v 0.346571 0.230082 0.112244
vn -2.697232 0.000000 -1.557041
v 0.346571 0.276473 0.112244
vn -6.010256 0.531223 -1.634945
v 0.346271 0.230109 0.112970
vn -3.008943 0.000000 -0.806050
v 0.346271 0.276473 0.112970
vn -6.226223 0.550488 -0.000528
v 0.346168 0.230118 0.113748
vn -3.114452 0.000000 -0.000260
v 0.346168 0.276473 0.113748
vn 1.584221 -0.463313 5.989048
v 0.310073 0.005993 0.116654
vn 0.058126 -0.033585 6.229925
v 0.305208 -0.003719 0.116756
vn -5.216723 3.012378 1.646250
v 0.302670 -0.002254 0.114527
vn -5.407439 3.121666 -0.000528
v 0.302581 -0.002202 0.113748
vn -5.217054 3.012569 -1.645250
v 0.302670 -0.002254 0.112970
vn -4.661039 2.690671 -3.174081
v 0.302933 -0.002405 0.112244
vn -3.781876 2.183423 -4.472845
v 0.303350 -0.002646 0.111622
vn -2.646564 1.527954 -5.452515
v 0.303894 -0.002960 0.111144
vn -1.333050 0.769638 -6.050747
v 0.304528 -0.003326 0.110843
vn 0.058126 -0.033585 -6.229925
v 0.305208 -0.003719 0.110741
vn -1.333050 0.769638 6.050747
v 0.304528 -0.003326 0.116654
vn -2.646564 1.527954 5.452515
v 0.303894 -0.002960 0.116353
vn -3.783195 2.184184 4.471107
v 0.303350 -0.002646 0.115875
vn -4.661687 2.691045 3.173275
v 0.302933 -0.002405 0.115252
vn 1.584221 -0.463313 -5.989048
v 0.310073 0.005993 0.110843
vn -5.787772 1.692662 1.640805
v 0.306517 0.007033 0.114527
vn -5.175062 1.513522 3.162398
v 0.306807 0.006948 0.115252
vn -4.202786 1.229267 4.460667
v 0.307268 0.006813 0.115875
vn -2.946281 0.861706 5.443031
v 0.307870 0.006637 0.116353
vn -1.491879 0.436355 6.044608
v 0.308570 0.006432 0.116654
vn 0.053801 -0.015748 6.229905
v 0.309322 0.006212 0.116756
vn 0.053801 -0.015748 -6.229905
v 0.309322 0.006212 0.110741
vn -1.491879 0.436355 -6.044608
v 0.308570 0.006432 0.110843
vn -2.946281 0.861706 -5.443031
v 0.307870 0.006637 0.111144
vn -4.201329 1.228841 -4.462439
v 0.307268 0.006813 0.111622
vn -5.174318 1.513304 -3.163154
v 0.306807 0.006948 0.112244
vn -5.788161 1.692776 -1.639825
v 0.306517 0.007033 0.112970
vn -5.997660 1.753986 -0.000527
v 0.306418 0.007062 0.113748
# 432 vertices, 0 vertices normals


usemtl material_0
f 1//1 2//2 3//3
f 2//2 1//1 4//4
f 4//4 5//5 2//2
f 5//5 4//4 6//6
f 2//2 7//7 3//3
f 7//7 2//2 8//8
f 9//9 3//3 10//10
f 3//3 9//9 1//1
f 11//11 4//4 1//1
f 4//4 11//11 12//12
f 6//6 13//13 5//5
f 13//13 6//6 14//14
f 5//5 8//8 2//2
f 8//8 5//5 15//15
f 12//12 6//6 4//4
f 6//6 12//12 16//16
f 8//8 17//17 7//7
f 17//17 8//8 18//18
f 3//3 19//19 10//10
f 19//19 3//3 7//7
f 20//20 9//9 10//10
f 9//9 20//20 21//21
f 22//22 1//1 9//9
f 1//1 22//22 11//11
f 23//23 12//12 11//11
f 12//12 23//23 24//24
f 25//25 26//26 27//27
f 26//26 25//25 28//28
f 26//26 28//28 29//29
f 29//29 28//28 30//30
f 29//29 30//30 31//31
f 31//31 30//30 32//32
f 31//31 32//32 33//33
f 33//33 32//32 34//34
f 33//33 34//34 35//35
f 35//35 34//34 36//36
f 35//35 36//36 37//37
f 37//37 36//36 38//38
f 37//37 38//38 39//39
f 39//39 38//38 40//40
f 39//39 40//40 41//41
f 41//41 40//40 42//42
f 41//41 42//42 43//43
f 43//43 42//42 44//44
f 43//43 44//44 45//45
f 45//45 44//44 46//46
f 45//45 46//46 47//47
f 47//47 46//46 48//48
f 13//13 15//15 5//5
f 15//15 13//13 49//49
f 16//16 14//14 6//6
f 14//14 16//16 50//50
f 15//15 18//18 8//8
f 18//18 15//15 51//51
f 24//24 16//16 12//12
f 16//16 24//24 52//52
f 18//18 53//53 17//17
f 53//53 18//18 54//54
f 7//7 55//55 19//19
f 55//55 7//7 17//17
f 56//56 10//10 19//19
f 10//10 56//56 20//20
f 57//57 20//20 58//58
f 20//20 57//57 21//21
f 21//21 22//22 9//9
f 22//22 21//21 59//59
f 60//60 11//11 22//22
f 11//11 60//60 23//23
f 23//23 61//61 24//24
f 61//61 23//23 62//62
f 63//63 64//64 65//65
f 64//64 63//63 66//66
f 67//67 63//63 68//68
f 63//63 67//67 66//66
f 69//69 68//68 70//70
f 68//68 69//69 67//67
f 71//71 70//70 72//72
f 70//70 71//71 69//69
f 71//71 73//73 74//74
f 73//73 71//71 72//72
f 74//74 75//75 76//76
f 75//75 74//74 73//73
f 76//76 77//77 78//78
f 77//77 76//76 75//75
f 78//78 79//79 80//80
f 79//79 78//78 77//77
f 80//80 81//81 82//82
f 81//81 80//80 79//79
f 82//82 83//83 84//84
f 83//83 82//82 81//81
f 85//85 83//83 51//51
f 83//83 85//85 84//84
f 49//49 51//51 15//15
f 51//51 49//49 85//85
f 52//52 50//50 16//16
f 50//50 52//52 86//86
f 87//87 86//86 52//52
f 86//86 87//87 88//88
f 89//89 88//88 87//87
f 88//88 89//89 90//90
f 91//91 90//90 89//89
f 90//90 91//91 92//92
f 93//93 92//92 91//91
f 92//92 93//93 94//94
f 95//95 94//94 93//93
f 94//94 95//95 96//96
f 97//97 96//96 95//95
f 96//96 97//97 98//98
f 99//99 98//98 97//97
f 98//98 99//99 100//100
f 65//65 100//100 99//99
f 100//100 65//65 64//64
f 51//51 54//54 18//18
f 54//54 51//51 83//83
f 24//24 87//87 52//52
f 87//87 24//24 61//61
f 101//101 53//53 54//54
f 53//53 101//101 102//102
f 17//17 103//103 55//55
f 103//103 17//17 53//53
f 104//104 19//19 55//55
f 19//19 104//104 56//56
f 58//58 56//56 105//105
f 56//56 58//58 20//20
f 106//106 58//58 107//107
f 58//58 106//106 57//57
f 108//108 21//21 57//57
f 21//21 108//108 59//59
f 59//59 60//60 22//22
f 60//60 59//59 109//109
f 60//60 62//62 23//23
f 62//62 60//60 110//110
f 62//62 111//111 61//61
f 111//111 62//62 112//112
f 113//113 65//65 114//114
f 65//65 113//113 63//63
f 68//68 113//113 115//115
f 113//113 68//68 63//63
f 70//70 115//115 116//116
f 115//115 70//70 68//68
f 72//72 116//116 117//117
f 116//116 72//72 70//70
f 72//72 118//118 73//73
f 118//118 72//72 117//117
f 73//73 119//119 75//75
f 119//119 73//73 118//118
f 75//75 120//120 77//77
f 120//120 75//75 119//119
f 77//77 121//121 79//79
f 121//121 77//77 120//120
f 79//79 101//101 81//81
f 101//101 79//79 121//121
f 81//81 54//54 83//83
f 54//54 81//81 101//101
f 61//61 89//89 87//87
f 89//89 61//61 111//111
f 111//111 91//91 89//89
f 91//91 111//111 122//122
f 122//122 93//93 91//91
f 93//93 122//122 123//123
f 123//123 95//95 93//93
f 95//95 123//123 124//124
f 124//124 97//97 95//95
f 97//97 124//124 125//125
f 126//126 97//97 125//125
f 97//97 126//126 99//99
f 114//114 99//99 126//126
f 99//99 114//114 65//65
f 121//121 102//102 101//101
f 102//102 121//121 127//127
f 102//102 103//103 53//53
f 103//103 102//102 128//128
f 129//129 55//55 103//103
f 55//55 129//129 104//104
f 105//105 104//104 130//130
f 104//104 105//105 56//56
f 107//107 105//105 131//131
f 105//105 107//107 58//58
f 132//132 107//107 133//133
f 107//107 132//132 106//106
f 134//134 57//57 106//106
f 57//57 134//134 108//108
f 135//135 59//59 108//108
f 59//59 135//135 109//109
f 109//109 110//110 60//60
f 110//110 109//109 136//136
f 110//110 112//112 62//62
f 112//112 110//110 137//137
f 112//112 122//122 111//111
f 122//122 112//112 138//138
f 139//139 114//114 140//140
f 114//114 139//139 113//113
f 115//115 139//139 141//141
f 139//139 115//115 113//113
f 116//116 141//141 142//142
f 141//141 116//116 115//115
f 117//117 142//142 143//143
f 142//142 117//117 116//116
f 117//117 144//144 118//118
f 144//144 117//117 143//143
f 118//118 145//145 119//119
f 145//145 118//118 144//144
f 119//119 146//146 120//120
f 146//146 119//119 145//145
f 120//120 127//127 121//121
f 127//127 120//120 146//146
f 138//138 123//123 122//122
f 123//123 138//138 147//147
f 147//147 124//124 123//123
f 124//124 147//147 148//148
f 148//148 125//125 124//124
f 125//125 148//148 149//149
f 150//150 125//125 149//149
f 125//125 150//150 126//126
f 140//140 126//126 150//150
f 126//126 140//140 114//114
f 127//127 128//128 102//102
f 128//128 127//127 151//151
f 128//128 129//129 103//103
f 129//129 128//128 152//152
f 130//130 129//129 153//153
f 129//129 130//130 104//104
f 131//131 130//130 154//154
f 130//130 131//131 105//105
f 133//133 131//131 155//155
f 131//131 133//133 107//107
f 156//156 133//133 157//157
f 133//133 156//156 132//132
f 158//158 106//106 132//132
f 106//106 158//158 134//134
f 159//159 108//108 134//134
f 108//108 159//159 135//135
f 135//135 136//136 109//109
f 136//136 135//135 160//160
f 136//136 137//137 110//110
f 137//137 136//136 161//161
f 137//137 138//138 112//112
f 138//138 137//137 162//162
f 163//163 140//140 164//164
f 140//140 163//163 139//139
f 141//141 163//163 165//165
f 163//163 141//141 139//139
f 142//142 165//165 166//166
f 165//165 142//142 141//141
f 143//143 166//166 167//167
f 166//166 143//143 142//142
f 143//143 168//168 144//144
f 168//168 143//143 167//167
f 144//144 169//169 145//145
f 169//169 144//144 168//168
f 145//145 170//170 146//146
f 170//170 145//145 169//169
f 146//146 151//151 127//127
f 151//151 146//146 170//170
f 162//162 147//147 138//138
f 147//147 162//162 171//171
f 171//171 148//148 147//147
f 148//148 171//171 172//172
f 172//172 149//149 148//148
f 149//149 172//172 173//173
f 174//174 149//149 173//173
f 149//149 174//174 150//150
f 164//164 150//150 174//174
f 150//150 164//164 140//140
f 151//151 152//152 128//128
f 152//152 151//151 175//175
f 152//152 153//153 129//129
f 153//153 152//152 176//176
f 154//154 153//153 177//177
f 153//153 154//154 130//130
f 155//155 154//154 178//178
f 154//154 155//155 131//131
f 157//157 155//155 179//179
f 155//155 157//157 133//133
f 180//180 157//157 181//181
f 157//157 180//180 156//156
f 182//182 132//132 156//156
f 132//132 182//182 158//158
f 183//183 134//134 158//158
f 134//134 183//183 159//159
f 159//159 160//160 135//135
f 160//160 159//159 184//184
f 160//160 161//161 136//136
f 161//161 160//160 185//185
f 161//161 162//162 137//137
f 162//162 161//161 186//186
f 164//164 187//187 163//163
f 187//187 164//164 188//188
f 163//163 189//189 165//165
f 189//189 163//163 187//187
f 165//165 190//190 166//166
f 190//190 165//165 189//189
f 166//166 191//191 167//167
f 191//191 166//166 190//190
f 167//167 192//192 168//168
f 192//192 167//167 191//191
f 168//168 193//193 169//169
f 193//193 168//168 192//192
f 169//169 194//194 170//170
f 194//194 169//169 193//193
f 170//170 175//175 151//151
f 175//175 170//170 194//194
f 186//186 171//171 162//162
f 171//171 186//186 195//195
f 195//195 172//172 171//171
f 172//172 195//195 196//196
f 196//196 173//173 172//172
f 173//173 196//196 197//197
f 173//173 198//198 174//174
f 198//198 173//173 197//197
f 174//174 188//188 164//164
f 188//188 174//174 198//198
f 175//175 176//176 152//152
f 176//176 175//175 199//199
f 176//176 177//177 153//153
f 177//177 176//176 200//200
f 178//178 177//177 201//201
f 177//177 178//178 154//154
f 179//179 178//178 202//202
f 178//178 179//179 155//155
f 181//181 179//179 203//203
f 179//179 181//181 157//157
f 204//204 181//181 205//205
f 181//181 204//204 180//180
f 206//206 156//156 180//180
f 156//156 206//206 182//182
f 207//207 158//158 182//182
f 158//158 207//207 183//183
f 183//183 184//184 159//159
f 184//184 183//183 208//208
f 184//184 185//185 160//160
f 185//185 184//184 209//209
f 185//185 186//186 161//161
f 186//186 185//185 210//210
f 188//188 211//211 187//187
f 211//211 188//188 212//212
f 187//187 213//213 189//189
f 213//213 187//187 211//211
f 189//189 214//214 190//190
f 214//214 189//189 213//213
f 190//190 215//215 191//191
f 215//215 190//190 214//214
f 191//191 216//216 192//192
f 216//216 191//191 215//215
f 192//192 217//217 193//193
f 217//217 192//192 216//216
f 193//193 218//218 194//194
f 218//218 193//193 217//217
f 194//194 199//199 175//175
f 199//199 194//194 218//218
f 210//210 195//195 186//186
f 195//195 210//210 219//219
f 219//219 196//196 195//195
f 196//196 219//219 220//220
f 220//220 197//197 196//196
f 197//197 220//220 221//221
f 197//197 222//222 198//198
f 222//222 197//197 221//221
f 198//198 212//212 188//188
f 212//212 198//198 222//222
f 199//199 200//200 176//176
f 200//200 199//199 223//223
f 200//200 201//201 177//177
f 201//201 200//200 224//224
f 202//202 201//201 225//225
f 201//201 202//202 178//178
f 203//203 202//202 226//226
f 202//202 203//203 179//179
f 205//205 203//203 227//227
f 203//203 205//205 181//181
f 228//228 204//204 205//205
f 204//204 228//228 229//229
f 230//230 180//180 204//204
f 180//180 230//230 206//206
f 231//231 182//182 206//206
f 182//182 231//231 207//207
f 183//183 232//232 208//208
f 232//232 183//183 207//207
f 208//208 209//209 184//184
f 209//209 208//208 233//233
f 209//209 210//210 185//185
f 210//210 209//209 234//234
f 212//212 235//235 211//211
f 235//235 212//212 236//236
f 211//211 237//237 213//213
f 237//237 211//211 235//235
f 213//213 238//238 214//214
f 238//238 213//213 237//237
f 214//214 239//239 215//215
f 239//239 214//214 238//238
f 215//215 240//240 216//216
f 240//240 215//215 239//239
f 216//216 241//241 217//217
f 241//241 216//216 240//240
f 217//217 242//242 218//218
f 242//242 217//217 241//241
f 218//218 223//223 199//199
f 223//223 218//218 242//242
f 234//234 219//219 210//210
f 219//219 234//234 243//243
f 243//243 220//220 219//219
f 220//220 243//243 244//244
f 244//244 221//221 220//220
f 221//221 244//244 245//245
f 221//221 246//246 222//222
f 246//246 221//221 245//245
f 222//222 236//236 212//212
f 236//236 222//222 246//246
f 223//223 224//224 200//200
f 224//224 223//223 247//247
f 248//248 201//201 224//224
f 201//201 248//248 225//225
f 226//226 225//225 249//249
f 225//225 226//226 202//202
f 227//227 226//226 250//250
f 226//226 227//227 203//203
f 227//227 228//228 205//205
f 228//228 227//227 251//251
f 252//252 229//229 228//228
f 229//229 252//252 253//253
f 229//229 230//230 204//204
f 230//230 229//229 254//254
f 255//255 206//206 230//230
f 206//206 255//255 231//231
f 207//207 256//256 232//232
f 256//256 207//207 231//231
f 208//208 257//257 233//233
f 257//257 208//208 232//232
f 233//233 234//234 209//209
f 234//234 233//233 258//258
f 236//236 259//259 235//235
f 259//259 236//236 260//260
f 235//235 261//261 237//237
f 261//261 235//235 259//259
f 237//237 262//262 238//238
f 262//262 237//237 261//261
f 238//238 263//263 239//239
f 263//263 238//238 262//262
f 239//239 264//264 240//240
f 264//264 239//239 263//263
f 240//240 265//265 241//241
f 265//265 240//240 264//264
f 241//241 266//266 242//242
f 266//266 241//241 265//265
f 242//242 247//247 223//223
f 247//247 242//242 266//266
f 258//258 243//243 234//234
f 243//243 258//258 267//267
f 267//267 244//244 243//243
f 244//244 267//267 268//268
f 268//268 245//245 244//244
f 245//245 268//268 269//269
f 245//245 270//270 246//246
f 270//270 245//245 269//269
f 246//246 260//260 236//236
f 260//260 246//246 270//270
f 271//271 224//224 247//247
f 224//224 271//271 248//248
f 272//272 225//225 248//248
f 225//225 272//272 249//249
f 250//250 249//249 273//273
f 249//249 250//250 226//226
f 250//250 251//251 227//227
f 251//251 250//250 274//274
f 251//251 252//252 228//228
f 252//252 251//251 275//275
f 276//276 253//253 252//252
f 253//253 276//276 277//277
f 253//253 254//254 229//229
f 254//254 253//253 278//278
f 254//254 255//255 230//230
f 255//255 254//254 279//279
f 231//231 280//280 256//256
f 280//280 231//231 255//255
f 232//232 281//281 257//257
f 281//281 232//232 256//256
f 233//233 282//282 258//258
f 282//282 233//233 257//257
f 260//260 283//283 259//259
f 283//283 260//260 284//284
f 259//259 285//285 261//261
f 285//285 259//259 283//283
f 261//261 286//286 262//262
f 286//286 261//261 285//285
f 262//262 287//287 263//263
f 287//287 262//262 286//286
f 287//287 264//264 263//263
f 264//264 287//287 288//288
f 288//288 265//265 264//264
f 265//265 288//288 289//289
f 289//289 266//266 265//265
f 266//266 289//289 290//290
f 290//290 247//247 266//266
f 247//247 290//290 271//271
f 258//258 291//291 267//267
f 291//291 258//258 282//282
f 267//267 292//292 268//268
f 292//292 267//267 291//291
f 268//268 293//293 269//269
f 293//293 268//268 292//292
f 269//269 294//294 270//270
f 294//294 269//269 293//293
f 270//270 284//284 260//260
f 284//284 270//270 294//294
f 295//295 248//248 271//271
f 248//248 295//295 272//272
f 296//296 249//249 272//272
f 249//249 296//296 273//273
f 273//273 274//274 250//250
f 274//274 273//273 297//297
f 274//274 275//275 251//251
f 275//275 274//274 298//298
f 275//275 276//276 252//252
f 276//276 275//275 299//299
f 300//300 277//277 276//276
f 277//277 300//300 301//301
f 277//277 278//278 253//253
f 278//278 277//277 302//302
f 278//278 279//279 254//254
f 279//279 278//278 303//303
f 255//255 304//304 280//280
f 304//304 255//255 279//279
f 256//256 305//305 281//281
f 305//305 256//256 280//280
f 257//257 306//306 282//282
f 306//306 257//257 281//281
f 284//284 307//307 283//283
f 307//307 284//284 308//308
f 283//283 309//309 285//285
f 309//309 283//283 307//307
f 285//285 310//310 286//286
f 310//310 285//285 309//309
f 286//286 311//311 287//287
f 311//311 286//286 310//310
f 311//311 288//288 287//287
f 288//288 311//311 312//312
f 312//312 289//289 288//288
f 289//289 312//312 313//313
f 313//313 290//290 289//289
f 290//290 313//313 314//314
f 314//314 271//271 290//290
f 271//271 314//314 295//295
f 282//282 315//315 291//291
f 315//315 282//282 306//306
f 291//291 316//316 292//292
f 316//316 291//291 315//315
f 292//292 317//317 293//293
f 317//317 292//292 316//316
f 293//293 318//318 294//294
f 318//318 293//293 317//317
f 294//294 308//308 284//284
f 308//308 294//294 318//318
f 319//319 272//272 295//295
f 272//272 319//319 296//296
f 320//320 273//273 296//296
f 273//273 320//320 297//297
f 297//297 298//298 274//274
f 298//298 297//297 321//321
f 298//298 299//299 275//275
f 299//299 298//298 322//322
f 299//299 300//300 276//276
f 300//300 299//299 323//323
f 324//324 325//325 326//326
f 325//325 324//324 327//327
f 325//325 327//327 328//328
f 328//328 327//327 329//329
f 328//328 329//329 330//330
f 330//330 329//329 331//331
f 330//330 331//331 332//332
f 332//332 331//331 333//333
f 332//332 333//333 334//334
f 334//334 333//333 335//335
f 334//334 335//335 336//336
f 336//336 335//335 337//337
f 336//336 337//337 338//338
f 338//338 337//337 339//339
f 338//338 339//339 340//340
f 340//340 339//339 341//341
f 340//340 341//341 342//342
f 342//342 341//341 343//343
f 342//342 343//343 344//344
f 344//344 343//343 345//345
f 344//344 345//345 346//346
f 346//346 345//345 347//347
f 301//301 302//302 277//277
f 302//302 301//301 348//348
f 302//302 303//303 278//278
f 303//303 302//302 349//349
f 279//279 350//350 304//304
f 350//350 279//279 303//303
f 280//280 351//351 305//305
f 351//351 280//280 304//304
f 281//281 352//352 306//306
f 352//352 281//281 305//305
f 307//307 353//353 354//354
f 353//353 307//307 308//308
f 309//309 354//354 355//355
f 354//354 309//309 307//307
f 310//310 355//355 356//356
f 355//355 310//310 309//309
f 311//311 356//356 357//357
f 356//356 311//311 310//310
f 357//357 312//312 311//311
f 312//312 357//357 358//358
f 358//358 313//313 312//312
f 313//313 358//358 359//359
f 359//359 314//314 313//313
f 314//314 359//359 360//360
f 360//360 295//295 314//314
f 295//295 360//360 319//319
f 306//306 361//361 315//315
f 361//361 306//306 352//352
f 315//315 362//362 316//316
f 362//362 315//315 361//361
f 316//316 363//363 317//317
f 363//363 316//316 362//362
f 318//318 363//363 364//364
f 363//363 318//318 317//317
f 308//308 364//364 353//353
f 364//364 308//308 318//318
f 365//365 296//296 319//319
f 296//296 365//365 320//320
f 366//366 297//297 320//320
f 297//297 366//366 321//321
f 321//321 322//322 298//298
f 322//322 321//321 367//367
f 322//322 323//323 299//299
f 323//323 322//322 368//368
f 369//369 370//370 371//371
f 370//370 369//369 372//372
f 373//373 371//371 374//374
f 371//371 373//373 369//369
f 375//375 373//373 374//374
f 373//373 375//375 376//376
f 377//377 376//376 375//375
f 376//376 377//377 378//378
f 379//379 378//378 377//377
f 378//378 379//379 380//380
f 381//381 380//380 379//379
f 380//380 381//381 382//382
f 383//383 382//382 381//381
f 382//382 383//383 384//384
f 349//349 384//384 383//383
f 384//384 349//349 385//385
f 348//348 349//349 302//302
f 349//349 348//348 385//385
f 367//367 368//368 322//322
f 368//368 367//367 386//386
f 386//386 387//387 388//388
f 387//387 386//386 367//367
f 388//388 389//389 390//390
f 389//389 388//388 387//387
f 390//390 391//391 392//392
f 391//391 390//390 389//389
f 392//392 393//393 394//394
f 393//393 392//392 391//391
f 394//394 395//395 396//396
f 395//395 394//394 393//393
f 396//396 397//397 398//398
f 397//397 396//396 395//395
f 399//399 398//398 397//397
f 398//398 399//399 400//400
f 401//401 400//400 399//399
f 400//400 401//401 402//402
f 403//403 402//402 401//401
f 402//402 403//403 404//404
f 372//372 403//403 370//370
f 403//403 372//372 404//404
f 303//303 383//383 350//350
f 383//383 303//303 349//349
f 304//304 405//405 351//351
f 405//405 304//304 350//350
f 305//305 406//406 352//352
f 406//406 305//305 351//351
f 407//407 354//354 353//353
f 354//354 407//407 408//408
f 354//354 409//409 355//355
f 409//409 354//354 408//408
f 355//355 410//410 356//356
f 410//410 355//355 409//409
f 356//356 411//411 357//357
f 411//411 356//356 410//410
f 411//411 358//358 357//357
f 358//358 411//411 412//412
f 412//412 359//359 358//358
f 359//359 412//412 413//413
f 413//413 360//360 359//359
f 360//360 413//413 414//414
f 414//414 319//319 360//360
f 319//319 414//414 365//365
f 352//352 415//415 361//361
f 415//415 352//352 406//406
f 361//361 416//416 362//362
f 416//416 361//361 415//415
f 362//362 417//417 363//363
f 417//417 362//362 416//416
f 417//417 364//364 363//363
f 364//364 417//417 418//418
f 418//418 353//353 364//364
f 353//353 418//418 407//407
f 419//419 320//320 365//365
f 320//320 419//419 366//366
f 387//387 321//321 366//366
f 321//321 387//387 367//367
f 371//371 420//420 421//421
f 420//420 371//371 370//370
f 374//374 421//421 422//422
f 421//421 374//374 371//371
f 423//423 374//374 422//422
f 374//374 423//423 375//375
f 424//424 375//375 423//423
f 375//375 424//424 377//377
f 425//425 377//377 424//424
f 377//377 425//425 379//379
f 405//405 379//379 425//425
f 379//379 405//405 381//381
f 350//350 381//381 405//405
f 381//381 350//350 383//383
f 389//389 366//366 419//419
f 366//366 389//389 387//387
f 391//391 419//419 426//426
f 419//419 391//391 389//389
f 393//393 426//426 427//427
f 426//426 393//393 391//391
f 395//395 427//427 428//428
f 427//427 395//395 393//393
f 397//397 428//428 429//429
f 428//428 397//397 395//395
f 430//430 397//397 429//429
f 397//397 430//430 399//399
f 431//431 399//399 430//430
f 399//399 431//431 401//401
f 432//432 401//401 431//431
f 401//401 432//432 403//403
f 370//370 432//432 420//420
f 432//432 370//370 403//403
f 351//351 425//425 406//406
f 425//425 351//351 405//405
f 420//420 408//408 407//407
f 408//408 420//420 432//432
f 408//408 431//431 409//409
f 431//431 408//408 432//432
f 409//409 430//430 410//410
f 430//430 409//409 431//431
f 410//410 429//429 411//411
f 429//429 410//410 430//430
f 429//429 412//412 411//411
f 412//412 429//429 428//428
f 428//428 413//413 412//412
f 413//413 428//428 427//427
f 427//427 414//414 413//413
f 414//414 427//427 426//426
f 426//426 365//365 414//414
f 365//365 426//426 419//419
f 406//406 424//424 415//415
f 424//424 406//406 425//425
f 415//415 423//423 416//416
f 423//423 415//415 424//424
f 416//416 422//422 417//417
f 422//422 416//416 423//423
f 422//422 418//418 417//417
f 418//418 422//422 421//421
f 421//421 407//407 418//418
f 407//407 421//421 420//420
# 764 faces, 0 coords texture

# End of File
