####
#
# OBJ File Generated by Meshlab
#
####
# Object original-131.obj
#
# Vertices: 101
# Faces: 102
#
####
mtllib ./original-131.obj.mtl

vn -0.023574 -0.004200 -3.113727
v -0.303518 0.229852 0.037049
vn -0.795910 -0.141838 -3.010521
v -0.264055 0.006191 0.037101
vn -0.816095 -0.145432 -2.995773
v -0.303907 0.229818 0.037101
vn 0.000733 0.000130 -3.113521
v -0.263671 0.006259 0.037049
vn -0.250666 2.871598 0.007426
v -0.303907 0.229818 0.037101
vn -0.253743 2.871026 -0.016363
v -0.303128 0.229886 0.037101
vn -0.250199 2.866246 0.002406
v -0.303518 0.229852 0.037049
vn -0.253663 2.870110 0.003919
v -0.304269 0.229786 0.037251
vn -0.253714 2.869879 0.003373
v -0.302766 0.229919 0.037251
vn -0.253587 2.868440 0.000275
v -0.304581 0.229758 0.037490
vn -0.253348 2.868598 0.002199
v -0.302454 0.229946 0.037490
vn -0.253165 2.866522 -0.001584
v -0.304820 0.229737 0.037801
vn -0.252787 2.866555 0.001310
v -0.302215 0.229967 0.037801
vn -0.252937 2.868258 0.001582
v -0.304970 0.229724 0.038164
vn -0.253286 2.868228 -0.001091
v -0.302065 0.229980 0.038164
vn -0.253308 2.868480 -0.000269
v -0.305021 0.229719 0.038553
vn -0.253308 2.868480 -0.000269
v -0.302014 0.229985 0.038553
vn -0.253286 2.868228 -0.001091
v -0.304970 0.229724 0.038942
vn -0.252937 2.868258 0.001582
v -0.302065 0.229980 0.038942
vn -0.252923 2.868101 0.001310
v -0.304820 0.229737 0.039305
vn -0.253301 2.868067 -0.001583
v -0.302215 0.229967 0.039305
vn -0.253200 2.866917 -0.000521
v -0.304581 0.229758 0.039617
vn -0.253462 2.867029 -0.002439
v -0.302454 0.229946 0.039617
vn -0.253734 2.870104 -0.004405
v -0.304269 0.229786 0.039856
vn -0.253643 2.869884 -0.003859
v -0.302766 0.229919 0.039856
vn -0.253551 2.868828 0.001679
v -0.303907 0.229818 0.040006
vn -0.250415 2.868726 0.025469
v -0.303128 0.229886 0.040006
vn -0.250636 2.871255 -0.002457
v -0.303518 0.229852 0.040057
vn 0.777943 0.138637 -3.023139
v -0.303128 0.229886 0.037101
vn 0.795478 0.141762 -3.006989
v -0.263288 0.006327 0.037101
vn 0.503223 -2.838028 0.012835
v -0.263288 0.006327 0.037101
vn 0.505528 -2.837306 -0.005399
v -0.264055 0.006191 0.037101
vn 0.502147 -2.831962 0.004828
v -0.263671 0.006259 0.037049
vn 0.504893 -2.833734 0.005529
v -0.262931 0.006391 0.037251
vn 0.506101 -2.833521 -0.003797
v -0.264412 0.006127 0.037251
vn 0.506887 -2.837922 -0.000400
v -0.262625 0.006446 0.037490
vn 0.505992 -2.837707 0.006016
v -0.264718 0.006072 0.037490
vn 0.505105 -2.832731 -0.001955
v -0.262389 0.006488 0.037801
vn 0.505007 -2.833522 -0.000168
v -0.264954 0.006031 0.037801
vn 0.505149 -2.834315 -0.000892
v -0.262241 0.006514 0.038164
vn 0.505256 -2.833876 -0.002278
v -0.265102 0.006004 0.038164
vn 0.505834 -2.837122 -0.000046
v -0.262191 0.006523 0.038553
vn 0.505834 -2.837122 -0.000046
v -0.265152 0.005995 0.038553
vn 0.505328 -2.834283 0.000917
v -0.262241 0.006514 0.038942
vn 0.505076 -2.833908 0.002303
v -0.265102 0.006004 0.038942
vn 0.505146 -2.834300 0.002262
v -0.262389 0.006488 0.039305
vn 0.505511 -2.835009 0.000481
v -0.264954 0.006031 0.039305
vn 0.505785 -2.836543 -0.001036
v -0.262625 0.006446 0.039617
vn 0.506549 -2.836027 -0.007417
v -0.264718 0.006072 0.039617
vn 0.506101 -2.833521 -0.003797
v -0.262931 0.006391 0.039856
vn 0.504893 -2.833734 0.005529
v -0.264412 0.006127 0.039856
vn 0.505145 -2.835145 -0.005844
v -0.263288 0.006327 0.040006
vn 0.502725 -2.835220 0.012390
v -0.264055 0.006191 0.040006
vn 0.503028 -2.836931 -0.004932
v -0.263671 0.006259 0.040057
vn -1.533854 -0.273341 -2.696958
v -0.264412 0.006127 0.037251
vn -1.542843 -0.274947 -2.677737
v -0.304269 0.229786 0.037251
vn -2.162755 -0.389088 -2.203253
v -0.264718 0.006072 0.037490
vn -2.167425 -0.386195 -2.182408
v -0.304581 0.229758 0.037490
vn -5.481041 -0.978554 -2.347242
v -0.265504 0.009118 0.037788
vn -2.658076 -0.477673 -1.560112
v -0.264954 0.006031 0.037801
vn -2.644569 -0.471192 -1.536969
v -0.304820 0.229737 0.037801
vn -2.941270 -0.524118 -0.792448
v -0.304970 0.229724 0.038164
vn -2.960766 -0.527790 -0.804359
v -0.265102 0.006004 0.038164
vn -6.133040 -1.092974 -0.000000
v -0.265593 0.008468 0.038553
vn -3.066348 -0.546809 -0.000000
v -0.265152 0.005995 0.038553
vn -6.138846 -1.093890 -0.000000
v -0.265727 0.009220 0.038553
vn -3.046508 -0.542903 0.000000
v -0.305021 0.229719 0.038553
vn -2.960766 -0.527790 0.804359
v -0.265102 0.006004 0.038942
vn -2.941270 -0.524118 0.792448
v -0.304970 0.229724 0.038942
vn -2.659532 -0.477924 1.558176
v -0.264954 0.006031 0.039305
vn -5.484205 -0.979118 2.343234
v -0.265504 0.009118 0.039318
vn -2.646063 -0.471458 1.535170
v -0.304820 0.229737 0.039305
vn -2.164226 -0.389342 2.201327
v -0.264718 0.006072 0.039617
vn -2.168850 -0.386449 2.180343
v -0.304581 0.229758 0.039617
vn -1.542843 -0.274947 2.677737
v -0.304269 0.229786 0.039856
vn -1.533854 -0.273341 2.696958
v -0.264412 0.006127 0.039856
vn -0.812436 -0.144780 2.996235
v -0.303907 0.229818 0.040006
vn -0.792044 -0.141149 3.011040
v -0.264055 0.006191 0.040006
vn -0.023136 -0.004122 3.114767
v -0.303518 0.229852 0.040057
vn 0.000719 0.000127 3.114560
v -0.263671 0.006259 0.040057
vn 0.773864 0.137910 3.023716
v -0.303128 0.229886 0.040006
vn 0.791606 0.141072 3.007510
v -0.263288 0.006327 0.040006
vn 1.519244 0.270744 2.714262
v -0.302766 0.229919 0.039856
vn 1.533156 0.273220 2.696857
v -0.262931 0.006391 0.039856
vn 2.168882 0.386516 2.225914
v -0.302454 0.229946 0.039617
vn 2.169601 0.386635 2.203372
v -0.262625 0.006446 0.039617
vn 2.655885 0.473299 1.558068
v -0.262389 0.006488 0.039305
vn 2.667887 0.475444 1.574618
v -0.302215 0.229967 0.039305
vn 2.961183 0.527712 0.803827
v -0.262241 0.006514 0.038942
vn 2.983840 0.531747 0.816063
v -0.302065 0.229980 0.038942
vn 3.067258 0.546618 -0.000000
v -0.262191 0.006523 0.038553
vn 6.184284 1.103314 0.000000
v -0.262538 0.008468 0.038553
vn 3.086562 0.550049 -0.000000
v -0.302014 0.229985 0.038553
vn 2.983840 0.531747 -0.816063
v -0.302065 0.229980 0.038164
vn 2.961183 0.527712 -0.803827
v -0.262241 0.006514 0.038164
vn 2.666463 0.475190 -1.576683
v -0.302215 0.229967 0.037801
vn 2.654422 0.473038 -1.559999
v -0.262389 0.006488 0.037801
vn 2.167388 0.386250 -2.227714
v -0.302454 0.229946 0.037490
vn 2.168137 0.386375 -2.205304
v -0.262625 0.006446 0.037490
vn 1.533156 0.273220 -2.696857
v -0.262931 0.006391 0.037251
vn 1.519244 0.270744 -2.714262
v -0.302766 0.229919 0.037251
# 101 vertices, 0 vertices normals


usemtl material_0
f 1//1 2//2 3//3
f 2//2 1//1 4//4
f 5//5 6//6 7//7
f 6//6 5//5 8//8
f 6//6 8//8 9//9
f 9//9 8//8 10//10
f 9//9 10//10 11//11
f 11//11 10//10 12//12
f 11//11 12//12 13//13
f 13//13 12//12 14//14
f 13//13 14//14 15//15
f 15//15 14//14 16//16
f 15//15 16//16 17//17
f 17//17 16//16 18//18
f 17//17 18//18 19//19
f 19//19 18//18 20//20
f 19//19 20//20 21//21
f 21//21 20//20 22//22
f 21//21 22//22 23//23
f 23//23 22//22 24//24
f 23//23 24//24 25//25
f 25//25 24//24 26//26
f 25//25 26//26 27//27
f 27//27 26//26 28//28
f 29//29 4//4 1//1
f 4//4 29//29 30//30
f 31//31 32//32 33//33
f 32//32 31//31 34//34
f 32//32 34//34 35//35
f 35//35 34//34 36//36
f 35//35 36//36 37//37
f 37//37 36//36 38//38
f 37//37 38//38 39//39
f 39//39 38//38 40//40
f 39//39 40//40 41//41
f 41//41 40//40 42//42
f 41//41 42//42 43//43
f 43//43 42//42 44//44
f 43//43 44//44 45//45
f 45//45 44//44 46//46
f 45//45 46//46 47//47
f 47//47 46//46 48//48
f 47//47 48//48 49//49
f 49//49 48//48 50//50
f 49//49 50//50 51//51
f 51//51 50//50 52//52
f 51//51 52//52 53//53
f 53//53 52//52 54//54
f 3//3 55//55 56//56
f 55//55 3//3 2//2
f 56//56 57//57 58//58
f 57//57 56//56 55//55
f 59//59 57//57 60//60
f 57//57 59//59 58//58
f 58//58 59//59 61//61
f 62//62 60//60 63//63
f 60//60 62//62 59//59
f 59//59 62//62 61//61
f 64//64 63//63 65//65
f 63//63 64//64 62//62
f 62//62 64//64 66//66
f 62//62 66//66 67//67
f 68//68 64//64 65//65
f 64//64 68//68 69//69
f 64//64 69//69 66//66
f 66//66 69//69 67//67
f 70//70 69//69 68//68
f 69//69 70//70 71//71
f 69//69 71//71 72//72
f 73//73 71//71 70//70
f 71//71 73//73 74//74
f 71//71 74//74 72//72
f 73//73 75//75 74//74
f 75//75 73//73 76//76
f 76//76 77//77 75//75
f 77//77 76//76 78//78
f 78//78 79//79 77//77
f 79//79 78//78 80//80
f 80//80 81//81 79//79
f 81//81 80//80 82//82
f 82//82 83//83 81//81
f 83//83 82//82 84//84
f 84//84 85//85 83//83
f 85//85 84//84 86//86
f 87//87 85//85 86//86
f 85//85 87//87 88//88
f 89//89 88//88 87//87
f 88//88 89//89 90//90
f 91//91 90//90 89//89
f 90//90 91//91 92//92
f 90//90 92//92 93//93
f 94//94 91//91 95//95
f 91//91 94//94 92//92
f 92//92 94//94 93//93
f 96//96 95//95 97//97
f 95//95 96//96 94//94
f 98//98 97//97 99//99
f 97//97 98//98 96//96
f 98//98 100//100 101//101
f 100//100 98//98 99//99
f 101//101 30//30 29//29
f 30//30 101//101 100//100
# 102 faces, 0 coords texture

# End of File
