####
#
# OBJ File Generated by Meshlab
#
####
# Object original-186.obj
#
# Vertices: 96
# Faces: 96
#
####
mtllib ./original-186.obj.mtl

vn -2.696235 -0.009170 1.558467
v -0.329487 -0.591090 0.302433
vn -3.008449 -0.004742 0.805900
v -0.329186 -0.591094 0.303159
vn -2.696504 -0.009302 1.557962
v -0.329487 -0.594818 0.302411
vn -3.008351 -0.004742 0.805965
v -0.329186 -0.594822 0.303137
vn 3.008449 0.004742 -0.805900
v -0.329186 -0.591094 0.303159
vn 2.696504 0.009302 -1.557962
v -0.329487 -0.594818 0.302411
vn 3.008351 0.004742 -0.805965
v -0.329186 -0.594822 0.303137
vn 2.696235 0.009170 -1.558467
v -0.329487 -0.591090 0.302433
vn -3.113982 -0.000001 0.000239
v -0.329084 -0.591099 0.303937
vn -3.114967 0.000028 0.000070
v -0.329084 -0.594826 0.303915
vn 3.113982 0.000001 -0.000239
v -0.329084 -0.591099 0.303937
vn 3.114967 -0.000028 -0.000070
v -0.329084 -0.594826 0.303915
vn -2.202523 -0.013189 2.203519
v -0.329965 -0.591087 0.301811
vn -2.202517 -0.013319 2.202684
v -0.329965 -0.594814 0.301789
vn 2.202523 0.013189 -2.203519
v -0.329965 -0.591087 0.301811
vn 2.202517 0.013319 -2.202684
v -0.329965 -0.594814 0.301789
vn -3.009351 0.004845 -0.805997
v -0.329186 -0.591104 0.304716
vn -3.008470 0.004873 -0.805862
v -0.329186 -0.594831 0.304694
vn 3.009351 -0.004845 0.805997
v -0.329186 -0.591104 0.304716
vn 3.008470 -0.004873 0.805862
v -0.329186 -0.594831 0.304694
vn -1.558758 -0.016311 2.697458
v -0.330588 -0.591084 0.301333
vn -1.557800 -0.016107 2.697648
v -0.330588 -0.594811 0.301311
vn 1.558758 0.016311 -2.697458
v -0.330588 -0.591084 0.301333
vn 1.557800 0.016107 -2.697648
v -0.330588 -0.594811 0.301311
vn -2.696881 0.009428 -1.559108
v -0.329487 -0.591108 0.305442
vn -2.697465 0.009289 -1.558553
v -0.329487 -0.594835 0.305419
vn 2.696881 -0.009428 1.559108
v -0.329487 -0.591108 0.305442
vn 2.697465 -0.009289 1.558553
v -0.329487 -0.594835 0.305419
vn -0.807360 -0.017897 3.006828
v -0.331313 -0.591081 0.301032
vn -0.805295 -0.017412 3.008070
v -0.331313 -0.594809 0.301010
vn 0.807360 0.017897 -3.006828
v -0.331313 -0.591081 0.301032
vn 0.805295 0.017412 -3.008070
v -0.331313 -0.594809 0.301010
vn -2.201365 0.013095 -2.202577
v -0.329965 -0.591111 0.306064
vn -2.202068 0.012959 -2.202394
v -0.329965 -0.594839 0.306042
vn 2.201365 -0.013095 2.202577
v -0.329965 -0.591111 0.306064
vn 2.202068 -0.012959 2.202394
v -0.329965 -0.594839 0.306042
vn 0.000467 -0.017956 3.115583
v -0.332092 -0.591081 0.300929
vn 0.000465 -0.017955 3.115368
v -0.332092 -0.594809 0.300908
vn -0.000467 0.017956 -3.115583
v -0.332092 -0.591081 0.300929
vn -0.000465 0.017955 -3.115368
v -0.332092 -0.594809 0.300908
vn -1.557298 0.015869 -2.696933
v -0.330588 -0.594842 0.306520
vn -1.558210 0.016071 -2.696418
v -0.330588 -0.591114 0.306542
vn 1.557298 -0.015869 2.696933
v -0.330588 -0.594842 0.306520
vn 1.558210 -0.016071 2.696418
v -0.330588 -0.591114 0.306542
vn 0.806843 -0.017406 3.007061
v -0.332870 -0.591081 0.301032
vn 0.804776 -0.017906 3.008297
v -0.332870 -0.594809 0.301010
vn -0.806843 0.017406 -3.007061
v -0.332870 -0.591081 0.301032
vn -0.804776 0.017906 -3.008297
v -0.332870 -0.594809 0.301010
vn -0.807007 0.017985 -3.008116
v -0.331313 -0.594843 0.306821
vn -0.806698 0.017904 -3.008537
v -0.331313 -0.591116 0.306843
vn 0.807007 -0.017985 3.008116
v -0.331313 -0.594843 0.306821
vn 0.806698 -0.017904 3.008537
v -0.331313 -0.591116 0.306843
vn 1.558880 -0.016104 2.697067
v -0.333596 -0.591084 0.301333
vn 1.557923 -0.016310 2.697254
v -0.333596 -0.594811 0.301311
vn -1.558880 0.016104 -2.697067
v -0.333596 -0.591084 0.301333
vn -1.557923 0.016310 -2.697254
v -0.333596 -0.594811 0.301311
vn 0.000467 0.018463 -3.115622
v -0.332092 -0.594844 0.306923
vn 0.000465 0.018462 -3.115323
v -0.332092 -0.591117 0.306945
vn -0.000467 -0.018463 3.115622
v -0.332092 -0.594844 0.306923
vn -0.000465 -0.018462 3.115323
v -0.332092 -0.591117 0.306945
vn 2.203490 -0.013185 2.202776
v -0.334218 -0.591087 0.301811
vn 2.203484 -0.013315 2.201941
v -0.334218 -0.594814 0.301789
vn -2.203490 0.013185 -2.202776
v -0.334218 -0.591087 0.301811
vn -2.203484 0.013315 -2.201941
v -0.334218 -0.594814 0.301789
vn 0.806216 0.017903 -3.008458
v -0.332870 -0.594843 0.306821
vn 0.805903 0.017989 -3.008879
v -0.332870 -0.591116 0.306843
vn -0.806216 -0.017903 3.008458
v -0.332870 -0.594843 0.306821
vn -0.805903 -0.017989 3.008879
v -0.332870 -0.591116 0.306843
vn 2.696235 -0.009170 1.558467
v -0.334696 -0.591090 0.302433
vn 2.696504 -0.009302 1.557962
v -0.334696 -0.594818 0.302411
vn -2.696504 0.009302 -1.557962
v -0.334696 -0.594818 0.302411
vn -2.696235 0.009170 -1.558467
v -0.334696 -0.591090 0.302433
vn 1.557695 0.016071 -2.696426
v -0.333596 -0.594842 0.306520
vn 1.558607 0.015863 -2.695914
v -0.333596 -0.591114 0.306542
vn -1.557695 -0.016071 2.696426
v -0.333596 -0.594842 0.306520
vn -1.558607 -0.015863 2.695914
v -0.333596 -0.591114 0.306542
vn 3.008449 -0.004742 0.805900
v -0.334997 -0.591094 0.303159
vn 3.008351 -0.004742 0.805965
v -0.334997 -0.594822 0.303137
vn -3.008449 0.004742 -0.805900
v -0.334997 -0.591094 0.303159
vn -3.008351 0.004742 -0.805965
v -0.334997 -0.594822 0.303137
vn 2.202976 0.013090 -2.201728
v -0.334218 -0.594839 0.306042
vn 2.202272 0.012956 -2.201913
v -0.334218 -0.591111 0.306064
vn -2.202976 -0.013090 2.201728
v -0.334218 -0.594839 0.306042
vn -2.202272 -0.012956 2.201913
v -0.334218 -0.591111 0.306064
vn 3.113979 0.000027 0.000218
v -0.335099 -0.591099 0.303937
vn 3.114965 -0.000000 0.000049
v -0.335099 -0.594826 0.303915
vn -3.114965 0.000000 -0.000049
v -0.335099 -0.594826 0.303915
vn -3.113979 -0.000027 -0.000218
v -0.335099 -0.591099 0.303937
vn 2.696940 0.009292 -1.559031
v -0.334696 -0.591108 0.305442
vn 2.697525 0.009424 -1.558475
v -0.334696 -0.594835 0.305419
vn -2.696940 -0.009292 1.559031
v -0.334696 -0.591108 0.305442
vn -2.697525 -0.009424 1.558475
v -0.334696 -0.594835 0.305419
vn 3.009354 0.004874 -0.805976
v -0.334997 -0.591104 0.304716
vn 3.008472 0.004844 -0.805842
v -0.334997 -0.594831 0.304694
vn -3.008472 -0.004844 0.805842
v -0.334997 -0.594831 0.304694
vn -3.009354 -0.004874 0.805976
v -0.334997 -0.591104 0.304716
# 96 vertices, 0 vertices normals


usemtl material_0
vt 0.001158 0.000000
vt 0.001680 0.002479
vt 0.001158 0.002479
f 3/1/3 2/2/2 1/3/1
vt 0.001680 0.000000
f 2/2/2 3/1/3 4/4/4
f 7/4/7 6/1/6 5/2/5
f 8/3/8 5/2/5 6/1/6
vt -0.011345 0.000000
vt -0.010823 0.002479
vt -0.011345 0.002479
f 4/5/4 9/6/9 2/7/2
vt -0.010823 0.000000
f 9/6/9 4/5/4 10/8/10
f 12/8/12 7/5/7 11/6/11
f 5/7/5 11/6/11 7/5/7
vt 0.013564 0.002479
vt 0.014086 0.000000
vt 0.014086 0.002479
f 13/9/13 3/10/3 1/11/1
vt 0.013564 -0.000000
f 3/10/3 13/9/13 14/12/14
f 16/12/16 15/9/15 6/10/6
f 8/11/8 6/10/6 15/9/15
vt -0.023092 0.000000
vt -0.022570 0.002479
vt -0.023092 0.002479
f 10/13/10 17/14/17 9/15/9
vt -0.022570 0.000000
f 17/14/17 10/13/10 18/16/18
f 20/16/20 12/13/12 19/14/19
f 11/15/11 19/14/19 12/13/12
vt 0.025028 0.002479
vt 0.025550 -0.000000
vt 0.025550 0.002479
f 21/17/21 14/18/14 13/19/13
vt 0.025028 -0.000000
f 14/18/14 21/17/21 22/20/22
f 24/20/24 23/17/23 16/18/16
f 15/19/15 16/18/16 23/17/23
vt -0.033283 0.000000
vt -0.032761 0.002479
vt -0.033283 0.002479
f 18/21/18 25/22/25 17/23/17
vt -0.032761 0.000000
f 25/22/25 18/21/18 26/24/26
f 28/24/28 20/21/20 27/22/27
f 19/23/19 27/22/27 20/21/20
vt 0.034768 0.002479
vt 0.035290 -0.000000
vt 0.035290 0.002479
f 29/25/29 22/26/22 21/27/21
vt 0.034768 -0.000000
f 22/26/22 29/25/29 30/28/30
f 32/28/32 31/25/31 24/26/24
f 23/27/23 24/26/24 31/25/31
vt -0.041225 0.000000
vt -0.040702 0.002479
vt -0.041225 0.002479
f 26/29/26 33/30/33 25/31/25
vt -0.040702 0.000000
f 33/30/33 26/29/26 34/32/34
f 36/32/36 28/29/28 35/30/35
f 27/31/27 35/30/35 28/29/28
vt 0.042121 0.002479
vt 0.042644 0.000000
vt 0.042644 0.002479
f 37/33/37 30/34/30 29/35/29
vt 0.042121 0.000000
f 30/34/30 37/33/37 38/36/38
f 40/36/40 39/33/39 32/34/32
f 31/35/31 32/34/32 39/33/39
vt -0.045852 0.000000
vt -0.046374 0.002479
vt -0.046374 0.000000
f 41/37/41 33/38/33 34/39/34
vt -0.045852 0.002479
f 33/38/33 41/37/41 42/40/42
f 44/40/44 43/37/43 35/38/35
f 36/39/36 35/38/35 43/37/43
vt 0.046586 0.002479
vt 0.047109 0.000000
vt 0.047109 0.002479
f 45/41/45 38/42/38 37/43/37
vt 0.046586 0.000000
f 38/42/38 45/41/45 46/44/46
f 48/44/48 47/41/47 40/42/40
f 39/43/39 40/42/40 47/41/47
vt -0.047859 0.000000
vt -0.048381 0.002479
vt -0.048381 0.000000
f 49/45/49 42/46/42 41/47/41
vt -0.047859 0.002479
f 42/46/42 49/45/49 50/48/50
f 52/48/52 51/45/51 44/46/44
f 43/47/43 44/46/44 51/45/51
vt 0.047859 0.002479
vt 0.048381 0.000000
vt 0.048381 0.002479
f 53/49/53 46/50/46 45/51/45
vt 0.047859 0.000000
f 46/50/46 53/49/53 54/52/54
f 56/52/56 55/49/55 48/50/48
f 47/51/47 48/50/48 55/49/55
vt -0.046586 0.000000
vt -0.047109 0.002479
vt -0.047109 0.000000
f 57/53/57 50/54/50 49/55/49
vt -0.046586 0.002479
f 50/54/50 57/53/57 58/56/58
f 60/56/60 59/53/59 52/54/52
f 51/55/51 52/54/52 59/53/59
vt 0.045852 0.002479
vt 0.046374 0.000000
vt 0.046374 0.002479
f 61/57/61 54/58/54 53/59/53
vt 0.045852 0.000000
f 54/58/54 61/57/61 62/60/62
f 64/60/64 63/57/63 56/58/56
f 55/59/55 56/58/56 63/57/63
vt -0.042121 -0.000000
vt -0.042644 0.002479
vt -0.042644 -0.000000
f 65/61/65 58/62/58 57/63/57
vt -0.042121 0.002479
f 58/62/58 65/61/65 66/64/66
f 68/64/68 67/61/67 60/62/60
f 59/63/59 60/62/60 67/61/67
vt 0.040702 0.000000
vt 0.041225 0.002479
vt 0.040702 0.002479
f 70/65/70 61/66/61 69/67/69
vt 0.041225 0.000000
f 61/66/61 70/65/70 62/68/62
f 64/68/64 71/65/71 63/66/63
f 72/67/72 63/66/63 71/65/71
vt -0.034768 -0.000000
vt -0.035290 0.002479
vt -0.035290 -0.000000
f 73/69/73 66/70/66 65/71/65
vt -0.034768 0.002479
f 66/70/66 73/69/73 74/72/74
f 76/72/76 75/69/75 68/70/68
f 67/71/67 68/70/68 75/69/75
vt 0.032761 0.002479
vt 0.033283 0.000000
vt 0.033283 0.002479
f 77/73/77 70/74/70 69/75/69
vt 0.032761 0.000000
f 70/74/70 77/73/77 78/76/78
f 80/76/80 79/73/79 71/74/71
f 72/75/72 71/74/71 79/73/79
vt -0.025028 -0.000000
vt -0.025550 0.002479
vt -0.025550 -0.000000
f 81/77/81 74/78/74 73/79/73
vt -0.025028 0.002479
f 74/78/74 81/77/81 82/80/82
f 84/80/84 83/77/83 76/78/76
f 75/79/75 76/78/76 83/77/83
vt 0.022570 0.000000
vt 0.023092 0.002479
vt 0.022570 0.002479
f 86/81/86 77/82/77 85/83/85
vt 0.023092 0.000000
f 77/82/77 86/81/86 78/84/78
f 80/84/80 87/81/87 79/82/79
f 88/83/88 79/82/79 87/81/87
vt -0.014086 -0.000000
vt -0.013564 0.002479
vt -0.014086 0.002479
f 81/85/81 89/86/89 82/87/82
vt -0.013564 -0.000000
f 89/86/89 81/85/81 90/88/90
f 92/88/92 83/85/83 91/86/91
f 84/87/84 91/86/91 83/85/83
vt 0.010823 0.000000
vt 0.011345 0.002479
vt 0.010823 0.002479
f 94/89/94 85/90/85 93/91/93
vt 0.011345 0.000000
f 85/90/85 94/89/94 86/92/86
f 87/92/87 95/89/95 88/90/88
f 96/91/96 88/90/88 95/89/95
vt -0.001680 0.000000
vt -0.001158 0.002479
vt -0.001680 0.002479
f 90/93/90 93/94/93 89/95/89
vt -0.001158 0.000000
f 93/94/93 90/93/90 94/96/94
f 95/96/95 92/93/92 96/94/96
f 91/95/91 96/94/96 92/93/92
# 96 faces, 96 coords texture

# End of File
