####
#
# OBJ File Generated by Meshlab
#
####
# Object original-102.obj
#
# Vertices: 96
# Faces: 92
#
####
mtllib ./original-102.obj.mtl

vn 0.000000 2.697974 1.556074
v -0.423830 0.279078 -0.336670
vn 0.000000 3.008943 0.806050
v -0.381720 0.279378 -0.337396
vn 0.000000 3.008943 0.806050
v -0.423830 0.279378 -0.337396
vn 0.000000 2.697974 1.556074
v -0.381720 0.279078 -0.336670
vn 2.880711 0.000000 0.000000
v -0.381720 0.273568 -0.338953
vn 2.881365 0.000000 0.000000
v -0.381720 0.273568 -0.337396
vn 2.878509 0.000000 0.000000
v -0.381720 0.273465 -0.338174
vn 2.879480 0.000000 0.000000
v -0.381720 0.273868 -0.339678
vn 2.878993 0.000000 0.000000
v -0.381720 0.273868 -0.336670
vn 2.879703 0.000000 0.000000
v -0.381720 0.274346 -0.340301
vn 2.879703 0.000000 0.000000
v -0.381720 0.274346 -0.336047
vn 2.880169 0.000000 0.000000
v -0.381720 0.274969 -0.340779
vn 2.878993 0.000000 0.000000
v -0.381720 0.274969 -0.335569
vn 2.878925 0.000000 0.000000
v -0.381720 0.275695 -0.341080
vn 2.880101 0.000000 0.000000
v -0.381720 0.275695 -0.335269
vn 2.881034 0.000000 0.000000
v -0.381720 0.276473 -0.341182
vn 2.881034 0.000000 0.000000
v -0.381720 0.276473 -0.335167
vn 2.878272 0.000000 0.000000
v -0.381720 0.277252 -0.341080
vn 2.879449 0.000000 0.000000
v -0.381720 0.277252 -0.335269
vn 2.880657 0.000000 0.000000
v -0.381720 0.277977 -0.340779
vn 2.879480 0.000000 0.000000
v -0.381720 0.277977 -0.335569
vn 2.879703 0.000000 0.000000
v -0.381720 0.278600 -0.340301
vn 2.879703 0.000000 0.000000
v -0.381720 0.278600 -0.336047
vn 2.879480 0.000000 0.000000
v -0.381720 0.279078 -0.339678
vn 2.878993 0.000000 0.000000
v -0.381720 0.279078 -0.336670
vn 2.880711 0.000000 0.000000
v -0.381720 0.279378 -0.338953
vn 2.881365 0.000000 0.000000
v -0.381720 0.279378 -0.337396
vn 2.878509 0.000000 0.000000
v -0.381720 0.279481 -0.338174
vn 0.000000 3.114452 0.000260
v -0.381720 0.279481 -0.338174
vn 0.000000 3.114452 0.000260
v -0.423830 0.279481 -0.338174
vn -2.881365 0.000000 0.000000
v -0.423830 0.273568 -0.337396
vn -2.880711 0.000000 0.000000
v -0.423830 0.273568 -0.338953
vn -2.878509 0.000000 0.000000
v -0.423830 0.273465 -0.338174
vn -2.878993 0.000000 0.000000
v -0.423830 0.273868 -0.336670
vn -2.879480 0.000000 0.000000
v -0.423830 0.273868 -0.339678
vn -2.879703 0.000000 0.000000
v -0.423830 0.274346 -0.336047
vn -2.879703 0.000000 0.000000
v -0.423830 0.274346 -0.340301
vn -2.878993 0.000000 0.000000
v -0.423830 0.274969 -0.335569
vn -2.880169 0.000000 0.000000
v -0.423830 0.274969 -0.340779
vn -2.880101 0.000000 0.000000
v -0.423830 0.275695 -0.335269
vn -2.878925 0.000000 0.000000
v -0.423830 0.275695 -0.341080
vn -2.881034 0.000000 0.000000
v -0.423830 0.276473 -0.335167
vn -2.881034 0.000000 0.000000
v -0.423830 0.276473 -0.341182
vn -2.879449 0.000000 0.000000
v -0.423830 0.277252 -0.335269
vn -2.878272 0.000000 0.000000
v -0.423830 0.277252 -0.341080
vn -2.879480 0.000000 0.000000
v -0.423830 0.277977 -0.335569
vn -2.880657 0.000000 0.000000
v -0.423830 0.277977 -0.340779
vn -2.879703 0.000000 0.000000
v -0.423830 0.278600 -0.336047
vn -2.879703 0.000000 0.000000
v -0.423830 0.278600 -0.340301
vn -2.878993 0.000000 0.000000
v -0.423830 0.279078 -0.336670
vn -2.879480 0.000000 0.000000
v -0.423830 0.279078 -0.339678
vn -2.881365 0.000000 0.000000
v -0.423830 0.279378 -0.337396
vn -2.880711 0.000000 0.000000
v -0.423830 0.279378 -0.338953
vn -2.878509 0.000000 0.000000
v -0.423830 0.279481 -0.338174
vn 0.000000 2.202424 2.202424
v -0.423830 0.278600 -0.336047
vn 0.000000 2.202424 2.202424
v -0.381720 0.278600 -0.336047
vn 0.000000 1.556781 2.697682
v -0.381720 0.277977 -0.335569
vn 0.000000 1.556781 2.697682
v -0.423830 0.277977 -0.335569
vn 0.000000 0.804532 3.008944
v -0.381720 0.277252 -0.335269
vn 0.000000 0.804532 3.008944
v -0.423830 0.277252 -0.335269
vn 0.000000 -0.000258 3.114970
v -0.381720 0.276473 -0.335167
vn 0.000000 -0.000258 3.114970
v -0.423830 0.276473 -0.335167
vn 0.000000 -0.804083 3.009202
v -0.381720 0.275695 -0.335269
vn 0.000000 -0.804083 3.009202
v -0.423830 0.275695 -0.335269
vn 0.000000 -1.556074 2.697974
v -0.381720 0.274969 -0.335569
vn 0.000000 -1.556074 2.697974
v -0.423830 0.274969 -0.335569
vn 0.000000 -2.202424 2.202424
v -0.381720 0.274346 -0.336047
vn 0.000000 -2.202424 2.202424
v -0.423830 0.274346 -0.336047
vn 0.000000 -2.697974 1.556074
v -0.423830 0.273868 -0.336670
vn 0.000000 -2.697974 1.556074
v -0.381720 0.273868 -0.336670
vn 0.000000 -3.008943 0.806050
v -0.423830 0.273568 -0.337396
vn 0.000000 -3.008943 0.806050
v -0.381720 0.273568 -0.337396
vn 0.000000 -3.114452 0.000260
v -0.423830 0.273465 -0.338174
vn 0.000000 -3.114452 0.000260
v -0.381720 0.273465 -0.338174
vn 0.000000 -3.008685 -0.806497
v -0.423830 0.273568 -0.338953
vn 0.000000 -3.008685 -0.806497
v -0.381720 0.273568 -0.338953
vn 0.000000 -2.697682 -1.556781
v -0.423830 0.273868 -0.339678
vn 0.000000 -2.697682 -1.556781
v -0.381720 0.273868 -0.339678
vn 0.000000 -2.202424 -2.202424
v -0.423830 0.274346 -0.340301
vn 0.000000 -2.202424 -2.202424
v -0.381720 0.274346 -0.340301
vn 0.000000 -1.557781 -2.697268
v -0.381720 0.274969 -0.340779
vn 0.000000 -1.557781 -2.697268
v -0.423830 0.274969 -0.340779
vn 0.000000 -0.805789 -3.008496
v -0.381720 0.275695 -0.341080
vn 0.000000 -0.805789 -3.008496
v -0.423830 0.275695 -0.341080
vn 0.000000 -0.000258 -3.114970
v -0.381720 0.276473 -0.341182
vn 0.000000 -0.000258 -3.114970
v -0.423830 0.276473 -0.341182
vn 0.000000 0.806240 -3.008236
v -0.381720 0.277252 -0.341080
vn 0.000000 0.806240 -3.008236
v -0.423830 0.277252 -0.341080
vn 0.000000 1.558489 -2.696974
v -0.381720 0.277977 -0.340779
vn 0.000000 1.558489 -2.696974
v -0.423830 0.277977 -0.340779
vn 0.000000 2.202424 -2.202424
v -0.381720 0.278600 -0.340301
vn 0.000000 2.202424 -2.202424
v -0.423830 0.278600 -0.340301
vn 0.000000 2.697682 -1.556781
v -0.423830 0.279078 -0.339678
vn 0.000000 2.697682 -1.556781
v -0.381720 0.279078 -0.339678
vn 0.000000 3.008685 -0.806497
v -0.423830 0.279378 -0.338953
vn 0.000000 3.008685 -0.806497
v -0.381720 0.279378 -0.338953
# 96 vertices, 0 vertices normals


usemtl material_0
f 1//1 2//2 3//3
f 2//2 1//1 4//4
f 5//5 6//6 7//7
f 6//6 5//5 8//8
f 6//6 8//8 9//9
f 9//9 8//8 10//10
f 9//9 10//10 11//11
f 11//11 10//10 12//12
f 11//11 12//12 13//13
f 13//13 12//12 14//14
f 13//13 14//14 15//15
f 15//15 14//14 16//16
f 15//15 16//16 17//17
f 17//17 16//16 18//18
f 17//17 18//18 19//19
f 19//19 18//18 20//20
f 19//19 20//20 21//21
f 21//21 20//20 22//22
f 21//21 22//22 23//23
f 23//23 22//22 24//24
f 23//23 24//24 25//25
f 25//25 24//24 26//26
f 25//25 26//26 27//27
f 27//27 26//26 28//28
f 3//3 29//29 30//30
f 29//29 3//3 2//2
f 31//31 32//32 33//33
f 32//32 31//31 34//34
f 32//32 34//34 35//35
f 35//35 34//34 36//36
f 35//35 36//36 37//37
f 37//37 36//36 38//38
f 37//37 38//38 39//39
f 39//39 38//38 40//40
f 39//39 40//40 41//41
f 41//41 40//40 42//42
f 41//41 42//42 43//43
f 43//43 42//42 44//44
f 43//43 44//44 45//45
f 45//45 44//44 46//46
f 45//45 46//46 47//47
f 47//47 46//46 48//48
f 47//47 48//48 49//49
f 49//49 48//48 50//50
f 49//49 50//50 51//51
f 51//51 50//50 52//52
f 51//51 52//52 53//53
f 53//53 52//52 54//54
f 55//55 4//4 1//1
f 4//4 55//55 56//56
f 57//57 55//55 58//58
f 55//55 57//57 56//56
f 59//59 58//58 60//60
f 58//58 59//59 57//57
f 61//61 60//60 62//62
f 60//60 61//61 59//59
f 63//63 62//62 64//64
f 62//62 63//63 61//61
f 65//65 64//64 66//66
f 64//64 65//65 63//63
f 67//67 66//66 68//68
f 66//66 67//67 65//65
f 67//67 69//69 70//70
f 69//69 67//67 68//68
f 70//70 71//71 72//72
f 71//71 70//70 69//69
f 72//72 73//73 74//74
f 73//73 72//72 71//71
f 74//74 75//75 76//76
f 75//75 74//74 73//73
f 76//76 77//77 78//78
f 77//77 76//76 75//75
f 78//78 79//79 80//80
f 79//79 78//78 77//77
f 81//81 79//79 82//82
f 79//79 81//81 80//80
f 83//83 82//82 84//84
f 82//82 83//83 81//81
f 85//85 84//84 86//86
f 84//84 85//85 83//83
f 87//87 86//86 88//88
f 86//86 87//87 85//85
f 89//89 88//88 90//90
f 88//88 89//89 87//87
f 91//91 90//90 92//92
f 90//90 91//91 89//89
f 93//93 91//91 92//92
f 91//91 93//93 94//94
f 95//95 94//94 93//93
f 94//94 95//95 96//96
f 30//30 96//96 95//95
f 96//96 30//30 29//29
# 92 faces, 0 coords texture

# End of File
