####
#
# OBJ File Generated by Meshlab
#
####
# Object original-5.obj
#
# Vertices: 256
# Faces: 240
#
####
mtllib ./original-5.obj.mtl

vn 1.570798 0.000000 0.000000
v 0.427379 -0.591034 0.293684
vn 1.570780 0.000000 0.000000
v 0.427379 0.399458 0.338318
vn 1.570796 0.000000 0.000000
v 0.427379 -0.591348 0.329670
vn 1.570812 0.000000 0.000000
v 0.427379 0.399771 0.302330
vn -1.570812 0.000000 0.000000
v 0.427379 0.399771 0.302330
vn -1.570798 0.000000 0.000000
v 0.427379 -0.591034 0.293684
vn -1.570780 0.000000 0.000000
v 0.427379 0.399458 0.338318
vn -1.570796 0.000000 0.000000
v 0.427379 -0.591348 0.329670
vn -0.000001 0.013708 -1.570737
v -0.459923 0.399771 0.302330
vn 0.000000 0.013707 -1.570737
v 0.427379 -0.591034 0.293684
vn 0.000000 0.013707 -1.570737
v -0.459923 -0.591034 0.293684
vn -0.000185 0.028318 -3.270580
v -0.187964 0.232586 0.300871
vn -0.000281 0.028320 -3.269467
v -0.185847 0.231571 0.300862
vn 0.000600 0.028977 -3.269402
v -0.183612 0.230833 0.300856
vn -0.000480 0.028171 -3.269059
v -0.181297 0.230385 0.300852
vn 0.000250 0.028153 -3.204969
v -0.178941 0.230235 0.300851
vn -0.011872 0.009238 -3.271203
v -0.189927 0.233861 0.300882
vn 0.000787 0.029852 -3.272478
v -0.191702 0.235374 0.300895
vn 0.000807 0.029889 -3.273406
v -0.193259 0.237100 0.300911
vn -0.000693 0.027442 -3.274241
v -0.194570 0.239008 0.300927
vn 0.000848 0.029986 -3.274714
v -0.195614 0.241066 0.300946
vn 0.000001 0.028581 -3.275478
v -0.196373 0.243239 0.300965
vn -0.000290 0.028099 -3.276339
v -0.196834 0.245490 0.300984
vn -0.000108 0.027819 -3.208616
v -0.196988 0.247780 0.301004
vn -0.000036 0.027896 -3.208615
v -0.196988 0.317960 0.301616
vn 0.000034 0.028722 -3.276280
v -0.196834 0.320250 0.301636
vn 0.000109 0.028959 -3.275527
v -0.196373 0.322501 0.301656
vn 0.000012 0.028616 -3.274845
v -0.195614 0.324674 0.301675
vn -0.000140 0.028063 -3.274117
v -0.194570 0.326732 0.301693
vn 0.000017 0.028655 -3.273417
v -0.193259 0.328640 0.301709
vn 0.000102 0.028957 -3.272486
v -0.191702 0.330366 0.301725
vn -0.000119 0.028070 -3.271122
v -0.189927 0.331879 0.301738
vn 0.000043 0.028734 -3.270577
v -0.187964 0.333154 0.301749
vn -0.000228 0.027588 -3.269473
v -0.185847 0.334169 0.301758
vn 0.000249 0.029627 -3.269396
v -0.183612 0.334907 0.301764
vn -0.000189 0.027722 -3.269063
v -0.181297 0.335355 0.301768
vn -0.000024 0.027886 -3.204971
v -0.178941 0.335505 0.301769
vn 0.000024 0.027887 -3.204998
v 0.145902 0.335505 0.301769
vn 0.000238 0.028432 -3.270579
v 0.154925 0.232586 0.300871
vn 0.000001 0.013708 -1.570737
v 0.427379 0.399771 0.302330
vn -0.000163 0.028475 -3.269465
v 0.152808 0.231571 0.300862
vn 0.000002 0.028532 -3.269486
v 0.150573 0.230833 0.300856
vn 0.000088 0.028555 -3.268949
v 0.148257 0.230385 0.300852
vn -0.000134 0.027922 -3.204997
v 0.145902 0.230235 0.300851
vn 0.011479 0.009844 -3.271203
v 0.156888 0.233861 0.300882
vn -0.000783 0.029849 -3.272797
v 0.158663 0.235374 0.300895
vn -0.000802 0.029878 -3.272730
v 0.160219 0.237100 0.300911
vn 0.000691 0.027447 -3.274597
v 0.161531 0.239008 0.300927
vn -0.000845 0.029985 -3.274714
v 0.162575 0.241066 0.300946
vn -0.000001 0.028585 -3.275904
v 0.163334 0.243239 0.300965
vn 0.000290 0.028095 -3.275912
v 0.163794 0.245490 0.300984
vn 0.000108 0.027819 -3.208616
v 0.163948 0.247780 0.301004
vn 0.000036 0.027896 -3.208615
v 0.163948 0.317960 0.301616
vn -0.000034 0.028718 -3.275854
v 0.163794 0.320250 0.301636
vn -0.000109 0.028962 -3.275954
v 0.163334 0.322501 0.301656
vn -0.000012 0.028616 -3.274845
v 0.162575 0.324674 0.301675
vn 0.000139 0.028066 -3.274473
v 0.161531 0.326732 0.301693
vn -0.000017 0.028650 -3.272742
v 0.160219 0.328640 0.301709
vn -0.000102 0.028960 -3.272806
v 0.158663 0.330366 0.301725
vn 0.000119 0.028069 -3.271122
v 0.156888 0.331879 0.301738
vn -0.000043 0.028734 -3.270577
v 0.154925 0.333154 0.301749
vn 0.000227 0.027587 -3.269473
v 0.152808 0.334169 0.301758
vn -0.000249 0.029629 -3.269476
v 0.150573 0.334907 0.301764
vn 0.000189 0.027719 -3.268956
v 0.148257 0.335355 0.301768
vn 0.000001 -0.013708 1.570737
v -0.459923 0.399771 0.302330
vn -0.000024 -0.027887 3.204998
v 0.145902 0.335505 0.301769
vn -0.000001 -0.013708 1.570737
v 0.427379 0.399771 0.302330
vn -0.000189 -0.027719 3.268956
v 0.148257 0.335355 0.301768
vn 0.000249 -0.029629 3.269476
v 0.150573 0.334907 0.301764
vn -0.000227 -0.027587 3.269473
v 0.152808 0.334169 0.301758
vn 0.000043 -0.028734 3.270577
v 0.154925 0.333154 0.301749
vn -0.000119 -0.028069 3.271122
v 0.156888 0.331879 0.301738
vn 0.000102 -0.028960 3.272806
v 0.158663 0.330366 0.301725
vn 0.000017 -0.028650 3.272742
v 0.160219 0.328640 0.301709
vn -0.000139 -0.028066 3.274473
v 0.161531 0.326732 0.301693
vn 0.000012 -0.028616 3.274845
v 0.162575 0.324674 0.301675
vn 0.000109 -0.028962 3.275954
v 0.163334 0.322501 0.301656
vn 0.000034 -0.028718 3.275854
v 0.163794 0.320250 0.301636
vn -0.000036 -0.027896 3.208615
v 0.163948 0.317960 0.301616
vn -0.000108 -0.027819 3.208616
v 0.163948 0.247780 0.301004
vn -0.000290 -0.028095 3.275912
v 0.163794 0.245490 0.300984
vn 0.000001 -0.028585 3.275904
v 0.163334 0.243239 0.300965
vn 0.000845 -0.029985 3.274714
v 0.162575 0.241066 0.300946
vn -0.000691 -0.027447 3.274597
v 0.161531 0.239008 0.300927
vn 0.000802 -0.029878 3.272730
v 0.160219 0.237100 0.300911
vn 0.000783 -0.029849 3.272797
v 0.158663 0.235374 0.300895
vn -0.011479 -0.009844 3.271203
v 0.156888 0.233861 0.300882
vn -0.000238 -0.028432 3.270579
v 0.154925 0.232586 0.300871
vn -0.000250 -0.028153 3.204969
v -0.178941 0.230235 0.300851
vn -0.000000 -0.013707 1.570737
v 0.427379 -0.591034 0.293684
vn 0.000134 -0.027922 3.204997
v 0.145902 0.230235 0.300851
vn -0.000088 -0.028555 3.268949
v 0.148257 0.230385 0.300852
vn -0.000002 -0.028532 3.269486
v 0.150573 0.230833 0.300856
vn 0.000163 -0.028475 3.269465
v 0.152808 0.231571 0.300862
vn 0.000024 -0.027886 3.204971
v -0.178941 0.335505 0.301769
vn 0.000189 -0.027722 3.269063
v -0.181297 0.335355 0.301768
vn -0.000249 -0.029627 3.269396
v -0.183612 0.334907 0.301764
vn 0.000228 -0.027588 3.269473
v -0.185847 0.334169 0.301758
vn -0.000043 -0.028734 3.270577
v -0.187964 0.333154 0.301749
vn 0.000119 -0.028070 3.271122
v -0.189927 0.331879 0.301738
vn -0.000102 -0.028957 3.272486
v -0.191702 0.330366 0.301725
vn -0.000017 -0.028655 3.273417
v -0.193259 0.328640 0.301709
vn 0.000140 -0.028063 3.274117
v -0.194570 0.326732 0.301693
vn -0.000012 -0.028616 3.274845
v -0.195614 0.324674 0.301675
vn -0.000109 -0.028959 3.275527
v -0.196373 0.322501 0.301656
vn -0.000034 -0.028722 3.276280
v -0.196834 0.320250 0.301636
vn 0.000036 -0.027896 3.208615
v -0.196988 0.317960 0.301616
vn 0.000108 -0.027819 3.208616
v -0.196988 0.247780 0.301004
vn 0.000290 -0.028099 3.276339
v -0.196834 0.245490 0.300984
vn -0.000001 -0.028581 3.275478
v -0.196373 0.243239 0.300965
vn -0.000848 -0.029986 3.274714
v -0.195614 0.241066 0.300946
vn 0.000693 -0.027442 3.274241
v -0.194570 0.239008 0.300927
vn -0.000807 -0.029889 3.273406
v -0.193259 0.237100 0.300911
vn -0.000787 -0.029852 3.272478
v -0.191702 0.235374 0.300895
vn 0.011872 -0.009238 3.271203
v -0.189927 0.233861 0.300882
vn 0.000185 -0.028318 3.270580
v -0.187964 0.232586 0.300871
vn 0.000480 -0.028171 3.269059
v -0.181297 0.230385 0.300852
vn -0.000600 -0.028977 3.269402
v -0.183612 0.230833 0.300856
vn 0.000281 -0.028320 3.269467
v -0.185847 0.231571 0.300862
vn 0.000000 -0.013707 1.570737
v -0.459923 -0.591034 0.293684
vn 0.000000 1.570737 0.013683
v 0.427379 0.399458 0.338318
vn 0.000000 1.570737 0.013683
v -0.459923 0.399771 0.302330
vn 0.000000 1.570737 0.013683
v -0.459923 0.399458 0.338318
vn 0.000000 1.570737 0.013683
v 0.427379 0.399771 0.302330
vn 0.000000 -1.570737 -0.013683
v 0.427379 0.399771 0.302330
vn 0.000000 -1.570737 -0.013683
v 0.427379 0.399458 0.338318
vn 0.000000 -1.570737 -0.013683
v -0.459923 0.399771 0.302330
vn 0.000000 -1.570737 -0.013683
v -0.459923 0.399458 0.338318
vn -0.000001 -0.013709 1.570737
v 0.427379 0.399458 0.338318
vn 0.000000 -0.013708 1.570737
v -0.459923 -0.591348 0.329670
vn 0.000000 -0.013708 1.570737
v 0.427379 -0.591348 0.329670
vn -0.000257 -0.028400 3.280776
v 0.169212 0.217905 0.336733
vn -0.001190 -0.027748 3.285596
v 0.166919 0.216600 0.336721
vn 0.001152 -0.029596 3.289164
v 0.164497 0.215651 0.336713
vn 0.000465 -0.029086 3.291506
v 0.161989 0.215076 0.336709
vn -0.000455 -0.027726 3.217041
v 0.159437 0.214882 0.336706
vn -0.003561 -0.023533 3.276089
v 0.171339 0.219544 0.336747
vn -0.000027 -0.028520 3.271311
v 0.173261 0.221489 0.336764
vn -0.000285 -0.028109 3.266111
v 0.174947 0.223709 0.336783
vn 0.000718 -0.029513 3.262299
v 0.176368 0.226162 0.336805
vn -0.000196 -0.028167 3.259450
v 0.177500 0.228809 0.336828
vn 0.000221 -0.028753 3.257200
v 0.178322 0.231602 0.336853
vn -0.000293 -0.027976 3.254920
v 0.178820 0.234496 0.336877
vn 0.000206 -0.028232 3.198456
v 0.178988 0.237440 0.336903
vn -0.000058 -0.027736 3.198472
v 0.178988 0.327671 0.337691
vn -0.000051 -0.028264 3.254871
v 0.178820 0.330615 0.337716
vn -0.000002 -0.028452 3.257161
v 0.178322 0.333509 0.337741
vn 0.000018 -0.028562 3.259632
v 0.177500 0.336304 0.337766
vn 0.000030 -0.028624 3.262059
v 0.176368 0.338950 0.337789
vn 0.000066 -0.028821 3.266417
v 0.174947 0.341404 0.337810
vn 0.000039 -0.028734 3.271137
v 0.173261 0.343622 0.337830
vn -0.000054 -0.028343 3.276054
v 0.171339 0.345567 0.337847
vn -0.000063 -0.028343 3.280977
v 0.169212 0.347207 0.337861
vn 0.000041 -0.028912 3.285168
v 0.166919 0.348511 0.337872
vn -0.000252 -0.027406 3.289400
v 0.164497 0.349460 0.337881
vn 0.000339 -0.030604 3.291492
v 0.161989 0.350036 0.337885
vn 0.000034 -0.028285 3.217036
v 0.159437 0.350229 0.337888
vn -0.000034 -0.028285 3.217036
v -0.192476 0.350229 0.337888
vn 0.000378 -0.028668 3.281188
v -0.202252 0.217905 0.336733
vn 0.000002 -0.013710 1.570736
v -0.459923 0.399458 0.338318
vn 0.000075 -0.028694 3.285401
v -0.199958 0.216600 0.336721
vn -0.000704 -0.028476 3.289174
v -0.197536 0.215651 0.336713
vn 0.000038 -0.028740 3.291509
v -0.195028 0.215076 0.336709
vn 0.000241 -0.028155 3.217037
v -0.192476 0.214882 0.336706
vn 0.003623 -0.023450 3.275602
v -0.204378 0.219544 0.336747
vn 0.000027 -0.028522 3.271571
v -0.206301 0.221489 0.336764
vn 0.000286 -0.028107 3.266111
v -0.207987 0.223709 0.336783
vn -0.000721 -0.029517 3.262619
v -0.209408 0.226162 0.336805
vn 0.000197 -0.028164 3.259131
v -0.210539 0.228809 0.336828
vn -0.000222 -0.028751 3.256864
v -0.211361 0.231602 0.336853
vn 0.000294 -0.027981 3.255594
v -0.211860 0.234496 0.336877
vn -0.000206 -0.028229 3.198118
v -0.212027 0.237440 0.336903
vn 0.000058 -0.027734 3.198134
v -0.212027 0.327671 0.337691
vn 0.000051 -0.028270 3.255545
v -0.211860 0.330615 0.337716
vn 0.000002 -0.028449 3.256825
v -0.211361 0.333509 0.337741
vn -0.000018 -0.028559 3.259313
v -0.210539 0.336304 0.337766
vn -0.000030 -0.028626 3.262378
v -0.209408 0.338950 0.337789
vn -0.000066 -0.028821 3.266417
v -0.207987 0.341404 0.337810
vn -0.000039 -0.028737 3.271397
v -0.206301 0.343622 0.337830
vn 0.000054 -0.028339 3.275566
v -0.204378 0.345567 0.337847
vn 0.000063 -0.028347 3.281392
v -0.202252 0.347207 0.337861
vn -0.000041 -0.028910 3.284981
v -0.199958 0.348511 0.337872
vn 0.000252 -0.027407 3.289400
v -0.197536 0.349460 0.337881
vn -0.000339 -0.030602 3.291492
v -0.195028 0.350036 0.337885
vn 0.000001 0.013709 -1.570737
v 0.427379 0.399458 0.338318
vn 0.000034 0.028285 -3.217036
v -0.192476 0.350229 0.337888
vn -0.000002 0.013710 -1.570736
v -0.459923 0.399458 0.338318
vn 0.000339 0.030602 -3.291492
v -0.195028 0.350036 0.337885
vn -0.000252 0.027407 -3.289400
v -0.197536 0.349460 0.337881
vn 0.000041 0.028910 -3.284981
v -0.199958 0.348511 0.337872
vn -0.000063 0.028347 -3.281392
v -0.202252 0.347207 0.337861
vn -0.000054 0.028339 -3.275566
v -0.204378 0.345567 0.337847
vn 0.000039 0.028737 -3.271397
v -0.206301 0.343622 0.337830
vn 0.000066 0.028821 -3.266417
v -0.207987 0.341404 0.337810
vn 0.000030 0.028626 -3.262378
v -0.209408 0.338950 0.337789
vn 0.000018 0.028559 -3.259313
v -0.210539 0.336304 0.337766
vn -0.000002 0.028449 -3.256825
v -0.211361 0.333509 0.337741
vn -0.000051 0.028270 -3.255545
v -0.211860 0.330615 0.337716
vn -0.000058 0.027734 -3.198134
v -0.212027 0.327671 0.337691
vn 0.000206 0.028229 -3.198118
v -0.212027 0.237440 0.336903
vn -0.000294 0.027981 -3.255594
v -0.211860 0.234496 0.336877
vn 0.000222 0.028751 -3.256864
v -0.211361 0.231602 0.336853
vn -0.000197 0.028164 -3.259131
v -0.210539 0.228809 0.336828
vn 0.000721 0.029517 -3.262619
v -0.209408 0.226162 0.336805
vn -0.000286 0.028107 -3.266111
v -0.207987 0.223709 0.336783
vn -0.000027 0.028522 -3.271571
v -0.206301 0.221489 0.336764
vn -0.003623 0.023450 -3.275602
v -0.204378 0.219544 0.336747
vn -0.000378 0.028668 -3.281188
v -0.202252 0.217905 0.336733
vn 0.000455 0.027726 -3.217041
v 0.159437 0.214882 0.336706
vn -0.000000 0.013708 -1.570737
v -0.459923 -0.591348 0.329670
vn -0.000241 0.028155 -3.217037
v -0.192476 0.214882 0.336706
vn -0.000038 0.028740 -3.291509
v -0.195028 0.215076 0.336709
vn 0.000704 0.028476 -3.289174
v -0.197536 0.215651 0.336713
vn -0.000075 0.028694 -3.285401
v -0.199958 0.216600 0.336721
vn -0.000034 0.028285 -3.217036
v 0.159437 0.350229 0.337888
vn -0.000339 0.030604 -3.291492
v 0.161989 0.350036 0.337885
vn 0.000252 0.027406 -3.289400
v 0.164497 0.349460 0.337881
vn -0.000041 0.028912 -3.285168
v 0.166919 0.348511 0.337872
vn 0.000063 0.028343 -3.280977
v 0.169212 0.347207 0.337861
vn 0.000054 0.028343 -3.276054
v 0.171339 0.345567 0.337847
vn -0.000039 0.028734 -3.271137
v 0.173261 0.343622 0.337830
vn -0.000066 0.028821 -3.266417
v 0.174947 0.341404 0.337810
vn -0.000030 0.028624 -3.262059
v 0.176368 0.338950 0.337789
vn -0.000018 0.028562 -3.259632
v 0.177500 0.336304 0.337766
vn 0.000002 0.028452 -3.257161
v 0.178322 0.333509 0.337741
vn 0.000051 0.028264 -3.254871
v 0.178820 0.330615 0.337716
vn 0.000058 0.027736 -3.198472
v 0.178988 0.327671 0.337691
vn -0.000206 0.028232 -3.198456
v 0.178988 0.237440 0.336903
vn 0.000293 0.027976 -3.254920
v 0.178820 0.234496 0.336877
vn -0.000221 0.028753 -3.257200
v 0.178322 0.231602 0.336853
vn 0.000196 0.028167 -3.259450
v 0.177500 0.228809 0.336828
vn -0.000718 0.029513 -3.262299
v 0.176368 0.226162 0.336805
vn 0.000285 0.028109 -3.266111
v 0.174947 0.223709 0.336783
vn 0.000027 0.028520 -3.271311
v 0.173261 0.221489 0.336764
vn 0.003561 0.023533 -3.276089
v 0.171339 0.219544 0.336747
vn 0.000257 0.028400 -3.280776
v 0.169212 0.217905 0.336733
vn -0.000465 0.029086 -3.291506
v 0.161989 0.215076 0.336709
vn -0.001152 0.029596 -3.289164
v 0.164497 0.215651 0.336713
vn 0.001190 0.027748 -3.285596
v 0.166919 0.216600 0.336721
vn 0.000000 0.013708 -1.570737
v 0.427379 -0.591348 0.329670
vn 0.000000 -1.570737 -0.013709
v 0.427379 -0.591034 0.293684
vn 0.000000 -1.570737 -0.013709
v -0.459923 -0.591348 0.329670
vn 0.000000 -1.570737 -0.013709
v -0.459923 -0.591034 0.293684
vn 0.000000 -1.570737 -0.013709
v 0.427379 -0.591348 0.329670
vn 0.000000 1.570737 0.013709
v 0.427379 -0.591348 0.329670
vn 0.000000 1.570737 0.013709
v 0.427379 -0.591034 0.293684
vn 0.000000 1.570737 0.013709
v -0.459923 -0.591348 0.329670
vn 0.000000 1.570737 0.013709
v -0.459923 -0.591034 0.293684
vn -1.570812 0.000000 0.000000
v -0.459923 0.399771 0.302330
vn -1.570796 0.000000 0.000000
v -0.459923 -0.591348 0.329670
vn -1.570780 0.000000 0.000000
v -0.459923 0.399458 0.338318
vn -1.570798 0.000000 0.000000
v -0.459923 -0.591034 0.293684
vn 1.570798 0.000000 0.000000
v -0.459923 -0.591034 0.293684
vn 1.570812 0.000000 0.000000
v -0.459923 0.399771 0.302330
vn 1.570796 0.000000 0.000000
v -0.459923 -0.591348 0.329670
vn 1.570780 0.000000 0.000000
v -0.459923 0.399458 0.338318
# 256 vertices, 0 vertices normals


usemtl material_0
vt 0.023930 -0.030000
vt 0.000000 0.628848
vt 0.000000 -0.030000
f 1/1/1 2/2/2 3/3/3
vt 0.023930 0.628848
f 2/2/2 1/1/1 4/4/4
f 5/4/5 6/1/6 7/2/7
f 8/3/8 7/2/7 6/1/6
vt -0.590000 -0.030000
f 9/2/9 10/5/10 11/3/11
vt -0.180836 0.517676
f 10/5/10 9/2/9 12/6/12
vt -0.182243 0.517001
f 10/5/10 12/6/12 13/7/13
vt -0.183730 0.516511
f 10/5/10 13/7/13 14/8/14
vt -0.185269 0.516213
f 10/5/10 14/8/14 15/9/15
vt -0.186835 0.516113
f 10/5/10 15/9/15 16/10/16
vt -0.179530 0.518524
f 12/6/12 9/2/9 17/11/17
vt -0.178350 0.519530
f 17/11/17 9/2/9 18/12/18
vt -0.177315 0.520678
f 18/12/18 9/2/9 19/13/19
vt -0.176443 0.521946
f 19/13/19 9/2/9 20/14/20
vt -0.175749 0.523315
f 20/14/20 9/2/9 21/15/21
vt -0.175244 0.524760
f 21/15/21 9/2/9 22/16/22
vt -0.174938 0.526257
f 22/16/22 9/2/9 23/17/23
vt -0.174836 0.527780
f 23/17/23 9/2/9 24/18/24
vt -0.174836 0.574446
f 24/18/24 9/2/9 25/19/25
vt -0.174938 0.575969
f 25/19/25 9/2/9 26/20/26
vt -0.175244 0.577466
f 26/20/26 9/2/9 27/21/27
vt -0.175749 0.578911
f 27/21/27 9/2/9 28/22/28
vt -0.176443 0.580280
f 28/22/28 9/2/9 29/23/29
vt -0.177315 0.581549
f 29/23/29 9/2/9 30/24/30
vt -0.178350 0.582696
f 30/24/30 9/2/9 31/25/31
vt -0.179530 0.583702
f 31/25/31 9/2/9 32/26/32
vt -0.180836 0.584550
f 32/26/32 9/2/9 33/27/33
vt -0.182243 0.585225
f 33/27/33 9/2/9 34/28/34
vt -0.183730 0.585715
f 34/28/34 9/2/9 35/29/35
vt -0.185269 0.586013
f 35/29/35 9/2/9 36/30/36
vt -0.186835 0.586113
f 36/30/36 9/2/9 37/31/37
vt -0.402835 0.586113
f 37/31/37 9/2/9 38/32/38
vt -0.408836 0.517676
vt -0.590000 0.628848
f 10/5/10 39/33/39 40/34/40
vt -0.407428 0.517001
f 39/33/39 10/5/10 41/35/41
vt -0.405941 0.516511
f 41/35/41 10/5/10 42/36/42
vt -0.404402 0.516213
f 42/36/42 10/5/10 43/37/43
vt -0.402835 0.516113
f 43/37/43 10/5/10 44/38/44
f 44/38/44 10/5/10 16/10/16
vt -0.410141 0.518524
f 40/34/40 39/33/39 45/39/45
vt -0.411321 0.519530
f 40/34/40 45/39/45 46/40/46
vt -0.412356 0.520678
f 40/34/40 46/40/46 47/41/47
vt -0.413228 0.521946
f 40/34/40 47/41/47 48/42/48
vt -0.413922 0.523315
f 40/34/40 48/42/48 49/43/49
vt -0.414427 0.524760
f 40/34/40 49/43/49 50/44/50
vt -0.414733 0.526257
f 40/34/40 50/44/50 51/45/51
vt -0.414836 0.527780
f 40/34/40 51/45/51 52/46/52
vt -0.414836 0.574446
f 40/34/40 52/46/52 53/47/53
vt -0.414733 0.575969
f 40/34/40 53/47/53 54/48/54
vt -0.414427 0.577466
f 40/34/40 54/48/54 55/49/55
vt -0.413922 0.578911
f 40/34/40 55/49/55 56/50/56
vt -0.413228 0.580280
f 40/34/40 56/50/56 57/51/57
vt -0.412356 0.581549
f 40/34/40 57/51/57 58/52/58
vt -0.411321 0.582696
f 40/34/40 58/52/58 59/53/59
vt -0.410141 0.583702
f 40/34/40 59/53/59 60/54/60
vt -0.408836 0.584550
f 40/34/40 60/54/60 61/55/61
vt -0.407428 0.585225
f 40/34/40 61/55/61 62/56/62
vt -0.405941 0.585715
f 40/34/40 62/56/62 63/57/63
vt -0.404402 0.586013
f 40/34/40 63/57/63 64/58/64
f 40/34/40 64/58/64 38/32/38
f 40/34/40 38/32/38 9/2/9
f 65/2/65 66/32/66 67/34/67
f 66/32/66 68/58/68 67/34/67
f 68/58/68 69/57/69 67/34/67
f 69/57/69 70/56/70 67/34/67
f 70/56/70 71/55/71 67/34/67
f 71/55/71 72/54/72 67/34/67
f 72/54/72 73/53/73 67/34/67
f 73/53/73 74/52/74 67/34/67
f 74/52/74 75/51/75 67/34/67
f 75/51/75 76/50/76 67/34/67
f 76/50/76 77/49/77 67/34/67
f 77/49/77 78/48/78 67/34/67
f 78/48/78 79/47/79 67/34/67
f 79/47/79 80/46/80 67/34/67
f 80/46/80 81/45/81 67/34/67
f 81/45/81 82/44/82 67/34/67
f 82/44/82 83/43/83 67/34/67
f 83/43/83 84/42/84 67/34/67
f 84/42/84 85/41/85 67/34/67
f 85/41/85 86/40/86 67/34/67
f 86/40/86 87/39/87 67/34/67
f 87/39/87 88/33/88 67/34/67
f 89/10/89 90/5/90 91/38/91
f 91/38/91 90/5/90 92/37/92
f 92/37/92 90/5/90 93/36/93
f 93/36/93 90/5/90 94/35/94
f 94/35/94 90/5/90 88/33/88
f 67/34/67 88/33/88 90/5/90
f 66/32/66 65/2/65 95/31/95
f 95/31/95 65/2/65 96/30/96
f 96/30/96 65/2/65 97/29/97
f 97/29/97 65/2/65 98/28/98
f 98/28/98 65/2/65 99/27/99
f 99/27/99 65/2/65 100/26/100
f 100/26/100 65/2/65 101/25/101
f 101/25/101 65/2/65 102/24/102
f 102/24/102 65/2/65 103/23/103
f 103/23/103 65/2/65 104/22/104
f 104/22/104 65/2/65 105/21/105
f 105/21/105 65/2/65 106/20/106
f 106/20/106 65/2/65 107/19/107
f 107/19/107 65/2/65 108/18/108
f 108/18/108 65/2/65 109/17/109
f 109/17/109 65/2/65 110/16/110
f 110/16/110 65/2/65 111/15/111
f 111/15/111 65/2/65 112/14/112
f 112/14/112 65/2/65 113/13/113
f 113/13/113 65/2/65 114/12/114
f 114/12/114 65/2/65 115/11/115
f 115/11/115 65/2/65 116/6/116
f 89/10/89 117/9/117 90/5/90
f 117/9/117 118/8/118 90/5/90
f 118/8/118 119/7/119 90/5/90
f 119/7/119 116/6/116 90/5/90
f 116/6/116 65/2/65 90/5/90
f 120/3/120 90/5/90 65/2/65
vt 0.590000 0.000000
vt 0.000000 0.023930
vt 0.000000 0.000000
f 121/59/121 122/60/122 123/61/123
vt 0.590000 0.023930
f 122/60/122 121/59/121 124/62/124
f 125/62/125 126/59/126 127/60/127
f 128/61/128 127/60/127 126/59/126
vt 0.590000 0.628848
vt 0.590000 -0.030000
f 129/63/129 130/3/130 131/64/131
vt 0.418335 0.508123
f 130/3/130 129/63/129 132/65/132
vt 0.416810 0.507255
f 130/3/130 132/65/132 133/66/133
vt 0.415200 0.506624
f 130/3/130 133/66/133 134/67/134
vt 0.413532 0.506241
f 130/3/130 134/67/134 135/68/135
vt 0.411835 0.506113
f 130/3/130 135/68/135 136/69/136
vt 0.419749 0.509213
f 132/65/132 129/63/129 137/70/137
vt 0.421028 0.510507
f 137/70/137 129/63/129 138/71/138
vt 0.422149 0.511982
f 138/71/138 129/63/129 139/72/139
vt 0.423094 0.513613
f 139/72/139 129/63/129 140/73/140
vt 0.423846 0.515373
f 140/73/140 129/63/129 141/74/141
vt 0.424392 0.517231
f 141/74/141 129/63/129 142/75/142
vt 0.424724 0.519155
f 142/75/142 129/63/129 143/76/143
vt 0.424836 0.521113
f 143/76/143 129/63/129 144/77/144
vt 0.424836 0.581113
f 144/77/144 129/63/129 145/78/145
vt 0.424724 0.583071
f 145/78/145 129/63/129 146/79/146
vt 0.424392 0.584995
f 146/79/146 129/63/129 147/80/147
vt 0.423846 0.586853
f 147/80/147 129/63/129 148/81/148
vt 0.423094 0.588613
f 148/81/148 129/63/129 149/82/149
vt 0.422149 0.590244
f 149/82/149 129/63/129 150/83/150
vt 0.421028 0.591720
f 150/83/150 129/63/129 151/84/151
vt 0.419749 0.593013
f 151/84/151 129/63/129 152/85/152
vt 0.418335 0.594103
f 152/85/152 129/63/129 153/86/153
vt 0.416810 0.594971
f 153/86/153 129/63/129 154/87/154
vt 0.415200 0.595602
f 154/87/154 129/63/129 155/88/155
vt 0.413532 0.595985
f 155/88/155 129/63/129 156/89/156
vt 0.411835 0.596113
f 156/89/156 129/63/129 157/90/157
vt 0.177835 0.596113
f 157/90/157 129/63/129 158/91/158
vt 0.171336 0.508123
f 130/3/130 159/92/159 160/2/160
vt 0.172861 0.507255
f 159/92/159 130/3/130 161/93/161
vt 0.174471 0.506624
f 161/93/161 130/3/130 162/94/162
vt 0.176139 0.506241
f 162/94/162 130/3/130 163/95/163
vt 0.177835 0.506113
f 163/95/163 130/3/130 164/96/164
f 164/96/164 130/3/130 136/69/136
vt 0.169922 0.509213
f 160/2/160 159/92/159 165/97/165
vt 0.168643 0.510507
f 160/2/160 165/97/165 166/98/166
vt 0.167522 0.511982
f 160/2/160 166/98/166 167/99/167
vt 0.166577 0.513613
f 160/2/160 167/99/167 168/100/168
vt 0.165825 0.515373
f 160/2/160 168/100/168 169/101/169
vt 0.165278 0.517231
f 160/2/160 169/101/169 170/102/170
vt 0.164947 0.519155
f 160/2/160 170/102/170 171/103/171
vt 0.164835 0.521113
f 160/2/160 171/103/171 172/104/172
vt 0.164835 0.581113
f 160/2/160 172/104/172 173/105/173
vt 0.164947 0.583071
f 160/2/160 173/105/173 174/106/174
vt 0.165278 0.584995
f 160/2/160 174/106/174 175/107/175
vt 0.165825 0.586853
f 160/2/160 175/107/175 176/108/176
vt 0.166577 0.588613
f 160/2/160 176/108/176 177/109/177
vt 0.167522 0.590244
f 160/2/160 177/109/177 178/110/178
vt 0.168643 0.591720
f 160/2/160 178/110/178 179/111/179
vt 0.169922 0.593013
f 160/2/160 179/111/179 180/112/180
vt 0.171336 0.594103
f 160/2/160 180/112/180 181/113/181
vt 0.172861 0.594971
f 160/2/160 181/113/181 182/114/182
vt 0.174471 0.595602
f 160/2/160 182/114/182 183/115/183
vt 0.176139 0.595985
f 160/2/160 183/115/183 184/116/184
f 160/2/160 184/116/184 158/91/158
f 160/2/160 158/91/158 129/63/129
f 185/63/185 186/91/186 187/2/187
f 186/91/186 188/116/188 187/2/187
f 188/116/188 189/115/189 187/2/187
f 189/115/189 190/114/190 187/2/187
f 190/114/190 191/113/191 187/2/187
f 191/113/191 192/112/192 187/2/187
f 192/112/192 193/111/193 187/2/187
f 193/111/193 194/110/194 187/2/187
f 194/110/194 195/109/195 187/2/187
f 195/109/195 196/108/196 187/2/187
f 196/108/196 197/107/197 187/2/187
f 197/107/197 198/106/198 187/2/187
f 198/106/198 199/105/199 187/2/187
f 199/105/199 200/104/200 187/2/187
f 200/104/200 201/103/201 187/2/187
f 201/103/201 202/102/202 187/2/187
f 202/102/202 203/101/203 187/2/187
f 203/101/203 204/100/204 187/2/187
f 204/100/204 205/99/205 187/2/187
f 205/99/205 206/98/206 187/2/187
f 206/98/206 207/97/207 187/2/187
f 207/97/207 208/92/208 187/2/187
f 209/69/209 210/3/210 211/96/211
f 211/96/211 210/3/210 212/95/212
f 212/95/212 210/3/210 213/94/213
f 213/94/213 210/3/210 214/93/214
f 214/93/214 210/3/210 208/92/208
f 187/2/187 208/92/208 210/3/210
f 186/91/186 185/63/185 215/90/215
f 215/90/215 185/63/185 216/89/216
f 216/89/216 185/63/185 217/88/217
f 217/88/217 185/63/185 218/87/218
f 218/87/218 185/63/185 219/86/219
f 219/86/219 185/63/185 220/85/220
f 220/85/220 185/63/185 221/84/221
f 221/84/221 185/63/185 222/83/222
f 222/83/222 185/63/185 223/82/223
f 223/82/223 185/63/185 224/81/224
f 224/81/224 185/63/185 225/80/225
f 225/80/225 185/63/185 226/79/226
f 226/79/226 185/63/185 227/78/227
f 227/78/227 185/63/185 228/77/228
f 228/77/228 185/63/185 229/76/229
f 229/76/229 185/63/185 230/75/230
f 230/75/230 185/63/185 231/74/231
f 231/74/231 185/63/185 232/73/232
f 232/73/232 185/63/185 233/72/233
f 233/72/233 185/63/185 234/71/234
f 234/71/234 185/63/185 235/70/235
f 235/70/235 185/63/185 236/65/236
f 209/69/209 237/68/237 210/3/210
f 237/68/237 238/67/238 210/3/210
f 238/67/238 239/66/239 210/3/210
f 239/66/239 236/65/236 210/3/210
f 236/65/236 185/63/185 210/3/210
f 240/64/240 210/3/210 185/63/185
vt -0.590000 0.023930
f 241/117/241 242/61/242 243/60/243
vt -0.590000 0.000000
f 242/61/242 241/117/241 244/118/244
f 245/118/245 246/117/246 247/61/247
f 248/60/248 247/61/247 246/117/246
vt -0.023930 0.628848
f 249/119/249 250/3/250 251/2/251
vt -0.023930 -0.030000
f 250/3/250 249/119/249 252/120/252
f 253/120/253 254/119/254 255/3/255
f 256/2/256 255/3/255 254/119/254
# 240 faces, 120 coords texture

# End of File
