####
#
# OBJ File Generated by Meshlab
#
####
# Object original-161.obj
#
# Vertices: 101
# Faces: 102
#
####
mtllib ./original-161.obj.mtl

vn -0.503419 -2.835435 -0.011120
v 0.294674 0.006191 -0.263680
vn -0.505504 -2.835083 0.004952
v 0.293908 0.006327 -0.263680
vn -0.503609 -2.836502 -0.000000
v 0.294291 0.006259 -0.263731
vn -0.505520 -2.835177 -0.003221
v 0.295031 0.006127 -0.263530
vn -0.506239 -2.835050 0.002324
v 0.293551 0.006391 -0.263530
vn -0.505800 -2.832597 0.006400
v 0.295338 0.006072 -0.263291
vn -0.505243 -2.833070 0.001610
v 0.293244 0.006446 -0.263291
vn -0.505936 -2.836953 -0.000845
v 0.295573 0.006031 -0.262979
vn -0.505673 -2.836224 -0.001836
v 0.293009 0.006488 -0.262979
vn -0.505254 -2.833876 -0.002263
v 0.295721 0.006004 -0.262616
vn -0.505843 -2.836718 -0.001654
v 0.292861 0.006514 -0.262616
vn -0.505912 -2.837108 -0.000003
v 0.295771 0.005995 -0.262227
vn -0.505039 -2.832210 -0.000003
v 0.292810 0.006523 -0.262227
vn -0.505334 -2.833862 0.002309
v 0.295721 0.006004 -0.261838
vn -0.505764 -2.836732 0.001700
v 0.292861 0.006514 -0.261838
vn -0.505535 -2.835451 0.000589
v 0.295573 0.006031 -0.261475
vn -0.505529 -2.834675 0.001583
v 0.293009 0.006488 -0.261475
vn -0.505451 -2.834236 -0.005431
v 0.295338 0.006072 -0.261164
vn -0.506138 -2.834485 -0.000617
v 0.293244 0.006446 -0.261164
vn -0.506239 -2.835050 0.002324
v 0.295031 0.006127 -0.260925
vn -0.505520 -2.835177 -0.003221
v 0.293551 0.006391 -0.260925
vn -0.505945 -2.837571 0.004952
v 0.294674 0.006191 -0.260775
vn -0.503861 -2.837923 -0.011120
v 0.293908 0.006327 -0.260775
vn -0.502725 -2.831527 0.000000
v 0.294291 0.006259 -0.260723
vn -2.982814 0.531558 0.819658
v 0.332684 0.229980 -0.261838
vn -3.065383 0.546270 0.000000
v 0.292810 0.006523 -0.262227
vn -2.961117 0.527693 0.807764
v 0.292861 0.006514 -0.261838
vn -6.184284 1.103314 -0.000000
v 0.293157 0.008468 -0.262227
vn -3.086562 0.550049 0.000000
v 0.332633 0.229985 -0.262227
vn -2.982814 0.531558 -0.819658
v 0.332684 0.229980 -0.262616
vn -2.961117 0.527693 -0.807764
v 0.292861 0.006514 -0.262616
vn -2.666174 0.475132 -1.577741
v 0.332835 0.229967 -0.262979
vn -2.658101 0.473699 -1.555865
v 0.293009 0.006488 -0.262979
vn -2.170658 0.386828 -2.224149
v 0.333074 0.229946 -0.263291
vn -2.168976 0.386534 -2.201728
v 0.293244 0.006446 -0.263291
vn -1.531556 0.272936 -2.698670
v 0.293551 0.006391 -0.263530
vn -1.519876 0.270852 -2.713953
v 0.333385 0.229919 -0.263530
vn -0.791605 0.141069 -3.007510
v 0.293908 0.006327 -0.263680
vn -0.772963 0.137748 -3.023728
v 0.333748 0.229886 -0.263680
vn -0.000163 0.000029 -3.114935
v 0.294291 0.006259 -0.263731
vn 0.022636 -0.004034 -3.114927
v 0.334137 0.229852 -0.263731
vn 0.792486 -0.141227 -3.010533
v 0.294674 0.006191 -0.263680
vn 0.811091 -0.144543 -2.997077
v 0.334526 0.229818 -0.263680
vn 1.531707 -0.272963 -2.698065
v 0.295031 0.006127 -0.263530
vn 1.541445 -0.274700 -2.678047
v 0.334889 0.229786 -0.263530
vn 2.164846 -0.389449 -2.200934
v 0.295338 0.006072 -0.263291
vn 2.170500 -0.386743 -2.177551
v 0.335201 0.229758 -0.263291
vn 5.487804 -0.979768 -2.340620
v 0.296123 0.009118 -0.262992
vn 2.661050 -0.478189 -1.555431
v 0.295573 0.006031 -0.262979
vn 2.647128 -0.471648 -1.536581
v 0.335439 0.229737 -0.262979
vn 2.939554 -0.523819 -0.795571
v 0.335590 0.229724 -0.262616
vn 2.960766 -0.527797 -0.804356
v 0.295721 0.006004 -0.262616
vn 6.133058 -1.093004 0.000000
v 0.296212 0.008468 -0.262227
vn 3.066348 -0.546809 -0.000000
v 0.295771 0.005995 -0.262227
vn 6.140722 -1.094225 0.000000
v 0.296346 0.009220 -0.262227
vn 3.046505 -0.542916 0.000000
v 0.335641 0.229719 -0.262227
vn 2.960766 -0.527797 0.804356
v 0.295721 0.006004 -0.261838
vn 2.939554 -0.523819 0.795571
v 0.335590 0.229724 -0.261838
vn 2.659599 -0.477939 1.557367
v 0.295573 0.006031 -0.261475
vn 5.484651 -0.979206 2.344630
v 0.296123 0.009118 -0.261462
vn 2.645639 -0.471383 1.538382
v 0.335439 0.229737 -0.261475
vn 2.163380 -0.389196 2.202863
v 0.295338 0.006072 -0.261164
vn 2.169081 -0.386491 2.179616
v 0.335201 0.229758 -0.261164
vn 1.541445 -0.274700 2.678047
v 0.334889 0.229786 -0.260925
vn 1.531707 -0.272963 2.698065
v 0.295031 0.006127 -0.260925
vn 0.814750 -0.145195 2.996615
v 0.334526 0.229818 -0.260775
vn 0.796361 -0.141917 3.010011
v 0.294674 0.006191 -0.260775
vn 0.023064 -0.004110 3.113885
v 0.334137 0.229852 -0.260723
vn -0.000166 0.000030 3.113893
v 0.294291 0.006259 -0.260723
vn -0.777051 0.138477 3.023149
v 0.333748 0.229886 -0.260775
vn -0.795477 0.141759 3.006990
v 0.293908 0.006327 -0.260775
vn -1.519876 0.270852 2.713953
v 0.333385 0.229919 -0.260925
vn -1.531556 0.272936 2.698670
v 0.293551 0.006391 -0.260925
vn -2.169163 0.386561 2.225948
v 0.333074 0.229946 -0.261164
vn -2.167518 0.386274 2.203659
v 0.293244 0.006446 -0.261164
vn -2.656643 0.473440 1.557798
v 0.293009 0.006488 -0.261475
vn -2.664750 0.474879 1.579806
v 0.332835 0.229967 -0.261475
vn 0.250849 2.870007 -0.023250
v 0.333748 0.229886 -0.263680
vn 0.253513 2.869799 -0.002848
v 0.334526 0.229818 -0.263680
vn 0.250927 2.870903 0.000000
v 0.334137 0.229852 -0.263731
vn 0.253301 2.867407 0.002920
v 0.333385 0.229919 -0.263530
vn 0.253619 2.869146 0.004173
v 0.334889 0.229786 -0.263530
vn 0.253567 2.868563 0.002210
v 0.333074 0.229946 -0.263291
vn 0.253093 2.864909 0.001058
v 0.335201 0.229758 -0.263291
vn 0.253577 2.870391 0.002122
v 0.332835 0.229967 -0.262979
vn 0.253285 2.872434 -0.001464
v 0.335439 0.229737 -0.262979
vn 0.252712 2.865930 -0.001352
v 0.332684 0.229980 -0.262616
vn 0.252996 2.865905 0.000828
v 0.335590 0.229724 -0.262616
vn 0.253223 2.868488 0.000269
v 0.332633 0.229985 -0.262227
vn 0.253223 2.868488 0.000269
v 0.335641 0.229719 -0.262227
vn 0.252996 2.865905 0.000828
v 0.332684 0.229980 -0.261838
vn 0.252712 2.865930 -0.001352
v 0.335590 0.229724 -0.261838
vn 0.252972 2.868887 -0.001723
v 0.332835 0.229967 -0.261475
vn 0.253618 2.870848 0.001865
v 0.335439 0.229737 -0.261475
vn 0.253554 2.870123 -0.002053
v 0.333074 0.229946 -0.261164
vn 0.253380 2.866440 -0.000897
v 0.335201 0.229758 -0.261164
vn 0.253464 2.867392 -0.002691
v 0.333385 0.229919 -0.260925
vn 0.253456 2.869160 -0.003943
v 0.334889 0.229786 -0.260925
vn 0.253734 2.872337 0.015422
v 0.333748 0.229886 -0.260775
vn 0.251070 2.872536 -0.004979
v 0.334526 0.229818 -0.260775
vn 0.250489 2.865888 -0.000000
v 0.334137 0.229852 -0.260723
# 101 vertices, 0 vertices normals


usemtl material_0
f 1//1 2//2 3//3
f 2//2 1//1 4//4
f 2//2 4//4 5//5
f 5//5 4//4 6//6
f 5//5 6//6 7//7
f 7//7 6//6 8//8
f 7//7 8//8 9//9
f 9//9 8//8 10//10
f 9//9 10//10 11//11
f 11//11 10//10 12//12
f 11//11 12//12 13//13
f 13//13 12//12 14//14
f 13//13 14//14 15//15
f 15//15 14//14 16//16
f 15//15 16//16 17//17
f 17//17 16//16 18//18
f 17//17 18//18 19//19
f 19//19 18//18 20//20
f 19//19 20//20 21//21
f 21//21 20//20 22//22
f 21//21 22//22 23//23
f 23//23 22//22 24//24
f 25//25 26//26 27//27
f 26//26 25//25 28//28
f 28//28 25//25 29//29
f 26//26 30//30 31//31
f 30//30 26//26 28//28
f 30//30 28//28 29//29
f 31//31 32//32 33//33
f 32//32 31//31 30//30
f 33//33 34//34 35//35
f 34//34 33//33 32//32
f 34//34 36//36 35//35
f 36//36 34//34 37//37
f 37//37 38//38 36//36
f 38//38 37//37 39//39
f 39//39 40//40 38//38
f 40//40 39//39 41//41
f 41//41 42//42 40//40
f 42//42 41//41 43//43
f 43//43 44//44 42//42
f 44//44 43//43 45//45
f 45//45 46//46 44//44
f 46//46 45//45 47//47
f 46//46 48//48 49//49
f 48//48 46//46 47//47
f 48//48 47//47 50//50
f 49//49 51//51 52//52
f 51//51 49//49 48//48
f 51//51 48//48 50//50
f 52//52 53//53 54//54
f 53//53 52//52 51//51
f 53//53 51//51 55//55
f 55//55 51//51 56//56
f 53//53 57//57 54//54
f 57//57 53//53 58//58
f 58//58 53//53 55//55
f 58//58 55//55 56//56
f 58//58 59//59 57//57
f 59//59 58//58 60//60
f 60//60 58//58 61//61
f 60//60 62//62 59//59
f 62//62 60//60 63//63
f 63//63 60//60 61//61
f 62//62 64//64 65//65
f 64//64 62//62 63//63
f 65//65 66//66 67//67
f 66//66 65//65 64//64
f 67//67 68//68 69//69
f 68//68 67//67 66//66
f 69//69 70//70 71//71
f 70//70 69//69 68//68
f 71//71 72//72 73//73
f 72//72 71//71 70//70
f 73//73 74//74 75//75
f 74//74 73//73 72//72
f 74//74 76//76 75//75
f 76//76 74//74 77//77
f 77//77 27//27 76//76
f 27//27 77//77 25//25
f 78//78 79//79 80//80
f 79//79 78//78 81//81
f 79//79 81//81 82//82
f 82//82 81//81 83//83
f 82//82 83//83 84//84
f 84//84 83//83 85//85
f 84//84 85//85 86//86
f 86//86 85//85 87//87
f 86//86 87//87 88//88
f 88//88 87//87 89//89
f 88//88 89//89 90//90
f 90//90 89//89 91//91
f 90//90 91//91 92//92
f 92//92 91//91 93//93
f 92//92 93//93 94//94
f 94//94 93//93 95//95
f 94//94 95//95 96//96
f 96//96 95//95 97//97
f 96//96 97//97 98//98
f 98//98 97//97 99//99
f 98//98 99//99 100//100
f 100//100 99//99 101//101
# 102 faces, 0 coords texture

# End of File
