####
#
# OBJ File Generated by Meshlab
#
####
# Object original-151.obj
#
# Vertices: 77
# Faces: 80
#
####
mtllib ./original-151.obj.mtl

vn -2.659679 -0.478351 1.557168
v -0.024329 0.006031 -0.035890
vn -2.941270 -0.524125 0.792444
v -0.064346 0.229724 -0.036253
vn -2.959973 -0.527097 0.807789
v -0.024477 0.006004 -0.036253
vn -5.496561 -0.981645 2.180202
v -0.024880 0.009118 -0.035877
vn -2.644569 -0.471192 1.536969
v -0.064196 0.229737 -0.035890
vn -0.250851 2.870029 0.004979
v -0.063282 0.229818 -0.038095
vn -0.253515 2.869830 -0.015422
v -0.062504 0.229886 -0.038095
vn -0.250927 2.870903 0.000000
v -0.062893 0.229852 -0.038146
vn -0.253456 2.869160 0.003943
v -0.063645 0.229786 -0.037945
vn -0.253464 2.867392 0.002691
v -0.062141 0.229919 -0.037945
vn -0.253420 2.866897 0.000270
v -0.063957 0.229758 -0.037706
vn -0.253347 2.868583 0.001959
v -0.061830 0.229946 -0.037706
vn -0.253301 2.868067 -0.001583
v -0.064196 0.229737 -0.037394
vn -0.252923 2.868101 0.001310
v -0.061591 0.229967 -0.037394
vn -0.252937 2.868258 0.001582
v -0.064346 0.229724 -0.037031
vn -0.253462 2.870739 -0.000743
v -0.061441 0.229980 -0.037031
vn -0.253262 2.868484 -0.000245
v -0.064397 0.229719 -0.036642
vn -0.252820 2.863472 -0.000244
v -0.061389 0.229985 -0.036642
vn -0.253240 2.868232 -0.001126
v -0.064346 0.229724 -0.036253
vn -0.253158 2.870765 0.001200
v -0.061441 0.229980 -0.036253
vn -0.252787 2.866555 0.001310
v -0.064196 0.229737 -0.035890
vn -0.253165 2.866522 -0.001584
v -0.061591 0.229967 -0.035890
vn -0.253336 2.868463 -0.000518
v -0.063957 0.229758 -0.035579
vn -0.253704 2.870109 -0.002213
v -0.061830 0.229946 -0.035579
vn -0.253825 2.871481 -0.004174
v -0.063645 0.229786 -0.035340
vn -0.253506 2.869742 -0.002922
v -0.062141 0.229919 -0.035340
vn -0.253305 2.867464 0.002834
v -0.063282 0.229818 -0.035189
vn -0.250645 2.867674 0.023076
v -0.062504 0.229886 -0.035189
vn -0.250927 2.870903 0.000000
v -0.062893 0.229852 -0.035138
vn -6.133080 -1.092885 -0.000000
v -0.024968 0.008468 -0.036642
vn -3.066329 -0.545566 -0.000000
v -0.024528 0.005995 -0.036642
vn -6.140722 -1.094225 -0.000000
v -0.025102 0.009220 -0.036642
vn -3.046505 -0.542916 -0.000000
v -0.064397 0.229719 -0.036642
vn -2.163168 -0.389523 2.203058
v -0.024094 0.006072 -0.035579
vn -2.167425 -0.386195 2.182408
v -0.063957 0.229758 -0.035579
vn -1.544659 -0.275273 2.676780
v -0.063645 0.229786 -0.035340
vn -1.535065 -0.273561 2.696651
v -0.023787 0.006127 -0.035340
vn -0.814594 -0.145168 2.995516
v -0.063282 0.229818 -0.035189
vn -0.795847 -0.141826 3.009115
v -0.023430 0.006191 -0.035189
vn -0.022636 -0.004034 3.114927
v -0.062893 0.229852 -0.035138
vn 0.000163 0.000029 3.114935
v -0.023047 0.006259 -0.035138
vn 0.776180 0.138321 3.022457
v -0.062504 0.229886 -0.035189
vn 0.794963 0.141668 3.006096
v -0.022664 0.006327 -0.035189
vn 1.523373 0.271475 2.712398
v -0.062141 0.229919 -0.035340
vn 1.534917 0.273535 2.697252
v -0.022307 0.006391 -0.035340
vn 2.169163 0.386561 2.225948
v -0.061830 0.229946 -0.035579
vn 2.167518 0.386274 2.203659
v -0.022000 0.006446 -0.035579
vn 2.656643 0.473440 1.557798
v -0.021765 0.006488 -0.035890
vn 2.666463 0.475190 1.576683
v -0.061591 0.229967 -0.035890
vn 2.961183 0.527712 0.803827
v -0.021617 0.006514 -0.036253
vn 2.982905 0.531581 0.819852
v -0.061441 0.229980 -0.036253
vn 3.067258 0.546617 -0.000000
v -0.021567 0.006523 -0.036642
vn 5.907409 1.050882 -0.000000
v -0.021913 0.008468 -0.036642
vn 3.086410 0.550022 -0.000000
v -0.061389 0.229985 -0.036642
vn 2.982905 0.531581 -0.819852
v -0.061441 0.229980 -0.037031
vn 2.961183 0.527712 -0.803827
v -0.021617 0.006514 -0.037031
vn 2.667887 0.475444 -1.574618
v -0.061591 0.229967 -0.037394
vn 2.658101 0.473699 -1.555865
v -0.021765 0.006488 -0.037394
vn 2.170658 0.386828 -2.224149
v -0.061830 0.229946 -0.037706
vn 2.168976 0.386534 -2.201728
v -0.022000 0.006446 -0.037706
vn 1.531556 0.272936 -2.698670
v -0.022307 0.006391 -0.037945
vn 1.519876 0.270852 -2.713953
v -0.062141 0.229919 -0.037945
vn 0.791605 0.141069 -3.007510
v -0.022664 0.006327 -0.038095
vn 0.772963 0.137748 -3.023728
v -0.062504 0.229886 -0.038095
vn 0.000163 0.000029 -3.114935
v -0.023047 0.006259 -0.038146
vn -0.022636 -0.004034 -3.114927
v -0.062893 0.229852 -0.038146
vn -0.792486 -0.141227 -3.010533
v -0.023430 0.006191 -0.038095
vn -0.811091 -0.144543 -2.997077
v -0.063282 0.229818 -0.038095
vn -1.531707 -0.272963 -2.698065
v -0.023787 0.006127 -0.037945
vn -1.541445 -0.274700 -2.678047
v -0.063645 0.229786 -0.037945
vn -2.164634 -0.389777 -2.201129
v -0.024094 0.006072 -0.037706
vn -2.168850 -0.386449 -2.180343
v -0.063957 0.229758 -0.037706
vn -5.499725 -0.982209 -2.176195
v -0.024880 0.009118 -0.037407
vn -2.661130 -0.478602 -1.555231
v -0.024329 0.006031 -0.037394
vn -2.646063 -0.471458 -1.535170
v -0.064196 0.229737 -0.037394
vn -2.941270 -0.524125 -0.792444
v -0.064346 0.229724 -0.037031
vn -2.959973 -0.527097 -0.807789
v -0.024477 0.006004 -0.037031
# 77 vertices, 0 vertices normals


usemtl material_0
f 1//1 2//2 3//3
f 2//2 1//1 4//4
f 2//2 4//4 5//5
f 6//6 7//7 8//8
f 7//7 6//6 9//9
f 7//7 9//9 10//10
f 10//10 9//9 11//11
f 10//10 11//11 12//12
f 12//12 11//11 13//13
f 12//12 13//13 14//14
f 14//14 13//13 15//15
f 14//14 15//15 16//16
f 16//16 15//15 17//17
f 16//16 17//17 18//18
f 18//18 17//17 19//19
f 18//18 19//19 20//20
f 20//20 19//19 21//21
f 20//20 21//21 22//22
f 22//22 21//21 23//23
f 22//22 23//23 24//24
f 24//24 23//23 25//25
f 24//24 25//25 26//26
f 26//26 25//25 27//27
f 26//26 27//27 28//28
f 28//28 27//27 29//29
f 3//3 30//30 31//31
f 30//30 3//3 2//2
f 30//30 2//2 32//32
f 32//32 2//2 33//33
f 34//34 4//4 1//1
f 4//4 34//34 35//35
f 4//4 35//35 5//5
f 34//34 36//36 35//35
f 36//36 34//34 37//37
f 37//37 38//38 36//36
f 38//38 37//37 39//39
f 39//39 40//40 38//38
f 40//40 39//39 41//41
f 41//41 42//42 40//40
f 42//42 41//41 43//43
f 43//43 44//44 42//42
f 44//44 43//43 45//45
f 45//45 46//46 44//44
f 46//46 45//45 47//47
f 48//48 46//46 47//47
f 46//46 48//48 49//49
f 50//50 49//49 48//48
f 49//49 50//50 51//51
f 52//52 51//51 50//50
f 51//51 52//52 53//53
f 51//51 53//53 54//54
f 55//55 52//52 56//56
f 52//52 55//55 53//53
f 53//53 55//55 54//54
f 57//57 56//56 58//58
f 56//56 57//57 55//55
f 59//59 58//58 60//60
f 58//58 59//59 57//57
f 59//59 61//61 62//62
f 61//61 59//59 60//60
f 62//62 63//63 64//64
f 63//63 62//62 61//61
f 64//64 65//65 66//66
f 65//65 64//64 63//63
f 66//66 67//67 68//68
f 67//67 66//66 65//65
f 68//68 69//69 70//70
f 69//69 68//68 67//67
f 70//70 71//71 72//72
f 71//71 70//70 69//69
f 73//73 71//71 74//74
f 71//71 73//73 72//72
f 72//72 73//73 75//75
f 76//76 74//74 77//77
f 74//74 76//76 73//73
f 73//73 76//76 75//75
f 30//30 77//77 31//31
f 77//77 30//30 76//76
f 76//76 30//30 32//32
f 76//76 32//32 33//33
# 80 faces, 0 coords texture

# End of File
