####
#
# OBJ File Generated by Meshlab
#
####
# Object original-22.obj
#
# Vertices: 732
# Faces: 736
#
####
mtllib ./original-22.obj.mtl

vn 0.000000 2.300068 -1.733225
v 0.273096 -0.617601 0.260826
vn 0.000000 2.300094 -1.733245
v 0.280881 -0.617601 0.260826
vn 0.000000 2.299686 -1.732938
v 0.276989 -0.617910 0.260416
vn 0.000000 2.299751 -1.732987
v 0.269469 -0.616697 0.262026
vn 0.000000 2.299875 -1.733080
v 0.284508 -0.616697 0.262026
vn 0.000000 2.299957 -1.733142
v 0.266355 -0.615259 0.263934
vn 0.000000 2.299833 -1.733048
v 0.287623 -0.615259 0.263934
vn 0.000000 2.300063 -1.733222
v 0.263965 -0.613384 0.266422
vn 0.000000 2.299875 -1.733080
v 0.290013 -0.613384 0.266422
vn 0.000000 2.299705 -1.732952
v 0.262462 -0.611202 0.269319
vn 0.000000 2.300094 -1.733245
v 0.291515 -0.611202 0.269319
vn 0.000000 2.719095 -2.048985
v 0.276989 -0.610670 0.270025
vn 0.000000 2.717337 -2.047660
v 0.276210 -0.610608 0.270107
vn 0.000000 2.404525 -1.811940
v 0.261950 -0.608859 0.272427
vn 0.000000 2.718320 -2.048401
v 0.275485 -0.610427 0.270347
vn 0.000000 2.718142 -2.048267
v 0.274862 -0.610139 0.270728
vn 0.000000 2.717770 -2.047987
v 0.274384 -0.609764 0.271226
vn 0.000000 2.718763 -2.048735
v 0.274083 -0.609328 0.271806
vn 0.000000 2.717079 -2.047466
v 0.273981 -0.608859 0.272427
vn 0.000000 2.717522 -2.047800
v 0.267342 -0.603710 0.279261
vn 0.000000 2.719329 -2.049161
v 0.266864 -0.603335 0.279758
vn 0.000000 2.716815 -2.047267
v 0.266564 -0.602898 0.280337
vn 0.000000 1.254494 -0.945329
v 0.261950 -0.594285 0.291768
vn 0.000000 2.719285 -2.049128
v 0.274083 -0.608390 0.273049
vn 0.000000 2.717380 -2.047693
v 0.274384 -0.607954 0.273628
vn 0.000000 2.718142 -2.048267
v 0.274862 -0.607579 0.274126
vn 0.000000 2.717770 -2.047987
v 0.267965 -0.603997 0.278879
vn 0.000000 2.717380 -2.047693
v 0.275485 -0.607292 0.274507
vn 0.000000 2.719285 -2.049128
v 0.276210 -0.607110 0.274748
vn 0.000000 2.717079 -2.047466
v 0.276989 -0.607049 0.274829
vn 0.000000 2.718763 -2.048735
v 0.268691 -0.604178 0.278639
vn 0.000000 2.717079 -2.047466
v 0.269469 -0.604240 0.278557
vn 0.000000 2.719095 -2.048985
v 0.266461 -0.602430 0.280959
vn 0.000000 2.717337 -2.047660
v 0.266564 -0.601961 0.281581
vn 0.000000 2.718320 -2.048401
v 0.266864 -0.601525 0.282160
vn 0.000000 2.718142 -2.048267
v 0.267342 -0.601150 0.282657
vn 0.000000 2.717770 -2.047987
v 0.267965 -0.600862 0.283039
vn 0.000000 2.718763 -2.048735
v 0.268691 -0.600681 0.283280
vn 0.000000 2.717079 -2.047466
v 0.269469 -0.600620 0.283361
vn 0.000000 2.717079 -2.047466
v 0.284508 -0.600620 0.283361
vn 0.000000 2.716815 -2.047267
v 0.277767 -0.610608 0.270107
vn 0.000000 2.404324 -1.811788
v 0.292028 -0.608859 0.272427
vn 0.000000 2.718709 -2.048694
v 0.278493 -0.610427 0.270347
vn 0.000000 2.718142 -2.048267
v 0.279116 -0.610139 0.270728
vn 0.000000 2.718709 -2.048694
v 0.279594 -0.609764 0.271226
vn 0.000000 2.716815 -2.047267
v 0.279894 -0.609328 0.271806
vn 0.000000 2.719095 -2.048985
v 0.279997 -0.608859 0.272427
vn 0.000000 2.717337 -2.047660
v 0.279894 -0.608390 0.273049
vn 0.000000 2.717522 -2.047800
v 0.286635 -0.603710 0.279261
vn 0.000000 2.718390 -2.048454
v 0.287113 -0.603335 0.279758
vn 0.000000 2.718763 -2.048735
v 0.287414 -0.602898 0.280337
vn 0.000000 1.254494 -0.945329
v 0.292028 -0.594285 0.291768
vn 0.000000 2.718320 -2.048401
v 0.279594 -0.607954 0.273628
vn 0.000000 2.718142 -2.048267
v 0.279116 -0.607579 0.274126
vn 0.000000 2.717380 -2.047693
v 0.286012 -0.603997 0.278879
vn 0.000000 2.717770 -2.047987
v 0.278493 -0.607292 0.274507
vn 0.000000 2.718763 -2.048735
v 0.277767 -0.607110 0.274748
vn 0.000000 2.719285 -2.049128
v 0.285287 -0.604178 0.278639
vn 0.000000 2.717079 -2.047466
v 0.284508 -0.604240 0.278557
vn 0.000000 2.717079 -2.047466
v 0.287516 -0.602430 0.280959
vn 0.000000 2.719285 -2.049128
v 0.287414 -0.601961 0.281581
vn 0.000000 2.717380 -2.047693
v 0.287113 -0.601525 0.282160
vn 0.000000 2.718142 -2.048267
v 0.286635 -0.601150 0.282657
vn 0.000000 2.717380 -2.047693
v 0.286012 -0.600862 0.283039
vn 0.000000 2.719285 -2.049128
v 0.285287 -0.600681 0.283280
vn 0.000000 2.719285 -2.049128
v 0.270248 -0.604178 0.278639
vn 0.000000 2.718763 -2.048735
v 0.283730 -0.604178 0.278639
vn 0.000000 2.717380 -2.047693
v 0.270973 -0.603997 0.278879
vn 0.000000 2.717770 -2.047987
v 0.283004 -0.603997 0.278879
vn 0.000000 2.717522 -2.047800
v 0.271596 -0.603710 0.279261
vn 0.000000 2.717522 -2.047800
v 0.282381 -0.603710 0.279261
vn 0.000000 2.718390 -2.048454
v 0.272074 -0.603335 0.279758
vn 0.000000 2.719329 -2.049161
v 0.281903 -0.603335 0.279758
vn 0.000000 2.718763 -2.048735
v 0.272375 -0.602898 0.280337
vn 0.000000 2.716815 -2.047267
v 0.281603 -0.602898 0.280337
vn 0.000000 2.717079 -2.047466
v 0.272477 -0.602430 0.280959
vn 0.000000 2.719095 -2.048985
v 0.281500 -0.602430 0.280959
vn 0.000000 2.719285 -2.049128
v 0.272375 -0.601961 0.281581
vn 0.000000 2.717337 -2.047660
v 0.281603 -0.601961 0.281581
vn 0.000000 2.717380 -2.047693
v 0.272074 -0.601525 0.282160
vn 0.000000 2.718320 -2.048401
v 0.281903 -0.601525 0.282160
vn 0.000000 2.718142 -2.048267
v 0.271596 -0.601150 0.282657
vn 0.000000 2.718142 -2.048267
v 0.282381 -0.601150 0.282657
vn 0.000000 2.717380 -2.047693
v 0.270973 -0.600862 0.283039
vn 0.000000 2.717770 -2.047987
v 0.283004 -0.600862 0.283039
vn 0.000000 2.719285 -2.049128
v 0.270248 -0.600681 0.283280
vn 0.000000 2.718763 -2.048735
v 0.283730 -0.600681 0.283280
vn 0.000000 -2.717079 2.047466
v 0.284508 -0.600620 0.283361
vn 0.000000 -2.717079 2.047466
v 0.269469 -0.600620 0.283361
vn 0.000000 -2.718763 2.048735
v 0.283730 -0.600681 0.283280
vn 0.000000 -2.719285 2.049128
v 0.270248 -0.600681 0.283280
vn 0.000000 -2.717770 2.047987
v 0.283004 -0.600862 0.283039
vn 0.000000 -2.717380 2.047693
v 0.270973 -0.600862 0.283039
vn 0.000000 -2.718142 2.048267
v 0.282381 -0.601150 0.282657
vn 0.000000 -2.718142 2.048267
v 0.271596 -0.601150 0.282657
vn 0.000000 -2.718320 2.048401
v 0.281903 -0.601525 0.282160
vn 0.000000 -2.717380 2.047693
v 0.272074 -0.601525 0.282160
vn 0.000000 -2.717337 2.047660
v 0.281603 -0.601961 0.281581
vn 0.000000 -2.719285 2.049128
v 0.272375 -0.601961 0.281581
vn 0.000000 -2.719095 2.048985
v 0.281500 -0.602430 0.280959
vn 0.000000 -2.717079 2.047466
v 0.272477 -0.602430 0.280959
vn 0.000000 -2.716815 2.047267
v 0.281603 -0.602898 0.280337
vn 0.000000 -2.718763 2.048735
v 0.272375 -0.602898 0.280337
vn 0.000000 -2.719329 2.049161
v 0.281903 -0.603335 0.279758
vn 0.000000 -2.718390 2.048454
v 0.272074 -0.603335 0.279758
vn 0.000000 -2.717522 2.047800
v 0.282381 -0.603710 0.279261
vn 0.000000 -2.717522 2.047800
v 0.271596 -0.603710 0.279261
vn 0.000000 -2.717770 2.047987
v 0.283004 -0.603997 0.278879
vn 0.000000 -2.717380 2.047693
v 0.270973 -0.603997 0.278879
vn 0.000000 -2.718763 2.048735
v 0.283730 -0.604178 0.278639
vn 0.000000 -2.719285 2.049128
v 0.270248 -0.604178 0.278639
vn 0.000000 -2.717079 2.047466
v 0.284508 -0.604240 0.278557
vn 0.000000 -2.717079 2.047466
v 0.269469 -0.604240 0.278557
vn 0.000000 -1.254494 0.945329
v 0.261950 -0.594285 0.291768
vn 0.000000 -1.254494 0.945329
v 0.292028 -0.594285 0.291768
vn 0.000000 -2.719285 2.049128
v 0.285287 -0.600681 0.283280
vn 0.000000 -2.717380 2.047693
v 0.286012 -0.600862 0.283039
vn 0.000000 -2.718142 2.048267
v 0.286635 -0.601150 0.282657
vn 0.000000 -2.717380 2.047693
v 0.287113 -0.601525 0.282160
vn 0.000000 -2.719285 2.049128
v 0.287414 -0.601961 0.281581
vn 0.000000 -2.717079 2.047466
v 0.287516 -0.602430 0.280959
vn 0.000000 -2.718763 2.048735
v 0.287414 -0.602898 0.280337
vn 0.000000 -2.717079 2.047466
v 0.276989 -0.607049 0.274829
vn 0.000000 -2.719285 2.049128
v 0.285287 -0.604178 0.278639
vn 0.000000 -2.717380 2.047693
v 0.286012 -0.603997 0.278879
vn 0.000000 -2.718763 2.048735
v 0.277767 -0.607110 0.274748
vn 0.000000 -2.717770 2.047987
v 0.278493 -0.607292 0.274507
vn 0.000000 -2.718142 2.048267
v 0.279116 -0.607579 0.274126
vn 0.000000 -2.717522 2.047800
v 0.286635 -0.603710 0.279261
vn 0.000000 -2.718320 2.048401
v 0.279594 -0.607954 0.273628
vn 0.000000 -2.717337 2.047660
v 0.279894 -0.608390 0.273049
vn 0.000000 -2.404324 1.811788
v 0.292028 -0.608859 0.272427
vn 0.000000 -2.718390 2.048454
v 0.287113 -0.603335 0.279758
vn 0.000000 -2.719095 2.048985
v 0.279997 -0.608859 0.272427
vn 0.000000 -2.716815 2.047267
v 0.279894 -0.609328 0.271806
vn 0.000000 -2.718709 2.048694
v 0.279594 -0.609764 0.271226
vn 0.000000 -2.718142 2.048267
v 0.279116 -0.610139 0.270728
vn 0.000000 -2.718709 2.048694
v 0.278493 -0.610427 0.270347
vn 0.000000 -2.716815 2.047267
v 0.277767 -0.610608 0.270107
vn 0.000000 -2.719095 2.048985
v 0.276989 -0.610670 0.270025
vn 0.000000 -2.300094 1.733245
v 0.291515 -0.611202 0.269319
vn 0.000000 -2.718763 2.048735
v 0.268691 -0.600681 0.283280
vn 0.000000 -2.717770 2.047987
v 0.267965 -0.600862 0.283039
vn 0.000000 -2.718142 2.048267
v 0.267342 -0.601150 0.282657
vn 0.000000 -2.718320 2.048401
v 0.266864 -0.601525 0.282160
vn 0.000000 -2.717337 2.047660
v 0.266564 -0.601961 0.281581
vn 0.000000 -2.719095 2.048985
v 0.266461 -0.602430 0.280959
vn 0.000000 -2.716815 2.047267
v 0.266564 -0.602898 0.280337
vn 0.000000 -2.718763 2.048735
v 0.268691 -0.604178 0.278639
vn 0.000000 -2.717770 2.047987
v 0.267965 -0.603997 0.278879
vn 0.000000 -2.719285 2.049128
v 0.276210 -0.607110 0.274748
vn 0.000000 -2.717380 2.047693
v 0.275485 -0.607292 0.274507
vn 0.000000 -2.718142 2.048267
v 0.274862 -0.607579 0.274126
vn 0.000000 -2.717522 2.047800
v 0.267342 -0.603710 0.279261
vn 0.000000 -2.717380 2.047693
v 0.274384 -0.607954 0.273628
vn 0.000000 -2.719285 2.049128
v 0.274083 -0.608390 0.273049
vn 0.000000 -2.717079 2.047466
v 0.273981 -0.608859 0.272427
vn 0.000000 -2.404525 1.811940
v 0.261950 -0.608859 0.272427
vn 0.000000 -2.719329 2.049161
v 0.266864 -0.603335 0.279758
vn 0.000000 -2.718763 2.048735
v 0.274083 -0.609328 0.271806
vn 0.000000 -2.717770 2.047987
v 0.274384 -0.609764 0.271226
vn 0.000000 -2.718142 2.048267
v 0.274862 -0.610139 0.270728
vn 0.000000 -2.718320 2.048401
v 0.275485 -0.610427 0.270347
vn 0.000000 -2.717337 2.047660
v 0.276210 -0.610608 0.270107
vn 0.000000 -2.299705 1.732952
v 0.262462 -0.611202 0.269319
vn 0.000000 -2.299875 1.733080
v 0.290013 -0.613384 0.266422
vn 0.000000 -2.300063 1.733222
v 0.263965 -0.613384 0.266422
vn 0.000000 -2.299833 1.733048
v 0.287623 -0.615259 0.263934
vn 0.000000 -2.299957 1.733142
v 0.266355 -0.615259 0.263934
vn 0.000000 -2.299875 1.733080
v 0.284508 -0.616697 0.262026
vn 0.000000 -2.299751 1.732987
v 0.269469 -0.616697 0.262026
vn 0.000000 -2.300094 1.733245
v 0.280881 -0.617601 0.260826
vn 0.000000 -2.300068 1.733225
v 0.273096 -0.617601 0.260826
vn 0.000000 -2.299686 1.732938
v 0.276989 -0.617910 0.260416
vn 3.008513 0.485192 0.643872
v 0.262462 -0.608225 0.267076
vn 3.128175 0.123297 0.163621
v 0.261950 -0.608859 0.272427
vn 3.008513 0.485192 0.643872
v 0.262462 -0.611202 0.269319
vn 3.128175 0.123297 0.163621
v 0.261950 -0.605883 0.270184
vn -3.128175 -0.123297 -0.163621
v 0.261950 -0.605883 0.270184
vn -3.008513 -0.485192 -0.643872
v 0.262462 -0.608225 0.267076
vn -3.128175 -0.123297 -0.163621
v 0.261950 -0.608859 0.272427
vn -3.008513 -0.485192 -0.643872
v 0.262462 -0.611202 0.269319
vn 0.261784 0.000000 0.000000
v 0.261950 -0.594285 0.291768
vn 3.403630 0.000000 0.000000
v 0.261950 -0.594652 0.290858
vn 3.403169 0.000000 0.000000
v 0.261950 -0.594772 0.289884
vn 3.404052 0.000000 0.000000
v 0.261950 -0.594635 0.288912
vn 3.402748 0.000000 0.000000
v 0.261950 -0.594251 0.288009
vn 3.370735 0.000000 0.000000
v 0.261950 -0.593647 0.287236
vn 1.603438 0.000000 0.000000
v 0.261950 -0.593265 0.286928
vn -1.603438 0.000000 0.000000
v 0.261950 -0.593265 0.286928
vn -3.370735 0.000000 0.000000
v 0.261950 -0.593647 0.287236
vn -3.402748 0.000000 0.000000
v 0.261950 -0.594251 0.288009
vn -3.404052 0.000000 0.000000
v 0.261950 -0.594635 0.288912
vn -3.403169 0.000000 0.000000
v 0.261950 -0.594772 0.289884
vn -3.403630 0.000000 0.000000
v 0.261950 -0.594652 0.290858
vn -0.261784 0.000000 0.000000
v 0.261950 -0.594285 0.291768
vn 0.000000 1.456408 -0.588453
v 0.261950 -0.594285 0.291768
vn 0.000000 3.015538 -0.779538
v 0.292028 -0.594652 0.290858
vn 0.000000 3.015538 -0.779538
v 0.261950 -0.594652 0.290858
vn 0.000000 1.456408 -0.588453
v 0.292028 -0.594285 0.291768
vn 0.000000 -1.456408 0.588453
v 0.292028 -0.594285 0.291768
vn 0.000000 -1.456408 0.588453
v 0.261950 -0.594285 0.291768
vn 0.000000 -3.015538 0.779538
v 0.292028 -0.594652 0.290858
vn 0.000000 -3.015538 0.779538
v 0.261950 -0.594652 0.290858
vn 0.000000 -2.221592 2.183118
v 0.292028 -0.593694 0.292553
vn 0.000000 -1.254494 0.945329
v 0.261950 -0.594285 0.291768
vn 0.000000 -1.254494 0.945329
v 0.292028 -0.594285 0.291768
vn 0.000000 -2.221592 2.183118
v 0.261950 -0.593694 0.292553
vn 0.000000 2.221592 -2.183118
v 0.261950 -0.593694 0.292553
vn 0.000000 2.221592 -2.183118
v 0.292028 -0.593694 0.292553
vn 0.000000 1.254494 -0.945329
v 0.261950 -0.594285 0.291768
vn 0.000000 1.254494 -0.945329
v 0.292028 -0.594285 0.291768
vn -0.261784 0.000000 0.000000
v 0.292028 -0.594285 0.291768
vn -3.128123 0.123534 0.163935
v 0.292028 -0.605883 0.270184
vn -3.128123 0.123534 0.163935
v 0.292028 -0.608859 0.272427
vn -3.403630 0.000000 0.000000
v 0.292028 -0.594652 0.290858
vn -3.403169 0.000000 0.000000
v 0.292028 -0.594772 0.289884
vn -3.404052 0.000000 0.000000
v 0.292028 -0.594635 0.288912
vn -3.402748 0.000000 0.000000
v 0.292028 -0.594251 0.288009
vn -3.336131 0.000000 0.000000
v 0.292028 -0.593647 0.287236
vn -1.638042 0.000000 0.000000
v 0.292028 -0.593275 0.286915
vn 1.638042 0.000000 0.000000
v 0.292028 -0.593275 0.286915
vn 3.336131 0.000000 0.000000
v 0.292028 -0.593647 0.287236
vn 3.128123 -0.123534 -0.163935
v 0.292028 -0.605883 0.270184
vn 3.402748 0.000000 0.000000
v 0.292028 -0.594251 0.288009
vn 3.404052 0.000000 0.000000
v 0.292028 -0.594635 0.288912
vn 3.403169 0.000000 0.000000
v 0.292028 -0.594772 0.289884
vn 3.403630 0.000000 0.000000
v 0.292028 -0.594652 0.290858
vn 0.261784 0.000000 0.000000
v 0.292028 -0.594285 0.291768
vn 3.128123 -0.123534 -0.163935
v 0.292028 -0.608859 0.272427
vn -3.008603 0.485223 0.643913
v 0.291515 -0.608225 0.267076
vn -3.008603 0.485223 0.643913
v 0.291515 -0.611202 0.269319
vn 3.008603 -0.485223 -0.643913
v 0.291515 -0.608225 0.267076
vn 3.008603 -0.485223 -0.643913
v 0.291515 -0.611202 0.269319
vn -2.697516 0.937135 1.243620
v 0.290013 -0.610408 0.264179
vn -2.697516 0.937135 1.243620
v 0.290013 -0.613384 0.266422
vn 2.697516 -0.937135 -1.243620
v 0.290013 -0.610408 0.264179
vn 2.697516 -0.937135 -1.243620
v 0.290013 -0.613384 0.266422
vn -2.202424 1.325452 1.758934
v 0.287623 -0.612282 0.261691
vn -2.202424 1.325452 1.758934
v 0.287623 -0.615259 0.263934
vn 2.202424 -1.325452 -1.758934
v 0.287623 -0.612282 0.261691
vn 2.202424 -1.325452 -1.758934
v 0.287623 -0.615259 0.263934
vn -1.557181 1.623406 2.154332
v 0.284508 -0.613721 0.259783
vn -1.557181 1.623406 2.154332
v 0.284508 -0.616697 0.262026
vn 1.557181 -1.623406 -2.154332
v 0.284508 -0.613721 0.259783
vn 1.557181 -1.623406 -2.154332
v 0.284508 -0.616697 0.262026
vn -0.806267 1.810622 2.402777
v 0.280881 -0.614625 0.258583
vn -0.806267 1.810622 2.402777
v 0.280881 -0.617601 0.260826
vn 0.806267 -1.810622 -2.402777
v 0.280881 -0.614625 0.258583
vn 0.806267 -1.810622 -2.402777
v 0.280881 -0.617601 0.260826
vn -0.000052 1.874449 2.487478
v 0.276989 -0.614933 0.258173
vn -0.000052 1.874449 2.487478
v 0.276989 -0.617910 0.260416
vn 0.000052 -1.874449 -2.487478
v 0.276989 -0.614933 0.258173
vn 0.000052 -1.874449 -2.487478
v 0.276989 -0.617910 0.260416
vn 0.806215 1.810627 2.402783
v 0.273096 -0.614625 0.258583
vn 0.806215 1.810627 2.402783
v 0.273096 -0.617601 0.260826
vn -0.806215 -1.810627 -2.402783
v 0.273096 -0.614625 0.258583
vn -0.806215 -1.810627 -2.402783
v 0.273096 -0.617601 0.260826
vn 1.557374 1.623317 2.154214
v 0.269469 -0.613721 0.259783
vn 1.557374 1.623317 2.154214
v 0.269469 -0.616697 0.262026
vn -1.557374 -1.623317 -2.154214
v 0.269469 -0.613721 0.259783
vn -1.557374 -1.623317 -2.154214
v 0.269469 -0.616697 0.262026
vn 2.202617 1.325362 1.758815
v 0.266355 -0.612282 0.261691
vn 2.202617 1.325362 1.758815
v 0.266355 -0.615259 0.263934
vn -2.202617 -1.325362 -1.758815
v 0.266355 -0.612282 0.261691
vn -2.202617 -1.325362 -1.758815
v 0.266355 -0.615259 0.263934
vn 2.697375 0.937341 1.243893
v 0.263965 -0.613384 0.266422
vn 2.697375 0.937341 1.243893
v 0.263965 -0.610408 0.264179
vn -2.697375 -0.937341 -1.243893
v 0.263965 -0.610408 0.264179
vn -2.697375 -0.937341 -1.243893
v 0.263965 -0.613384 0.266422
vn 0.000000 -2.300094 1.733245
v 0.280881 -0.614625 0.258583
vn 0.000000 -2.300068 1.733225
v 0.273096 -0.614625 0.258583
vn 0.000000 -2.299686 1.732938
v 0.276989 -0.614933 0.258173
vn 0.000000 -2.299875 1.733080
v 0.284508 -0.613721 0.259783
vn 0.000000 -2.299751 1.732987
v 0.269469 -0.613721 0.259783
vn 0.000000 -2.299833 1.733048
v 0.287623 -0.612282 0.261691
vn 0.000000 -2.299957 1.733142
v 0.266355 -0.612282 0.261691
vn 0.000000 -2.299875 1.733080
v 0.290013 -0.610408 0.264179
vn 0.000000 -2.300063 1.733222
v 0.263965 -0.610408 0.264179
vn 0.000000 -2.300094 1.733245
v 0.291515 -0.608225 0.267076
vn 0.000000 -2.299705 1.732952
v 0.262462 -0.608225 0.267076
vn 0.000000 -2.719095 2.048985
v 0.276989 -0.607693 0.267782
vn 0.000000 -2.716815 2.047267
v 0.277767 -0.607631 0.267864
vn 0.000000 -2.404324 1.811788
v 0.292028 -0.605883 0.270184
vn 0.000000 -2.718709 2.048694
v 0.278493 -0.607451 0.268104
vn 0.000000 -2.718142 2.048267
v 0.279116 -0.607163 0.268485
vn 0.000000 -2.718709 2.048694
v 0.279594 -0.606788 0.268983
vn 0.000000 -2.716815 2.047267
v 0.279894 -0.606351 0.269563
vn 0.000000 -2.719095 2.048985
v 0.279997 -0.605883 0.270184
vn 0.000000 -2.717522 2.047800
v 0.286635 -0.600733 0.277018
vn 0.000000 -2.718390 2.048454
v 0.287113 -0.600359 0.277515
vn 0.000000 -1.254945 0.945669
v 0.292028 -0.593275 0.286915
vn 0.000000 -2.717337 2.047660
v 0.279894 -0.605414 0.270806
vn 0.000000 -2.718320 2.048401
v 0.279594 -0.604978 0.271385
vn 0.000000 -2.718142 2.048267
v 0.279116 -0.604603 0.271883
vn 0.000000 -2.717380 2.047693
v 0.286012 -0.601021 0.276636
vn 0.000000 -2.717770 2.047987
v 0.278493 -0.604315 0.272264
vn 0.000000 -2.718763 2.048735
v 0.277767 -0.604134 0.272505
vn 0.000000 -2.717079 2.047466
v 0.276989 -0.604073 0.272586
vn 0.000000 -2.719285 2.049128
v 0.285287 -0.601202 0.276396
vn 0.000000 -2.717079 2.047466
v 0.284508 -0.601263 0.276314
vn 0.000000 -2.718763 2.048735
v 0.287414 -0.599922 0.278094
vn 0.000000 -2.717079 2.047466
v 0.287516 -0.599454 0.278716
vn 0.000000 -2.719285 2.049128
v 0.287414 -0.598985 0.279338
vn 0.000000 -2.717380 2.047693
v 0.287113 -0.598548 0.279917
vn 0.000000 -2.718142 2.048267
v 0.286635 -0.598174 0.280415
vn 0.000000 -2.717380 2.047693
v 0.286012 -0.597886 0.280796
vn 0.000000 -2.719285 2.049128
v 0.285287 -0.597705 0.281037
vn 0.000000 -2.717079 2.047466
v 0.284508 -0.597643 0.281118
vn 0.000000 -2.717079 2.047466
v 0.269469 -0.597643 0.281118
vn 0.000000 -2.717337 2.047660
v 0.276210 -0.607631 0.267864
vn 0.000000 -2.404525 1.811940
v 0.261950 -0.605883 0.270184
vn 0.000000 -2.718320 2.048401
v 0.275485 -0.607451 0.268104
vn 0.000000 -2.718142 2.048267
v 0.274862 -0.607163 0.268485
vn 0.000000 -2.717770 2.047987
v 0.274384 -0.606788 0.268983
vn 0.000000 -2.718763 2.048735
v 0.274083 -0.606351 0.269563
vn 0.000000 -2.717079 2.047466
v 0.273981 -0.605883 0.270184
vn 0.000000 -2.717522 2.047800
v 0.267342 -0.600733 0.277018
vn 0.000000 -2.719329 2.049161
v 0.266864 -0.600359 0.277515
vn 0.000000 -1.254042 0.944989
v 0.261950 -0.593265 0.286928
vn 0.000000 -2.719285 2.049128
v 0.274083 -0.605414 0.270806
vn 0.000000 -2.717380 2.047693
v 0.274384 -0.604978 0.271385
vn 0.000000 -2.718142 2.048267
v 0.274862 -0.604603 0.271883
vn 0.000000 -2.717770 2.047987
v 0.267965 -0.601021 0.276636
vn 0.000000 -2.717380 2.047693
v 0.275485 -0.604315 0.272264
vn 0.000000 -2.719285 2.049128
v 0.276210 -0.604134 0.272505
vn 0.000000 -2.718763 2.048735
v 0.268691 -0.601202 0.276396
vn 0.000000 -2.717079 2.047466
v 0.269469 -0.601263 0.276314
vn 0.000000 -2.716815 2.047267
v 0.266564 -0.599922 0.278094
vn 0.000000 -2.719095 2.048985
v 0.266461 -0.599454 0.278716
vn 0.000000 -2.717337 2.047660
v 0.266564 -0.598985 0.279338
vn 0.000000 -2.718320 2.048401
v 0.266864 -0.598548 0.279917
vn 0.000000 -2.718142 2.048267
v 0.267342 -0.598174 0.280415
vn 0.000000 -2.717770 2.047987
v 0.267965 -0.597886 0.280796
vn 0.000000 -2.718763 2.048735
v 0.268691 -0.597705 0.281037
vn 0.000000 -2.718763 2.048735
v 0.283730 -0.601202 0.276396
vn 0.000000 -2.719285 2.049128
v 0.270248 -0.601202 0.276396
vn 0.000000 -2.717770 2.047987
v 0.283004 -0.601021 0.276636
vn 0.000000 -2.717380 2.047693
v 0.270973 -0.601021 0.276636
vn 0.000000 -2.717522 2.047800
v 0.282381 -0.600733 0.277018
vn 0.000000 -2.717522 2.047800
v 0.271596 -0.600733 0.277018
vn 0.000000 -2.719329 2.049161
v 0.281903 -0.600359 0.277515
vn 0.000000 -2.718390 2.048454
v 0.272074 -0.600359 0.277515
vn 0.000000 -2.716815 2.047267
v 0.281603 -0.599922 0.278094
vn 0.000000 -2.718763 2.048735
v 0.272375 -0.599922 0.278094
vn 0.000000 -2.719095 2.048985
v 0.281500 -0.599454 0.278716
vn 0.000000 -2.717079 2.047466
v 0.272477 -0.599454 0.278716
vn 0.000000 -2.717337 2.047660
v 0.281603 -0.598985 0.279338
vn 0.000000 -2.719285 2.049128
v 0.272375 -0.598985 0.279338
vn 0.000000 -2.718320 2.048401
v 0.281903 -0.598548 0.279917
vn 0.000000 -2.717380 2.047693
v 0.272074 -0.598548 0.279917
vn 0.000000 -2.718142 2.048267
v 0.282381 -0.598174 0.280415
vn 0.000000 -2.718142 2.048267
v 0.271596 -0.598174 0.280415
vn 0.000000 -2.717770 2.047987
v 0.283004 -0.597886 0.280796
vn 0.000000 -2.717380 2.047693
v 0.270973 -0.597886 0.280796
vn 0.000000 -2.718763 2.048735
v 0.283730 -0.597705 0.281037
vn 0.000000 -2.719285 2.049128
v 0.270248 -0.597705 0.281037
vn 0.000000 2.717079 -2.047466
v 0.269469 -0.597643 0.281118
vn 0.000000 2.717079 -2.047466
v 0.284508 -0.597643 0.281118
vn 0.000000 2.719285 -2.049128
v 0.270248 -0.597705 0.281037
vn 0.000000 2.718763 -2.048735
v 0.283730 -0.597705 0.281037
vn 0.000000 2.717380 -2.047693
v 0.270973 -0.597886 0.280796
vn 0.000000 2.717770 -2.047987
v 0.283004 -0.597886 0.280796
vn 0.000000 2.718142 -2.048267
v 0.271596 -0.598174 0.280415
vn 0.000000 2.718142 -2.048267
v 0.282381 -0.598174 0.280415
vn 0.000000 2.717380 -2.047693
v 0.272074 -0.598548 0.279917
vn 0.000000 2.718320 -2.048401
v 0.281903 -0.598548 0.279917
vn 0.000000 2.719285 -2.049128
v 0.272375 -0.598985 0.279338
vn 0.000000 2.717337 -2.047660
v 0.281603 -0.598985 0.279338
vn 0.000000 2.717079 -2.047466
v 0.272477 -0.599454 0.278716
vn 0.000000 2.719095 -2.048985
v 0.281500 -0.599454 0.278716
vn 0.000000 2.718763 -2.048735
v 0.272375 -0.599922 0.278094
vn 0.000000 2.716815 -2.047267
v 0.281603 -0.599922 0.278094
vn 0.000000 2.718390 -2.048454
v 0.272074 -0.600359 0.277515
vn 0.000000 2.719329 -2.049161
v 0.281903 -0.600359 0.277515
vn 0.000000 2.717522 -2.047800
v 0.271596 -0.600733 0.277018
vn 0.000000 2.717522 -2.047800
v 0.282381 -0.600733 0.277018
vn 0.000000 2.717380 -2.047693
v 0.270973 -0.601021 0.276636
vn 0.000000 2.717770 -2.047987
v 0.283004 -0.601021 0.276636
vn 0.000000 2.719285 -2.049128
v 0.270248 -0.601202 0.276396
vn 0.000000 2.718763 -2.048735
v 0.283730 -0.601202 0.276396
vn 0.000000 2.717079 -2.047466
v 0.269469 -0.601263 0.276314
vn 0.000000 2.717079 -2.047466
v 0.284508 -0.601263 0.276314
vn 0.000000 1.254945 -0.945669
v 0.292028 -0.593275 0.286915
vn 0.000000 1.254042 -0.944989
v 0.261950 -0.593265 0.286928
vn 0.000000 2.718763 -2.048735
v 0.268691 -0.597705 0.281037
vn 0.000000 2.717770 -2.047987
v 0.267965 -0.597886 0.280796
vn 0.000000 2.718142 -2.048267
v 0.267342 -0.598174 0.280415
vn 0.000000 2.718320 -2.048401
v 0.266864 -0.598548 0.279917
vn 0.000000 2.717337 -2.047660
v 0.266564 -0.598985 0.279338
vn 0.000000 2.719095 -2.048985
v 0.266461 -0.599454 0.278716
vn 0.000000 2.716815 -2.047267
v 0.266564 -0.599922 0.278094
vn 0.000000 2.719329 -2.049161
v 0.266864 -0.600359 0.277515
vn 0.000000 2.717079 -2.047466
v 0.276989 -0.604073 0.272586
vn 0.000000 2.718763 -2.048735
v 0.268691 -0.601202 0.276396
vn 0.000000 2.717770 -2.047987
v 0.267965 -0.601021 0.276636
vn 0.000000 2.719285 -2.049128
v 0.276210 -0.604134 0.272505
vn 0.000000 2.717380 -2.047693
v 0.275485 -0.604315 0.272264
vn 0.000000 2.718142 -2.048267
v 0.274862 -0.604603 0.271883
vn 0.000000 2.717522 -2.047800
v 0.267342 -0.600733 0.277018
vn 0.000000 2.717380 -2.047693
v 0.274384 -0.604978 0.271385
vn 0.000000 2.719285 -2.049128
v 0.274083 -0.605414 0.270806
vn 0.000000 2.717079 -2.047466
v 0.273981 -0.605883 0.270184
vn 0.000000 2.404525 -1.811940
v 0.261950 -0.605883 0.270184
vn 0.000000 2.718763 -2.048735
v 0.274083 -0.606351 0.269563
vn 0.000000 2.717770 -2.047987
v 0.274384 -0.606788 0.268983
vn 0.000000 2.718142 -2.048267
v 0.274862 -0.607163 0.268485
vn 0.000000 2.718320 -2.048401
v 0.275485 -0.607451 0.268104
vn 0.000000 2.717337 -2.047660
v 0.276210 -0.607631 0.267864
vn 0.000000 2.719095 -2.048985
v 0.276989 -0.607693 0.267782
vn 0.000000 2.299705 -1.732952
v 0.262462 -0.608225 0.267076
vn 0.000000 2.719285 -2.049128
v 0.285287 -0.597705 0.281037
vn 0.000000 2.717380 -2.047693
v 0.286012 -0.597886 0.280796
vn 0.000000 2.718142 -2.048267
v 0.286635 -0.598174 0.280415
vn 0.000000 2.717380 -2.047693
v 0.287113 -0.598548 0.279917
vn 0.000000 2.719285 -2.049128
v 0.287414 -0.598985 0.279338
vn 0.000000 2.717079 -2.047466
v 0.287516 -0.599454 0.278716
vn 0.000000 2.718763 -2.048735
v 0.287414 -0.599922 0.278094
vn 0.000000 2.718390 -2.048454
v 0.287113 -0.600359 0.277515
vn 0.000000 2.719285 -2.049128
v 0.285287 -0.601202 0.276396
vn 0.000000 2.717380 -2.047693
v 0.286012 -0.601021 0.276636
vn 0.000000 2.718763 -2.048735
v 0.277767 -0.604134 0.272505
vn 0.000000 2.717770 -2.047987
v 0.278493 -0.604315 0.272264
vn 0.000000 2.718142 -2.048267
v 0.279116 -0.604603 0.271883
vn 0.000000 2.717522 -2.047800
v 0.286635 -0.600733 0.277018
vn 0.000000 2.718320 -2.048401
v 0.279594 -0.604978 0.271385
vn 0.000000 2.717337 -2.047660
v 0.279894 -0.605414 0.270806
vn 0.000000 2.719095 -2.048985
v 0.279997 -0.605883 0.270184
vn 0.000000 2.404324 -1.811788
v 0.292028 -0.605883 0.270184
vn 0.000000 2.716815 -2.047267
v 0.279894 -0.606351 0.269563
vn 0.000000 2.718709 -2.048694
v 0.279594 -0.606788 0.268983
vn 0.000000 2.718142 -2.048267
v 0.279116 -0.607163 0.268485
vn 0.000000 2.718709 -2.048694
v 0.278493 -0.607451 0.268104
vn 0.000000 2.716815 -2.047267
v 0.277767 -0.607631 0.267864
vn 0.000000 2.300094 -1.733245
v 0.291515 -0.608225 0.267076
vn 0.000000 2.300063 -1.733222
v 0.263965 -0.610408 0.264179
vn 0.000000 2.299875 -1.733080
v 0.290013 -0.610408 0.264179
vn 0.000000 2.299957 -1.733142
v 0.266355 -0.612282 0.261691
vn 0.000000 2.299833 -1.733048
v 0.287623 -0.612282 0.261691
vn 0.000000 2.299751 -1.732987
v 0.269469 -0.613721 0.259783
vn 0.000000 2.299875 -1.733080
v 0.284508 -0.613721 0.259783
vn 0.000000 2.300068 -1.733225
v 0.273096 -0.614625 0.258583
vn 0.000000 2.300094 -1.733245
v 0.280881 -0.614625 0.258583
vn 0.000000 2.299686 -1.732938
v 0.276989 -0.614933 0.258173
vn -0.000009 -1.027036 -1.188477
v 0.292028 -0.593275 0.286915
vn -0.000878 -2.223995 -2.189717
v 0.261950 -0.593647 0.287236
vn -0.000887 -0.985778 -1.222988
v 0.261950 -0.593265 0.286928
vn 0.000000 -2.265277 -2.155235
v 0.292028 -0.593647 0.287236
vn 0.000000 2.265277 2.155235
v 0.292028 -0.593647 0.287236
vn 0.000009 1.027036 1.188477
v 0.292028 -0.593275 0.286915
vn 0.000878 2.223995 2.189717
v 0.261950 -0.593647 0.287236
vn 0.000887 0.985778 1.222988
v 0.261950 -0.593265 0.286928
vn -2.879809 0.000000 0.000000
v 0.261950 -0.593694 0.292553
vn -2.879555 0.000000 0.000000
v 0.261950 -0.594652 0.290858
vn -2.879809 0.000000 0.000000
v 0.261950 -0.594285 0.291768
vn -2.879555 0.000000 0.000000
v 0.261950 -0.592920 0.293157
vn -2.880016 0.000000 0.000000
v 0.261950 -0.592017 0.293540
vn -2.880016 0.000000 0.000000
v 0.261950 -0.594772 0.289884
vn -2.880016 0.000000 0.000000
v 0.261950 -0.591045 0.293677
vn -2.879133 0.000000 0.000000
v 0.261950 -0.594635 0.288912
vn -2.879555 0.000000 0.000000
v 0.261950 -0.590070 0.293557
vn -3.407369 0.000000 0.000000
v 0.261950 -0.592202 0.290829
vn -3.400558 0.000000 0.000000
v 0.261950 -0.591927 0.291109
vn -3.403418 0.000000 0.000000
v 0.261950 -0.591589 0.291308
vn -2.879809 0.000000 0.000000
v 0.261950 -0.589160 0.293190
vn -3.403481 0.000000 0.000000
v 0.261950 -0.591210 0.291414
vn -3.404969 0.000000 0.000000
v 0.261950 -0.590818 0.291417
vn -3.403084 0.000000 0.000000
v 0.261950 -0.590438 0.291319
vn -2.879809 0.000000 0.000000
v 0.261950 -0.588377 0.292599
vn -3.401986 0.000000 0.000000
v 0.261950 -0.590096 0.291125
vn -3.404389 0.000000 0.000000
v 0.261950 -0.589815 0.290850
vn -3.402443 0.000000 0.000000
v 0.261950 -0.589617 0.290512
vn -2.879555 0.000000 0.000000
v 0.261950 -0.587773 0.291826
vn -3.405031 0.000000 0.000000
v 0.261950 -0.589511 0.290133
vn -3.403418 0.000000 0.000000
v 0.261950 -0.589508 0.289740
vn -3.403084 0.000000 0.000000
v 0.261950 -0.589607 0.289360
vn -2.880016 0.000000 0.000000
v 0.261950 -0.587389 0.290922
vn -3.402316 0.000000 0.000000
v 0.261950 -0.589800 0.289019
vn -2.880438 0.000000 0.000000
v 0.261950 -0.594251 0.288009
vn -3.400558 0.000000 0.000000
v 0.261950 -0.592395 0.290487
vn -3.404969 0.000000 0.000000
v 0.261950 -0.592494 0.290107
vn -2.912450 0.000000 0.000000
v 0.261950 -0.593647 0.287236
vn -3.401930 0.000000 0.000000
v 0.261950 -0.592490 0.289715
vn -3.402618 0.000000 0.000000
v 0.261950 -0.592385 0.289337
vn -3.405435 0.000000 0.000000
v 0.261950 -0.592186 0.288998
vn -3.076376 0.000000 0.000000
v 0.261950 -0.593265 0.286928
vn -3.401986 0.000000 0.000000
v 0.261950 -0.591906 0.288723
vn -2.912384 0.000000 0.000000
v 0.261950 -0.592863 0.286645
vn -3.406745 0.000000 0.000000
v 0.261950 -0.591564 0.288529
vn -3.400088 0.000000 0.000000
v 0.261950 -0.591184 0.288432
vn -2.880438 0.000000 0.000000
v 0.261950 -0.591953 0.286278
vn -3.403481 0.000000 0.000000
v 0.261950 -0.590791 0.288435
vn -3.404969 0.000000 0.000000
v 0.261950 -0.590413 0.288539
vn -3.403084 0.000000 0.000000
v 0.261950 -0.590075 0.288739
vn -2.879133 0.000000 0.000000
v 0.261950 -0.590980 0.286158
vn -2.880016 0.000000 0.000000
v 0.261950 -0.587253 0.289950
vn -2.880016 0.000000 0.000000
v 0.261950 -0.590008 0.286294
vn -2.879555 0.000000 0.000000
v 0.261950 -0.587372 0.288976
vn -2.879555 0.000000 0.000000
v 0.261950 -0.589104 0.286678
vn -2.879809 0.000000 0.000000
v 0.261950 -0.587740 0.288066
vn -2.879809 0.000000 0.000000
v 0.261950 -0.588331 0.287282
vn 2.879809 0.000000 0.000000
v 0.261950 -0.588331 0.287282
vn 2.879809 0.000000 0.000000
v 0.261950 -0.587740 0.288066
vn 2.879555 0.000000 0.000000
v 0.261950 -0.589104 0.286678
vn 2.879555 0.000000 0.000000
v 0.261950 -0.587372 0.288976
vn 2.880016 0.000000 0.000000
v 0.261950 -0.590008 0.286294
vn 2.880016 0.000000 0.000000
v 0.261950 -0.587253 0.289950
vn 2.879133 0.000000 0.000000
v 0.261950 -0.590980 0.286158
vn 2.880016 0.000000 0.000000
v 0.261950 -0.587389 0.290922
vn 3.402316 0.000000 0.000000
v 0.261950 -0.589800 0.289019
vn 3.403084 0.000000 0.000000
v 0.261950 -0.590075 0.288739
vn 2.880438 0.000000 0.000000
v 0.261950 -0.591953 0.286278
vn 3.404969 0.000000 0.000000
v 0.261950 -0.590413 0.288539
vn 3.403481 0.000000 0.000000
v 0.261950 -0.590791 0.288435
vn 3.400088 0.000000 0.000000
v 0.261950 -0.591184 0.288432
vn 2.912384 0.000000 0.000000
v 0.261950 -0.592863 0.286645
vn 3.406745 0.000000 0.000000
v 0.261950 -0.591564 0.288529
vn 3.401986 0.000000 0.000000
v 0.261950 -0.591906 0.288723
vn 3.076376 0.000000 0.000000
v 0.261950 -0.593265 0.286928
vn 3.405435 0.000000 0.000000
v 0.261950 -0.592186 0.288998
vn 2.912450 0.000000 0.000000
v 0.261950 -0.593647 0.287236
vn 3.402618 0.000000 0.000000
v 0.261950 -0.592385 0.289337
vn 3.401930 0.000000 0.000000
v 0.261950 -0.592490 0.289715
vn 3.404969 0.000000 0.000000
v 0.261950 -0.592494 0.290107
vn 2.880438 0.000000 0.000000
v 0.261950 -0.594251 0.288009
vn 3.400558 0.000000 0.000000
v 0.261950 -0.592395 0.290487
vn 3.407369 0.000000 0.000000
v 0.261950 -0.592202 0.290829
vn 2.879133 0.000000 0.000000
v 0.261950 -0.594635 0.288912
vn 3.403084 0.000000 0.000000
v 0.261950 -0.589607 0.289360
vn 2.879555 0.000000 0.000000
v 0.261950 -0.587773 0.291826
vn 3.403418 0.000000 0.000000
v 0.261950 -0.589508 0.289740
vn 3.405031 0.000000 0.000000
v 0.261950 -0.589511 0.290133
vn 3.402443 0.000000 0.000000
v 0.261950 -0.589617 0.290512
vn 2.879809 0.000000 0.000000
v 0.261950 -0.588377 0.292599
vn 3.404389 0.000000 0.000000
v 0.261950 -0.589815 0.290850
vn 3.401986 0.000000 0.000000
v 0.261950 -0.590096 0.291125
vn 3.403084 0.000000 0.000000
v 0.261950 -0.590438 0.291319
vn 2.879809 0.000000 0.000000
v 0.261950 -0.589160 0.293190
vn 3.404969 0.000000 0.000000
v 0.261950 -0.590818 0.291417
vn 3.403481 0.000000 0.000000
v 0.261950 -0.591210 0.291414
vn 3.403418 0.000000 0.000000
v 0.261950 -0.591589 0.291308
vn 2.879555 0.000000 0.000000
v 0.261950 -0.590070 0.293557
vn 3.400558 0.000000 0.000000
v 0.261950 -0.591927 0.291109
vn 2.880016 0.000000 0.000000
v 0.261950 -0.591045 0.293677
vn 2.880016 0.000000 0.000000
v 0.261950 -0.594772 0.289884
vn 2.880016 0.000000 0.000000
v 0.261950 -0.592017 0.293540
vn 2.879555 0.000000 0.000000
v 0.261950 -0.594652 0.290858
vn 2.879555 0.000000 0.000000
v 0.261950 -0.592920 0.293157
vn 2.879809 0.000000 0.000000
v 0.261950 -0.593694 0.292553
vn 2.879809 0.000000 0.000000
v 0.261950 -0.594285 0.291768
vn 0.000000 2.683310 1.581811
v 0.292028 -0.594251 0.288009
vn 0.000000 2.683310 1.581811
v 0.261950 -0.594251 0.288009
vn 0.000000 -2.683310 -1.581811
v 0.292028 -0.594251 0.288009
vn 0.000000 -2.683310 -1.581811
v 0.261950 -0.594251 0.288009
vn 0.000000 3.001030 0.833326
v 0.292028 -0.594635 0.288912
vn 0.000000 3.001030 0.833326
v 0.261950 -0.594635 0.288912
vn 0.000000 -3.001030 -0.833326
v 0.292028 -0.594635 0.288912
vn 0.000000 -3.001030 -0.833326
v 0.261950 -0.594635 0.288912
vn 0.000000 3.114640 0.027528
v 0.292028 -0.594772 0.289884
vn 0.000000 3.114640 0.027528
v 0.261950 -0.594772 0.289884
vn 0.000000 -3.114640 -0.027528
v 0.292028 -0.594772 0.289884
vn 0.000000 -3.114640 -0.027528
v 0.261950 -0.594772 0.289884
vn 2.880438 0.000000 0.000000
v 0.292028 -0.594251 0.288009
vn 3.407369 0.000000 0.000000
v 0.292028 -0.592202 0.290829
vn 2.879133 0.000000 0.000000
v 0.292028 -0.594635 0.288912
vn 3.400558 0.000000 0.000000
v 0.292028 -0.592395 0.290487
vn 3.404969 0.000000 0.000000
v 0.292028 -0.592494 0.290107
vn 2.947054 0.000000 0.000000
v 0.292028 -0.593647 0.287236
vn 3.401930 0.000000 0.000000
v 0.292028 -0.592490 0.289715
vn 3.402618 0.000000 0.000000
v 0.292028 -0.592385 0.289337
vn 3.405435 0.000000 0.000000
v 0.292028 -0.592186 0.288998
vn 3.007238 0.000000 0.000000
v 0.292028 -0.593275 0.286915
vn 3.401986 0.000000 0.000000
v 0.292028 -0.591906 0.288723
vn 2.946918 0.000000 0.000000
v 0.292028 -0.592863 0.286645
vn 3.406745 0.000000 0.000000
v 0.292028 -0.591564 0.288529
vn 3.400088 0.000000 0.000000
v 0.292028 -0.591184 0.288432
vn 2.880438 0.000000 0.000000
v 0.292028 -0.591953 0.286278
vn 3.403481 0.000000 0.000000
v 0.292028 -0.590791 0.288435
vn 3.404969 0.000000 0.000000
v 0.292028 -0.590413 0.288539
vn 3.403084 0.000000 0.000000
v 0.292028 -0.590075 0.288739
vn 2.879133 0.000000 0.000000
v 0.292028 -0.590980 0.286158
vn 3.402316 0.000000 0.000000
v 0.292028 -0.589800 0.289019
vn 2.880016 0.000000 0.000000
v 0.292028 -0.587389 0.290922
vn 2.880016 0.000000 0.000000
v 0.292028 -0.587253 0.289950
vn 2.880016 0.000000 0.000000
v 0.292028 -0.590008 0.286294
vn 2.879555 0.000000 0.000000
v 0.292028 -0.587372 0.288976
vn 2.879555 0.000000 0.000000
v 0.292028 -0.589104 0.286678
vn 2.879809 0.000000 0.000000
v 0.292028 -0.587740 0.288066
vn 2.879809 0.000000 0.000000
v 0.292028 -0.588331 0.287282
vn 2.879555 0.000000 0.000000
v 0.292028 -0.594652 0.290858
vn 2.879809 0.000000 0.000000
v 0.292028 -0.593694 0.292553
vn 2.879809 0.000000 0.000000
v 0.292028 -0.594285 0.291768
vn 2.879555 0.000000 0.000000
v 0.292028 -0.592920 0.293157
vn 2.880016 0.000000 0.000000
v 0.292028 -0.592017 0.293540
vn 2.880016 0.000000 0.000000
v 0.292028 -0.594772 0.289884
vn 2.880016 0.000000 0.000000
v 0.292028 -0.591045 0.293677
vn 2.879555 0.000000 0.000000
v 0.292028 -0.590070 0.293557
vn 3.400558 0.000000 0.000000
v 0.292028 -0.591927 0.291109
vn 3.403418 0.000000 0.000000
v 0.292028 -0.591589 0.291308
vn 2.879809 0.000000 0.000000
v 0.292028 -0.589160 0.293190
vn 3.403481 0.000000 0.000000
v 0.292028 -0.591210 0.291414
vn 3.404969 0.000000 0.000000
v 0.292028 -0.590818 0.291417
vn 3.403084 0.000000 0.000000
v 0.292028 -0.590438 0.291319
vn 2.879809 0.000000 0.000000
v 0.292028 -0.588377 0.292599
vn 3.401986 0.000000 0.000000
v 0.292028 -0.590096 0.291125
vn 3.404389 0.000000 0.000000
v 0.292028 -0.589815 0.290850
vn 3.402443 0.000000 0.000000
v 0.292028 -0.589617 0.290512
vn 2.879555 0.000000 0.000000
v 0.292028 -0.587773 0.291826
vn 3.405031 0.000000 0.000000
v 0.292028 -0.589511 0.290133
vn 3.403418 0.000000 0.000000
v 0.292028 -0.589508 0.289740
vn 3.403084 0.000000 0.000000
v 0.292028 -0.589607 0.289360
vn -3.402316 0.000000 0.000000
v 0.292028 -0.589800 0.289019
vn -3.403084 0.000000 0.000000
v 0.292028 -0.589607 0.289360
vn -2.880016 0.000000 0.000000
v 0.292028 -0.587389 0.290922
vn -2.879555 0.000000 0.000000
v 0.292028 -0.587773 0.291826
vn -3.403418 0.000000 0.000000
v 0.292028 -0.589508 0.289740
vn -3.405031 0.000000 0.000000
v 0.292028 -0.589511 0.290133
vn -3.402443 0.000000 0.000000
v 0.292028 -0.589617 0.290512
vn -2.879809 0.000000 0.000000
v 0.292028 -0.588377 0.292599
vn -3.404389 0.000000 0.000000
v 0.292028 -0.589815 0.290850
vn -3.401986 0.000000 0.000000
v 0.292028 -0.590096 0.291125
vn -3.403084 0.000000 0.000000
v 0.292028 -0.590438 0.291319
vn -2.879809 0.000000 0.000000
v 0.292028 -0.589160 0.293190
vn -3.404969 0.000000 0.000000
v 0.292028 -0.590818 0.291417
vn -3.403481 0.000000 0.000000
v 0.292028 -0.591210 0.291414
vn -3.403418 0.000000 0.000000
v 0.292028 -0.591589 0.291308
vn -2.879555 0.000000 0.000000
v 0.292028 -0.590070 0.293557
vn -3.400558 0.000000 0.000000
v 0.292028 -0.591927 0.291109
vn -3.407369 0.000000 0.000000
v 0.292028 -0.592202 0.290829
vn -2.879133 0.000000 0.000000
v 0.292028 -0.594635 0.288912
vn -2.880016 0.000000 0.000000
v 0.292028 -0.591045 0.293677
vn -2.880016 0.000000 0.000000
v 0.292028 -0.594772 0.289884
vn -2.880016 0.000000 0.000000
v 0.292028 -0.592017 0.293540
vn -2.879555 0.000000 0.000000
v 0.292028 -0.594652 0.290858
vn -2.879555 0.000000 0.000000
v 0.292028 -0.592920 0.293157
vn -2.879809 0.000000 0.000000
v 0.292028 -0.593694 0.292553
vn -2.879809 0.000000 0.000000
v 0.292028 -0.594285 0.291768
vn -2.879809 0.000000 0.000000
v 0.292028 -0.588331 0.287282
vn -2.879555 0.000000 0.000000
v 0.292028 -0.589104 0.286678
vn -2.879809 0.000000 0.000000
v 0.292028 -0.587740 0.288066
vn -2.879555 0.000000 0.000000
v 0.292028 -0.587372 0.288976
vn -2.880016 0.000000 0.000000
v 0.292028 -0.590008 0.286294
vn -2.880016 0.000000 0.000000
v 0.292028 -0.587253 0.289950
vn -2.879133 0.000000 0.000000
v 0.292028 -0.590980 0.286158
vn -3.403084 0.000000 0.000000
v 0.292028 -0.590075 0.288739
vn -2.880438 0.000000 0.000000
v 0.292028 -0.591953 0.286278
vn -3.404969 0.000000 0.000000
v 0.292028 -0.590413 0.288539
vn -3.403481 0.000000 0.000000
v 0.292028 -0.590791 0.288435
vn -3.400088 0.000000 0.000000
v 0.292028 -0.591184 0.288432
vn -2.946918 0.000000 0.000000
v 0.292028 -0.592863 0.286645
vn -3.406745 0.000000 0.000000
v 0.292028 -0.591564 0.288529
vn -3.401986 0.000000 0.000000
v 0.292028 -0.591906 0.288723
vn -3.007238 0.000000 0.000000
v 0.292028 -0.593275 0.286915
vn -3.405435 0.000000 0.000000
v 0.292028 -0.592186 0.288998
vn -2.947054 0.000000 0.000000
v 0.292028 -0.593647 0.287236
vn -3.402618 0.000000 0.000000
v 0.292028 -0.592385 0.289337
vn -3.401930 0.000000 0.000000
v 0.292028 -0.592490 0.289715
vn -3.404969 0.000000 0.000000
v 0.292028 -0.592494 0.290107
vn -2.880438 0.000000 0.000000
v 0.292028 -0.594251 0.288009
vn -3.400558 0.000000 0.000000
v 0.292028 -0.592395 0.290487
vn 0.000000 -1.580535 2.683852
v 0.292028 -0.592920 0.293157
vn 0.000000 -1.580535 2.683852
v 0.261950 -0.592920 0.293157
vn 0.000000 1.580535 -2.683852
v 0.261950 -0.592920 0.293157
vn 0.000000 1.580535 -2.683852
v 0.292028 -0.592920 0.293157
vn -0.000877 -1.448002 -2.771161
v 0.292028 -0.592863 0.286645
vn -0.000009 -0.903518 -1.284957
v 0.261950 -0.593265 0.286928
vn 0.000000 -1.492423 -2.741025
v 0.261950 -0.592863 0.286645
vn -0.000886 -0.859056 -1.315030
v 0.292028 -0.593275 0.286915
vn 0.000886 0.859056 1.315030
v 0.292028 -0.593275 0.286915
vn 0.000877 1.448002 2.771161
v 0.292028 -0.592863 0.286645
vn 0.000009 0.903518 1.284957
v 0.261950 -0.593265 0.286928
vn 0.000000 1.492423 2.741025
v 0.261950 -0.592863 0.286645
vn 0.000000 0.832050 -3.001572
v 0.261950 -0.590008 0.286294
vn 0.000000 0.026152 -3.114471
v 0.292028 -0.590980 0.286158
vn 0.000000 0.026152 -3.114471
v 0.261950 -0.590980 0.286158
vn 0.000000 0.832050 -3.001572
v 0.292028 -0.590008 0.286294
vn 0.000000 -0.832050 3.001572
v 0.292028 -0.590008 0.286294
vn 0.000000 -0.832050 3.001572
v 0.261950 -0.590008 0.286294
vn 0.000000 -0.026152 3.114471
v 0.292028 -0.590980 0.286158
vn 0.000000 -0.026152 3.114471
v 0.261950 -0.590980 0.286158
vn 0.000000 -0.780914 -3.015369
v 0.261950 -0.591953 0.286278
vn 0.000000 -0.780914 -3.015369
v 0.292028 -0.591953 0.286278
vn 0.000000 0.780914 3.015369
v 0.292028 -0.591953 0.286278
vn 0.000000 0.780914 3.015369
v 0.261950 -0.591953 0.286278
vn 0.000000 -0.832050 3.001572
v 0.292028 -0.592017 0.293540
vn 0.000000 -0.832050 3.001572
v 0.261950 -0.592017 0.293540
vn 0.000000 0.832050 -3.001572
v 0.261950 -0.592017 0.293540
vn 0.000000 0.832050 -3.001572
v 0.292028 -0.592017 0.293540
vn 0.000000 -0.027528 3.114640
v 0.292028 -0.591045 0.293677
vn 0.000000 -0.027528 3.114640
v 0.261950 -0.591045 0.293677
vn 0.000000 0.027528 -3.114640
v 0.261950 -0.591045 0.293677
vn 0.000000 0.027528 -3.114640
v 0.292028 -0.591045 0.293677
vn 0.000000 0.779538 3.015538
v 0.261950 -0.590070 0.293557
vn 0.000000 0.779538 3.015538
v 0.292028 -0.590070 0.293557
vn 0.000000 -0.779538 -3.015538
v 0.292028 -0.590070 0.293557
vn 0.000000 -0.779538 -3.015538
v 0.261950 -0.590070 0.293557
vn 0.000000 1.533782 2.710902
v 0.261950 -0.589160 0.293190
vn 0.000000 1.533782 2.710902
v 0.292028 -0.589160 0.293190
vn 0.000000 -1.533782 -2.710902
v 0.292028 -0.589160 0.293190
vn 0.000000 -1.533782 -2.710902
v 0.261950 -0.589160 0.293190
vn 0.000000 2.183118 2.221592
v 0.261950 -0.588377 0.292599
vn 0.000000 2.183118 2.221592
v 0.292028 -0.588377 0.292599
vn 0.000000 -2.183118 -2.221592
v 0.292028 -0.588377 0.292599
vn 0.000000 -2.183118 -2.221592
v 0.261950 -0.588377 0.292599
vn 0.000000 2.683852 1.580535
v 0.261950 -0.587773 0.291826
vn 0.000000 2.683852 1.580535
v 0.292028 -0.587773 0.291826
vn 0.000000 -2.683852 -1.580535
v 0.292028 -0.587773 0.291826
vn 0.000000 -2.683852 -1.580535
v 0.261950 -0.587773 0.291826
vn 0.000000 3.001572 0.832050
v 0.261950 -0.587389 0.290922
vn 0.000000 3.001572 0.832050
v 0.292028 -0.587389 0.290922
vn 0.000000 -3.001572 -0.832050
v 0.292028 -0.587389 0.290922
vn 0.000000 -3.001572 -0.832050
v 0.261950 -0.587389 0.290922
vn 0.000000 3.114640 0.027528
v 0.261950 -0.587253 0.289950
vn 0.000000 3.114640 0.027528
v 0.292028 -0.587253 0.289950
vn 0.000000 -3.114640 -0.027528
v 0.292028 -0.587253 0.289950
vn 0.000000 -3.114640 -0.027528
v 0.261950 -0.587253 0.289950
vn 0.000000 3.015538 -0.779538
v 0.292028 -0.587372 0.288976
vn 0.000000 3.015538 -0.779538
v 0.261950 -0.587372 0.288976
vn 0.000000 -3.015538 0.779538
v 0.292028 -0.587372 0.288976
vn 0.000000 -3.015538 0.779538
v 0.261950 -0.587372 0.288976
vn 0.000000 2.710902 -1.533782
v 0.292028 -0.587740 0.288066
vn 0.000000 2.710902 -1.533782
v 0.261950 -0.587740 0.288066
vn 0.000000 -2.710902 1.533782
v 0.292028 -0.587740 0.288066
vn 0.000000 -2.710902 1.533782
v 0.261950 -0.587740 0.288066
vn 0.000000 2.221592 -2.183118
v 0.292028 -0.588331 0.287282
vn 0.000000 2.221592 -2.183118
v 0.261950 -0.588331 0.287282
vn 0.000000 -2.221592 2.183118
v 0.292028 -0.588331 0.287282
vn 0.000000 -2.221592 2.183118
v 0.261950 -0.588331 0.287282
vn 0.000000 1.580535 -2.683852
v 0.292028 -0.589104 0.286678
vn 0.000000 1.580535 -2.683852
v 0.261950 -0.589104 0.286678
vn 0.000000 -1.580535 2.683852
v 0.292028 -0.589104 0.286678
vn 0.000000 -1.580535 2.683852
v 0.261950 -0.589104 0.286678
# 732 vertices, 0 vertices normals


usemtl material_0
vt 0.000341 0.037412
vt 0.000341 0.042588
vt 0.000000 0.040000
f 1/1/1 2/2/2 3/3/3
vt 0.001340 0.035000
f 2/2/2 1/1/1 4/4/4
vt 0.001340 0.045000
f 2/2/2 4/4/4 5/5/5
vt 0.002929 0.032929
f 5/5/5 4/4/4 6/6/6
vt 0.002929 0.047071
f 5/5/5 6/6/6 7/7/7
vt 0.005000 0.031340
f 7/7/7 6/6/6 8/8/8
vt 0.005000 0.048660
f 7/7/7 8/8/8 9/9/9
vt 0.007412 0.030341
f 9/9/9 8/8/8 10/10/10
vt 0.007412 0.049659
f 9/9/9 10/10/10 11/11/11
vt 0.008000 0.040000
f 11/11/11 10/10/10 12/12/12
vt 0.008068 0.039482
f 12/12/12 10/10/10 13/13/13
vt 0.010000 0.030000
f 13/13/13 10/10/10 14/14/14
vt 0.008268 0.039000
f 13/13/13 14/14/14 15/15/15
vt 0.008586 0.038586
f 15/15/15 14/14/14 16/16/16
vt 0.009000 0.038268
f 16/16/16 14/14/14 17/17/17
vt 0.009482 0.038068
f 17/17/17 14/14/14 18/18/18
vt 0.010000 0.038000
f 18/18/18 14/14/14 19/19/19
vt 0.015689 0.033586
f 19/19/19 14/14/14 20/20/20
vt 0.016104 0.033268
f 20/20/20 14/14/14 21/21/21
vt 0.016586 0.033068
f 21/21/21 14/14/14 22/22/22
vt 0.026104 0.030000
f 22/22/22 14/14/14 23/23/23
vt 0.010518 0.038068
f 19/19/19 20/20/20 24/24/24
vt 0.011000 0.038268
f 24/24/24 20/20/20 25/25/25
vt 0.011414 0.038586
f 25/25/25 20/20/20 26/26/26
vt 0.015372 0.034000
f 26/26/26 20/20/20 27/27/27
vt 0.011732 0.039000
f 26/26/26 27/27/27 28/28/28
vt 0.011932 0.039482
f 28/28/28 27/27/27 29/29/29
vt 0.012000 0.040000
f 29/29/29 27/27/27 30/30/30
vt 0.015172 0.034482
f 30/30/30 27/27/27 31/31/31
vt 0.015104 0.035000
f 30/30/30 31/31/31 32/32/32
vt 0.017104 0.033000
f 22/22/22 23/23/23 33/33/33
vt 0.017621 0.033068
f 33/33/33 23/23/23 34/34/34
vt 0.018104 0.033268
f 34/34/34 23/23/23 35/35/35
vt 0.018518 0.033586
f 35/35/35 23/23/23 36/36/36
vt 0.018836 0.034000
f 36/36/36 23/23/23 37/37/37
vt 0.019035 0.034482
f 37/37/37 23/23/23 38/38/38
vt 0.019104 0.035000
f 38/38/38 23/23/23 39/39/39
vt 0.019104 0.045000
f 39/39/39 23/23/23 40/40/40
vt 0.008068 0.040518
vt 0.010000 0.050000
f 11/11/11 41/41/41 42/42/42
f 41/41/41 11/11/11 12/12/12
vt 0.008268 0.041000
f 42/42/42 41/41/41 43/43/43
vt 0.008586 0.041414
f 42/42/42 43/43/43 44/44/44
vt 0.009000 0.041732
f 42/42/42 44/44/44 45/45/45
vt 0.009482 0.041932
f 42/42/42 45/45/45 46/46/46
vt 0.010000 0.042000
f 42/42/42 46/46/46 47/47/47
vt 0.010518 0.041932
f 42/42/42 47/47/47 48/48/48
vt 0.015689 0.046414
f 42/42/42 48/48/48 49/49/49
vt 0.016104 0.046732
f 42/42/42 49/49/49 50/50/50
vt 0.016586 0.046932
f 42/42/42 50/50/50 51/51/51
vt 0.026104 0.050000
f 42/42/42 51/51/51 52/52/52
vt 0.011000 0.041732
f 49/49/49 48/48/48 53/53/53
vt 0.011414 0.041414
f 49/49/49 53/53/53 54/54/54
vt 0.015372 0.046000
f 49/49/49 54/54/54 55/55/55
vt 0.011732 0.041000
f 55/55/55 54/54/54 56/56/56
vt 0.011932 0.040518
f 55/55/55 56/56/56 57/57/57
f 55/55/55 57/57/57 30/30/30
vt 0.015172 0.045518
f 55/55/55 30/30/30 58/58/58
vt 0.015104 0.045000
f 58/58/58 30/30/30 59/59/59
f 59/59/59 30/30/30 32/32/32
vt 0.017104 0.047000
f 52/52/52 51/51/51 60/60/60
vt 0.017621 0.046932
f 52/52/52 60/60/60 61/61/61
vt 0.018104 0.046732
f 52/52/52 61/61/61 62/62/62
vt 0.018518 0.046414
f 52/52/52 62/62/62 63/63/63
vt 0.018836 0.046000
f 52/52/52 63/63/63 64/64/64
vt 0.019035 0.045518
f 52/52/52 64/64/64 65/65/65
f 52/52/52 65/65/65 40/40/40
f 52/52/52 40/40/40 23/23/23
vt 0.015172 0.035518
f 66/66/66 59/59/59 32/32/32
vt 0.015172 0.044482
f 59/59/59 66/66/66 67/67/67
vt 0.015372 0.036000
f 67/67/67 66/66/66 68/68/68
vt 0.015372 0.044000
f 67/67/67 68/68/68 69/69/69
vt 0.015689 0.036414
f 69/69/69 68/68/68 70/70/70
vt 0.015689 0.043586
f 69/69/69 70/70/70 71/71/71
vt 0.016104 0.036732
f 71/71/71 70/70/70 72/72/72
vt 0.016104 0.043268
f 71/71/71 72/72/72 73/73/73
vt 0.016586 0.036932
f 73/73/73 72/72/72 74/74/74
vt 0.016586 0.043068
f 73/73/73 74/74/74 75/75/75
vt 0.017104 0.037000
f 75/75/75 74/74/74 76/76/76
vt 0.017104 0.043000
f 75/75/75 76/76/76 77/77/77
vt 0.017621 0.036932
f 77/77/77 76/76/76 78/78/78
vt 0.017621 0.043068
f 77/77/77 78/78/78 79/79/79
vt 0.018104 0.036732
f 79/79/79 78/78/78 80/80/80
vt 0.018104 0.043268
f 79/79/79 80/80/80 81/81/81
vt 0.018518 0.036414
f 81/81/81 80/80/80 82/82/82
vt 0.018518 0.043586
f 81/81/81 82/82/82 83/83/83
vt 0.018836 0.036000
f 83/83/83 82/82/82 84/84/84
vt 0.018836 0.044000
f 83/83/83 84/84/84 85/85/85
vt 0.019035 0.035518
f 85/85/85 84/84/84 86/86/86
vt 0.019035 0.044482
f 85/85/85 86/86/86 87/87/87
f 87/87/87 86/86/86 39/39/39
f 87/87/87 39/39/39 40/40/40
f 88/40/88 89/39/89 90/87/90
f 89/39/89 91/86/91 90/87/90
f 90/87/90 91/86/91 92/85/92
f 91/86/91 93/84/93 92/85/92
f 92/85/92 93/84/93 94/83/94
f 93/84/93 95/82/95 94/83/94
f 94/83/94 95/82/95 96/81/96
f 95/82/95 97/80/97 96/81/96
f 96/81/96 97/80/97 98/79/98
f 97/80/97 99/78/99 98/79/98
f 98/79/98 99/78/99 100/77/100
f 99/78/99 101/76/101 100/77/100
f 100/77/100 101/76/101 102/75/102
f 101/76/101 103/74/103 102/75/102
f 102/75/102 103/74/103 104/73/104
f 103/74/103 105/72/105 104/73/104
f 104/73/104 105/72/105 106/71/106
f 105/72/105 107/70/107 106/71/106
f 106/71/106 107/70/107 108/69/108
f 107/70/107 109/68/109 108/69/108
f 108/69/108 109/68/109 110/67/110
f 109/68/109 111/66/111 110/67/110
f 110/67/110 111/66/111 112/59/112
f 113/32/113 112/59/112 111/66/111
f 114/23/114 88/40/88 115/52/115
f 88/40/88 116/65/116 115/52/115
f 116/65/116 117/64/117 115/52/115
f 117/64/117 118/63/118 115/52/115
f 118/63/118 119/62/119 115/52/115
f 119/62/119 120/61/120 115/52/115
f 120/61/120 121/60/121 115/52/115
f 121/60/121 122/51/122 115/52/115
f 113/32/113 123/30/123 112/59/112
f 112/59/112 123/30/123 124/58/124
f 124/58/124 123/30/123 125/55/125
f 123/30/123 126/57/126 125/55/125
f 126/57/126 127/56/127 125/55/125
f 127/56/127 128/54/128 125/55/125
f 125/55/125 128/54/128 129/49/129
f 128/54/128 130/53/130 129/49/129
f 130/53/130 131/48/131 129/49/129
f 115/52/115 122/51/122 132/42/132
f 122/51/122 133/50/133 132/42/132
f 133/50/133 129/49/129 132/42/132
f 129/49/129 131/48/131 132/42/132
f 131/48/131 134/47/134 132/42/132
f 134/47/134 135/46/135 132/42/132
f 135/46/135 136/45/136 132/42/132
f 136/45/136 137/44/137 132/42/132
f 137/44/137 138/43/138 132/42/132
f 138/43/138 139/41/139 132/42/132
f 140/12/140 141/11/141 139/41/139
f 132/42/132 139/41/139 141/11/141
f 88/40/88 114/23/114 89/39/89
f 89/39/89 114/23/114 142/38/142
f 142/38/142 114/23/114 143/37/143
f 143/37/143 114/23/114 144/36/144
f 144/36/144 114/23/114 145/35/145
f 145/35/145 114/23/114 146/34/146
f 146/34/146 114/23/114 147/33/147
f 147/33/147 114/23/114 148/22/148
f 113/32/113 149/31/149 123/30/123
f 149/31/149 150/27/150 123/30/123
f 123/30/123 150/27/150 151/29/151
f 151/29/151 150/27/150 152/28/152
f 152/28/152 150/27/150 153/26/153
f 150/27/150 154/20/154 153/26/153
f 153/26/153 154/20/154 155/25/155
f 155/25/155 154/20/154 156/24/156
f 156/24/156 154/20/154 157/19/157
f 114/23/114 158/14/158 148/22/148
f 148/22/148 158/14/158 159/21/159
f 159/21/159 158/14/158 154/20/154
f 154/20/154 158/14/158 157/19/157
f 157/19/157 158/14/158 160/18/160
f 160/18/160 158/14/158 161/17/161
f 161/17/161 158/14/158 162/16/162
f 162/16/162 158/14/158 163/15/163
f 163/15/163 158/14/158 164/13/164
f 158/14/158 165/10/165 164/13/164
f 164/13/164 165/10/165 140/12/140
f 140/12/140 165/10/165 141/11/141
f 141/11/141 165/10/165 166/9/166
f 165/10/165 167/8/167 166/9/166
f 166/9/166 167/8/167 168/7/168
f 167/8/167 169/6/169 168/7/168
f 168/7/168 169/6/169 170/5/170
f 169/6/169 171/4/171 170/5/170
f 170/5/170 171/4/171 172/2/172
f 171/4/171 173/1/173 172/2/172
f 174/3/174 172/2/172 173/1/173
vt -0.003388 0.002479
vt -0.005999 0.000000
vt -0.003388 0.000000
f 175/88/175 176/89/176 177/90/177
vt -0.005999 0.002479
f 176/89/176 175/88/175 178/91/178
f 179/91/179 180/88/180 181/89/181
f 182/90/182 181/89/181 180/88/180
vt -0.010000 0.002479
vt -0.026104 0.000000
vt -0.010000 0.000000
f 178/92/178 183/93/183 176/94/176
vt -0.025473 0.000169
f 183/93/183 178/92/178 184/95/184
vt -0.024908 0.000495
f 184/95/184 178/92/178 185/96/185
vt -0.024447 0.000957
f 185/96/185 178/92/178 186/97/186
vt -0.024120 0.001522
f 186/97/186 178/92/178 187/98/187
vt -0.023951 0.002152
f 187/98/187 178/92/178 188/99/188
vt -0.023941 0.002479
f 188/99/188 178/92/178 189/100/189
f 190/100/190 179/92/179 191/99/191
f 191/99/191 179/92/179 192/98/192
f 192/98/192 179/92/179 193/97/193
f 193/97/193 179/92/179 194/96/194
f 194/96/194 179/92/179 195/95/195
f 195/95/195 179/92/179 196/93/196
f 181/94/181 196/93/196 179/92/179
vt 0.030000 -0.025214
vt 0.050000 -0.024562
vt 0.030000 -0.024562
f 197/101/197 198/102/198 199/103/199
vt 0.050000 -0.025214
f 198/102/198 197/101/197 200/104/200
f 201/104/201 202/101/202 203/102/203
f 204/103/204 203/102/203 202/101/202
vt -0.026756 0.050000
vt -0.026104 0.030000
vt -0.026104 0.050000
f 205/105/205 206/106/206 207/107/207
vt -0.026756 0.030000
f 206/106/206 205/105/205 208/108/208
f 209/108/209 210/105/210 211/106/211
f 212/107/212 211/106/211 210/105/210
vt 0.026104 0.000000
vt 0.010000 0.002479
vt 0.010000 0.000000
f 213/109/213 214/110/214 215/111/215
vt 0.025473 0.000169
f 214/110/214 213/109/213 216/112/216
vt 0.024908 0.000495
f 214/110/214 216/112/216 217/113/217
vt 0.024447 0.000957
f 214/110/214 217/113/217 218/114/218
vt 0.024120 0.001522
f 214/110/214 218/114/218 219/115/219
vt 0.023951 0.002152
f 214/110/214 219/115/219 220/116/220
vt 0.023930 0.002479
f 214/110/214 220/116/220 221/117/221
f 222/117/222 223/116/223 224/110/224
f 223/116/223 225/115/225 224/110/224
f 225/115/225 226/114/226 224/110/224
f 226/114/226 227/113/227 224/110/224
f 227/113/227 228/112/228 224/110/224
f 228/112/228 229/109/229 224/110/224
f 230/111/230 224/110/224 229/109/229
vt 0.016441 0.000000
vt 0.013830 0.002479
vt 0.013830 0.000000
f 215/118/215 231/119/231 232/120/232
vt 0.016441 0.002479
f 231/119/231 215/118/215 214/121/214
f 224/121/224 230/118/230 233/119/233
f 234/120/234 233/119/233 230/118/230
vt 0.025851 0.000000
vt 0.023241 0.002479
vt 0.023241 0.000000
f 232/122/232 235/123/235 236/124/236
vt 0.025851 0.002479
f 235/123/235 232/122/232 231/125/231
f 233/125/233 234/122/234 237/123/237
f 238/124/238 237/123/237 234/122/234
vt 0.033589 0.000000
vt 0.030979 0.002479
vt 0.030979 0.000000
f 236/126/236 239/127/239 240/128/240
vt 0.033589 0.002479
f 239/127/239 236/126/236 235/129/235
f 237/129/237 238/126/238 241/127/241
f 242/128/242 241/127/241 238/126/238
vt 0.039127 0.000000
vt 0.036516 0.002479
vt 0.036516 0.000000
f 240/130/240 243/131/243 244/132/244
vt 0.039127 0.002479
f 243/131/243 240/130/240 239/133/239
f 241/133/241 242/130/242 245/131/245
f 246/132/246 245/131/245 242/130/242
vt 0.042087 0.000000
vt 0.039477 0.002479
vt 0.039477 0.000000
f 244/134/244 247/135/247 248/136/248
vt 0.042087 0.002479
f 247/135/247 244/134/244 243/137/243
f 245/137/245 246/134/246 249/135/249
f 250/136/250 249/135/249 246/134/246
vt 0.042268 0.000000
vt 0.039658 0.002479
vt 0.039658 0.000000
f 248/138/248 251/139/251 252/140/252
vt 0.042268 0.002479
f 251/139/251 248/138/248 247/141/247
f 249/141/249 250/138/250 253/139/253
f 254/140/254 253/139/253 250/138/250
vt 0.039658 0.000000
vt 0.037047 0.002479
vt 0.037047 0.000000
f 252/142/252 255/143/255 256/144/256
f 255/143/255 252/142/252 251/139/251
f 253/139/253 254/142/254 257/143/257
f 258/144/258 257/143/257 254/142/254
vt 0.034434 -0.000000
vt 0.031823 0.002479
vt 0.031823 -0.000000
f 256/145/256 259/146/259 260/147/260
vt 0.034434 0.002479
f 259/146/259 256/145/256 255/148/255
f 257/148/257 258/145/258 261/146/261
f 262/147/262 261/146/261 258/145/258
vt 0.026952 -0.000000
vt 0.024341 0.002479
vt 0.024341 -0.000000
f 260/149/260 263/150/263 264/151/264
vt 0.026952 0.002479
f 263/150/263 260/149/260 259/152/259
f 261/152/261 262/149/262 265/150/265
f 266/151/266 265/150/265 262/149/262
vt 0.017722 0.002479
vt 0.015112 -0.000000
vt 0.017722 -0.000000
f 263/153/263 267/154/267 264/155/264
vt 0.015112 0.002479
f 267/154/267 263/153/263 268/156/268
f 269/156/269 265/153/265 270/154/270
f 266/155/266 270/154/270 265/153/265
vt 0.007374 0.002479
vt 0.004763 -0.000000
vt 0.007374 -0.000000
f 268/157/268 177/158/177 267/159/267
vt 0.004763 0.002479
f 177/158/177 268/157/268 175/160/175
f 180/160/180 269/157/269 182/158/182
f 270/159/270 182/158/182 269/157/269
vt -0.000341 0.042588
vt -0.000341 0.037412
vt -0.000000 0.040000
f 271/161/271 272/162/272 273/163/273
vt -0.001340 0.045000
f 272/162/272 271/161/271 274/164/274
vt -0.001340 0.035000
f 272/162/272 274/164/274 275/165/275
vt -0.002929 0.047071
f 275/165/275 274/164/274 276/166/276
vt -0.002929 0.032929
f 275/165/275 276/166/276 277/167/277
vt -0.005000 0.048660
f 277/167/277 276/166/276 278/168/278
vt -0.005000 0.031340
f 277/167/277 278/168/278 279/169/279
vt -0.007412 0.049659
f 279/169/279 278/168/278 280/170/280
vt -0.007412 0.030341
f 279/169/279 280/170/280 281/171/281
vt -0.008000 0.040000
f 281/171/281 280/170/280 282/172/282
vt -0.008068 0.040518
f 282/172/282 280/170/280 283/173/283
vt -0.010000 0.050000
f 283/173/283 280/170/280 284/174/284
vt -0.008268 0.041000
f 283/173/283 284/174/284 285/175/285
vt -0.008586 0.041414
f 285/175/285 284/174/284 286/176/286
vt -0.009000 0.041732
f 286/176/286 284/174/284 287/177/287
vt -0.009482 0.041932
f 287/177/287 284/174/284 288/178/288
vt -0.010000 0.042000
f 288/178/288 284/174/284 289/179/289
vt -0.015689 0.046414
f 289/179/289 284/174/284 290/180/290
vt -0.016104 0.046732
f 290/180/290 284/174/284 291/181/291
vt -0.023930 0.050000
f 291/181/291 284/174/284 292/182/292
vt -0.010518 0.041932
f 289/179/289 290/180/290 293/183/293
vt -0.011000 0.041732
f 293/183/293 290/180/290 294/184/294
vt -0.011414 0.041414
f 294/184/294 290/180/290 295/185/295
vt -0.015372 0.046000
f 295/185/295 290/180/290 296/186/296
vt -0.011732 0.041000
f 295/185/295 296/186/296 297/187/297
vt -0.011932 0.040518
f 297/187/297 296/186/296 298/188/298
vt -0.012000 0.040000
f 298/188/298 296/186/296 299/189/299
vt -0.015172 0.045518
f 299/189/299 296/186/296 300/190/300
vt -0.015104 0.045000
f 299/189/299 300/190/300 301/191/301
vt -0.016586 0.046932
f 291/181/291 292/182/292 302/192/302
vt -0.017104 0.047000
f 302/192/302 292/182/292 303/193/303
vt -0.017621 0.046932
f 303/193/303 292/182/292 304/194/304
vt -0.018104 0.046732
f 304/194/304 292/182/292 305/195/305
vt -0.018518 0.046414
f 305/195/305 292/182/292 306/196/306
vt -0.018836 0.046000
f 306/196/306 292/182/292 307/197/307
vt -0.019035 0.045518
f 307/197/307 292/182/292 308/198/308
vt -0.019104 0.045000
f 308/198/308 292/182/292 309/199/309
vt -0.019104 0.035000
f 309/199/309 292/182/292 310/200/310
vt -0.008068 0.039482
vt -0.010000 0.030000
f 281/171/281 311/201/311 312/202/312
f 311/201/311 281/171/281 282/172/282
vt -0.008268 0.039000
f 312/202/312 311/201/311 313/203/313
vt -0.008586 0.038586
f 312/202/312 313/203/313 314/204/314
vt -0.009000 0.038268
f 312/202/312 314/204/314 315/205/315
vt -0.009482 0.038068
f 312/202/312 315/205/315 316/206/316
vt -0.010000 0.038000
f 312/202/312 316/206/316 317/207/317
vt -0.015689 0.033586
f 312/202/312 317/207/317 318/208/318
vt -0.016104 0.033268
f 312/202/312 318/208/318 319/209/319
vt -0.023941 0.030000
f 312/202/312 319/209/319 320/210/320
vt -0.010518 0.038068
f 318/208/318 317/207/317 321/211/321
vt -0.011000 0.038268
f 318/208/318 321/211/321 322/212/322
vt -0.011414 0.038586
f 318/208/318 322/212/322 323/213/323
vt -0.015372 0.034000
f 318/208/318 323/213/323 324/214/324
vt -0.011732 0.039000
f 324/214/324 323/213/323 325/215/325
vt -0.011932 0.039482
f 324/214/324 325/215/325 326/216/326
f 324/214/324 326/216/326 299/189/299
vt -0.015172 0.034482
f 324/214/324 299/189/299 327/217/327
vt -0.015104 0.035000
f 327/217/327 299/189/299 328/218/328
f 328/218/328 299/189/299 301/191/301
vt -0.016586 0.033068
f 320/210/320 319/209/319 329/219/329
vt -0.017104 0.033000
f 320/210/320 329/219/329 330/220/330
vt -0.017621 0.033068
f 320/210/320 330/220/330 331/221/331
vt -0.018104 0.033268
f 320/210/320 331/221/331 332/222/332
vt -0.018518 0.033586
f 320/210/320 332/222/332 333/223/333
vt -0.018836 0.034000
f 320/210/320 333/223/333 334/224/334
vt -0.019035 0.034482
f 320/210/320 334/224/334 335/225/335
f 320/210/320 335/225/335 310/200/310
f 320/210/320 310/200/310 292/182/292
vt -0.015172 0.044482
f 336/226/336 328/218/328 301/191/301
vt -0.015172 0.035518
f 328/218/328 336/226/336 337/227/337
vt -0.015372 0.044000
f 337/227/337 336/226/336 338/228/338
vt -0.015372 0.036000
f 337/227/337 338/228/338 339/229/339
vt -0.015689 0.043586
f 339/229/339 338/228/338 340/230/340
vt -0.015689 0.036414
f 339/229/339 340/230/340 341/231/341
vt -0.016104 0.043268
f 341/231/341 340/230/340 342/232/342
vt -0.016104 0.036732
f 341/231/341 342/232/342 343/233/343
vt -0.016586 0.043068
f 343/233/343 342/232/342 344/234/344
vt -0.016586 0.036932
f 343/233/343 344/234/344 345/235/345
vt -0.017104 0.043000
f 345/235/345 344/234/344 346/236/346
vt -0.017104 0.037000
f 345/235/345 346/236/346 347/237/347
vt -0.017621 0.043068
f 347/237/347 346/236/346 348/238/348
vt -0.017621 0.036932
f 347/237/347 348/238/348 349/239/349
vt -0.018104 0.043268
f 349/239/349 348/238/348 350/240/350
vt -0.018104 0.036732
f 349/239/349 350/240/350 351/241/351
vt -0.018518 0.043586
f 351/241/351 350/240/350 352/242/352
vt -0.018518 0.036414
f 351/241/351 352/242/352 353/243/353
vt -0.018836 0.044000
f 353/243/353 352/242/352 354/244/354
vt -0.018836 0.036000
f 353/243/353 354/244/354 355/245/355
vt -0.019035 0.044482
f 355/245/355 354/244/354 356/246/356
vt -0.019035 0.035518
f 355/245/355 356/246/356 357/247/357
f 357/247/357 356/246/356 309/199/309
f 357/247/357 309/199/309 310/200/310
f 358/200/358 359/199/359 360/247/360
f 359/199/359 361/246/361 360/247/360
f 360/247/360 361/246/361 362/245/362
f 361/246/361 363/244/363 362/245/362
f 362/245/362 363/244/363 364/243/364
f 363/244/363 365/242/365 364/243/364
f 364/243/364 365/242/365 366/241/366
f 365/242/365 367/240/367 366/241/366
f 366/241/366 367/240/367 368/239/368
f 367/240/367 369/238/369 368/239/368
f 368/239/368 369/238/369 370/237/370
f 369/238/369 371/236/371 370/237/370
f 370/237/370 371/236/371 372/235/372
f 371/236/371 373/234/373 372/235/372
f 372/235/372 373/234/373 374/233/374
f 373/234/373 375/232/375 374/233/374
f 374/233/374 375/232/375 376/231/376
f 375/232/375 377/230/377 376/231/376
f 376/231/376 377/230/377 378/229/378
f 377/230/377 379/228/379 378/229/378
f 378/229/378 379/228/379 380/227/380
f 379/228/379 381/226/381 380/227/380
f 380/227/380 381/226/381 382/218/382
f 383/191/383 382/218/382 381/226/381
f 384/182/384 358/200/358 385/210/385
f 358/200/358 386/225/386 385/210/385
f 386/225/386 387/224/387 385/210/385
f 387/224/387 388/223/388 385/210/385
f 388/223/388 389/222/389 385/210/385
f 389/222/389 390/221/390 385/210/385
f 390/221/390 391/220/391 385/210/385
f 391/220/391 392/219/392 385/210/385
f 392/219/392 393/209/393 385/210/385
f 383/191/383 394/189/394 382/218/382
f 382/218/382 394/189/394 395/217/395
f 395/217/395 394/189/394 396/214/396
f 394/189/394 397/216/397 396/214/396
f 397/216/397 398/215/398 396/214/396
f 398/215/398 399/213/399 396/214/396
f 396/214/396 399/213/399 400/208/400
f 399/213/399 401/212/401 400/208/400
f 401/212/401 402/211/402 400/208/400
f 402/211/402 403/207/403 400/208/400
f 385/210/385 393/209/393 404/202/404
f 393/209/393 400/208/400 404/202/404
f 400/208/400 403/207/403 404/202/404
f 403/207/403 405/206/405 404/202/404
f 405/206/405 406/205/406 404/202/404
f 406/205/406 407/204/407 404/202/404
f 407/204/407 408/203/408 404/202/404
f 408/203/408 409/201/409 404/202/404
f 410/172/410 411/171/411 409/201/409
f 404/202/404 409/201/409 411/171/411
f 358/200/358 384/182/384 359/199/359
f 359/199/359 384/182/384 412/198/412
f 412/198/412 384/182/384 413/197/413
f 413/197/413 384/182/384 414/196/414
f 414/196/414 384/182/384 415/195/415
f 415/195/415 384/182/384 416/194/416
f 416/194/416 384/182/384 417/193/417
f 417/193/417 384/182/384 418/192/418
f 418/192/418 384/182/384 419/181/419
f 383/191/383 420/190/420 394/189/394
f 420/190/420 421/186/421 394/189/394
f 394/189/394 421/186/421 422/188/422
f 422/188/422 421/186/421 423/187/423
f 423/187/423 421/186/421 424/185/424
f 421/186/421 425/180/425 424/185/424
f 424/185/424 425/180/425 426/184/426
f 426/184/426 425/180/425 427/183/427
f 427/183/427 425/180/425 428/179/428
f 384/182/384 429/174/429 419/181/419
f 419/181/419 429/174/429 425/180/425
f 425/180/425 429/174/429 428/179/428
f 428/179/428 429/174/429 430/178/430
f 430/178/430 429/174/429 431/177/431
f 431/177/431 429/174/429 432/176/432
f 432/176/432 429/174/429 433/175/433
f 433/175/433 429/174/429 434/173/434
f 429/174/429 435/170/435 434/173/434
f 434/173/434 435/170/435 410/172/410
f 410/172/410 435/170/435 411/171/411
f 411/171/411 435/170/435 436/169/436
f 435/170/435 437/168/437 436/169/436
f 436/169/436 437/168/437 438/167/438
f 437/168/437 439/166/439 438/167/438
f 438/167/438 439/166/439 440/165/440
f 439/166/439 441/164/441 440/165/440
f 440/165/440 441/164/441 442/162/442
f 441/164/441 443/161/443 442/162/442
f 444/163/444 442/162/442 443/161/443
vt -0.049994 0.001300
vt -0.029994 0.000973
vt -0.029994 0.001300
f 445/248/445 446/249/446 447/250/447
vt -0.049994 0.000973
f 446/249/446 445/248/445 448/251/448
f 449/251/449 450/248/450 451/249/451
f 452/250/452 451/249/451 450/248/450
vt 0.026756 -0.000000
vt 0.026104 -0.000000
f 453/252/453 454/112/454 455/253/455
vt 0.027387 0.000169
f 454/112/454 453/252/453 456/254/456
vt 0.027952 0.000495
f 454/112/454 456/254/456 457/255/457
f 454/112/454 457/255/457 458/113/458
vt 0.028413 0.000957
f 458/113/458 457/255/457 459/256/459
f 458/113/458 459/256/459 460/114/460
vt 0.028740 0.001522
f 460/114/460 459/256/459 461/257/461
vt 0.026438 0.001482
f 460/114/460 461/257/461 462/258/462
vt 0.026697 0.001516
f 462/258/462 461/257/461 463/259/463
vt 0.026938 0.001616
f 463/259/463 461/257/461 464/260/464
vt 0.028909 0.002152
f 464/260/464 461/257/461 465/261/465
vt 0.027145 0.001775
f 464/260/464 465/261/465 466/262/466
vt 0.027304 0.001982
f 466/262/466 465/261/465 467/263/467
vt 0.027404 0.002223
f 467/263/467 465/261/465 468/264/468
vt 0.028909 0.002805
f 468/264/468 465/261/465 469/265/469
vt 0.027438 0.002482
f 468/264/468 469/265/469 470/266/470
vt 0.027404 0.002741
f 470/266/470 469/265/469 471/267/471
vt 0.027304 0.002982
f 471/267/471 469/265/469 472/268/472
vt 0.028740 0.003435
f 472/268/472 469/265/469 473/269/473
vt 0.027145 0.003189
f 472/268/472 473/269/473 474/270/474
vt 0.026938 0.003348
f 474/270/474 473/269/473 475/271/475
vt 0.026697 0.003448
f 475/271/475 473/269/473 476/272/476
vt 0.028413 0.004001
f 476/272/476 473/269/473 477/273/477
vt 0.026438 0.003482
f 476/272/476 477/273/477 478/274/478
f 462/258/462 479/115/479 460/114/460
vt 0.026179 0.001516
f 479/115/479 462/258/462 480/275/480
vt 0.025938 0.001616
f 479/115/479 480/275/480 481/276/481
f 479/115/479 481/276/481 482/116/482
vt 0.025731 0.001775
f 482/116/482 481/276/481 483/277/483
vt 0.025572 0.001982
f 482/116/482 483/277/483 484/278/484
vt 0.025472 0.002223
f 482/116/482 484/278/484 485/279/485
vt 0.023941 0.002479
f 482/116/482 485/279/485 486/280/486
vt 0.025438 0.002482
f 486/280/486 485/279/485 487/281/487
vt 0.023951 0.002805
f 486/280/486 487/281/487 488/282/488
vt 0.025472 0.002741
f 488/282/488 487/281/487 489/283/489
vt 0.025572 0.002982
f 488/282/488 489/283/489 490/284/490
vt 0.024120 0.003435
f 488/282/488 490/284/490 491/285/491
vt 0.025731 0.003189
f 491/285/491 490/284/490 492/286/492
vt 0.025938 0.003348
f 491/285/491 492/286/492 493/287/493
vt 0.026179 0.003448
f 491/285/491 493/287/493 494/288/494
vt 0.024447 0.004001
f 491/285/491 494/288/494 495/289/495
f 495/289/495 494/288/494 478/274/478
f 495/289/495 478/274/478 477/273/477
vt 0.027952 0.004462
f 495/289/495 477/273/477 496/290/496
vt 0.024908 0.004462
f 495/289/495 496/290/496 497/291/497
vt 0.027387 0.004788
f 497/291/497 496/290/496 498/292/498
vt 0.025473 0.004788
f 497/291/497 498/292/498 499/293/499
vt 0.026756 0.004957
f 499/293/499 498/292/498 500/294/500
vt 0.026104 0.004957
f 499/293/499 500/294/500 501/295/501
f 502/295/502 503/294/503 504/293/504
f 503/294/503 505/292/505 504/293/504
f 504/293/504 505/292/505 506/291/506
f 505/292/505 507/290/507 506/291/506
f 506/291/506 507/290/507 508/289/508
f 507/290/507 509/273/509 508/289/508
f 509/273/509 510/274/510 508/289/508
f 510/274/510 511/288/511 508/289/508
f 508/289/508 511/288/511 512/285/512
f 511/288/511 513/287/513 512/285/512
f 513/287/513 514/286/514 512/285/512
f 514/286/514 515/284/515 512/285/512
f 512/285/512 515/284/515 516/282/516
f 515/284/515 517/283/517 516/282/516
f 517/283/517 518/281/518 516/282/516
f 516/282/516 518/281/518 519/280/519
f 518/281/518 520/279/520 519/280/519
f 519/280/519 520/279/520 521/116/521
f 520/279/520 522/278/522 521/116/521
f 522/278/522 523/277/523 521/116/521
f 523/277/523 524/276/524 521/116/521
f 521/116/521 524/276/524 525/115/525
f 524/276/524 526/275/526 525/115/525
f 526/275/526 527/258/527 525/115/525
f 528/114/528 525/115/525 527/258/527
f 510/274/510 509/273/509 529/272/529
f 509/273/509 530/269/530 529/272/529
f 529/272/529 530/269/530 531/271/531
f 531/271/531 530/269/530 532/270/532
f 532/270/532 530/269/530 533/268/533
f 530/269/530 534/265/534 533/268/533
f 533/268/533 534/265/534 535/267/535
f 535/267/535 534/265/534 536/266/536
f 536/266/536 534/265/534 537/264/537
f 534/265/534 538/261/538 537/264/537
f 537/264/537 538/261/538 539/263/539
f 539/263/539 538/261/538 540/262/540
f 540/262/540 538/261/538 541/260/541
f 538/261/538 542/257/542 541/260/541
f 541/260/541 542/257/542 543/259/543
f 543/259/543 542/257/542 527/258/527
f 527/258/527 542/257/542 528/114/528
f 542/257/542 544/256/544 528/114/528
f 528/114/528 544/256/544 545/113/545
f 544/256/544 546/255/546 545/113/545
f 545/113/545 546/255/546 547/112/547
f 546/255/546 548/254/548 547/112/547
f 548/254/548 549/252/549 547/112/547
f 550/253/550 547/112/547 549/252/549
vt 0.050000 -0.004773
vt 0.030000 -0.004120
vt 0.030000 -0.004773
f 551/296/551 451/297/451 552/298/552
vt 0.050000 -0.004120
f 451/297/451 551/296/551 449/299/449
f 448/299/448 553/296/553 446/297/446
f 554/298/554 446/297/446 553/296/553
vt 0.050000 -0.011395
vt 0.030000 -0.010742
vt 0.030000 -0.011395
f 555/300/555 552/301/552 556/302/556
vt 0.050000 -0.010742
f 552/301/552 555/300/555 551/303/551
f 553/303/553 557/300/557 554/301/554
f 558/302/558 554/301/554 557/300/557
vt 0.050000 -0.017262
vt 0.030000 -0.016610
vt 0.030000 -0.017262
f 559/304/559 556/305/556 560/306/560
vt 0.050000 -0.016610
f 556/305/556 559/304/559 555/307/555
f 557/307/557 561/304/561 558/305/558
f 562/306/562 558/305/558 561/304/561
vt 0.030000 -0.021976
vt 0.050000 -0.021323
vt 0.030000 -0.021323
f 199/308/199 559/309/559 560/310/560
vt 0.050000 -0.021976
f 559/309/559 199/308/199 198/311/198
f 203/311/203 204/308/204 561/309/561
f 562/310/562 561/309/561 204/308/204
vt -0.026438 0.001482
f 563/98/563 564/312/564 565/97/565
vt -0.026179 0.001516
f 564/312/564 563/98/563 566/313/566
vt -0.025938 0.001616
f 566/313/566 563/98/563 567/314/567
f 567/314/567 563/98/563 568/99/568
vt -0.025731 0.001775
f 567/314/567 568/99/568 569/315/569
vt -0.025572 0.001982
f 569/315/569 568/99/568 570/316/570
vt -0.025472 0.002223
f 570/316/570 568/99/568 571/317/571
vt -0.023930 0.002479
f 571/317/571 568/99/568 572/318/572
vt -0.025438 0.002482
f 571/317/571 572/318/572 573/319/573
vt -0.023951 0.002805
f 573/319/573 572/318/572 574/320/574
vt -0.025472 0.002741
f 573/319/573 574/320/574 575/321/575
vt -0.025572 0.002982
f 575/321/575 574/320/574 576/322/576
vt -0.024120 0.003435
f 576/322/576 574/320/574 577/323/577
vt -0.025731 0.003189
f 576/322/576 577/323/577 578/324/578
vt -0.025938 0.003348
f 578/324/578 577/323/577 579/325/579
vt -0.026179 0.003448
f 579/325/579 577/323/577 580/326/580
vt -0.024447 0.004001
f 580/326/580 577/323/577 581/327/581
vt -0.026438 0.003482
f 580/326/580 581/327/581 582/328/582
vt -0.028413 0.004001
f 582/328/582 581/327/581 583/329/583
vt -0.027952 0.004462
f 583/329/583 581/327/581 584/330/584
vt -0.024908 0.004462
f 584/330/584 581/327/581 585/331/585
vt -0.027387 0.004788
f 584/330/584 585/331/585 586/332/586
vt -0.025473 0.004788
f 586/332/586 585/331/585 587/333/587
vt -0.026756 0.004957
f 586/332/586 587/333/587 588/334/588
vt -0.026104 0.004957
f 588/334/588 587/333/587 589/335/589
vt -0.026756 0.000000
f 590/95/590 591/336/591 592/93/592
vt -0.027387 0.000169
f 591/336/591 590/95/590 593/337/593
vt -0.027952 0.000495
f 593/337/593 590/95/590 594/338/594
f 594/338/594 590/95/590 595/96/595
vt -0.028413 0.000957
f 594/338/594 595/96/595 596/339/596
f 596/339/596 595/96/595 565/97/565
vt -0.028740 0.001522
f 596/339/596 565/97/565 597/340/597
f 597/340/597 565/97/565 564/312/564
vt -0.026697 0.001516
f 597/340/597 564/312/564 598/341/598
vt -0.026938 0.001616
f 597/340/597 598/341/598 599/342/599
vt -0.028909 0.002152
f 597/340/597 599/342/599 600/343/600
vt -0.027145 0.001775
f 600/343/600 599/342/599 601/344/601
vt -0.027304 0.001982
f 600/343/600 601/344/601 602/345/602
vt -0.027404 0.002223
f 600/343/600 602/345/602 603/346/603
vt -0.028909 0.002805
f 600/343/600 603/346/603 604/347/604
vt -0.027438 0.002482
f 604/347/604 603/346/603 605/348/605
vt -0.027404 0.002741
f 604/347/604 605/348/605 606/349/606
vt -0.027304 0.002982
f 604/347/604 606/349/606 607/350/607
vt -0.028740 0.003435
f 604/347/604 607/350/607 608/351/608
vt -0.027145 0.003189
f 608/351/608 607/350/607 609/352/609
vt -0.026938 0.003348
f 608/351/608 609/352/609 610/353/610
vt -0.026697 0.003448
f 608/351/608 610/353/610 611/354/611
f 608/351/608 611/354/611 583/329/583
f 583/329/583 611/354/611 582/328/582
f 612/328/612 613/354/613 614/329/614
f 614/329/614 613/354/613 615/351/615
f 613/354/613 616/353/616 615/351/615
f 616/353/616 617/352/617 615/351/615
f 617/352/617 618/350/618 615/351/615
f 615/351/615 618/350/618 619/347/619
f 618/350/618 620/349/620 619/347/619
f 620/349/620 621/348/621 619/347/619
f 621/348/621 622/346/622 619/347/619
f 619/347/619 622/346/622 623/343/623
f 622/346/622 624/345/624 623/343/623
f 624/345/624 625/344/625 623/343/623
f 625/344/625 626/342/626 623/343/623
f 623/343/623 626/342/626 627/340/627
f 626/342/626 628/341/628 627/340/627
f 628/341/628 629/312/629 627/340/627
f 629/312/629 630/97/630 627/340/627
f 627/340/627 630/97/630 631/339/631
f 630/97/630 632/96/632 631/339/631
f 631/339/631 632/96/632 633/338/633
f 632/96/632 634/95/634 633/338/633
f 633/338/633 634/95/634 635/337/635
f 635/337/635 634/95/634 636/336/636
f 637/93/637 636/336/636 634/95/634
f 638/335/638 639/333/639 640/334/640
f 640/334/640 639/333/639 641/332/641
f 639/333/639 642/331/642 641/332/641
f 641/332/641 642/331/642 643/330/643
f 642/331/642 644/327/644 643/330/643
f 643/330/643 644/327/644 614/329/614
f 614/329/614 644/327/644 612/328/612
f 612/328/612 644/327/644 645/326/645
f 644/327/644 646/323/646 645/326/645
f 645/326/645 646/323/646 647/325/647
f 647/325/647 646/323/646 648/324/648
f 648/324/648 646/323/646 649/322/649
f 646/323/646 650/320/650 649/322/649
f 649/322/649 650/320/650 651/321/651
f 651/321/651 650/320/650 652/319/652
f 650/320/650 653/318/653 652/319/652
f 652/319/652 653/318/653 654/317/654
f 653/318/653 655/99/655 654/317/654
f 654/317/654 655/99/655 656/316/656
f 656/316/656 655/99/655 657/315/657
f 657/315/657 655/99/655 658/314/658
f 655/99/655 659/98/659 658/314/658
f 658/314/658 659/98/659 660/313/660
f 660/313/660 659/98/659 629/312/629
f 630/97/630 629/312/629 659/98/659
vt 0.050000 0.026497
vt 0.030000 0.025845
vt 0.050000 0.025845
f 661/355/661 208/356/208 205/357/205
vt 0.030000 0.026497
f 208/356/208 661/355/661 662/358/662
f 663/358/663 664/355/664 209/356/209
f 210/357/210 209/356/209 664/355/664
vt -0.049994 0.003978
vt -0.029994 0.003651
vt -0.029994 0.003978
f 665/359/665 666/360/666 667/361/667
vt -0.049994 0.003651
f 666/360/666 665/359/665 668/362/668
f 669/362/669 670/359/670 671/360/671
f 672/361/672 671/360/671 670/359/670
vt -0.030000 0.020768
vt -0.050000 0.020115
vt -0.030000 0.020115
f 673/363/673 674/364/674 675/365/675
vt -0.050000 0.020768
f 674/364/674 673/363/673 676/366/676
f 677/366/677 678/363/678 679/364/679
f 680/365/680 679/364/679 678/363/678
vt -0.050000 0.015688
vt -0.030000 0.015035
vt -0.030000 0.015688
f 674/367/674 681/368/681 675/369/675
vt -0.050000 0.015035
f 681/368/681 674/367/674 682/370/682
f 683/370/683 679/367/679 684/368/684
f 680/369/680 684/368/684 679/367/679
vt -0.050000 0.009561
vt -0.030000 0.008908
vt -0.030000 0.009561
f 682/371/682 667/372/667 681/373/681
vt -0.050000 0.008908
f 667/372/667 682/371/682 665/374/665
f 670/374/670 683/371/683 672/372/672
f 684/373/684 672/372/672 683/371/683
vt 0.050000 0.024455
vt 0.030000 0.023802
vt 0.050000 0.023802
f 685/375/685 662/376/662 661/377/661
vt 0.030000 0.024455
f 662/376/662 685/375/685 686/378/686
f 687/378/687 688/375/688 663/376/663
f 664/377/664 663/376/663 688/375/688
vt 0.050000 0.020768
vt 0.030000 0.020115
vt 0.050000 0.020115
f 689/379/689 686/380/686 685/381/685
vt 0.030000 0.020768
f 686/380/686 689/379/689 690/382/690
f 691/382/691 692/379/692 687/380/687
f 688/381/688 687/380/687 692/379/692
vt 0.050000 0.015035
vt 0.030000 0.015688
vt 0.030000 0.015035
f 689/383/689 693/384/693 690/385/690
vt 0.050000 0.015688
f 693/384/693 689/383/689 694/386/694
f 695/386/695 692/383/692 696/384/696
f 691/385/691 696/384/696 692/383/692
vt 0.050000 0.008908
vt 0.030000 0.009561
vt 0.030000 0.008908
f 694/387/694 697/388/697 693/389/693
vt 0.050000 0.009561
f 697/388/697 694/387/694 698/390/698
f 699/390/699 695/387/695 700/388/700
f 696/389/696 700/388/700 695/387/695
vt 0.050000 0.002152
vt 0.030000 0.002805
vt 0.030000 0.002152
f 698/391/698 701/392/701 697/393/697
vt 0.050000 0.002805
f 701/392/701 698/391/698 702/394/702
f 703/394/703 699/391/699 704/392/704
f 700/393/700 704/392/704 699/391/699
f 702/296/702 705/297/705 701/298/701
f 705/297/705 702/296/702 706/299/706
f 707/299/707 703/296/703 708/297/708
f 704/298/704 708/297/708 703/296/703
f 706/300/706 709/301/709 705/302/705
f 709/301/709 706/300/706 710/303/710
f 711/303/711 707/300/707 712/301/712
f 708/302/708 712/301/712 707/300/707
f 710/304/710 713/305/713 709/306/709
f 713/305/713 710/304/710 714/307/714
f 715/307/715 711/304/711 716/305/716
f 712/306/712 716/305/716 711/304/711
f 713/308/713 717/309/717 718/310/718
f 717/309/717 713/308/713 714/311/714
f 715/311/715 716/308/716 719/309/719
f 720/310/720 719/309/719 716/308/716
f 718/101/718 721/102/721 722/103/722
f 721/102/721 718/101/718 717/104/717
f 719/104/719 720/101/720 723/102/723
f 724/103/724 723/102/723 720/101/720
vt 0.026756 0.030000
f 722/395/722 725/52/725 726/23/726
vt 0.026756 0.050000
f 725/52/725 722/395/722 721/396/721
f 723/396/723 724/395/724 727/52/727
f 728/23/728 727/52/727 724/395/724
vt -0.030000 0.026497
vt -0.050000 0.025845
vt -0.030000 0.025845
f 726/397/726 729/398/729 730/399/730
vt -0.050000 0.026497
f 729/398/729 726/397/726 725/400/725
f 727/400/727 728/397/728 731/398/731
f 732/399/732 731/398/731 728/397/728
vt -0.030000 0.024455
vt -0.050000 0.023802
vt -0.030000 0.023802
f 730/401/730 676/402/676 673/403/673
vt -0.050000 0.024455
f 676/402/676 730/401/730 729/404/729
f 731/404/731 732/401/732 677/402/677
f 678/403/678 677/402/677 732/401/732
# 736 faces, 404 coords texture

# End of File
