####
#
# OBJ File Generated by Meshlab
#
####
# Object original-10.obj
#
# Vertices: 732
# Faces: 736
#
####
mtllib ./original-10.obj.mtl

vn -0.000211 -3.402102 -0.020432
v 0.314586 -0.594809 0.300908
vn 0.000212 -3.402102 -0.020432
v 0.299547 -0.594809 0.300908
vn 0.000000 -3.403468 -0.024665
v 0.313808 -0.594809 0.301010
vn 0.000000 -3.404120 -0.024669
v 0.300326 -0.594809 0.301010
vn 0.000000 -3.403682 -0.017882
v 0.313082 -0.594811 0.301311
vn 0.000000 -3.403195 -0.017879
v 0.301051 -0.594811 0.301311
vn 0.000000 -3.404275 -0.021034
v 0.312459 -0.594814 0.301789
vn 0.000000 -3.403264 -0.021028
v 0.301674 -0.594814 0.301789
vn 0.000000 -3.401894 -0.020974
v 0.311982 -0.594818 0.302411
vn 0.000000 -3.402905 -0.020980
v 0.302152 -0.594818 0.302411
vn 0.000000 -3.404459 -0.019441
v 0.311681 -0.594822 0.303137
vn 0.000000 -3.404459 -0.019441
v 0.302453 -0.594822 0.303137
vn 0.000000 -3.402121 -0.019372
v 0.311579 -0.594826 0.303915
vn 0.000000 -3.402121 -0.019372
v 0.302555 -0.594826 0.303915
vn 0.000000 -3.404459 -0.019441
v 0.311681 -0.594831 0.304694
vn 0.000000 -3.404459 -0.019441
v 0.302453 -0.594831 0.304694
vn 0.000000 -3.401894 -0.020974
v 0.311982 -0.594835 0.305419
vn 0.000000 -3.402905 -0.020980
v 0.302152 -0.594835 0.305419
vn 0.000000 -3.404275 -0.021034
v 0.312459 -0.594839 0.306042
vn 0.000000 -3.403264 -0.021028
v 0.301674 -0.594839 0.306042
vn 0.000000 -3.403682 -0.017882
v 0.313082 -0.594842 0.306520
vn 0.000000 -3.403195 -0.017879
v 0.301051 -0.594842 0.306520
vn 0.000000 -3.402543 -0.006860
v 0.313808 -0.594843 0.306821
vn 0.000000 -3.403197 -0.006863
v 0.300326 -0.594843 0.306821
vn -0.001955 -3.404093 -0.022716
v 0.314586 -0.594844 0.306923
vn 0.001959 -3.404093 -0.022723
v 0.299547 -0.594844 0.306923
vn -0.000019 -1.570769 -0.009261
v 0.292028 -0.594746 0.290381
vn 0.000019 -1.570769 -0.009261
v 0.322106 -0.594746 0.290381
vn 0.000003 -3.404151 -0.020131
v 0.315365 -0.594809 0.301010
vn 0.000283 -3.403184 -0.019891
v 0.316090 -0.594811 0.301311
vn -0.000977 -3.403266 -0.020539
v 0.316713 -0.594814 0.301789
vn 0.000160 -3.402910 -0.020097
v 0.317191 -0.594818 0.302411
vn 0.001369 -3.404457 -0.019638
v 0.317492 -0.594822 0.303137
vn 0.003217 -3.402121 -0.019004
v 0.317594 -0.594826 0.303915
vn 0.000118 -3.404456 -0.019887
v 0.317492 -0.594831 0.304694
vn -0.000000 -3.402101 -0.020483
v 0.307067 -0.594871 0.311591
vn -0.003716 -3.403104 -0.026273
v 0.315365 -0.594843 0.306821
vn 0.003414 -3.403201 -0.016291
v 0.316090 -0.594842 0.306520
vn -0.000907 -3.404205 -0.021224
v 0.307845 -0.594872 0.311693
vn -0.001086 -3.402947 -0.021616
v 0.308571 -0.594874 0.311994
vn 0.001386 -3.403423 -0.018576
v 0.309194 -0.594877 0.312472
vn 0.000878 -3.403268 -0.020261
v 0.316713 -0.594839 0.306042
vn 0.000251 -3.403555 -0.019432
v 0.309672 -0.594880 0.313095
vn -0.000599 -3.402402 -0.020220
v 0.309972 -0.594884 0.313820
vn 0.000102 -3.010511 -0.017733
v 0.322106 -0.594889 0.314598
vn 0.000088 -3.402911 -0.020051
v 0.317191 -0.594835 0.305419
vn 0.000000 -3.404534 -0.021124
v 0.310075 -0.594889 0.314598
vn 0.000133 -3.402112 -0.020779
v 0.309972 -0.594894 0.315377
vn 0.000418 -3.404570 -0.017778
v 0.309672 -0.594898 0.316103
vn 0.000008 -3.402799 -0.020064
v 0.309194 -0.594901 0.316725
vn -0.001866 -3.402881 -0.029927
v 0.308571 -0.594904 0.317203
vn -0.000601 -3.403241 -0.011869
v 0.307845 -0.594907 0.317504
vn -0.000000 -3.404123 -0.018167
v 0.307067 -0.594907 0.317607
vn 0.000076 -2.879987 -0.016919
v 0.321593 -0.594912 0.318491
vn -0.000002 -3.403498 -0.020128
v 0.298769 -0.594809 0.301010
vn -0.000283 -3.403671 -0.019894
v 0.298043 -0.594811 0.301311
vn 0.000977 -3.403266 -0.020539
v 0.297420 -0.594814 0.301789
vn -0.000162 -3.404087 -0.020104
v 0.296942 -0.594818 0.302411
vn -0.001369 -3.403281 -0.019631
v 0.296642 -0.594822 0.303137
vn -0.003217 -3.402121 -0.019004
v 0.296540 -0.594826 0.303915
vn -0.000118 -3.403280 -0.019880
v 0.296642 -0.594831 0.304694
vn 0.003699 -3.402450 -0.026240
v 0.298769 -0.594843 0.306821
vn -0.003418 -3.403688 -0.016288
v 0.298043 -0.594842 0.306520
vn 0.000907 -3.404858 -0.021228
v 0.306288 -0.594872 0.311693
vn 0.001086 -3.402459 -0.021614
v 0.305563 -0.594874 0.311994
vn -0.001386 -3.403423 -0.018576
v 0.304940 -0.594877 0.312472
vn -0.000875 -3.403268 -0.020246
v 0.297420 -0.594839 0.306042
vn -0.000251 -3.403555 -0.019432
v 0.304462 -0.594880 0.313095
vn 0.000238 -3.402403 -0.020128
v 0.304162 -0.594884 0.313820
vn -0.000128 -3.404533 -0.021274
v 0.304059 -0.594889 0.314598
vn -0.000093 -3.010764 -0.017738
v 0.292028 -0.594889 0.314598
vn -0.000087 -3.404087 -0.020058
v 0.296942 -0.594835 0.305419
vn -0.000133 -3.402112 -0.020779
v 0.304162 -0.594894 0.315377
vn -0.000418 -3.404570 -0.017778
v 0.304462 -0.594898 0.316103
vn -0.000008 -3.402799 -0.020064
v 0.304940 -0.594901 0.316725
vn 0.001864 -3.402394 -0.029911
v 0.305563 -0.594904 0.317203
vn 0.000601 -3.403896 -0.011876
v 0.306288 -0.594907 0.317504
vn -0.000076 -2.879499 -0.016916
v 0.292540 -0.594912 0.318491
vn 0.000000 -2.879566 -0.017015
v 0.320091 -0.594933 0.322118
vn 0.000000 -2.879802 -0.017016
v 0.294043 -0.594933 0.322118
vn 0.000000 -2.879938 -0.017065
v 0.317701 -0.594952 0.325232
vn 0.000000 -2.880093 -0.017066
v 0.296433 -0.594952 0.325232
vn 0.000000 -2.879493 -0.016883
v 0.314586 -0.594966 0.327623
vn 0.000000 -2.879338 -0.016882
v 0.299547 -0.594966 0.327623
vn 0.000000 -2.879866 -0.016975
v 0.310959 -0.594975 0.329125
vn 0.000000 -2.879832 -0.016975
v 0.303174 -0.594975 0.329125
vn 0.000000 -2.879794 -0.011445
v 0.307067 -0.594977 0.329637
vn 0.000000 2.879832 0.016975
v 0.303174 -0.594975 0.329125
vn 0.000000 2.879866 0.016975
v 0.310959 -0.594975 0.329125
vn 0.000000 2.879794 0.011445
v 0.307067 -0.594977 0.329637
vn 0.000000 2.879338 0.016882
v 0.299547 -0.594966 0.327623
vn 0.000000 2.879493 0.016883
v 0.314586 -0.594966 0.327623
vn 0.000000 2.880093 0.017066
v 0.296433 -0.594952 0.325232
vn 0.000000 2.879938 0.017065
v 0.317701 -0.594952 0.325232
vn 0.000000 2.879802 0.017016
v 0.294043 -0.594933 0.322118
vn 0.000000 2.879566 0.017015
v 0.320091 -0.594933 0.322118
vn 0.000076 2.879499 0.016916
v 0.292540 -0.594912 0.318491
vn -0.000076 2.879987 0.016919
v 0.321593 -0.594912 0.318491
vn 0.000000 3.404123 0.018167
v 0.307067 -0.594907 0.317607
vn -0.000601 3.403896 0.011876
v 0.306288 -0.594907 0.317504
vn 0.000093 3.010764 0.017738
v 0.292028 -0.594889 0.314598
vn -0.001864 3.402394 0.029911
v 0.305563 -0.594904 0.317203
vn 0.000008 3.402799 0.020064
v 0.304940 -0.594901 0.316725
vn 0.000418 3.404570 0.017778
v 0.304462 -0.594898 0.316103
vn 0.000133 3.402112 0.020779
v 0.304162 -0.594894 0.315377
vn 0.000128 3.404533 0.021274
v 0.304059 -0.594889 0.314598
vn 0.000875 3.403268 0.020246
v 0.297420 -0.594839 0.306042
vn 0.000087 3.404087 0.020058
v 0.296942 -0.594835 0.305419
vn 0.000118 3.403280 0.019880
v 0.296642 -0.594831 0.304694
vn 0.000019 1.570769 0.009261
v 0.292028 -0.594746 0.290381
vn -0.000238 3.402403 0.020128
v 0.304162 -0.594884 0.313820
vn 0.000251 3.403555 0.019432
v 0.304462 -0.594880 0.313095
vn 0.001386 3.403423 0.018576
v 0.304940 -0.594877 0.312472
vn 0.003418 3.403688 0.016288
v 0.298043 -0.594842 0.306520
vn -0.001086 3.402459 0.021614
v 0.305563 -0.594874 0.311994
vn -0.000907 3.404858 0.021228
v 0.306288 -0.594872 0.311693
vn 0.000000 3.402101 0.020483
v 0.307067 -0.594871 0.311591
vn -0.003699 3.402450 0.026240
v 0.298769 -0.594843 0.306821
vn -0.001959 3.404093 0.022723
v 0.299547 -0.594844 0.306923
vn 0.003217 3.402121 0.019004
v 0.296540 -0.594826 0.303915
vn 0.001369 3.403281 0.019631
v 0.296642 -0.594822 0.303137
vn 0.000162 3.404087 0.020104
v 0.296942 -0.594818 0.302411
vn -0.000977 3.403266 0.020539
v 0.297420 -0.594814 0.301789
vn 0.000283 3.403671 0.019894
v 0.298043 -0.594811 0.301311
vn 0.000002 3.403498 0.020128
v 0.298769 -0.594809 0.301010
vn -0.000212 3.402102 0.020432
v 0.299547 -0.594809 0.300908
vn 0.000211 3.402102 0.020432
v 0.314586 -0.594809 0.300908
vn 0.000601 3.403241 0.011869
v 0.307845 -0.594907 0.317504
vn -0.000102 3.010511 0.017733
v 0.322106 -0.594889 0.314598
vn 0.001866 3.402881 0.029927
v 0.308571 -0.594904 0.317203
vn -0.000008 3.402799 0.020064
v 0.309194 -0.594901 0.316725
vn -0.000418 3.404570 0.017778
v 0.309672 -0.594898 0.316103
vn -0.000133 3.402112 0.020779
v 0.309972 -0.594894 0.315377
vn 0.000000 3.404534 0.021124
v 0.310075 -0.594889 0.314598
vn 0.000599 3.402402 0.020220
v 0.309972 -0.594884 0.313820
vn -0.000878 3.403268 0.020261
v 0.316713 -0.594839 0.306042
vn -0.000088 3.402911 0.020051
v 0.317191 -0.594835 0.305419
vn -0.000118 3.404456 0.019887
v 0.317492 -0.594831 0.304694
vn -0.000019 1.570769 0.009261
v 0.322106 -0.594746 0.290381
vn -0.000251 3.403555 0.019432
v 0.309672 -0.594880 0.313095
vn -0.001386 3.403423 0.018576
v 0.309194 -0.594877 0.312472
vn -0.003414 3.403201 0.016291
v 0.316090 -0.594842 0.306520
vn 0.001086 3.402947 0.021616
v 0.308571 -0.594874 0.311994
vn 0.000907 3.404205 0.021224
v 0.307845 -0.594872 0.311693
vn 0.003716 3.403104 0.026273
v 0.315365 -0.594843 0.306821
vn 0.001955 3.404093 0.022716
v 0.314586 -0.594844 0.306923
vn -0.003217 3.402121 0.019004
v 0.317594 -0.594826 0.303915
vn -0.001369 3.404457 0.019638
v 0.317492 -0.594822 0.303137
vn -0.000160 3.402910 0.020097
v 0.317191 -0.594818 0.302411
vn 0.000977 3.403266 0.020539
v 0.316713 -0.594814 0.301789
vn -0.000283 3.403184 0.019891
v 0.316090 -0.594811 0.301311
vn -0.000003 3.404151 0.020131
v 0.315365 -0.594809 0.301010
vn 0.000000 3.403197 0.006863
v 0.300326 -0.594843 0.306821
vn 0.000000 3.402543 0.006860
v 0.313808 -0.594843 0.306821
vn 0.000000 3.403195 0.017879
v 0.301051 -0.594842 0.306520
vn 0.000000 3.403682 0.017882
v 0.313082 -0.594842 0.306520
vn 0.000000 3.403264 0.021028
v 0.301674 -0.594839 0.306042
vn 0.000000 3.404275 0.021034
v 0.312459 -0.594839 0.306042
vn 0.000000 3.402905 0.020980
v 0.302152 -0.594835 0.305419
vn 0.000000 3.401894 0.020974
v 0.311982 -0.594835 0.305419
vn 0.000000 3.404459 0.019441
v 0.302453 -0.594831 0.304694
vn 0.000000 3.404459 0.019441
v 0.311681 -0.594831 0.304694
vn 0.000000 3.402121 0.019372
v 0.302555 -0.594826 0.303915
vn 0.000000 3.402121 0.019372
v 0.311579 -0.594826 0.303915
vn 0.000000 3.404459 0.019441
v 0.302453 -0.594822 0.303137
vn 0.000000 3.404459 0.019441
v 0.311681 -0.594822 0.303137
vn 0.000000 3.402905 0.020980
v 0.302152 -0.594818 0.302411
vn 0.000000 3.401894 0.020974
v 0.311982 -0.594818 0.302411
vn 0.000000 3.403264 0.021028
v 0.301674 -0.594814 0.301789
vn 0.000000 3.404275 0.021034
v 0.312459 -0.594814 0.301789
vn 0.000000 3.403195 0.017879
v 0.301051 -0.594811 0.301311
vn 0.000000 3.403682 0.017882
v 0.313082 -0.594811 0.301311
vn 0.000000 3.404120 0.024669
v 0.300326 -0.594809 0.301010
vn 0.000000 3.403468 0.024665
v 0.313808 -0.594809 0.301010
vn 3.008431 -0.004744 0.806174
v 0.321593 -0.591184 0.318513
vn 3.128298 -0.001225 0.205289
v 0.322106 -0.591162 0.314621
vn 3.008615 -0.004760 0.806186
v 0.321593 -0.594912 0.318491
vn 3.128148 -0.001241 0.205209
v 0.322106 -0.594889 0.314598
vn -3.128298 0.001225 -0.205289
v 0.322106 -0.591162 0.314621
vn -3.008615 0.004760 -0.806186
v 0.321593 -0.594912 0.318491
vn -3.128148 0.001241 -0.205209
v 0.322106 -0.594889 0.314598
vn -3.008431 0.004744 -0.806174
v 0.321593 -0.591184 0.318513
vn 2.697396 -0.009163 1.557214
v 0.320091 -0.591205 0.322140
vn 2.697468 -0.009163 1.557273
v 0.320091 -0.594933 0.322118
vn -2.697396 0.009163 -1.557214
v 0.320091 -0.591205 0.322140
vn -2.697468 0.009163 -1.557273
v 0.320091 -0.594933 0.322118
vn 2.202304 -0.012959 2.202432
v 0.317701 -0.591224 0.325254
vn 2.202382 -0.012831 2.202379
v 0.317701 -0.594952 0.325232
vn -2.202382 0.012831 -2.202379
v 0.317701 -0.594952 0.325232
vn -2.202304 0.012959 -2.202432
v 0.317701 -0.591224 0.325254
vn 1.557697 -0.015426 2.697522
v 0.314586 -0.591238 0.327644
vn 1.557474 -0.015446 2.697293
v 0.314586 -0.594966 0.327623
vn -1.557697 0.015426 -2.697522
v 0.314586 -0.591238 0.327644
vn -1.557474 0.015446 -2.697293
v 0.314586 -0.594966 0.327623
vn 0.805982 -0.017552 3.008345
v 0.310959 -0.591247 0.329147
vn 0.805898 -0.017663 3.008325
v 0.310959 -0.594975 0.329125
vn -0.805982 0.017552 -3.008345
v 0.310959 -0.591247 0.329147
vn -0.805898 0.017663 -3.008325
v 0.310959 -0.594975 0.329125
vn 0.000090 -0.018209 3.114909
v 0.307067 -0.591250 0.329659
vn 0.000090 -0.018210 3.115154
v 0.307067 -0.594977 0.329637
vn -0.000090 0.018209 -3.114909
v 0.307067 -0.591250 0.329659
vn -0.000090 0.018210 -3.115154
v 0.307067 -0.594977 0.329637
vn -0.806109 -0.017663 3.008288
v 0.303174 -0.591247 0.329147
vn -0.806024 -0.017551 3.008269
v 0.303174 -0.594975 0.329125
vn 0.806109 0.017663 -3.008288
v 0.303174 -0.591247 0.329147
vn 0.806024 0.017551 -3.008269
v 0.303174 -0.594975 0.329125
vn -1.557647 -0.015447 2.697512
v 0.299547 -0.591238 0.327644
vn -1.557423 -0.015424 2.697282
v 0.299547 -0.594966 0.327623
vn 1.557647 0.015447 -2.697512
v 0.299547 -0.591238 0.327644
vn 1.557423 0.015424 -2.697282
v 0.299547 -0.594966 0.327623
vn -2.202600 -0.012830 2.202205
v 0.296433 -0.591224 0.325254
vn -2.202679 -0.012958 2.202150
v 0.296433 -0.594952 0.325232
vn 2.202600 0.012830 -2.202205
v 0.296433 -0.591224 0.325254
vn 2.202679 0.012958 -2.202150
v 0.296433 -0.594952 0.325232
vn -2.697254 -0.009165 1.557555
v 0.294043 -0.591205 0.322140
vn -2.697327 -0.009165 1.557614
v 0.294043 -0.594933 0.322118
vn 2.697254 0.009165 -1.557555
v 0.294043 -0.591205 0.322140
vn 2.697327 0.009165 -1.557614
v 0.294043 -0.594933 0.322118
vn -3.008344 -0.004759 0.806106
v 0.292540 -0.591184 0.318513
vn -3.008528 -0.004743 0.806118
v 0.292540 -0.594912 0.318491
vn 3.008528 0.004743 -0.806118
v 0.292540 -0.594912 0.318491
vn 3.008344 0.004759 -0.806106
v 0.292540 -0.591184 0.318513
vn -3.128380 -0.001239 0.204912
v 0.292028 -0.591162 0.314621
vn -3.128198 -0.001222 0.204832
v 0.292028 -0.594889 0.314598
vn 3.128198 0.001222 -0.204832
v 0.292028 -0.594889 0.314598
vn 3.128380 0.001239 -0.204912
v 0.292028 -0.591162 0.314621
vn -1.603705 0.000000 0.000000
v 0.292028 -0.591038 0.293656
vn -3.370245 0.000000 0.000000
v 0.292028 -0.591529 0.293636
vn -3.403498 0.000000 0.000000
v 0.292028 -0.592476 0.293377
vn -3.403416 0.000000 0.000000
v 0.292028 -0.593323 0.292882
vn -3.404072 0.000000 0.000000
v 0.292028 -0.594013 0.292184
vn -3.403107 0.000000 0.000000
v 0.292028 -0.594499 0.291330
vn -0.261489 0.000000 0.000000
v 0.292028 -0.594746 0.290381
vn 0.261489 0.000000 0.000000
v 0.292028 -0.594746 0.290381
vn 3.403107 0.000000 0.000000
v 0.292028 -0.594499 0.291330
vn 3.404072 0.000000 0.000000
v 0.292028 -0.594013 0.292184
vn 3.403416 0.000000 0.000000
v 0.292028 -0.593323 0.292882
vn 3.403498 0.000000 0.000000
v 0.292028 -0.592476 0.293377
vn 3.370245 0.000000 0.000000
v 0.292028 -0.591529 0.293636
vn 1.603705 0.000000 0.000000
v 0.292028 -0.591038 0.293656
vn 0.000000 -1.519761 0.397151
v 0.322106 -0.594746 0.290381
vn 0.000000 -1.519761 0.397151
v 0.292028 -0.594746 0.290381
vn 0.000000 -2.885168 1.173723
v 0.322106 -0.594499 0.291330
vn 0.000000 -2.885168 1.173723
v 0.292028 -0.594499 0.291330
vn 0.000000 1.519761 -0.397151
v 0.292028 -0.594746 0.290381
vn 0.000000 2.885168 -1.173723
v 0.322106 -0.594499 0.291330
vn 0.000000 2.885168 -1.173723
v 0.292028 -0.594499 0.291330
vn 0.000000 1.519761 -0.397151
v 0.322106 -0.594746 0.290381
vn 0.000000 3.085719 0.423415
v 0.292028 -0.594741 0.289399
vn 0.000000 3.085719 0.423415
v 0.322106 -0.594741 0.289399
vn 0.000000 1.570775 0.008272
v 0.292028 -0.594746 0.290381
vn 0.000000 1.570775 0.008272
v 0.322106 -0.594746 0.290381
vn 0.000000 -3.085719 -0.423415
v 0.322106 -0.594741 0.289399
vn 0.000000 -1.570775 -0.008272
v 0.292028 -0.594746 0.290381
vn 0.000000 -1.570775 -0.008272
v 0.322106 -0.594746 0.290381
vn 0.000000 -3.085719 -0.423415
v 0.292028 -0.594741 0.289399
vn 1.635496 0.000000 0.000000
v 0.322106 -0.591039 0.293671
vn 3.338486 0.000000 0.000000
v 0.322106 -0.591529 0.293636
vn 3.403498 0.000000 0.000000
v 0.322106 -0.592476 0.293377
vn 3.403416 0.000000 0.000000
v 0.322106 -0.593323 0.292882
vn 3.404072 0.000000 0.000000
v 0.322106 -0.594013 0.292184
vn 3.403107 0.000000 0.000000
v 0.322106 -0.594499 0.291330
vn 0.261489 0.000000 0.000000
v 0.322106 -0.594746 0.290381
vn -0.261489 0.000000 0.000000
v 0.322106 -0.594746 0.290381
vn -3.403107 0.000000 0.000000
v 0.322106 -0.594499 0.291330
vn -3.404072 0.000000 0.000000
v 0.322106 -0.594013 0.292184
vn -3.403416 0.000000 0.000000
v 0.322106 -0.593323 0.292882
vn -3.403498 0.000000 0.000000
v 0.322106 -0.592476 0.293377
vn -3.338486 0.000000 0.000000
v 0.322106 -0.591529 0.293636
vn -1.635496 0.000000 0.000000
v 0.322106 -0.591039 0.293671
vn 0.000034 1.571288 0.009225
v 0.322106 -0.591039 0.293671
vn -0.000396 3.404118 0.019004
v 0.314586 -0.591081 0.300929
vn 0.000040 1.570250 0.009282
v 0.292028 -0.591038 0.293656
vn 0.000453 3.404117 0.019220
v 0.299547 -0.591081 0.300929
vn 0.000433 3.403209 0.019650
v 0.298769 -0.591081 0.301032
vn -0.001102 3.402950 0.021149
v 0.298043 -0.591084 0.301333
vn 0.001029 3.402801 0.019631
v 0.297420 -0.591087 0.301811
vn 0.001120 3.404561 0.019491
v 0.296942 -0.591090 0.302433
vn 0.000994 3.403281 0.019579
v 0.296642 -0.591094 0.303159
vn -0.007578 3.401983 0.023328
v 0.296540 -0.591099 0.303937
vn 0.181839 3.397583 -0.055678
v 0.296642 -0.591104 0.304716
vn -0.000382 3.404560 0.019645
v 0.296942 -0.591108 0.305442
vn 0.000867 3.402115 0.017951
v 0.299547 -0.591117 0.306945
vn 0.000001 3.403626 0.021498
v 0.307067 -0.591143 0.311613
vn 0.009276 3.404249 0.003112
v 0.298769 -0.591116 0.306843
vn 0.003923 3.402980 0.015405
v 0.298043 -0.591114 0.306542
vn -0.002266 3.403358 0.023909
v 0.306288 -0.591145 0.311715
vn 0.000394 3.403186 0.019585
v 0.305563 -0.591146 0.312016
vn -0.000501 3.403265 0.020781
v 0.304940 -0.591149 0.312494
vn -0.001046 3.402802 0.019417
v 0.297420 -0.591111 0.306064
vn 0.000020 3.404085 0.020342
v 0.304462 -0.591153 0.313117
vn 0.000808 3.402019 0.019567
v 0.304162 -0.591157 0.313842
vn 0.000209 3.404645 0.019632
v 0.304059 -0.591162 0.314621
vn 0.000022 3.010745 0.017506
v 0.292028 -0.591162 0.314621
vn -0.000004 3.402020 0.019431
v 0.304162 -0.591166 0.315399
vn -0.000218 3.404080 0.021235
v 0.304462 -0.591170 0.316125
vn -0.000173 3.403263 0.021167
v 0.304940 -0.591174 0.316748
vn 0.000924 3.403206 0.015431
v 0.305563 -0.591177 0.317226
vn -0.000422 3.403188 0.010869
v 0.306288 -0.591179 0.317526
vn 0.000000 3.404123 0.018167
v 0.307067 -0.591179 0.317629
vn 0.000052 2.879521 0.016587
v 0.292540 -0.591184 0.318513
vn -0.000375 3.403865 0.019395
v 0.315365 -0.591081 0.301032
vn 0.001219 3.402464 0.020941
v 0.316090 -0.591084 0.301333
vn -0.000855 3.402802 0.019465
v 0.316713 -0.591087 0.301811
vn -0.000875 3.403385 0.019359
v 0.317191 -0.591090 0.302433
vn -0.000633 3.404458 0.019520
v 0.317492 -0.591094 0.303159
vn 0.008229 3.401981 0.023396
v 0.317594 -0.591099 0.303937
vn -0.165911 3.399757 -0.049325
v 0.317492 -0.591104 0.304716
vn 0.000566 3.403384 0.019586
v 0.317191 -0.591108 0.305442
vn -0.000865 3.402115 0.017954
v 0.314586 -0.591117 0.306945
vn -0.009323 3.404903 0.003034
v 0.315365 -0.591116 0.306843
vn -0.003919 3.402492 0.015407
v 0.316090 -0.591114 0.306542
vn 0.002269 3.402704 0.023910
v 0.307845 -0.591145 0.311715
vn -0.000394 3.403673 0.019588
v 0.308571 -0.591146 0.312016
vn 0.000501 3.403265 0.020781
v 0.309194 -0.591149 0.312494
vn 0.001046 3.402802 0.019417
v 0.316713 -0.591111 0.306064
vn -0.000020 3.404085 0.020342
v 0.309672 -0.591153 0.313117
vn -0.000808 3.402019 0.019567
v 0.309972 -0.591157 0.313842
vn -0.000209 3.404645 0.019632
v 0.310075 -0.591162 0.314621
vn 0.000007 3.010493 0.017489
v 0.322106 -0.591162 0.314621
vn 0.000004 3.402020 0.019431
v 0.309972 -0.591166 0.315399
vn 0.000218 3.404080 0.021235
v 0.309672 -0.591170 0.316125
vn 0.000173 3.403263 0.021167
v 0.309194 -0.591174 0.316748
vn -0.000925 3.403694 0.015427
v 0.308571 -0.591177 0.317226
vn 0.000423 3.402534 0.010863
v 0.307845 -0.591179 0.317526
vn -0.000052 2.880009 0.016589
v 0.321593 -0.591184 0.318513
vn 0.000000 2.879802 0.017016
v 0.294043 -0.591205 0.322140
vn 0.000000 2.879566 0.017015
v 0.320091 -0.591205 0.322140
vn 0.000000 2.879776 0.017230
v 0.317701 -0.591224 0.325254
vn 0.000000 2.879931 0.017231
v 0.296433 -0.591224 0.325254
vn 0.000000 2.879838 0.017357
v 0.314586 -0.591238 0.327644
vn 0.000000 2.879683 0.017356
v 0.299547 -0.591238 0.327644
vn 0.000000 2.879635 0.016222
v 0.310959 -0.591247 0.329147
vn 0.000000 2.879602 0.016222
v 0.303174 -0.591247 0.329147
vn 0.000000 2.879848 0.019324
v 0.307067 -0.591250 0.329659
vn 0.000000 3.403250 0.007902
v 0.313808 -0.591081 0.301032
vn 0.000000 3.403905 0.007906
v 0.300326 -0.591081 0.301032
vn 0.000000 3.402922 0.025142
v 0.313082 -0.591084 0.301333
vn 0.000000 3.402434 0.025139
v 0.301051 -0.591084 0.301333
vn 0.000000 3.403811 0.019860
v 0.312459 -0.591087 0.301811
vn 0.000000 3.402800 0.019855
v 0.301674 -0.591087 0.301811
vn 0.000000 3.402380 0.018135
v 0.311982 -0.591090 0.302433
vn 0.000000 3.403392 0.018140
v 0.302152 -0.591090 0.302433
vn 0.000000 3.404459 0.019441
v 0.311681 -0.591094 0.303159
vn 0.000000 3.404459 0.019441
v 0.302453 -0.591094 0.303159
vn 0.000000 3.402010 0.021108
v 0.311579 -0.591099 0.303937
vn 0.000000 3.402010 0.021108
v 0.302555 -0.591099 0.303937
vn 0.000000 3.404550 0.020912
v 0.311681 -0.591104 0.304716
vn 0.000000 3.404550 0.020912
v 0.302453 -0.591104 0.304716
vn 0.000000 3.402380 0.018135
v 0.311982 -0.591108 0.305442
vn 0.000000 3.403392 0.018140
v 0.302152 -0.591108 0.305442
vn 0.000000 3.403811 0.019860
v 0.312459 -0.591111 0.306064
vn 0.000000 3.402800 0.019855
v 0.301674 -0.591111 0.306064
vn 0.000000 3.402922 0.025142
v 0.313082 -0.591114 0.306542
vn 0.000000 3.402434 0.025139
v 0.301051 -0.591114 0.306542
vn 0.000000 3.404174 0.025708
v 0.313808 -0.591116 0.306843
vn 0.000000 3.404828 0.025713
v 0.300326 -0.591116 0.306843
vn 0.000865 -3.402115 -0.017954
v 0.314586 -0.591117 0.306945
vn 0.000000 -3.404828 -0.025713
v 0.300326 -0.591116 0.306843
vn -0.000867 -3.402115 -0.017951
v 0.299547 -0.591117 0.306945
vn 0.000000 -3.404174 -0.025708
v 0.313808 -0.591116 0.306843
vn 0.000000 -3.402434 -0.025139
v 0.301051 -0.591114 0.306542
vn 0.000000 -3.402922 -0.025142
v 0.313082 -0.591114 0.306542
vn 0.000000 -3.402800 -0.019855
v 0.301674 -0.591111 0.306064
vn 0.000000 -3.403811 -0.019860
v 0.312459 -0.591111 0.306064
vn 0.000000 -3.403392 -0.018140
v 0.302152 -0.591108 0.305442
vn 0.000000 -3.402380 -0.018135
v 0.311982 -0.591108 0.305442
vn 0.000000 -3.404550 -0.020912
v 0.302453 -0.591104 0.304716
vn 0.000000 -3.404550 -0.020912
v 0.311681 -0.591104 0.304716
vn 0.000000 -3.402010 -0.021108
v 0.302555 -0.591099 0.303937
vn 0.000000 -3.402010 -0.021108
v 0.311579 -0.591099 0.303937
vn 0.000000 -3.404459 -0.019441
v 0.302453 -0.591094 0.303159
vn 0.000000 -3.404459 -0.019441
v 0.311681 -0.591094 0.303159
vn 0.000000 -3.403392 -0.018140
v 0.302152 -0.591090 0.302433
vn 0.000000 -3.402380 -0.018135
v 0.311982 -0.591090 0.302433
vn 0.000000 -3.402800 -0.019855
v 0.301674 -0.591087 0.301811
vn 0.000000 -3.403811 -0.019860
v 0.312459 -0.591087 0.301811
vn 0.000000 -3.402434 -0.025139
v 0.301051 -0.591084 0.301333
vn 0.000000 -3.402922 -0.025142
v 0.313082 -0.591084 0.301333
vn 0.000000 -3.403905 -0.007906
v 0.300326 -0.591081 0.301032
vn 0.000000 -3.403250 -0.007902
v 0.313808 -0.591081 0.301032
vn -0.000453 -3.404117 -0.019220
v 0.299547 -0.591081 0.300929
vn 0.000396 -3.404118 -0.019004
v 0.314586 -0.591081 0.300929
vn 0.000000 -2.879635 -0.016222
v 0.310959 -0.591247 0.329147
vn 0.000000 -2.879602 -0.016222
v 0.303174 -0.591247 0.329147
vn 0.000000 -2.879848 -0.019324
v 0.307067 -0.591250 0.329659
vn 0.000000 -2.879683 -0.017356
v 0.299547 -0.591238 0.327644
vn 0.000000 -2.879838 -0.017357
v 0.314586 -0.591238 0.327644
vn 0.000000 -2.879931 -0.017231
v 0.296433 -0.591224 0.325254
vn 0.000000 -2.879776 -0.017230
v 0.317701 -0.591224 0.325254
vn 0.000000 -2.879802 -0.017016
v 0.294043 -0.591205 0.322140
vn 0.000000 -2.879566 -0.017015
v 0.320091 -0.591205 0.322140
vn 0.000052 -2.880009 -0.016589
v 0.321593 -0.591184 0.318513
vn -0.000052 -2.879521 -0.016587
v 0.292540 -0.591184 0.318513
vn -0.000000 -3.404123 -0.018167
v 0.307067 -0.591179 0.317629
vn -0.000423 -3.402534 -0.010863
v 0.307845 -0.591179 0.317526
vn -0.000007 -3.010493 -0.017489
v 0.322106 -0.591162 0.314621
vn 0.000925 -3.403694 -0.015427
v 0.308571 -0.591177 0.317226
vn -0.000173 -3.403263 -0.021167
v 0.309194 -0.591174 0.316748
vn -0.000218 -3.404080 -0.021235
v 0.309672 -0.591170 0.316125
vn -0.000004 -3.402020 -0.019431
v 0.309972 -0.591166 0.315399
vn 0.000209 -3.404645 -0.019632
v 0.310075 -0.591162 0.314621
vn -0.001046 -3.402802 -0.019417
v 0.316713 -0.591111 0.306064
vn -0.000566 -3.403384 -0.019586
v 0.317191 -0.591108 0.305442
vn -0.000034 -1.571288 -0.009225
v 0.322106 -0.591039 0.293671
vn 0.000808 -3.402019 -0.019567
v 0.309972 -0.591157 0.313842
vn 0.000020 -3.404085 -0.020342
v 0.309672 -0.591153 0.313117
vn -0.000501 -3.403265 -0.020781
v 0.309194 -0.591149 0.312494
vn 0.003919 -3.402492 -0.015407
v 0.316090 -0.591114 0.306542
vn 0.000394 -3.403673 -0.019588
v 0.308571 -0.591146 0.312016
vn -0.002269 -3.402704 -0.023910
v 0.307845 -0.591145 0.311715
vn -0.000001 -3.403626 -0.021498
v 0.307067 -0.591143 0.311613
vn 0.009323 -3.404903 -0.003034
v 0.315365 -0.591116 0.306843
vn 0.165911 -3.399757 0.049325
v 0.317492 -0.591104 0.304716
vn -0.008229 -3.401981 -0.023396
v 0.317594 -0.591099 0.303937
vn 0.000633 -3.404458 -0.019520
v 0.317492 -0.591094 0.303159
vn 0.000875 -3.403385 -0.019359
v 0.317191 -0.591090 0.302433
vn 0.000855 -3.402802 -0.019465
v 0.316713 -0.591087 0.301811
vn -0.001219 -3.402464 -0.020941
v 0.316090 -0.591084 0.301333
vn 0.000375 -3.403865 -0.019395
v 0.315365 -0.591081 0.301032
vn 0.000422 -3.403188 -0.010869
v 0.306288 -0.591179 0.317526
vn -0.000022 -3.010745 -0.017506
v 0.292028 -0.591162 0.314621
vn -0.000924 -3.403206 -0.015431
v 0.305563 -0.591177 0.317226
vn 0.000173 -3.403263 -0.021167
v 0.304940 -0.591174 0.316748
vn 0.000218 -3.404080 -0.021235
v 0.304462 -0.591170 0.316125
vn 0.000004 -3.402020 -0.019431
v 0.304162 -0.591166 0.315399
vn -0.000209 -3.404645 -0.019632
v 0.304059 -0.591162 0.314621
vn 0.001046 -3.402802 -0.019417
v 0.297420 -0.591111 0.306064
vn 0.000382 -3.404560 -0.019645
v 0.296942 -0.591108 0.305442
vn -0.000040 -1.570250 -0.009282
v 0.292028 -0.591038 0.293656
vn -0.000808 -3.402019 -0.019567
v 0.304162 -0.591157 0.313842
vn -0.000020 -3.404085 -0.020342
v 0.304462 -0.591153 0.313117
vn 0.000501 -3.403265 -0.020781
v 0.304940 -0.591149 0.312494
vn -0.003923 -3.402980 -0.015405
v 0.298043 -0.591114 0.306542
vn -0.000394 -3.403186 -0.019585
v 0.305563 -0.591146 0.312016
vn 0.002266 -3.403358 -0.023909
v 0.306288 -0.591145 0.311715
vn -0.009276 -3.404249 -0.003112
v 0.298769 -0.591116 0.306843
vn -0.181839 -3.397583 0.055678
v 0.296642 -0.591104 0.304716
vn 0.007578 -3.401983 -0.023328
v 0.296540 -0.591099 0.303937
vn -0.000994 -3.403281 -0.019579
v 0.296642 -0.591094 0.303159
vn -0.001120 -3.404561 -0.019491
v 0.296942 -0.591090 0.302433
vn -0.001029 -3.402801 -0.019631
v 0.297420 -0.591087 0.301811
vn 0.001102 -3.402950 -0.021149
v 0.298043 -0.591084 0.301333
vn -0.000433 -3.403209 -0.019650
v 0.298769 -0.591081 0.301032
vn 0.000000 0.525905 -3.081831
v 0.322106 -0.591529 0.293636
vn 0.000008 0.110244 -1.566912
v 0.322106 -0.591039 0.293671
vn 0.000807 0.476614 -3.084538
v 0.292028 -0.591529 0.293636
vn 0.000816 0.060952 -1.569608
v 0.292028 -0.591038 0.293656
vn -0.000008 -0.110244 1.566912
v 0.322106 -0.591039 0.293671
vn -0.000807 -0.476614 3.084538
v 0.292028 -0.591529 0.293636
vn -0.000816 -0.060952 1.569608
v 0.292028 -0.591038 0.293656
vn 0.000000 -0.525905 3.081831
v 0.322106 -0.591529 0.293636
vn 2.880011 0.000000 0.000000
v 0.292028 -0.587292 0.290425
vn 2.879713 0.000000 0.000000
v 0.292028 -0.587286 0.289444
vn 2.879688 0.000000 0.000000
v 0.292028 -0.587552 0.291371
vn 2.880466 0.000000 0.000000
v 0.292028 -0.587535 0.288494
vn 2.879769 0.000000 0.000000
v 0.292028 -0.588047 0.292218
vn 2.878977 0.000000 0.000000
v 0.292028 -0.588021 0.287640
vn 2.880123 0.000000 0.000000
v 0.292028 -0.588745 0.292908
vn 2.880298 0.000000 0.000000
v 0.292028 -0.588710 0.286943
vn 3.405727 0.000000 0.000000
v 0.292028 -0.589508 0.289909
vn 3.402370 0.000000 0.000000
v 0.292028 -0.589561 0.290298
vn 2.879456 0.000000 0.000000
v 0.292028 -0.589598 0.293394
vn 3.402656 0.000000 0.000000
v 0.292028 -0.589714 0.290659
vn 3.404407 0.000000 0.000000
v 0.292028 -0.589954 0.290969
vn 3.402110 0.000000 0.000000
v 0.292028 -0.590268 0.291207
vn 2.911119 0.000000 0.000000
v 0.292028 -0.590548 0.293643
vn 3.405289 0.000000 0.000000
v 0.292028 -0.590630 0.291355
vn 3.401712 0.000000 0.000000
v 0.292028 -0.591021 0.291404
vn 3.077257 0.000000 0.000000
v 0.292028 -0.591038 0.293656
vn 3.403258 0.000000 0.000000
v 0.292028 -0.591409 0.291351
vn 2.912940 0.000000 0.000000
v 0.292028 -0.591529 0.293636
vn 3.406035 0.000000 0.000000
v 0.292028 -0.591772 0.291198
vn 3.401942 0.000000 0.000000
v 0.292028 -0.592081 0.290957
vn 3.401467 0.000000 0.000000
v 0.292028 -0.592318 0.290644
vn 2.879688 0.000000 0.000000
v 0.292028 -0.592476 0.293377
vn 3.404997 0.000000 0.000000
v 0.292028 -0.592467 0.290281
vn 3.402665 0.000000 0.000000
v 0.292028 -0.592516 0.289892
vn 2.879769 0.000000 0.000000
v 0.292028 -0.593323 0.292882
vn 3.400616 0.000000 0.000000
v 0.292028 -0.589557 0.289519
vn 2.879295 0.000000 0.000000
v 0.292028 -0.589557 0.286447
vn 3.404575 0.000000 0.000000
v 0.292028 -0.589704 0.289156
vn 3.404407 0.000000 0.000000
v 0.292028 -0.589942 0.288843
vn 3.402656 0.000000 0.000000
v 0.292028 -0.590252 0.288602
vn 2.880011 0.000000 0.000000
v 0.292028 -0.590504 0.286187
vn 3.404166 0.000000 0.000000
v 0.292028 -0.590613 0.288450
vn 3.402665 0.000000 0.000000
v 0.292028 -0.591003 0.288396
vn 3.402538 0.000000 0.000000
v 0.292028 -0.591392 0.288445
vn 2.879713 0.000000 0.000000
v 0.292028 -0.591485 0.286182
vn 3.403927 0.000000 0.000000
v 0.292028 -0.591756 0.288593
vn 3.404400 0.000000 0.000000
v 0.292028 -0.592069 0.288830
vn 3.401377 0.000000 0.000000
v 0.292028 -0.592309 0.289140
vn 2.880466 0.000000 0.000000
v 0.292028 -0.592435 0.286430
vn 3.405444 0.000000 0.000000
v 0.292028 -0.592462 0.289502
vn 2.878977 0.000000 0.000000
v 0.292028 -0.593288 0.286916
vn 2.879113 0.000000 0.000000
v 0.292028 -0.594013 0.292184
vn 2.880298 0.000000 0.000000
v 0.292028 -0.593986 0.287605
vn 2.880078 0.000000 0.000000
v 0.292028 -0.594499 0.291330
vn 2.879295 0.000000 0.000000
v 0.292028 -0.594482 0.288452
vn 2.880718 0.000000 0.000000
v 0.292028 -0.594746 0.290381
vn 2.879393 0.000000 0.000000
v 0.292028 -0.594741 0.289399
vn -2.879295 0.000000 0.000000
v 0.292028 -0.594482 0.288452
vn -2.880718 0.000000 0.000000
v 0.292028 -0.594746 0.290381
vn -2.879393 0.000000 0.000000
v 0.292028 -0.594741 0.289399
vn -2.880078 0.000000 0.000000
v 0.292028 -0.594499 0.291330
vn -2.880298 0.000000 0.000000
v 0.292028 -0.593986 0.287605
vn -2.879113 0.000000 0.000000
v 0.292028 -0.594013 0.292184
vn -2.878977 0.000000 0.000000
v 0.292028 -0.593288 0.286916
vn -2.879769 0.000000 0.000000
v 0.292028 -0.593323 0.292882
vn -2.880466 0.000000 0.000000
v 0.292028 -0.592435 0.286430
vn -3.402665 0.000000 0.000000
v 0.292028 -0.592516 0.289892
vn -3.405444 0.000000 0.000000
v 0.292028 -0.592462 0.289502
vn -3.401377 0.000000 0.000000
v 0.292028 -0.592309 0.289140
vn -2.879713 0.000000 0.000000
v 0.292028 -0.591485 0.286182
vn -3.404400 0.000000 0.000000
v 0.292028 -0.592069 0.288830
vn -3.403927 0.000000 0.000000
v 0.292028 -0.591756 0.288593
vn -3.402538 0.000000 0.000000
v 0.292028 -0.591392 0.288445
vn -2.880011 0.000000 0.000000
v 0.292028 -0.590504 0.286187
vn -3.402665 0.000000 0.000000
v 0.292028 -0.591003 0.288396
vn -3.404166 0.000000 0.000000
v 0.292028 -0.590613 0.288450
vn -3.402656 0.000000 0.000000
v 0.292028 -0.590252 0.288602
vn -2.879295 0.000000 0.000000
v 0.292028 -0.589557 0.286447
vn -3.404407 0.000000 0.000000
v 0.292028 -0.589942 0.288843
vn -3.404575 0.000000 0.000000
v 0.292028 -0.589704 0.289156
vn -3.400616 0.000000 0.000000
v 0.292028 -0.589557 0.289519
vn -2.880298 0.000000 0.000000
v 0.292028 -0.588710 0.286943
vn -3.405727 0.000000 0.000000
v 0.292028 -0.589508 0.289909
vn -2.879688 0.000000 0.000000
v 0.292028 -0.592476 0.293377
vn -3.404997 0.000000 0.000000
v 0.292028 -0.592467 0.290281
vn -3.401467 0.000000 0.000000
v 0.292028 -0.592318 0.290644
vn -2.912940 0.000000 0.000000
v 0.292028 -0.591529 0.293636
vn -3.401942 0.000000 0.000000
v 0.292028 -0.592081 0.290957
vn -3.406035 0.000000 0.000000
v 0.292028 -0.591772 0.291198
vn -3.403258 0.000000 0.000000
v 0.292028 -0.591409 0.291351
vn -3.077257 0.000000 0.000000
v 0.292028 -0.591038 0.293656
vn -3.401712 0.000000 0.000000
v 0.292028 -0.591021 0.291404
vn -2.911119 0.000000 0.000000
v 0.292028 -0.590548 0.293643
vn -3.405289 0.000000 0.000000
v 0.292028 -0.590630 0.291355
vn -3.402110 0.000000 0.000000
v 0.292028 -0.590268 0.291207
vn -2.879456 0.000000 0.000000
v 0.292028 -0.589598 0.293394
vn -3.404407 0.000000 0.000000
v 0.292028 -0.589954 0.290969
vn -3.402656 0.000000 0.000000
v 0.292028 -0.589714 0.290659
vn -3.402370 0.000000 0.000000
v 0.292028 -0.589561 0.290298
vn -2.880123 0.000000 0.000000
v 0.292028 -0.588745 0.292908
vn -2.878977 0.000000 0.000000
v 0.292028 -0.588021 0.287640
vn -2.879769 0.000000 0.000000
v 0.292028 -0.588047 0.292218
vn -2.880466 0.000000 0.000000
v 0.292028 -0.587535 0.288494
vn -2.879688 0.000000 0.000000
v 0.292028 -0.587552 0.291371
vn -2.879713 0.000000 0.000000
v 0.292028 -0.587286 0.289444
vn -2.880011 0.000000 0.000000
v 0.292028 -0.587292 0.290425
vn 0.000000 -1.208379 2.870738
v 0.322106 -0.592476 0.293377
vn 0.000000 -1.208379 2.870738
v 0.292028 -0.592476 0.293377
vn 0.000000 1.208379 -2.870738
v 0.322106 -0.592476 0.293377
vn 0.000000 1.208379 -2.870738
v 0.292028 -0.592476 0.293377
vn 0.000000 -1.910377 2.460058
v 0.322106 -0.593323 0.292882
vn 0.000000 -1.910377 2.460058
v 0.292028 -0.593323 0.292882
vn 0.000000 1.910377 -2.460058
v 0.322106 -0.593323 0.292882
vn 0.000000 1.910377 -2.460058
v 0.292028 -0.593323 0.292882
vn 0.000000 -2.482547 1.880837
v 0.322106 -0.594013 0.292184
vn 0.000000 -2.482547 1.880837
v 0.292028 -0.594013 0.292184
vn 0.000000 2.482547 -1.880837
v 0.322106 -0.594013 0.292184
vn 0.000000 2.482547 -1.880837
v 0.292028 -0.594013 0.292184
vn -3.405727 0.000000 0.000000
v 0.322106 -0.589508 0.289909
vn -3.400616 0.000000 0.000000
v 0.322106 -0.589557 0.289519
vn -2.880298 0.000000 0.000000
v 0.322106 -0.588710 0.286943
vn -2.879295 0.000000 0.000000
v 0.322106 -0.589557 0.286447
vn -3.404575 0.000000 0.000000
v 0.322106 -0.589704 0.289156
vn -3.404407 0.000000 0.000000
v 0.322106 -0.589942 0.288843
vn -3.402656 0.000000 0.000000
v 0.322106 -0.590252 0.288602
vn -2.880011 0.000000 0.000000
v 0.322106 -0.590504 0.286187
vn -3.404166 0.000000 0.000000
v 0.322106 -0.590613 0.288450
vn -3.402665 0.000000 0.000000
v 0.322106 -0.591003 0.288396
vn -3.402538 0.000000 0.000000
v 0.322106 -0.591392 0.288445
vn -2.879713 0.000000 0.000000
v 0.322106 -0.591485 0.286182
vn -3.403927 0.000000 0.000000
v 0.322106 -0.591756 0.288593
vn -3.404400 0.000000 0.000000
v 0.322106 -0.592069 0.288830
vn -3.401377 0.000000 0.000000
v 0.322106 -0.592309 0.289140
vn -2.880466 0.000000 0.000000
v 0.322106 -0.592435 0.286430
vn -3.405444 0.000000 0.000000
v 0.322106 -0.592462 0.289502
vn -3.402665 0.000000 0.000000
v 0.322106 -0.592516 0.289892
vn -2.879769 0.000000 0.000000
v 0.322106 -0.593323 0.292882
vn -2.878977 0.000000 0.000000
v 0.322106 -0.593288 0.286916
vn -2.879113 0.000000 0.000000
v 0.322106 -0.594013 0.292184
vn -2.880298 0.000000 0.000000
v 0.322106 -0.593986 0.287605
vn -2.879295 0.000000 0.000000
v 0.322106 -0.594482 0.288452
vn -2.880078 0.000000 0.000000
v 0.322106 -0.594499 0.291330
vn -2.879393 0.000000 0.000000
v 0.322106 -0.594741 0.289399
vn -2.880718 0.000000 0.000000
v 0.322106 -0.594746 0.290381
vn -2.880011 0.000000 0.000000
v 0.322106 -0.587292 0.290425
vn -2.879688 0.000000 0.000000
v 0.322106 -0.587552 0.291371
vn -2.879713 0.000000 0.000000
v 0.322106 -0.587286 0.289444
vn -2.880466 0.000000 0.000000
v 0.322106 -0.587535 0.288494
vn -2.878977 0.000000 0.000000
v 0.322106 -0.588021 0.287640
vn -2.879769 0.000000 0.000000
v 0.322106 -0.588047 0.292218
vn -2.880123 0.000000 0.000000
v 0.322106 -0.588745 0.292908
vn -3.402370 0.000000 0.000000
v 0.322106 -0.589561 0.290298
vn -2.879456 0.000000 0.000000
v 0.322106 -0.589598 0.293394
vn -3.402656 0.000000 0.000000
v 0.322106 -0.589714 0.290659
vn -3.404407 0.000000 0.000000
v 0.322106 -0.589954 0.290969
vn -3.402110 0.000000 0.000000
v 0.322106 -0.590268 0.291207
vn -2.942802 0.000000 0.000000
v 0.322106 -0.590548 0.293643
vn -3.405289 0.000000 0.000000
v 0.322106 -0.590630 0.291355
vn -3.401712 0.000000 0.000000
v 0.322106 -0.591021 0.291404
vn -3.013815 0.000000 0.000000
v 0.322106 -0.591039 0.293671
vn -3.403258 0.000000 0.000000
v 0.322106 -0.591409 0.291351
vn -2.944699 0.000000 0.000000
v 0.322106 -0.591529 0.293636
vn -3.406035 0.000000 0.000000
v 0.322106 -0.591772 0.291198
vn -3.401942 0.000000 0.000000
v 0.322106 -0.592081 0.290957
vn -3.401467 0.000000 0.000000
v 0.322106 -0.592318 0.290644
vn -2.879688 0.000000 0.000000
v 0.322106 -0.592476 0.293377
vn -3.404997 0.000000 0.000000
v 0.322106 -0.592467 0.290281
vn 2.879688 0.000000 0.000000
v 0.322106 -0.592476 0.293377
vn 3.402665 0.000000 0.000000
v 0.322106 -0.592516 0.289892
vn 2.879769 0.000000 0.000000
v 0.322106 -0.593323 0.292882
vn 3.404997 0.000000 0.000000
v 0.322106 -0.592467 0.290281
vn 3.401467 0.000000 0.000000
v 0.322106 -0.592318 0.290644
vn 2.944699 0.000000 0.000000
v 0.322106 -0.591529 0.293636
vn 3.401942 0.000000 0.000000
v 0.322106 -0.592081 0.290957
vn 3.406035 0.000000 0.000000
v 0.322106 -0.591772 0.291198
vn 3.403258 0.000000 0.000000
v 0.322106 -0.591409 0.291351
vn 3.013815 0.000000 0.000000
v 0.322106 -0.591039 0.293671
vn 3.401712 0.000000 0.000000
v 0.322106 -0.591021 0.291404
vn 2.942802 0.000000 0.000000
v 0.322106 -0.590548 0.293643
vn 3.405289 0.000000 0.000000
v 0.322106 -0.590630 0.291355
vn 3.402110 0.000000 0.000000
v 0.322106 -0.590268 0.291207
vn 2.879456 0.000000 0.000000
v 0.322106 -0.589598 0.293394
vn 3.404407 0.000000 0.000000
v 0.322106 -0.589954 0.290969
vn 3.402656 0.000000 0.000000
v 0.322106 -0.589714 0.290659
vn 3.402370 0.000000 0.000000
v 0.322106 -0.589561 0.290298
vn 2.880123 0.000000 0.000000
v 0.322106 -0.588745 0.292908
vn 3.405727 0.000000 0.000000
v 0.322106 -0.589508 0.289909
vn 2.880298 0.000000 0.000000
v 0.322106 -0.588710 0.286943
vn 2.878977 0.000000 0.000000
v 0.322106 -0.588021 0.287640
vn 2.879769 0.000000 0.000000
v 0.322106 -0.588047 0.292218
vn 2.879688 0.000000 0.000000
v 0.322106 -0.587552 0.291371
vn 2.880466 0.000000 0.000000
v 0.322106 -0.587535 0.288494
vn 2.879713 0.000000 0.000000
v 0.322106 -0.587286 0.289444
vn 2.880011 0.000000 0.000000
v 0.322106 -0.587292 0.290425
vn 2.880078 0.000000 0.000000
v 0.322106 -0.594499 0.291330
vn 2.879393 0.000000 0.000000
v 0.322106 -0.594741 0.289399
vn 2.880718 0.000000 0.000000
v 0.322106 -0.594746 0.290381
vn 2.879295 0.000000 0.000000
v 0.322106 -0.594482 0.288452
vn 2.879113 0.000000 0.000000
v 0.322106 -0.594013 0.292184
vn 2.880298 0.000000 0.000000
v 0.322106 -0.593986 0.287605
vn 2.878977 0.000000 0.000000
v 0.322106 -0.593288 0.286916
vn 2.880466 0.000000 0.000000
v 0.322106 -0.592435 0.286430
vn 3.405444 0.000000 0.000000
v 0.322106 -0.592462 0.289502
vn 3.401377 0.000000 0.000000
v 0.322106 -0.592309 0.289140
vn 2.879713 0.000000 0.000000
v 0.322106 -0.591485 0.286182
vn 3.404400 0.000000 0.000000
v 0.322106 -0.592069 0.288830
vn 3.403927 0.000000 0.000000
v 0.322106 -0.591756 0.288593
vn 3.402538 0.000000 0.000000
v 0.322106 -0.591392 0.288445
vn 2.880011 0.000000 0.000000
v 0.322106 -0.590504 0.286187
vn 3.402665 0.000000 0.000000
v 0.322106 -0.591003 0.288396
vn 3.404166 0.000000 0.000000
v 0.322106 -0.590613 0.288450
vn 3.402656 0.000000 0.000000
v 0.322106 -0.590252 0.288602
vn 2.879295 0.000000 0.000000
v 0.322106 -0.589557 0.286447
vn 3.404407 0.000000 0.000000
v 0.322106 -0.589942 0.288843
vn 3.404575 0.000000 0.000000
v 0.322106 -0.589704 0.289156
vn 3.400616 0.000000 0.000000
v 0.322106 -0.589557 0.289519
vn 0.000000 2.870427 1.208912
v 0.292028 -0.594482 0.288452
vn 0.000000 2.870427 1.208912
v 0.322106 -0.594482 0.288452
vn 0.000000 -2.870427 -1.208912
v 0.322106 -0.594482 0.288452
vn 0.000000 -2.870427 -1.208912
v 0.292028 -0.594482 0.288452
vn 0.000811 -0.089806 -1.568172
v 0.322106 -0.591039 0.293671
vn 0.000803 -0.487033 -3.087863
v 0.322106 -0.590548 0.293643
vn 0.000008 -0.040605 -1.570310
v 0.292028 -0.591038 0.293656
vn 0.000000 -0.437826 -3.089891
v 0.292028 -0.590548 0.293643
vn -0.000803 0.487033 3.087863
v 0.322106 -0.590548 0.293643
vn -0.000008 0.040605 1.570310
v 0.292028 -0.591038 0.293656
vn 0.000000 0.437826 3.089891
v 0.292028 -0.590548 0.293643
vn -0.000811 0.089806 1.568172
v 0.322106 -0.591039 0.293671
vn 0.000000 -2.460058 -1.910377
v 0.322106 -0.588047 0.292218
vn 0.000000 -2.460058 -1.910377
v 0.292028 -0.588047 0.292218
vn 0.000000 -1.882215 -2.481762
v 0.322106 -0.588745 0.292908
vn 0.000000 -1.882215 -2.481762
v 0.292028 -0.588745 0.292908
vn 0.000000 2.460058 1.910377
v 0.292028 -0.588047 0.292218
vn 0.000000 1.882215 2.481762
v 0.322106 -0.588745 0.292908
vn 0.000000 1.882215 2.481762
v 0.292028 -0.588745 0.292908
vn 0.000000 2.460058 1.910377
v 0.322106 -0.588047 0.292218
vn 0.000000 -1.175691 -2.884229
v 0.322106 -0.589598 0.293394
vn 0.000000 -1.175691 -2.884229
v 0.292028 -0.589598 0.293394
vn 0.000000 1.175691 2.884229
v 0.292028 -0.589598 0.293394
vn 0.000000 1.175691 2.884229
v 0.322106 -0.589598 0.293394
vn 0.000000 2.459899 1.910758
v 0.292028 -0.593986 0.287605
vn 0.000000 2.459899 1.910758
v 0.322106 -0.593986 0.287605
vn 0.000000 -2.459899 -1.910758
v 0.322106 -0.593986 0.287605
vn 0.000000 -2.459899 -1.910758
v 0.292028 -0.593986 0.287605
vn 0.000000 1.880989 2.482397
v 0.292028 -0.593288 0.286916
vn 0.000000 1.880989 2.482397
v 0.322106 -0.593288 0.286916
vn 0.000000 -1.880989 -2.482397
v 0.322106 -0.593288 0.286916
vn 0.000000 -1.880989 -2.482397
v 0.292028 -0.593288 0.286916
vn 0.000000 1.174312 2.885014
v 0.322106 -0.592435 0.286430
vn 0.000000 1.174312 2.885014
v 0.292028 -0.592435 0.286430
vn 0.000000 -1.174312 -2.885014
v 0.292028 -0.592435 0.286430
vn 0.000000 -1.174312 -2.885014
v 0.322106 -0.592435 0.286430
vn 0.000000 0.388497 3.090376
v 0.322106 -0.591485 0.286182
vn 0.000000 0.388497 3.090376
v 0.292028 -0.591485 0.286182
vn 0.000000 -0.388497 -3.090376
v 0.292028 -0.591485 0.286182
vn 0.000000 -0.388497 -3.090376
v 0.322106 -0.591485 0.286182
vn 0.000000 -0.424385 3.085714
v 0.322106 -0.590504 0.286187
vn 0.000000 -0.424385 3.085714
v 0.292028 -0.590504 0.286187
vn 0.000000 0.424385 -3.085714
v 0.292028 -0.590504 0.286187
vn 0.000000 0.424385 -3.085714
v 0.322106 -0.590504 0.286187
vn 0.000000 -1.208912 2.870427
v 0.322106 -0.589557 0.286447
vn 0.000000 -1.208912 2.870427
v 0.292028 -0.589557 0.286447
vn 0.000000 1.208912 -2.870427
v 0.292028 -0.589557 0.286447
vn 0.000000 1.208912 -2.870427
v 0.322106 -0.589557 0.286447
vn 0.000000 -1.910758 2.459899
v 0.322106 -0.588710 0.286943
vn 0.000000 -1.910758 2.459899
v 0.292028 -0.588710 0.286943
vn 0.000000 1.910758 -2.459899
v 0.292028 -0.588710 0.286943
vn 0.000000 1.910758 -2.459899
v 0.322106 -0.588710 0.286943
vn 0.000000 -2.482397 1.880989
v 0.322106 -0.588021 0.287640
vn 0.000000 -2.482397 1.880989
v 0.292028 -0.588021 0.287640
vn 0.000000 2.482397 -1.880989
v 0.292028 -0.588021 0.287640
vn 0.000000 2.482397 -1.880989
v 0.322106 -0.588021 0.287640
vn 0.000000 -2.885014 1.174312
v 0.322106 -0.587535 0.288494
vn 0.000000 -2.885014 1.174312
v 0.292028 -0.587535 0.288494
vn 0.000000 2.885014 -1.174312
v 0.322106 -0.587535 0.288494
vn 0.000000 2.885014 -1.174312
v 0.292028 -0.587535 0.288494
vn 0.000000 -3.090376 0.388497
v 0.322106 -0.587286 0.289444
vn 0.000000 -3.090376 0.388497
v 0.292028 -0.587286 0.289444
vn 0.000000 3.090376 -0.388497
v 0.322106 -0.587286 0.289444
vn 0.000000 3.090376 -0.388497
v 0.292028 -0.587286 0.289444
vn 0.000000 -3.085714 -0.424385
v 0.322106 -0.587292 0.290425
vn 0.000000 -3.085714 -0.424385
v 0.292028 -0.587292 0.290425
vn 0.000000 3.085714 0.424385
v 0.322106 -0.587292 0.290425
vn 0.000000 3.085714 0.424385
v 0.292028 -0.587292 0.290425
vn 0.000000 -2.870738 -1.208379
v 0.322106 -0.587552 0.291371
vn 0.000000 -2.870738 -1.208379
v 0.292028 -0.587552 0.291371
vn 0.000000 2.870738 1.208379
v 0.322106 -0.587552 0.291371
vn 0.000000 2.870738 1.208379
v 0.292028 -0.587552 0.291371
# 732 vertices, 0 vertices normals


usemtl material_0
vt 0.019035 0.044482
vt 0.019104 0.035000
vt 0.019104 0.045000
f 3/1/3 2/2/2 1/3/1
vt 0.019035 0.035518
f 3/1/3 4/4/4 2/2/2
vt 0.018836 0.044000
f 5/5/5 4/4/4 3/1/3
vt 0.018836 0.036000
f 5/5/5 6/6/6 4/4/4
vt 0.018518 0.043586
f 7/7/7 6/6/6 5/5/5
vt 0.018518 0.036414
f 7/7/7 8/8/8 6/6/6
vt 0.018104 0.043268
f 9/9/9 8/8/8 7/7/7
vt 0.018104 0.036732
f 9/9/9 10/10/10 8/8/8
vt 0.017621 0.043068
f 11/11/11 10/10/10 9/9/9
vt 0.017621 0.036932
f 11/11/11 12/12/12 10/10/10
vt 0.017104 0.043000
f 13/13/13 12/12/12 11/11/11
vt 0.017104 0.037000
f 13/13/13 14/14/14 12/12/12
vt 0.016586 0.043068
f 15/15/15 14/14/14 13/13/13
vt 0.016586 0.036932
f 15/15/15 16/16/16 14/14/14
vt 0.016104 0.043268
f 17/17/17 16/16/16 15/15/15
vt 0.016104 0.036732
f 17/17/17 18/18/18 16/16/16
vt 0.015689 0.043586
f 19/19/19 18/18/18 17/17/17
vt 0.015689 0.036414
f 19/19/19 20/20/20 18/18/18
vt 0.015372 0.044000
f 21/21/21 20/20/20 19/19/19
vt 0.015372 0.036000
f 21/21/21 22/22/22 20/20/20
vt 0.015172 0.044482
f 23/23/23 22/22/22 21/21/21
vt 0.015172 0.035518
f 23/23/23 24/24/24 22/22/22
vt 0.015104 0.045000
f 25/25/25 24/24/24 23/23/23
vt 0.015104 0.035000
f 24/24/24 25/25/25 26/26/26
vt 0.026104 0.050000
vt 0.026104 0.030000
f 28/27/28 1/3/1 27/28/27
vt 0.019035 0.045518
f 28/27/28 29/29/29 1/3/1
vt 0.018836 0.046000
f 28/27/28 30/30/30 29/29/29
vt 0.018518 0.046414
f 28/27/28 31/31/31 30/30/30
vt 0.018104 0.046732
f 28/27/28 32/32/32 31/31/31
vt 0.017621 0.046932
f 28/27/28 33/33/33 32/32/32
vt 0.017104 0.047000
f 28/27/28 34/34/34 33/33/33
vt 0.016586 0.046932
f 28/27/28 35/35/35 34/34/34
vt 0.012000 0.040000
f 25/25/25 36/36/36 26/26/26
vt 0.015172 0.045518
f 37/37/37 36/36/36 25/25/25
vt 0.015372 0.046000
f 38/38/38 36/36/36 37/37/37
vt 0.011932 0.040518
f 38/38/38 39/39/39 36/36/36
vt 0.011732 0.041000
f 38/38/38 40/40/40 39/39/39
vt 0.011414 0.041414
f 38/38/38 41/41/41 40/40/40
vt 0.015689 0.046414
f 42/42/42 41/41/41 38/38/38
vt 0.011000 0.041732
f 42/42/42 43/43/43 41/41/41
vt 0.010518 0.041932
f 42/42/42 44/44/44 43/43/43
vt 0.010000 0.050000
f 45/45/45 35/35/35 28/27/28
vt 0.016104 0.046732
f 45/45/45 46/46/46 35/35/35
f 45/45/45 42/42/42 46/46/46
f 45/45/45 44/44/44 42/42/42
vt 0.010000 0.042000
f 45/45/45 47/47/47 44/44/44
vt 0.009482 0.041932
f 45/45/45 48/48/48 47/47/47
vt 0.009000 0.041732
f 45/45/45 49/49/49 48/48/48
vt 0.008586 0.041414
f 45/45/45 50/50/50 49/49/49
vt 0.008268 0.041000
f 45/45/45 51/51/51 50/50/50
vt 0.008068 0.040518
f 45/45/45 52/52/52 51/51/51
vt 0.007412 0.049659
vt 0.008000 0.040000
f 52/52/52 54/53/54 53/54/53
f 54/53/54 52/52/52 45/45/45
f 2/2/2 27/28/27 1/3/1
vt 0.019035 0.034482
f 55/55/55 27/28/27 2/2/2
vt 0.018836 0.034000
f 56/56/56 27/28/27 55/55/55
vt 0.018518 0.033586
f 57/57/57 27/28/27 56/56/56
vt 0.018104 0.033268
f 58/58/58 27/28/27 57/57/57
vt 0.017621 0.033068
f 59/59/59 27/28/27 58/58/58
vt 0.017104 0.033000
f 60/60/60 27/28/27 59/59/59
vt 0.016586 0.033068
f 61/61/61 27/28/27 60/60/60
vt 0.015172 0.034482
f 36/36/36 62/62/62 26/26/26
vt 0.015372 0.034000
f 36/36/36 63/63/63 62/62/62
vt 0.011932 0.039482
f 64/64/64 63/63/63 36/36/36
vt 0.011732 0.039000
f 65/65/65 63/63/63 64/64/64
vt 0.011414 0.038586
f 66/66/66 63/63/63 65/65/65
vt 0.015689 0.033586
f 66/66/66 67/67/67 63/63/63
vt 0.011000 0.038268
f 68/68/68 67/67/67 66/66/66
vt 0.010518 0.038068
f 69/69/69 67/67/67 68/68/68
vt 0.010000 0.038000
f 70/70/70 67/67/67 69/69/69
vt 0.010000 0.030000
f 61/61/61 71/71/71 27/28/27
vt 0.016104 0.033268
f 72/72/72 71/71/71 61/61/61
f 67/67/67 71/71/71 72/72/72
f 70/70/70 71/71/71 67/67/67
vt 0.009482 0.038068
f 73/73/73 71/71/71 70/70/70
vt 0.009000 0.038268
f 74/74/74 71/71/71 73/73/73
vt 0.008586 0.038586
f 75/75/75 71/71/71 74/74/74
vt 0.008268 0.039000
f 76/76/76 71/71/71 75/75/75
vt 0.008068 0.039482
f 77/77/77 71/71/71 76/76/76
vt 0.007412 0.030341
f 77/77/77 78/78/78 71/71/71
f 53/54/53 78/78/78 77/77/77
f 54/53/54 78/78/78 53/54/53
vt 0.005000 0.048660
f 79/79/79 78/78/78 54/53/54
vt 0.005000 0.031340
f 79/79/79 80/80/80 78/78/78
vt 0.002929 0.047071
f 81/81/81 80/80/80 79/79/79
vt 0.002929 0.032929
f 81/81/81 82/82/82 80/80/80
vt 0.001340 0.045000
f 83/83/83 82/82/82 81/81/81
vt 0.001340 0.035000
f 83/83/83 84/84/84 82/82/82
vt 0.000341 0.042588
f 85/85/85 84/84/84 83/83/83
vt 0.000341 0.037412
f 85/85/85 86/86/86 84/84/84
vt 0.000000 0.040000
f 86/86/86 85/85/85 87/87/87
f 90/87/90 89/85/89 88/86/88
f 91/84/91 88/86/88 89/85/89
f 92/83/92 91/84/91 89/85/89
f 93/82/93 91/84/91 92/83/92
f 94/81/94 93/82/93 92/83/92
f 95/80/95 93/82/93 94/81/94
f 96/79/96 95/80/95 94/81/94
f 97/78/97 95/80/95 96/79/96
f 98/53/98 97/78/97 96/79/96
f 99/54/99 97/78/97 98/53/98
f 100/77/100 97/78/97 99/54/99
f 101/71/101 97/78/97 100/77/100
f 102/76/102 101/71/101 100/77/100
f 103/75/103 101/71/101 102/76/102
f 104/74/104 101/71/101 103/75/103
f 105/73/105 101/71/101 104/74/104
f 106/70/106 101/71/101 105/73/105
f 107/67/107 101/71/101 106/70/106
f 108/72/108 101/71/101 107/67/107
f 109/61/109 101/71/101 108/72/108
f 110/28/110 101/71/101 109/61/109
f 111/69/111 107/67/107 106/70/106
f 112/68/112 107/67/107 111/69/111
f 113/66/113 107/67/107 112/68/112
f 114/63/114 107/67/107 113/66/113
f 115/65/115 114/63/114 113/66/113
f 116/64/116 114/63/114 115/65/115
f 117/36/117 114/63/114 116/64/116
f 118/62/118 114/63/114 117/36/117
f 119/26/119 118/62/118 117/36/117
f 120/60/120 110/28/110 109/61/109
f 121/59/121 110/28/110 120/60/120
f 122/58/122 110/28/110 121/59/121
f 123/57/123 110/28/110 122/58/122
f 124/56/124 110/28/110 123/57/123
f 125/55/125 110/28/110 124/56/124
f 126/2/126 110/28/110 125/55/125
f 127/3/127 110/28/110 126/2/126
f 129/45/129 128/52/128 98/53/98
f 99/54/99 98/53/98 128/52/128
f 130/51/130 128/52/128 129/45/129
f 131/50/131 130/51/130 129/45/129
f 132/49/132 131/50/131 129/45/129
f 133/48/133 132/49/132 129/45/129
f 134/47/134 133/48/133 129/45/129
f 135/44/135 134/47/134 129/45/129
f 136/42/136 135/44/135 129/45/129
f 137/46/137 136/42/136 129/45/129
f 138/35/138 137/46/137 129/45/129
f 139/27/139 138/35/138 129/45/129
f 140/43/140 135/44/135 136/42/136
f 141/41/141 140/43/140 136/42/136
f 142/38/142 141/41/141 136/42/136
f 143/40/143 141/41/141 142/38/142
f 144/39/144 143/40/143 142/38/142
f 117/36/117 144/39/144 142/38/142
f 145/37/145 117/36/117 142/38/142
f 146/25/146 117/36/117 145/37/145
f 119/26/119 117/36/117 146/25/146
f 147/34/147 138/35/138 139/27/139
f 148/33/148 147/34/147 139/27/139
f 149/32/149 148/33/148 139/27/139
f 150/31/150 149/32/149 139/27/139
f 151/30/151 150/31/150 139/27/139
f 152/29/152 151/30/151 139/27/139
f 127/3/127 152/29/152 139/27/139
f 110/28/110 127/3/127 139/27/139
f 119/26/119 146/25/146 153/24/153
f 154/23/154 153/24/153 146/25/146
f 155/22/155 153/24/153 154/23/154
f 156/21/156 155/22/155 154/23/154
f 157/20/157 155/22/155 156/21/156
f 158/19/158 157/20/157 156/21/156
f 159/18/159 157/20/157 158/19/158
f 160/17/160 159/18/159 158/19/158
f 161/16/161 159/18/159 160/17/160
f 162/15/162 161/16/161 160/17/160
f 163/14/163 161/16/161 162/15/162
f 164/13/164 163/14/163 162/15/162
f 165/12/165 163/14/163 164/13/164
f 166/11/166 165/12/165 164/13/164
f 167/10/167 165/12/165 166/11/166
f 168/9/168 167/10/167 166/11/166
f 169/8/169 167/10/167 168/9/168
f 170/7/170 169/8/169 168/9/168
f 171/6/171 169/8/169 170/7/170
f 172/5/172 171/6/171 170/7/170
f 173/4/173 171/6/171 172/5/172
f 174/1/174 173/4/173 172/5/172
f 126/2/126 173/4/173 174/1/174
f 127/3/127 126/2/126 174/1/174
vt 0.013830 -0.000000
vt 0.016441 0.002479
vt 0.013830 0.002479
f 177/88/177 176/89/176 175/90/175
vt 0.016441 -0.000000
f 176/89/176 177/88/177 178/91/178
f 181/91/181 180/88/180 179/89/179
f 182/90/182 179/89/179 180/88/180
vt 0.023241 0.002479
vt 0.025851 -0.000000
vt 0.025851 0.002479
f 183/92/183 177/93/177 175/94/175
vt 0.023241 -0.000000
f 177/93/177 183/92/183 184/95/184
f 186/95/186 185/92/185 180/93/180
f 182/94/182 180/93/180 185/92/185
vt 0.030979 -0.000000
vt 0.033589 0.002479
vt 0.030979 0.002479
f 188/96/188 183/97/183 187/98/187
vt 0.033589 -0.000000
f 183/97/183 188/96/188 184/99/184
f 186/99/186 189/96/189 185/97/185
f 190/98/190 185/97/185 189/96/189
vt 0.036516 0.002479
vt 0.039127 -0.000000
vt 0.039127 0.002479
f 191/100/191 188/101/188 187/102/187
vt 0.036516 -0.000000
f 188/101/188 191/100/191 192/103/192
f 194/103/194 193/100/193 189/101/189
f 190/102/190 189/101/189 193/100/193
vt 0.039477 0.002479
vt 0.042087 -0.000000
vt 0.042087 0.002479
f 195/104/195 192/105/192 191/106/191
vt 0.039477 -0.000000
f 192/105/192 195/104/195 196/107/196
f 198/107/198 197/104/197 194/105/194
f 193/106/193 194/105/194 197/104/197
vt 0.039658 0.002479
vt 0.042268 -0.000000
vt 0.042268 0.002479
f 199/108/199 196/109/196 195/110/195
vt 0.039658 -0.000000
f 196/109/196 199/108/199 200/111/200
f 202/111/202 201/108/201 198/109/198
f 197/110/197 198/109/198 201/108/201
vt 0.037047 0.002479
vt 0.039658 -0.000000
f 203/112/203 200/113/200 199/108/199
vt 0.037047 -0.000000
f 200/113/200 203/112/203 204/114/204
f 206/114/206 205/112/205 202/113/202
f 201/108/201 202/113/202 205/112/205
vt 0.031823 0.002479
vt 0.034434 -0.000000
vt 0.034434 0.002479
f 207/115/207 204/116/204 203/117/203
vt 0.031823 -0.000000
f 204/116/204 207/115/207 208/118/208
f 210/118/210 209/115/209 206/116/206
f 205/117/205 206/116/206 209/115/209
vt 0.024341 0.002479
vt 0.026952 -0.000000
vt 0.026952 0.002479
f 211/119/211 208/120/208 207/121/207
vt 0.024341 -0.000000
f 208/120/208 211/119/211 212/122/212
f 214/122/214 213/119/213 210/120/210
f 209/121/209 210/120/210 213/119/213
vt 0.015112 0.002479
vt 0.017722 -0.000000
vt 0.017722 0.002479
f 215/123/215 212/124/212 211/125/211
vt 0.015112 -0.000000
f 212/124/212 215/123/215 216/126/216
f 218/126/218 217/123/217 214/124/214
f 213/125/213 214/124/214 217/123/217
vt 0.004763 -0.000000
vt 0.007374 0.002479
vt 0.004763 0.002479
f 220/127/220 215/128/215 219/129/219
vt 0.007374 -0.000000
f 215/128/215 220/127/220 216/130/216
f 218/130/218 221/127/221 217/128/217
f 222/129/222 217/128/217 221/127/221
vt -0.005999 0.000000
vt -0.003388 0.002479
vt -0.005999 0.002479
f 224/131/224 219/132/219 223/133/223
vt -0.003388 0.000000
f 219/132/219 224/131/224 220/134/220
f 221/134/221 225/131/225 222/132/222
f 226/133/226 222/132/222 225/131/225
vt -0.023951 0.002152
vt -0.010000 0.002479
vt -0.023941 0.002479
f 228/135/228 223/136/223 227/137/227
vt -0.024120 0.001522
f 229/138/229 223/136/223 228/135/228
vt -0.024447 0.000957
f 230/139/230 223/136/223 229/138/229
vt -0.024908 0.000495
f 231/140/231 223/136/223 230/139/230
vt -0.025473 0.000169
f 232/141/232 223/136/223 231/140/231
vt -0.026104 0.000000
f 233/142/233 223/136/223 232/141/232
vt -0.010000 0.000000
f 223/136/223 233/142/233 224/143/224
f 225/143/225 234/142/234 226/136/226
f 235/141/235 226/136/226 234/142/234
f 236/140/236 226/136/226 235/141/235
f 237/139/237 226/136/226 236/140/236
f 238/138/238 226/136/226 237/139/237
f 239/135/239 226/136/226 238/138/238
f 240/137/240 226/136/226 239/135/239
vt 0.050000 -0.024562
vt 0.030000 -0.025214
vt 0.050000 -0.025214
f 243/144/243 242/145/242 241/146/241
vt 0.030000 -0.024562
f 242/145/242 243/144/243 244/147/244
f 247/147/247 246/144/246 245/145/245
f 248/146/248 245/145/245 246/144/246
vt -0.026104 0.030000
vt -0.026756 0.050000
vt -0.026756 0.030000
f 251/148/251 250/149/250 249/150/249
vt -0.026104 0.050000
f 250/149/250 251/148/251 252/151/252
f 255/151/255 254/148/254 253/149/253
f 256/150/256 253/149/253 254/148/254
vt 0.010000 0.002479
vt 0.023951 0.002152
vt 0.023930 0.002479
f 176/152/176 258/153/258 257/154/257
vt 0.024120 0.001522
f 176/152/176 259/155/259 258/153/258
vt 0.024447 0.000957
f 176/152/176 260/156/260 259/155/259
vt 0.024908 0.000495
f 176/152/176 261/157/261 260/156/260
vt 0.025473 0.000169
f 176/152/176 262/158/262 261/157/261
vt 0.026104 0.000000
f 176/152/176 263/159/263 262/158/262
vt 0.010000 0.000000
f 263/159/263 176/152/176 178/160/178
f 181/160/181 179/152/179 264/159/264
f 265/158/265 264/159/264 179/152/179
f 266/157/266 265/158/265 179/152/179
f 267/156/267 266/157/266 179/152/179
f 268/155/268 267/156/267 179/152/179
f 269/153/269 268/155/268 179/152/179
f 270/154/270 269/153/269 179/152/179
vt -0.023941 0.030000
vt -0.019104 0.045000
vt -0.023930 0.050000
f 273/161/273 272/162/272 271/163/271
vt -0.019104 0.035000
f 273/161/273 274/164/274 272/162/272
vt -0.019035 0.034482
f 273/161/273 275/165/275 274/164/274
vt -0.018836 0.034000
f 273/161/273 276/166/276 275/165/275
vt -0.018518 0.033586
f 273/161/273 277/167/277 276/166/276
vt -0.018104 0.033268
f 273/161/273 278/168/278 277/167/277
vt -0.017621 0.033068
f 273/161/273 279/169/279 278/168/278
vt -0.017104 0.033000
f 273/161/273 280/170/280 279/169/279
vt -0.016586 0.033068
f 273/161/273 281/171/281 280/170/280
vt -0.016104 0.033268
f 273/161/273 282/172/282 281/171/281
vt -0.015172 0.034482
vt -0.012000 0.040000
vt -0.015104 0.035000
f 285/173/285 284/174/284 283/175/283
vt -0.015372 0.034000
f 286/176/286 284/174/284 285/173/285
vt -0.011932 0.039482
f 286/176/286 287/177/287 284/174/284
vt -0.011732 0.039000
f 286/176/286 288/178/288 287/177/287
vt -0.011414 0.038586
f 286/176/286 289/179/289 288/178/288
vt -0.015689 0.033586
f 290/180/290 289/179/289 286/176/286
vt -0.011000 0.038268
f 290/180/290 291/181/291 289/179/289
vt -0.010518 0.038068
f 290/180/290 292/182/292 291/181/291
vt -0.010000 0.038000
f 290/180/290 293/183/293 292/182/292
vt -0.010000 0.030000
f 294/184/294 282/172/282 273/161/273
f 294/184/294 290/180/290 282/172/282
f 294/184/294 293/183/293 290/180/290
vt -0.009482 0.038068
f 294/184/294 295/185/295 293/183/293
vt -0.009000 0.038268
f 294/184/294 296/186/296 295/185/295
vt -0.008586 0.038586
f 294/184/294 297/187/297 296/186/296
vt -0.008268 0.039000
f 294/184/294 298/188/298 297/187/297
vt -0.008068 0.039482
f 294/184/294 299/189/299 298/188/298
vt -0.007412 0.030341
vt -0.008000 0.040000
f 299/189/299 301/190/301 300/191/300
f 301/190/301 299/189/299 294/184/294
vt -0.019035 0.045518
f 302/192/302 271/163/271 272/162/272
vt -0.018836 0.046000
f 303/193/303 271/163/271 302/192/302
vt -0.018518 0.046414
f 304/194/304 271/163/271 303/193/303
vt -0.018104 0.046732
f 305/195/305 271/163/271 304/194/304
vt -0.017621 0.046932
f 306/196/306 271/163/271 305/195/305
vt -0.017104 0.047000
f 307/197/307 271/163/271 306/196/306
vt -0.016586 0.046932
f 308/198/308 271/163/271 307/197/307
vt -0.016104 0.046732
f 309/199/309 271/163/271 308/198/308
vt -0.015104 0.045000
f 284/174/284 310/200/310 283/175/283
vt -0.015172 0.045518
f 284/174/284 311/201/311 310/200/310
vt -0.015372 0.046000
f 284/174/284 312/202/312 311/201/311
vt -0.011932 0.040518
f 313/203/313 312/202/312 284/174/284
vt -0.011732 0.041000
f 314/204/314 312/202/312 313/203/313
vt -0.011414 0.041414
f 315/205/315 312/202/312 314/204/314
vt -0.015689 0.046414
f 315/205/315 316/206/316 312/202/312
vt -0.011000 0.041732
f 317/207/317 316/206/316 315/205/315
vt -0.010518 0.041932
f 318/208/318 316/206/316 317/207/317
vt -0.010000 0.042000
f 319/209/319 316/206/316 318/208/318
vt -0.010000 0.050000
f 309/199/309 320/210/320 271/163/271
f 316/206/316 320/210/320 309/199/309
f 319/209/319 320/210/320 316/206/316
vt -0.009482 0.041932
f 321/211/321 320/210/320 319/209/319
vt -0.009000 0.041732
f 322/212/322 320/210/320 321/211/321
vt -0.008586 0.041414
f 323/213/323 320/210/320 322/212/322
vt -0.008268 0.041000
f 324/214/324 320/210/320 323/213/323
vt -0.008068 0.040518
f 325/215/325 320/210/320 324/214/324
vt -0.007412 0.049659
f 325/215/325 326/216/326 320/210/320
f 300/191/300 326/216/326 325/215/325
f 301/190/301 326/216/326 300/191/300
vt -0.005000 0.031340
f 327/217/327 326/216/326 301/190/301
vt -0.005000 0.048660
f 327/217/327 328/218/328 326/216/326
vt -0.002929 0.047071
f 327/217/327 329/219/329 328/218/328
vt -0.002929 0.032929
f 330/220/330 329/219/329 327/217/327
vt -0.001340 0.045000
f 330/220/330 331/221/331 329/219/329
vt -0.001340 0.035000
f 332/222/332 331/221/331 330/220/330
vt -0.000341 0.042588
f 332/222/332 333/223/333 331/221/331
vt -0.000341 0.037412
f 334/224/334 333/223/333 332/222/332
vt 0.000000 0.040000
f 333/223/333 334/224/334 335/225/335
vt -0.019035 0.044482
f 274/164/274 336/226/336 272/162/272
vt -0.019035 0.035518
f 337/227/337 336/226/336 274/164/274
vt -0.018836 0.044000
f 337/227/337 338/228/338 336/226/336
vt -0.018836 0.036000
f 339/229/339 338/228/338 337/227/337
vt -0.018518 0.043586
f 339/229/339 340/230/340 338/228/338
vt -0.018518 0.036414
f 341/231/341 340/230/340 339/229/339
vt -0.018104 0.043268
f 341/231/341 342/232/342 340/230/340
vt -0.018104 0.036732
f 343/233/343 342/232/342 341/231/341
vt -0.017621 0.043068
f 343/233/343 344/234/344 342/232/342
vt -0.017621 0.036932
f 345/235/345 344/234/344 343/233/343
vt -0.017104 0.043000
f 345/235/345 346/236/346 344/234/344
vt -0.017104 0.037000
f 347/237/347 346/236/346 345/235/345
vt -0.016586 0.043068
f 347/237/347 348/238/348 346/236/346
vt -0.016586 0.036932
f 349/239/349 348/238/348 347/237/347
vt -0.016104 0.043268
f 349/239/349 350/240/350 348/238/348
vt -0.016104 0.036732
f 351/241/351 350/240/350 349/239/349
vt -0.015689 0.043586
f 351/241/351 352/242/352 350/240/350
vt -0.015689 0.036414
f 353/243/353 352/242/352 351/241/351
vt -0.015372 0.044000
f 353/243/353 354/244/354 352/242/352
vt -0.015372 0.036000
f 355/245/355 354/244/354 353/243/353
vt -0.015172 0.044482
f 355/245/355 356/246/356 354/244/354
vt -0.015172 0.035518
f 357/247/357 356/246/356 355/245/355
f 357/247/357 310/200/310 356/246/356
f 310/200/310 357/247/357 283/175/283
f 360/175/360 359/247/359 358/200/358
f 361/246/361 358/200/358 359/247/359
f 362/245/362 361/246/361 359/247/359
f 363/244/363 361/246/361 362/245/362
f 364/243/364 363/244/363 362/245/362
f 365/242/365 363/244/363 364/243/364
f 366/241/366 365/242/365 364/243/364
f 367/240/367 365/242/365 366/241/366
f 368/239/368 367/240/367 366/241/366
f 369/238/369 367/240/367 368/239/368
f 370/237/370 369/238/369 368/239/368
f 371/236/371 369/238/369 370/237/370
f 372/235/372 371/236/371 370/237/370
f 373/234/373 371/236/371 372/235/372
f 374/233/374 373/234/373 372/235/372
f 375/232/375 373/234/373 374/233/374
f 376/231/376 375/232/375 374/233/374
f 377/230/377 375/232/375 376/231/376
f 378/229/378 377/230/377 376/231/376
f 379/228/379 377/230/377 378/229/378
f 380/227/380 379/228/379 378/229/378
f 381/226/381 379/228/379 380/227/380
f 382/164/382 381/226/381 380/227/380
f 383/162/383 381/226/381 382/164/382
f 386/225/386 385/224/385 384/223/384
f 387/222/387 384/223/384 385/224/385
f 388/221/388 384/223/384 387/222/387
f 389/220/389 388/221/388 387/222/387
f 390/219/390 388/221/388 389/220/389
f 391/217/391 390/219/390 389/220/389
f 392/218/392 390/219/390 391/217/391
f 393/216/393 392/218/392 391/217/391
f 394/190/394 393/216/393 391/217/391
f 395/191/395 393/216/393 394/190/394
f 396/215/396 393/216/393 395/191/395
f 397/210/397 393/216/393 396/215/396
f 398/214/398 397/210/397 396/215/396
f 399/213/399 397/210/397 398/214/398
f 400/212/400 397/210/397 399/213/399
f 401/211/401 397/210/397 400/212/400
f 402/209/402 397/210/397 401/211/401
f 403/206/403 397/210/397 402/209/402
f 404/199/404 397/210/397 403/206/403
f 405/163/405 397/210/397 404/199/404
f 406/208/406 403/206/403 402/209/402
f 407/207/407 403/206/403 406/208/406
f 408/205/408 403/206/403 407/207/407
f 409/202/409 403/206/403 408/205/408
f 410/204/410 409/202/409 408/205/408
f 411/203/411 409/202/409 410/204/410
f 412/174/412 409/202/409 411/203/411
f 413/201/413 409/202/409 412/174/412
f 358/200/358 413/201/413 412/174/412
f 360/175/360 358/200/358 412/174/412
f 414/198/414 405/163/405 404/199/404
f 415/197/415 405/163/405 414/198/414
f 416/196/416 405/163/405 415/197/415
f 417/195/417 405/163/405 416/196/416
f 418/194/418 405/163/405 417/195/417
f 419/193/419 405/163/405 418/194/418
f 420/192/420 405/163/405 419/193/419
f 383/162/383 405/163/405 420/192/420
f 422/184/422 421/189/421 394/190/394
f 395/191/395 394/190/394 421/189/421
f 423/188/423 421/189/421 422/184/422
f 424/187/424 423/188/423 422/184/422
f 425/186/425 424/187/424 422/184/422
f 426/185/426 425/186/425 422/184/422
f 427/183/427 426/185/426 422/184/422
f 428/180/428 427/183/427 422/184/422
f 429/172/429 428/180/428 422/184/422
f 430/161/430 429/172/429 422/184/422
f 431/182/431 427/183/427 428/180/428
f 432/181/432 431/182/431 428/180/428
f 433/179/433 432/181/432 428/180/428
f 434/176/434 433/179/433 428/180/428
f 435/178/435 433/179/433 434/176/434
f 436/177/436 435/178/435 434/176/434
f 412/174/412 436/177/436 434/176/434
f 437/173/437 412/174/412 434/176/434
f 360/175/360 412/174/412 437/173/437
f 438/171/438 429/172/429 430/161/430
f 439/170/439 438/171/438 430/161/430
f 440/169/440 439/170/439 430/161/430
f 441/168/441 440/169/440 430/161/430
f 442/167/442 441/168/441 430/161/430
f 443/166/443 442/167/442 430/161/430
f 444/165/444 443/166/443 430/161/430
f 382/164/382 444/165/444 430/161/430
f 383/162/383 382/164/382 430/161/430
f 405/163/405 383/162/383 430/161/430
vt -0.029994 0.000978
vt -0.049994 0.001305
vt -0.049994 0.000978
f 447/248/447 446/249/446 445/250/445
vt -0.029994 0.001305
f 446/249/446 447/248/447 448/251/448
f 451/251/451 450/248/450 449/249/449
f 452/250/452 449/249/449 450/248/450
vt 0.025473 0.004788
vt 0.026756 0.004957
vt 0.026104 0.004957
f 455/252/455 454/253/454 453/254/453
vt 0.027387 0.004788
f 455/252/455 456/255/456 454/253/454
vt 0.024908 0.004462
f 457/256/457 456/255/456 455/252/455
vt 0.027952 0.004462
f 457/256/457 458/257/458 456/255/456
vt 0.024447 0.004001
f 459/258/459 458/257/458 457/256/457
vt 0.028413 0.004001
f 459/258/459 460/259/460 458/257/458
vt 0.026438 0.003482
f 459/258/459 461/260/461 460/259/460
vt 0.026179 0.003448
f 459/258/459 462/261/462 461/260/461
vt 0.024120 0.003435
f 463/262/463 462/261/462 459/258/459
vt 0.025938 0.003348
f 463/262/463 464/263/464 462/261/462
vt 0.025731 0.003189
f 463/262/463 465/264/465 464/263/464
vt 0.025572 0.002982
f 463/262/463 466/265/466 465/264/465
vt 0.023951 0.002805
f 467/266/467 466/265/466 463/262/463
vt 0.025472 0.002741
f 467/266/467 468/267/468 466/265/466
vt 0.025438 0.002482
f 467/266/467 469/268/469 468/267/468
vt 0.023941 0.002479
f 470/269/470 469/268/469 467/266/467
vt 0.025472 0.002223
f 470/269/470 471/270/471 469/268/469
f 472/153/472 471/270/471 470/269/470
vt 0.025572 0.001982
f 472/153/472 473/271/473 471/270/471
vt 0.025731 0.001775
f 472/153/472 474/272/474 473/271/473
vt 0.025938 0.001616
f 472/153/472 475/273/475 474/272/474
f 476/155/476 475/273/475 472/153/472
vt 0.026179 0.001516
f 476/155/476 477/274/477 475/273/475
vt 0.026438 0.001482
f 476/155/476 478/275/478 477/274/477
f 478/275/478 476/155/476 479/156/479
vt 0.026697 0.003448
f 480/276/480 460/259/460 461/260/461
vt 0.028740 0.003435
f 480/276/480 481/277/481 460/259/460
vt 0.026938 0.003348
f 482/278/482 481/277/481 480/276/480
vt 0.027145 0.003189
f 483/279/483 481/277/481 482/278/482
vt 0.027304 0.002982
f 484/280/484 481/277/481 483/279/483
vt 0.028909 0.002805
f 484/280/484 485/281/485 481/277/481
vt 0.027404 0.002741
f 486/282/486 485/281/485 484/280/484
vt 0.027438 0.002482
f 487/283/487 485/281/485 486/282/486
vt 0.027404 0.002223
f 488/284/488 485/281/485 487/283/487
vt 0.028909 0.002152
f 488/284/488 489/285/489 485/281/485
vt 0.027304 0.001982
f 490/286/490 489/285/489 488/284/488
vt 0.027145 0.001775
f 491/287/491 489/285/489 490/286/490
vt 0.026938 0.001616
f 492/288/492 489/285/489 491/287/491
vt 0.028740 0.001522
f 492/288/492 493/289/493 489/285/489
vt 0.026697 0.001516
f 494/290/494 493/289/493 492/288/492
f 478/275/478 493/289/493 494/290/494
f 479/156/479 493/289/493 478/275/478
vt 0.028413 0.000957
f 479/156/479 495/291/495 493/289/493
f 496/157/496 495/291/495 479/156/479
vt 0.027952 0.000495
f 496/157/496 497/292/497 495/291/495
f 498/158/498 497/292/497 496/157/496
vt 0.027387 0.000169
f 498/158/498 499/293/499 497/292/497
vt 0.026104 -0.000000
f 500/294/500 499/293/499 498/158/498
vt 0.026756 -0.000000
f 499/293/499 500/294/500 501/295/501
f 504/295/504 503/294/503 502/293/502
f 505/158/505 502/293/502 503/294/503
f 506/292/506 502/293/502 505/158/505
f 507/157/507 506/292/506 505/158/505
f 508/291/508 506/292/506 507/157/507
f 509/156/509 508/291/508 507/157/507
f 510/289/510 508/291/508 509/156/509
f 511/275/511 510/289/510 509/156/509
f 512/290/512 510/289/510 511/275/511
f 513/288/513 510/289/510 512/290/512
f 514/285/514 510/289/510 513/288/513
f 515/287/515 514/285/514 513/288/513
f 516/286/516 514/285/514 515/287/515
f 517/284/517 514/285/514 516/286/516
f 518/281/518 514/285/514 517/284/517
f 519/283/519 518/281/518 517/284/517
f 520/282/520 518/281/518 519/283/519
f 521/280/521 518/281/518 520/282/520
f 522/277/522 518/281/518 521/280/521
f 523/279/523 522/277/522 521/280/521
f 524/278/524 522/277/522 523/279/523
f 525/276/525 522/277/522 524/278/524
f 526/259/526 522/277/522 525/276/525
f 527/260/527 526/259/526 525/276/525
f 509/156/509 528/155/528 511/275/511
f 529/274/529 511/275/511 528/155/528
f 530/273/530 529/274/529 528/155/528
f 531/153/531 530/273/530 528/155/528
f 532/272/532 530/273/530 531/153/531
f 533/271/533 532/272/532 531/153/531
f 534/270/534 533/271/533 531/153/531
f 535/269/535 534/270/534 531/153/531
f 536/268/536 534/270/534 535/269/535
f 537/266/537 536/268/536 535/269/535
f 538/267/538 536/268/536 537/266/537
f 539/265/539 538/267/538 537/266/537
f 540/262/540 539/265/539 537/266/537
f 541/264/541 539/265/539 540/262/540
f 542/263/542 541/264/541 540/262/540
f 543/261/543 542/263/542 540/262/540
f 544/258/544 543/261/543 540/262/540
f 527/260/527 543/261/543 544/258/544
f 526/259/526 527/260/527 544/258/544
f 545/257/545 526/259/526 544/258/544
f 546/256/546 545/257/545 544/258/544
f 547/255/547 545/257/545 546/256/546
f 548/252/548 547/255/547 546/256/546
f 549/253/549 547/255/547 548/252/548
f 550/254/550 549/253/549 548/252/548
vt 0.030000 -0.004120
vt 0.050000 -0.004773
vt 0.050000 -0.004120
f 450/296/450 551/297/551 452/298/452
vt 0.030000 -0.004773
f 551/297/551 450/296/450 552/299/552
f 554/299/554 447/296/447 553/297/553
f 445/298/445 553/297/553 447/296/447
vt 0.030000 -0.010742
vt 0.050000 -0.011395
vt 0.050000 -0.010742
f 552/300/552 555/301/555 551/302/551
vt 0.030000 -0.011395
f 555/301/555 552/300/552 556/303/556
f 558/303/558 554/300/554 557/301/557
f 553/302/553 557/301/557 554/300/554
vt 0.030000 -0.016610
vt 0.050000 -0.017262
vt 0.050000 -0.016610
f 556/304/556 559/305/559 555/306/555
vt 0.030000 -0.017262
f 559/305/559 556/304/556 560/307/560
f 562/307/562 558/304/558 561/305/561
f 557/306/557 561/305/561 558/304/558
vt 0.050000 -0.021323
vt 0.030000 -0.021976
vt 0.050000 -0.021976
f 559/308/559 244/309/244 243/310/243
vt 0.030000 -0.021323
f 244/309/244 559/308/559 560/311/560
f 562/311/562 561/308/561 247/309/247
f 246/310/246 247/309/247 561/308/561
vt -0.028413 0.004001
vt -0.026697 0.003448
vt -0.026438 0.003482
f 565/312/565 564/313/564 563/314/563
vt -0.028740 0.003435
f 566/315/566 564/313/564 565/312/565
vt -0.026938 0.003348
f 566/315/566 567/316/567 564/313/564
vt -0.027145 0.003189
f 566/315/566 568/317/568 567/316/567
vt -0.027304 0.002982
f 566/315/566 569/318/569 568/317/568
vt -0.028909 0.002805
f 570/319/570 569/318/569 566/315/566
vt -0.027404 0.002741
f 570/319/570 571/320/571 569/318/569
vt -0.027438 0.002482
f 570/319/570 572/321/572 571/320/571
vt -0.027404 0.002223
f 570/319/570 573/322/573 572/321/572
vt -0.028909 0.002152
f 574/323/574 573/322/573 570/319/570
vt -0.027304 0.001982
f 574/323/574 575/324/575 573/322/573
vt -0.027145 0.001775
f 574/323/574 576/325/576 575/324/575
vt -0.026938 0.001616
f 574/323/574 577/326/577 576/325/576
vt -0.028740 0.001522
f 578/327/578 577/326/577 574/323/574
vt -0.026697 0.001516
f 578/327/578 579/328/579 577/326/577
vt -0.026438 0.001482
f 578/327/578 580/329/580 579/328/579
f 578/327/578 581/139/581 580/329/580
vt -0.028413 0.000957
f 582/330/582 581/139/581 578/327/578
f 582/330/582 583/140/583 581/139/581
vt -0.027952 0.000495
f 584/331/584 583/140/583 582/330/582
vt -0.027387 0.000169
f 585/332/585 583/140/583 584/331/584
f 585/332/585 586/141/586 583/140/583
vt -0.026756 0.000000
f 587/333/587 586/141/586 585/332/585
f 586/141/586 587/333/587 588/142/588
vt -0.026756 0.004957
vt -0.025473 0.004788
vt -0.026104 0.004957
f 591/334/591 590/335/590 589/336/589
vt -0.027387 0.004788
f 592/337/592 590/335/590 591/334/591
vt -0.027952 0.004462
f 593/338/593 590/335/590 592/337/592
vt -0.024908 0.004462
f 593/338/593 594/339/594 590/335/590
vt -0.024447 0.004001
f 593/338/593 595/340/595 594/339/594
f 565/312/565 595/340/595 593/338/593
f 563/314/563 595/340/595 565/312/565
vt -0.026179 0.003448
f 596/341/596 595/340/595 563/314/563
vt -0.024120 0.003435
f 596/341/596 597/342/597 595/340/595
vt -0.025938 0.003348
f 598/343/598 597/342/597 596/341/596
vt -0.025731 0.003189
f 599/344/599 597/342/597 598/343/598
vt -0.025572 0.002982
f 600/345/600 597/342/597 599/344/599
vt -0.023951 0.002805
f 600/345/600 601/346/601 597/342/597
vt -0.025472 0.002741
f 602/347/602 601/346/601 600/345/600
vt -0.025438 0.002482
f 603/348/603 601/346/601 602/347/602
vt -0.023930 0.002479
f 603/348/603 604/349/604 601/346/601
vt -0.025472 0.002223
f 605/350/605 604/349/604 603/348/603
f 605/350/605 606/135/606 604/349/604
vt -0.025572 0.001982
f 607/351/607 606/135/606 605/350/605
vt -0.025731 0.001775
f 608/352/608 606/135/606 607/351/607
vt -0.025938 0.001616
f 609/353/609 606/135/606 608/352/608
f 609/353/609 610/138/610 606/135/606
vt -0.026179 0.001516
f 611/354/611 610/138/610 609/353/609
f 580/329/580 610/138/610 611/354/611
f 610/138/610 580/329/580 581/139/581
f 614/139/614 613/329/613 612/138/612
f 615/354/615 612/138/612 613/329/613
f 616/353/616 612/138/612 615/354/615
f 617/135/617 612/138/612 616/353/616
f 618/352/618 617/135/617 616/353/616
f 619/351/619 617/135/617 618/352/618
f 620/350/620 617/135/617 619/351/619
f 621/349/621 617/135/617 620/350/620
f 622/348/622 621/349/621 620/350/620
f 623/346/623 621/349/621 622/348/622
f 624/347/624 623/346/623 622/348/622
f 625/345/625 623/346/623 624/347/624
f 626/342/626 623/346/623 625/345/625
f 627/344/627 626/342/626 625/345/625
f 628/343/628 626/342/626 627/344/627
f 629/341/629 626/342/626 628/343/628
f 630/340/630 626/342/626 629/341/629
f 631/314/631 630/340/630 629/341/629
f 632/312/632 630/340/630 631/314/631
f 633/338/633 630/340/630 632/312/632
f 634/339/634 630/340/630 633/338/633
f 635/335/635 634/339/634 633/338/633
f 636/337/636 635/335/635 633/338/633
f 637/334/637 635/335/635 636/337/636
f 638/336/638 635/335/635 637/334/637
f 641/142/641 640/333/640 639/141/639
f 642/332/642 639/141/639 640/333/640
f 643/140/643 639/141/639 642/332/642
f 644/331/644 643/140/643 642/332/642
f 645/330/645 643/140/643 644/331/644
f 614/139/614 643/140/643 645/330/645
f 646/327/646 614/139/614 645/330/645
f 613/329/613 614/139/614 646/327/646
f 647/328/647 613/329/613 646/327/646
f 648/326/648 647/328/647 646/327/646
f 649/323/649 648/326/648 646/327/646
f 650/325/650 648/326/648 649/323/649
f 651/324/651 650/325/650 649/323/649
f 652/322/652 651/324/651 649/323/649
f 653/319/653 652/322/652 649/323/649
f 654/321/654 652/322/652 653/319/653
f 655/320/655 654/321/654 653/319/653
f 656/318/656 655/320/655 653/319/653
f 657/315/657 656/318/656 653/319/653
f 658/317/658 656/318/656 657/315/657
f 659/316/659 658/317/658 657/315/657
f 660/313/660 659/316/659 657/315/657
f 632/312/632 660/313/660 657/315/657
f 631/314/631 660/313/660 632/312/632
vt 0.030000 0.025845
vt 0.050000 0.026497
vt 0.030000 0.026497
f 249/355/249 662/356/662 661/357/661
vt 0.050000 0.025845
f 662/356/662 249/355/249 250/358/250
f 253/358/253 256/355/256 663/356/663
f 664/357/664 663/356/663 256/355/256
vt -0.029994 0.003656
vt -0.049994 0.003983
vt -0.049994 0.003656
f 667/359/667 666/360/666 665/361/665
vt -0.029994 0.003983
f 666/360/666 667/359/667 668/362/668
f 671/362/671 670/359/670 669/360/669
f 672/361/672 669/360/669 670/359/670
vt -0.050000 0.020115
vt -0.030000 0.020768
vt -0.050000 0.020768
f 675/363/675 674/364/674 673/365/673
vt -0.030000 0.020115
f 674/364/674 675/363/675 676/366/676
f 679/366/679 678/363/678 677/364/677
f 680/365/680 677/364/677 678/363/678
vt -0.030000 0.015035
vt -0.050000 0.015688
vt -0.050000 0.015035
f 682/367/682 675/368/675 681/369/681
vt -0.030000 0.015688
f 675/368/675 682/367/682 676/370/676
f 679/370/679 683/367/683 678/368/678
f 684/369/684 678/368/678 683/367/683
vt -0.030000 0.008908
vt -0.050000 0.009561
vt -0.050000 0.008908
f 668/371/668 681/372/681 666/373/666
vt -0.030000 0.009561
f 681/372/681 668/371/668 682/374/682
f 683/374/683 671/371/671 684/372/684
f 669/373/669 684/372/684 671/371/671
vt 0.030000 0.023802
vt 0.050000 0.024455
vt 0.030000 0.024455
f 661/375/661 686/376/686 685/377/685
vt 0.050000 0.023802
f 686/376/686 661/375/661 662/378/662
f 663/378/663 664/375/664 687/376/687
f 688/377/688 687/376/687 664/375/664
vt 0.030000 0.020115
vt 0.050000 0.020768
vt 0.030000 0.020768
f 685/379/685 690/380/690 689/381/689
vt 0.050000 0.020115
f 690/380/690 685/379/685 686/382/686
f 687/382/687 688/379/688 691/380/691
f 692/381/692 691/380/691 688/379/688
vt 0.030000 0.015688
vt 0.050000 0.015035
vt 0.050000 0.015688
f 694/383/694 690/384/690 693/385/693
vt 0.030000 0.015035
f 690/384/690 694/383/694 689/386/689
f 692/386/692 695/383/695 691/384/691
f 696/385/696 691/384/691 695/383/695
vt 0.030000 0.009561
vt 0.050000 0.008908
vt 0.050000 0.009561
f 698/387/698 693/388/693 697/389/697
vt 0.030000 0.008908
f 693/388/693 698/387/698 694/390/694
f 695/390/695 699/387/699 696/388/696
f 700/389/700 696/388/696 699/387/699
vt 0.030000 0.002805
vt 0.050000 0.002152
vt 0.050000 0.002805
f 702/391/702 697/392/697 701/393/701
vt 0.030000 0.002152
f 697/392/697 702/391/702 698/394/698
f 699/394/699 703/391/703 700/392/700
f 704/393/704 700/392/700 703/391/703
f 706/296/706 701/297/701 705/298/705
f 701/297/701 706/296/706 702/299/702
f 703/299/703 707/296/707 704/297/704
f 708/298/708 704/297/704 707/296/707
f 710/300/710 705/301/705 709/302/709
f 705/301/705 710/300/710 706/303/706
f 707/303/707 711/300/711 708/301/708
f 712/302/712 708/301/708 711/300/711
f 714/304/714 709/305/709 713/306/713
f 709/305/709 714/304/714 710/307/710
f 711/307/711 715/304/715 712/305/712
f 716/306/716 712/305/712 715/304/715
f 717/308/717 714/309/714 713/310/713
f 714/309/714 717/308/717 718/311/718
f 720/311/720 719/308/719 715/309/715
f 716/310/716 715/309/715 719/308/719
f 721/144/721 718/145/718 717/146/717
f 718/145/718 721/144/721 722/147/722
f 724/147/724 723/144/723 720/145/720
f 719/146/719 720/145/720 723/144/723
vt 0.026756 0.030000
vt 0.026756 0.050000
f 725/27/725 722/395/722 721/396/721
f 722/395/722 725/27/725 726/28/726
f 728/28/728 727/27/727 724/395/724
f 723/396/723 724/395/724 727/27/727
vt -0.050000 0.025845
vt -0.030000 0.026497
vt -0.050000 0.026497
f 729/397/729 726/398/726 725/399/725
vt -0.030000 0.025845
f 726/398/726 729/397/729 730/400/730
f 732/400/732 731/397/731 728/398/728
f 727/399/727 728/398/728 731/397/731
vt -0.050000 0.023802
vt -0.030000 0.024455
vt -0.050000 0.024455
f 673/401/673 730/402/730 729/403/729
vt -0.030000 0.023802
f 730/402/730 673/401/673 674/404/674
f 677/404/677 680/401/680 732/402/732
f 731/403/731 732/402/732 680/401/680
# 736 faces, 404 coords texture

# End of File
