####
#
# OBJ File Generated by Meshlab
#
####
# Object original-197.obj
#
# Vertices: 96
# Faces: 96
#
####
mtllib ./original-197.obj.mtl

vn -2.202424 1.325452 1.758934
v -0.379336 -0.601150 0.282657
vn -2.697682 0.936894 1.243300
v -0.379814 -0.598548 0.279917
vn -2.697682 0.936894 1.243300
v -0.379814 -0.601525 0.282160
vn -2.202424 1.325452 1.758934
v -0.379336 -0.598174 0.280415
vn 2.202424 -1.325452 -1.758934
v -0.379336 -0.598174 0.280415
vn 2.202424 -1.325452 -1.758934
v -0.379336 -0.601150 0.282657
vn 2.697682 -0.936894 -1.243300
v -0.379814 -0.598548 0.279917
vn 2.697682 -0.936894 -1.243300
v -0.379814 -0.601525 0.282160
vn -1.557781 1.623256 2.154134
v -0.378713 -0.600862 0.283039
vn -1.557781 1.623256 2.154134
v -0.378713 -0.597886 0.280796
vn 1.557781 -1.623256 -2.154134
v -0.378713 -0.597886 0.280796
vn 1.557781 -1.623256 -2.154134
v -0.378713 -0.600862 0.283039
vn -3.008944 0.484179 0.642527
v -0.380114 -0.598985 0.279338
vn -3.008944 0.484179 0.642527
v -0.380114 -0.601961 0.281581
vn 3.008944 -0.484179 -0.642527
v -0.380114 -0.598985 0.279338
vn 3.008944 -0.484179 -0.642527
v -0.380114 -0.601961 0.281581
vn -0.805789 1.810558 2.402692
v -0.377987 -0.600681 0.283280
vn -0.805789 1.810558 2.402692
v -0.377987 -0.597705 0.281037
vn 0.805789 -1.810558 -2.402692
v -0.377987 -0.597705 0.281037
vn 0.805789 -1.810558 -2.402692
v -0.377987 -0.600681 0.283280
vn -3.114970 -0.000155 -0.000206
v -0.380216 -0.599454 0.278716
vn -3.114970 -0.000155 -0.000206
v -0.380216 -0.602430 0.280959
vn 3.114970 0.000155 0.000206
v -0.380216 -0.599454 0.278716
vn 3.114970 0.000155 0.000206
v -0.380216 -0.602430 0.280959
vn -0.000258 1.874636 2.487725
v -0.377209 -0.600620 0.283361
vn -0.000258 1.874636 2.487725
v -0.377209 -0.597643 0.281118
vn 0.000258 -1.874636 -2.487725
v -0.377209 -0.597643 0.281118
vn 0.000258 -1.874636 -2.487725
v -0.377209 -0.600620 0.283361
vn -3.009202 -0.483909 -0.642169
v -0.380114 -0.599922 0.278094
vn -3.009202 -0.483909 -0.642169
v -0.380114 -0.602898 0.280337
vn 3.009202 0.483909 0.642169
v -0.380114 -0.599922 0.278094
vn 3.009202 0.483909 0.642169
v -0.380114 -0.602898 0.280337
vn 0.806240 1.810402 2.402484
v -0.376430 -0.600681 0.283280
vn 0.806240 1.810402 2.402484
v -0.376430 -0.597705 0.281037
vn -0.806240 -1.810402 -2.402484
v -0.376430 -0.597705 0.281037
vn -0.806240 -1.810402 -2.402484
v -0.376430 -0.600681 0.283280
vn -2.697232 -0.937051 -1.243508
v -0.379814 -0.600359 0.277515
vn -2.697232 -0.937051 -1.243508
v -0.379814 -0.603335 0.279758
vn 2.697232 0.937051 1.243508
v -0.379814 -0.600359 0.277515
vn 2.697232 0.937051 1.243508
v -0.379814 -0.603335 0.279758
vn 1.558489 1.623079 2.153899
v -0.375705 -0.600862 0.283039
vn 1.558489 1.623079 2.153899
v -0.375705 -0.597886 0.280796
vn -1.558489 -1.623079 -2.153899
v -0.375705 -0.597886 0.280796
vn -1.558489 -1.623079 -2.153899
v -0.375705 -0.600862 0.283039
vn -2.201681 -1.326033 -1.759706
v -0.379336 -0.600733 0.277018
vn -2.201681 -1.326033 -1.759706
v -0.379336 -0.603710 0.279261
vn 2.201681 1.326033 1.759706
v -0.379336 -0.600733 0.277018
vn 2.201681 1.326033 1.759706
v -0.379336 -0.603710 0.279261
vn 2.202424 1.325452 1.758934
v -0.375082 -0.601150 0.282657
vn 2.202424 1.325452 1.758934
v -0.375082 -0.598174 0.280415
vn -2.202424 -1.325452 -1.758934
v -0.375082 -0.598174 0.280415
vn -2.202424 -1.325452 -1.758934
v -0.375082 -0.601150 0.282657
vn -1.557781 -1.623256 -2.154134
v -0.378713 -0.601021 0.276636
vn -1.557781 -1.623256 -2.154134
v -0.378713 -0.603997 0.278879
vn 1.557781 1.623256 2.154134
v -0.378713 -0.603997 0.278879
vn 1.557781 1.623256 2.154134
v -0.378713 -0.601021 0.276636
vn 2.696974 0.937922 1.244664
v -0.374604 -0.598548 0.279917
vn 2.696974 0.937922 1.244664
v -0.374604 -0.601525 0.282160
vn -2.696974 -0.937922 -1.244664
v -0.374604 -0.598548 0.279917
vn -2.696974 -0.937922 -1.244664
v -0.374604 -0.601525 0.282160
vn -0.805789 -1.810558 -2.402692
v -0.377987 -0.601202 0.276396
vn -0.805789 -1.810558 -2.402692
v -0.377987 -0.604178 0.278639
vn 0.805789 1.810558 2.402692
v -0.377987 -0.604178 0.278639
vn 0.805789 1.810558 2.402692
v -0.377987 -0.601202 0.276396
vn 3.008236 0.485207 0.643892
v -0.374303 -0.598985 0.279338
vn 3.008236 0.485207 0.643892
v -0.374303 -0.601961 0.281581
vn -3.008236 -0.485207 -0.643892
v -0.374303 -0.598985 0.279338
vn -3.008236 -0.485207 -0.643892
v -0.374303 -0.601961 0.281581
vn -0.000258 -1.874636 -2.487725
v -0.377209 -0.601263 0.276314
vn -0.000258 -1.874636 -2.487725
v -0.377209 -0.604240 0.278557
vn 0.000258 1.874636 2.487725
v -0.377209 -0.604240 0.278557
vn 0.000258 1.874636 2.487725
v -0.377209 -0.601263 0.276314
vn 3.114970 -0.000155 -0.000206
v -0.374201 -0.599454 0.278716
vn 3.114970 -0.000155 -0.000206
v -0.374201 -0.602430 0.280959
vn -3.114970 0.000155 0.000206
v -0.374201 -0.599454 0.278716
vn -3.114970 0.000155 0.000206
v -0.374201 -0.602430 0.280959
vn 0.806240 -1.810402 -2.402484
v -0.376430 -0.601202 0.276396
vn 0.806240 -1.810402 -2.402484
v -0.376430 -0.604178 0.278639
vn -0.806240 1.810402 2.402484
v -0.376430 -0.604178 0.278639
vn -0.806240 1.810402 2.402484
v -0.376430 -0.601202 0.276396
vn 3.008496 -0.484936 -0.643532
v -0.374303 -0.599922 0.278094
vn 3.008496 -0.484936 -0.643532
v -0.374303 -0.602898 0.280337
vn -3.008496 0.484936 0.643532
v -0.374303 -0.599922 0.278094
vn -3.008496 0.484936 0.643532
v -0.374303 -0.602898 0.280337
vn 1.558489 -1.623079 -2.153899
v -0.375705 -0.601021 0.276636
vn 1.558489 -1.623079 -2.153899
v -0.375705 -0.603997 0.278879
vn -1.558489 1.623079 2.153899
v -0.375705 -0.603997 0.278879
vn -1.558489 1.623079 2.153899
v -0.375705 -0.601021 0.276636
vn 2.696525 -0.938078 -1.244871
v -0.374604 -0.600359 0.277515
vn 2.696525 -0.938078 -1.244871
v -0.374604 -0.603335 0.279758
vn -2.696525 0.938078 1.244871
v -0.374604 -0.600359 0.277515
vn -2.696525 0.938078 1.244871
v -0.374604 -0.603335 0.279758
vn 2.201681 -1.326033 -1.759706
v -0.375082 -0.600733 0.277018
vn 2.201681 -1.326033 -1.759706
v -0.375082 -0.603710 0.279261
vn -2.201681 1.326033 1.759706
v -0.375082 -0.603710 0.279261
vn -2.201681 1.326033 1.759706
v -0.375082 -0.600733 0.277018
# 96 vertices, 0 vertices normals


usemtl material_0
vt 0.035137 0.000000
vt 0.034615 0.002479
vt 0.034615 0.000000
f 1/1/1 2/2/2 3/3/3
vt 0.035137 0.002479
f 2/2/2 1/1/1 4/4/4
f 5/4/5 6/1/6 7/2/7
f 8/3/8 7/2/7 6/1/6
vt 0.038440 0.000000
vt 0.037918 0.002479
vt 0.037918 0.000000
f 9/5/9 4/6/4 1/7/1
vt 0.038440 0.002479
f 4/6/4 9/5/9 10/8/10
f 11/8/11 12/5/12 5/6/5
f 6/7/6 5/6/5 12/5/12
vt 0.029457 0.000000
vt 0.028935 0.002479
vt 0.028935 0.000000
f 3/9/3 13/10/13 14/11/14
vt 0.029457 0.002479
f 13/10/13 3/9/3 2/12/2
f 7/12/7 8/9/8 15/10/15
f 16/11/16 15/10/15 8/9/8
vt 0.039142 0.000000
vt 0.038620 0.002479
vt 0.038620 0.000000
f 17/13/17 10/14/10 9/15/9
vt 0.039142 0.002479
f 10/14/10 17/13/17 18/16/18
f 19/16/19 20/13/20 11/14/11
f 12/15/12 11/14/11 20/13/20
vt 0.021787 0.000000
vt 0.021265 0.002479
vt 0.021265 0.000000
f 14/17/14 21/18/21 22/19/22
vt 0.021787 0.002479
f 21/18/21 14/17/14 13/20/13
f 15/20/15 16/17/16 23/18/23
f 24/19/24 23/18/23 16/17/16
vt 0.037194 0.000000
vt 0.036672 0.002479
vt 0.036672 0.000000
f 25/21/25 18/22/18 17/23/17
vt 0.037194 0.002479
f 18/22/18 25/21/25 26/24/26
f 27/24/27 28/21/28 19/22/19
f 20/23/20 19/22/19 28/21/28
vt 0.012650 0.000000
vt 0.012128 0.002479
vt 0.012128 0.000000
f 22/25/22 29/26/29 30/27/30
vt 0.012650 0.002479
f 29/26/29 22/25/22 21/28/21
f 23/28/23 24/25/24 31/26/31
f 32/27/32 31/26/31 24/25/24
vt 0.032729 -0.000000
vt 0.032207 0.002479
vt 0.032207 -0.000000
f 33/29/33 26/30/26 25/31/25
vt 0.032729 0.002479
f 26/30/26 33/29/33 34/32/34
f 35/32/35 36/29/36 27/30/27
f 28/31/28 27/30/27 36/29/36
vt 0.002669 0.000000
vt 0.002147 0.002479
vt 0.002147 0.000000
f 30/33/30 37/34/37 38/35/38
vt 0.002669 0.002479
f 37/34/37 30/33/30 29/36/29
f 31/36/31 32/33/32 39/34/39
f 40/35/40 39/34/39 32/33/32
vt 0.026052 -0.000000
vt 0.025529 0.002479
vt 0.025529 -0.000000
f 41/37/41 34/38/34 33/39/33
vt 0.026052 0.002479
f 34/38/34 41/37/41 42/40/42
f 43/40/43 44/37/44 35/38/35
f 36/39/36 35/38/35 44/37/44
vt -0.007476 -0.000000
vt -0.007999 0.002479
vt -0.007999 -0.000000
f 38/41/38 45/42/45 46/43/46
vt -0.007476 0.002479
f 45/42/45 38/41/38 37/44/37
f 39/44/39 40/41/40 47/42/47
f 48/43/48 47/42/47 40/41/40
vt 0.017616 -0.000000
vt 0.017094 0.002479
vt 0.017094 -0.000000
f 49/45/49 42/46/42 41/47/41
vt 0.017616 0.002479
f 42/46/42 49/45/49 50/48/50
f 51/48/51 52/45/52 43/46/43
f 44/47/44 43/46/43 52/45/52
vt -0.017616 0.002479
vt -0.017094 -0.000000
vt -0.017094 0.002479
f 53/49/53 46/50/46 45/51/45
vt -0.017616 -0.000000
f 46/50/46 53/49/53 54/52/54
f 55/52/55 56/49/56 48/50/48
f 47/51/47 48/50/48 56/49/56
vt 0.007999 0.002479
vt 0.007476 -0.000000
vt 0.007999 -0.000000
f 57/53/57 49/54/49 58/55/58
vt 0.007476 0.002479
f 49/54/49 57/53/57 50/56/50
f 51/56/51 59/53/59 52/54/52
f 60/55/60 52/54/52 59/53/59
vt -0.026052 0.002479
vt -0.025529 -0.000000
vt -0.025529 0.002479
f 61/57/61 54/58/54 53/59/53
vt -0.026052 -0.000000
f 54/58/54 61/57/61 62/60/62
f 63/60/63 64/57/64 55/58/55
f 56/59/56 55/58/55 64/57/64
vt -0.002147 0.002479
vt -0.002669 0.000000
vt -0.002147 0.000000
f 65/61/65 58/62/58 66/63/66
vt -0.002669 0.002479
f 58/62/58 65/61/65 57/64/57
f 59/64/59 67/61/67 60/62/60
f 68/63/68 60/62/60 67/61/67
vt -0.032729 0.002479
vt -0.032207 -0.000000
vt -0.032207 0.002479
f 69/65/69 62/66/62 61/67/61
vt -0.032729 -0.000000
f 62/66/62 69/65/69 70/68/70
f 71/68/71 72/65/72 63/66/63
f 64/67/64 63/66/63 72/65/72
vt -0.012128 0.002479
vt -0.012650 0.000000
vt -0.012128 0.000000
f 73/69/73 66/70/66 74/71/74
vt -0.012650 0.002479
f 66/70/66 73/69/73 65/72/65
f 67/72/67 75/69/75 68/70/68
f 76/71/76 68/70/68 75/69/75
vt -0.037194 0.002479
vt -0.036672 0.000000
vt -0.036672 0.002479
f 77/73/77 70/74/70 69/75/69
vt -0.037194 0.000000
f 70/74/70 77/73/77 78/76/78
f 79/76/79 80/73/80 71/74/71
f 72/75/72 71/74/71 80/73/80
vt -0.021265 0.002479
vt -0.021787 0.000000
vt -0.021265 0.000000
f 81/77/81 74/78/74 82/79/82
vt -0.021787 0.002479
f 74/78/74 81/77/81 73/80/73
f 75/80/75 83/77/83 76/78/76
f 84/79/84 76/78/76 83/77/83
vt -0.039142 0.002479
vt -0.038620 0.000000
vt -0.038620 0.002479
f 85/81/85 78/82/78 77/83/77
vt -0.039142 0.000000
f 78/82/78 85/81/85 86/84/86
f 87/84/87 88/81/88 79/82/79
f 80/83/80 79/82/79 88/81/88
vt -0.028935 0.002479
vt -0.029457 0.000000
vt -0.028935 0.000000
f 89/85/89 82/86/82 90/87/90
vt -0.029457 0.002479
f 82/86/82 89/85/89 81/88/81
f 83/88/83 91/85/91 84/86/84
f 92/87/92 84/86/84 91/85/91
vt -0.038440 0.002479
vt -0.037918 0.000000
vt -0.037918 0.002479
f 93/89/93 86/90/86 85/91/85
vt -0.038440 0.000000
f 86/90/86 93/89/93 94/92/94
f 95/92/95 96/89/96 87/90/87
f 88/91/88 87/90/87 96/89/96
vt -0.034615 0.002479
vt -0.035137 0.000000
vt -0.034615 0.000000
f 93/93/93 90/94/90 94/95/94
vt -0.035137 0.002479
f 90/94/90 93/93/93 89/96/89
f 91/96/91 96/93/96 92/94/92
f 95/95/95 92/94/92 96/93/96
# 96 faces, 96 coords texture

# End of File
