####
#
# OBJ File Generated by Meshlab
#
####
# Object original-103.obj
#
# Vertices: 432
# Faces: 764
#
####
mtllib ./original-103.obj.mtl

vn 6.051207 1.488344 0.398668
v -0.299187 -0.022146 -0.412111
vn 5.423941 3.083807 0.202158
v -0.299487 -0.022803 -0.401559
vn 6.034683 1.576203 0.103272
v -0.299187 -0.023529 -0.401606
vn 5.454460 2.948006 0.790066
v -0.299487 -0.021439 -0.411922
vn 6.051348 1.333960 0.770116
v -0.299187 -0.018111 -0.421853
vn 5.454168 2.643419 1.526128
v -0.299487 -0.017477 -0.421487
vn 4.437288 4.387810 0.287613
v -0.299965 -0.022181 -0.401518
vn 4.470919 4.219543 1.130672
v -0.299965 -0.020832 -0.411759
vn 5.423941 3.083807 -0.202158
v -0.299487 -0.022803 0.179389
vn 6.034682 1.576204 -0.103275
v -0.299187 -0.023529 0.179436
vn 6.228925 -0.064848 -0.017372
v -0.299084 -0.022904 -0.412315
vn 6.228909 -0.033377 -0.002188
v -0.299084 -0.024307 -0.401657
vn 6.051561 1.088869 1.088885
v -0.299187 -0.011692 -0.430219
vn 5.454210 2.158094 2.158118
v -0.299487 -0.011174 -0.429701
vn 4.473021 3.781799 2.183254
v -0.299965 -0.016933 -0.421173
vn 6.228888 -0.058697 -0.033898
v -0.299084 -0.018791 -0.422246
vn 3.172804 5.199513 1.393728
v -0.300588 -0.020367 -0.411635
vn 3.146205 5.387676 0.352875
v -0.300588 -0.021703 -0.401486
vn 4.437295 4.387802 -0.287627
v -0.299965 -0.022181 0.179348
vn 6.051187 1.488467 -0.398746
v -0.299187 -0.022146 0.189941
vn 5.454460 2.948006 -0.790066
v -0.299487 -0.021439 0.189752
vn 6.228910 -0.033379 0.002186
v -0.299084 -0.024307 0.179487
vn 5.984121 -1.599978 -0.428804
v -0.299187 -0.023663 -0.412518
vn 6.000533 -1.635155 -0.107095
v -0.299187 -0.025086 -0.401708
vn 6.051354 0.770114 1.333939
v -0.299187 -0.003326 -0.436638
vn 5.454149 1.526174 2.643431
v -0.299487 -0.002960 -0.436004
vn 4.472149 3.088373 3.088377
v -0.299965 -0.010730 -0.429257
vn 6.228860 -0.047746 -0.047760
v -0.299084 -0.012247 -0.430774
vn 3.172801 4.661376 2.691329
v -0.300588 -0.016515 -0.420932
vn 5.983678 -1.435660 -0.828755
v -0.299187 -0.019471 -0.422638
vn 1.648949 5.818130 1.558821
v -0.301313 -0.020074 -0.411556
vn 1.629509 6.020169 0.394769
v -0.301313 -0.021402 -0.401467
vn 3.146197 5.387680 -0.352893
v -0.300588 -0.021703 0.179316
vn 4.471480 4.219025 -1.130722
v -0.299965 -0.020832 0.189589
vn 6.051348 1.333960 -0.770116
v -0.299187 -0.018111 0.199683
vn 5.454168 2.643419 -1.526128
v -0.299487 -0.017477 0.199317
vn 6.228931 -0.064589 0.017294
v -0.299084 -0.022904 0.190144
vn 6.000533 -1.635155 0.107095
v -0.299187 -0.025086 0.179538
vn 5.335647 -3.015350 -0.807752
v -0.299487 -0.024370 -0.412707
vn 5.366034 -3.117134 -0.204297
v -0.299487 -0.025811 -0.401756
vn 6.045666 0.436361 1.492103
v -0.299187 0.006432 -0.440680
vn 5.443974 0.860809 2.943246
v -0.299487 0.006637 -0.439979
vn 4.472985 2.183400 3.781758
v -0.299965 -0.002646 -0.435460
vn 6.228888 -0.033912 -0.058681
v -0.299084 -0.003719 -0.437318
vn 3.172961 3.806042 3.806033
v -0.300588 -0.010389 -0.428916
vn 5.984103 -1.171554 -1.171462
v -0.299187 -0.012802 -0.431329
vn 1.646482 5.217144 3.012247
v -0.301313 -0.016253 -0.420781
vn 5.336393 -2.703105 -1.560685
v -0.299487 -0.020104 -0.423004
vn -0.000530 6.030899 1.615841
v -0.302092 -0.019974 -0.411529
vn -0.000521 6.236902 0.408803
v -0.302092 -0.021300 -0.401460
vn 1.629509 6.020169 -0.394769
v -0.301313 -0.021402 0.179297
vn 3.172745 5.199572 -1.393178
v -0.300588 -0.020367 0.189464
vn 4.473021 3.781799 -2.183254
v -0.299965 -0.016933 0.199003
vn 6.051561 1.088869 -1.088885
v -0.299187 -0.011692 0.208049
vn 5.454210 2.158094 -2.158118
v -0.299487 -0.011174 0.207531
vn 6.228887 -0.058705 0.033893
v -0.299084 -0.018791 0.200076
vn 5.984136 -1.599853 0.428808
v -0.299187 -0.023663 0.190348
vn 5.366034 -3.117134 0.204297
v -0.299487 -0.025811 0.179586
vn 4.336958 -4.219370 -1.130627
v -0.299965 -0.024976 -0.412870
vn 4.370908 -4.386040 -0.287580
v -0.299965 -0.026434 -0.401797
vn 6.040070 0.138027 1.561383
v -0.299187 0.229921 -0.480507
vn 5.434866 0.271121 3.066695
v -0.299487 0.229985 -0.479782
vn 4.459136 1.229669 4.204581
v -0.299965 0.006813 -0.439378
vn 6.228887 -0.015619 -0.053355
v -0.299084 0.006212 -0.441431
vn 3.172981 2.691209 4.661321
v -0.300588 -0.002405 -0.435042
vn 5.983668 -0.828792 -1.435662
v -0.299187 -0.004111 -0.437998
vn 1.644683 4.259978 4.260066
v -0.301313 -0.010175 -0.428702
vn 5.337471 -2.205656 -2.206013
v -0.299487 -0.013319 -0.431847
vn -0.000532 5.407154 3.121505
v -0.302092 -0.016163 -0.420729
vn 4.337792 -3.782107 -2.183564
v -0.299965 -0.020648 -0.423318
vn -1.628558 6.020621 0.394799
v -0.302870 -0.021402 -0.401467
vn -1.647950 5.818499 1.558920
v -0.302870 -0.020074 -0.411556
vn -0.000521 6.236902 -0.408803
v -0.302092 -0.021300 0.179290
vn 1.647993 5.818325 -1.559286
v -0.301313 -0.020074 0.189386
vn 3.174369 4.660634 -2.691030
v -0.300588 -0.016515 0.198762
vn 4.472137 3.088398 -3.088370
v -0.299965 -0.010730 0.207087
vn 6.051364 0.770059 -1.333935
v -0.299187 -0.003326 0.214468
vn 5.454133 1.526138 -2.643486
v -0.299487 -0.002960 0.213834
vn 6.228858 -0.047741 0.047779
v -0.299084 -0.012247 0.208604
vn 5.983669 -1.435657 0.828788
v -0.299187 -0.019471 0.200468
vn 5.335647 -3.015350 0.807752
v -0.299487 -0.024370 0.190537
vn 4.370908 -4.386040 0.287580
v -0.299965 -0.026434 0.179627
vn 3.087733 -5.354095 -0.350841
v -0.300588 -0.026912 -0.401828
vn 3.057684 -5.132977 -1.375645
v -0.300588 -0.025442 -0.412995
vn 3.008685 0.000000 0.806497
v -0.299187 0.276473 -0.480507
vn 2.697682 0.000000 1.556781
v -0.299487 0.276473 -0.479782
vn 4.450442 0.386371 4.370691
v -0.299965 0.230040 -0.479159
vn 6.228898 -0.004059 -0.046022
v -0.299084 0.229852 -0.481286
vn 3.165525 1.513122 5.173573
v -0.300588 0.006948 -0.438917
vn 5.989625 -0.463538 -1.585222
v -0.299187 0.005993 -0.442183
vn 1.646342 3.012187 5.217211
v -0.301313 -0.002254 -0.434780
vn 5.337791 -1.559933 -2.701622
v -0.299487 -0.004477 -0.438631
vn -0.000600 4.414918 4.415068
v -0.302092 -0.010102 -0.428629
vn 4.337668 -3.087858 -3.087564
v -0.299965 -0.013764 -0.432291
vn -1.645488 5.217472 3.012436
v -0.302870 -0.016253 -0.420781
vn 3.056666 -4.602674 -2.656918
v -0.300588 -0.021066 -0.423559
vn -3.144835 5.388306 0.352916
v -0.303596 -0.021703 -0.401486
vn -3.171480 5.200162 1.393901
v -0.303596 -0.020367 -0.411635
vn -1.628558 6.020621 -0.394799
v -0.302870 -0.021402 0.179297
vn -0.000530 6.030899 -1.615841
v -0.302092 -0.019974 0.189359
vn 1.646422 5.217266 -3.011664
v -0.301313 -0.016253 0.198610
vn 3.172998 3.806022 -3.806022
v -0.300588 -0.010389 0.206746
vn 4.473019 2.183287 -3.781782
v -0.299965 -0.002646 0.213290
vn 6.045255 0.436581 -1.492803
v -0.299187 0.006432 0.218509
vn 5.443346 0.861175 -2.944608
v -0.299487 0.006637 0.217809
vn 6.228821 -0.034141 0.059090
v -0.299084 -0.003719 0.215148
vn 5.983644 -1.172217 1.172230
v -0.299187 -0.012802 0.209159
vn 5.336400 -2.703073 1.560701
v -0.299487 -0.020104 0.200834
vn 4.336254 -4.219746 1.131039
v -0.299965 -0.024976 0.190700
vn 3.087493 -5.354172 0.351023
v -0.300588 -0.026912 0.179658
vn 1.595271 -5.961309 -0.390889
v -0.301313 -0.027213 -0.401848
vn 1.579685 -5.705495 -1.528627
v -0.301313 -0.025735 -0.413073
vn 0.000000 2.880101 0.000000
v -0.302870 0.276473 -0.484191
vn 0.000000 2.879449 0.000000
v -0.301313 0.276473 -0.484191
vn 0.000000 2.881034 0.000000
v -0.302092 0.276473 -0.484293
vn 0.000000 2.878993 0.000000
v -0.303596 0.276473 -0.483891
vn 0.000000 2.879480 0.000000
v -0.300588 0.276473 -0.483891
vn 0.000000 2.879703 0.000000
v -0.304219 0.276473 -0.483413
vn 0.000000 2.879703 0.000000
v -0.299965 0.276473 -0.483413
vn 0.000000 2.878993 0.000000
v -0.304697 0.276473 -0.482790
vn 0.000000 2.878993 0.000000
v -0.299487 0.276473 -0.482790
vn 0.000000 2.881365 0.000000
v -0.304997 0.276473 -0.482064
vn 0.000000 2.881365 0.000000
v -0.299187 0.276473 -0.482064
vn 0.000000 2.878509 0.000000
v -0.305100 0.276473 -0.481286
vn 0.000000 2.878509 0.000000
v -0.299084 0.276473 -0.481286
vn 0.000000 2.880711 0.000000
v -0.304997 0.276473 -0.480507
vn 0.000000 2.880711 0.000000
v -0.299187 0.276473 -0.480507
vn 0.000000 2.879480 0.000000
v -0.304697 0.276473 -0.479782
vn 0.000000 2.879480 0.000000
v -0.299487 0.276473 -0.479782
vn 0.000000 2.879703 0.000000
v -0.304219 0.276473 -0.479159
vn 0.000000 2.879703 0.000000
v -0.299965 0.276473 -0.479159
vn 0.000000 2.880169 0.000000
v -0.303596 0.276473 -0.478681
vn 0.000000 2.880657 0.000000
v -0.300588 0.276473 -0.478681
vn 0.000000 2.878925 0.000000
v -0.302870 0.276473 -0.478380
vn 0.000000 2.878272 0.000000
v -0.301313 0.276473 -0.478380
vn 0.000000 2.881034 0.000000
v -0.302092 0.276473 -0.478278
vn 2.202424 0.000000 2.202424
v -0.299965 0.276473 -0.479159
vn 3.114452 0.000000 -0.000260
v -0.299084 0.276473 -0.481286
vn 3.156498 0.475284 5.374637
v -0.300588 0.230082 -0.478681
vn 5.995243 -0.144890 -1.638627
v -0.299187 0.229783 -0.482064
vn 1.640451 1.692696 5.787340
v -0.301313 0.007033 -0.438626
vn 5.347860 -0.876432 -2.996596
v -0.299487 0.005788 -0.442883
vn -0.000461 3.121621 5.407084
v -0.302092 -0.002202 -0.434690
vn 4.336517 -2.183305 -3.782194
v -0.299965 -0.004791 -0.439176
vn -1.643593 4.260310 4.260310
v -0.302870 -0.010175 -0.428702
vn 3.055079 -3.758435 -3.758421
v -0.300588 -0.014105 -0.432632
vn -3.171479 4.661955 2.691663
v -0.303596 -0.016515 -0.420932
vn 1.580219 -5.115737 -2.953710
v -0.301313 -0.021328 -0.423711
vn -4.437288 4.387810 0.287613
v -0.304219 -0.022181 -0.401518
vn -4.470919 4.219543 1.130672
v -0.304219 -0.020832 -0.411759
vn -3.144826 5.388310 -0.352934
v -0.303596 -0.021703 0.179316
vn -1.646995 5.818694 -1.559385
v -0.302870 -0.020074 0.189386
vn -0.000529 5.406875 -3.122371
v -0.302092 -0.016163 0.198559
vn 1.647344 4.259524 -4.259705
v -0.301313 -0.010175 0.206532
vn 3.172911 2.691197 -4.661373
v -0.300588 -0.002405 0.212872
vn 4.461332 1.229079 -4.202793
v -0.299965 0.006813 0.217208
vn 6.039994 0.138073 -1.561924
v -0.299187 0.229921 0.258337
vn 5.434866 0.271121 -3.066695
v -0.299487 0.229985 0.257612
vn 6.228943 -0.015769 0.053780
v -0.299084 0.006212 0.219261
vn 5.984209 -0.828400 1.434865
v -0.299187 -0.004111 0.215827
vn 5.338283 -2.205458 2.205609
v -0.299487 -0.013319 0.209676
vn 4.337768 -3.782140 2.183532
v -0.299965 -0.020648 0.201148
vn 3.058050 -5.133332 1.375122
v -0.300588 -0.025442 0.190824
vn 1.595336 -5.961401 0.390577
v -0.301313 -0.027213 0.179677
vn -0.000510 -6.169730 -0.404207
v -0.302092 -0.027315 -0.401854
vn -0.000507 -5.900017 -1.581027
v -0.302092 -0.025835 -0.413100
vn -0.000521 0.550504 6.226821
v -0.302092 0.230118 -0.478278
vn -0.805789 0.000000 3.008496
v -0.302870 0.276473 -0.478380
vn -1.634633 0.531216 6.009728
v -0.302870 0.230109 -0.478380
vn -0.000258 0.000000 3.114970
v -0.302092 0.276473 -0.478278
vn 1.635599 0.531177 6.009302
v -0.301313 0.230109 -0.478380
vn 0.806240 0.000000 3.008236
v -0.301313 0.276473 -0.478380
vn 1.558489 0.000000 2.696974
v -0.300588 0.276473 -0.478681
vn 3.008943 0.000000 -0.806050
v -0.299187 0.276473 -0.482064
vn 2.697974 0.000000 -1.556074
v -0.299487 0.276473 -0.482790
vn 5.356350 -0.275024 -3.110855
v -0.299487 0.229719 -0.482790
vn 2.202424 0.000000 -2.202424
v -0.299965 0.276473 -0.483413
vn 4.359117 -0.386458 -4.370794
v -0.299965 0.229664 -0.483413
vn 3.074042 -0.471144 -5.330836
v -0.300588 0.229622 -0.483891
vn 1.556781 0.000000 -2.697682
v -0.300588 0.276473 -0.483891
vn 1.586337 -0.524510 -5.931767
v -0.301313 0.229595 -0.484191
vn 0.804532 0.000000 -3.008944
v -0.301313 0.276473 -0.484191
vn -0.000510 -0.542499 -6.136432
v -0.302092 0.229586 -0.484293
vn -0.000258 0.000000 -3.114970
v -0.302092 0.276473 -0.484293
vn -1.585506 -0.524569 -5.932368
v -0.302870 0.229595 -0.484191
vn -0.804083 0.000000 -3.009202
v -0.302870 0.276473 -0.484191
vn -3.072566 -0.471191 -5.331357
v -0.303596 0.229622 -0.483891
vn -1.556074 0.000000 -2.697974
v -0.303596 0.276473 -0.483891
vn -4.359118 -0.386455 -4.370794
v -0.304219 0.229664 -0.483413
vn -2.202424 0.000000 -2.202424
v -0.304219 0.276473 -0.483413
vn -5.356350 -0.275024 -3.110855
v -0.304697 0.229719 -0.482790
vn -2.697974 0.000000 -1.556074
v -0.304697 0.276473 -0.482790
vn -5.995243 -0.144890 -1.638627
v -0.304997 0.229783 -0.482064
vn -3.008943 0.000000 -0.806050
v -0.304997 0.276473 -0.482064
vn -6.228898 -0.004059 -0.046022
v -0.305100 0.229852 -0.481286
vn -3.114452 0.000000 -0.000260
v -0.305100 0.276473 -0.481286
vn -6.040070 0.138027 1.561383
v -0.304997 0.229921 -0.480507
vn -3.008685 0.000000 0.806497
v -0.304997 0.276473 -0.480507
vn -5.434866 0.271121 3.066695
v -0.304697 0.229985 -0.479782
vn -2.697682 0.000000 1.556781
v -0.304697 0.276473 -0.479782
vn -4.450443 0.386373 4.370690
v -0.304219 0.230040 -0.479159
vn -2.202424 0.000000 2.202424
v -0.304219 0.276473 -0.479159
vn -3.155141 0.475341 5.375282
v -0.303596 0.230082 -0.478681
vn -1.557781 0.000000 2.697268
v -0.303596 0.276473 -0.478681
vn -0.000380 1.754043 5.998136
v -0.302092 0.007062 -0.438528
vn 4.348320 -1.229177 -4.202984
v -0.299965 0.005612 -0.443485
vn -1.645531 3.012318 5.217519
v -0.302870 -0.002254 -0.434780
vn 3.057735 -2.657563 -4.603091
v -0.300588 -0.005032 -0.439593
vn -3.171675 3.806496 3.806496
v -0.303596 -0.010389 -0.428916
vn 1.576770 -4.177329 -4.177354
v -0.301313 -0.014319 -0.432846
vn -4.473021 3.781799 2.183254
v -0.304219 -0.016933 -0.421173
vn -0.000509 -5.289417 -3.053820
v -0.302092 -0.021418 -0.423763
vn -5.454460 2.948006 0.790066
v -0.304697 -0.021439 -0.411922
vn -5.423941 3.083807 0.202158
v -0.304697 -0.022803 -0.401559
vn -4.437295 4.387802 -0.287627
v -0.304219 -0.022181 0.179348
vn -3.171421 5.200220 -1.393352
v -0.303596 -0.020367 0.189464
vn -1.645425 5.217596 -3.011854
v -0.302870 -0.016253 0.198610
vn -0.000541 4.415275 -4.414322
v -0.302092 -0.010102 0.206458
vn 1.646516 3.012108 -5.217195
v -0.301313 -0.002254 0.212610
vn 3.164925 1.512991 -5.173411
v -0.300588 0.006948 0.216746
vn 4.450444 0.386376 -4.370688
v -0.299965 0.230040 0.256989
vn 3.008651 0.000000 -0.806757
v -0.299187 0.276473 0.258337
vn 2.697682 0.000000 -1.556781
v -0.299487 0.276473 0.257612
vn 6.228914 -0.003967 0.044997
v -0.299084 0.229852 0.259115
vn 5.989609 -0.463599 1.585235
v -0.299187 0.005993 0.220013
vn 5.336736 -1.560134 2.702221
v -0.299487 -0.004477 0.216461
vn 4.338537 -3.086736 3.086856
v -0.299965 -0.013764 0.210121
vn 3.056685 -4.602676 2.656874
v -0.300588 -0.021066 0.201389
vn 1.580488 -5.705049 1.528728
v -0.301313 -0.025735 0.190903
vn -0.000510 -6.169628 0.404492
v -0.302092 -0.027315 0.179684
vn -1.578891 -5.706118 -1.528794
v -0.302870 -0.025735 -0.413073
vn -1.594421 -5.961893 -0.390927
v -0.302870 -0.027213 -0.401848
vn -1.639740 1.692773 5.787667
v -0.302870 0.007033 -0.438626
vn 3.065518 -1.497828 -5.121757
v -0.300588 0.005477 -0.443946
vn 1.584597 -1.665475 -5.694933
v -0.301313 0.005392 -0.444236
vn -0.000474 -1.722610 -5.890343
v -0.302092 0.005363 -0.444335
vn -1.583870 -1.665657 -5.695500
v -0.302870 0.005392 -0.444236
vn -3.063967 -1.498052 -5.122240
v -0.303596 0.005477 -0.443946
vn -4.348326 -1.229169 -4.202983
v -0.304219 0.005612 -0.443485
vn -5.347860 -0.876432 -2.996596
v -0.304697 0.005788 -0.442883
vn -5.989625 -0.463538 -1.585222
v -0.304997 0.005993 -0.442183
vn -6.228887 -0.015619 -0.053355
v -0.305100 0.006212 -0.441431
vn -6.045666 0.436361 1.492103
v -0.304997 0.006432 -0.440680
vn -5.443974 0.860809 2.943246
v -0.304697 0.006637 -0.439979
vn -4.459184 1.229739 4.204511
v -0.304219 0.006813 -0.439378
vn -3.164002 1.513250 5.174334
v -0.303596 0.006948 -0.438917
vn -3.171517 2.691666 4.661928
v -0.303596 -0.002405 -0.435042
vn 1.579488 -2.952822 -5.114740
v -0.301313 -0.005184 -0.439856
vn -4.472137 3.088398 3.088370
v -0.304219 -0.010730 -0.429257
vn -0.000513 -4.319611 -4.319595
v -0.302092 -0.014392 -0.432919
vn -5.454168 2.643419 1.526128
v -0.304697 -0.017477 -0.421487
vn -1.579427 -5.116295 -2.954031
v -0.302870 -0.021328 -0.423711
vn -6.051207 1.488344 0.398668
v -0.304997 -0.022146 -0.412111
vn -6.034683 1.576203 0.103272
v -0.304997 -0.023529 -0.401606
vn -5.423941 3.083807 -0.202158
v -0.304697 -0.022803 0.179389
vn -4.471480 4.219025 -1.130722
v -0.304219 -0.020832 0.189589
vn -3.173046 4.661214 -2.691364
v -0.303596 -0.016515 0.198762
vn -1.646365 4.259827 -4.259935
v -0.302870 -0.010175 0.206532
vn -0.000590 3.121597 -5.407082
v -0.302092 -0.002202 0.212520
vn 1.640893 1.692522 -5.787792
v -0.301313 0.007033 0.216456
vn 3.156495 0.475290 -5.374638
v -0.300588 0.230082 0.256511
vn 2.202424 0.000000 -2.202424
v -0.299965 0.276473 0.256989
vn 0.000000 2.878925 0.000000
v -0.302870 0.276473 0.256210
vn 0.000000 2.878272 0.000000
v -0.301313 0.276473 0.256210
vn 0.000000 2.881034 0.000000
v -0.302092 0.276473 0.256108
vn 0.000000 2.880169 0.000000
v -0.303596 0.276473 0.256511
vn 0.000000 2.880657 0.000000
v -0.300588 0.276473 0.256511
vn 0.000000 2.879703 0.000000
v -0.304219 0.276473 0.256989
vn 0.000000 2.879703 0.000000
v -0.299965 0.276473 0.256989
vn 0.000000 2.879480 0.000000
v -0.304697 0.276473 0.257612
vn 0.000000 2.879480 0.000000
v -0.299487 0.276473 0.257612
vn 0.000000 2.880878 0.000000
v -0.304997 0.276473 0.258337
vn 0.000000 2.880878 0.000000
v -0.299187 0.276473 0.258337
vn 0.000000 2.878509 0.000000
v -0.305100 0.276473 0.259115
vn 0.000000 2.878509 0.000000
v -0.299084 0.276473 0.259115
vn 0.000000 2.880711 0.000000
v -0.304997 0.276473 0.259894
vn 0.000000 2.880711 0.000000
v -0.299187 0.276473 0.259894
vn 0.000000 2.879480 0.000000
v -0.304697 0.276473 0.260619
vn 0.000000 2.879480 0.000000
v -0.299487 0.276473 0.260619
vn 0.000000 2.879703 0.000000
v -0.304219 0.276473 0.261242
vn 0.000000 2.879703 0.000000
v -0.299965 0.276473 0.261242
vn 0.000000 2.880169 0.000000
v -0.303596 0.276473 0.261720
vn 0.000000 2.880657 0.000000
v -0.300588 0.276473 0.261720
vn 0.000000 2.878925 0.000000
v -0.302870 0.276473 0.262021
vn 0.000000 2.878272 0.000000
v -0.301313 0.276473 0.262021
vn 0.000000 2.881034 0.000000
v -0.302092 0.276473 0.262123
vn 3.114452 0.000000 -0.000260
v -0.299084 0.276473 0.259115
vn 5.994664 -0.144964 1.639596
v -0.299187 0.229783 0.259894
vn 5.346303 -0.876937 2.998369
v -0.299487 0.005788 0.220713
vn 4.337837 -2.183519 3.782032
v -0.299965 -0.004791 0.217005
vn 3.055135 -3.758403 3.758403
v -0.300588 -0.014105 0.210462
vn 1.580219 -5.115737 2.953710
v -0.301313 -0.021328 0.201541
vn -0.000507 -5.900017 1.581027
v -0.302092 -0.025835 0.190930
vn -1.594487 -5.961984 0.390615
v -0.302870 -0.027213 0.179677
vn -3.056179 -5.133452 -1.375772
v -0.303596 -0.025442 -0.412995
vn -3.086272 -5.354635 -0.350876
v -0.303596 -0.026912 -0.401828
vn -0.000476 -3.054782 -5.290420
v -0.302092 -0.005236 -0.439945
vn -1.578691 -2.953039 -5.115386
v -0.302870 -0.005184 -0.439856
vn -3.056287 -2.657644 -4.603577
v -0.303596 -0.005032 -0.439593
vn -4.336486 -2.183380 -3.782170
v -0.304219 -0.004791 -0.439176
vn -5.337791 -1.559933 -2.701622
v -0.304697 -0.004477 -0.438631
vn -5.983668 -0.828792 -1.435662
v -0.304997 -0.004111 -0.437998
vn -6.228888 -0.033912 -0.058681
v -0.305100 -0.003719 -0.437318
vn -6.051354 0.770114 1.333939
v -0.304997 -0.003326 -0.436638
vn -5.454149 1.526174 2.643431
v -0.304697 -0.002960 -0.436004
vn -4.473019 2.183287 3.781782
v -0.304219 -0.002646 -0.435460
vn -5.454210 2.158094 2.158118
v -0.304697 -0.011174 -0.429701
vn -1.575890 -4.177900 -4.177762
v -0.302870 -0.014319 -0.432846
vn -6.051348 1.333960 0.770116
v -0.304997 -0.018111 -0.421853
vn -3.055162 -4.603098 -2.657163
v -0.303596 -0.021066 -0.423559
vn -6.228925 -0.064848 -0.017372
v -0.305100 -0.022904 -0.412315
vn -6.228909 -0.033377 -0.002188
v -0.305100 -0.024307 -0.401657
vn -6.034682 1.576204 -0.103275
v -0.304997 -0.023529 0.179436
vn -5.454460 2.948006 -0.790066
v -0.304697 -0.021439 0.189752
vn -4.473021 3.781799 -2.183254
v -0.304219 -0.016933 0.199003
vn -3.171639 3.806515 -3.806506
v -0.303596 -0.010389 0.206746
vn -1.645436 3.012247 -5.217580
v -0.302870 -0.002254 0.212610
vn -0.000578 1.753921 -5.997681
v -0.302092 0.007062 0.216357
vn 1.635603 0.531184 -6.009300
v -0.301313 0.230109 0.256210
vn 1.558489 0.000000 -2.696974
v -0.300588 0.276473 0.256511
vn -0.000258 0.000000 -3.114970
v -0.302092 0.276473 0.256108
vn -1.634629 0.531222 -6.009729
v -0.302870 0.230109 0.256210
vn -0.805789 0.000000 -3.008496
v -0.302870 0.276473 0.256210
vn -0.000525 0.550511 -6.226820
v -0.302092 0.230118 0.256108
vn -3.155144 0.475347 -5.375279
v -0.303596 0.230082 0.256511
vn -1.557781 0.000000 -2.697268
v -0.303596 0.276473 0.256511
vn -4.450443 0.386373 -4.370690
v -0.304219 0.230040 0.256989
vn -2.202424 0.000000 -2.202424
v -0.304219 0.276473 0.256989
vn -2.697682 0.000000 -1.556781
v -0.304697 0.276473 0.257612
vn -5.434866 0.271121 -3.066695
v -0.304697 0.229985 0.257612
vn -3.008651 0.000000 -0.806757
v -0.304997 0.276473 0.258337
vn -6.039994 0.138073 -1.561924
v -0.304997 0.229921 0.258337
vn -3.114452 0.000000 -0.000260
v -0.305100 0.276473 0.259115
vn -6.228914 -0.003967 0.044997
v -0.305100 0.229852 0.259115
vn -3.008685 0.000000 0.806497
v -0.304997 0.276473 0.259894
vn -5.994664 -0.144964 1.639596
v -0.304997 0.229783 0.259894
vn -2.697682 0.000000 1.556781
v -0.304697 0.276473 0.260619
vn -5.355832 -0.275144 3.112184
v -0.304697 0.229719 0.260619
vn -2.202424 0.000000 2.202424
v -0.304219 0.276473 0.261242
vn -4.359116 -0.386452 4.370796
v -0.304219 0.229664 0.261242
vn -3.076102 -0.471093 5.330108
v -0.303596 0.229622 0.261720
vn -1.557781 0.000000 2.697268
v -0.303596 0.276473 0.261720
vn -1.588744 -0.524410 5.930836
v -0.302870 0.229595 0.262021
vn -0.805789 0.000000 3.008496
v -0.302870 0.276473 0.262021
vn -0.000510 -0.542499 6.136432
v -0.302092 0.229586 0.262123
vn -0.000258 0.000000 3.114970
v -0.302092 0.276473 0.262123
vn 1.589581 -0.524357 5.930230
v -0.301313 0.229595 0.262021
vn 0.806240 0.000000 3.008236
v -0.301313 0.276473 0.262021
vn 3.077575 -0.471048 5.329588
v -0.300588 0.229622 0.261720
vn 1.558489 0.000000 2.696974
v -0.300588 0.276473 0.261720
vn 4.359118 -0.386448 4.370795
v -0.299965 0.229664 0.261242
vn 2.202424 0.000000 2.202424
v -0.299965 0.276473 0.261242
vn 5.355832 -0.275144 3.112184
v -0.299487 0.229719 0.260619
vn 2.697682 0.000000 1.556781
v -0.299487 0.276473 0.260619
vn 3.008685 0.000000 0.806497
v -0.299187 0.276473 0.259894
vn 0.806240 0.000000 -3.008236
v -0.301313 0.276473 0.256210
vn 4.349669 -1.229274 4.202965
v -0.299965 0.005612 0.221314
vn 3.056652 -2.656864 4.602698
v -0.300588 -0.005032 0.217423
vn 1.576738 -4.177351 4.177351
v -0.301313 -0.014319 0.210676
vn -0.000509 -5.289417 3.053820
v -0.302092 -0.021418 0.201593
vn -1.579694 -5.705673 1.528895
v -0.302870 -0.025735 0.190903
vn -3.086032 -5.354712 0.351059
v -0.303596 -0.026912 0.179658
vn -4.336958 -4.219370 -1.130627
v -0.304219 -0.024976 -0.412870
vn -4.370908 -4.386040 -0.287580
v -0.304219 -0.026434 -0.401797
vn -3.053694 -3.758812 -3.758669
v -0.303596 -0.014105 -0.432632
vn -4.337632 -3.087824 -3.087625
v -0.304219 -0.013764 -0.432291
vn -5.337471 -2.205656 -2.206013
v -0.304697 -0.013319 -0.431847
vn -5.984103 -1.171554 -1.171462
v -0.304997 -0.012802 -0.431329
vn -6.228860 -0.047746 -0.047760
v -0.305100 -0.012247 -0.430774
vn -6.051561 1.088869 1.088885
v -0.304997 -0.011692 -0.430219
vn -6.228888 -0.058697 -0.033898
v -0.305100 -0.018791 -0.422246
vn -4.337792 -3.782107 -2.183564
v -0.304219 -0.020648 -0.423318
vn -5.984121 -1.599978 -0.428804
v -0.304997 -0.023663 -0.412518
vn -6.000533 -1.635155 -0.107095
v -0.304997 -0.025086 -0.401708
vn -6.228910 -0.033379 0.002186
v -0.305100 -0.024307 0.179487
vn -6.051187 1.488467 -0.398746
v -0.304997 -0.022146 0.189941
vn -5.454168 2.643419 -1.526128
v -0.304697 -0.017477 0.199317
vn -4.472149 3.088373 -3.088377
v -0.304219 -0.010730 0.207087
vn -3.171594 2.691446 -4.661995
v -0.303596 -0.002405 0.212872
vn -1.639806 1.692661 -5.788204
v -0.302870 0.007033 0.216456
vn -3.163633 1.513253 -5.173989
v -0.303596 0.006948 0.216746
vn -4.461336 1.229090 -4.202786
v -0.304219 0.006813 0.217208
vn -5.443346 0.861175 -2.944608
v -0.304697 0.006637 0.217809
vn -6.045255 0.436581 -1.492803
v -0.304997 0.006432 0.218509
vn -6.228943 -0.015769 0.053780
v -0.305100 0.006212 0.219261
vn -5.989609 -0.463599 1.585235
v -0.304997 0.005993 0.220013
vn -5.346303 -0.876937 2.998369
v -0.304697 0.005788 0.220713
vn -4.349662 -1.229282 4.202967
v -0.304219 0.005612 0.221314
vn -3.066156 -1.497501 5.120434
v -0.303596 0.005477 0.221776
vn -1.583848 -1.665744 5.695462
v -0.302870 0.005392 0.222066
vn -0.000470 -1.722716 5.890288
v -0.302092 0.005363 0.222165
vn 1.584606 -1.665607 5.694859
v -0.301313 0.005392 0.222066
vn 3.067655 -1.497321 5.119959
v -0.300588 0.005477 0.221776
vn 1.580199 -2.953619 5.115772
v -0.301313 -0.005184 0.217685
vn -0.000564 -4.319526 4.319650
v -0.302092 -0.014392 0.210749
vn -1.579427 -5.116295 2.954031
v -0.302870 -0.021328 0.201541
vn -3.056544 -5.133807 1.375249
v -0.303596 -0.025442 0.190824
vn -4.370908 -4.386040 0.287580
v -0.304219 -0.026434 0.179627
vn -5.366034 -3.117134 -0.204297
v -0.304697 -0.025811 -0.401756
vn -5.335647 -3.015350 -0.807752
v -0.304697 -0.024370 -0.412707
vn -5.336393 -2.703105 -1.560685
v -0.304697 -0.020104 -0.423004
vn -5.983678 -1.435660 -0.828755
v -0.304997 -0.019471 -0.422638
vn -6.000533 -1.635155 0.107095
v -0.304997 -0.025086 0.179538
vn -6.228931 -0.064589 0.017294
v -0.305100 -0.022904 0.190144
vn -6.051348 1.333960 -0.770116
v -0.304997 -0.018111 0.199683
vn -5.454210 2.158094 -2.158118
v -0.304697 -0.011174 0.207531
vn -4.473035 2.183291 -3.781761
v -0.304219 -0.002646 0.213290
vn -5.454133 1.526138 -2.643486
v -0.304697 -0.002960 0.213834
vn -6.051364 0.770059 -1.333935
v -0.304997 -0.003326 0.214468
vn -6.228821 -0.034141 0.059090
v -0.305100 -0.003719 0.215148
vn -5.984209 -0.828400 1.434865
v -0.304997 -0.004111 0.215827
vn -5.336736 -1.560134 2.702221
v -0.304697 -0.004477 0.216461
vn -4.337817 -2.183538 3.782033
v -0.304219 -0.004791 0.217005
vn -3.055117 -2.657130 4.603104
v -0.303596 -0.005032 0.217423
vn -1.579428 -2.954074 5.116222
v -0.302870 -0.005184 0.217685
vn -0.000527 -3.053830 5.289374
v -0.302092 -0.005236 0.217775
vn -1.575906 -4.177700 4.177885
v -0.302870 -0.014319 0.210676
vn -3.055180 -4.603101 2.657119
v -0.303596 -0.021066 0.201389
vn -4.336254 -4.219746 1.131039
v -0.304219 -0.024976 0.190700
vn -5.366034 -3.117134 0.204297
v -0.304697 -0.025811 0.179586
vn -5.984136 -1.599853 0.428808
v -0.304997 -0.023663 0.190348
vn -6.228887 -0.058705 0.033893
v -0.305100 -0.018791 0.200076
vn -6.051561 1.088869 -1.088885
v -0.304997 -0.011692 0.208049
vn -6.228858 -0.047741 0.047779
v -0.305100 -0.012247 0.208604
vn -5.983644 -1.172217 1.172230
v -0.304997 -0.012802 0.209159
vn -5.338283 -2.205458 2.205609
v -0.304697 -0.013319 0.209676
vn -4.338524 -3.086723 3.086879
v -0.304219 -0.013764 0.210121
vn -3.053614 -3.758700 3.758791
v -0.303596 -0.014105 0.210462
vn -4.337768 -3.782140 2.183532
v -0.304219 -0.020648 0.201148
vn -5.335647 -3.015350 0.807752
v -0.304697 -0.024370 0.190537
vn -5.983669 -1.435657 0.828788
v -0.304997 -0.019471 0.200468
vn -5.336400 -2.703073 1.560701
v -0.304697 -0.020104 0.200834
# 432 vertices, 0 vertices normals


usemtl material_0
f 1//1 2//2 3//3
f 2//2 1//1 4//4
f 5//5 4//4 1//1
f 4//4 5//5 6//6
f 4//4 7//7 2//2
f 7//7 4//4 8//8
f 3//3 9//9 10//10
f 9//9 3//3 2//2
f 11//11 3//3 12//12
f 3//3 11//11 1//1
f 13//13 6//6 5//5
f 6//6 13//13 14//14
f 6//6 8//8 4//4
f 8//8 6//6 15//15
f 16//16 1//1 11//11
f 1//1 16//16 5//5
f 17//17 7//7 8//8
f 7//7 17//17 18//18
f 2//2 19//19 9//9
f 19//19 2//2 7//7
f 9//9 20//20 10//10
f 20//20 9//9 21//21
f 12//12 10//10 22//22
f 10//10 12//12 3//3
f 23//23 12//12 24//24
f 12//12 23//23 11//11
f 25//25 14//14 13//13
f 14//14 25//25 26//26
f 14//14 15//15 6//6
f 15//15 14//14 27//27
f 28//28 5//5 16//16
f 5//5 28//28 13//13
f 29//29 8//8 15//15
f 8//8 29//29 17//17
f 30//30 11//11 23//23
f 11//11 30//30 16//16
f 31//31 18//18 17//17
f 18//18 31//31 32//32
f 18//18 19//19 7//7
f 19//19 18//18 33//33
f 19//19 21//21 9//9
f 21//21 19//19 34//34
f 21//21 35//35 20//20
f 35//35 21//21 36//36
f 10//10 37//37 22//22
f 37//37 10//10 20//20
f 24//24 22//22 38//38
f 22//22 24//24 12//12
f 39//39 24//24 40//40
f 24//24 39//39 23//23
f 41//41 26//26 25//25
f 26//26 41//41 42//42
f 26//26 27//27 14//14
f 27//27 26//26 43//43
f 44//44 13//13 28//28
f 13//13 44//44 25//25
f 45//45 15//15 27//27
f 15//15 45//45 29//29
f 46//46 16//16 30//30
f 16//16 46//46 28//28
f 47//47 17//17 29//29
f 17//17 47//47 31//31
f 48//48 23//23 39//39
f 23//23 48//48 30//30
f 49//49 32//32 31//31
f 32//32 49//49 50//50
f 32//32 33//33 18//18
f 33//33 32//32 51//51
f 52//52 19//19 33//33
f 19//19 52//52 34//34
f 34//34 36//36 21//21
f 36//36 34//34 53//53
f 36//36 54//54 35//35
f 54//54 36//36 55//55
f 20//20 56//56 37//37
f 56//56 20//20 35//35
f 22//22 57//57 38//38
f 57//57 22//22 37//37
f 40//40 38//38 58//58
f 38//38 40//40 24//24
f 59//59 40//40 60//60
f 40//40 59//59 39//39
f 61//61 42//42 41//41
f 42//42 61//61 62//62
f 42//42 43//43 26//26
f 43//43 42//42 63//63
f 64//64 25//25 44//44
f 25//25 64//64 41//41
f 27//27 65//65 45//45
f 65//65 27//27 43//43
f 66//66 28//28 46//46
f 28//28 66//66 44//44
f 67//67 29//29 45//45
f 29//29 67//67 47//47
f 68//68 30//30 48//48
f 30//30 68//68 46//46
f 69//69 31//31 47//47
f 31//31 69//69 49//49
f 70//70 39//39 59//59
f 39//39 70//70 48//48
f 71//71 49//49 72//72
f 49//49 71//71 50//50
f 50//50 51//51 32//32
f 51//51 50//50 73//73
f 74//74 33//33 51//51
f 33//33 74//74 52//52
f 75//75 34//34 52//52
f 34//34 75//75 53//53
f 53//53 55//55 36//36
f 55//55 53//53 76//76
f 55//55 77//77 54//54
f 77//77 55//55 78//78
f 35//35 79//79 56//56
f 79//79 35//35 54//54
f 37//37 80//80 57//57
f 80//80 37//37 56//56
f 38//38 81//81 58//58
f 81//81 38//38 57//57
f 60//60 58//58 82//82
f 58//58 60//60 40//40
f 59//59 83//83 84//84
f 83//83 59//59 60//60
f 85//85 62//62 61//61
f 62//62 85//85 86//86
f 62//62 63//63 42//42
f 63//63 62//62 87//87
f 88//88 41//41 64//64
f 41//41 88//88 61//61
f 43//43 89//89 65//65
f 89//89 43//43 63//63
f 90//90 44//44 66//66
f 44//44 90//90 64//64
f 45//45 91//91 67//67
f 91//91 45//45 65//65
f 92//92 46//46 68//68
f 46//46 92//92 66//66
f 93//93 47//47 67//67
f 47//47 93//93 69//69
f 94//94 48//48 70//70
f 48//48 94//94 68//68
f 72//72 69//69 95//95
f 69//69 72//72 49//49
f 70//70 84//84 96//96
f 84//84 70//70 59//59
f 97//97 72//72 98//98
f 72//72 97//97 71//71
f 99//99 50//50 71//71
f 50//50 99//99 73//73
f 100//100 51//51 73//73
f 51//51 100//100 74//74
f 101//101 52//52 74//74
f 52//52 101//101 75//75
f 102//102 53//53 75//75
f 53//53 102//102 76//76
f 76//76 78//78 55//55
f 78//78 76//76 103//103
f 78//78 104//104 77//77
f 104//104 78//78 105//105
f 54//54 106//106 79//79
f 106//106 54//54 77//77
f 56//56 107//107 80//80
f 107//107 56//56 79//79
f 57//57 108//108 81//81
f 108//108 57//57 80//80
f 58//58 109//109 82//82
f 109//109 58//58 81//81
f 60//60 110//110 83//83
f 110//110 60//60 82//82
f 84//84 111//111 112//112
f 111//111 84//84 83//83
f 113//113 114//114 115//115
f 114//114 113//113 116//116
f 114//114 116//116 117//117
f 117//117 116//116 118//118
f 117//117 118//118 119//119
f 119//119 118//118 120//120
f 119//119 120//120 121//121
f 121//121 120//120 122//122
f 121//121 122//122 123//123
f 123//123 122//122 124//124
f 123//123 124//124 125//125
f 125//125 124//124 126//126
f 125//125 126//126 127//127
f 127//127 126//126 128//128
f 127//127 128//128 129//129
f 129//129 128//128 130//130
f 129//129 130//130 131//131
f 131//131 130//130 132//132
f 131//131 132//132 133//133
f 133//133 132//132 134//134
f 133//133 134//134 135//135
f 135//135 134//134 136//136
f 86//86 87//87 62//62
f 87//87 86//86 137//137
f 138//138 61//61 88//88
f 61//61 138//138 85//85
f 89//89 87//87 139//139
f 87//87 89//89 63//63
f 140//140 64//64 90//90
f 64//64 140//140 88//88
f 65//65 141//141 91//91
f 141//141 65//65 89//89
f 142//142 66//66 92//92
f 66//66 142//142 90//90
f 67//67 143//143 93//93
f 143//143 67//67 91//91
f 144//144 68//68 94//94
f 68//68 144//144 92//92
f 95//95 93//93 145//145
f 93//93 95//95 69//69
f 94//94 96//96 146//146
f 96//96 94//94 70//70
f 98//98 95//95 147//147
f 95//95 98//98 72//72
f 96//96 112//112 148//148
f 112//112 96//96 84//84
f 149//149 98//98 150//150
f 98//98 149//149 97//97
f 151//151 71//71 97//97
f 71//71 151//151 99//99
f 99//99 100//100 73//73
f 100//100 99//99 152//152
f 153//153 74//74 100//100
f 74//74 153//153 101//101
f 154//154 75//75 101//101
f 75//75 154//154 102//102
f 103//103 102//102 155//155
f 102//102 103//103 76//76
f 103//103 105//105 78//78
f 105//105 103//103 156//156
f 105//105 157//157 104//104
f 157//157 105//105 158//158
f 77//77 159//159 106//106
f 159//159 77//77 104//104
f 79//79 160//160 107//107
f 160//160 79//79 106//106
f 80//80 161//161 108//108
f 161//161 80//80 107//107
f 81//81 162//162 109//109
f 162//162 81//81 108//108
f 109//109 110//110 82//82
f 110//110 109//109 163//163
f 83//83 164//164 111//111
f 164//164 83//83 110//110
f 112//112 165//165 166//166
f 165//165 112//112 111//111
f 167//167 168//168 169//169
f 168//168 167//167 170//170
f 171//171 170//170 167//167
f 170//170 171//171 172//172
f 139//139 172//172 171//171
f 172//172 139//139 173//173
f 87//87 173//173 139//139
f 173//173 87//87 137//137
f 174//174 88//88 140//140
f 88//88 174//174 138//138
f 175//175 140//140 176//176
f 140//140 175//175 174//174
f 177//177 176//176 178//178
f 176//176 177//177 175//175
f 177//177 179//179 180//180
f 179//179 177//177 178//178
f 180//180 181//181 182//182
f 181//181 180//180 179//179
f 182//182 183//183 184//184
f 183//183 182//182 181//181
f 184//184 185//185 186//186
f 185//185 184//184 183//183
f 186//186 187//187 188//188
f 187//187 186//186 185//185
f 188//188 189//189 190//190
f 189//189 188//188 187//187
f 191//191 190//190 189//189
f 190//190 191//191 192//192
f 193//193 192//192 191//191
f 192//192 193//193 194//194
f 195//195 194//194 193//193
f 194//194 195//195 196//196
f 197//197 196//196 195//195
f 196//196 197//197 198//198
f 199//199 198//198 197//197
f 198//198 199//199 200//200
f 201//201 200//200 199//199
f 200//200 201//201 202//202
f 203//203 202//202 201//201
f 202//202 203//203 204//204
f 169//169 204//204 203//203
f 204//204 169//169 168//168
f 141//141 139//139 171//171
f 139//139 141//141 89//89
f 176//176 90//90 142//142
f 90//90 176//176 140//140
f 91//91 205//205 143//143
f 205//205 91//91 141//141
f 206//206 92//92 144//144
f 92//92 206//206 142//142
f 93//93 207//207 145//145
f 207//207 93//93 143//143
f 144//144 146//146 208//208
f 146//146 144//144 94//94
f 147//147 145//145 209//209
f 145//145 147//147 95//95
f 146//146 148//148 210//210
f 148//148 146//146 96//96
f 150//150 147//147 211//211
f 147//147 150//150 98//98
f 148//148 166//166 212//212
f 166//166 148//148 112//112
f 149//149 213//213 214//214
f 213//213 149//149 150//150
f 215//215 97//97 149//149
f 97//97 215//215 151//151
f 151//151 152//152 99//99
f 152//152 151//151 216//216
f 152//152 153//153 100//100
f 153//153 152//152 217//217
f 218//218 101//101 153//153
f 101//101 218//218 154//154
f 155//155 154//154 219//219
f 154//154 155//155 102//102
f 156//156 155//155 220//220
f 155//155 156//156 103//103
f 156//156 158//158 105//105
f 158//158 156//156 221//221
f 158//158 222//222 157//157
f 222//222 158//158 223//223
f 104//104 224//224 159//159
f 224//224 104//104 157//157
f 106//106 225//225 160//160
f 225//225 106//106 159//159
f 107//107 226//226 161//161
f 226//226 107//107 160//160
f 108//108 227//227 162//162
f 227//227 108//108 161//161
f 162//162 163//163 109//109
f 163//163 162//162 228//228
f 163//163 164//164 110//110
f 164//164 163//163 229//229
f 111//111 230//230 165//165
f 230//230 111//111 164//164
f 165//165 231//231 166//166
f 231//231 165//165 232//232
f 233//233 167//167 169//169
f 167//167 233//233 205//205
f 205//205 171//171 167//167
f 171//171 205//205 141//141
f 178//178 142//142 206//206
f 142//142 178//178 176//176
f 178//178 234//234 179//179
f 234//234 178//178 206//206
f 179//179 235//235 181//181
f 235//235 179//179 234//234
f 181//181 236//236 183//183
f 236//236 181//181 235//235
f 183//183 237//237 185//185
f 237//237 183//183 236//236
f 185//185 238//238 187//187
f 238//238 185//185 237//237
f 187//187 239//239 189//189
f 239//239 187//187 238//238
f 240//240 189//189 239//239
f 189//189 240//240 191//191
f 241//241 191//191 240//240
f 191//191 241//241 193//193
f 242//242 193//193 241//241
f 193//193 242//242 195//195
f 243//243 195//195 242//242
f 195//195 243//243 197//197
f 244//244 197//197 243//243
f 197//197 244//244 199//199
f 245//245 199//199 244//244
f 199//199 245//245 201//201
f 245//245 203//203 201//201
f 203//203 245//245 246//246
f 246//246 169//169 203//203
f 169//169 246//246 233//233
f 143//143 233//233 207//207
f 233//233 143//143 205//205
f 206//206 208//208 234//234
f 208//208 206//206 144//144
f 145//145 247//247 209//209
f 247//247 145//145 207//207
f 208//208 210//210 248//248
f 210//210 208//208 146//146
f 211//211 209//209 249//249
f 209//209 211//211 147//147
f 210//210 212//212 250//250
f 212//212 210//210 148//148
f 150//150 251//251 213//213
f 251//251 150//150 211//211
f 166//166 252//252 212//212
f 252//252 166//166 231//231
f 214//214 253//253 254//254
f 253//253 214//214 213//213
f 215//215 214//214 255//255
f 214//214 215//215 149//149
f 215//215 216//216 151//151
f 216//216 215//215 256//256
f 216//216 217//217 152//152
f 217//217 216//216 257//257
f 217//217 218//218 153//153
f 218//218 217//217 258//258
f 219//219 218//218 259//259
f 218//218 219//219 154//154
f 220//220 219//219 260//260
f 219//219 220//220 155//155
f 221//221 220//220 261//261
f 220//220 221//221 156//156
f 221//221 223//223 158//158
f 223//223 221//221 262//262
f 263//263 264//264 265//265
f 264//264 263//263 266//266
f 264//264 266//266 267//267
f 267//267 266//266 268//268
f 267//267 268//268 269//269
f 269//269 268//268 270//270
f 269//269 270//270 271//271
f 271//271 270//270 272//272
f 271//271 272//272 273//273
f 273//273 272//272 274//274
f 273//273 274//274 275//275
f 275//275 274//274 276//276
f 275//275 276//276 277//277
f 277//277 276//276 278//278
f 277//277 278//278 279//279
f 279//279 278//278 280//280
f 279//279 280//280 281//281
f 281//281 280//280 282//282
f 281//281 282//282 283//283
f 283//283 282//282 284//284
f 283//283 284//284 285//285
f 285//285 284//284 286//286
f 157//157 287//287 224//224
f 287//287 157//157 222//222
f 159//159 288//288 225//225
f 288//288 159//159 224//224
f 160//160 289//289 226//226
f 289//289 160//160 225//225
f 161//161 290//290 227//227
f 290//290 161//161 226//226
f 227//227 228//228 162//162
f 228//228 227//227 291//291
f 228//228 229//229 163//163
f 229//229 228//228 292//292
f 229//229 230//230 164//164
f 230//230 229//229 293//293
f 230//230 232//232 165//165
f 232//232 230//230 294//294
f 232//232 295//295 231//231
f 295//295 232//232 296//296
f 234//234 248//248 235//235
f 248//248 234//234 208//208
f 235//235 297//297 236//236
f 297//297 235//235 248//248
f 236//236 298//298 237//237
f 298//298 236//236 297//297
f 237//237 299//299 238//238
f 299//299 237//237 298//298
f 238//238 300//300 239//239
f 300//300 238//238 299//299
f 301//301 239//239 300//300
f 239//239 301//301 240//240
f 302//302 240//240 301//301
f 240//240 302//302 241//241
f 303//303 241//241 302//302
f 241//241 303//303 242//242
f 304//304 242//242 303//303
f 242//242 304//304 243//243
f 305//305 243//243 304//304
f 243//243 305//305 244//244
f 306//306 244//244 305//305
f 244//244 306//306 245//245
f 247//247 245//245 306//306
f 245//245 247//247 246//246
f 207//207 246//246 247//247
f 246//246 207//207 233//233
f 209//209 306//306 249//249
f 306//306 209//209 247//247
f 248//248 250//250 297//297
f 250//250 248//248 210//210
f 211//211 307//307 251//251
f 307//307 211//211 249//249
f 212//212 308//308 250//250
f 308//308 212//212 252//252
f 213//213 309//309 253//253
f 309//309 213//213 251//251
f 231//231 310//310 252//252
f 310//310 231//231 295//295
f 254//254 311//311 312//312
f 311//311 254//254 253//253
f 255//255 254//254 313//313
f 254//254 255//255 214//214
f 314//314 215//215 255//255
f 215//215 314//314 256//256
f 256//256 257//257 216//216
f 257//257 256//256 315//315
f 257//257 258//258 217//217
f 258//258 257//257 316//316
f 259//259 258//258 317//317
f 258//258 259//259 218//218
f 260//260 259//259 318//318
f 259//259 260//260 219//219
f 261//261 260//260 319//319
f 260//260 261//261 220//220
f 262//262 261//261 320//320
f 261//261 262//262 221//221
f 321//321 322//322 323//323
f 322//322 321//321 324//324
f 323//323 325//325 326//326
f 325//325 323//323 322//322
f 326//326 327//327 328//328
f 327//327 326//326 325//325
f 329//329 327//327 330//330
f 327//327 329//329 328//328
f 331//331 330//330 332//332
f 330//330 331//331 329//329
f 333//333 332//332 334//334
f 332//332 333//333 331//331
f 335//335 334//334 336//336
f 334//334 335//335 333//333
f 337//337 336//336 338//338
f 336//336 337//337 335//335
f 339//339 338//338 340//340
f 338//338 339//339 337//337
f 341//341 339//339 340//340
f 339//339 341//341 342//342
f 343//343 342//342 341//341
f 342//342 343//343 344//344
f 345//345 344//344 343//343
f 344//344 345//345 346//346
f 347//347 346//346 345//345
f 346//346 347//347 348//348
f 349//349 348//348 347//347
f 348//348 349//349 350//350
f 351//351 350//350 349//349
f 350//350 351//351 352//352
f 353//353 352//352 351//351
f 352//352 353//353 354//354
f 288//288 354//354 353//353
f 354//354 288//288 355//355
f 224//224 355//355 288//288
f 355//355 224//224 287//287
f 320//320 319//319 356//356
f 319//319 320//320 261//261
f 356//356 324//324 321//321
f 324//324 356//356 319//319
f 225//225 353//353 289//289
f 353//353 225//225 288//288
f 226//226 357//357 290//290
f 357//357 226//226 289//289
f 227//227 358//358 291//291
f 358//358 227//227 290//290
f 291//291 292//292 228//228
f 292//292 291//291 359//359
f 292//292 293//293 229//229
f 293//293 292//292 360//360
f 230//230 361//361 294//294
f 361//361 230//230 293//293
f 294//294 296//296 232//232
f 296//296 294//294 362//362
f 296//296 363//363 295//295
f 363//363 296//296 364//364
f 297//297 308//308 298//298
f 308//308 297//297 250//250
f 298//298 365//365 299//299
f 365//365 298//298 308//308
f 299//299 366//366 300//300
f 366//366 299//299 365//365
f 367//367 300//300 366//366
f 300//300 367//367 301//301
f 368//368 301//301 367//367
f 301//301 368//368 302//302
f 369//369 302//302 368//368
f 302//302 369//369 303//303
f 370//370 303//303 369//369
f 303//303 370//370 304//304
f 307//307 304//304 370//370
f 304//304 307//307 305//305
f 249//249 305//305 307//307
f 305//305 249//249 306//306
f 251//251 370//370 309//309
f 370//370 251//251 307//307
f 252//252 365//365 308//308
f 365//365 252//252 310//310
f 253//253 371//371 311//311
f 371//371 253//253 309//309
f 295//295 372//372 310//310
f 372//372 295//295 363//363
f 312//312 373//373 374//374
f 373//373 312//312 311//311
f 313//313 312//312 375//375
f 312//312 313//313 254//254
f 376//376 255//255 313//313
f 255//255 376//376 314//314
f 377//377 256//256 314//314
f 256//256 377//377 315//315
f 315//315 316//316 257//257
f 316//316 315//315 378//378
f 317//317 316//316 379//379
f 316//316 317//317 258//258
f 318//318 317//317 380//380
f 317//317 318//318 259//259
f 319//319 318//318 324//324
f 318//318 319//319 260//260
f 324//324 380//380 322//322
f 380//380 324//324 318//318
f 322//322 381//381 325//325
f 381//381 322//322 380//380
f 325//325 382//382 327//327
f 382//382 325//325 381//381
f 330//330 382//382 383//383
f 382//382 330//330 327//327
f 332//332 383//383 384//384
f 383//383 332//332 330//330
f 334//334 384//384 385//385
f 384//384 334//334 332//332
f 336//336 385//385 386//386
f 385//385 336//336 334//334
f 338//338 386//386 387//387
f 386//386 338//338 336//336
f 340//340 387//387 388//388
f 387//387 340//340 338//338
f 388//388 341//341 340//340
f 341//341 388//388 389//389
f 389//389 343//343 341//341
f 343//343 389//389 390//390
f 390//390 345//345 343//343
f 345//345 390//390 391//391
f 391//391 347//347 345//345
f 347//347 391//391 392//392
f 392//392 349//349 347//347
f 349//349 392//392 393//393
f 393//393 351//351 349//349
f 351//351 393//393 357//357
f 289//289 351//351 357//357
f 351//351 289//289 353//353
f 290//290 393//393 358//358
f 393//393 290//290 357//357
f 291//291 394//394 359//359
f 394//394 291//291 358//358
f 359//359 360//360 292//292
f 360//360 359//359 395//395
f 293//293 396//396 361//361
f 396//396 293//293 360//360
f 294//294 397//397 362//362
f 397//397 294//294 361//361
f 362//362 364//364 296//296
f 364//364 362//362 398//398
f 399//399 363//363 364//364
f 363//363 399//399 400//400
f 310//310 366//366 365//365
f 366//366 310//310 372//372
f 401//401 366//366 372//372
f 366//366 401//401 367//367
f 402//402 367//367 401//401
f 367//367 402//402 368//368
f 371//371 368//368 402//402
f 368//368 371//371 369//369
f 309//309 369//369 371//371
f 369//369 309//309 370//370
f 311//311 402//402 373//373
f 402//402 311//311 371//371
f 400//400 372//372 363//363
f 372//372 400//400 401//401
f 374//374 400//400 399//399
f 400//400 374//374 373//373
f 375//375 374//374 403//403
f 374//374 375//375 312//312
f 404//404 313//313 375//375
f 313//313 404//404 376//376
f 405//405 314//314 376//376
f 314//314 405//405 377//377
f 406//406 315//315 377//377
f 315//315 406//406 378//378
f 379//379 378//378 407//407
f 378//378 379//379 316//316
f 380//380 379//379 381//381
f 379//379 380//380 317//317
f 381//381 407//407 382//382
f 407//407 381//381 379//379
f 383//383 407//407 408//408
f 407//407 383//383 382//382
f 384//384 408//408 409//409
f 408//408 384//384 383//383
f 385//385 409//409 410//410
f 409//409 385//385 384//384
f 386//386 410//410 411//411
f 410//410 386//386 385//385
f 387//387 411//411 412//412
f 411//411 387//387 386//386
f 388//388 412//412 413//413
f 412//412 388//388 387//387
f 414//414 388//388 413//413
f 388//388 414//414 389//389
f 415//415 389//389 414//414
f 389//389 415//415 390//390
f 416//416 390//390 415//415
f 390//390 416//416 391//391
f 394//394 391//391 416//416
f 391//391 394//394 392//392
f 358//358 392//392 394//394
f 392//392 358//358 393//393
f 359//359 416//416 395//395
f 416//416 359//359 394//394
f 360//360 417//417 396//396
f 417//417 360//360 395//395
f 361//361 418//418 397//397
f 418//418 361//361 396//396
f 362//362 419//419 398//398
f 419//419 362//362 397//397
f 420//420 364//364 398//398
f 364//364 420//420 399//399
f 373//373 401//401 400//400
f 401//401 373//373 402//402
f 403//403 399//399 420//420
f 399//399 403//403 374//374
f 421//421 375//375 403//403
f 375//375 421//421 404//404
f 422//422 376//376 404//404
f 376//376 422//422 405//405
f 423//423 377//377 405//405
f 377//377 423//423 406//406
f 408//408 378//378 406//406
f 378//378 408//408 407//407
f 409//409 406//406 423//423
f 406//406 409//409 408//408
f 410//410 423//423 424//424
f 423//423 410//410 409//409
f 411//411 424//424 425//425
f 424//424 411//411 410//410
f 412//412 425//425 426//426
f 425//425 412//412 411//411
f 413//413 426//426 427//427
f 426//426 413//413 412//412
f 428//428 413//413 427//427
f 413//413 428//428 414//414
f 417//417 414//414 428//428
f 414//414 417//417 415//415
f 395//395 415//415 417//417
f 415//415 395//395 416//416
f 396//396 428//428 418//418
f 428//428 396//396 417//417
f 397//397 429//429 419//419
f 429//429 397//397 418//418
f 419//419 420//420 398//398
f 420//420 419//419 430//430
f 430//430 403//403 420//420
f 403//403 430//430 421//421
f 431//431 404//404 421//421
f 404//404 431//431 422//422
f 424//424 405//405 422//422
f 405//405 424//424 423//423
f 425//425 422//422 431//431
f 422//422 425//425 424//424
f 426//426 431//431 432//432
f 431//431 426//426 425//425
f 427//427 432//432 429//429
f 432//432 427//427 426//426
f 418//418 427//427 429//429
f 427//427 418//418 428//428
f 429//429 430//430 419//419
f 430//430 429//429 432//432
f 432//432 421//421 430//430
f 421//421 432//432 431//431
# 764 faces, 0 coords texture

# End of File
