####
#
# OBJ File Generated by Meshlab
#
####
# Object original-198.obj
#
# Vertices: 96
# Faces: 96
#
####
mtllib ./original-198.obj.mtl

vn -3.114452 -0.000157 -0.000208
v -0.372697 -0.608859 0.272427
vn -3.008943 -0.485093 -0.643740
v -0.372594 -0.606351 0.269563
vn -3.008943 -0.485093 -0.643740
v -0.372594 -0.609328 0.271806
vn -3.114452 -0.000157 -0.000208
v -0.372697 -0.605883 0.270184
vn 3.114452 0.000157 0.000208
v -0.372697 -0.605883 0.270184
vn 3.114452 0.000157 0.000208
v -0.372697 -0.608859 0.272427
vn 3.008943 0.485093 0.643740
v -0.372594 -0.606351 0.269563
vn 3.008943 0.485093 0.643740
v -0.372594 -0.609328 0.271806
vn -3.008685 0.485362 0.644097
v -0.372594 -0.608390 0.273049
vn -3.008685 0.485362 0.644097
v -0.372594 -0.605414 0.270806
vn 3.008685 -0.485362 -0.644097
v -0.372594 -0.605414 0.270806
vn 3.008685 -0.485362 -0.644097
v -0.372594 -0.608390 0.273049
vn -2.697974 -0.936469 -1.242736
v -0.372294 -0.606788 0.268983
vn -2.697974 -0.936469 -1.242736
v -0.372294 -0.609764 0.271226
vn 2.697974 0.936469 1.242736
v -0.372294 -0.606788 0.268983
vn 2.697974 0.936469 1.242736
v -0.372294 -0.609764 0.271226
vn -2.697682 0.936894 1.243300
v -0.372294 -0.607954 0.273628
vn -2.697682 0.936894 1.243300
v -0.372294 -0.604978 0.271385
vn 2.697682 -0.936894 -1.243300
v -0.372294 -0.604978 0.271385
vn 2.697682 -0.936894 -1.243300
v -0.372294 -0.607954 0.273628
vn -2.202424 -1.325452 -1.758934
v -0.371816 -0.607163 0.268485
vn -2.202424 -1.325452 -1.758934
v -0.371816 -0.610139 0.270728
vn 2.202424 1.325452 1.758934
v -0.371816 -0.607163 0.268485
vn 2.202424 1.325452 1.758934
v -0.371816 -0.610139 0.270728
vn -2.202424 1.325452 1.758934
v -0.371816 -0.607579 0.274126
vn -2.202424 1.325452 1.758934
v -0.371816 -0.604603 0.271883
vn 2.202424 -1.325452 -1.758934
v -0.371816 -0.604603 0.271883
vn 2.202424 -1.325452 -1.758934
v -0.371816 -0.607579 0.274126
vn -1.556781 -1.623506 -2.154465
v -0.371193 -0.607451 0.268104
vn -1.556781 -1.623506 -2.154465
v -0.371193 -0.610427 0.270347
vn 1.556781 1.623506 2.154465
v -0.371193 -0.610427 0.270347
vn 1.556781 1.623506 2.154465
v -0.371193 -0.607451 0.268104
vn -1.558489 1.623079 2.153899
v -0.371193 -0.607292 0.274507
vn -1.558489 1.623079 2.153899
v -0.371193 -0.604315 0.272264
vn 1.558489 -1.623079 -2.153899
v -0.371193 -0.604315 0.272264
vn 1.558489 -1.623079 -2.153899
v -0.371193 -0.607292 0.274507
vn -0.806497 -1.810672 -2.402843
v -0.370468 -0.607631 0.267864
vn -0.806497 -1.810672 -2.402843
v -0.370468 -0.610608 0.270107
vn 0.806497 1.810672 2.402843
v -0.370468 -0.610608 0.270107
vn 0.806497 1.810672 2.402843
v -0.370468 -0.607631 0.267864
vn -0.806240 1.810402 2.402484
v -0.370468 -0.607110 0.274748
vn -0.806240 1.810402 2.402484
v -0.370468 -0.604134 0.272505
vn 0.806240 -1.810402 -2.402484
v -0.370468 -0.604134 0.272505
vn 0.806240 -1.810402 -2.402484
v -0.370468 -0.607110 0.274748
vn 0.000260 -1.874324 -2.487312
v -0.369689 -0.607693 0.267782
vn 0.000260 -1.874324 -2.487312
v -0.369689 -0.610670 0.270025
vn -0.000260 1.874324 2.487312
v -0.369689 -0.610670 0.270025
vn -0.000260 1.874324 2.487312
v -0.369689 -0.607693 0.267782
vn 0.000258 1.874636 2.487725
v -0.369689 -0.607049 0.274829
vn 0.000258 1.874636 2.487725
v -0.369689 -0.604073 0.272586
vn -0.000258 -1.874636 -2.487725
v -0.369689 -0.604073 0.272586
vn -0.000258 -1.874636 -2.487725
v -0.369689 -0.607049 0.274829
vn 0.806050 -1.810827 -2.403049
v -0.368911 -0.607631 0.267864
vn 0.806050 -1.810827 -2.403049
v -0.368911 -0.610608 0.270107
vn -0.806050 1.810827 2.403049
v -0.368911 -0.610608 0.270107
vn -0.806050 1.810827 2.403049
v -0.368911 -0.607631 0.267864
vn 0.805789 1.810558 2.402692
v -0.368911 -0.607110 0.274748
vn 0.805789 1.810558 2.402692
v -0.368911 -0.604134 0.272505
vn -0.805789 -1.810558 -2.402692
v -0.368911 -0.604134 0.272505
vn -0.805789 -1.810558 -2.402692
v -0.368911 -0.607110 0.274748
vn 1.556074 -1.623681 -2.154698
v -0.368185 -0.607451 0.268104
vn 1.556074 -1.623681 -2.154698
v -0.368185 -0.610427 0.270347
vn -1.556074 1.623681 2.154698
v -0.368185 -0.610427 0.270347
vn -1.556074 1.623681 2.154698
v -0.368185 -0.607451 0.268104
vn 1.557781 1.623256 2.154134
v -0.368185 -0.607292 0.274507
vn 1.557781 1.623256 2.154134
v -0.368185 -0.604315 0.272264
vn -1.557781 -1.623256 -2.154134
v -0.368185 -0.604315 0.272264
vn -1.557781 -1.623256 -2.154134
v -0.368185 -0.607292 0.274507
vn 2.202424 -1.325452 -1.758934
v -0.367562 -0.607163 0.268485
vn 2.202424 -1.325452 -1.758934
v -0.367562 -0.610139 0.270728
vn -2.202424 1.325452 1.758934
v -0.367562 -0.610139 0.270728
vn -2.202424 1.325452 1.758934
v -0.367562 -0.607163 0.268485
vn 2.202424 1.325452 1.758934
v -0.367562 -0.607579 0.274126
vn 2.202424 1.325452 1.758934
v -0.367562 -0.604603 0.271883
vn -2.202424 -1.325452 -1.758934
v -0.367562 -0.604603 0.271883
vn -2.202424 -1.325452 -1.758934
v -0.367562 -0.607579 0.274126
vn 2.697974 -0.936469 -1.242736
v -0.367084 -0.609764 0.271226
vn 2.697974 -0.936469 -1.242736
v -0.367084 -0.606788 0.268983
vn -2.697974 0.936469 1.242736
v -0.367084 -0.606788 0.268983
vn -2.697974 0.936469 1.242736
v -0.367084 -0.609764 0.271226
vn 2.697682 0.936894 1.243300
v -0.367084 -0.604978 0.271385
vn 2.697682 0.936894 1.243300
v -0.367084 -0.607954 0.273628
vn -2.697682 -0.936894 -1.243300
v -0.367084 -0.604978 0.271385
vn -2.697682 -0.936894 -1.243300
v -0.367084 -0.607954 0.273628
vn 3.008943 -0.485093 -0.643740
v -0.366784 -0.609328 0.271806
vn 3.008943 -0.485093 -0.643740
v -0.366784 -0.606351 0.269563
vn -3.008943 0.485093 0.643740
v -0.366784 -0.606351 0.269563
vn -3.008943 0.485093 0.643740
v -0.366784 -0.609328 0.271806
vn 3.008685 0.485362 0.644097
v -0.366784 -0.605414 0.270806
vn 3.008685 0.485362 0.644097
v -0.366784 -0.608390 0.273049
vn -3.008685 -0.485362 -0.644097
v -0.366784 -0.605414 0.270806
vn -3.008685 -0.485362 -0.644097
v -0.366784 -0.608390 0.273049
vn 3.114452 -0.000157 -0.000208
v -0.366681 -0.608859 0.272427
vn 3.114452 -0.000157 -0.000208
v -0.366681 -0.605883 0.270184
vn -3.114452 0.000157 0.000208
v -0.366681 -0.605883 0.270184
vn -3.114452 0.000157 0.000208
v -0.366681 -0.608859 0.272427
# 96 vertices, 0 vertices normals


usemtl material_0
vt 0.004954 0.000000
vt 0.004432 0.002479
vt 0.004432 0.000000
f 1/1/1 2/2/2 3/3/3
vt 0.004954 0.002479
f 2/2/2 1/1/1 4/4/4
f 5/4/5 6/1/6 7/2/7
f 8/3/8 7/2/7 6/1/6
vt 0.015397 0.000000
vt 0.014874 0.002479
vt 0.014874 0.000000
f 9/5/9 4/6/4 1/7/1
vt 0.015397 0.002479
f 4/6/4 9/5/9 10/8/10
f 11/8/11 12/5/12 5/6/5
f 6/7/6 5/6/5 12/5/12
vt -0.005807 -0.000000
vt -0.006330 0.002479
vt -0.006330 -0.000000
f 3/9/3 13/10/13 14/11/14
vt -0.005807 0.002479
f 13/10/13 3/9/3 2/12/2
f 7/12/7 8/9/8 15/10/15
f 16/11/16 15/10/15 8/9/8
vt 0.024807 0.000000
vt 0.024285 0.002479
vt 0.024285 0.000000
f 17/13/17 10/14/10 9/15/9
vt 0.024807 0.002479
f 10/14/10 17/13/17 18/16/18
f 19/16/19 20/13/20 11/14/11
f 12/15/12 11/14/11 20/13/20
vt -0.016156 -0.000000
vt -0.016678 0.002479
vt -0.016678 -0.000000
f 14/17/14 21/18/21 22/19/22
vt -0.016156 0.002479
f 21/18/21 14/17/14 13/20/13
f 15/20/15 16/17/16 23/18/23
f 24/19/24 23/18/23 16/17/16
vt 0.032545 0.000000
vt 0.032023 0.002479
vt 0.032023 0.000000
f 25/21/25 18/22/18 17/23/17
vt 0.032545 0.002479
f 18/22/18 25/21/25 26/24/26
f 27/24/27 28/21/28 19/22/19
f 20/23/20 19/22/19 28/21/28
vt -0.025908 0.002479
vt -0.025385 -0.000000
vt -0.025385 0.002479
f 29/25/29 22/26/22 21/27/21
vt -0.025908 -0.000000
f 22/26/22 29/25/29 30/28/30
f 31/28/31 32/25/32 24/26/24
f 23/27/23 24/26/24 32/25/32
vt 0.038083 0.000000
vt 0.037561 0.002479
vt 0.037561 0.000000
f 33/29/33 26/30/26 25/31/25
vt 0.038083 0.002479
f 26/30/26 33/29/33 34/32/34
f 35/32/35 36/29/36 27/30/27
f 28/31/28 27/30/27 36/29/36
vt -0.033389 0.002479
vt -0.032867 -0.000000
vt -0.032867 0.002479
f 37/33/37 30/34/30 29/35/29
vt -0.033389 -0.000000
f 30/34/30 37/33/37 38/36/38
f 39/36/39 40/33/40 31/34/31
f 32/35/32 31/34/31 40/33/40
vt 0.041043 0.000000
vt 0.040521 0.002479
vt 0.040521 0.000000
f 41/37/41 34/38/34 33/39/33
vt 0.041043 0.002479
f 34/38/34 41/37/41 42/40/42
f 43/40/43 44/37/44 35/38/35
f 36/39/36 35/38/35 44/37/44
vt -0.038614 0.002479
vt -0.038091 -0.000000
vt -0.038091 0.002479
f 45/41/45 38/42/38 37/43/37
vt -0.038614 -0.000000
f 38/42/38 45/41/45 46/44/46
f 47/44/47 48/41/48 39/42/39
f 40/43/40 39/42/39 48/41/48
vt 0.041224 0.000000
vt 0.040702 0.002479
vt 0.040702 0.000000
f 49/45/49 42/46/42 41/47/41
vt 0.041224 0.002479
f 42/46/42 49/45/49 50/48/50
f 51/48/51 52/45/52 43/46/43
f 44/47/44 43/46/43 52/45/52
vt -0.041224 0.002479
vt -0.040702 0.000000
vt -0.040702 0.002479
f 53/49/53 46/50/46 45/51/45
vt -0.041224 0.000000
f 46/50/46 53/49/53 54/52/54
f 55/52/55 56/49/56 47/50/47
f 48/51/48 47/50/47 56/49/56
vt 0.038614 -0.000000
vt 0.038091 0.002479
vt 0.038091 -0.000000
f 57/53/57 50/54/50 49/55/49
vt 0.038614 0.002479
f 50/54/50 57/53/57 58/56/58
f 59/56/59 60/53/60 51/54/51
f 52/55/52 51/54/51 60/53/60
vt -0.041043 0.002479
vt -0.040521 0.000000
vt -0.040521 0.002479
f 61/57/61 54/58/54 53/59/53
vt -0.041043 0.000000
f 54/58/54 61/57/61 62/60/62
f 63/60/63 64/57/64 55/58/55
f 56/59/56 55/58/55 64/57/64
vt 0.033389 -0.000000
vt 0.032867 0.002479
vt 0.032867 -0.000000
f 65/61/65 58/62/58 57/63/57
vt 0.033389 0.002479
f 58/62/58 65/61/65 66/64/66
f 67/64/67 68/61/68 59/62/59
f 60/63/60 59/62/59 68/61/68
vt -0.038083 0.002479
vt -0.037561 0.000000
vt -0.037561 0.002479
f 69/65/69 62/66/62 61/67/61
vt -0.038083 0.000000
f 62/66/62 69/65/69 70/68/70
f 71/68/71 72/65/72 63/66/63
f 64/67/64 63/66/63 72/65/72
vt 0.025908 -0.000000
vt 0.025385 0.002479
vt 0.025385 -0.000000
f 73/69/73 66/70/66 65/71/65
vt 0.025908 0.002479
f 66/70/66 73/69/73 74/72/74
f 75/72/75 76/69/76 67/70/67
f 68/71/68 67/70/67 76/69/76
vt -0.032023 0.002479
vt -0.032545 0.000000
vt -0.032023 0.000000
f 69/73/69 77/74/77 70/75/70
vt -0.032545 0.002479
f 77/74/77 69/73/69 78/76/78
f 79/76/79 72/73/72 80/74/80
f 71/75/71 80/74/80 72/73/72
vt 0.016678 0.002479
vt 0.016156 -0.000000
vt 0.016678 -0.000000
f 81/77/81 73/78/73 82/79/82
vt 0.016156 0.002479
f 73/78/73 81/77/81 74/80/74
f 75/80/75 83/77/83 76/78/76
f 84/79/84 76/78/76 83/77/83
vt -0.024285 0.002479
vt -0.024807 0.000000
vt -0.024285 0.000000
f 78/81/78 85/82/85 77/83/77
vt -0.024807 0.002479
f 85/82/85 78/81/78 86/84/86
f 87/84/87 79/81/79 88/82/88
f 80/83/80 88/82/88 79/81/79
vt 0.006330 0.002479
vt 0.005807 -0.000000
vt 0.006330 -0.000000
f 89/85/89 82/86/82 90/87/90
vt 0.005807 0.002479
f 82/86/82 89/85/89 81/88/81
f 83/88/83 91/85/91 84/86/84
f 92/87/92 84/86/84 91/85/91
vt -0.014874 0.002479
vt -0.015397 0.000000
vt -0.014874 0.000000
f 86/89/86 93/90/93 85/91/85
vt -0.015397 0.002479
f 93/90/93 86/89/86 94/92/94
f 95/92/95 87/89/87 96/90/96
f 88/91/88 96/90/96 87/89/87
vt -0.004432 0.002479
vt -0.004954 0.000000
vt -0.004432 0.000000
f 94/93/94 90/94/90 93/95/93
vt -0.004954 0.002479
f 90/94/90 94/93/94 89/96/89
f 91/96/91 95/93/95 92/94/92
f 96/95/96 92/94/92 95/93/95
# 96 faces, 96 coords texture

# End of File
