####
#
# OBJ File Generated by Meshlab
#
####
# Object original-11.obj
#
# Vertices: 96
# Faces: 96
#
####
mtllib ./original-11.obj.mtl

vn 0.000000 -3.003158 -0.824541
v 0.322106 -0.592462 0.289502
vn 0.000000 -3.003158 -0.824541
v 0.292028 -0.592462 0.289502
vn 0.000000 -3.114818 -0.017110
v 0.322106 -0.592516 0.289892
vn 0.000000 -3.114818 -0.017110
v 0.292028 -0.592516 0.289892
vn 0.000000 3.003158 0.824541
v 0.292028 -0.592462 0.289502
vn 0.000000 3.114818 0.017110
v 0.322106 -0.592516 0.289892
vn 0.000000 3.114818 0.017110
v 0.292028 -0.592516 0.289892
vn 0.000000 3.003158 0.824541
v 0.322106 -0.592462 0.289502
vn 0.000000 -3.012301 0.790849
v 0.322106 -0.592467 0.290281
vn 0.000000 -3.012301 0.790849
v 0.292028 -0.592467 0.290281
vn 0.000000 3.012301 -0.790849
v 0.322106 -0.592467 0.290281
vn 0.000000 3.012301 -0.790849
v 0.292028 -0.592467 0.290281
vn 0.000000 -2.688111 -1.574192
v 0.322106 -0.592309 0.289140
vn 0.000000 -2.688111 -1.574192
v 0.292028 -0.592309 0.289140
vn 0.000000 2.688111 1.574192
v 0.292028 -0.592309 0.289140
vn 0.000000 2.688111 1.574192
v 0.322106 -0.592309 0.289140
vn 0.000000 -2.705847 1.543469
v 0.322106 -0.592318 0.290644
vn 0.000000 -2.705847 1.543469
v 0.292028 -0.592318 0.290644
vn 0.000000 2.705847 -1.543469
v 0.322106 -0.592318 0.290644
vn 0.000000 2.705847 -1.543469
v 0.292028 -0.592318 0.290644
vn 0.000000 -2.189765 -2.214745
v 0.322106 -0.592069 0.288830
vn 0.000000 -2.189765 -2.214745
v 0.292028 -0.592069 0.288830
vn 0.000000 2.189765 2.214745
v 0.292028 -0.592069 0.288830
vn 0.000000 2.189765 2.214745
v 0.322106 -0.592069 0.288830
vn 0.000000 -2.217794 2.187394
v 0.322106 -0.592081 0.290957
vn 0.000000 -2.217794 2.187394
v 0.292028 -0.592081 0.290957
vn 0.000000 2.217794 -2.187394
v 0.322106 -0.592081 0.290957
vn 0.000000 2.217794 -2.187394
v 0.292028 -0.592081 0.290957
vn 0.000000 -1.539892 -2.707306
v 0.322106 -0.591756 0.288593
vn 0.000000 -1.539892 -2.707306
v 0.292028 -0.591756 0.288593
vn 0.000000 1.539892 2.707306
v 0.322106 -0.591756 0.288593
vn 0.000000 1.539892 2.707306
v 0.292028 -0.591756 0.288593
vn 0.000000 -1.574057 2.687081
v 0.322106 -0.591772 0.291198
vn 0.000000 -1.574057 2.687081
v 0.292028 -0.591772 0.291198
vn 0.000000 1.574057 -2.687081
v 0.292028 -0.591772 0.291198
vn 0.000000 1.574057 -2.687081
v 0.322106 -0.591772 0.291198
vn 0.000000 -0.787272 -3.013760
v 0.322106 -0.591392 0.288445
vn 0.000000 -0.787272 -3.013760
v 0.292028 -0.591392 0.288445
vn 0.000000 0.787272 3.013760
v 0.322106 -0.591392 0.288445
vn 0.000000 0.787272 3.013760
v 0.292028 -0.591392 0.288445
vn 0.000000 -0.821337 3.004502
v 0.322106 -0.591409 0.291351
vn 0.000000 -0.821337 3.004502
v 0.292028 -0.591409 0.291351
vn 0.000000 0.821337 -3.004502
v 0.292028 -0.591409 0.291351
vn 0.000000 0.821337 -3.004502
v 0.322106 -0.591409 0.291351
vn 0.000000 0.017110 -3.114818
v 0.322106 -0.591003 0.288396
vn 0.000000 0.017110 -3.114818
v 0.292028 -0.591003 0.288396
vn 0.000000 -0.017110 3.114818
v 0.322106 -0.591003 0.288396
vn 0.000000 -0.017110 3.114818
v 0.292028 -0.591003 0.288396
vn 0.000000 -0.018555 3.115004
v 0.322106 -0.591021 0.291404
vn 0.000000 -0.018555 3.115004
v 0.292028 -0.591021 0.291404
vn 0.000000 0.018555 -3.115004
v 0.292028 -0.591021 0.291404
vn 0.000000 0.018555 -3.115004
v 0.322106 -0.591021 0.291404
vn 0.000000 0.822690 -3.003939
v 0.322106 -0.590613 0.288450
vn 0.000000 0.822690 -3.003939
v 0.292028 -0.590613 0.288450
vn 0.000000 -0.822690 3.003939
v 0.322106 -0.590613 0.288450
vn 0.000000 -0.822690 3.003939
v 0.292028 -0.590613 0.288450
vn 0.000000 0.788439 3.012870
v 0.322106 -0.590630 0.291355
vn 0.000000 0.788439 3.012870
v 0.292028 -0.590630 0.291355
vn 0.000000 -0.788439 -3.012870
v 0.292028 -0.590630 0.291355
vn 0.000000 -0.788439 -3.012870
v 0.322106 -0.590630 0.291355
vn 0.000000 1.572341 -2.688892
v 0.322106 -0.590252 0.288602
vn 0.000000 1.572341 -2.688892
v 0.292028 -0.590252 0.288602
vn 0.000000 -1.572341 2.688892
v 0.322106 -0.590252 0.288602
vn 0.000000 -1.572341 2.688892
v 0.292028 -0.590252 0.288602
vn 0.000000 1.542517 2.706239
v 0.322106 -0.590268 0.291207
vn 0.000000 1.542517 2.706239
v 0.292028 -0.590268 0.291207
vn 0.000000 -1.542517 -2.706239
v 0.292028 -0.590268 0.291207
vn 0.000000 -1.542517 -2.706239
v 0.322106 -0.590268 0.291207
vn 0.000000 2.214751 -2.189757
v 0.322106 -0.589942 0.288843
vn 0.000000 2.214751 -2.189757
v 0.292028 -0.589942 0.288843
vn 0.000000 -2.214751 2.189757
v 0.322106 -0.589942 0.288843
vn 0.000000 -2.214751 2.189757
v 0.292028 -0.589942 0.288843
vn 0.000000 2.189757 2.214751
v 0.322106 -0.589954 0.290969
vn 0.000000 2.189757 2.214751
v 0.292028 -0.589954 0.290969
vn 0.000000 -2.189757 -2.214751
v 0.292028 -0.589954 0.290969
vn 0.000000 -2.189757 -2.214751
v 0.322106 -0.589954 0.290969
vn 0.000000 2.707699 -1.538930
v 0.292028 -0.589704 0.289156
vn 0.000000 2.707699 -1.538930
v 0.322106 -0.589704 0.289156
vn 0.000000 -2.707699 1.538930
v 0.292028 -0.589704 0.289156
vn 0.000000 -2.707699 1.538930
v 0.322106 -0.589704 0.289156
vn 0.000000 2.688892 1.572341
v 0.292028 -0.589714 0.290659
vn 0.000000 2.688892 1.572341
v 0.322106 -0.589714 0.290659
vn 0.000000 -2.688892 -1.572341
v 0.322106 -0.589714 0.290659
vn 0.000000 -2.688892 -1.572341
v 0.292028 -0.589714 0.290659
vn 0.000000 3.013897 -0.788293
v 0.292028 -0.589557 0.289519
vn 0.000000 3.013897 -0.788293
v 0.322106 -0.589557 0.289519
vn 0.000000 -3.013897 0.788293
v 0.292028 -0.589557 0.289519
vn 0.000000 -3.013897 0.788293
v 0.322106 -0.589557 0.289519
vn 0.000000 3.003554 0.825484
v 0.292028 -0.589561 0.290298
vn 0.000000 3.003554 0.825484
v 0.322106 -0.589561 0.290298
vn 0.000000 -3.003554 -0.825484
v 0.322106 -0.589561 0.290298
vn 0.000000 -3.003554 -0.825484
v 0.292028 -0.589561 0.290298
vn 0.000000 3.114183 0.017929
v 0.292028 -0.589508 0.289909
vn 0.000000 3.114183 0.017929
v 0.322106 -0.589508 0.289909
vn 0.000000 -3.114183 -0.017929
v 0.292028 -0.589508 0.289909
vn 0.000000 -3.114183 -0.017929
v 0.322106 -0.589508 0.289909
# 96 vertices, 0 vertices normals


usemtl material_0
vt -0.050000 0.026405
vt -0.030000 0.026666
vt -0.050000 0.026666
f 3/1/3 2/2/2 1/3/1
vt -0.030000 0.026405
f 2/2/2 3/1/3 4/4/4
f 7/4/7 6/1/6 5/2/5
f 8/3/8 5/2/5 6/1/6
vt 0.050000 -0.025757
vt 0.030000 -0.026018
vt 0.050000 -0.026018
f 9/5/9 4/6/4 3/7/3
vt 0.030000 -0.025757
f 4/6/4 9/5/9 10/8/10
f 12/8/12 11/5/11 7/6/7
f 6/7/6 7/6/7 11/5/11
vt -0.050000 0.025245
vt -0.030000 0.025506
vt -0.050000 0.025506
f 1/9/1 14/10/14 13/11/13
vt -0.030000 0.025245
f 14/10/14 1/9/1 2/12/2
f 5/12/5 8/9/8 15/10/15
f 16/11/16 15/10/15 8/9/8
vt 0.050000 -0.023345
vt 0.030000 -0.023606
vt 0.050000 -0.023606
f 17/13/17 10/14/10 9/15/9
vt 0.030000 -0.023345
f 10/14/10 17/13/17 18/16/18
f 20/16/20 19/13/19 12/14/12
f 11/15/11 12/14/12 19/13/19
vt -0.050000 0.022355
vt -0.030000 0.022616
vt -0.050000 0.022616
f 13/17/13 22/18/22 21/19/21
vt -0.030000 0.022355
f 22/18/22 13/17/13 14/20/14
f 15/20/15 16/17/16 23/18/23
f 24/19/24 23/18/23 16/17/16
vt 0.050000 -0.019333
vt 0.030000 -0.019594
vt 0.050000 -0.019594
f 25/21/25 18/22/18 17/23/17
vt 0.030000 -0.019333
f 18/22/18 25/21/25 26/24/26
f 28/24/28 27/21/27 20/22/20
f 19/23/19 20/22/20 27/21/27
vt -0.030000 0.017933
vt -0.050000 0.018194
vt -0.050000 0.017933
f 22/25/22 29/26/29 21/27/21
vt -0.030000 0.018194
f 29/26/29 22/25/22 30/28/30
f 32/28/32 23/25/23 31/26/31
f 24/27/24 31/26/31 23/25/23
vt 0.030000 -0.013995
vt 0.050000 -0.014256
vt 0.050000 -0.013995
f 34/29/34 25/30/25 33/31/33
vt 0.030000 -0.014256
f 25/30/25 34/29/34 26/32/26
f 28/32/28 35/29/35 27/30/27
f 36/31/36 27/30/27 35/29/35
vt -0.030000 0.012280
vt -0.050000 0.012541
vt -0.050000 0.012280
f 30/33/30 37/34/37 29/35/29
vt -0.030000 0.012541
f 37/34/37 30/33/30 38/36/38
f 40/36/40 32/33/32 39/34/39
f 31/35/31 39/34/39 32/33/32
vt 0.030000 -0.007694
vt 0.050000 -0.007955
vt 0.050000 -0.007694
f 42/37/42 33/38/33 41/39/41
vt 0.030000 -0.007955
f 33/38/33 42/37/42 34/40/34
f 35/40/35 43/37/43 36/38/36
f 44/39/44 36/38/36 43/37/43
vt -0.030000 0.005781
vt -0.050000 0.006042
vt -0.050000 0.005781
f 38/41/38 45/42/45 37/43/37
vt -0.030000 0.006042
f 45/42/45 38/41/38 46/44/46
f 48/44/48 40/41/40 47/42/47
f 39/43/39 47/42/47 40/41/40
vt 0.030000 -0.000860
vt 0.050000 -0.001121
vt 0.050000 -0.000860
f 50/45/50 41/46/41 49/47/49
vt 0.030000 -0.001121
f 41/46/41 50/45/50 42/48/42
f 43/48/43 51/45/51 44/46/44
f 52/47/52 44/46/44 51/45/51
vt -0.030000 -0.001121
vt -0.050000 -0.000860
vt -0.050000 -0.001121
f 46/49/46 53/50/53 45/51/45
vt -0.030000 -0.000860
f 53/50/53 46/49/46 54/52/54
f 56/52/56 48/49/48 55/50/55
f 47/51/47 55/50/55 48/49/48
vt 0.030000 0.006042
vt 0.050000 0.005781
vt 0.050000 0.006042
f 58/53/58 49/54/49 57/55/57
vt 0.030000 0.005781
f 49/54/49 58/53/58 50/56/50
f 51/56/51 59/53/59 52/54/52
f 60/55/60 52/54/52 59/53/59
vt -0.030000 -0.007955
vt -0.050000 -0.007694
vt -0.050000 -0.007955
f 54/57/54 61/58/61 53/59/53
vt -0.030000 -0.007694
f 61/58/61 54/57/54 62/60/62
f 64/60/64 56/57/56 63/58/63
f 55/59/55 63/58/63 56/57/56
vt 0.030000 0.012541
vt 0.050000 0.012280
vt 0.050000 0.012541
f 66/61/66 57/62/57 65/63/65
vt 0.030000 0.012280
f 57/62/57 66/61/66 58/64/58
f 59/64/59 67/61/67 60/62/60
f 68/63/68 60/62/60 67/61/67
vt -0.030000 -0.014256
vt -0.050000 -0.013995
vt -0.050000 -0.014256
f 62/65/62 69/66/69 61/67/61
vt -0.030000 -0.013995
f 69/66/69 62/65/62 70/68/70
f 72/68/72 64/65/64 71/66/71
f 63/67/63 71/66/71 64/65/64
vt 0.030000 0.018194
vt 0.050000 0.017933
vt 0.050000 0.018194
f 74/69/74 65/70/65 73/71/73
vt 0.030000 0.017933
f 65/70/65 74/69/74 66/72/66
f 67/72/67 75/69/75 68/70/68
f 76/71/76 68/70/68 75/69/75
vt -0.030000 -0.019333
vt -0.050000 -0.019594
vt -0.030000 -0.019594
f 77/73/77 69/74/69 70/75/70
vt -0.050000 -0.019333
f 69/74/69 77/73/77 78/76/78
f 80/76/80 79/73/79 71/74/71
f 72/75/72 71/74/71 79/73/79
vt 0.030000 0.022355
vt 0.050000 0.022616
vt 0.030000 0.022616
f 74/77/74 82/78/82 81/79/81
vt 0.050000 0.022355
f 82/78/82 74/77/74 73/80/73
f 76/80/76 75/77/75 83/78/83
f 84/79/84 83/78/83 75/77/75
vt -0.030000 -0.023345
vt -0.050000 -0.023606
vt -0.030000 -0.023606
f 85/81/85 78/82/78 77/83/77
vt -0.050000 -0.023345
f 78/82/78 85/81/85 86/84/86
f 88/84/88 87/81/87 80/82/80
f 79/83/79 80/82/80 87/81/87
vt 0.030000 0.025245
vt 0.050000 0.025506
vt 0.030000 0.025506
f 81/85/81 90/86/90 89/87/89
vt 0.050000 0.025245
f 90/86/90 81/85/81 82/88/82
f 83/88/83 84/85/84 91/86/91
f 92/87/92 91/86/91 84/85/84
vt -0.030000 -0.025757
vt -0.050000 -0.026018
vt -0.030000 -0.026018
f 93/89/93 86/90/86 85/91/85
vt -0.050000 -0.025757
f 86/90/86 93/89/93 94/92/94
f 96/92/96 95/89/95 88/90/88
f 87/91/87 88/90/88 95/89/95
vt 0.030000 0.026405
vt 0.050000 0.026666
vt 0.030000 0.026666
f 89/93/89 94/94/94 93/95/93
vt 0.050000 0.026405
f 94/94/94 89/93/89 90/96/90
f 91/96/91 92/93/92 96/94/96
f 95/95/95 96/94/96 92/93/92
# 96 faces, 96 coords texture

# End of File
