####
#
# OBJ File Generated by Meshlab
#
####
# Object original-126.obj
#
# Vertices: 101
# Faces: 102
#
####
mtllib ./original-126.obj.mtl

vn 2.959973 -0.527090 -0.807793
v 0.175409 0.006004 0.038164
vn 6.133062 -1.092856 -0.000000
v 0.175900 0.008468 0.038553
vn 3.066329 -0.545566 0.000000
v 0.175460 0.005995 0.038553
vn 2.941194 -0.524112 -0.796401
v 0.215277 0.229724 0.038164
vn 6.138846 -1.093890 -0.000000
v 0.176034 0.009220 0.038553
vn 3.044635 -0.542583 0.000000
v 0.215329 0.229719 0.038553
vn 0.251068 2.872515 -0.023250
v 0.213436 0.229886 0.037101
vn 0.253732 2.872307 -0.002848
v 0.214214 0.229818 0.037101
vn 0.250489 2.865888 0.000000
v 0.213825 0.229852 0.037049
vn 0.253436 2.868935 0.003841
v 0.213073 0.229919 0.037251
vn 0.253483 2.867613 0.005087
v 0.214577 0.229786 0.037251
vn 0.253569 2.868578 0.002450
v 0.212761 0.229946 0.037490
vn 0.253471 2.869993 0.000761
v 0.214888 0.229758 0.037490
vn 0.253165 2.866522 0.001584
v 0.212522 0.229967 0.037801
vn 0.252787 2.866555 -0.001310
v 0.215127 0.229737 0.037801
vn 0.252937 2.868258 -0.001582
v 0.212372 0.229980 0.038164
vn 0.253462 2.870739 0.000743
v 0.215277 0.229724 0.038164
vn 0.253262 2.868484 0.000245
v 0.212321 0.229985 0.038553
vn 0.252820 2.863472 0.000244
v 0.215329 0.229719 0.038553
vn 0.253240 2.868232 0.001126
v 0.212372 0.229980 0.038942
vn 0.253158 2.870765 -0.001200
v 0.215277 0.229724 0.038942
vn 0.252923 2.868101 -0.001310
v 0.212522 0.229967 0.039305
vn 0.253301 2.868067 0.001583
v 0.215127 0.229737 0.039305
vn 0.253212 2.867052 -0.002196
v 0.212761 0.229946 0.039617
vn 0.253556 2.868428 -0.000513
v 0.214888 0.229758 0.039617
vn 0.253599 2.868921 -0.003611
v 0.213073 0.229919 0.039856
vn 0.253320 2.867628 -0.004858
v 0.214577 0.229786 0.039856
vn 0.253515 2.869830 0.015422
v 0.213436 0.229886 0.040006
vn 0.250851 2.870029 -0.004979
v 0.214214 0.229818 0.040006
vn 0.250927 2.870903 0.000000
v 0.213825 0.229852 0.040057
vn 2.959973 -0.527090 0.807793
v 0.175409 0.006004 0.038942
vn 2.941194 -0.524112 0.796401
v 0.215277 0.229724 0.038942
vn -0.503861 -2.837923 -0.011120
v 0.174362 0.006191 0.037101
vn -0.505945 -2.837571 0.004952
v 0.173596 0.006327 0.037101
vn -0.502725 -2.831527 0.000000
v 0.173979 0.006259 0.037049
vn -0.505520 -2.835177 -0.003221
v 0.174719 0.006127 0.037251
vn -0.506239 -2.835050 0.002324
v 0.173239 0.006391 0.037251
vn -0.506073 -2.834122 0.006426
v 0.175026 0.006072 0.037490
vn -0.505515 -2.834596 0.001613
v 0.172932 0.006446 0.037490
vn -0.505663 -2.835428 -0.000841
v 0.175261 0.006031 0.037801
vn -0.505401 -2.834698 -0.001835
v 0.172697 0.006488 0.037801
vn -0.505691 -2.836325 -0.001495
v 0.175409 0.006004 0.038164
vn -0.505752 -2.836734 -0.001583
v 0.172549 0.006514 0.038164
vn -0.504949 -2.832226 -0.000050
v 0.175460 0.005995 0.038553
vn -0.504949 -2.832226 -0.000050
v 0.172498 0.006523 0.038553
vn -0.505680 -2.836327 0.001612
v 0.175409 0.006004 0.038942
vn -0.505764 -2.836732 0.001700
v 0.172549 0.006514 0.038942
vn -0.505807 -2.836976 0.000593
v 0.175261 0.006031 0.039305
vn -0.505802 -2.836201 0.001583
v 0.172697 0.006488 0.039305
vn -0.505179 -2.832710 -0.005407
v 0.175026 0.006072 0.039617
vn -0.505865 -2.832959 -0.000616
v 0.172932 0.006446 0.039617
vn -0.506239 -2.835050 0.002324
v 0.174719 0.006127 0.039856
vn -0.505520 -2.835177 -0.003221
v 0.173239 0.006391 0.039856
vn -0.505504 -2.835083 0.004952
v 0.174362 0.006191 0.040006
vn -0.503419 -2.835435 -0.011120
v 0.173596 0.006327 0.040006
vn -0.503609 -2.836502 -0.000000
v 0.173979 0.006259 0.040057
vn 2.659601 -0.477933 -1.557363
v 0.175261 0.006031 0.037801
vn 5.484880 -0.979226 -2.342380
v 0.175811 0.009118 0.037788
vn 2.644569 -0.471192 -1.536969
v 0.215127 0.229737 0.037801
vn 2.164846 -0.389448 2.200934
v 0.175026 0.006072 0.039617
vn 1.543214 -0.275011 2.676282
v 0.214577 0.229786 0.039856
vn 1.531707 -0.272963 2.698065
v 0.174719 0.006127 0.039856
vn 2.170827 -0.386798 2.179191
v 0.214888 0.229758 0.039617
vn 5.488033 -0.979788 2.338370
v 0.175811 0.009118 0.039318
vn 2.661052 -0.478183 1.555427
v 0.175261 0.006031 0.039305
vn 2.646063 -0.471458 1.535170
v 0.215127 0.229737 0.039305
vn 2.163380 -0.389195 -2.202862
v 0.175026 0.006072 0.037490
vn 2.169402 -0.386544 -2.181256
v 0.214888 0.229758 0.037490
vn 1.543214 -0.275011 -2.676282
v 0.214577 0.229786 0.037251
vn 1.531707 -0.272963 -2.698065
v 0.174719 0.006127 0.037251
vn 0.814750 -0.145195 -2.996615
v 0.214214 0.229818 0.037101
vn 0.796361 -0.141917 -3.010011
v 0.174362 0.006191 0.037101
vn 0.023064 -0.004110 -3.113885
v 0.213825 0.229852 0.037049
vn -0.000166 0.000030 -3.113893
v 0.173979 0.006259 0.037049
vn -0.777051 0.138477 -3.023149
v 0.213436 0.229886 0.037101
vn -0.795477 0.141759 -3.006990
v 0.173596 0.006327 0.037101
vn -1.517906 0.270501 -2.715107
v 0.213073 0.229919 0.037251
vn -1.531554 0.272932 -2.698671
v 0.173239 0.006391 0.037251
vn -2.167389 0.386240 -2.227713
v 0.212761 0.229946 0.037490
vn -2.167520 0.386265 -2.203661
v 0.172932 0.006446 0.037490
vn -2.656646 0.473428 -1.557799
v 0.172697 0.006488 0.037801
vn -2.666464 0.475178 -1.576682
v 0.212522 0.229967 0.037801
vn -2.961120 0.527688 -0.807760
v 0.172549 0.006514 0.038164
vn -2.983840 0.531741 -0.816067
v 0.212372 0.229980 0.038164
vn -3.065383 0.546270 0.000000
v 0.172498 0.006523 0.038553
vn -6.184284 1.103314 0.000000
v 0.172845 0.008468 0.038553
vn -3.086562 0.550049 -0.000000
v 0.212321 0.229985 0.038553
vn -2.983840 0.531741 0.816067
v 0.212372 0.229980 0.038942
vn -2.961120 0.527688 0.807760
v 0.172549 0.006514 0.038942
vn -2.667889 0.475432 1.574617
v 0.212522 0.229967 0.039305
vn -2.658104 0.473688 1.555866
v 0.172697 0.006488 0.039305
vn -2.168884 0.386506 2.225914
v 0.212761 0.229946 0.039617
vn -2.168978 0.386525 2.201729
v 0.172932 0.006446 0.039617
vn -1.531554 0.272932 2.698671
v 0.173239 0.006391 0.039856
vn -1.517906 0.270501 2.715107
v 0.213073 0.229919 0.039856
vn -0.791605 0.141069 3.007510
v 0.173596 0.006327 0.040006
vn -0.772963 0.137748 3.023728
v 0.213436 0.229886 0.040006
vn -0.000163 0.000029 3.114935
v 0.173979 0.006259 0.040057
vn 0.022636 -0.004034 3.114927
v 0.213825 0.229852 0.040057
vn 0.792486 -0.141227 3.010533
v 0.174362 0.006191 0.040006
vn 0.811091 -0.144543 2.997077
v 0.214214 0.229818 0.040006
# 101 vertices, 0 vertices normals


usemtl material_0
f 1//1 2//2 3//3
f 2//2 1//1 4//4
f 2//2 4//4 5//5
f 5//5 4//4 6//6
f 7//7 8//8 9//9
f 8//8 7//7 10//10
f 8//8 10//10 11//11
f 11//11 10//10 12//12
f 11//11 12//12 13//13
f 13//13 12//12 14//14
f 13//13 14//14 15//15
f 15//15 14//14 16//16
f 15//15 16//16 17//17
f 17//17 16//16 18//18
f 17//17 18//18 19//19
f 19//19 18//18 20//20
f 19//19 20//20 21//21
f 21//21 20//20 22//22
f 21//21 22//22 23//23
f 23//23 22//22 24//24
f 23//23 24//24 25//25
f 25//25 24//24 26//26
f 25//25 26//26 27//27
f 27//27 26//26 28//28
f 27//27 28//28 29//29
f 29//29 28//28 30//30
f 2//2 31//31 3//3
f 31//31 2//2 32//32
f 32//32 2//2 5//5
f 32//32 5//5 6//6
f 33//33 34//34 35//35
f 34//34 33//33 36//36
f 34//34 36//36 37//37
f 37//37 36//36 38//38
f 37//37 38//38 39//39
f 39//39 38//38 40//40
f 39//39 40//40 41//41
f 41//41 40//40 42//42
f 41//41 42//42 43//43
f 43//43 42//42 44//44
f 43//43 44//44 45//45
f 45//45 44//44 46//46
f 45//45 46//46 47//47
f 47//47 46//46 48//48
f 47//47 48//48 49//49
f 49//49 48//48 50//50
f 49//49 50//50 51//51
f 51//51 50//50 52//52
f 51//51 52//52 53//53
f 53//53 52//52 54//54
f 53//53 54//54 55//55
f 55//55 54//54 56//56
f 57//57 4//4 1//1
f 4//4 57//57 58//58
f 4//4 58//58 59//59
f 60//60 61//61 62//62
f 61//61 60//60 63//63
f 64//64 60//60 65//65
f 60//60 64//64 63//63
f 63//63 64//64 66//66
f 32//32 65//65 31//31
f 65//65 32//32 64//64
f 64//64 32//32 66//66
f 67//67 58//58 57//57
f 58//58 67//67 68//68
f 58//58 68//68 59//59
f 69//69 67//67 70//70
f 67//67 69//69 68//68
f 71//71 70//70 72//72
f 70//70 71//71 69//69
f 73//73 72//72 74//74
f 72//72 73//73 71//71
f 75//75 74//74 76//76
f 74//74 75//75 73//73
f 77//77 76//76 78//78
f 76//76 77//77 75//75
f 79//79 78//78 80//80
f 78//78 79//79 77//77
f 81//81 79//79 80//80
f 79//79 81//81 82//82
f 83//83 82//82 81//81
f 82//82 83//83 84//84
f 85//85 84//84 83//83
f 84//84 85//85 86//86
f 84//84 86//86 87//87
f 88//88 85//85 89//89
f 85//85 88//88 86//86
f 86//86 88//88 87//87
f 90//90 89//89 91//91
f 89//89 90//90 88//88
f 92//92 91//91 93//93
f 91//91 92//92 90//90
f 94//94 92//92 93//93
f 92//92 94//94 95//95
f 96//96 95//95 94//94
f 95//95 96//96 97//97
f 98//98 97//97 96//96
f 97//97 98//98 99//99
f 100//100 99//99 98//98
f 99//99 100//100 101//101
f 62//62 101//101 100//100
f 101//101 62//62 61//61
# 102 faces, 0 coords texture

# End of File
