####
#
# OBJ File Generated by Meshlab
#
####
# Object original-84.obj
#
# Vertices: 120
# Faces: 118
#
####
mtllib ./original-84.obj.mtl

vn -2.878509 0.000000 0.000000
v 0.391285 0.226844 -0.111837
vn -2.880711 0.000000 0.000000
v 0.391285 0.226947 -0.112616
vn -2.881365 0.000000 0.000000
v 0.391285 0.226947 -0.111059
vn -2.878993 0.000000 0.000000
v 0.391285 0.227247 -0.110333
vn -2.879480 0.000000 0.000000
v 0.391285 0.227247 -0.113341
vn -2.879703 0.000000 0.000000
v 0.391285 0.227725 -0.109710
vn -2.879703 0.000000 0.000000
v 0.391285 0.227725 -0.113964
vn -2.878993 0.000000 0.000000
v 0.391285 0.228348 -0.109232
vn -2.878993 0.000000 0.000000
v 0.391285 0.228348 -0.114442
vn -2.881365 0.000000 0.000000
v 0.391285 0.229074 -0.108932
vn -2.881365 0.000000 0.000000
v 0.391285 0.229074 -0.114742
vn -2.878509 0.000000 0.000000
v 0.391285 0.229852 -0.108829
vn -2.878509 0.000000 0.000000
v 0.391285 0.229852 -0.114845
vn -2.880711 0.000000 0.000000
v 0.391285 0.230631 -0.108932
vn -2.880711 0.000000 0.000000
v 0.391285 0.230631 -0.114742
vn -2.879480 0.000000 0.000000
v 0.391285 0.231356 -0.109232
vn -2.879480 0.000000 0.000000
v 0.391285 0.231356 -0.114442
vn -2.879703 0.000000 0.000000
v 0.391285 0.231979 -0.109710
vn -2.879703 0.000000 0.000000
v 0.391285 0.231979 -0.113964
vn -2.878993 0.000000 0.000000
v 0.391285 0.232457 -0.110333
vn -2.879480 0.000000 0.000000
v 0.391285 0.232457 -0.113341
vn -2.881365 0.000000 0.000000
v 0.391285 0.232757 -0.111059
vn -2.880711 0.000000 0.000000
v 0.391285 0.232757 -0.112616
vn -2.878509 0.000000 0.000000
v 0.391285 0.232860 -0.111837
vn 0.000000 -2.202424 2.202424
v 0.391285 0.231979 -0.113964
vn 0.000000 -1.556781 2.697682
v 0.391285 0.231356 -0.114442
vn 0.000000 -2.202424 2.202424
v 0.349176 0.231979 -0.113964
vn 0.000000 -1.556781 2.697682
v 0.349176 0.231356 -0.114442
vn 0.000000 -0.806497 3.008685
v 0.391285 0.230631 -0.114742
vn 0.000000 -0.806497 3.008685
v 0.349176 0.230631 -0.114742
vn 0.000000 0.000260 3.114452
v 0.391285 0.229852 -0.114845
vn 0.000000 0.000260 3.114452
v 0.349176 0.229852 -0.114845
vn 0.000000 0.806050 3.008943
v 0.391285 0.229074 -0.114742
vn 0.000000 0.806050 3.008943
v 0.349176 0.229074 -0.114742
vn 0.000000 1.556074 2.697974
v 0.391285 0.228348 -0.114442
vn 0.000000 1.556074 2.697974
v 0.349176 0.228348 -0.114442
vn 0.000000 2.202424 2.202424
v 0.391285 0.227725 -0.113964
vn 0.000000 2.202424 2.202424
v 0.349176 0.227725 -0.113964
vn 0.000000 2.697682 1.556781
v 0.391285 0.227247 -0.113341
vn 0.000000 2.697682 1.556781
v 0.349176 0.227247 -0.113341
vn 0.000000 3.008685 0.806497
v 0.391285 0.226947 -0.112616
vn 0.000000 3.008685 0.806497
v 0.349176 0.226947 -0.112616
vn 0.000000 3.114452 -0.000260
v 0.391285 0.226844 -0.111837
vn 0.000000 3.114452 -0.000260
v 0.349176 0.226844 -0.111837
vn 0.000000 3.008943 -0.806050
v 0.391285 0.226947 -0.111059
vn 0.000000 3.008943 -0.806050
v 0.349176 0.226947 -0.111059
vn 0.000000 2.697974 -1.556074
v 0.391285 0.227247 -0.110333
vn 0.000000 2.697974 -1.556074
v 0.349176 0.227247 -0.110333
vn 0.000000 2.202424 -2.202424
v 0.391285 0.227725 -0.109710
vn 0.000000 2.202424 -2.202424
v 0.349176 0.227725 -0.109710
vn 0.000000 1.556074 -2.697974
v 0.391285 0.228348 -0.109232
vn 0.000000 1.556074 -2.697974
v 0.349176 0.228348 -0.109232
vn 0.000000 0.806050 -3.008943
v 0.391285 0.229074 -0.108932
vn 0.000000 0.806050 -3.008943
v 0.349176 0.229074 -0.108932
vn 0.000000 0.000260 -3.114452
v 0.391285 0.229852 -0.108829
vn 0.000000 0.000260 -3.114452
v 0.349176 0.229852 -0.108829
vn 0.000000 -0.806497 -3.008685
v 0.391285 0.230631 -0.108932
vn 0.000000 -0.806497 -3.008685
v 0.349176 0.230631 -0.108932
vn 0.000000 -1.556781 -2.697682
v 0.391285 0.231356 -0.109232
vn 0.000000 -1.556781 -2.697682
v 0.349176 0.231356 -0.109232
vn 0.000000 -2.202424 -2.202424
v 0.391285 0.231979 -0.109710
vn 0.000000 -2.202424 -2.202424
v 0.349176 0.231979 -0.109710
vn 0.000000 -2.697974 -1.556074
v 0.349176 0.232457 -0.110333
vn 0.000000 -2.697974 -1.556074
v 0.391285 0.232457 -0.110333
vn 0.000000 -3.008943 -0.806050
v 0.349176 0.232757 -0.111059
vn 0.000000 -3.008943 -0.806050
v 0.391285 0.232757 -0.111059
vn 0.000000 -3.114452 -0.000260
v 0.349176 0.232860 -0.111837
vn 0.000000 -3.114452 -0.000260
v 0.391285 0.232860 -0.111837
vn 0.000000 -3.008685 0.806497
v 0.349176 0.232757 -0.112616
vn 0.000000 -3.008685 0.806497
v 0.391285 0.232757 -0.112616
vn 0.000000 -2.697682 1.556781
v 0.349176 0.232457 -0.113341
vn 0.000000 -2.697682 1.556781
v 0.391285 0.232457 -0.113341
vn 0.260724 0.000000 0.000000
v 0.349176 0.228348 -0.111837
vn 3.405435 0.000000 0.000000
v 0.349176 0.228399 -0.112226
vn 2.878993 0.000000 0.000000
v 0.349176 0.228348 -0.114442
vn 3.402618 0.000000 0.000000
v 0.349176 0.228550 -0.112589
vn 3.401930 0.000000 0.000000
v 0.349176 0.228789 -0.112900
vn 2.881365 0.000000 0.000000
v 0.349176 0.229074 -0.114742
vn 3.402618 0.000000 0.000000
v 0.349176 0.229100 -0.113139
vn 3.405435 0.000000 0.000000
v 0.349176 0.229463 -0.113290
vn 2.878509 0.000000 0.000000
v 0.349176 0.229852 -0.114845
vn 3.402316 0.000000 0.000000
v 0.349176 0.229852 -0.113341
vn 3.405435 0.000000 0.000000
v 0.349176 0.230241 -0.113290
vn 3.402618 0.000000 0.000000
v 0.349176 0.230604 -0.113139
vn 2.880711 0.000000 0.000000
v 0.349176 0.230631 -0.114742
vn 3.401930 0.000000 0.000000
v 0.349176 0.230915 -0.112900
vn 3.402618 0.000000 0.000000
v 0.349176 0.231154 -0.112589
vn 3.405435 0.000000 0.000000
v 0.349176 0.231305 -0.112226
vn 2.879480 0.000000 0.000000
v 0.349176 0.231356 -0.114442
vn 0.260724 0.000000 0.000000
v 0.349176 0.231356 -0.111837
vn 2.879480 0.000000 0.000000
v 0.349176 0.231356 -0.109232
vn 2.879703 0.000000 0.000000
v 0.349176 0.231979 -0.113964
vn 2.879703 0.000000 0.000000
v 0.349176 0.231979 -0.109710
vn 2.879480 0.000000 0.000000
v 0.349176 0.232457 -0.113341
vn 2.878993 0.000000 0.000000
v 0.349176 0.232457 -0.110333
vn 2.880711 0.000000 0.000000
v 0.349176 0.232757 -0.112616
vn 2.881365 0.000000 0.000000
v 0.349176 0.232757 -0.111059
vn 2.878509 0.000000 0.000000
v 0.349176 0.232860 -0.111837
vn 2.878509 0.000000 0.000000
v 0.349176 0.226844 -0.111837
vn 2.881365 0.000000 0.000000
v 0.349176 0.226947 -0.111059
vn 2.880711 0.000000 0.000000
v 0.349176 0.226947 -0.112616
vn 2.879480 0.000000 0.000000
v 0.349176 0.227247 -0.113341
vn 2.878993 0.000000 0.000000
v 0.349176 0.227247 -0.110333
vn 2.879703 0.000000 0.000000
v 0.349176 0.227725 -0.113964
vn 2.879703 0.000000 0.000000
v 0.349176 0.227725 -0.109710
vn 2.878993 0.000000 0.000000
v 0.349176 0.228348 -0.109232
vn 3.405435 0.000000 0.000000
v 0.349176 0.228399 -0.111448
vn 3.402618 0.000000 0.000000
v 0.349176 0.228550 -0.111085
vn 3.401930 0.000000 0.000000
v 0.349176 0.228789 -0.110774
vn 2.881365 0.000000 0.000000
v 0.349176 0.229074 -0.108932
vn 3.402618 0.000000 0.000000
v 0.349176 0.229100 -0.110535
vn 3.405435 0.000000 0.000000
v 0.349176 0.229463 -0.110384
vn 3.402316 0.000000 0.000000
v 0.349176 0.229852 -0.110333
vn 2.878509 0.000000 0.000000
v 0.349176 0.229852 -0.108829
vn 3.405435 0.000000 0.000000
v 0.349176 0.230241 -0.110384
vn 3.402618 0.000000 0.000000
v 0.349176 0.230604 -0.110535
vn 2.880711 0.000000 0.000000
v 0.349176 0.230631 -0.108932
vn 3.401930 0.000000 0.000000
v 0.349176 0.230915 -0.110774
vn 3.402618 0.000000 0.000000
v 0.349176 0.231154 -0.111085
vn 3.405435 0.000000 0.000000
v 0.349176 0.231305 -0.111448
# 120 vertices, 0 vertices normals


usemtl material_0
f 3//3 2//2 1//1
f 4//4 2//2 3//3
f 4//4 5//5 2//2
f 6//6 5//5 4//4
f 6//6 7//7 5//5
f 8//8 7//7 6//6
f 8//8 9//9 7//7
f 10//10 9//9 8//8
f 10//10 11//11 9//9
f 12//12 11//11 10//10
f 12//12 13//13 11//11
f 14//14 13//13 12//12
f 14//14 15//15 13//13
f 16//16 15//15 14//14
f 16//16 17//17 15//15
f 18//18 17//17 16//16
f 18//18 19//19 17//17
f 20//20 19//19 18//18
f 20//20 21//21 19//19
f 22//22 21//21 20//20
f 22//22 23//23 21//21
f 23//23 22//22 24//24
f 27//27 26//26 25//25
f 26//26 27//27 28//28
f 28//28 29//29 26//26
f 29//29 28//28 30//30
f 30//30 31//31 29//29
f 31//31 30//30 32//32
f 32//32 33//33 31//31
f 33//33 32//32 34//34
f 34//34 35//35 33//33
f 35//35 34//34 36//36
f 36//36 37//37 35//35
f 37//37 36//36 38//38
f 37//37 40//40 39//39
f 40//40 37//37 38//38
f 39//39 42//42 41//41
f 42//42 39//39 40//40
f 41//41 44//44 43//43
f 44//44 41//41 42//42
f 43//43 46//46 45//45
f 46//46 43//43 44//44
f 45//45 48//48 47//47
f 48//48 45//45 46//46
f 47//47 50//50 49//49
f 50//50 47//47 48//48
f 50//50 51//51 49//49
f 51//51 50//50 52//52
f 52//52 53//53 51//51
f 53//53 52//52 54//54
f 54//54 55//55 53//53
f 55//55 54//54 56//56
f 56//56 57//57 55//55
f 57//57 56//56 58//58
f 58//58 59//59 57//57
f 59//59 58//58 60//60
f 60//60 61//61 59//59
f 61//61 60//60 62//62
f 63//63 61//61 62//62
f 61//61 63//63 64//64
f 65//65 64//64 63//63
f 64//64 65//65 66//66
f 67//67 66//66 65//65
f 66//66 67//67 68//68
f 69//69 68//68 67//67
f 68//68 69//69 70//70
f 71//71 70//70 69//69
f 70//70 71//71 72//72
f 27//27 72//72 71//71
f 72//72 27//27 25//25
f 75//75 74//74 73//73
f 75//75 76//76 74//74
f 75//75 77//77 76//76
f 78//78 77//77 75//75
f 78//78 79//79 77//77
f 78//78 80//80 79//79
f 81//81 80//80 78//78
f 81//81 82//82 80//80
f 81//81 83//83 82//82
f 81//81 84//84 83//83
f 85//85 84//84 81//81
f 85//85 86//86 84//84
f 85//85 87//87 86//86
f 85//85 88//88 87//87
f 89//89 88//88 85//85
f 89//89 90//90 88//88
f 89//89 91//91 90//90
f 92//92 91//91 89//89
f 92//92 93//93 91//91
f 94//94 93//93 92//92
f 94//94 95//95 93//93
f 96//96 95//95 94//94
f 96//96 97//97 95//95
f 97//97 96//96 98//98
f 101//101 100//100 99//99
f 102//102 100//100 101//101
f 102//102 103//103 100//100
f 104//104 103//103 102//102
f 104//104 105//105 103//103
f 104//104 106//106 105//105
f 75//75 106//106 104//104
f 73//73 106//106 75//75
f 107//107 106//106 73//73
f 108//108 106//106 107//107
f 109//109 106//106 108//108
f 109//109 110//110 106//106
f 111//111 110//110 109//109
f 112//112 110//110 111//111
f 113//113 110//110 112//112
f 113//113 114//114 110//110
f 115//115 114//114 113//113
f 116//116 114//114 115//115
f 116//116 117//117 114//114
f 118//118 117//117 116//116
f 119//119 117//117 118//118
f 120//120 117//117 119//119
f 120//120 91//91 117//117
f 91//91 120//120 90//90
# 118 faces, 0 coords texture

# End of File
