####
#
# OBJ File Generated by Meshlab
#
####
# Object original-6.obj
#
# Vertices: 728
# Faces: 724
#
####
mtllib ./original-6.obj.mtl

vn 2.206718 -1.743516 1.525229
v -0.193259 0.328640 0.301709
vn 2.024331 -1.782798 1.473313
v -0.206301 0.343622 0.337830
vn 2.248306 -1.522245 1.449222
v -0.207987 0.341404 0.337810
vn -2.248306 1.522245 -1.449222
v -0.207987 0.341404 0.337810
vn -2.024331 1.782798 -1.473313
v -0.206301 0.343622 0.337830
vn -2.206718 1.743516 -1.525229
v -0.193259 0.328640 0.301709
vn 2.433282 -1.440521 1.495552
v -0.194570 0.326732 0.301693
vn -2.433282 1.440521 -1.495552
v -0.194570 0.326732 0.301693
vn 1.949557 -2.023270 1.531134
v -0.191702 0.330366 0.301725
vn -1.949557 2.023270 -1.531134
v -0.191702 0.330366 0.301725
vn 2.434093 -1.248071 1.417897
v -0.209408 0.338950 0.337789
vn -2.434093 1.248071 -1.417897
v -0.209408 0.338950 0.337789
vn 2.695738 -1.600157 -0.014088
v -0.194570 0.326732 0.301693
vn 2.460658 -1.941602 -0.017017
v -0.193259 0.328601 0.306221
vn 2.695757 -1.599929 -0.014170
v -0.194570 0.326692 0.306204
vn 2.460549 -1.941490 -0.017032
v -0.193259 0.328640 0.301709
vn -2.460549 1.941490 0.017032
v -0.193259 0.328640 0.301709
vn -2.695738 1.600157 0.014088
v -0.194570 0.326732 0.301693
vn -2.460658 1.941602 0.017017
v -0.193259 0.328601 0.306221
vn -2.695757 1.599929 0.014170
v -0.194570 0.326692 0.306204
vn -1.436314 1.165218 -2.405562
v -0.193259 0.328640 0.301709
vn -1.394991 1.428103 -2.559440
v -0.178530 0.315695 0.286557
vn -1.596677 0.985513 -2.384664
v -0.194570 0.326732 0.301693
vn 1.596677 -0.985513 2.384664
v -0.194570 0.326732 0.301693
vn 1.394991 -1.428103 2.559440
v -0.178530 0.315695 0.286557
vn 1.436314 -1.165218 2.405562
v -0.193259 0.328640 0.301709
vn 1.673621 -2.263478 1.519589
v -0.189927 0.331879 0.301738
vn -1.673621 2.263478 -1.519589
v -0.189927 0.331879 0.301738
vn 2.185290 -2.247557 -0.019660
v -0.191702 0.330326 0.306236
vn 2.185262 -2.247700 -0.019907
v -0.191702 0.330366 0.301725
vn -2.185262 2.247700 0.019907
v -0.191702 0.330366 0.301725
vn -2.185290 2.247557 0.019660
v -0.191702 0.330326 0.306236
vn -1.276918 1.330783 -2.409887
v -0.191702 0.330366 0.301725
vn -1.192941 1.587686 -2.559132
v -0.177104 0.316926 0.286568
vn 1.192941 -1.587686 2.559132
v -0.177104 0.316926 0.286568
vn 1.276918 -1.330783 2.409887
v -0.191702 0.330366 0.301725
vn 2.624725 -1.109183 1.449340
v -0.195614 0.324674 0.301675
vn -2.624725 1.109183 -1.449340
v -0.195614 0.324674 0.301675
vn 2.883892 -1.228477 -0.010880
v -0.195614 0.324674 0.301675
vn 2.883806 -1.228410 -0.010879
v -0.195614 0.324634 0.306187
vn -2.883892 1.228477 0.010880
v -0.195614 0.324674 0.301675
vn -2.883806 1.228410 0.010879
v -0.195614 0.324634 0.306187
vn -1.599983 1.225083 -2.554076
v -0.179733 0.314331 0.286545
vn 1.599983 -1.225083 2.554076
v -0.179733 0.314331 0.286545
vn 1.874855 -2.512803 -0.021959
v -0.189927 0.331879 0.301738
vn 1.875205 -2.512946 -0.021851
v -0.189927 0.331840 0.306249
vn -1.875205 2.512946 0.021851
v -0.189927 0.331840 0.306249
vn -1.874855 2.512803 0.021959
v -0.189927 0.331879 0.301738
vn -1.103158 1.492624 -2.402562
v -0.189927 0.331879 0.301738
vn 1.103158 -1.492624 2.402562
v -0.189927 0.331879 0.301738
vn 1.775115 -2.019919 1.482723
v -0.204378 0.345567 0.337847
vn -1.775115 2.019919 -1.482723
v -0.204378 0.345567 0.337847
vn 2.587950 -0.961064 1.376092
v -0.210539 0.336304 0.337766
vn -2.587950 0.961064 -1.376092
v -0.210539 0.336304 0.337766
vn -1.749249 0.788437 -2.351900
v -0.195614 0.324674 0.301675
vn 1.749249 -0.788437 2.351900
v -0.195614 0.324674 0.301675
vn 3.021957 -0.833030 -0.007378
v -0.196373 0.322501 0.301656
vn 3.022010 -0.833080 -0.007348
v -0.196373 0.322461 0.306167
vn -3.021957 0.833030 0.007378
v -0.196373 0.322501 0.301656
vn -3.022010 0.833080 0.007348
v -0.196373 0.322461 0.306167
vn 0.000000 0.027193 -3.041287
v -0.167565 0.245512 0.285945
vn 0.000000 0.021876 -3.091994
v 0.132367 0.245405 0.285944
vn 0.000000 0.021876 -3.091994
v -0.165406 0.245405 0.285944
vn 0.000000 0.027192 -3.041218
v 0.134526 0.245512 0.285945
vn 0.000000 0.027681 -3.039414
v -0.169688 0.245832 0.285947
vn 0.000000 0.027681 -3.039484
v 0.136648 0.245832 0.285947
vn 0.000000 0.023603 -3.035421
v -0.171737 0.246359 0.285952
vn 0.000000 0.023604 -3.035590
v 0.138697 0.246359 0.285952
vn 0.000000 0.026046 -3.031212
v -0.173677 0.247084 0.285958
vn 0.000000 0.026043 -3.030819
v 0.140638 0.247084 0.285958
vn 0.000000 0.027562 -3.022761
v -0.175477 0.247994 0.285966
vn 0.000000 0.027564 -3.022985
v 0.142437 0.247994 0.285966
vn 0.000000 0.027095 -3.015872
v -0.177104 0.249076 0.285976
vn 0.000000 0.027098 -3.016219
v 0.144064 0.249076 0.285976
vn 0.000000 0.024716 -3.006204
v -0.178530 0.250308 0.285987
vn 0.000000 0.024710 -3.005445
v 0.145491 0.250308 0.285987
vn 0.000000 0.025870 -2.995508
v -0.179733 0.251671 0.285998
vn 0.000000 0.025873 -2.995920
v 0.146693 0.251671 0.285998
vn 0.000000 0.026874 -2.985064
v -0.180690 0.253141 0.286011
vn 0.000000 0.026879 -2.985600
v 0.147650 0.253141 0.286011
vn 0.000000 0.026060 -2.977579
v -0.181385 0.254694 0.286025
vn 0.000000 0.026055 -2.977043
v 0.148346 0.254694 0.286025
vn 0.000000 0.025715 -2.971237
v -0.181807 0.256301 0.286038
vn 0.000000 0.025710 -2.970630
v 0.148768 0.256301 0.286038
vn 0.000000 0.026658 -3.054901
v -0.181949 0.257937 0.286053
vn 0.000000 0.026663 -3.055508
v 0.148909 0.257937 0.286053
vn 0.000000 0.026658 -3.054901
v -0.181949 0.308065 0.286490
vn 0.000000 0.026663 -3.055508
v 0.148909 0.308065 0.286490
vn 0.000000 0.026365 -2.971324
v -0.181807 0.309701 0.286504
vn 0.000000 0.026360 -2.970718
v 0.148768 0.309701 0.286504
vn 0.000000 0.026373 -2.977337
v -0.181385 0.311308 0.286519
vn 0.000000 0.026368 -2.976801
v 0.148346 0.311308 0.286519
vn 0.000000 0.025858 -2.985219
v -0.180690 0.312861 0.286532
vn 0.000000 0.025862 -2.985756
v 0.147650 0.312861 0.286532
vn 0.000000 0.026365 -2.995725
v -0.179733 0.314331 0.286545
vn 0.000000 0.026369 -2.996138
v 0.146693 0.314331 0.286545
vn 0.000000 0.026050 -3.005971
v -0.178530 0.315695 0.286557
vn 0.000000 0.026043 -3.005212
v 0.145491 0.315695 0.286557
vn 0.000000 0.026662 -3.015617
v -0.177104 0.316926 0.286568
vn 0.000000 0.026665 -3.015964
v 0.144064 0.316926 0.286568
vn 0.000000 0.025791 -3.023657
v -0.175477 0.318007 0.286577
vn 0.000000 0.025793 -3.023881
v 0.142437 0.318007 0.286577
vn 0.000000 0.026879 -3.030225
v -0.173677 0.318919 0.286585
vn 0.000000 0.026875 -3.029832
v 0.140638 0.318919 0.286585
vn 0.000000 0.025941 -3.035761
v -0.171737 0.319643 0.286591
vn 0.000000 0.025942 -3.035930
v 0.138697 0.319643 0.286591
vn 0.000000 0.027681 -3.039414
v -0.169688 0.320170 0.286596
vn 0.000000 0.027681 -3.039484
v 0.136648 0.320170 0.286596
vn 0.000000 0.027193 -3.041287
v -0.167565 0.320491 0.286599
vn 0.000000 0.027192 -3.041218
v 0.134526 0.320491 0.286599
vn 0.000000 0.021876 -3.091994
v -0.165406 0.320598 0.286600
vn 0.000000 0.021876 -3.091994
v 0.132367 0.320598 0.286600
vn 0.000000 -0.021876 3.091994
v 0.132367 0.320598 0.286600
vn 0.000000 -0.021876 3.091994
v -0.165406 0.320598 0.286600
vn 0.000000 -0.027192 3.041218
v 0.134526 0.320491 0.286599
vn 0.000000 -0.027193 3.041287
v -0.167565 0.320491 0.286599
vn 0.000000 -0.027681 3.039484
v 0.136648 0.320170 0.286596
vn 0.000000 -0.027681 3.039414
v -0.169688 0.320170 0.286596
vn 0.000000 -0.025942 3.035930
v 0.138697 0.319643 0.286591
vn 0.000000 -0.025941 3.035761
v -0.171737 0.319643 0.286591
vn 0.000000 -0.026875 3.029832
v 0.140638 0.318919 0.286585
vn 0.000000 -0.026879 3.030225
v -0.173677 0.318919 0.286585
vn 0.000000 -0.025793 3.023881
v 0.142437 0.318007 0.286577
vn 0.000000 -0.025791 3.023657
v -0.175477 0.318007 0.286577
vn 0.000000 -0.026665 3.015964
v 0.144064 0.316926 0.286568
vn 0.000000 -0.026662 3.015617
v -0.177104 0.316926 0.286568
vn 0.000000 -0.026043 3.005212
v 0.145491 0.315695 0.286557
vn 0.000000 -0.026050 3.005971
v -0.178530 0.315695 0.286557
vn 0.000000 -0.026369 2.996138
v 0.146693 0.314331 0.286545
vn 0.000000 -0.026365 2.995725
v -0.179733 0.314331 0.286545
vn 0.000000 -0.025862 2.985756
v 0.147650 0.312861 0.286532
vn 0.000000 -0.025858 2.985219
v -0.180690 0.312861 0.286532
vn 0.000000 -0.026368 2.976801
v 0.148346 0.311308 0.286519
vn 0.000000 -0.026373 2.977337
v -0.181385 0.311308 0.286519
vn 0.000000 -0.026360 2.970718
v 0.148768 0.309701 0.286504
vn 0.000000 -0.026365 2.971324
v -0.181807 0.309701 0.286504
vn 0.000000 -0.026663 3.055508
v 0.148909 0.308065 0.286490
vn 0.000000 -0.026658 3.054901
v -0.181949 0.308065 0.286490
vn 0.000000 -0.026663 3.055508
v 0.148909 0.257937 0.286053
vn 0.000000 -0.026658 3.054901
v -0.181949 0.257937 0.286053
vn 0.000000 -0.025710 2.970630
v 0.148768 0.256301 0.286038
vn 0.000000 -0.025715 2.971237
v -0.181807 0.256301 0.286038
vn 0.000000 -0.026055 2.977043
v 0.148346 0.254694 0.286025
vn 0.000000 -0.026060 2.977579
v -0.181385 0.254694 0.286025
vn 0.000000 -0.026879 2.985600
v 0.147650 0.253141 0.286011
vn 0.000000 -0.026874 2.985064
v -0.180690 0.253141 0.286011
vn 0.000000 -0.025873 2.995920
v 0.146693 0.251671 0.285998
vn 0.000000 -0.025870 2.995508
v -0.179733 0.251671 0.285998
vn 0.000000 -0.024710 3.005445
v 0.145491 0.250308 0.285987
vn 0.000000 -0.024716 3.006204
v -0.178530 0.250308 0.285987
vn 0.000000 -0.027098 3.016219
v 0.144064 0.249076 0.285976
vn 0.000000 -0.027095 3.015872
v -0.177104 0.249076 0.285976
vn 0.000000 -0.027564 3.022985
v 0.142437 0.247994 0.285966
vn 0.000000 -0.027562 3.022761
v -0.175477 0.247994 0.285966
vn 0.000000 -0.026043 3.030819
v 0.140638 0.247084 0.285958
vn 0.000000 -0.026046 3.031212
v -0.173677 0.247084 0.285958
vn 0.000000 -0.023604 3.035590
v 0.138697 0.246359 0.285952
vn 0.000000 -0.023603 3.035421
v -0.171737 0.246359 0.285952
vn 0.000000 -0.027681 3.039484
v 0.136648 0.245832 0.285947
vn 0.000000 -0.027681 3.039414
v -0.169688 0.245832 0.285947
vn 0.000000 -0.027192 3.041218
v 0.134526 0.245512 0.285945
vn 0.000000 -0.027193 3.041287
v -0.167565 0.245512 0.285945
vn 0.000000 -0.021876 3.091994
v 0.132367 0.245405 0.285944
vn 0.000000 -0.021876 3.091994
v -0.165406 0.245405 0.285944
vn 1.534605 -2.733349 -0.023801
v -0.187964 0.333154 0.301749
vn 1.534314 -2.732801 -0.023794
v -0.187964 0.333115 0.306261
vn -1.534314 2.732801 0.023794
v -0.187964 0.333115 0.306261
vn -1.534605 2.733349 0.023801
v -0.187964 0.333154 0.301749
vn -0.985687 1.734078 -2.543832
v -0.175477 0.318007 0.286577
vn 0.985687 -1.734078 2.543832
v -0.175477 0.318007 0.286577
vn 1.368236 -2.472460 1.496073
v -0.187964 0.333154 0.301749
vn -1.368236 2.472460 -1.496073
v -0.187964 0.333154 0.301749
vn 2.777189 -0.752088 1.387838
v -0.196373 0.322501 0.301656
vn -2.777189 0.752088 -1.387838
v -0.196373 0.322501 0.301656
vn -1.804107 0.982006 -2.530407
v -0.180690 0.312861 0.286532
vn 1.804107 -0.982006 2.530407
v -0.180690 0.312861 0.286532
vn -1.892281 0.569945 -2.305644
v -0.196373 0.322501 0.301656
vn 1.892281 -0.569945 2.305644
v -0.196373 0.322501 0.301656
vn 3.105855 -0.420436 -0.003697
v -0.196834 0.320250 0.301636
vn 3.106041 -0.420513 -0.003667
v -0.196834 0.320210 0.306148
vn -3.105855 0.420436 0.003697
v -0.196834 0.320250 0.301636
vn -3.106041 0.420513 0.003667
v -0.196834 0.320210 0.306148
vn 1.095774 1.482171 -2.411898
v 0.156888 0.331879 0.301738
vn 0.993807 1.746945 -2.530976
v 0.142437 0.318007 0.286577
vn 0.796282 1.877777 -2.500409
v 0.140638 0.318919 0.286585
vn -0.796282 -1.877777 2.500409
v 0.140638 0.318919 0.286585
vn -0.993807 -1.746945 2.530976
v 0.142437 0.318007 0.286577
vn -1.095774 -1.482171 2.411898
v 0.156888 0.331879 0.301738
vn 1.270150 1.338241 -2.408989
v 0.158663 0.330366 0.301725
vn 1.182508 1.598802 -2.556694
v 0.144064 0.316926 0.286568
vn -1.182508 -1.598802 2.556694
v 0.144064 0.316926 0.286568
vn -1.270150 -1.338241 2.408989
v 0.158663 0.330366 0.301725
vn 1.383783 1.416429 -2.573492
v 0.145491 0.315695 0.286557
vn -1.383783 -1.416429 2.573492
v 0.145491 0.315695 0.286557
vn 1.446977 1.173245 -2.396480
v 0.160219 0.328640 0.301709
vn 1.588029 1.214888 -2.566795
v 0.146693 0.314331 0.286545
vn -1.588029 -1.214888 2.566795
v 0.146693 0.314331 0.286545
vn -1.446977 -1.173245 2.396480
v 0.160219 0.328640 0.301709
vn 1.607035 0.991285 -2.375421
v 0.161531 0.326732 0.301693
vn 1.792441 0.975235 -2.541572
v 0.147650 0.312861 0.286532
vn -1.792441 -0.975235 2.541572
v 0.147650 0.312861 0.286532
vn -1.607035 -0.991285 2.375421
v 0.161531 0.326732 0.301693
vn 1.759240 0.791607 -2.343823
v 0.162575 0.324674 0.301675
vn 1.991356 0.689102 -2.491895
v 0.148346 0.311308 0.286519
vn -1.991356 -0.689102 2.491895
v 0.148346 0.311308 0.286519
vn -1.759240 -0.791607 2.343823
v 0.162575 0.324674 0.301675
vn 1.900338 0.570561 -2.298781
v 0.163334 0.322501 0.301656
vn 2.172781 0.349870 -2.408128
v 0.148768 0.309701 0.286504
vn -2.172781 -0.349870 2.408128
v 0.148768 0.309701 0.286504
vn -1.900338 -0.570561 2.298781
v 0.163334 0.322501 0.301656
vn 2.028577 0.325886 -2.240039
v 0.163794 0.320250 0.301636
vn 2.239060 0.089210 -2.286693
v 0.148909 0.308065 0.286490
vn -2.239060 -0.089210 2.286693
v 0.148909 0.308065 0.286490
vn -2.028577 -0.325886 2.240039
v 0.163794 0.320250 0.301636
vn 2.239720 -0.050494 -2.287213
v 0.148909 0.257937 0.286053
vn 2.155307 0.110406 -2.215111
v 0.163948 0.317960 0.301616
vn 2.153631 -0.072694 -2.218403
v 0.163948 0.247780 0.301004
vn -2.239720 0.050494 2.287213
v 0.148909 0.257937 0.286053
vn -2.155307 -0.110406 2.215111
v 0.163948 0.317960 0.301616
vn -2.153631 0.072694 2.218403
v 0.163948 0.247780 0.301004
vn 2.176931 -0.310615 -2.409622
v 0.148768 0.256301 0.286038
vn -2.176931 0.310615 2.409622
v 0.148768 0.256301 0.286038
vn 2.023258 -0.287576 -2.249603
v 0.163794 0.245490 0.300984
vn 1.999970 -0.649786 -2.494679
v 0.148346 0.254694 0.286025
vn -1.999970 0.649786 2.494679
v 0.148346 0.254694 0.286025
vn -2.023258 0.287576 2.249603
v 0.163794 0.245490 0.300984
vn 1.892301 -0.529168 -2.314899
v 0.163334 0.243239 0.300965
vn 1.804053 -0.937605 -2.546977
v 0.147650 0.253141 0.286011
vn -1.804053 0.937605 2.546977
v 0.147650 0.253141 0.286011
vn -1.892301 0.529168 2.314899
v 0.163334 0.243239 0.300965
vn 1.749571 -0.746713 -2.365202
v 0.162575 0.241066 0.300946
vn 1.599442 -1.180235 -2.574480
v 0.146693 0.251671 0.285998
vn -1.599442 1.180235 2.574480
v 0.146693 0.251671 0.285998
vn -1.749571 0.746713 2.365202
v 0.162575 0.241066 0.300946
vn 1.596384 -0.944195 -2.401604
v 0.161531 0.239008 0.300927
vn 1.395010 -1.384133 -2.584748
v 0.145491 0.250308 0.285987
vn -1.395010 1.384133 2.584748
v 0.145491 0.250308 0.285987
vn -1.596384 0.944195 2.401604
v 0.161531 0.239008 0.300927
vn 1.436226 -1.123238 -2.425601
v 0.160219 0.237100 0.300911
vn 1.193063 -1.542196 -2.586038
v 0.144064 0.249076 0.285976
vn -1.193063 1.542196 2.586038
v 0.144064 0.249076 0.285976
vn -1.436226 1.123238 2.425601
v 0.160219 0.237100 0.300911
vn 1.103070 -1.450703 -2.428495
v 0.156888 0.233861 0.300882
vn 0.985812 -1.689658 -2.574105
v 0.142437 0.247994 0.285966
vn -0.985812 1.689658 2.574105
v 0.142437 0.247994 0.285966
vn -1.103070 1.450703 2.428495
v 0.156888 0.233861 0.300882
vn 0.919315 -1.594207 -2.415912
v 0.154925 0.232586 0.300871
vn 0.789547 -1.821290 -2.543110
v 0.140638 0.247084 0.285958
vn -0.789547 1.821290 2.543110
v 0.140638 0.247084 0.285958
vn -0.919315 1.594207 2.415912
v 0.154925 0.232586 0.300871
vn 0.725744 -1.731201 -2.390414
v 0.152808 0.231571 0.300862
vn 0.594106 -1.941934 -2.501144
v 0.138697 0.246359 0.285952
vn -0.594106 1.941934 2.501144
v 0.138697 0.246359 0.285952
vn -0.725744 1.731201 2.390414
v 0.152808 0.231571 0.300862
vn 0.518493 -1.862478 -2.346999
v 0.150573 0.230833 0.300856
vn 0.393664 -2.054739 -2.443402
v 0.136648 0.245832 0.285947
vn -0.393664 2.054739 2.443402
v 0.136648 0.245832 0.285947
vn -0.518493 1.862478 2.346999
v 0.150573 0.230833 0.300856
vn 0.293956 -1.991296 -2.283819
v 0.148257 0.230385 0.300852
vn 0.182727 -2.164349 -2.367615
v 0.134526 0.245512 0.285945
vn -0.182727 2.164349 2.367615
v 0.134526 0.245512 0.285945
vn -0.293956 1.991296 2.283819
v 0.148257 0.230385 0.300852
vn 0.090565 -2.128409 -2.245307
v 0.145902 0.230235 0.300851
vn 0.035545 -2.210082 -2.281275
v 0.132367 0.245405 0.285944
vn -0.035545 2.210082 2.281275
v 0.132367 0.245405 0.285944
vn -0.090565 2.128409 2.245307
v 0.145902 0.230235 0.300851
vn -0.036308 -2.210461 -2.280881
v -0.165406 0.245405 0.285944
vn -0.091164 -2.126681 -2.246906
v -0.178941 0.230235 0.300851
vn 0.036308 2.210461 2.280881
v -0.165406 0.245405 0.285944
vn 0.091164 2.126681 2.246906
v -0.178941 0.230235 0.300851
vn -0.184347 -2.167326 -2.364544
v -0.167565 0.245512 0.285945
vn -0.294608 -1.986021 -2.287987
v -0.181297 0.230385 0.300852
vn 0.294608 1.986021 2.287987
v -0.181297 0.230385 0.300852
vn 0.184347 2.167326 2.364544
v -0.167565 0.245512 0.285945
vn -0.396072 -2.061827 -2.436783
v -0.169688 0.245832 0.285947
vn -0.517604 -1.854483 -2.353271
v -0.183612 0.230833 0.300856
vn 0.517604 1.854483 2.353271
v -0.183612 0.230833 0.300856
vn 0.396072 2.061827 2.436783
v -0.169688 0.245832 0.285947
vn -0.598266 -1.952088 -2.491953
v -0.171737 0.246359 0.285952
vn -0.722797 -1.721283 -2.398050
v -0.185847 0.231571 0.300862
vn 0.722797 1.721283 2.398050
v -0.185847 0.231571 0.300862
vn 0.598266 1.952088 2.491953
v -0.171737 0.246359 0.285952
vn -0.795430 -1.833464 -2.531581
v -0.173677 0.247084 0.285958
vn -0.914098 -1.583453 -2.424492
v -0.187964 0.232586 0.300871
vn 0.914098 1.583453 2.424492
v -0.187964 0.232586 0.300871
vn 0.795430 1.833464 2.531581
v -0.173677 0.247084 0.285958
vn -0.993643 -1.703301 -2.561635
v -0.175477 0.247994 0.285966
vn -1.095708 -1.440159 -2.437596
v -0.189927 0.233861 0.300882
vn 1.095708 1.440159 2.437596
v -0.189927 0.233861 0.300882
vn 0.993643 1.703301 2.561635
v -0.175477 0.247994 0.285966
vn -1.183285 -1.553188 -2.584256
v -0.177104 0.249076 0.285976
vn -1.270565 -1.295893 -2.432299
v -0.191702 0.235374 0.300895
vn 1.270565 1.295893 2.432299
v -0.191702 0.235374 0.300895
vn 1.183285 1.553188 2.584256
v -0.177104 0.249076 0.285976
vn -1.383219 -1.371779 -2.597701
v -0.178530 0.250308 0.285987
vn 1.383219 1.371779 2.597701
v -0.178530 0.250308 0.285987
vn -1.587319 -1.170646 -2.587530
v -0.179733 0.251671 0.285998
vn -1.446379 -1.130993 -2.415754
v -0.193259 0.237100 0.300911
vn 1.446379 1.130993 2.415754
v -0.193259 0.237100 0.300911
vn 1.587319 1.170646 2.587530
v -0.179733 0.251671 0.285998
vn -1.793594 -0.929868 -2.558443
v -0.180690 0.253141 0.286011
vn -1.607533 -0.949823 -2.392807
v -0.194570 0.239008 0.300927
vn 1.607533 0.949823 2.392807
v -0.194570 0.239008 0.300927
vn 1.793594 0.929868 2.558443
v -0.180690 0.253141 0.286011
vn -1.991496 -0.644702 -2.502899
v -0.181385 0.254694 0.286025
vn -1.759665 -0.750033 -2.357103
v -0.195614 0.241066 0.300946
vn 1.759665 0.750033 2.357103
v -0.195614 0.241066 0.300946
vn 1.991496 0.644702 2.502899
v -0.181385 0.254694 0.286025
vn -2.172252 -0.308546 -2.413937
v -0.181807 0.256301 0.286038
vn -1.900469 -0.530595 -2.308688
v -0.196373 0.243239 0.300965
vn 1.900469 0.530595 2.308688
v -0.196373 0.243239 0.300965
vn 2.172252 0.308546 2.413937
v -0.181807 0.256301 0.286038
vn -2.239154 -0.049769 -2.288407
v -0.181949 0.257937 0.286053
vn -2.027913 -0.287339 -2.245223
v -0.196834 0.245490 0.300984
vn 2.027913 0.287339 2.245223
v -0.196834 0.245490 0.300984
vn 2.239154 0.049769 2.288407
v -0.181949 0.257937 0.286053
vn -2.153586 0.111200 -2.216699
v -0.196988 0.317960 0.301616
vn -2.155282 -0.071958 -2.216866
v -0.196988 0.247780 0.301004
vn -2.239843 0.090914 -2.286406
v -0.181949 0.308065 0.286490
vn 2.239843 -0.090914 2.286406
v -0.181949 0.308065 0.286490
vn 2.153586 -0.111200 2.216699
v -0.196988 0.317960 0.301616
vn 2.155282 0.071958 2.216866
v -0.196988 0.247780 0.301004
vn -2.176179 0.353386 -2.403638
v -0.181807 0.309701 0.286504
vn 2.176179 -0.353386 2.403638
v -0.181807 0.309701 0.286504
vn -2.022937 0.327096 -2.244250
v -0.196834 0.320250 0.301636
vn -1.999838 0.693074 -2.482842
v -0.181385 0.311308 0.286519
vn 1.999838 -0.693074 2.482842
v -0.181385 0.311308 0.286519
vn 2.022937 -0.327096 2.244250
v -0.196834 0.320250 0.301636
vn -0.919635 1.636135 -2.388000
v -0.187964 0.333154 0.301749
vn -0.790300 1.865510 -2.511644
v -0.173677 0.318919 0.286585
vn 0.790300 -1.865510 2.511644
v -0.173677 0.318919 0.286585
vn 0.919635 -1.636135 2.388000
v -0.187964 0.333154 0.301749
vn -0.725812 1.772371 -2.359549
v -0.185847 0.334169 0.301758
vn -0.594029 1.984932 -2.466420
v -0.171737 0.319643 0.286591
vn 0.594029 -1.984932 2.466420
v -0.171737 0.319643 0.286591
vn 0.725812 -1.772371 2.359549
v -0.185847 0.334169 0.301758
vn -0.518870 1.903368 -2.314620
v -0.183612 0.334907 0.301764
vn -0.393325 2.097352 -2.407153
v -0.169688 0.320170 0.286596
vn 0.393325 -2.097352 2.407153
v -0.169688 0.320170 0.286596
vn 0.518870 -1.903368 2.314620
v -0.183612 0.334907 0.301764
vn -0.293593 2.030705 -2.248273
v -0.181297 0.335355 0.301768
vn -0.182870 2.205363 -2.329619
v -0.167565 0.320491 0.286599
vn 0.182870 -2.205363 2.329619
v -0.167565 0.320491 0.286599
vn 0.293593 -2.030705 2.248273
v -0.181297 0.335355 0.301768
vn -0.090842 2.167260 -2.208042
v -0.178941 0.335505 0.301769
vn -0.035662 2.249427 -2.242320
v -0.165406 0.320598 0.286600
vn 0.035662 -2.249427 2.242320
v -0.165406 0.320598 0.286600
vn 0.090842 -2.167260 2.208042
v -0.178941 0.335505 0.301769
vn 0.091517 2.165493 -2.209676
v 0.145902 0.335505 0.301769
vn 0.036428 2.249802 -2.241918
v 0.132367 0.320598 0.286600
vn -0.036428 -2.249802 2.241918
v 0.132367 0.320598 0.286600
vn -0.091517 -2.165493 2.209676
v 0.145902 0.335505 0.301769
vn 0.294093 2.025750 -2.252566
v 0.148257 0.335355 0.301768
vn 0.184571 2.208303 -2.326610
v 0.134526 0.320491 0.286599
vn -0.184571 -2.208303 2.326610
v 0.134526 0.320491 0.286599
vn -0.294093 -2.025750 2.252566
v 0.148257 0.335355 0.301768
vn 0.517895 1.895361 -2.320975
v 0.150573 0.334907 0.301764
vn 0.395945 2.104119 -2.400425
v 0.136648 0.320170 0.286596
vn -0.395945 -2.104119 2.400425
v 0.136648 0.320170 0.286596
vn -0.517895 -1.895361 2.320975
v 0.150573 0.334907 0.301764
vn 0.722802 1.762596 -2.367372
v 0.152808 0.334169 0.301758
vn 0.597849 1.994975 -2.456762
v 0.138697 0.319643 0.286591
vn -0.597849 -1.994975 2.456762
v 0.138697 0.319643 0.286591
vn -0.722802 -1.762596 2.367372
v 0.152808 0.334169 0.301758
vn 0.914435 1.625511 -2.396770
v 0.154925 0.333154 0.301749
vn -0.914435 -1.625511 2.396770
v 0.154925 0.333154 0.301749
vn 1.171842 -2.908164 -0.025285
v -0.185847 0.334169 0.301758
vn 1.172045 -2.908650 -0.025291
v -0.185847 0.334130 0.306269
vn -1.172045 2.908650 0.025291
v -0.185847 0.334130 0.306269
vn -1.171842 2.908164 0.025285
v -0.185847 0.334169 0.301758
vn 1.492577 -2.242335 1.468658
v -0.202252 0.347207 0.337861
vn -1.492577 2.242335 -1.468658
v -0.202252 0.347207 0.337861
vn 2.709145 -0.662341 1.324944
v -0.211361 0.333509 0.337741
vn -2.709145 0.662341 -1.324944
v -0.211361 0.333509 0.337741
vn 2.884975 -0.372385 1.311503
v -0.196834 0.320250 0.301636
vn -2.884975 0.372385 -1.311503
v -0.196834 0.320250 0.301636
vn 3.138134 -0.105391 -0.000919
v -0.196988 0.317960 0.301616
vn 3.137961 -0.105381 -0.000919
v -0.196988 0.317920 0.306128
vn -3.138134 0.105391 0.000919
v -0.196988 0.317960 0.301616
vn -3.137961 0.105381 0.000919
v -0.196988 0.317920 0.306128
vn -3.138134 -0.105391 -0.000919
v 0.163948 0.317960 0.301616
vn -3.138144 0.105400 0.000933
v 0.163948 0.247740 0.305515
vn -3.137961 -0.105381 -0.000919
v 0.163948 0.317920 0.306128
vn -3.137973 0.105372 0.000933
v 0.163948 0.247780 0.301004
vn 3.137973 -0.105372 -0.000933
v 0.163948 0.247780 0.301004
vn 3.138134 0.105391 0.000919
v 0.163948 0.317960 0.301616
vn 3.138144 -0.105400 -0.000933
v 0.163948 0.247740 0.305515
vn 3.137961 0.105381 0.000919
v 0.163948 0.317920 0.306128
vn -2.865756 -0.105189 1.224130
v 0.178988 0.327671 0.337691
vn -2.911936 0.071296 1.241460
v 0.163948 0.247780 0.301004
vn -2.866207 0.083294 1.224771
v 0.178988 0.237440 0.336903
vn -2.912337 -0.093545 1.239383
v 0.163948 0.317960 0.301616
vn 2.912337 0.093545 -1.239383
v 0.163948 0.317960 0.301616
vn 2.865756 0.105189 -1.224130
v 0.178988 0.327671 0.337691
vn 2.911936 -0.071296 -1.241460
v 0.163948 0.247780 0.301004
vn 2.866207 -0.083294 -1.224771
v 0.178988 0.237440 0.336903
vn 1.277448 -1.287750 -2.432692
v 0.158663 0.235374 0.300895
vn -1.277448 1.287750 2.432692
v 0.158663 0.235374 0.300895
vn -0.129464 2.838311 1.264203
v 0.159437 0.214882 0.336706
vn 0.073220 2.898915 1.268921
v -0.178941 0.230235 0.300851
vn 0.128891 2.838940 1.262920
v -0.192476 0.214882 0.336706
vn -0.073912 2.899151 1.268327
v 0.145902 0.230235 0.300851
vn 0.073912 -2.899151 -1.268327
v 0.145902 0.230235 0.300851
vn 0.129464 -2.838311 -1.264203
v 0.159437 0.214882 0.336706
vn -0.073220 -2.898915 -1.268921
v -0.178941 0.230235 0.300851
vn -0.128891 -2.838940 -1.262920
v -0.192476 0.214882 0.336706
vn -0.100138 3.138498 0.027796
v 0.145902 0.230195 0.305362
vn 0.099685 3.138417 0.027795
v -0.178941 0.230235 0.300851
vn 0.099972 3.138510 0.027649
v -0.178941 0.230195 0.305362
vn -0.099851 3.138407 0.027648
v 0.145902 0.230235 0.300851
vn 0.099851 -3.138407 -0.027648
v 0.145902 0.230235 0.300851
vn 0.100138 -3.138498 -0.027796
v 0.145902 0.230195 0.305362
vn -0.099685 -3.138417 -0.027795
v -0.178941 0.230235 0.300851
vn -0.099972 -3.138510 -0.027649
v -0.178941 0.230195 0.305362
vn 2.912219 0.071981 1.240710
v -0.196988 0.247780 0.301004
vn 2.866449 -0.104134 1.223021
v -0.212027 0.327671 0.337691
vn 2.865968 0.083258 1.225665
v -0.212027 0.237440 0.336903
vn 2.912104 -0.092857 1.240023
v -0.196988 0.317960 0.301616
vn -2.912104 0.092857 -1.240023
v -0.196988 0.317960 0.301616
vn -2.912219 -0.071981 -1.240710
v -0.196988 0.247780 0.301004
vn -2.866449 0.104134 -1.223021
v -0.212027 0.327671 0.337691
vn -2.865968 -0.083258 -1.225665
v -0.212027 0.237440 0.336903
vn 3.137973 0.105372 0.000933
v -0.196988 0.247780 0.301004
vn 3.138144 0.105400 0.000933
v -0.196988 0.247740 0.305515
vn -3.137973 -0.105372 -0.000933
v -0.196988 0.247780 0.301004
vn -3.138144 -0.105400 -0.000933
v -0.196988 0.247740 0.305515
vn -0.099713 -3.138200 -0.027370
v 0.145902 0.335505 0.301769
vn 0.100066 -3.138051 -0.027368
v -0.178941 0.335465 0.306281
vn 0.099795 -3.138194 -0.027516
v -0.178941 0.335505 0.301769
vn -0.099985 -3.138055 -0.027515
v 0.145902 0.335465 0.306281
vn 0.099985 3.138055 0.027515
v 0.145902 0.335465 0.306281
vn 0.099713 3.138200 0.027370
v 0.145902 0.335505 0.301769
vn -0.100066 3.138051 0.027368
v -0.178941 0.335465 0.306281
vn -0.099795 3.138194 0.027516
v -0.178941 0.335505 0.301769
vn 0.073963 -2.920650 1.217465
v -0.178941 0.335505 0.301769
vn -0.128603 -2.860291 1.212972
v 0.159437 0.350229 0.337888
vn 0.129162 -2.859699 1.214234
v -0.192476 0.350229 0.337888
vn -0.073346 -2.920436 1.218079
v 0.145902 0.335505 0.301769
vn 0.073346 2.920436 -1.218079
v 0.145902 0.335505 0.301769
vn -0.073963 2.920650 -1.217465
v -0.178941 0.335505 0.301769
vn 0.128603 2.860291 -1.212972
v 0.159437 0.350229 0.337888
vn -0.129162 2.859699 -1.214234
v -0.192476 0.350229 0.337888
vn 1.042738 -2.648494 1.453122
v -0.185847 0.334169 0.301758
vn -1.042738 2.648494 -1.453122
v -0.185847 0.334169 0.301758
vn 0.790862 -3.033231 -0.026412
v -0.183612 0.334907 0.301764
vn 0.790478 -3.033224 -0.026599
v -0.183612 0.334868 0.306276
vn -0.790478 3.033224 0.026599
v -0.183612 0.334868 0.306276
vn -0.790862 3.033231 0.026412
v -0.183612 0.334907 0.301764
vn 2.797493 -0.353368 1.265798
v -0.211860 0.330615 0.337716
vn -2.797493 0.353368 -1.265798
v -0.211860 0.330615 0.337716
vn -1.874735 -2.512901 -0.021851
v 0.156888 0.331879 0.301738
vn -1.534371 -2.732769 -0.023796
v 0.154925 0.333115 0.306261
vn -1.534662 -2.733317 -0.023798
v 0.154925 0.333154 0.301749
vn -1.875085 -2.513042 -0.021961
v 0.156888 0.331840 0.306249
vn 1.875085 2.513042 0.021961
v 0.156888 0.331840 0.306249
vn 1.874735 2.512901 0.021851
v 0.156888 0.331879 0.301738
vn 1.534371 2.732769 0.023796
v 0.154925 0.333115 0.306261
vn 1.534662 2.733317 0.023798
v 0.154925 0.333154 0.301749
vn -1.495448 -2.247596 1.459071
v 0.169212 0.347207 0.337861
vn -1.364906 -2.467798 1.507854
v 0.154925 0.333154 0.301749
vn -1.669438 -2.258498 1.532740
v 0.156888 0.331879 0.301738
vn 1.669438 2.258498 -1.532740
v 0.156888 0.331879 0.301738
vn 1.364906 2.467798 -1.507854
v 0.154925 0.333154 0.301749
vn 1.495448 2.247596 -1.459071
v 0.169212 0.347207 0.337861
vn -2.185636 -2.247311 -0.019658
v 0.158663 0.330366 0.301725
vn -2.185664 -2.247164 -0.019902
v 0.158663 0.330326 0.306236
vn 2.185664 2.247164 0.019902
v 0.158663 0.330326 0.306236
vn 2.185636 2.247311 0.019658
v 0.158663 0.330366 0.301725
vn -1.779035 -2.024514 1.472098
v 0.171339 0.345567 0.337847
vn -1.957266 -2.015615 1.531643
v 0.158663 0.330366 0.301725
vn 1.957266 2.015615 -1.531643
v 0.158663 0.330366 0.301725
vn 1.779035 2.024514 -1.472098
v 0.171339 0.345567 0.337847
vn -2.460773 -1.941570 -0.017032
v 0.160219 0.328601 0.306221
vn -2.460664 -1.941458 -0.017016
v 0.160219 0.328640 0.301709
vn 2.460664 1.941458 0.017016
v 0.160219 0.328640 0.301709
vn 2.460773 1.941570 0.017032
v 0.160219 0.328601 0.306221
vn -2.211512 -1.747628 1.511725
v 0.160219 0.328640 0.301709
vn -2.243083 -1.519239 1.459540
v 0.174947 0.341404 0.337810
vn 2.243083 1.519239 -1.459540
v 0.174947 0.341404 0.337810
vn 2.211512 1.747628 -1.511725
v 0.160219 0.328640 0.301709
vn -2.695400 -1.600448 -0.014090
v 0.161531 0.326692 0.306204
vn -2.695381 -1.600675 -0.014176
v 0.161531 0.326732 0.301693
vn 2.695381 1.600675 0.014176
v 0.161531 0.326732 0.301693
vn 2.695400 1.600448 0.014090
v 0.161531 0.326692 0.306204
vn -2.437835 -1.444375 1.483519
v 0.161531 0.326732 0.301693
vn -2.429008 -1.246686 1.427372
v 0.176368 0.338950 0.337789
vn 2.429008 1.246686 -1.427372
v 0.176368 0.338950 0.337789
vn 2.437835 1.444375 -1.483519
v 0.161531 0.326732 0.301693
vn -2.883806 -1.228410 -0.010879
v 0.162575 0.324634 0.306187
vn -2.883892 -1.228477 -0.010880
v 0.162575 0.324674 0.301675
vn 2.883892 1.228477 0.010880
v 0.162575 0.324674 0.301675
vn 2.883806 1.228410 0.010879
v 0.162575 0.324634 0.306187
vn -2.628647 -1.111673 1.439300
v 0.162575 0.324674 0.301675
vn -2.583314 -0.960732 1.383955
v 0.177500 0.336304 0.337766
vn 2.583314 0.960732 -1.383955
v 0.177500 0.336304 0.337766
vn 2.628647 1.111673 -1.439300
v 0.162575 0.324674 0.301675
vn -2.780231 -0.753292 1.380663
v 0.163334 0.322501 0.301656
vn -2.705927 -0.662149 1.330703
v 0.178322 0.333509 0.337741
vn 2.705927 0.662149 -1.330703
v 0.178322 0.333509 0.337741
vn 2.780231 0.753292 -1.380663
v 0.163334 0.322501 0.301656
vn -3.022139 -0.832448 -0.007373
v 0.163334 0.322461 0.306167
vn -3.022086 -0.832399 -0.007342
v 0.163334 0.322501 0.301656
vn 3.022086 0.832399 0.007342
v 0.163334 0.322501 0.301656
vn 3.022139 0.832448 0.007373
v 0.163334 0.322461 0.306167
vn -3.106180 -0.419832 -0.003691
v 0.163794 0.320210 0.306148
vn -3.105995 -0.419755 -0.003661
v 0.163794 0.320250 0.301636
vn 3.105995 0.419755 0.003661
v 0.163794 0.320250 0.301636
vn 3.106180 0.419832 0.003691
v 0.163794 0.320210 0.306148
vn -2.886151 -0.373326 1.307909
v 0.163794 0.320250 0.301636
vn -2.796046 -0.354124 1.269279
v 0.178820 0.330615 0.337716
vn 2.796046 0.354124 -1.269279
v 0.178820 0.330615 0.337716
vn 2.886151 0.373326 -1.307909
v 0.163794 0.320250 0.301636
vn -3.106030 0.419976 0.003719
v 0.163794 0.245450 0.305495
vn -3.106173 0.419871 0.003680
v 0.163794 0.245490 0.300984
vn 3.106173 -0.419871 -0.003680
v 0.163794 0.245490 0.300984
vn 3.106030 -0.419976 -0.003719
v 0.163794 0.245450 0.305495
vn -2.797883 0.331287 1.271985
v 0.178820 0.234496 0.336877
vn 2.797883 -0.331287 -1.271985
v 0.178820 0.234496 0.336877
vn -2.885116 0.349079 1.317746
v 0.163794 0.245490 0.300984
vn 2.885116 -0.349079 -1.317746
v 0.163794 0.245490 0.300984
vn -2.777569 0.727147 1.400708
v 0.163334 0.243239 0.300965
vn -2.708847 0.638787 1.336082
v 0.178322 0.231602 0.336853
vn 2.708847 -0.638787 -1.336082
v 0.178322 0.231602 0.336853
vn 2.777569 -0.727147 -1.400708
v 0.163334 0.243239 0.300965
vn -3.022301 0.832414 0.007265
v 0.163334 0.243200 0.305475
vn -3.022144 0.832418 0.007290
v 0.163334 0.243239 0.300965
vn 3.022144 -0.832418 -0.007290
v 0.163334 0.243239 0.300965
vn 3.022301 -0.832414 -0.007265
v 0.163334 0.243200 0.305475
vn -2.625049 1.083435 1.468459
v 0.162575 0.241066 0.300946
vn -2.587847 0.937211 1.392712
v 0.177500 0.228809 0.336828
vn 2.587847 -0.937211 -1.392712
v 0.177500 0.228809 0.336828
vn 2.625049 -1.083435 -1.468459
v 0.162575 0.241066 0.300946
vn -2.883683 1.228272 0.010814
v 0.162575 0.241026 0.305457
vn -2.884171 1.228449 0.010813
v 0.162575 0.241066 0.300946
vn 2.884171 -1.228449 -0.010813
v 0.162575 0.241066 0.300946
vn 2.883683 -1.228272 -0.010814
v 0.162575 0.241026 0.305457
vn -2.432663 1.414271 1.520191
v 0.161531 0.239008 0.300927
vn -2.433866 1.223316 1.439370
v 0.176368 0.226162 0.336805
vn 2.433866 -1.223316 -1.439370
v 0.176368 0.226162 0.336805
vn 2.432663 -1.414271 -1.520191
v 0.161531 0.239008 0.300927
vn -2.695273 1.600231 0.014023
v 0.161531 0.238968 0.305439
vn -2.694828 1.600017 0.014038
v 0.161531 0.239008 0.300927
vn 2.694828 -1.600017 -0.014038
v 0.161531 0.239008 0.300927
vn 2.695273 -1.600231 -0.014023
v 0.161531 0.238968 0.305439
vn -2.206962 1.717075 1.555669
v 0.160219 0.237100 0.300911
vn -2.248689 1.496673 1.475665
v 0.174947 0.223709 0.336783
vn 2.248689 -1.496673 -1.475665
v 0.174947 0.223709 0.336783
vn 2.206962 -1.717075 -1.555669
v 0.160219 0.237100 0.300911
vn -2.461051 1.942012 0.017115
v 0.160219 0.237060 0.305422
vn -2.461267 1.942100 0.017101
v 0.160219 0.237100 0.300911
vn 2.461267 -1.942100 -0.017101
v 0.160219 0.237100 0.300911
vn 2.461051 -1.942012 -0.017115
v 0.160219 0.237060 0.305422
vn -1.950099 1.995631 1.566162
v 0.158663 0.235374 0.300895
vn -2.024817 1.756393 1.504243
v 0.173261 0.221489 0.336764
vn 2.024817 -1.756393 -1.504243
v 0.173261 0.221489 0.336764
vn 1.950099 -1.995631 -1.566162
v 0.158663 0.235374 0.300895
vn -2.185234 2.247243 0.019698
v 0.158663 0.235335 0.305408
vn -2.185438 2.247196 0.019599
v 0.158663 0.235374 0.300895
vn 2.185438 -2.247196 -0.019599
v 0.158663 0.235374 0.300895
vn 2.185234 -2.247243 -0.019698
v 0.158663 0.235335 0.305408
vn -1.673249 2.236397 1.558617
v 0.156888 0.233861 0.300882
vn 1.673249 -2.236397 -1.558617
v 0.156888 0.233861 0.300882
vn -1.874466 2.512470 0.021912
v 0.156888 0.233861 0.300882
vn -1.874771 2.512467 0.022036
v 0.156888 0.233822 0.305394
vn 1.874466 -2.512470 -0.021912
v 0.156888 0.233861 0.300882
vn 1.874771 -2.512467 -0.022036
v 0.156888 0.233822 0.305394
vn -1.774995 1.993698 1.517683
v 0.171339 0.219544 0.336747
vn -1.368392 2.446418 1.539235
v 0.154925 0.232586 0.300871
vn 1.368392 -2.446418 -1.539235
v 0.154925 0.232586 0.300871
vn 1.774995 -1.993698 -1.517683
v 0.171339 0.219544 0.336747
vn -1.535018 2.733769 0.024088
v 0.154925 0.232586 0.300871
vn -1.535088 2.733417 0.024208
v 0.154925 0.232546 0.305383
vn 1.535018 -2.733769 -0.024088
v 0.154925 0.232586 0.300871
vn 1.535088 -2.733417 -0.024208
v 0.154925 0.232546 0.305383
vn -1.492709 2.216307 1.507612
v 0.169212 0.217905 0.336733
vn -1.042364 2.622311 1.498842
v 0.152808 0.231571 0.300862
vn 1.042364 -2.622311 -1.498842
v 0.152808 0.231571 0.300862
vn 1.492709 -2.216307 -1.507612
v 0.169212 0.217905 0.336733
vn -1.171593 2.907580 0.025751
v 0.152808 0.231571 0.300862
vn -1.171384 2.908024 0.025573
v 0.152808 0.231531 0.305374
vn 1.171593 -2.907580 -0.025751
v 0.152808 0.231571 0.300862
vn 1.171384 -2.908024 -0.025573
v 0.152808 0.231531 0.305374
vn -1.177814 2.416902 1.476755
v 0.166919 0.216600 0.336721
vn -0.697853 2.765013 1.437132
v 0.150573 0.230833 0.300856
vn 0.697853 -2.765013 -1.437132
v 0.150573 0.230833 0.300856
vn 1.177814 -2.416902 -1.476755
v 0.166919 0.216600 0.336721
vn -0.790837 3.034100 0.026520
v 0.150573 0.230833 0.300856
vn -0.790573 3.034220 0.026382
v 0.150573 0.230794 0.305367
vn 0.790837 -3.034100 -0.026520
v 0.150573 0.230833 0.300856
vn 0.790573 -3.034220 -0.026382
v 0.150573 0.230794 0.305367
vn -0.829449 2.589160 1.420913
v 0.164497 0.215651 0.336713
vn -0.335630 2.869204 1.350800
v 0.148257 0.230385 0.300852
vn 0.335630 -2.869204 -1.350800
v 0.148257 0.230385 0.300852
vn 0.829449 -2.589160 -1.420913
v 0.164497 0.215651 0.336713
vn -0.397924 3.109429 0.027075
v 0.148257 0.230385 0.300852
vn -0.398242 3.109081 0.027262
v 0.148257 0.230346 0.305364
vn 0.397924 -3.109429 -0.027075
v 0.148257 0.230385 0.300852
vn 0.398242 -3.109081 -0.027262
v 0.148257 0.230346 0.305364
vn -0.450910 2.726369 1.337632
v 0.161989 0.215076 0.336709
vn 0.450910 -2.726369 -1.337632
v 0.161989 0.215076 0.336709
vn 0.334348 2.868029 1.354036
v -0.181297 0.230385 0.300852
vn -0.334348 -2.868029 -1.354036
v -0.181297 0.230385 0.300852
vn 0.398093 3.109405 0.027265
v -0.181297 0.230385 0.300852
vn 0.398411 3.109060 0.027072
v -0.181297 0.230346 0.305364
vn -0.398093 -3.109405 -0.027265
v -0.181297 0.230385 0.300852
vn -0.398411 -3.109060 -0.027072
v -0.181297 0.230346 0.305364
vn 0.696219 2.762241 1.443826
v -0.183612 0.230833 0.300856
vn 0.450192 2.728553 1.333825
v -0.195028 0.215076 0.336709
vn -0.450192 -2.728553 -1.333825
v -0.195028 0.215076 0.336709
vn -0.696219 -2.762241 -1.443826
v -0.183612 0.230833 0.300856
vn 0.791144 3.034022 0.026381
v -0.183612 0.230833 0.300856
vn 0.790880 3.034139 0.026520
v -0.183612 0.230794 0.305367
vn -0.791144 -3.034022 -0.026381
v -0.183612 0.230833 0.300856
vn -0.790880 -3.034139 -0.026520
v -0.183612 0.230794 0.305367
vn 1.039876 2.618312 1.508415
v -0.185847 0.231571 0.300862
vn 0.829629 2.592893 1.414632
v -0.197536 0.215651 0.336713
vn -0.829629 -2.592893 -1.414632
v -0.197536 0.215651 0.336713
vn -1.039876 -2.618312 -1.508415
v -0.185847 0.231571 0.300862
vn 1.171446 2.907630 0.025569
v -0.185847 0.231571 0.300862
vn 1.171237 2.908071 0.025755
v -0.185847 0.231531 0.305374
vn -1.171446 -2.907630 -0.025569
v -0.185847 0.231571 0.300862
vn -1.171237 -2.908071 -0.025755
v -0.185847 0.231531 0.305374
vn 1.365050 2.441523 1.550990
v -0.187964 0.232586 0.300871
vn 1.179057 2.421917 1.468545
v -0.199958 0.216600 0.336721
vn -1.179057 -2.421917 -1.468545
v -0.199958 0.216600 0.336721
vn -1.365050 -2.441523 -1.550990
v -0.187964 0.232586 0.300871
vn 1.534931 2.733825 0.024212
v -0.187964 0.232586 0.300871
vn 1.535001 2.733475 0.024085
v -0.187964 0.232546 0.305383
vn -1.534931 -2.733825 -0.024212
v -0.187964 0.232586 0.300871
vn -1.535001 -2.733475 -0.024085
v -0.187964 0.232546 0.305383
vn 1.669062 2.231169 1.571716
v -0.189927 0.233861 0.300882
vn 1.495487 2.221281 1.497919
v -0.202252 0.217905 0.336733
vn -1.495487 -2.221281 -1.497919
v -0.202252 0.217905 0.336733
vn -1.669062 -2.231169 -1.571716
v -0.189927 0.233861 0.300882
vn 1.874553 2.512412 0.022036
v -0.189927 0.233861 0.300882
vn 1.874859 2.512411 0.021912
v -0.189927 0.233822 0.305394
vn -1.874553 -2.512412 -0.022036
v -0.189927 0.233861 0.300882
vn -1.874859 -2.512411 -0.021912
v -0.189927 0.233822 0.305394
vn 1.956999 1.988431 1.566431
v -0.191702 0.235374 0.300895
vn 1.779145 1.998893 1.507437
v -0.204378 0.219544 0.336747
vn -1.779145 -1.998893 -1.507437
v -0.204378 0.219544 0.336747
vn -1.956999 -1.988431 -1.566431
v -0.191702 0.235374 0.300895
vn 2.185046 2.247629 0.019702
v -0.191702 0.235374 0.300895
vn 2.184842 2.247679 0.019603
v -0.191702 0.235335 0.305408
vn -2.185046 -2.247629 -0.019702
v -0.191702 0.235374 0.300895
vn -2.184842 -2.247679 -0.019603
v -0.191702 0.235335 0.305408
vn 2.212211 1.721582 1.542525
v -0.193259 0.237100 0.300911
vn 2.243444 1.493455 1.485990
v -0.207987 0.223709 0.336783
vn -2.243444 -1.493455 -1.485990
v -0.207987 0.223709 0.336783
vn -2.212211 -1.721582 -1.542525
v -0.193259 0.237100 0.300911
vn 2.461127 1.941804 0.017098
v -0.193259 0.237060 0.305422
vn 2.461343 1.941892 0.017114
v -0.193259 0.237100 0.300911
vn -2.461343 -1.941892 -0.017114
v -0.193259 0.237100 0.300911
vn -2.461127 -1.941804 -0.017098
v -0.193259 0.237060 0.305422
vn 2.437491 1.417404 1.508069
v -0.194570 0.239008 0.300927
vn 2.428870 1.220932 1.448644
v -0.209408 0.226162 0.336805
vn -2.428870 -1.220932 -1.448644
v -0.209408 0.226162 0.336805
vn -2.437491 -1.417404 -1.508069
v -0.194570 0.239008 0.300927
vn 2.695524 1.599878 0.014037
v -0.194570 0.238968 0.305439
vn 2.695079 1.599665 0.014018
v -0.194570 0.239008 0.300927
vn -2.695079 -1.599665 -0.014018
v -0.194570 0.239008 0.300927
vn -2.695524 -1.599878 -0.014037
v -0.194570 0.238968 0.305439
vn 2.628963 1.086071 1.458505
v -0.195614 0.241066 0.300946
vn 2.583871 0.935987 1.400597
v -0.210539 0.228809 0.336828
vn -2.583871 -0.935987 -1.400597
v -0.210539 0.228809 0.336828
vn -2.628963 -1.086071 -1.458505
v -0.195614 0.241066 0.300946
vn 2.883727 1.228172 0.010810
v -0.195614 0.241026 0.305457
vn 2.884215 1.228348 0.010815
v -0.195614 0.241066 0.300946
vn -2.884215 -1.228348 -0.010815
v -0.195614 0.241066 0.300946
vn -2.883727 -1.228172 -0.010810
v -0.195614 0.241026 0.305457
vn 2.779900 0.729719 1.393667
v -0.196373 0.243239 0.300965
vn 2.705673 0.639343 1.342111
v -0.211361 0.231602 0.336853
vn -2.705673 -0.639343 -1.342111
v -0.211361 0.231602 0.336853
vn -2.779900 -0.729719 -1.393667
v -0.196373 0.243239 0.300965
vn 3.022142 0.833153 0.007296
v -0.196373 0.243200 0.305475
vn 3.021986 0.833157 0.007271
v -0.196373 0.243239 0.300965
vn -3.021986 -0.833157 -0.007271
v -0.196373 0.243239 0.300965
vn -3.022142 -0.833153 -0.007296
v -0.196373 0.243200 0.305475
vn 2.886337 0.351137 1.314472
v -0.196834 0.245490 0.300984
vn 2.795796 0.332169 1.275251
v -0.211860 0.234496 0.336877
vn -2.795796 -0.332169 -1.275251
v -0.211860 0.234496 0.336877
vn -2.886337 -0.351137 -1.314472
v -0.196834 0.245490 0.300984
vn 3.105902 0.420601 0.003686
v -0.196834 0.245450 0.305495
vn 3.106045 0.420495 0.003724
v -0.196834 0.245490 0.300984
vn -3.106045 -0.420495 -0.003724
v -0.196834 0.245490 0.300984
vn -3.105902 -0.420601 -0.003686
v -0.196834 0.245450 0.305495
vn 0.697757 -2.788951 1.388272
v -0.183612 0.334907 0.301764
vn 1.177543 -2.442525 1.434269
v -0.199958 0.348511 0.337872
vn -1.177543 2.442525 -1.434269
v -0.199958 0.348511 0.337872
vn -0.697757 2.788951 -1.388272
v -0.183612 0.334907 0.301764
vn 0.335713 -2.892899 1.300766
v -0.181297 0.335355 0.301768
vn 0.830049 -2.613009 1.375490
v -0.197536 0.349460 0.337881
vn -0.830049 2.613009 -1.375490
v -0.197536 0.349460 0.337881
vn -0.335713 2.892899 -1.300766
v -0.181297 0.335355 0.301768
vn 0.397935 -3.110025 -0.027399
v -0.181297 0.335355 0.301768
vn 0.397948 -3.110152 -0.027398
v -0.181297 0.335315 0.306280
vn -0.397948 3.110152 0.027398
v -0.181297 0.335315 0.306280
vn -0.397935 3.110025 0.027399
v -0.181297 0.335355 0.301768
vn 0.451142 -2.749863 1.290160
v -0.195028 0.350036 0.337885
vn -0.451142 2.749863 -1.290160
v -0.195028 0.350036 0.337885
vn -0.398097 -3.110015 -0.027397
v 0.148257 0.335355 0.301768
vn -0.398110 -3.110142 -0.027400
v 0.148257 0.335315 0.306280
vn 0.398110 3.110142 0.027400
v 0.148257 0.335315 0.306280
vn 0.398097 3.110015 0.027397
v 0.148257 0.335355 0.301768
vn -0.334287 -2.891744 1.303964
v 0.148257 0.335355 0.301768
vn 0.334287 2.891744 -1.303964
v 0.148257 0.335355 0.301768
vn -0.790652 -3.033266 -0.026599
v 0.150573 0.334907 0.301764
vn -0.790268 -3.033262 -0.026412
v 0.150573 0.334868 0.306276
vn 0.790268 3.033262 0.026412
v 0.150573 0.334868 0.306276
vn 0.790652 3.033266 0.026599
v 0.150573 0.334907 0.301764
vn -0.450397 -2.751993 1.286301
v 0.161989 0.350036 0.337885
vn -0.695895 -2.786411 1.395032
v 0.150573 0.334907 0.301764
vn 0.695895 2.786411 -1.395032
v 0.150573 0.334907 0.301764
vn 0.450397 2.751993 -1.286301
v 0.161989 0.350036 0.337885
vn -1.171778 -2.908190 -0.025287
v 0.152808 0.334169 0.301758
vn -1.171981 -2.908676 -0.025289
v 0.152808 0.334130 0.306269
vn 1.171981 2.908676 0.025289
v 0.152808 0.334130 0.306269
vn 1.171778 2.908190 0.025287
v 0.152808 0.334169 0.301758
vn -0.830242 -2.616641 1.369124
v 0.164497 0.349460 0.337881
vn -1.040278 -2.644657 1.462751
v 0.152808 0.334169 0.301758
vn 1.040278 2.644657 -1.462751
v 0.152808 0.334169 0.301758
vn 0.830242 2.616641 -1.369124
v 0.164497 0.349460 0.337881
vn -1.179180 -2.446954 1.425946
v 0.166919 0.348511 0.337872
vn 1.179180 2.446954 -1.425946
v 0.166919 0.348511 0.337872
vn -2.030040 -1.776757 1.473113
v 0.173261 0.343622 0.337830
vn 2.030040 1.776757 -1.473113
v 0.173261 0.343622 0.337830
vn 2.029849 1.750691 1.503860
v -0.206301 0.221489 0.336764
vn -2.029849 -1.750691 -1.503860
v -0.206301 0.221489 0.336764
# 728 vertices, 0 vertices normals


usemtl material_0
vt 0.119988 0.563228
vt 0.095347 0.575232
vt 0.094713 0.573491
f 1/1/1 2/2/2 3/3/3
f 4/3/4 5/2/5 6/1/6
vt 0.117551 0.571534
vt 0.092180 0.581560
vt 0.117071 0.570071
f 1/4/1 3/5/3 7/6/7
f 8/6/8 4/5/4 6/4/6
vt 0.125807 0.547576
vt 0.100822 0.558711
vt 0.125189 0.546160
f 9/7/9 2/8/2 1/9/1
f 6/9/6 5/8/5 10/7/10
vt 0.112710 0.581366
vt 0.087649 0.592479
vt 0.087155 0.590659
f 7/10/7 3/11/3 11/12/11
f 12/12/12 4/11/4 8/10/8
vt 0.023930 0.578164
vt 0.020930 0.579703
vt 0.020930 0.578164
f 13/13/13 14/14/14 15/15/15
vt 0.023930 0.579703
f 14/14/14 13/13/13 16/16/16
f 17/16/17 18/13/18 19/14/19
f 20/15/20 19/14/19 18/13/18
vt -0.162561 0.571575
vt -0.176187 0.562309
vt -0.161824 0.570223
f 21/17/21 22/18/22 23/19/23
f 24/19/24 25/18/25 26/17/26
vt 0.134359 0.516013
vt 0.109066 0.526770
vt 0.133596 0.514663
f 27/20/27 2/21/2 9/22/9
f 10/22/10 5/21/5 28/20/28
vt 0.023930 0.550590
vt 0.020930 0.552136
vt 0.020930 0.550590
f 16/23/16 29/24/29 14/25/14
vt 0.023930 0.552136
f 29/24/29 16/23/16 30/26/30
f 31/26/31 17/23/17 32/24/32
f 19/25/19 32/24/32 17/23/17
vt -0.167287 0.559918
vt -0.180644 0.550056
vt -0.166385 0.558664
f 33/27/33 34/28/34 21/29/21
f 26/29/26 35/28/35 36/27/36
vt 0.110158 0.587737
vt 0.084532 0.596831
vt 0.109806 0.586243
f 7/30/7 11/31/11 37/32/37
f 38/32/38 12/31/12 8/30/8
vt 0.023930 0.595794
vt 0.020930 0.597329
vt 0.020930 0.595794
f 39/33/39 15/34/15 40/35/40
vt 0.023930 0.597329
f 15/34/15 39/33/39 13/36/13
f 18/36/18 41/33/41 20/34/20
f 42/35/42 20/34/20 41/33/41
vt -0.169133 0.542784
vt -0.183225 0.533905
vt -0.182378 0.532981
f 21/37/21 34/38/34 22/39/22
f 25/39/25 35/38/35 26/37/26
vt -0.164592 0.558064
vt -0.178837 0.549941
vt -0.178145 0.548950
f 23/40/23 22/41/22 43/42/43
f 44/42/44 25/41/25 24/40/24
vt 0.023930 0.515323
vt 0.020930 0.513772
vt 0.023930 0.513772
f 45/43/45 29/44/29 30/45/30
vt 0.020930 0.515323
f 29/44/29 45/43/45 46/46/46
f 47/46/47 48/43/48 32/44/32
f 31/45/31 32/44/32 48/43/48
vt -0.171614 0.544843
vt -0.183683 0.533545
vt -0.170556 0.543709
f 49/47/49 34/48/34 33/49/33
f 36/49/36 35/48/35 50/47/50
vt 0.129762 0.538456
vt 0.105010 0.550247
vt 0.104220 0.548609
f 27/50/27 51/51/51 2/52/2
f 5/52/5 52/51/52 28/50/28
vt 0.106378 0.591981
vt 0.081008 0.602338
vt 0.080643 0.600459
f 37/53/37 11/54/11 53/55/53
f 54/55/54 12/54/12 38/53/38
vt -0.157746 0.580050
vt -0.171579 0.571365
vt -0.157180 0.578623
f 23/56/23 43/57/43 55/58/55
f 56/58/56 44/57/44 24/56/24
vt 0.023930 0.602957
vt 0.020930 0.604488
vt 0.020930 0.602957
f 57/59/57 40/60/40 58/61/58
vt 0.023930 0.604488
f 40/60/40 57/59/57 39/62/39
f 41/62/41 59/59/59 42/60/42
f 60/61/60 42/60/42 59/59/59
vt -0.194400 0.526184
vt -0.393836 0.526113
vt -0.195836 0.526113
f 61/63/61 62/64/62 63/65/63
vt -0.395271 0.526184
f 62/64/62 61/63/61 64/66/64
vt -0.192988 0.526397
f 64/66/64 61/63/61 65/67/65
vt -0.396683 0.526397
f 64/66/64 65/67/65 66/68/66
vt -0.191626 0.526747
f 66/68/66 65/67/65 67/69/67
vt -0.398045 0.526747
f 66/68/66 67/69/67 68/70/68
vt -0.190335 0.527229
f 68/70/68 67/69/67 69/71/69
vt -0.399336 0.527229
f 68/70/68 69/71/69 70/72/70
vt -0.189139 0.527835
f 70/72/70 69/71/69 71/73/71
vt -0.400532 0.527835
f 70/72/70 71/73/71 72/74/72
vt -0.188057 0.528554
f 72/74/72 71/73/71 73/75/73
vt -0.401614 0.528554
f 72/74/72 73/75/73 74/76/74
vt -0.187109 0.529373
f 74/76/74 73/75/73 75/77/75
vt -0.402562 0.529373
f 74/76/74 75/77/75 76/78/76
vt -0.186309 0.530280
f 76/78/76 75/77/75 77/79/77
vt -0.403362 0.530280
f 76/78/76 77/79/77 78/80/78
vt -0.185673 0.531257
f 78/80/78 77/79/77 79/81/79
vt -0.403998 0.531257
f 78/80/78 79/81/79 80/82/80
vt -0.185210 0.532290
f 80/82/80 79/81/79 81/83/81
vt -0.404461 0.532290
f 80/82/80 81/83/81 82/84/82
vt -0.184930 0.533359
f 82/84/82 81/83/81 83/85/83
vt -0.404741 0.533359
f 82/84/82 83/85/83 84/86/84
vt -0.184835 0.534446
f 84/86/84 83/85/83 85/87/85
vt -0.404835 0.534446
f 84/86/84 85/87/85 86/88/86
vt -0.184835 0.567780
f 86/88/86 85/87/85 87/89/87
vt -0.404835 0.567780
f 86/88/86 87/89/87 88/90/88
vt -0.184930 0.568867
f 88/90/88 87/89/87 89/91/89
vt -0.404741 0.568867
f 88/90/88 89/91/89 90/92/90
vt -0.185210 0.569937
f 90/92/90 89/91/89 91/93/91
vt -0.404461 0.569937
f 90/92/90 91/93/91 92/94/92
vt -0.185673 0.570969
f 92/94/92 91/93/91 93/95/93
vt -0.403998 0.570969
f 92/94/92 93/95/93 94/96/94
vt -0.186309 0.571946
f 94/96/94 93/95/93 95/97/95
vt -0.403362 0.571946
f 94/96/94 95/97/95 96/98/96
vt -0.187109 0.572853
f 96/98/96 95/97/95 97/99/97
vt -0.402562 0.572853
f 96/98/96 97/99/97 98/100/98
vt -0.188057 0.573672
f 98/100/98 97/99/97 99/101/99
vt -0.401614 0.573672
f 98/100/98 99/101/99 100/102/100
vt -0.189139 0.574391
f 100/102/100 99/101/99 101/103/101
vt -0.400532 0.574391
f 100/102/100 101/103/101 102/104/102
vt -0.190335 0.574997
f 102/104/102 101/103/101 103/105/103
vt -0.399336 0.574997
f 102/104/102 103/105/103 104/106/104
vt -0.191626 0.575479
f 104/106/104 103/105/103 105/107/105
vt -0.398045 0.575479
f 104/106/104 105/107/105 106/108/106
vt -0.192988 0.575829
f 106/108/106 105/107/105 107/109/107
vt -0.396683 0.575829
f 106/108/106 107/109/107 108/110/108
vt -0.194400 0.576042
f 108/110/108 107/109/107 109/111/109
vt -0.395271 0.576042
f 108/110/108 109/111/109 110/112/110
vt -0.195836 0.576113
f 110/112/110 109/111/109 111/113/111
vt -0.393836 0.576113
f 110/112/110 111/113/111 112/114/112
f 113/114/113 114/113/114 115/112/115
f 114/113/114 116/111/116 115/112/115
f 115/112/115 116/111/116 117/110/117
f 116/111/116 118/109/118 117/110/117
f 117/110/117 118/109/118 119/108/119
f 118/109/118 120/107/120 119/108/119
f 119/108/119 120/107/120 121/106/121
f 120/107/120 122/105/122 121/106/121
f 121/106/121 122/105/122 123/104/123
f 122/105/122 124/103/124 123/104/123
f 123/104/123 124/103/124 125/102/125
f 124/103/124 126/101/126 125/102/125
f 125/102/125 126/101/126 127/100/127
f 126/101/126 128/99/128 127/100/127
f 127/100/127 128/99/128 129/98/129
f 128/99/128 130/97/130 129/98/129
f 129/98/129 130/97/130 131/96/131
f 130/97/130 132/95/132 131/96/131
f 131/96/131 132/95/132 133/94/133
f 132/95/132 134/93/134 133/94/133
f 133/94/133 134/93/134 135/92/135
f 134/93/134 136/91/136 135/92/135
f 135/92/135 136/91/136 137/90/137
f 136/91/136 138/89/138 137/90/137
f 137/90/137 138/89/138 139/88/139
f 138/89/138 140/87/140 139/88/139
f 139/88/139 140/87/140 141/86/141
f 140/87/140 142/85/142 141/86/141
f 141/86/141 142/85/142 143/84/143
f 142/85/142 144/83/144 143/84/143
f 143/84/143 144/83/144 145/82/145
f 144/83/144 146/81/146 145/82/145
f 145/82/145 146/81/146 147/80/147
f 146/81/146 148/79/148 147/80/147
f 147/80/147 148/79/148 149/78/149
f 148/79/148 150/77/150 149/78/149
f 149/78/149 150/77/150 151/76/151
f 150/77/150 152/75/152 151/76/151
f 151/76/151 152/75/152 153/74/153
f 152/75/152 154/73/154 153/74/153
f 153/74/153 154/73/154 155/72/155
f 154/73/154 156/71/156 155/72/155
f 155/72/155 156/71/156 157/70/157
f 156/71/156 158/69/158 157/70/157
f 157/70/157 158/69/158 159/68/159
f 158/69/158 160/67/160 159/68/159
f 159/68/159 160/67/160 161/66/161
f 160/67/160 162/63/162 161/66/161
f 161/66/161 162/63/162 163/64/163
f 164/65/164 163/64/163 162/63/162
vt 0.023930 0.470088
vt 0.020930 0.468532
vt 0.023930 0.468532
f 165/115/165 46/116/46 45/117/45
vt 0.020930 0.470088
f 46/116/46 165/115/165 166/118/166
f 167/118/167 168/115/168 47/116/47
f 48/117/48 47/116/47 168/115/168
vt -0.174656 0.527705
vt -0.187403 0.516910
vt -0.186407 0.516077
f 49/119/49 169/120/169 34/121/34
f 35/121/35 170/120/170 50/119/50
vt 0.144819 0.477192
vt 0.120183 0.489700
vt 0.143896 0.475938
f 171/122/171 51/123/51 27/124/27
f 28/124/28 52/123/52 172/122/172
vt 0.103512 0.595647
vt 0.077722 0.603959
vt 0.103276 0.594135
f 37/125/37 53/126/53 173/127/173
f 174/127/174 54/126/54 38/125/38
vt -0.159728 0.570863
vt -0.174055 0.563462
vt -0.173524 0.562424
f 55/128/55 43/129/43 175/130/175
f 176/130/176 44/129/44 56/128/56
vt -0.152875 0.584850
vt -0.166858 0.576724
vt -0.152479 0.583371
f 55/131/55 175/132/175 177/133/177
f 178/133/178 176/132/176 56/131/56
vt 0.023930 0.599345
vt 0.020930 0.600873
vt 0.020930 0.599345
f 179/134/179 58/135/58 180/136/180
vt 0.023930 0.600873
f 58/135/58 179/134/179 57/137/57
f 59/137/59 181/134/181 60/135/60
f 182/136/182 60/135/60 181/134/181
vt -0.378204 0.397385
vt -0.365792 0.386206
vt -0.364665 0.386933
f 183/138/183 184/139/184 185/140/185
f 186/140/186 187/139/187 188/138/188
vt -0.368511 0.406917
vt -0.355646 0.396422
vt -0.354652 0.397258
f 189/141/189 190/142/190 184/143/184
f 187/143/187 191/142/191 192/141/192
vt -0.357818 0.424672
vt -0.345527 0.413602
vt -0.344677 0.414524
f 189/144/189 193/145/193 190/146/190
f 191/146/191 194/145/194 192/144/192
vt -0.345947 0.442043
vt -0.333173 0.431559
vt -0.332479 0.432548
f 195/147/195 196/148/196 193/149/193
f 194/149/194 197/148/197 198/147/198
vt -0.332738 0.463990
vt -0.319540 0.454106
vt -0.319007 0.455144
f 199/150/199 200/151/200 196/152/196
f 197/152/197 201/151/201 202/150/202
vt -0.318203 0.490777
vt -0.304646 0.481488
vt -0.304275 0.482556
f 203/153/203 204/154/204 200/155/200
f 201/155/201 205/154/205 206/153/206
vt -0.302385 0.522160
vt -0.288539 0.513440
vt -0.288324 0.514524
f 207/156/207 208/157/208 204/158/204
f 205/158/205 209/157/209 210/156/210
vt -0.285336 0.557069
vt -0.271275 0.548865
vt -0.271206 0.549954
f 211/159/211 212/160/212 208/161/208
f 209/161/209 213/160/213 214/159/214
vt -0.262270 0.534446
vt -0.276412 0.574446
vt -0.276412 0.527780
f 215/162/215 216/163/216 217/164/217
vt -0.262270 0.567780
f 216/163/216 215/162/215 212/165/212
f 213/165/213 218/162/218 219/163/219
f 220/164/220 219/163/219 218/162/218
vt -0.270860 0.551470
vt -0.284997 0.544792
vt -0.270792 0.550381
f 215/166/215 217/167/217 221/168/221
f 222/168/222 220/167/220 218/166/218
vt -0.287511 0.573761
vt -0.301596 0.566558
vt -0.287296 0.572677
f 221/169/221 223/170/223 224/171/224
f 225/171/225 226/170/226 222/169/222
vt -0.303272 0.584062
vt -0.317245 0.576266
vt -0.302902 0.582993
f 224/172/224 227/173/227 228/174/228
f 229/174/229 230/173/230 225/172/225
vt -0.318051 0.584989
vt -0.331847 0.576549
vt -0.317520 0.583950
f 228/175/228 231/176/231 232/177/232
f 233/177/233 234/176/234 229/175/229
vt -0.331749 0.578778
vt -0.345303 0.569663
vt -0.331058 0.577787
f 232/178/232 235/179/235 236/180/236
f 237/180/237 238/179/238 233/178/233
vt -0.344294 0.567149
vt -0.357538 0.557345
vt -0.343447 0.566225
f 236/181/236 239/182/239 240/183/240
f 241/183/241 242/182/242 237/181/237
vt -0.356616 0.550915
vt -0.368367 0.539286
vt -0.355620 0.550082
f 240/184/240 243/185/243 244/186/244
f 245/186/245 246/185/246 241/184/241
vt -0.366477 0.531855
vt -0.377633 0.519702
vt -0.365349 0.531131
f 244/187/244 247/188/247 248/189/248
f 249/189/249 250/188/250 245/187/245
vt -0.375146 0.509454
vt -0.385648 0.496812
vt -0.373904 0.508858
f 248/190/248 251/191/251 252/192/252
f 253/192/253 254/191/254 249/190/249
vt -0.382616 0.483400
vt -0.392396 0.470304
vt -0.381282 0.482952
f 252/193/252 255/194/255 256/195/256
f 257/195/257 258/194/258 253/193/253
vt -0.388764 0.452915
vt -0.397732 0.439392
vt -0.387365 0.452633
f 256/196/256 259/197/259 260/198/260
f 261/198/261 262/197/262 257/196/257
vt -0.393215 0.416705
vt -0.401245 0.402771
vt -0.391780 0.416607
f 260/199/260 263/200/263 264/201/264
f 265/201/265 266/200/266 261/199/261
vt -0.195836 0.396010
vt -0.402835 0.381868
vt -0.186835 0.381868
f 267/202/267 263/203/263 268/204/268
vt -0.393836 0.396010
f 263/203/263 267/202/267 264/205/264
f 265/205/265 269/202/269 266/203/266
f 270/204/270 266/203/266 269/202/269
vt -0.195794 0.396980
vt -0.197228 0.396882
vt -0.186198 0.383171
f 271/206/271 267/207/267 272/208/272
f 273/208/273 269/207/269 274/206/274
vt -0.195782 0.400782
vt -0.197180 0.400499
vt -0.185281 0.387622
f 275/209/275 271/210/271 276/211/276
f 277/211/277 274/210/274 278/209/278
vt -0.194499 0.406346
vt -0.195833 0.405896
vt -0.183251 0.393836
f 279/212/279 275/213/275 280/214/280
f 281/214/281 278/213/278 282/212/282
vt -0.192344 0.413460
vt -0.193585 0.412862
vt -0.180466 0.401610
f 283/215/283 279/216/279 284/217/284
f 285/217/285 282/216/282 286/215/286
vt -0.189533 0.422134
vt -0.190660 0.421407
vt -0.177121 0.410955
f 287/218/287 283/219/283 288/220/288
f 289/220/289 286/219/286 290/218/290
vt -0.186188 0.432490
vt -0.187182 0.431655
vt -0.173323 0.421995
f 291/221/291 287/222/287 292/223/292
f 293/223/293 290/222/290 294/221/294
vt -0.182690 0.446569
vt -0.183540 0.445648
vt -0.170400 0.435500
f 295/224/295 291/225/291 292/226/292
f 293/226/293 294/225/294 296/224/296
vt -0.178538 0.460333
vt -0.179232 0.459344
vt -0.165764 0.449849
f 297/227/297 295/228/295 298/229/298
f 299/229/299 296/228/296 300/227/300
vt -0.173963 0.475865
vt -0.174496 0.474827
vt -0.160765 0.465981
f 301/230/301 297/231/297 302/232/302
f 303/232/303 300/231/300 304/230/304
vt -0.168972 0.492856
vt -0.169344 0.491788
vt -0.155416 0.483567
f 305/233/305 301/234/301 306/235/306
f 307/235/307 304/234/304 308/233/308
vt -0.163571 0.510530
vt -0.163786 0.509445
vt -0.149725 0.501810
f 309/236/309 305/237/305 310/238/310
f 311/238/311 308/237/308 312/236/312
vt -0.157760 0.527457
vt -0.157828 0.526368
vt -0.143698 0.519254
f 313/239/313 309/240/309 314/241/314
f 315/241/315 312/240/312 316/239/316
vt -0.140548 0.574446
vt -0.154691 0.534446
vt -0.140548 0.527780
f 317/242/317 313/243/313 318/244/318
vt -0.154691 0.567780
f 313/243/313 317/242/317 319/245/319
f 320/245/320 321/242/321 316/243/316
f 322/244/322 316/243/316 321/242/321
vt -0.143483 0.579530
vt -0.157688 0.573941
vt -0.157620 0.572851
f 317/246/317 323/247/323 319/248/319
f 320/248/320 324/247/324 321/246/321
vt -0.149152 0.583662
vt -0.163452 0.577543
vt -0.163237 0.576459
f 325/249/325 326/250/326 323/251/323
f 324/251/324 327/250/327 328/249/328
vt -0.154573 0.579988
vt -0.168915 0.573261
vt -0.168545 0.572192
f 177/252/177 175/253/175 326/254/326
f 327/254/327 176/253/176 178/252/178
vt -0.178507 0.509223
vt -0.190791 0.497794
vt -0.189662 0.497070
f 329/255/329 330/256/330 169/257/169
f 170/257/170 331/256/331 332/255/332
vt -0.181899 0.489034
vt -0.193643 0.476988
vt -0.192401 0.476392
f 333/258/333 334/259/334 330/260/330
f 331/260/331 335/259/335 336/258/336
vt -0.184731 0.466755
vt -0.195844 0.454108
vt -0.194511 0.453660
f 337/261/337 338/262/338 334/263/334
f 335/263/335 339/262/339 340/261/340
vt -0.186807 0.441767
vt -0.197175 0.428526
vt -0.195775 0.428244
f 341/264/341 342/265/342 338/266/338
f 339/266/339 343/265/343 344/264/344
vt -0.187761 0.413241
vt -0.197225 0.399406
vt -0.195791 0.399307
f 345/267/345 346/268/346 342/269/342
f 343/269/343 347/268/347 348/267/348
vt -0.402835 0.397523
vt -0.195836 0.383381
vt -0.186835 0.397523
f 349/270/349 346/271/346 345/272/345
vt -0.393836 0.383381
f 346/271/346 349/270/349 350/273/350
f 351/273/351 352/270/352 347/271/347
f 348/272/348 347/271/347 352/270/352
vt -0.402805 0.393283
vt -0.393209 0.379473
vt -0.391775 0.379572
f 353/274/353 354/275/354 350/276/350
f 351/276/351 355/275/355 356/274/356
vt -0.399199 0.388883
vt -0.388698 0.375722
vt -0.387299 0.376006
f 357/277/357 358/278/358 354/279/354
f 355/279/355 359/278/359 360/277/360
vt -0.393658 0.388426
vt -0.382410 0.375917
vt -0.381077 0.376366
f 361/280/361 362/281/362 358/282/358
f 359/282/359 363/281/363 364/280/364
vt -0.386604 0.391297
vt -0.374726 0.379446
vt -0.373485 0.380044
f 365/283/365 185/284/185 362/285/362
f 363/285/363 186/284/186 366/283/366
vt -0.176088 0.527026
vt -0.187604 0.515213
vt -0.174884 0.526040
f 329/286/329 169/287/169 49/288/49
f 50/288/50 170/287/170 332/286/332
vt 0.023930 0.417340
vt 0.020930 0.415778
vt 0.023930 0.415778
f 367/289/367 166/290/166 165/291/165
vt 0.020930 0.417340
f 166/290/166 367/289/367 368/292/368
f 369/292/369 370/289/370 167/290/167
f 168/291/168 167/290/167 370/289/370
vt 0.139717 0.503401
vt 0.115648 0.516624
vt 0.114694 0.515115
f 171/293/171 371/294/371 51/295/51
f 52/295/52 372/294/372 172/293/172
vt 0.100824 0.595441
vt 0.075225 0.605146
vt 0.074977 0.603225
f 173/296/173 53/297/53 373/298/373
f 374/298/374 54/297/54 174/296/174
vt 0.097508 0.594651
vt 0.071623 0.602307
vt 0.097375 0.593129
f 173/299/173 373/300/373 375/301/375
f 376/301/376 374/300/374 174/299/174
vt -0.147969 0.585223
vt -0.162051 0.577626
vt -0.147738 0.583713
f 177/302/177 326/303/326 325/304/325
f 328/304/328 327/303/327 178/302/178
vt 0.023930 0.584905
vt 0.020930 0.586432
vt 0.020930 0.584905
f 377/305/377 180/306/180 378/307/378
vt 0.023930 0.586432
f 180/306/180 377/305/377 179/308/179
f 181/308/181 379/305/379 182/306/182
f 380/307/380 182/306/182 379/305/379
vt -0.368724 0.413643
vt -0.369930 0.412660
vt -0.356126 0.402562
f 365/309/365 183/310/183 185/311/185
f 186/311/186 188/310/188 366/309/366
vt -0.358244 0.427334
vt -0.359305 0.426203
vt -0.345226 0.416867
f 183/312/183 189/313/189 184/314/184
f 187/314/187 192/313/192 188/312/188
vt -0.346007 0.441458
vt -0.346908 0.440203
vt -0.333456 0.430685
f 189/315/189 195/316/195 193/317/193
f 194/317/194 198/316/198 192/315/192
vt -0.334192 0.460796
vt -0.334926 0.459442
vt -0.321223 0.450554
f 195/318/195 199/319/199 196/320/196
f 197/320/197 202/319/202 198/318/198
vt -0.321930 0.482766
vt -0.322494 0.481339
vt -0.308603 0.473057
f 199/321/199 203/322/203 200/323/200
f 201/323/201 206/322/206 202/321/202
vt -0.309289 0.507147
vt -0.309684 0.505669
vt -0.295661 0.497964
f 203/324/203 207/325/207 204/326/204
f 205/326/205 210/325/210 206/324/206
vt -0.296330 0.533518
vt -0.296560 0.532008
vt -0.282456 0.524842
f 207/327/207 211/328/211 208/329/208
f 209/329/209 214/328/214 210/327/210
vt -0.283088 0.561188
vt -0.283162 0.559664
vt -0.269024 0.552990
f 211/330/211 216/331/216 212/332/212
f 213/332/213 219/331/219 214/330/214
vt -0.023930 0.574446
vt -0.020930 0.527780
vt -0.020930 0.574446
f 381/333/381 382/334/382 383/335/383
vt -0.023930 0.527780
f 382/334/382 381/333/381 384/336/384
f 385/336/385 386/333/386 387/334/387
f 388/335/388 387/334/387 386/333/386
vt 0.163806 0.581113
vt 0.137870 0.527780
vt 0.163806 0.521113
f 389/337/389 390/338/390 391/339/391
vt 0.137870 0.574446
f 390/338/390 389/337/389 392/340/392
f 393/340/393 394/337/394 395/338/395
f 396/339/396 395/338/395 394/337/394
vt -0.269257 0.546925
vt -0.283464 0.541340
vt -0.283390 0.539816
f 221/341/221 217/342/217 223/343/223
f 226/343/226 220/342/220 222/341/222
vt -0.283024 0.566257
vt -0.297337 0.560170
vt -0.297106 0.558660
f 224/344/224 223/345/223 227/346/227
f 230/346/230 226/345/226 225/344/225
vt -0.296388 0.577690
vt -0.310768 0.571043
vt -0.310372 0.569565
f 228/347/228 227/348/227 231/349/231
f 234/349/234 230/348/230 229/347/229
vt -0.309326 0.582349
vt -0.323725 0.575091
vt -0.323159 0.573664
f 232/350/232 231/351/231 235/352/235
f 238/352/238 234/351/234 233/350/233
vt -0.321800 0.581153
vt -0.336163 0.573239
vt -0.335426 0.571887
f 236/353/236 235/354/235 239/355/239
f 242/355/242 238/354/238 237/353/237
vt -0.333776 0.574774
vt -0.348036 0.566166
vt -0.347133 0.564912
f 240/356/240 239/357/239 397/358/397
f 398/358/398 242/357/242 241/356/241
vt -0.345241 0.564962
vt -0.358369 0.554797
vt -0.357310 0.553664
f 240/359/240 397/360/397 243/361/243
f 246/361/246 398/360/398 241/359/241
vt -0.356512 0.548695
vt -0.369233 0.537868
vt -0.368029 0.536882
f 244/362/244 243/363/243 247/364/247
f 250/364/250 246/363/246 245/362/245
vt -0.367181 0.527285
vt -0.379394 0.515780
vt -0.378061 0.514967
f 248/365/248 247/366/247 251/367/251
f 254/367/254 250/366/250 249/365/249
vt -0.377075 0.499997
vt -0.388651 0.487790
vt -0.387212 0.487175
f 252/368/252 251/369/251 255/370/255
f 258/370/258 254/369/254 253/368/253
vt -0.385808 0.465529
vt -0.396576 0.452586
vt -0.395057 0.452197
f 256/371/256 255/372/255 259/373/259
f 262/373/262 258/372/258 257/371/257
vt -0.392508 0.421919
vt -0.402224 0.408194
vt -0.400661 0.408056
f 260/374/260 259/375/259 263/376/263
f 266/376/266 262/375/262 261/374/261
vt -0.197522 0.397729
vt -0.187937 0.383977
vt -0.186373 0.384115
f 267/377/267 268/378/268 272/379/272
f 273/379/273 270/378/270 269/377/269
vt 0.411835 0.195144
vt 0.186835 0.221080
vt 0.177835 0.195144
f 399/380/399 400/381/400 401/382/401
vt 0.402835 0.221080
f 400/381/400 399/380/399 402/383/402
f 403/383/403 404/380/404 405/381/405
f 406/382/406 405/381/405 404/380/404
vt 0.402835 0.020930
vt 0.186835 0.023930
vt 0.186835 0.020930
f 407/384/407 408/385/408 409/386/409
vt 0.402835 0.023930
f 408/385/408 407/384/407 410/387/410
f 411/387/411 412/384/412 413/385/413
f 414/386/414 413/385/413 412/384/412
vt -0.197330 0.403978
vt -0.186695 0.390951
vt -0.185176 0.391340
f 271/388/271 272/389/272 276/390/276
f 277/390/277 273/389/273 274/388/274
vt -0.195388 0.412502
vt -0.183945 0.400152
vt -0.182505 0.400764
f 275/391/275 276/392/276 280/393/280
f 281/393/281 277/392/277 278/391/278
vt -0.192438 0.422502
vt -0.180356 0.410795
vt -0.179021 0.411606
f 279/394/279 280/395/280 284/396/284
f 285/396/285 281/395/281 282/394/282
vt -0.188870 0.433597
vt -0.176272 0.422516
vt -0.175066 0.423499
f 283/397/283 284/398/284 288/399/288
f 289/399/289 285/398/285 286/397/286
vt -0.184898 0.445621
vt -0.171880 0.435153
vt -0.170819 0.436284
f 287/400/287 288/401/288 292/402/292
f 293/402/293 289/401/289 290/400/290
vt -0.179502 0.458151
vt -0.166950 0.447377
vt -0.166050 0.448633
f 295/403/295 292/404/292 298/405/298
f 299/405/299 293/404/293 296/403/296
vt -0.175147 0.472116
vt -0.162177 0.461874
vt -0.161443 0.463228
f 297/406/297 298/407/298 302/408/302
f 303/408/303 299/407/299 300/406/300
vt -0.170680 0.486645
vt -0.157353 0.476936
vt -0.156788 0.478363
f 301/409/301 302/410/302 306/411/306
f 307/411/307 303/410/303 304/409/304
vt -0.166148 0.501375
vt -0.152520 0.492191
vt -0.152125 0.493670
f 305/412/305 306/413/306 310/414/310
f 311/414/311 307/413/307 308/412/308
vt -0.161583 0.515765
vt -0.147710 0.507089
vt -0.147479 0.508599
f 309/415/309 310/416/310 314/417/314
f 315/417/315 311/416/311 312/415/312
vt -0.156998 0.529058
vt -0.142933 0.520859
vt -0.142859 0.522384
f 313/418/313 314/419/314 318/420/318
f 322/420/322 315/419/315 316/418/316
vt 0.089492 0.527780
vt 0.063556 0.581113
vt 0.063556 0.521113
f 415/421/415 416/422/416 417/423/417
vt 0.089492 0.574446
f 416/422/416 415/421/415 418/424/418
f 419/424/419 420/421/420 421/422/421
f 422/423/422 421/422/421 420/421/420
vt 0.023930 0.527780
vt 0.020930 0.574446
vt 0.020930 0.527780
f 423/425/423 378/426/378 424/427/424
vt 0.023930 0.574446
f 378/426/378 423/425/423 377/428/377
f 379/428/379 425/425/425 380/426/380
f 426/427/426 380/426/380 425/425/425
vt -0.143036 0.580161
vt -0.157168 0.573051
vt -0.142962 0.578636
f 325/429/325 323/430/323 317/431/317
f 321/431/321 324/430/324 328/429/328
vt -0.180251 0.505988
vt -0.191131 0.493670
vt -0.178918 0.505175
f 333/432/333 330/433/330 329/434/329
f 332/434/332 331/433/331 336/432/336
vt -0.183904 0.481219
vt -0.194041 0.468397
vt -0.182464 0.480604
f 337/435/337 334/436/334 333/437/333
f 336/437/336 335/436/335 340/435/340
vt -0.186689 0.451935
vt -0.195939 0.438603
vt -0.185171 0.451546
f 341/438/341 338/439/338 337/440/337
f 340/440/340 339/439/339 344/438/344
vt -0.187938 0.417138
vt -0.196091 0.403275
vt -0.186375 0.417000
f 345/441/345 342/442/342 341/443/341
f 344/443/344 343/442/343 348/441/348
vt -0.402835 0.023930
vt -0.186835 0.020930
vt -0.186835 0.023930
f 427/444/427 428/445/428 429/446/429
vt -0.402835 0.020930
f 428/445/428 427/444/427 430/447/430
f 431/447/431 432/444/432 433/445/433
f 434/446/434 433/445/433 432/444/432
vt 0.186835 0.203911
vt 0.411835 0.229846
vt 0.177835 0.229846
f 435/448/435 436/449/436 437/450/437
vt 0.402835 0.203911
f 436/449/436 435/448/435 438/451/438
f 439/451/439 440/448/440 441/449/441
f 442/450/442 441/449/441 440/448/440
vt -0.400666 0.393163
vt -0.402230 0.393026
vt -0.391081 0.379411
f 349/452/349 353/453/353 350/454/350
f 351/454/351 356/453/356 352/452/352
vt -0.395131 0.391069
vt -0.396651 0.390680
vt -0.384497 0.378042
f 353/455/353 357/456/357 354/457/354
f 355/457/355 360/456/360 356/455/356
vt -0.387441 0.394846
vt -0.388881 0.394234
vt -0.375998 0.382496
f 357/458/357 361/459/361 358/460/358
f 359/460/359 364/459/364 360/458/360
vt -0.378509 0.402679
vt -0.379843 0.401869
vt -0.366426 0.390973
f 361/461/361 365/462/365 362/463/362
f 363/463/363 366/462/366 364/461/364
vt 0.156489 0.430849
vt 0.132929 0.445523
vt 0.155397 0.429733
f 443/464/443 371/465/371 171/466/171
f 172/466/172 372/465/372 444/464/444
vt 0.023930 0.358036
vt 0.020930 0.356471
vt 0.023930 0.356471
f 445/467/445 368/468/368 367/469/367
vt 0.020930 0.358036
f 368/468/368 445/467/445 446/470/446
f 447/470/447 448/467/448 369/468/369
f 370/469/370 369/468/369 448/467/448
vt 0.095910 0.591942
vt 0.070142 0.601077
vt 0.070002 0.599130
f 375/471/375 373/472/373 449/473/449
f 450/473/450 374/472/374 376/471/376
vt 0.092047 0.584162
vt 0.066118 0.591278
vt 0.092006 0.582637
f 375/474/375 449/475/449 418/476/418
f 419/476/419 450/475/450 376/474/376
vt -0.023930 -0.025960
vt -0.020930 -0.024404
vt -0.023930 -0.024404
f 451/477/451 452/478/452 453/479/453
vt -0.020930 -0.025960
f 452/478/452 451/477/451 454/480/454
f 455/480/455 456/477/456 457/478/457
f 458/479/458 457/478/457 456/477/456
vt 0.297501 0.187182
vt 0.273921 0.173105
vt 0.274849 0.171856
f 459/481/459 460/482/460 461/483/461
f 462/483/462 463/482/463 464/481/464
vt -0.023930 0.065058
vt -0.020930 0.066609
vt -0.023930 0.066609
f 465/484/465 454/485/454 451/486/451
vt -0.020930 0.065058
f 454/485/454 465/484/465 466/487/466
f 467/487/467 468/484/468 455/485/455
f 456/486/456 455/485/455 468/484/468
vt 0.273308 0.231120
vt 0.248890 0.218654
vt 0.249658 0.217307
f 469/488/469 461/489/461 470/490/470
f 471/490/471 462/489/462 472/488/472
vt -0.023930 0.157175
vt -0.020930 0.155630
vt -0.020930 0.157175
f 465/491/465 473/492/473 466/493/466
vt -0.023930 0.155630
f 473/492/473 465/491/465 474/494/474
f 475/494/475 468/491/468 476/492/476
f 467/493/467 476/492/476 468/491/468
vt 0.225389 0.267202
vt 0.250462 0.277949
vt 0.224774 0.268620
f 477/495/477 478/496/478 470/497/470
f 471/497/471 479/496/479 480/495/480
vt -0.023930 0.245714
vt -0.020930 0.244174
vt -0.020930 0.245714
f 474/498/474 481/499/481 473/500/473
vt -0.023930 0.244174
f 481/499/481 474/498/474 482/501/482
f 483/501/483 475/498/475 484/499/484
f 476/500/476 484/499/484 475/498/475
vt 0.205550 0.323594
vt 0.230985 0.333210
vt 0.205074 0.325058
f 485/502/485 486/503/486 477/504/477
f 480/504/480 487/503/487 488/502/488
vt -0.023930 0.330580
vt -0.020930 0.329046
vt -0.020930 0.330580
f 482/505/482 489/506/489 481/507/481
vt -0.023930 0.329046
f 489/506/489 482/505/482 490/508/490
f 491/508/491 483/505/483 492/506/492
f 484/507/484 492/506/492 483/505/483
vt 0.187817 0.381886
vt 0.213488 0.390557
vt 0.187467 0.383380
f 493/509/493 494/510/494 485/511/485
f 488/511/488 495/510/495 496/509/496
vt 0.171843 0.440181
vt 0.197661 0.448061
vt 0.171608 0.441693
f 497/512/497 498/513/498 493/514/493
f 496/514/496 499/513/499 500/512/500
vt -0.023930 0.410110
vt -0.020930 0.408579
vt -0.020930 0.410110
f 490/515/490 501/516/501 489/517/489
vt -0.023930 0.408579
f 501/516/501 490/515/490 502/518/502
f 503/518/503 491/515/491 504/516/504
f 492/517/492 504/516/504 491/515/491
vt -0.023930 0.482677
vt -0.020930 0.481150
vt -0.020930 0.482677
f 502/519/502 505/520/505 501/521/501
vt -0.023930 0.481150
f 505/520/505 502/519/502 506/522/506
f 507/522/507 503/519/503 508/520/508
f 504/521/504 508/520/508 503/519/503
vt 0.157347 0.496618
vt 0.183246 0.503839
vt 0.157215 0.498140
f 509/523/509 510/524/510 497/525/497
f 500/525/500 511/524/511 512/523/512
vt -0.023930 0.546768
vt -0.020930 0.545242
vt -0.020930 0.546768
f 506/526/506 383/527/383 505/528/505
vt -0.023930 0.545242
f 383/527/383 506/526/506 381/529/381
f 386/529/386 507/526/507 388/527/388
f 508/528/508 388/527/388 507/526/507
vt 0.144078 0.549319
vt 0.170010 0.555999
vt 0.144037 0.550845
f 392/530/392 389/531/389 509/532/509
f 512/532/512 394/531/394 393/530/393
vt -0.023930 0.554488
vt -0.020930 0.552961
vt -0.020930 0.554488
f 384/533/384 513/534/513 382/535/382
vt -0.023930 0.552961
f 513/534/513 384/533/384 514/536/514
f 515/536/515 385/533/385 516/534/516
f 387/535/387 516/534/516 385/533/385
vt 0.143109 0.547367
vt 0.168998 0.538731
vt 0.169042 0.540691
f 390/537/390 517/538/517 391/539/391
f 396/539/396 518/538/518 395/537/395
vt 0.144321 0.549270
vt 0.170250 0.542155
vt 0.144362 0.550796
f 519/540/519 517/541/517 390/542/390
f 395/542/395 518/541/518 520/540/520
vt 0.158023 0.585667
vt 0.183908 0.578011
vt 0.158156 0.587189
f 521/543/521 522/544/522 519/545/519
f 520/545/520 523/544/523 524/543/524
vt -0.023930 0.598707
vt -0.020930 0.597179
vt -0.020930 0.598707
f 514/546/514 525/547/525 513/548/513
vt -0.023930 0.597179
f 525/547/525 514/546/514 526/549/526
f 527/549/527 515/546/515 528/547/528
f 516/548/516 528/547/528 515/546/515
vt 0.172866 0.611140
vt 0.198656 0.602829
vt 0.173103 0.612652
f 529/550/529 530/551/530 521/552/521
f 524/552/524 531/551/531 532/550/532
vt -0.023930 0.632041
vt -0.020930 0.630510
vt -0.020930 0.632041
f 526/553/526 533/554/533 525/555/525
vt -0.023930 0.630510
f 533/554/533 526/553/526 534/556/534
f 535/556/535 527/553/527 536/554/536
f 528/555/528 536/554/536 527/553/527
vt 0.189078 0.625725
vt 0.214704 0.616630
vt 0.189430 0.627218
f 537/557/537 538/558/538 529/559/529
f 532/559/532 539/558/539 540/557/540
vt -0.023930 0.653954
vt -0.020930 0.652419
vt -0.020930 0.653954
f 534/560/534 541/561/541 533/562/533
vt -0.023930 0.652419
f 541/561/541 534/560/534 542/563/542
f 543/563/543 535/560/535 544/561/544
f 536/562/536 544/561/544 535/560/535
vt 0.206921 0.629530
vt 0.232291 0.619504
vt 0.207401 0.630993
f 545/564/545 546/565/546 537/566/537
f 540/566/540 547/565/547 548/564/548
vt -0.023930 0.664204
vt -0.020930 0.662664
vt -0.020930 0.664204
f 542/567/542 549/568/549 541/569/541
vt -0.023930 0.662664
f 549/568/549 542/567/542 550/570/550
f 551/570/551 543/567/543 552/568/552
f 544/569/544 552/568/552 543/567/543
vt 0.226721 0.622583
vt 0.251707 0.611447
vt 0.227340 0.623999
f 553/571/553 554/572/554 545/573/545
f 548/573/548 555/572/555 556/571/556
vt -0.023930 0.662821
vt -0.020930 0.661275
vt -0.020930 0.662821
f 550/574/550 557/575/557 549/576/549
vt -0.023930 0.661275
f 557/575/557 550/574/550 558/577/558
f 559/577/559 551/574/551 560/575/560
f 552/576/552 560/575/560 551/574/551
vt 0.272290 0.594586
vt 0.247760 0.606693
vt 0.246997 0.605343
f 554/578/554 553/579/553 561/580/561
f 562/580/562 556/579/556 555/578/555
vt -0.020930 0.650070
vt -0.023930 0.648519
vt -0.020930 0.648519
f 557/581/557 563/582/563 564/583/564
vt -0.023930 0.650070
f 563/582/563 557/581/557 558/584/558
f 559/584/559 560/581/560 565/582/565
f 566/583/566 565/582/565 560/581/560
vt 0.296883 0.563040
vt 0.273170 0.576801
vt 0.272247 0.575548
f 567/585/567 561/586/561 568/587/568
f 569/587/569 562/586/562 570/585/570
vt -0.020930 0.626413
vt -0.023930 0.624856
vt -0.020930 0.624856
f 564/588/564 571/589/571 572/590/572
vt -0.023930 0.626413
f 571/589/571 564/588/564 563/591/563
f 565/591/565 566/588/566 573/589/573
f 574/590/574 573/589/573 566/588/566
vt 0.324561 0.517581
vt 0.302092 0.533371
vt 0.301000 0.532256
f 575/592/575 568/593/568 576/594/576
f 577/594/577 569/593/569 578/592/578
vt -0.020930 0.592459
vt -0.023930 0.590898
vt -0.020930 0.590898
f 572/595/572 579/596/579 580/597/580
vt -0.023930 0.592459
f 579/596/579 572/595/572 571/598/571
f 573/598/573 574/595/574 581/596/581
f 582/597/582 581/596/581 574/595/574
vt 0.355051 0.455124
vt 0.334524 0.473408
vt 0.333258 0.472487
f 583/599/583 576/600/576 584/601/584
f 585/601/585 577/600/577 586/599/586
vt -0.020930 0.548930
vt -0.023930 0.547364
vt -0.020930 0.547364
f 580/602/580 587/603/587 588/604/588
vt -0.023930 0.548930
f 587/603/587 580/602/580 579/605/579
f 581/605/581 582/602/582 589/603/589
f 590/604/590 589/603/589 582/602/582
vt 0.385992 0.370906
vt 0.368568 0.392178
vt 0.367137 0.391538
f 591/606/591 584/607/584 592/608/592
f 593/608/593 585/607/585 594/606/594
vt -0.020930 0.496626
vt -0.023930 0.495058
vt -0.020930 0.495058
f 588/609/588 595/610/595 596/611/596
vt -0.023930 0.496626
f 595/610/595 588/609/588 587/612/587
f 589/612/589 590/609/590 597/610/597
f 598/611/598 597/610/597 590/609/590
vt 0.409282 0.260064
vt 0.396823 0.284564
vt 0.395273 0.284318
f 599/613/599 592/614/592 402/615/402
f 403/615/403 593/614/593 600/613/600
vt -0.020930 0.436411
vt -0.023930 0.434842
vt -0.020930 0.434842
f 596/616/596 410/617/410 407/618/407
vt -0.023930 0.436411
f 410/617/410 596/616/596 595/619/595
f 597/619/597 598/616/598 411/617/411
f 412/618/412 411/617/411 598/616/598
vt 0.188338 0.207667
vt 0.186788 0.207912
vt 0.176014 0.183136
f 400/620/400 601/621/601 401/622/401
f 406/622/406 602/621/602 405/620/405
vt 0.020930 -0.153636
vt 0.023930 -0.152066
vt 0.020930 -0.152066
f 409/623/409 603/624/603 604/625/604
vt 0.023930 -0.153636
f 603/624/603 409/623/409 408/626/408
f 413/626/413 414/623/414 605/624/605
f 606/625/606 605/624/605 414/623/414
vt 0.407721 0.271712
vt 0.393176 0.295649
vt 0.406048 0.271401
f 599/627/599 402/628/402 399/629/399
f 404/629/404 403/628/403 600/627/600
vt 0.181133 0.200331
vt 0.179701 0.200969
vt 0.163862 0.178950
f 601/630/601 607/631/607 608/632/608
f 609/632/609 610/631/610 602/630/602
vt 0.020930 -0.083886
vt 0.023930 -0.082318
vt 0.020930 -0.082318
f 604/633/604 611/634/611 612/635/612
vt 0.023930 -0.083886
f 611/634/611 604/633/604 603/636/603
f 605/636/605 606/633/606 613/634/613
f 614/635/614 613/634/613 606/633/606
vt 0.169300 0.212847
vt 0.168032 0.213763
vt 0.148932 0.194374
f 607/637/607 615/638/615 616/639/616
f 617/639/617 618/638/618 610/637/610
vt 0.020930 -0.012600
vt 0.023930 -0.011035
vt 0.020930 -0.011035
f 612/640/612 619/641/619 620/642/620
vt 0.023930 -0.012600
f 619/641/619 612/640/612 611/643/611
f 613/643/613 614/640/614 621/641/621
f 622/642/622 621/641/621 614/640/614
vt 0.156942 0.237941
vt 0.155846 0.239052
vt 0.134624 0.221891
f 615/644/615 623/645/623 624/646/624
f 625/646/625 626/645/626 618/644/618
vt 0.020930 0.059181
vt 0.023930 0.060742
vt 0.020930 0.060742
f 620/647/620 627/648/627 628/649/628
vt 0.023930 0.059181
f 627/648/627 620/647/620 619/650/619
f 621/650/621 622/647/622 629/648/629
f 630/649/630 629/648/629 622/647/622
vt 0.145425 0.270447
vt 0.144497 0.271696
vt 0.121846 0.256370
f 623/651/623 631/652/631 632/653/632
f 633/653/633 634/652/634 626/651/626
vt 0.020930 0.130364
vt 0.023930 0.131920
vt 0.020930 0.131920
f 628/654/628 635/655/635 636/656/636
vt 0.023930 0.130364
f 635/655/635 628/654/628 627/657/627
f 629/657/629 630/654/630 637/655/637
f 638/656/638 637/655/637 630/654/630
vt 0.135058 0.307065
vt 0.134290 0.308412
vt 0.110640 0.294599
f 631/658/631 639/659/639 640/660/640
f 641/660/641 642/659/642 634/658/634
vt 0.020930 0.199805
vt 0.023930 0.201356
vt 0.020930 0.201356
f 636/661/636 643/662/643 644/663/644
vt 0.023930 0.199805
f 643/662/643 636/661/636 635/664/635
f 637/664/637 638/661/638 645/662/645
f 646/663/646 645/662/645 638/661/638
vt 0.124465 0.345798
vt 0.099391 0.335052
vt 0.125079 0.344380
f 647/665/647 648/666/648 639/667/639
f 642/667/642 649/666/649 650/665/650
vt 0.023930 0.266315
vt 0.020930 0.267860
vt 0.020930 0.266315
f 643/668/643 651/669/651 644/670/644
vt 0.023930 0.267860
f 651/669/651 643/668/643 652/671/652
f 653/671/653 645/668/645 654/669/654
f 646/670/646 654/669/654 645/668/645
vt 0.116377 0.385074
vt 0.090942 0.375457
vt 0.116853 0.383609
f 655/672/655 656/673/656 647/674/647
f 650/674/650 657/673/657 658/672/658
vt 0.023930 0.328675
vt 0.020930 0.330215
vt 0.020930 0.328675
f 652/675/652 659/676/659 651/677/651
vt 0.023930 0.330215
f 659/676/659 652/675/652 660/678/660
f 661/678/661 653/675/653 662/676/662
f 654/677/654 662/676/662 653/675/653
vt 0.109196 0.423219
vt 0.083525 0.414548
vt 0.109546 0.421725
f 663/679/663 664/680/664 655/681/655
f 658/681/658 665/680/665 666/679/666
vt 0.023930 0.385671
vt 0.020930 0.387206
vt 0.020930 0.385671
f 660/682/660 667/683/667 659/684/659
vt 0.023930 0.387206
f 667/683/667 660/682/660 668/685/668
f 669/685/669 661/682/661 670/683/670
f 662/684/662 670/683/670 661/682/661
vt 0.102796 0.458885
vt 0.076979 0.451005
vt 0.103031 0.457373
f 671/686/671 672/687/672 663/688/663
f 666/688/666 673/687/673 674/686/674
vt 0.023930 0.436132
vt 0.020930 0.437663
vt 0.020930 0.436132
f 668/689/668 675/690/675 667/691/667
vt 0.023930 0.437663
f 675/690/675 668/689/668 676/692/676
f 677/692/677 669/689/669 678/690/678
f 670/691/670 678/690/678 669/689/669
vt 0.097064 0.490744
vt 0.071166 0.483523
vt 0.097197 0.489222
f 679/693/679 680/694/680 671/695/671
f 674/695/674 681/694/681 682/693/682
vt 0.023930 0.478984
vt 0.020930 0.480511
vt 0.020930 0.478984
f 676/696/676 683/697/683 675/698/675
vt 0.023930 0.480511
f 683/697/683 676/696/676 684/699/684
f 685/699/685 677/696/677 686/697/686
f 678/698/678 686/697/686 677/696/677
vt 0.091896 0.517485
vt 0.065964 0.510806
vt 0.091937 0.515960
f 415/700/415 417/701/417 679/702/679
f 682/702/682 422/701/422 420/700/420
vt 0.023930 0.513298
vt 0.020930 0.514824
vt 0.020930 0.513298
f 684/703/684 424/704/424 683/705/683
vt 0.023930 0.514824
f 424/704/424 684/703/684 423/706/423
f 425/706/425 685/703/685 426/704/426
f 686/705/686 426/704/426 685/703/685
vt 0.091521 0.581520
vt 0.065632 0.590156
vt 0.065588 0.588196
f 418/707/418 449/708/449 416/709/416
f 421/709/421 450/708/450 419/707/419
vt 0.169041 0.376402
vt 0.147248 0.393765
vt 0.167775 0.375482
f 687/710/687 688/711/688 443/712/443
f 444/712/444 689/711/689 690/710/690
vt 0.181053 0.313095
vt 0.162197 0.333727
vt 0.179622 0.312455
f 691/713/691 692/714/692 687/715/687
f 690/715/690 693/714/693 694/713/694
vt 0.023930 0.293165
vt 0.020930 0.291597
vt 0.023930 0.291597
f 695/716/695 446/717/446 445/718/445
vt 0.020930 0.293165
f 446/717/446 695/716/695 696/719/696
f 697/719/697 698/716/698 447/717/447
f 448/718/448 447/717/447 698/716/698
vt 0.188337 0.241327
vt 0.174328 0.265581
vt 0.186787 0.241082
f 435/720/435 699/721/699 691/722/691
f 694/722/694 700/721/700 440/720/440
vt 0.023930 0.223730
vt 0.020930 0.222161
vt 0.023930 0.222161
f 429/723/429 696/724/696 695/725/695
vt 0.020930 0.223730
f 696/724/696 429/723/429 428/726/428
f 433/726/433 434/723/434 697/724/697
f 698/725/698 697/724/697 434/723/434
vt -0.023930 -0.366316
vt -0.020930 -0.364747
vt -0.023930 -0.364747
f 701/727/701 430/728/430 427/729/427
vt -0.020930 -0.366316
f 430/728/430 701/727/701 702/730/702
f 703/730/703 704/727/704 431/728/431
f 432/729/432 431/728/431 704/727/704
vt 0.407618 0.189325
vt 0.395295 0.164794
vt 0.396845 0.164549
f 436/731/436 438/732/438 705/733/705
f 706/733/706 439/732/439 441/731/441
vt 0.188208 0.248656
vt 0.175336 0.272904
vt 0.173663 0.272593
f 435/734/435 437/735/437 699/736/699
f 700/736/700 442/735/442 440/734/440
vt -0.023930 -0.287348
vt -0.020930 -0.285780
vt -0.023930 -0.285780
f 707/737/707 702/738/702 701/739/701
vt -0.020930 -0.287348
f 702/738/702 707/737/707 708/740/708
f 709/740/709 710/737/710 703/738/703
f 704/739/704 703/738/703 710/737/710
vt 0.384709 0.143779
vt 0.367438 0.122398
vt 0.368870 0.121760
f 711/741/711 705/742/705 712/743/712
f 713/743/713 706/742/706 714/741/714
vt -0.023930 -0.203493
vt -0.020930 -0.201928
vt -0.023930 -0.201928
f 715/744/715 708/745/708 707/746/707
vt -0.020930 -0.203493
f 708/745/708 715/744/715 716/747/716
f 717/747/717 718/744/718 709/745/709
f 710/746/710 709/745/709 718/744/718
vt 0.354424 0.136071
vt 0.334055 0.117598
vt 0.335324 0.116682
f 719/748/719 712/749/712 720/750/720
f 721/750/721 713/749/713 722/748/722
vt -0.023930 -0.115938
vt -0.020930 -0.114377
vt -0.023930 -0.114377
f 453/751/453 716/752/716 715/753/715
vt -0.020930 -0.115938
f 716/752/716 453/751/453 452/754/452
f 457/754/457 458/751/458 717/752/717
f 718/753/718 717/752/717 458/751/458
vt 0.324613 0.153583
vt 0.302295 0.137534
vt 0.303392 0.136422
f 723/755/723 720/756/720 460/757/460
f 463/757/463 721/756/721 724/755/724
vt 0.151317 0.458354
vt 0.128318 0.473411
vt 0.127185 0.472070
f 443/758/443 688/759/688 371/760/371
f 372/760/372 689/759/689 444/758/444
vt 0.281866 0.212024
vt 0.280916 0.213536
vt 0.257681 0.199109
f 469/761/469 459/762/459 461/763/461
f 462/763/462 464/762/464 472/761/472
vt 0.309365 0.168475
vt 0.308237 0.169820
vt 0.286231 0.153677
f 459/764/459 723/765/723 460/766/460
f 463/766/463 724/765/724 464/764/464
vt 0.233748 0.250831
vt 0.258595 0.262274
vt 0.257809 0.263915
f 470/767/470 725/768/725 469/769/469
f 472/769/472 726/768/726 471/767/471
vt 0.196866 0.361398
vt 0.222863 0.369272
vt 0.222366 0.371091
f 477/770/477 486/771/486 478/772/478
f 479/772/479 487/771/487 480/770/480
vt 0.214440 0.307699
vt 0.240278 0.316600
vt 0.239640 0.318340
f 470/773/470 478/774/478 725/775/725
f 726/775/726 479/774/479 471/773/471
vt 0.181343 0.413788
vt 0.207409 0.420803
vt 0.207041 0.422682
f 485/776/485 494/777/494 486/778/486
f 487/778/487 495/777/495 488/776/488
vt 0.167444 0.463960
vt 0.193516 0.470250
vt 0.193267 0.472170
f 493/779/493 498/780/498 494/781/494
f 495/781/495 499/780/499 496/779/496
vt 0.154846 0.511210
vt 0.180883 0.516883
vt 0.180742 0.518831
f 497/782/497 510/783/510 498/784/498
f 499/784/499 511/783/511 500/782/500
vt 0.143290 0.554901
vt 0.169263 0.560052
vt 0.169219 0.562012
f 509/785/509 389/786/389 510/787/510
f 511/787/511 394/786/394 512/785/512
vt 0.154340 0.579444
vt 0.180108 0.570309
vt 0.180249 0.572257
f 519/788/519 522/789/522 517/790/517
f 518/790/518 523/789/523 520/788/520
vt 0.166674 0.604023
vt 0.192273 0.594318
vt 0.192521 0.596239
f 521/791/521 530/792/530 522/793/522
f 523/793/523 531/792/531 524/791/524
vt 0.180385 0.620849
vt 0.205755 0.610493
vt 0.206121 0.612371
f 529/794/529 538/795/538 530/796/530
f 531/796/531 539/795/539 532/794/532
vt 0.195812 0.629438
vt 0.220873 0.618326
vt 0.221367 0.620146
f 537/797/537 546/798/546 538/799/538
f 539/799/539 547/798/547 540/797/540
vt 0.213398 0.629002
vt 0.238039 0.616998
vt 0.238673 0.618739
f 545/800/545 554/801/554 546/802/546
f 547/802/547 555/801/555 548/800/548
vt 0.234650 0.616367
vt 0.259402 0.604576
vt 0.260192 0.606214
f 561/803/561 567/804/567 554/805/554
f 555/805/555 570/804/570 562/803/562
vt 0.283323 0.582021
vt 0.258299 0.593736
vt 0.282368 0.580512
f 567/806/567 568/807/568 575/808/575
f 578/808/578 569/807/569 570/806/570
vt 0.310538 0.542566
vt 0.286407 0.556282
vt 0.309406 0.541225
f 575/809/575 576/810/576 583/811/583
f 586/811/586 577/810/577 578/809/578
vt 0.342488 0.483079
vt 0.319918 0.499421
vt 0.341164 0.481965
f 583/812/583 584/813/584 591/814/591
f 594/814/594 585/813/585 586/812/586
vt 0.377899 0.395976
vt 0.358158 0.415762
vt 0.376381 0.395186
f 591/815/591 592/816/592 599/817/599
f 600/817/600 593/816/593 594/815/594
vt 0.186661 0.205834
vt 0.173655 0.181621
vt 0.175328 0.181309
f 601/818/601 608/819/608 401/820/401
f 406/820/406 609/819/609 602/818/602
vt 0.177042 0.201748
vt 0.158670 0.181288
vt 0.160187 0.180496
f 607/821/607 616/822/616 608/823/608
f 609/823/609 617/822/617 610/821/610
vt 0.163116 0.221977
vt 0.141722 0.204715
vt 0.143042 0.203598
f 615/824/615 624/825/624 616/826/616
f 617/826/617 625/825/625 618/824/618
vt 0.149839 0.254746
vt 0.126705 0.239947
vt 0.127833 0.238603
f 623/827/623 632/828/632 624/829/624
f 625/829/625 633/828/633 626/827/626
vt 0.138288 0.292799
vt 0.114104 0.279885
vt 0.115053 0.278373
f 631/830/631 640/831/640 632/832/632
f 633/832/633 641/831/641 634/830/634
vt 0.128427 0.332160
vt 0.103580 0.320717
vt 0.104366 0.319076
f 639/833/639 727/834/727 640/835/640
f 641/835/641 728/834/728 642/833/642
vt 0.113741 0.406152
vt 0.087744 0.398279
vt 0.088242 0.396460
f 647/836/647 656/837/656 648/838/648
f 649/838/649 657/837/657 650/836/650
vt 0.121189 0.370082
vt 0.095350 0.361180
vt 0.095988 0.359441
f 639/839/639 648/840/648 727/841/727
f 728/841/728 649/840/649 642/839/642
vt 0.107211 0.439427
vt 0.081146 0.432412
vt 0.081514 0.430534
f 655/842/655 664/843/664 656/844/656
f 657/844/657 665/843/665 658/842/658
vt 0.101436 0.469395
vt 0.075364 0.463106
vt 0.075614 0.461185
f 663/845/663 672/846/672 664/847/664
f 665/847/665 673/846/673 666/845/666
vt 0.096285 0.495626
vt 0.070248 0.489953
vt 0.070389 0.488006
f 671/848/671 680/849/680 672/850/672
f 673/850/673 681/849/681 674/848/674
vt 0.091648 0.517692
vt 0.065674 0.512541
vt 0.065718 0.510580
f 679/851/679 417/852/417 680/853/680
f 681/853/681 422/852/422 682/851/682
vt 0.164607 0.401831
vt 0.143360 0.419286
vt 0.142037 0.418173
f 687/854/687 692/855/692 688/856/688
f 689/856/689 693/855/693 690/854/690
vt 0.178538 0.332082
vt 0.160315 0.352657
vt 0.158797 0.351868
f 691/857/691 699/858/699 692/859/692
f 693/859/693 700/858/700 694/857/694
vt 0.407701 0.182378
vt 0.406028 0.182690
vt 0.394695 0.158165
f 711/860/711 436/861/436 705/862/705
f 706/862/706 441/861/441 714/860/714
vt 0.377598 0.136641
vt 0.376082 0.137433
vt 0.359227 0.116181
f 719/863/719 711/864/711 712/865/712
f 713/865/713 714/864/714 722/863/722
vt 0.341728 0.138959
vt 0.340408 0.140076
vt 0.320334 0.121697
f 723/866/723 719/867/719 720/868/720
f 721/868/721 722/867/722 724/866/724
# 724 faces, 868 coords texture

# End of File
