####
#
# OBJ File Generated by Meshlab
#
####
# Object original-89.obj
#
# Vertices: 96
# Faces: 92
#
####
mtllib ./original-89.obj.mtl

vn 0.000000 2.697974 -1.556074
v -0.381720 0.227247 -0.111085
vn 0.000000 2.697974 -1.556074
v -0.423830 0.227247 -0.111085
vn 0.000000 3.008943 -0.806050
v -0.381720 0.226947 -0.111811
vn 0.000000 3.008943 -0.806050
v -0.423830 0.226947 -0.111811
vn -2.878342 0.000000 0.000000
v -0.381720 0.226844 -0.112589
vn -2.881365 0.000000 0.000000
v -0.381720 0.226947 -0.113367
vn -2.881365 0.000000 0.000000
v -0.381720 0.226947 -0.111811
vn -2.878993 0.000000 0.000000
v -0.381720 0.227247 -0.111085
vn -2.878993 0.000000 0.000000
v -0.381720 0.227247 -0.114093
vn -2.879703 0.000000 0.000000
v -0.381720 0.227725 -0.110462
vn -2.879703 0.000000 0.000000
v -0.381720 0.227725 -0.114716
vn -2.878993 0.000000 0.000000
v -0.381720 0.228348 -0.109984
vn -2.878993 0.000000 0.000000
v -0.381720 0.228348 -0.115194
vn -2.881365 0.000000 0.000000
v -0.381720 0.229074 -0.109684
vn -2.881365 0.000000 0.000000
v -0.381720 0.229074 -0.115494
vn -2.878509 0.000000 0.000000
v -0.381720 0.229852 -0.109581
vn -2.878509 0.000000 0.000000
v -0.381720 0.229852 -0.115597
vn -2.880711 0.000000 0.000000
v -0.381720 0.230631 -0.109684
vn -2.880711 0.000000 0.000000
v -0.381720 0.230631 -0.115494
vn -2.879480 0.000000 0.000000
v -0.381720 0.231356 -0.109984
vn -2.879480 0.000000 0.000000
v -0.381720 0.231356 -0.115194
vn -2.879703 0.000000 0.000000
v -0.381720 0.231979 -0.110462
vn -2.879703 0.000000 0.000000
v -0.381720 0.231979 -0.114716
vn -2.878993 0.000000 0.000000
v -0.381720 0.232457 -0.111085
vn -2.878993 0.000000 0.000000
v -0.381720 0.232457 -0.114093
vn -2.881365 0.000000 0.000000
v -0.381720 0.232757 -0.111811
vn -2.881365 0.000000 0.000000
v -0.381720 0.232757 -0.113367
vn -2.878342 0.000000 0.000000
v -0.381720 0.232860 -0.112589
vn 0.000000 3.114418 0.000000
v -0.381720 0.226844 -0.112589
vn 0.000000 3.114418 -0.000000
v -0.423830 0.226844 -0.112589
vn 2.878342 0.000000 0.000000
v -0.423830 0.226844 -0.112589
vn 2.881365 0.000000 0.000000
v -0.423830 0.226947 -0.111811
vn 2.881365 0.000000 0.000000
v -0.423830 0.226947 -0.113367
vn 2.878993 0.000000 0.000000
v -0.423830 0.227247 -0.114093
vn 2.878993 0.000000 0.000000
v -0.423830 0.227247 -0.111085
vn 2.879703 0.000000 0.000000
v -0.423830 0.227725 -0.114716
vn 2.879703 0.000000 0.000000
v -0.423830 0.227725 -0.110462
vn 2.878993 0.000000 0.000000
v -0.423830 0.228348 -0.115194
vn 2.878993 0.000000 0.000000
v -0.423830 0.228348 -0.109984
vn 2.881365 0.000000 0.000000
v -0.423830 0.229074 -0.115494
vn 2.881365 0.000000 0.000000
v -0.423830 0.229074 -0.109684
vn 2.878509 0.000000 0.000000
v -0.423830 0.229852 -0.115597
vn 2.878509 0.000000 0.000000
v -0.423830 0.229852 -0.109581
vn 2.880711 0.000000 0.000000
v -0.423830 0.230631 -0.115494
vn 2.880711 0.000000 0.000000
v -0.423830 0.230631 -0.109684
vn 2.879480 0.000000 0.000000
v -0.423830 0.231356 -0.115194
vn 2.879480 0.000000 0.000000
v -0.423830 0.231356 -0.109984
vn 2.879703 0.000000 0.000000
v -0.423830 0.231979 -0.114716
vn 2.879703 0.000000 0.000000
v -0.423830 0.231979 -0.110462
vn 2.878993 0.000000 0.000000
v -0.423830 0.232457 -0.114093
vn 2.878993 0.000000 0.000000
v -0.423830 0.232457 -0.111085
vn 2.881365 0.000000 0.000000
v -0.423830 0.232757 -0.113367
vn 2.881365 0.000000 0.000000
v -0.423830 0.232757 -0.111811
vn 2.878342 0.000000 0.000000
v -0.423830 0.232860 -0.112589
vn 0.000000 2.202424 -2.202424
v -0.381720 0.227725 -0.110462
vn 0.000000 2.202424 -2.202424
v -0.423830 0.227725 -0.110462
vn 0.000000 1.556074 -2.697974
v -0.381720 0.228348 -0.109984
vn 0.000000 1.556074 -2.697974
v -0.423830 0.228348 -0.109984
vn 0.000000 0.806050 -3.008943
v -0.381720 0.229074 -0.109684
vn 0.000000 0.806050 -3.008943
v -0.423830 0.229074 -0.109684
vn 0.000000 0.000260 -3.114452
v -0.381720 0.229852 -0.109581
vn 0.000000 0.000260 -3.114452
v -0.423830 0.229852 -0.109581
vn 0.000000 -0.806497 -3.008685
v -0.381720 0.230631 -0.109684
vn 0.000000 -0.806497 -3.008685
v -0.423830 0.230631 -0.109684
vn 0.000000 -1.556781 -2.697682
v -0.381720 0.231356 -0.109984
vn 0.000000 -1.556781 -2.697682
v -0.423830 0.231356 -0.109984
vn 0.000000 -2.202424 -2.202424
v -0.381720 0.231979 -0.110462
vn 0.000000 -2.202424 -2.202424
v -0.423830 0.231979 -0.110462
vn 0.000000 -2.697974 -1.556074
v -0.423830 0.232457 -0.111085
vn 0.000000 -2.697974 -1.556074
v -0.381720 0.232457 -0.111085
vn 0.000000 -3.008943 -0.806050
v -0.423830 0.232757 -0.111811
vn 0.000000 -3.008943 -0.806050
v -0.381720 0.232757 -0.111811
vn 0.000000 -3.114418 0.000000
v -0.423830 0.232860 -0.112589
vn 0.000000 -3.114418 -0.000000
v -0.381720 0.232860 -0.112589
vn 0.000000 -3.008943 0.806050
v -0.423830 0.232757 -0.113367
vn 0.000000 -3.008943 0.806050
v -0.381720 0.232757 -0.113367
vn 0.000000 -2.697974 1.556074
v -0.423830 0.232457 -0.114093
vn 0.000000 -2.697974 1.556074
v -0.381720 0.232457 -0.114093
vn 0.000000 -2.202424 2.202424
v -0.423830 0.231979 -0.114716
vn 0.000000 -2.202424 2.202424
v -0.381720 0.231979 -0.114716
vn 0.000000 -1.556781 2.697682
v -0.381720 0.231356 -0.115194
vn 0.000000 -1.556781 2.697682
v -0.423830 0.231356 -0.115194
vn 0.000000 -0.806497 3.008685
v -0.381720 0.230631 -0.115494
vn 0.000000 -0.806497 3.008685
v -0.423830 0.230631 -0.115494
vn 0.000000 0.000260 3.114452
v -0.381720 0.229852 -0.115597
vn 0.000000 0.000260 3.114452
v -0.423830 0.229852 -0.115597
vn 0.000000 0.806050 3.008943
v -0.381720 0.229074 -0.115494
vn 0.000000 0.806050 3.008943
v -0.423830 0.229074 -0.115494
vn 0.000000 1.556074 2.697974
v -0.381720 0.228348 -0.115194
vn 0.000000 1.556074 2.697974
v -0.423830 0.228348 -0.115194
vn 0.000000 2.202424 2.202424
v -0.381720 0.227725 -0.114716
vn 0.000000 2.202424 2.202424
v -0.423830 0.227725 -0.114716
vn 0.000000 2.697974 1.556074
v -0.381720 0.227247 -0.114093
vn 0.000000 2.697974 1.556074
v -0.423830 0.227247 -0.114093
vn 0.000000 3.008943 0.806050
v -0.381720 0.226947 -0.113367
vn 0.000000 3.008943 0.806050
v -0.423830 0.226947 -0.113367
# 96 vertices, 0 vertices normals


usemtl material_0
f 3//3 2//2 1//1
f 2//2 3//3 4//4
f 7//7 6//6 5//5
f 8//8 6//6 7//7
f 8//8 9//9 6//6
f 10//10 9//9 8//8
f 10//10 11//11 9//9
f 12//12 11//11 10//10
f 12//12 13//13 11//11
f 14//14 13//13 12//12
f 14//14 15//15 13//13
f 16//16 15//15 14//14
f 16//16 17//17 15//15
f 18//18 17//17 16//16
f 18//18 19//19 17//17
f 20//20 19//19 18//18
f 20//20 21//21 19//19
f 22//22 21//21 20//20
f 22//22 23//23 21//21
f 24//24 23//23 22//22
f 24//24 25//25 23//23
f 26//26 25//25 24//24
f 26//26 27//27 25//25
f 27//27 26//26 28//28
f 29//29 4//4 3//3
f 4//4 29//29 30//30
f 33//33 32//32 31//31
f 34//34 32//32 33//33
f 34//34 35//35 32//32
f 36//36 35//35 34//34
f 36//36 37//37 35//35
f 38//38 37//37 36//36
f 38//38 39//39 37//37
f 40//40 39//39 38//38
f 40//40 41//41 39//39
f 42//42 41//41 40//40
f 42//42 43//43 41//41
f 44//44 43//43 42//42
f 44//44 45//45 43//43
f 46//46 45//45 44//44
f 46//46 47//47 45//45
f 48//48 47//47 46//46
f 48//48 49//49 47//47
f 50//50 49//49 48//48
f 50//50 51//51 49//49
f 52//52 51//51 50//50
f 52//52 53//53 51//51
f 53//53 52//52 54//54
f 1//1 56//56 55//55
f 56//56 1//1 2//2
f 56//56 57//57 55//55
f 57//57 56//56 58//58
f 58//58 59//59 57//57
f 59//59 58//58 60//60
f 60//60 61//61 59//59
f 61//61 60//60 62//62
f 62//62 63//63 61//61
f 63//63 62//62 64//64
f 64//64 65//65 63//63
f 65//65 64//64 66//66
f 66//66 67//67 65//65
f 67//67 66//66 68//68
f 69//69 67//67 68//68
f 67//67 69//69 70//70
f 71//71 70//70 69//69
f 70//70 71//71 72//72
f 73//73 72//72 71//71
f 72//72 73//73 74//74
f 75//75 74//74 73//73
f 74//74 75//75 76//76
f 77//77 76//76 75//75
f 76//76 77//77 78//78
f 79//79 78//78 77//77
f 78//78 79//79 80//80
f 79//79 81//81 80//80
f 81//81 79//79 82//82
f 82//82 83//83 81//81
f 83//83 82//82 84//84
f 84//84 85//85 83//83
f 85//85 84//84 86//86
f 86//86 87//87 85//85
f 87//87 86//86 88//88
f 88//88 89//89 87//87
f 89//89 88//88 90//90
f 90//90 91//91 89//89
f 91//91 90//90 92//92
f 91//91 94//94 93//93
f 94//94 91//91 92//92
f 93//93 96//96 95//95
f 96//96 93//93 94//94
f 95//95 30//30 29//29
f 30//30 95//95 96//96
# 92 faces, 0 coords texture

# End of File
