####
#
# OBJ File Generated by Meshlab
#
####
# Object original-17.obj
#
# Vertices: 96
# Faces: 96
#
####
mtllib ./original-17.obj.mtl

vn 0.000000 1.916563 -2.455981
v 0.322106 -0.591927 0.291109
vn 0.000000 2.486867 -1.873988
v 0.352184 -0.592202 0.290829
vn 0.000000 2.486867 -1.873988
v 0.322106 -0.592202 0.290829
vn 0.000000 1.916563 -2.455981
v 0.352184 -0.591927 0.291109
vn 0.000000 -1.916563 2.455981
v 0.352184 -0.591927 0.291109
vn 0.000000 -1.916563 2.455981
v 0.322106 -0.591927 0.291109
vn 0.000000 -2.486867 1.873988
v 0.352184 -0.592202 0.290829
vn 0.000000 -2.486867 1.873988
v 0.322106 -0.592202 0.290829
vn 0.000000 2.889117 -1.165359
v 0.352184 -0.592395 0.290487
vn 0.000000 2.889117 -1.165359
v 0.322106 -0.592395 0.290487
vn 0.000000 -2.889117 1.165359
v 0.352184 -0.592395 0.290487
vn 0.000000 -2.889117 1.165359
v 0.322106 -0.592395 0.290487
vn 0.000000 1.219401 -2.866092
v 0.322106 -0.591589 0.291308
vn 0.000000 1.219401 -2.866092
v 0.352184 -0.591589 0.291308
vn 0.000000 -1.219401 2.866092
v 0.352184 -0.591589 0.291308
vn 0.000000 -1.219401 2.866092
v 0.322106 -0.591589 0.291308
vn 0.000000 3.091156 -0.379726
v 0.352184 -0.592494 0.290107
vn 0.000000 3.091156 -0.379726
v 0.322106 -0.592494 0.290107
vn 0.000000 -3.091156 0.379726
v 0.352184 -0.592494 0.290107
vn 0.000000 -3.091156 0.379726
v 0.322106 -0.592494 0.290107
vn 0.000000 0.435873 -3.084049
v 0.322106 -0.591210 0.291414
vn 0.000000 0.435873 -3.084049
v 0.352184 -0.591210 0.291414
vn 0.000000 -0.435873 3.084049
v 0.352184 -0.591210 0.291414
vn 0.000000 -0.435873 3.084049
v 0.322106 -0.591210 0.291414
vn 0.000000 3.084700 0.433526
v 0.352184 -0.592490 0.289715
vn 0.000000 3.084700 0.433526
v 0.322106 -0.592490 0.289715
vn 0.000000 -3.084700 -0.433526
v 0.352184 -0.592490 0.289715
vn 0.000000 -3.084700 -0.433526
v 0.322106 -0.592490 0.289715
vn 0.000000 -0.379726 -3.091156
v 0.352184 -0.590818 0.291417
vn 0.000000 -0.379726 -3.091156
v 0.322106 -0.590818 0.291417
vn 0.000000 0.379726 3.091156
v 0.352184 -0.590818 0.291417
vn 0.000000 0.379726 3.091156
v 0.322106 -0.590818 0.291417
vn 0.000000 2.868616 1.213872
v 0.322106 -0.592385 0.289337
vn 0.000000 2.868616 1.213872
v 0.352184 -0.592385 0.289337
vn 0.000000 -2.868616 -1.213872
v 0.352184 -0.592385 0.289337
vn 0.000000 -2.868616 -1.213872
v 0.322106 -0.592385 0.289337
vn 0.000000 -1.168814 -2.887165
v 0.352184 -0.590438 0.291319
vn 0.000000 -1.168814 -2.887165
v 0.322106 -0.590438 0.291319
vn 0.000000 1.168814 2.887165
v 0.352184 -0.590438 0.291319
vn 0.000000 1.168814 2.887165
v 0.322106 -0.590438 0.291319
vn 0.000000 2.455025 1.916165
v 0.322106 -0.592186 0.288998
vn 0.000000 2.455025 1.916165
v 0.352184 -0.592186 0.288998
vn 0.000000 -2.455025 -1.916165
v 0.352184 -0.592186 0.288998
vn 0.000000 -2.455025 -1.916165
v 0.322106 -0.592186 0.288998
vn 0.000000 -1.874245 -2.488062
v 0.352184 -0.590096 0.291125
vn 0.000000 -1.874245 -2.488062
v 0.322106 -0.590096 0.291125
vn 0.000000 1.874245 2.488062
v 0.352184 -0.590096 0.291125
vn 0.000000 1.874245 2.488062
v 0.322106 -0.590096 0.291125
vn 0.000000 1.875067 2.487443
v 0.322106 -0.591906 0.288723
vn 0.000000 1.875067 2.487443
v 0.352184 -0.591906 0.288723
vn 0.000000 -1.875067 -2.487443
v 0.352184 -0.591906 0.288723
vn 0.000000 -1.875067 -2.487443
v 0.322106 -0.591906 0.288723
vn 0.000000 -2.453559 -1.918392
v 0.352184 -0.589815 0.290850
vn 0.000000 -2.453559 -1.918392
v 0.322106 -0.589815 0.290850
vn 0.000000 2.453559 1.918392
v 0.352184 -0.589815 0.290850
vn 0.000000 2.453559 1.918392
v 0.322106 -0.589815 0.290850
vn 0.000000 1.164201 2.888214
v 0.322106 -0.591564 0.288529
vn 0.000000 1.164201 2.888214
v 0.352184 -0.591564 0.288529
vn 0.000000 -1.164201 -2.888214
v 0.352184 -0.591564 0.288529
vn 0.000000 -1.164201 -2.888214
v 0.322106 -0.591564 0.288529
vn 0.000000 -2.866869 -1.218082
v 0.352184 -0.589617 0.290512
vn 0.000000 -2.866869 -1.218082
v 0.322106 -0.589617 0.290512
vn 0.000000 2.866869 1.218082
v 0.352184 -0.589617 0.290512
vn 0.000000 2.866869 1.218082
v 0.322106 -0.589617 0.290512
vn 0.000000 0.377097 3.092482
v 0.322106 -0.591184 0.288432
vn 0.000000 0.377097 3.092482
v 0.352184 -0.591184 0.288432
vn 0.000000 -0.377097 -3.092482
v 0.352184 -0.591184 0.288432
vn 0.000000 -0.377097 -3.092482
v 0.322106 -0.591184 0.288432
vn 0.000000 -3.084070 -0.433438
v 0.352184 -0.589511 0.290133
vn 0.000000 -3.084070 -0.433438
v 0.322106 -0.589511 0.290133
vn 0.000000 3.084070 0.433438
v 0.352184 -0.589511 0.290133
vn 0.000000 3.084070 0.433438
v 0.322106 -0.589511 0.290133
vn 0.000000 -0.431091 3.084721
v 0.322106 -0.590791 0.288435
vn 0.000000 -0.431091 3.084721
v 0.352184 -0.590791 0.288435
vn 0.000000 0.431091 -3.084721
v 0.352184 -0.590791 0.288435
vn 0.000000 0.431091 -3.084721
v 0.322106 -0.590791 0.288435
vn 0.000000 -3.091177 0.382162
v 0.322106 -0.589508 0.289740
vn 0.000000 -3.091177 0.382162
v 0.352184 -0.589508 0.289740
vn 0.000000 3.091177 -0.382162
v 0.322106 -0.589508 0.289740
vn 0.000000 3.091177 -0.382162
v 0.352184 -0.589508 0.289740
vn 0.000000 -1.217054 2.866743
v 0.352184 -0.590413 0.288539
vn 0.000000 -1.217054 2.866743
v 0.322106 -0.590413 0.288539
vn 0.000000 1.217054 -2.866743
v 0.322106 -0.590413 0.288539
vn 0.000000 1.217054 -2.866743
v 0.352184 -0.590413 0.288539
vn 0.000000 -2.887165 1.168814
v 0.322106 -0.589607 0.289360
vn 0.000000 -2.887165 1.168814
v 0.352184 -0.589607 0.289360
vn 0.000000 2.887165 -1.168814
v 0.322106 -0.589607 0.289360
vn 0.000000 2.887165 -1.168814
v 0.352184 -0.589607 0.289360
vn 0.000000 -1.919347 2.453152
v 0.352184 -0.590075 0.288739
vn 0.000000 -1.919347 2.453152
v 0.322106 -0.590075 0.288739
vn 0.000000 1.919347 -2.453152
v 0.322106 -0.590075 0.288739
vn 0.000000 1.919347 -2.453152
v 0.352184 -0.590075 0.288739
vn 0.000000 -2.487698 1.874615
v 0.322106 -0.589800 0.289019
vn 0.000000 -2.487698 1.874615
v 0.352184 -0.589800 0.289019
vn 0.000000 2.487698 -1.874615
v 0.322106 -0.589800 0.289019
vn 0.000000 2.487698 -1.874615
v 0.352184 -0.589800 0.289019
# 96 vertices, 0 vertices normals


usemtl material_0
vt -0.030000 0.026666
vt -0.050000 0.026405
vt -0.030000 0.026405
f 1/1/1 2/2/2 3/3/3
vt -0.050000 0.026666
f 2/2/2 1/1/1 4/4/4
f 5/4/5 6/1/6 7/2/7
f 8/3/8 7/2/7 6/1/6
vt 0.030000 -0.026018
vt 0.050000 -0.025757
vt 0.030000 -0.025757
f 3/5/3 9/6/9 10/7/10
vt 0.050000 -0.026018
f 9/6/9 3/5/3 2/8/2
f 7/8/7 8/5/8 11/6/11
f 12/7/12 11/6/11 8/5/8
vt -0.030000 0.025506
vt -0.050000 0.025245
vt -0.030000 0.025245
f 13/9/13 4/10/4 1/11/1
vt -0.050000 0.025506
f 4/10/4 13/9/13 14/12/14
f 15/12/15 16/9/16 5/10/5
f 6/11/6 5/10/5 16/9/16
vt 0.030000 -0.023606
vt 0.050000 -0.023345
vt 0.030000 -0.023345
f 10/13/10 17/14/17 18/15/18
vt 0.050000 -0.023606
f 17/14/17 10/13/10 9/16/9
f 11/16/11 12/13/12 19/14/19
f 20/15/20 19/14/19 12/13/12
vt -0.030000 0.022616
vt -0.050000 0.022355
vt -0.030000 0.022355
f 21/17/21 14/18/14 13/19/13
vt -0.050000 0.022616
f 14/18/14 21/17/21 22/20/22
f 23/20/23 24/17/24 15/18/15
f 16/19/16 15/18/15 24/17/24
vt 0.030000 -0.019594
vt 0.050000 -0.019333
vt 0.030000 -0.019333
f 18/21/18 25/22/25 26/23/26
vt 0.050000 -0.019594
f 25/22/25 18/21/18 17/24/17
f 19/24/19 20/21/20 27/22/27
f 28/23/28 27/22/27 20/21/20
vt -0.050000 0.018194
vt -0.030000 0.017933
vt -0.030000 0.018194
f 29/25/29 21/26/21 30/27/30
vt -0.050000 0.017933
f 21/26/21 29/25/29 22/28/22
f 23/28/23 31/25/31 24/26/24
f 32/27/32 24/26/24 31/25/31
vt 0.050000 -0.014256
vt 0.030000 -0.013995
vt 0.030000 -0.014256
f 25/29/25 33/30/33 26/31/26
vt 0.050000 -0.013995
f 33/30/33 25/29/25 34/32/34
f 35/32/35 27/29/27 36/30/36
f 28/31/28 36/30/36 27/29/27
vt -0.050000 0.012541
vt -0.030000 0.012280
vt -0.030000 0.012541
f 37/33/37 30/34/30 38/35/38
vt -0.050000 0.012280
f 30/34/30 37/33/37 29/36/29
f 31/36/31 39/33/39 32/34/32
f 40/35/40 32/34/32 39/33/39
vt 0.050000 -0.007955
vt 0.030000 -0.007694
vt 0.030000 -0.007955
f 34/37/34 41/38/41 33/39/33
vt 0.050000 -0.007694
f 41/38/41 34/37/34 42/40/42
f 43/40/43 35/37/35 44/38/44
f 36/39/36 44/38/44 35/37/35
vt -0.050000 0.006042
vt -0.030000 0.005781
vt -0.030000 0.006042
f 45/41/45 38/42/38 46/43/46
vt -0.050000 0.005781
f 38/42/38 45/41/45 37/44/37
f 39/44/39 47/41/47 40/42/40
f 48/43/48 40/42/40 47/41/47
vt 0.050000 -0.001121
vt 0.030000 -0.000860
vt 0.030000 -0.001121
f 42/45/42 49/46/49 41/47/41
vt 0.050000 -0.000860
f 49/46/49 42/45/42 50/48/50
f 51/48/51 43/45/43 52/46/52
f 44/47/44 52/46/52 43/45/43
vt -0.050000 -0.000860
vt -0.030000 -0.001121
vt -0.030000 -0.000860
f 53/49/53 46/50/46 54/51/54
vt -0.050000 -0.001121
f 46/50/46 53/49/53 45/52/45
f 47/52/47 55/49/55 48/50/48
f 56/51/56 48/50/48 55/49/55
vt 0.050000 0.005781
vt 0.030000 0.006042
vt 0.030000 0.005781
f 50/53/50 57/54/57 49/55/49
vt 0.050000 0.006042
f 57/54/57 50/53/50 58/56/58
f 59/56/59 51/53/51 60/54/60
f 52/55/52 60/54/60 51/53/51
vt -0.050000 -0.007694
vt -0.030000 -0.007955
vt -0.030000 -0.007694
f 61/57/61 54/58/54 62/59/62
vt -0.050000 -0.007955
f 54/58/54 61/57/61 53/60/53
f 55/60/55 63/57/63 56/58/56
f 64/59/64 56/58/56 63/57/63
vt 0.050000 0.012280
vt 0.030000 0.012541
vt 0.030000 0.012280
f 58/61/58 65/62/65 57/63/57
vt 0.050000 0.012541
f 65/62/65 58/61/58 66/64/66
f 67/64/67 59/61/59 68/62/68
f 60/63/60 68/62/68 59/61/59
vt -0.050000 -0.013995
vt -0.030000 -0.014256
vt -0.030000 -0.013995
f 69/65/69 62/66/62 70/67/70
vt -0.050000 -0.014256
f 62/66/62 69/65/69 61/68/61
f 63/68/63 71/65/71 64/66/64
f 72/67/72 64/66/64 71/65/71
vt 0.050000 0.017933
vt 0.030000 0.018194
vt 0.030000 0.017933
f 66/69/66 73/70/73 65/71/65
vt 0.050000 0.018194
f 73/70/73 66/69/66 74/72/74
f 75/72/75 67/69/67 76/70/76
f 68/71/68 76/70/76 67/69/67
vt -0.050000 -0.019594
vt -0.030000 -0.019333
vt -0.050000 -0.019333
f 69/73/69 77/74/77 78/75/78
vt -0.030000 -0.019594
f 77/74/77 69/73/69 70/76/70
f 72/76/72 71/73/71 79/74/79
f 80/75/80 79/74/79 71/73/71
vt 0.050000 0.022616
vt 0.030000 0.022355
vt 0.050000 0.022355
f 81/77/81 73/78/73 74/79/74
vt 0.030000 0.022616
f 73/78/73 81/77/81 82/80/82
f 83/80/83 84/77/84 76/78/76
f 75/79/75 76/78/76 84/77/84
vt -0.050000 -0.023606
vt -0.030000 -0.023345
vt -0.050000 -0.023345
f 78/81/78 85/82/85 86/83/86
vt -0.030000 -0.023606
f 85/82/85 78/81/78 77/84/77
f 79/84/79 80/81/80 87/82/87
f 88/83/88 87/82/87 80/81/80
vt 0.050000 0.025506
vt 0.030000 0.025245
vt 0.050000 0.025245
f 89/85/89 82/86/82 81/87/81
vt 0.030000 0.025506
f 82/86/82 89/85/89 90/88/90
f 91/88/91 92/85/92 83/86/83
f 84/87/84 83/86/83 92/85/92
vt -0.050000 -0.026018
vt -0.030000 -0.025757
vt -0.050000 -0.025757
f 86/89/86 93/90/93 94/91/94
vt -0.030000 -0.026018
f 93/90/93 86/89/86 85/92/85
f 87/92/87 88/89/88 95/90/95
f 96/91/96 95/90/95 88/89/88
vt 0.050000 0.026666
vt 0.030000 0.026405
vt 0.050000 0.026405
f 94/93/94 90/94/90 89/95/89
vt 0.030000 0.026666
f 90/94/90 94/93/94 93/96/93
f 95/96/95 96/93/96 91/94/91
f 92/95/92 91/94/91 96/93/96
# 96 faces, 96 coords texture

# End of File
